<svg viewBox="0 0 24 24" fill="none" xmlns="http://www.w3.org/2000/svg" width="1em" height="1em"><path d="M2.076 15.235C1.92965 15.4692 2.00083 15.7776 2.235 15.924C2.46917 16.0704 2.77764 15.9992 2.924 15.765L2.076 15.235ZM21.924 8.765C22.0704 8.53083 21.9992 8.22236 21.765 8.076C21.5308 7.92965 21.2224 8.00083 21.076 8.235L21.924 8.765ZM16.6332 16.2868L16.2092 16.0218L16.6332 16.2868ZM7.67777 7.67777L7.32422 8.03133L7.67777 7.67777ZM7.36675 7.7132L7.79075 7.97819L7.36675 7.7132ZM7.32422 8.03133L15.9687 16.6758L16.6758 15.9687L8.03133 7.32422L7.32422 8.03133ZM17.0572 16.5518L21.924 8.765L21.076 8.235L16.2092 16.0218L17.0572 16.5518ZM2.924 15.765L7.79075 7.97819L6.94275 7.4482L2.076 15.235L2.924 15.765ZM15.9687 16.6758C16.287 16.9941 16.8187 16.9335 17.0572 16.5518L16.2092 16.0218C16.3115 15.8582 16.5394 15.8323 16.6758 15.9687L15.9687 16.6758ZM8.03133 7.32422C7.71302 7.00591 7.18134 7.06646 6.94275 7.4482L7.79075 7.97819C7.6885 8.1418 7.46064 8.16775 7.32422 8.03133L8.03133 7.32422Z" fill="currentColor"/><path d="M2.5 12H21.5" stroke="currentColor" stroke-linecap="round"/></svg>
