<svg viewBox="0 0 16 16" fill="none" xmlns="http://www.w3.org/2000/svg" width="1em" height="1em"><path d="M1.08397 11.2227C0.930799 11.4524 0.992886 11.7628 1.22265 11.916C1.45241 12.0692 1.76285 12.0071 1.91603 11.7773L1.08397 11.2227ZM14.916 5.77735C15.0692 5.54759 15.0071 5.23715 14.7774 5.08397C14.5476 4.9308 14.2372 4.99289 14.084 5.22265L14.916 5.77735ZM10.3285 11.2942L9.94441 11.6143L10.3285 11.2942ZM10.6486 11.2771L11.0646 11.5545L10.6486 11.2771ZM5.67148 5.70577L5.28737 6.02586L5.67148 5.70577ZM5.28737 6.02586L9.94441 11.6143L10.7126 10.9741L6.05559 5.38568L5.28737 6.02586ZM11.0646 11.5545L14.916 5.77735L14.084 5.22265L10.2326 10.9998L11.0646 11.5545ZM1.91603 11.7773L5.76745 6.00022L4.9354 5.44552L1.08397 11.2227L1.91603 11.7773ZM9.94441 11.6143C10.244 11.9738 10.8051 11.9438 11.0646 11.5545L10.2326 10.9998C10.3438 10.8329 10.5843 10.8201 10.7126 10.9741L9.94441 11.6143ZM6.05559 5.38568C5.75604 5.02622 5.19495 5.05619 4.9354 5.44552L5.76745 6.00022C5.65621 6.16707 5.41574 6.17992 5.28737 6.02586L6.05559 5.38568Z" fill="currentColor"/><path d="M1.5 8.5H14.5" stroke="currentColor" stroke-linecap="round"/></svg>
