<svg viewBox="0 0 32 32" fill="none" xmlns="http://www.w3.org/2000/svg" width="1em" height="1em"><path d="M4.10532 20.193C3.93579 20.411 3.97506 20.7251 4.19303 20.8947C4.411 21.0642 4.72514 21.0249 4.89468 20.807L4.10532 20.193ZM27.8947 11.807C28.0642 11.589 28.0249 11.2749 27.807 11.1053C27.589 10.9358 27.2749 10.9751 27.1053 11.193L27.8947 11.807ZM20.6391 20.3212L20.2444 20.0142L20.6391 20.3212ZM11.6602 11.6602L12.0138 11.3066L11.6602 11.6602ZM11.3609 11.6788L11.7556 11.9858L11.3609 11.6788ZM11.3066 12.0138L19.9862 20.6934L20.6934 19.9862L12.0138 11.3066L11.3066 12.0138ZM21.0338 20.6281L27.8947 11.807L27.1053 11.193L20.2444 20.0142L21.0338 20.6281ZM4.89468 20.807L11.7556 11.9858L10.9662 11.3719L4.10532 20.193L4.89468 20.807ZM19.9862 20.6934C20.284 20.9911 20.7753 20.9605 21.0338 20.6281L20.2444 20.0142C20.3552 19.8718 20.5658 19.8587 20.6934 19.9862L19.9862 20.6934ZM12.0138 11.3066C11.716 11.0089 11.2247 11.0395 10.9662 11.3719L11.7556 11.9858C11.6448 12.1282 11.4342 12.1414 11.3066 12.0138L12.0138 11.3066Z" fill="currentColor"/><path d="M2.5 16H29.5" stroke="currentColor" stroke-linecap="round"/></svg>
