<svg xmlns="http://www.w3.org/2000/svg" fill="none" viewBox="0 0 32 32" width="1em" height="1em"><path stroke="currentColor" stroke-linecap="round" d="M7.5 8.071v0C7.5 7.48 7.02 7 6.429 7H5a1.5 1.5 0 0 0-1.5 1.5v0A1.5 1.5 0 0 0 5 10h1a1.5 1.5 0 0 1 1.5 1.5v0A1.5 1.5 0 0 1 6 13H5a1.5 1.5 0 0 1-1.5-1.5v0m2-4.5V5.5m0 7.5v1.5"/><rect width="5" height="8" x="4.5" y="19.5" stroke="currentColor" rx="1.5"/><rect width="5" height="13" x="13.5" y="14.5" stroke="currentColor" rx="1.5"/><rect width="5" height="21" x="22.5" y="6.5" stroke="currentColor" rx="1.5"/><path stroke="currentColor" stroke-linecap="round" stroke-linejoin="round" d="M9.5 14.5 19 5m-4.5-.5h5v5"/></svg>
