<svg xmlns="http://www.w3.org/2000/svg" fill="none" viewBox="0 0 24 24" width="1em" height="1em"><path stroke="currentColor" stroke-linecap="round" d="M6.5 5.893v0c0-.77-.624-1.393-1.393-1.393H4A1.5 1.5 0 0 0 2.5 6v0A1.5 1.5 0 0 0 4 7.5h1A1.5 1.5 0 0 1 6.5 9v0A1.5 1.5 0 0 1 5 10.5H4A1.5 1.5 0 0 1 2.5 9v-.25m2-4.25v-1m0 7v1"/><rect width="4" height="7" x="3.5" y="13.5" stroke="currentColor" rx="1"/><rect width="4" height="10" x="10" y="10.5" stroke="currentColor" rx="1"/><rect width="4" height="16" x="16.5" y="4.5" stroke="currentColor" rx="1"/><path stroke="currentColor" stroke-linecap="round" stroke-linejoin="round" d="M8.5 8.5 13 4m-3.5-.5h4v4"/></svg>
