<svg viewBox="0 0 16 16" fill="none" xmlns="http://www.w3.org/2000/svg" width="1em" height="1em"><path d="M6.85355 9.85355C7.04882 9.65829 7.04882 9.34171 6.85355 9.14645C6.65829 8.95118 6.34171 8.95118 6.14645 9.14645L6.85355 9.85355ZM9.14645 6.14645C8.95118 6.34171 8.95118 6.65829 9.14645 6.85355C9.34171 7.04882 9.65829 7.04882 9.85355 6.85355L9.14645 6.14645ZM6.06659 6.06659L5.71304 6.42015L6.06659 6.06659ZM6.42015 10.287L6.85355 9.85355L6.14645 9.14645L5.71304 9.57985L6.42015 10.287ZM5.71304 6.42015L9.57986 10.287L10.287 9.57986L6.42015 5.71304L5.71304 6.42015ZM9.57985 5.71304L9.14645 6.14645L9.85355 6.85355L10.287 6.42015L9.57985 5.71304ZM14.3008 5.87023C13.0688 4.46224 10.9028 4.39011 9.57985 5.71304L10.287 6.42015C11.2008 5.50626 12.6972 5.55608 13.5483 6.52874L14.3008 5.87023ZM9.57986 10.287C10.9028 11.6099 13.0688 11.5378 14.3008 10.1298L13.5483 9.47126C12.6972 10.4439 11.2009 10.4937 10.287 9.57986L9.57986 10.287ZM1.69916 10.1298C2.93116 11.5378 5.09722 11.6099 6.42015 10.287L5.71304 9.57985C4.79915 10.4937 3.30281 10.4439 2.45174 9.47126L1.69916 10.1298ZM1.69916 5.87023C0.632192 7.08963 0.632192 8.91037 1.69916 10.1298L2.45174 9.47126C1.71467 8.62889 1.71467 7.37111 2.45174 6.52874L1.69916 5.87023ZM14.3008 10.1298C15.3678 8.91037 15.3678 7.08963 14.3008 5.87023L13.5483 6.52874C14.2853 7.37111 14.2853 8.62889 13.5483 9.47126L14.3008 10.1298ZM2.45174 6.52874C3.30281 5.55608 4.79915 5.50626 5.71304 6.42015L6.42015 5.71304C5.09722 4.39012 2.93116 4.46224 1.69916 5.87023L2.45174 6.52874Z" fill="currentColor"/></svg>
