<svg viewBox="0 0 24 24" fill="none" xmlns="http://www.w3.org/2000/svg" width="1em" height="1em"><path d="M13.4798 9.31311C13.2845 9.50838 13.2845 9.82496 13.4798 10.0202C13.675 10.2155 13.9916 10.2155 14.1869 10.0202L13.4798 9.31311ZM10.5202 13.6869C10.7155 13.4916 10.7155 13.175 10.5202 12.9798C10.325 12.7845 10.0084 12.7845 9.81311 12.9798L10.5202 13.6869ZM14.75 8.75L14.3964 8.39645L14.75 8.75ZM8.89645 9.10355L14.3964 14.6036L15.1036 13.8964L9.60355 8.39645L8.89645 9.10355ZM14.3964 8.39645L13.4798 9.31311L14.1869 10.0202L15.1036 9.10355L14.3964 8.39645ZM9.60355 14.6036L10.5202 13.6869L9.81311 12.9798L8.89645 13.8964L9.60355 14.6036ZM3.39645 14.6036C5.11049 16.3176 7.88951 16.3176 9.60355 14.6036L8.89645 13.8964C7.57293 15.22 5.42707 15.22 4.10355 13.8964L3.39645 14.6036ZM20.6036 8.39645C18.8895 6.6824 16.1105 6.6824 14.3964 8.39645L15.1036 9.10355C16.4271 7.78003 18.5729 7.78003 19.8964 9.10355L20.6036 8.39645ZM20.6036 14.6036C22.3176 12.8895 22.3176 10.1105 20.6036 8.39645L19.8964 9.10355C21.22 10.4271 21.22 12.5729 19.8964 13.8964L20.6036 14.6036ZM14.3964 14.6036C16.1105 16.3176 18.8895 16.3176 20.6036 14.6036L19.8964 13.8964C18.5729 15.22 16.4271 15.22 15.1036 13.8964L14.3964 14.6036ZM3.39645 8.39645C1.6824 10.1105 1.6824 12.8895 3.39645 14.6036L4.10355 13.8964C2.78003 12.5729 2.78003 10.4271 4.10355 9.10355L3.39645 8.39645ZM9.60355 8.39645C7.88951 6.6824 5.11049 6.6824 3.39645 8.39645L4.10355 9.10355C5.42707 7.78003 7.57293 7.78003 8.89645 9.10355L9.60355 8.39645Z" fill="currentColor"/></svg>
