<svg viewBox="0 0 32 32" fill="none" xmlns="http://www.w3.org/2000/svg" width="1em" height="1em"><path d="M14.0678 18.6393C14.2631 18.444 14.2631 18.1274 14.0678 17.9322C13.8726 17.7369 13.556 17.7369 13.3607 17.9322L14.0678 18.6393ZM17.9322 13.3607C17.7369 13.556 17.7369 13.8726 17.9322 14.0678C18.1274 14.2631 18.444 14.2631 18.6393 14.0678L17.9322 13.3607ZM12.3536 20.3536L14.0678 18.6393L13.3607 17.9322L11.6464 19.6464L12.3536 20.3536ZM11.6464 12.3536L19.6465 20.3536L20.3536 19.6464L12.3536 11.6464L11.6464 12.3536ZM19.6464 11.6464L17.9322 13.3607L18.6393 14.0678L20.3536 12.3536L19.6464 11.6464ZM28.3536 11.6464C25.9492 9.24205 22.0508 9.24205 19.6464 11.6464L20.3536 12.3536C22.3674 10.3397 25.6326 10.3397 27.6464 12.3536L28.3536 11.6464ZM19.6465 20.3536C22.0509 22.758 25.9492 22.758 28.3536 20.3536L27.6464 19.6464C25.6326 21.6603 22.3674 21.6603 20.3536 19.6464L19.6465 20.3536ZM3.64645 20.3536C6.05085 22.758 9.94915 22.758 12.3536 20.3536L11.6464 19.6464C9.63257 21.6603 6.36743 21.6603 4.35355 19.6464L3.64645 20.3536ZM3.64645 11.6464C1.24205 14.0508 1.24205 17.9492 3.64645 20.3536L4.35355 19.6464C2.33968 17.6326 2.33968 14.3674 4.35355 12.3536L3.64645 11.6464ZM28.3536 20.3536C30.758 17.9492 30.758 14.0508 28.3536 11.6464L27.6464 12.3536C29.6603 14.3674 29.6603 17.6326 27.6464 19.6464L28.3536 20.3536ZM4.35355 12.3536C6.36743 10.3397 9.63257 10.3397 11.6464 12.3536L12.3536 11.6464C9.94915 9.24205 6.05085 9.24205 3.64645 11.6464L4.35355 12.3536Z" fill="currentColor"/></svg>
