<svg xmlns="http://www.w3.org/2000/svg" fill="none" viewBox="0 0 24 24" width="1em" height="1em"><circle cx="12" cy="12" r="2.5" stroke="currentColor"/><circle cx="17.5" cy="13.5" r="1" stroke="currentColor"/><circle cx="18" cy="4" r="1.5" stroke="currentColor"/><circle cx="10.5" cy="20.5" r="1" stroke="currentColor"/><circle cx="5" cy="13" r=".5" stroke="currentColor"/><path fill="currentColor" fill-rule="evenodd" d="M6 7a1 1 0 1 1-2 0 1 1 0 0 1 2 0Zm.128 1.652a2 2 0 1 1 .667-.77l3.785 2.185-.5.866-3.952-2.281Zm1.618 8.138 2.938-2.936-.707-.707-2.795 2.794a3 3 0 1 0 .564.85ZM7 18a2 2 0 1 1-4 0 2 2 0 0 1 4 0Zm10.153-.606-3.264-4.038-.778.628 3.322 4.11a2.5 2.5 0 1 0 .72-.7ZM20 19.5a1.5 1.5 0 1 1-3 0 1.5 1.5 0 0 1 3 0ZM18.037 8.834l-4 1.978.443.896 4.097-2.025a1.5 1.5 0 1 0-.54-.849ZM19.5 8a.5.5 0 1 1 0 1 .5.5 0 0 1 0-1Zm-7-3.5a.5.5 0 1 1-1 0 .5.5 0 0 1 1 0Zm0 1.415a1.5 1.5 0 1 0-1 0V9.5h1V5.915Z" clip-rule="evenodd"/></svg>
