<svg xmlns="http://www.w3.org/2000/svg" fill="none" viewBox="0 0 16 16" width="1em" height="1em"><path stroke="currentColor" d="M10.5 8a2.5 2.5 0 1 1-5 0 2.5 2.5 0 0 1 5 0Z"/><path fill="currentColor" fill-rule="evenodd" d="m4.897 11.363 1.908-1.467-.61-.793-1.846 1.42a2 2 0 1 0 .548.84M4 12a1 1 0 1 1-2 0 1 1 0 0 1 2 0m9.5-6a.5.5 0 1 0 0-1 .5.5 0 0 0 0 1m0 1a1.5 1.5 0 1 0 0-3 1.5 1.5 0 0 0 0 3m0 7a.5.5 0 1 0 0-1 .5.5 0 0 0 0 1m0 1a1.5 1.5 0 1 0-.806-2.765L9.868 9.162l-.736.676 2.94 3.2A1.5 1.5 0 0 0 13.5 15M10 2.5a.5.5 0 1 1-1 0 .5.5 0 0 1 1 0m1 0a1.5 1.5 0 0 1-1.609 1.496l-.406 1.625-.97-.242.449-1.795A1.5 1.5 0 1 1 11 2.5" clip-rule="evenodd"/><path stroke="currentColor" d="M14 9.5a.5.5 0 1 1 0 1 .5.5 0 0 1 0-1Zm-12-3a.5.5 0 1 1 0 1 .5.5 0 0 1 0-1Zm1-5a1.5 1.5 0 1 1 0 3 1.5 1.5 0 0 1 0-3Z"/></svg>
