<svg xmlns="http://www.w3.org/2000/svg" fill="none" viewBox="0 0 32 32" width="1em" height="1em"><circle cx="16" cy="16" r="4.5" stroke="currentColor"/><path fill="currentColor" fill-rule="evenodd" d="M7 7.5a2.5 2.5 0 1 1-5 0 2.5 2.5 0 0 1 5 0m.196 2.232a3.5 3.5 0 1 1 .523-.855l5.565 3.71-.568.825zm2.15 13.075 3.995-3.437-.682-.74-3.967 3.411a4 4 0 1 0 .654.765M9 25a3 3 0 1 1-6 0 3 3 0 0 1 6 0m13.84-2.87-3-3-.681.74 2.869 2.87a3 3 0 1 0 .65-.433zM26 25a2 2 0 1 1-4 0 2 2 0 0 1 4 0m-1.772-12.85-3.948 1.9.44.9 4.046-1.948a3 3 0 1 0-.537-.852M27 9a2 2 0 1 1 0 4 2 2 0 0 1 0-4m-11.5 2.5v-5h1v5z" clip-rule="evenodd"/><circle cx="27" cy="20" r=".5" stroke="currentColor"/><circle cx="4.5" cy="17.5" r="1" stroke="currentColor"/><circle cx="20.5" cy="7.5" r="1" stroke="currentColor"/><circle cx="14.5" cy="27.5" r="2" stroke="currentColor"/><path stroke="currentColor" d="M18 4.5a2 2 0 1 1-4 0 2 2 0 0 1 4 0Z"/></svg>
