<svg viewBox="0 0 16 16" fill="none" xmlns="http://www.w3.org/2000/svg" width="1em" height="1em"><path d="M10.5 8C10.5 9.38071 9.38071 10.5 8 10.5C6.61929 10.5 5.5 9.38071 5.5 8C5.5 6.61929 6.61929 5.5 8 5.5C9.38071 5.5 10.5 6.61929 10.5 8Z" stroke="currentColor"/><path fill-rule="evenodd" clip-rule="evenodd" d="M4.89656 11.3634L6.80471 9.89626L6.19518 9.1035L4.34876 10.5231C3.99313 10.1982 3.51971 9.99993 3 9.99993C1.89543 9.99993 1 10.8954 1 11.9999C1 13.1045 1.89543 13.9999 3 13.9999C4.10457 13.9999 5 13.1045 5 11.9999C5 11.7774 4.96365 11.5633 4.89656 11.3634ZM4 11.9999C4 12.5522 3.55228 12.9999 3 12.9999C2.44772 12.9999 2 12.5522 2 11.9999C2 11.4476 2.44772 10.9999 3 10.9999C3.55228 10.9999 4 11.4476 4 11.9999Z" fill="currentColor"/><path fill-rule="evenodd" clip-rule="evenodd" d="M13.5 6C13.7761 6 14 5.77614 14 5.5C14 5.22386 13.7761 5 13.5 5C13.2239 5 13 5.22386 13 5.5C13 5.77614 13.2239 6 13.5 6ZM13.5 7C14.3284 7 15 6.32843 15 5.5C15 4.67157 14.3284 4 13.5 4C12.6716 4 12 4.67157 12 5.5C12 6.32843 12.6716 7 13.5 7ZM13.5 14C13.7761 14 14 13.7761 14 13.5C14 13.2239 13.7761 13 13.5 13C13.2238 13 13 13.2239 13 13.5C13 13.7761 13.2238 14 13.5 14ZM13.5 15C14.3284 15 15 14.3284 15 13.5C15 12.6716 14.3284 12 13.5 12C13.2032 12 12.9265 12.0862 12.6937 12.2349L9.86812 9.16156L9.13196 9.83837L12.0728 13.0371C12.0255 13.1829 12 13.3384 12 13.5C12 14.3284 12.6715 15 13.5 15Z" fill="currentColor"/><path fill-rule="evenodd" clip-rule="evenodd" d="M10 2.5C10 2.77614 9.77614 3 9.5 3C9.22386 3 9 2.77614 9 2.5C9 2.22386 9.22386 2 9.5 2C9.77614 2 10 2.22386 10 2.5ZM11 2.5C11 3.32843 10.3284 4 9.5 4C9.46347 4 9.42724 3.99869 9.39136 3.99613L8.98507 5.62127L8.01493 5.37873L8.46353 3.58432C8.1779 3.31122 8 2.92638 8 2.5C8 1.67157 8.67157 1 9.5 1C10.3284 1 11 1.67157 11 2.5Z" fill="currentColor"/><path d="M14 9.5C14.2761 9.5 14.5 9.72386 14.5 10C14.5 10.2761 14.2761 10.5 14 10.5C13.7239 10.5 13.5 10.2761 13.5 10C13.5 9.72386 13.7239 9.5 14 9.5Z" stroke="currentColor"/><path d="M2 6.5C2.27614 6.5 2.5 6.72386 2.5 7C2.5 7.27614 2.27614 7.5 2 7.5C1.72386 7.5 1.5 7.27614 1.5 7C1.5 6.72386 1.72386 6.5 2 6.5Z" stroke="currentColor"/><path d="M3 1.5C3.82843 1.5 4.5 2.17157 4.5 3C4.5 3.82843 3.82843 4.5 3 4.5C2.17157 4.5 1.5 3.82843 1.5 3C1.5 2.17157 2.17157 1.5 3 1.5Z" stroke="currentColor"/></svg>
