<svg viewBox="0 0 24 24" fill="none" xmlns="http://www.w3.org/2000/svg" width="1em" height="1em"><mask id="path-1-inside-1_2_57234" fill="currentColor"><path d="M5 5H19L17.4348 20.2048C17.3298 21.2247 16.4706 22 15.4453 22H8.55468C7.5294 22 6.67018 21.2247 6.56519 20.2048L5 5Z"/></mask><path d="M5 5V4H3.89178L4.00526 5.1024L5 5ZM19 5L19.9947 5.1024L20.1082 4H19V5ZM6.56519 20.2048L5.57045 20.3072L6.56519 20.2048ZM17.4348 20.2048L16.44 20.1024L17.4348 20.2048ZM5 6H19V4H5V6ZM18.0053 4.8976L16.44 20.1024L18.4295 20.3072L19.9947 5.1024L18.0053 4.8976ZM15.4453 21H8.55468V23H15.4453V21ZM7.55993 20.1024L5.99474 4.8976L4.00526 5.1024L5.57045 20.3072L7.55993 20.1024ZM8.55468 21C8.04204 21 7.61243 20.6123 7.55993 20.1024L5.57045 20.3072C5.72793 21.837 7.01676 23 8.55468 23V21ZM16.44 20.1024C16.3876 20.6123 15.9579 21 15.4453 21V23C16.9832 23 18.2721 21.837 18.4295 20.3072L16.44 20.1024Z" fill="currentColor" mask="url(#path-1-inside-1_2_57234)"/><path d="M10 9.5L10 17.5" stroke="currentColor" stroke-linecap="round"/><path d="M14 9.5L14 17.5" stroke="currentColor" stroke-linecap="round"/><path d="M4.5 5.5H19.5" stroke="currentColor" stroke-linecap="round"/><path d="M15.5 5V4.5C15.5 3.39543 14.6046 2.5 13.5 2.5H10.5C9.39543 2.5 8.5 3.39543 8.5 4.5V5" stroke="currentColor"/></svg>
