<svg viewBox="0 0 16 16" fill="none" xmlns="http://www.w3.org/2000/svg" width="1em" height="1em"><mask id="path-1-inside-1_2_57224" fill="currentColor"><path d="M3 4H13L12.1654 13.1811C12.0717 14.2112 11.208 15 10.1736 15H5.82643C4.79202 15 3.92829 14.2112 3.83464 13.1811L3 4Z"/></mask><path d="M3 4V3H1.90497L2.00411 4.09054L3 4ZM13 4L13.9959 4.09054L14.095 3H13V4ZM3 5H13V3H3V5ZM12.0041 3.90946L11.1695 13.0905L13.1613 13.2716L13.9959 4.09054L12.0041 3.90946ZM10.1736 14H5.82643V16H10.1736V14ZM4.83054 13.0905L3.99589 3.90946L2.00411 4.09054L2.83875 13.2716L4.83054 13.0905ZM5.82643 14C5.30923 14 4.87736 13.6056 4.83054 13.0905L2.83875 13.2716C2.97923 14.8168 4.27482 16 5.82643 16V14ZM11.1695 13.0905C11.1226 13.6056 10.6908 14 10.1736 14V16C11.7252 16 13.0208 14.8168 13.1613 13.2716L11.1695 13.0905Z" fill="currentColor" mask="url(#path-1-inside-1_2_57224)"/><path d="M6.5 7.5V12.5" stroke="currentColor" stroke-linecap="round"/><path d="M9.5 7.5V12.5" stroke="currentColor" stroke-linecap="round"/><path d="M2.5 4.5H13.5" stroke="currentColor" stroke-linecap="round"/><path d="M10.5 4L10.5 2.5C10.5 1.94771 10.0523 1.5 9.50001 1.5H6.5C5.94772 1.5 5.5 1.94772 5.5 2.5L5.50001 4" stroke="currentColor"/></svg>
