<svg viewBox="0 0 32 32" fill="none" xmlns="http://www.w3.org/2000/svg" width="1em" height="1em"><mask id="path-1-inside-1_2_57244" fill="currentColor"><path d="M6 6H26L24.1528 28.1661C24.0664 29.2027 23.1999 30 22.1597 30H9.84027C8.80009 30 7.93356 29.2027 7.84717 28.1661L6 6Z"/></mask><path d="M6 6V5H4.9132L5.00345 6.08305L6 6ZM26 6L26.9965 6.08305L27.0868 5H26V6ZM24.1528 28.1661L23.1563 28.083L24.1528 28.1661ZM6 7H26V5H6V7ZM25.0035 5.91695L23.1563 28.083L25.1494 28.2491L26.9965 6.08305L25.0035 5.91695ZM22.1597 29H9.84027V31H22.1597V29ZM8.84372 28.083L6.99655 5.91695L5.00345 6.08305L6.85063 28.2491L8.84372 28.083ZM9.84027 29C9.32018 29 8.88691 28.6013 8.84372 28.083L6.85063 28.2491C6.9802 29.804 8.28 31 9.84027 31V29ZM23.1563 28.083C23.1131 28.6013 22.6798 29 22.1597 29V31C23.72 31 25.0198 29.804 25.1494 28.2491L23.1563 28.083Z" fill="currentColor" mask="url(#path-1-inside-1_2_57244)"/><path d="M16 13L16 24" stroke="currentColor" stroke-linecap="round"/><path d="M21 13L20 24" stroke="currentColor" stroke-linecap="round"/><path d="M11 13L12 24" stroke="currentColor" stroke-linecap="round"/><path d="M5.5 6.5H26.5" stroke="currentColor" stroke-linecap="round"/><path d="M21 6V4.5C21 3.39543 20.1046 2.5 19 2.5H13C11.8954 2.5 11 3.39543 11 4.5V6" stroke="currentColor"/></svg>
