<svg viewBox="0 0 32 32" fill="none" xmlns="http://www.w3.org/2000/svg" width="1em" height="1em"><path d="M28 17.5C28 17.2239 27.7761 17 27.5 17C27.2239 17 27 17.2239 27 17.5H28ZM16.5 3C16.7761 3 17 2.77614 17 2.5C17 2.22386 16.7761 2 16.5 2V3ZM25.5 29H6.5V30H25.5V29ZM5 27.5V4.5H4V27.5H5ZM27 17.5V27.5H28V17.5H27ZM6.5 3H16.5V2H6.5V3ZM6.5 29C5.67157 29 5 28.3284 5 27.5H4C4 28.8807 5.11929 30 6.5 30V29ZM25.5 30C26.8807 30 28 28.8807 28 27.5H27C27 28.3284 26.3284 29 25.5 29V30ZM5 4.5C5 3.67157 5.67157 3 6.5 3V2C5.11929 2 4 3.11929 4 4.5H5Z" fill="currentColor"/><path d="M9.5 9.5H14.5M9.5 14.5H16.5M9.5 19.5H22.5M9.5 24H22.5" stroke="currentColor" stroke-linecap="round"/><circle cx="23.5" cy="9.5" r="6" stroke="currentColor" stroke-linecap="round"/><path d="M23.5 12.5001L23.5 13.0001L23.5 13.0001L23.5 12.5001ZM22 12.0001C21.7239 12.0001 21.5 12.224 21.5 12.5001C21.5 12.7763 21.7239 13.0001 22 13.0001L22 12.0001ZM25 13C25.2762 13 25.5 12.7761 25.5 12.5C25.5 12.2238 25.2761 12 25 12L25 13ZM24 5.46338C24 5.18724 23.7761 4.96338 23.5 4.96338C23.2239 4.96338 23 5.18724 23 5.46338L24 5.46338ZM23 6C23 6.27614 23.2239 6.5 23.5 6.5C23.7761 6.5 24 6.27614 24 6L23 6ZM23 8.5L23 12.5001L24 12.5001L24 8.5L23 8.5ZM23 5.46338L23 6L24 6L24 5.46338L23 5.46338ZM22 13.0001L23.5 13.0001L23.5 12.0001L22 12.0001L22 13.0001ZM23.5 13.0001L25 13L25 12L23.5 12.0001L23.5 13.0001ZM24 8.5C24 7.67157 23.3284 7 22.5 7L22.5 8C22.7761 8 23 8.22386 23 8.5L24 8.5Z" fill="currentColor"/></svg>
