<svg xmlns="http://www.w3.org/2000/svg" fill="none" viewBox="0 0 24 24" width="1em" height="1em"><path stroke="currentColor" stroke-linecap="round" d="M19.5 13.5v5a2 2 0 0 1-2 2h-11a2 2 0 0 1-2-2v-13a2 2 0 0 1 2-2h5m-3.889 4H10.5m-2.889 3H10.5m-2.889 6H16.5m-8.889-3H13.5"/><path stroke="currentColor" stroke-linecap="round" d="M21.5 7a4.5 4.5 0 1 1-9 0 4.5 4.5 0 0 1 9 0Z"/><path fill="currentColor" d="M17.5 6.5h.5a.5.5 0 0 0-.5-.5zm-1-.5a.5.5 0 0 0 0 1zm0 3a.5.5 0 0 0 0 1zm2 1a.5.5 0 0 0 0-1zM17 6.5v3h1v-3zm.5-.5h-1v1h1zm-1 4h1V9h-1zm1 0h1V9h-1z"/><rect width="1" height="1" x="17" y="4" fill="currentColor" rx=".5"/></svg>
