<svg viewBox="0 0 16 16" fill="none" xmlns="http://www.w3.org/2000/svg" stroke="currentColor"><circle cx="8" cy="8" r="6.5" stroke-linecap="round"/><path d="M8.25 4.5C8.25 4.63807 8.13807 4.75 8 4.75C7.86193 4.75 7.75 4.63807 7.75 4.5C7.75 4.36193 7.86193 4.25 8 4.25C8.13807 4.25 8.25 4.36193 8.25 4.5Z" stroke-width="0.5"/><path d="M8 6L8.5 6C8.5 5.86739 8.44732 5.74021 8.35355 5.64645C8.25978 5.55268 8.13261 5.5 8 5.5L8 6ZM6.875 5.5C6.59886 5.5 6.375 5.72386 6.375 6C6.375 6.27614 6.59886 6.5 6.875 6.5L6.875 5.5ZM6.5 11C6.22386 11 6 11.2239 6 11.5C6 11.7761 6.22386 12 6.5 12L6.5 11ZM9.5 12C9.77614 12 10 11.7761 10 11.5C10 11.2239 9.77614 11 9.5 11L9.5 12ZM7.5 6L7.5 11.5L8.5 11.5L8.5 6L7.5 6ZM8 5.5L6.875 5.5L6.875 6.5L8 6.5L8 5.5ZM6.5 12L8 12L8 11L6.5 11L6.5 12ZM8 12L9.5 12L9.5 11L8 11L8 12Z" fill="#282829"/></svg>
