<svg viewBox="0 0 32 32" fill="none" xmlns="http://www.w3.org/2000/svg" width="1em" height="1em"><path d="M27.5 17.5V27.5C27.5 28.6046 26.6046 29.5 25.5 29.5H6.5C5.39543 29.5 4.5 28.6046 4.5 27.5L4.5 4.5C4.5 3.39543 5.39543 2.5 6.5 2.5L16.5 2.5" stroke="currentColor" stroke-linecap="round"/><path d="M9.5 9.5H14.5M9.5 14.5H16.5M9.5 19.5H22.5M9.5 24H22.5" stroke="currentColor" stroke-linecap="round"/><circle cx="23.5" cy="9.5" r="6" stroke="currentColor" stroke-linecap="round"/><path d="M23.5 12.5001L23.5 7.5L22.5 7.5M23.5 12.5001L22.5 12.4998M23.5 12.5001L24.5 12.5001" stroke="currentColor" stroke-linecap="round" stroke-linejoin="round"/><rect x="23" y="4.99976" width="1" height="1" rx="0.5" fill="currentColor"/></svg>
