<svg viewBox="0 0 24 24" fill="none" xmlns="http://www.w3.org/2000/svg" width="1em" height="1em"><path d="M20 13C20 12.7239 19.7761 12.5 19.5 12.5C19.2239 12.5 19 12.7239 19 13H20ZM11.8261 4C12.1022 4 12.3261 3.77614 12.3261 3.5C12.3261 3.22386 12.1022 3 11.8261 3V4ZM17.5 20H6.5V21H17.5V20ZM5 18.5V5.5H4V18.5H5ZM19 13V18.5H20V13H19ZM6.5 4H11.8261V3H6.5V4ZM6.5 20C5.67157 20 5 19.3284 5 18.5H4C4 19.8807 5.11929 21 6.5 21V20ZM17.5 21C18.8807 21 20 19.8807 20 18.5H19C19 19.3284 18.3284 20 17.5 20V21ZM5 5.5C5 4.67157 5.67157 4 6.5 4V3C5.11929 3 4 4.11929 4 5.5H5Z" fill="currentColor"/><path d="M7.61108 7.49976H10.5M7.61108 10.4998C9.5854 10.4998 8.52565 10.4998 10.5 10.4998M7.61108 16.4998C11.2777 16.4998 12.8334 16.4998 16.5 16.4998M7.61108 13.4998H13.5" stroke="currentColor" stroke-linecap="round"/><path d="M21.5 7C21.5 9.48528 19.4853 11.5 17 11.5C14.5147 11.5 12.5 9.48528 12.5 7C12.5 4.51472 14.5147 2.5 17 2.5C19.4853 2.5 21.5 4.51472 21.5 7Z" stroke="currentColor" stroke-linecap="round"/><path d="M17.7223 5.61127L18.2223 5.61127C18.2223 5.47867 18.1697 5.35149 18.0759 5.25772C17.9821 5.16395 17.8549 5.11127 17.7223 5.11127L17.7223 5.61127ZM17.7223 9.22249L17.7223 9.72249L17.7224 9.72249L17.7223 9.22249ZM17.0001 5.11127C16.724 5.11127 16.5001 5.33513 16.5001 5.61127C16.5001 5.88742 16.724 6.11127 17.0001 6.11127L17.0001 5.11127ZM16.639 8.72249C16.3629 8.72249 16.139 8.94635 16.139 9.22249C16.139 9.49863 16.3629 9.72249 16.639 9.72249L16.639 8.72249ZM18.8057 9.72238C19.0819 9.72236 19.3057 9.49848 19.3057 9.22234C19.3056 8.94619 19.0818 8.72236 18.8056 8.72238L18.8057 9.72238ZM18.2223 4.14038C18.2223 3.86424 17.9985 3.64038 17.7223 3.64038C17.4462 3.64038 17.2223 3.86424 17.2223 4.14038L18.2223 4.14038ZM17.2223 4.52794C17.2223 4.80408 17.4462 5.02794 17.7223 5.02794C17.9985 5.02794 18.2223 4.80408 18.2223 4.52794L17.2223 4.52794ZM17.2223 5.61127L17.2223 9.22249L18.2223 9.22249L18.2223 5.61127L17.2223 5.61127ZM17.7223 5.11127L17.0001 5.11127L17.0001 6.11127L17.7223 6.11127L17.7223 5.11127ZM17.2223 4.14038L17.2223 4.52794L18.2223 4.52794L18.2223 4.14038L17.2223 4.14038ZM16.639 9.72249L17.7223 9.72249L17.7223 8.72249L16.639 8.72249L16.639 9.72249ZM17.7224 9.72249L18.8057 9.72238L18.8056 8.72238L17.7223 8.72249L17.7224 9.72249Z" fill="currentColor"/></svg>
