<svg viewBox="0 0 24 24" fill="none" xmlns="http://www.w3.org/2000/svg" width="1em" height="1em"><path d="M19.5 13V18.5C19.5 19.6046 18.6046 20.5 17.5 20.5H6.5C5.39543 20.5 4.5 19.6046 4.5 18.5L4.5 5.5C4.5 4.39543 5.39543 3.5 6.5 3.5L11.8261 3.5" stroke="currentColor" stroke-linecap="round"/><path d="M7.61108 7.49976H10.5M7.61108 10.4998C9.5854 10.4998 8.52565 10.4998 10.5 10.4998M7.61108 16.4998C11.2777 16.4998 12.8334 16.4998 16.5 16.4998M7.61108 13.4998H13.5" stroke="currentColor" stroke-linecap="round"/><path d="M21.5 7C21.5 9.48528 19.4853 11.5 17 11.5C14.5147 11.5 12.5 9.48528 12.5 7C12.5 4.51472 14.5147 2.5 17 2.5C19.4853 2.5 21.5 4.51472 21.5 7Z" stroke="currentColor" stroke-linecap="round"/><path d="M17.7222 5.61127L18.2222 5.61127C18.2222 5.47867 18.1695 5.35149 18.0758 5.25772C17.982 5.16395 17.8548 5.11127 17.7222 5.11127L17.7222 5.61127ZM17.7222 9.22249L17.7222 9.72249L17.7223 9.72249L17.7222 9.22249ZM17 5.11127C16.7238 5.11127 16.5 5.33513 16.5 5.61127C16.5 5.88742 16.7238 6.11127 17 6.11127L17 5.11127ZM16.6389 8.72249C16.3627 8.72249 16.1389 8.94635 16.1389 9.22249C16.1389 9.49863 16.3627 9.72249 16.6389 9.72249L16.6389 8.72249ZM18.8056 9.72238C19.0817 9.72236 19.3056 9.49848 19.3055 9.22234C19.3055 8.94619 19.0816 8.72236 18.8055 8.72238L18.8056 9.72238ZM18.2222 4.14038C18.2222 3.86424 17.9983 3.64038 17.7222 3.64038C17.4461 3.64038 17.2222 3.86424 17.2222 4.14038L18.2222 4.14038ZM17.2222 4.52794C17.2222 4.80408 17.4461 5.02794 17.7222 5.02794C17.9983 5.02794 18.2222 4.80408 18.2222 4.52794L17.2222 4.52794ZM17.2222 5.61127L17.2222 9.22249L18.2222 9.22249L18.2222 5.61127L17.2222 5.61127ZM17.7222 5.11127L17 5.11127L17 6.11127L17.7222 6.11127L17.7222 5.11127ZM17.2222 4.14038L17.2222 4.52794L18.2222 4.52794L18.2222 4.14038L17.2222 4.14038ZM16.6389 9.72249L17.7222 9.72249L17.7222 8.72249L16.6389 8.72249L16.6389 9.72249ZM17.7223 9.72249L18.8056 9.72238L18.8055 8.72238L17.7222 8.72249L17.7223 9.72249Z" fill="currentColor"/></svg>
