<svg xmlns="http://www.w3.org/2000/svg" fill="none" viewBox="0 0 24 24" width="1em" height="1em"><path stroke="currentColor" stroke-linecap="round" d="M19.5 13.5v5a2 2 0 0 1-2 2h-11a2 2 0 0 1-2-2v-13a2 2 0 0 1 2-2h5m-3.889 4H10.5m-2.889 3H10.5m-2.889 6H16.5m-8.889-3H13.5"/><path stroke="currentColor" stroke-linecap="round" d="M21.5 7a4.5 4.5 0 1 1-9 0 4.5 4.5 0 0 1 9 0Z"/><path fill="currentColor" d="M17.5 6.5h.5a.5.5 0 0 0-.5-.5v.5Zm-1-.5a.5.5 0 0 0 0 1V6Zm0 3a.5.5 0 0 0 0 1V9Zm2 1a.5.5 0 0 0 0-1v1ZM17 6.5v3h1v-3h-1Zm.5-.5h-1v1h1V6Zm-1 4h1V9h-1v1Zm1 0h1V9h-1v1Z"/><rect width="1" height="1" x="17" y="4" fill="currentColor" rx=".5"/></svg>
