<svg xmlns="http://www.w3.org/2000/svg" fill="none" viewBox="0 0 32 32" width="1em" height="1em"><path stroke="currentColor" d="M4 17.5a1.5 1.5 0 1 1 0-3 1.5 1.5 0 0 1 0 3Z"/><path fill="currentColor" d="M8.829 15.5a.5.5 0 0 1 0 1zM6 15.5h2.83v1H6z"/><path stroke="currentColor" d="M28 17.5a1.5 1.5 0 1 0 0-3 1.5 1.5 0 0 0 0 3Z"/><path fill="currentColor" d="M23.172 15.5a.5.5 0 1 0 0 1zm2.828 0h-2.828v1H26z"/><path stroke="currentColor" d="M17.5 28a1.5 1.5 0 1 1-3 0 1.5 1.5 0 0 1 3 0Z"/><path fill="currentColor" d="M15.5 24.5a.5.5 0 1 1 1 0zm0 1.829V24.5h1v1.829z"/><path stroke="currentColor" d="M17.5 4a1.5 1.5 0 1 0-3 0 1.5 1.5 0 0 0 3 0Z"/><path fill="currentColor" d="M15.5 7.5a.5.5 0 0 0 1 0zm0-1.829V7.5h1V5.67z"/><circle cx="5.5" cy="5.5" r="2" stroke="currentColor"/><circle cx="2.5" cy="2.5" r="2" stroke="currentColor" transform="matrix(1 0 0 -1 3 29)"/><circle cx="26.5" cy="26.5" r="2" stroke="currentColor" transform="rotate(180 26.5 26.5)"/><circle cx="26.5" cy="5.5" r="2" stroke="currentColor"/><path fill="currentColor" d="M9.646 10.354a.5.5 0 0 0 .708-.708zm-3-3 3 3 .708-.708-3-3zm15.708 3a.5.5 0 0 1-.708-.708zm3-3-3 3-.708-.708 3-3zM9.646 21.646a.5.5 0 0 1 .708.708zm-3 3 3-3 .708.708-3 3zm15.708-3a.5.5 0 0 0-.708.708zm3 3-3-3-.708.708 3 3z"/><path stroke="currentColor" d="M12.5 17a1.5 1.5 0 0 1 1.5-1.5h4a1.5 1.5 0 0 1 1.5 1.5v3a1.5 1.5 0 0 1-1.5 1.5h-4a1.5 1.5 0 0 1-1.5-1.5zm6-1.5V13a2.5 2.5 0 0 0-5 0v2.5"/><path fill="currentColor" d="M17 18a1 1 0 1 1-2 0 1 1 0 0 1 2 0"/><path fill="currentColor" d="M15.5 18.5a.5.5 0 0 1 1 0v1a.5.5 0 0 1-1 0z"/></svg>
