<svg xmlns="http://www.w3.org/2000/svg" fill="none" viewBox="0 0 24 24" width="1em" height="1em"><path stroke="currentColor" d="M8.5 12a1.5 1.5 0 0 1 1.5-1.5h4a1.5 1.5 0 0 1 1.5 1.5v3a1.5 1.5 0 0 1-1.5 1.5h-4A1.5 1.5 0 0 1 8.5 15zm6-1.5V9a2.5 2.5 0 0 0-5 0v1.5"/><path fill="currentColor" d="M13 13a1 1 0 1 1-2 0 1 1 0 0 1 2 0"/><path fill="currentColor" d="M11.5 13.5a.5.5 0 0 1 1 0v1a.5.5 0 0 1-1 0z"/><path stroke="currentColor" d="M3.5 13a1 1 0 1 1 0-2 1 1 0 0 1 0 2Z"/><path fill="currentColor" d="M6.5 11.5a.5.5 0 0 1 0 1zm-2 0h2v1h-2z"/><path stroke="currentColor" d="M20.5 13a1 1 0 1 0 0-2 1 1 0 0 0 0 2Z"/><path fill="currentColor" d="M17.5 11.5a.5.5 0 0 0 0 1zm2 0h-2v1h2z"/><path stroke="currentColor" d="M13 2.5a1 1 0 1 1-2 0 1 1 0 0 1 2 0Z"/><path fill="currentColor" d="M11.5 5a.5.5 0 0 0 1 0zm0-1.5V5h1V3.5z"/><path stroke="currentColor" d="M13 21.5a1 1 0 1 1-2 0 1 1 0 0 1 2 0Z"/><path fill="currentColor" d="M11.5 18.5a.5.5 0 0 1 1 0zm0 2v-2h1v2z"/><circle cx="4" cy="4" r="1.5" stroke="currentColor"/><circle cx="2" cy="2" r="1.5" stroke="currentColor" transform="matrix(1 0 0 -1 2 22)"/><circle cx="20" cy="20" r="1.5" stroke="currentColor" transform="rotate(180 20 20)"/><circle cx="20" cy="4" r="1.5" stroke="currentColor"/><path fill="currentColor" d="M6.646 7.354a.5.5 0 1 0 .708-.708zm-2-2 2 2 .708-.708-2-2zm12.708 2a.5.5 0 0 1-.708-.708zm2-2-2 2-.708-.708 2-2zM6.646 16.646a.5.5 0 0 1 .708.708zm-2 2 2-2 .708.708-2 2zm12.708-2a.5.5 0 0 0-.708.708zm2 2-2-2-.708.708 2 2z"/></svg>
