<svg xmlns="http://www.w3.org/2000/svg" fill="none" viewBox="0 0 24 24" width="1em" height="1em"><path stroke="currentColor" d="M7.246 18.842a.5.5 0 0 1 .475-.342h8.558a.5.5 0 0 1 .475.342l.333 1a.5.5 0 0 1-.474.658H7.387a.5.5 0 0 1-.474-.658zM12 6.5V18"/><path stroke="currentColor" stroke-linecap="round" d="M3.5 8.5h1.526c.296 0 .573.148.737.394v0a.886.886 0 0 0 1.474 0v0a.89.89 0 0 1 .737-.394H12m8.5 0h-1.526a.89.89 0 0 0-.737.394v0a.886.886 0 0 1-1.474 0v0a.89.89 0 0 0-.737-.394H12"/><path stroke="currentColor" d="M13.5 5a1.5 1.5 0 1 1-3 0 1.5 1.5 0 0 1 3 0Zm-4.153 9.79c-.386.96-1.485 1.71-2.847 1.71s-2.461-.75-2.847-1.71a.14.14 0 0 1-.011-.084.2.2 0 0 1 .043-.079A.43.43 0 0 1 4 14.5h5c.142 0 .256.06.315.127a.2.2 0 0 1 .043.079.14.14 0 0 1-.011.084Z"/><path stroke="currentColor" stroke-linejoin="round" d="m9 15-2.5-5L4 15"/><path stroke="currentColor" d="M14.653 14.79c.386.96 1.485 1.71 2.847 1.71s2.461-.75 2.847-1.71a.14.14 0 0 0 .011-.084.2.2 0 0 0-.043-.079A.43.43 0 0 0 20 14.5h-5a.43.43 0 0 0-.315.127.2.2 0 0 0-.043.079.14.14 0 0 0 .011.084Z"/><path stroke="currentColor" stroke-linejoin="round" d="m15 15 2.5-5 2.5 5"/></svg>
