<svg xmlns="http://www.w3.org/2000/svg" fill="none" viewBox="0 0 16 16" width="1em" height="1em"><path stroke="currentColor" stroke-linecap="round" d="M5.5 13.5h5"/><path stroke="currentColor" d="M8 4v9.5"/><path stroke="currentColor" stroke-linecap="round" d="M1.5 5.5h13"/><path stroke="currentColor" d="M9.5 3a1.5 1.5 0 1 1-3 0 1.5 1.5 0 0 1 3 0ZM6.363 9.818a2.501 2.501 0 0 1-4.726 0c-.025-.07-.012-.128.042-.188.063-.07.18-.13.321-.13h4c.142 0 .258.06.321.13.054.06.067.118.042.188Z"/><path stroke="currentColor" stroke-linejoin="round" d="M6 9.5 4 6 2 9.5"/><path stroke="currentColor" d="M14.363 9.818a2.501 2.501 0 0 1-4.726 0c-.025-.07-.012-.128.042-.188.063-.07.18-.13.321-.13h4c.142 0 .258.06.321.13.054.06.067.118.042.188Z"/><path stroke="currentColor" stroke-linejoin="round" d="M14 9.5 12 6l-2 3.5"/></svg>
