<svg xmlns="http://www.w3.org/2000/svg" fill="none" viewBox="0 0 32 32" width="1em" height="1em"><path fill="currentColor" fill-rule="evenodd" d="M12.854 12.146 5.707 5H12.5a.5.5 0 0 0 0-1h-8a.5.5 0 0 0-.5.5v8a.5.5 0 0 0 1 0V5.707l7.146 7.147a.5.5 0 0 0 .708-.708m7 .708L27 5.707V12.5a.5.5 0 0 0 1 0v-8a.5.5 0 0 0-.5-.5h-8a.5.5 0 0 0 0 1h6.793l-7.147 7.146a.5.5 0 0 0 .708.708m-.708 7a.5.5 0 0 1 .708-.708L27 26.293V19.5a.5.5 0 0 1 1 0v8a.5.5 0 0 1-.5.5h-8a.5.5 0 0 1 0-1h6.793zm-6.292 0a.5.5 0 0 0-.708-.708L5 26.293V19.5a.5.5 0 0 0-1 0v8a.5.5 0 0 0 .5.5h8a.5.5 0 0 0 0-1H5.707z" clip-rule="evenodd"/></svg>
