<svg xmlns="http://www.w3.org/2000/svg" fill="none" viewBox="0 0 16 16" width="1em" height="1em"><path fill="currentColor" fill-rule="evenodd" d="M6.854 6.146 3.707 3H6.5a.5.5 0 0 0 0-1h-4a.5.5 0 0 0-.5.5v4a.5.5 0 0 0 1 0V3.707l3.146 3.147a.5.5 0 1 0 .708-.708m2.292 0a.5.5 0 1 0 .708.708L13 3.707V6.5a.5.5 0 0 0 1 0v-4a.5.5 0 0 0-.5-.5h-4a.5.5 0 0 0 0 1h2.793zM12.293 13 9.146 9.854a.5.5 0 1 1 .708-.708L13 12.293V9.5a.5.5 0 0 1 1 0v4a.5.5 0 0 1-.5.5h-4a.5.5 0 0 1 0-1zm-5.44-3.146a.5.5 0 1 0-.707-.708L3 12.293V9.5a.5.5 0 0 0-1 0v4a.5.5 0 0 0 .5.5h4a.5.5 0 0 0 0-1H3.707z" clip-rule="evenodd"/></svg>
