<svg xmlns="http://www.w3.org/2000/svg" fill="none" viewBox="0 0 24 24" width="1em" height="1em"><path fill="currentColor" fill-rule="evenodd" d="M9.854 9.146 4.707 4H9.5a.5.5 0 0 0 0-1h-6a.5.5 0 0 0-.5.5v6a.5.5 0 0 0 1 0V4.707l5.146 5.147a.5.5 0 0 0 .708-.708Zm5 .708L20 4.707V9.5a.5.5 0 0 0 1 0v-6a.5.5 0 0 0-.5-.5h-6a.5.5 0 0 0 0 1h4.793l-5.147 5.146a.5.5 0 0 0 .708.708ZM19.293 19l-5.147-5.146a.5.5 0 0 1 .708-.708L20 18.293V13.5a.5.5 0 0 1 1 0v6a.5.5 0 0 1-.5.5h-6a.5.5 0 0 1 0-1h4.793ZM4.707 19l5.147-5.146a.5.5 0 0 0-.708-.708L4 18.293V13.5a.5.5 0 0 0-1 0v6a.5.5 0 0 0 .5.5h6a.5.5 0 0 0 0-1H4.707Z" clip-rule="evenodd"/></svg>
