<svg viewBox="0 0 16 16" fill="none" xmlns="http://www.w3.org/2000/svg" stroke="currentColor"><path d="M11.5 5.75C11.5 6.02614 11.7239 6.25 12 6.25C12.2761 6.25 12.5 6.02614 12.5 5.75H11.5ZM4.5 10C4.5 9.72386 4.27614 9.5 4 9.5C3.72386 9.5 3.5 9.72386 3.5 10H4.5ZM9.5 2.5H6.5V3.5H9.5V2.5ZM6.5 8.5H9.5V7.5H6.5V8.5ZM9.5 12.5H6.5V13.5H9.5V12.5ZM11.5 5.5V5.75H12.5V5.5H11.5ZM4.5 10.5V10H3.5V10.5H4.5ZM6.5 12.5C5.39543 12.5 4.5 11.6046 4.5 10.5H3.5C3.5 12.1569 4.84315 13.5 6.5 13.5V12.5ZM11.5 10.5C11.5 11.6046 10.6046 12.5 9.5 12.5V13.5C11.1569 13.5 12.5 12.1569 12.5 10.5H11.5ZM9.5 8.5C10.6046 8.5 11.5 9.39543 11.5 10.5H12.5C12.5 8.84315 11.1569 7.5 9.5 7.5V8.5ZM3.5 5.5C3.5 7.15685 4.84315 8.5 6.5 8.5V7.5C5.39543 7.5 4.5 6.60457 4.5 5.5H3.5ZM6.5 2.5C4.84315 2.5 3.5 3.84315 3.5 5.5H4.5C4.5 4.39543 5.39543 3.5 6.5 3.5V2.5ZM9.5 3.5C10.6046 3.5 11.5 4.39543 11.5 5.5H12.5C12.5 3.84315 11.1569 2.5 9.5 2.5V3.5Z" fill="#282829"/><path d="M8 1V15" stroke-linecap="round"/></svg>
