<svg viewBox="0 0 24 24" fill="none" xmlns="http://www.w3.org/2000/svg" width="1em" height="1em"><path d="M17.5 8.85C17.5 9.12614 17.7239 9.35 18 9.35C18.2761 9.35 18.5 9.12614 18.5 8.85H17.5ZM6.5 14.8C6.5 14.5239 6.27614 14.3 6 14.3C5.72386 14.3 5.5 14.5239 5.5 14.8H6.5ZM14.5 4.5H9.5V5.5H14.5V4.5ZM9.5 12.5H14.5V11.5H9.5V12.5ZM14.5 18.5H9.5V19.5H14.5V18.5ZM17.5 8.5V8.85H18.5V8.5H17.5ZM6.5 15.5V14.8H5.5V15.5H6.5ZM9.5 18.5C7.84315 18.5 6.5 17.1569 6.5 15.5H5.5C5.5 17.7091 7.29086 19.5 9.5 19.5V18.5ZM17.5 15.5C17.5 17.1569 16.1569 18.5 14.5 18.5V19.5C16.7091 19.5 18.5 17.7091 18.5 15.5H17.5ZM14.5 12.5C16.1569 12.5 17.5 13.8431 17.5 15.5H18.5C18.5 13.2909 16.7091 11.5 14.5 11.5V12.5ZM5.5 8.5C5.5 10.7091 7.29086 12.5 9.5 12.5V11.5C7.84315 11.5 6.5 10.1569 6.5 8.5H5.5ZM9.5 4.5C7.29086 4.5 5.5 6.29086 5.5 8.5H6.5C6.5 6.84315 7.84315 5.5 9.5 5.5V4.5ZM14.5 5.5C16.1569 5.5 17.5 6.84315 17.5 8.5H18.5C18.5 6.29086 16.7091 4.5 14.5 4.5V5.5Z" fill="currentColor"/><path d="M12 2V22" stroke="currentColor" stroke-linecap="round"/></svg>
