<svg viewBox="0 0 64 64" fill="none" xmlns="http://www.w3.org/2000/svg" width="1em" height="1em"><path d="M47.5 23.45C47.5 23.7261 47.7239 23.95 48 23.95C48.2761 23.95 48.5 23.7261 48.5 23.45H47.5ZM16.5 40.6C16.5 40.3239 16.2761 40.1 16 40.1C15.7239 40.1 15.5 40.3239 15.5 40.6H16.5ZM38 12H25.75V13H38V12ZM25.75 32.5H38V31.5H25.75V32.5ZM38 51.5H25.5V52.5H38V51.5ZM47.5 22.5V23.45H48.5V22.5H47.5ZM16.5 42.5V40.6H15.5V42.5H16.5ZM25.5 51.5C20.5294 51.5 16.5 47.4706 16.5 42.5H15.5C15.5 48.0228 19.9772 52.5 25.5 52.5V51.5ZM47.5 42C47.5 47.2467 43.2467 51.5 38 51.5V52.5C43.799 52.5 48.5 47.799 48.5 42H47.5ZM38 32.5C43.2467 32.5 47.5 36.7533 47.5 42H48.5C48.5 36.201 43.799 31.5 38 31.5V32.5ZM15.5 22.25C15.5 27.9109 20.0891 32.5 25.75 32.5V31.5C20.6414 31.5 16.5 27.3586 16.5 22.25H15.5ZM25.75 12C20.0891 12 15.5 16.5891 15.5 22.25H16.5C16.5 17.1414 20.6414 13 25.75 13V12ZM38 13C43.2467 13 47.5 17.2533 47.5 22.5H48.5C48.5 16.701 43.799 12 38 12V13Z" fill="currentColor"/><path d="M32 4V60" stroke="currentColor" stroke-linecap="round"/></svg>
