<svg viewBox="0 0 32 32" fill="none" xmlns="http://www.w3.org/2000/svg" stroke="currentColor"><path d="M23.5 11.5C23.5 11.7761 23.7239 12 24 12C24.2761 12 24.5 11.7761 24.5 11.5H23.5ZM8.5 20C8.5 19.7239 8.27614 19.5 8 19.5C7.72386 19.5 7.5 19.7239 7.5 20H8.5ZM19 5.5H13V6.5H19V5.5ZM13 16.5H19V15.5H13V16.5ZM19 25.5H13V26.5H19V25.5ZM23.5 11V11.5H24.5V11H23.5ZM8.5 21V20H7.5V21H8.5ZM13 25.5C10.5147 25.5 8.5 23.4853 8.5 21H7.5C7.5 24.0376 9.96243 26.5 13 26.5V25.5ZM23.5 21C23.5 23.4853 21.4853 25.5 19 25.5V26.5C22.0376 26.5 24.5 24.0376 24.5 21H23.5ZM19 16.5C21.4853 16.5 23.5 18.5147 23.5 21H24.5C24.5 17.9624 22.0376 15.5 19 15.5V16.5ZM7.5 11C7.5 14.0376 9.96243 16.5 13 16.5V15.5C10.5147 15.5 8.5 13.4853 8.5 11H7.5ZM13 5.5C9.96243 5.5 7.5 7.96243 7.5 11H8.5C8.5 8.51472 10.5147 6.5 13 6.5V5.5ZM19 6.5C21.4853 6.5 23.5 8.51472 23.5 11H24.5C24.5 7.96243 22.0376 5.5 19 5.5V6.5Z" fill="#282829"/><path d="M16 2V30" stroke-linecap="round"/></svg>