<svg xmlns="http://www.w3.org/2000/svg" fill="none" viewBox="0 0 32 32" width="1em" height="1em"><path stroke="currentColor" d="M7.404 16h12.34M7.615 7.108h3.688c.838 0 1.59.514 1.893 1.294l3.05 7.844m-8.631 9.139h3.688a2.03 2.03 0 0 0 1.893-1.295l3.05-7.844m4.124.359a.51.51 0 0 1 0-.718l4.307-4.308a.51.51 0 0 1 .718 0l4.308 4.308a.51.51 0 0 1 0 .718l-4.308 4.308a.51.51 0 0 1-.718 0zm-12.755-.359a2.538 2.538 0 1 1-5.076 0 2.538 2.538 0 0 1 5.076 0Z"/><circle cx="5.077" cy="7.108" r="2.546" stroke="currentColor"/><circle cx="5.077" cy="25.385" r="2.546" stroke="currentColor"/></svg>
