<svg xmlns="http://www.w3.org/2000/svg" fill="none" viewBox="0 0 32 32" width="1em" height="1em"><path stroke="currentColor" d="M7.5 16H20M7.5 7h3.632a2 2 0 0 1 1.864 1.275L16 16m-8.5 9h3.632a2 2 0 0 0 1.864-1.275L16 16m4.06.354a.5.5 0 0 1 0-.708l4.243-4.242a.5.5 0 0 1 .707 0l4.243 4.242a.5.5 0 0 1 0 .708l-4.243 4.242a.5.5 0 0 1-.707 0l-4.242-4.242ZM7.5 16a2.5 2.5 0 1 1-5 0 2.5 2.5 0 0 1 5 0Z"/><circle cx="5" cy="7" r="2.5" stroke="currentColor"/><circle cx="5" cy="25" r="2.5" stroke="currentColor"/></svg>
