<svg xmlns="http://www.w3.org/2000/svg" fill="none" viewBox="0 0 16 16" width="1em" height="1em"><path stroke="currentColor" d="M4.428 3a1.48 1.48 0 0 1-1.467 1.492A1.48 1.48 0 0 1 1.495 3c0-.83.663-1.492 1.466-1.492A1.48 1.48 0 0 1 4.428 3Zm0 5a1.48 1.48 0 0 1-1.467 1.492A1.48 1.48 0 0 1 1.495 8c0-.83.663-1.492 1.466-1.492A1.48 1.48 0 0 1 4.428 8Zm-.479 0h6.416M4.442 3h.952c.9 0 1.691.592 1.947 1.454L8.39 8m-3.948 5h.952c.9 0 1.691-.592 1.947-1.454L8.39 8m-3.962 5a1.48 1.48 0 0 1-1.467 1.492A1.48 1.48 0 0 1 1.495 13c0-.83.663-1.492 1.466-1.492A1.48 1.48 0 0 1 4.428 13Zm6.359-4.639a.516.516 0 0 1 0-.722l1.365-1.384a.5.5 0 0 1 .714 0L14.23 7.64c.197.2.197.523 0 .722l-1.365 1.384a.5.5 0 0 1-.714 0z"/></svg>
