<svg xmlns="http://www.w3.org/2000/svg" fill="none" viewBox="0 0 24 24" width="1em" height="1em"><path stroke="currentColor" d="M6.403 4.5c0 1.107-.884 1.992-1.96 1.992s-1.96-.885-1.96-1.992.883-1.992 1.96-1.992 1.96.886 1.96 1.992Zm0 7.5c0 1.107-.884 1.992-1.96 1.992s-1.96-.886-1.96-1.992c0-1.107.883-1.992 1.96-1.992s1.96.886 1.96 1.992Zm0 7.5c0 1.107-.884 1.992-1.96 1.992s-1.96-.886-1.96-1.992c0-1.107.883-1.992 1.96-1.992s1.96.886 1.96 1.992Zm9.898-7.139a.516.516 0 0 1 0-.722l2.064-2.09a.5.5 0 0 1 .713 0l2.064 2.09c.197.2.197.523 0 .722l-2.064 2.09a.5.5 0 0 1-.713 0zM6.417 12h9.872M6.6 4.57h3.106c.874 0 1.65.559 1.926 1.388l2.076 6.227M6.6 19.8h3.106c.874 0 1.65-.56 1.926-1.389l2.076-6.226"/></svg>
