<svg xmlns="http://www.w3.org/2000/svg" fill="none" viewBox="0 0 16 16" width="1em" height="1em"><path stroke="currentColor" stroke-width=".615" d="M9.41 10.448C7.742 11.41 6.09 12 4.76 12.163c-1.358.166-2.247-.123-2.597-.729-.161-.28-.198-.641-.086-1.086.114-.447.374-.957.774-1.498.8-1.081 2.125-2.238 3.79-3.199 1.667-.963 3.319-1.554 4.648-1.717 1.357-.167 2.247.121 2.598.73.154.268.19.623.076 1.068s-.374.958-.773 1.502c-.798 1.087-2.117 2.253-3.78 3.214Z"/><path stroke="currentColor" stroke-width=".615" d="M6.59 10.448c1.668.962 3.32 1.552 4.65 1.715 1.358.166 2.247-.123 2.597-.729.162-.28.198-.641.086-1.086-.114-.447-.373-.957-.774-1.498-.8-1.081-2.125-2.238-3.79-3.199-1.667-.963-3.318-1.554-4.647-1.717-1.358-.167-2.248.121-2.6.73-.153.268-.189.623-.075 1.068.115.446.374.958.773 1.502.798 1.087 2.117 2.253 3.78 3.214Z"/><path stroke="currentColor" stroke-width=".615" d="M5.23 8c0 1.752.315 3.32.836 4.44.528 1.135 1.219 1.714 1.934 1.714.663 0 1.354-.575 1.898-1.717.533-1.12.871-2.688.871-4.437 0-1.752-.312-3.32-.832-4.44C9.409 2.426 8.719 1.847 8 1.847c-.637 0-1.329.573-1.88 1.719-.54 1.12-.89 2.688-.89 4.435Z"/><path fill="currentColor" d="M7.889 8.323h-.287v1.293h-.6V6.43h1.025q.506-.001.803.226a.87.87 0 0 1 .342.702c0 .549-.3.77-.688.89l.858 1.367h-.701zm.023-.47c.193 0 .341-.014.457-.102a.42.42 0 0 0 .184-.374.42.42 0 0 0-.184-.374c-.116-.087-.264-.101-.457-.101h-.314v.95z"/></svg>
