<svg xmlns="http://www.w3.org/2000/svg" fill="none" viewBox="0 0 24 24" width="1em" height="1em"><path fill="currentColor" d="M11.83 12.04h-.433V14h-.91V9.17h1.554q.766-.002 1.218.343c.3.231.518.602.518 1.064 0 .833-.455 1.169-1.043 1.351L14.036 14h-1.064zm.036-.714c.294 0 .518-.021.693-.154.182-.133.28-.294.28-.567 0-.266-.098-.441-.28-.567-.175-.133-.4-.154-.693-.154h-.476v1.442z"/><path stroke="currentColor" d="M16 12c0 2.707-.495 5.134-1.274 6.866-.8 1.778-1.803 2.634-2.726 2.634s-1.926-.856-2.726-2.634C8.494 17.134 8 14.708 8 12s.495-5.134 1.274-6.866C10.074 3.356 11.077 2.5 12 2.5s1.926.856 2.726 2.634C15.506 6.866 16 9.293 16 12Z"/><path stroke="currentColor" d="M14.026 15.294c-2.586 1.493-5.168 2.38-7.24 2.62-1.036.122-1.92.078-2.603-.113-.681-.19-1.13-.515-1.375-.937-.244-.423-.3-.975-.125-1.66.177-.687.581-1.474 1.204-2.312 1.245-1.673 3.303-3.466 5.89-4.959 2.585-1.493 5.168-2.38 7.239-2.62 1.036-.121 1.92-.078 2.604.113.681.19 1.13.515 1.375.938.244.422.3.974.124 1.659-.177.687-.58 1.475-1.203 2.312-1.245 1.673-3.304 3.466-5.89 4.96Z"/><path stroke="currentColor" d="M10.079 15.294c2.586 1.493 5.168 2.38 7.24 2.62 1.036.122 1.92.078 2.604-.113.68-.19 1.13-.515 1.374-.937s.3-.975.125-1.66c-.177-.687-.581-1.474-1.204-2.312-1.244-1.673-3.303-3.466-5.89-4.959-2.585-1.493-5.167-2.38-7.239-2.62-1.036-.121-1.92-.078-2.604.113-.68.19-1.13.515-1.374.938s-.3.974-.125 1.659c.177.687.58 1.475 1.204 2.312 1.244 1.673 3.303 3.466 5.889 4.96Z"/></svg>
