<svg viewBox="0 0 24 24" fill="none" xmlns="http://www.w3.org/2000/svg" stroke="currentColor" width="1em" height="1em"><path d="M16.5 15.5H19.5C20.6046 15.5 21.5 16.3954 21.5 17.5V17.5" stroke-linecap="round" stroke-linejoin="round"/><path d="M18 13.5C18.8284 13.5 19.5 12.8284 19.5 12C19.5 11.1716 18.8284 10.5 18 10.5C17.1716 10.5 16.5 11.1716 16.5 12C16.5 12.8284 17.1716 13.5 18 13.5Z" stroke-linecap="round" stroke-linejoin="round"/><path d="M7.5 15.5H4.5C3.39543 15.5 2.5 16.3954 2.5 17.5V17.5" stroke-linecap="round" stroke-linejoin="round"/><path d="M6 13.5C5.17157 13.5 4.5 12.8284 4.5 12C4.5 11.1716 5.17157 10.5 6 10.5C6.82843 10.5 7.5 11.1716 7.5 12C7.5 12.8284 6.82843 13.5 6 13.5Z" stroke-linecap="round" stroke-linejoin="round"/><path d="M7.38513 21.5644V21.0537C7.38513 19.6433 8.52846 18.5 9.93882 18.5H14.0247C15.4351 18.5 16.5784 19.6433 16.5784 21.0537V21.5644" stroke-linecap="round" stroke-linejoin="round"/><path d="M12 16.5C13.3807 16.5 14.5 15.3807 14.5 14C14.5 12.6193 13.3807 11.5 12 11.5C10.6193 11.5 9.5 12.6193 9.5 14C9.5 15.3807 10.6193 16.5 12 16.5Z" stroke-linecap="round" stroke-linejoin="round"/><rect x="8.45711" y="5.75" width="5" height="5" rx="0.5" transform="rotate(-45 8.45711 5.75)"/></svg>
