<svg viewBox="0 0 32 32" fill="none" xmlns="http://www.w3.org/2000/svg" stroke="currentColor"><path d="M23 20.5H27.5C28.6046 20.5 29.5 21.3954 29.5 22.5V24.5" stroke-linecap="round" stroke-linejoin="round"/><path d="M25.5 18.5C26.8807 18.5 28 17.3807 28 16C28 14.6193 26.8807 13.5 25.5 13.5C24.1193 13.5 23 14.6193 23 16C23 17.3807 24.1193 18.5 25.5 18.5Z" stroke-linecap="round" stroke-linejoin="round"/><path d="M9 20.5H4.5C3.39543 20.5 2.5 21.3954 2.5 22.5V24.5" stroke-linecap="round" stroke-linejoin="round"/><path d="M6.5 18.5C5.11929 18.5 4 17.3807 4 16C4 14.6193 5.11929 13.5 6.5 13.5C7.88071 13.5 9 14.6193 9 16C9 17.3807 7.88071 18.5 6.5 18.5Z" stroke-linecap="round" stroke-linejoin="round"/><path d="M9 29.5V27.5C9 25.8431 10.3431 24.5 12 24.5H20C21.6569 24.5 23 25.8431 23 27.5V29.5" stroke-linecap="round"/><path d="M16 22.5C18.2091 22.5 20 20.7091 20 18.5C20 16.2909 18.2091 14.5 16 14.5C13.7909 14.5 12 16.2909 12 18.5C12 20.7091 13.7909 22.5 16 22.5Z" stroke-linecap="round" stroke-linejoin="round"/><path d="M11.4038 7.69646C11.2085 7.50119 11.2085 7.18461 11.4038 6.98935L15.6464 2.74671C15.8417 2.55145 16.1583 2.55145 16.3535 2.74671L20.5962 6.98935C20.7914 7.18461 20.7914 7.50119 20.5962 7.69645L16.3535 11.9391C16.1583 12.1344 15.8417 12.1344 15.6464 11.9391L11.4038 7.69646Z"/></svg>
