<svg viewBox="0 0 16 16" fill="none" xmlns="http://www.w3.org/2000/svg" stroke="currentColor"><path d="M10.5 14.3331V14.3331C10.5 13.3206 9.67918 12.4998 8.66666 12.4998L7.33333 12.4998C6.32081 12.4998 5.5 13.3206 5.5 14.3331V14.3331" stroke-linecap="round"/><circle cx="8" cy="9.5" r="1"/><path d="M12.0001 13.4998H13.5001C14.0524 13.4998 14.5001 13.9475 14.5001 14.4998V14.4998" stroke-linecap="round"/><circle r="0.5" transform="matrix(-1 0 0 1 12.5 11.4998)" stroke-linecap="round" stroke-linejoin="round"/><path d="M4 13.4998H2.5C1.94772 13.4998 1.5 13.9475 1.5 14.4998V14.4998" stroke-linecap="round"/><circle r="0.5" transform="matrix(1 0 0 -1 3.5 11.4998)" stroke-linecap="round" stroke-linejoin="round"/><rect x="5.20711" y="4" width="4" height="4" rx="0.5" transform="rotate(-45 5.20711 4)"/></svg>