<svg xmlns="http://www.w3.org/2000/svg" fill="none" viewBox="0 0 32 32" width="1em" height="1em"><path stroke="currentColor" stroke-linecap="round" stroke-linejoin="round" d="M23 20.5h4.5a2 2 0 0 1 2 2v2m-4-6a2.5 2.5 0 1 0 0-5 2.5 2.5 0 0 0 0 5ZM9 20.5H4.5a2 2 0 0 0-2 2v2m4-6a2.5 2.5 0 1 1 0-5 2.5 2.5 0 0 1 0 5Z"/><path stroke="currentColor" stroke-linecap="round" d="M9 29.5v-2a3 3 0 0 1 3-3h8a3 3 0 0 1 3 3v2"/><path stroke="currentColor" stroke-linecap="round" stroke-linejoin="round" d="M16 22.5a4 4 0 1 0 0-8 4 4 0 0 0 0 8Z"/><path stroke="currentColor" d="M11.404 7.697a.5.5 0 0 1 0-.708l4.243-4.242a.5.5 0 0 1 .707 0l4.242 4.242a.5.5 0 0 1 0 .708l-4.242 4.242a.5.5 0 0 1-.707 0l-4.243-4.242Z"/></svg>
