<svg viewBox="0 0 16 16" fill="none" xmlns="http://www.w3.org/2000/svg" width="1em" height="1em"><path d="M10.5 14.3332V14.3332C10.5 13.3207 9.67918 12.4999 8.66666 12.4999L7.33333 12.4999C6.32081 12.4999 5.5 13.3207 5.5 14.3333V14.3333" stroke="currentColor" stroke-linecap="round"/><circle cx="8" cy="9.5" r="1" stroke="currentColor"/><path d="M12 13.5H13.5C14.0523 13.5 14.5 13.9477 14.5 14.5V14.5" stroke="currentColor" stroke-linecap="round"/><circle cx="0.5" cy="0.5" r="0.5" transform="matrix(-1 0 0 1 13 11)" stroke="currentColor" stroke-linecap="round" stroke-linejoin="round"/><path d="M4 13.5H2.5C1.94772 13.5 1.5 13.9477 1.5 14.5V14.5" stroke="currentColor" stroke-linecap="round"/><circle cx="0.5" cy="0.5" r="0.5" transform="matrix(1 0 0 -1 3 12)" stroke="currentColor" stroke-linecap="round" stroke-linejoin="round"/><rect x="5.20711" y="4" width="4" height="4" rx="0.5" transform="rotate(-45 5.20711 4)" stroke="currentColor"/></svg>
