<svg xmlns="http://www.w3.org/2000/svg" fill="none" viewBox="0 0 24 24" width="1em" height="1em"><path stroke="currentColor" stroke-linecap="round" stroke-linejoin="round" d="M16.5 15.5h3a2 2 0 0 1 2 2v0m-3.5-4a1.5 1.5 0 1 0 0-3 1.5 1.5 0 0 0 0 3Zm-10.5 2h-3a2 2 0 0 0-2 2v0m3.5-4a1.5 1.5 0 1 1 0-3 1.5 1.5 0 0 1 0 3Zm1.385 8.064v-.51A2.554 2.554 0 0 1 9.939 18.5h4.086a2.554 2.554 0 0 1 2.553 2.554v.51M12 16.5a2.5 2.5 0 1 0 0-5 2.5 2.5 0 0 0 0 5Z"/><rect width="5" height="5" x="8.457" y="5.75" stroke="currentColor" rx=".5" transform="rotate(-45 8.457 5.75)"/></svg>
