<svg xmlns="http://www.w3.org/2000/svg" fill="none" viewBox="0 0 24 24" width="1em" height="1em"><path stroke="currentColor" stroke-linecap="round" d="M21.5 13.5v-3a6 6 0 0 0-6-6v0a6 6 0 0 0-6 6v3m11 2v2a1 1 0 0 1-1 1h-3"/><path stroke="currentColor" stroke-linecap="round" d="M13.5 18.5a1 1 0 0 1 1-1h1a1 1 0 1 1 0 2h-1a1 1 0 0 1-1-1Z"/><path stroke="currentColor" d="M9.5 13.5a2 2 0 0 1 2-2h.167c.46 0 .833.373.833.833v2.334c0 .46-.373.833-.833.833H11.5a2 2 0 0 1-2-2Zm12 0a2 2 0 0 0-2-2h-.167a.833.833 0 0 0-.833.833v2.334c0 .46.373.833.833.833h.167a2 2 0 0 0 2-2Z"/><path stroke="currentColor" stroke-linecap="round" d="m2.5 18.5 4.293-4.293a1 1 0 0 0 0-1.414L3 9"/><path stroke="currentColor" stroke-linecap="round" stroke-linejoin="round" d="M5.5 8.5h-3v3"/></svg>
