<svg viewBox="0 0 16 16" fill="none" xmlns="http://www.w3.org/2000/svg" width="1em" height="1em"><path d="M14.5 10V7.5C14.5 5.29086 12.7091 3.5 10.5 3.5V3.5C8.29086 3.5 6.5 5.29086 6.5 7.5V10" stroke="currentColor" stroke-linecap="round"/><path d="M6.5 10C6.5 9.17157 7.17157 8.5 8 8.5C8.27614 8.5 8.5 8.72386 8.5 9V11C8.5 11.2761 8.27614 11.5 8 11.5C7.17157 11.5 6.5 10.8284 6.5 10Z" stroke="currentColor"/><path d="M14.5 10C14.5 9.17157 13.8284 8.5 13 8.5C12.7239 8.5 12.5 8.72386 12.5 9V11C12.5 11.2761 12.7239 11.5 13 11.5C13.8284 11.5 14.5 10.8284 14.5 10Z" stroke="currentColor"/><path d="M13.5 11.5V12.5C13.5 13.0523 13.0523 13.5 12.5 13.5H10.5" stroke="currentColor" stroke-linecap="round"/><path d="M10.5 13.5C10.5 13.7761 10.2761 14 10 14C9.72386 14 9.5 13.7761 9.5 13.5C9.5 13.2239 9.72386 13 10 13C10.2761 13 10.5 13.2239 10.5 13.5Z" stroke="currentColor" stroke-linecap="round"/><path d="M1.5 11.5L4.11419 9.25926C4.5798 8.86016 4.5798 8.13984 4.11419 7.74074L1.5 5.5" stroke="currentColor" stroke-linecap="round"/><path d="M3.5 5.5H1.5L1.5 7.5" stroke="currentColor" stroke-linecap="round" stroke-linejoin="round"/></svg>
