<svg viewBox="0 0 24 24" fill="none" xmlns="http://www.w3.org/2000/svg" width="1em" height="1em"><path d="M21.5 13.5V10.5C21.5 7.18629 18.8137 4.5 15.5 4.5V4.5C12.1863 4.5 9.5 7.18629 9.5 10.5V13.5" stroke="currentColor" stroke-linecap="round"/><path d="M20.5 15.5V17.5C20.5 18.0523 20.0523 18.5 19.5 18.5H16.5" stroke="currentColor" stroke-linecap="round"/><path d="M13.5 18.5C13.5 17.9477 13.9477 17.5 14.5 17.5H15.5C16.0523 17.5 16.5 17.9477 16.5 18.5C16.5 19.0523 16.0523 19.5 15.5 19.5H14.5C13.9477 19.5 13.5 19.0523 13.5 18.5Z" stroke="currentColor" stroke-linecap="round"/><path d="M9.5 13.5C9.5 12.3954 10.3954 11.5 11.5 11.5H11.6667C12.1269 11.5 12.5 11.8731 12.5 12.3333V14.6667C12.5 15.1269 12.1269 15.5 11.6667 15.5H11.5C10.3954 15.5 9.5 14.6046 9.5 13.5Z" stroke="currentColor"/><path d="M21.5 13.5C21.5 12.3954 20.6046 11.5 19.5 11.5H19.3333C18.8731 11.5 18.5 11.8731 18.5 12.3333V14.6667C18.5 15.1269 18.8731 15.5 19.3333 15.5H19.5C20.6046 15.5 21.5 14.6046 21.5 13.5Z" stroke="currentColor"/><path d="M2.5 18.5L6.79289 14.2071C7.18342 13.8166 7.18342 13.1834 6.79289 12.7929L3 9" stroke="currentColor" stroke-linecap="round"/><path d="M5.5 8.5H2.5L2.5 11.5" stroke="currentColor" stroke-linecap="round" stroke-linejoin="round"/></svg>
