<svg viewBox="0 0 16 16" fill="none" xmlns="http://www.w3.org/2000/svg" width="1em" height="1em"><path d="M14.5 10V7.5C14.5 5.29086 12.7091 3.5 10.5 3.5V3.5C8.29086 3.5 6.5 5.29086 6.5 7.5V10" stroke="currentColor" stroke-linecap="round"/><path d="M6.5 10C6.5 9.17157 7.17157 8.5 8 8.5C8.27614 8.5 8.5 8.72386 8.5 9V11C8.5 11.2761 8.27614 11.5 8 11.5C7.17157 11.5 6.5 10.8284 6.5 10Z" stroke="currentColor"/><path d="M14.5 10C14.5 9.17157 13.8284 8.5 13 8.5C12.7239 8.5 12.5 8.72386 12.5 9V11C12.5 11.2761 12.7239 11.5 13 11.5C13.8284 11.5 14.5 10.8284 14.5 10Z" stroke="currentColor"/><path d="M13.5 11.5V12.5C13.5 13.0523 13.0523 13.5 12.5 13.5H10.5" stroke="currentColor" stroke-linecap="round"/><path d="M10.5 13.5C10.5 13.7761 10.2761 14 10 14C9.72386 14 9.5 13.7761 9.5 13.5C9.5 13.2239 9.72386 13 10 13C10.2761 13 10.5 13.2239 10.5 13.5Z" stroke="currentColor" stroke-linecap="round"/><path d="M1.1746 11.1204C0.964941 11.3001 0.940661 11.6157 1.12037 11.8254C1.30008 12.0351 1.61573 12.0593 1.8254 11.8796L1.1746 11.1204ZM1.8254 5.12037C1.61573 4.94066 1.30008 4.96494 1.12037 5.1746C0.940661 5.38427 0.964941 5.69992 1.1746 5.87963L1.8254 5.12037ZM4.11419 9.25926L3.7888 8.87963L4.11419 9.25926ZM4.11419 7.74074L3.7888 8.12037L4.11419 7.74074ZM1.8254 11.8796L4.43959 9.63888L3.7888 8.87963L1.1746 11.1204L1.8254 11.8796ZM4.43959 7.36112L1.8254 5.12037L1.1746 5.87963L3.7888 8.12037L4.43959 7.36112ZM4.43959 9.63888C5.138 9.04024 5.138 7.95976 4.43959 7.36112L3.7888 8.12037C4.0216 8.31992 4.0216 8.68008 3.7888 8.87963L4.43959 9.63888Z" fill="currentColor"/><path d="M3.5 5.5H1.5V7.5" stroke="currentColor" stroke-linecap="round" stroke-linejoin="round"/></svg>
