<svg xmlns="http://www.w3.org/2000/svg" fill="none" viewBox="0 0 16 16" width="1em" height="1em"><path stroke="currentColor" stroke-linecap="round" d="M14.5 10V7.5a4 4 0 0 0-4-4v0a4 4 0 0 0-4 4V10"/><path stroke="currentColor" d="M6.5 10A1.5 1.5 0 0 1 8 8.5a.5.5 0 0 1 .5.5v2a.5.5 0 0 1-.5.5A1.5 1.5 0 0 1 6.5 10Zm8 0A1.5 1.5 0 0 0 13 8.5a.5.5 0 0 0-.5.5v2a.5.5 0 0 0 .5.5 1.5 1.5 0 0 0 1.5-1.5Z"/><path stroke="currentColor" stroke-linecap="round" d="M13.5 11.5v1a1 1 0 0 1-1 1h-2m0 0a.5.5 0 1 1-1 0 .5.5 0 0 1 1 0Zm-9-2 2.614-2.24a1 1 0 0 0 0-1.52L1.5 5.5"/><path stroke="currentColor" stroke-linecap="round" stroke-linejoin="round" d="M3.5 5.5h-2v2"/></svg>
