<svg xmlns="http://www.w3.org/2000/svg" fill="none" viewBox="0 0 32 32" width="1em" height="1em"><path stroke="currentColor" stroke-linecap="round" d="M29.5 19.5V15a9 9 0 0 0-9-9v0a9 9 0 0 0-9 9v4.5m5 6.5a1.5 1.5 0 0 1 1.5-1.5h1a1.5 1.5 0 0 1 0 3h-1a1.5 1.5 0 0 1-1.5-1.5Z"/><path stroke="currentColor" stroke-linecap="round" stroke-linejoin="round" d="M6.5 10.5h-4v4"/><path stroke="currentColor" stroke-linecap="round" d="m2.5 10.5 5.793 5.793a1 1 0 0 1 0 1.414L2.5 23.5m25-1v2a1 1 0 0 1-1 1H21"/><path stroke="currentColor" d="M29.5 18.333a2.833 2.833 0 0 0-2.833-2.833c-.645 0-1.167.522-1.167 1.167v4.666c0 .645.522 1.167 1.167 1.167a2.833 2.833 0 0 0 2.833-2.833zm-18 0a2.833 2.833 0 0 1 2.833-2.833c.645 0 1.167.522 1.167 1.167v4.666c0 .645-.522 1.167-1.167 1.167a2.833 2.833 0 0 1-2.833-2.833z"/></svg>
