<svg viewBox="0 0 32 32" fill="none" xmlns="http://www.w3.org/2000/svg" width="1em" height="1em"><path d="M29.5 19.5L29.5 15C29.5 10.0294 25.4706 6 20.5 6V6C15.5294 6 11.5 10.0294 11.5 15V19.5" stroke="currentColor" stroke-linecap="round"/><path d="M16.5 26C16.5 25.1716 17.1716 24.5 18 24.5H19C19.8284 24.5 20.5 25.1716 20.5 26C20.5 26.8284 19.8284 27.5 19 27.5H18C17.1716 27.5 16.5 26.8284 16.5 26Z" stroke="currentColor" stroke-linecap="round"/><path d="M6.5 10.5H2.5L2.5 14.5" stroke="currentColor" stroke-linecap="round" stroke-linejoin="round"/><path d="M2.5 10.5L8.29289 16.2929C8.68342 16.6834 8.68342 17.3166 8.29289 17.7071L2.5 23.5" stroke="currentColor" stroke-linecap="round"/><path d="M27.5 22.5V24.5C27.5 25.0523 27.0523 25.5 26.5 25.5H21" stroke="currentColor" stroke-linecap="round"/><path d="M29.5 18.3333C29.5 16.7685 28.2315 15.5 26.6667 15.5C26.0223 15.5 25.5 16.0223 25.5 16.6667V21.3333C25.5 21.9777 26.0223 22.5 26.6667 22.5C28.2315 22.5 29.5 21.2315 29.5 19.6667V18.3333Z" stroke="currentColor"/><path d="M11.5 18.3333C11.5 16.7685 12.7685 15.5 14.3333 15.5C14.9777 15.5 15.5 16.0223 15.5 16.6667V21.3333C15.5 21.9777 14.9777 22.5 14.3333 22.5C12.7685 22.5 11.5 21.2315 11.5 19.6667V18.3333Z" stroke="currentColor"/></svg>
