<svg xmlns="http://www.w3.org/2000/svg" fill="none" viewBox="0 0 32 32" width="1em" height="1em"><path stroke="currentColor" d="M6.404 7.17a.5.5 0 0 1 .683-.182l2.598 1.5a.5.5 0 0 1 .183.683l-4.5 7.794a.5.5 0 0 1-.683.183l-2.598-1.5a.5.5 0 0 1-.183-.683zm5.656 3.44-2.73-.732m-3.446 6.03 1.433 1.483"/><path fill="currentColor" fill-rule="evenodd" d="m7.655 19.938 2.332-1.889a1 1 0 0 0-1.259-1.554l-2.331 1.888a1 1 0 0 0 1.258 1.555m-.713 1.22a2 2 0 0 1-1.175-3.553L8.1 15.719a2 2 0 0 1 3.234 1.24l.208-.167a2 2 0 0 1 3.109 2.314 2 2 0 0 1 1.416 2.903 2 2 0 0 1 .852 3.513l-1.554 1.259a2 2 0 0 1-3.254-1.413 2 2 0 0 1-2.918-1.895 2 2 0 0 1-2.25-2.314m1.343-.444a1 1 0 0 0 1.258 1.555l3.886-3.147a1 1 0 1 0-1.259-1.554l-1.553 1.257v.001zm6.641 1.137-3.108 2.517a1 1 0 1 1-1.259-1.554l3.109-2.517a1 1 0 0 1 1.258 1.554m-.191 4.152 1.554-1.259a1 1 0 0 0-1.259-1.554l-1.554 1.258a1 1 0 0 0 1.258 1.555" clip-rule="evenodd"/><path stroke="currentColor" stroke-linecap="round" d="m22.77 16.52 2.681 2.25a1.5 1.5 0 0 1 .185 2.114v0a1.5 1.5 0 0 1-2.113.184l-2.681-2.25"/><path stroke="currentColor" stroke-linecap="round" d="m20.422 18.454 2.681 2.25a1.5 1.5 0 0 1 .185 2.113v0a1.5 1.5 0 0 1-2.113.184l-2.681-2.25"/><path stroke="currentColor" stroke-linecap="round" d="m19.104 21.25 1.268 1.065a1.5 1.5 0 0 1 .185 2.113v0a1.5 1.5 0 0 1-2.113.185l-1.268-1.064m.201.559v0c.634.532.718 1.48.186 2.114v0a1.5 1.5 0 0 1-2.115.184v0"/><rect width="4" height="10" x="-.183" y=".683" stroke="currentColor" rx=".5" transform="scale(-1 1)rotate(30 -24.449 -44.685)"/><path stroke="currentColor" d="m14.366 12.94 1.66-.196a4.5 4.5 0 0 1 3.409 1.01l4.947 4.12 2.37-1.819-3.491-6.047-1.889.586a2.5 2.5 0 0 1-1.65-.06l-1.885-.736a1.5 1.5 0 0 0-.69-.095l-4.378.425a.78.78 0 0 0-.703.779 2.057 2.057 0 0 0 2.3 2.034Z"/></svg>
