<svg xmlns="http://www.w3.org/2000/svg" fill="none" viewBox="0 0 24 24" width="1em" height="1em"><path stroke="currentColor" d="M4.411 5.94a.25.25 0 0 1 .342-.091L6.7 6.974a.25.25 0 0 1 .092.342L3.418 13.16a.25.25 0 0 1-.342.092l-1.948-1.125a.25.25 0 0 1-.092-.342zm4.135 2.517-2.05-.55m-2.584 4.524 1.075 1.112"/><path fill="currentColor" fill-rule="evenodd" d="m5.084 15.259 1.749-1.416a.5.5 0 0 0-.63-.777l-1.748 1.416a.5.5 0 1 0 .63.777m-1.258-1.555a1.5 1.5 0 0 0 .88 2.665 1.5 1.5 0 0 0 1.687 1.735 1.5 1.5 0 0 0 2.189 1.42 1.5 1.5 0 0 0 2.44 1.06l1.167-.943a1.5 1.5 0 0 0-.64-2.634 1.5 1.5 0 0 0-1.061-2.178 1.5 1.5 0 0 0-2.332-1.736L8 13.22a1.5 1.5 0 0 0-2.426-.93zM6.5 17.008l2.915-2.36a.5.5 0 0 0-.63-.777l-2.914 2.36a.5.5 0 1 0 .63.777m4.037-.313-2.331 1.888a.5.5 0 1 1-.63-.777l2.332-1.888a.5.5 0 0 1 .63.777m-.143 3.114 1.165-.944a.5.5 0 1 0-.629-.777l-1.166.944a.5.5 0 1 0 .63.777" clip-rule="evenodd"/><path stroke="currentColor" stroke-linecap="round" d="m16.5 13 2.058 1.726c.45.377.506 1.048.127 1.495v0c-.377.445-1.041.5-1.487.127l-2.066-1.734"/><path stroke="currentColor" stroke-linecap="round" d="m14.817 14.34 2.01 1.687c.476.4.539 1.11.14 1.585v0c-.4.476-1.11.538-1.586.139l-2.01-1.687"/><path stroke="currentColor" stroke-linecap="round" d="m13.828 16.438.913.766c.497.417.562 1.158.145 1.655v0a1.175 1.175 0 0 1-1.573.208L12.5 18.5m.033.08v0c.476.4.538 1.11.14 1.587v0c-.4.475-1.11.537-1.587.137v0"/><mask id="iconsPartnershipSize24Px__a" fill="#fff"><rect width="3.75" height="8.25" rx=".75" transform="scale(-1 1)rotate(30 -19.02 -33.355)"/></mask><rect width="3.75" height="8.25" stroke="currentColor" stroke-width="2" mask="url(#iconsPartnershipSize24Px__a)" rx=".75" transform="scale(-1 1)rotate(30 -19.02 -33.355)"/><path stroke="currentColor" d="m10.295 9.916.422-.08a3.46 3.46 0 0 1 2.868.739l3.6 2.997 2.19-1.143-2.466-4.635-1.083.549a2 2 0 0 1-1.818-.006l-1.28-.658a1 1 0 0 0-.64-.093l-3.061.57a.43.43 0 0 0-.353.427 1.364 1.364 0 0 0 1.621 1.333Z"/></svg>
