<svg xmlns="http://www.w3.org/2000/svg" fill="none" viewBox="0 0 24 24" width="1em" height="1em"><path stroke="currentColor" stroke-linecap="round" d="M4.5 8.5v0a1 1 0 0 0-1 1v9h17v-8a2 2 0 0 0-2-2h-7"/><path stroke="currentColor" d="M12.5 3a.5.5 0 0 1 .5-.5h7a.5.5 0 0 1 .5.5v3a.5.5 0 0 1-.5.5h-7a.5.5 0 0 1-.5-.5zm3 3.5h2v2h-2z"/><rect width="19" height="3" x="2.5" y="18.5" stroke="currentColor" rx=".5"/><path stroke="currentColor" stroke-linecap="round" d="M5.5 14.5h1m2 0h1m2 0h1m2 0h1m2 0h1m-13 2h1m2 0h1m2 0h1m2 0h1m2 0h1"/><path stroke="currentColor" d="M6.5 6a.5.5 0 0 1 .5-.5h2a.5.5 0 0 1 .5.5v3a.5.5 0 0 1-.5.5H7a.5.5 0 0 1-.5-.5z"/><rect width="7" height="2" x="11.5" y="10.5" stroke="currentColor" rx="1"/></svg>
