<svg viewBox="0 0 16 16" fill="none" xmlns="http://www.w3.org/2000/svg" width="1em" height="1em"><path d="M13.5 7.00001V12.5002L2.5 12.5003V7.00004C2.5 6.17162 3.17157 5.50004 4 5.50004H7.65L12 5.50001C12.8284 5.50001 13.5 6.17158 13.5 7.00001Z" stroke="currentColor" stroke-linecap="round"/><path d="M7.5 2C7.5 1.72386 7.72386 1.5 8 1.5H13C13.2761 1.5 13.5 1.72386 13.5 2V3C13.5 3.27614 13.2761 3.5 13 3.5H8C7.72386 3.5 7.5 3.27614 7.5 3V2Z" stroke="currentColor"/><rect x="1.5" y="12.5" width="13" height="2" rx="0.5" stroke="currentColor"/><path d="M9.5 3.5H11.5V5.5H9.5V3.5Z" stroke="currentColor"/><mask id="path-5-inside-1_2_60599" fill="currentColor"><path d="M4 8.5C4 8.22386 4.22386 8 4.5 8H5.5C5.77614 8 6 8.22386 6 8.5C6 8.77614 5.77614 9 5.5 9H4.5C4.22386 9 4 8.77614 4 8.5Z"/><path d="M4 10.5C4 10.2239 4.22386 10 4.5 10H5.5C5.77614 10 6 10.2239 6 10.5C6 10.7761 5.77614 11 5.5 11H4.5C4.22386 11 4 10.7761 4 10.5Z"/><path d="M7 8.5C7 8.22386 7.22386 8 7.5 8H8.5C8.77614 8 9 8.22386 9 8.5C9 8.77614 8.77614 9 8.5 9H7.5C7.22386 9 7 8.77614 7 8.5Z"/><path d="M7 10.5C7 10.2239 7.22386 10 7.5 10H8.5C8.77614 10 9 10.2239 9 10.5C9 10.7761 8.77614 11 8.5 11H7.5C7.22386 11 7 10.7761 7 10.5Z"/><path d="M10 8.5C10 8.22386 10.2239 8 10.5 8H11.5C11.7761 8 12 8.22386 12 8.5C12 8.77614 11.7761 9 11.5 9H10.5C10.2239 9 10 8.77614 10 8.5Z"/><path d="M10 10.5C10 10.2239 10.2239 10 10.5 10H11.5C11.7761 10 12 10.2239 12 10.5C12 10.7761 11.7761 11 11.5 11H10.5C10.2239 11 10 10.7761 10 10.5Z"/></mask><path d="M4.5 9H5.5V7H4.5V9ZM5.5 8H4.5V10H5.5V8ZM4.5 8C4.77614 8 5 8.22386 5 8.5H3C3 9.32843 3.67157 10 4.5 10V8ZM5 8.5C5 8.22386 5.22386 8 5.5 8V10C6.32843 10 7 9.32843 7 8.5H5ZM5.5 9C5.22386 9 5 8.77614 5 8.5H7C7 7.67157 6.32843 7 5.5 7V9ZM4.5 7C3.67157 7 3 7.67157 3 8.5H5C5 8.77614 4.77614 9 4.5 9V7ZM4.5 11H5.5V9H4.5V11ZM5.5 10H4.5V12H5.5V10ZM4.5 10C4.77614 10 5 10.2239 5 10.5H3C3 11.3284 3.67157 12 4.5 12V10ZM5 10.5C5 10.2239 5.22386 10 5.5 10V12C6.32843 12 7 11.3284 7 10.5H5ZM5.5 11C5.22386 11 5 10.7761 5 10.5H7C7 9.67157 6.32843 9 5.5 9V11ZM4.5 9C3.67157 9 3 9.67157 3 10.5H5C5 10.7761 4.77614 11 4.5 11V9ZM7.5 9H8.5V7H7.5V9ZM8.5 8H7.5V10H8.5V8ZM7.5 8C7.77614 8 8 8.22386 8 8.5H6C6 9.32843 6.67157 10 7.5 10V8ZM8 8.5C8 8.22386 8.22386 8 8.5 8V10C9.32843 10 10 9.32843 10 8.5H8ZM8.5 9C8.22386 9 8 8.77614 8 8.5H10C10 7.67157 9.32843 7 8.5 7V9ZM7.5 7C6.67157 7 6 7.67157 6 8.5H8C8 8.77614 7.77614 9 7.5 9V7ZM7.5 11H8.5V9H7.5V11ZM8.5 10H7.5V12H8.5V10ZM7.5 10C7.77614 10 8 10.2239 8 10.5H6C6 11.3284 6.67157 12 7.5 12V10ZM8 10.5C8 10.2239 8.22386 10 8.5 10V12C9.32843 12 10 11.3284 10 10.5H8ZM8.5 11C8.22386 11 8 10.7761 8 10.5H10C10 9.67157 9.32843 9 8.5 9V11ZM7.5 9C6.67157 9 6 9.67157 6 10.5H8C8 10.7761 7.77614 11 7.5 11V9ZM10.5 9H11.5V7H10.5V9ZM11.5 8H10.5V10H11.5V8ZM10.5 8C10.7761 8 11 8.22386 11 8.5H9C9 9.32843 9.67157 10 10.5 10V8ZM11 8.5C11 8.22386 11.2239 8 11.5 8V10C12.3284 10 13 9.32843 13 8.5H11ZM11.5 9C11.2239 9 11 8.77614 11 8.5H13C13 7.67157 12.3284 7 11.5 7V9ZM10.5 7C9.67157 7 9 7.67157 9 8.5H11C11 8.77614 10.7761 9 10.5 9V7ZM10.5 11H11.5V9H10.5V11ZM11.5 10H10.5V12H11.5V10ZM10.5 10C10.7761 10 11 10.2239 11 10.5H9C9 11.3284 9.67157 12 10.5 12V10ZM11 10.5C11 10.2239 11.2239 10 11.5 10V12C12.3284 12 13 11.3284 13 10.5H11ZM11.5 11C11.2239 11 11 10.7761 11 10.5H13C13 9.67157 12.3284 9 11.5 9V11ZM10.5 9C9.67157 9 9 9.67157 9 10.5H11C11 10.7761 10.7761 11 10.5 11V9Z" fill="currentColor" mask="url(#path-5-inside-1_2_60599)"/></svg>
