<svg xmlns="http://www.w3.org/2000/svg" fill="none" viewBox="0 0 16 16" width="1em" height="1em"><path stroke="currentColor" stroke-linecap="round" d="M13.5 7v5.5h-11V7A1.5 1.5 0 0 1 4 5.5h8A1.5 1.5 0 0 1 13.5 7Z"/><path stroke="currentColor" d="M7.5 2a.5.5 0 0 1 .5-.5h5a.5.5 0 0 1 .5.5v1a.5.5 0 0 1-.5.5H8a.5.5 0 0 1-.5-.5V2Z"/><rect width="13" height="2" x="1.5" y="12.5" stroke="currentColor" rx=".5"/><path stroke="currentColor" d="M9.5 3.5h2v2h-2v-2Z"/><mask id="iconsCashRegisterSize16Px__a" fill="#fff"><path d="M4 8.5a.5.5 0 0 1 .5-.5h1a.5.5 0 0 1 0 1h-1a.5.5 0 0 1-.5-.5Zm0 2a.5.5 0 0 1 .5-.5h1a.5.5 0 0 1 0 1h-1a.5.5 0 0 1-.5-.5Zm3-2a.5.5 0 0 1 .5-.5h1a.5.5 0 0 1 0 1h-1a.5.5 0 0 1-.5-.5Zm0 2a.5.5 0 0 1 .5-.5h1a.5.5 0 0 1 0 1h-1a.5.5 0 0 1-.5-.5Zm3-2a.5.5 0 0 1 .5-.5h1a.5.5 0 0 1 0 1h-1a.5.5 0 0 1-.5-.5Zm0 2a.5.5 0 0 1 .5-.5h1a.5.5 0 0 1 0 1h-1a.5.5 0 0 1-.5-.5Z"/></mask><path fill="currentColor" d="M4.5 9h1V7h-1v2Zm1-1h-1v2h1V8Zm-1 0a.5.5 0 0 1 .5.5H3A1.5 1.5 0 0 0 4.5 10V8Zm.5.5a.5.5 0 0 1 .5-.5v2A1.5 1.5 0 0 0 7 8.5H5Zm.5.5a.5.5 0 0 1-.5-.5h2A1.5 1.5 0 0 0 5.5 7v2Zm-1-2A1.5 1.5 0 0 0 3 8.5h2a.5.5 0 0 1-.5.5V7Zm0 4h1V9h-1v2Zm1-1h-1v2h1v-2Zm-1 0a.5.5 0 0 1 .5.5H3A1.5 1.5 0 0 0 4.5 12v-2Zm.5.5a.5.5 0 0 1 .5-.5v2A1.5 1.5 0 0 0 7 10.5H5Zm.5.5a.5.5 0 0 1-.5-.5h2A1.5 1.5 0 0 0 5.5 9v2Zm-1-2A1.5 1.5 0 0 0 3 10.5h2a.5.5 0 0 1-.5.5V9Zm3 0h1V7h-1v2Zm1-1h-1v2h1V8Zm-1 0a.5.5 0 0 1 .5.5H6A1.5 1.5 0 0 0 7.5 10V8Zm.5.5a.5.5 0 0 1 .5-.5v2A1.5 1.5 0 0 0 10 8.5H8Zm.5.5a.5.5 0 0 1-.5-.5h2A1.5 1.5 0 0 0 8.5 7v2Zm-1-2A1.5 1.5 0 0 0 6 8.5h2a.5.5 0 0 1-.5.5V7Zm0 4h1V9h-1v2Zm1-1h-1v2h1v-2Zm-1 0a.5.5 0 0 1 .5.5H6A1.5 1.5 0 0 0 7.5 12v-2Zm.5.5a.5.5 0 0 1 .5-.5v2a1.5 1.5 0 0 0 1.5-1.5H8Zm.5.5a.5.5 0 0 1-.5-.5h2A1.5 1.5 0 0 0 8.5 9v2Zm-1-2A1.5 1.5 0 0 0 6 10.5h2a.5.5 0 0 1-.5.5V9Zm3 0h1V7h-1v2Zm1-1h-1v2h1V8Zm-1 0a.5.5 0 0 1 .5.5H9a1.5 1.5 0 0 0 1.5 1.5V8Zm.5.5a.5.5 0 0 1 .5-.5v2A1.5 1.5 0 0 0 13 8.5h-2Zm.5.5a.5.5 0 0 1-.5-.5h2A1.5 1.5 0 0 0 11.5 7v2Zm-1-2A1.5 1.5 0 0 0 9 8.5h2a.5.5 0 0 1-.5.5V7Zm0 4h1V9h-1v2Zm1-1h-1v2h1v-2Zm-1 0a.5.5 0 0 1 .5.5H9a1.5 1.5 0 0 0 1.5 1.5v-2Zm.5.5a.5.5 0 0 1 .5-.5v2a1.5 1.5 0 0 0 1.5-1.5h-2Zm.5.5a.5.5 0 0 1-.5-.5h2A1.5 1.5 0 0 0 11.5 9v2Zm-1-2A1.5 1.5 0 0 0 9 10.5h2a.5.5 0 0 1-.5.5V9Z" mask="url(#iconsCashRegisterSize16Px__a)"/></svg>
