<svg viewBox="0 0 24 24" fill="none" xmlns="http://www.w3.org/2000/svg" stroke="currentColor" width="1em" height="1em"><path d="M4.5 8.5V8.5C3.94772 8.5 3.5 8.94772 3.5 9.5V18.5H20.5V10.5C20.5 9.39543 19.6046 8.5 18.5 8.5H11.5" stroke-linecap="round"/><path d="M12.5 3C12.5 2.72386 12.7239 2.5 13 2.5H20C20.2761 2.5 20.5 2.72386 20.5 3V6C20.5 6.27614 20.2761 6.5 20 6.5H13C12.7239 6.5 12.5 6.27614 12.5 6V3Z"/><path d="M15.5 6.5H17.5V8.5H15.5V6.5Z"/><rect x="2.5" y="18.5" width="19" height="3" rx="0.5"/><path d="M5.5 14.5H6.5M8.5 14.5H9.5M11.5 14.5H12.5M14.5 14.5H15.5M17.5 14.5H18.5M5.5 16.5H6.5M8.5 16.5H9.5M11.5 16.5H12.5M14.5 16.5H15.5M17.5 16.5H18.5" stroke-linecap="round"/><path d="M6.5 6C6.5 5.72386 6.72386 5.5 7 5.5H9C9.27614 5.5 9.5 5.72386 9.5 6V9C9.5 9.27614 9.27614 9.5 9 9.5H7C6.72386 9.5 6.5 9.27614 6.5 9V6Z"/><rect x="11.5" y="10.5" width="7" height="2" rx="1"/></svg>
