<svg xmlns="http://www.w3.org/2000/svg" fill="none" viewBox="0 0 32 32" width="1em" height="1em"><path stroke="currentColor" stroke-linecap="round" d="M6.5 10.5v0a2 2 0 0 0-2 2v12h23v-12a2 2 0 0 0-2-2h-11"/><path stroke="currentColor" d="M16.5 3a.5.5 0 0 1 .5-.5h10a.5.5 0 0 1 .5.5v4a.5.5 0 0 1-.5.5H17a.5.5 0 0 1-.5-.5zm4 4.5h3v3h-3zM2.5 25a.5.5 0 0 1 .5-.5h26a.5.5 0 0 1 .5.5v4a.5.5 0 0 1-.5.5H3a.5.5 0 0 1-.5-.5z"/><path stroke="currentColor" stroke-linecap="round" d="M6.9 19.5h1.4m2.8 0h1.4m2.8 0h1.4m2.8 0h1.4m2.8 0h1.4M6.9 22.3h1.4m2.8 0h1.4m2.8 0h1.4m2.8 0h1.4m2.8 0h1.4"/><path stroke="currentColor" d="M8.5 8a.5.5 0 0 1 .5-.5h3a.5.5 0 0 1 .5.5v4a.5.5 0 0 1-.5.5H9a.5.5 0 0 1-.5-.5z"/><rect width="10" height="3" x="15.5" y="13.5" stroke="currentColor" rx="1.5"/></svg>
