<svg xmlns="http://www.w3.org/2000/svg" fill="none" viewBox="0 0 32 32" width="1em" height="1em"><path stroke="currentColor" stroke-linecap="round" d="M7.485 7.485 4.657 4.656"/><path stroke="currentColor" stroke-linejoin="round" d="M8.303 18.871c-1.355-1.519-2.444-3.313-2.712-5.193-.264-1.85.256-3.847 2.248-5.84 1.992-1.991 3.99-2.51 5.838-2.247 1.881.268 3.675 1.357 5.194 2.712.183.163.2.466-.001.667l-9.9 9.9a.457.457 0 0 1-.667.001Z"/><path fill="currentColor" d="M12.789 18.344a.5.5 0 1 0 .707-.707l-.707.707Zm4.444-4.445a.5.5 0 0 0 .707-.707l-.707.707Zm-3.737 3.738-1.616-1.616-.707.707 1.616 1.616.707-.707Zm4.444-4.445-1.616-1.616-.707.707 1.616 1.616.707-.707Z"/><path stroke="currentColor" stroke-linecap="round" d="m24.375 24.375 2.828 2.828"/><path stroke="currentColor" stroke-linejoin="round" d="M12.99 23.557c1.518 1.354 3.312 2.443 5.193 2.712 1.849.263 3.846-.256 5.839-2.248 1.992-1.992 2.51-3.99 2.247-5.839-.268-1.88-1.357-3.675-2.712-5.193a.458.458 0 0 0-.667.001l-9.9 9.9a.457.457 0 0 0 0 .667Z"/></svg>
