<svg viewBox="0 0 16 16" fill="none" xmlns="http://www.w3.org/2000/svg" width="1em" height="1em"><path d="M7.52922 12.3875C8.3173 12.9942 9.13115 13.3305 9.90741 13.3479C10.669 13.3651 11.4532 13.0774 12.2084 12.3221C12.9637 11.5669 13.2514 10.7827 13.2342 10.0211C13.2168 9.24485 12.8805 8.431 12.2738 7.64292C12.1487 7.4804 11.8656 7.43847 11.655 7.64908L7.53538 11.7687C7.32477 11.9794 7.36669 12.2624 7.52922 12.3875Z" stroke="currentColor" stroke-linejoin="round"/><path d="M12.4999 12.5001L13.4999 13.5001" stroke="currentColor" stroke-linecap="round"/><path d="M3.49028 8.34874C2.88359 7.56066 2.54735 6.74681 2.52986 5.97055C2.5127 5.20895 2.80043 4.42477 3.55567 3.66953C4.31092 2.91429 5.09509 2.62655 5.85669 2.64372C6.63295 2.66121 7.4468 2.99745 8.23488 3.60413C8.39741 3.72925 8.43933 4.01231 8.22873 4.22292L4.10906 8.34258C3.89846 8.55319 3.61539 8.51126 3.49028 8.34874Z" stroke="currentColor" stroke-linejoin="round"/><path d="M3.5 3.49994L2.5 2.50006" stroke="currentColor" stroke-linecap="round"/><path d="M5.7892 8.49817C5.98445 8.69344 6.30103 8.69345 6.4963 8.49819C6.69157 8.30294 6.69158 7.98635 6.49632 7.79109L5.7892 8.49817ZM7.67722 6.61007C7.87248 6.80534 8.18906 6.80534 8.38432 6.61009C8.57959 6.41483 8.5796 6.09825 8.38434 5.90298L7.67722 6.61007ZM6.49632 7.79109L5.38957 6.68428L4.68245 7.39137L5.7892 8.49817L6.49632 7.79109ZM8.38434 5.90298L7.2776 4.79618L6.57047 5.50326L7.67722 6.61007L8.38434 5.90298Z" fill="currentColor"/></svg>
