<svg viewBox="0 0 32 32" fill="none" xmlns="http://www.w3.org/2000/svg" stroke="currentColor"><path d="M7.48523 7.48529L4.6568 4.65686" stroke-linecap="round"/><path d="M8.30299 18.8711C6.94818 17.3525 5.85922 15.5583 5.59105 13.6776C5.32745 11.8289 5.84663 9.831 7.83878 7.83885C9.83092 5.8467 11.8288 5.32752 13.6775 5.59112C15.5582 5.85929 17.3524 6.94826 18.8711 8.30306C19.0543 8.46655 19.0709 8.76892 18.8696 8.97022L8.97015 18.8697C8.76885 19.071 8.46648 19.0544 8.30299 18.8711Z" stroke-linejoin="round"/><path d="M12.7888 18.3446C12.9841 18.5399 13.3007 18.5399 13.4959 18.3446C13.6912 18.1494 13.6912 17.8328 13.4959 17.6375L12.7888 18.3446ZM17.2332 13.8997C17.4285 14.0949 17.7451 14.0949 17.9403 13.8997C18.1356 13.7044 18.1356 13.3878 17.9403 13.1926L17.2332 13.8997ZM13.4959 17.6375L11.8799 16.0215L11.1728 16.7286L12.7888 18.3446L13.4959 17.6375ZM17.9403 13.1926L16.3243 11.5766L15.6172 12.2837L17.2332 13.8997L17.9403 13.1926Z" fill="#282829"/><path d="M24.375 24.375C25.4796 25.4796 26.0989 26.0989 27.2034 27.2034" stroke-linecap="round"/><path d="M12.9893 23.5572C14.5079 24.912 16.3021 26.001 18.1828 26.2692C20.0315 26.5328 22.0294 26.0136 24.0216 24.0215C26.0137 22.0293 26.5329 20.0314 26.2693 18.1827C26.0011 16.302 24.9122 14.5078 23.5574 12.9892C23.3939 12.8059 23.0915 12.7893 22.8902 12.9906L12.9907 22.8901C12.7894 23.0914 12.806 23.3937 12.9893 23.5572Z" stroke-linejoin="round"/></svg>
