<svg xmlns="http://www.w3.org/2000/svg" fill="none" viewBox="0 0 16 16" width="1em" height="1em"><path stroke="currentColor" stroke-linejoin="round" d="M7.53 12.387c.787.607 1.601.943 2.377.96.762.018 1.546-.27 2.301-1.025.756-.755 1.043-1.54 1.026-2.301-.017-.776-.354-1.59-.96-2.378-.125-.163-.408-.205-.619.006l-4.12 4.12c-.21.21-.168.493-.006.618Z"/><path stroke="currentColor" stroke-linecap="round" d="m12.5 12.5 1 1"/><path stroke="currentColor" stroke-linejoin="round" d="M3.49 8.348c-.606-.788-.943-1.602-.96-2.378-.017-.761.27-1.546 1.026-2.3.755-.756 1.54-1.044 2.3-1.027.777.018 1.59.354 2.379.96.162.126.204.409-.006.62l-4.12 4.12c-.21.21-.494.168-.619.005Z"/><path stroke="currentColor" stroke-linecap="round" d="m3.5 3.5-1-1"/><path fill="currentColor" d="M5.79 8.498a.5.5 0 1 0 .706-.707l-.707.707ZM7.676 6.61a.5.5 0 1 0 .707-.707l-.707.707Zm-1.18 1.18L5.39 6.685l-.708.707L5.79 8.498l.707-.707Zm1.887-1.887L7.278 4.796l-.708.707L7.677 6.61l.707-.707Z"/></svg>
