<svg xmlns="http://www.w3.org/2000/svg" fill="none" viewBox="0 0 24 24" width="1em" height="1em"><path stroke="currentColor" stroke-linecap="round" d="M5.5 5.5 3.018 3.017"/><path stroke="currentColor" stroke-linejoin="round" d="M5.935 13.209c-.898-1.058-1.582-2.274-1.725-3.53-.14-1.226.23-2.556 1.572-3.897C7.123 4.44 8.453 4.07 9.68 4.21c1.255.143 2.471.827 3.53 1.725.176.15.2.446-.004.65l-6.62 6.621c-.205.205-.5.18-.65.003Z"/><path fill="currentColor" d="M9.494 13.415a.5.5 0 1 0 .707-.707l-.707.707Zm3.214-3.214a.5.5 0 1 0 .707-.707l-.707.707Zm-2.507 2.507-1.205-1.205-.707.707 1.205 1.205.707-.707Zm3.214-3.214L12.21 8.289l-.707.707 1.205 1.205.707-.707Z"/><path stroke="currentColor" stroke-linecap="round" d="m18 18 2.695 2.695"/><path stroke="currentColor" stroke-linejoin="round" d="M10.504 17.778c1.058.898 2.274 1.582 3.53 1.725 1.226.139 2.556-.23 3.897-1.572 1.342-1.341 1.711-2.671 1.572-3.898-.143-1.255-.827-2.471-1.725-3.53-.15-.176-.446-.2-.65.003l-6.621 6.622c-.205.204-.18.5-.003.65Z"/></svg>
