<svg xmlns="http://www.w3.org/2000/svg" fill="none" viewBox="0 0 32 32" width="1em" height="1em"><path stroke="currentColor" stroke-linecap="round" d="M7.39 7.485 4.596 4.657"/><path stroke="currentColor" stroke-linejoin="round" d="M8.19 18.848c-1.332-1.517-2.4-3.307-2.661-5.182-.257-1.842.256-3.833 2.217-5.82C9.707 5.86 11.672 5.341 13.49 5.6c1.85.265 3.617 1.347 5.115 2.697a.47.47 0 0 1-.001.68l-9.742 9.87a.456.456 0 0 1-.672 0Z"/><path fill="currentColor" d="M12.617 18.352a.5.5 0 0 0 .713 0 .516.516 0 0 0 0-.723zm4.387-4.445a.5.5 0 0 0 .714 0 .516.516 0 0 0 0-.722zM13.33 17.63l-1.595-1.616-.713.722 1.595 1.616zm4.388-4.445-1.595-1.616-.714.722 1.595 1.616z"/><path stroke="currentColor" stroke-linecap="round" d="m24.063 24.375 2.792 2.828"/><path stroke="currentColor" stroke-linejoin="round" d="M12.845 23.563c1.498 1.35 3.265 2.432 5.116 2.697 1.818.26 3.784-.26 5.745-2.247 1.96-1.986 2.474-3.977 2.217-5.82-.261-1.874-1.33-3.664-2.662-5.18a.457.457 0 0 0-.672 0l-9.742 9.87a.47.47 0 0 0-.002.68Z"/></svg>
