<svg viewBox="0 0 24 24" fill="none" xmlns="http://www.w3.org/2000/svg" width="1em" height="1em"><path d="M5.5 5.50012L3.01768 3.0176" stroke="currentColor" stroke-linecap="round"/><path d="M5.93512 13.2091C5.03742 12.151 4.35299 10.9349 4.21028 9.67969C4.07085 8.45323 4.44033 7.12335 5.78185 5.78182C7.12337 4.4403 8.45326 4.07082 9.67972 4.21026C10.9349 4.35296 12.151 5.03739 13.2091 5.93509C13.386 6.08514 13.4107 6.3811 13.2065 6.58535L6.58538 13.2064C6.38113 13.4107 6.08517 13.386 5.93512 13.2091Z" stroke="currentColor" stroke-linejoin="round"/><path d="M9.4942 13.4153C9.68946 13.6106 10.006 13.6106 10.2013 13.4153C10.3966 13.2201 10.3966 12.9035 10.2013 12.7082L9.4942 13.4153ZM12.7082 10.201C12.9034 10.3962 13.22 10.3962 13.4153 10.201C13.6105 10.0057 13.6105 9.68912 13.4153 9.49386L12.7082 10.201ZM10.2013 12.7082L8.99621 11.5031L8.2891 12.2102L9.4942 13.4153L10.2013 12.7082ZM13.4153 9.49386L12.2102 8.28876L11.5031 8.99587L12.7082 10.201L13.4153 9.49386Z" fill="currentColor"/><path d="M18 18L20.6954 20.6954" stroke="currentColor" stroke-linecap="round"/><path d="M10.5039 17.7779C11.562 18.6756 12.7781 19.36 14.0333 19.5027C15.2598 19.6421 16.5897 19.2727 17.9312 17.9311C19.2727 16.5896 19.6422 15.2597 19.5028 14.0333C19.36 12.778 18.6756 11.562 17.7779 10.5039C17.6279 10.327 17.3319 10.3023 17.1277 10.5065L10.5066 17.1276C10.3023 17.3319 10.327 17.6278 10.5039 17.7779Z" stroke="currentColor" stroke-linejoin="round"/></svg>
