<svg xmlns="http://www.w3.org/2000/svg" fill="none" viewBox="0 0 16 16" width="1em" height="1em"><path stroke="currentColor" stroke-linejoin="round" d="M7.455 12.39c.775.601 1.573.932 2.333.947.746.015 1.515-.272 2.256-1.023s1.024-1.53 1.01-2.285c-.015-.77-.342-1.579-.934-2.364-.125-.165-.41-.209-.622.007l-4.036 4.089c-.213.215-.17.504-.007.63Z"/><path stroke="currentColor" stroke-linecap="round" d="m12.34 12.5.987 1"/><path stroke="currentColor" stroke-linejoin="round" d="M3.442 8.326c-.593-.785-.92-1.593-.934-2.364-.015-.755.268-1.534 1.01-2.285.74-.75 1.51-1.037 2.255-1.023.76.016 1.559.346 2.334.946.162.127.206.415-.007.63L4.064 8.32c-.213.215-.498.17-.622.006Z"/><path stroke="currentColor" stroke-linecap="round" d="m3.455 3.5-.987-1"/><path fill="currentColor" d="M5.702 8.5a.508.508 0 1 0 .723-.713zm1.864-1.887a.508.508 0 1 0 .723-.714zm-1.14 1.174L5.332 6.681l-.723.713 1.092 1.107zM8.288 5.9 7.196 4.793l-.722.713 1.092 1.107z"/></svg>
