<svg width="250px" height="150px" viewBox="0 0 250 150" version="1.1" xmlns="http://www.w3.org/2000/svg" xmlns:xlink="http://www.w3.org/1999/xlink">
    <title>Frame 1 Copy 5</title>
    <defs>
        <rect id="path-1" x="0" y="0" width="173" height="37" rx="2"></rect>
        <rect id="path-3" x="0" y="0" width="173" height="36" rx="2"></rect>
        <rect id="path-5" x="0" y="0" width="173" height="37" rx="2"></rect>
    </defs>
    <g id="Frame-1-Copy-5" stroke="none" stroke-width="1" fill="none" fill-rule="evenodd">
        <g id="Card/Background" transform="translate(39.000000, 13.000000)">
            <mask id="mask-2" fill="white">
                <use xlink:href="#path-1"></use>
            </mask>
            <use id="Background" stroke-opacity="0.3" stroke="#B5C4CF" stroke-width="2" fill="#FFFFFF" fill-rule="nonzero" xlink:href="#path-1"></use>
            <path d="M156,21 C156,21.5626767 155.32125,22 154.55298,22 L42.448356,22 C41.6319856,22 41,21.5306315 41,21 C41,20.4373233 41.6774137,20 42.448356,20 L154.507552,20 C155.32125,20 156,20.4373233 156,21" id="Fill-9" fill="#DEE0E1" mask="url(#mask-2)"></path>
            <path d="M92,12 C92,13.0972304 90.9471578,14 89.6645555,14 L43.334093,14 C42.0514907,14 41,13.098409 41,12 C41,10.901591 42.0514907,10 43.334093,10 L89.6645555,10 C90.9471578,10 92,10.901591 92,12" id="Fill-11" fill="#B5C4CF" fill-rule="nonzero" mask="url(#mask-2)"></path>
            <path d="M88,27 C88,27.5626767 87.3255378,28 86.562928,28 L42.437072,28 C41.6277173,28 41,27.5306315 41,27 C41,26.4373233 41.6731267,26 42.437072,26 L86.562928,26 C87.3255378,26 88,26.4373233 88,27" id="Fill-13" fill="#DEE0E1" mask="url(#mask-2)"></path>
            <path d="M26.8284734,28 L13.1740995,28 C11.978988,28 11,26.9685714 11,25.7077857 L11,11.2922143 C11,10.0314286 11.978988,9 13.1740995,9 L26.8284734,9 C28.0235849,9 29,10.0314286 29,11.2922143 L29,25.7077857 C29,26.9685714 28.0235849,28 26.8284734,28" id="Fill-15" fill="#B5C4CF" fill-rule="nonzero" mask="url(#mask-2)"></path>
        </g>
        <g id="Card/Background-Copy" transform="translate(39.000000, 57.000000)">
            <mask id="mask-4" fill="white">
                <use xlink:href="#path-3"></use>
            </mask>
            <use id="Background" stroke-opacity="0.3" stroke="#B5C4CF" stroke-width="2" fill="#FFFFFF" fill-rule="nonzero" xlink:href="#path-3"></use>
            <path d="M156,21 C156,21.5626767 155.32125,22 154.55298,22 L42.448356,22 C41.6319856,22 41,21.5306315 41,21 C41,20.4373233 41.6774137,20 42.448356,20 L154.507552,20 C155.32125,20 156,20.4373233 156,21" id="Fill-9" fill="#DEE0E1" mask="url(#mask-4)"></path>
            <path d="M92,10 C92,11.0972304 90.9471578,12 89.6645555,12 L43.334093,12 C42.0514907,12 41,11.098409 41,10 C41,8.90159104 42.0514907,8 43.334093,8 L89.6645555,8 C90.9471578,8 92,8.90159104 92,10" id="Fill-11" fill="#B5C4CF" fill-rule="nonzero" mask="url(#mask-4)"></path>
            <path d="M88,27 C88,27.5626767 87.3255378,28 86.562928,28 L42.437072,28 C41.6277173,28 41,27.5306315 41,27 C41,26.4373233 41.6731267,26 42.437072,26 L86.562928,26 C87.3255378,26 88,26.4373233 88,27" id="Fill-13" fill="#DEE0E1" mask="url(#mask-4)"></path>
            <path d="M26.8284734,27 L13.1740995,27 C11.978988,27 11,25.9685714 11,24.7077857 L11,10.2922143 C11,9.03142857 11.978988,8 13.1740995,8 L26.8284734,8 C28.0235849,8 29,9.03142857 29,10.2922143 L29,24.7077857 C29,25.9685714 28.0235849,27 26.8284734,27" id="Fill-15" fill="#B5C4CF" fill-rule="nonzero" mask="url(#mask-4)"></path>
        </g>
        <g id="Card/Background-Copy-2" transform="translate(39.000000, 100.000000)">
            <mask id="mask-6" fill="white">
                <use xlink:href="#path-5"></use>
            </mask>
            <use id="Background" stroke-opacity="0.3" stroke="#B5C4CF" stroke-width="2" fill="#FFFFFF" fill-rule="nonzero" xlink:href="#path-5"></use>
            <path d="M156,20 C156,20.5626767 155.32125,21 154.55298,21 L42.448356,21 C41.6319856,21 41,20.5306315 41,20 C41,19.4373233 41.6774137,19 42.448356,19 L154.507552,19 C155.32125,19 156,19.4373233 156,20" id="Fill-9" fill="#DEE0E1" mask="url(#mask-6)"></path>
            <path d="M92,11 C92,12.0972304 90.9471578,13 89.6645555,13 L43.334093,13 C42.0514907,13 41,12.098409 41,11 C41,9.90159104 42.0514907,9 43.334093,9 L89.6645555,9 C90.9471578,9 92,9.90159104 92,11" id="Fill-11" fill="#B5C4CF" fill-rule="nonzero" mask="url(#mask-6)"></path>
            <path d="M88,26 C88,26.5626767 87.3255378,27 86.562928,27 L42.437072,27 C41.6277173,27 41,26.5306315 41,26 C41,25.4373233 41.6731267,25 42.437072,25 L86.562928,25 C87.3255378,25 88,25.4373233 88,26" id="Fill-13" fill="#DEE0E1" mask="url(#mask-6)"></path>
            <path d="M26.8284734,27 L13.1740995,27 C11.978988,27 11,25.9685714 11,24.7077857 L11,10.2922143 C11,9.03142857 11.978988,8 13.1740995,8 L26.8284734,8 C28.0235849,8 29,9.03142857 29,10.2922143 L29,24.7077857 C29,25.9685714 28.0235849,27 26.8284734,27" id="Fill-15" fill="#B5C4CF" fill-rule="nonzero" mask="url(#mask-6)"></path>
        </g>
    </g>
</svg>