<svg height="64" viewBox="0 0 56 64" width="56" xmlns="http://www.w3.org/2000/svg"><path clip-rule="evenodd" d="m5.2 0c-2.8 0-5.1 2.3-5.1 5.1v53.8c0 2.8 2.3 5.1 5.1 5.1h45.7c2.8 0 5.1-2.3 5.1-5.1v-38.6l-18.9-20.3h-31.9z" fill="#4e74b7" fill-rule="evenodd"/><g clip-rule="evenodd" fill-rule="evenodd"><path d="m56 20.4v1h-12.8s-6.3-1.3-6.2-6.8c0 0 .3 5.8 6.1 5.8z" fill="#3a57a5"/><path d="m37.1 0v14.6c0 1.6 1.1 5.8 6.1 5.8h12.8z" fill="#fff" opacity=".5"/></g><path d="m29.2 40.9v11.9c0 .6-.5 1.2-1.2 1.2h-16.7c-.6 0-1.2-.6-1.2-1.2v-11.9c0-.2 0-.3.1-.4l1.6-4.8c.1-.5.6-.8 1.1-.8h13.5c.5 0 1 .3 1.1.8l1.6 4.8c.1.1.1.2.1.4zm-2.5 0-1.2-3.6h-11.7l-1.2 3.6z" fill="#fff"/></svg>