<svg height="64" viewBox="0 0 56 64" width="56" xmlns="http://www.w3.org/2000/svg"><g clip-rule="evenodd" fill-rule="evenodd"><g><path d="m5.1 0c-2.8 0-5 2.3-5 5.1v53.9c0 2.8 2.2 5 5 5h45.8c2.8 0 5.1-2.2 5.1-5v-38.6l-18.9-20.4z" fill="#49c9a7"/><path d="m56 20.4v1h-12.8s-6.3-1.3-6.2-6.8c0 0 .3 5.8 6.1 5.8z" fill="#37bb91"/><path d="m37.1 0v14.6c0 1.6 1.1 5.8 6.1 5.8h12.8z" fill="#fff" opacity=".5"/></g><path d="m10.1 53.7v-20.9h20.9v20.9zm18.8-18.8h-16.7v12.6h16.7zm-9.6 8.4 3.9-5.3 1.3 2.1 1.3-.4 1 5.6h-13.1l3.5-3.3zm-3.8-3.7c-.9 0-1.7-.6-1.7-1.5 0-.8.8-1.5 1.7-1.5s1.6.7 1.6 1.5c0 .9-.7 1.5-1.6 1.5z" fill="#fff"/></g></svg>