<svg height="64" viewBox="0 0 56 64" width="56" xmlns="http://www.w3.org/2000/svg"><path clip-rule="evenodd" d="m5.1 0c-2.8 0-5.1 2.3-5.1 5.1v53.8c0 2.8 2.3 5.1 5.1 5.1h45.8c2.8 0 5.1-2.3 5.1-5.1v-38.6l-18.9-20.3h-32z" fill="#45b058" fill-rule="evenodd"/><path d="m19.4 53.9c-.2 0-.4-.1-.5-.2l-3.7-5-3.8 5c-.1.1-.3.2-.5.2-.4 0-.7-.3-.7-.7 0-.1 0-.3.1-.4l3.9-5.1-3.6-4.9c-.1-.1-.2-.2-.2-.4 0-.3.3-.7.7-.7.3 0 .5.1.6.3l3.5 4.6 3.4-4.6c.1-.2.3-.3.5-.3.4 0 .8.3.8.7 0 .2-.1.3-.1.4l-3.7 4.8 3.9 5.2c.1.1.2.3.2.4 0 .4-.4.7-.8.7zm10-.1h-5.4c-.6 0-1.1-.5-1.1-1.1v-10.3c0-.4.3-.7.8-.7.4 0 .7.3.7.7v10.1h5c.4 0 .7.3.7.6 0 .4-.3.7-.7.7zm7 .2c-1.8 0-3.2-.6-4.2-1.5-.2-.1-.2-.3-.2-.5 0-.4.2-.8.7-.8.1 0 .3.1.4.2.8.7 2 1.3 3.4 1.3 2.1 0 2.8-1.2 2.8-2.1 0-3.1-7.1-1.4-7.1-5.6 0-2 1.7-3.4 4.1-3.4 1.5 0 2.9.5 3.8 1.3.2.1.3.3.3.5 0 .4-.3.8-.7.8-.1 0-.3-.1-.4-.2-.9-.7-2-1-3.1-1-1.5 0-2.5.7-2.5 1.9 0 2.7 7.1 1.1 7.1 5.6 0 1.7-1.2 3.5-4.4 3.5z" fill="#fff"/><g clip-rule="evenodd" fill-rule="evenodd"><path d="m56 20.4v1h-12.8s-6.4-1.3-6.2-6.8c0 0 .2 5.8 6 5.8z" fill="#349c42"/><path d="m37 0v14.6c0 1.6 1.2 5.8 6.2 5.8h12.8z" fill="#fff" opacity=".5"/></g></svg>