<svg height="64" viewBox="0 0 56 64" width="56" xmlns="http://www.w3.org/2000/svg"><path clip-rule="evenodd" d="m5.1 0c-2.8 0-5 2.3-5 5.1v53.8c0 2.8 2.2 5.1 5 5.1h45.8c2.8 0 5.1-2.3 5.1-5.1v-38.6l-18.9-20.3h-32z" fill="#f7622c" fill-rule="evenodd"/><g clip-rule="evenodd" fill-rule="evenodd"><path d="m56 20.4v1h-12.8s-6.3-1.3-6.2-6.8c0 0 .3 5.8 6.1 5.8z" fill="#f54921"/><path d="m37.1 0v14.6c0 1.6 1.1 5.8 6.1 5.8h12.8z" fill="#fff" opacity=".5"/></g><path d="m18.9 50.8c-.1 0-.2 0-.3 0l-7.6-3.4c-.5-.2-.8-.7-.8-1.3 0-.5.3-1 .8-1.2l7.6-3.4c.1 0 .2-.1.3-.1.5 0 .9.4.9.9 0 .4-.2.7-.5.9l-7 3 7 2.9c.3.2.5.5.5.9 0 .5-.4.8-.9.8zm8.5-11-4.4 13.3c-.2.4-.5.6-.9.6-.6 0-1-.4-1-.9 0-.1.1-.2.1-.3l4.4-13.2c.2-.4.5-.7.9-.7.6 0 .9.4.9.9zm10.2 7.6-7.6 3.4c-.1 0-.2 0-.3 0-.5 0-.9-.3-.9-.8 0-.4.2-.7.5-.9l7.1-2.9-7.1-3c-.3-.2-.5-.5-.5-.9 0-.5.4-.9.9-.9.1 0 .2.1.3.1l7.6 3.4c.5.2.8.7.8 1.2 0 .6-.3 1.1-.8 1.3z" fill="#fff"/></svg>