<svg height="64" viewBox="0 0 56 64" width="56" xmlns="http://www.w3.org/2000/svg"><path clip-rule="evenodd" d="m5.1 0c-2.8 0-5.1 2.3-5.1 5.1v53.8c0 2.8 2.3 5.1 5.1 5.1h45.8c2.8 0 5.1-2.3 5.1-5.1v-38.6l-18.9-20.3h-32z" fill="#e34221" fill-rule="evenodd"/><g clip-rule="evenodd" fill-rule="evenodd"><path d="m56 20.4v1h-12.8s-6.3-1.3-6.2-6.8c0 0 .3 5.8 6.1 5.8z" fill="#dc3119"/><path d="m37.1 0v14.6c0 1.6 1.1 5.8 6.1 5.8h12.8z" fill="#fff" opacity=".5"/></g><path d="m15 49h-3.4v4.2c0 .4-.3.7-.7.7s-.8-.3-.8-.7v-10.3c0-.6.5-1.1 1.1-1.1h3.8c2.4 0 3.7 1.6 3.7 3.6s-1.4 3.6-3.7 3.6zm-.2-5.9h-3.2v4.6h3.2c1.4 0 2.4-1 2.4-2.3 0-1.4-1-2.3-2.4-2.3zm11.2 5.9h-3.4v4.2c0 .4-.3.7-.7.7s-.7-.3-.7-.7v-10.3c0-.6.4-1.1 1-1.1h3.8c2.4 0 3.7 1.6 3.7 3.6s-1.3 3.6-3.7 3.6zm-.2-5.9h-3.1v4.6h3.1c1.4 0 2.4-1 2.4-2.3 0-1.4-1-2.3-2.4-2.3zm14.1 0h-3.3v10.1c0 .4-.3.7-.7.7s-.8-.3-.8-.7v-10.1h-3.2c-.4 0-.7-.3-.7-.7 0-.3.3-.6.7-.6h8c.4 0 .7.3.7.7 0 .3-.3.6-.7.6z" fill="#fff"/></svg>