<svg height="60" viewBox="0 0 100 100" width="60" xmlns="http://www.w3.org/2000/svg"><path d="m61.4 37.2c.2.7.7 1.2 1.4 1.4l2.2.6c.4.1.9-.1 1.1-.5l4.7-8.1c1.1-1.9.5-2.6-1.5-1.5l-8.1 4.7c-.4.2-.6.7-.5 1.1zm-27.5 1.5c.2.4.7.6 1.1.5l2.2-.6c.7-.2 1.2-.7 1.4-1.4l.6-2.2c.1-.4-.1-.9-.5-1.1l-8.1-4.7c-1.9-1.1-2.6-.5-1.5 1.5zm32.2 22.6c-.2-.4-.7-.6-1.1-.5l-2.2.6c-.7.2-1.2.7-1.4 1.4l-.6 2.2c-.1.4.1.9.5 1.1l8.1 4.7c1.9 1.1 2.6.5 1.5-1.5zm-27.5 1.5c-.2-.7-.7-1.2-1.4-1.4l-2.2-.6c-.4-.1-.9.1-1.1.5l-4.7 8.1c-1.1 1.9-.5 2.6 1.5 1.5l8.1-4.7c.4-.2.6-.7.5-1.1zm39.8-13.8-20.5-5.5c-.7-.2-1.2-.7-1.4-1.4l-5.5-20.5c-.6-2.1-1.5-2.1-2.1 0l-5.5 20.5c-.2.7-.7 1.2-1.4 1.4l-20.4 5.5c-2.1.6-2.1 1.5 0 2.1l20.5 5.5c.7.2 1.2.7 1.4 1.4l5.5 20.4c.6 2.1 1.5 2.1 2.1 0l5.5-20.5c.2-.7.7-1.2 1.4-1.4l20.4-5.5c2.1-.5 2.1-1.5 0-2zm-28.4 6c-2.8 0-5-2.2-5-5s2.2-5 5-5 5 2.2 5 5-2.2 5-5 5z"/></svg>