<svg height="60" viewBox="0 0 100 100" width="60" xmlns="http://www.w3.org/2000/svg"><path d="m78.3 26.9h-47.3c-.9 0-1.7.8-1.7 1.7v35.2c0 1.4-1.3 2.5-2.7 2.3-1.2-.2-2-1.3-2-2.4v-25.2c0-.7-.5-1.2-1.2-1.2h-1.7c-.9 0-1.7.8-1.7 1.7v29.4c0 2.5 2.1 4.6 4.6 4.6h50.8c2.5 0 4.6-2.1 4.6-4.6v-39.7c0-1-.8-1.8-1.7-1.8zm-26 33.5c0 .7-.5 1.2-1.2 1.2h-13.8c-.7 0-1.2-.5-1.2-1.2v-2.3c0-.7.5-1.2 1.2-1.2h13.8c.7 0 1.2.5 1.2 1.2zm0-9.2c0 .7-.5 1.2-1.2 1.2h-13.8c-.7 0-1.2-.5-1.2-1.2v-2.3c0-.7.5-1.2 1.2-1.2h13.8c.7 0 1.2.5 1.2 1.2zm20.8 9.2c0 .7-.5 1.2-1.2 1.2h-13.8c-.7 0-1.2-.5-1.2-1.2v-2.3c0-.7.5-1.2 1.2-1.2h13.8c.7 0 1.2.5 1.2 1.2zm0-9.2c0 .7-.5 1.2-1.2 1.2h-13.8c-.7 0-1.2-.5-1.2-1.2v-2.3c0-.7.5-1.2 1.2-1.2h13.8c.7 0 1.2.5 1.2 1.2zm0-9.3c0 .7-.5 1.2-1.2 1.2h-34.6c-.7 0-1.2-.5-1.2-1.2v-6.9c0-.7.5-1.2 1.2-1.2h34.6c.7 0 1.2.5 1.2 1.2z"/></svg>