<svg height="64" viewBox="0 0 56 64" width="56" xmlns="http://www.w3.org/2000/svg"><path clip-rule="evenodd" d="m5.1 0c-2.8 0-5.1 2.3-5.1 5.1v53.8c0 2.8 2.3 5.1 5.1 5.1h45.8c2.8 0 5.1-2.3 5.1-5.1v-38.6l-18.9-20.3h-32z" fill="#496ab3" fill-rule="evenodd"/><g clip-rule="evenodd" fill-rule="evenodd"><path d="m56 20.4v1h-12.8s-6.3-1.3-6.2-6.8c0 0 .3 5.8 6.1 5.8z" fill="#374fa0"/><path d="m37.1 0v14.6c0 1.6 1.1 5.8 6.1 5.8h12.8z" fill="#fff" opacity=".5"/></g><path d="m20.9 42.7-4.1 10.3c-.2.5-.7.8-1.2.8h-.1c-.5 0-1-.3-1.2-.8l-4.1-10.3c-.1-.1-.1-.2-.1-.3 0-.4.4-.8.8-.8.3 0 .6.2.8.5l3.9 10 3.8-10c.1-.3.4-.5.8-.5s.8.4.8.8c0 .1-.1.2-.1.3zm3.2 11.1c-.5 0-.8-.3-.8-.7v-10.8c0-.4.3-.7.8-.7.4 0 .7.3.7.7v10.8c0 .4-.3.7-.7.7zm7.9.1c-1.8 0-3.2-.6-4.2-1.5-.2-.1-.3-.3-.3-.5 0-.4.3-.8.7-.8.2 0 .3.1.4.2.9.7 2 1.3 3.4 1.3 2.2 0 2.8-1.1 2.8-2.1 0-3.1-7.1-1.4-7.1-5.6 0-2 1.8-3.4 4.2-3.4 1.5 0 2.8.5 3.8 1.3.2.2.3.4.3.6 0 .3-.3.7-.7.7-.2 0-.3-.1-.5-.2-.9-.7-2-1-3.1-1-1.4 0-2.4.7-2.4 1.9 0 2.7 7.1 1.1 7.1 5.6 0 1.8-1.2 3.5-4.4 3.5z" fill="#fff"/></svg>