<svg height="60" viewBox="0 0 100 100" width="60" xmlns="http://www.w3.org/2000/svg"><path d="m22 66h5c1.1 0 2-.9 2-2v-31c0-1.1-.9-2-2-2h-5c-1.1 0-2 .9-2 2v31c0 1.1.9 2 2 2zm56-35h-5c-1.1 0-2 .9-2 2v31c0 1.1.9 2 2 2h5c1.1 0 2-.9 2-2v-31c0-1.1-.9-2-2-2zm-25 35c1.1 0 2-.9 2-2v-31c0-1.1-.9-2-2-2h-6c-1.1 0-2 .9-2 2v31c0 1.1.9 2 2 2zm12 0c1.1 0 2-.9 2-2v-31c0-1.1-.9-2-2-2h-2c-1.1 0-2 .9-2 2v31c0 1.1.9 2 2 2zm-26 0c1.1 0 2-.9 2-2v-31c0-1.1-.9-2-2-2h-2c-1.1 0-2 .9-2 2v31c0 1.1.9 2 2 2zm39 6h-56c-1.1 0-2 .9-2 2v2c0 1.1.9 2 2 2h56c1.1 0 2-.9 2-2v-2c0-1.1-.9-2-2-2zm0-52h-56c-1.1 0-2 .9-2 2v2c0 1.1.9 2 2 2h56c1.1 0 2-.9 2-2v-2c0-1.1-.9-2-2-2z"/></svg>