<svg xmlns="http://www.w3.org/2000/svg" fill="none" viewBox="0 0 16 16" width="1em" height="1em"><path stroke="currentColor" d="M1.636 9.097a1.5 1.5 0 0 1 0-2.122l5.303-5.303a1.5 1.5 0 0 1 2.122 0l5.303 5.303a1.5 1.5 0 0 1 0 2.122L9.061 14.4a1.5 1.5 0 0 1-2.122 0z"/><path stroke="currentColor" stroke-linecap="round" stroke-linejoin="round" d="M5.75 6.25 8 4l2.25 2.25"/><path stroke="currentColor" d="M5.525 12.707a1 1 0 0 1 0-1.414l1.768-1.768a1 1 0 0 1 1.414 0l1.768 1.768a1 1 0 0 1 0 1.414l-1.768 1.768a1 1 0 0 1-1.414 0z"/></svg>
