<svg viewBox="0 0 16 16" fill="none" xmlns="http://www.w3.org/2000/svg" width="1em" height="1em"><path d="M1.63592 9.09679C1.05013 8.51101 1.05013 7.56126 1.63592 6.97547L6.93922 1.67217C7.525 1.08639 8.47475 1.08639 9.06054 1.67217L14.3638 6.97547C14.9496 7.56126 14.9496 8.51101 14.3638 9.09679L9.06054 14.4001C8.47475 14.9859 7.525 14.9859 6.93922 14.4001L1.63592 9.09679Z" stroke="currentColor"/><path d="M5.75002 6.24962L7.99982 4L10.2495 6.24962" stroke="currentColor" stroke-linecap="round" stroke-linejoin="round"/><path d="M5.52507 12.7071C5.13454 12.3166 5.13454 11.6834 5.52507 11.2929L7.29283 9.52513C7.68336 9.1346 8.31652 9.1346 8.70705 9.52513L10.4748 11.2929C10.8653 11.6834 10.8653 12.3166 10.4748 12.7071L8.70705 14.4749C8.31652 14.8654 7.68336 14.8654 7.29283 14.4749L5.52507 12.7071Z" stroke="currentColor"/></svg>
