<svg viewBox="0 0 24 24" fill="none" xmlns="http://www.w3.org/2000/svg" width="1em" height="1em"><path d="M2.80756 13.0607C2.22178 12.4749 2.22178 11.5251 2.80756 10.9393L10.9393 2.80761C11.5251 2.22183 12.4748 2.22183 13.0606 2.80761L21.1923 10.9393C21.7781 11.5251 21.7781 12.4749 21.1923 13.0607L13.0606 21.1924C12.4748 21.7782 11.5251 21.7782 10.9393 21.1924L2.80756 13.0607Z" stroke="currentColor"/><path d="M9.16742 19.5602C8.58164 18.9744 8.58164 18.0246 9.16743 17.4389L10.8388 15.7675C11.4246 15.1817 12.3743 15.1817 12.9601 15.7675L14.6315 17.4389C15.2173 18.0246 15.2173 18.9744 14.6315 19.5602L12.9601 21.2316C12.3743 21.8173 11.4246 21.8173 10.8388 21.2316L9.16742 19.5602Z" stroke="currentColor"/><path d="M11.9997 11.5L11.9997 6.50003M11.9997 6.50003L9.99969 8.67575M11.9997 6.50003L13.9997 8.67575" stroke="currentColor" stroke-linecap="round" stroke-linejoin="round"/></svg>
