<svg xmlns="http://www.w3.org/2000/svg" fill="none" viewBox="0 0 32 32" width="1em" height="1em"><path stroke="currentColor" d="M11.918 25.894a1.5 1.5 0 0 1 0-2.121l3.005-3.005a1.5 1.5 0 0 1 2.121 0l3.005 3.005a1.5 1.5 0 0 1 0 2.121L17.044 28.9a1.5 1.5 0 0 1-2.121 0z"/><path stroke="currentColor" d="M2.919 16.91a1.5 1.5 0 0 1 0-2.121l12.02-12.021a1.5 1.5 0 0 1 2.122 0l12.02 12.02a1.5 1.5 0 0 1 0 2.122l-12.02 12.02a1.5 1.5 0 0 1-2.122 0z"/><path fill="currentColor" d="M15.5 15.078a.5.5 0 1 0 1 0zm-2.682-4.603a.5.5 0 1 0 .707.707zM16 8l.354-.354a.5.5 0 0 0-.707 0zm2.475 3.182a.5.5 0 0 0 .707-.707zM15.5 8.578v6.5h1v-6.5zm-1.975 2.604 2.829-2.828-.707-.708-2.829 2.829zm2.121-2.828 2.829 2.828.707-.707-2.828-2.829z"/></svg>
