<svg viewBox="0 0 24 24" fill="none" xmlns="http://www.w3.org/2000/svg" width="1em" height="1em"><path d="M2.80744 13.0607C2.22165 12.4749 2.22165 11.5251 2.80744 10.9393L10.9392 2.80761C11.525 2.22183 12.4747 2.22183 13.0605 2.80761L21.1922 10.9393C21.778 11.5251 21.778 12.4749 21.1922 13.0607L13.0605 21.1924C12.4747 21.7782 11.525 21.7782 10.9392 21.1924L2.80744 13.0607Z" stroke="currentColor"/><path d="M9.16755 19.5602C8.58176 18.9744 8.58176 18.0246 9.16755 17.4389L10.8389 15.7675C11.4247 15.1817 12.3745 15.1817 12.9603 15.7675L14.6316 17.4389C15.2174 18.0246 15.2174 18.9744 14.6316 19.5602L12.9603 21.2316C12.3745 21.8173 11.4247 21.8173 10.8389 21.2316L9.16755 19.5602Z" stroke="currentColor"/><path d="M11.9998 11.5L11.9998 6.50003M11.9998 6.50003L9.99982 8.67575M11.9998 6.50003L13.9998 8.67575" stroke="currentColor" stroke-linecap="round" stroke-linejoin="round"/></svg>
