<svg xmlns="http://www.w3.org/2000/svg" fill="none" viewBox="0 0 24 24" width="1em" height="1em"><path stroke="currentColor" d="M2.807 13.06a1.5 1.5 0 0 1 0-2.12l8.132-8.132a1.5 1.5 0 0 1 2.121 0l8.132 8.131a1.5 1.5 0 0 1 0 2.122l-8.132 8.131a1.5 1.5 0 0 1-2.12 0z"/><path stroke="currentColor" d="M9.168 19.56a1.5 1.5 0 0 1 0-2.121l1.67-1.671a1.5 1.5 0 0 1 2.122 0l1.672 1.67a1.5 1.5 0 0 1 0 2.122l-1.672 1.672a1.5 1.5 0 0 1-2.121 0z"/><path stroke="currentColor" stroke-linecap="round" stroke-linejoin="round" d="M12 11.5v-5m0 0-2 2.176M12 6.5l2 2.176"/></svg>
