<svg viewBox="0 0 16 16" fill="none" xmlns="http://www.w3.org/2000/svg" width="1em" height="1em"><path d="M3.5 9.5L12.5 9.5C13.0523 9.5 13.5 9.94772 13.5 10.5V11.4999C13.5 12.6045 12.6046 13.4999 11.5 13.4999L4.5 13.4999C3.39543 13.4999 2.5 12.6045 2.5 11.4999L2.5 10.5C2.5 9.94772 2.94771 9.5 3.5 9.5Z" stroke="currentColor" stroke-linecap="round" stroke-linejoin="round"/><path d="M12.5 7.5L3.5 7.5C2.78642 7.5 2.30247 6.77408 2.57692 6.11539L3.98716 2.73077C4.2977 1.98548 5.02591 1.5 5.83332 1.5L10.1667 1.5C10.9741 1.5 11.7023 1.98547 12.0128 2.73077L13.4231 6.11538C13.6975 6.77407 13.2136 7.5 12.5 7.5Z" stroke="currentColor" stroke-linecap="round" stroke-linejoin="round"/><circle cx="11.5" cy="11.5" r="0.25" stroke="currentColor" stroke-width="0.5" stroke-linecap="round" stroke-linejoin="round"/></svg>
