<svg viewBox="0 0 24 24" fill="none" xmlns="http://www.w3.org/2000/svg" stroke="currentColor"><path d="M4.5 13.5H19.5C20.0523 13.5 20.5 13.9477 20.5 14.5V19.5C20.5 20.6046 19.6046 21.5 18.5 21.5H5.5C4.39543 21.5 3.5 20.6046 3.5 19.5V14.5C3.5 13.9477 3.94772 13.5 4.5 13.5Z" stroke-linecap="round" stroke-linejoin="round"/><path d="M18 17.0001C18 17.5524 17.5523 18.0001 17 18.0001C16.4477 18.0001 16 17.5524 16 17.0001C16 16.4478 16.4477 16.0001 17 16.0001C17.5523 16.0001 18 16.4478 18 17.0001Z"/><path d="M19.5 11.5H4.5C3.78642 11.5 3.30247 10.7741 3.57692 10.1154L6.23715 3.73077C6.54769 2.98548 7.2759 2.5 8.08331 2.5H15.9166C16.724 2.5 17.4523 2.98547 17.7628 3.73077L20.4231 10.1154C20.6975 10.7741 20.2136 11.5 19.5 11.5Z" stroke-linecap="round" stroke-linejoin="round"/></svg>
