<svg viewBox="0 0 16 16" fill="none" xmlns="http://www.w3.org/2000/svg" stroke="currentColor"><path d="M3.5 9.50012H12.5C13.0523 9.50012 13.5 9.94784 13.5 10.5001V11.5C13.5 12.6046 12.6046 13.5 11.5 13.5H4.5C3.39543 13.5 2.5 12.6046 2.5 11.5V10.5001C2.5 9.94784 2.94771 9.50012 3.5 9.50012Z" stroke-linecap="round" stroke-linejoin="round"/><path d="M12.5 7.5H3.5C2.78642 7.5 2.30247 6.77408 2.57692 6.11539L3.98716 2.73077C4.2977 1.98548 5.02591 1.5 5.83332 1.5H10.1667C10.9741 1.5 11.7023 1.98547 12.0128 2.73077L13.4231 6.11538C13.6975 6.77407 13.2136 7.5 12.5 7.5Z" stroke-linecap="round" stroke-linejoin="round"/><circle cx="11.5" cy="11.5" r="0.25" stroke-width="0.5" stroke-linecap="round" stroke-linejoin="round"/></svg>
