<svg viewBox="0 0 32 32" fill="none" xmlns="http://www.w3.org/2000/svg" width="1em" height="1em"><path d="M5.5 17.5L26.5 17.5C27.0523 17.5 27.5 17.9477 27.5 18.5V25.5C27.5 26.6046 26.6046 27.5 25.5 27.5L6.5 27.5C5.39543 27.5 4.5 26.6046 4.5 25.5L4.5 18.5C4.5 17.9477 4.94772 17.5 5.5 17.5Z" stroke="currentColor" stroke-linecap="round" stroke-linejoin="round"/><path d="M24 22.5C24 23.3284 23.3284 24 22.5 24C21.6716 24 21 23.3284 21 22.5C21 21.6716 21.6716 21 22.5 21C23.3284 21 24 21.6716 24 22.5Z" stroke="currentColor"/><path d="M26.5 14.5L5.5 14.5C4.78642 14.5 4.30247 13.7741 4.57692 13.1154L8.48714 3.73077C8.79768 2.98548 9.5259 2.5 10.3333 2.5L21.6666 2.5C22.474 2.5 23.2022 2.98547 23.5128 3.73077L27.4231 13.1154C27.6975 13.7741 27.2136 14.5 26.5 14.5Z" stroke="currentColor" stroke-linecap="round" stroke-linejoin="round"/></svg>
