<svg xmlns="http://www.w3.org/2000/svg" fill="none" viewBox="0 0 24 24" width="1em" height="1em"><path stroke="currentColor" stroke-linecap="round" stroke-linejoin="round" d="M4.5 13.5h15a1 1 0 0 1 1 1v5a2 2 0 0 1-2 2h-13a2 2 0 0 1-2-2v-5a1 1 0 0 1 1-1Z"/><path stroke="currentColor" d="M18 17a1 1 0 1 1-2 0 1 1 0 0 1 2 0Z"/><path stroke="currentColor" stroke-linecap="round" stroke-linejoin="round" d="M19.5 11.5h-15a1 1 0 0 1-.923-1.385l2.66-6.384A2 2 0 0 1 8.083 2.5h7.834a2 2 0 0 1 1.846 1.23l2.66 6.385A1 1 0 0 1 19.5 11.5Z"/></svg>
