<svg xmlns="http://www.w3.org/2000/svg" fill="none" viewBox="0 0 24 24" width="1em" height="1em"><mask id="iconsPuzzleSize24Px__a" fill="#fff"><path fill-rule="evenodd" d="M11 5.687A.687.687 0 0 0 10.313 5H8a2 2 0 0 0-2 2v3.158c0 .3-.315.456-.485.21C5.148 9.836 4.605 9.5 4 9.5c-1.105 0-2 1.12-2 2.5s.895 2.5 2 2.5c.475 0 .912-.207 1.255-.553.321-.324.745-.014.745.442V17a2 2 0 0 0 2 2h2.313c.38 0 .687-.308.687-.687 0-.287-.153-.54-.304-.79a7.396 7.396 0 0 1-.1-.169A.712.712 0 0 1 10.5 17c0-.552.672-1 1.5-1s1.5.448 1.5 1a.712.712 0 0 1-.097.354 7.396 7.396 0 0 1-.1.169c-.15.25-.303.503-.303.79 0 .38.307.687.687.687H16a2 2 0 0 0 2-2v-2.904c0-.37.37-.59.605-.305.36.439.852.709 1.395.709 1.105 0 2-1.12 2-2.5s-.895-2.5-2-2.5c-.543 0-1.035.27-1.395.709-.235.286-.605.065-.605-.305V7a2 2 0 0 0-2-2h-2.313a.687.687 0 0 0-.687.687c0 .287.153.54.304.79l.1.169c.062.11.096.23.096.354 0 .552-.672 1-1.5 1s-1.5-.448-1.5-1c0-.125.034-.244.097-.354a7.33 7.33 0 0 1 .1-.168c.15-.25.303-.504.303-.791Z" clip-rule="evenodd"/></mask><path fill="currentColor" d="m5.515 10.368.823-.568-.823.568ZM4 14.5v1-1Zm1.255-.553.71.704-.71-.704Zm5.441 3.576-.856.516.856-.517Zm-.1-.169-.868.495.869-.495Zm2.807 0 .87.495-.87-.495Zm-.1.169.857.516-.856-.517Zm5.302-3.732.772-.635-.772.635Zm0-3.582.772.635-.772-.635Zm-5.301-3.731.856-.517-.856.517Zm.1.168.869-.494-.87.494Zm-2.807 0-.87-.495.87.495Zm.1-.168L9.84 5.96l.856.517ZM8 6h2.313V4H8v2ZM7 7a1 1 0 0 1 1-1V4a3 3 0 0 0-3 3h2Zm0 3.158V7H5v3.158h2Zm-2.308.778a1.233 1.233 0 0 0 1.546.441A1.33 1.33 0 0 0 7 10.158H5c0-.202.115-.467.405-.6a.772.772 0 0 1 .532-.038.73.73 0 0 1 .401.28l-1.646 1.136ZM4 10.5c.21 0 .47.115.692.436L6.338 9.8C5.826 9.058 5.001 8.5 4 8.5v2ZM3 12c0-1.048.644-1.5 1-1.5v-2c-1.854 0-3 1.787-3 3.5h2Zm1 1.5c-.356 0-1-.452-1-1.5H1c0 1.713 1.146 3.5 3 3.5v-2Zm.545-.257c-.185.186-.375.257-.545.257v2c.78 0 1.463-.343 1.965-.85l-1.42-1.407ZM7 14.389c0-.521-.241-1.052-.71-1.354a1.368 1.368 0 0 0-1.745.208l1.42 1.408a.633.633 0 0 1-.759.065C5.03 14.602 5 14.455 5 14.389h2ZM7 17v-2.61H5V17h2Zm1 1a1 1 0 0 1-1-1H5a3 3 0 0 0 3 3v-2Zm2.313 0H8v2h2.313v-2Zm-.473.04a3.41 3.41 0 0 1 .148.264c.023.05.012.046.012.01h2c0-.615-.328-1.11-.447-1.308L9.84 18.039Zm-.112-.191c.039.069.08.136.112.19l1.713-1.033a6.328 6.328 0 0 1-.087-.146l-1.738.989ZM9.5 17c0 .314.087.602.228.849l1.738-.989a.29.29 0 0 1 .034.14h-2Zm2.5-2c-.584 0-1.158.156-1.615.46-.45.301-.885.825-.885 1.54h2c0 .162-.099.187-.006.125A.948.948 0 0 1 12 17v-2Zm2.5 2c0-.715-.434-1.239-.885-1.54-.457-.304-1.03-.46-1.615-.46v2c.244 0 .42.068.506.125.093.062-.006.037-.006-.125h2Zm-.227.849c.14-.247.227-.535.227-.849h-2a.29.29 0 0 1 .034-.14l1.739.989Zm-.113.19.113-.19-1.74-.989a6.55 6.55 0 0 1-.086.146l1.713 1.033Zm-.16.274c0 .037-.01.042.011-.009a1.23 1.23 0 0 1 .054-.104 6.11 6.11 0 0 1 .095-.16l-1.713-1.034c-.119.197-.447.692-.447 1.307h2ZM16 18h-2.313v2H16v-2Zm1-1a1 1 0 0 1-1 1v2a3 3 0 0 0 3-3h-2Zm0-2.904V17h2v-2.904h-2Zm2.377-.94a1.338 1.338 0 0 0-.767-.47 1.29 1.29 0 0 0-.87.131c-.481.26-.74.768-.74 1.279h2a.56.56 0 0 1-.311.482.711.711 0 0 1-.477.068.665.665 0 0 1-.38-.22l1.545-1.27ZM20 13.5c-.191 0-.416-.092-.623-.344l-1.545 1.27c.514.626 1.274 1.074 2.168 1.074v-2Zm1-1.5c0 1.048-.644 1.5-1 1.5v2c1.854 0 3-1.787 3-3.5h-2Zm-1-1.5c.356 0 1 .452 1 1.5h2c0-1.713-1.146-3.5-3-3.5v2Zm-.623.344c.207-.252.432-.344.623-.344v-2c-.894 0-1.654.448-2.168 1.074l1.545 1.27ZM17 9.904c0 .51.259 1.02.74 1.279.245.132.55.196.87.131.323-.066.583-.246.767-.47l-1.545-1.27a.664.664 0 0 1 .38-.22.71.71 0 0 1 .477.068.56.56 0 0 1 .311.482h-2ZM17 7v2.904h2V7h-2Zm-1-1a1 1 0 0 1 1 1h2a3 3 0 0 0-3-3v2Zm-2.313 0H16V4h-2.313v2Zm.473-.04a6.024 6.024 0 0 1-.095-.16 1.24 1.24 0 0 1-.053-.104c-.023-.05-.012-.046-.012-.01h-2c0 .615.328 1.11.447 1.308l1.713-1.033Zm.113.192c-.04-.07-.08-.137-.113-.191l-1.713 1.033c.036.058.062.103.087.146l1.739-.988ZM14.5 7c0-.314-.087-.602-.227-.848l-1.74.988A.29.29 0 0 1 12.5 7h2ZM12 9c.584 0 1.158-.156 1.615-.46.45-.301.885-.825.885-1.54h-2c0-.162.099-.187.006-.125A.948.948 0 0 1 12 7v2ZM9.5 7c0 .715.434 1.239.885 1.54.457.304 1.03.46 1.615.46V7a.948.948 0 0 1-.506-.125c-.093-.062.006-.037.006.125h-2Zm.228-.848A1.71 1.71 0 0 0 9.5 7h2a.29.29 0 0 1-.034.14l-1.738-.988Zm.112-.191c-.032.054-.073.121-.112.19l1.738.989.087-.146L9.84 5.961Zm.16-.274c0-.037.01-.042-.011.009a1.212 1.212 0 0 1-.054.104 5.993 5.993 0 0 1-.095.16l1.713 1.034c.119-.197.447-.693.447-1.307h-2Zm2 12.626c0 .932.755 1.687 1.687 1.687v-2c.173 0 .313.14.313.313h-2ZM10.313 20c.932 0 1.687-.755 1.687-1.687h-2c0-.173.14-.313.313-.313v2Zm3.374-16C12.755 4 12 4.755 12 5.687h2c0 .173-.14.313-.313.313V4ZM12 5.687C12 4.755 11.245 4 10.313 4v2A.313.313 0 0 1 10 5.687h2Z" mask="url(#iconsPuzzleSize24Px__a)"/></svg>
