<svg xmlns="http://www.w3.org/2000/svg" fill="none" viewBox="0 0 16 16" width="1em" height="1em"><mask id="iconsPuzzleSize16Px__a" fill="#fff"><path fill-rule="evenodd" d="M7.5 3.362c0-.2-.162-.362-.362-.362H5a1 1 0 0 0-1 1v2.179c0 .326-.331.511-.552.27C3.189 6.17 2.859 6 2.5 6 1.672 6 1 6.895 1 8s.672 2 1.5 2c.36 0 .69-.169.948-.45.22-.24.552-.055.552.271V13a1 1 0 0 0 1 1h2a.5.5 0 0 0 .5-.5v-.862c0-.209-.125-.389-.25-.569S7 11.71 7 11.5c0-.276.448-.5 1-.5s1 .224 1 .5c0 .209-.125.389-.25.57s-.25.36-.25.568v.862a.5.5 0 0 0 .5.5h2a1 1 0 0 0 1-1V9.821c0-.326.331-.51.552-.27.259.28.589.449.948.449.828 0 1.5-.895 1.5-2s-.672-2-1.5-2c-.36 0-.69.169-.948.45-.22.24-.552.055-.552-.271V4a1 1 0 0 0-1-1H8.862c-.2 0-.362.162-.362.362 0 .209.125.389.25.569S9 4.29 9 4.5c0 .276-.448.5-1 .5s-1-.224-1-.5c0-.209.125-.389.25-.57s.25-.36.25-.568" clip-rule="evenodd"/></mask><path fill="currentColor" d="m3.448 6.45.736-.677zm0 3.1-.737-.676zm9.104 0-.736.677zm0-3.1.737.676zM5 4h2.138V2H5zm0 0V2a2 2 0 0 0-2 2zm0 2.179V4H3v2.179zm-2.289.947a1.29 1.29 0 0 0 1.554.29C4.738 7.172 5 6.682 5 6.179H3a.62.62 0 0 1 .348-.541.72.72 0 0 1 .46-.067c.173.032.3.12.376.202zM2.5 7c.028 0 .105.01.211.126l1.473-1.353C3.774 5.327 3.19 5 2.5 5zM2 8c0-.357.11-.641.24-.814.128-.173.23-.186.26-.186V5c-.8 0-1.447.434-1.86.986C.225 6.536 0 7.252 0 8zm.5 1c-.029 0-.131-.013-.26-.186C2.11 8.641 2 8.357 2 8H0c0 .748.226 1.463.64 2.014.413.552 1.06.986 1.86.986zm.211-.126C2.605 8.99 2.528 9 2.5 9v2c.69 0 1.274-.327 1.684-.773zM5 9.82c0-.503-.263-.993-.735-1.237a1.29 1.29 0 0 0-1.554.29l1.473 1.353a.68.68 0 0 1-.377.202.72.72 0 0 1-.459-.067.62.62 0 0 1-.348-.54zM5 13V9.821H3V13zm0 0H3a2 2 0 0 0 2 2zm2 0H5v2h2zm1.5.5v-.862h-2v.862zm0-.862c0-.578-.348-1.022-.428-1.139l-1.644 1.14.073.107q.026.04.027.044c.003.008-.028-.051-.028-.152zM8.072 11.5l-.073-.107-.027-.044c-.003-.008.028.051.028.152H6c0 .579.348 1.023.428 1.14zM8 11.5a.7.7 0 0 1-.158.451.5.5 0 0 1-.097.088l.016-.006.057-.015A1 1 0 0 1 8 12v-2c-.398 0-.807.079-1.154.252-.288.144-.846.527-.846 1.248zm0 .5a1 1 0 0 1 .24.033l.013.004-.019-.013a.5.5 0 0 1-.076-.073A.7.7 0 0 1 8 11.5h2c0-.72-.558-1.104-.846-1.248A2.6 2.6 0 0 0 8 10zm0-.5c0-.1.031-.16.028-.152L8 11.392a2 2 0 0 1-.073.107l1.644 1.14c.08-.116.428-.56.428-1.139zm-.072-.001c-.08.117-.428.56-.428 1.14h2c0 .1-.031.159-.028.152l.027-.045a2 2 0 0 1 .073-.107zm-.428 1.14v.861h2v-.862zM11 13H9v2h2zm0 0v2a2 2 0 0 0 2-2zm0-3.179V13h2V9.821zm2.289-.947a1.29 1.29 0 0 0-1.554-.29A1.38 1.38 0 0 0 11 9.821h2a.62.62 0 0 1-.348.541.72.72 0 0 1-.46.067.68.68 0 0 1-.376-.202zM13.5 9c-.028 0-.104-.01-.211-.126l-1.473 1.353c.41.446.993.773 1.684.773zm.5-1c0 .357-.11.641-.24.814-.129.173-.231.186-.26.186v2c.8 0 1.447-.434 1.86-.986.414-.55.64-1.266.64-2.014zm-.5-1c.029 0 .131.013.26.186.13.173.24.457.24.814h2c0-.748-.226-1.463-.64-2.014C14.948 5.434 14.3 5 13.5 5zm-.211.126c.107-.116.183-.126.211-.126V5c-.69 0-1.274.327-1.684.773zM11 6.18c0 .503.262.993.735 1.237a1.29 1.29 0 0 0 1.554-.29l-1.473-1.353a.68.68 0 0 1 .377-.202.72.72 0 0 1 .459.067.62.62 0 0 1 .348.54zM11 4v2.179h2V4zm0 0h2a2 2 0 0 0-2-2zM8.862 4H11V2H8.862zm.71-.64-.073-.106-.027-.044c-.003-.008.028.051.028.152h-2c0 .578.348 1.022.428 1.139zM10 4.5c0-.579-.348-1.023-.428-1.14L7.928 4.502l.073.107.027.044C8.03 4.66 8 4.601 8 4.5zM8 6c.398 0 .807-.078 1.154-.252.288-.144.846-.527.846-1.248H8c0-.218.092-.373.158-.451a.5.5 0 0 1 .095-.086l.007-.004-.005.002-.016.006-.057.015A1 1 0 0 1 8 4zM6 4.5c0 .72.558 1.104.846 1.248C7.193 5.922 7.602 6 8 6V4a1 1 0 0 1-.24-.033l-.02-.008.007.004.019.013a.5.5 0 0 1 .076.073A.7.7 0 0 1 8 4.5zm.428-1.14C6.348 3.478 6 3.922 6 4.5h2c0 .1-.031.16-.028.152L8 4.608l.073-.107zm.072.002c0-.101.031-.16.028-.152l-.027.044-.073.107L8.072 4.5c.08-.117.428-.56.428-1.14zm1 10.138A1.5 1.5 0 0 0 9 15v-2a.5.5 0 0 1 .5.5zM8.862 2C8.11 2 7.5 2.61 7.5 3.362h2A.64.64 0 0 1 8.862 4zM7 15a1.5 1.5 0 0 0 1.5-1.5h-2A.5.5 0 0 1 7 13zM8.5 3.362C8.5 2.61 7.89 2 7.138 2v2a.64.64 0 0 1-.638-.638z" mask="url(#iconsPuzzleSize16Px__a)"/></svg>
