<svg xmlns="http://www.w3.org/2000/svg" fill="none" viewBox="0 0 16 16" width="1em" height="1em"><mask id="iconsPuzzleSize16Px__a" fill="#fff"><path fill-rule="evenodd" d="M7.5 3.362c0-.2-.162-.362-.362-.362H5a1 1 0 0 0-1 1v2.179c0 .326-.331.511-.552.27C3.189 6.17 2.859 6 2.5 6 1.672 6 1 6.895 1 8s.672 2 1.5 2c.36 0 .69-.169.948-.45.22-.24.552-.055.552.271V13a1 1 0 0 0 1 1h2a.5.5 0 0 0 .5-.5v-.862c0-.209-.125-.389-.25-.569-.125-.18-.25-.36-.25-.569 0-.276.448-.5 1-.5s1 .224 1 .5c0 .209-.125.389-.25.57-.125.18-.25.36-.25.568v.862a.5.5 0 0 0 .5.5h2a1 1 0 0 0 1-1V9.821c0-.326.331-.51.552-.27.259.28.589.449.948.449.828 0 1.5-.895 1.5-2s-.672-2-1.5-2c-.36 0-.69.169-.948.45-.22.24-.552.055-.552-.271V4a1 1 0 0 0-1-1H8.862c-.2 0-.362.162-.362.362 0 .209.125.389.25.569.125.18.25.36.25.569 0 .276-.448.5-1 .5s-1-.224-1-.5c0-.209.125-.389.25-.57.125-.18.25-.36.25-.568Z" clip-rule="evenodd"/></mask><path fill="currentColor" d="m3.448 6.45.736-.677-.736.677Zm0 3.1-.737-.676.737.676Zm9.104 0-.736.677.736-.677Zm0-3.1.737.676-.737-.676ZM5 4h2.138V2H5v2Zm0 0V2a2 2 0 0 0-2 2h2Zm0 2.179V4H3v2.179h2Zm-2.289.947a1.29 1.29 0 0 0 1.554.29C4.738 7.172 5 6.682 5 6.179H3a.62.62 0 0 1 .348-.541.72.72 0 0 1 .46-.067c.173.032.3.12.376.202L2.71 7.126ZM2.5 7c.028 0 .105.01.211.126l1.473-1.353C3.774 5.327 3.19 5 2.5 5v2ZM2 8c0-.357.11-.641.24-.814.128-.173.23-.186.26-.186V5c-.8 0-1.447.434-1.86.986C.225 6.536 0 7.252 0 8h2Zm.5 1c-.029 0-.131-.013-.26-.186C2.11 8.641 2 8.357 2 8H0c0 .748.226 1.463.64 2.014.413.552 1.06.986 1.86.986V9Zm.211-.126C2.605 8.99 2.528 9 2.5 9v2c.69 0 1.274-.327 1.684-.773L2.71 8.874ZM5 9.82c0-.503-.263-.993-.735-1.237a1.29 1.29 0 0 0-1.554.29l1.473 1.353a.679.679 0 0 1-.377.202.72.72 0 0 1-.459-.067.62.62 0 0 1-.348-.54h2ZM5 13V9.821H3V13h2Zm0 0H3a2 2 0 0 0 2 2v-2Zm2 0H5v2h2v-2Zm1.5.5v-.862h-2v.862h2Zm0-.862c0-.579-.348-1.022-.428-1.139l-1.644 1.14a7.64 7.64 0 0 1 .073.107c.018.027.025.04.027.044.003.008-.028-.051-.028-.152h2ZM8.072 11.5a7.64 7.64 0 0 1-.073-.107.516.516 0 0 1-.027-.044c-.003-.008.028.051.028.152H6c0 .579.348 1.023.428 1.14L8.072 11.5ZM8 11.5a.703.703 0 0 1-.158.451.462.462 0 0 1-.097.088A.893.893 0 0 1 8 12v-2c-.398 0-.807.079-1.154.252-.288.144-.846.527-.846 1.248h2Zm0 .5a.893.893 0 0 1 .24.033.24.24 0 0 1 .013.004.462.462 0 0 1-.096-.086A.703.703 0 0 1 8 11.5h2c0-.72-.558-1.104-.846-1.248A2.614 2.614 0 0 0 8 10v2Zm0-.5c0-.1.031-.16.028-.152a1.971 1.971 0 0 1-.1.151l1.644 1.14c.08-.116.428-.56.428-1.139H8Zm-.072-.001c-.08.117-.428.56-.428 1.14h2c0 .1-.031.159-.028.152a1.971 1.971 0 0 1 .1-.151l-1.644-1.141Zm-.428 1.14v.861h2v-.862h-2ZM11 13H9v2h2v-2Zm0 0v2a2 2 0 0 0 2-2h-2Zm0-3.179V13h2V9.821h-2Zm2.289-.947a1.29 1.29 0 0 0-1.554-.29A1.381 1.381 0 0 0 11 9.821h2a.62.62 0 0 1-.348.541.72.72 0 0 1-.46.067.679.679 0 0 1-.376-.202l1.473-1.353ZM13.5 9c-.028 0-.104-.01-.211-.126l-1.473 1.353c.41.446.993.773 1.684.773V9Zm.5-1c0 .357-.11.641-.24.814-.129.173-.231.186-.26.186v2c.8 0 1.447-.434 1.86-.986.414-.55.64-1.266.64-2.014h-2Zm-.5-1c.029 0 .131.013.26.186.13.173.24.457.24.814h2c0-.748-.226-1.463-.64-2.014C14.948 5.434 14.3 5 13.5 5v2Zm-.211.126c.107-.116.183-.126.211-.126V5c-.69 0-1.274.327-1.684.773l1.473 1.353ZM11 6.18c0 .503.262.993.735 1.237a1.29 1.29 0 0 0 1.554-.29l-1.473-1.353a.678.678 0 0 1 .377-.202.72.72 0 0 1 .459.067.62.62 0 0 1 .348.54h-2ZM11 4v2.179h2V4h-2Zm0 0h2a2 2 0 0 0-2-2v2ZM8.862 4H11V2H8.862v2Zm.71-.64a8.456 8.456 0 0 1-.073-.106.537.537 0 0 1-.027-.044c-.003-.008.028.051.028.152h-2c0 .578.348 1.022.428 1.139l1.644-1.14ZM10 4.5c0-.579-.348-1.023-.428-1.14L7.928 4.502a8.704 8.704 0 0 1 .073.107c.018.027.025.04.027.044C8.03 4.66 8 4.601 8 4.5h2ZM8 6c.398 0 .807-.078 1.154-.252.288-.144.846-.527.846-1.248H8c0-.218.092-.373.158-.451a.46.46 0 0 1 .095-.086l.007-.004-.005.002A.894.894 0 0 1 8 4v2ZM6 4.5c0 .72.558 1.104.846 1.248C7.193 5.922 7.602 6 8 6V4a.894.894 0 0 1-.24-.033.257.257 0 0 1-.02-.008l.007.004.019.013a.46.46 0 0 1 .076.073A.703.703 0 0 1 8 4.5H6Zm.428-1.14C6.348 3.478 6 3.922 6 4.5h2c0 .1-.031.16-.028.152a2.158 2.158 0 0 1 .1-.151l-1.644-1.14Zm.072.002c0-.101.031-.16.028-.152a2.186 2.186 0 0 1-.1.151L8.072 4.5c.08-.117.428-.56.428-1.14h-2Zm1 10.138A1.5 1.5 0 0 0 9 15v-2a.5.5 0 0 1 .5.5h-2ZM8.862 2C8.11 2 7.5 2.61 7.5 3.362h2A.638.638 0 0 1 8.862 4V2ZM7 15a1.5 1.5 0 0 0 1.5-1.5h-2A.5.5 0 0 1 7 13v2ZM8.5 3.362C8.5 2.61 7.89 2 7.138 2v2a.638.638 0 0 1-.638-.638h2Z" mask="url(#iconsPuzzleSize16Px__a)"/></svg>
