<svg xmlns="http://www.w3.org/2000/svg" fill="none" viewBox="0 0 32 32" width="1em" height="1em"><mask id="iconsPuzzleSize32Px__a" fill="#fff"><path fill-rule="evenodd" d="M14.644 7.009c.28-.51-.143-1.009-.725-1.009H9a2 2 0 0 0-2 2v5.865c0 .075-.06.135-.135.135-.316 0-.604-.158-.836-.373C5.607 13.234 5.076 13 4.5 13 3.12 13 2 14.343 2 16s1.12 3 2.5 3c.576 0 1.107-.234 1.53-.627.23-.215.52-.373.835-.373.075 0 .135.06.135.135V24a2 2 0 0 0 2 2h4.92c.58 0 1.003-.499.724-1.009q-.082-.149-.168-.297a5.6 5.6 0 0 1-.399-.78A1.2 1.2 0 0 1 14 23.5c0-.828.895-1.5 2-1.5s2 .672 2 1.5q-.001.217-.077.414c-.103.268-.25.525-.399.78q-.086.15-.168.297c-.28.51.143 1.009.725 1.009H23a2 2 0 0 0 2-2v-5.865c0-.075.06-.135.135-.135.316 0 .604.159.836.373.422.393.953.627 1.529.627 1.38 0 2.5-1.343 2.5-3s-1.12-3-2.5-3c-.576 0-1.107.234-1.53.627-.23.214-.52.373-.835.373a.135.135 0 0 1-.135-.135V8a2 2 0 0 0-2-2h-4.92c-.58 0-1.003.499-.724 1.009q.082.149.168.297c.148.255.296.512.399.78q.076.197.077.414c0 .828-.895 1.5-2 1.5s-2-.672-2-1.5q.001-.217.077-.414c.103-.268.25-.525.399-.78q.086-.15.168-.297" clip-rule="evenodd"/></mask><path fill="currentColor" d="m6.03 13.627-.681.732zM4.5 13v-1zm0 6v1zm1.53-.627-.681-.732zm8.446 6.321.865-.5zm-.399-.78.934-.357zm3.846 0-.934-.357zm-.399.78-.866-.5zm8.447-6.32-.681.732zM27.5 19v1zm0-6v-1zm-1.53.627.681.732zm-8.446-6.321.866-.5zm.399.78-.934.357zm-3.846 0 .934.357zm.399-.78-.866-.5zm.168 17.685-.877.48zM17.356 7.01l-.877.48zm-2.712 0-.877-.48zM9 7h4.92V5H9zM8 8a1 1 0 0 1 1-1V5a3 3 0 0 0-3 3zm0 5.865V8H6v5.865zM6.865 15C7.492 15 8 14.492 8 13.865H6c0-.478.387-.865.865-.865zm-1.516-.64c.34.315.86.64 1.516.64v-2c.013 0 .007.004-.022-.01a.6.6 0 0 1-.133-.096zM4.5 14c.294 0 .588.117.849.36l1.361-1.466C6.125 12.351 5.358 12 4.5 12zM3 16c0-1.283.835-2 1.5-2v-2C2.404 12 1 13.97 1 16zm1.5 2c-.665 0-1.5-.717-1.5-2H1c0 2.03 1.404 4 3.5 4zm.849-.36c-.261.243-.555.36-.849.36v2c.858 0 1.625-.35 2.21-.894zM6.865 17c-.656 0-1.177.325-1.516.64l1.361 1.466a.6.6 0 0 1 .133-.096c.029-.014.035-.01.022-.01zM8 18.135C8 17.508 7.492 17 6.865 17v2A.865.865 0 0 1 6 18.135zM8 24v-5.865H6V24zm1 1a1 1 0 0 1-1-1H6a3 3 0 0 0 3 3zm4.92 0H9v2h4.92zm1.601-.489c-.06-.111-.123-.22-.18-.317l-1.731 1c.058.101.11.19.157.277zm-.18-.317a5 5 0 0 1-.33-.637l-1.868.714c.136.356.327.681.467.924zm-.33-.637A.2.2 0 0 1 15 23.5h-2c0 .27.051.53.143.771zM15 23.5c0-.029.013-.131.186-.26.173-.13.457-.24.814-.24v-2c-.748 0-1.463.226-2.014.64-.552.413-.986 1.06-.986 1.86zm1-.5c.357 0 .641.11.814.24.173.129.186.231.186.26h2c0-.8-.434-1.447-.986-1.86-.55-.414-1.266-.64-2.014-.64zm1 .5a.2.2 0 0 1-.011.057l1.868.714c.092-.24.143-.5.143-.771zm-.011.057c-.07.18-.175.368-.33.637l1.731 1c.14-.242.331-.567.467-.923zm-.33.637c-.057.097-.12.206-.18.317l1.754.96c.048-.087.099-.176.157-.276zM23 25h-4.92v2H23zm1-1a1 1 0 0 1-1 1v2a3 3 0 0 0 3-3zm0-5.865V24h2v-5.865zM25.135 17c-.627 0-1.135.508-1.135 1.135h2a.865.865 0 0 1-.865.865zm1.516.64c-.34-.315-.86-.64-1.516-.64v2c-.013 0-.007-.003.022.01a.6.6 0 0 1 .133.096zm.849.36c-.294 0-.588-.117-.849-.36l-1.361 1.466c.585.543 1.352.894 2.21.894zm1.5-2c0 1.283-.835 2-1.5 2v2c2.096 0 3.5-1.97 3.5-4zm-1.5-2c.665 0 1.5.717 1.5 2h2c0-2.03-1.404-4-3.5-4zm-.849.36c.261-.243.555-.36.849-.36v-2c-.858 0-1.625.35-2.21.894zm-1.516.64c.656 0 1.177-.325 1.516-.64l-1.361-1.466a.6.6 0 0 1-.133.096c-.029.014-.035.01-.022.01zM24 13.865c0 .627.508 1.135 1.135 1.135v-2c.478 0 .865.387.865.865zM24 8v5.865h2V8zm-1-1a1 1 0 0 1 1 1h2a3 3 0 0 0-3-3zm-4.92 0H23V5h-4.92zm-1.601.489c.06.111.123.22.18.317l1.731-1c-.058-.101-.11-.19-.157-.277zm.18.317c.155.27.26.456.33.637l1.868-.714c-.136-.356-.327-.681-.467-.924zm.33.637Q17 8.475 17 8.5h2c0-.27-.051-.53-.143-.771zM17 8.5c0 .029-.013.131-.186.26-.173.13-.457.24-.814.24v2c.748 0 1.463-.226 2.014-.64.552-.413.986-1.06.986-1.86zM16 9c-.357 0-.641-.11-.814-.24-.173-.128-.186-.23-.186-.26h-2c0 .8.434 1.447.986 1.86.55.414 1.266.64 2.014.64zm-1-.5q0-.025.011-.057l-1.868-.714c-.092.24-.143.5-.143.771zm.011-.057a5 5 0 0 1 .33-.637l-1.731-1c-.14.242-.331.567-.467.923zm.33-.637c.057-.097.12-.206.18-.317l-1.754-.96-.157.276zm1.138 16.705a1.62 1.62 0 0 0 .121 1.782c.352.463.912.707 1.48.707v-2c-.012 0 .046-.005.111.081a.39.39 0 0 1 .042.39zM13.919 27c.569 0 1.128-.244 1.481-.707a1.62 1.62 0 0 0 .121-1.782l-1.754.96a.39.39 0 0 1 .042-.39c.065-.086.123-.081.11-.081zm4.162-22c-.569 0-1.128.244-1.481.707a1.62 1.62 0 0 0-.121 1.782l1.754-.96a.39.39 0 0 1-.042.39c-.065.086-.123.081-.11.081zm-4.162 2c.013 0-.045.005-.11-.081a.39.39 0 0 1-.042-.39l1.754.96a1.62 1.62 0 0 0-.121-1.782C15.047 5.244 14.488 5 13.92 5z" mask="url(#iconsPuzzleSize32Px__a)"/></svg>
