<svg xmlns="http://www.w3.org/2000/svg" fill="none" viewBox="0 0 32 32" width="1em" height="1em"><path stroke="currentColor" stroke-linecap="round" d="M14.747 4.48a2.5 2.5 0 0 0-1.495 1.16m1.495-1.16-1.495 1.16m1.495-1.16.134.483-1.629.676m1.495-1.158 6.935-1.93a2.5 2.5 0 0 1 3.057 1.663l2.288 7.324a2.5 2.5 0 0 1-.222 1.995l-8.55 14.81a2.5 2.5 0 0 1-3.415.915l-9.253-5.342a2.5 2.5 0 0 1-.915-3.415l8.58-14.862"/><path stroke="currentColor" stroke-linecap="round" stroke-linejoin="round" d="m12.5 16.5 2 5 6-10"/></svg>
