<svg viewBox="0 0 32 32" fill="none" xmlns="http://www.w3.org/2000/svg" width="1em" height="1em"><path d="M14.7472 4.4807C14.1165 4.65625 13.5798 5.07219 13.2525 5.63915M14.7472 4.4807L13.2525 5.63915M14.7472 4.4807L14.8812 4.96239L13.2525 5.63915M14.7472 4.4807L21.6822 2.55044C22.983 2.18838 24.3363 2.92465 24.7389 4.21349L27.0267 11.5375C27.2349 12.2043 27.1547 12.9279 26.8054 13.5329L18.2547 28.3432C17.5643 29.539 16.0353 29.9487 14.8396 29.2583L5.58693 23.9163C4.39119 23.2259 3.98151 21.6969 4.67186 20.5012L13.2525 5.63915" stroke="currentColor" stroke-linecap="round"/><path d="M12.5 16.5L14.5 21.5L20.5 11.5" stroke="currentColor" stroke-linecap="round" stroke-linejoin="round"/></svg>
