<svg viewBox="0 0 32 32" fill="none" xmlns="http://www.w3.org/2000/svg" width="1em" height="1em"><path d="M6.42518 27.5041C5.22123 27.9526 4.04736 26.7788 4.49589 25.5748L12.1968 4.90393L27.0961 19.8032L6.42518 27.5041Z" stroke="currentColor"/><path d="M11.5 8.5L23.5 20.5" stroke="currentColor" stroke-linecap="round"/><path d="M20 8C19.4477 8 19 7.55228 19 7C19 6.44772 19.4477 6 20 6C20.5523 6 21 5.55228 21 5C21 4.44772 20.5523 4 20 4" stroke="currentColor" stroke-linecap="round"/><path d="M26.7071 10.5356C27.0976 10.9261 27.7308 10.9261 28.1213 10.5356C28.5118 10.145 28.5118 9.51188 28.1213 9.12136C27.7308 8.73083 27.7308 8.09767 28.1213 7.70714C28.5118 7.31662 29.145 7.31662 29.5355 7.70714" stroke="currentColor" stroke-width="1.04954" stroke-linecap="round"/><circle cx="24.5" cy="12.5" r="1" stroke="currentColor"/><circle cx="24.5" cy="3.5" r="1" stroke="currentColor"/><path d="M21.5 10.5L25 7" stroke="currentColor" stroke-linecap="round"/><path d="M16.5 5.49994L16.5 3.49995" stroke="currentColor" stroke-linecap="round"/><path d="M26.5 15.5L28.5 15.5" stroke="currentColor" stroke-linecap="round"/></svg>
