<svg xmlns="http://www.w3.org/2000/svg" fill="none" viewBox="0 0 32 32" width="1em" height="1em"><path stroke="currentColor" d="M6.425 27.504c-1.204.449-2.378-.725-1.93-1.93l7.702-20.67 14.9 14.9-20.672 7.7Z"/><path stroke="currentColor" stroke-linecap="round" d="m11.5 8.5 12 12M20 8a1 1 0 1 1 0-2 1 1 0 1 0 0-2"/><path stroke="currentColor" stroke-linecap="round" stroke-width="1.05" d="M26.707 10.536a1 1 0 0 0 1.414-1.415 1 1 0 0 1 1.415-1.414"/><circle cx="24.5" cy="12.5" r="1" stroke="currentColor"/><circle cx="24.5" cy="3.5" r="1" stroke="currentColor"/><path stroke="currentColor" stroke-linecap="round" d="M21.5 10.5 25 7m-8.5-1.5v-2m10 12h2"/></svg>
