<svg viewBox="0 0 24 24" fill="none" xmlns="http://www.w3.org/2000/svg" width="1em" height="1em"><path d="M6.05516 19.8865C4.83886 20.3595 3.64048 19.1611 4.11349 17.9448L9.18828 4.89538L19.1046 14.8117L6.05516 19.8865Z" stroke="currentColor"/><path d="M8.5 7.5L16.5 15.5" stroke="currentColor"/><path d="M15.5 6C15.2239 6 15 5.77614 15 5.5C15 5.22386 15.2239 5 15.5 5C15.7761 5 16 4.77614 16 4.5C16 4.22386 15.7761 4 15.5 4" stroke="currentColor"/><circle cx="21" cy="8" r="0.5" stroke="currentColor"/><path d="M17 8L19 6" stroke="currentColor" stroke-linecap="round"/><path d="M12.5 5.49994L12.5 3.49994" stroke="currentColor" stroke-linecap="round"/><path d="M18.5 11.5L20.5 11.5" stroke="currentColor" stroke-linecap="round"/></svg>
