<svg xmlns="http://www.w3.org/2000/svg" fill="none" viewBox="0 0 24 24" width="1em" height="1em"><mask id="iconsFolderSize24Px__a" fill="#fff"><path fill-rule="evenodd" d="M8.438 4a2 2 0 0 1 1.94 1.515A.64.64 0 0 0 11 6h9a2 2 0 0 1 2 2v10a2 2 0 0 1-2 2H4a2 2 0 0 1-2-2V6a2 2 0 0 1 2-2h4.438Z" clip-rule="evenodd"/></mask><path fill="currentColor" d="M9.409 5.757A1 1 0 0 0 8.439 5V3a3 3 0 0 1 2.91 2.272l-1.94.485ZM20 7h-9V5h9v2Zm1 1a1 1 0 0 0-1-1V5a3 3 0 0 1 3 3h-2Zm0 10V8h2v10h-2Zm-1 1a1 1 0 0 0 1-1h2a3 3 0 0 1-3 3v-2ZM4 19h16v2H4v-2Zm-1-1a1 1 0 0 0 1 1v2a3 3 0 0 1-3-3h2ZM3 7v11H1V7h2Zm0-1v1H1V6h2Zm1-1a1 1 0 0 0-1 1H1a3 3 0 0 1 3-3v2Zm4.438 0H4V3h4.438v2Zm2.91.272A.36.36 0 0 0 11 5v2a1.64 1.64 0 0 1-1.591-1.243l1.94-.485Z" mask="url(#iconsFolderSize24Px__a)"/></svg>
