<svg xmlns="http://www.w3.org/2000/svg" fill="none" viewBox="0 0 24 24" width="1em" height="1em"><mask id="iconsFolderSize24Px__a" fill="#fff"><path fill-rule="evenodd" d="M8.438 4a2 2 0 0 1 1.94 1.515A.64.64 0 0 0 11 6h9a2 2 0 0 1 2 2v10a2 2 0 0 1-2 2H4a2 2 0 0 1-2-2V6a2 2 0 0 1 2-2z" clip-rule="evenodd"/></mask><path fill="currentColor" d="M9.409 5.757A1 1 0 0 0 8.439 5V3a3 3 0 0 1 2.91 2.272zM20 7h-9V5h9zm1 1a1 1 0 0 0-1-1V5a3 3 0 0 1 3 3zm0 10V8h2v10zm-1 1a1 1 0 0 0 1-1h2a3 3 0 0 1-3 3zM4 19h16v2H4zm-1-1a1 1 0 0 0 1 1v2a3 3 0 0 1-3-3zM3 7v11H1V7zm0-1v1H1V6zm1-1a1 1 0 0 0-1 1H1a3 3 0 0 1 3-3zm4.438 0H4V3h4.438zm2.91.272A.36.36 0 0 0 11 5v2a1.64 1.64 0 0 1-1.591-1.243z" mask="url(#iconsFolderSize24Px__a)"/></svg>
