<svg xmlns="http://www.w3.org/2000/svg" fill="none" viewBox="0 0 16 16" width="1em" height="1em"><mask id="iconsFolderSize16Px__a" fill="#fff"><path fill-rule="evenodd" d="M5.675 3A2 2 0 0 1 7.61 4.498l.065.251c.035.136.146.251.286.251H13a2 2 0 0 1 2 2v5a2 2 0 0 1-2 2H3a2 2 0 0 1-2-2V5a2 2 0 0 1 2-2z" clip-rule="evenodd"/></mask><path fill="currentColor" d="m7.61 4.498.969-.25zm.066.251.968-.25zm-1.033 0A1 1 0 0 0 5.675 4V2a3 3 0 0 1 2.904 2.247zM6.708 5l-.065-.251 1.936-.502.065.251zM13 6H7.962V4H13zm1 1a1 1 0 0 0-1-1V4a3 3 0 0 1 3 3zm0 5V7h2v5zm-1 1a1 1 0 0 0 1-1h2a3 3 0 0 1-3 3zM3 13h10v2H3zm-1-1a1 1 0 0 0 1 1v2a3 3 0 0 1-3-3zm0-7v7H0V5zm1-1a1 1 0 0 0-1 1H0a3 3 0 0 1 3-3zm2.675 0H3V2h2.675zm2.969.498a.63.63 0 0 0-.187-.308.73.73 0 0 0-.495-.19v2c-.733 0-1.143-.572-1.254-1z" mask="url(#iconsFolderSize16Px__a)"/></svg>
