<svg xmlns="http://www.w3.org/2000/svg" fill="none" viewBox="0 0 32 32" width="1em" height="1em"><mask id="iconsFolderSize32Px__a" fill="#fff"><path fill-rule="evenodd" d="M11.13 6a2 2 0 0 1 1.933 1.485l.206.773a1 1 0 0 0 .966.742H28a2 2 0 0 1 2 2v15a2 2 0 0 1-2 2H4a2 2 0 0 1-2-2V8a2 2 0 0 1 2-2h7.13Z" clip-rule="evenodd"/></mask><path fill="currentColor" d="m13.063 7.485.966-.258-.966.258Zm.206.773-.966.257.966-.257Zm-1.173-.516A1 1 0 0 0 11.13 7V5a3 3 0 0 1 2.899 2.227l-1.933.515Zm.207.773-.207-.773 1.933-.515.206.773-1.932.515ZM28 10H14.235V8H28v2Zm1 1a1 1 0 0 0-1-1V8a3 3 0 0 1 3 3h-2Zm0 15V11h2v15h-2Zm-1 1a1 1 0 0 0 1-1h2a3 3 0 0 1-3 3v-2ZM4 27h24v2H4v-2Zm-1-1a1 1 0 0 0 1 1v2a3 3 0 0 1-3-3h2Zm0-16v16H1V10h2Zm0-1v1H1V9h2Zm0-1v1H1V8h2Zm1-1a1 1 0 0 0-1 1H1a3 3 0 0 1 3-3v2Zm7.13 0H4V5h7.13v2Zm3.105 1v2a2 2 0 0 1-1.932-1.485L14.235 8Z" mask="url(#iconsFolderSize32Px__a)"/></svg>
