<svg xmlns="http://www.w3.org/2000/svg" fill="none" viewBox="0 0 16 16" width="1em" height="1em"><mask id="iconsFolderSize16Px__a" fill="#fff"><path fill-rule="evenodd" d="M5.675 3A2 2 0 0 1 7.61 4.498l.065.251c.035.136.146.251.286.251H13a2 2 0 0 1 2 2v5a2 2 0 0 1-2 2H3a2 2 0 0 1-2-2V5a2 2 0 0 1 2-2h2.675Z" clip-rule="evenodd"/></mask><path fill="currentColor" d="m7.61 4.498.969-.25-.968.25Zm.066.251.968-.25-.968.25Zm-1.033 0A1 1 0 0 0 5.675 4V2a3 3 0 0 1 2.904 2.247l-1.936.502ZM6.708 5l-.065-.251 1.936-.502.065.251L6.708 5ZM13 6H7.962V4H13v2Zm1 1a1 1 0 0 0-1-1V4a3 3 0 0 1 3 3h-2Zm0 5V7h2v5h-2Zm-1 1a1 1 0 0 0 1-1h2a3 3 0 0 1-3 3v-2ZM3 13h10v2H3v-2Zm-1-1a1 1 0 0 0 1 1v2a3 3 0 0 1-3-3h2Zm0-7v7H0V5h2Zm1-1a1 1 0 0 0-1 1H0a3 3 0 0 1 3-3v2Zm2.675 0H3V2h2.675v2Zm2.969.498a.634.634 0 0 0-.187-.308.733.733 0 0 0-.495-.19v2c-.733 0-1.143-.572-1.254-1l1.936-.502Z" mask="url(#iconsFolderSize16Px__a)"/></svg>
