<svg viewBox="0 0 16 16" fill="none" xmlns="http://www.w3.org/2000/svg" width="1em" height="1em"><mask id="path-1-inside-1_979_6492" fill="currentColor"><path fill-rule="evenodd" clip-rule="evenodd" d="M5.67462 3C6.58587 3 7.38192 3.61598 7.61061 4.49808L7.67568 4.74904C7.71086 4.88477 7.82172 5 7.96193 5L13 5C14.1046 5 15 5.89543 15 7L15 12C15 13.1046 14.1046 14 13 14L3 14C1.89543 14 1 13.1046 1 12L1 5C1 3.89543 1.89543 3 3 3L5.67462 3Z"/></mask><path d="M7.61061 4.49808L8.57861 4.24711V4.24711L7.61061 4.49808ZM7.67568 4.74904L8.64367 4.49808L8.64367 4.49808L7.67568 4.74904ZM6.64262 4.74904C6.52827 4.30799 6.13025 4 5.67462 4V2C7.0415 2 8.23557 2.92397 8.57861 4.24711L6.64262 4.74904ZM6.70768 5L6.64262 4.74904L8.57861 4.24711L8.64367 4.49808L6.70768 5ZM13 6L7.96193 6L7.96193 4L13 4V6ZM14 7C14 6.44772 13.5523 6 13 6V4C14.6569 4 16 5.34315 16 7H14ZM14 12L14 7H16L16 12H14ZM13 13C13.5523 13 14 12.5523 14 12H16C16 13.6569 14.6569 15 13 15V13ZM3 13L13 13V15L3 15V13ZM2 12C2 12.5523 2.44772 13 3 13V15C1.34315 15 0 13.6569 0 12H2ZM2 5L2 12H0L0 5L2 5ZM3 4C2.44771 4 2 4.44771 2 5L0 5C0 3.34315 1.34314 2 3 2V4ZM5.67462 4H3V2L5.67462 2V4ZM8.64367 4.49808C8.61637 4.39277 8.55824 4.28333 8.45734 4.19028C8.35108 4.09229 8.17964 4 7.96193 4L7.96193 6C7.22878 6 6.81868 5.42814 6.70768 5L8.64367 4.49808Z" fill="currentColor" mask="url(#path-1-inside-1_979_6492)"/></svg>
