<svg viewBox="0 0 24 24" fill="none" xmlns="http://www.w3.org/2000/svg" width="1em" height="1em"><mask id="path-1-inside-1_979_6498" fill="currentColor"><path fill-rule="evenodd" clip-rule="evenodd" d="M8.43845 4C9.35618 4 10.1561 4.62459 10.3787 5.51493C10.45 5.80001 10.7061 6 11 6L20 6C21.1046 6 22 6.89543 22 8L22 18C22 19.1046 21.1046 20 20 20L4 20C2.89543 20 2 19.1046 2 18L2 7V6C2 4.89543 2.89543 4 4 4L8.43845 4Z"/></mask><path d="M9.40859 5.75746C9.2973 5.3123 8.89732 5 8.43845 5V3C9.81505 3 11.015 3.93689 11.3489 5.27239L9.40859 5.75746ZM20 7L11 7V5L20 5V7ZM21 8C21 7.44772 20.5523 7 20 7V5C21.6569 5 23 6.34315 23 8H21ZM21 18L21 8H23L23 18H21ZM20 19C20.5523 19 21 18.5523 21 18H23C23 19.6569 21.6569 21 20 21V19ZM4 19L20 19V21L4 21V19ZM3 18C3 18.5523 3.44771 19 4 19V21C2.34315 21 1 19.6569 1 18H3ZM3 7L3 18H1L1 7H3ZM3 6V7H1V6H3ZM4 5C3.44772 5 3 5.44772 3 6H1C1 4.34315 2.34315 3 4 3V5ZM8.43845 5L4 5V3L8.43845 3V5ZM11.3489 5.27239C11.3089 5.11231 11.165 5 11 5V7C10.2473 7 9.59115 6.48771 9.40859 5.75746L11.3489 5.27239Z" fill="currentColor" mask="url(#path-1-inside-1_979_6498)"/></svg>
