<svg viewBox="0 0 32 32" fill="none" xmlns="http://www.w3.org/2000/svg" width="1em" height="1em"><mask id="path-1-inside-1_979_6504" fill="currentColor"><path fill-rule="evenodd" clip-rule="evenodd" d="M11.1301 6C12.0362 6 12.8291 6.60917 13.0626 7.48467L13.2687 8.25766C13.3854 8.69542 13.7819 9 14.2349 9L28 9C29.1046 9 30 9.89543 30 11L30 26C30 27.1046 29.1046 28 28 28L4 28C2.89543 28 2 27.1046 2 26L2 10V9V8C2 6.89543 2.89543 6 4 6L11.1301 6Z"/></mask><path d="M13.0626 7.48467L14.0288 7.22701V7.22701L13.0626 7.48467ZM13.2687 8.25766L12.3025 8.51533L13.2687 8.25766ZM12.0963 7.74234C11.9796 7.30458 11.5832 7 11.1301 7V5C12.4893 5 13.6786 5.91375 14.0288 7.22701L12.0963 7.74234ZM12.3025 8.51533L12.0963 7.74234L14.0288 7.22701L14.2349 8L12.3025 8.51533ZM28 10L14.2349 10V8L28 8V10ZM29 11C29 10.4477 28.5523 10 28 10V8C29.6569 8 31 9.34315 31 11H29ZM29 26L29 11H31L31 26H29ZM28 27C28.5523 27 29 26.5523 29 26H31C31 27.6569 29.6569 29 28 29V27ZM4 27L28 27V29L4 29V27ZM3 26C3 26.5523 3.44772 27 4 27V29C2.34315 29 1 27.6569 1 26H3ZM3 10L3 26H1L1 10L3 10ZM3 9V10L1 10V9L3 9ZM3 8V9L1 9V8H3ZM4 7C3.44772 7 3 7.44772 3 8H1C1 6.34314 2.34315 5 4 5V7ZM11.1301 7L4 7V5L11.1301 5V7ZM14.2349 8V10C13.3288 10 12.5359 9.39083 12.3025 8.51533L14.2349 8Z" fill="currentColor" mask="url(#path-1-inside-1_979_6504)"/></svg>
