<svg xmlns="http://www.w3.org/2000/svg" fill="none" viewBox="0 0 16 16" width="1em" height="1em"><path stroke="currentColor" stroke-linecap="round" stroke-linejoin="round" d="M13.54 11.917h.5a.5.5 0 0 0-.155-.362zm0 0h.5v1.73a.96.96 0 0 1-.291.671.96.96 0 0 1-.671.29h0-.001 0-.002 0-.002 0-.002 0-.002 0-.002 0-.002 0-.006 0-.004 0-1.685 0-.006 0-.002 0-.002 0-.002 0-.002 0-.002 0-.002 0-.001 0-.001 0-.001 0-.001 0v-.5m2.192-2.191.345-.362h0l-.002-.002-.007-.006-.025-.025-.1-.095-.364-.349-1.208-1.16a285 285 0 0 1-2.815-2.74c-.166-.166-.173-.366-.159-.674l.003-.082v-.008l.001-.039c.105-1.296-.224-2.488-.947-3.364-.728-.882-1.821-1.402-3.15-1.402-2.526 0-4.072 2.1-4.072 3.964 0 .868.182 2 .868 2.915.707.942 1.888 1.573 3.708 1.52.087 0 .176-.004.254-.008h.005c.09-.004.184-.014.261-.022l.038-.004c.091-.009.165-.015.232-.016.131 0 .19.022.23.052l-.001-.001.028.024.084.077.259.247.116.111c.18.174.39.375.597.57a.7.7 0 0 0 .514.175q.127-.008.25-.044a1.3 1.3 0 0 0-.05.284.8.8 0 0 0 .235.627l.004.004c.069.065.236.224.505.265a1 1 0 0 0 .373-.022.8.8 0 0 0-.061.273.67.67 0 0 0 .126.414c.05.072.179.209.293.33a114 114 0 0 0 .89.919l.14.143.039.04.01.01.003.003h.001l.356-.35m0 0v.5a.5.5 0 0 1-.356-.15zM4.612 4.647a.5.5 0 0 1-.503.498.5.5 0 0 1-.503-.498.5.5 0 0 1 .503-.497.5.5 0 0 1 .503.497"/></svg>
