<svg xmlns="http://www.w3.org/2000/svg" fill="none" viewBox="0 0 24 24" width="1em" height="1em"><path stroke="currentColor" stroke-linecap="round" stroke-linejoin="round" d="M18.333 14.5c2.111 0 3.167-2.182 3.167-3.818 0-1.933-1.39-3.53-3.192-3.783C18.061 4.427 16.04 2.5 13.583 2.5c-2.071 0-3.833 1.37-4.482 3.281a4 4 0 0 0-.268-.008c-1.978 0-3.639 1.406-4.097 3.304-1.266.2-2.236 1.33-2.236 2.696 0 1.506.779 2.727 2.236 2.727"/><path stroke="currentColor" stroke-linecap="round" stroke-linejoin="round" d="M19.54 18.917h.5a.5.5 0 0 0-.155-.362zm0 0h.5v1.73a.96.96 0 0 1-.291.671.96.96 0 0 1-.671.29h0-.001 0-.002 0-.002 0-.002 0-.002 0-.002 0-.002 0-.006 0-.004 0-1.685 0-.006 0-.002 0-.002 0-.002 0-.002 0-.002 0-.002 0-.001 0-.001 0-.001 0-.001 0v-.5m2.192-2.191.345-.362h0l-.002-.002-.007-.006-.025-.025-.1-.095-.364-.349-1.208-1.16a284 284 0 0 1-2.815-2.74c-.166-.166-.173-.366-.159-.674l.003-.082v-.008l.001-.039c.105-1.296-.224-2.488-.947-3.364-.728-.882-1.821-1.402-3.15-1.402-2.526 0-4.072 2.1-4.072 3.964 0 .868.182 2 .868 2.915.707.942 1.888 1.573 3.708 1.52.087 0 .176-.004.254-.008h.005c.09-.004.184-.014.261-.022a6 6 0 0 1 .27-.02c.131 0 .19.022.23.052l-.001-.001.028.024.084.077a27 27 0 0 1 .375.358c.18.174.39.375.597.57a.7.7 0 0 0 .514.175q.126-.008.25-.044a1.3 1.3 0 0 0-.05.284.79.79 0 0 0 .235.627l.004.004c.069.065.236.224.505.265a1 1 0 0 0 .373-.022.8.8 0 0 0-.061.272.67.67 0 0 0 .126.415c.05.072.179.209.293.33.131.138.296.309.455.474l.434.444.14.144.04.04.01.01.003.003h.001l.356-.35m0 0v.5a.5.5 0 0 1-.356-.15zm-6.735-9.462a.5.5 0 0 1-.503.498.5.5 0 0 1-.503-.498.5.5 0 0 1 .503-.497.5.5 0 0 1 .503.497"/></svg>
