<svg xmlns="http://www.w3.org/2000/svg" fill="none" viewBox="0 0 32 32" width="1em" height="1em"><path stroke="currentColor" stroke-linecap="round" stroke-linejoin="round" d="M24.667 21C27.375 21 29 18.67 29 16.2c0-2.47-1.896-4.505-4.333-4.77.007-3.5-2.94-6.43-6.5-6.43-3.221 0-5.895 2.307-6.41 5.334-2.575-.041-4.887 1.78-5.399 4.268C4.548 14.543 3 16.015 3 17.8 3 19.567 4.455 21 6.25 21h1.083"/><path stroke="currentColor" stroke-linecap="round" stroke-linejoin="round" d="M23 24.625h.5a.5.5 0 0 0-.154-.361l-.346.361Zm0 0h.5V26.5a1 1 0 0 1-.303.697 1 1 0 0 1-.697.303h0-.002 0-.002 0-.01 0-.005 0-.004 0-1.831 0-.005 0-.002 0-.002 0-.002 0-.002 0-.001 0-.002 0-.002 0-.001 0-.001 0-.001 0-.001V27M23 24.625l.345-.361h0v-.001l-.002-.002-.007-.006-.028-.027-.107-.103-.395-.378c-.335-.32-.797-.764-1.309-1.258a310.822 310.822 0 0 1-3.05-2.969c-.194-.193-.2-.428-.184-.76l.003-.088v-.01l.001-.043c.113-1.396-.242-2.675-1.016-3.615-.78-.946-1.953-1.504-3.38-1.504-2.711 0-4.371 2.253-4.371 4.253 0 .936.197 2.152.932 3.132.757 1.008 2.023 1.688 3.984 1.631.093 0 .189-.005.274-.009h.005c.096-.004.196-.015.28-.023l.041-.005c.1-.01.18-.017.256-.017.147 0 .22.024.274.064 0 0 0 0 0 0l.032.027.091.084.282.268.126.121c.195.188.422.406.646.617a.7.7 0 0 0 .526.178c.114-.006.227-.033.337-.07a1.35 1.35 0 0 0-.076.374c-.01.188.03.446.24.646l.326-.343-.325.343.004.005c.074.07.247.234.525.276.158.024.315.004.473-.047a.85.85 0 0 0-.099.361.685.685 0 0 0 .128.424c.053.074.19.22.314.352a142.56 142.56 0 0 0 .963.995l.152.155.043.043.01.012.004.003h0l.357-.35m0 0v.5a.5.5 0 0 1-.356-.15l.356-.35Z"/><path stroke="currentColor" d="M13.5 17a.5.5 0 1 1-1 0 .5.5 0 0 1 1 0Z"/></svg>
