<svg viewBox="0 0 48 48" fill="none" xmlns="http://www.w3.org/2000/svg">
<path d="M0 8C0 3.58172 3.58172 0 8 0L40 0C44.4183 0 48 3.58172 48 8V40C48 44.4183 44.4183 48 40 48H8C3.58172 48 0 44.4183 0 40L0 8Z" fill="#F5F5F5"/>
<path d="M26 21.3333H26.0067M18 26.6667L21.3333 23.3333C21.952 22.738 22.7147 22.738 23.3333 23.3333L26.6667 26.6667M25.3333 25.3333L26 24.6667C26.6187 24.0713 27.3813 24.0713 28 24.6667L30 26.6667M18 20C18 19.4696 18.2107 18.9609 18.5858 18.5858C18.9609 18.2107 19.4696 18 20 18H28C28.5304 18 29.0391 18.2107 29.4142 18.5858C29.7893 18.9609 30 19.4696 30 20V28C30 28.5304 29.7893 29.0391 29.4142 29.4142C29.0391 29.7893 28.5304 30 28 30H20C19.4696 30 18.9609 29.7893 18.5858 29.4142C18.2107 29.0391 18 28.5304 18 28V20Z" stroke="#676D7A" stroke-width="1.33" stroke-linecap="round" stroke-linejoin="round"/>
</svg>
