<svg viewBox="0 0 24 24" fill="none" xmlns="http://www.w3.org/2000/svg" width="1em" height="1em"><rect x="2.5" y="13.5" width="4" height="8" rx="1.5" stroke="currentColor"/><path d="M9 10C9 9.17157 9.67157 8.5 10.5 8.5H11.5C12.3284 8.5 13 9.17157 13 10V20C13 20.8284 12.3284 21.5 11.5 21.5H10.5C9.67157 21.5 9 20.8284 9 20V10Z" stroke="currentColor"/><mask id="path-3-outside-1_2_62882" maskUnits="userSpaceOnUse" x="13" y="2" width="9" height="20" fill="currentColor"><rect fill="currentColor" x="13" y="2" width="9" height="20"/><path d="M19 20V7C19 6.44772 19.4477 6 20 6H21L17.5 3L14 6H15C15.5523 6 16 6.44772 16 7V20C16 20.5523 16.4477 21 17 21H18C18.5523 21 19 20.5523 19 20Z"/></mask><path d="M14 6L13.3492 5.24074C13.0315 5.51308 12.9169 5.95446 13.0621 6.34695C13.2073 6.73943 13.5815 7 14 7V6ZM17.5 3L18.1508 2.24074C17.7763 1.91975 17.2237 1.91975 16.8492 2.24074L17.5 3ZM21 6V7C21.4185 7 21.7927 6.73943 21.9379 6.34695C22.0831 5.95446 21.9685 5.51308 21.6508 5.24074L21 6ZM18 7V20H20V7H18ZM18 20H17V22H18V20ZM17 20V7H15V20H17ZM15 5H14V7H15V5ZM14.6508 6.75926L18.1508 3.75926L16.8492 2.24074L13.3492 5.24074L14.6508 6.75926ZM16.8492 3.75926L20.3492 6.75926L21.6508 5.24074L18.1508 2.24074L16.8492 3.75926ZM21 5H20V7H21V5ZM17 20H15C15 21.1046 15.8954 22 17 22V20ZM18 20V22C19.1046 22 20 21.1046 20 20H18ZM20 7V5C18.8954 5 18 5.89543 18 7H20ZM17 7C17 5.89543 16.1046 5 15 5V7H17Z" fill="currentColor" mask="url(#path-3-outside-1_2_62882)"/></svg>
