<svg viewBox="0 0 32 32" fill="none" xmlns="http://www.w3.org/2000/svg" stroke="currentColor"><rect x="5.5" y="17.5" width="5" height="12" rx="1.5"/><rect x="13.5" y="13.5" width="5" height="16" rx="1.5"/><mask id="path-3-outside-1_2_62888" maskUnits="userSpaceOnUse" x="19" y="4.5" width="10" height="26" fill="black"><rect fill="white" x="19" y="4.5" width="10" height="26"/><path d="M26 28V11C26 10.4477 26.4477 10 27 10H28L24.7474 6.34084C24.3496 5.89332 23.6504 5.89332 23.2526 6.34084L20 10H21C21.5523 10 22 10.4477 22 11V28C22 28.5523 22.4477 29 23 29H25C25.5523 29 26 28.5523 26 28Z"/></mask><path d="M20 10L19.2526 9.33564C18.991 9.62996 18.9264 10.0504 19.0878 10.4097C19.2491 10.7689 19.6062 11 20 11V10ZM23.2526 6.34084L24 7.0052L23.2526 6.34084ZM24.7474 6.34084L24 7.0052L24.7474 6.34084ZM28 10V11C28.3938 11 28.7509 10.7689 28.9122 10.4097C29.0736 10.0504 29.009 9.62996 28.7474 9.33564L28 10ZM25 11V28H27V11H25ZM25 28H23V30H25V28ZM23 28V11H21V28H23ZM21 9H20V11H21V9ZM20.7474 10.6644L24 7.0052L22.5052 5.67647L19.2526 9.33564L20.7474 10.6644ZM24 7.0052L27.2526 10.6644L28.7474 9.33564L25.4948 5.67647L24 7.0052ZM28 9H27V11H28V9ZM23 28H21C21 29.1046 21.8954 30 23 30V28ZM25 28V30C26.1046 30 27 29.1046 27 28H25ZM27 11V9C25.8954 9 25 9.89543 25 11H27ZM24 7.0052L25.4948 5.67647C24.6992 4.78144 23.3008 4.78144 22.5052 5.67647L24 7.0052ZM23 11C23 9.89543 22.1046 9 21 9V11V11H23Z" fill="#282829" mask="url(#path-3-outside-1_2_62888)"/></svg>