<svg xmlns="http://www.w3.org/2000/svg" fill="none" viewBox="0 0 24 24" width="1em" height="1em"><rect width="4" height="8" x="2.5" y="13.5" stroke="currentColor" rx="1.5"/><path stroke="currentColor" d="M9 10a1.5 1.5 0 0 1 1.5-1.5h1A1.5 1.5 0 0 1 13 10v10a1.5 1.5 0 0 1-1.5 1.5h-1A1.5 1.5 0 0 1 9 20z"/><path stroke="currentColor" stroke-linejoin="round" d="M21 6.5h1.352l-1.027-.88-3.5-3-.325-.279-.325.28-3.5 3-1.027.879H15a.5.5 0 0 1 .5.5v13a1.5 1.5 0 0 0 1.5 1.5h1a1.5 1.5 0 0 0 1.5-1.5V7a.5.5 0 0 1 .5-.5z"/></svg>
