<svg viewBox="0 0 24 24" fill="none" xmlns="http://www.w3.org/2000/svg" width="1em" height="1em"><path d="M2.5 11C2.5 10.1716 3.17157 9.5 4 9.5L20 9.5C20.8284 9.5 21.5 10.1716 21.5 11V13C21.5 13.8284 20.8284 14.5 20 14.5L4 14.5C3.17157 14.5 2.5 13.8284 2.5 13L2.5 11Z" stroke="currentColor" stroke-linecap="round"/><path d="M17.5 12C17.5 12.5523 17.9477 13 18.5 13C19.0523 13 19.5 12.5523 19.5 12C19.5 11.4477 19.0523 11 18.5 11C17.9477 11 17.5 11.4477 17.5 12Z" stroke="currentColor" stroke-linecap="round" stroke-linejoin="round"/></svg>
