<svg xmlns="http://www.w3.org/2000/svg" fill="none" viewBox="0 0 24 24" width="1em" height="1em"><path stroke="currentColor" d="M15.5 12c0 2.714-.44 5.148-1.136 6.885-.348.87-.75 1.54-1.17 1.986-.42.443-.823.629-1.194.629-.37 0-.774-.186-1.194-.63s-.822-1.115-1.17-1.985C8.941 17.148 8.5 14.715 8.5 12s.441-5.148 1.136-6.885c.348-.87.75-1.54 1.17-1.986.42-.443.824-.629 1.194-.629s.774.186 1.194.63.822 1.115 1.17 1.985C15.06 6.852 15.5 9.285 15.5 12Z"/><path stroke="currentColor" d="M13.75 15.031c-2.35 1.357-4.679 2.192-6.53 2.46-.928.133-1.71.12-2.305-.022-.594-.142-.957-.398-1.142-.719s-.226-.763-.052-1.348c.175-.587.555-1.27 1.134-2.007 1.157-1.47 3.045-3.069 5.395-4.426s4.68-2.192 6.531-2.46c.927-.133 1.709-.12 2.305.022.594.141.956.398 1.141.719s.227.763.052 1.348c-.175.587-.554 1.27-1.134 2.007-1.157 1.47-3.044 3.069-5.395 4.426Z"/><path stroke="currentColor" d="M9.892 14.968c2.223 1.556 4.47 2.591 6.292 3.018.912.214 1.692.27 2.297.18.604-.089.988-.313 1.2-.617.213-.303.293-.74.17-1.338-.123-.6-.442-1.314-.955-2.098-1.025-1.565-2.766-3.323-4.989-4.88s-4.47-2.591-6.291-3.018c-.913-.214-1.692-.27-2.298-.18-.604.089-.988.313-1.2.617-.213.303-.292.74-.17 1.338.124.6.442 1.314.955 2.098 1.025 1.565 2.766 3.323 4.99 4.88Z"/><circle cx="12" cy="12" r=".5" stroke="currentColor"/></svg>
