<svg viewBox="0 0 24 24" fill="none" xmlns="http://www.w3.org/2000/svg" width="1em" height="1em"><path d="M15.5 12C15.5 14.7141 15.059 17.1482 14.3642 18.8854C14.0162 19.7553 13.6144 20.4258 13.1937 20.8706C12.7741 21.3143 12.3705 21.5 12 21.5C11.6295 21.5 11.2259 21.3143 10.8063 20.8706C10.3856 20.4258 9.98379 19.7553 9.63581 18.8854C8.94095 17.1482 8.5 14.7141 8.5 12C8.5 9.2859 8.94095 6.85177 9.63581 5.11463C9.98379 4.24467 10.3856 3.5742 10.8063 3.1294C11.2259 2.68566 11.6295 2.5 12 2.5C12.3705 2.5 12.7741 2.68566 13.1937 3.1294C13.6144 3.5742 14.0162 4.24467 14.3642 5.11463C15.059 6.85177 15.5 9.2859 15.5 12Z" stroke="currentColor"/><path d="M13.75 15.0313C11.3995 16.3884 9.07105 17.2236 7.21921 17.4904C6.29181 17.624 5.51024 17.6112 4.91471 17.4693C4.3206 17.3278 3.95803 17.0711 3.77278 16.7502C3.58753 16.4294 3.54654 15.9871 3.72101 15.4018C3.89589 14.8151 4.27561 14.1318 4.85502 13.3955C6.01201 11.9251 7.89955 10.3262 10.25 8.96915C12.6005 7.6121 14.929 6.77691 16.7808 6.5101C17.7082 6.37648 18.4898 6.38927 19.0853 6.53116C19.6795 6.67272 20.042 6.92937 20.2273 7.25023C20.4125 7.5711 20.4535 8.01341 20.279 8.59871C20.1042 9.1854 19.7244 9.86865 19.145 10.605C17.988 12.0753 16.1005 13.6743 13.75 15.0313Z" stroke="currentColor"/><path d="M9.89202 14.9673C12.1153 16.524 14.3621 17.559 16.1837 17.9862C17.0959 18.2001 17.8756 18.2555 18.4812 18.1661C19.0854 18.0768 19.469 17.8527 19.6815 17.5492C19.894 17.2457 19.9734 16.8087 19.8506 16.2104C19.7275 15.6107 19.4088 14.897 18.8957 14.1129C17.8713 12.5473 16.1303 10.79 13.9071 9.23323C11.6838 7.67649 9.43695 6.64154 7.61541 6.21435C6.70319 6.00041 5.92348 5.94502 5.31785 6.03447C4.71365 6.12371 4.3301 6.34779 4.11759 6.65129C3.90508 6.95478 3.8257 7.39184 3.94849 7.99012C4.07157 8.58982 4.39029 9.30357 4.90332 10.0876C5.92776 11.6532 7.66876 13.4106 9.89202 14.9673Z" stroke="currentColor"/><circle cx="12" cy="12" r="0.5" stroke="currentColor"/></svg>
