<svg xmlns="http://www.w3.org/2000/svg" fill="none" viewBox="0 0 16 17" width="1em" height="1em"><path stroke="currentColor" d="M6.78 10.467c1.93 1.114 3.827 1.818 5.323 2.066.75.125 1.371.131 1.835.036.465-.095.712-.276.828-.477.116-.2.15-.505 0-.955-.15-.45-.466-.985-.95-1.572-.963-1.17-2.52-2.462-4.45-3.576-1.93-1.114-3.827-1.817-5.323-2.066-.75-.125-1.371-.13-1.835-.036-.465.095-.712.276-.828.477-.115.2-.149.505.001.955.15.45.466.985.949 1.572.963 1.17 2.52 2.462 4.45 3.576Z"/><path stroke="currentColor" d="M9.293 10.467c-1.93 1.114-3.827 1.818-5.323 2.066-.75.125-1.371.131-1.835.036-.465-.095-.712-.276-.828-.477-.116-.2-.149-.505.001-.955.15-.45.466-.985.949-1.572.963-1.17 2.52-2.462 4.45-3.576 1.93-1.114 3.827-1.817 5.323-2.066.75-.125 1.371-.13 1.835-.036.465.095.712.276.828.477.116.2.149.505-.001.955-.15.45-.466.985-.949 1.572-.963 1.17-2.52 2.462-4.45 3.576Z"/><path stroke="currentColor" d="M5.415 8.228c0-2.228.34-4.223.871-5.642.267-.712.573-1.253.887-1.608C7.488.623 7.768.5 8 .5c.232 0 .512.123.827.478.314.355.62.896.887 1.608.532 1.42.872 3.414.872 5.642s-.34 4.223-.872 5.643c-.267.711-.573 1.253-.887 1.607-.315.355-.595.478-.827.478-.232 0-.512-.123-.827-.478-.314-.354-.62-.896-.887-1.607-.532-1.42-.871-3.415-.871-5.643Z"/><circle cx="8" cy="8.228" r=".5" stroke="currentColor"/></svg>
