<svg viewBox="0 0 16 17" fill="none" xmlns="http://www.w3.org/2000/svg" width="1em" height="1em"><path d="M6.78034 10.4673C8.7099 11.5813 10.6072 12.2847 12.1029 12.5335C12.8527 12.6582 13.4743 12.6641 13.9382 12.5692C14.4029 12.4741 14.6501 12.2929 14.7659 12.0922C14.8817 11.8916 14.9151 11.5869 14.7651 11.1369C14.6153 10.6877 14.2995 10.1524 13.8166 9.56538C12.8533 8.39447 11.2955 7.10301 9.3659 5.98898C7.43635 4.87495 5.53899 4.17155 4.0433 3.92276C3.2935 3.79804 2.67193 3.79221 2.20803 3.8871C1.74337 3.98214 1.49619 4.16342 1.38035 4.36406C1.2645 4.56471 1.2311 4.86941 1.38112 5.31934C1.5309 5.76854 1.84674 6.30392 2.32964 6.8909C3.29295 8.06182 4.85079 9.35327 6.78034 10.4673Z" stroke="currentColor"/><path d="M6.78034 10.4673C8.7099 11.5813 10.6072 12.2847 12.1029 12.5335C12.8527 12.6582 13.4743 12.6641 13.9382 12.5692C14.4029 12.4741 14.6501 12.2929 14.7659 12.0922C14.8817 11.8916 14.9151 11.5869 14.7651 11.1369C14.6153 10.6877 14.2995 10.1524 13.8166 9.56538C12.8533 8.39447 11.2955 7.10301 9.3659 5.98898C7.43635 4.87495 5.53899 4.17155 4.0433 3.92276C3.2935 3.79804 2.67193 3.79221 2.20803 3.8871C1.74337 3.98214 1.49619 4.16342 1.38035 4.36406C1.2645 4.56471 1.2311 4.86941 1.38112 5.31934C1.5309 5.76854 1.84674 6.30392 2.32964 6.8909C3.29295 8.06182 4.85079 9.35327 6.78034 10.4673Z" stroke="currentColor"/><path d="M6.78034 10.4673C8.7099 11.5813 10.6072 12.2847 12.1029 12.5335C12.8527 12.6582 13.4743 12.6641 13.9382 12.5692C14.4029 12.4741 14.6501 12.2929 14.7659 12.0922C14.8817 11.8916 14.9151 11.5869 14.7651 11.1369C14.6153 10.6877 14.2995 10.1524 13.8166 9.56538C12.8533 8.39447 11.2955 7.10301 9.3659 5.98898C7.43635 4.87495 5.53899 4.17155 4.0433 3.92276C3.2935 3.79804 2.67193 3.79221 2.20803 3.8871C1.74337 3.98214 1.49619 4.16342 1.38035 4.36406C1.2645 4.56471 1.2311 4.86941 1.38112 5.31934C1.5309 5.76854 1.84674 6.30392 2.32964 6.8909C3.29295 8.06182 4.85079 9.35327 6.78034 10.4673Z" stroke="currentColor"/><path d="M9.29278 10.4673C7.36322 11.5813 5.46587 12.2847 3.97017 12.5335C3.22038 12.6582 2.59881 12.6641 2.13491 12.5692C1.67024 12.4741 1.42307 12.2929 1.30722 12.0922C1.19138 11.8916 1.15798 11.5869 1.308 11.1369C1.45777 10.6877 1.77361 10.1524 2.25652 9.56538C3.21983 8.39446 4.77767 7.10301 6.70722 5.98898C8.63678 4.87495 10.5341 4.17155 12.0298 3.92276C12.7796 3.79804 13.4012 3.79221 13.8651 3.8871C14.3298 3.98214 14.5769 4.16342 14.6928 4.36406C14.8086 4.56471 14.842 4.86941 14.692 5.31934C14.5422 5.76854 14.2264 6.30392 13.7435 6.8909C12.7802 8.06182 11.2223 9.35327 9.29278 10.4673Z" stroke="currentColor"/><path d="M9.29278 10.4673C7.36322 11.5813 5.46587 12.2847 3.97017 12.5335C3.22038 12.6582 2.59881 12.6641 2.13491 12.5692C1.67024 12.4741 1.42307 12.2929 1.30722 12.0922C1.19138 11.8916 1.15798 11.5869 1.308 11.1369C1.45777 10.6877 1.77361 10.1524 2.25652 9.56538C3.21983 8.39446 4.77767 7.10301 6.70722 5.98898C8.63678 4.87495 10.5341 4.17155 12.0298 3.92276C12.7796 3.79804 13.4012 3.79221 13.8651 3.8871C14.3298 3.98214 14.5769 4.16342 14.6928 4.36406C14.8086 4.56471 14.842 4.86941 14.692 5.31934C14.5422 5.76854 14.2264 6.30392 13.7435 6.8909C12.7802 8.06182 11.2223 9.35327 9.29278 10.4673Z" stroke="currentColor"/><path d="M9.29278 10.4673C7.36322 11.5813 5.46587 12.2847 3.97017 12.5335C3.22038 12.6582 2.59881 12.6641 2.13491 12.5692C1.67024 12.4741 1.42307 12.2929 1.30722 12.0922C1.19138 11.8916 1.15798 11.5869 1.308 11.1369C1.45777 10.6877 1.77361 10.1524 2.25652 9.56538C3.21983 8.39446 4.77767 7.10301 6.70722 5.98898C8.63678 4.87495 10.5341 4.17155 12.0298 3.92276C12.7796 3.79804 13.4012 3.79221 13.8651 3.8871C14.3298 3.98214 14.5769 4.16342 14.6928 4.36406C14.8086 4.56471 14.842 4.86941 14.692 5.31934C14.5422 5.76854 14.2264 6.30392 13.7435 6.8909C12.7802 8.06182 11.2223 9.35327 9.29278 10.4673Z" stroke="currentColor"/><path d="M5.41446 8.22839C5.41446 6.00033 5.75397 4.00548 6.28636 2.58577C6.55325 1.87407 6.85898 1.33286 7.17311 0.978553C7.48775 0.623665 7.76833 0.50024 8.00002 0.50024C8.2317 0.50024 8.51228 0.623665 8.82692 0.978553C9.14105 1.33286 9.44678 1.87407 9.71367 2.58577C10.2461 4.00548 10.5856 6.00033 10.5856 8.22839C10.5856 10.4564 10.2461 12.4513 9.71367 13.871C9.44678 14.5827 9.14105 15.1239 8.82692 15.4782C8.51228 15.8331 8.2317 15.9565 8.00001 15.9565C7.76833 15.9565 7.48775 15.8331 7.17311 15.4782C6.85898 15.1239 6.55325 14.5827 6.28636 13.871C5.75397 12.4513 5.41446 10.4564 5.41446 8.22839Z" stroke="currentColor"/><path d="M5.41446 8.22839C5.41446 6.00033 5.75397 4.00548 6.28636 2.58577C6.55325 1.87407 6.85898 1.33286 7.17311 0.978553C7.48775 0.623665 7.76833 0.50024 8.00002 0.50024C8.2317 0.50024 8.51228 0.623665 8.82692 0.978553C9.14105 1.33286 9.44678 1.87407 9.71367 2.58577C10.2461 4.00548 10.5856 6.00033 10.5856 8.22839C10.5856 10.4564 10.2461 12.4513 9.71367 13.871C9.44678 14.5827 9.14105 15.1239 8.82692 15.4782C8.51228 15.8331 8.2317 15.9565 8.00001 15.9565C7.76833 15.9565 7.48775 15.8331 7.17311 15.4782C6.85898 15.1239 6.55325 14.5827 6.28636 13.871C5.75397 12.4513 5.41446 10.4564 5.41446 8.22839Z" stroke="currentColor"/><path d="M5.41446 8.22839C5.41446 6.00033 5.75397 4.00548 6.28636 2.58577C6.55325 1.87407 6.85898 1.33286 7.17311 0.978553C7.48775 0.623665 7.76833 0.50024 8.00002 0.50024C8.2317 0.50024 8.51228 0.623665 8.82692 0.978553C9.14105 1.33286 9.44678 1.87407 9.71367 2.58577C10.2461 4.00548 10.5856 6.00033 10.5856 8.22839C10.5856 10.4564 10.2461 12.4513 9.71367 13.871C9.44678 14.5827 9.14105 15.1239 8.82692 15.4782C8.51228 15.8331 8.2317 15.9565 8.00001 15.9565C7.76833 15.9565 7.48775 15.8331 7.17311 15.4782C6.85898 15.1239 6.55325 14.5827 6.28636 13.871C5.75397 12.4513 5.41446 10.4564 5.41446 8.22839Z" stroke="currentColor"/><circle cx="8" cy="8.22803" r="0.5" stroke="currentColor"/></svg>
