<svg viewBox="0 0 32 32" fill="none" xmlns="http://www.w3.org/2000/svg" width="1em" height="1em"><path d="M21.5 16C21.5 19.8149 20.8363 23.2449 19.7831 25.7025C19.2561 26.9322 18.6414 27.8954 17.9843 28.5439C17.3293 29.1903 16.6593 29.5 16 29.5C15.3407 29.5 14.6707 29.1903 14.0157 28.5439C13.3586 27.8954 12.7439 26.9322 12.2169 25.7025C11.1637 23.2449 10.5 19.8149 10.5 16C10.5 12.1851 11.1637 8.75508 12.2169 6.29746C12.7439 5.06777 13.3586 4.10457 14.0157 3.45606C14.6707 2.80968 15.3407 2.5 16 2.5C16.6593 2.5 17.3293 2.80968 17.9843 3.45606C18.6414 4.10457 19.2561 5.06777 19.7831 6.29746C20.8363 8.75508 21.5 12.1851 21.5 16Z" stroke="currentColor"/><path d="M18.8921 20.9051C15.5883 22.8125 12.286 23.9528 9.63102 24.2695C8.30256 24.4279 7.16106 24.3771 6.27088 24.1323C5.38362 23.8883 4.78045 23.463 4.45078 22.892C4.12111 22.3209 4.05432 21.5859 4.28663 20.6955C4.5197 19.8022 5.04651 18.7882 5.84795 17.717C7.44967 15.576 10.0883 13.2863 13.3921 11.3788C16.6959 9.47136 19.9982 8.33111 22.6532 8.01445C23.9817 7.85601 25.1232 7.90676 26.0134 8.15157C26.9006 8.39559 27.5038 8.82094 27.8335 9.39195C28.1631 9.96296 28.2299 10.698 27.9976 11.5884C27.7645 12.4817 27.2377 13.4957 26.4363 14.5669C24.8346 16.7079 22.1959 18.9976 18.8921 20.9051Z" stroke="currentColor"/><path d="M13.3922 20.9051C16.696 22.8125 19.9983 23.9528 22.6533 24.2695C23.9817 24.4279 25.1232 24.3772 26.0134 24.1323C26.9007 23.8883 27.5038 23.463 27.8335 22.892C28.1632 22.3209 28.23 21.5859 27.9977 20.6955C27.7646 19.8022 27.2378 18.7882 26.4364 17.717C24.8346 15.576 22.196 13.2863 18.8922 11.3788C15.5884 9.47136 12.2861 8.33111 9.63107 8.01445C8.30261 7.85601 7.16111 7.90676 6.27094 8.15157C5.38367 8.39559 4.78051 8.82094 4.45083 9.39195C4.12116 9.96296 4.05437 10.698 4.28668 11.5884C4.51975 12.4817 5.04656 13.4957 5.848 14.5669C7.44973 16.7079 10.0884 18.9976 13.3922 20.9051Z" stroke="currentColor"/><circle cx="16" cy="16" r="1.5" stroke="currentColor"/></svg>
