<svg xmlns="http://www.w3.org/2000/svg" fill="none" viewBox="0 0 32 32" width="1em" height="1em"><path stroke="currentColor" d="M21.5 16c0 3.815-.664 7.245-1.717 9.703-.527 1.23-1.142 2.192-1.799 2.84-.655.647-1.325.957-1.984.957-.66 0-1.33-.31-1.984-.956-.657-.649-1.272-1.612-1.8-2.841C11.165 23.245 10.5 19.815 10.5 16c0-3.815.664-7.245 1.717-9.703.527-1.23 1.142-2.192 1.799-2.84C14.67 2.81 15.34 2.5 16 2.5c.66 0 1.33.31 1.984.956.657.649 1.272 1.612 1.8 2.841C20.835 8.755 21.5 12.185 21.5 16Z"/><path stroke="currentColor" d="M18.892 20.905c-3.304 1.908-6.606 3.048-9.26 3.365-1.33.158-2.47.107-3.361-.137-.887-.244-1.49-.67-1.82-1.24-.33-.572-.397-1.307-.164-2.197.233-.894.76-1.908 1.561-2.979 1.602-2.14 4.24-4.43 7.544-6.338 3.304-1.907 6.606-3.048 9.261-3.364 1.329-.159 2.47-.108 3.36.137.888.244 1.49.67 1.82 1.24.33.571.397 1.306.165 2.197-.233.893-.76 1.907-1.562 2.978-1.601 2.141-4.24 4.43-7.544 6.338Z"/><path stroke="currentColor" d="M13.392 20.905c3.304 1.908 6.606 3.048 9.261 3.365 1.329.158 2.47.107 3.36-.137.888-.244 1.49-.67 1.82-1.24.33-.572.397-1.307.165-2.197-.233-.894-.76-1.908-1.562-2.979-1.601-2.14-4.24-4.43-7.544-6.338-3.304-1.907-6.606-3.048-9.26-3.364-1.33-.159-2.47-.108-3.361.137-.887.244-1.49.67-1.82 1.24-.33.571-.397 1.306-.164 2.197.233.893.76 1.907 1.561 2.978 1.602 2.141 4.24 4.43 7.544 6.338Z"/><circle cx="16" cy="16" r="1.5" stroke="currentColor"/></svg>
