<svg viewBox="0 0 16 16" fill="none" xmlns="http://www.w3.org/2000/svg" width="1em" height="1em"><mask id="path-1-inside-1_2_57131" fill="currentColor"><path d="M15 2.77781L15 3.83657C15 4.03766 14.9249 4.23093 14.7904 4.37583L10.2095 8.49995C10.0751 8.64485 10 8.83813 10 9.03922L10 14.2222C10 14.6517 9.66421 14.9999 9.25 14.9999L6.74999 14.9999C6.33578 14.9999 5.99999 14.6517 6 14.2222V9.03921C6 8.83812 5.92489 8.64484 5.79045 8.49993L1.20955 4.37581C1.0751 4.2309 0.999998 4.03762 1 3.83653L1.00001 2.77777C1.00001 2.34822 1.3358 2 1.75001 2L14.25 2.00003C14.6642 2.00003 15 2.34825 15 2.77781Z"/></mask><path d="M15 3.83657L14 3.83656V3.83656L15 3.83657ZM15 2.77781L14 2.7778V2.7778L15 2.77781ZM14.25 2.00003L14.25 3.00003H14.25L14.25 2.00003ZM1.75001 2L1.75001 3H1.75001L1.75001 2ZM1.00001 2.77777L7.51019e-06 2.77777V2.77777L1.00001 2.77777ZM1 3.83653L2 3.83654V3.83654L1 3.83653ZM14.7904 4.37583L15.4595 5.11902C15.4818 5.09898 15.5031 5.07795 15.5235 5.05599L14.7904 4.37583ZM10.2095 8.49995L9.54047 7.75676C9.5182 7.7768 9.49685 7.79783 9.47648 7.81979L10.2095 8.49995ZM5.79045 8.49993L6.52352 7.81978C6.50314 7.79782 6.48179 7.77679 6.45953 7.75675L5.79045 8.49993ZM1.20955 4.37581L0.47648 5.05597C0.496854 5.07792 0.518205 5.09896 0.540467 5.119L1.20955 4.37581ZM10 9.03922L9 9.03922V9.03922H10ZM10 14.2222H9V14.2222L10 14.2222ZM9.25 14.9999L9.25 13.9999H9.25L9.25 14.9999ZM6.74999 14.9999L6.74999 15.9999H6.74999L6.74999 14.9999ZM6 14.2222L7 14.2222V14.2222H6ZM16 3.83657L16 2.77782L14 2.7778L14 3.83656L16 3.83657ZM14.25 1.00003L1.75001 1L1.75001 3L14.25 3.00003L14.25 1.00003ZM7.51019e-06 2.77777L0 3.83652L2 3.83654L2.00001 2.77778L7.51019e-06 2.77777ZM14.1214 3.63265L9.54047 7.75676L10.8786 9.24313L15.4595 5.11902L14.1214 3.63265ZM6.45953 7.75675L1.87863 3.63262L0.540467 5.119L5.12136 9.24312L6.45953 7.75675ZM9 9.03922L9 14.2222H11L11 9.03922H9ZM9.25 13.9999L6.74999 13.9999L6.74999 15.9999L9.24999 15.9999L9.25 13.9999ZM7 14.2222V9.03921H5V14.2222H7ZM6.75 13.9999C6.92203 13.9999 7 14.134 7 14.2222L5 14.2221C4.99999 15.1694 5.74952 15.9999 6.74999 15.9999L6.75 13.9999ZM9 14.2222C9 14.134 9.07796 13.9999 9.25 13.9999L9.24999 15.9999C10.2505 15.9999 11 15.1694 11 14.2222L9 14.2222ZM5.05738 9.18009C5.01698 9.13654 5 9.08555 5 9.03921H7C7 8.59069 6.83281 8.15314 6.52352 7.81978L5.05738 9.18009ZM9.47648 7.81979C9.16718 8.15315 9 8.5907 9 9.03922L11 9.03922C11 9.08556 10.983 9.13656 10.9426 9.1801L9.47648 7.81979ZM1.75001 1C0.749549 0.999997 1.43051e-05 1.83052 7.51019e-06 2.77777L2.00001 2.77778C2.00001 2.86592 1.92205 3 1.75001 3L1.75001 1ZM16 2.77782C16 1.83057 15.2505 1.00003 14.25 1.00003L14.25 3.00003C14.078 3.00003 14 2.86594 14 2.7778L16 2.77782ZM14 3.83656C14 3.79023 14.017 3.73923 14.0574 3.69568L15.5235 5.05599C15.8328 4.72263 16 4.28509 16 3.83657L14 3.83656ZM0 3.83652C-3.57628e-06 4.28505 0.167182 4.7226 0.47648 5.05597L1.94262 3.69566C1.98302 3.7392 2 3.7902 2 3.83654L0 3.83652Z" fill="currentColor" mask="url(#path-1-inside-1_2_57131)"/></svg>
