<svg viewBox="0 0 16 16" fill="none" xmlns="http://www.w3.org/2000/svg" width="1em" height="1em"><path d="M9.87501 8.12835C9.86388 8.13837 9.8532 8.14889 9.84301 8.15987C9.62114 8.399 9.5 8.71441 9.5 9.03922L9.5 14.2222C9.5 14.3929 9.37108 14.4999 9.25 14.4999L6.74999 14.4999C6.62891 14.4999 6.49999 14.3929 6.5 14.2222V9.03921C6.5 8.7144 6.37885 8.39899 6.15698 8.15986C6.14679 8.14888 6.13612 8.13836 6.12499 8.12834L1.56512 4.02315C1.52459 3.9736 1.5 3.9077 1.5 3.83654L1.50001 2.77778C1.50001 2.60707 1.62892 2.5 1.75001 2.5L14.25 2.50003C14.3711 2.50003 14.5 2.6071 14.5 2.77781L14.5 3.83656C14.5 3.90773 14.4754 3.97362 14.4349 4.02317L9.87501 8.12835Z" stroke="currentColor" stroke-linejoin="round"/></svg>
