<svg viewBox="0 0 32 32" fill="none" xmlns="http://www.w3.org/2000/svg" stroke="currentColor"><mask id="path-1-inside-1_2_57139" fill="white"><path d="M28 4.55563L28 5.72893C28 6.13111 27.8435 6.51766 27.5634 6.80747L18.4366 16.6042C18.1565 16.894 18 17.2805 18 17.6827L18 27.5C18 28.3591 17.3005 29.0556 16.4375 29.0556L14.5625 29.0555C13.6996 29.0555 13 28.3591 13 27.5V17.6827C13 17.2805 12.8436 16.894 12.5635 16.6041L3.43656 6.80741C3.15646 6.5176 3 6.13104 3 5.72886L3.00002 4.55554C3.00002 3.69644 3.69958 3 4.56252 3L26.4375 3.00006C27.3005 3.00006 28 3.69651 28 4.55563Z"/></mask><path d="M3.43656 6.05555H27.5V5.05555H3.43656V6.05555ZM28 5.72893L27 5.72892V5.72892L28 5.72893ZM28 4.55563L29 4.55564V4.55563L28 4.55563ZM26.4375 3.00006L26.4375 4.00006L26.4375 3.00006ZM4.56252 3L4.56252 2H4.56252L4.56252 3ZM3.00002 4.55554L4.00002 4.55556V4.55555L3.00002 4.55554ZM3 5.72886L2 5.72884V5.72885L3 5.72886ZM27.5634 6.80747L26.8444 6.11251C26.8401 6.11691 26.8359 6.12134 26.8317 6.12582L27.5634 6.80747ZM18.4366 16.6042L19.1556 17.2991C19.1599 17.2947 19.1641 17.2903 19.1683 17.2858L18.4366 16.6042ZM12.5635 16.6041L11.8318 17.2858C11.8359 17.2903 11.8401 17.2947 11.8444 17.2991L12.5635 16.6041ZM3.43656 6.80741L4.16824 6.12576C4.16407 6.12129 4.15987 6.11686 4.15562 6.11246L3.43656 6.80741ZM18 17.6827L17 17.6827V17.6827H18ZM18 27.5H17H18ZM16.4375 29.0556L16.4375 30.0556H16.4375L16.4375 29.0556ZM14.5625 29.0555L14.5625 28.0555H14.5625L14.5625 29.0555ZM13 27.5L14 27.5V27.5H13ZM29 5.72895L29 4.55564L27 4.55561L27 5.72892L29 5.72895ZM26.4375 2.00006L4.56252 2L4.56252 4L26.4375 4.00006L26.4375 2.00006ZM2.00002 4.55553L2 5.72884L4 5.72887L4.00002 4.55556L2.00002 4.55553ZM26.8317 6.12582L17.7049 15.9225L19.1683 17.2858L28.2951 7.48912L26.8317 6.12582ZM13.2951 15.9225L4.16824 6.12576L2.70488 7.48907L11.8318 17.2858L13.2951 15.9225ZM17 17.6827L17 27.5H19V17.6827H17ZM16.4375 28.0556L14.5625 28.0555L14.5625 30.0555L16.4375 30.0556L16.4375 28.0556ZM14 27.5V17.6827H12V27.5H14ZM14.5625 28.0555C14.2476 28.0555 14 27.8026 14 27.5L12 27.5C12 28.9156 13.1515 30.0555 14.5625 30.0555L14.5625 28.0555ZM17 27.5C17 27.8026 16.7524 28.0556 16.4375 28.0556L16.4375 30.0556C17.8485 30.0556 19 28.9156 19 27.5H17ZM11.8444 17.2991C11.9447 17.4029 12 17.5404 12 17.6827H14C14 17.0206 13.7424 16.385 13.2825 15.9092L11.8444 17.2991ZM17.7175 15.9092C17.2576 16.385 17 17.0206 17 17.6827L19 17.6827C19 17.5405 19.0553 17.4029 19.1556 17.2991L17.7175 15.9092ZM4.56252 2C3.1515 2 2.00003 3.13995 2.00002 4.55554L4.00002 4.55555C4.00002 4.25292 4.24765 4 4.56252 4L4.56252 2ZM29 4.55563C29 3.14004 27.8485 2.00006 26.4375 2.00006L26.4375 4.00006C26.7524 4.00006 27 4.25298 27 4.55562L29 4.55563ZM27 5.72892C27 5.87117 26.9447 6.00872 26.8444 6.11251L28.2825 7.50242C28.7424 7.0266 29 6.39105 29 5.72894L27 5.72892ZM2 5.72885C1.99999 6.39098 2.25763 7.02654 2.7175 7.50237L4.15562 6.11246C4.0553 6.00866 4 5.87111 4 5.72886L2 5.72885Z" fill="#282829" mask="url(#path-1-inside-1_2_57139)"/></svg>