<svg viewBox="0 0 16 16" fill="none" xmlns="http://www.w3.org/2000/svg" stroke="currentColor"><path d="M8.5 8.5C8.5 8.22386 8.27614 8 8 8C7.72386 8 7.5 8.22386 7.5 8.5H8.5ZM7.5 13.5C7.5 13.7761 7.72386 14 8 14C8.27614 14 8.5 13.7761 8.5 13.5H7.5ZM9.5 7C9.5 7.82843 8.82843 8.5 8 8.5V9.5C9.38071 9.5 10.5 8.38071 10.5 7H9.5ZM8 8.5C7.17157 8.5 6.5 7.82843 6.5 7H5.5C5.5 8.38071 6.61929 9.5 8 9.5V8.5ZM6.5 7C6.5 6.17157 7.17157 5.5 8 5.5V4.5C6.61929 4.5 5.5 5.61929 5.5 7H6.5ZM8 5.5C8.82843 5.5 9.5 6.17157 9.5 7H10.5C10.5 5.61929 9.38071 4.5 8 4.5V5.5ZM7.5 8.5V13.5H8.5V8.5H7.5Z" fill="#282829"/><path d="M5.14286 4.5C4.43589 5.27314 4 6.33202 4 7.5C4 8.66798 4.43589 9.72686 5.14286 10.5M10.8571 10.5C11.5641 9.72686 12 8.66798 12 7.5C12 6.33202 11.5641 5.27314 10.8571 4.5M3.35714 3C2.20833 4.15971 1.5 5.74803 1.5 7.5C1.5 9.25197 2.20833 10.8403 3.35714 12M12.6429 12C13.7917 10.8403 14.5 9.25197 14.5 7.5C14.5 5.74803 13.7917 4.15971 12.6429 3" stroke-linecap="round"/></svg>
