<svg viewBox="0 0 32 32" fill="none" xmlns="http://www.w3.org/2000/svg" width="1em" height="1em"><path d="M16 15.871L16 28.0001M19 13C19 14.6569 17.6569 16 16 16C14.3431 16 13 14.6569 13 13C13 11.3431 14.3431 10 16 10C17.6569 10 19 11.3431 19 13Z" stroke="currentColor" stroke-linecap="round"/><path d="M21.0999 8C22.2781 9.25268 23 10.9395 23 12.7949C23 14.7617 22.1889 16.5391 20.8829 17.8107M10.9001 8C9.72189 9.25268 9 10.9395 9 12.7949C9 14.7617 9.81114 16.5391 11.1171 17.8107M24.0141 5C25.8656 7.04297 27 9.79397 27 12.8199C27 16.0275 25.7254 18.9262 23.6731 21M7.9859 5C6.13439 7.04297 5 9.79397 5 12.8199C5 16.0275 6.27465 18.9262 8.32694 21" stroke="currentColor" stroke-linecap="round"/></svg>
