<svg viewBox="0 0 16 16" fill="none" xmlns="http://www.w3.org/2000/svg" width="1em" height="1em"><path d="M8 8.5L8 13.5M10 7C10 8.10457 9.10457 9 8 9C6.89543 9 6 8.10457 6 7C6 5.89543 6.89543 5 8 5C9.10457 5 10 5.89543 10 7Z" stroke="currentColor" stroke-linecap="round"/><path d="M5.14286 4.5C4.43589 5.27314 4 6.33202 4 7.5C4 8.66798 4.43589 9.72686 5.14286 10.5M10.8571 10.5C11.5641 9.72686 12 8.66798 12 7.5C12 6.33202 11.5641 5.27314 10.8571 4.5M3.35714 3C2.20833 4.15971 1.5 5.74803 1.5 7.5C1.5 9.25197 2.20833 10.8403 3.35714 12M12.6429 12C13.7917 10.8403 14.5 9.25197 14.5 7.5C14.5 5.74803 13.7917 4.15971 12.6429 3" stroke="currentColor" stroke-linecap="round"/></svg>
