<svg viewBox="0 0 24 24" fill="none" xmlns="http://www.w3.org/2000/svg" stroke="currentColor" width="1em" height="1em"><path d="M11.5 20.5C11.5 20.7761 11.7239 21 12 21C12.2761 21 12.5 20.7761 12.5 20.5H11.5ZM13.5 11C13.5 11.8284 12.8284 12.5 12 12.5V13.5C13.3807 13.5 14.5 12.3807 14.5 11H13.5ZM12 12.5C11.1716 12.5 10.5 11.8284 10.5 11H9.5C9.5 12.3807 10.6193 13.5 12 13.5V12.5ZM10.5 11C10.5 10.1716 11.1716 9.5 12 9.5V8.5C10.6193 8.5 9.5 9.61929 9.5 11H10.5ZM12 9.5C12.8284 9.5 13.5 10.1716 13.5 11H14.5C14.5 9.61929 13.3807 8.5 12 8.5V9.5ZM11.5 13V20.5H12.5V13H11.5Z" fill="#282829"/><path d="M8.78571 7.5C7.99038 8.31163 7.5 9.42322 7.5 10.6493C7.5 11.8755 7.99038 12.9871 8.78571 13.7987M15.2143 13.7987C16.0096 12.9871 16.5 11.8755 16.5 10.6493C16.5 9.42322 16.0096 8.31163 15.2143 7.5M6.64286 5C5.3173 6.39595 4.5 8.30781 4.5 10.4167C4.5 12.5255 5.3173 14.4374 6.64286 15.8333M17.3571 15.8333C18.6827 14.4374 19.5 12.5255 19.5 10.4167C19.5 8.30781 18.6827 6.39595 17.3571 5" stroke-linecap="round"/></svg>
