<svg viewBox="0 0 32 32" fill="none" xmlns="http://www.w3.org/2000/svg" stroke="currentColor" width="1em" height="1em"><path d="M16.5 15.871C16.5 15.5949 16.2761 15.371 16 15.371C15.7239 15.371 15.5 15.5949 15.5 15.871H16.5ZM15.5 28.0001C15.5 28.2762 15.7239 28.5001 16 28.5001C16.2761 28.5001 16.5 28.2762 16.5 28.0001H15.5ZM18.5 13C18.5 14.3807 17.3807 15.5 16 15.5V16.5C17.933 16.5 19.5 14.933 19.5 13H18.5ZM16 15.5C14.6193 15.5 13.5 14.3807 13.5 13H12.5C12.5 14.933 14.067 16.5 16 16.5V15.5ZM13.5 13C13.5 11.6193 14.6193 10.5 16 10.5V9.5C14.067 9.5 12.5 11.067 12.5 13H13.5ZM16 10.5C17.3807 10.5 18.5 11.6193 18.5 13H19.5C19.5 11.067 17.933 9.5 16 9.5V10.5ZM15.5 15.871V28.0001H16.5V15.871H15.5Z" fill="#282829"/><path d="M21.0999 8C22.2781 9.25268 23 10.9395 23 12.7949C23 14.7617 22.1889 16.5391 20.8829 17.8107M10.9001 8C9.72189 9.25268 9 10.9395 9 12.7949C9 14.7617 9.81114 16.5391 11.1171 17.8107M24.0141 5C25.8656 7.04297 27 9.79397 27 12.8199C27 16.0275 25.7254 18.9262 23.6731 21M7.9859 5C6.13439 7.04297 5 9.79397 5 12.8199C5 16.0275 6.27465 18.9262 8.32694 21" stroke-linecap="round"/></svg>
