<svg viewBox="0 0 16 16" fill="none" xmlns="http://www.w3.org/2000/svg" width="1em" height="1em"><path d="M1.5 3C1.5 2.17157 2.17157 1.5 3 1.5H13C13.8284 1.5 14.5 2.17157 14.5 3V13C14.5 13.8284 13.8284 14.5 13 14.5H3C2.17157 14.5 1.5 13.8284 1.5 13V3Z" stroke="currentColor"/><path d="M2 3.5H14" stroke="currentColor"/><path d="M3.5 7C3.5 6.72386 3.72386 6.5 4 6.5H7C7.27614 6.5 7.5 6.72386 7.5 7V12C7.5 12.2761 7.27614 12.5 7 12.5H4C3.72386 12.5 3.5 12.2761 3.5 12V7Z" stroke="currentColor"/><path d="M9.5 7C9.22386 7 9 7.22386 9 7.5C9 7.77614 9.22386 8 9.5 8V7ZM12.5 8C12.7761 8 13 7.77614 13 7.5C13 7.22386 12.7761 7 12.5 7V8ZM9.5 9C9.22386 9 9 9.22386 9 9.5C9 9.77614 9.22386 10 9.5 10V9ZM12.5 10C12.7761 10 13 9.77614 13 9.5C13 9.22386 12.7761 9 12.5 9V10ZM9.5 11C9.22386 11 9 11.2239 9 11.5C9 11.7761 9.22386 12 9.5 12V11ZM12.5 12C12.7761 12 13 11.7761 13 11.5C13 11.2239 12.7761 11 12.5 11V12ZM9.5 8H12.5V7H9.5V8ZM9.5 10H12.5V9H9.5V10ZM9.5 12H12.5V11H9.5V12Z" fill="currentColor"/></svg>
