<svg viewBox="0 0 24 24" fill="none" xmlns="http://www.w3.org/2000/svg" width="1em" height="1em"><path d="M16.5 6.5H19.5C20.6046 6.5 21.5 7.39543 21.5 8.5V17.5C21.5 18.6046 20.6046 19.5 19.5 19.5L4.5 19.5C3.39543 19.5 2.5 18.6046 2.5 17.5L2.5 8.5C2.5 7.39543 3.39543 6.5 4.5 6.5L7.5 6.5" stroke="currentColor" stroke-linecap="round"/><path d="M16.5 6.5L15.3429 4.07006C15.1771 3.72182 14.8257 3.5 14.44 3.5L9.30402 3.5C8.88526 3.5 8.51085 3.76092 8.36587 4.15379L7.50003 6.5" stroke="currentColor"/><circle cx="12" cy="13" r="4.5" stroke="currentColor"/><path d="M11 5.5H13" stroke="currentColor" stroke-linecap="round"/><circle cx="18.5" cy="8.5" r="0.25" stroke="currentColor" stroke-width="0.5"/></svg>
