<svg xmlns="http://www.w3.org/2000/svg" fill="none" viewBox="0 0 32 32" width="1em" height="1em"><path stroke="currentColor" stroke-linecap="round" d="M21.5 9.5h6a2 2 0 0 1 2 2v13a2 2 0 0 1-2 2h-23a2 2 0 0 1-2-2v-13a2 2 0 0 1 2-2H10"/><path stroke="currentColor" d="M8.5 9.5v-1a1 1 0 0 0-1-1h-2a1 1 0 0 0-1 1v1m17 0-1.257-3.351a1 1 0 0 0-.936-.649h-7.114a1 1 0 0 0-.936.649L10 9.5"/><circle cx="16" cy="18" r="6.5" stroke="currentColor"/><path stroke="currentColor" stroke-linecap="round" d="M13.5 7.5h4"/><circle cx="25.5" cy="12.5" r="1" stroke="currentColor"/></svg>
