<svg viewBox="0 0 32 32" fill="none" xmlns="http://www.w3.org/2000/svg" width="1em" height="1em"><path d="M21.5 9.5H27.5C28.6046 9.5 29.5 10.3954 29.5 11.5V24.5C29.5 25.6046 28.6046 26.5 27.5 26.5H4.5C3.39543 26.5 2.5 25.6046 2.5 24.5V11.5C2.5 10.3954 3.39543 9.5 4.5 9.5H10" stroke="currentColor" stroke-linecap="round"/><path d="M8.5 9.5V8.5C8.5 7.94772 8.05228 7.5 7.5 7.5H5.5C4.94772 7.5 4.5 7.94772 4.5 8.5V9.5" stroke="currentColor"/><path d="M21.5 9.5L20.2433 6.14888C20.097 5.75857 19.7238 5.5 19.307 5.5H12.193C11.7762 5.5 11.403 5.75857 11.2567 6.14888L10 9.5" stroke="currentColor"/><circle cx="16" cy="18" r="6.5" stroke="currentColor"/><path d="M13.5 7.5H17.5" stroke="currentColor" stroke-linecap="round"/><circle cx="25.5" cy="12.5" r="1" stroke="currentColor"/></svg>
