<svg viewBox="0 0 32 32" fill="none" xmlns="http://www.w3.org/2000/svg" stroke="currentColor"><path d="M21.5 9C21.2239 9 21 9.22386 21 9.5C21 9.77614 21.2239 10 21.5 10V9ZM10 10C10.2761 10 10.5 9.77614 10.5 9.5C10.5 9.22386 10.2761 9 10 9V10ZM29 11.5V24.5H30V11.5H29ZM27.5 26H4.5V27H27.5V26ZM3 24.5V11.5H2V24.5H3ZM21.5 10H27.5V9H21.5V10ZM4.5 10H10V9H4.5V10ZM4.5 26C3.67157 26 3 25.3284 3 24.5H2C2 25.8807 3.11929 27 4.5 27V26ZM29 24.5C29 25.3284 28.3284 26 27.5 26V27C28.8807 27 30 25.8807 30 24.5H29ZM30 11.5C30 10.1193 28.8807 9 27.5 9V10C28.3284 10 29 10.6716 29 11.5H30ZM3 11.5C3 10.6716 3.67157 10 4.5 10V9C3.11929 9 2 10.1193 2 11.5H3Z" fill="#282829"/><path d="M8.5 9.5V8.5C8.5 7.94772 8.05228 7.5 7.5 7.5H5.5C4.94772 7.5 4.5 7.94772 4.5 8.5V9.5"/><path d="M21.5 9.5L20.2433 6.14888C20.097 5.75857 19.7238 5.5 19.307 5.5H12.193C11.7762 5.5 11.403 5.75857 11.2567 6.14888L10 9.5"/><circle cx="16" cy="18" r="6.5"/><path d="M13.5 7.5H17.5" stroke-linecap="round"/><circle cx="25.5" cy="12.5" r="1"/></svg>
