<svg viewBox="0 0 24 24" fill="none" xmlns="http://www.w3.org/2000/svg" stroke="currentColor"><path d="M16.5 6.5H19.5C20.6046 6.5 21.5 7.39543 21.5 8.5V17.5C21.5 18.6046 20.6046 19.5 19.5 19.5H4.5C3.39543 19.5 2.5 18.6046 2.5 17.5V8.5C2.5 7.39543 3.39543 6.5 4.5 6.5H7.5" stroke-linecap="round"/><path d="M16.5 6.5L15.3429 4.07006C15.177 3.72182 14.8257 3.5 14.44 3.5H9.30399C8.88523 3.5 8.51082 3.76092 8.36584 4.15379L7.5 6.5"/><circle cx="12" cy="13" r="4.5"/><path d="M11 5C10.7239 5 10.5 5.22386 10.5 5.5C10.5 5.77614 10.7239 6 11 6V5ZM13 6C13.2761 6 13.5 5.77614 13.5 5.5C13.5 5.22386 13.2761 5 13 5V6ZM11 6H13V5H11V6Z" fill="#282829"/><circle cx="18.5" cy="8.5" r="0.25" stroke-width="0.5"/></svg>