<svg xmlns="http://www.w3.org/2000/svg" fill="none" viewBox="0 0 24 24" width="1em" height="1em"><path stroke="currentColor" stroke-linecap="round" d="M16.5 6.5h3a2 2 0 0 1 2 2v9a2 2 0 0 1-2 2h-15a2 2 0 0 1-2-2v-9a2 2 0 0 1 2-2h3"/><path stroke="currentColor" d="m16.5 6.5-1.157-2.43a1 1 0 0 0-.903-.57H9.304a1 1 0 0 0-.938.654L7.5 6.5"/><circle cx="12" cy="13" r="4.5" stroke="currentColor"/><path stroke="currentColor" stroke-linecap="round" d="M11 5.5h2"/><circle cx="18.5" cy="8.5" r=".25" stroke="currentColor" stroke-width=".5"/></svg>
