<svg viewBox="0 0 16 16" fill="none" xmlns="http://www.w3.org/2000/svg" width="1em" height="1em"><path d="M1.5 10C1.22386 10 1 10.2239 1 10.5C1 10.7761 1.22386 11 1.5 11V10ZM14.5 11C14.7761 11 15 10.7761 15 10.5C15 10.2239 14.7761 10 14.5 10V11ZM11.9414 10.4048L11.5156 10.6669L11.9414 10.4048ZM7.82967 4.27679L8.2555 4.53884L7.82967 4.27679ZM8.17033 4.27679L7.7445 4.53884L8.17033 4.27679ZM1.5 11H3.88824V10H1.5V11ZM4.4844 10.6669L8.2555 4.53884L7.40384 4.01474L3.63274 10.1428L4.4844 10.6669ZM7.7445 4.53884L11.5156 10.6669L12.3673 10.1428L8.59616 4.01474L7.7445 4.53884ZM12.1118 11H14.5V10H12.1118V11ZM11.5156 10.6669C11.643 10.8739 11.8687 11 12.1118 11V10C12.2159 10 12.3127 10.054 12.3673 10.1428L11.5156 10.6669ZM8.2555 4.53884C8.13835 4.7292 7.86165 4.7292 7.7445 4.53884L8.59616 4.01474C8.32282 3.57057 7.67718 3.57056 7.40384 4.01474L8.2555 4.53884ZM3.88824 11C4.13132 11 4.357 10.8739 4.4844 10.6669L3.63274 10.1428C3.68734 10.054 3.78406 10 3.88824 10V11Z" fill="currentColor"/></svg>
