<svg viewBox="0 0 32 32" fill="none" xmlns="http://www.w3.org/2000/svg" width="1em" height="1em"><path d="M2.5 21C2.22386 21 2 21.2239 2 21.5C2 21.7761 2.22386 22 2.5 22V21ZM29.5 22C29.7761 22 30 21.7761 30 21.5C30 21.2239 29.7761 21 29.5 21V22ZM24.4416 21.4038L24.869 21.1443L24.4416 21.4038ZM15.829 7.78158L16.2564 8.04107L15.829 7.78158ZM16.171 7.78158L15.7436 8.04107L16.171 7.78158ZM7.55841 21.4038L7.9858 21.6633L7.55841 21.4038ZM2.5 22H7.38745V21H2.5V22ZM7.9858 21.6633L16.2564 8.04107L15.4016 7.52209L7.13102 21.1443L7.9858 21.6633ZM15.7436 8.04107L24.0142 21.6633L24.869 21.1443L16.5984 7.52209L15.7436 8.04107ZM24.6125 22H29.5V21H24.6125V22ZM24.0142 21.6633C24.1411 21.8723 24.368 22 24.6125 22V21C24.7174 21 24.8146 21.0547 24.869 21.1443L24.0142 21.6633ZM16.2564 8.04107C16.1396 8.23347 15.8604 8.23348 15.7436 8.04107L16.5984 7.52209C16.3258 7.07313 15.6742 7.07314 15.4016 7.52209L16.2564 8.04107ZM7.38745 22C7.63203 22 7.85887 21.8723 7.9858 21.6633L7.13102 21.1443C7.18542 21.0547 7.28263 21 7.38745 21V22Z" fill="currentColor"/></svg>
