<svg viewBox="0 0 24 24" fill="none" xmlns="http://www.w3.org/2000/svg" width="1em" height="1em"><path d="M2.5 15C2.22386 15 2 15.2239 2 15.5C2 15.7761 2.22386 16 2.5 16V15ZM21.5 16C21.7761 16 22 15.7761 22 15.5C22 15.2239 21.7761 15 21.5 15V16ZM17.4409 15.4086L17.0211 15.6803L17.4409 15.4086ZM11.8321 7.2595L11.4123 6.98788L11.8321 7.2595ZM12.1679 7.2595L12.5877 6.98788L12.1679 7.2595ZM6.55911 15.4087L6.97889 15.6803L6.55911 15.4087ZM2.5 16H6.39119V15H2.5V16ZM6.97889 15.6803L12.2519 7.53113L11.4123 6.98788L6.13932 15.137L6.97889 15.6803ZM11.7481 7.53113L17.0211 15.6803L17.8607 15.137L12.5877 6.98788L11.7481 7.53113ZM17.6088 16H21.5V15H17.6088V16ZM17.0211 15.6803C17.1501 15.8796 17.3714 16 17.6088 16V15C17.7106 15 17.8054 15.0516 17.8607 15.137L17.0211 15.6803ZM12.2519 7.53113C12.1337 7.71383 11.8663 7.71383 11.7481 7.53113L12.5877 6.98788C12.3119 6.56158 11.6881 6.56158 11.4123 6.98788L12.2519 7.53113ZM6.39119 16C6.62864 16 6.8499 15.8796 6.97889 15.6803L6.13932 15.137C6.19461 15.0516 6.28943 15 6.39119 15V16Z" fill="currentColor"/></svg>
