<svg viewBox="0 0 32 32" fill="none" xmlns="http://www.w3.org/2000/svg" stroke="currentColor" width="1em" height="1em"><rect x="4.5" y="23.5" width="6" height="6" rx="0.5"/><line x1="13.5" y1="24.5" x2="27.5" y2="24.5" stroke-linecap="round"/><line x1="13.5" y1="28.5" x2="27.5" y2="28.5" stroke-linecap="round"/><line x1="13.5" y1="26.5" x2="27.5" y2="26.5" stroke-linecap="round"/><rect x="2.5" y="15.5" width="27" height="6" rx="1.5"/><circle cx="25.9558" cy="18.4558" r="0.955843"/><path d="M22.4325 10.8398L21.9451 10.9512C21.9971 11.1785 22.1993 11.3398 22.4325 11.3398V10.8398ZM21.353 8.22178L20.9994 7.86823C20.8372 8.03046 20.8062 8.28229 20.9242 8.47903L21.353 8.22178ZM22.0817 7.49306L22.4352 7.84662L22.0817 7.49306ZM22.0817 6.73736L21.7281 7.09091L22.0817 6.73736ZM19.7876 4.44325L20.1411 4.08969V4.08969L19.7876 4.44325ZM19.0319 4.44325L19.3854 4.7968V4.7968L19.0319 4.44325ZM18.3031 5.17196L18.0459 5.60071C18.2426 5.71875 18.4944 5.68775 18.6567 5.52552L18.3031 5.17196ZM15.6851 4.09238H15.1851C15.1851 4.3256 15.3464 4.52785 15.5737 4.57981L15.6851 4.09238ZM11.3668 4.09238L11.4782 4.57981C11.7056 4.52785 11.8668 4.3256 11.8668 4.09238H11.3668ZM8.7488 5.17196L8.40173 5.53189C8.56445 5.68879 8.81221 5.71701 9.00604 5.60071L8.7488 5.17196ZM7.99308 4.44325L7.63947 4.79686L7.64602 4.80317L7.99308 4.44325ZM7.23737 4.44325L6.88382 4.08969L7.23737 4.44325ZM4.94325 6.73736L5.29681 7.09091L4.94325 6.73736ZM4.94325 7.49306L5.29681 7.13951L5.29681 7.13951L4.94325 7.49306ZM5.67197 8.22178L6.10072 8.47903C6.21876 8.28229 6.18776 8.03046 6.02553 7.86823L5.67197 8.22178ZM4.59239 10.8398V11.3398C4.82561 11.3398 5.02785 11.1785 5.07982 10.9512L4.59239 10.8398ZM23.9979 11.3796L23.5 11.3343C23.4986 11.3493 23.4979 11.3644 23.4979 11.3796H23.9979ZM19 13.5489C19 13.8251 19.2239 14.0489 19.5 14.0489C19.7761 14.0489 20 13.8251 20 13.5489H19ZM7 13.5489C7 13.8251 7.22386 14.0489 7.5 14.0489C7.77614 14.0489 8 13.8251 8 13.5489H7ZM9.65073 13.5C9.65073 13.7761 9.87459 14 10.1507 14C10.4269 14 10.6507 13.7761 10.6507 13.5H9.65073ZM16.2514 13.5C16.2514 13.7761 16.4753 14 16.7514 14C17.0275 14 17.2514 13.7761 17.2514 13.5H16.2514ZM23.4979 13.5C23.4979 13.7761 23.7218 14 23.9979 14C24.2741 14 24.4979 13.7761 24.4979 13.5H23.4979ZM2.5 13.5C2.5 13.7761 2.72386 14 3 14C3.27614 14 3.5 13.7761 3.5 13.5H2.5ZM23.4851 10.3398H22.4325V11.3398H23.4851V10.3398ZM22.92 10.7284C22.6903 9.72358 22.2896 8.81105 21.7817 7.96453L20.9242 8.47903C21.3879 9.25188 21.7429 10.0667 21.9451 10.9512L22.92 10.7284ZM21.7065 8.57534L22.4352 7.84662L21.7281 7.13951L20.9994 7.86823L21.7065 8.57534ZM22.4352 7.84662C22.8464 7.43544 22.8464 6.79498 22.4352 6.3838L21.7281 7.09091C21.7376 7.10037 21.7411 7.10727 21.7423 7.11019C21.7436 7.11323 21.7436 7.11476 21.7436 7.11521C21.7436 7.11566 21.7436 7.11719 21.7423 7.12023C21.7411 7.12315 21.7376 7.13005 21.7281 7.13951L22.4352 7.84662ZM22.4352 6.3838L20.1411 4.08969L19.434 4.7968L21.7281 7.09091L22.4352 6.3838ZM20.1411 4.08969C19.7299 3.67851 19.0895 3.67851 18.6783 4.08969L19.3854 4.7968C19.3949 4.78734 19.4018 4.78384 19.4047 4.78261C19.4077 4.78133 19.4093 4.78131 19.4097 4.78131C19.4102 4.78131 19.4117 4.78133 19.4147 4.78261C19.4177 4.78384 19.4246 4.78734 19.434 4.7968L20.1411 4.08969ZM18.6783 4.08969L17.9496 4.81841L18.6567 5.52552L19.3854 4.7968L18.6783 4.08969ZM18.5604 4.74322C17.7139 4.23531 16.8013 3.83461 15.7965 3.60495L15.5737 4.57981C16.4582 4.78198 17.273 5.137 18.0459 5.60071L18.5604 4.74322ZM16.1851 4.09238V3.03979H15.1851V4.09238H16.1851ZM16.1851 3.03979C16.1851 2.46676 15.7184 2 15.1453 2V3C15.1547 3 15.1643 3.00339 15.173 3.01212C15.1817 3.02085 15.1851 3.0304 15.1851 3.03979H16.1851ZM15.1453 2H11.9066V3H15.1453V2ZM11.9066 2C11.3336 2 10.8668 2.46676 10.8668 3.03979H11.8668C11.8668 3.03041 11.8702 3.02085 11.8789 3.01212C11.8876 3.00339 11.8972 3 11.9066 3V2ZM10.8668 3.03979V4.09238H11.8668V3.03979H10.8668ZM11.2554 3.60495C10.2506 3.83461 9.33807 4.23531 8.49155 4.74322L9.00604 5.60071C9.7789 5.137 10.5937 4.78198 11.4782 4.57981L11.2554 3.60495ZM9.09586 4.81204L8.34015 4.08332L7.64602 4.80317L8.40173 5.53189L9.09586 4.81204ZM8.34664 4.08969C7.93546 3.67851 7.295 3.67851 6.88382 4.08969L7.59093 4.7968C7.60039 4.78734 7.60729 4.78384 7.61021 4.78261C7.61325 4.78133 7.61478 4.78131 7.61523 4.78131C7.61568 4.78131 7.61721 4.78133 7.62025 4.78261C7.62317 4.78384 7.63007 4.78734 7.63953 4.7968L8.34664 4.08969ZM6.88382 4.08969L4.5897 6.3838L5.29681 7.09091L7.59093 4.7968L6.88382 4.08969ZM4.5897 6.3838C4.17852 6.79498 4.17852 7.43544 4.5897 7.84662L5.29681 7.13951C5.28735 7.13005 5.28385 7.12315 5.28262 7.12023C5.28134 7.11719 5.28132 7.11566 5.28132 7.11521C5.28132 7.11476 5.28134 7.11323 5.28262 7.11019C5.28385 7.10727 5.28735 7.10037 5.29681 7.09091L4.5897 6.3838ZM4.5897 7.84662L5.31842 8.57533L6.02553 7.86823L5.29681 7.13951L4.5897 7.84662ZM5.24323 7.96453C4.73532 8.81105 4.33462 9.72358 4.10496 10.7284L5.07982 10.9512C5.28199 10.0667 5.63701 9.25188 6.10072 8.47903L5.24323 7.96453ZM4.59239 10.3398H3.53979V11.3398H4.59239V10.3398ZM3.53979 10.3398C2.96677 10.3398 2.5 10.8065 2.5 11.3796H3.5C3.5 11.3702 3.50339 11.3606 3.51212 11.3519C3.52085 11.3432 3.5304 11.3398 3.53979 11.3398V10.3398ZM24.4959 11.4248C24.552 10.8081 24.0482 10.3398 23.4851 10.3398V11.3398C23.496 11.3398 23.5017 11.344 23.5033 11.3456C23.5038 11.3462 23.5026 11.3451 23.5014 11.3418C23.5008 11.3402 23.5004 11.3384 23.5002 11.3367C23.4999 11.335 23.5 11.3341 23.5 11.3343L24.4959 11.4248ZM8 13.5489C8 10.5117 10.4624 8.04954 13.5 8.04954V7.04954C9.9102 7.04954 7 9.95937 7 13.5489H8ZM13.5 8.04954C16.5376 8.04954 19 10.5117 19 13.5489H20C20 9.95937 17.0898 7.04954 13.5 7.04954V8.04954ZM10.6507 13.5C10.6507 11.9537 11.9044 10.7 13.4511 10.7V9.7C11.3522 9.7 9.65073 11.4013 9.65073 13.5H10.6507ZM13.4511 10.7C14.9977 10.7 16.2514 11.9537 16.2514 13.5H17.2514C17.2514 11.4013 15.5499 9.7 13.4511 9.7V10.7ZM23.9979 11.3796C23.4979 11.3796 23.4979 11.3796 23.4979 11.3796C23.4979 11.3796 23.4979 11.3796 23.4979 11.3796C23.4979 11.3796 23.4979 11.3797 23.4979 11.3797C23.4979 11.3797 23.4979 11.3798 23.4979 11.3798C23.4979 11.3798 23.4979 11.3799 23.4979 11.3799C23.4979 11.38 23.4979 11.38 23.4979 11.3801C23.4979 11.3801 23.4979 11.3802 23.4979 11.3803C23.4979 11.3803 23.4979 11.3804 23.4979 11.3805C23.4979 11.3806 23.4979 11.3807 23.4979 11.3807C23.4979 11.3808 23.4979 11.3809 23.4979 11.381C23.4979 11.3811 23.4979 11.3812 23.4979 11.3813C23.4979 11.3814 23.4979 11.3815 23.4979 11.3817C23.4979 11.3818 23.4979 11.3819 23.4979 11.382C23.4979 11.3822 23.4979 11.3823 23.4979 11.3824C23.4979 11.3826 23.4979 11.3827 23.4979 11.3828C23.4979 11.383 23.4979 11.3831 23.4979 11.3833C23.4979 11.3834 23.4979 11.3836 23.4979 11.3838C23.4979 11.3839 23.4979 11.3841 23.4979 11.3843C23.4979 11.3844 23.4979 11.3846 23.4979 11.3848C23.4979 11.385 23.4979 11.3852 23.4979 11.3854C23.4979 11.3856 23.4979 11.3858 23.4979 11.386C23.4979 11.3862 23.4979 11.3864 23.4979 11.3866C23.4979 11.3868 23.4979 11.387 23.4979 11.3872C23.4979 11.3874 23.4979 11.3877 23.4979 11.3879C23.4979 11.3881 23.4979 11.3884 23.4979 11.3886C23.4979 11.3888 23.4979 11.3891 23.4979 11.3893C23.4979 11.3896 23.4979 11.3898 23.4979 11.3901C23.4979 11.3903 23.4979 11.3906 23.4979 11.3909C23.4979 11.3911 23.4979 11.3914 23.4979 11.3917C23.4979 11.392 23.4979 11.3922 23.4979 11.3925C23.4979 11.3928 23.4979 11.3931 23.4979 11.3934C23.4979 11.3937 23.4979 11.394 23.4979 11.3943C23.4979 11.3946 23.4979 11.3949 23.4979 11.3952C23.4979 11.3955 23.4979 11.3958 23.4979 11.3961C23.4979 11.3965 23.4979 11.3968 23.4979 11.3971C23.4979 11.3974 23.4979 11.3978 23.4979 11.3981C23.4979 11.3985 23.4979 11.3988 23.4979 11.3991C23.4979 11.3995 23.4979 11.3998 23.4979 11.4002C23.4979 11.4006 23.4979 11.4009 23.4979 11.4013C23.4979 11.4016 23.4979 11.402 23.4979 11.4024C23.4979 11.4028 23.4979 11.4031 23.4979 11.4035C23.4979 11.4039 23.4979 11.4043 23.4979 11.4047C23.4979 11.4051 23.4979 11.4055 23.4979 11.4059C23.4979 11.4063 23.4979 11.4067 23.4979 11.4071C23.4979 11.4075 23.4979 11.4079 23.4979 11.4083C23.4979 11.4087 23.4979 11.4092 23.4979 11.4096C23.4979 11.41 23.4979 11.4104 23.4979 11.4109C23.4979 11.4113 23.4979 11.4117 23.4979 11.4122C23.4979 11.4126 23.4979 11.4131 23.4979 11.4135C23.4979 11.414 23.4979 11.4144 23.4979 11.4149C23.4979 11.4154 23.4979 11.4158 23.4979 11.4163C23.4979 11.4168 23.4979 11.4172 23.4979 11.4177C23.4979 11.4182 23.4979 11.4187 23.4979 11.4192C23.4979 11.4196 23.4979 11.4201 23.4979 11.4206C23.4979 11.4211 23.4979 11.4216 23.4979 11.4221C23.4979 11.4226 23.4979 11.4231 23.4979 11.4236C23.4979 11.4242 23.4979 11.4247 23.4979 11.4252C23.4979 11.4257 23.4979 11.4262 23.4979 11.4268C23.4979 11.4273 23.4979 11.4278 23.4979 11.4284C23.4979 11.4289 23.4979 11.4294 23.4979 11.43C23.4979 11.4305 23.4979 11.4311 23.4979 11.4316C23.4979 11.4322 23.4979 11.4327 23.4979 11.4333C23.4979 11.4339 23.4979 11.4344 23.4979 11.435C23.4979 11.4356 23.4979 11.4361 23.4979 11.4367C23.4979 11.4373 23.4979 11.4379 23.4979 11.4384C23.4979 11.439 23.4979 11.4396 23.4979 11.4402C23.4979 11.4408 23.4979 11.4414 23.4979 11.442C23.4979 11.4426 23.4979 11.4432 23.4979 11.4438C23.4979 11.4444 23.4979 11.4451 23.4979 11.4457C23.4979 11.4463 23.4979 11.4469 23.4979 11.4475C23.4979 11.4482 23.4979 11.4488 23.4979 11.4494C23.4979 11.4501 23.4979 11.4507 23.4979 11.4513C23.4979 11.452 23.4979 11.4526 23.4979 11.4533C23.4979 11.4539 23.4979 11.4546 23.4979 11.4552C23.4979 11.4559 23.4979 11.4566 23.4979 11.4572C23.4979 11.4579 23.4979 11.4586 23.4979 11.4592C23.4979 11.4599 23.4979 11.4606 23.4979 11.4613C23.4979 11.462 23.4979 11.4626 23.4979 11.4633C23.4979 11.464 23.4979 11.4647 23.4979 11.4654C23.4979 11.4661 23.4979 11.4668 23.4979 11.4675C23.4979 11.4682 23.4979 11.4689 23.4979 11.4696C23.4979 11.4704 23.4979 11.4711 23.4979 11.4718C23.4979 11.4725 23.4979 11.4732 23.4979 11.474C23.4979 11.4747 23.4979 11.4754 23.4979 11.4762C23.4979 11.4769 23.4979 11.4776 23.4979 11.4784C23.4979 11.4791 23.4979 11.4799 23.4979 11.4806C23.4979 11.4814 23.4979 11.4821 23.4979 11.4829C23.4979 11.4836 23.4979 11.4844 23.4979 11.4852C23.4979 11.4859 23.4979 11.4867 23.4979 11.4875C23.4979 11.4883 23.4979 11.489 23.4979 11.4898C23.4979 11.4906 23.4979 11.4914 23.4979 11.4922C23.4979 11.493 23.4979 11.4938 23.4979 11.4945C23.4979 11.4953 23.4979 11.4961 23.4979 11.4969C23.4979 11.4978 23.4979 11.4986 23.4979 11.4994C23.4979 11.5002 23.4979 11.501 23.4979 11.5018C23.4979 11.5026 23.4979 11.5035 23.4979 11.5043C23.4979 11.5051 23.4979 11.5059 23.4979 11.5068C23.4979 11.5076 23.4979 11.5084 23.4979 11.5093C23.4979 11.5101 23.4979 11.511 23.4979 11.5118C23.4979 11.5127 23.4979 11.5135 23.4979 11.5144C23.4979 11.5152 23.4979 11.5161 23.4979 11.5169C23.4979 11.5178 23.4979 11.5187 23.4979 11.5195C23.4979 11.5204 23.4979 11.5213 23.4979 11.5222C23.4979 11.523 23.4979 11.5239 23.4979 11.5248C23.4979 11.5257 23.4979 11.5266 23.4979 11.5275C23.4979 11.5284 23.4979 11.5292 23.4979 11.5301C23.4979 11.531 23.4979 11.5319 23.4979 11.5329C23.4979 11.5338 23.4979 11.5347 23.4979 11.5356C23.4979 11.5365 23.4979 11.5374 23.4979 11.5383C23.4979 11.5392 23.4979 11.5402 23.4979 11.5411C23.4979 11.542 23.4979 11.5429 23.4979 11.5439C23.4979 11.5448 23.4979 11.5458 23.4979 11.5467C23.4979 11.5476 23.4979 11.5486 23.4979 11.5495C23.4979 11.5505 23.4979 11.5514 23.4979 11.5524C23.4979 11.5533 23.4979 11.5543 23.4979 11.5552C23.4979 11.5562 23.4979 11.5572 23.4979 11.5581C23.4979 11.5591 23.4979 11.5601 23.4979 11.5611C23.4979 11.562 23.4979 11.563 23.4979 11.564C23.4979 11.565 23.4979 11.566 23.4979 11.5669C23.4979 11.5679 23.4979 11.5689 23.4979 11.5699C23.4979 11.5709 23.4979 11.5719 23.4979 11.5729C23.4979 11.5739 23.4979 11.5749 23.4979 11.5759C23.4979 11.5769 23.4979 11.5779 23.4979 11.579C23.4979 11.58 23.4979 11.581 23.4979 11.582C23.4979 11.583 23.4979 11.5841 23.4979 11.5851C23.4979 11.5861 23.4979 11.5871 23.4979 11.5882C23.4979 11.5892 23.4979 11.5903 23.4979 11.5913C23.4979 11.5923 23.4979 11.5934 23.4979 11.5944C23.4979 11.5955 23.4979 11.5965 23.4979 11.5976C23.4979 11.5986 23.4979 11.5997 23.4979 11.6008C23.4979 11.6018 23.4979 11.6029 23.4979 11.6039C23.4979 11.605 23.4979 11.6061 23.4979 11.6072C23.4979 11.6082 23.4979 11.6093 23.4979 11.6104C23.4979 11.6115 23.4979 11.6125 23.4979 11.6136C23.4979 11.6147 23.4979 11.6158 23.4979 11.6169C23.4979 11.618 23.4979 11.6191 23.4979 11.6202C23.4979 11.6213 23.4979 11.6224 23.4979 11.6235C23.4979 11.6246 23.4979 11.6257 23.4979 11.6268C23.4979 11.6279 23.4979 11.629 23.4979 11.6302C23.4979 11.6313 23.4979 11.6324 23.4979 11.6335C23.4979 11.6346 23.4979 11.6358 23.4979 11.6369C23.4979 11.638 23.4979 11.6392 23.4979 11.6403C23.4979 11.6414 23.4979 11.6426 23.4979 11.6437C23.4979 11.6449 23.4979 11.646 23.4979 11.6472C23.4979 11.6483 23.4979 11.6495 23.4979 11.6506C23.4979 11.6518 23.4979 11.6529 23.4979 11.6541C23.4979 11.6552 23.4979 11.6564 23.4979 11.6576C23.4979 11.6587 23.4979 11.6599 23.4979 11.6611C23.4979 11.6623 23.4979 11.6634 23.4979 11.6646C23.4979 11.6658 23.4979 11.667 23.4979 11.6682C23.4979 11.6693 23.4979 11.6705 23.4979 11.6717C23.4979 11.6729 23.4979 11.6741 23.4979 11.6753C23.4979 11.6765 23.4979 11.6777 23.4979 11.6789C23.4979 11.6801 23.4979 11.6813 23.4979 11.6825C23.4979 11.6837 23.4979 11.6849 23.4979 11.6861C23.4979 11.6874 23.4979 11.6886 23.4979 11.6898C23.4979 11.691 23.4979 11.6922 23.4979 11.6935C23.4979 11.6947 23.4979 11.6959 23.4979 11.6971C23.4979 11.6984 23.4979 11.6996 23.4979 11.7009C23.4979 11.7021 23.4979 11.7033 23.4979 11.7046C23.4979 11.7058 23.4979 11.7071 23.4979 11.7083C23.4979 11.7096 23.4979 11.7108 23.4979 11.7121C23.4979 11.7133 23.4979 11.7146 23.4979 11.7158C23.4979 11.7171 23.4979 11.7184 23.4979 11.7196C23.4979 11.7209 23.4979 11.7221 23.4979 11.7234C23.4979 11.7247 23.4979 11.726 23.4979 11.7272C23.4979 11.7285 23.4979 11.7298 23.4979 11.7311C23.4979 11.7324 23.4979 11.7336 23.4979 11.7349C23.4979 11.7362 23.4979 11.7375 23.4979 11.7388C23.4979 11.7401 23.4979 11.7414 23.4979 11.7427C23.4979 11.744 23.4979 11.7453 23.4979 11.7466C23.4979 11.7479 23.4979 11.7492 23.4979 11.7505C23.4979 11.7518 23.4979 11.7531 23.4979 11.7544C23.4979 11.7558 23.4979 11.7571 23.4979 11.7584C23.4979 11.7597 23.4979 11.761 23.4979 11.7624C23.4979 11.7637 23.4979 11.765 23.4979 11.7663C23.4979 11.7677 23.4979 11.769 23.4979 11.7703C23.4979 11.7717 23.4979 11.773 23.4979 11.7743C23.4979 11.7757 23.4979 11.777 23.4979 11.7784C23.4979 11.7797 23.4979 11.7811 23.4979 11.7824C23.4979 11.7838 23.4979 11.7851 23.4979 11.7865C23.4979 11.7878 23.4979 11.7892 23.4979 11.7906C23.4979 11.7919 23.4979 11.7933 23.4979 11.7946C23.4979 11.796 23.4979 11.7974 23.4979 11.7988C23.4979 11.8001 23.4979 11.8015 23.4979 11.8029C23.4979 11.8042 23.4979 11.8056 23.4979 11.807C23.4979 11.8084 23.4979 11.8098 23.4979 11.8112C23.4979 11.8125 23.4979 11.8139 23.4979 11.8153C23.4979 11.8167 23.4979 11.8181 23.4979 11.8195C23.4979 11.8209 23.4979 11.8223 23.4979 11.8237C23.4979 11.8251 23.4979 11.8265 23.4979 11.8279C23.4979 11.8293 23.4979 11.8307 23.4979 11.8321C23.4979 11.8335 23.4979 11.835 23.4979 11.8364C23.4979 11.8378 23.4979 11.8392 23.4979 11.8406C23.4979 11.842 23.4979 11.8435 23.4979 11.8449C23.4979 11.8463 23.4979 11.8477 23.4979 11.8492C23.4979 11.8506 23.4979 11.852 23.4979 11.8535C23.4979 11.8549 23.4979 11.8563 23.4979 11.8578C23.4979 11.8592 23.4979 11.8607 23.4979 11.8621C23.4979 11.8636 23.4979 11.865 23.4979 11.8664C23.4979 11.8679 23.4979 11.8693 23.4979 11.8708C23.4979 11.8723 23.4979 11.8737 23.4979 11.8752C23.4979 11.8766 23.4979 11.8781 23.4979 11.8795C23.4979 11.881 23.4979 11.8825 23.4979 11.8839C23.4979 11.8854 23.4979 11.8869 23.4979 11.8883C23.4979 11.8898 23.4979 11.8913 23.4979 11.8928C23.4979 11.8942 23.4979 11.8957 23.4979 11.8972C23.4979 11.8987 23.4979 11.9002 23.4979 11.9016C23.4979 11.9031 23.4979 11.9046 23.4979 11.9061C23.4979 11.9076 23.4979 11.9091 23.4979 11.9106C23.4979 11.9121 23.4979 11.9136 23.4979 11.9151C23.4979 11.9166 23.4979 11.9181 23.4979 11.9196C23.4979 11.9211 23.4979 11.9226 23.4979 11.9241C23.4979 11.9256 23.4979 11.9271 23.4979 11.9286C23.4979 11.9301 23.4979 11.9316 23.4979 11.9331C23.4979 11.9347 23.4979 11.9362 23.4979 11.9377C23.4979 11.9392 23.4979 11.9407 23.4979 11.9423C23.4979 11.9438 23.4979 11.9453 23.4979 11.9468C23.4979 11.9484 23.4979 11.9499 23.4979 11.9514C23.4979 11.953 23.4979 11.9545 23.4979 11.956C23.4979 11.9576 23.4979 11.9591 23.4979 11.9606C23.4979 11.9622 23.4979 11.9637 23.4979 11.9653C23.4979 11.9668 23.4979 11.9684 23.4979 11.9699C23.4979 11.9715 23.4979 11.973 23.4979 11.9746C23.4979 11.9761 23.4979 11.9777 23.4979 11.9792C23.4979 11.9808 23.4979 11.9823 23.4979 11.9839C23.4979 11.9854 23.4979 11.987 23.4979 11.9886C23.4979 11.9901 23.4979 11.9917 23.4979 11.9933C23.4979 11.9948 23.4979 11.9964 23.4979 11.998C23.4979 11.9996 23.4979 12.0011 23.4979 12.0027C23.4979 12.0043 23.4979 12.0059 23.4979 12.0074C23.4979 12.009 23.4979 12.0106 23.4979 12.0122C23.4979 12.0138 23.4979 12.0153 23.4979 12.0169C23.4979 12.0185 23.4979 12.0201 23.4979 12.0217C23.4979 12.0233 23.4979 12.0249 23.4979 12.0265C23.4979 12.0281 23.4979 12.0297 23.4979 12.0313C23.4979 12.0329 23.4979 12.0345 23.4979 12.0361C23.4979 12.0377 23.4979 12.0393 23.4979 12.0409C23.4979 12.0425 23.4979 12.0441 23.4979 12.0457C23.4979 12.0473 23.4979 12.0489 23.4979 12.0505C23.4979 12.0521 23.4979 12.0538 23.4979 12.0554C23.4979 12.057 23.4979 12.0586 23.4979 12.0602C23.4979 12.0618 23.4979 12.0635 23.4979 12.0651C23.4979 12.0667 23.4979 12.0683 23.4979 12.07C23.4979 12.0716 23.4979 12.0732 23.4979 12.0748C23.4979 12.0765 23.4979 12.0781 23.4979 12.0797C23.4979 12.0814 23.4979 12.083 23.4979 12.0846C23.4979 12.0863 23.4979 12.0879 23.4979 12.0896C23.4979 12.0912 23.4979 12.0928 23.4979 12.0945C23.4979 12.0961 23.4979 12.0978 23.4979 12.0994C23.4979 12.1011 23.4979 12.1027 23.4979 12.1044C23.4979 12.106 23.4979 12.1077 23.4979 12.1093C23.4979 12.111 23.4979 12.1126 23.4979 12.1143C23.4979 12.1159 23.4979 12.1176 23.4979 12.1193C23.4979 12.1209 23.4979 12.1226 23.4979 12.1243C23.4979 12.1259 23.4979 12.1276 23.4979 12.1292C23.4979 12.1309 23.4979 12.1326 23.4979 12.1343C23.4979 12.1359 23.4979 12.1376 23.4979 12.1393C23.4979 12.1409 23.4979 12.1426 23.4979 12.1443C23.4979 12.146 23.4979 12.1476 23.4979 12.1493C23.4979 12.151 23.4979 12.1527 23.4979 12.1544C23.4979 12.156 23.4979 12.1577 23.4979 12.1594C23.4979 12.1611 23.4979 12.1628 23.4979 12.1645C23.4979 12.1662 23.4979 12.1678 23.4979 12.1695C23.4979 12.1712 23.4979 12.1729 23.4979 12.1746C23.4979 12.1763 23.4979 12.178 23.4979 12.1797C23.4979 12.1814 23.4979 12.1831 23.4979 12.1848C23.4979 12.1865 23.4979 12.1882 23.4979 12.1899C23.4979 12.1916 23.4979 12.1933 23.4979 12.195C23.4979 12.1967 23.4979 12.1984 23.4979 12.2001C23.4979 12.2018 23.4979 12.2035 23.4979 12.2053C23.4979 12.207 23.4979 12.2087 23.4979 12.2104C23.4979 12.2121 23.4979 12.2138 23.4979 12.2155C23.4979 12.2173 23.4979 12.219 23.4979 12.2207C23.4979 12.2224 23.4979 12.2241 23.4979 12.2259C23.4979 12.2276 23.4979 12.2293 23.4979 12.231C23.4979 12.2327 23.4979 12.2345 23.4979 12.2362C23.4979 12.2379 23.4979 12.2397 23.4979 12.2414C23.4979 12.2431 23.4979 12.2448 23.4979 12.2466C23.4979 12.2483 23.4979 12.25 23.4979 12.2518C23.4979 12.2535 23.4979 12.2552 23.4979 12.257C23.4979 12.2587 23.4979 12.2605 23.4979 12.2622C23.4979 12.2639 23.4979 12.2657 23.4979 12.2674C23.4979 12.2692 23.4979 12.2709 23.4979 12.2727C23.4979 12.2744 23.4979 12.2761 23.4979 12.2779C23.4979 12.2796 23.4979 12.2814 23.4979 12.2831C23.4979 12.2849 23.4979 12.2866 23.4979 12.2884C23.4979 12.2901 23.4979 12.2919 23.4979 12.2936C23.4979 12.2954 23.4979 12.2972 23.4979 12.2989C23.4979 12.3007 23.4979 12.3024 23.4979 12.3042C23.4979 12.3059 23.4979 12.3077 23.4979 12.3095C23.4979 12.3112 23.4979 12.313 23.4979 12.3147C23.4979 12.3165 23.4979 12.3183 23.4979 12.32C23.4979 12.3218 23.4979 12.3236 23.4979 12.3253C23.4979 12.3271 23.4979 12.3289 23.4979 12.3306C23.4979 12.3324 23.4979 12.3342 23.4979 12.336C23.4979 12.3377 23.4979 12.3395 23.4979 12.3413C23.4979 12.3431 23.4979 12.3448 23.4979 12.3466C23.4979 12.3484 23.4979 12.3502 23.4979 12.3519C23.4979 12.3537 23.4979 12.3555 23.4979 12.3573C23.4979 12.3591 23.4979 12.3608 23.4979 12.3626C23.4979 12.3644 23.4979 12.3662 23.4979 12.368C23.4979 12.3697 23.4979 12.3715 23.4979 12.3733C23.4979 12.3751 23.4979 12.3769 23.4979 12.3787C23.4979 12.3805 23.4979 12.3823 23.4979 12.384C23.4979 12.3858 23.4979 12.3876 23.4979 12.3894C23.4979 12.3912 23.4979 12.393 23.4979 12.3948C23.4979 12.3966 23.4979 12.3984 23.4979 12.4002C23.4979 12.402 23.4979 12.4038 23.4979 12.4056C23.4979 12.4074 23.4979 12.4092 23.4979 12.411C23.4979 12.4128 23.4979 12.4146 23.4979 12.4164C23.4979 12.4182 23.4979 12.42 23.4979 12.4218C23.4979 12.4236 23.4979 12.4254 23.4979 12.4272C23.4979 12.429 23.4979 12.4308 23.4979 12.4326C23.4979 12.4344 23.4979 12.4362 23.4979 12.438C23.4979 12.4398 23.4979 12.4416 23.4979 12.4434C23.4979 12.4452 23.4979 12.447 23.4979 12.4489C23.4979 12.4507 23.4979 12.4525 23.4979 12.4543C23.4979 12.4561 23.4979 12.4579 23.4979 12.4597C23.4979 12.4615 23.4979 12.4634 23.4979 12.4652C23.4979 12.467 23.4979 12.4688 23.4979 12.4706C23.4979 12.4724 23.4979 12.4743 23.4979 12.4761C23.4979 12.4779 23.4979 12.4797 23.4979 12.4815C23.4979 12.4833 23.4979 12.4852 23.4979 12.487C23.4979 12.4888 23.4979 12.4906 23.4979 12.4925C23.4979 12.4943 23.4979 12.4961 23.4979 12.4979C23.4979 12.4997 23.4979 12.5016 23.4979 12.5034C23.4979 12.5052 23.4979 12.507 23.4979 12.5089C23.4979 12.5107 23.4979 12.5125 23.4979 12.5143C23.4979 12.5162 23.4979 12.518 23.4979 12.5198C23.4979 12.5217 23.4979 12.5235 23.4979 12.5253C23.4979 12.5272 23.4979 12.529 23.4979 12.5308C23.4979 12.5326 23.4979 12.5345 23.4979 12.5363C23.4979 12.5381 23.4979 12.54 23.4979 12.5418C23.4979 12.5436 23.4979 12.5455 23.4979 12.5473C23.4979 12.5491 23.4979 12.551 23.4979 12.5528C23.4979 12.5546 23.4979 12.5565 23.4979 12.5583C23.4979 12.5602 23.4979 12.562 23.4979 12.5638C23.4979 12.5657 23.4979 12.5675 23.4979 12.5693C23.4979 12.5712 23.4979 12.573 23.4979 12.5749C23.4979 12.5767 23.4979 12.5785 23.4979 12.5804C23.4979 12.5822 23.4979 12.5841 23.4979 12.5859C23.4979 12.5877 23.4979 12.5896 23.4979 12.5914C23.4979 12.5933 23.4979 12.5951 23.4979 12.597C23.4979 12.5988 23.4979 12.6006 23.4979 12.6025C23.4979 12.6043 23.4979 12.6062 23.4979 12.608C23.4979 12.6099 23.4979 12.6117 23.4979 12.6136C23.4979 12.6154 23.4979 12.6172 23.4979 12.6191C23.4979 12.6209 23.4979 12.6228 23.4979 12.6246C23.4979 12.6265 23.4979 12.6283 23.4979 12.6302C23.4979 12.632 23.4979 12.6339 23.4979 12.6357C23.4979 12.6376 23.4979 12.6394 23.4979 12.6413C23.4979 12.6431 23.4979 12.645 23.4979 12.6468C23.4979 12.6487 23.4979 12.6505 23.4979 12.6524C23.4979 12.6542 23.4979 12.6561 23.4979 12.6579C23.4979 12.6598 23.4979 12.6616 23.4979 12.6635C23.4979 12.6653 23.4979 12.6672 23.4979 12.669C23.4979 12.6709 23.4979 12.6727 23.4979 12.6746C23.4979 12.6764 23.4979 12.6783 23.4979 12.6801C23.4979 12.682 23.4979 12.6838 23.4979 12.6857C23.4979 12.6875 23.4979 12.6894 23.4979 12.6913C23.4979 12.6931 23.4979 12.695 23.4979 12.6968C23.4979 12.6987 23.4979 12.7005 23.4979 12.7024C23.4979 12.7042 23.4979 12.7061 23.4979 12.7079C23.4979 12.7098 23.4979 12.7117 23.4979 12.7135C23.4979 12.7154 23.4979 12.7172 23.4979 12.7191C23.4979 12.7209 23.4979 12.7228 23.4979 12.7246C23.4979 12.7265 23.4979 12.7284 23.4979 12.7302C23.4979 12.7321 23.4979 12.7339 23.4979 12.7358C23.4979 12.7376 23.4979 12.7395 23.4979 12.7413C23.4979 12.7432 23.4979 12.7451 23.4979 12.7469C23.4979 12.7488 23.4979 12.7506 23.4979 12.7525C23.4979 12.7543 23.4979 12.7562 23.4979 12.7581C23.4979 12.7599 23.4979 12.7618 23.4979 12.7636C23.4979 12.7655 23.4979 12.7673 23.4979 12.7692C23.4979 12.7711 23.4979 12.7729 23.4979 12.7748C23.4979 12.7766 23.4979 12.7785 23.4979 12.7803C23.4979 12.7822 23.4979 12.7841 23.4979 12.7859C23.4979 12.7878 23.4979 12.7896 23.4979 12.7915C23.4979 12.7933 23.4979 12.7952 23.4979 12.7971C23.4979 12.7989 23.4979 12.8008 23.4979 12.8026C23.4979 12.8045 23.4979 12.8063 23.4979 12.8082C23.4979 12.8101 23.4979 12.8119 23.4979 12.8138C23.4979 12.8156 23.4979 12.8175 23.4979 12.8193C23.4979 12.8212 23.4979 12.823 23.4979 12.8249C23.4979 12.8268 23.4979 12.8286 23.4979 12.8305C23.4979 12.8323 23.4979 12.8342 23.4979 12.836C23.4979 12.8379 23.4979 12.8397 23.4979 12.8416C23.4979 12.8435 23.4979 12.8453 23.4979 12.8472C23.4979 12.849 23.4979 12.8509 23.4979 12.8527C23.4979 12.8546 23.4979 12.8564 23.4979 12.8583C23.4979 12.8602 23.4979 12.862 23.4979 12.8639C23.4979 12.8657 23.4979 12.8676 23.4979 12.8694C23.4979 12.8713 23.4979 12.8731 23.4979 12.875C23.4979 12.8768 23.4979 12.8787 23.4979 12.8805C23.4979 12.8824 23.4979 12.8842 23.4979 12.8861C23.4979 12.8879 23.4979 12.8898 23.4979 12.8917C23.4979 12.8935 23.4979 12.8954 23.4979 12.8972C23.4979 12.8991 23.4979 12.9009 23.4979 12.9028C23.4979 12.9046 23.4979 12.9065 23.4979 12.9083C23.4979 12.9102 23.4979 12.912 23.4979 12.9139C23.4979 12.9157 23.4979 12.9176 23.4979 12.9194C23.4979 12.9213 23.4979 12.9231 23.4979 12.9249C23.4979 12.9268 23.4979 12.9286 23.4979 12.9305C23.4979 12.9323 23.4979 12.9342 23.4979 12.936C23.4979 12.9379 23.4979 12.9397 23.4979 12.9416C23.4979 12.9434 23.4979 12.9453 23.4979 12.9471C23.4979 12.949 23.4979 12.9508 23.4979 12.9526C23.4979 12.9545 23.4979 12.9563 23.4979 12.9582C23.4979 12.96 23.4979 12.9619 23.4979 12.9637C23.4979 12.9655 23.4979 12.9674 23.4979 12.9692C23.4979 12.9711 23.4979 12.9729 23.4979 12.9748C23.4979 12.9766 23.4979 12.9784 23.4979 12.9803C23.4979 12.9821 23.4979 12.9839 23.4979 12.9858C23.4979 12.9876 23.4979 12.9895 23.4979 12.9913C23.4979 12.9931 23.4979 12.995 23.4979 12.9968C23.4979 12.9987 23.4979 13.0005 23.4979 13.0023C23.4979 13.0042 23.4979 13.006 23.4979 13.0078C23.4979 13.0097 23.4979 13.0115 23.4979 13.0133C23.4979 13.0152 23.4979 13.017 23.4979 13.0188C23.4979 13.0207 23.4979 13.0225 23.4979 13.0243C23.4979 13.0262 23.4979 13.028 23.4979 13.0298C23.4979 13.0316 23.4979 13.0335 23.4979 13.0353C23.4979 13.0371 23.4979 13.039 23.4979 13.0408C23.4979 13.0426 23.4979 13.0444 23.4979 13.0463C23.4979 13.0481 23.4979 13.0499 23.4979 13.0518C23.4979 13.0536 23.4979 13.0554 23.4979 13.0572C23.4979 13.059 23.4979 13.0609 23.4979 13.0627C23.4979 13.0645 23.4979 13.0663 23.4979 13.0682C23.4979 13.07 23.4979 13.0718 23.4979 13.0736C23.4979 13.0754 23.4979 13.0773 23.4979 13.0791C23.4979 13.0809 23.4979 13.0827 23.4979 13.0845C23.4979 13.0863 23.4979 13.0882 23.4979 13.09C23.4979 13.0918 23.4979 13.0936 23.4979 13.0954C23.4979 13.0972 23.4979 13.0991 23.4979 13.1009C23.4979 13.1027 23.4979 13.1045 23.4979 13.1063C23.4979 13.1081 23.4979 13.1099 23.4979 13.1117C23.4979 13.1135 23.4979 13.1153 23.4979 13.1172C23.4979 13.119 23.4979 13.1208 23.4979 13.1226C23.4979 13.1244 23.4979 13.1262 23.4979 13.128C23.4979 13.1298 23.4979 13.1316 23.4979 13.1334C23.4979 13.1352 23.4979 13.137 23.4979 13.1388C23.4979 13.1406 23.4979 13.1424 23.4979 13.1442C23.4979 13.146 23.4979 13.1478 23.4979 13.1496C23.4979 13.1514 23.4979 13.1532 23.4979 13.155C23.4979 13.1568 23.4979 13.1586 23.4979 13.1604C23.4979 13.1622 23.4979 13.164 23.4979 13.1658C23.4979 13.1676 23.4979 13.1693 23.4979 13.1711C23.4979 13.1729 23.4979 13.1747 23.4979 13.1765C23.4979 13.1783 23.4979 13.1801 23.4979 13.1819C23.4979 13.1837 23.4979 13.1854 23.4979 13.1872C23.4979 13.189 23.4979 13.1908 23.4979 13.1926C23.4979 13.1944 23.4979 13.1961 23.4979 13.1979C23.4979 13.1997 23.4979 13.2015 23.4979 13.2033C23.4979 13.205 23.4979 13.2068 23.4979 13.2086C23.4979 13.2104 23.4979 13.2121 23.4979 13.2139C23.4979 13.2157 23.4979 13.2175 23.4979 13.2192C23.4979 13.221 23.4979 13.2228 23.4979 13.2246C23.4979 13.2263 23.4979 13.2281 23.4979 13.2299C23.4979 13.2316 23.4979 13.2334 23.4979 13.2352C23.4979 13.2369 23.4979 13.2387 23.4979 13.2405C23.4979 13.2422 23.4979 13.244 23.4979 13.2458C23.4979 13.2475 23.4979 13.2493 23.4979 13.251C23.4979 13.2528 23.4979 13.2545 23.4979 13.2563C23.4979 13.2581 23.4979 13.2598 23.4979 13.2616C23.4979 13.2633 23.4979 13.2651 23.4979 13.2668C23.4979 13.2686 23.4979 13.2703 23.4979 13.2721C23.4979 13.2738 23.4979 13.2756 23.4979 13.2773C23.4979 13.2791 23.4979 13.2808 23.4979 13.2826C23.4979 13.2843 23.4979 13.2861 23.4979 13.2878C23.4979 13.2896 23.4979 13.2913 23.4979 13.293C23.4979 13.2948 23.4979 13.2965 23.4979 13.2983C23.4979 13.3 23.4979 13.3017 23.4979 13.3035C23.4979 13.3052 23.4979 13.3069 23.4979 13.3087C23.4979 13.3104 23.4979 13.3121 23.4979 13.3139C23.4979 13.3156 23.4979 13.3173 23.4979 13.3191C23.4979 13.3208 23.4979 13.3225 23.4979 13.3242C23.4979 13.326 23.4979 13.3277 23.4979 13.3294C23.4979 13.3311 23.4979 13.3328 23.4979 13.3346C23.4979 13.3363 23.4979 13.338 23.4979 13.3397C23.4979 13.3414 23.4979 13.3432 23.4979 13.3449C23.4979 13.3466 23.4979 13.3483 23.4979 13.35C23.4979 13.3517 23.4979 13.3534 23.4979 13.3551C23.4979 13.3569 23.4979 13.3586 23.4979 13.3603C23.4979 13.362 23.4979 13.3637 23.4979 13.3654C23.4979 13.3671 23.4979 13.3688 23.4979 13.3705C23.4979 13.3722 23.4979 13.3739 23.4979 13.3756C23.4979 13.3773 23.4979 13.379 23.4979 13.3807C23.4979 13.3824 23.4979 13.3841 23.4979 13.3858C23.4979 13.3874 23.4979 13.3891 23.4979 13.3908C23.4979 13.3925 23.4979 13.3942 23.4979 13.3959C23.4979 13.3976 23.4979 13.3993 23.4979 13.4009C23.4979 13.4026 23.4979 13.4043 23.4979 13.406C23.4979 13.4077 23.4979 13.4093 23.4979 13.411C23.4979 13.4127 23.4979 13.4144 23.4979 13.416C23.4979 13.4177 23.4979 13.4194 23.4979 13.4211C23.4979 13.4227 23.4979 13.4244 23.4979 13.4261C23.4979 13.4277 23.4979 13.4294 23.4979 13.4311C23.4979 13.4327 23.4979 13.4344 23.4979 13.4361C23.4979 13.4377 23.4979 13.4394 23.4979 13.441C23.4979 13.4427 23.4979 13.4443 23.4979 13.446C23.4979 13.4477 23.4979 13.4493 23.4979 13.451C23.4979 13.4526 23.4979 13.4543 23.4979 13.4559C23.4979 13.4576 23.4979 13.4592 23.4979 13.4608C23.4979 13.4625 23.4979 13.4641 23.4979 13.4658C23.4979 13.4674 23.4979 13.4691 23.4979 13.4707C23.4979 13.4723 23.4979 13.474 23.4979 13.4756C23.4979 13.4772 23.4979 13.4789 23.4979 13.4805C23.4979 13.4821 23.4979 13.4838 23.4979 13.4854C23.4979 13.487 23.4979 13.4887 23.4979 13.4903C23.4979 13.4919 23.4979 13.4935 23.4979 13.4951C23.4979 13.4968 23.4979 13.4984 23.4979 13.5H24.4979C24.4979 13.4984 24.4979 13.4968 24.4979 13.4951C24.4979 13.4935 24.4979 13.4919 24.4979 13.4903C24.4979 13.4887 24.4979 13.487 24.4979 13.4854C24.4979 13.4838 24.4979 13.4821 24.4979 13.4805C24.4979 13.4789 24.4979 13.4772 24.4979 13.4756C24.4979 13.474 24.4979 13.4723 24.4979 13.4707C24.4979 13.4691 24.4979 13.4674 24.4979 13.4658C24.4979 13.4641 24.4979 13.4625 24.4979 13.4608C24.4979 13.4592 24.4979 13.4576 24.4979 13.4559C24.4979 13.4543 24.4979 13.4526 24.4979 13.451C24.4979 13.4493 24.4979 13.4477 24.4979 13.446C24.4979 13.4443 24.4979 13.4427 24.4979 13.441C24.4979 13.4394 24.4979 13.4377 24.4979 13.4361C24.4979 13.4344 24.4979 13.4327 24.4979 13.4311C24.4979 13.4294 24.4979 13.4277 24.4979 13.4261C24.4979 13.4244 24.4979 13.4227 24.4979 13.4211C24.4979 13.4194 24.4979 13.4177 24.4979 13.416C24.4979 13.4144 24.4979 13.4127 24.4979 13.411C24.4979 13.4093 24.4979 13.4077 24.4979 13.406C24.4979 13.4043 24.4979 13.4026 24.4979 13.4009C24.4979 13.3993 24.4979 13.3976 24.4979 13.3959C24.4979 13.3942 24.4979 13.3925 24.4979 13.3908C24.4979 13.3891 24.4979 13.3874 24.4979 13.3858C24.4979 13.3841 24.4979 13.3824 24.4979 13.3807C24.4979 13.379 24.4979 13.3773 24.4979 13.3756C24.4979 13.3739 24.4979 13.3722 24.4979 13.3705C24.4979 13.3688 24.4979 13.3671 24.4979 13.3654C24.4979 13.3637 24.4979 13.362 24.4979 13.3603C24.4979 13.3586 24.4979 13.3569 24.4979 13.3551C24.4979 13.3534 24.4979 13.3517 24.4979 13.35C24.4979 13.3483 24.4979 13.3466 24.4979 13.3449C24.4979 13.3432 24.4979 13.3414 24.4979 13.3397C24.4979 13.338 24.4979 13.3363 24.4979 13.3346C24.4979 13.3328 24.4979 13.3311 24.4979 13.3294C24.4979 13.3277 24.4979 13.326 24.4979 13.3242C24.4979 13.3225 24.4979 13.3208 24.4979 13.3191C24.4979 13.3173 24.4979 13.3156 24.4979 13.3139C24.4979 13.3121 24.4979 13.3104 24.4979 13.3087C24.4979 13.3069 24.4979 13.3052 24.4979 13.3035C24.4979 13.3017 24.4979 13.3 24.4979 13.2983C24.4979 13.2965 24.4979 13.2948 24.4979 13.293C24.4979 13.2913 24.4979 13.2896 24.4979 13.2878C24.4979 13.2861 24.4979 13.2843 24.4979 13.2826C24.4979 13.2808 24.4979 13.2791 24.4979 13.2773C24.4979 13.2756 24.4979 13.2738 24.4979 13.2721C24.4979 13.2703 24.4979 13.2686 24.4979 13.2668C24.4979 13.2651 24.4979 13.2633 24.4979 13.2616C24.4979 13.2598 24.4979 13.2581 24.4979 13.2563C24.4979 13.2545 24.4979 13.2528 24.4979 13.251C24.4979 13.2493 24.4979 13.2475 24.4979 13.2458C24.4979 13.244 24.4979 13.2422 24.4979 13.2405C24.4979 13.2387 24.4979 13.2369 24.4979 13.2352C24.4979 13.2334 24.4979 13.2316 24.4979 13.2299C24.4979 13.2281 24.4979 13.2263 24.4979 13.2246C24.4979 13.2228 24.4979 13.221 24.4979 13.2192C24.4979 13.2175 24.4979 13.2157 24.4979 13.2139C24.4979 13.2121 24.4979 13.2104 24.4979 13.2086C24.4979 13.2068 24.4979 13.205 24.4979 13.2033C24.4979 13.2015 24.4979 13.1997 24.4979 13.1979C24.4979 13.1961 24.4979 13.1944 24.4979 13.1926C24.4979 13.1908 24.4979 13.189 24.4979 13.1872C24.4979 13.1854 24.4979 13.1837 24.4979 13.1819C24.4979 13.1801 24.4979 13.1783 24.4979 13.1765C24.4979 13.1747 24.4979 13.1729 24.4979 13.1711C24.4979 13.1693 24.4979 13.1676 24.4979 13.1658C24.4979 13.164 24.4979 13.1622 24.4979 13.1604C24.4979 13.1586 24.4979 13.1568 24.4979 13.155C24.4979 13.1532 24.4979 13.1514 24.4979 13.1496C24.4979 13.1478 24.4979 13.146 24.4979 13.1442C24.4979 13.1424 24.4979 13.1406 24.4979 13.1388C24.4979 13.137 24.4979 13.1352 24.4979 13.1334C24.4979 13.1316 24.4979 13.1298 24.4979 13.128C24.4979 13.1262 24.4979 13.1244 24.4979 13.1226C24.4979 13.1208 24.4979 13.119 24.4979 13.1172C24.4979 13.1153 24.4979 13.1135 24.4979 13.1117C24.4979 13.1099 24.4979 13.1081 24.4979 13.1063C24.4979 13.1045 24.4979 13.1027 24.4979 13.1009C24.4979 13.0991 24.4979 13.0972 24.4979 13.0954C24.4979 13.0936 24.4979 13.0918 24.4979 13.09C24.4979 13.0882 24.4979 13.0863 24.4979 13.0845C24.4979 13.0827 24.4979 13.0809 24.4979 13.0791C24.4979 13.0773 24.4979 13.0754 24.4979 13.0736C24.4979 13.0718 24.4979 13.07 24.4979 13.0682C24.4979 13.0663 24.4979 13.0645 24.4979 13.0627C24.4979 13.0609 24.4979 13.059 24.4979 13.0572C24.4979 13.0554 24.4979 13.0536 24.4979 13.0518C24.4979 13.0499 24.4979 13.0481 24.4979 13.0463C24.4979 13.0444 24.4979 13.0426 24.4979 13.0408C24.4979 13.039 24.4979 13.0371 24.4979 13.0353C24.4979 13.0335 24.4979 13.0316 24.4979 13.0298C24.4979 13.028 24.4979 13.0262 24.4979 13.0243C24.4979 13.0225 24.4979 13.0207 24.4979 13.0188C24.4979 13.017 24.4979 13.0152 24.4979 13.0133C24.4979 13.0115 24.4979 13.0097 24.4979 13.0078C24.4979 13.006 24.4979 13.0042 24.4979 13.0023C24.4979 13.0005 24.4979 12.9987 24.4979 12.9968C24.4979 12.995 24.4979 12.9931 24.4979 12.9913C24.4979 12.9895 24.4979 12.9876 24.4979 12.9858C24.4979 12.9839 24.4979 12.9821 24.4979 12.9803C24.4979 12.9784 24.4979 12.9766 24.4979 12.9748C24.4979 12.9729 24.4979 12.9711 24.4979 12.9692C24.4979 12.9674 24.4979 12.9655 24.4979 12.9637C24.4979 12.9619 24.4979 12.96 24.4979 12.9582C24.4979 12.9563 24.4979 12.9545 24.4979 12.9526C24.4979 12.9508 24.4979 12.949 24.4979 12.9471C24.4979 12.9453 24.4979 12.9434 24.4979 12.9416C24.4979 12.9397 24.4979 12.9379 24.4979 12.936C24.4979 12.9342 24.4979 12.9323 24.4979 12.9305C24.4979 12.9286 24.4979 12.9268 24.4979 12.9249C24.4979 12.9231 24.4979 12.9213 24.4979 12.9194C24.4979 12.9176 24.4979 12.9157 24.4979 12.9139C24.4979 12.912 24.4979 12.9102 24.4979 12.9083C24.4979 12.9065 24.4979 12.9046 24.4979 12.9028C24.4979 12.9009 24.4979 12.8991 24.4979 12.8972C24.4979 12.8954 24.4979 12.8935 24.4979 12.8917C24.4979 12.8898 24.4979 12.8879 24.4979 12.8861C24.4979 12.8842 24.4979 12.8824 24.4979 12.8805C24.4979 12.8787 24.4979 12.8768 24.4979 12.875C24.4979 12.8731 24.4979 12.8713 24.4979 12.8694C24.4979 12.8676 24.4979 12.8657 24.4979 12.8639C24.4979 12.862 24.4979 12.8602 24.4979 12.8583C24.4979 12.8564 24.4979 12.8546 24.4979 12.8527C24.4979 12.8509 24.4979 12.849 24.4979 12.8472C24.4979 12.8453 24.4979 12.8435 24.4979 12.8416C24.4979 12.8397 24.4979 12.8379 24.4979 12.836C24.4979 12.8342 24.4979 12.8323 24.4979 12.8305C24.4979 12.8286 24.4979 12.8268 24.4979 12.8249C24.4979 12.823 24.4979 12.8212 24.4979 12.8193C24.4979 12.8175 24.4979 12.8156 24.4979 12.8138C24.4979 12.8119 24.4979 12.8101 24.4979 12.8082C24.4979 12.8063 24.4979 12.8045 24.4979 12.8026C24.4979 12.8008 24.4979 12.7989 24.4979 12.7971C24.4979 12.7952 24.4979 12.7933 24.4979 12.7915C24.4979 12.7896 24.4979 12.7878 24.4979 12.7859C24.4979 12.7841 24.4979 12.7822 24.4979 12.7803C24.4979 12.7785 24.4979 12.7766 24.4979 12.7748C24.4979 12.7729 24.4979 12.7711 24.4979 12.7692C24.4979 12.7673 24.4979 12.7655 24.4979 12.7636C24.4979 12.7618 24.4979 12.7599 24.4979 12.7581C24.4979 12.7562 24.4979 12.7543 24.4979 12.7525C24.4979 12.7506 24.4979 12.7488 24.4979 12.7469C24.4979 12.7451 24.4979 12.7432 24.4979 12.7413C24.4979 12.7395 24.4979 12.7376 24.4979 12.7358C24.4979 12.7339 24.4979 12.7321 24.4979 12.7302C24.4979 12.7284 24.4979 12.7265 24.4979 12.7246C24.4979 12.7228 24.4979 12.7209 24.4979 12.7191C24.4979 12.7172 24.4979 12.7154 24.4979 12.7135C24.4979 12.7117 24.4979 12.7098 24.4979 12.7079C24.4979 12.7061 24.4979 12.7042 24.4979 12.7024C24.4979 12.7005 24.4979 12.6987 24.4979 12.6968C24.4979 12.695 24.4979 12.6931 24.4979 12.6913C24.4979 12.6894 24.4979 12.6875 24.4979 12.6857C24.4979 12.6838 24.4979 12.682 24.4979 12.6801C24.4979 12.6783 24.4979 12.6764 24.4979 12.6746C24.4979 12.6727 24.4979 12.6709 24.4979 12.669C24.4979 12.6672 24.4979 12.6653 24.4979 12.6635C24.4979 12.6616 24.4979 12.6598 24.4979 12.6579C24.4979 12.6561 24.4979 12.6542 24.4979 12.6524C24.4979 12.6505 24.4979 12.6487 24.4979 12.6468C24.4979 12.645 24.4979 12.6431 24.4979 12.6413C24.4979 12.6394 24.4979 12.6376 24.4979 12.6357C24.4979 12.6339 24.4979 12.632 24.4979 12.6302C24.4979 12.6283 24.4979 12.6265 24.4979 12.6246C24.4979 12.6228 24.4979 12.6209 24.4979 12.6191C24.4979 12.6172 24.4979 12.6154 24.4979 12.6136C24.4979 12.6117 24.4979 12.6099 24.4979 12.608C24.4979 12.6062 24.4979 12.6043 24.4979 12.6025C24.4979 12.6006 24.4979 12.5988 24.4979 12.597C24.4979 12.5951 24.4979 12.5933 24.4979 12.5914C24.4979 12.5896 24.4979 12.5877 24.4979 12.5859C24.4979 12.5841 24.4979 12.5822 24.4979 12.5804C24.4979 12.5785 24.4979 12.5767 24.4979 12.5749C24.4979 12.573 24.4979 12.5712 24.4979 12.5693C24.4979 12.5675 24.4979 12.5657 24.4979 12.5638C24.4979 12.562 24.4979 12.5602 24.4979 12.5583C24.4979 12.5565 24.4979 12.5546 24.4979 12.5528C24.4979 12.551 24.4979 12.5491 24.4979 12.5473C24.4979 12.5455 24.4979 12.5436 24.4979 12.5418C24.4979 12.54 24.4979 12.5381 24.4979 12.5363C24.4979 12.5345 24.4979 12.5326 24.4979 12.5308C24.4979 12.529 24.4979 12.5272 24.4979 12.5253C24.4979 12.5235 24.4979 12.5217 24.4979 12.5198C24.4979 12.518 24.4979 12.5162 24.4979 12.5143C24.4979 12.5125 24.4979 12.5107 24.4979 12.5089C24.4979 12.507 24.4979 12.5052 24.4979 12.5034C24.4979 12.5016 24.4979 12.4997 24.4979 12.4979C24.4979 12.4961 24.4979 12.4943 24.4979 12.4925C24.4979 12.4906 24.4979 12.4888 24.4979 12.487C24.4979 12.4852 24.4979 12.4833 24.4979 12.4815C24.4979 12.4797 24.4979 12.4779 24.4979 12.4761C24.4979 12.4743 24.4979 12.4724 24.4979 12.4706C24.4979 12.4688 24.4979 12.467 24.4979 12.4652C24.4979 12.4634 24.4979 12.4615 24.4979 12.4597C24.4979 12.4579 24.4979 12.4561 24.4979 12.4543C24.4979 12.4525 24.4979 12.4507 24.4979 12.4489C24.4979 12.447 24.4979 12.4452 24.4979 12.4434C24.4979 12.4416 24.4979 12.4398 24.4979 12.438C24.4979 12.4362 24.4979 12.4344 24.4979 12.4326C24.4979 12.4308 24.4979 12.429 24.4979 12.4272C24.4979 12.4254 24.4979 12.4236 24.4979 12.4218C24.4979 12.42 24.4979 12.4182 24.4979 12.4164C24.4979 12.4146 24.4979 12.4128 24.4979 12.411C24.4979 12.4092 24.4979 12.4074 24.4979 12.4056C24.4979 12.4038 24.4979 12.402 24.4979 12.4002C24.4979 12.3984 24.4979 12.3966 24.4979 12.3948C24.4979 12.393 24.4979 12.3912 24.4979 12.3894C24.4979 12.3876 24.4979 12.3858 24.4979 12.384C24.4979 12.3823 24.4979 12.3805 24.4979 12.3787C24.4979 12.3769 24.4979 12.3751 24.4979 12.3733C24.4979 12.3715 24.4979 12.3697 24.4979 12.368C24.4979 12.3662 24.4979 12.3644 24.4979 12.3626C24.4979 12.3608 24.4979 12.3591 24.4979 12.3573C24.4979 12.3555 24.4979 12.3537 24.4979 12.3519C24.4979 12.3502 24.4979 12.3484 24.4979 12.3466C24.4979 12.3448 24.4979 12.3431 24.4979 12.3413C24.4979 12.3395 24.4979 12.3377 24.4979 12.336C24.4979 12.3342 24.4979 12.3324 24.4979 12.3306C24.4979 12.3289 24.4979 12.3271 24.4979 12.3253C24.4979 12.3236 24.4979 12.3218 24.4979 12.32C24.4979 12.3183 24.4979 12.3165 24.4979 12.3147C24.4979 12.313 24.4979 12.3112 24.4979 12.3095C24.4979 12.3077 24.4979 12.3059 24.4979 12.3042C24.4979 12.3024 24.4979 12.3007 24.4979 12.2989C24.4979 12.2972 24.4979 12.2954 24.4979 12.2936C24.4979 12.2919 24.4979 12.2901 24.4979 12.2884C24.4979 12.2866 24.4979 12.2849 24.4979 12.2831C24.4979 12.2814 24.4979 12.2796 24.4979 12.2779C24.4979 12.2761 24.4979 12.2744 24.4979 12.2727C24.4979 12.2709 24.4979 12.2692 24.4979 12.2674C24.4979 12.2657 24.4979 12.2639 24.4979 12.2622C24.4979 12.2605 24.4979 12.2587 24.4979 12.257C24.4979 12.2552 24.4979 12.2535 24.4979 12.2518C24.4979 12.25 24.4979 12.2483 24.4979 12.2466C24.4979 12.2448 24.4979 12.2431 24.4979 12.2414C24.4979 12.2397 24.4979 12.2379 24.4979 12.2362C24.4979 12.2345 24.4979 12.2327 24.4979 12.231C24.4979 12.2293 24.4979 12.2276 24.4979 12.2259C24.4979 12.2241 24.4979 12.2224 24.4979 12.2207C24.4979 12.219 24.4979 12.2173 24.4979 12.2155C24.4979 12.2138 24.4979 12.2121 24.4979 12.2104C24.4979 12.2087 24.4979 12.207 24.4979 12.2053C24.4979 12.2035 24.4979 12.2018 24.4979 12.2001C24.4979 12.1984 24.4979 12.1967 24.4979 12.195C24.4979 12.1933 24.4979 12.1916 24.4979 12.1899C24.4979 12.1882 24.4979 12.1865 24.4979 12.1848C24.4979 12.1831 24.4979 12.1814 24.4979 12.1797C24.4979 12.178 24.4979 12.1763 24.4979 12.1746C24.4979 12.1729 24.4979 12.1712 24.4979 12.1695C24.4979 12.1678 24.4979 12.1662 24.4979 12.1645C24.4979 12.1628 24.4979 12.1611 24.4979 12.1594C24.4979 12.1577 24.4979 12.156 24.4979 12.1544C24.4979 12.1527 24.4979 12.151 24.4979 12.1493C24.4979 12.1476 24.4979 12.146 24.4979 12.1443C24.4979 12.1426 24.4979 12.1409 24.4979 12.1393C24.4979 12.1376 24.4979 12.1359 24.4979 12.1343C24.4979 12.1326 24.4979 12.1309 24.4979 12.1292C24.4979 12.1276 24.4979 12.1259 24.4979 12.1243C24.4979 12.1226 24.4979 12.1209 24.4979 12.1193C24.4979 12.1176 24.4979 12.1159 24.4979 12.1143C24.4979 12.1126 24.4979 12.111 24.4979 12.1093C24.4979 12.1077 24.4979 12.106 24.4979 12.1044C24.4979 12.1027 24.4979 12.1011 24.4979 12.0994C24.4979 12.0978 24.4979 12.0961 24.4979 12.0945C24.4979 12.0928 24.4979 12.0912 24.4979 12.0896C24.4979 12.0879 24.4979 12.0863 24.4979 12.0846C24.4979 12.083 24.4979 12.0814 24.4979 12.0797C24.4979 12.0781 24.4979 12.0765 24.4979 12.0748C24.4979 12.0732 24.4979 12.0716 24.4979 12.07C24.4979 12.0683 24.4979 12.0667 24.4979 12.0651C24.4979 12.0635 24.4979 12.0618 24.4979 12.0602C24.4979 12.0586 24.4979 12.057 24.4979 12.0554C24.4979 12.0538 24.4979 12.0521 24.4979 12.0505C24.4979 12.0489 24.4979 12.0473 24.4979 12.0457C24.4979 12.0441 24.4979 12.0425 24.4979 12.0409C24.4979 12.0393 24.4979 12.0377 24.4979 12.0361C24.4979 12.0345 24.4979 12.0329 24.4979 12.0313C24.4979 12.0297 24.4979 12.0281 24.4979 12.0265C24.4979 12.0249 24.4979 12.0233 24.4979 12.0217C24.4979 12.0201 24.4979 12.0185 24.4979 12.0169C24.4979 12.0153 24.4979 12.0138 24.4979 12.0122C24.4979 12.0106 24.4979 12.009 24.4979 12.0074C24.4979 12.0059 24.4979 12.0043 24.4979 12.0027C24.4979 12.0011 24.4979 11.9996 24.4979 11.998C24.4979 11.9964 24.4979 11.9948 24.4979 11.9933C24.4979 11.9917 24.4979 11.9901 24.4979 11.9886C24.4979 11.987 24.4979 11.9854 24.4979 11.9839C24.4979 11.9823 24.4979 11.9808 24.4979 11.9792C24.4979 11.9777 24.4979 11.9761 24.4979 11.9746C24.4979 11.973 24.4979 11.9715 24.4979 11.9699C24.4979 11.9684 24.4979 11.9668 24.4979 11.9653C24.4979 11.9637 24.4979 11.9622 24.4979 11.9606C24.4979 11.9591 24.4979 11.9576 24.4979 11.956C24.4979 11.9545 24.4979 11.953 24.4979 11.9514C24.4979 11.9499 24.4979 11.9484 24.4979 11.9468C24.4979 11.9453 24.4979 11.9438 24.4979 11.9423C24.4979 11.9407 24.4979 11.9392 24.4979 11.9377C24.4979 11.9362 24.4979 11.9347 24.4979 11.9331C24.4979 11.9316 24.4979 11.9301 24.4979 11.9286C24.4979 11.9271 24.4979 11.9256 24.4979 11.9241C24.4979 11.9226 24.4979 11.9211 24.4979 11.9196C24.4979 11.9181 24.4979 11.9166 24.4979 11.9151C24.4979 11.9136 24.4979 11.9121 24.4979 11.9106C24.4979 11.9091 24.4979 11.9076 24.4979 11.9061C24.4979 11.9046 24.4979 11.9031 24.4979 11.9016C24.4979 11.9002 24.4979 11.8987 24.4979 11.8972C24.4979 11.8957 24.4979 11.8942 24.4979 11.8928C24.4979 11.8913 24.4979 11.8898 24.4979 11.8883C24.4979 11.8869 24.4979 11.8854 24.4979 11.8839C24.4979 11.8825 24.4979 11.881 24.4979 11.8795C24.4979 11.8781 24.4979 11.8766 24.4979 11.8752C24.4979 11.8737 24.4979 11.8723 24.4979 11.8708C24.4979 11.8693 24.4979 11.8679 24.4979 11.8664C24.4979 11.865 24.4979 11.8636 24.4979 11.8621C24.4979 11.8607 24.4979 11.8592 24.4979 11.8578C24.4979 11.8563 24.4979 11.8549 24.4979 11.8535C24.4979 11.852 24.4979 11.8506 24.4979 11.8492C24.4979 11.8477 24.4979 11.8463 24.4979 11.8449C24.4979 11.8435 24.4979 11.842 24.4979 11.8406C24.4979 11.8392 24.4979 11.8378 24.4979 11.8364C24.4979 11.835 24.4979 11.8335 24.4979 11.8321C24.4979 11.8307 24.4979 11.8293 24.4979 11.8279C24.4979 11.8265 24.4979 11.8251 24.4979 11.8237C24.4979 11.8223 24.4979 11.8209 24.4979 11.8195C24.4979 11.8181 24.4979 11.8167 24.4979 11.8153C24.4979 11.8139 24.4979 11.8125 24.4979 11.8112C24.4979 11.8098 24.4979 11.8084 24.4979 11.807C24.4979 11.8056 24.4979 11.8042 24.4979 11.8029C24.4979 11.8015 24.4979 11.8001 24.4979 11.7988C24.4979 11.7974 24.4979 11.796 24.4979 11.7946C24.4979 11.7933 24.4979 11.7919 24.4979 11.7906C24.4979 11.7892 24.4979 11.7878 24.4979 11.7865C24.4979 11.7851 24.4979 11.7838 24.4979 11.7824C24.4979 11.7811 24.4979 11.7797 24.4979 11.7784C24.4979 11.777 24.4979 11.7757 24.4979 11.7743C24.4979 11.773 24.4979 11.7717 24.4979 11.7703C24.4979 11.769 24.4979 11.7677 24.4979 11.7663C24.4979 11.765 24.4979 11.7637 24.4979 11.7624C24.4979 11.761 24.4979 11.7597 24.4979 11.7584C24.4979 11.7571 24.4979 11.7558 24.4979 11.7544C24.4979 11.7531 24.4979 11.7518 24.4979 11.7505C24.4979 11.7492 24.4979 11.7479 24.4979 11.7466C24.4979 11.7453 24.4979 11.744 24.4979 11.7427C24.4979 11.7414 24.4979 11.7401 24.4979 11.7388C24.4979 11.7375 24.4979 11.7362 24.4979 11.7349C24.4979 11.7336 24.4979 11.7324 24.4979 11.7311C24.4979 11.7298 24.4979 11.7285 24.4979 11.7272C24.4979 11.726 24.4979 11.7247 24.4979 11.7234C24.4979 11.7221 24.4979 11.7209 24.4979 11.7196C24.4979 11.7184 24.4979 11.7171 24.4979 11.7158C24.4979 11.7146 24.4979 11.7133 24.4979 11.7121C24.4979 11.7108 24.4979 11.7096 24.4979 11.7083C24.4979 11.7071 24.4979 11.7058 24.4979 11.7046C24.4979 11.7033 24.4979 11.7021 24.4979 11.7009C24.4979 11.6996 24.4979 11.6984 24.4979 11.6971C24.4979 11.6959 24.4979 11.6947 24.4979 11.6935C24.4979 11.6922 24.4979 11.691 24.4979 11.6898C24.4979 11.6886 24.4979 11.6874 24.4979 11.6861C24.4979 11.6849 24.4979 11.6837 24.4979 11.6825C24.4979 11.6813 24.4979 11.6801 24.4979 11.6789C24.4979 11.6777 24.4979 11.6765 24.4979 11.6753C24.4979 11.6741 24.4979 11.6729 24.4979 11.6717C24.4979 11.6705 24.4979 11.6693 24.4979 11.6682C24.4979 11.667 24.4979 11.6658 24.4979 11.6646C24.4979 11.6634 24.4979 11.6623 24.4979 11.6611C24.4979 11.6599 24.4979 11.6587 24.4979 11.6576C24.4979 11.6564 24.4979 11.6552 24.4979 11.6541C24.4979 11.6529 24.4979 11.6518 24.4979 11.6506C24.4979 11.6495 24.4979 11.6483 24.4979 11.6472C24.4979 11.646 24.4979 11.6449 24.4979 11.6437C24.4979 11.6426 24.4979 11.6414 24.4979 11.6403C24.4979 11.6392 24.4979 11.638 24.4979 11.6369C24.4979 11.6358 24.4979 11.6346 24.4979 11.6335C24.4979 11.6324 24.4979 11.6313 24.4979 11.6302C24.4979 11.629 24.4979 11.6279 24.4979 11.6268C24.4979 11.6257 24.4979 11.6246 24.4979 11.6235C24.4979 11.6224 24.4979 11.6213 24.4979 11.6202C24.4979 11.6191 24.4979 11.618 24.4979 11.6169C24.4979 11.6158 24.4979 11.6147 24.4979 11.6136C24.4979 11.6125 24.4979 11.6115 24.4979 11.6104C24.4979 11.6093 24.4979 11.6082 24.4979 11.6072C24.4979 11.6061 24.4979 11.605 24.4979 11.6039C24.4979 11.6029 24.4979 11.6018 24.4979 11.6008C24.4979 11.5997 24.4979 11.5986 24.4979 11.5976C24.4979 11.5965 24.4979 11.5955 24.4979 11.5944C24.4979 11.5934 24.4979 11.5923 24.4979 11.5913C24.4979 11.5903 24.4979 11.5892 24.4979 11.5882C24.4979 11.5871 24.4979 11.5861 24.4979 11.5851C24.4979 11.5841 24.4979 11.583 24.4979 11.582C24.4979 11.581 24.4979 11.58 24.4979 11.579C24.4979 11.5779 24.4979 11.5769 24.4979 11.5759C24.4979 11.5749 24.4979 11.5739 24.4979 11.5729C24.4979 11.5719 24.4979 11.5709 24.4979 11.5699C24.4979 11.5689 24.4979 11.5679 24.4979 11.5669C24.4979 11.566 24.4979 11.565 24.4979 11.564C24.4979 11.563 24.4979 11.562 24.4979 11.5611C24.4979 11.5601 24.4979 11.5591 24.4979 11.5581C24.4979 11.5572 24.4979 11.5562 24.4979 11.5552C24.4979 11.5543 24.4979 11.5533 24.4979 11.5524C24.4979 11.5514 24.4979 11.5505 24.4979 11.5495C24.4979 11.5486 24.4979 11.5476 24.4979 11.5467C24.4979 11.5458 24.4979 11.5448 24.4979 11.5439C24.4979 11.5429 24.4979 11.542 24.4979 11.5411C24.4979 11.5402 24.4979 11.5392 24.4979 11.5383C24.4979 11.5374 24.4979 11.5365 24.4979 11.5356C24.4979 11.5347 24.4979 11.5338 24.4979 11.5329C24.4979 11.5319 24.4979 11.531 24.4979 11.5301C24.4979 11.5292 24.4979 11.5284 24.4979 11.5275C24.4979 11.5266 24.4979 11.5257 24.4979 11.5248C24.4979 11.5239 24.4979 11.523 24.4979 11.5222C24.4979 11.5213 24.4979 11.5204 24.4979 11.5195C24.4979 11.5187 24.4979 11.5178 24.4979 11.5169C24.4979 11.5161 24.4979 11.5152 24.4979 11.5144C24.4979 11.5135 24.4979 11.5127 24.4979 11.5118C24.4979 11.511 24.4979 11.5101 24.4979 11.5093C24.4979 11.5084 24.4979 11.5076 24.4979 11.5068C24.4979 11.5059 24.4979 11.5051 24.4979 11.5043C24.4979 11.5035 24.4979 11.5026 24.4979 11.5018C24.4979 11.501 24.4979 11.5002 24.4979 11.4994C24.4979 11.4986 24.4979 11.4978 24.4979 11.4969C24.4979 11.4961 24.4979 11.4953 24.4979 11.4945C24.4979 11.4938 24.4979 11.493 24.4979 11.4922C24.4979 11.4914 24.4979 11.4906 24.4979 11.4898C24.4979 11.489 24.4979 11.4883 24.4979 11.4875C24.4979 11.4867 24.4979 11.4859 24.4979 11.4852C24.4979 11.4844 24.4979 11.4836 24.4979 11.4829C24.4979 11.4821 24.4979 11.4814 24.4979 11.4806C24.4979 11.4799 24.4979 11.4791 24.4979 11.4784C24.4979 11.4776 24.4979 11.4769 24.4979 11.4762C24.4979 11.4754 24.4979 11.4747 24.4979 11.474C24.4979 11.4732 24.4979 11.4725 24.4979 11.4718C24.4979 11.4711 24.4979 11.4704 24.4979 11.4696C24.4979 11.4689 24.4979 11.4682 24.4979 11.4675C24.4979 11.4668 24.4979 11.4661 24.4979 11.4654C24.4979 11.4647 24.4979 11.464 24.4979 11.4633C24.4979 11.4626 24.4979 11.462 24.4979 11.4613C24.4979 11.4606 24.4979 11.4599 24.4979 11.4592C24.4979 11.4586 24.4979 11.4579 24.4979 11.4572C24.4979 11.4566 24.4979 11.4559 24.4979 11.4552C24.4979 11.4546 24.4979 11.4539 24.4979 11.4533C24.4979 11.4526 24.4979 11.452 24.4979 11.4513C24.4979 11.4507 24.4979 11.4501 24.4979 11.4494C24.4979 11.4488 24.4979 11.4482 24.4979 11.4475C24.4979 11.4469 24.4979 11.4463 24.4979 11.4457C24.4979 11.4451 24.4979 11.4444 24.4979 11.4438C24.4979 11.4432 24.4979 11.4426 24.4979 11.442C24.4979 11.4414 24.4979 11.4408 24.4979 11.4402C24.4979 11.4396 24.4979 11.439 24.4979 11.4384C24.4979 11.4379 24.4979 11.4373 24.4979 11.4367C24.4979 11.4361 24.4979 11.4356 24.4979 11.435C24.4979 11.4344 24.4979 11.4339 24.4979 11.4333C24.4979 11.4327 24.4979 11.4322 24.4979 11.4316C24.4979 11.4311 24.4979 11.4305 24.4979 11.43C24.4979 11.4294 24.4979 11.4289 24.4979 11.4284C24.4979 11.4278 24.4979 11.4273 24.4979 11.4268C24.4979 11.4262 24.4979 11.4257 24.4979 11.4252C24.4979 11.4247 24.4979 11.4242 24.4979 11.4236C24.4979 11.4231 24.4979 11.4226 24.4979 11.4221C24.4979 11.4216 24.4979 11.4211 24.4979 11.4206C24.4979 11.4201 24.4979 11.4196 24.4979 11.4192C24.4979 11.4187 24.4979 11.4182 24.4979 11.4177C24.4979 11.4172 24.4979 11.4168 24.4979 11.4163C24.4979 11.4158 24.4979 11.4154 24.4979 11.4149C24.4979 11.4144 24.4979 11.414 24.4979 11.4135C24.4979 11.4131 24.4979 11.4126 24.4979 11.4122C24.4979 11.4117 24.4979 11.4113 24.4979 11.4109C24.4979 11.4104 24.4979 11.41 24.4979 11.4096C24.4979 11.4092 24.4979 11.4087 24.4979 11.4083C24.4979 11.4079 24.4979 11.4075 24.4979 11.4071C24.4979 11.4067 24.4979 11.4063 24.4979 11.4059C24.4979 11.4055 24.4979 11.4051 24.4979 11.4047C24.4979 11.4043 24.4979 11.4039 24.4979 11.4035C24.4979 11.4031 24.4979 11.4028 24.4979 11.4024C24.4979 11.402 24.4979 11.4016 24.4979 11.4013C24.4979 11.4009 24.4979 11.4006 24.4979 11.4002C24.4979 11.3998 24.4979 11.3995 24.4979 11.3991C24.4979 11.3988 24.4979 11.3985 24.4979 11.3981C24.4979 11.3978 24.4979 11.3974 24.4979 11.3971C24.4979 11.3968 24.4979 11.3965 24.4979 11.3961C24.4979 11.3958 24.4979 11.3955 24.4979 11.3952C24.4979 11.3949 24.4979 11.3946 24.4979 11.3943C24.4979 11.394 24.4979 11.3937 24.4979 11.3934C24.4979 11.3931 24.4979 11.3928 24.4979 11.3925C24.4979 11.3922 24.4979 11.392 24.4979 11.3917C24.4979 11.3914 24.4979 11.3911 24.4979 11.3909C24.4979 11.3906 24.4979 11.3903 24.4979 11.3901C24.4979 11.3898 24.4979 11.3896 24.4979 11.3893C24.4979 11.3891 24.4979 11.3888 24.4979 11.3886C24.4979 11.3884 24.4979 11.3881 24.4979 11.3879C24.4979 11.3877 24.4979 11.3874 24.4979 11.3872C24.4979 11.387 24.4979 11.3868 24.4979 11.3866C24.4979 11.3864 24.4979 11.3862 24.4979 11.386C24.4979 11.3858 24.4979 11.3856 24.4979 11.3854C24.4979 11.3852 24.4979 11.385 24.4979 11.3848C24.4979 11.3846 24.4979 11.3844 24.4979 11.3843C24.4979 11.3841 24.4979 11.3839 24.4979 11.3838C24.4979 11.3836 24.4979 11.3834 24.4979 11.3833C24.4979 11.3831 24.4979 11.383 24.4979 11.3828C24.4979 11.3827 24.4979 11.3826 24.4979 11.3824C24.4979 11.3823 24.4979 11.3822 24.4979 11.382C24.4979 11.3819 24.4979 11.3818 24.4979 11.3817C24.4979 11.3815 24.4979 11.3814 24.4979 11.3813C24.4979 11.3812 24.4979 11.3811 24.4979 11.381C24.4979 11.3809 24.4979 11.3808 24.4979 11.3807C24.4979 11.3807 24.4979 11.3806 24.4979 11.3805C24.4979 11.3804 24.4979 11.3803 24.4979 11.3803C24.4979 11.3802 24.4979 11.3801 24.4979 11.3801C24.4979 11.38 24.4979 11.38 24.4979 11.3799C24.4979 11.3799 24.4979 11.3798 24.4979 11.3798C24.4979 11.3798 24.4979 11.3797 24.4979 11.3797C24.4979 11.3797 24.4979 11.3796 24.4979 11.3796C24.4979 11.3796 24.4979 11.3796 24.4979 11.3796C24.4979 11.3796 24.4979 11.3796 23.9979 11.3796ZM2.5 11.3796V13.5H3.5V11.3796H2.5Z" fill="#282829"/></svg>
