<svg xmlns="http://www.w3.org/2000/svg" fill="none" viewBox="0 0 24 24" width="1em" height="1em"><rect width="19" height="5" x="2.5" y="9.5" stroke="currentColor" rx="1.5"/><path stroke="currentColor" d="M19.5 12a.75.75 0 1 1-1.5 0 .75.75 0 0 1 1.5 0Z"/><rect width="4" height="4" x="3.5" y="16.5" stroke="currentColor" rx=".5"/><path stroke="currentColor" stroke-linecap="round" d="M10.5 17.5h9m-9 2h9"/><path stroke="currentColor" stroke-linecap="round" stroke-linejoin="round" d="M14.499 7.848v-.696a.263.263 0 0 0-.269-.283h-.551a4.7 4.7 0 0 0-.566-1.372l.382-.381a.273.273 0 0 0 0-.396l-1.201-1.202a.273.273 0 0 0-.396 0l-.382.382a4.7 4.7 0 0 0-1.371-.566v-.551a.284.284 0 0 0-.283-.283H8.165a.284.284 0 0 0-.282.283v.551A4.7 4.7 0 0 0 6.51 3.9l-.396-.382a.273.273 0 0 0-.395 0L4.518 4.72a.273.273 0 0 0 0 .396l.382.381a4.7 4.7 0 0 0-.566 1.372h-.551c-.156 0-.283.475-.283.631v.348"/><path stroke="currentColor" stroke-linecap="round" d="M11.5 8a2.5 2.5 0 0 0-5 0"/></svg>
