<svg xmlns="http://www.w3.org/2000/svg" fill="none" viewBox="0 0 32 32" width="1em" height="1em"><rect width="6" height="6" x="4.5" y="23.5" stroke="currentColor" rx=".5"/><path stroke="currentColor" stroke-linecap="round" d="M13.5 24.5h14m-14 4h14m-14-2h14"/><rect width="27" height="6" x="2.5" y="15.5" stroke="currentColor" rx="1.5"/><circle cx="25.956" cy="18.456" r=".956" stroke="currentColor"/><path stroke="currentColor" stroke-linecap="round" stroke-linejoin="round" d="M19.5 13.549a6 6 0 0 0-12 0m2.65-.049a3.3 3.3 0 0 1 6.601 0m7.247 0v-2.12a.503.503 0 0 0-.513-.54h-1.052a9 9 0 0 0-1.08-2.618l.729-.729a.52.52 0 0 0 0-.756l-2.294-2.294a.52.52 0 0 0-.756 0l-.729.729a9 9 0 0 0-2.618-1.08V3.04a.54.54 0 0 0-.54-.54h-3.238a.54.54 0 0 0-.54.54v1.052a9 9 0 0 0-2.618 1.08l-.756-.729a.52.52 0 0 0-.756 0L4.943 6.737a.52.52 0 0 0 0 .756l.729.729a9 9 0 0 0-1.08 2.618H3.54a.54.54 0 0 0-.54.54v2.12"/></svg>
