<svg xmlns="http://www.w3.org/2000/svg" fill="none" viewBox="0 0 32 32" width="1em" height="1em"><path stroke="currentColor" stroke-linecap="round" d="M11.097 4.5H4.5a2 2 0 0 0-2 2v14a2 2 0 0 0 2 2h23a2 2 0 0 0 2-2v-2"/><path stroke="currentColor" d="M15.896 22v5"/><path stroke="currentColor" stroke-linecap="round" d="M8.91 27.5h14.045"/><path stroke="currentColor" stroke-miterlimit="10" d="M28.608 10.355h-.802a6.809 6.809 0 0 0-.823-1.995l.555-.555a.398.398 0 0 0 0-.576L25.791 5.48a.398.398 0 0 0-.576 0l-.555.555a6.81 6.81 0 0 0-1.995-.823V4.41a.413.413 0 0 0-.411-.41h-2.468a.413.413 0 0 0-.411.411v.802a6.81 6.81 0 0 0-1.995.823l-.576-.555a.398.398 0 0 0-.575 0L14.48 7.229a.398.398 0 0 0 0 .576l.555.555a6.812 6.812 0 0 0-.823 1.995h-.802a.412.412 0 0 0-.411.411v2.468c0 .226.185.411.411.411h.802c.165.72.453 1.378.823 1.995l-.555.555a.398.398 0 0 0 0 .576l1.748 1.748a.398.398 0 0 0 .575 0l.556-.555c.616.37 1.274.658 1.994.823v.802c0 .226.185.411.411.411h2.468a.413.413 0 0 0 .411-.411v-.802a6.809 6.809 0 0 0 1.995-.823l.555.555a.398.398 0 0 0 .576 0l1.748-1.748a.398.398 0 0 0 0-.576l-.555-.555a6.81 6.81 0 0 0 .822-1.995h.802a.412.412 0 0 0 .411-.411v-2.468a.383.383 0 0 0-.39-.411Z"/><circle cx="21" cy="12" r="3.5" stroke="currentColor"/></svg>
