<svg xmlns="http://www.w3.org/2000/svg" fill="none" viewBox="0 0 24 24" width="1em" height="1em"><path stroke="currentColor" stroke-linecap="round" d="M6.724 5.5H5.5a2 2 0 0 0-2 2v9a2 2 0 0 0 2 2h14a2 2 0 0 0 2-2v0"/><path stroke="currentColor" d="M13 18.5v3"/><path stroke="currentColor" stroke-linecap="round" d="M7.522 21.5H18.5"/><path stroke="currentColor" stroke-miterlimit="10" d="M21.206 8.266h-.602a5.1 5.1 0 0 0-.617-1.496l.417-.417a.3.3 0 0 0 0-.431L19.093 4.61a.3.3 0 0 0-.432 0l-.416.416a5.1 5.1 0 0 0-1.496-.617v-.602a.31.31 0 0 0-.309-.308h-1.85a.31.31 0 0 0-.309.308v.602c-.54.123-1.033.34-1.496.617l-.432-.416a.3.3 0 0 0-.432 0l-1.31 1.31a.3.3 0 0 0 0 .432l.416.417a5.1 5.1 0 0 0-.617 1.496h-.602a.31.31 0 0 0-.308.309v1.85c0 .17.139.309.308.309h.602c.123.54.34 1.033.617 1.496l-.417.416a.3.3 0 0 0 0 .432l1.311 1.312a.3.3 0 0 0 .432 0l.417-.417c.462.278.956.494 1.496.617v.601c0 .17.138.309.308.309h1.85a.31.31 0 0 0 .31-.309v-.601a5.1 5.1 0 0 0 1.495-.617l.417.416a.3.3 0 0 0 .431 0l1.311-1.31a.3.3 0 0 0 0-.433l-.416-.416c.278-.463.493-.956.617-1.496h.601a.31.31 0 0 0 .309-.309v-1.85a.287.287 0 0 0-.293-.309Z"/><circle cx="15.5" cy="9.5" r="2" stroke="currentColor"/></svg>
