<svg xmlns="http://www.w3.org/2000/svg" fill="none" viewBox="0 0 18 16" width="1em" height="1em"><path stroke="currentColor" stroke-linecap="round" stroke-linejoin="round" d="M5.91 3.5H3.5a2 2 0 0 0-2 2v4a2 2 0 0 0 2 2h9a2 2 0 0 0 2-2V9"/><path stroke="currentColor" stroke-linecap="round" d="M5.5 14.5h6"/><path stroke="currentColor" d="M8.5 14v-2m4.69-5.738.47.178-.47-.178q-.03.066-.064.13l.46.203-.46-.203c-.19.369-.185.859.158 1.202a.035.035 0 0 1-.003.051l-.31.28a.04.04 0 0 1-.055 0c-.342-.343-.858-.374-1.256-.212l-.14.053c-.406.14-.769.502-.79.981 0 .02-.019.037-.04.036l-.422-.004a.036.036 0 0 1-.037-.037c.021-.48-.309-.847-.702-.996l-.136-.056c-.383-.17-.901-.149-1.274.187a.04.04 0 0 1-.054 0l-.286-.287a.035.035 0 0 1 .002-.051 1.05 1.05 0 0 0 .263-1.198l-.051-.131-.487.169.487-.17a1.08 1.08 0 0 0-1.012-.717c-.021 0-.038-.016-.037-.036l.018-.4c0-.02.018-.037.04-.037a1.18 1.18 0 0 0 1.074-.696q.03-.066.063-.13c.19-.37.185-.86-.158-1.203a.035.035 0 0 1 .003-.051l.31-.28a.04.04 0 0 1 .055 0c.343.343.859.374 1.256.212l.141-.053c.405-.14.768-.502.789-.981 0-.02.019-.036.04-.036l.422.004c.021 0 .038.017.037.037-.021.48.31.847.702.996q.069.026.135.056c.384.17.902.149 1.274-.187a.04.04 0 0 1 .055 0l.286.287a.035.035 0 0 1-.002.051 1.05 1.05 0 0 0-.263 1.198q.027.064.051.132l.487-.17-.487.17c.137.38.507.712 1.012.717.022 0 .038.017.037.037l-.017.4c-.001.02-.02.036-.04.036a1.18 1.18 0 0 0-1.075.697Z"/></svg>
