<svg viewBox="0 0 24 24" fill="none" xmlns="http://www.w3.org/2000/svg" width="1em" height="1em"><path d="M10.9565 14.5L10.9565 18.5C10.9565 19.6046 11.852 20.5 12.9565 20.5H19.946C20.2039 20.5 20.4518 20.5996 20.6379 20.778L21.1754 21.2931C21.314 21.4259 21.4985 21.5 21.6904 21.5C22.1015 21.5 22.4348 21.1667 22.4348 20.7556V14.5C22.4348 13.3954 21.5394 12.5 20.4348 12.5L12.9565 12.5C11.852 12.5 10.9565 13.3954 10.9565 14.5Z" stroke="currentColor"/><path d="M17.2173 9V4.5C17.2173 3.39543 16.3219 2.5 15.2173 2.5L4.49988 2.5C3.39531 2.5 2.49988 3.39543 2.49988 4.5L2.49988 12.2153C2.49988 12.9248 3.07505 13.5 3.78456 13.5V13.5C4.22929 13.5 4.64239 13.27 4.87662 12.8919L5.44577 11.9733C5.62809 11.679 5.94965 11.5 6.29583 11.5H7.49988" stroke="currentColor" stroke-linecap="round"/></svg>
