<svg xmlns="http://www.w3.org/2000/svg" fill="none" viewBox="0 0 32 32" width="1em" height="1em"><rect width="11" height="19" x="10.5" y="10.5" stroke="currentColor" rx="1.5"/><path stroke="currentColor" d="M13.5 10.5V12a.5.5 0 0 0 .5.5h4a.5.5 0 0 0 .5-.5v-1.5"/><path stroke="currentColor" stroke-linecap="round" d="M14.5 26.5h3"/><path stroke="currentColor" stroke-linecap="round" stroke-linejoin="round" d="M11 5.5c.571-1.2 2.286-3 5.143-3 2.857 0 4.571 1.8 5.143 3"/><path stroke="currentColor" stroke-linecap="round" stroke-linejoin="round" d="M12.714 6.5c.572-1.25 2-2 3.429-2 1.428 0 2.857.75 3.428 2m-5.142 1c.288-.589.947-1 1.714-1s1.426.411 1.714 1"/></svg>
