<svg xmlns="http://www.w3.org/2000/svg" fill="none" viewBox="0 0 24 24" width="1em" height="1em"><mask id="iconsGenerativeAnsweringSize24Px__a" fill="#fff"><path fill-rule="evenodd" d="M16.5 20a5.5 5.5 0 1 1 4.656-2.571.527.527 0 0 0-.057.453l.86 2.48a.667.667 0 0 1-.943.808l-2.551-1.36a.527.527 0 0 0-.398-.036A5.502 5.502 0 0 1 16.5 20Z" clip-rule="evenodd"/></mask><path fill="currentColor" d="m21.96 20.363-.945.328.945-.328Zm-.944.807.47-.883-.47.883Zm-2.551-1.36.47-.883-.47.883Zm-.398-.036-.285-.96.285.96Zm3.09-2.345.845.533-.846-.533Zm-.058.453-.945.328.945-.328ZM12 14.5a4.5 4.5 0 0 0 4.5 4.5v2a6.5 6.5 0 0 1-6.5-6.5h2Zm4.5-4.5a4.5 4.5 0 0 0-4.5 4.5h-2A6.5 6.5 0 0 1 16.5 8v2Zm4.5 4.5a4.5 4.5 0 0 0-4.5-4.5V8a6.5 6.5 0 0 1 6.5 6.5h-2Zm-.69 2.396c.437-.693.69-1.514.69-2.396h2c0 1.27-.366 2.46-.998 3.462l-1.692-1.066Zm.705 3.795-.86-2.481 1.889-.656.86 2.481-1.889.656Zm.472-.404a.333.333 0 0 0-.472.404l1.89-.656c.496 1.432-1.021 2.73-2.359 2.017l.94-1.765Zm-2.552-1.36 2.552 1.36-.94 1.765-2.553-1.36.94-1.765ZM16.5 19c.447 0 .877-.065 1.282-.185l.57 1.917A6.502 6.502 0 0 1 16.5 21v-2Zm1.494 1.692c.128.069.259.07.357.04l-.569-1.917c.364-.108.78-.086 1.153.112l-.94 1.765Zm4.008-2.73a.474.474 0 0 0 .042-.408l-1.89.656a1.526 1.526 0 0 1 .156-1.314l1.692 1.066Z" mask="url(#iconsGenerativeAnsweringSize24Px__a)"/><path fill="currentColor" d="M14.518 15.077c-.337 0-.568-.196-.568-.518 0-.329.232-.525.568-.525.321 0 .56.196.56.525 0 .322-.239.518-.56.518Zm1.984 0c-.336 0-.567-.196-.567-.518 0-.329.23-.525.567-.525.322 0 .56.196.56.525 0 .322-.238.518-.56.518Zm1.984 0c-.336 0-.567-.196-.567-.518 0-.329.231-.525.567-.525.322 0 .56.196.56.525 0 .322-.238.518-.56.518ZM7.759 9.606c-.018-.63.26-.927.603-1.206l.53-.432c.19-.153.343-.342.343-.612 0-.432-.36-.711-.936-.711-.522 0-.972.342-1.206.576l-.46-.666c.28-.342.802-.855 1.855-.855 1.107 0 1.818.648 1.818 1.521 0 .747-.333 1.098-.702 1.44-.315.297-.648.477-.756.684a.698.698 0 0 0-.081.333l-.018.54h-.972l-.018-.612Zm.504 2.493c-.423 0-.72-.252-.72-.666 0-.423.297-.675.72-.675.432 0 .72.252.72.675 0 .414-.288.666-.72.666Z"/><path stroke="currentColor" stroke-linecap="round" d="M9.607 15.405a6.603 6.603 0 0 1-3.27-.288.488.488 0 0 0-.407.033l-2.202 1.265c-.508.291-1.102-.214-.892-.758l.774-2.006a.483.483 0 0 0-.086-.484A6.45 6.45 0 0 1 2 8.997C2 5.408 4.924 2.5 8.531 2.5c3.299 0 6.026 2.432 6.469 5.591"/></svg>
