<svg xmlns="http://www.w3.org/2000/svg" fill="none" viewBox="0 0 16 16" width="1em" height="1em"><mask id="iconsGenerativeAnsweringSize16Px__a" fill="#fff"><path fill-rule="evenodd" d="M12 14a4 4 0 1 1 3.44-1.956.537.537 0 0 0-.066.401l.285 1.163a.667.667 0 0 1-.944.756l-1.078-.534a.537.537 0 0 0-.404-.024A3.997 3.997 0 0 1 12 14Z" clip-rule="evenodd"/></mask><path fill="currentColor" d="m15.659 13.608.97-.238-.97.238Zm-.944.756.444-.896-.444.896Zm-1.078-.534-.443.896.443-.896Zm1.802-1.786-.859-.512.86.512ZM9 10a3 3 0 0 0 3 3v2a5 5 0 0 1-5-5h2Zm3-3a3 3 0 0 0-3 3H7a5 5 0 0 1 5-5v2Zm3 3a3 3 0 0 0-3-3V5a5 5 0 0 1 5 5h-2Zm-.42 1.532c.267-.448.42-.97.42-1.532h2c0 .932-.256 1.807-.702 2.555l-1.718-1.023Zm.107 2.314-.285-1.163 1.943-.476.285 1.163-1.943.476Zm.472-.378a.333.333 0 0 0-.472.378l1.943-.476c.337 1.376-1.088 2.519-2.358 1.89l.887-1.792Zm-1.078-.534 1.078.534-.887 1.792-1.078-.534.887-1.792ZM12 13c.325 0 .635-.051.925-.145l.616 1.903A4.998 4.998 0 0 1 12 15v-2Zm1.194 1.726a.46.46 0 0 0 .347.032l-.616-1.903a1.537 1.537 0 0 1 1.156.08l-.887 1.791Zm3.104-2.17a.465.465 0 0 0 .047-.349l-1.943.476a1.54 1.54 0 0 1 .178-1.151l1.718 1.023Z" mask="url(#iconsGenerativeAnsweringSize16Px__a)"/><path fill="currentColor" d="M10.584 10.555c-.24 0-.405-.14-.405-.37 0-.235.165-.375.405-.375.23 0 .4.14.4.375 0 .23-.17.37-.4.37Zm1.417 0c-.24 0-.405-.14-.405-.37 0-.235.165-.375.405-.375.23 0 .4.14.4.375 0 .23-.17.37-.4.37Zm1.418 0c-.24 0-.405-.14-.405-.37 0-.235.165-.375.405-.375.23 0 .4.14.4.375 0 .23-.17.37-.4.37ZM5.174 6.138c-.014-.49.203-.721.469-.938l.413-.336c.147-.119.266-.266.266-.476 0-.336-.28-.553-.728-.553-.406 0-.756.266-.938.448l-.357-.518c.217-.266.623-.665 1.442-.665.86 0 1.414.504 1.414 1.183 0 .581-.26.854-.546 1.12-.245.231-.504.371-.588.532a.543.543 0 0 0-.063.259l-.014.42h-.756l-.014-.476Zm.392 1.939c-.33 0-.56-.196-.56-.518 0-.329.23-.525.56-.525.336 0 .56.196.56.525 0 .322-.224.518-.56.518Z"/><path stroke="currentColor" stroke-linecap="round" d="M6.266 10.218a4.436 4.436 0 0 1-2.264-.206.33.33 0 0 0-.281.024l-1.525.903c-.351.208-.763-.152-.617-.541l.536-1.433a.353.353 0 0 0-.06-.346A4.695 4.695 0 0 1 1 5.64C1 3.078 3.024 1 5.522 1 7.805 1 9.693 2.737 10 4.994"/></svg>
