<svg xmlns="http://www.w3.org/2000/svg" fill="none" viewBox="0 0 32 32" width="1em" height="1em"><path fill="currentColor" d="M18.385 19.121c-.528 0-.891-.308-.891-.814 0-.517.363-.825.89-.825.507 0 .88.308.88.825 0 .506-.373.814-.88.814m3.118 0c-.528 0-.891-.308-.891-.814 0-.517.363-.825.89-.825.507 0 .88.308.88.825 0 .506-.373.814-.88.814m3.118 0c-.528 0-.89-.308-.89-.814 0-.517.362-.825.89-.825.506 0 .88.308.88.825 0 .506-.374.814-.88.814"/><mask id="iconsGenerativeAnsweringSize32Px__a" fill="#fff"><path fill-rule="evenodd" d="M21.5 26a7.5 7.5 0 1 1 5.935-2.914.52.52 0 0 0-.067.536l.953 2.073c.272.59-.376 1.18-.939.856l-2.181-1.26a.52.52 0 0 0-.483-.014A7.5 7.5 0 0 1 21.5 26" clip-rule="evenodd"/></mask><path fill="currentColor" d="m28.321 25.695.909-.418zm-.939.856-.5.866zm-2.181-1.26-.5.866zm-.483-.014-.43-.903zm2.717-2.191.79.612zm-.067.536.909-.418zM15 18.5a6.5 6.5 0 0 0 6.5 6.5v2a8.5 8.5 0 0 1-8.5-8.5zm6.5-6.5a6.5 6.5 0 0 0-6.5 6.5h-2a8.5 8.5 0 0 1 8.5-8.5zm6.5 6.5a6.5 6.5 0 0 0-6.5-6.5v-2a8.5 8.5 0 0 1 8.5 8.5zm-1.356 3.974A6.47 6.47 0 0 0 28 18.5h2a8.47 8.47 0 0 1-1.774 5.198zm.769 3.639-.954-2.074 1.818-.835.953 2.073zm.47-.428a.333.333 0 0 0-.47.428l1.817-.836c.678 1.476-.94 2.952-2.348 2.14zm-2.182-1.26 2.181 1.26-1 1.732-2.18-1.26zM21.5 25c1 0 1.944-.225 2.788-.626l.86 1.806A8.5 8.5 0 0 1 21.5 27zm3.201 1.157a.48.48 0 0 0 .446.023l-.859-1.806a1.52 1.52 0 0 1 1.413.052zm3.525-2.459a.48.48 0 0 0 .05-.494l-1.817.835a1.52 1.52 0 0 1 .185-1.565z" mask="url(#iconsGenerativeAnsweringSize32Px__a)"/><path fill="currentColor" d="M13.969 11.032c0 1.053-.52 1.56-1.066 2.093-.455.442-.845.715-1.001 1.092a1.3 1.3 0 0 0-.104.481l-.026.91h-1.053l-.026-.923c-.026-1.027.468-1.469.91-1.885l.754-.689a1.27 1.27 0 0 0 .416-.949c0-.767-.585-1.222-1.456-1.222-.858 0-1.43.494-1.703.962l-.546-.78c.22-.39.91-1.222 2.43-1.222 1.535 0 2.47 1.014 2.47 2.132m-1.86 6.292c0 .494-.35.806-.857.806s-.858-.312-.858-.806c0-.507.35-.819.858-.819.507 0 .858.312.858.819"/><path fill="currentColor" d="M13.583 22.192a.52.52 0 0 0-.575-.326 8.55 8.55 0 0 1-5.208-.711 1.52 1.52 0 0 0-1.419.048l-3.16 1.824 1.45-3.155a1.52 1.52 0 0 0-.139-1.503A8.46 8.46 0 0 1 3 13.5a8.5 8.5 0 0 1 16.237-3.524.516.516 0 0 0 .592.288c.289-.072.465-.378.343-.65A9.5 9.5 0 0 0 11.5 4 9.5 9.5 0 0 0 2 13.5c0 2.025.633 3.901 1.713 5.443.105.15.127.345.05.511l-1.45 3.156c-.408.885.564 1.77 1.408 1.283l3.16-1.824a.52.52 0 0 1 .483-.014 9.56 9.56 0 0 0 5.88.786c.292-.055.444-.37.339-.649"/></svg>
