<svg viewBox="0 0 16 16" fill="none" xmlns="http://www.w3.org/2000/svg" width="1em" height="1em"><path d="M3.5 13.5V11.5C3.5 10.3954 4.39543 9.5 5.5 9.5H7.5" stroke="currentColor" stroke-linecap="round" stroke-linejoin="round"/><path d="M8.00012 6.5C9.10469 6.5 10.0001 5.60457 10.0001 4.5C10.0001 3.39543 9.10469 2.5 8.00012 2.5C6.89555 2.5 6.00012 3.39543 6.00012 4.5C6.00012 5.60457 6.89555 6.5 8.00012 6.5Z" stroke="currentColor" stroke-linecap="round" stroke-linejoin="round"/><path d="M9.5 11C9.5 10.7239 9.72386 10.5 10 10.5H13C13.2761 10.5 13.5 10.7239 13.5 11V13C13.5 13.2761 13.2761 13.5 13 13.5H10C9.72386 13.5 9.5 13.2761 9.5 13V11Z" stroke="currentColor"/><path d="M12.5 10.5V9.5C12.5 8.94772 12.0523 8.5 11.5 8.5V8.5C10.9477 8.5 10.5 8.94772 10.5 9.5V10.5" stroke="currentColor"/></svg>
