<svg viewBox="0 0 32 32" fill="none" xmlns="http://www.w3.org/2000/svg" width="1em" height="1em"><path d="M5.5 27.5V25.8333C5.5 22.6117 8.48731 20.5 11.5556 20.5L17.5 20.5" stroke="currentColor" stroke-linecap="round" stroke-linejoin="round"/><path d="M16 14.5C18.7614 14.5 21 12.2614 21 9.5C21 6.73858 18.7614 4.5 16 4.5C13.2386 4.5 11 6.73858 11 9.5C11 12.2614 13.2386 14.5 16 14.5Z" stroke="currentColor" stroke-linecap="round" stroke-linejoin="round"/><path d="M20.5 23C20.5 22.1716 21.1716 21.5 22 21.5H26C26.8284 21.5 27.5 22.1716 27.5 23V26C27.5 26.8284 26.8284 27.5 26 27.5H22C21.1716 27.5 20.5 26.8284 20.5 26V23Z" stroke="currentColor"/><path d="M26.5 21.5V19C26.5 17.6193 25.3807 16.5 24 16.5V16.5C22.6193 16.5 21.5 17.6193 21.5 19L21.5 21.5" stroke="currentColor"/><path d="M25 24C25 24.5523 24.5523 25 24 25C23.4477 25 23 24.5523 23 24C23 23.4477 23.4477 23 24 23C24.5523 23 25 23.4477 25 24Z" fill="currentColor"/><path d="M23.5 24.5C23.5 24.2239 23.7239 24 24 24C24.2761 24 24.5 24.2239 24.5 24.5V25.5C24.5 25.7761 24.2761 26 24 26C23.7239 26 23.5 25.7761 23.5 25.5V24.5Z" fill="currentColor"/></svg>
