<svg viewBox="0 0 24 24" fill="none" xmlns="http://www.w3.org/2000/svg" width="1em" height="1em"><path d="M3.5 19.5V19.1667C3.5 16.8655 5.24111 15.5 7.38889 15.5L12.5 15.5" stroke="currentColor" stroke-linecap="round" stroke-linejoin="round"/><path d="M12 11.5C14.2091 11.5 16 9.70914 16 7.5C16 5.29086 14.2091 3.5 12 3.5C9.79086 3.5 8 5.29086 8 7.5C8 9.70914 9.79086 11.5 12 11.5Z" stroke="currentColor" stroke-linecap="round" stroke-linejoin="round"/><path d="M15.5 17C15.5 16.1716 16.1716 15.5 17 15.5H20C20.8284 15.5 21.5 16.1716 21.5 17V19C21.5 19.8284 20.8284 20.5 20 20.5H17C16.1716 20.5 15.5 19.8284 15.5 19V17Z" stroke="currentColor"/><circle cx="18.5" cy="17.5" r="0.25" stroke="currentColor" stroke-width="0.5"/><path d="M20.5 15.5V13.5C20.5 12.3954 19.6046 11.5 18.5 11.5V11.5C17.3954 11.5 16.5 12.3954 16.5 13.5V15.5" stroke="currentColor"/></svg>
