<svg xmlns="http://www.w3.org/2000/svg" fill="none" viewBox="0 0 32 32" width="1em" height="1em"><path stroke="currentColor" stroke-linecap="round" stroke-linejoin="round" d="M5.5 27.5v-1.667c0-3.221 2.987-5.333 6.056-5.333H17.5m-1.5-6a5 5 0 1 0 0-10 5 5 0 0 0 0 10"/><path stroke="currentColor" d="M20.5 23a1.5 1.5 0 0 1 1.5-1.5h4a1.5 1.5 0 0 1 1.5 1.5v3a1.5 1.5 0 0 1-1.5 1.5h-4a1.5 1.5 0 0 1-1.5-1.5zm6-1.5V19a2.5 2.5 0 0 0-5 0v2.5"/><path fill="currentColor" d="M25 24a1 1 0 1 1-2 0 1 1 0 0 1 2 0"/><path fill="currentColor" d="M23.5 24.5a.5.5 0 0 1 1 0v1a.5.5 0 0 1-1 0z"/></svg>
