<svg viewBox="0 0 32 32" fill="none" xmlns="http://www.w3.org/2000/svg" width="1em" height="1em"><path d="M19 25.5C19 23.8431 17.6569 22.5 16 22.5C14.3431 22.5 13 23.8431 13 25.5" stroke="currentColor" stroke-linecap="round"/><path d="M23 25.5C23 21.634 19.866 18.5 16 18.5C12.134 18.5 9 21.634 9 25.5" stroke="currentColor" stroke-linecap="round"/><path d="M26.5 25C26.5 19.201 21.799 14.5 16 14.5C10.201 14.5 5.5 19.201 5.5 25" stroke="currentColor" stroke-linecap="round"/><path d="M2.5 25.5V24.5C2.5 17.0442 8.54416 10.5 16 10.5C23.4558 10.5 29.5 17.0442 29.5 24.5V25.5" stroke="currentColor" stroke-linecap="round"/><path d="M2.5 25.5H13M19 25.5H29.5" stroke="currentColor" stroke-linecap="round"/></svg>
