<svg viewBox="0 0 24 24" fill="none" xmlns="http://www.w3.org/2000/svg" width="1em" height="1em"><path d="M14.5625 16.25C14.5625 14.9728 13.5272 13.9375 12.25 13.9375C10.9728 13.9375 9.9375 14.9728 9.9375 16.25" stroke="currentColor" stroke-linecap="round"/><path d="M16.875 16.25C16.875 13.6957 14.8043 11.625 12.25 11.625C9.69568 11.625 7.625 13.6957 7.625 16.25" stroke="currentColor" stroke-linecap="round"/><path d="M19.1875 16.25C19.1875 12.4185 16.0815 9.3125 12.25 9.3125C8.41852 9.3125 5.3125 12.4185 5.3125 16.25" stroke="currentColor" stroke-linecap="round"/><path d="M21.5 16.25C21.5 11.1414 17.3586 7 12.25 7C7.14137 7 3 11.1414 3 16.25" stroke="currentColor" stroke-linecap="round"/><path d="M3 16.3281H9.9375M14.5625 16.3281H21.5" stroke="currentColor" stroke-linecap="round"/></svg>
