<svg viewBox="0 0 32 32" fill="none" xmlns="http://www.w3.org/2000/svg" width="1em" height="1em"><path d="M16 15.5C18.2091 15.5 20 13.7091 20 11.5C20 9.29086 18.2091 7.5 16 7.5C13.7909 7.5 12 9.29086 12 11.5C12 13.7091 13.7909 15.5 16 15.5Z" stroke="currentColor" stroke-linecap="round" stroke-linejoin="round"/><path d="M9.5 24V23.5C9.5 21.2909 11.2909 19.5 13.5 19.5H18.5C20.7092 19.5 22.5 21.2909 22.5 23.5V24" stroke="currentColor" stroke-linecap="round"/><path d="M6.12213 5.42927C10.3508 6.74246 13.5756 4.29697 15.2849 2.69722C15.6881 2.31984 16.312 2.31984 16.7152 2.69722C18.4246 4.29697 21.6494 6.74246 25.878 5.42927C26.4746 5.24402 27.141 5.55854 27.2602 6.17169C28.4322 12.2001 27.7449 21.7132 16.5644 29.6089C16.2292 29.8457 15.7709 29.8457 15.4357 29.6089C4.25515 21.7132 3.56798 12.2001 4.73995 6.1717C4.85916 5.55854 5.52559 5.24402 6.12213 5.42927Z" stroke="currentColor" stroke-linecap="round"/></svg>
