<svg xmlns="http://www.w3.org/2000/svg" fill="none" viewBox="0 0 24 24" width="1em" height="1em"><path stroke="currentColor" stroke-linecap="round" stroke-linejoin="round" d="M12 11.5a3 3 0 1 0 0-6 3 3 0 0 0 0 6"/><path stroke="currentColor" stroke-linecap="round" d="M7.5 17.5v-1a2 2 0 0 1 2-2h5a2 2 0 0 1 2 2v1"/><path stroke="currentColor" stroke-linecap="round" d="M5.287 3.365c2.782 1.132 4.755.26 5.93-.65a1.29 1.29 0 0 1 1.566 0c1.175.91 3.148 1.782 5.93.65.46-.188 1.01-.067 1.22.384 1.802 3.868.101 12.21-7.393 17.39a.95.95 0 0 1-1.08 0c-7.494-5.18-9.195-13.522-7.393-17.39.21-.45.76-.572 1.22-.384Z"/></svg>
