<svg viewBox="0 0 16 16" fill="none" xmlns="http://www.w3.org/2000/svg" width="1em" height="1em"><path d="M8 7.5C8.82843 7.5 9.5 6.82843 9.5 6C9.5 5.17157 8.82843 4.5 8 4.5C7.17157 4.5 6.5 5.17157 6.5 6C6.5 6.82843 7.17157 7.5 8 7.5Z" stroke="currentColor" stroke-linecap="round" stroke-linejoin="round"/><path d="M5.5 12.5V11.5C5.5 10.3954 6.39543 9.5 7.5 9.5L8.50005 9.5C9.60462 9.5 10.5 10.3954 10.5 11.5V12.5" stroke="currentColor" stroke-linecap="round"/><path d="M3.00197 3.49037C5.51639 3.39162 6.63469 2.55106 7.31175 1.81228C7.7016 1.3869 8.29841 1.3869 8.68825 1.81228C9.36531 2.55106 10.4836 3.39162 12.998 3.49037C13.274 3.50121 13.5005 3.72453 13.4953 4.00063C13.3905 9.47423 11.5528 12.7787 8.38989 14.3216C8.14392 14.4416 7.85608 14.4416 7.61011 14.3216C4.44716 12.7787 2.60952 9.47423 2.50474 4.00063C2.49946 3.72453 2.72604 3.50121 3.00197 3.49037Z" stroke="currentColor" stroke-linecap="round"/></svg>
