<svg xmlns="http://www.w3.org/2000/svg" fill="none" viewBox="0 0 32 32" width="1em" height="1em"><path stroke="currentColor" stroke-linecap="round" stroke-linejoin="round" d="M16 15.5a4 4 0 1 0 0-8 4 4 0 0 0 0 8Z"/><path stroke="currentColor" stroke-linecap="round" d="M9.5 24v-.5a4 4 0 0 1 4-4h5a4 4 0 0 1 4 4v.5"/><path stroke="currentColor" stroke-linecap="round" d="M6.122 5.43c4.229 1.312 7.454-1.133 9.163-2.733a1.045 1.045 0 0 1 1.43 0c1.71 1.6 4.934 4.045 9.163 2.732.596-.185 1.263.13 1.382.743 1.172 6.028.485 15.541-10.696 23.437a.985.985 0 0 1-1.128 0C4.256 21.713 3.568 12.2 4.74 6.172c.12-.613.786-.928 1.382-.743Z"/></svg>
