<svg viewBox="0 0 24 24" fill="none" xmlns="http://www.w3.org/2000/svg" width="1em" height="1em"><path d="M11.9999 11.5C13.6567 11.5 14.9999 10.1569 14.9999 8.5C14.9999 6.84315 13.6567 5.5 11.9999 5.5C10.343 5.5 8.99988 6.84315 8.99988 8.5C8.99988 10.1569 10.343 11.5 11.9999 11.5Z" stroke="currentColor" stroke-linecap="round" stroke-linejoin="round"/><path d="M7.5 17.5V16.5C7.5 15.3954 8.39543 14.5 9.5 14.5L14.5 14.5C15.6046 14.5 16.5 15.3954 16.5 16.5V17.5" stroke="currentColor" stroke-linecap="round"/><path d="M5.28727 3.36453C8.06906 4.4971 10.042 3.62499 11.2164 2.71443C11.6716 2.3615 12.3283 2.3615 12.7835 2.71444C13.9578 3.625 15.9307 4.4971 18.7125 3.36453C19.1733 3.17695 19.7228 3.29835 19.9328 3.74927C21.7349 7.6174 20.034 15.9589 12.5397 21.139C12.2158 21.3629 11.7842 21.3629 11.4603 21.139C3.96602 15.9589 2.26499 7.61742 4.06696 3.74928C4.27702 3.29835 4.82653 3.17695 5.28727 3.36453Z" stroke="currentColor" stroke-linecap="round"/></svg>
