<svg xmlns="http://www.w3.org/2000/svg" fill="none" viewBox="0 0 16 16" width="1em" height="1em"><path fill="currentColor" d="m13.243 9.715-.475-.155.475.155ZM9.868 3.058l-.48.14a.5.5 0 0 1 .346-.621l.134.481Zm1.69-.989a.5.5 0 1 1 .268.964l-.267-.964Zm-.692 2.639a.5.5 0 1 1-.961.278l.96-.278Zm2.432 1.88-.48.14.48-.14Zm-3.622 7.168a.5.5 0 1 1-.278-.96l.278.96Zm.058-11.18 1.825-.507.268.964-1.825.507-.268-.963Zm.614.343.518 1.789-.961.278-.517-1.789.96-.278Zm2.42 6.64a4.82 4.82 0 0 0 .05-2.831l.96-.278a5.816 5.816 0 0 1-.06 3.42l-.95-.31Zm.05-2.831c-.416-1.439-1.658-2.732-3.102-3.193l.304-.953c1.765.564 3.251 2.112 3.759 3.868l-.961.278Zm-3.42 6.068c1.58-.457 2.867-1.694 3.37-3.236l.95.31c-.607 1.862-2.15 3.339-4.042 3.886l-.278-.96ZM2.757 6.285l.475.155-.475-.155Zm3.375 6.657.48-.14a.5.5 0 0 1-.346.621l-.134-.481Zm-1.69.989a.5.5 0 1 1-.269-.964l.268.964Zm.692-2.64a.5.5 0 1 1 .96-.277l-.96.278Zm-2.433-1.88.48-.139-.48.14Zm3.623-7.167a.5.5 0 0 1 .278.96l-.278-.96Zm-.058 11.18-1.825.507-.268-.964 1.825-.507.268.963Zm-.615-.343-.517-1.79.96-.277.518 1.789-.96.278ZM3.232 6.44a4.815 4.815 0 0 0-.05 2.831l-.96.278a5.815 5.815 0 0 1 .06-3.42l.95.31Zm-.05 2.831c.416 1.439 1.658 2.732 3.102 3.194l-.304.952c-1.765-.564-3.251-2.112-3.759-3.868l.96-.278Zm3.42-6.068c-1.58.457-2.867 1.694-3.37 3.236l-.95-.31c.606-1.862 2.149-3.339 4.042-3.886l.278.96Z"/><path stroke="currentColor" stroke-linecap="round" stroke-linejoin="round" stroke-miterlimit="10" d="M7.521 5.5v3h2.06"/></svg>
