<svg xmlns="http://www.w3.org/2000/svg" fill="none" viewBox="0 0 32 32" width="1em" height="1em"><path fill="currentColor" d="m26.91 13.447-.487.113.487-.113ZM13.998 5.386l-.34.367a.5.5 0 0 1-.024-.71l.364.343Zm2.287-3.153a.5.5 0 0 1 .727.686l-.727-.686Zm.842 5.363a.5.5 0 1 1-.679.734l.679-.734Zm6.583.336-.34.367.34-.367Zm.852 15.98a.5.5 0 0 1-.734-.679l.735.679ZM13.634 5.042l2.65-2.81.728.687-2.65 2.81-.728-.686Zm.703-.024 2.79 2.578-.679.734-2.79-2.577.68-.735Zm12.086 8.542A10.34 10.34 0 0 0 23.37 8.3l.678-.735a11.34 11.34 0 0 1 3.348 5.77l-.974.226ZM23.37 8.3C21 6.11 17.292 5.115 14.114 5.872l-.232-.973c3.506-.835 7.556.253 10.167 2.665l-.678.735Zm.457 14.934c2.39-2.588 3.383-6.28 2.595-9.673l.974-.226c.864 3.72-.222 7.75-2.834 10.578l-.735-.679ZM5.09 18.553l.487-.113-.487.113ZM18 26.614l.34-.367a.5.5 0 0 1 .024.71L18 26.614Zm-2.286 3.153a.5.5 0 1 1-.728-.686l.728.686Zm-.842-5.363a.5.5 0 0 1 .679-.734l-.68.734Zm-6.583-.336.339-.367-.34.367Zm-.853-15.98a.5.5 0 1 1 .734.679l-.734-.679Zm10.928 18.87-2.65 2.81-.728-.687 2.65-2.81.728.686Zm-.703.024-2.79-2.578.68-.734 2.789 2.577-.679.735ZM5.577 18.44a10.34 10.34 0 0 0 3.052 5.26l-.679.735a11.34 11.34 0 0 1-3.347-5.77l.974-.226Zm3.052 5.26c2.369 2.189 6.078 3.184 9.257 2.427l.231.973c-3.505.835-7.555-.253-10.167-2.665l.679-.735ZM8.17 8.767c-2.39 2.588-3.382 6.28-2.594 9.673l-.974.226c-.864-3.72.222-7.75 2.834-10.578l.734.679Z"/><path stroke="currentColor" stroke-linecap="round" stroke-linejoin="round" stroke-miterlimit="10" d="M14.5 11.5v7h4"/></svg>
