<svg xmlns="http://www.w3.org/2000/svg" fill="none" viewBox="0 0 24 24" width="1em" height="1em"><path fill="currentColor" d="m19.922 10.337-.49.105zM10.793 4.43l-.345.362a.5.5 0 0 1-.013-.71zm1.567-2.325a.5.5 0 0 1 .717.698zm.74 3.836a.5.5 0 0 1-.69.724zm4.6.42-.345.362zm.527 11.521a.5.5 0 1 1-.723-.69zm-7.792-13.8 1.925-1.977.717.698-1.926 1.976zm.703-.014 1.963 1.873-.69.724-1.963-1.873zm8.295 6.374a7.24 7.24 0 0 0-2.078-3.72l.69-.723a8.24 8.24 0 0 1 2.365 4.233zm-2.078-3.72c-1.633-1.558-4.222-2.297-6.454-1.804l-.216-.976c2.56-.567 5.489.271 7.36 2.057zm.149 10.47c1.705-1.787 2.442-4.364 1.929-6.75l.977-.21c.584 2.714-.252 5.628-2.183 7.65zm-13.44-3.529.488-.105zm9.128 5.907.345-.362a.5.5 0 0 1 .013.71zm-1.567 2.325a.5.5 0 1 1-.716-.698zm-.74-3.836a.5.5 0 1 1 .69-.724zm-4.6-.42.345-.361zM5.758 6.118a.5.5 0 0 1 .723.69zm7.792 13.8-1.925 1.977-.716-.698 1.925-1.976zm-.703.014-1.962-1.873.69-.724 1.962 1.873zm-8.295-6.374a7.24 7.24 0 0 0 2.078 3.72L5.94 18a8.24 8.24 0 0 1-2.365-4.233zm2.078 3.72c1.633 1.558 4.222 2.298 6.454 1.804l.216.976c-2.56.567-5.489-.271-7.36-2.057zm-.149-10.47c-1.705 1.787-2.442 4.365-1.929 6.75l-.977.21c-.584-2.714.252-5.627 2.183-7.65z"/><path stroke="currentColor" stroke-linecap="round" stroke-linejoin="round" stroke-miterlimit="10" d="M11.5 8.5v5h2"/></svg>
