<svg xmlns="http://www.w3.org/2000/svg" fill="none" viewBox="0 0 32 32" width="1em" height="1em"><path fill="currentColor" d="m26.91 13.447-.487.113zM13.998 5.386l-.34.367a.5.5 0 0 1-.024-.71zm2.287-3.153a.5.5 0 0 1 .727.686zm.842 5.363a.5.5 0 1 1-.679.734zm6.583.336-.34.367zm.852 15.98a.5.5 0 0 1-.734-.679zM13.635 5.042l2.65-2.81.728.687-2.65 2.81zm.703-.024 2.79 2.578-.679.734-2.79-2.577zm12.086 8.542A10.34 10.34 0 0 0 23.37 8.3l.678-.735a11.34 11.34 0 0 1 3.348 5.77zM23.37 8.3C21 6.11 17.292 5.115 14.114 5.872l-.232-.973c3.506-.835 7.556.253 10.167 2.665zm.457 14.934c2.39-2.588 3.383-6.28 2.595-9.673l.974-.226c.864 3.72-.222 7.75-2.834 10.578zM5.09 18.553l.487-.113zM18 26.614l.34-.367a.5.5 0 0 1 .024.71zm-2.286 3.153a.5.5 0 1 1-.728-.686zm-.842-5.363a.5.5 0 0 1 .679-.734zm-6.583-.336.339-.367zm-.853-15.98a.5.5 0 1 1 .734.679zm10.928 18.87-2.65 2.81-.728-.687 2.65-2.81zm-.703.024-2.79-2.578.68-.734 2.789 2.577zM5.577 18.44a10.34 10.34 0 0 0 3.052 5.26l-.679.735a11.34 11.34 0 0 1-3.347-5.77zm3.052 5.26c2.369 2.189 6.078 3.184 9.257 2.427l.231.973c-3.505.835-7.555-.253-10.167-2.665zM8.17 8.767c-2.39 2.588-3.382 6.28-2.594 9.673l-.974.226c-.864-3.72.222-7.75 2.834-10.578z"/><path stroke="currentColor" stroke-linecap="round" stroke-linejoin="round" stroke-miterlimit="10" d="M14.5 11.5v7h4"/></svg>
