<svg xmlns="http://www.w3.org/2000/svg" fill="none" viewBox="0 0 16 16" width="1em" height="1em"><path fill="currentColor" d="m13.243 9.715-.475-.155zM9.868 3.058l-.48.14a.5.5 0 0 1 .346-.621zm1.69-.989a.5.5 0 1 1 .268.964zm-.692 2.639a.5.5 0 1 1-.961.278zm2.432 1.88-.48.14zm-3.622 7.168a.5.5 0 1 1-.278-.96zm.058-11.18 1.825-.507.268.964-1.825.507zm.614.343.518 1.789-.961.278-.517-1.789zm2.42 6.64a4.8 4.8 0 0 0 .05-2.831l.96-.278a5.8 5.8 0 0 1-.06 3.42zm.05-2.831c-.416-1.439-1.658-2.732-3.102-3.193l.304-.953c1.765.564 3.251 2.113 3.759 3.868zm-3.42 6.068c1.58-.457 2.867-1.694 3.37-3.236l.95.31c-.607 1.862-2.15 3.339-4.042 3.886zM2.757 6.285l.475.155zm3.375 6.657.48-.14a.5.5 0 0 1-.346.621zm-1.69.989a.5.5 0 1 1-.269-.964zm.692-2.64a.5.5 0 1 1 .96-.277zm-2.433-1.88.48-.139zm3.623-7.167a.5.5 0 0 1 .278.96zm-.058 11.18-1.825.507-.268-.964 1.825-.507zm-.615-.343-.517-1.79.96-.277.518 1.789zM3.232 6.44a4.8 4.8 0 0 0-.05 2.831l-.96.278a5.8 5.8 0 0 1 .06-3.42zm-.05 2.831c.416 1.439 1.658 2.732 3.102 3.194l-.304.952c-1.765-.564-3.251-2.112-3.759-3.868zm3.42-6.068c-1.58.457-2.867 1.694-3.37 3.236l-.95-.31c.606-1.862 2.149-3.339 4.042-3.886z"/><path stroke="currentColor" stroke-linecap="round" stroke-linejoin="round" stroke-miterlimit="10" d="M7.521 5.5v3h2.06"/></svg>
