<svg viewBox="0 0 16 16" fill="none" xmlns="http://www.w3.org/2000/svg" width="1em" height="1em"><path d="M4.29571 12.1213L3.64039 9.5H5.21922C5.44866 9.5 5.64865 9.65615 5.70429 9.87873L6.2043 11.8787C6.28319 12.1943 6.04451 12.5 5.71922 12.5H4.78078C4.55134 12.5 4.35135 12.3439 4.29571 12.1213Z" stroke="currentColor"/><path d="M4 5.5H5.5V9.5H4C3.72386 9.5 3.5 9.27614 3.5 9V6C3.5 5.72386 3.72386 5.5 4 5.5Z" stroke="currentColor"/><path d="M8.77639 3.67082L5.5 5.30902V9.69098L8.77639 11.3292C9.10884 11.4954 9.5 11.2537 9.5 10.882V4.11803C9.5 3.74634 9.10884 3.5046 8.77639 3.67082Z" stroke="currentColor"/><path d="M9.5 9.5V5.5H9.75C10.6682 5.5 11.5 6.34457 11.5 7.5C11.5 8.65543 10.6682 9.5 9.75 9.5H9.5Z" stroke="currentColor"/><path d="M3.5 9.5V5.5H3.25C2.33175 5.5 1.5 6.34457 1.5 7.5C1.5 8.65543 2.33175 9.5 3.25 9.5H3.5Z" stroke="currentColor"/><path d="M14.5 7.5H13.5" stroke="currentColor" stroke-linecap="round"/><path d="M13.5 5.5L14.5 4.5" stroke="currentColor" stroke-linecap="round"/><path d="M13.5 9.5L14.5 10.5" stroke="currentColor" stroke-linecap="round"/></svg>
