<svg xmlns="http://www.w3.org/2000/svg" fill="none" viewBox="0 0 24 24" width="1em" height="1em"><path stroke="currentColor" d="M7.246 18.158 5.694 13.5H8.64l1.447 4.342a.5.5 0 0 1-.474.658H7.72a.5.5 0 0 1-.475-.342ZM6 7.5h2.5v6H6a.5.5 0 0 1-.5-.5V8a.5.5 0 0 1 .5-.5Zm-3.5 3c0-1.624 1.328-2.962 3-3v6c-1.672-.038-3-1.376-3-3Zm14 2v-4h.25c.918 0 1.75.845 1.75 2s-.832 2-1.75 2h-.25Z"/><path stroke="currentColor" d="M15.842 4.913 8.5 7.36v6.28l7.342 2.447a.5.5 0 0 0 .658-.474V5.387a.5.5 0 0 0-.658-.474Z"/><path stroke="currentColor" stroke-linecap="round" d="M20.5 10.5h1m-1-2 1-1m-1 5 1 1"/></svg>
