<svg xmlns="http://www.w3.org/2000/svg" fill="none" viewBox="0 0 16 16" width="1em" height="1em"><path stroke="currentColor" d="M4.296 12.121 3.64 9.5h1.58a.5.5 0 0 1 .484.379l.5 2a.5.5 0 0 1-.485.621h-.938a.5.5 0 0 1-.485-.379ZM4 5.5h1.5v4H4a.5.5 0 0 1-.5-.5V6a.5.5 0 0 1 .5-.5Z"/><path stroke="currentColor" d="M8.776 3.67 5.5 5.31v4.382l3.276 1.638a.5.5 0 0 0 .724-.447V4.118a.5.5 0 0 0-.724-.447ZM9.5 9.5v-4h.25c.918 0 1.75.845 1.75 2s-.832 2-1.75 2zm-6 0v-4h-.25c-.918 0-1.75.845-1.75 2s.832 2 1.75 2z"/><path stroke="currentColor" stroke-linecap="round" d="M14.5 7.5h-1m0-2 1-1m-1 5 1 1"/></svg>
