<svg xmlns="http://www.w3.org/2000/svg" fill="none" viewBox="0 0 32 32" width="1em" height="1em"><path stroke="currentColor" d="M8.296 25.121 6.64 18.5h4.58a.5.5 0 0 1 .484.379l1.5 6a.5.5 0 0 1-.485.621H8.781a.5.5 0 0 1-.485-.379ZM7 9.5h4.5v9H7a.5.5 0 0 1-.5-.5v-8a.5.5 0 0 1 .5-.5Zm-.5 8.973a4.5 4.5 0 0 1 0-8.946v8.946Zm17-.973v-5h.5a2.5 2.5 0 0 1 0 5h-.5Z"/><path stroke="currentColor" d="M22.853 5.876 11.5 9.37v9.262l11.353 3.493a.5.5 0 0 0 .647-.478V6.354a.5.5 0 0 0-.647-.478Z"/><path stroke="currentColor" stroke-linecap="round" d="M28.5 15h1m-1-3.5 1-1m-1 8 1 1"/></svg>
