<svg viewBox="0 0 24 24" fill="none" xmlns="http://www.w3.org/2000/svg" width="1em" height="1em"><path d="M7.24642 18.1581L5.69371 13.5H8.63962L10.0869 17.8419C10.1948 18.1657 9.95385 18.5 9.61257 18.5H7.72076C7.50554 18.5 7.31447 18.3623 7.24642 18.1581Z" stroke="currentColor"/><path d="M6 7.5H8.5V13.5H6C5.72386 13.5 5.5 13.2761 5.5 13V8C5.5 7.72386 5.72386 7.5 6 7.5Z" stroke="currentColor"/><path d="M2.5 10.5C2.5 8.87568 3.82759 7.53792 5.5 7.50079V13.4992C3.82759 13.4621 2.5 12.1243 2.5 10.5Z" stroke="currentColor"/><path d="M16.5 12.5V8.5H16.75C17.6682 8.5 18.5 9.34457 18.5 10.5C18.5 11.6554 17.6682 12.5 16.75 12.5H16.5Z" stroke="currentColor"/><path d="M15.8419 4.91308L8.5 7.36038V13.6396L15.8419 16.0869C16.1657 16.1948 16.5 15.9539 16.5 15.6126V5.38743C16.5 5.04615 16.1657 4.80516 15.8419 4.91308Z" stroke="currentColor"/><path d="M20.5 10.5H21.5" stroke="currentColor" stroke-linecap="round"/><path d="M20.5 8.5L21.5 7.5" stroke="currentColor" stroke-linecap="round"/><path d="M20.5 12.5L21.5 13.5" stroke="currentColor" stroke-linecap="round"/></svg>
