<svg xmlns="http://www.w3.org/2000/svg" fill="none" viewBox="0 0 32 32" width="1em" height="1em"><path stroke="currentColor" d="M10.646 12.5a1.5 1.5 0 0 1 1.393.943l.445 1.114a1.5 1.5 0 0 0 1.393.943H26a1.5 1.5 0 0 1 1.5 1.5v11a1.5 1.5 0 0 1-1.5 1.5H6A1.5 1.5 0 0 1 4.5 28V14A1.5 1.5 0 0 1 6 12.5z"/><path stroke="currentColor" d="M24.5 16V3.5a1 1 0 0 0-1-1h-15a1 1 0 0 0-1 1v8.955"/><path fill="currentColor" fill-rule="evenodd" d="M11 6.5a.5.5 0 1 1-1 0 .5.5 0 0 1 1 0m1 0a1.5 1.5 0 1 1-3 0 1.5 1.5 0 0 1 3 0m1.5-.5a.5.5 0 0 0 0 1h8a.5.5 0 0 0 0-1zm-3 3a.5.5 0 0 0 0 1h11a.5.5 0 0 0 0-1zm3.5 3.5a.5.5 0 0 1 .5-.5h7a.5.5 0 0 1 0 1h-7a.5.5 0 0 1-.5-.5" clip-rule="evenodd"/><path fill="currentColor" d="M16.5 20a.5.5 0 0 0-1 0v3a.5.5 0 0 0 .342.474l1.5.5a.5.5 0 1 0 .316-.948L16.5 22.64z"/><path fill="currentColor" fill-rule="evenodd" d="M21 22a5 5 0 1 1-10 0 5 5 0 0 1 10 0m-1 0a4 4 0 1 1-8 0 4 4 0 0 1 8 0" clip-rule="evenodd"/></svg>
