<svg viewBox="0 0 24 24" fill="none" xmlns="http://www.w3.org/2000/svg" width="1em" height="1em"><mask id="path-1-inside-1_1748_8539" fill="currentColor"><path fill-rule="evenodd" clip-rule="evenodd" d="M5 8L9.20351 8C9.79512 8 10.3038 8.41926 10.4167 9C10.5296 9.58074 11.0382 10 11.6299 10L19 10C19.5523 10 20 10.4477 20 11L20 21C20 21.5523 19.5523 22 19 22H5C4.44771 22 4 21.5523 4 21L4 12V11V9C4 8.44772 4.44772 8 5 8Z"/></mask><path d="M9.20351 9H5V7L9.20351 7V9ZM19 11L11.6299 11V9L19 9V11ZM19 11V11V9C20.1046 9 21 9.89543 21 11H19ZM19 21L19 11H21L21 21H19ZM19 21H21C21 22.1046 20.1046 23 19 23V21ZM5 21H19V23H5V21ZM5 21V23C3.89543 23 3 22.1046 3 21L5 21ZM5 12L5 21L3 21L3 12L5 12ZM5 11V12L3 12V11L5 11ZM5 9V11L3 11V9L5 9ZM5 9H5L3 9C3 7.89543 3.89543 7 5 7V9ZM11.3983 8.80913C11.4199 8.91997 11.5169 9 11.6299 9V11C10.5596 11 9.63936 10.2415 9.43507 9.19087L11.3983 8.80913ZM9.20351 7C10.2738 7 11.194 7.7585 11.3983 8.80913L9.43507 9.19087C9.41351 9.08003 9.31643 9 9.20351 9V7Z" fill="currentColor" mask="url(#path-1-inside-1_1748_8539)"/><path d="M17.5001 10.5V3.5C17.5001 2.94772 17.0523 2.5 16.5001 2.5L7.50006 2.5C6.94778 2.5 6.50006 2.94772 6.50006 3.5L6.50006 8.5" stroke="currentColor"/><path d="M8.5 5.5L15.5 5.5M11.5 7.5L15.5 7.5" stroke="currentColor" stroke-linecap="round"/><path d="M12 14.5V16.5L13 17" stroke="currentColor" stroke-linecap="round" stroke-linejoin="round"/><circle cx="12" cy="16" r="3.5" stroke="currentColor" stroke-linejoin="round"/></svg>
