<svg viewBox="0 0 16 16" fill="none" xmlns="http://www.w3.org/2000/svg" width="1em" height="1em"><mask id="path-1-inside-1_1748_8531" fill="currentColor"><path fill-rule="evenodd" clip-rule="evenodd" d="M3 5L6.53118 5C6.99987 5 7.40569 5.32553 7.50736 5.78307L7.60378 6.21693C7.70545 6.67447 8.11127 7 8.57997 7L13 7C13.5523 7 14 7.44772 14 8L14 13C14 13.5523 13.5523 14 13 14L3 14C2.44771 14 2 13.5523 2 13L2 8V6C2 5.44772 2.44772 5 3 5Z"/></mask><path d="M7.50736 5.78307L8.48355 5.56613L7.50736 5.78307ZM6.53118 6L3 6V4L6.53118 4V6ZM6.62759 6.43387L6.53118 6L8.48355 5.56613L8.57996 6L6.62759 6.43387ZM13 8L8.57997 8V6L13 6V8ZM13 8H13V6C14.1046 6 15 6.89543 15 8H13ZM13 13L13 8H15L15 13H13ZM13 13H13H15C15 14.1046 14.1046 15 13 15V13ZM3 13L13 13V15L3 15V13ZM3 13V15C1.89543 15 1 14.1046 1 13H3ZM3 8L3 13H1L1 8H3ZM3 6V8H1V6H3ZM3 6H1C1 4.89543 1.89543 4 3 4V6ZM8.57996 6L8.57997 6V8C7.64257 8 6.83094 7.34894 6.62759 6.43387L8.57996 6ZM6.53118 4C7.46857 4 8.2802 4.65106 8.48355 5.56613L6.53118 6V6V4Z" fill="currentColor" mask="url(#path-1-inside-1_1748_8531)"/><path d="M12.5 7.5L12.5 2.5C12.5 1.94772 12.0523 1.5 11.5 1.5L4.5 1.5C3.94772 1.5 3.5 1.94772 3.5 2.5L3.5 5.5" stroke="currentColor"/><path d="M5.5 3.5L10.5 3.5M8.5 5.5L10.5 5.5" stroke="currentColor" stroke-linecap="round"/></svg>
