<svg viewBox="0 0 32 32" fill="none" xmlns="http://www.w3.org/2000/svg" width="1em" height="1em"><mask id="path-1-inside-1_1748_8550" fill="currentColor"><path fill-rule="evenodd" clip-rule="evenodd" d="M10.6459 12C11.4637 12 12.1992 12.4979 12.5029 13.2572L12.9486 14.3714C13.1004 14.751 13.4681 15 13.877 15L26 15C27.1046 15 28 15.8954 28 17L28 28C28 29.1046 27.1046 30 26 30L6 30C4.89543 30 4 29.1046 4 28L4 16V15V14C4 12.8954 4.89543 12 6 12H10.6459Z"/></mask><path d="M12.5029 13.2572L11.5744 13.6286V13.6286L12.5029 13.2572ZM12.9486 14.3714L12.0201 14.7428L12.9486 14.3714ZM11.5744 13.6286C11.4225 13.249 11.0548 13 10.6459 13V11C11.8726 11 12.9758 11.7469 13.4314 12.8858L11.5744 13.6286ZM12.0201 14.7428L11.5744 13.6286L13.4314 12.8858L13.877 14L12.0201 14.7428ZM26 16L13.877 16V14L26 14V16ZM27 17C27 16.4477 26.5523 16 26 16V14C27.6569 14 29 15.3431 29 17H27ZM27 28L27 17H29L29 28H27ZM26 29C26.5523 29 27 28.5523 27 28H29C29 29.6569 27.6569 31 26 31V29ZM6 29L26 29V31L6 31V29ZM5 28C5 28.5523 5.44771 29 6 29V31C4.34315 31 3 29.6569 3 28H5ZM5 16L5 28H3L3 16H5ZM5 15V16H3V15H5ZM5 14V15H3V14H5ZM6 13C5.44772 13 5 13.4477 5 14H3C3 12.3431 4.34315 11 6 11V13ZM10.6459 13H6V11H10.6459V13ZM13.877 14H13.877V16C13.0592 16 12.3238 15.5021 12.0201 14.7428L13.877 14Z" fill="currentColor" mask="url(#path-1-inside-1_1748_8550)"/><path d="M24.5 16L24.5 3.50003C24.5 2.94775 24.0523 2.50003 23.5 2.50003L8.49997 2.5C7.94769 2.5 7.49997 2.94771 7.49997 3.5L7.49997 12.4545" stroke="currentColor"/><path fill-rule="evenodd" clip-rule="evenodd" d="M11 6.5C11 6.77614 10.7761 7 10.5 7C10.2239 7 10 6.77614 10 6.5C10 6.22386 10.2239 6 10.5 6C10.7761 6 11 6.22386 11 6.5ZM12 6.5C12 7.32843 11.3284 8 10.5 8C9.67157 8 9 7.32843 9 6.5C9 5.67157 9.67157 5 10.5 5C11.3284 5 12 5.67157 12 6.5ZM13.5 6C13.2239 6 13 6.22386 13 6.5C13 6.77614 13.2239 7 13.5 7L21.5 7C21.7761 7 22 6.77614 22 6.5C22 6.22386 21.7761 6 21.5 6L13.5 6ZM10.5 9C10.2239 9 10 9.22386 10 9.5C10 9.77614 10.2239 10 10.5 10L21.5 10C21.7761 10 22 9.77614 22 9.5C22 9.22386 21.7761 9 21.5 9L10.5 9ZM14 12.5C14 12.2239 14.2239 12 14.5 12L21.5 12C21.7761 12 22 12.2239 22 12.5C22 12.7761 21.7761 13 21.5 13L14.5 13C14.2239 13 14 12.7761 14 12.5Z" fill="currentColor"/><path d="M16.5 20C16.5 19.7239 16.2761 19.5 16 19.5C15.7239 19.5 15.5 19.7239 15.5 20V23C15.5 23.2152 15.6377 23.4063 15.8419 23.4743L17.3419 23.9743C17.6039 24.0617 17.887 23.9201 17.9743 23.6581C18.0617 23.3961 17.9201 23.113 17.6581 23.0257L16.5 22.6396V20Z" fill="currentColor"/><path fill-rule="evenodd" clip-rule="evenodd" d="M21 22C21 24.7614 18.7614 27 16 27C13.2386 27 11 24.7614 11 22C11 19.2386 13.2386 17 16 17C18.7614 17 21 19.2386 21 22ZM20 22C20 24.2091 18.2091 26 16 26C13.7909 26 12 24.2091 12 22C12 19.7909 13.7909 18 16 18C18.2091 18 20 19.7909 20 22Z" fill="currentColor"/></svg>
