<svg xmlns="http://www.w3.org/2000/svg" fill="none" viewBox="0 0 24 24" width="1em" height="1em"><path stroke="currentColor" d="M5 8.5h4.204c.352 0 .655.25.722.595A1.736 1.736 0 0 0 11.63 10.5H19a.5.5 0 0 1 .5.5v10a.5.5 0 0 1-.5.5H5a.5.5 0 0 1-.5-.5V9a.5.5 0 0 1 .5-.5Z"/><path stroke="currentColor" d="M17.5 10.5v-7a1 1 0 0 0-1-1h-9a1 1 0 0 0-1 1v5"/><path stroke="currentColor" stroke-linecap="round" d="M8.5 5.5h7m-4 2h4"/><path stroke="currentColor" stroke-linecap="round" stroke-linejoin="round" d="M12 14.5v2l1 .5"/><circle cx="12" cy="16" r="3.5" stroke="currentColor" stroke-linejoin="round"/></svg>
