<svg viewBox="0 0 16 16" fill="none" xmlns="http://www.w3.org/2000/svg" width="1em" height="1em"><path d="M3 5.5H6.53118C6.76552 5.5 6.96843 5.66277 7.01927 5.89153L7.11568 6.3254C7.2682 7.0117 7.87692 7.5 8.57997 7.5H13C13.2761 7.5 13.5 7.72386 13.5 8V13C13.5 13.2761 13.2761 13.5 13 13.5H3C2.72386 13.5 2.5 13.2761 2.5 13V6C2.5 5.72386 2.72386 5.5 3 5.5Z" stroke="currentColor"/><path d="M12.5 7.5L12.5 2.5C12.5 1.94772 12.0523 1.5 11.5 1.5L4.5 1.5C3.94772 1.5 3.5 1.94772 3.5 2.5L3.5 5.5" stroke="currentColor"/><path d="M5.5 3.5L10.5 3.5M8.5 5.5L10.5 5.5" stroke="currentColor" stroke-linecap="round"/></svg>
