<svg xmlns="http://www.w3.org/2000/svg" fill="none" viewBox="0 0 24 24" width="1em" height="1em"><path stroke="currentColor" d="M19.5 13.786c0 2.33-1.113 4.255-2.628 5.61C15.347 20.758 13.461 21.5 12 21.5c-1.476 0-3.362-.664-4.878-1.976C5.619 18.222 4.5 16.3 4.5 13.786v-.653c-.001-1.724-.002-3.195.068-4.454.079-1.419.246-2.521.581-3.379.328-.839.815-1.443 1.559-1.876.76-.443 1.823-.728 3.332-.852.755-.062 1.45.594 1.785 1.561.754 2.176 2.793 3.329 6.131 3.637.875.08 1.544.771 1.544 1.587z"/><path stroke="currentColor" stroke-linecap="round" stroke-linejoin="round" d="M7.5 3.5v3.214M9.5 3v2.5m2.143-2h2.643a4.5 4.5 0 0 1 4.5 4.5v0"/><path stroke="currentColor" d="M8.5 18a1.5 1.5 0 0 1 1.5-1.5h4a1.5 1.5 0 0 1 1.5 1.5.5.5 0 0 1-.5.5H9a.5.5 0 0 1-.5-.5Zm1.357-1.714v2.143m4.286-2.143v2.143M12 16.286v2.143"/><path fill="currentColor" d="M19.5 14a.5.5 0 1 0 0 1zm0-3.286h.143v-1H19.5zm1.643 1.5v.286h1v-.286zM19.643 14H19.5v1h.143zm1.5-1.5a1.5 1.5 0 0 1-1.5 1.5v1a2.5 2.5 0 0 0 2.5-2.5zm-1.5-1.786a1.5 1.5 0 0 1 1.5 1.5h1a2.5 2.5 0 0 0-2.5-2.5zM4.5 14a.5.5 0 1 1 0 1zm0-3.286h-.143v-1H4.5zm-1.643 1.5v.286h-1v-.286zM4.357 14H4.5v1h-.143zm-1.5-1.5a1.5 1.5 0 0 0 1.5 1.5v1a2.5 2.5 0 0 1-2.5-2.5zm1.5-1.786a1.5 1.5 0 0 0-1.5 1.5h-1a2.5 2.5 0 0 1 2.5-2.5z"/><path stroke="currentColor" d="M17 11.5a1.5 1.5 0 0 1-3 0c0-.392.146-.606.36-.746.246-.161.634-.254 1.14-.254s.894.093 1.14.254c.214.14.36.354.36.746Zm-7 0a1.5 1.5 0 0 1-3 0q.002-.119.012-.165h.056a4 4 0 0 1 .444.06l.128.021c.244.04.541.084.86.084s.616-.044.86-.084l.128-.021a4 4 0 0 1 .444-.06h.056A1 1 0 0 1 10 11.5Zm-3.034-.16h.001zm3.068 0z"/></svg>
