<svg xmlns="http://www.w3.org/2000/svg" fill="none" viewBox="0 0 32 32" width="1em" height="1em"><path stroke="currentColor" d="M26.5 18.5c0 3.335-1.546 6.083-3.65 8.006C20.736 28.439 18.102 29.5 16 29.5c-4.283 0-10.5-3.831-10.5-11q0-.645-.002-1.266c-.003-1.963-.007-3.738.08-5.333.105-1.93.342-3.55.849-4.873.502-1.308 1.268-2.324 2.45-3.062 1.193-.745 2.847-1.23 5.16-1.399.766-.056 1.468.593 1.663 1.524.37 1.77 1.275 3.169 2.828 4.155 1.531.973 3.657 1.523 6.44 1.695.861.053 1.532.738 1.532 1.557z"/><path stroke="currentColor" stroke-linecap="round" stroke-linejoin="round" d="M9.5 4v4.5M12 3v3.5m3.5-3H19a6.5 6.5 0 0 1 6.5 6.5v0"/><path fill="currentColor" d="M26.5 19a.5.5 0 0 0 0 1zm0-5h1v-1h-1zm2.5 1.5v2h1v-2zM27.5 19h-1v1h1zm1.5-1.5a1.5 1.5 0 0 1-1.5 1.5v1a2.5 2.5 0 0 0 2.5-2.5zM27.5 14a1.5 1.5 0 0 1 1.5 1.5h1a2.5 2.5 0 0 0-2.5-2.5zm-22 5a.5.5 0 0 1 0 1zm0-5h-1v-1h1zM3 15.5v2H2v-2zM4.5 19h1v1h-1zM3 17.5A1.5 1.5 0 0 0 4.5 19v1A2.5 2.5 0 0 1 2 17.5zM4.5 14A1.5 1.5 0 0 0 3 15.5H2A2.5 2.5 0 0 1 4.5 13z"/><path stroke="currentColor" d="M10.5 23a1.5 1.5 0 0 1 1.5-1.5h8a1.5 1.5 0 0 1 1.5 1.5v2a.5.5 0 0 1-.5.5H11a.5.5 0 0 1-.5-.5zm0 .5h11M13 22v3m6-3v3m-3-3v3m-3.5-10.25c0 .918-.845 1.75-2 1.75s-2-.832-2-1.75c0-.145.02-.21.03-.236a.6.6 0 0 1 .187-.013c.157.005.34.032.583.069l.154.023c.303.044.662.092 1.046.092s.743-.048 1.046-.092l.154-.023c.242-.037.426-.065.583-.07a.6.6 0 0 1 .187.014c.01.025.03.091.03.235Zm-3.964-.248-.001.002zm3.928 0 .002.002zm10.036-.003a2 2 0 0 1-4 0c0-.278.056-.447.122-.554a.67.67 0 0 1 .314-.257c.34-.152.859-.188 1.564-.188s1.224.036 1.564.188c.153.069.25.153.314.257.066.107.122.276.122.554Z"/><path stroke="currentColor" stroke-linecap="round" stroke-linejoin="round" d="M19.5 16.5V19m2-2.5V20"/></svg>
