<svg viewBox="0 0 24 24" fill="none" xmlns="http://www.w3.org/2000/svg" width="1em" height="1em"><mask id="path-1-inside-1_2_62402" fill="currentColor"><path d="M20 13.7857C20 18.7857 15.2143 22 12.0001 22C8.78581 22 4.00004 19.1429 4.00004 13.7857C4.00004 5.78276 3.82226 2.58049 9.99913 2.07341C11.1 1.98304 11.9358 2.92556 12.2974 3.96927C12.956 5.87023 14.7434 6.97121 18.0023 7.2722C19.1021 7.37379 20 8.25224 20 9.35681C20 10.6611 20 12.3766 20 13.7857Z"/></mask><path d="M19 13.7857C19 15.9449 17.9708 17.7425 16.539 19.0223C15.0863 20.3208 13.3149 21 12.0001 21V23C13.8995 23 16.1281 22.072 17.8718 20.5134C19.6365 18.9361 21 16.6266 21 13.7857H19ZM12.0001 21C10.6547 21 8.88258 20.3869 7.44931 19.1458C6.04098 17.9263 5.00004 16.1373 5.00004 13.7857H3.00004C3.00004 16.7913 4.35198 19.1094 6.1401 20.6578C7.90328 22.1845 10.1312 23 12.0001 23V21ZM5.00004 13.7857C5.00004 11.7687 4.98935 10.1045 5.06723 8.70634C5.14537 7.30344 5.30953 6.26437 5.61482 5.48221C5.90602 4.73613 6.32392 4.22636 6.95947 3.85593C7.62854 3.46596 8.6072 3.19104 10.081 3.07006L9.91731 1.07676C8.30263 1.20932 6.98719 1.52484 5.95235 2.12801C4.88399 2.75071 4.18817 3.63677 3.7517 4.75501C3.32933 5.83717 3.15188 7.13092 3.07032 8.59512C2.98851 10.064 3.00004 11.8013 3.00004 13.7857H5.00004ZM19 9.35681C19 9.35936 19 9.36191 19 9.36446C19 9.36701 19 9.36956 19 9.37212C19 9.37467 19 9.37723 19 9.37978C19 9.38234 19 9.3849 19 9.38746C19 9.39002 19 9.39258 19 9.39514C19 9.39771 19 9.40027 19 9.40284C19 9.4054 19 9.40797 19 9.41054C19 9.41311 19 9.41568 19 9.41825C19 9.42082 19 9.4234 19 9.42597C19 9.42855 19 9.43113 19 9.4337C19 9.43628 19 9.43886 19 9.44144C19 9.44402 19 9.44661 19 9.44919C19 9.45178 19 9.45436 19 9.45695C19 9.45954 19 9.46213 19 9.46472C19 9.46731 19 9.4699 19 9.47249C19 9.47509 19 9.47768 19 9.48028C19 9.48287 19 9.48547 19 9.48807C19 9.49067 19 9.49327 19 9.49587C19 9.49847 19 9.50108 19 9.50368C19 9.50629 19 9.50889 19 9.5115C19 9.51411 19 9.51672 19 9.51933C19 9.52194 19 9.52456 19 9.52717C19 9.52978 19 9.5324 19 9.53502C19 9.53763 19 9.54025 19 9.54287C19 9.54549 19 9.54811 19 9.55073C19 9.55336 19 9.55598 19 9.55861C19 9.56123 19 9.56386 19 9.56649C19 9.56911 19 9.57174 19 9.57438C19 9.57701 19 9.57964 19 9.58227C19 9.58491 19 9.58754 19 9.59018C19 9.59282 19 9.59545 19 9.59809C19 9.60073 19 9.60337 19 9.60602C19 9.60866 19 9.6113 19 9.61395C19 9.61659 19 9.61924 19 9.62189C19 9.62454 19 9.62719 19 9.62984C19 9.63249 19 9.63514 19 9.63779C19 9.64045 19 9.6431 19 9.64576C19 9.64841 19 9.65107 19 9.65373C19 9.65639 19 9.65905 19 9.66171C19 9.66437 19 9.66704 19 9.6697C19 9.67237 19 9.67503 19 9.6777C19 9.68037 19 9.68303 19 9.6857C19 9.68837 19 9.69104 19 9.69372C19 9.69639 19 9.69906 19 9.70174C19 9.70441 19 9.70709 19 9.70977C19 9.71245 19 9.71513 19 9.71781C19 9.72049 19 9.72317 19 9.72585C19 9.72853 19 9.73122 19 9.7339C19 9.73659 19 9.73928 19 9.74197C19 9.74465 19 9.74734 19 9.75003C19 9.75273 19 9.75542 19 9.75811C19 9.76081 19 9.7635 19 9.7662C19 9.76889 19 9.77159 19 9.77429C19 9.77699 19 9.77969 19 9.78239C19 9.78509 19 9.78779 19 9.7905C19 9.7932 19 9.79591 19 9.79861C19 9.80132 19 9.80403 19 9.80674C19 9.80944 19 9.81215 19 9.81487C19 9.81758 19 9.82029 19 9.823C19 9.82572 19 9.82843 19 9.83115C19 9.83387 19 9.83658 19 9.8393C19 9.84202 19 9.84474 19 9.84746C19 9.85018 19 9.85291 19 9.85563C19 9.85836 19 9.86108 19 9.86381C19 9.86653 19 9.86926 19 9.87199C19 9.87472 19 9.87745 19 9.88018C19 9.88291 19 9.88564 19 9.88838C19 9.89111 19 9.89385 19 9.89658C19 9.89932 19 9.90206 19 9.90479C19 9.90753 19 9.91027 19 9.91301C19 9.91575 19 9.9185 19 9.92124C19 9.92398 19 9.92673 19 9.92947C19 9.93222 19 9.93497 19 9.93771C19 9.94046 19 9.94321 19 9.94596C19 9.94871 19 9.95146 19 9.95422C19 9.95697 19 9.95972 19 9.96248C19 9.96523 19 9.96799 19 9.97075C19 9.9735 19 9.97626 19 9.97902C19 9.98178 19 9.98454 19 9.9873C19 9.99007 19 9.99283 19 9.99559C19 9.99836 19 10.0011 19 10.0039C19 10.0067 19 10.0094 19 10.0122C19 10.015 19 10.0177 19 10.0205C19 10.0233 19 10.026 19 10.0288C19 10.0316 19 10.0344 19 10.0371C19 10.0399 19 10.0427 19 10.0455C19 10.0482 19 10.051 19 10.0538C19 10.0566 19 10.0594 19 10.0622C19 10.0649 19 10.0677 19 10.0705C19 10.0733 19 10.0761 19 10.0789C19 10.0816 19 10.0844 19 10.0872C19 10.09 19 10.0928 19 10.0956C19 10.0984 19 10.1012 19 10.104C19 10.1068 19 10.1096 19 10.1123C19 10.1151 19 10.1179 19 10.1207C19 10.1235 19 10.1263 19 10.1291C19 10.1319 19 10.1347 19 10.1375C19 10.1403 19 10.1431 19 10.1459C19 10.1487 19 10.1515 19 10.1544C19 10.1572 19 10.16 19 10.1628C19 10.1656 19 10.1684 19 10.1712C19 10.174 19 10.1768 19 10.1796C19 10.1824 19 10.1853 19 10.1881C19 10.1909 19 10.1937 19 10.1965C19 10.1993 19 10.2021 19 10.205C19 10.2078 19 10.2106 19 10.2134C19 10.2162 19 10.2191 19 10.2219C19 10.2247 19 10.2275 19 10.2304C19 10.2332 19 10.236 19 10.2388C19 10.2417 19 10.2445 19 10.2473C19 10.2501 19 10.253 19 10.2558C19 10.2586 19 10.2615 19 10.2643C19 10.2671 19 10.27 19 10.2728C19 10.2756 19 10.2785 19 10.2813C19 10.2841 19 10.287 19 10.2898C19 10.2926 19 10.2955 19 10.2983C19 10.3012 19 10.304 19 10.3068C19 10.3097 19 10.3125 19 10.3154C19 10.3182 19 10.3211 19 10.3239C19 10.3267 19 10.3296 19 10.3324C19 10.3353 19 10.3381 19 10.341C19 10.3438 19 10.3467 19 10.3495C19 10.3524 19 10.3552 19 10.3581C19 10.3609 19 10.3638 19 10.3666C19 10.3695 19 10.3724 19 10.3752C19 10.3781 19 10.3809 19 10.3838C19 10.3866 19 10.3895 19 10.3924C19 10.3952 19 10.3981 19 10.4009C19 10.4038 19 10.4067 19 10.4095C19 10.4124 19 10.4153 19 10.4181C19 10.421 19 10.4238 19 10.4267C19 10.4296 19 10.4324 19 10.4353C19 10.4382 19 10.4411 19 10.4439C19 10.4468 19 10.4497 19 10.4525C19 10.4554 19 10.4583 19 10.4612C19 10.464 19 10.4669 19 10.4698C19 10.4727 19 10.4755 19 10.4784C19 10.4813 19 10.4842 19 10.487C19 10.4899 19 10.4928 19 10.4957C19 10.4986 19 10.5014 19 10.5043C19 10.5072 19 10.5101 19 10.513C19 10.5159 19 10.5187 19 10.5216C19 10.5245 19 10.5274 19 10.5303C19 10.5332 19 10.5361 19 10.5389C19 10.5418 19 10.5447 19 10.5476C19 10.5505 19 10.5534 19 10.5563C19 10.5592 19 10.5621 19 10.565C19 10.5679 19 10.5707 19 10.5736C19 10.5765 19 10.5794 19 10.5823C19 10.5852 19 10.5881 19 10.591C19 10.5939 19 10.5968 19 10.5997C19 10.6026 19 10.6055 19 10.6084C19 10.6113 19 10.6142 19 10.6171C19 10.62 19 10.6229 19 10.6258C19 10.6287 19 10.6316 19 10.6345C19 10.6374 19 10.6404 19 10.6433C19 10.6462 19 10.6491 19 10.652C19 10.6549 19 10.6578 19 10.6607C19 10.6636 19 10.6665 19 10.6694C19 10.6724 19 10.6753 19 10.6782C19 10.6811 19 10.684 19 10.6869C19 10.6898 19 10.6927 19 10.6957C19 10.6986 19 10.7015 19 10.7044C19 10.7073 19 10.7102 19 10.7132C19 10.7161 19 10.719 19 10.7219C19 10.7248 19 10.7278 19 10.7307C19 10.7336 19 10.7365 19 10.7394C19 10.7424 19 10.7453 19 10.7482C19 10.7511 19 10.7541 19 10.757C19 10.7599 19 10.7628 19 10.7658C19 10.7687 19 10.7716 19 10.7745C19 10.7775 19 10.7804 19 10.7833C19 10.7863 19 10.7892 19 10.7921C19 10.795 19 10.798 19 10.8009C19 10.8038 19 10.8068 19 10.8097C19 10.8126 19 10.8156 19 10.8185C19 10.8214 19 10.8244 19 10.8273C19 10.8302 19 10.8332 19 10.8361C19 10.8391 19 10.842 19 10.8449C19 10.8479 19 10.8508 19 10.8537C19 10.8567 19 10.8596 19 10.8626C19 10.8655 19 10.8684 19 10.8714C19 10.8743 19 10.8773 19 10.8802C19 10.8832 19 10.8861 19 10.889C19 10.892 19 10.8949 19 10.8979C19 10.9008 19 10.9038 19 10.9067C19 10.9097 19 10.9126 19 10.9155C19 10.9185 19 10.9214 19 10.9244C19 10.9273 19 10.9303 19 10.9332C19 10.9362 19 10.9391 19 10.9421C19 10.945 19 10.948 19 10.9509C19 10.9539 19 10.9568 19 10.9598C19 10.9628 19 10.9657 19 10.9687C19 10.9716 19 10.9746 19 10.9775C19 10.9805 19 10.9834 19 10.9864C19 10.9893 19 10.9923 19 10.9953C19 10.9982 19 11.0012 19 11.0041C19 11.0071 19 11.01 19 11.013C19 11.016 19 11.0189 19 11.0219C19 11.0248 19 11.0278 19 11.0308C19 11.0337 19 11.0367 19 11.0396C19 11.0426 19 11.0456 19 11.0485C19 11.0515 19 11.0545 19 11.0574C19 11.0604 19 11.0634 19 11.0663C19 11.0693 19 11.0723 19 11.0752C19 11.0782 19 11.0811 19 11.0841C19 11.0871 19 11.0901 19 11.093C19 11.096 19 11.099 19 11.1019C19 11.1049 19 11.1079 19 11.1108C19 11.1138 19 11.1168 19 11.1197C19 11.1227 19 11.1257 19 11.1287C19 11.1316 19 11.1346 19 11.1376C19 11.1405 19 11.1435 19 11.1465C19 11.1495 19 11.1524 19 11.1554C19 11.1584 19 11.1614 19 11.1643C19 11.1673 19 11.1703 19 11.1733C19 11.1762 19 11.1792 19 11.1822C19 11.1852 19 11.1881 19 11.1911C19 11.1941 19 11.1971 19 11.2C19 11.203 19 11.206 19 11.209C19 11.212 19 11.2149 19 11.2179C19 11.2209 19 11.2239 19 11.2269C19 11.2298 19 11.2328 19 11.2358C19 11.2388 19 11.2418 19 11.2447C19 11.2477 19 11.2507 19 11.2537C19 11.2567 19 11.2597 19 11.2626C19 11.2656 19 11.2686 19 11.2716C19 11.2746 19 11.2776 19 11.2805C19 11.2835 19 11.2865 19 11.2895C19 11.2925 19 11.2955 19 11.2985C19 11.3014 19 11.3044 19 11.3074C19 11.3104 19 11.3134 19 11.3164C19 11.3194 19 11.3224 19 11.3253C19 11.3283 19 11.3313 19 11.3343C19 11.3373 19 11.3403 19 11.3433C19 11.3463 19 11.3493 19 11.3522C19 11.3552 19 11.3582 19 11.3612C19 11.3642 19 11.3672 19 11.3702C19 11.3732 19 11.3762 19 11.3792C19 11.3822 19 11.3852 19 11.3881C19 11.3911 19 11.3941 19 11.3971C19 11.4001 19 11.4031 19 11.4061C19 11.4091 19 11.4121 19 11.4151C19 11.4181 19 11.4211 19 11.4241C19 11.4271 19 11.4301 19 11.4331C19 11.436 19 11.439 19 11.442C19 11.445 19 11.448 19 11.451C19 11.454 19 11.457 19 11.46C19 11.463 19 11.466 19 11.469C19 11.472 19 11.475 19 11.478C19 11.481 19 11.484 19 11.487C19 11.49 19 11.493 19 11.496C19 11.499 19 11.502 19 11.505C19 11.508 19 11.511 19 11.514C19 11.517 19 11.52 19 11.523C19 11.526 19 11.529 19 11.532C19 11.535 19 11.538 19 11.541C19 11.544 19 11.547 19 11.55C19 11.553 19 11.556 19 11.559C19 11.562 19 11.565 19 11.568C19 11.571 19 11.574 19 11.577C19 11.58 19 11.583 19 11.586C19 11.589 19 11.592 19 11.595C19 11.598 19 11.601 19 11.604C19 11.607 19 11.61 19 11.613C19 11.616 19 11.619 19 11.622C19 11.625 19 11.628 19 11.631C19 11.6341 19 11.6371 19 11.6401C19 11.6431 19 11.6461 19 11.6491C19 11.6521 19 11.6551 19 11.6581C19 11.6611 19 11.6641 19 11.6671C19 11.6701 19 11.6731 19 11.6761C19 11.6791 19 11.6821 19 11.6851C19 11.6881 19 11.6911 19 11.6942C19 11.6972 19 11.7002 19 11.7032C19 11.7062 19 11.7092 19 11.7122C19 11.7152 19 11.7182 19 11.7212C19 11.7242 19 11.7272 19 11.7302C19 11.7332 19 11.7362 19 11.7392C19 11.7422 19 11.7453 19 11.7483C19 11.7513 19 11.7543 19 11.7573C19 11.7603 19 11.7633 19 11.7663C19 11.7693 19 11.7723 19 11.7753C19 11.7783 19 11.7813 19 11.7843C19 11.7874 19 11.7904 19 11.7934C19 11.7964 19 11.7994 19 11.8024C19 11.8054 19 11.8084 19 11.8114C19 11.8144 19 11.8174 19 11.8204C19 11.8234 19 11.8264 19 11.8295C19 11.8325 19 11.8355 19 11.8385C19 11.8415 19 11.8445 19 11.8475C19 11.8505 19 11.8535 19 11.8565C19 11.8595 19 11.8625 19 11.8655C19 11.8686 19 11.8716 19 11.8746C19 11.8776 19 11.8806 19 11.8836C19 11.8866 19 11.8896 19 11.8926C19 11.8956 19 11.8986 19 11.9016C19 11.9046 19 11.9077 19 11.9107C19 11.9137 19 11.9167 19 11.9197C19 11.9227 19 11.9257 19 11.9287C19 11.9317 19 11.9347 19 11.9377C19 11.9407 19 11.9437 19 11.9468C19 11.9498 19 11.9528 19 11.9558C19 11.9588 19 11.9618 19 11.9648C19 11.9678 19 11.9708 19 11.9738C19 11.9768 19 11.9798 19 11.9828C19 11.9858 19 11.9888 19 11.9919C19 11.9949 19 11.9979 19 12.0009C19 12.0039 19 12.0069 19 12.0099C19 12.0129 19 12.0159 19 12.0189C19 12.0219 19 12.0249 19 12.0279C19 12.0309 19 12.0339 19 12.037C19 12.04 19 12.043 19 12.046C19 12.049 19 12.052 19 12.055C19 12.058 19 12.061 19 12.064C19 12.067 19 12.07 19 12.073C19 12.076 19 12.079 19 12.082C19 12.085 19 12.088 19 12.091C19 12.094 19 12.0971 19 12.1001C19 12.1031 19 12.1061 19 12.1091C19 12.1121 19 12.1151 19 12.1181C19 12.1211 19 12.1241 19 12.1271C19 12.1301 19 12.1331 19 12.1361C19 12.1391 19 12.1421 19 12.1451C19 12.1481 19 12.1511 19 12.1541C19 12.1571 19 12.1601 19 12.1631C19 12.1661 19 12.1691 19 12.1721C19 12.1751 19 12.1781 19 12.1811C19 12.1841 19 12.1871 19 12.1901C19 12.1931 19 12.1961 19 12.1991C19 12.2021 19 12.2051 19 12.2081C19 12.2111 19 12.2141 19 12.2171C19 12.2201 19 12.2231 19 12.2261C19 12.2291 19 12.2321 19 12.2351C19 12.2381 19 12.2411 19 12.2441C19 12.2471 19 12.2501 19 12.2531C19 12.2561 19 12.2591 19 12.2621C19 12.2651 19 12.2681 19 12.2711C19 12.2741 19 12.2771 19 12.2801C19 12.2831 19 12.2861 19 12.2891C19 12.2921 19 12.2951 19 12.2981C19 12.3011 19 12.3041 19 12.3071C19 12.3101 19 12.313 19 12.316C19 12.319 19 12.322 19 12.325C19 12.328 19 12.331 19 12.334C19 12.337 19 12.34 19 12.343C19 12.346 19 12.349 19 12.352C19 12.355 19 12.3579 19 12.3609C19 12.3639 19 12.3669 19 12.3699C19 12.3729 19 12.3759 19 12.3789C19 12.3819 19 12.3849 19 12.3879C19 12.3908 19 12.3938 19 12.3968C19 12.3998 19 12.4028 19 12.4058C19 12.4088 19 12.4118 19 12.4148C19 12.4177 19 12.4207 19 12.4237C19 12.4267 19 12.4297 19 12.4327C19 12.4357 19 12.4387 19 12.4416C19 12.4446 19 12.4476 19 12.4506C19 12.4536 19 12.4566 19 12.4596C19 12.4625 19 12.4655 19 12.4685C19 12.4715 19 12.4745 19 12.4775C19 12.4804 19 12.4834 19 12.4864C19 12.4894 19 12.4924 19 12.4954C19 12.4983 19 12.5013 19 12.5043C19 12.5073 19 12.5103 19 12.5132C19 12.5162 19 12.5192 19 12.5222C19 12.5252 19 12.5281 19 12.5311C19 12.5341 19 12.5371 19 12.54C19 12.543 19 12.546 19 12.549C19 12.552 19 12.5549 19 12.5579C19 12.5609 19 12.5639 19 12.5668C19 12.5698 19 12.5728 19 12.5758C19 12.5787 19 12.5817 19 12.5847C19 12.5877 19 12.5906 19 12.5936C19 12.5966 19 12.5996 19 12.6025C19 12.6055 19 12.6085 19 12.6114C19 12.6144 19 12.6174 19 12.6204C19 12.6233 19 12.6263 19 12.6293C19 12.6322 19 12.6352 19 12.6382C19 12.6411 19 12.6441 19 12.6471C19 12.65 19 12.653 19 12.656C19 12.6589 19 12.6619 19 12.6649C19 12.6678 19 12.6708 19 12.6738C19 12.6767 19 12.6797 19 12.6827C19 12.6856 19 12.6886 19 12.6915C19 12.6945 19 12.6975 19 12.7004C19 12.7034 19 12.7064 19 12.7093C19 12.7123 19 12.7152 19 12.7182C19 12.7212 19 12.7241 19 12.7271C19 12.73 19 12.733 19 12.736C19 12.7389 19 12.7419 19 12.7448C19 12.7478 19 12.7507 19 12.7537C19 12.7566 19 12.7596 19 12.7626C19 12.7655 19 12.7685 19 12.7714C19 12.7744 19 12.7773 19 12.7803C19 12.7832 19 12.7862 19 12.7891C19 12.7921 19 12.795 19 12.798C19 12.8009 19 12.8039 19 12.8068C19 12.8098 19 12.8127 19 12.8157C19 12.8186 19 12.8216 19 12.8245C19 12.8275 19 12.8304 19 12.8334C19 12.8363 19 12.8393 19 12.8422C19 12.8451 19 12.8481 19 12.851C19 12.854 19 12.8569 19 12.8599C19 12.8628 19 12.8657 19 12.8687C19 12.8716 19 12.8746 19 12.8775C19 12.8804 19 12.8834 19 12.8863C19 12.8893 19 12.8922 19 12.8951C19 12.8981 19 12.901 19 12.9039C19 12.9069 19 12.9098 19 12.9128C19 12.9157 19 12.9186 19 12.9216C19 12.9245 19 12.9274 19 12.9304C19 12.9333 19 12.9362 19 12.9392C19 12.9421 19 12.945 19 12.9479C19 12.9509 19 12.9538 19 12.9567C19 12.9597 19 12.9626 19 12.9655C19 12.9684 19 12.9714 19 12.9743C19 12.9772 19 12.9801 19 12.9831C19 12.986 19 12.9889 19 12.9918C19 12.9948 19 12.9977 19 13.0006C19 13.0035 19 13.0065 19 13.0094C19 13.0123 19 13.0152 19 13.0181C19 13.0211 19 13.024 19 13.0269C19 13.0298 19 13.0327 19 13.0356C19 13.0386 19 13.0415 19 13.0444C19 13.0473 19 13.0502 19 13.0531C19 13.056 19 13.059 19 13.0619C19 13.0648 19 13.0677 19 13.0706C19 13.0735 19 13.0764 19 13.0793C19 13.0822 19 13.0852 19 13.0881C19 13.091 19 13.0939 19 13.0968C19 13.0997 19 13.1026 19 13.1055C19 13.1084 19 13.1113 19 13.1142C19 13.1171 19 13.12 19 13.1229C19 13.1258 19 13.1287 19 13.1316C19 13.1345 19 13.1374 19 13.1403C19 13.1432 19 13.1461 19 13.149C19 13.1519 19 13.1548 19 13.1577C19 13.1606 19 13.1635 19 13.1664C19 13.1693 19 13.1722 19 13.1751C19 13.178 19 13.1809 19 13.1837C19 13.1866 19 13.1895 19 13.1924C19 13.1953 19 13.1982 19 13.2011C19 13.204 19 13.2069 19 13.2097C19 13.2126 19 13.2155 19 13.2184C19 13.2213 19 13.2242 19 13.2271C19 13.2299 19 13.2328 19 13.2357C19 13.2386 19 13.2415 19 13.2443C19 13.2472 19 13.2501 19 13.253C19 13.2559 19 13.2587 19 13.2616C19 13.2645 19 13.2674 19 13.2702C19 13.2731 19 13.276 19 13.2789C19 13.2817 19 13.2846 19 13.2875C19 13.2904 19 13.2932 19 13.2961C19 13.299 19 13.3018 19 13.3047C19 13.3076 19 13.3104 19 13.3133C19 13.3162 19 13.319 19 13.3219C19 13.3248 19 13.3276 19 13.3305C19 13.3333 19 13.3362 19 13.3391C19 13.3419 19 13.3448 19 13.3477C19 13.3505 19 13.3534 19 13.3562C19 13.3591 19 13.3619 19 13.3648C19 13.3677 19 13.3705 19 13.3734C19 13.3762 19 13.3791 19 13.3819C19 13.3848 19 13.3876 19 13.3905C19 13.3933 19 13.3962 19 13.399C19 13.4019 19 13.4047 19 13.4076C19 13.4104 19 13.4133 19 13.4161C19 13.4189 19 13.4218 19 13.4246C19 13.4275 19 13.4303 19 13.4332C19 13.436 19 13.4388 19 13.4417C19 13.4445 19 13.4474 19 13.4502C19 13.453 19 13.4559 19 13.4587C19 13.4615 19 13.4644 19 13.4672C19 13.47 19 13.4729 19 13.4757C19 13.4785 19 13.4814 19 13.4842C19 13.487 19 13.4898 19 13.4927C19 13.4955 19 13.4983 19 13.5012C19 13.504 19 13.5068 19 13.5096C19 13.5125 19 13.5153 19 13.5181C19 13.5209 19 13.5237 19 13.5266C19 13.5294 19 13.5322 19 13.535C19 13.5378 19 13.5406 19 13.5435C19 13.5463 19 13.5491 19 13.5519C19 13.5547 19 13.5575 19 13.5603C19 13.5632 19 13.566 19 13.5688C19 13.5716 19 13.5744 19 13.5772C19 13.58 19 13.5828 19 13.5856C19 13.5884 19 13.5912 19 13.594C19 13.5968 19 13.5996 19 13.6024C19 13.6052 19 13.608 19 13.6108C19 13.6136 19 13.6164 19 13.6192C19 13.622 19 13.6248 19 13.6276C19 13.6304 19 13.6332 19 13.636C19 13.6388 19 13.6416 19 13.6444C19 13.6472 19 13.6499 19 13.6527C19 13.6555 19 13.6583 19 13.6611C19 13.6639 19 13.6667 19 13.6695C19 13.6722 19 13.675 19 13.6778C19 13.6806 19 13.6834 19 13.6861C19 13.6889 19 13.6917 19 13.6945C19 13.6973 19 13.7 19 13.7028C19 13.7056 19 13.7084 19 13.7111C19 13.7139 19 13.7167 19 13.7194C19 13.7222 19 13.725 19 13.7277C19 13.7305 19 13.7333 19 13.7361C19 13.7388 19 13.7416 19 13.7443C19 13.7471 19 13.7499 19 13.7526C19 13.7554 19 13.7582 19 13.7609C19 13.7637 19 13.7664 19 13.7692C19 13.7719 19 13.7747 19 13.7775C19 13.7802 19 13.783 19 13.7857H21C21 13.783 21 13.7802 21 13.7775C21 13.7747 21 13.7719 21 13.7692C21 13.7664 21 13.7637 21 13.7609C21 13.7582 21 13.7554 21 13.7526C21 13.7499 21 13.7471 21 13.7443C21 13.7416 21 13.7388 21 13.7361C21 13.7333 21 13.7305 21 13.7277C21 13.725 21 13.7222 21 13.7194C21 13.7167 21 13.7139 21 13.7111C21 13.7084 21 13.7056 21 13.7028C21 13.7 21 13.6973 21 13.6945C21 13.6917 21 13.6889 21 13.6861C21 13.6834 21 13.6806 21 13.6778C21 13.675 21 13.6722 21 13.6695C21 13.6667 21 13.6639 21 13.6611C21 13.6583 21 13.6555 21 13.6527C21 13.6499 21 13.6472 21 13.6444C21 13.6416 21 13.6388 21 13.636C21 13.6332 21 13.6304 21 13.6276C21 13.6248 21 13.622 21 13.6192C21 13.6164 21 13.6136 21 13.6108C21 13.608 21 13.6052 21 13.6024C21 13.5996 21 13.5968 21 13.594C21 13.5912 21 13.5884 21 13.5856C21 13.5828 21 13.58 21 13.5772C21 13.5744 21 13.5716 21 13.5688C21 13.566 21 13.5632 21 13.5603C21 13.5575 21 13.5547 21 13.5519C21 13.5491 21 13.5463 21 13.5435C21 13.5406 21 13.5378 21 13.535C21 13.5322 21 13.5294 21 13.5266C21 13.5237 21 13.5209 21 13.5181C21 13.5153 21 13.5125 21 13.5096C21 13.5068 21 13.504 21 13.5012C21 13.4983 21 13.4955 21 13.4927C21 13.4898 21 13.487 21 13.4842C21 13.4814 21 13.4785 21 13.4757C21 13.4729 21 13.47 21 13.4672C21 13.4644 21 13.4615 21 13.4587C21 13.4559 21 13.453 21 13.4502C21 13.4474 21 13.4445 21 13.4417C21 13.4388 21 13.436 21 13.4332C21 13.4303 21 13.4275 21 13.4246C21 13.4218 21 13.4189 21 13.4161C21 13.4133 21 13.4104 21 13.4076C21 13.4047 21 13.4019 21 13.399C21 13.3962 21 13.3933 21 13.3905C21 13.3876 21 13.3848 21 13.3819C21 13.3791 21 13.3762 21 13.3734C21 13.3705 21 13.3677 21 13.3648C21 13.3619 21 13.3591 21 13.3562C21 13.3534 21 13.3505 21 13.3477C21 13.3448 21 13.3419 21 13.3391C21 13.3362 21 13.3333 21 13.3305C21 13.3276 21 13.3248 21 13.3219C21 13.319 21 13.3162 21 13.3133C21 13.3104 21 13.3076 21 13.3047C21 13.3018 21 13.299 21 13.2961C21 13.2932 21 13.2904 21 13.2875C21 13.2846 21 13.2817 21 13.2789C21 13.276 21 13.2731 21 13.2702C21 13.2674 21 13.2645 21 13.2616C21 13.2587 21 13.2559 21 13.253C21 13.2501 21 13.2472 21 13.2443C21 13.2415 21 13.2386 21 13.2357C21 13.2328 21 13.2299 21 13.2271C21 13.2242 21 13.2213 21 13.2184C21 13.2155 21 13.2126 21 13.2097C21 13.2069 21 13.204 21 13.2011C21 13.1982 21 13.1953 21 13.1924C21 13.1895 21 13.1866 21 13.1837C21 13.1809 21 13.178 21 13.1751C21 13.1722 21 13.1693 21 13.1664C21 13.1635 21 13.1606 21 13.1577C21 13.1548 21 13.1519 21 13.149C21 13.1461 21 13.1432 21 13.1403C21 13.1374 21 13.1345 21 13.1316C21 13.1287 21 13.1258 21 13.1229C21 13.12 21 13.1171 21 13.1142C21 13.1113 21 13.1084 21 13.1055C21 13.1026 21 13.0997 21 13.0968C21 13.0939 21 13.091 21 13.0881C21 13.0852 21 13.0822 21 13.0793C21 13.0764 21 13.0735 21 13.0706C21 13.0677 21 13.0648 21 13.0619C21 13.059 21 13.056 21 13.0531C21 13.0502 21 13.0473 21 13.0444C21 13.0415 21 13.0386 21 13.0356C21 13.0327 21 13.0298 21 13.0269C21 13.024 21 13.0211 21 13.0181C21 13.0152 21 13.0123 21 13.0094C21 13.0065 21 13.0035 21 13.0006C21 12.9977 21 12.9948 21 12.9918C21 12.9889 21 12.986 21 12.9831C21 12.9801 21 12.9772 21 12.9743C21 12.9714 21 12.9684 21 12.9655C21 12.9626 21 12.9597 21 12.9567C21 12.9538 21 12.9509 21 12.9479C21 12.945 21 12.9421 21 12.9392C21 12.9362 21 12.9333 21 12.9304C21 12.9274 21 12.9245 21 12.9216C21 12.9186 21 12.9157 21 12.9128C21 12.9098 21 12.9069 21 12.9039C21 12.901 21 12.8981 21 12.8951C21 12.8922 21 12.8893 21 12.8863C21 12.8834 21 12.8804 21 12.8775C21 12.8746 21 12.8716 21 12.8687C21 12.8657 21 12.8628 21 12.8599C21 12.8569 21 12.854 21 12.851C21 12.8481 21 12.8451 21 12.8422C21 12.8393 21 12.8363 21 12.8334C21 12.8304 21 12.8275 21 12.8245C21 12.8216 21 12.8186 21 12.8157C21 12.8127 21 12.8098 21 12.8068C21 12.8039 21 12.8009 21 12.798C21 12.795 21 12.7921 21 12.7891C21 12.7862 21 12.7832 21 12.7803C21 12.7773 21 12.7744 21 12.7714C21 12.7685 21 12.7655 21 12.7626C21 12.7596 21 12.7566 21 12.7537C21 12.7507 21 12.7478 21 12.7448C21 12.7419 21 12.7389 21 12.736C21 12.733 21 12.73 21 12.7271C21 12.7241 21 12.7212 21 12.7182C21 12.7152 21 12.7123 21 12.7093C21 12.7064 21 12.7034 21 12.7004C21 12.6975 21 12.6945 21 12.6915C21 12.6886 21 12.6856 21 12.6827C21 12.6797 21 12.6767 21 12.6738C21 12.6708 21 12.6678 21 12.6649C21 12.6619 21 12.6589 21 12.656C21 12.653 21 12.65 21 12.6471C21 12.6441 21 12.6411 21 12.6382C21 12.6352 21 12.6322 21 12.6293C21 12.6263 21 12.6233 21 12.6204C21 12.6174 21 12.6144 21 12.6114C21 12.6085 21 12.6055 21 12.6025C21 12.5996 21 12.5966 21 12.5936C21 12.5906 21 12.5877 21 12.5847C21 12.5817 21 12.5787 21 12.5758C21 12.5728 21 12.5698 21 12.5668C21 12.5639 21 12.5609 21 12.5579C21 12.5549 21 12.552 21 12.549C21 12.546 21 12.543 21 12.54C21 12.5371 21 12.5341 21 12.5311C21 12.5281 21 12.5252 21 12.5222C21 12.5192 21 12.5162 21 12.5132C21 12.5103 21 12.5073 21 12.5043C21 12.5013 21 12.4983 21 12.4954C21 12.4924 21 12.4894 21 12.4864C21 12.4834 21 12.4804 21 12.4775C21 12.4745 21 12.4715 21 12.4685C21 12.4655 21 12.4625 21 12.4596C21 12.4566 21 12.4536 21 12.4506C21 12.4476 21 12.4446 21 12.4416C21 12.4387 21 12.4357 21 12.4327C21 12.4297 21 12.4267 21 12.4237C21 12.4207 21 12.4177 21 12.4148C21 12.4118 21 12.4088 21 12.4058C21 12.4028 21 12.3998 21 12.3968C21 12.3938 21 12.3908 21 12.3879C21 12.3849 21 12.3819 21 12.3789C21 12.3759 21 12.3729 21 12.3699C21 12.3669 21 12.3639 21 12.3609C21 12.3579 21 12.355 21 12.352C21 12.349 21 12.346 21 12.343C21 12.34 21 12.337 21 12.334C21 12.331 21 12.328 21 12.325C21 12.322 21 12.319 21 12.316C21 12.313 21 12.3101 21 12.3071C21 12.3041 21 12.3011 21 12.2981C21 12.2951 21 12.2921 21 12.2891C21 12.2861 21 12.2831 21 12.2801C21 12.2771 21 12.2741 21 12.2711C21 12.2681 21 12.2651 21 12.2621C21 12.2591 21 12.2561 21 12.2531C21 12.2501 21 12.2471 21 12.2441C21 12.2411 21 12.2381 21 12.2351C21 12.2321 21 12.2291 21 12.2261C21 12.2231 21 12.2201 21 12.2171C21 12.2141 21 12.2111 21 12.2081C21 12.2051 21 12.2021 21 12.1991C21 12.1961 21 12.1931 21 12.1901C21 12.1871 21 12.1841 21 12.1811C21 12.1781 21 12.1751 21 12.1721C21 12.1691 21 12.1661 21 12.1631C21 12.1601 21 12.1571 21 12.1541C21 12.1511 21 12.1481 21 12.1451C21 12.1421 21 12.1391 21 12.1361C21 12.1331 21 12.1301 21 12.1271C21 12.1241 21 12.1211 21 12.1181C21 12.1151 21 12.1121 21 12.1091C21 12.1061 21 12.1031 21 12.1001C21 12.0971 21 12.094 21 12.091C21 12.088 21 12.085 21 12.082C21 12.079 21 12.076 21 12.073C21 12.07 21 12.067 21 12.064C21 12.061 21 12.058 21 12.055C21 12.052 21 12.049 21 12.046C21 12.043 21 12.04 21 12.037C21 12.0339 21 12.0309 21 12.0279C21 12.0249 21 12.0219 21 12.0189C21 12.0159 21 12.0129 21 12.0099C21 12.0069 21 12.0039 21 12.0009C21 11.9979 21 11.9949 21 11.9919C21 11.9888 21 11.9858 21 11.9828C21 11.9798 21 11.9768 21 11.9738C21 11.9708 21 11.9678 21 11.9648C21 11.9618 21 11.9588 21 11.9558C21 11.9528 21 11.9498 21 11.9468C21 11.9437 21 11.9407 21 11.9377C21 11.9347 21 11.9317 21 11.9287C21 11.9257 21 11.9227 21 11.9197C21 11.9167 21 11.9137 21 11.9107C21 11.9077 21 11.9046 21 11.9016C21 11.8986 21 11.8956 21 11.8926C21 11.8896 21 11.8866 21 11.8836C21 11.8806 21 11.8776 21 11.8746C21 11.8716 21 11.8686 21 11.8655C21 11.8625 21 11.8595 21 11.8565C21 11.8535 21 11.8505 21 11.8475C21 11.8445 21 11.8415 21 11.8385C21 11.8355 21 11.8325 21 11.8295C21 11.8264 21 11.8234 21 11.8204C21 11.8174 21 11.8144 21 11.8114C21 11.8084 21 11.8054 21 11.8024C21 11.7994 21 11.7964 21 11.7934C21 11.7904 21 11.7874 21 11.7843C21 11.7813 21 11.7783 21 11.7753C21 11.7723 21 11.7693 21 11.7663C21 11.7633 21 11.7603 21 11.7573C21 11.7543 21 11.7513 21 11.7483C21 11.7453 21 11.7422 21 11.7392C21 11.7362 21 11.7332 21 11.7302C21 11.7272 21 11.7242 21 11.7212C21 11.7182 21 11.7152 21 11.7122C21 11.7092 21 11.7062 21 11.7032C21 11.7002 21 11.6972 21 11.6942C21 11.6911 21 11.6881 21 11.6851C21 11.6821 21 11.6791 21 11.6761C21 11.6731 21 11.6701 21 11.6671C21 11.6641 21 11.6611 21 11.6581C21 11.6551 21 11.6521 21 11.6491C21 11.6461 21 11.6431 21 11.6401C21 11.6371 21 11.6341 21 11.631C21 11.628 21 11.625 21 11.622C21 11.619 21 11.616 21 11.613C21 11.61 21 11.607 21 11.604C21 11.601 21 11.598 21 11.595C21 11.592 21 11.589 21 11.586C21 11.583 21 11.58 21 11.577C21 11.574 21 11.571 21 11.568C21 11.565 21 11.562 21 11.559C21 11.556 21 11.553 21 11.55C21 11.547 21 11.544 21 11.541C21 11.538 21 11.535 21 11.532C21 11.529 21 11.526 21 11.523C21 11.52 21 11.517 21 11.514C21 11.511 21 11.508 21 11.505C21 11.502 21 11.499 21 11.496C21 11.493 21 11.49 21 11.487C21 11.484 21 11.481 21 11.478C21 11.475 21 11.472 21 11.469C21 11.466 21 11.463 21 11.46C21 11.457 21 11.454 21 11.451C21 11.448 21 11.445 21 11.442C21 11.439 21 11.436 21 11.4331C21 11.4301 21 11.4271 21 11.4241C21 11.4211 21 11.4181 21 11.4151C21 11.4121 21 11.4091 21 11.4061C21 11.4031 21 11.4001 21 11.3971C21 11.3941 21 11.3911 21 11.3881C21 11.3852 21 11.3822 21 11.3792C21 11.3762 21 11.3732 21 11.3702C21 11.3672 21 11.3642 21 11.3612C21 11.3582 21 11.3552 21 11.3522C21 11.3493 21 11.3463 21 11.3433C21 11.3403 21 11.3373 21 11.3343C21 11.3313 21 11.3283 21 11.3253C21 11.3224 21 11.3194 21 11.3164C21 11.3134 21 11.3104 21 11.3074C21 11.3044 21 11.3014 21 11.2985C21 11.2955 21 11.2925 21 11.2895C21 11.2865 21 11.2835 21 11.2805C21 11.2776 21 11.2746 21 11.2716C21 11.2686 21 11.2656 21 11.2626C21 11.2597 21 11.2567 21 11.2537C21 11.2507 21 11.2477 21 11.2447C21 11.2418 21 11.2388 21 11.2358C21 11.2328 21 11.2298 21 11.2269C21 11.2239 21 11.2209 21 11.2179C21 11.2149 21 11.212 21 11.209C21 11.206 21 11.203 21 11.2C21 11.1971 21 11.1941 21 11.1911C21 11.1881 21 11.1852 21 11.1822C21 11.1792 21 11.1762 21 11.1733C21 11.1703 21 11.1673 21 11.1643C21 11.1614 21 11.1584 21 11.1554C21 11.1524 21 11.1495 21 11.1465C21 11.1435 21 11.1405 21 11.1376C21 11.1346 21 11.1316 21 11.1287C21 11.1257 21 11.1227 21 11.1197C21 11.1168 21 11.1138 21 11.1108C21 11.1079 21 11.1049 21 11.1019C21 11.099 21 11.096 21 11.093C21 11.0901 21 11.0871 21 11.0841C21 11.0811 21 11.0782 21 11.0752C21 11.0723 21 11.0693 21 11.0663C21 11.0634 21 11.0604 21 11.0574C21 11.0545 21 11.0515 21 11.0485C21 11.0456 21 11.0426 21 11.0396C21 11.0367 21 11.0337 21 11.0308C21 11.0278 21 11.0248 21 11.0219C21 11.0189 21 11.016 21 11.013C21 11.01 21 11.0071 21 11.0041C21 11.0012 21 10.9982 21 10.9953C21 10.9923 21 10.9893 21 10.9864C21 10.9834 21 10.9805 21 10.9775C21 10.9746 21 10.9716 21 10.9687C21 10.9657 21 10.9628 21 10.9598C21 10.9568 21 10.9539 21 10.9509C21 10.948 21 10.945 21 10.9421C21 10.9391 21 10.9362 21 10.9332C21 10.9303 21 10.9273 21 10.9244C21 10.9214 21 10.9185 21 10.9155C21 10.9126 21 10.9097 21 10.9067C21 10.9038 21 10.9008 21 10.8979C21 10.8949 21 10.892 21 10.889C21 10.8861 21 10.8832 21 10.8802C21 10.8773 21 10.8743 21 10.8714C21 10.8684 21 10.8655 21 10.8626C21 10.8596 21 10.8567 21 10.8537C21 10.8508 21 10.8479 21 10.8449C21 10.842 21 10.8391 21 10.8361C21 10.8332 21 10.8302 21 10.8273C21 10.8244 21 10.8214 21 10.8185C21 10.8156 21 10.8126 21 10.8097C21 10.8068 21 10.8038 21 10.8009C21 10.798 21 10.795 21 10.7921C21 10.7892 21 10.7863 21 10.7833C21 10.7804 21 10.7775 21 10.7745C21 10.7716 21 10.7687 21 10.7658C21 10.7628 21 10.7599 21 10.757C21 10.7541 21 10.7511 21 10.7482C21 10.7453 21 10.7424 21 10.7394C21 10.7365 21 10.7336 21 10.7307C21 10.7278 21 10.7248 21 10.7219C21 10.719 21 10.7161 21 10.7132C21 10.7102 21 10.7073 21 10.7044C21 10.7015 21 10.6986 21 10.6957C21 10.6927 21 10.6898 21 10.6869C21 10.684 21 10.6811 21 10.6782C21 10.6753 21 10.6724 21 10.6694C21 10.6665 21 10.6636 21 10.6607C21 10.6578 21 10.6549 21 10.652C21 10.6491 21 10.6462 21 10.6433C21 10.6404 21 10.6374 21 10.6345C21 10.6316 21 10.6287 21 10.6258C21 10.6229 21 10.62 21 10.6171C21 10.6142 21 10.6113 21 10.6084C21 10.6055 21 10.6026 21 10.5997C21 10.5968 21 10.5939 21 10.591C21 10.5881 21 10.5852 21 10.5823C21 10.5794 21 10.5765 21 10.5736C21 10.5707 21 10.5679 21 10.565C21 10.5621 21 10.5592 21 10.5563C21 10.5534 21 10.5505 21 10.5476C21 10.5447 21 10.5418 21 10.5389C21 10.5361 21 10.5332 21 10.5303C21 10.5274 21 10.5245 21 10.5216C21 10.5187 21 10.5159 21 10.513C21 10.5101 21 10.5072 21 10.5043C21 10.5014 21 10.4986 21 10.4957C21 10.4928 21 10.4899 21 10.487C21 10.4842 21 10.4813 21 10.4784C21 10.4755 21 10.4727 21 10.4698C21 10.4669 21 10.464 21 10.4612C21 10.4583 21 10.4554 21 10.4525C21 10.4497 21 10.4468 21 10.4439C21 10.4411 21 10.4382 21 10.4353C21 10.4324 21 10.4296 21 10.4267C21 10.4238 21 10.421 21 10.4181C21 10.4153 21 10.4124 21 10.4095C21 10.4067 21 10.4038 21 10.4009C21 10.3981 21 10.3952 21 10.3924C21 10.3895 21 10.3866 21 10.3838C21 10.3809 21 10.3781 21 10.3752C21 10.3724 21 10.3695 21 10.3666C21 10.3638 21 10.3609 21 10.3581C21 10.3552 21 10.3524 21 10.3495C21 10.3467 21 10.3438 21 10.341C21 10.3381 21 10.3353 21 10.3324C21 10.3296 21 10.3267 21 10.3239C21 10.3211 21 10.3182 21 10.3154C21 10.3125 21 10.3097 21 10.3068C21 10.304 21 10.3012 21 10.2983C21 10.2955 21 10.2926 21 10.2898C21 10.287 21 10.2841 21 10.2813C21 10.2785 21 10.2756 21 10.2728C21 10.27 21 10.2671 21 10.2643C21 10.2615 21 10.2586 21 10.2558C21 10.253 21 10.2501 21 10.2473C21 10.2445 21 10.2417 21 10.2388C21 10.236 21 10.2332 21 10.2304C21 10.2275 21 10.2247 21 10.2219C21 10.2191 21 10.2162 21 10.2134C21 10.2106 21 10.2078 21 10.205C21 10.2021 21 10.1993 21 10.1965C21 10.1937 21 10.1909 21 10.1881C21 10.1853 21 10.1824 21 10.1796C21 10.1768 21 10.174 21 10.1712C21 10.1684 21 10.1656 21 10.1628C21 10.16 21 10.1572 21 10.1544C21 10.1515 21 10.1487 21 10.1459C21 10.1431 21 10.1403 21 10.1375C21 10.1347 21 10.1319 21 10.1291C21 10.1263 21 10.1235 21 10.1207C21 10.1179 21 10.1151 21 10.1123C21 10.1096 21 10.1068 21 10.104C21 10.1012 21 10.0984 21 10.0956C21 10.0928 21 10.09 21 10.0872C21 10.0844 21 10.0816 21 10.0789C21 10.0761 21 10.0733 21 10.0705C21 10.0677 21 10.0649 21 10.0622C21 10.0594 21 10.0566 21 10.0538C21 10.051 21 10.0482 21 10.0455C21 10.0427 21 10.0399 21 10.0371C21 10.0344 21 10.0316 21 10.0288C21 10.026 21 10.0233 21 10.0205C21 10.0177 21 10.015 21 10.0122C21 10.0094 21 10.0067 21 10.0039C21 10.0011 21 9.99836 21 9.99559C21 9.99283 21 9.99007 21 9.9873C21 9.98454 21 9.98178 21 9.97902C21 9.97626 21 9.9735 21 9.97075C21 9.96799 21 9.96523 21 9.96248C21 9.95972 21 9.95697 21 9.95422C21 9.95146 21 9.94871 21 9.94596C21 9.94321 21 9.94046 21 9.93771C21 9.93497 21 9.93222 21 9.92947C21 9.92673 21 9.92398 21 9.92124C21 9.9185 21 9.91575 21 9.91301C21 9.91027 21 9.90753 21 9.90479C21 9.90206 21 9.89932 21 9.89658C21 9.89385 21 9.89111 21 9.88838C21 9.88564 21 9.88291 21 9.88018C21 9.87745 21 9.87472 21 9.87199C21 9.86926 21 9.86653 21 9.86381C21 9.86108 21 9.85836 21 9.85563C21 9.85291 21 9.85018 21 9.84746C21 9.84474 21 9.84202 21 9.8393C21 9.83658 21 9.83387 21 9.83115C21 9.82843 21 9.82572 21 9.823C21 9.82029 21 9.81758 21 9.81487C21 9.81215 21 9.80944 21 9.80674C21 9.80403 21 9.80132 21 9.79861C21 9.79591 21 9.7932 21 9.7905C21 9.78779 21 9.78509 21 9.78239C21 9.77969 21 9.77699 21 9.77429C21 9.77159 21 9.76889 21 9.7662C21 9.7635 21 9.76081 21 9.75811C21 9.75542 21 9.75273 21 9.75003C21 9.74734 21 9.74465 21 9.74197C21 9.73928 21 9.73659 21 9.7339C21 9.73122 21 9.72853 21 9.72585C21 9.72317 21 9.72049 21 9.71781C21 9.71513 21 9.71245 21 9.70977C21 9.70709 21 9.70441 21 9.70174C21 9.69906 21 9.69639 21 9.69372C21 9.69104 21 9.68837 21 9.6857C21 9.68303 21 9.68037 21 9.6777C21 9.67503 21 9.67237 21 9.6697C21 9.66704 21 9.66437 21 9.66171C21 9.65905 21 9.65639 21 9.65373C21 9.65107 21 9.64841 21 9.64576C21 9.6431 21 9.64045 21 9.63779C21 9.63514 21 9.63249 21 9.62984C21 9.62719 21 9.62454 21 9.62189C21 9.61924 21 9.61659 21 9.61395C21 9.6113 21 9.60866 21 9.60602C21 9.60337 21 9.60073 21 9.59809C21 9.59545 21 9.59282 21 9.59018C21 9.58754 21 9.58491 21 9.58227C21 9.57964 21 9.57701 21 9.57438C21 9.57174 21 9.56911 21 9.56649C21 9.56386 21 9.56123 21 9.55861C21 9.55598 21 9.55336 21 9.55073C21 9.54811 21 9.54549 21 9.54287C21 9.54025 21 9.53763 21 9.53502C21 9.5324 21 9.52978 21 9.52717C21 9.52456 21 9.52194 21 9.51933C21 9.51672 21 9.51411 21 9.5115C21 9.50889 21 9.50629 21 9.50368C21 9.50108 21 9.49847 21 9.49587C21 9.49327 21 9.49067 21 9.48807C21 9.48547 21 9.48287 21 9.48028C21 9.47768 21 9.47509 21 9.47249C21 9.4699 21 9.46731 21 9.46472C21 9.46213 21 9.45954 21 9.45695C21 9.45436 21 9.45178 21 9.44919C21 9.44661 21 9.44402 21 9.44144C21 9.43886 21 9.43628 21 9.4337C21 9.43113 21 9.42855 21 9.42597C21 9.4234 21 9.42082 21 9.41825C21 9.41568 21 9.41311 21 9.41054C21 9.40797 21 9.4054 21 9.40284C21 9.40027 21 9.39771 21 9.39514C21 9.39258 21 9.39002 21 9.38746C21 9.3849 21 9.38234 21 9.37978C21 9.37723 21 9.37467 21 9.37212C21 9.36956 21 9.36701 21 9.36446C21 9.36191 21 9.35936 21 9.35681H19ZM11.3525 4.29663C12.2014 6.74706 14.4922 7.95227 17.9103 8.26796L18.0942 6.27644C14.9945 5.99014 13.7105 4.9934 13.2423 3.64191L11.3525 4.29663ZM21 9.35681C21 7.67444 19.6453 6.4197 18.0942 6.27644L17.9103 8.26796C18.559 8.32788 19 8.83005 19 9.35681H21ZM10.081 3.07006C10.489 3.03656 11.0444 3.40725 11.3525 4.29663L13.2423 3.64191C12.8272 2.44388 11.711 0.929517 9.91731 1.07676L10.081 3.07006Z" fill="currentColor" mask="url(#path-1-inside-1_2_62402)"/><path d="M8 3.50024C8 3.2241 7.77614 3.00024 7.5 3.00024C7.22386 3.00024 7 3.2241 7 3.50024H8ZM7 6.71453C7 6.99067 7.22386 7.21453 7.5 7.21453C7.77614 7.21453 8 6.99067 8 6.71453H7ZM10 3.00024C10 2.7241 9.77614 2.50024 9.5 2.50024C9.22386 2.50024 9 2.7241 9 3.00024H10ZM9 5.50024C9 5.77639 9.22386 6.00024 9.5 6.00024C9.77614 6.00024 10 5.77639 10 5.50024H9ZM7 3.50024V6.71453H8V3.50024H7ZM9 3.00024V5.50024H10V3.00024H9Z" fill="currentColor"/><path d="M11.6429 3C11.3668 3 11.1429 3.22386 11.1429 3.5C11.1429 3.77614 11.3668 4 11.6429 4L11.6429 3ZM14.2858 3.5V4V3.5ZM11.6429 4H14.2858V3H11.6429L11.6429 4ZM14.2858 4C16.4949 4 18.2858 5.79086 18.2858 8H19.2858C19.2858 5.23858 17.0472 3 14.2858 3V4Z" fill="currentColor"/><mask id="path-5-inside-2_2_62402" fill="currentColor"><path d="M8 18C8 16.8954 8.89543 16 10 16H14C15.1046 16 16 16.8954 16 18C16 18.5523 15.5523 19 15 19H9C8.44772 19 8 18.5523 8 18Z"/></mask><path d="M10 17H14V15H10V17ZM15 18H9V20H15V18ZM9 18H7C7 19.1046 7.89543 20 9 20V18ZM15 18V20C16.1046 20 17 19.1046 17 18H15ZM14 17C14.5523 17 15 17.4477 15 18H17C17 16.3431 15.6569 15 14 15V17ZM10 15C8.34315 15 7 16.3431 7 18H9C9 17.4477 9.44772 17 10 17V15Z" fill="currentColor" mask="url(#path-5-inside-2_2_62402)"/><path d="M9.35718 16.2859V18.4287H10.3572V16.2859H9.35718ZM13.6429 16.2859V18.4287H14.6429V16.2859H13.6429ZM11.5 16.2859V18.4287H12.5V16.2859H11.5Z" fill="currentColor"/><path d="M19.5 13.9998C19.2239 13.9998 19 14.2237 19 14.4998C19 14.776 19.2239 14.9998 19.5 14.9998V13.9998ZM19.5 10.7141H19.6429V9.71411H19.5V10.7141ZM21.1429 12.2141V12.4998H22.1429V12.2141H21.1429ZM19.6429 13.9998H19.5V14.9998H19.6429V13.9998ZM21.1429 12.4998C21.1429 13.3283 20.4713 13.9998 19.6429 13.9998V14.9998C21.0236 14.9998 22.1429 13.8805 22.1429 12.4998H21.1429ZM19.6429 10.7141C20.4713 10.7141 21.1429 11.3857 21.1429 12.2141H22.1429C22.1429 10.8334 21.0236 9.71411 19.6429 9.71411V10.7141Z" fill="currentColor"/><path d="M4.5 13.9998C4.77614 13.9998 5 14.2237 5 14.4998C5 14.776 4.77614 14.9998 4.5 14.9998V13.9998ZM4.5 10.7141H4.35714V9.71411H4.5V10.7141ZM2.85714 12.2141V12.4998H1.85714V12.2141H2.85714ZM4.35714 13.9998H4.5V14.9998H4.35714V13.9998ZM2.85714 12.4998C2.85714 13.3283 3.52872 13.9998 4.35714 13.9998V14.9998C2.97643 14.9998 1.85714 13.8805 1.85714 12.4998H2.85714ZM4.35714 10.7141C3.52872 10.7141 2.85714 11.3857 2.85714 12.2141H1.85714C1.85714 10.8334 2.97643 9.71411 4.35714 9.71411V10.7141Z" fill="currentColor"/><mask id="path-10-inside-3_2_62402" fill="currentColor"><path d="M17.5 11.5C17.5 12.6046 16.6046 13.5 15.5 13.5C14.3954 13.5 13.5 12.6046 13.5 11.5C13.5 10.3954 14.3954 10 15.5 10C16.6046 10 17.5 10.3954 17.5 11.5Z"/><path d="M10.5 11.5C10.5 12.6046 9.60457 13.5 8.5 13.5C7.39543 13.5 6.5 12.6046 6.5 11.5C6.5 10.3954 7.39543 11 8.5 11C9.60457 11 10.5 10.3954 10.5 11.5Z"/></mask><path d="M16.5 11.5C16.5 12.0523 16.0523 12.5 15.5 12.5V14.5C17.1569 14.5 18.5 13.1569 18.5 11.5H16.5ZM15.5 12.5C14.9477 12.5 14.5 12.0523 14.5 11.5H12.5C12.5 13.1569 13.8431 14.5 15.5 14.5V12.5ZM14.5 11.5C14.5 11.3614 14.5272 11.2937 14.5422 11.2652C14.5564 11.2382 14.5797 11.2077 14.6335 11.1725C14.7639 11.0871 15.0395 11 15.5 11V9C14.856 9 14.1316 9.11061 13.5381 9.49912C12.8797 9.93012 12.5 10.6278 12.5 11.5H14.5ZM15.5 11C15.9605 11 16.2361 11.0871 16.3665 11.1725C16.4203 11.2077 16.4436 11.2382 16.4578 11.2652C16.4728 11.2937 16.5 11.3614 16.5 11.5H18.5C18.5 10.6278 18.1203 9.93012 17.4619 9.49912C16.8684 9.11061 16.144 9 15.5 9V11ZM9.5 11.5C9.5 12.0523 9.05228 12.5 8.5 12.5V14.5C10.1569 14.5 11.5 13.1569 11.5 11.5H9.5ZM8.5 12.5C7.94771 12.5 7.5 12.0523 7.5 11.5H5.5C5.5 13.1569 6.84315 14.5 8.5 14.5V12.5ZM7.5 11.5C7.5 11.3161 7.54505 11.4869 7.35518 11.672C7.15661 11.8655 6.95093 11.8316 7.0497 11.8351C7.14786 11.8387 7.27061 11.862 7.55896 11.9095C7.80812 11.9505 8.13808 12 8.5 12V10C8.30964 10 8.11345 9.97388 7.88406 9.93609C7.69385 9.90476 7.38564 9.84596 7.12188 9.83643C6.85872 9.82693 6.36014 9.84893 5.95916 10.2398C5.56688 10.6222 5.5 11.1316 5.5 11.5H7.5ZM8.5 12C8.86192 12 9.19188 11.9505 9.44104 11.9095C9.72939 11.862 9.85214 11.8387 9.9503 11.8351C10.0491 11.8316 9.84339 11.8655 9.64482 11.672C9.45495 11.4869 9.5 11.3161 9.5 11.5H11.5C11.5 11.1316 11.4331 10.6222 11.0408 10.2398C10.6399 9.84893 10.1413 9.82693 9.87812 9.83643C9.61436 9.84596 9.30615 9.90476 9.11594 9.93609C8.88655 9.97388 8.69036 10 8.5 10V12Z" fill="currentColor" mask="url(#path-10-inside-3_2_62402)"/></svg>
