<svg viewBox="0 0 16 16" fill="none" xmlns="http://www.w3.org/2000/svg" width="1em" height="1em"><path d="M13.5 9.5C13.5 11.0531 12.6719 12.2946 11.5389 13.1662C10.3961 14.0453 9.00108 14.5 8.00002 14.5C7.01526 14.5 5.62604 13.9949 4.47923 13.0246C3.34429 12.0642 2.5 10.6943 2.5 9C2.5 7.55097 2.5003 6.36581 2.57285 5.38728C2.64562 4.40574 2.7885 3.68387 3.04508 3.1457C3.29148 2.62887 3.65091 2.26392 4.21302 2.00506C4.79552 1.73682 5.61154 1.5757 6.77337 1.52116C7.00133 1.51046 7.29185 1.72052 7.47417 2.16586C7.8027 2.96835 8.45481 3.5618 9.23547 3.98676C10.0163 4.41179 10.9572 4.68655 11.9292 4.84117C12.8277 4.98409 13.5 5.68892 13.5 6.49994L13.5 9.5Z" stroke="currentColor"/><path d="M12.5 5C12.5 3.34315 11.1569 2 9.5 2H7.5" stroke="currentColor"/><path d="M14 7.75023V8.75026H15V7.75023H14ZM14 8.75026C14 9.02639 13.7761 9.25024 13.5 9.25024V10.2502C14.3284 10.2502 15 9.57868 15 8.75026H14ZM13.5 7.25024C13.7761 7.25024 14 7.47409 14 7.75023H15C15 6.92181 14.3284 6.25024 13.5 6.25024V7.25024Z" fill="currentColor"/><path d="M2.00002 7.75023V8.75026H1.00002V7.75023H2.00002ZM2.00002 8.75026C2.00002 9.02639 2.22387 9.25024 2.5 9.25024V10.2502C1.67158 10.2502 1.00002 9.57868 1.00002 8.75026H2.00002ZM2.5 7.25024C2.22387 7.25024 2.00002 7.47409 2.00002 7.75023H1.00002C1.00002 6.92181 1.67158 6.25024 2.5 6.25024V7.25024Z" fill="currentColor"/><path d="M5.5 10.9998C5.5 10.1713 6.17157 9.49976 7 9.49976H9C9.82843 9.49976 10.5 10.1713 10.5 10.9998C10.5 11.2759 10.2761 11.4998 10 11.4998H6C5.72386 11.4998 5.5 11.2759 5.5 10.9998Z" stroke="currentColor"/><path d="M11 7.12536C11 7.53958 10.6642 7.87536 10.25 7.87536C9.83579 7.87536 9.5 7.53958 9.5 7.12536C9.5 7.07943 9.50398 7.05037 9.50755 7.0336C9.50949 7.03294 9.51161 7.03226 9.51393 7.03154C9.56169 7.01676 9.6424 7.00481 9.77907 7.00054C9.8706 6.99768 9.96244 6.99841 10.0685 6.99926C10.1244 6.9997 10.1842 7.00018 10.25 7.00018C10.3158 7.00018 10.3756 6.9997 10.4315 6.99926C10.5376 6.99841 10.6294 6.99768 10.7209 7.00054C10.8576 7.00481 10.9383 7.01676 10.9861 7.03154C10.9884 7.03226 10.9905 7.03294 10.9925 7.0336C10.996 7.05037 11 7.07943 11 7.12536ZM10.9869 7.01459C10.9869 7.01458 10.9871 7.01489 10.9874 7.01556L10.9869 7.01459ZM9.51263 7.01556C9.51291 7.01489 9.51307 7.01458 9.51308 7.01459C9.51309 7.0146 9.51295 7.01494 9.51263 7.01556Z" stroke="currentColor"/><path d="M4.5 7.5H6.5" stroke="currentColor" stroke-linecap="round"/></svg>
