<svg viewBox="0 0 32 32" fill="none" xmlns="http://www.w3.org/2000/svg" width="1em" height="1em"><mask id="path-1-inside-1_2_62418" fill="currentColor"><path d="M27.0001 18.5C27.0001 25.5 20.5 30 16.0001 30C11.5001 30 5.00003 26 5.00003 18.5C5.00003 8.64945 4.55999 2.75945 14.0009 2.06851C15.1025 1.98789 15.963 2.9078 16.1894 3.98892C16.8796 7.28506 19.513 9.10265 24.9992 9.44169C26.1016 9.50982 27.0001 10.3935 27.0001 11.4981C27.0001 13.3732 27.0001 16.2225 27.0001 18.5Z"/></mask><path d="M14.0009 2.06851L14.0739 3.06584L14.0009 2.06851ZM26.0001 18.5C26.0001 21.6701 24.5324 24.2905 22.5128 26.137C20.4724 28.0025 17.9541 29 16.0001 29V31C18.546 31 21.5277 29.7475 23.8623 27.613C26.2177 25.4595 28.0001 22.3299 28.0001 18.5H26.0001ZM16.0001 29C11.9348 29 6.00003 25.3371 6.00003 18.5H4.00003C4.00003 26.6629 11.0653 31 16.0001 31V29ZM6.00003 18.5C6.00003 16.0157 5.97297 13.8413 6.0773 11.9285C6.18164 10.0155 6.41456 8.45709 6.89381 7.20749C7.36235 5.98581 8.06442 5.06284 9.14129 4.3904C10.2413 3.70352 11.807 3.23175 14.0739 3.06584L13.9279 1.07118C11.4744 1.25074 9.55473 1.77432 8.08197 2.69398C6.58609 3.62806 5.62799 4.92281 5.02643 6.49131C4.43558 8.0319 4.18845 9.83613 4.08027 11.8196C3.97207 13.8033 4.00003 16.0591 4.00003 18.5H6.00003ZM26.0001 11.4981C26.0001 11.5018 26.0001 11.5054 26.0001 11.5091C26.0001 11.5128 26.0001 11.5164 26.0001 11.5201C26.0001 11.5238 26.0001 11.5275 26.0001 11.5312C26.0001 11.5348 26.0001 11.5385 26.0001 11.5422C26.0001 11.5459 26.0001 11.5496 26.0001 11.5533C26.0001 11.557 26.0001 11.5607 26.0001 11.5644C26.0001 11.5681 26.0001 11.5718 26.0001 11.5755C26.0001 11.5793 26.0001 11.583 26.0001 11.5867C26.0001 11.5904 26.0001 11.5941 26.0001 11.5979C26.0001 11.6016 26.0001 11.6053 26.0001 11.6091C26.0001 11.6128 26.0001 11.6165 26.0001 11.6203C26.0001 11.624 26.0001 11.6278 26.0001 11.6315C26.0001 11.6353 26.0001 11.639 26.0001 11.6428C26.0001 11.6465 26.0001 11.6503 26.0001 11.6541C26.0001 11.6578 26.0001 11.6616 26.0001 11.6654C26.0001 11.6691 26.0001 11.6729 26.0001 11.6767C26.0001 11.6805 26.0001 11.6843 26.0001 11.688C26.0001 11.6918 26.0001 11.6956 26.0001 11.6994C26.0001 11.7032 26.0001 11.707 26.0001 11.7108C26.0001 11.7146 26.0001 11.7184 26.0001 11.7222C26.0001 11.726 26.0001 11.7298 26.0001 11.7336C26.0001 11.7374 26.0001 11.7413 26.0001 11.7451C26.0001 11.7489 26.0001 11.7527 26.0001 11.7566C26.0001 11.7604 26.0001 11.7642 26.0001 11.768C26.0001 11.7719 26.0001 11.7757 26.0001 11.7796C26.0001 11.7834 26.0001 11.7872 26.0001 11.7911C26.0001 11.7949 26.0001 11.7988 26.0001 11.8026C26.0001 11.8065 26.0001 11.8104 26.0001 11.8142C26.0001 11.8181 26.0001 11.8219 26.0001 11.8258C26.0001 11.8297 26.0001 11.8336 26.0001 11.8374C26.0001 11.8413 26.0001 11.8452 26.0001 11.8491C26.0001 11.8529 26.0001 11.8568 26.0001 11.8607C26.0001 11.8646 26.0001 11.8685 26.0001 11.8724C26.0001 11.8763 26.0001 11.8802 26.0001 11.8841C26.0001 11.888 26.0001 11.8919 26.0001 11.8958C26.0001 11.8997 26.0001 11.9036 26.0001 11.9075C26.0001 11.9115 26.0001 11.9154 26.0001 11.9193C26.0001 11.9232 26.0001 11.9271 26.0001 11.9311C26.0001 11.935 26.0001 11.9389 26.0001 11.9429C26.0001 11.9468 26.0001 11.9507 26.0001 11.9547C26.0001 11.9586 26.0001 11.9626 26.0001 11.9665C26.0001 11.9705 26.0001 11.9744 26.0001 11.9784C26.0001 11.9823 26.0001 11.9863 26.0001 11.9902C26.0001 11.9942 26.0001 11.9982 26.0001 12.0021C26.0001 12.0061 26.0001 12.0101 26.0001 12.014C26.0001 12.018 26.0001 12.022 26.0001 12.026C26.0001 12.03 26.0001 12.0339 26.0001 12.0379C26.0001 12.0419 26.0001 12.0459 26.0001 12.0499C26.0001 12.0539 26.0001 12.0579 26.0001 12.0619C26.0001 12.0659 26.0001 12.0699 26.0001 12.0739C26.0001 12.0779 26.0001 12.0819 26.0001 12.0859C26.0001 12.0899 26.0001 12.0939 26.0001 12.098C26.0001 12.102 26.0001 12.106 26.0001 12.11C26.0001 12.114 26.0001 12.1181 26.0001 12.1221C26.0001 12.1261 26.0001 12.1302 26.0001 12.1342C26.0001 12.1382 26.0001 12.1423 26.0001 12.1463C26.0001 12.1504 26.0001 12.1544 26.0001 12.1584C26.0001 12.1625 26.0001 12.1665 26.0001 12.1706C26.0001 12.1747 26.0001 12.1787 26.0001 12.1828C26.0001 12.1868 26.0001 12.1909 26.0001 12.195C26.0001 12.199 26.0001 12.2031 26.0001 12.2072C26.0001 12.2113 26.0001 12.2153 26.0001 12.2194C26.0001 12.2235 26.0001 12.2276 26.0001 12.2317C26.0001 12.2357 26.0001 12.2398 26.0001 12.2439C26.0001 12.248 26.0001 12.2521 26.0001 12.2562C26.0001 12.2603 26.0001 12.2644 26.0001 12.2685C26.0001 12.2726 26.0001 12.2767 26.0001 12.2808C26.0001 12.2849 26.0001 12.289 26.0001 12.2931C26.0001 12.2973 26.0001 12.3014 26.0001 12.3055C26.0001 12.3096 26.0001 12.3137 26.0001 12.3179C26.0001 12.322 26.0001 12.3261 26.0001 12.3303C26.0001 12.3344 26.0001 12.3385 26.0001 12.3427C26.0001 12.3468 26.0001 12.3509 26.0001 12.3551C26.0001 12.3592 26.0001 12.3634 26.0001 12.3675C26.0001 12.3717 26.0001 12.3758 26.0001 12.38C26.0001 12.3841 26.0001 12.3883 26.0001 12.3925C26.0001 12.3966 26.0001 12.4008 26.0001 12.4049C26.0001 12.4091 26.0001 12.4133 26.0001 12.4175C26.0001 12.4216 26.0001 12.4258 26.0001 12.43C26.0001 12.4342 26.0001 12.4383 26.0001 12.4425C26.0001 12.4467 26.0001 12.4509 26.0001 12.4551C26.0001 12.4593 26.0001 12.4635 26.0001 12.4677C26.0001 12.4718 26.0001 12.476 26.0001 12.4802C26.0001 12.4844 26.0001 12.4886 26.0001 12.4928C26.0001 12.4971 26.0001 12.5013 26.0001 12.5055C26.0001 12.5097 26.0001 12.5139 26.0001 12.5181C26.0001 12.5223 26.0001 12.5266 26.0001 12.5308C26.0001 12.535 26.0001 12.5392 26.0001 12.5434C26.0001 12.5477 26.0001 12.5519 26.0001 12.5561C26.0001 12.5604 26.0001 12.5646 26.0001 12.5688C26.0001 12.5731 26.0001 12.5773 26.0001 12.5816C26.0001 12.5858 26.0001 12.5901 26.0001 12.5943C26.0001 12.5985 26.0001 12.6028 26.0001 12.6071C26.0001 12.6113 26.0001 12.6156 26.0001 12.6198C26.0001 12.6241 26.0001 12.6283 26.0001 12.6326C26.0001 12.6369 26.0001 12.6411 26.0001 12.6454C26.0001 12.6497 26.0001 12.654 26.0001 12.6582C26.0001 12.6625 26.0001 12.6668 26.0001 12.6711C26.0001 12.6753 26.0001 12.6796 26.0001 12.6839C26.0001 12.6882 26.0001 12.6925 26.0001 12.6968C26.0001 12.7011 26.0001 12.7054 26.0001 12.7097C26.0001 12.7139 26.0001 12.7182 26.0001 12.7225C26.0001 12.7268 26.0001 12.7311 26.0001 12.7355C26.0001 12.7398 26.0001 12.7441 26.0001 12.7484C26.0001 12.7527 26.0001 12.757 26.0001 12.7613C26.0001 12.7656 26.0001 12.77 26.0001 12.7743C26.0001 12.7786 26.0001 12.7829 26.0001 12.7872C26.0001 12.7916 26.0001 12.7959 26.0001 12.8002C26.0001 12.8046 26.0001 12.8089 26.0001 12.8132C26.0001 12.8176 26.0001 12.8219 26.0001 12.8262C26.0001 12.8306 26.0001 12.8349 26.0001 12.8393C26.0001 12.8436 26.0001 12.848 26.0001 12.8523C26.0001 12.8567 26.0001 12.861 26.0001 12.8654C26.0001 12.8697 26.0001 12.8741 26.0001 12.8784C26.0001 12.8828 26.0001 12.8872 26.0001 12.8915C26.0001 12.8959 26.0001 12.9003 26.0001 12.9046C26.0001 12.909 26.0001 12.9134 26.0001 12.9178C26.0001 12.9221 26.0001 12.9265 26.0001 12.9309C26.0001 12.9353 26.0001 12.9396 26.0001 12.944C26.0001 12.9484 26.0001 12.9528 26.0001 12.9572C26.0001 12.9616 26.0001 12.966 26.0001 12.9704C26.0001 12.9747 26.0001 12.9791 26.0001 12.9835C26.0001 12.9879 26.0001 12.9923 26.0001 12.9967C26.0001 13.0011 26.0001 13.0055 26.0001 13.01C26.0001 13.0144 26.0001 13.0188 26.0001 13.0232C26.0001 13.0276 26.0001 13.032 26.0001 13.0364C26.0001 13.0408 26.0001 13.0453 26.0001 13.0497C26.0001 13.0541 26.0001 13.0585 26.0001 13.0629C26.0001 13.0674 26.0001 13.0718 26.0001 13.0762C26.0001 13.0807 26.0001 13.0851 26.0001 13.0895C26.0001 13.094 26.0001 13.0984 26.0001 13.1028C26.0001 13.1073 26.0001 13.1117 26.0001 13.1162C26.0001 13.1206 26.0001 13.125 26.0001 13.1295C26.0001 13.1339 26.0001 13.1384 26.0001 13.1428C26.0001 13.1473 26.0001 13.1517 26.0001 13.1562C26.0001 13.1607 26.0001 13.1651 26.0001 13.1696C26.0001 13.174 26.0001 13.1785 26.0001 13.183C26.0001 13.1874 26.0001 13.1919 26.0001 13.1964C26.0001 13.2008 26.0001 13.2053 26.0001 13.2098C26.0001 13.2142 26.0001 13.2187 26.0001 13.2232C26.0001 13.2277 26.0001 13.2321 26.0001 13.2366C26.0001 13.2411 26.0001 13.2456 26.0001 13.2501C26.0001 13.2546 26.0001 13.2591 26.0001 13.2635C26.0001 13.268 26.0001 13.2725 26.0001 13.277C26.0001 13.2815 26.0001 13.286 26.0001 13.2905C26.0001 13.295 26.0001 13.2995 26.0001 13.304C26.0001 13.3085 26.0001 13.313 26.0001 13.3175C26.0001 13.322 26.0001 13.3265 26.0001 13.331C26.0001 13.3356 26.0001 13.3401 26.0001 13.3446C26.0001 13.3491 26.0001 13.3536 26.0001 13.3581C26.0001 13.3626 26.0001 13.3672 26.0001 13.3717C26.0001 13.3762 26.0001 13.3807 26.0001 13.3853C26.0001 13.3898 26.0001 13.3943 26.0001 13.3988C26.0001 13.4034 26.0001 13.4079 26.0001 13.4124C26.0001 13.417 26.0001 13.4215 26.0001 13.426C26.0001 13.4306 26.0001 13.4351 26.0001 13.4397C26.0001 13.4442 26.0001 13.4487 26.0001 13.4533C26.0001 13.4578 26.0001 13.4624 26.0001 13.4669C26.0001 13.4715 26.0001 13.476 26.0001 13.4806C26.0001 13.4851 26.0001 13.4897 26.0001 13.4943C26.0001 13.4988 26.0001 13.5034 26.0001 13.5079C26.0001 13.5125 26.0001 13.517 26.0001 13.5216C26.0001 13.5262 26.0001 13.5307 26.0001 13.5353C26.0001 13.5399 26.0001 13.5444 26.0001 13.549C26.0001 13.5536 26.0001 13.5582 26.0001 13.5627C26.0001 13.5673 26.0001 13.5719 26.0001 13.5765C26.0001 13.581 26.0001 13.5856 26.0001 13.5902C26.0001 13.5948 26.0001 13.5994 26.0001 13.604C26.0001 13.6086 26.0001 13.6131 26.0001 13.6177C26.0001 13.6223 26.0001 13.6269 26.0001 13.6315C26.0001 13.6361 26.0001 13.6407 26.0001 13.6453C26.0001 13.6499 26.0001 13.6545 26.0001 13.6591C26.0001 13.6637 26.0001 13.6683 26.0001 13.6729C26.0001 13.6775 26.0001 13.6821 26.0001 13.6867C26.0001 13.6913 26.0001 13.6959 26.0001 13.7005C26.0001 13.7051 26.0001 13.7097 26.0001 13.7144C26.0001 13.719 26.0001 13.7236 26.0001 13.7282C26.0001 13.7328 26.0001 13.7374 26.0001 13.7421C26.0001 13.7467 26.0001 13.7513 26.0001 13.7559C26.0001 13.7606 26.0001 13.7652 26.0001 13.7698C26.0001 13.7744 26.0001 13.7791 26.0001 13.7837C26.0001 13.7883 26.0001 13.793 26.0001 13.7976C26.0001 13.8022 26.0001 13.8069 26.0001 13.8115C26.0001 13.8161 26.0001 13.8208 26.0001 13.8254C26.0001 13.83 26.0001 13.8347 26.0001 13.8393C26.0001 13.844 26.0001 13.8486 26.0001 13.8533C26.0001 13.8579 26.0001 13.8626 26.0001 13.8672C26.0001 13.8719 26.0001 13.8765 26.0001 13.8812C26.0001 13.8858 26.0001 13.8905 26.0001 13.8951C26.0001 13.8998 26.0001 13.9044 26.0001 13.9091C26.0001 13.9138 26.0001 13.9184 26.0001 13.9231C26.0001 13.9277 26.0001 13.9324 26.0001 13.9371C26.0001 13.9417 26.0001 13.9464 26.0001 13.9511C26.0001 13.9557 26.0001 13.9604 26.0001 13.9651C26.0001 13.9697 26.0001 13.9744 26.0001 13.9791C26.0001 13.9838 26.0001 13.9884 26.0001 13.9931C26.0001 13.9978 26.0001 14.0025 26.0001 14.0071C26.0001 14.0118 26.0001 14.0165 26.0001 14.0212C26.0001 14.0259 26.0001 14.0306 26.0001 14.0352C26.0001 14.0399 26.0001 14.0446 26.0001 14.0493C26.0001 14.054 26.0001 14.0587 26.0001 14.0634C26.0001 14.0681 26.0001 14.0728 26.0001 14.0774C26.0001 14.0821 26.0001 14.0868 26.0001 14.0915C26.0001 14.0962 26.0001 14.1009 26.0001 14.1056C26.0001 14.1103 26.0001 14.115 26.0001 14.1197C26.0001 14.1244 26.0001 14.1291 26.0001 14.1338C26.0001 14.1385 26.0001 14.1432 26.0001 14.148C26.0001 14.1527 26.0001 14.1574 26.0001 14.1621C26.0001 14.1668 26.0001 14.1715 26.0001 14.1762C26.0001 14.1809 26.0001 14.1856 26.0001 14.1904C26.0001 14.1951 26.0001 14.1998 26.0001 14.2045C26.0001 14.2092 26.0001 14.2139 26.0001 14.2187C26.0001 14.2234 26.0001 14.2281 26.0001 14.2328C26.0001 14.2375 26.0001 14.2423 26.0001 14.247C26.0001 14.2517 26.0001 14.2565 26.0001 14.2612C26.0001 14.2659 26.0001 14.2706 26.0001 14.2754C26.0001 14.2801 26.0001 14.2848 26.0001 14.2896C26.0001 14.2943 26.0001 14.299 26.0001 14.3038C26.0001 14.3085 26.0001 14.3132 26.0001 14.318C26.0001 14.3227 26.0001 14.3274 26.0001 14.3322C26.0001 14.3369 26.0001 14.3417 26.0001 14.3464C26.0001 14.3512 26.0001 14.3559 26.0001 14.3606C26.0001 14.3654 26.0001 14.3701 26.0001 14.3749C26.0001 14.3796 26.0001 14.3844 26.0001 14.3891C26.0001 14.3939 26.0001 14.3986 26.0001 14.4034C26.0001 14.4081 26.0001 14.4129 26.0001 14.4176C26.0001 14.4224 26.0001 14.4271 26.0001 14.4319C26.0001 14.4367 26.0001 14.4414 26.0001 14.4462C26.0001 14.4509 26.0001 14.4557 26.0001 14.4604C26.0001 14.4652 26.0001 14.47 26.0001 14.4747C26.0001 14.4795 26.0001 14.4843 26.0001 14.489C26.0001 14.4938 26.0001 14.4986 26.0001 14.5033C26.0001 14.5081 26.0001 14.5129 26.0001 14.5176C26.0001 14.5224 26.0001 14.5272 26.0001 14.5319C26.0001 14.5367 26.0001 14.5415 26.0001 14.5462C26.0001 14.551 26.0001 14.5558 26.0001 14.5606C26.0001 14.5653 26.0001 14.5701 26.0001 14.5749C26.0001 14.5797 26.0001 14.5844 26.0001 14.5892C26.0001 14.594 26.0001 14.5988 26.0001 14.6036C26.0001 14.6083 26.0001 14.6131 26.0001 14.6179C26.0001 14.6227 26.0001 14.6275 26.0001 14.6323C26.0001 14.637 26.0001 14.6418 26.0001 14.6466C26.0001 14.6514 26.0001 14.6562 26.0001 14.661C26.0001 14.6658 26.0001 14.6706 26.0001 14.6753C26.0001 14.6801 26.0001 14.6849 26.0001 14.6897C26.0001 14.6945 26.0001 14.6993 26.0001 14.7041C26.0001 14.7089 26.0001 14.7137 26.0001 14.7185C26.0001 14.7233 26.0001 14.7281 26.0001 14.7329C26.0001 14.7377 26.0001 14.7425 26.0001 14.7473C26.0001 14.7521 26.0001 14.7569 26.0001 14.7617C26.0001 14.7665 26.0001 14.7713 26.0001 14.7761C26.0001 14.7809 26.0001 14.7857 26.0001 14.7905C26.0001 14.7953 26.0001 14.8001 26.0001 14.8049C26.0001 14.8097 26.0001 14.8145 26.0001 14.8193C26.0001 14.8241 26.0001 14.8289 26.0001 14.8337C26.0001 14.8385 26.0001 14.8434 26.0001 14.8482C26.0001 14.853 26.0001 14.8578 26.0001 14.8626C26.0001 14.8674 26.0001 14.8722 26.0001 14.877C26.0001 14.8818 26.0001 14.8867 26.0001 14.8915C26.0001 14.8963 26.0001 14.9011 26.0001 14.9059C26.0001 14.9107 26.0001 14.9156 26.0001 14.9204C26.0001 14.9252 26.0001 14.93 26.0001 14.9348C26.0001 14.9396 26.0001 14.9445 26.0001 14.9493C26.0001 14.9541 26.0001 14.9589 26.0001 14.9637C26.0001 14.9686 26.0001 14.9734 26.0001 14.9782C26.0001 14.983 26.0001 14.9879 26.0001 14.9927C26.0001 14.9975 26.0001 15.0023 26.0001 15.0072C26.0001 15.012 26.0001 15.0168 26.0001 15.0216C26.0001 15.0265 26.0001 15.0313 26.0001 15.0361C26.0001 15.0409 26.0001 15.0458 26.0001 15.0506C26.0001 15.0554 26.0001 15.0603 26.0001 15.0651C26.0001 15.0699 26.0001 15.0748 26.0001 15.0796C26.0001 15.0844 26.0001 15.0893 26.0001 15.0941C26.0001 15.0989 26.0001 15.1038 26.0001 15.1086C26.0001 15.1134 26.0001 15.1183 26.0001 15.1231C26.0001 15.1279 26.0001 15.1328 26.0001 15.1376C26.0001 15.1424 26.0001 15.1473 26.0001 15.1521C26.0001 15.1569 26.0001 15.1618 26.0001 15.1666C26.0001 15.1715 26.0001 15.1763 26.0001 15.1811C26.0001 15.186 26.0001 15.1908 26.0001 15.1957C26.0001 15.2005 26.0001 15.2053 26.0001 15.2102C26.0001 15.215 26.0001 15.2199 26.0001 15.2247C26.0001 15.2295 26.0001 15.2344 26.0001 15.2392C26.0001 15.2441 26.0001 15.2489 26.0001 15.2538C26.0001 15.2586 26.0001 15.2635 26.0001 15.2683C26.0001 15.2731 26.0001 15.278 26.0001 15.2828C26.0001 15.2877 26.0001 15.2925 26.0001 15.2974C26.0001 15.3022 26.0001 15.3071 26.0001 15.3119C26.0001 15.3168 26.0001 15.3216 26.0001 15.3265C26.0001 15.3313 26.0001 15.3362 26.0001 15.341C26.0001 15.3459 26.0001 15.3507 26.0001 15.3556C26.0001 15.3604 26.0001 15.3653 26.0001 15.3701C26.0001 15.375 26.0001 15.3798 26.0001 15.3847C26.0001 15.3895 26.0001 15.3944 26.0001 15.3992C26.0001 15.4041 26.0001 15.4089 26.0001 15.4138C26.0001 15.4186 26.0001 15.4235 26.0001 15.4283C26.0001 15.4332 26.0001 15.438 26.0001 15.4429C26.0001 15.4477 26.0001 15.4526 26.0001 15.4574C26.0001 15.4623 26.0001 15.4672 26.0001 15.472C26.0001 15.4769 26.0001 15.4817 26.0001 15.4866C26.0001 15.4914 26.0001 15.4963 26.0001 15.5011C26.0001 15.506 26.0001 15.5109 26.0001 15.5157C26.0001 15.5206 26.0001 15.5254 26.0001 15.5303C26.0001 15.5351 26.0001 15.54 26.0001 15.5449C26.0001 15.5497 26.0001 15.5546 26.0001 15.5594C26.0001 15.5643 26.0001 15.5691 26.0001 15.574C26.0001 15.5789 26.0001 15.5837 26.0001 15.5886C26.0001 15.5934 26.0001 15.5983 26.0001 15.6031C26.0001 15.608 26.0001 15.6129 26.0001 15.6177C26.0001 15.6226 26.0001 15.6274 26.0001 15.6323C26.0001 15.6372 26.0001 15.642 26.0001 15.6469C26.0001 15.6517 26.0001 15.6566 26.0001 15.6615C26.0001 15.6663 26.0001 15.6712 26.0001 15.676C26.0001 15.6809 26.0001 15.6858 26.0001 15.6906C26.0001 15.6955 26.0001 15.7003 26.0001 15.7052C26.0001 15.7101 26.0001 15.7149 26.0001 15.7198C26.0001 15.7246 26.0001 15.7295 26.0001 15.7344C26.0001 15.7392 26.0001 15.7441 26.0001 15.749C26.0001 15.7538 26.0001 15.7587 26.0001 15.7635C26.0001 15.7684 26.0001 15.7733 26.0001 15.7781C26.0001 15.783 26.0001 15.7878 26.0001 15.7927C26.0001 15.7976 26.0001 15.8024 26.0001 15.8073C26.0001 15.8121 26.0001 15.817 26.0001 15.8219C26.0001 15.8267 26.0001 15.8316 26.0001 15.8365C26.0001 15.8413 26.0001 15.8462 26.0001 15.851C26.0001 15.8559 26.0001 15.8608 26.0001 15.8656C26.0001 15.8705 26.0001 15.8753 26.0001 15.8802C26.0001 15.8851 26.0001 15.8899 26.0001 15.8948C26.0001 15.8996 26.0001 15.9045 26.0001 15.9094C26.0001 15.9142 26.0001 15.9191 26.0001 15.924C26.0001 15.9288 26.0001 15.9337 26.0001 15.9385C26.0001 15.9434 26.0001 15.9483 26.0001 15.9531C26.0001 15.958 26.0001 15.9628 26.0001 15.9677C26.0001 15.9726 26.0001 15.9774 26.0001 15.9823C26.0001 15.9871 26.0001 15.992 26.0001 15.9969C26.0001 16.0017 26.0001 16.0066 26.0001 16.0114C26.0001 16.0163 26.0001 16.0212 26.0001 16.026C26.0001 16.0309 26.0001 16.0357 26.0001 16.0406C26.0001 16.0454 26.0001 16.0503 26.0001 16.0552C26.0001 16.06 26.0001 16.0649 26.0001 16.0697C26.0001 16.0746 26.0001 16.0795 26.0001 16.0843C26.0001 16.0892 26.0001 16.094 26.0001 16.0989C26.0001 16.1037 26.0001 16.1086 26.0001 16.1134C26.0001 16.1183 26.0001 16.1232 26.0001 16.128C26.0001 16.1329 26.0001 16.1377 26.0001 16.1426C26.0001 16.1474 26.0001 16.1523 26.0001 16.1572C26.0001 16.162 26.0001 16.1669 26.0001 16.1717C26.0001 16.1766 26.0001 16.1814 26.0001 16.1863C26.0001 16.1911 26.0001 16.196 26.0001 16.2008C26.0001 16.2057 26.0001 16.2105 26.0001 16.2154C26.0001 16.2203 26.0001 16.2251 26.0001 16.23C26.0001 16.2348 26.0001 16.2397 26.0001 16.2445C26.0001 16.2494 26.0001 16.2542 26.0001 16.2591C26.0001 16.2639 26.0001 16.2688 26.0001 16.2736C26.0001 16.2785 26.0001 16.2833 26.0001 16.2882C26.0001 16.293 26.0001 16.2979 26.0001 16.3027C26.0001 16.3076 26.0001 16.3124 26.0001 16.3173C26.0001 16.3221 26.0001 16.3269 26.0001 16.3318C26.0001 16.3366 26.0001 16.3415 26.0001 16.3463C26.0001 16.3512 26.0001 16.356 26.0001 16.3609C26.0001 16.3657 26.0001 16.3706 26.0001 16.3754C26.0001 16.3802 26.0001 16.3851 26.0001 16.3899C26.0001 16.3948 26.0001 16.3996 26.0001 16.4045C26.0001 16.4093 26.0001 16.4142 26.0001 16.419C26.0001 16.4238 26.0001 16.4287 26.0001 16.4335C26.0001 16.4384 26.0001 16.4432 26.0001 16.448C26.0001 16.4529 26.0001 16.4577 26.0001 16.4626C26.0001 16.4674 26.0001 16.4722 26.0001 16.4771C26.0001 16.4819 26.0001 16.4867 26.0001 16.4916C26.0001 16.4964 26.0001 16.5013 26.0001 16.5061C26.0001 16.5109 26.0001 16.5158 26.0001 16.5206C26.0001 16.5254 26.0001 16.5303 26.0001 16.5351C26.0001 16.5399 26.0001 16.5448 26.0001 16.5496C26.0001 16.5544 26.0001 16.5593 26.0001 16.5641C26.0001 16.5689 26.0001 16.5737 26.0001 16.5786C26.0001 16.5834 26.0001 16.5882 26.0001 16.5931C26.0001 16.5979 26.0001 16.6027 26.0001 16.6075C26.0001 16.6124 26.0001 16.6172 26.0001 16.622C26.0001 16.6269 26.0001 16.6317 26.0001 16.6365C26.0001 16.6413 26.0001 16.6461 26.0001 16.651C26.0001 16.6558 26.0001 16.6606 26.0001 16.6654C26.0001 16.6703 26.0001 16.6751 26.0001 16.6799C26.0001 16.6847 26.0001 16.6895 26.0001 16.6944C26.0001 16.6992 26.0001 16.704 26.0001 16.7088C26.0001 16.7136 26.0001 16.7185 26.0001 16.7233C26.0001 16.7281 26.0001 16.7329 26.0001 16.7377C26.0001 16.7425 26.0001 16.7473 26.0001 16.7522C26.0001 16.757 26.0001 16.7618 26.0001 16.7666C26.0001 16.7714 26.0001 16.7762 26.0001 16.781C26.0001 16.7858 26.0001 16.7907 26.0001 16.7955C26.0001 16.8003 26.0001 16.8051 26.0001 16.8099C26.0001 16.8147 26.0001 16.8195 26.0001 16.8243C26.0001 16.8291 26.0001 16.8339 26.0001 16.8387C26.0001 16.8435 26.0001 16.8483 26.0001 16.8531C26.0001 16.8579 26.0001 16.8627 26.0001 16.8675C26.0001 16.8723 26.0001 16.8771 26.0001 16.8819C26.0001 16.8867 26.0001 16.8915 26.0001 16.8963C26.0001 16.9011 26.0001 16.9059 26.0001 16.9107C26.0001 16.9155 26.0001 16.9203 26.0001 16.9251C26.0001 16.9299 26.0001 16.9347 26.0001 16.9395C26.0001 16.9443 26.0001 16.9491 26.0001 16.9539C26.0001 16.9587 26.0001 16.9634 26.0001 16.9682C26.0001 16.973 26.0001 16.9778 26.0001 16.9826C26.0001 16.9874 26.0001 16.9922 26.0001 16.997C26.0001 17.0017 26.0001 17.0065 26.0001 17.0113C26.0001 17.0161 26.0001 17.0209 26.0001 17.0257C26.0001 17.0304 26.0001 17.0352 26.0001 17.04C26.0001 17.0448 26.0001 17.0496 26.0001 17.0543C26.0001 17.0591 26.0001 17.0639 26.0001 17.0687C26.0001 17.0734 26.0001 17.0782 26.0001 17.083C26.0001 17.0878 26.0001 17.0925 26.0001 17.0973C26.0001 17.1021 26.0001 17.1068 26.0001 17.1116C26.0001 17.1164 26.0001 17.1211 26.0001 17.1259C26.0001 17.1307 26.0001 17.1354 26.0001 17.1402C26.0001 17.145 26.0001 17.1497 26.0001 17.1545C26.0001 17.1593 26.0001 17.164 26.0001 17.1688C26.0001 17.1736 26.0001 17.1783 26.0001 17.1831C26.0001 17.1878 26.0001 17.1926 26.0001 17.1973C26.0001 17.2021 26.0001 17.2069 26.0001 17.2116C26.0001 17.2164 26.0001 17.2211 26.0001 17.2259C26.0001 17.2306 26.0001 17.2354 26.0001 17.2401C26.0001 17.2449 26.0001 17.2496 26.0001 17.2544C26.0001 17.2591 26.0001 17.2639 26.0001 17.2686C26.0001 17.2734 26.0001 17.2781 26.0001 17.2828C26.0001 17.2876 26.0001 17.2923 26.0001 17.2971C26.0001 17.3018 26.0001 17.3065 26.0001 17.3113C26.0001 17.316 26.0001 17.3208 26.0001 17.3255C26.0001 17.3302 26.0001 17.335 26.0001 17.3397C26.0001 17.3444 26.0001 17.3492 26.0001 17.3539C26.0001 17.3586 26.0001 17.3634 26.0001 17.3681C26.0001 17.3728 26.0001 17.3775 26.0001 17.3823C26.0001 17.387 26.0001 17.3917 26.0001 17.3964C26.0001 17.4012 26.0001 17.4059 26.0001 17.4106C26.0001 17.4153 26.0001 17.42 26.0001 17.4248C26.0001 17.4295 26.0001 17.4342 26.0001 17.4389C26.0001 17.4436 26.0001 17.4483 26.0001 17.4531C26.0001 17.4578 26.0001 17.4625 26.0001 17.4672C26.0001 17.4719 26.0001 17.4766 26.0001 17.4813C26.0001 17.486 26.0001 17.4907 26.0001 17.4954C26.0001 17.5001 26.0001 17.5049 26.0001 17.5096C26.0001 17.5143 26.0001 17.519 26.0001 17.5237C26.0001 17.5284 26.0001 17.5331 26.0001 17.5378C26.0001 17.5425 26.0001 17.5471 26.0001 17.5518C26.0001 17.5565 26.0001 17.5612 26.0001 17.5659C26.0001 17.5706 26.0001 17.5753 26.0001 17.58C26.0001 17.5847 26.0001 17.5894 26.0001 17.5941C26.0001 17.5987 26.0001 17.6034 26.0001 17.6081C26.0001 17.6128 26.0001 17.6175 26.0001 17.6222C26.0001 17.6268 26.0001 17.6315 26.0001 17.6362C26.0001 17.6409 26.0001 17.6455 26.0001 17.6502C26.0001 17.6549 26.0001 17.6596 26.0001 17.6642C26.0001 17.6689 26.0001 17.6736 26.0001 17.6782C26.0001 17.6829 26.0001 17.6876 26.0001 17.6922C26.0001 17.6969 26.0001 17.7016 26.0001 17.7062C26.0001 17.7109 26.0001 17.7156 26.0001 17.7202C26.0001 17.7249 26.0001 17.7295 26.0001 17.7342C26.0001 17.7389 26.0001 17.7435 26.0001 17.7482C26.0001 17.7528 26.0001 17.7575 26.0001 17.7621C26.0001 17.7668 26.0001 17.7714 26.0001 17.7761C26.0001 17.7807 26.0001 17.7854 26.0001 17.79C26.0001 17.7946 26.0001 17.7993 26.0001 17.8039C26.0001 17.8086 26.0001 17.8132 26.0001 17.8178C26.0001 17.8225 26.0001 17.8271 26.0001 17.8318C26.0001 17.8364 26.0001 17.841 26.0001 17.8456C26.0001 17.8503 26.0001 17.8549 26.0001 17.8595C26.0001 17.8642 26.0001 17.8688 26.0001 17.8734C26.0001 17.878 26.0001 17.8827 26.0001 17.8873C26.0001 17.8919 26.0001 17.8965 26.0001 17.9011C26.0001 17.9058 26.0001 17.9104 26.0001 17.915C26.0001 17.9196 26.0001 17.9242 26.0001 17.9288C26.0001 17.9334 26.0001 17.9381 26.0001 17.9427C26.0001 17.9473 26.0001 17.9519 26.0001 17.9565C26.0001 17.9611 26.0001 17.9657 26.0001 17.9703C26.0001 17.9749 26.0001 17.9795 26.0001 17.9841C26.0001 17.9887 26.0001 17.9933 26.0001 17.9979C26.0001 18.0025 26.0001 18.0071 26.0001 18.0116C26.0001 18.0162 26.0001 18.0208 26.0001 18.0254C26.0001 18.03 26.0001 18.0346 26.0001 18.0392C26.0001 18.0438 26.0001 18.0483 26.0001 18.0529C26.0001 18.0575 26.0001 18.0621 26.0001 18.0666C26.0001 18.0712 26.0001 18.0758 26.0001 18.0804C26.0001 18.0849 26.0001 18.0895 26.0001 18.0941C26.0001 18.0986 26.0001 18.1032 26.0001 18.1078C26.0001 18.1123 26.0001 18.1169 26.0001 18.1215C26.0001 18.126 26.0001 18.1306 26.0001 18.1351C26.0001 18.1397 26.0001 18.1443 26.0001 18.1488C26.0001 18.1534 26.0001 18.1579 26.0001 18.1625C26.0001 18.167 26.0001 18.1716 26.0001 18.1761C26.0001 18.1807 26.0001 18.1852 26.0001 18.1897C26.0001 18.1943 26.0001 18.1988 26.0001 18.2034C26.0001 18.2079 26.0001 18.2124 26.0001 18.217C26.0001 18.2215 26.0001 18.226 26.0001 18.2306C26.0001 18.2351 26.0001 18.2396 26.0001 18.2442C26.0001 18.2487 26.0001 18.2532 26.0001 18.2577C26.0001 18.2623 26.0001 18.2668 26.0001 18.2713C26.0001 18.2758 26.0001 18.2803 26.0001 18.2849C26.0001 18.2894 26.0001 18.2939 26.0001 18.2984C26.0001 18.3029 26.0001 18.3074 26.0001 18.3119C26.0001 18.3164 26.0001 18.3209 26.0001 18.3254C26.0001 18.3299 26.0001 18.3344 26.0001 18.3389C26.0001 18.3434 26.0001 18.3479 26.0001 18.3524C26.0001 18.3569 26.0001 18.3614 26.0001 18.3659C26.0001 18.3704 26.0001 18.3749 26.0001 18.3794C26.0001 18.3839 26.0001 18.3883 26.0001 18.3928C26.0001 18.3973 26.0001 18.4018 26.0001 18.4063C26.0001 18.4107 26.0001 18.4152 26.0001 18.4197C26.0001 18.4242 26.0001 18.4286 26.0001 18.4331C26.0001 18.4376 26.0001 18.4421 26.0001 18.4465C26.0001 18.451 26.0001 18.4554 26.0001 18.4599C26.0001 18.4644 26.0001 18.4688 26.0001 18.4733C26.0001 18.4777 26.0001 18.4822 26.0001 18.4866C26.0001 18.4911 26.0001 18.4956 26.0001 18.5H28.0001C28.0001 18.4956 28.0001 18.4911 28.0001 18.4866C28.0001 18.4822 28.0001 18.4777 28.0001 18.4733C28.0001 18.4688 28.0001 18.4644 28.0001 18.4599C28.0001 18.4554 28.0001 18.451 28.0001 18.4465C28.0001 18.4421 28.0001 18.4376 28.0001 18.4331C28.0001 18.4286 28.0001 18.4242 28.0001 18.4197C28.0001 18.4152 28.0001 18.4107 28.0001 18.4063C28.0001 18.4018 28.0001 18.3973 28.0001 18.3928C28.0001 18.3883 28.0001 18.3839 28.0001 18.3794C28.0001 18.3749 28.0001 18.3704 28.0001 18.3659C28.0001 18.3614 28.0001 18.3569 28.0001 18.3524C28.0001 18.3479 28.0001 18.3434 28.0001 18.3389C28.0001 18.3344 28.0001 18.3299 28.0001 18.3254C28.0001 18.3209 28.0001 18.3164 28.0001 18.3119C28.0001 18.3074 28.0001 18.3029 28.0001 18.2984C28.0001 18.2939 28.0001 18.2894 28.0001 18.2849C28.0001 18.2803 28.0001 18.2758 28.0001 18.2713C28.0001 18.2668 28.0001 18.2623 28.0001 18.2577C28.0001 18.2532 28.0001 18.2487 28.0001 18.2442C28.0001 18.2396 28.0001 18.2351 28.0001 18.2306C28.0001 18.226 28.0001 18.2215 28.0001 18.217C28.0001 18.2124 28.0001 18.2079 28.0001 18.2034C28.0001 18.1988 28.0001 18.1943 28.0001 18.1897C28.0001 18.1852 28.0001 18.1807 28.0001 18.1761C28.0001 18.1716 28.0001 18.167 28.0001 18.1625C28.0001 18.1579 28.0001 18.1534 28.0001 18.1488C28.0001 18.1443 28.0001 18.1397 28.0001 18.1351C28.0001 18.1306 28.0001 18.126 28.0001 18.1215C28.0001 18.1169 28.0001 18.1123 28.0001 18.1078C28.0001 18.1032 28.0001 18.0986 28.0001 18.0941C28.0001 18.0895 28.0001 18.0849 28.0001 18.0804C28.0001 18.0758 28.0001 18.0712 28.0001 18.0666C28.0001 18.0621 28.0001 18.0575 28.0001 18.0529C28.0001 18.0483 28.0001 18.0438 28.0001 18.0392C28.0001 18.0346 28.0001 18.03 28.0001 18.0254C28.0001 18.0208 28.0001 18.0162 28.0001 18.0116C28.0001 18.0071 28.0001 18.0025 28.0001 17.9979C28.0001 17.9933 28.0001 17.9887 28.0001 17.9841C28.0001 17.9795 28.0001 17.9749 28.0001 17.9703C28.0001 17.9657 28.0001 17.9611 28.0001 17.9565C28.0001 17.9519 28.0001 17.9473 28.0001 17.9427C28.0001 17.9381 28.0001 17.9334 28.0001 17.9288C28.0001 17.9242 28.0001 17.9196 28.0001 17.915C28.0001 17.9104 28.0001 17.9058 28.0001 17.9011C28.0001 17.8965 28.0001 17.8919 28.0001 17.8873C28.0001 17.8827 28.0001 17.878 28.0001 17.8734C28.0001 17.8688 28.0001 17.8642 28.0001 17.8595C28.0001 17.8549 28.0001 17.8503 28.0001 17.8456C28.0001 17.841 28.0001 17.8364 28.0001 17.8318C28.0001 17.8271 28.0001 17.8225 28.0001 17.8178C28.0001 17.8132 28.0001 17.8086 28.0001 17.8039C28.0001 17.7993 28.0001 17.7946 28.0001 17.79C28.0001 17.7854 28.0001 17.7807 28.0001 17.7761C28.0001 17.7714 28.0001 17.7668 28.0001 17.7621C28.0001 17.7575 28.0001 17.7528 28.0001 17.7482C28.0001 17.7435 28.0001 17.7389 28.0001 17.7342C28.0001 17.7295 28.0001 17.7249 28.0001 17.7202C28.0001 17.7156 28.0001 17.7109 28.0001 17.7062C28.0001 17.7016 28.0001 17.6969 28.0001 17.6922C28.0001 17.6876 28.0001 17.6829 28.0001 17.6782C28.0001 17.6736 28.0001 17.6689 28.0001 17.6642C28.0001 17.6596 28.0001 17.6549 28.0001 17.6502C28.0001 17.6455 28.0001 17.6409 28.0001 17.6362C28.0001 17.6315 28.0001 17.6268 28.0001 17.6222C28.0001 17.6175 28.0001 17.6128 28.0001 17.6081C28.0001 17.6034 28.0001 17.5987 28.0001 17.5941C28.0001 17.5894 28.0001 17.5847 28.0001 17.58C28.0001 17.5753 28.0001 17.5706 28.0001 17.5659C28.0001 17.5612 28.0001 17.5565 28.0001 17.5518C28.0001 17.5471 28.0001 17.5425 28.0001 17.5378C28.0001 17.5331 28.0001 17.5284 28.0001 17.5237C28.0001 17.519 28.0001 17.5143 28.0001 17.5096C28.0001 17.5049 28.0001 17.5001 28.0001 17.4954C28.0001 17.4907 28.0001 17.486 28.0001 17.4813C28.0001 17.4766 28.0001 17.4719 28.0001 17.4672C28.0001 17.4625 28.0001 17.4578 28.0001 17.4531C28.0001 17.4483 28.0001 17.4436 28.0001 17.4389C28.0001 17.4342 28.0001 17.4295 28.0001 17.4248C28.0001 17.42 28.0001 17.4153 28.0001 17.4106C28.0001 17.4059 28.0001 17.4012 28.0001 17.3964C28.0001 17.3917 28.0001 17.387 28.0001 17.3823C28.0001 17.3775 28.0001 17.3728 28.0001 17.3681C28.0001 17.3634 28.0001 17.3586 28.0001 17.3539C28.0001 17.3492 28.0001 17.3444 28.0001 17.3397C28.0001 17.335 28.0001 17.3302 28.0001 17.3255C28.0001 17.3208 28.0001 17.316 28.0001 17.3113C28.0001 17.3065 28.0001 17.3018 28.0001 17.2971C28.0001 17.2923 28.0001 17.2876 28.0001 17.2828C28.0001 17.2781 28.0001 17.2734 28.0001 17.2686C28.0001 17.2639 28.0001 17.2591 28.0001 17.2544C28.0001 17.2496 28.0001 17.2449 28.0001 17.2401C28.0001 17.2354 28.0001 17.2306 28.0001 17.2259C28.0001 17.2211 28.0001 17.2164 28.0001 17.2116C28.0001 17.2069 28.0001 17.2021 28.0001 17.1973C28.0001 17.1926 28.0001 17.1878 28.0001 17.1831C28.0001 17.1783 28.0001 17.1736 28.0001 17.1688C28.0001 17.164 28.0001 17.1593 28.0001 17.1545C28.0001 17.1497 28.0001 17.145 28.0001 17.1402C28.0001 17.1354 28.0001 17.1307 28.0001 17.1259C28.0001 17.1211 28.0001 17.1164 28.0001 17.1116C28.0001 17.1068 28.0001 17.1021 28.0001 17.0973C28.0001 17.0925 28.0001 17.0878 28.0001 17.083C28.0001 17.0782 28.0001 17.0734 28.0001 17.0687C28.0001 17.0639 28.0001 17.0591 28.0001 17.0543C28.0001 17.0496 28.0001 17.0448 28.0001 17.04C28.0001 17.0352 28.0001 17.0304 28.0001 17.0257C28.0001 17.0209 28.0001 17.0161 28.0001 17.0113C28.0001 17.0065 28.0001 17.0017 28.0001 16.997C28.0001 16.9922 28.0001 16.9874 28.0001 16.9826C28.0001 16.9778 28.0001 16.973 28.0001 16.9682C28.0001 16.9634 28.0001 16.9587 28.0001 16.9539C28.0001 16.9491 28.0001 16.9443 28.0001 16.9395C28.0001 16.9347 28.0001 16.9299 28.0001 16.9251C28.0001 16.9203 28.0001 16.9155 28.0001 16.9107C28.0001 16.9059 28.0001 16.9011 28.0001 16.8963C28.0001 16.8915 28.0001 16.8867 28.0001 16.8819C28.0001 16.8771 28.0001 16.8723 28.0001 16.8675C28.0001 16.8627 28.0001 16.8579 28.0001 16.8531C28.0001 16.8483 28.0001 16.8435 28.0001 16.8387C28.0001 16.8339 28.0001 16.8291 28.0001 16.8243C28.0001 16.8195 28.0001 16.8147 28.0001 16.8099C28.0001 16.8051 28.0001 16.8003 28.0001 16.7955C28.0001 16.7907 28.0001 16.7858 28.0001 16.781C28.0001 16.7762 28.0001 16.7714 28.0001 16.7666C28.0001 16.7618 28.0001 16.757 28.0001 16.7522C28.0001 16.7473 28.0001 16.7425 28.0001 16.7377C28.0001 16.7329 28.0001 16.7281 28.0001 16.7233C28.0001 16.7185 28.0001 16.7136 28.0001 16.7088C28.0001 16.704 28.0001 16.6992 28.0001 16.6944C28.0001 16.6895 28.0001 16.6847 28.0001 16.6799C28.0001 16.6751 28.0001 16.6703 28.0001 16.6654C28.0001 16.6606 28.0001 16.6558 28.0001 16.651C28.0001 16.6461 28.0001 16.6413 28.0001 16.6365C28.0001 16.6317 28.0001 16.6269 28.0001 16.622C28.0001 16.6172 28.0001 16.6124 28.0001 16.6075C28.0001 16.6027 28.0001 16.5979 28.0001 16.5931C28.0001 16.5882 28.0001 16.5834 28.0001 16.5786C28.0001 16.5737 28.0001 16.5689 28.0001 16.5641C28.0001 16.5593 28.0001 16.5544 28.0001 16.5496C28.0001 16.5448 28.0001 16.5399 28.0001 16.5351C28.0001 16.5303 28.0001 16.5254 28.0001 16.5206C28.0001 16.5158 28.0001 16.5109 28.0001 16.5061C28.0001 16.5013 28.0001 16.4964 28.0001 16.4916C28.0001 16.4867 28.0001 16.4819 28.0001 16.4771C28.0001 16.4722 28.0001 16.4674 28.0001 16.4626C28.0001 16.4577 28.0001 16.4529 28.0001 16.448C28.0001 16.4432 28.0001 16.4384 28.0001 16.4335C28.0001 16.4287 28.0001 16.4238 28.0001 16.419C28.0001 16.4142 28.0001 16.4093 28.0001 16.4045C28.0001 16.3996 28.0001 16.3948 28.0001 16.3899C28.0001 16.3851 28.0001 16.3802 28.0001 16.3754C28.0001 16.3706 28.0001 16.3657 28.0001 16.3609C28.0001 16.356 28.0001 16.3512 28.0001 16.3463C28.0001 16.3415 28.0001 16.3366 28.0001 16.3318C28.0001 16.3269 28.0001 16.3221 28.0001 16.3173C28.0001 16.3124 28.0001 16.3076 28.0001 16.3027C28.0001 16.2979 28.0001 16.293 28.0001 16.2882C28.0001 16.2833 28.0001 16.2785 28.0001 16.2736C28.0001 16.2688 28.0001 16.2639 28.0001 16.2591C28.0001 16.2542 28.0001 16.2494 28.0001 16.2445C28.0001 16.2397 28.0001 16.2348 28.0001 16.23C28.0001 16.2251 28.0001 16.2203 28.0001 16.2154C28.0001 16.2105 28.0001 16.2057 28.0001 16.2008C28.0001 16.196 28.0001 16.1911 28.0001 16.1863C28.0001 16.1814 28.0001 16.1766 28.0001 16.1717C28.0001 16.1669 28.0001 16.162 28.0001 16.1572C28.0001 16.1523 28.0001 16.1474 28.0001 16.1426C28.0001 16.1377 28.0001 16.1329 28.0001 16.128C28.0001 16.1232 28.0001 16.1183 28.0001 16.1134C28.0001 16.1086 28.0001 16.1037 28.0001 16.0989C28.0001 16.094 28.0001 16.0892 28.0001 16.0843C28.0001 16.0795 28.0001 16.0746 28.0001 16.0697C28.0001 16.0649 28.0001 16.06 28.0001 16.0552C28.0001 16.0503 28.0001 16.0454 28.0001 16.0406C28.0001 16.0357 28.0001 16.0309 28.0001 16.026C28.0001 16.0212 28.0001 16.0163 28.0001 16.0114C28.0001 16.0066 28.0001 16.0017 28.0001 15.9969C28.0001 15.992 28.0001 15.9871 28.0001 15.9823C28.0001 15.9774 28.0001 15.9726 28.0001 15.9677C28.0001 15.9628 28.0001 15.958 28.0001 15.9531C28.0001 15.9483 28.0001 15.9434 28.0001 15.9385C28.0001 15.9337 28.0001 15.9288 28.0001 15.924C28.0001 15.9191 28.0001 15.9142 28.0001 15.9094C28.0001 15.9045 28.0001 15.8996 28.0001 15.8948C28.0001 15.8899 28.0001 15.8851 28.0001 15.8802C28.0001 15.8753 28.0001 15.8705 28.0001 15.8656C28.0001 15.8608 28.0001 15.8559 28.0001 15.851C28.0001 15.8462 28.0001 15.8413 28.0001 15.8365C28.0001 15.8316 28.0001 15.8267 28.0001 15.8219C28.0001 15.817 28.0001 15.8121 28.0001 15.8073C28.0001 15.8024 28.0001 15.7976 28.0001 15.7927C28.0001 15.7878 28.0001 15.783 28.0001 15.7781C28.0001 15.7733 28.0001 15.7684 28.0001 15.7635C28.0001 15.7587 28.0001 15.7538 28.0001 15.749C28.0001 15.7441 28.0001 15.7392 28.0001 15.7344C28.0001 15.7295 28.0001 15.7246 28.0001 15.7198C28.0001 15.7149 28.0001 15.7101 28.0001 15.7052C28.0001 15.7003 28.0001 15.6955 28.0001 15.6906C28.0001 15.6858 28.0001 15.6809 28.0001 15.676C28.0001 15.6712 28.0001 15.6663 28.0001 15.6615C28.0001 15.6566 28.0001 15.6517 28.0001 15.6469C28.0001 15.642 28.0001 15.6372 28.0001 15.6323C28.0001 15.6274 28.0001 15.6226 28.0001 15.6177C28.0001 15.6129 28.0001 15.608 28.0001 15.6031C28.0001 15.5983 28.0001 15.5934 28.0001 15.5886C28.0001 15.5837 28.0001 15.5789 28.0001 15.574C28.0001 15.5691 28.0001 15.5643 28.0001 15.5594C28.0001 15.5546 28.0001 15.5497 28.0001 15.5449C28.0001 15.54 28.0001 15.5351 28.0001 15.5303C28.0001 15.5254 28.0001 15.5206 28.0001 15.5157C28.0001 15.5109 28.0001 15.506 28.0001 15.5011C28.0001 15.4963 28.0001 15.4914 28.0001 15.4866C28.0001 15.4817 28.0001 15.4769 28.0001 15.472C28.0001 15.4672 28.0001 15.4623 28.0001 15.4574C28.0001 15.4526 28.0001 15.4477 28.0001 15.4429C28.0001 15.438 28.0001 15.4332 28.0001 15.4283C28.0001 15.4235 28.0001 15.4186 28.0001 15.4138C28.0001 15.4089 28.0001 15.4041 28.0001 15.3992C28.0001 15.3944 28.0001 15.3895 28.0001 15.3847C28.0001 15.3798 28.0001 15.375 28.0001 15.3701C28.0001 15.3653 28.0001 15.3604 28.0001 15.3556C28.0001 15.3507 28.0001 15.3459 28.0001 15.341C28.0001 15.3362 28.0001 15.3313 28.0001 15.3265C28.0001 15.3216 28.0001 15.3168 28.0001 15.3119C28.0001 15.3071 28.0001 15.3022 28.0001 15.2974C28.0001 15.2925 28.0001 15.2877 28.0001 15.2828C28.0001 15.278 28.0001 15.2731 28.0001 15.2683C28.0001 15.2635 28.0001 15.2586 28.0001 15.2538C28.0001 15.2489 28.0001 15.2441 28.0001 15.2392C28.0001 15.2344 28.0001 15.2295 28.0001 15.2247C28.0001 15.2199 28.0001 15.215 28.0001 15.2102C28.0001 15.2053 28.0001 15.2005 28.0001 15.1957C28.0001 15.1908 28.0001 15.186 28.0001 15.1811C28.0001 15.1763 28.0001 15.1715 28.0001 15.1666C28.0001 15.1618 28.0001 15.1569 28.0001 15.1521C28.0001 15.1473 28.0001 15.1424 28.0001 15.1376C28.0001 15.1328 28.0001 15.1279 28.0001 15.1231C28.0001 15.1183 28.0001 15.1134 28.0001 15.1086C28.0001 15.1038 28.0001 15.0989 28.0001 15.0941C28.0001 15.0893 28.0001 15.0844 28.0001 15.0796C28.0001 15.0748 28.0001 15.0699 28.0001 15.0651C28.0001 15.0603 28.0001 15.0554 28.0001 15.0506C28.0001 15.0458 28.0001 15.0409 28.0001 15.0361C28.0001 15.0313 28.0001 15.0265 28.0001 15.0216C28.0001 15.0168 28.0001 15.012 28.0001 15.0072C28.0001 15.0023 28.0001 14.9975 28.0001 14.9927C28.0001 14.9879 28.0001 14.983 28.0001 14.9782C28.0001 14.9734 28.0001 14.9686 28.0001 14.9637C28.0001 14.9589 28.0001 14.9541 28.0001 14.9493C28.0001 14.9445 28.0001 14.9396 28.0001 14.9348C28.0001 14.93 28.0001 14.9252 28.0001 14.9204C28.0001 14.9156 28.0001 14.9107 28.0001 14.9059C28.0001 14.9011 28.0001 14.8963 28.0001 14.8915C28.0001 14.8867 28.0001 14.8818 28.0001 14.877C28.0001 14.8722 28.0001 14.8674 28.0001 14.8626C28.0001 14.8578 28.0001 14.853 28.0001 14.8482C28.0001 14.8434 28.0001 14.8385 28.0001 14.8337C28.0001 14.8289 28.0001 14.8241 28.0001 14.8193C28.0001 14.8145 28.0001 14.8097 28.0001 14.8049C28.0001 14.8001 28.0001 14.7953 28.0001 14.7905C28.0001 14.7857 28.0001 14.7809 28.0001 14.7761C28.0001 14.7713 28.0001 14.7665 28.0001 14.7617C28.0001 14.7569 28.0001 14.7521 28.0001 14.7473C28.0001 14.7425 28.0001 14.7377 28.0001 14.7329C28.0001 14.7281 28.0001 14.7233 28.0001 14.7185C28.0001 14.7137 28.0001 14.7089 28.0001 14.7041C28.0001 14.6993 28.0001 14.6945 28.0001 14.6897C28.0001 14.6849 28.0001 14.6801 28.0001 14.6753C28.0001 14.6706 28.0001 14.6658 28.0001 14.661C28.0001 14.6562 28.0001 14.6514 28.0001 14.6466C28.0001 14.6418 28.0001 14.637 28.0001 14.6323C28.0001 14.6275 28.0001 14.6227 28.0001 14.6179C28.0001 14.6131 28.0001 14.6083 28.0001 14.6036C28.0001 14.5988 28.0001 14.594 28.0001 14.5892C28.0001 14.5844 28.0001 14.5797 28.0001 14.5749C28.0001 14.5701 28.0001 14.5653 28.0001 14.5606C28.0001 14.5558 28.0001 14.551 28.0001 14.5462C28.0001 14.5415 28.0001 14.5367 28.0001 14.5319C28.0001 14.5272 28.0001 14.5224 28.0001 14.5176C28.0001 14.5129 28.0001 14.5081 28.0001 14.5033C28.0001 14.4986 28.0001 14.4938 28.0001 14.489C28.0001 14.4843 28.0001 14.4795 28.0001 14.4747C28.0001 14.47 28.0001 14.4652 28.0001 14.4604C28.0001 14.4557 28.0001 14.4509 28.0001 14.4462C28.0001 14.4414 28.0001 14.4367 28.0001 14.4319C28.0001 14.4271 28.0001 14.4224 28.0001 14.4176C28.0001 14.4129 28.0001 14.4081 28.0001 14.4034C28.0001 14.3986 28.0001 14.3939 28.0001 14.3891C28.0001 14.3844 28.0001 14.3796 28.0001 14.3749C28.0001 14.3701 28.0001 14.3654 28.0001 14.3606C28.0001 14.3559 28.0001 14.3512 28.0001 14.3464C28.0001 14.3417 28.0001 14.3369 28.0001 14.3322C28.0001 14.3274 28.0001 14.3227 28.0001 14.318C28.0001 14.3132 28.0001 14.3085 28.0001 14.3038C28.0001 14.299 28.0001 14.2943 28.0001 14.2896C28.0001 14.2848 28.0001 14.2801 28.0001 14.2754C28.0001 14.2706 28.0001 14.2659 28.0001 14.2612C28.0001 14.2565 28.0001 14.2517 28.0001 14.247C28.0001 14.2423 28.0001 14.2375 28.0001 14.2328C28.0001 14.2281 28.0001 14.2234 28.0001 14.2187C28.0001 14.2139 28.0001 14.2092 28.0001 14.2045C28.0001 14.1998 28.0001 14.1951 28.0001 14.1904C28.0001 14.1856 28.0001 14.1809 28.0001 14.1762C28.0001 14.1715 28.0001 14.1668 28.0001 14.1621C28.0001 14.1574 28.0001 14.1527 28.0001 14.148C28.0001 14.1432 28.0001 14.1385 28.0001 14.1338C28.0001 14.1291 28.0001 14.1244 28.0001 14.1197C28.0001 14.115 28.0001 14.1103 28.0001 14.1056C28.0001 14.1009 28.0001 14.0962 28.0001 14.0915C28.0001 14.0868 28.0001 14.0821 28.0001 14.0774C28.0001 14.0728 28.0001 14.0681 28.0001 14.0634C28.0001 14.0587 28.0001 14.054 28.0001 14.0493C28.0001 14.0446 28.0001 14.0399 28.0001 14.0352C28.0001 14.0306 28.0001 14.0259 28.0001 14.0212C28.0001 14.0165 28.0001 14.0118 28.0001 14.0071C28.0001 14.0025 28.0001 13.9978 28.0001 13.9931C28.0001 13.9884 28.0001 13.9838 28.0001 13.9791C28.0001 13.9744 28.0001 13.9697 28.0001 13.9651C28.0001 13.9604 28.0001 13.9557 28.0001 13.9511C28.0001 13.9464 28.0001 13.9417 28.0001 13.9371C28.0001 13.9324 28.0001 13.9277 28.0001 13.9231C28.0001 13.9184 28.0001 13.9138 28.0001 13.9091C28.0001 13.9044 28.0001 13.8998 28.0001 13.8951C28.0001 13.8905 28.0001 13.8858 28.0001 13.8812C28.0001 13.8765 28.0001 13.8719 28.0001 13.8672C28.0001 13.8626 28.0001 13.8579 28.0001 13.8533C28.0001 13.8486 28.0001 13.844 28.0001 13.8393C28.0001 13.8347 28.0001 13.83 28.0001 13.8254C28.0001 13.8208 28.0001 13.8161 28.0001 13.8115C28.0001 13.8069 28.0001 13.8022 28.0001 13.7976C28.0001 13.793 28.0001 13.7883 28.0001 13.7837C28.0001 13.7791 28.0001 13.7744 28.0001 13.7698C28.0001 13.7652 28.0001 13.7606 28.0001 13.7559C28.0001 13.7513 28.0001 13.7467 28.0001 13.7421C28.0001 13.7374 28.0001 13.7328 28.0001 13.7282C28.0001 13.7236 28.0001 13.719 28.0001 13.7144C28.0001 13.7097 28.0001 13.7051 28.0001 13.7005C28.0001 13.6959 28.0001 13.6913 28.0001 13.6867C28.0001 13.6821 28.0001 13.6775 28.0001 13.6729C28.0001 13.6683 28.0001 13.6637 28.0001 13.6591C28.0001 13.6545 28.0001 13.6499 28.0001 13.6453C28.0001 13.6407 28.0001 13.6361 28.0001 13.6315C28.0001 13.6269 28.0001 13.6223 28.0001 13.6177C28.0001 13.6131 28.0001 13.6086 28.0001 13.604C28.0001 13.5994 28.0001 13.5948 28.0001 13.5902C28.0001 13.5856 28.0001 13.581 28.0001 13.5765C28.0001 13.5719 28.0001 13.5673 28.0001 13.5627C28.0001 13.5582 28.0001 13.5536 28.0001 13.549C28.0001 13.5444 28.0001 13.5399 28.0001 13.5353C28.0001 13.5307 28.0001 13.5262 28.0001 13.5216C28.0001 13.517 28.0001 13.5125 28.0001 13.5079C28.0001 13.5034 28.0001 13.4988 28.0001 13.4943C28.0001 13.4897 28.0001 13.4851 28.0001 13.4806C28.0001 13.476 28.0001 13.4715 28.0001 13.4669C28.0001 13.4624 28.0001 13.4578 28.0001 13.4533C28.0001 13.4487 28.0001 13.4442 28.0001 13.4397C28.0001 13.4351 28.0001 13.4306 28.0001 13.426C28.0001 13.4215 28.0001 13.417 28.0001 13.4124C28.0001 13.4079 28.0001 13.4034 28.0001 13.3988C28.0001 13.3943 28.0001 13.3898 28.0001 13.3853C28.0001 13.3807 28.0001 13.3762 28.0001 13.3717C28.0001 13.3672 28.0001 13.3626 28.0001 13.3581C28.0001 13.3536 28.0001 13.3491 28.0001 13.3446C28.0001 13.3401 28.0001 13.3356 28.0001 13.331C28.0001 13.3265 28.0001 13.322 28.0001 13.3175C28.0001 13.313 28.0001 13.3085 28.0001 13.304C28.0001 13.2995 28.0001 13.295 28.0001 13.2905C28.0001 13.286 28.0001 13.2815 28.0001 13.277C28.0001 13.2725 28.0001 13.268 28.0001 13.2635C28.0001 13.2591 28.0001 13.2546 28.0001 13.2501C28.0001 13.2456 28.0001 13.2411 28.0001 13.2366C28.0001 13.2321 28.0001 13.2277 28.0001 13.2232C28.0001 13.2187 28.0001 13.2142 28.0001 13.2098C28.0001 13.2053 28.0001 13.2008 28.0001 13.1964C28.0001 13.1919 28.0001 13.1874 28.0001 13.183C28.0001 13.1785 28.0001 13.174 28.0001 13.1696C28.0001 13.1651 28.0001 13.1607 28.0001 13.1562C28.0001 13.1517 28.0001 13.1473 28.0001 13.1428C28.0001 13.1384 28.0001 13.1339 28.0001 13.1295C28.0001 13.125 28.0001 13.1206 28.0001 13.1162C28.0001 13.1117 28.0001 13.1073 28.0001 13.1028C28.0001 13.0984 28.0001 13.094 28.0001 13.0895C28.0001 13.0851 28.0001 13.0807 28.0001 13.0762C28.0001 13.0718 28.0001 13.0674 28.0001 13.0629C28.0001 13.0585 28.0001 13.0541 28.0001 13.0497C28.0001 13.0453 28.0001 13.0408 28.0001 13.0364C28.0001 13.032 28.0001 13.0276 28.0001 13.0232C28.0001 13.0188 28.0001 13.0144 28.0001 13.01C28.0001 13.0055 28.0001 13.0011 28.0001 12.9967C28.0001 12.9923 28.0001 12.9879 28.0001 12.9835C28.0001 12.9791 28.0001 12.9747 28.0001 12.9704C28.0001 12.966 28.0001 12.9616 28.0001 12.9572C28.0001 12.9528 28.0001 12.9484 28.0001 12.944C28.0001 12.9396 28.0001 12.9353 28.0001 12.9309C28.0001 12.9265 28.0001 12.9221 28.0001 12.9178C28.0001 12.9134 28.0001 12.909 28.0001 12.9046C28.0001 12.9003 28.0001 12.8959 28.0001 12.8915C28.0001 12.8872 28.0001 12.8828 28.0001 12.8784C28.0001 12.8741 28.0001 12.8697 28.0001 12.8654C28.0001 12.861 28.0001 12.8567 28.0001 12.8523C28.0001 12.848 28.0001 12.8436 28.0001 12.8393C28.0001 12.8349 28.0001 12.8306 28.0001 12.8262C28.0001 12.8219 28.0001 12.8176 28.0001 12.8132C28.0001 12.8089 28.0001 12.8046 28.0001 12.8002C28.0001 12.7959 28.0001 12.7916 28.0001 12.7872C28.0001 12.7829 28.0001 12.7786 28.0001 12.7743C28.0001 12.77 28.0001 12.7656 28.0001 12.7613C28.0001 12.757 28.0001 12.7527 28.0001 12.7484C28.0001 12.7441 28.0001 12.7398 28.0001 12.7355C28.0001 12.7311 28.0001 12.7268 28.0001 12.7225C28.0001 12.7182 28.0001 12.7139 28.0001 12.7097C28.0001 12.7054 28.0001 12.7011 28.0001 12.6968C28.0001 12.6925 28.0001 12.6882 28.0001 12.6839C28.0001 12.6796 28.0001 12.6753 28.0001 12.6711C28.0001 12.6668 28.0001 12.6625 28.0001 12.6582C28.0001 12.654 28.0001 12.6497 28.0001 12.6454C28.0001 12.6411 28.0001 12.6369 28.0001 12.6326C28.0001 12.6283 28.0001 12.6241 28.0001 12.6198C28.0001 12.6156 28.0001 12.6113 28.0001 12.6071C28.0001 12.6028 28.0001 12.5985 28.0001 12.5943C28.0001 12.5901 28.0001 12.5858 28.0001 12.5816C28.0001 12.5773 28.0001 12.5731 28.0001 12.5688C28.0001 12.5646 28.0001 12.5604 28.0001 12.5561C28.0001 12.5519 28.0001 12.5477 28.0001 12.5434C28.0001 12.5392 28.0001 12.535 28.0001 12.5308C28.0001 12.5266 28.0001 12.5223 28.0001 12.5181C28.0001 12.5139 28.0001 12.5097 28.0001 12.5055C28.0001 12.5013 28.0001 12.4971 28.0001 12.4928C28.0001 12.4886 28.0001 12.4844 28.0001 12.4802C28.0001 12.476 28.0001 12.4718 28.0001 12.4677C28.0001 12.4635 28.0001 12.4593 28.0001 12.4551C28.0001 12.4509 28.0001 12.4467 28.0001 12.4425C28.0001 12.4383 28.0001 12.4342 28.0001 12.43C28.0001 12.4258 28.0001 12.4216 28.0001 12.4175C28.0001 12.4133 28.0001 12.4091 28.0001 12.4049C28.0001 12.4008 28.0001 12.3966 28.0001 12.3925C28.0001 12.3883 28.0001 12.3841 28.0001 12.38C28.0001 12.3758 28.0001 12.3717 28.0001 12.3675C28.0001 12.3634 28.0001 12.3592 28.0001 12.3551C28.0001 12.3509 28.0001 12.3468 28.0001 12.3427C28.0001 12.3385 28.0001 12.3344 28.0001 12.3303C28.0001 12.3261 28.0001 12.322 28.0001 12.3179C28.0001 12.3137 28.0001 12.3096 28.0001 12.3055C28.0001 12.3014 28.0001 12.2973 28.0001 12.2931C28.0001 12.289 28.0001 12.2849 28.0001 12.2808C28.0001 12.2767 28.0001 12.2726 28.0001 12.2685C28.0001 12.2644 28.0001 12.2603 28.0001 12.2562C28.0001 12.2521 28.0001 12.248 28.0001 12.2439C28.0001 12.2398 28.0001 12.2357 28.0001 12.2317C28.0001 12.2276 28.0001 12.2235 28.0001 12.2194C28.0001 12.2153 28.0001 12.2113 28.0001 12.2072C28.0001 12.2031 28.0001 12.199 28.0001 12.195C28.0001 12.1909 28.0001 12.1868 28.0001 12.1828C28.0001 12.1787 28.0001 12.1747 28.0001 12.1706C28.0001 12.1665 28.0001 12.1625 28.0001 12.1584C28.0001 12.1544 28.0001 12.1504 28.0001 12.1463C28.0001 12.1423 28.0001 12.1382 28.0001 12.1342C28.0001 12.1302 28.0001 12.1261 28.0001 12.1221C28.0001 12.1181 28.0001 12.114 28.0001 12.11C28.0001 12.106 28.0001 12.102 28.0001 12.098C28.0001 12.0939 28.0001 12.0899 28.0001 12.0859C28.0001 12.0819 28.0001 12.0779 28.0001 12.0739C28.0001 12.0699 28.0001 12.0659 28.0001 12.0619C28.0001 12.0579 28.0001 12.0539 28.0001 12.0499C28.0001 12.0459 28.0001 12.0419 28.0001 12.0379C28.0001 12.0339 28.0001 12.03 28.0001 12.026C28.0001 12.022 28.0001 12.018 28.0001 12.014C28.0001 12.0101 28.0001 12.0061 28.0001 12.0021C28.0001 11.9982 28.0001 11.9942 28.0001 11.9902C28.0001 11.9863 28.0001 11.9823 28.0001 11.9784C28.0001 11.9744 28.0001 11.9705 28.0001 11.9665C28.0001 11.9626 28.0001 11.9586 28.0001 11.9547C28.0001 11.9507 28.0001 11.9468 28.0001 11.9429C28.0001 11.9389 28.0001 11.935 28.0001 11.9311C28.0001 11.9271 28.0001 11.9232 28.0001 11.9193C28.0001 11.9154 28.0001 11.9115 28.0001 11.9075C28.0001 11.9036 28.0001 11.8997 28.0001 11.8958C28.0001 11.8919 28.0001 11.888 28.0001 11.8841C28.0001 11.8802 28.0001 11.8763 28.0001 11.8724C28.0001 11.8685 28.0001 11.8646 28.0001 11.8607C28.0001 11.8568 28.0001 11.8529 28.0001 11.8491C28.0001 11.8452 28.0001 11.8413 28.0001 11.8374C28.0001 11.8336 28.0001 11.8297 28.0001 11.8258C28.0001 11.8219 28.0001 11.8181 28.0001 11.8142C28.0001 11.8104 28.0001 11.8065 28.0001 11.8026C28.0001 11.7988 28.0001 11.7949 28.0001 11.7911C28.0001 11.7872 28.0001 11.7834 28.0001 11.7796C28.0001 11.7757 28.0001 11.7719 28.0001 11.768C28.0001 11.7642 28.0001 11.7604 28.0001 11.7566C28.0001 11.7527 28.0001 11.7489 28.0001 11.7451C28.0001 11.7413 28.0001 11.7374 28.0001 11.7336C28.0001 11.7298 28.0001 11.726 28.0001 11.7222C28.0001 11.7184 28.0001 11.7146 28.0001 11.7108C28.0001 11.707 28.0001 11.7032 28.0001 11.6994C28.0001 11.6956 28.0001 11.6918 28.0001 11.688C28.0001 11.6843 28.0001 11.6805 28.0001 11.6767C28.0001 11.6729 28.0001 11.6691 28.0001 11.6654C28.0001 11.6616 28.0001 11.6578 28.0001 11.6541C28.0001 11.6503 28.0001 11.6465 28.0001 11.6428C28.0001 11.639 28.0001 11.6353 28.0001 11.6315C28.0001 11.6278 28.0001 11.624 28.0001 11.6203C28.0001 11.6165 28.0001 11.6128 28.0001 11.6091C28.0001 11.6053 28.0001 11.6016 28.0001 11.5979C28.0001 11.5941 28.0001 11.5904 28.0001 11.5867C28.0001 11.583 28.0001 11.5793 28.0001 11.5755C28.0001 11.5718 28.0001 11.5681 28.0001 11.5644C28.0001 11.5607 28.0001 11.557 28.0001 11.5533C28.0001 11.5496 28.0001 11.5459 28.0001 11.5422C28.0001 11.5385 28.0001 11.5348 28.0001 11.5312C28.0001 11.5275 28.0001 11.5238 28.0001 11.5201C28.0001 11.5164 28.0001 11.5128 28.0001 11.5091C28.0001 11.5054 28.0001 11.5018 28.0001 11.4981H26.0001ZM15.2106 4.19388C15.6068 6.08607 16.5849 7.6043 18.2595 8.66827C19.892 9.70549 22.1138 10.2653 24.9375 10.4398L25.0608 8.4436C22.3983 8.27906 20.5603 7.76054 19.332 6.98017C18.1459 6.22655 17.4621 5.18791 17.1681 3.78396L15.2106 4.19388ZM28.0001 11.4981C28.0001 9.82206 26.6465 8.54159 25.0608 8.4436L24.9375 10.4398C25.5568 10.4781 26.0001 10.965 26.0001 11.4981H28.0001ZM14.0739 3.06584C14.5029 3.03444 15.0468 3.41167 15.2106 4.19388L17.1681 3.78396C16.8792 2.40393 15.7021 0.94133 13.9279 1.07118L14.0739 3.06584Z" fill="currentColor" mask="url(#path-1-inside-1_2_62418)"/><path d="M10 4C10 3.72386 9.77614 3.5 9.5 3.5C9.22386 3.5 9 3.72386 9 4H10ZM9 8.5C9 8.77614 9.22386 9 9.5 9C9.77614 9 10 8.77614 10 8.5H9ZM12.5 3C12.5 2.72386 12.2761 2.5 12 2.5C11.7239 2.5 11.5 2.72386 11.5 3H12.5ZM11.5 6.5C11.5 6.77614 11.7239 7 12 7C12.2761 7 12.5 6.77614 12.5 6.5H11.5ZM9 4V8.5H10V4H9ZM11.5 3V6.5H12.5V3H11.5Z" fill="currentColor"/><path d="M15.5 3C15.2239 3 15 3.22386 15 3.5C15 3.77614 15.2239 4 15.5 4L15.5 3ZM15.5 4H19V3H15.5L15.5 4ZM19 4C22.3137 4 25 6.68629 25 10H26C26 6.13401 22.866 3 19 3V4Z" fill="currentColor"/><path d="M26.5 19C26.2239 19 26 19.2239 26 19.5C26 19.7761 26.2239 20 26.5 20V19ZM26.5 14H27.5V13H26.5V14ZM29 15.5V17.5H30V15.5H29ZM27.5 19H26.5V20H27.5V19ZM29 17.5C29 18.3284 28.3284 19 27.5 19V20C28.8807 20 30 18.8807 30 17.5H29ZM27.5 14C28.3284 14 29 14.6716 29 15.5H30C30 14.1193 28.8807 13 27.5 13V14Z" fill="currentColor"/><path d="M5.5 19C5.77614 19 6 19.2239 6 19.5C6 19.7761 5.77614 20 5.5 20V19ZM5.5 14H4.5V13H5.5V14ZM3 15.5V17.5H2V15.5H3ZM4.5 19H5.5V20H4.5V19ZM3 17.5C3 18.3284 3.67157 19 4.5 19V20C3.11929 20 2 18.8807 2 17.5H3ZM4.5 14C3.67157 14 3 14.6716 3 15.5H2C2 14.1193 3.11929 13 4.5 13V14Z" fill="currentColor"/><mask id="path-7-inside-2_2_62418" fill="currentColor"><path d="M10 23C10 21.8954 10.8954 21 12 21H20C21.1046 21 22 21.8954 22 23V25C22 25.5523 21.5523 26 21 26H11C10.4477 26 10 25.5523 10 25V23Z"/></mask><path d="M12 22H20V20H12V22ZM21 23V25H23V23H21ZM21 25H11V27H21V25ZM11 25V23H9V25H11ZM11 25H11H9C9 26.1046 9.89543 27 11 27V25ZM21 25V27C22.1046 27 23 26.1046 23 25H21ZM20 22C20.5523 22 21 22.4477 21 23H23C23 21.3431 21.6569 20 20 20V22ZM12 20C10.3431 20 9 21.3431 9 23H11C11 22.4477 11.4477 22 12 22V20Z" fill="currentColor" mask="url(#path-7-inside-2_2_62418)"/><path d="M10.5 23.5H21.5" stroke="currentColor"/><path d="M12.5 22V25H13.5V22H12.5ZM18.5 22V25H19.5V22H18.5ZM15.5 22V25H16.5V22H15.5Z" fill="currentColor"/><mask id="path-11-inside-3_2_62418" fill="currentColor"><path d="M13 14.7493C13 15.9923 11.8807 17 10.5 17C9.11929 17 8 15.9923 8 14.7493C8 13.5063 9.11929 14.1846 10.5 14.1846C11.8807 14.1846 13 13.5063 13 14.7493Z"/><path d="M23 14.4995C23 15.8802 21.8807 16.9995 20.5 16.9995C19.1193 16.9995 18 15.8802 18 14.4995C18 13.1188 19.1193 13 20.5 13C21.8807 13 23 13.1188 23 14.4995Z"/></mask><path d="M12 14.7493C12 15.3438 11.4299 16 10.5 16V18C12.3316 18 14 16.6409 14 14.7493H12ZM10.5 16C9.57015 16 9 15.3438 9 14.7493H7C7 16.6409 8.66843 18 10.5 18V16ZM9 14.7493C9 14.5557 9.04764 14.7199 8.8567 14.8878C8.68639 15.0375 8.5385 14.9953 8.70087 15.0004C8.85212 15.0051 9.03769 15.0367 9.3808 15.0873C9.68883 15.1328 10.0778 15.1846 10.5 15.1846V13.1846C10.2318 13.1846 9.96313 13.1516 9.67297 13.1088C9.41789 13.0711 9.06476 13.0108 8.7636 13.0013C8.47356 12.9922 7.95954 13.0135 7.53623 13.3857C7.09227 13.7759 7 14.3215 7 14.7493H9ZM10.5 15.1846C10.9222 15.1846 11.3112 15.1328 11.6192 15.0873C11.9623 15.0367 12.1479 15.0051 12.2991 15.0004C12.4615 14.9953 12.3136 15.0375 12.1433 14.8878C11.9524 14.7199 12 14.5557 12 14.7493H14C14 14.3215 13.9077 13.7759 13.4638 13.3857C13.0405 13.0135 12.5264 12.9922 12.2364 13.0013C11.9352 13.0108 11.5821 13.0711 11.327 13.1088C11.0369 13.1516 10.7682 13.1846 10.5 13.1846V15.1846ZM22 14.4995C22 15.3279 21.3284 15.9995 20.5 15.9995V17.9995C22.433 17.9995 24 16.4325 24 14.4995H22ZM20.5 15.9995C19.6716 15.9995 19 15.3279 19 14.4995H17C17 16.4325 18.567 17.9995 20.5 17.9995V15.9995ZM19 14.4995C19 14.2882 19.0423 14.2162 19.0478 14.2073C19.0493 14.2048 19.0602 14.1807 19.1404 14.1449C19.3684 14.0429 19.7797 14 20.5 14V12C19.8396 12 19.0009 12.0165 18.3241 12.3191C17.9519 12.4855 17.5966 12.75 17.3451 13.1581C17.0976 13.5598 17 14.0204 17 14.4995H19ZM20.5 14C21.2203 14 21.6316 14.0429 21.8596 14.1449C21.9398 14.1807 21.9507 14.2048 21.9522 14.2073C21.9577 14.2162 22 14.2882 22 14.4995H24C24 14.0204 23.9024 13.5598 23.6549 13.1581C23.4034 12.75 23.0481 12.4855 22.6759 12.3191C21.9991 12.0165 21.1604 12 20.5 12V14Z" fill="currentColor" mask="url(#path-11-inside-3_2_62418)"/><path d="M20 16.5C20 16.2239 19.7761 16 19.5 16C19.2239 16 19 16.2239 19 16.5H20ZM19 19C19 19.2761 19.2239 19.5 19.5 19.5C19.7761 19.5 20 19.2761 20 19H19ZM22 16.5C22 16.2239 21.7761 16 21.5 16C21.2239 16 21 16.2239 21 16.5H22ZM21 20C21 20.2761 21.2239 20.5 21.5 20.5C21.7761 20.5 22 20.2761 22 20H21ZM19 16.5V19H20V16.5H19ZM21 16.5V20H22V16.5H21Z" fill="currentColor"/></svg>
