<svg xmlns="http://www.w3.org/2000/svg" fill="none" viewBox="0 0 16 16" width="1em" height="1em"><path stroke="currentColor" d="M13.5 9.5c0 1.553-.828 2.795-1.961 3.666C10.396 14.046 9 14.5 8 14.5c-.985 0-2.374-.505-3.52-1.475C3.343 12.065 2.5 10.695 2.5 9c0-1.449 0-2.634.073-3.613.073-.981.215-1.703.472-2.241.246-.517.606-.882 1.168-1.14.583-.27 1.399-.43 2.56-.485.228-.01.519.2.701.645.329.802.98 1.396 1.761 1.82.781.426 1.722.7 2.694.855.899.143 1.571.848 1.571 1.659z"/><path stroke="currentColor" d="M12.5 5a3 3 0 0 0-3-3h-2"/><path fill="currentColor" d="M14 7.75v1h1v-1zm0 1a.5.5 0 0 1-.5.5v1a1.5 1.5 0 0 0 1.5-1.5zm-.5-1.5a.5.5 0 0 1 .5.5h1a1.5 1.5 0 0 0-1.5-1.5zM2 7.75v1H1v-1zm0 1a.5.5 0 0 0 .5.5v1A1.5 1.5 0 0 1 1 8.75zm.5-1.5a.5.5 0 0 0-.5.5H1a1.5 1.5 0 0 1 1.5-1.5z"/><path stroke="currentColor" d="M5.5 11A1.5 1.5 0 0 1 7 9.5h2a1.5 1.5 0 0 1 1.5 1.5.5.5 0 0 1-.5.5H6a.5.5 0 0 1-.5-.5ZM11 7.125a.75.75 0 1 1-1.492-.092l.006-.002a1 1 0 0 1 .265-.03c.092-.004.183-.003.29-.002h.362c.107-.001.198-.002.29.001.137.004.217.016.265.031l.006.002a.5.5 0 0 1 .008.092Zm-.013-.11Zm-1.474 0Z"/><path stroke="currentColor" stroke-linecap="round" d="M4.5 7.5h2"/></svg>
