<svg viewBox="0 0 16 16" fill="none" xmlns="http://www.w3.org/2000/svg" width="1em" height="1em"><mask id="path-1-inside-1_2_62387" fill="currentColor"><path d="M14 9.5C14 13 10.25 15 8.00002 15C5.75003 15 2 12.75 2 9C2 3.22949 2.00001 1.24468 6.74993 1.02171C7.30161 0.99581 7.72765 1.46531 7.93689 1.97643C8.47977 3.30249 10.1374 4.04985 12.0078 4.34738C13.0986 4.52091 14 5.39537 14 6.49994C14 7.47705 14 8.62718 14 9.5Z"/></mask><path d="M14 6.49994L13 6.49994L14 6.49994ZM6.74993 1.02171L6.70304 0.0228074L6.74993 1.02171ZM13 9.5C13 10.8562 12.2813 11.9643 11.234 12.7699C10.1671 13.5906 8.87715 14 8.00002 14V16C9.37287 16 11.0829 15.4094 12.4535 14.3551C13.8437 13.2857 15 11.6438 15 9.5H13ZM8.00002 14C7.15551 14 5.87707 13.5524 4.8022 12.6429C3.75107 11.7534 3 10.5137 3 9H1C1 11.2363 2.12394 12.9966 3.51032 14.1696C4.87297 15.3226 6.59454 16 8.00002 16V14ZM3 9C3 7.54457 3.0006 6.38027 3.07148 5.42425C3.14281 4.4622 3.28013 3.81452 3.49641 3.36087C3.69234 2.9499 3.9659 2.66933 4.42216 2.45922C4.9192 2.23033 5.66063 2.07394 6.79682 2.02061L6.70304 0.0228074C5.46427 0.0809588 4.42448 0.256284 3.5856 0.642587C2.70595 1.04767 2.08889 1.66576 1.69108 2.50018C1.31362 3.29192 1.15407 4.23635 1.07696 5.27637C0.9994 6.32244 1 7.57018 1 9H3ZM13 6.49994C13 7.47705 13 8.62718 13 9.5H15C15 8.62719 15 7.47705 15 6.49994L13 6.49994ZM7.01144 2.3553C7.39707 3.29724 8.15116 3.96579 8.99642 4.42591C9.84196 4.88618 10.8418 5.17448 11.8507 5.33496L12.1649 3.3598C11.3034 3.22275 10.5392 2.98861 9.95263 2.6693C9.36576 2.34984 9.0196 1.98167 8.86234 1.59755L7.01144 2.3553ZM15 6.49994C15 4.80826 13.6405 3.59454 12.1649 3.3598L11.8507 5.33496C12.5567 5.44728 13 5.98248 13 6.49994L15 6.49994ZM6.79682 2.02061C6.75497 2.02257 6.75483 1.99864 6.80994 2.0473C6.87296 2.10294 6.9519 2.20985 7.01144 2.3553L8.86234 1.59755C8.59924 0.954903 7.90216 -0.033483 6.70304 0.0228074L6.79682 2.02061Z" fill="currentColor" mask="url(#path-1-inside-1_2_62387)"/><path d="M12.5 5C12.5 3.34315 11.1569 2 9.5 2H7.5" stroke="currentColor"/><path d="M14 7.75023V8.75026H15V7.75023H14ZM14 8.75026C14 9.02639 13.7761 9.25024 13.5 9.25024V10.2502C14.3284 10.2502 15 9.57868 15 8.75026H14ZM13.5 7.25024C13.7761 7.25024 14 7.47409 14 7.75023H15C15 6.92181 14.3284 6.25024 13.5 6.25024V7.25024Z" fill="currentColor"/><path d="M2.00002 7.75023V8.75026H1.00002V7.75023H2.00002ZM2.00002 8.75026C2.00002 9.02639 2.22387 9.25024 2.5 9.25024V10.2502C1.67158 10.2502 1.00002 9.57868 1.00002 8.75026H2.00002ZM2.5 7.25024C2.22387 7.25024 2.00002 7.47409 2.00002 7.75023H1.00002C1.00002 6.92181 1.67158 6.25024 2.5 6.25024V7.25024Z" fill="currentColor"/><mask id="path-6-inside-2_2_62387" fill="currentColor"><path d="M5 10.9998C5 9.89519 5.89543 8.99976 7 8.99976H9C10.1046 8.99976 11 9.89519 11 10.9998C11 11.552 10.5523 11.9998 10 11.9998H6C5.44772 11.9998 5 11.552 5 10.9998Z"/></mask><path d="M7 9.99976H9V7.99976H7V9.99976ZM10 10.9998H6V12.9998H10V10.9998ZM6 10.9998H6H4C4 12.1043 4.89543 12.9998 6 12.9998V10.9998ZM10 10.9998V12.9998C11.1046 12.9998 12 12.1043 12 10.9998H10ZM9 9.99976C9.55228 9.99976 10 10.4475 10 10.9998H12C12 9.3429 10.6569 7.99976 9 7.99976V9.99976ZM7 7.99976C5.34315 7.99976 4 9.3429 4 10.9998H6C6 10.4475 6.44772 9.99976 7 9.99976V7.99976Z" fill="currentColor" mask="url(#path-6-inside-2_2_62387)"/><path d="M11 7.12536C11 7.53958 10.6642 7.87536 10.25 7.87536C9.83579 7.87536 9.5 7.53958 9.5 7.12536C9.5 7.07943 9.50398 7.05037 9.50755 7.0336C9.50949 7.03294 9.51161 7.03226 9.51393 7.03154C9.56169 7.01676 9.6424 7.00481 9.77907 7.00054C9.8706 6.99768 9.96244 6.99841 10.0685 6.99926C10.1244 6.9997 10.1842 7.00018 10.25 7.00018C10.3158 7.00018 10.3756 6.9997 10.4315 6.99926C10.5376 6.99841 10.6294 6.99768 10.7209 7.00054C10.8576 7.00481 10.9383 7.01676 10.9861 7.03154C10.9884 7.03226 10.9905 7.03294 10.9925 7.0336C10.996 7.05037 11 7.07943 11 7.12536ZM10.9869 7.01459C10.9869 7.01458 10.9871 7.01489 10.9874 7.01556L10.9869 7.01459ZM9.51263 7.01556C9.51291 7.01489 9.51307 7.01458 9.51308 7.01459C9.51309 7.0146 9.51295 7.01494 9.51263 7.01556Z" stroke="currentColor"/><path d="M4.5 7C4.22386 7 4 7.22386 4 7.5C4 7.77614 4.22386 8 4.5 8V7ZM6.5 8C6.77614 8 7 7.77614 7 7.5C7 7.22386 6.77614 7 6.5 7V8ZM4.5 8H6.5V7H4.5V8Z" fill="currentColor"/></svg>
