<svg xmlns="http://www.w3.org/2000/svg" fill="none" viewBox="0 0 32 32" width="1em" height="1em"><mask id="iconsCoachingSize16Px__a" fill="#fff"><path fill-rule="evenodd" d="M19.613 18.84c-.939.165-1.59.992-1.919 1.886A5.002 5.002 0 0 1 8 19a5 5 0 0 1 5-5h8a1 1 0 0 1 1 1v2.581a1 1 0 0 1-.827.985z" clip-rule="evenodd"/></mask><path fill="currentColor" d="M21.173 18.566 21 17.581zm-1.56.274-.173-.985zm-2.857 1.541A4 4 0 0 1 13 23v2a6 6 0 0 0 5.633-3.928zM13 23a4 4 0 0 1-4-4H7a6 6 0 0 0 6 6zm-4-4a4 4 0 0 1 4-4v-2a6 6 0 0 0-6 6zm4-4h8v-2h-8zm8 0h2a2 2 0 0 0-2-2zm0 0v2.581h2V15zm0 2.581.346 1.97A2 2 0 0 0 23 17.581zm0 0-1.56.274.346 1.97 1.56-.274zm-2.367 3.49c.274-.745.723-1.17 1.153-1.246l-.346-1.97c-1.448.254-2.3 1.482-2.684 2.526z" mask="url(#iconsCoachingSize16Px__a)"/><circle cx="13" cy="19" r="2.5" stroke="currentColor"/><circle cx="9.5" cy="14.5" r="1" stroke="currentColor"/><path stroke="currentColor" stroke-linecap="round" d="M16.5 15.088V16.5m3-2V18"/></svg>
