<svg xmlns="http://www.w3.org/2000/svg" fill="none" viewBox="0 0 32 32" width="1em" height="1em"><path stroke="currentColor" d="M6.5 11a1.5 1.5 0 1 1-3 0 1.5 1.5 0 0 1 3 0Z"/><circle cx="11" cy="19" r="5.5" stroke="currentColor"/><circle cx="11" cy="19" r="3.5" stroke="currentColor"/><path stroke="currentColor" stroke-linecap="round" d="M16.5 10.5v3m8-3v7"/><mask id="iconsCoachingSize32Px__a" fill="#fff"><path fill-rule="evenodd" d="M21.567 19.2c-.923.158-1.59.942-1.802 1.854A9 9 0 1 1 11 10h16a1 1 0 0 1 1 1v6.261a1 1 0 0 1-.832.986l-5.6.954Z" clip-rule="evenodd"/></mask><path fill="currentColor" d="M27.168 18.247 27 17.261l.168.986Zm-7.403 2.807.973.228-.973-.228Zm1.802-1.853.168.985-.168-.985Zm-2.776 1.626A8.004 8.004 0 0 1 11 27v2c4.739 0 8.706-3.295 9.738-7.718l-1.947-.455ZM11 27a8 8 0 0 1-8-8H1c0 5.523 4.477 10 10 10v-2Zm-8-8a8 8 0 0 1 8-8V9C5.477 9 1 13.477 1 19h2Zm8-8h16V9H11v2Zm16 0h2a2 2 0 0 0-2-2v2Zm0 0v6.261h2V11h-2Zm0 6.261.336 1.972A2 2 0 0 0 29 17.26h-2Zm0 0-5.6.954.335 1.971 5.6-.953L27 17.26Zm-6.262 4.02c.146-.623.566-1.021.997-1.095l-.335-1.971c-1.416.24-2.33 1.412-2.61 2.612l1.948.455Z" mask="url(#iconsCoachingSize32Px__a)"/><path stroke="currentColor" stroke-linecap="round" d="M16.5 2.5v5m-3.46 0L10 4.46m9.505 3.04 3.04-3.04"/></svg>
