<svg xmlns="http://www.w3.org/2000/svg" fill="none" viewBox="0 0 24 24" width="1em" height="1em"><path stroke="currentColor" d="M4.5 8.5a1 1 0 1 1-2 0 1 1 0 0 1 2 0Z"/><circle cx="9" cy="14" r="3.5" stroke="currentColor"/><path stroke="currentColor" stroke-linecap="round" d="M14.5 7.5v2m5-2v5"/><mask id="iconsCoachingSize24Px__a" fill="#fff"><path fill-rule="evenodd" d="M17.325 14.191c-.809.225-1.365.94-1.597 1.748A7 7 0 1 1 9 7l12 .001a1 1 0 0 1 1 1v4.134a1 1 0 0 1-.733.964l-3.942 1.093Z" clip-rule="evenodd"/></mask><path fill="currentColor" d="m21.267 13.098.268.964-.268-.964Zm-3.942 1.093-.267-.964.267.964Zm-2.558 1.472A6.003 6.003 0 0 1 9 20v2a8.003 8.003 0 0 0 7.689-5.784l-1.922-.553ZM9 20a6 6 0 0 1-6-6H1a8 8 0 0 0 8 8v-2Zm-6-6a6 6 0 0 1 6-6V6a8 8 0 0 0-8 8h2Zm6-6h12V6H9v2Zm12 0h2a2 2 0 0 0-2-2v2Zm0 0v4.134h2V8h-2Zm0 4.134.535 1.928A2 2 0 0 0 23 12.134h-2Zm0 0-3.942 1.093.535 1.928 3.942-1.093L21 12.134Zm-4.311 4.082c.169-.586.528-.957.904-1.061l-.535-1.928c-1.243.345-1.995 1.407-2.291 2.436l1.922.553Z" mask="url(#iconsCoachingSize24Px__a)"/><path stroke="currentColor" stroke-linecap="round" d="M12 2.5v3m-4.5-2 2 2m7-2-2 2"/></svg>
