<svg viewBox="0 0 24 24" fill="none" xmlns="http://www.w3.org/2000/svg" width="1em" height="1em"><path d="M4.5 8.5C4.5 9.05228 4.05228 9.5 3.5 9.5C2.94772 9.5 2.5 9.05228 2.5 8.5C2.5 7.94772 2.94772 7.5 3.5 7.5C4.05228 7.5 4.5 7.94772 4.5 8.5Z" stroke="currentColor"/><circle cx="9" cy="14" r="3.5" stroke="currentColor"/><line x1="14.5" y1="7.5" x2="14.5" y2="9.5" stroke="currentColor" stroke-linecap="round"/><line x1="19.5" y1="7.5" x2="19.5" y2="12.5" stroke="currentColor" stroke-linecap="round"/><mask id="path-5-inside-1_1748_8587" fill="currentColor"><path fill-rule="evenodd" clip-rule="evenodd" d="M17.3254 14.1911C16.516 14.4156 15.9602 15.1319 15.7279 15.9391C14.8871 18.8618 12.1932 21 9 21C5.13401 21 2 17.866 2 14C2 10.134 5.13401 7 9 7L21 7C21.5523 7 22 7.44772 22 8V12.1343C22 12.5837 21.7003 12.9779 21.2672 13.098L17.3254 14.1911Z"/></mask><path d="M21.2672 13.098L21.5345 14.0616L21.5345 14.0616L21.2672 13.098ZM17.3254 14.1911L17.0581 13.2275L17.3254 14.1911ZM14.7669 15.6626C14.046 18.1684 11.7356 20 9 20L9 22C12.6509 22 15.7282 19.5553 16.689 16.2156L14.7669 15.6626ZM9 20C5.68629 20 3 17.3137 3 14H1C1 18.4183 4.58172 22 9 22L9 20ZM3 14C3 10.6863 5.68629 8 9 8V6C4.58172 6 1 9.58172 1 14H3ZM9 8L21 8V6L9 6V8ZM21 8H23C23 6.89543 22.1046 6 21 6V8ZM21 8V12.1343H23V8H21ZM21 12.1343V12.1343L21.5345 14.0616C22.4005 13.8214 23 13.033 23 12.1343H21ZM21 12.1343L17.0581 13.2275L17.5926 15.1548L21.5345 14.0616L21 12.1343ZM16.689 16.2156C16.8575 15.6299 17.2173 15.2588 17.5926 15.1548L17.0581 13.2275C15.8146 13.5724 15.0629 14.6338 14.7669 15.6626L16.689 16.2156Z" fill="currentColor" mask="url(#path-5-inside-1_1748_8587)"/><path d="M12.0001 2.5V5.5" stroke="currentColor" stroke-linecap="round"/><path d="M7.5 3.50001L9.5 5.5" stroke="currentColor" stroke-linecap="round"/><path d="M16.5 3.50001L14.5 5.5" stroke="currentColor" stroke-linecap="round"/></svg>
