<svg xmlns="http://www.w3.org/2000/svg" fill="none" viewBox="0 0 16 16" width="1em" height="1em"><circle cx="5.5" cy="14.5" r=".5" stroke="currentColor"/><circle cx="11.5" cy="14.5" r=".5" stroke="currentColor"/><path fill="currentColor" d="M2 3a.5.5 0 0 0 0 1zm2 .5.495-.07A.5.5 0 0 0 4 3zm1 7v.5zM4.5 5a.5.5 0 0 0 0 1zm9.26 1.696-.49-.098zm-.6 3 .491.098zm-.98.804V10zm.177 2.5a.5.5 0 1 0 0-1zM2 4h2V3H2zm1.505-.43 1 7 .99-.14-1-7zM4.5 6h8.28V5H4.5zm8.77.598-.6 3 .981.196.6-3zM12.18 10H5v1h7.18zM5 13h7.357v-1H5zm-1.5-1.5A1.5 1.5 0 0 0 5 13v-1a.5.5 0 0 1-.5-.5zM5 10a1.5 1.5 0 0 0-1.5 1.5h1A.5.5 0 0 1 5 11zm7.67-.402a.5.5 0 0 1-.49.402v1a1.5 1.5 0 0 0 1.471-1.206zM12.78 6a.5.5 0 0 1 .49.598l.981.196A1.5 1.5 0 0 0 12.781 5z"/><path stroke="currentColor" stroke-linecap="round" d="M7.5 2.5h2m-1-1v2"/></svg>
