<svg viewBox="0 0 32 32" fill="none" xmlns="http://www.w3.org/2000/svg" stroke="currentColor"><circle cx="11" cy="28" r="1.5"/><circle cx="24" cy="28" r="1.5"/><path d="M7.5 10C7.22386 10 7 10.2239 7 10.5C7 10.7761 7.22386 11 7.5 11V10ZM26.5 25C26.7761 25 27 24.7761 27 24.5C27 24.2239 26.7761 24 26.5 24V25ZM7.5 11H28.2472V10H7.5V11ZM28.7348 11.6108L26.8662 19.8324L27.8414 20.0541L29.7099 11.8324L28.7348 11.6108ZM25.4035 21H10V22H25.4035V21ZM10 25H26.5V24H10V25ZM8 23C8 24.1046 8.89543 25 10 25V24C9.44772 24 9 23.5523 9 23H8ZM10 21C8.89543 21 8 21.8954 8 23H9C9 22.4477 9.44772 22 10 22V21ZM26.8662 19.8324C26.711 20.5154 26.1039 21 25.4035 21V22C26.5708 22 27.5827 21.1923 27.8414 20.0541L26.8662 19.8324ZM28.2472 11C28.5681 11 28.8059 11.2979 28.7348 11.6108L29.7099 11.8324C29.9233 10.8938 29.2098 10 28.2472 10V11Z" fill="#282829"/><path d="M4 8H6.5L9.5 21.5" stroke-linecap="round" stroke-linejoin="round"/><path d="M15 5H20M17.5 7.5V2.5" stroke-linecap="round"/></svg>