<svg xmlns="http://www.w3.org/2000/svg" fill="none" viewBox="0 0 32 32" width="1em" height="1em"><path stroke="currentColor" stroke-linecap="round" d="M23.5 9.5v-3a2 2 0 0 0-2-2h-15a2 2 0 0 0-2 2v19a2 2 0 0 0 2 2h15a2 2 0 0 0 2-2v-2"/><circle cx="23" cy="16" r="3.5" stroke="currentColor"/><path stroke="currentColor" stroke-linecap="round" stroke-linejoin="round" d="M28.326 21.33 25.5 18.5m-18-6v11h12"/><path stroke="currentColor" d="m7.5 23.5 4-8.5 3.5 6 2-4m-5-3a.5.5 0 1 1-1 0 .5.5 0 0 1 1 0Z"/><circle cx="15" cy="21" r=".5" stroke="currentColor"/><path stroke="currentColor" d="M17.5 17a.5.5 0 1 1-1 0 .5.5 0 0 1 1 0Z"/><rect width="13" height="2" x="7.5" y="7.5" stroke="currentColor" rx="1"/></svg>
