<svg xmlns="http://www.w3.org/2000/svg" fill="none" viewBox="0 0 24 24" width="1em" height="1em"><path stroke="currentColor" stroke-linecap="round" d="M19.5 6.5v-2a2 2 0 0 0-2-2h-11a2 2 0 0 0-2 2v15a2 2 0 0 0 2 2h11a2 2 0 0 0 2-2v-3"/><path stroke="currentColor" stroke-linejoin="round" d="m7.5 18.5 4-7 3 4L17 13"/><path stroke="currentColor" d="M12.5 11.5a1 1 0 1 1-2 0 1 1 0 0 1 2 0Zm3 4a1 1 0 1 1-2 0 1 1 0 0 1 2 0Z"/><path stroke="currentColor" stroke-linecap="round" stroke-linejoin="round" d="M7.5 9.5v9h10"/><circle cx="18.5" cy="11.5" r="2" stroke="currentColor"/><path stroke="currentColor" stroke-linecap="round" stroke-linejoin="round" d="M21.5 14.5 20 13"/><rect width="9" height="2" x="7.5" y="5.5" stroke="currentColor" rx="1"/></svg>
