<svg xmlns="http://www.w3.org/2000/svg" fill="none" viewBox="0 0 16 16" width="1em" height="1em"><path stroke="currentColor" stroke-linecap="round" d="M13.5 11.5v0a2 2 0 0 1-2 2h-7a2 2 0 0 1-2-2v-7a2 2 0 0 1 2-2h7a2 2 0 0 1 2 2v0"/><path fill="currentColor" d="M13.354 8.646 13 8.293 12.293 9l.353.354.708-.708Zm.792 2.208a.5.5 0 0 0 .708-.708l-.708.708Zm-1.5-1.5 1.5 1.5.708-.708-1.5-1.5-.708.708Z"/><circle cx="11.5" cy="7.5" r="2" stroke="currentColor"/><path stroke="currentColor" stroke-linecap="round" stroke-linejoin="round" d="m4.5 9.5 2-4 2 5 1-3"/></svg>
