<svg viewBox="0 0 32 32" fill="none" xmlns="http://www.w3.org/2000/svg" width="1em" height="1em"><path d="M20 14C19.7239 14 19.5 14.2239 19.5 14.5C19.5 14.7761 19.7239 15 20 15V14ZM15 20C15 19.7239 14.7761 19.5 14.5 19.5C14.2239 19.5 14 19.7239 14 20H15ZM29 16.5V27.5H30V16.5H29ZM27.5 29H16.5V30H27.5V29ZM20 15H27.5V14H20V15ZM15 27.5V20H14V27.5H15ZM16.5 29C15.6716 29 15 28.3284 15 27.5H14C14 28.8807 15.1193 30 16.5 30V29ZM29 27.5C29 28.3284 28.3284 29 27.5 29V30C28.8807 30 30 28.8807 30 27.5H29ZM30 16.5C30 15.1193 28.8807 14 27.5 14V15C28.3284 15 29 15.6716 29 16.5H30Z" fill="currentColor"/><path d="M24.5097 19.4019C24.5639 19.1312 24.8273 18.9556 25.0981 19.0097C25.3688 19.0639 25.5444 19.3273 25.4903 19.5981L24.5097 19.4019ZM18 26C17.7239 26 17.5 25.7761 17.5 25.5C17.5 25.2239 17.7239 25 18 25V26ZM25.4903 19.5981C24.9664 22.2176 22.8381 26 18 26V25C22.1619 25 24.0336 21.7824 24.5097 19.4019L25.4903 19.5981Z" fill="currentColor"/><path d="M20.4903 19.4019C20.4361 19.1312 20.1727 18.9556 19.9019 19.0097C19.6312 19.0639 19.4556 19.3273 19.5097 19.5981L20.4903 19.4019ZM27 26C27.2761 26 27.5 25.7761 27.5 25.5C27.5 25.2239 27.2761 25 27 25V26ZM19.5097 19.5981C20.0336 22.2176 22.1619 26 27 26V25C22.8381 25 20.9664 21.7824 20.4903 19.4019L19.5097 19.5981Z" fill="currentColor"/><path d="M18.5 19.5H26.5" stroke="currentColor" stroke-linecap="round" stroke-linejoin="round"/><path d="M22.5 18.1001V19.5" stroke="currentColor" stroke-linecap="round" stroke-linejoin="round"/><path d="M20.5 5C20.2239 5 20 5.22386 20 5.5C20 5.77614 20.2239 6 20.5 6V5ZM26 11.5C26 11.7761 26.2239 12 26.5 12C26.7761 12 27 11.7761 27 11.5H26ZM20.5 6H24.5V5H20.5V6ZM26 7.5V11.5H27V7.5H26ZM24.5 6C25.3284 6 26 6.67157 26 7.5H27C27 6.11929 25.8807 5 24.5 5V6Z" fill="currentColor"/><path d="M11.5 27C11.7761 27 12 26.7761 12 26.5C12 26.2239 11.7761 26 11.5 26V27ZM6 20.5C6 20.2239 5.77614 20 5.5 20C5.22386 20 5 20.2239 5 20.5H6ZM11.5 26H7.5V27H11.5V26ZM6 24.5V20.5H5V24.5H6ZM7.5 26C6.67157 26 6 25.3284 6 24.5H5C5 25.8807 6.11929 27 7.5 27V26Z" fill="currentColor"/><rect x="2.5" y="2.5" width="15" height="15" rx="1.5" stroke="currentColor"/><path d="M7.14283 11.5H12.5" stroke="currentColor"/><path d="M5.55279 13.7764C5.42929 14.0234 5.5294 14.3237 5.77639 14.4472C6.02338 14.5707 6.32372 14.4706 6.44721 14.2236L5.55279 13.7764ZM10 6L10.4472 5.77639C10.3625 5.607 10.1894 5.5 10 5.5C9.81061 5.5 9.63748 5.607 9.55279 5.77639L10 6ZM13.5528 14.2236C13.6763 14.4706 13.9766 14.5707 14.2236 14.4472C14.4706 14.3237 14.5707 14.0234 14.4472 13.7764L13.5528 14.2236ZM6.44721 14.2236L10.4472 6.22361L9.55279 5.77639L5.55279 13.7764L6.44721 14.2236ZM9.55279 6.22361L13.5528 14.2236L14.4472 13.7764L10.4472 5.77639L9.55279 6.22361Z" fill="currentColor"/></svg>
