<svg viewBox="0 0 32 32" fill="none" xmlns="http://www.w3.org/2000/svg" width="1em" height="1em"><path d="M20 14.5L27.5 14.5C28.6046 14.5 29.5 15.3954 29.5 16.5V27.5C29.5 28.6046 28.6046 29.5 27.5 29.5H16.5C15.3954 29.5 14.5 28.6046 14.5 27.5L14.5 20" stroke="currentColor" stroke-linecap="round"/><path d="M25 19.5C24.5 22 22.5 25.5 18 25.5" stroke="currentColor" stroke-linecap="round" stroke-linejoin="round"/><path d="M20 19.5C20.5 22 22.5 25.5 27 25.5" stroke="currentColor" stroke-linecap="round" stroke-linejoin="round"/><path d="M18.5 19.5H26.5" stroke="currentColor" stroke-linecap="round" stroke-linejoin="round"/><path d="M22.5 18.1001V19.5" stroke="currentColor" stroke-linecap="round" stroke-linejoin="round"/><path d="M20.5 5.5L24.5 5.5C25.6046 5.5 26.5 6.39543 26.5 7.5V11.5" stroke="currentColor" stroke-linecap="round"/><path d="M11.5 26.5H7.5C6.39543 26.5 5.5 25.6046 5.5 24.5L5.5 20.5" stroke="currentColor" stroke-linecap="round"/><rect x="2.5" y="2.5" width="15" height="15" rx="1.5" stroke="currentColor"/><path d="M7.14283 11.5H12.5" stroke="currentColor"/><path d="M6 14L10 6L14 14" stroke="currentColor" stroke-linecap="round" stroke-linejoin="round"/></svg>
