<svg viewBox="0 0 24 24" fill="none" xmlns="http://www.w3.org/2000/svg" width="1em" height="1em"><path d="M15.5 11C15.2239 11 15 11.2239 15 11.5C15 11.7761 15.2239 12 15.5 12V11ZM12 16C12 15.7239 11.7761 15.5 11.5 15.5C11.2239 15.5 11 15.7239 11 16H12ZM21 13.5V19.5H22V13.5H21ZM19.5 21H13.5V22H19.5V21ZM15.5 12H19.5V11H15.5V12ZM12 19.5V16H11V19.5H12ZM13.5 21C12.6716 21 12 20.3284 12 19.5H11C11 20.8807 12.1193 22 13.5 22V21ZM21 19.5C21 20.3284 20.3284 21 19.5 21V22C20.8807 22 22 20.8807 22 19.5H21ZM22 13.5C22 12.1193 20.8807 11 19.5 11V12C20.3284 12 21 12.6716 21 13.5H22Z" fill="currentColor"/><path d="M18.0149 14.3787C18.0819 14.1108 18.3534 13.948 18.6213 14.0149C18.8892 14.0819 19.052 14.3534 18.9851 14.6213L18.0149 14.3787ZM13.5 20C13.2239 20 13 19.7761 13 19.5C13 19.2239 13.2239 19 13.5 19V20ZM18.9851 14.6213C18.7152 15.7007 18.0518 17.0215 17.1263 18.0793C16.2058 19.1312 14.9553 20 13.5 20V19C14.5447 19 15.5442 18.3688 16.3737 17.4207C17.1982 16.4785 17.7848 15.2993 18.0149 14.3787L18.9851 14.6213Z" fill="currentColor"/><path d="M14.9851 14.3787C14.9181 14.1108 14.6466 13.948 14.3787 14.0149C14.1108 14.0819 13.948 14.3534 14.0149 14.6213L14.9851 14.3787ZM19.5 20C19.7761 20 20 19.7761 20 19.5C20 19.2239 19.7761 19 19.5 19V20ZM14.0149 14.6213C14.2848 15.7007 14.9482 17.0215 15.8737 18.0793C16.7942 19.1312 18.0447 20 19.5 20V19C18.4553 19 17.4558 18.3688 16.6263 17.4207C15.8018 16.4785 15.2152 15.2993 14.9851 14.3787L14.0149 14.6213Z" fill="currentColor"/><path d="M13.5 14.5H19.5" stroke="currentColor" stroke-linecap="round" stroke-linejoin="round"/><path d="M16.5 13.5V14.4998" stroke="currentColor" stroke-linecap="round" stroke-linejoin="round"/><path d="M16.5 4C16.2239 4 16 4.22386 16 4.5C16 4.77614 16.2239 5 16.5 5V4ZM20 8.5C20 8.77614 20.2239 9 20.5 9C20.7761 9 21 8.77614 21 8.5H20ZM16.5 5H18.5V4H16.5V5ZM20 6.5V8.5H21V6.5H20ZM18.5 5C19.3284 5 20 5.67157 20 6.5H21C21 5.11929 19.8807 4 18.5 4V5Z" fill="currentColor"/><path d="M8.90906 20.3184C9.1852 20.3184 9.40906 20.0945 9.40906 19.8184C9.40906 19.5422 9.1852 19.3184 8.90906 19.3184V20.3184ZM5.04542 15.4547C5.04542 15.1786 4.82156 14.9547 4.54542 14.9547C4.26928 14.9547 4.04542 15.1786 4.04542 15.4547H5.04542ZM8.90906 19.3184H6.54542V20.3184H8.90906V19.3184ZM5.04542 17.8184V15.4547H4.04542V17.8184H5.04542ZM6.54542 19.3184C5.71699 19.3184 5.04542 18.6468 5.04542 17.8184H4.04542C4.04542 19.1991 5.16471 20.3184 6.54542 20.3184V19.3184Z" fill="currentColor"/><rect x="2.5" y="2.5" width="10" height="10" rx="1.5" stroke="currentColor"/><path d="M5.5 8.5H9.5" stroke="currentColor"/><path d="M4.55279 9.77639C4.42929 10.0234 4.5294 10.3237 4.77639 10.4472C5.02338 10.5707 5.32372 10.4706 5.44721 10.2236L4.55279 9.77639ZM7.5 5L7.94721 4.77639C7.86252 4.607 7.68939 4.5 7.5 4.5C7.31061 4.5 7.13748 4.607 7.05279 4.77639L7.5 5ZM9.55279 10.2236C9.67628 10.4706 9.97662 10.5707 10.2236 10.4472C10.4706 10.3237 10.5707 10.0234 10.4472 9.77639L9.55279 10.2236ZM5.44721 10.2236L7.94721 5.22361L7.05279 4.77639L4.55279 9.77639L5.44721 10.2236ZM7.05279 5.22361L9.55279 10.2236L10.4472 9.77639L7.94721 4.77639L7.05279 5.22361Z" fill="currentColor"/></svg>
