<svg viewBox="0 0 16 16" fill="none" xmlns="http://www.w3.org/2000/svg" width="1em" height="1em"><path d="M3 5.49976H6.89999" stroke="currentColor"/><path d="M1.56105 7.26057C1.42882 7.503 1.51815 7.80672 1.76057 7.93895C2.003 8.07118 2.30672 7.98185 2.43895 7.73943L1.56105 7.26057ZM5 2L5.43895 1.76057C5.35133 1.59994 5.18297 1.5 5 1.5C4.81703 1.5 4.64867 1.59994 4.56105 1.76057L5 2ZM7.56105 7.73943C7.69328 7.98185 7.997 8.07118 8.23943 7.93895C8.48185 7.80672 8.57118 7.503 8.43895 7.26057L7.56105 7.73943ZM2.43895 7.73943L5.43895 2.23943L4.56105 1.76057L1.56105 7.26057L2.43895 7.73943ZM4.56105 2.23943L7.56105 7.73943L8.43895 7.26057L5.43895 1.76057L4.56105 2.23943Z" fill="currentColor"/><path d="M13 9.5C13 9.22386 13.2239 9 13.5 9C13.7761 9 14 9.22386 14 9.5H13ZM9 14.5C8.72386 14.5 8.5 14.2761 8.5 14C8.5 13.7239 8.72386 13.5 9 13.5V14.5ZM14 9.5C14 9.97335 13.8461 10.5161 13.6026 11.045C13.3559 11.581 13.0018 12.1363 12.5653 12.64C11.703 13.6349 10.4521 14.5 9 14.5V13.5C10.0479 13.5 11.047 12.8651 11.8097 11.985C12.1857 11.5512 12.4879 11.0752 12.6942 10.6269C12.9039 10.1714 13 9.77665 13 9.5H14Z" fill="currentColor"/><path d="M10 9.5C10 9.22386 9.77614 9 9.5 9C9.22386 9 9 9.22386 9 9.5H10ZM14 14.5C14.2761 14.5 14.5 14.2761 14.5 14C14.5 13.7239 14.2761 13.5 14 13.5V14.5ZM9 9.5C9 9.97335 9.15392 10.5161 9.39737 11.045C9.6441 11.581 9.99819 12.1363 10.4347 12.64C11.297 13.6349 12.5479 14.5 14 14.5V13.5C12.9521 13.5 11.953 12.8651 11.1903 11.985C10.8143 11.5512 10.5121 11.0752 10.3058 10.6269C10.0961 10.1714 10 9.77665 10 9.5H9Z" fill="currentColor"/><path d="M8.5 9.5H14.5" stroke="currentColor" stroke-linecap="round" stroke-linejoin="round"/><path d="M11.5 8V9.5" stroke="currentColor" stroke-linecap="round" stroke-linejoin="round"/><path d="M9.5 2C9.22386 2 9 2.22386 9 2.5C9 2.77614 9.22386 3 9.5 3V2ZM13 6.5C13 6.77614 13.2239 7 13.5 7C13.7761 7 14 6.77614 14 6.5H13ZM9.5 3H11.5V2H9.5V3ZM13 4.5V6.5H14V4.5H13ZM11.5 3C12.3284 3 13 3.67157 13 4.5H14C14 3.11929 12.8807 2 11.5 2V3Z" fill="currentColor"/><path d="M6.5 14C6.77614 14 7 13.7761 7 13.5C7 13.2239 6.77614 13 6.5 13V14ZM3 9.5C3 9.22386 2.77614 9 2.5 9C2.22386 9 2 9.22386 2 9.5H3ZM6.5 13H4.5V14H6.5V13ZM3 11.5V9.5H2V11.5H3ZM4.5 13C3.67157 13 3 12.3284 3 11.5H2C2 12.8807 3.11929 14 4.5 14V13Z" fill="currentColor"/></svg>
