<svg viewBox="0 0 24 24" fill="none" xmlns="http://www.w3.org/2000/svg" width="1em" height="1em"><path d="M15.5 11.5H19.5C20.6046 11.5 21.5 12.3954 21.5 13.5V19.5C21.5 20.6046 20.6046 21.5 19.5 21.5H13.5C12.3954 21.5 11.5 20.6046 11.5 19.5V16" stroke="currentColor" stroke-linecap="round"/><path d="M18.5 14.5C18 16.5 16 19.5 13.5 19.5" stroke="currentColor" stroke-linecap="round" stroke-linejoin="round"/><path d="M14.5 14.5C15 16.5 17 19.5 19.5 19.5" stroke="currentColor" stroke-linecap="round" stroke-linejoin="round"/><path d="M13.5 14.5H19.5" stroke="currentColor" stroke-linecap="round" stroke-linejoin="round"/><path d="M16.5 13.5V14.4998" stroke="currentColor" stroke-linecap="round" stroke-linejoin="round"/><path d="M16.5 4.5H18.5C19.6046 4.5 20.5 5.39543 20.5 6.5V8.5" stroke="currentColor" stroke-linecap="round"/><path d="M8.90906 19.8184H6.54542C5.44085 19.8184 4.54542 18.9229 4.54542 17.8184V15.4547" stroke="currentColor" stroke-linecap="round"/><rect x="2.5" y="2.5" width="10" height="10" rx="1.5" stroke="currentColor"/><path d="M5.5 8.5H9.5" stroke="currentColor"/><path d="M5 10L7.5 5L10 10" stroke="currentColor" stroke-linecap="round" stroke-linejoin="round"/></svg>
