<svg xmlns="http://www.w3.org/2000/svg" fill="none" viewBox="0 0 24 24" width="1em" height="1em"><path stroke="currentColor" stroke-linecap="round" d="M15.5 11.5h4a2 2 0 0 1 2 2v6a2 2 0 0 1-2 2h-6a2 2 0 0 1-2-2V16"/><path stroke="currentColor" stroke-linecap="round" stroke-linejoin="round" d="M18.5 14.5c-.5 2-2.5 5-5 5"/><path stroke="currentColor" stroke-linecap="round" stroke-linejoin="round" d="M14.5 14.5c.5 2 2.5 5 5 5m-6-5h6m-3-1v1"/><path stroke="currentColor" stroke-linecap="round" d="M16.5 4.5h2a2 2 0 0 1 2 2v2M8.91 19.818H6.544a2 2 0 0 1-2-2v-2.363"/><rect width="10" height="10" x="2.5" y="2.5" stroke="currentColor" rx="1.5"/><path stroke="currentColor" d="M5.5 8.5h4"/><path stroke="currentColor" stroke-linecap="round" stroke-linejoin="round" d="m5 10 2.5-5 2.5 5"/></svg>
