<svg xmlns="http://www.w3.org/2000/svg" fill="none" viewBox="0 0 32 32" width="1em" height="1em"><path stroke="currentColor" stroke-linecap="round" d="M20 14.5h7.5a2 2 0 0 1 2 2v11a2 2 0 0 1-2 2h-11a2 2 0 0 1-2-2V20"/><path stroke="currentColor" stroke-linecap="round" stroke-linejoin="round" d="M25 19.5c-.5 2.5-2.5 6-7 6"/><path stroke="currentColor" stroke-linecap="round" stroke-linejoin="round" d="M20 19.5c.5 2.5 2.5 6 7 6m-8.5-6h8m-4-1.4v1.4"/><path stroke="currentColor" stroke-linecap="round" d="M20.5 5.5h4a2 2 0 0 1 2 2v4m-15 15h-4a2 2 0 0 1-2-2v-4"/><rect width="15" height="15" x="2.5" y="2.5" stroke="currentColor" rx="1.5"/><path stroke="currentColor" d="M7.143 11.5H12.5"/><path stroke="currentColor" stroke-linecap="round" stroke-linejoin="round" d="m6 14 4-8 4 8"/></svg>
