<svg viewBox="0 0 24 24" fill="none" xmlns="http://www.w3.org/2000/svg" width="1em" height="1em"><path d="M12.5 20.5L18.8333 20.5C19.7538 20.5 20.5 19.7538 20.5 18.8333L20.5 5.16666C20.5 4.24619 19.7538 3.49999 18.8333 3.49999L5.16667 3.49999C4.24619 3.49999 3.5 4.24619 3.5 5.16666L3.5 10.5M7.49997 20.5L5.16667 20.5C4.24619 20.5 3.5 19.7538 3.5 18.8333L3.5 17.5" stroke="currentColor" stroke-linecap="round" stroke-linejoin="round"/><path d="M13.5 10.5L3.5 13.8333L8.08333 15.9167L10.1667 20.5L13.5 10.5Z" stroke="currentColor" stroke-linecap="round" stroke-linejoin="round"/><path d="M16.5 6.5L7.5 6.5C6.94772 6.5 6.5 6.94772 6.5 7.5C6.5 8.05228 6.94771 8.5 7.5 8.5H16.5C17.0523 8.5 17.5 8.05228 17.5 7.5C17.5 6.94772 17.0523 6.5 16.5 6.5Z" stroke="currentColor" stroke-linecap="round"/></svg>
