<svg viewBox="0 0 32 32" fill="none" xmlns="http://www.w3.org/2000/svg" width="1em" height="1em"><path d="M16.5 27.5L25.8333 27.5C26.7538 27.5 27.5 26.7538 27.5 25.8333L27.5 6.16666C27.5 5.24619 26.7538 4.5 25.8333 4.5L6.16667 4.5C5.24619 4.5 4.5 5.24619 4.5 6.16667L4.5 15.5M4.5 21.5L4.5 25.8333C4.5 26.7538 5.24619 27.5 6.16667 27.5L10.5 27.5" stroke="currentColor" stroke-linecap="round" stroke-linejoin="round"/><path d="M18.5 13.5L4.5 18.5L10.5 21.5L13.5 27.5L18.5 13.5Z" stroke="currentColor" stroke-linecap="round" stroke-linejoin="round"/><path d="M23.5 8.5L8.5 8.5C7.94772 8.5 7.5 8.94772 7.5 9.5C7.5 10.0523 7.94772 10.5 8.5 10.5H23.5C24.0523 10.5 24.5 10.0523 24.5 9.5C24.5 8.94772 24.0523 8.5 23.5 8.5Z" stroke="currentColor" stroke-linecap="round"/></svg>
