<svg xmlns="http://www.w3.org/2000/svg" fill="none" viewBox="0 0 24 24" width="1em" height="1em"><path stroke="currentColor" stroke-linecap="round" stroke-linejoin="round" d="M12.5 20.5h6.333c.92 0 1.667-.746 1.667-1.667V5.167c0-.92-.746-1.667-1.667-1.667H5.167c-.92 0-1.667.746-1.667 1.667V10.5m4 10H5.167c-.92 0-1.667-.746-1.667-1.667V17.5"/><path stroke="currentColor" stroke-linecap="round" stroke-linejoin="round" d="m13.5 10.5-10 3.333 4.583 2.084 2.084 4.583z"/><path stroke="currentColor" stroke-linecap="round" d="M16.5 6.5h-9a1 1 0 0 0 0 2h9a1 1 0 1 0 0-2Z"/></svg>
