<svg xmlns="http://www.w3.org/2000/svg" fill="none" viewBox="0 0 32 32" width="1em" height="1em"><path stroke="currentColor" stroke-linecap="round" stroke-linejoin="round" d="M16.5 27.5h9.333c.92 0 1.667-.746 1.667-1.667V6.167c0-.92-.746-1.667-1.667-1.667H6.167c-.92 0-1.667.746-1.667 1.667V15.5m0 6v4.333c0 .92.746 1.667 1.667 1.667H10.5"/><path stroke="currentColor" stroke-linecap="round" stroke-linejoin="round" d="m18.5 13.5-14 5 6 3 3 6z"/><path stroke="currentColor" stroke-linecap="round" d="M23.5 8.5h-15a1 1 0 0 0 0 2h15a1 1 0 1 0 0-2Z"/></svg>
