<svg viewBox="0 0 16 16" fill="none" xmlns="http://www.w3.org/2000/svg" stroke="currentColor"><circle cx="8" cy="8" r="6.5"/><path d="M5 7.5C4.72386 7.5 4.5 7.72386 4.5 8C4.5 8.27614 4.72386 8.5 5 8.5V7.5ZM11 8.5C11.2761 8.5 11.5 8.27614 11.5 8C11.5 7.72386 11.2761 7.5 11 7.5V8.5ZM8.5 5C8.5 4.72386 8.27614 4.5 8 4.5C7.72386 4.5 7.5 4.72386 7.5 5L8.5 5ZM7.5 11C7.5 11.2761 7.72386 11.5 8 11.5C8.27614 11.5 8.5 11.2761 8.5 11H7.5ZM5 8.5H11V7.5H5V8.5ZM7.5 5L7.5 11H8.5L8.5 5L7.5 5Z" fill="#282829"/></svg>
