<svg viewBox="0 0 16 16" fill="none" xmlns="http://www.w3.org/2000/svg" width="1em" height="1em"><rect x="2.5" y="1.5" width="11" height="13" rx="1.5" stroke="currentColor"/><path d="M4.5 11.5H9.5M4.5 9.5L11.5 9.5" stroke="currentColor" stroke-linecap="round"/><path d="M7.11791 3.72471C7.30031 3.6427 7.50318 3.59775 7.71474 3.59775C8.0707 3.59775 8.40406 3.72541 8.65567 3.94423C8.74255 3.93045 8.83159 3.92331 8.92208 3.92331C9.74306 3.92331 10.5 4.53398 10.5 5.39422C10.5 6.25441 9.74324 6.86506 8.92234 6.86518L7.11791 3.72471ZM7.11791 3.72471C6.88237 3.5807 6.60271 3.5 6.30855 3.5C5.55153 3.5 4.83739 4.05919 4.83739 4.86596C4.83739 4.91806 4.84055 4.96946 4.84667 5.01999C4.63656 5.2369 4.5 5.52903 4.5 5.86256C4.5 6.56642 5.08678 7.06589 5.73633 7.11202C5.99918 7.4336 6.41126 7.625 6.84971 7.625C7.2473 7.625 7.62206 7.46809 7.8844 7.19989C7.92973 7.20441 7.97565 7.20671 8.02201 7.20671C8.36241 7.20671 8.6837 7.08177 8.92133 6.86519C8.92158 6.86519 8.92183 6.86518 8.92208 6.86518L7.11791 3.72471Z" stroke="currentColor"/></svg>
