<svg xmlns="http://www.w3.org/2000/svg" fill="none" viewBox="0 0 16 16" width="1em" height="1em"><rect width="11" height="13" x="2.5" y="1.5" stroke="currentColor" rx="1.5"/><path stroke="currentColor" stroke-linecap="round" d="M4.5 11.5h5m-5-2h7"/><path stroke="currentColor" d="M7.118 3.725a1.454 1.454 0 0 1 1.538.22 1.7 1.7 0 0 1 .266-.022c.821 0 1.578.611 1.578 1.471 0 .86-.757 1.471-1.578 1.471l-1.804-3.14Zm0 0a1.551 1.551 0 0 0-.81-.225c-.756 0-1.47.56-1.47 1.366 0 .052.003.103.009.154-.21.217-.347.509-.347.843 0 .703.587 1.203 1.236 1.249.263.322.675.513 1.114.513.397 0 .772-.157 1.034-.425a1.335 1.335 0 0 0 1.037-.335h.001l-1.804-3.14Z"/></svg>
