<svg xmlns="http://www.w3.org/2000/svg" fill="none" viewBox="0 0 24 24" width="1em" height="1em"><rect width="15" height="19" x="4.5" y="2.5" stroke="currentColor" rx="1.5"/><path stroke="currentColor" stroke-linecap="round" d="M7.5 13.5h9m-9 2h9m-9 2h6"/><path stroke="currentColor" d="M11.367 4.905a2 2 0 0 1 .977-.249c.55 0 1.055.218 1.411.578q.252-.056.52-.057c1.178 0 2.225.872 2.225 2.054s-1.046 2.053-2.225 2.053m-2.908-4.379.048.566c.25-.196.574-.315.929-.315.528 0 .988.263 1.234.654a1.9 1.9 0 0 1 .697-.133c.953 0 1.725.696 1.725 1.554s-.772 1.553-1.725 1.553m-2.908-3.879a2.17 2.17 0 0 0-1.273-.405c-1.08 0-2.054.792-2.054 1.886q0 .182.036.354c-.347.304-.576.74-.576 1.24 0 .987.869 1.703 1.831 1.705.353.503.964.815 1.629.815a2 2 0 0 0 1.539-.699m-1.132-4.896-2.7 2.032C8.27 7.145 8 7.534 8 7.98c0 .665.598 1.205 1.335 1.205q.141 0 .275-.026c.202.491.73.841 1.35.841.594 0 1.105-.323 1.324-.783m1.991.067v-.143q-.056.074-.12.14m.12.003v-.143q.045-.06.084-.121l-.084-.053v-.183m0 .5q-.06 0-.12-.003m0 0a2.4 2.4 0 0 1-.308-.035l.089-.492m.22.527c-.33.344-.806.55-1.32.55a2 2 0 0 1-.337-.03m1.437-1.047.34.213v-.183m-.34-.03c-.216.344-.628.577-1.1.577a1.4 1.4 0 0 1-.552-.114m1.652-.463q.167.03.34.03m-1.777 1.017q.14-.169.236-.369l-.451-.215m.215.584a2 2 0 0 1-.415-.125l.2-.459"/></svg>
