<svg xmlns="http://www.w3.org/2000/svg" fill="none" viewBox="0 0 16 16" width="1em" height="1em"><rect width="11" height="13" x="2.5" y="1.5" stroke="currentColor" rx="1.5"/><path stroke="currentColor" stroke-linecap="round" d="M4.5 11.5h5m-5-2h7"/><path stroke="currentColor" d="M7.118 3.725a1.45 1.45 0 0 1 1.538.22 2 2 0 0 1 .266-.022c.821 0 1.578.611 1.578 1.471s-.757 1.471-1.578 1.471zm0 0a1.55 1.55 0 0 0-.81-.225c-.756 0-1.47.56-1.47 1.366q0 .078.009.154c-.21.217-.347.509-.347.843 0 .703.587 1.203 1.236 1.249.263.322.675.513 1.114.513.397 0 .772-.157 1.034-.425q.069.006.138.007c.34 0 .662-.125.9-.342z"/></svg>
