<svg xmlns="http://www.w3.org/2000/svg" fill="none" viewBox="0 0 32 32" width="1em" height="1em"><rect width="19" height="23" x="6.5" y="4.5" stroke="currentColor" rx="1.5"/><path stroke="currentColor" stroke-linecap="round" d="M9.5 18.5h13m-13 3h13m-13 3h8"/><path stroke="currentColor" d="M15.034 7.197a2.66 2.66 0 0 1 1.481-.447 2.65 2.65 0 0 1 2.042.95q.41-.115.856-.116c1.686 0 3.087 1.318 3.087 2.985 0 1.668-1.401 2.986-3.087 2.986v-.5q-.257 0-.51-.048zm0 0A2.9 2.9 0 0 0 13.14 6.5c-1.539 0-2.83 1.193-2.83 2.717q0 .357.091.686a2.4 2.4 0 0 0-.901 1.865c0 1.359 1.139 2.428 2.503 2.428q.06 0 .117-.003a2.68 2.68 0 0 0 2.32 1.307c.917 0 1.735-.45 2.214-1.144q.289.073.599.073c.76 0 1.444-.343 1.885-.886z"/></svg>
