<svg xmlns="http://www.w3.org/2000/svg" fill="none" viewBox="0 0 24 24" width="1em" height="1em"><rect width="15" height="19" x="4.5" y="2.5" stroke="currentColor" rx="1.5"/><path stroke="currentColor" stroke-linecap="round" d="M7.5 13.5h9m-9 2h9m-9 2h6"/><path stroke="currentColor" d="M11.367 4.905a2.02 2.02 0 0 1 .977-.249c.55 0 1.055.218 1.411.578.167-.037.342-.057.52-.057 1.178 0 2.225.872 2.225 2.054s-1.046 2.053-2.225 2.053m-2.908-4.379.048.566c.25-.196.574-.315.929-.315.528 0 .988.263 1.234.654a1.88 1.88 0 0 1 .697-.133c.953 0 1.725.696 1.725 1.554 0 .858-.772 1.553-1.725 1.553m-2.908-3.879a2.167 2.167 0 0 0-1.273-.405c-1.08 0-2.054.792-2.054 1.886 0 .12.012.24.036.354-.347.304-.576.74-.576 1.24 0 .987.869 1.703 1.831 1.705.353.503.964.815 1.629.815a2 2 0 0 0 1.539-.699m-1.132-4.896-2.7 2.032C8.27 7.145 8 7.534 8 7.98c0 .665.598 1.205 1.335 1.205.094 0 .186-.009.275-.026.202.491.73.841 1.35.841.594 0 1.105-.323 1.324-.783m1.991.067v-.143a1.453 1.453 0 0 1-.12.14m.12.003v-.143c.03-.04.058-.08.084-.121l-.084-.053v-.183m0 .5c-.04 0-.08 0-.12-.003m0 0a2.407 2.407 0 0 1-.308-.035l.089-.492m.22.527c-.33.344-.806.55-1.32.55a1.91 1.91 0 0 1-.337-.03m1.437-1.047.34.213v-.183m-.34-.03c-.216.344-.628.577-1.1.577a1.38 1.38 0 0 1-.552-.114m1.652-.463c.111.02.225.03.34.03m-1.777 1.017c.093-.112.173-.236.236-.369l-.451-.215m.215.584a1.859 1.859 0 0 1-.415-.125l.2-.459"/></svg>
