<svg viewBox="0 0 24 24" fill="none" xmlns="http://www.w3.org/2000/svg" width="1em" height="1em"><path d="M6.5 12C6.5 11.1716 7.17157 10.5 8 10.5L16 10.5C16.8284 10.5 17.5 11.1716 17.5 12V19C17.5 19.8284 16.8284 20.5 16 20.5H8C7.17157 20.5 6.5 19.8284 6.5 19L6.5 12Z" stroke="currentColor"/><path d="M15.5 10V7C15.5 5.067 13.933 3.5 12 3.5V3.5V3.5C10.067 3.5 8.5 5.067 8.5 7L8.5 10" stroke="currentColor"/><path d="M12 13.5C11.1716 13.5 10.5 14.1524 10.5 14.9571C10.5 15.4965 10.8016 15.9674 11.25 16.2193L10.875 17.5H13.125L12.75 16.2193C13.1984 15.9674 13.5 15.4965 13.5 14.9571C13.5 14.1524 12.8284 13.5 12 13.5Z" stroke="currentColor" stroke-linejoin="round"/></svg>
