<svg viewBox="0 0 16 16" fill="none" xmlns="http://www.w3.org/2000/svg" width="1em" height="1em"><path d="M4.5 9C4.5 8.17157 5.17157 7.5 6 7.5L10 7.5C10.8284 7.5 11.5 8.17157 11.5 9V12C11.5 12.8284 10.8284 13.5 10 13.5H6C5.17157 13.5 4.5 12.8284 4.5 12L4.5 9Z" stroke="currentColor"/><path d="M10.5 7.5V5C10.5 3.61929 9.38071 2.5 8 2.5V2.5C6.61929 2.5 5.5 3.61929 5.5 5L5.5 7.5" stroke="currentColor"/><path d="M9 10C9 10.5523 8.55228 11 8 11C7.44772 11 7 10.5523 7 10C7 9.44772 7.44772 9 8 9C8.55228 9 9 9.44772 9 10Z" fill="currentColor"/><path d="M7.5 10.5C7.5 10.2239 7.72386 10 8 10C8.27614 10 8.5 10.2239 8.5 10.5V11.5C8.5 11.7761 8.27614 12 8 12C7.72386 12 7.5 11.7761 7.5 11.5V10.5Z" fill="currentColor"/></svg>
