<svg xmlns="http://www.w3.org/2000/svg" fill="none" viewBox="0 0 24 24" width="1em" height="1em"><path fill="currentColor" d="m21.785 14.19-.378-.639c-.405.441-1.035.756-1.854.756-1.332 0-2.313-.963-2.313-2.421s.972-2.421 2.313-2.421c.864 0 1.557.45 1.8.756l.37-.702c-.343-.333-1.045-.819-2.206-.819-1.782 0-3.177 1.269-3.177 3.204s1.36 3.204 3.168 3.204c1.18 0 1.89-.486 2.277-.918m-6.526-2.979c0-.783-.36-1.449-.828-1.881-.486-.45-1.206-.81-2.304-.81-1.782 0-3.384 1.359-3.384 3.321 0 1.971 1.404 3.249 3.195 3.249 1.503 0 2.205-.495 2.52-.675l-.234-.468c-.37.171-1.035.549-2.17.549-1.565 0-2.61-1.035-2.61-2.655 0-1.611 1.189-2.727 2.71-2.727s2.439.891 2.439 2.151c0 1.089-.63 1.737-1.08 1.737-.351 0-.315-.306-.225-.648l.585-2.196h-.738l-.072.234s-.261-.387-.99-.387c-1.134 0-1.881 1.116-1.881 2.214 0 1.089.684 1.431 1.197 1.431s.89-.36 1.07-.54c.073.324.343.54.81.54.45 0 .955-.225 1.324-.612.387-.396.666-1.026.666-1.827m-2.34-.234-.288 1.062c-.162.63-.567.927-.981.927-.405 0-.666-.279-.666-.819 0-.396.153-.81.35-1.071.19-.243.442-.441.838-.441.495.468.594.117.747.342M7.785 14.19l-.378-.639c-.405.441-1.035.756-1.854.756-1.332 0-2.313-.963-2.313-2.421s.972-2.421 2.313-2.421c.864 0 1.557.45 1.8.756l.37-.702C7.38 9.186 6.677 8.7 5.516 8.7c-1.782 0-3.177 1.269-3.177 3.204s1.36 3.204 3.168 3.204c1.18 0 1.89-.486 2.277-.918"/></svg>
