<svg xmlns="http://www.w3.org/2000/svg" fill="none" viewBox="0 0 32 32" width="1em" height="1em"><path fill="currentColor" d="m10.333 18.74-.588-.994c-.63.686-1.61 1.176-2.884 1.176-2.072 0-3.598-1.498-3.598-3.766S4.775 11.39 6.86 11.39c1.344 0 2.422.7 2.8 1.176l.574-1.092c-.532-.518-1.624-1.274-3.43-1.274-2.772 0-4.942 1.974-4.942 4.984s2.114 4.984 4.928 4.984c1.834 0 2.94-.756 3.542-1.428m20.001 0-.588-.994c-.63.686-1.61 1.176-2.884 1.176-2.072 0-3.598-1.498-3.598-3.766s1.512-3.766 3.598-3.766c1.344 0 2.422.7 2.8 1.176l.574-1.092c-.532-.518-1.624-1.274-3.43-1.274-2.772 0-4.942 1.974-4.942 4.984s2.114 4.984 4.928 4.984c1.834 0 2.94-.756 3.542-1.428m-19.442-3.79q0-1.134.406-2.1a5.4 5.4 0 0 1 1.134-1.694 5.2 5.2 0 0 1 1.68-1.12 5.4 5.4 0 0 1 2.1-.406q1.149 0 2.058.35a4.7 4.7 0 0 1 1.568.924q.644.574.98 1.358.35.77.35 1.638 0 .91-.266 1.624a3.7 3.7 0 0 1-.728 1.218 3.2 3.2 0 0 1-1.036.756 3.1 3.1 0 0 1-1.232.252q-.56 0-.854-.238a1 1 0 0 1-.364-.616 4 4 0 0 1-.77.588 1.81 1.81 0 0 1-1.54.168 1.5 1.5 0 0 1-.574-.35 2 2 0 0 1-.448-.672q-.182-.42-.182-1.064t.224-1.288.616-1.162q.406-.518.952-.84a2.4 2.4 0 0 1 1.232-.322q.35 0 .602.07t.42.182a1 1 0 0 1 .28.21.6.6 0 0 1 .154.182l.126-.406h1.148l-1.05 3.584a2.2 2.2 0 0 0-.112.616q0 .21.098.336.099.126.364.126.309 0 .63-.21.337-.21.616-.588.28-.378.462-.91a3.8 3.8 0 0 0 .182-1.204 3.4 3.4 0 0 0-.266-1.358 3 3 0 0 0-.77-1.078 3.6 3.6 0 0 0-1.218-.7 4.6 4.6 0 0 0-1.61-.266q-.98 0-1.778.336a4 4 0 0 0-1.358.924 4.1 4.1 0 0 0-.868 1.4 4.8 4.8 0 0 0-.308 1.736q0 1.008.294 1.778.295.77.826 1.288.547.518 1.288.784a5 5 0 0 0 1.666.266q.672 0 1.246-.112.588-.098 1.036-.252.462-.14.784-.294t.49-.238l.336.644q-.14.084-.448.28-.294.195-.784.392a7 7 0 0 1-1.176.336 7.4 7.4 0 0 1-1.61.154q-1.035 0-1.946-.336a4.5 4.5 0 0 1-1.596-.966 4.5 4.5 0 0 1-1.064-1.554q-.392-.938-.392-2.156m3.514.518q0 .645.294.91.294.266.714.266.449 0 .854-.336.407-.336.63-1.092l.518-1.764q-.42-.49-1.134-.49a1.4 1.4 0 0 0-.77.224q-.35.21-.602.574-.237.35-.378.798a3.4 3.4 0 0 0-.126.91"/></svg>
