<svg viewBox="0 0 16 16" fill="none" xmlns="http://www.w3.org/2000/svg" width="1em" height="1em"><path d="M10.1906 7.44C10.1906 6.9 9.92059 6.45 9.62059 6.18C9.32059 5.91 8.87059 5.658 8.06059 5.658C6.86059 5.658 5.81059 6.54 5.81059 7.83C5.81059 9.12 6.76459 9.978 7.97059 9.978C8.87059 9.978 9.26059 9.78 9.56059 9.63L9.38059 9.24C9.02059 9.39 8.69059 9.51 8.09059 9.51C7.04059 9.51 6.38059 8.85 6.38059 7.83C6.38059 6.81 7.10059 6.12 8.09059 6.12C9.08059 6.12 9.65059 6.66 9.65059 7.5C9.65059 8.16 9.32059 8.478 9.11059 8.478C8.90059 8.478 8.92459 8.28 8.96059 8.1L9.23059 6.78H8.63059L8.60659 6.9C8.59459 6.888 8.40859 6.69 7.97059 6.69C7.25059 6.69 6.80059 7.29 6.80059 8.01C6.80059 8.73 7.25059 9 7.67059 9C8.09059 9 8.33059 8.658 8.33059 8.658C8.39059 8.88 8.60059 9 8.90059 9C9.20059 9 9.53059 8.862 9.77059 8.628C10.0106 8.382 10.1906 7.98 10.1906 7.44ZM8.51059 7.35L8.39059 7.95C8.33659 8.208 8.21059 8.448 7.88059 8.448C7.55059 8.448 7.46059 8.19 7.46059 7.95C7.46059 7.56 7.66459 7.2 8.09059 7.2C8.33059 7.2 8.48059 7.32 8.51059 7.35Z" fill="currentColor"/><path d="M15.3211 9.825L15.0061 9.2925C14.6686 9.66 14.1436 9.9225 13.4611 9.9225C12.3511 9.9225 11.5336 9.12 11.5336 7.905C11.5336 6.69 12.3436 5.8875 13.4611 5.8875C14.1811 5.8875 14.7586 6.2625 14.9611 6.5175L15.2686 5.9325C14.9836 5.655 14.3986 5.25 13.4311 5.25C11.9461 5.25 10.7836 6.3075 10.7836 7.92C10.7836 9.5325 11.9161 10.59 13.4236 10.59C14.4061 10.59 14.9986 10.185 15.3211 9.825Z" fill="currentColor"/><path d="M5.3211 9.825L5.0061 9.2925C4.6686 9.66 4.1436 9.9225 3.4611 9.9225C2.3511 9.9225 1.5336 9.12 1.5336 7.905C1.5336 6.69 2.3436 5.8875 3.4611 5.8875C4.1811 5.8875 4.7586 6.2625 4.9611 6.5175L5.2686 5.9325C4.9836 5.655 4.3986 5.25 3.4311 5.25C1.9461 5.25 0.783604 6.3075 0.783604 7.92C0.783604 9.5325 1.9161 10.59 3.4236 10.59C4.4061 10.59 4.9986 10.185 5.3211 9.825Z" fill="currentColor"/></svg>
