<svg xmlns="http://www.w3.org/2000/svg" fill="none" viewBox="0 0 16 16" width="1em" height="1em"><path fill="currentColor" d="M10.19 7.44c0-.54-.27-.99-.57-1.26-.3-.27-.75-.522-1.56-.522-1.2 0-2.25.882-2.25 2.172s.955 2.148 2.16 2.148c.9 0 1.29-.198 1.59-.348l-.18-.39c-.36.15-.69.27-1.29.27-1.05 0-1.71-.66-1.71-1.68s.72-1.71 1.71-1.71 1.56.54 1.56 1.38c0 .66-.33.978-.54.978-.21 0-.185-.198-.15-.378l.27-1.32h-.6l-.023.12c-.012-.012-.198-.21-.636-.21-.72 0-1.17.6-1.17 1.32 0 .72.45.99.87.99s.66-.342.66-.342c.06.222.27.342.57.342.3 0 .63-.138.87-.372.24-.246.42-.648.42-1.188Zm-1.68-.09-.12.6c-.053.258-.18.498-.51.498s-.42-.258-.42-.498c0-.39.205-.75.63-.75.24 0 .39.12.42.15Zm6.811 2.475-.315-.532c-.337.367-.862.63-1.545.63-1.11 0-1.927-.803-1.927-2.018 0-1.215.81-2.018 1.927-2.018.72 0 1.298.376 1.5.63l.308-.585c-.285-.277-.87-.682-1.838-.682-1.485 0-2.647 1.058-2.647 2.67 0 1.613 1.132 2.67 2.64 2.67.982 0 1.575-.405 1.897-.765Zm-10 0-.315-.532c-.337.367-.862.63-1.545.63-1.11 0-1.927-.803-1.927-2.018 0-1.215.81-2.018 1.927-2.018.72 0 1.298.376 1.5.63l.308-.585c-.285-.277-.87-.682-1.838-.682C1.946 5.25.784 6.308.784 7.92c0 1.613 1.132 2.67 2.64 2.67.982 0 1.575-.405 1.897-.765Z"/></svg>
