<svg xmlns="http://www.w3.org/2000/svg" fill="none" viewBox="0 0 32 32" width="1em" height="1em"><path fill="currentColor" d="m10.333 18.74-.588-.994c-.63.686-1.61 1.176-2.884 1.176-2.072 0-3.598-1.498-3.598-3.766S4.775 11.39 6.86 11.39c1.344 0 2.422.7 2.8 1.176l.574-1.092c-.532-.518-1.624-1.274-3.43-1.274-2.772 0-4.942 1.974-4.942 4.984s2.114 4.984 4.928 4.984c1.834 0 2.94-.756 3.542-1.428Zm20 0-.588-.994c-.63.686-1.61 1.176-2.884 1.176-2.072 0-3.598-1.498-3.598-3.766s1.512-3.766 3.598-3.766c1.344 0 2.422.7 2.8 1.176l.574-1.092c-.532-.518-1.624-1.274-3.43-1.274-2.772 0-4.942 1.974-4.942 4.984s2.114 4.984 4.928 4.984c1.834 0 2.94-.756 3.542-1.428Zm-19.442-3.79c0-.756.136-1.456.406-2.1a5.345 5.345 0 0 1 1.134-1.694 5.196 5.196 0 0 1 1.68-1.12 5.432 5.432 0 0 1 2.1-.406c.766 0 1.452.117 2.058.35a4.651 4.651 0 0 1 1.568.924c.43.383.756.835.98 1.358.234.513.35 1.06.35 1.638 0 .607-.088 1.148-.266 1.624a3.68 3.68 0 0 1-.728 1.218 3.154 3.154 0 0 1-1.036.756 3.096 3.096 0 0 1-1.232.252c-.373 0-.658-.08-.854-.238a1.002 1.002 0 0 1-.364-.616 3.89 3.89 0 0 1-.77.588 1.813 1.813 0 0 1-1.54.168 1.49 1.49 0 0 1-.574-.35 2.012 2.012 0 0 1-.448-.672c-.121-.28-.182-.635-.182-1.064 0-.43.075-.859.224-1.288.15-.43.355-.817.616-1.162.271-.345.588-.625.952-.84a2.427 2.427 0 0 1 1.232-.322c.234 0 .434.023.602.07.168.047.308.107.42.182a.995.995 0 0 1 .28.21.638.638 0 0 1 .154.182l.126-.406h1.148l-1.05 3.584a2.161 2.161 0 0 0-.112.616c0 .14.033.252.098.336.066.084.187.126.364.126.206 0 .416-.07.63-.21.224-.14.43-.336.616-.588.187-.252.341-.555.462-.91a3.79 3.79 0 0 0 .182-1.204 3.39 3.39 0 0 0-.266-1.358 2.969 2.969 0 0 0-.77-1.078 3.624 3.624 0 0 0-1.218-.7 4.588 4.588 0 0 0-1.61-.266 4.54 4.54 0 0 0-1.778.336 3.983 3.983 0 0 0-1.358.924 4.123 4.123 0 0 0-.868 1.4 4.78 4.78 0 0 0-.308 1.736c0 .672.098 1.265.294 1.778.196.513.472.943.826 1.288a3.63 3.63 0 0 0 1.288.784 4.99 4.99 0 0 0 1.666.266c.448 0 .864-.037 1.246-.112.392-.065.738-.15 1.036-.252.308-.093.57-.191.784-.294.215-.103.378-.182.49-.238l.336.644c-.093.056-.242.15-.448.28-.196.13-.457.261-.784.392a6.92 6.92 0 0 1-1.176.336 7.418 7.418 0 0 1-1.61.154c-.69 0-1.339-.112-1.946-.336a4.495 4.495 0 0 1-1.596-.966 4.513 4.513 0 0 1-1.064-1.554c-.261-.625-.392-1.344-.392-2.156Zm3.514.518c0 .43.098.733.294.91.196.177.434.266.714.266.299 0 .584-.112.854-.336.271-.224.481-.588.63-1.092l.518-1.764c-.28-.327-.658-.49-1.134-.49a1.4 1.4 0 0 0-.77.224c-.233.14-.434.331-.602.574-.158.233-.284.5-.378.798a3.346 3.346 0 0 0-.126.91Z"/></svg>
