<svg xmlns="http://www.w3.org/2000/svg" fill="none" viewBox="0 0 64 64" width="1em" height="1em"><path stroke="currentColor" d="M15 25a.5.5 0 0 1 .5-.5h6a.5.5 0 0 1 .5.5v9.5h-7V25Z"/><path stroke="currentColor" d="M9.5 5.5h18a.5.5 0 0 1 .5.5v28a.5.5 0 0 1-.5.5h-18A.5.5 0 0 1 9 34V6a.5.5 0 0 1 .5-.5Z"/><path stroke="currentColor" d="M9.5 10.5H6a1 1 0 0 0-1 1V33a1 1 0 0 0 1 1h3.5"/><path stroke="currentColor" stroke-linecap="round" d="M14 10.5h10m-10 5h10m-10 5h10"/><path stroke="currentColor" d="M46.5 51a.5.5 0 0 1 .5-.5h6a.5.5 0 0 1 .5.5v9.5h-7V51Z"/><path stroke="currentColor" d="M41 31.5h18a.5.5 0 0 1 .5.5v28a.5.5 0 0 1-.5.5H41a.5.5 0 0 1-.5-.5V32a.5.5 0 0 1 .5-.5Z"/><path stroke="currentColor" d="M41 36.5h-3.5a1 1 0 0 0-1 1V59a1 1 0 0 0 1 1H41"/><path stroke="currentColor" stroke-linecap="round" d="M45.5 36.5h10m-10 5h10m-10 5h10"/><path stroke="currentColor" stroke-linecap="round" stroke-linejoin="round" d="M37.527 16.5H54.5v8.864"/><path stroke="currentColor" stroke-linecap="round" stroke-linejoin="round" d="m41.5 20.5-4.073-4.073 4.073-4.072M30.473 49.364H13.5V40.5"/><path stroke="currentColor" stroke-linecap="round" stroke-linejoin="round" d="m26.5 45.364 4.073 4.072L26.5 53.51"/></svg>
