<svg viewBox="0 0 16 16" fill="none" xmlns="http://www.w3.org/2000/svg" stroke="currentColor"><path d="M10 6.5H14C14.2761 6.5 14.5 6.72386 14.5 7V14C14.5 14.2761 14.2761 14.5 14 14.5H10C9.72386 14.5 9.5 14.2761 9.5 14V7C9.5 6.72386 9.72386 6.5 10 6.5Z"/><path d="M11.5 8.5H12.5" stroke-linecap="round"/><path d="M11.5 10.5H12.5" stroke-linecap="round"/><path d="M11.5 12.5H12.5" stroke-linecap="round"/><path d="M2 1.5H6C6.27614 1.5 6.5 1.72386 6.5 2V9C6.5 9.27614 6.27614 9.5 6 9.5H2C1.72386 9.5 1.5 9.27614 1.5 9V2C1.5 1.72386 1.72386 1.5 2 1.5Z"/><path d="M3.5 3.5H4.5" stroke-linecap="round"/><path d="M3.5 5.5H4.5" stroke-linecap="round"/><path d="M3.5 7.5H4.5" stroke-linecap="round"/><path d="M9.50195 2.5H11.5081C12.0604 2.5 12.5081 2.94772 12.5081 3.5V4.5" stroke-linecap="round"/><path d="M9.50203 1.50266L8.5082 2.5L9.50203 3.49734" stroke-linecap="round" stroke-linejoin="round"/><path d="M6.50623 13.5024H4.50005C3.94777 13.5024 3.50005 13.0547 3.50005 12.5024V11.5024" stroke-linecap="round"/><path d="M6.50616 14.4998L7.49999 13.4998L6.50616 12.5051" stroke-linecap="round" stroke-linejoin="round"/></svg>