<svg viewBox="0 0 24 24" fill="none" xmlns="http://www.w3.org/2000/svg" width="1em" height="1em"><path d="M7.53702 12.5V9.5C7.53702 8.94772 7.0893 8.5 6.53702 8.5H5.53702C4.98473 8.5 4.53702 8.94772 4.53702 9.5V12.5" stroke="currentColor"/><path d="M3 2.5L9 2.5C9.27614 2.5 9.5 2.72386 9.5 3V12C9.5 12.2761 9.27614 12.5 9 12.5H3C2.72386 12.5 2.5 12.2761 2.5 12L2.5 3C2.5 2.72386 2.72386 2.5 3 2.5Z" stroke="currentColor"/><path d="M4.5 4.5H7.5" stroke="currentColor" stroke-linecap="round"/><path d="M4.5 6.5H7.5" stroke="currentColor" stroke-linecap="round"/><path d="M19.537 21.5V18.5C19.537 17.9477 19.0893 17.5 18.537 17.5H17.537C16.9847 17.5 16.537 17.9477 16.537 18.5V21.5" stroke="currentColor"/><path d="M15 11.5H21C21.2761 11.5 21.5 11.7239 21.5 12V21C21.5 21.2761 21.2761 21.5 21 21.5H15C14.7239 21.5 14.5 21.2761 14.5 21V12C14.5 11.7239 14.7239 11.5 15 11.5Z" stroke="currentColor"/><path d="M16.5 13.5H19.5" stroke="currentColor" stroke-linecap="round"/><path d="M16.5 15.5H19.5" stroke="currentColor" stroke-linecap="round"/><path d="M12.5 5.5H16.5C17.0523 5.5 17.5 5.94772 17.5 6.5V8.5" stroke="currentColor" stroke-linecap="round"/><path d="M14.5 3.5L12.5 5.5L14.5 7.5" stroke="currentColor" stroke-linecap="round" stroke-linejoin="round"/><path d="M10.5 18.5001H6.5C5.94772 18.5001 5.5 18.0524 5.5 17.5001V15.5001" stroke="currentColor" stroke-linecap="round"/><path d="M8.50001 20.5L10.5 18.5001L8.5 16.5001" stroke="currentColor" stroke-linecap="round" stroke-linejoin="round"/></svg>
