<svg viewBox="0 0 32 32" fill="none" xmlns="http://www.w3.org/2000/svg" stroke="currentColor" width="1em" height="1em"><rect x="7.5" y="11.5" width="3" height="5" rx="0.5"/><path d="M5 2.5H13C13.2761 2.5 13.5 2.72386 13.5 3V16C13.5 16.2761 13.2761 16.5 13 16.5H5C4.72386 16.5 4.5 16.2761 4.5 16V3C4.5 2.72386 4.72386 2.5 5 2.5Z"/><path d="M5 4.5H3.5C2.94772 4.5 2.5 4.94772 2.5 5.5V15.5C2.5 16.0523 2.94772 16.5 3.5 16.5H5"/><path d="M6.5 5.5H11.5" stroke-linecap="round"/><path d="M6.5 8.5H11.5" stroke-linecap="round"/><rect x="23.5" y="24.5" width="3" height="5" rx="0.5"/><path d="M21 15.5H29C29.2761 15.5 29.5 15.7239 29.5 16V29C29.5 29.2761 29.2761 29.5 29 29.5H21C20.7239 29.5 20.5 29.2761 20.5 29V16C20.5 15.7239 20.7239 15.5 21 15.5Z"/><path d="M21 17.5H19.5C18.9477 17.5 18.5 17.9477 18.5 18.5V28.5C18.5 29.0523 18.9477 29.5 19.5 29.5H21"/><path d="M22.5 18.5H27.5" stroke-linecap="round"/><path d="M22.5 21.5H27.5" stroke-linecap="round"/><path d="M17.5 7.5L25.5 7.5L25.5 12" stroke-linecap="round" stroke-linejoin="round"/><path d="M19.5 9.5L17.5 7.5L19.5 5.5" stroke-linecap="round" stroke-linejoin="round"/><path d="M13 24.5L4.5 24.5L4.5 20" stroke-linecap="round" stroke-linejoin="round"/><path d="M11.5 22.5L13.5 24.5L11.5 26.5" stroke-linecap="round" stroke-linejoin="round"/></svg>
