<svg viewBox="0 0 16 16" fill="none" xmlns="http://www.w3.org/2000/svg" width="1em" height="1em"><path d="M10 6.5H14C14.2761 6.5 14.5 6.72386 14.5 7V14C14.5 14.2761 14.2761 14.5 14 14.5H10C9.72386 14.5 9.5 14.2761 9.5 14V7C9.5 6.72386 9.72386 6.5 10 6.5Z" stroke="currentColor"/><path d="M11.5 8.5H12.5" stroke="currentColor" stroke-linecap="round"/><path d="M11.5 10.5H12.5" stroke="currentColor" stroke-linecap="round"/><path d="M11.5 12.5H12.5" stroke="currentColor" stroke-linecap="round"/><path d="M2 1.5L6 1.5C6.27614 1.5 6.5 1.72386 6.5 2L6.5 9C6.5 9.27614 6.27614 9.5 6 9.5H2C1.72386 9.5 1.5 9.27614 1.5 9L1.5 2C1.5 1.72386 1.72386 1.5 2 1.5Z" stroke="currentColor"/><path d="M3.5 3.5H4.5" stroke="currentColor" stroke-linecap="round"/><path d="M3.5 5.5H4.5" stroke="currentColor" stroke-linecap="round"/><path d="M3.5 7.5H4.5" stroke="currentColor" stroke-linecap="round"/><path d="M9.50204 2.5H11.5082C12.0605 2.5 12.5082 2.94772 12.5082 3.5V4.5" stroke="currentColor" stroke-linecap="round"/><path d="M9.50204 1.5026L8.50822 2.49994L9.50204 3.49728" stroke="currentColor" stroke-linecap="round" stroke-linejoin="round"/><path d="M6.50617 13.5026H4.5C3.94771 13.5026 3.5 13.0549 3.5 12.5026V11.5026" stroke="currentColor" stroke-linecap="round"/><path d="M6.50617 14.5L7.5 13.5L6.50617 12.5053" stroke="currentColor" stroke-linecap="round" stroke-linejoin="round"/></svg>
