<svg viewBox="0 0 24 24" fill="none" xmlns="http://www.w3.org/2000/svg" stroke="currentColor"><path d="M7.53699 12.5V9.5C7.53699 8.94772 7.08927 8.5 6.53699 8.5H5.53699C4.9847 8.5 4.53699 8.94772 4.53699 9.5V12.5"/><path d="M3 2.5H9C9.27614 2.5 9.5 2.72386 9.5 3V12C9.5 12.2761 9.27614 12.5 9 12.5H3C2.72386 12.5 2.5 12.2761 2.5 12V3C2.5 2.72386 2.72386 2.5 3 2.5Z"/><path d="M4.5 4.5H7.5" stroke-linecap="round"/><path d="M4.5 6.5H7.5" stroke-linecap="round"/><path d="M19.537 21.5V18.5C19.537 17.9477 19.0893 17.5 18.537 17.5H17.537C16.9847 17.5 16.537 17.9477 16.537 18.5V21.5"/><path d="M15 11.5H21C21.2761 11.5 21.5 11.7239 21.5 12V21C21.5 21.2761 21.2761 21.5 21 21.5H15C14.7239 21.5 14.5 21.2761 14.5 21V12C14.5 11.7239 14.7239 11.5 15 11.5Z"/><path d="M16.5 13.5H19.5" stroke-linecap="round"/><path d="M16.5 15.5H19.5" stroke-linecap="round"/><path d="M13.5 5.5H16.5C17.0523 5.5 17.5 5.94772 17.5 6.5V8.5" stroke-linecap="round"/><path d="M14.5 3.5L12.5 5.5L14.5 7.5" stroke-linecap="round" stroke-linejoin="round"/><path d="M10.5 18.5H6.5C5.94772 18.5 5.5 18.0523 5.5 17.5V15.5" stroke-linecap="round"/><path d="M8.50006 20.4999L10.5001 18.5L8.50006 16.5001" stroke-linecap="round" stroke-linejoin="round"/></svg>
