<svg xmlns="http://www.w3.org/2000/svg" fill="none" viewBox="0 0 24 24" width="1em" height="1em"><path stroke="currentColor" d="M7.537 12.5v-3a1 1 0 0 0-1-1h-1a1 1 0 0 0-1 1v3"/><path stroke="currentColor" d="M3 2.5h6a.5.5 0 0 1 .5.5v9a.5.5 0 0 1-.5.5H3a.5.5 0 0 1-.5-.5V3a.5.5 0 0 1 .5-.5Z"/><path stroke="currentColor" stroke-linecap="round" d="M4.5 4.5h3m-3 2h3"/><path stroke="currentColor" d="M19.537 21.5v-3a1 1 0 0 0-1-1h-1a1 1 0 0 0-1 1v3"/><path stroke="currentColor" d="M15 11.5h6a.5.5 0 0 1 .5.5v9a.5.5 0 0 1-.5.5h-6a.5.5 0 0 1-.5-.5v-9a.5.5 0 0 1 .5-.5Z"/><path stroke="currentColor" stroke-linecap="round" d="M16.5 13.5h3m-3 2h3m-7-10h4a1 1 0 0 1 1 1v2"/><path stroke="currentColor" stroke-linecap="round" stroke-linejoin="round" d="m14.5 3.5-2 2 2 2"/><path stroke="currentColor" stroke-linecap="round" d="M10.5 18.5h-4a1 1 0 0 1-1-1v-2"/><path stroke="currentColor" stroke-linecap="round" stroke-linejoin="round" d="m8.5 20.5 2-2-2-2"/></svg>
