<svg viewBox="0 0 64 64" fill="none" xmlns="http://www.w3.org/2000/svg" width="1em" height="1em"><mask id="path-1-inside-1_2_59191" fill="currentColor"><path d="M14.5 25C14.5 24.4477 14.9477 24 15.5 24H21.5C22.0523 24 22.5 24.4477 22.5 25V35H14.5V25Z"/></mask><path d="M22.5 35V36H23.5V35H22.5ZM14.5 35H13.5V36H14.5V35ZM15.5 25H21.5V23H15.5V25ZM21.5 25V35H23.5V25H21.5ZM22.5 34H14.5V36H22.5V34ZM15.5 35V25H13.5V35H15.5ZM21.5 25H23.5C23.5 23.8954 22.6046 23 21.5 23V25ZM15.5 23C14.3954 23 13.5 23.8954 13.5 25H15.5V25V23Z" fill="currentColor" mask="url(#path-1-inside-1_2_59191)"/><path d="M9.5 5.5H27.5C27.7761 5.5 28 5.72386 28 6V34C28 34.2761 27.7761 34.5 27.5 34.5H9.5C9.22386 34.5 9 34.2761 9 34V6C9 5.72386 9.22386 5.5 9.5 5.5Z" stroke="currentColor"/><path d="M9.5 10.5H6C5.44772 10.5 5 10.9477 5 11.5L5 33C5 33.5523 5.44772 34 6 34H9.5" stroke="currentColor"/><line x1="14" y1="10.5" x2="24" y2="10.5" stroke="currentColor" stroke-linecap="round"/><line x1="14" y1="15.5" x2="24" y2="15.5" stroke="currentColor" stroke-linecap="round"/><line x1="14" y1="20.5" x2="24" y2="20.5" stroke="currentColor" stroke-linecap="round"/><mask id="path-8-inside-2_2_59191" fill="currentColor"><path d="M46 51C46 50.4477 46.4477 50 47 50H53C53.5523 50 54 50.4477 54 51V61H46V51Z"/></mask><path d="M54 61V62H55V61H54ZM46 61H45V62H46V61ZM47 51H53V49H47V51ZM53 51V61H55V51H53ZM54 60H46V62H54V60ZM47 61V51H45V61H47ZM53 51H55C55 49.8954 54.1046 49 53 49V51ZM47 49C45.8954 49 45 49.8954 45 51H47V51V49Z" fill="currentColor" mask="url(#path-8-inside-2_2_59191)"/><path d="M41 31.5H59C59.2761 31.5 59.5 31.7239 59.5 32V60C59.5 60.2761 59.2761 60.5 59 60.5H41C40.7239 60.5 40.5 60.2761 40.5 60V32C40.5 31.7239 40.7239 31.5 41 31.5Z" stroke="currentColor"/><path d="M41 36.5H37.5C36.9477 36.5 36.5 36.9477 36.5 37.5L36.5 59C36.5 59.5523 36.9477 60 37.5 60H41" stroke="currentColor"/><line x1="45.5" y1="36.5" x2="55.5" y2="36.5" stroke="currentColor" stroke-linecap="round"/><line x1="45.5" y1="41.5" x2="55.5" y2="41.5" stroke="currentColor" stroke-linecap="round"/><line x1="45.5" y1="46.5" x2="55.5" y2="46.5" stroke="currentColor" stroke-linecap="round"/><path d="M37.5272 16.5001L54.5 16.5001L54.5 25.3638" stroke="currentColor" stroke-linecap="round" stroke-linejoin="round"/><path d="M41.4999 20.5L37.4272 16.4273L41.4999 12.3545" stroke="currentColor" stroke-linecap="round" stroke-linejoin="round"/><path d="M30.4728 49.3636L13.5 49.3636L13.5 40.5" stroke="currentColor" stroke-linecap="round" stroke-linejoin="round"/><path d="M26.5001 45.3638L30.5728 49.4365L26.5001 53.5092" stroke="currentColor" stroke-linecap="round" stroke-linejoin="round"/></svg>
