<svg xmlns="http://www.w3.org/2000/svg" fill="none" viewBox="0 0 16 17" width="1em" height="1em"><path stroke="currentColor" stroke-linecap="round" stroke-linejoin="round" d="M10 11.8v0a.8.8 0 0 0-.8-.8H7a1 1 0 0 0-1 1v0a1 1 0 0 0 1 1h2a1 1 0 0 1 1 1v0a1 1 0 0 1-1 1H6.8a.8.8 0 0 1-.8-.8v0"/><path stroke="currentColor" stroke-linecap="round" d="m8 8 2-2"/><path stroke="currentColor" stroke-linecap="round" stroke-linejoin="round" d="M1 8h4m6 0h4m-2.918 6A7.219 7.219 0 0 0 15 8.173C15 4.21 11.866 1 8 1S1 4.211 1 8.173c0 2.4 1.15 4.525 2.918 5.827"/><path stroke="currentColor" stroke-dasharray="0.5 2" stroke-linecap="round" stroke-linejoin="round" d="M13 8A5 5 0 0 0 3 8"/><path stroke="currentColor" stroke-linecap="round" d="M8 11v-1m0 1v-1m0 6v-1"/></svg>
