<svg xmlns="http://www.w3.org/2000/svg" fill="none" viewBox="0 0 32 32" width="1em" height="1em"><path stroke="currentColor" d="M17 16a1 1 0 1 1-2 0 1 1 0 0 1 2 0Z"/><path fill="currentColor" d="M19.475 13.232a.5.5 0 0 0-.707-.707zm-2.121 2.122 2.12-2.122-.706-.707-2.122 2.121z"/><path stroke="currentColor" stroke-linecap="round" stroke-linejoin="round" d="M3.5 16h9m7.5 0h9m-5.338 10.5c3.282-2.354 5.419-6.195 5.419-10.534 0-7.161-5.82-12.966-13-12.966s-13 5.805-13 12.966c0 4.34 2.137 8.18 5.42 10.534"/><path stroke="currentColor" stroke-linecap="round" stroke-linejoin="round" d="M19 23.105v-.18c0-.994-.86-1.8-1.92-1.8H14.8c-.994 0-1.8.756-1.8 1.688s.806 1.687 1.8 1.687h2.4c.994 0 1.8.756 1.8 1.688s-.806 1.687-1.8 1.687h-2.28c-1.06 0-1.92-.806-1.92-1.8v-.36m3-6.215v1.625m0 6.75V29.5"/><path stroke="currentColor" stroke-dasharray="1 4" stroke-linecap="round" stroke-linejoin="round" d="M25 16a9 9 0 1 0-18 0"/></svg>
