<svg xmlns="http://www.w3.org/2000/svg" fill="none" viewBox="0 0 24 24" width="1em" height="1em"><path stroke="currentColor" stroke-linecap="round" stroke-linejoin="round" d="M14.5 17.26v-.16a1.6 1.6 0 0 0-1.6-1.6H11a1.5 1.5 0 0 0 0 3h2a1.5 1.5 0 1 1 0 3h-1.9a1.6 1.6 0 0 1-1.6-1.6v-.32M12 14.5v1m0 6v1"/><path stroke="currentColor" d="M12.5 12a.5.5 0 1 1-1 0 .5.5 0 0 1 1 0Z"/><path fill="currentColor" d="M14.854 9.854a.5.5 0 0 0-.708-.708zm-2 2 2-2-.708-.708-2 2z"/><path stroke="currentColor" stroke-linecap="round" stroke-linejoin="round" d="M2.625 12H7.5m9 0h5.25m-3.918 9C20.356 19.097 22 15.991 22 12.483 22 6.693 17.523 2 12 2S2 6.693 2 12.483C2 15.991 3.644 19.097 6.168 21"/><path stroke="currentColor" stroke-dasharray="0.75 3" stroke-linecap="round" stroke-linejoin="round" d="M19 12a7 7 0 1 0-14 0"/></svg>
