<svg viewBox="0 0 24 24" fill="none" xmlns="http://www.w3.org/2000/svg" width="1em" height="1em"><circle cx="15.5" cy="11.5" r="4" stroke="currentColor"/><path d="M21.5 17.5L18.5 14.4998" stroke="currentColor" stroke-linecap="round" stroke-linejoin="round"/><path d="M17 6.44294C17 6.71908 17.2239 6.94294 17.5 6.94294C17.7761 6.94294 18 6.71908 18 6.44294H17ZM18 16.8261C18 16.5499 17.7761 16.3261 17.5 16.3261C17.2239 16.3261 17 16.5499 17 16.8261H18ZM3.5 4H16.5V3H3.5V4ZM16.5 21H3.5V22H16.5V21ZM3 20.5V4.5H2V20.5H3ZM17 4.49958V6.44294H18V4.49958H17ZM18 20.5V16.8261H17V20.5H18ZM3.5 21C3.22386 21 3 20.7761 3 20.5H2C2 21.3284 2.67157 22 3.5 22V21ZM16.5 22C17.3284 22 18 21.3284 18 20.5H17C17 20.7761 16.7761 21 16.5 21V22ZM16.5 4C16.7764 4 17 4.22371 17 4.49958H18C18 3.67089 17.3282 3 16.5 3V4ZM3.5 3C2.67157 3 2 3.67157 2 4.5H3C3 4.22386 3.22386 4 3.5 4V3Z" fill="currentColor"/><path d="M9.5 17C9.22386 17 9 17.2239 9 17.5C9 17.7761 9.22386 18 9.5 18V17ZM14.5 18C14.7761 18 15 17.7761 15 17.5C15 17.2239 14.7761 17 14.5 17V18ZM9.5 18H14.5V17H9.5V18Z" fill="currentColor"/><rect x="5.5" y="16.5" width="2" height="2" rx="0.5" stroke="currentColor"/><path d="M9.5 12C9.22386 12 9 12.2239 9 12.5C9 12.7761 9.22386 13 9.5 13L9.5 12ZM10 13C10.2761 13 10.5 12.7761 10.5 12.5C10.5 12.2239 10.2761 12 10 12L10 13ZM9.5 13L10 13L10 12L9.5 12L9.5 13Z" fill="currentColor"/><rect x="5.5" y="11.5" width="2" height="2" rx="0.5" stroke="currentColor"/><path d="M9.5 7C9.22386 7 9 7.22386 9 7.5C9 7.77614 9.22386 8 9.5 8V7ZM11.5 8C11.7761 8 12 7.77614 12 7.5C12 7.22386 11.7761 7 11.5 7V8ZM9.5 8H11.5V7H9.5V8Z" fill="currentColor"/><path d="M5.5 7C5.5 6.72386 5.72386 6.5 6 6.5H7C7.27614 6.5 7.5 6.72386 7.5 7V8C7.5 8.27614 7.27614 8.5 7 8.5H6C5.72386 8.5 5.5 8.27614 5.5 8V7Z" stroke="currentColor"/></svg>
