<svg xmlns="http://www.w3.org/2000/svg" fill="none" viewBox="0 0 24 24" width="1em" height="1em"><circle cx="15.5" cy="11.5" r="4" stroke="currentColor"/><path stroke="currentColor" stroke-linecap="round" stroke-linejoin="round" d="m21.5 17.5-3-3"/><path stroke="currentColor" stroke-linecap="round" d="M17.5 6.443V4.5a1 1 0 0 0-1-1h-13a1 1 0 0 0-1 1v16a1 1 0 0 0 1 1h13a1 1 0 0 0 1-1v-3.674m-8 .674h5"/><rect width="2" height="2" x="5.5" y="16.5" stroke="currentColor" rx=".5"/><path stroke="currentColor" stroke-linecap="round" d="M9.5 12.5h.5"/><rect width="2" height="2" x="5.5" y="11.5" stroke="currentColor" rx=".5"/><path stroke="currentColor" stroke-linecap="round" d="M9.5 7.5h2"/><path stroke="currentColor" d="M5.5 7a.5.5 0 0 1 .5-.5h1a.5.5 0 0 1 .5.5v1a.5.5 0 0 1-.5.5H6a.5.5 0 0 1-.5-.5V7Z"/></svg>
