<svg viewBox="0 0 32 32" fill="none" xmlns="http://www.w3.org/2000/svg" width="1em" height="1em"><circle cx="22.5" cy="14.5" r="5" stroke="currentColor"/><path d="M29.5 21.5L26.5 18.5" stroke="currentColor" stroke-linecap="round" stroke-linejoin="round"/><path d="M25 8.5C25 8.77614 25.2239 9 25.5 9C25.7761 9 26 8.77614 26 8.5H25ZM26 23.5C26 23.2239 25.7761 23 25.5 23C25.2239 23 25 23.2239 25 23.5H26ZM5.5 5H24.5V4H5.5V5ZM24.5 27H5.5V28H24.5V27ZM5 26.5V5.5H4V26.5H5ZM25 5.4992V8.5H26V5.4992H25ZM26 26.5V23.5H25V26.5H26ZM5.5 27C5.22386 27 5 26.7761 5 26.5H4C4 27.3284 4.67157 28 5.5 28V27ZM24.5 28C25.3284 28 26 27.3284 26 26.5H25C25 26.7761 24.7761 27 24.5 27V28ZM24.5 5C24.7767 5 25 5.22358 25 5.4992H26C26 4.67025 25.3279 4 24.5 4V5ZM5.5 4C4.67157 4 4 4.67157 4 5.5H5C5 5.22386 5.22386 5 5.5 5V4Z" fill="currentColor"/><path d="M13 22.5C12.7239 22.5 12.5 22.7239 12.5 23C12.5 23.2761 12.7239 23.5 13 23.5V22.5ZM20.5 23.5C20.7761 23.5 21 23.2761 21 23C21 22.7239 20.7761 22.5 20.5 22.5V23.5ZM13 23.5H20.5V22.5H13V23.5Z" fill="currentColor"/><rect x="7.5" y="21.5" width="3" height="3" rx="0.5" stroke="currentColor"/><path d="M13 15.5C12.7239 15.5 12.5 15.7239 12.5 16C12.5 16.2761 12.7239 16.5 13 16.5V15.5ZM15.5 16.5C15.7761 16.5 16 16.2761 16 16C16 15.7239 15.7761 15.5 15.5 15.5V16.5ZM13 16.5H15.5V15.5H13V16.5Z" fill="currentColor"/><rect x="7.5" y="14.5" width="3" height="3" rx="0.5" stroke="currentColor"/><path d="M13 8.5C12.7239 8.5 12.5 8.72386 12.5 9C12.5 9.27614 12.7239 9.5 13 9.5V8.5ZM17.5 9.5C17.7761 9.5 18 9.27614 18 9C18 8.72386 17.7761 8.5 17.5 8.5V9.5ZM13 9.5H17.5V8.5H13V9.5Z" fill="currentColor"/><rect x="7.5" y="7.5" width="3" height="3" rx="0.5" stroke="currentColor"/></svg>
