<svg viewBox="0 0 16 16" fill="none" xmlns="http://www.w3.org/2000/svg" width="1em" height="1em"><circle cx="11" cy="8" r="2.5" stroke="currentColor"/><path d="M14.4143 11.4143L13.0001 10.0001" stroke="currentColor" stroke-linecap="round" stroke-linejoin="round"/><path d="M13.5 13C13.5 12.7239 13.2761 12.5 13 12.5C12.7239 12.5 12.5 12.7239 12.5 13H13.5ZM12.5 3C12.5 3.27614 12.7239 3.5 13 3.5C13.2761 3.5 13.5 3.27614 13.5 3H12.5ZM3.5 2H11.5V1H3.5V2ZM11.5 14H3.5V15H11.5V14ZM2 12.5V3.5H1V12.5H2ZM3.5 14C2.67157 14 2 13.3284 2 12.5H1C1 13.8807 2.11929 15 3.5 15V14ZM11.5 15C12.6046 15 13.5 14.1046 13.5 13H12.5C12.5 13.5523 12.0523 14 11.5 14V15ZM11.5 2C12.0523 2 12.5 2.44772 12.5 3H13.5C13.5 1.89543 12.6046 1 11.5 1V2ZM3.5 1C2.11929 1 1 2.11929 1 3.5H2C2 2.67157 2.67157 2 3.5 2V1Z" fill="currentColor"/><path d="M4.5 11.5H5.5" stroke="currentColor" stroke-linecap="round"/><path d="M7.5 11.5H9" stroke="currentColor" stroke-linecap="round"/><path d="M4.5 8H5.5" stroke="currentColor" stroke-linecap="round"/><path d="M7.5 8H8.5" stroke="currentColor" stroke-linecap="round"/><path d="M4.5 4.5H5.5" stroke="currentColor" stroke-linecap="round"/><path d="M7.5 4.5H8.5" stroke="currentColor" stroke-linecap="round"/></svg>
