<svg xmlns="http://www.w3.org/2000/svg" fill="none" viewBox="0 0 32 32" width="1em" height="1em"><circle cx="22.5" cy="14.5" r="5" stroke="currentColor"/><path stroke="currentColor" stroke-linecap="round" stroke-linejoin="round" d="m29.5 21.5-3-3"/><path stroke="currentColor" stroke-linecap="round" d="M25.5 8.5v-3a1 1 0 0 0-1-1h-19a1 1 0 0 0-1 1v21a1 1 0 0 0 1 1h19a1 1 0 0 0 1-1v-3M13 23h7.5"/><rect width="3" height="3" x="7.5" y="21.5" stroke="currentColor" rx=".5"/><path stroke="currentColor" stroke-linecap="round" d="M13 16h2.5"/><rect width="3" height="3" x="7.5" y="14.5" stroke="currentColor" rx=".5"/><path stroke="currentColor" stroke-linecap="round" d="M13 9h4.5"/><rect width="3" height="3" x="7.5" y="7.5" stroke="currentColor" rx=".5"/></svg>
