<svg viewBox="0 0 32 32" fill="none" xmlns="http://www.w3.org/2000/svg" width="1em" height="1em"><circle cx="22.5" cy="14.5" r="5" stroke="currentColor"/><path d="M29.5 21.5L26.5 18.5" stroke="currentColor" stroke-linecap="round" stroke-linejoin="round"/><path d="M25.5 8.5C25.5 8.08932 25.5 6.54439 25.5 5.4992C25.5 4.94692 25.0523 4.5 24.5 4.5L5.5 4.5C4.94772 4.5 4.5 4.94772 4.5 5.5L4.5 26.5C4.5 27.0523 4.94772 27.5 5.5 27.5L24.5 27.5C25.0523 27.5 25.5 27.0523 25.5 26.5V23.5" stroke="currentColor" stroke-linecap="round"/><path d="M13 23H20.5" stroke="currentColor" stroke-linecap="round"/><rect x="7.5" y="21.5" width="3" height="3" rx="0.5" stroke="currentColor"/><path d="M13 16H15.5" stroke="currentColor" stroke-linecap="round"/><rect x="7.5" y="14.5" width="3" height="3" rx="0.5" stroke="currentColor"/><path d="M13 9H17.5" stroke="currentColor" stroke-linecap="round"/><rect x="7.5" y="7.5" width="3" height="3" rx="0.5" stroke="currentColor"/></svg>
