<svg xmlns="http://www.w3.org/2000/svg" fill="none" viewBox="0 0 24 24" width="1em" height="1em"><rect width="15" height="15" x="12.314" y="1.707" stroke="currentColor" rx="1.5" transform="rotate(45 12.314 1.707)"/><path fill="currentColor" d="M8.937 10.62c0-.92-.644-1.38-1.512-1.38h-.936V12h.936c.872 0 1.512-.456 1.512-1.38m-.656 0c0 .512-.308.832-.82.832h-.328V9.776h.328c.524 0 .82.324.82.844M11.445 12v-.524h-1.18v-.64h1.08v-.516h-1.08v-.564h1.144V9.24H9.621V12zm3.203 0-1.04-2.764h-.672L11.896 12h.672l.196-.556h.984l.196.556zM13.6 10.94h-.688l.344-.992zm4.05-.32c0-.92-.643-1.38-1.511-1.38h-.936V12h.936c.872 0 1.512-.456 1.512-1.38m-.655 0c0 .512-.308.832-.82.832h-.328V9.776h.328c.524 0 .82.324.82.844M9.738 16v-.524h-1.18v-.64h1.08v-.516h-1.08v-.564h1.144v-.516H7.914V16zm3.215 0v-2.76h-.632v1.252c0 .292.012.604.012.604L11.15 13.24h-.692V16h.632v-1.248c0-.292-.012-.624-.012-.624L12.29 16zm3.272-1.38c0-.92-.644-1.38-1.512-1.38h-.936V16h.936c.872 0 1.512-.456 1.512-1.38m-.656 0c0 .512-.308.832-.82.832h-.328v-1.676h.328c.524 0 .82.324.82.844"/></svg>
