<svg xmlns="http://www.w3.org/2000/svg" fill="none" viewBox="0 0 32 32" width="1em" height="1em"><path stroke="currentColor" d="M14.789 2.768a1.5 1.5 0 0 1 2.12 0l12.022 12.02a1.5 1.5 0 0 1 0 2.122L16.91 28.93a1.5 1.5 0 0 1-2.121 0L2.768 16.91a1.5 1.5 0 0 1 0-2.121l12.02-12.021Z"/><path fill="currentColor" d="M12.171 14.275c0-1.15-.805-1.725-1.89-1.725h-1.17V16h1.17c1.09 0 1.89-.57 1.89-1.725Zm-.82 0c0 .64-.385 1.04-1.025 1.04h-.41V13.22h.41c.655 0 1.025.405 1.025 1.055ZM15.307 16v-.655h-1.475v-.8h1.35V13.9h-1.35v-.705h1.43v-.645h-2.235V16h2.28Zm4.003 0-1.3-3.455h-.84L15.87 16h.84l.245-.695h1.23l.245.695h.88ZM18 14.675h-.86l.43-1.24.43 1.24Zm5.063-.4c0-1.15-.805-1.725-1.89-1.725h-1.17V16h1.17c1.09 0 1.89-.57 1.89-1.725Zm-.82 0c0 .64-.385 1.04-1.025 1.04h-.41V13.22h.41c.655 0 1.025.405 1.025 1.055ZM13.173 21v-.655h-1.475v-.8h1.35V18.9h-1.35v-.705h1.43v-.645h-2.235V21h2.28Zm4.018 0v-3.45h-.79v1.565c0 .365.015.755.015.755l-1.48-2.32h-.865V21h.79v-1.56c0-.365-.015-.78-.015-.78L16.361 21h.83Zm4.09-1.725c0-1.15-.805-1.725-1.89-1.725h-1.17V21h1.17c1.09 0 1.89-.57 1.89-1.725Zm-.82 0c0 .64-.385 1.04-1.025 1.04h-.41V18.22h.41c.655 0 1.025.405 1.025 1.055Z"/></svg>
