<svg viewBox="0 0 24 24" fill="none" xmlns="http://www.w3.org/2000/svg" width="1em" height="1em"><circle cx="8.5" cy="21.5" r="1" stroke="currentColor"/><circle cx="16.5" cy="21.5" r="1" stroke="currentColor"/><path d="M2.5 6.5H4.5L8 16.5" stroke="currentColor" stroke-linecap="round" stroke-linejoin="round"/><path d="M5.5 8C5.22386 8 5 8.22386 5 8.5C5 8.77614 5.22386 9 5.5 9V8ZM17.7857 19C18.0619 19 18.2857 18.7761 18.2857 18.5C18.2857 18.2239 18.0619 18 17.7857 18V19ZM5.5 9H19.6398V8H5.5V9ZM20.117 9.64914L18.4613 14.9474L19.4158 15.2457L21.0715 9.94741L20.117 9.64914ZM17.0296 16H7.53571V17H17.0296V16ZM7.53571 19H17.7857V18H7.53571V19ZM6.03571 17.5C6.03571 18.3284 6.70729 19 7.53571 19V18C7.25957 18 7.03571 17.7761 7.03571 17.5H6.03571ZM7.53571 16C6.70729 16 6.03571 16.6716 6.03571 17.5H7.03571C7.03571 17.2239 7.25957 17 7.53571 17V16ZM18.4613 14.9474C18.2656 15.5736 17.6857 16 17.0296 16V17C18.1231 17 19.0897 16.2894 19.4158 15.2457L18.4613 14.9474ZM19.6398 9C19.9771 9 20.2177 9.32717 20.117 9.64914L21.0715 9.94741C21.3734 8.98152 20.6518 8 19.6398 8V9Z" fill="currentColor"/><path d="M11 4H14" stroke="currentColor" stroke-linecap="round"/></svg>
