<svg xmlns="http://www.w3.org/2000/svg" fill="none" viewBox="0 0 24 24" width="1em" height="1em"><path stroke="currentColor" d="M13.478 3v3.51a2 2 0 0 0 2 2h3.83"/><path stroke="currentColor" d="M18 20.5H6A1.5 1.5 0 0 1 4.5 19V5A1.5 1.5 0 0 1 6 3.5h8.102a1.5 1.5 0 0 1 1.121.503l3.898 4.386a1.5 1.5 0 0 1 .379.996V19a1.5 1.5 0 0 1-1.5 1.5Z"/><path stroke="currentColor" stroke-linejoin="round" d="m7.5 17.5 3-5 3 3 3-5"/><path stroke="currentColor" d="M11 12.5a.5.5 0 1 1-1 0 .5.5 0 0 1 1 0Zm3 3a.5.5 0 1 1-1 0 .5.5 0 0 1 1 0Z"/><circle cx="16" cy="11" r=".5" stroke="currentColor"/><path stroke="currentColor" stroke-linecap="round" stroke-linejoin="round" d="M7.5 10v7.5H16"/></svg>
