<svg viewBox="0 0 32 32" fill="none" xmlns="http://www.w3.org/2000/svg" width="1em" height="1em"><path d="M24 27.5H8C7.17157 27.5 6.5 26.8284 6.5 26V6C6.5 5.17157 7.17157 4.5 8 4.5H18.1309C18.5467 4.5 18.9438 4.67257 19.2275 4.97652L25.0966 11.2648C25.3558 11.5426 25.5 11.9084 25.5 12.2883V26C25.5 26.8284 24.8284 27.5 24 27.5Z" stroke="currentColor"/><path d="M17.4918 4V9.5C17.4918 10.6046 18.3873 11.5 19.4918 11.5H24.9864" stroke="currentColor"/><path d="M9.5 23.5L13 17L17 21L21 14" stroke="currentColor"/><circle cx="13" cy="17" r="0.5" stroke="currentColor"/><circle cx="17" cy="21" r="0.5" stroke="currentColor"/><circle cx="21" cy="14" r="0.5" stroke="currentColor"/><path d="M9.5 13.5V23.5H21.5" stroke="currentColor" stroke-linecap="round" stroke-linejoin="round"/></svg>
