<svg xmlns="http://www.w3.org/2000/svg" fill="none" viewBox="0 0 16 16" width="1em" height="1em"><path stroke="currentColor" d="M12 14.5H4A1.5 1.5 0 0 1 2.5 13V3A1.5 1.5 0 0 1 4 1.5h4.68a1.5 1.5 0 0 1 1.053.432l3.32 3.274a1.5 1.5 0 0 1 .447 1.068V13a1.5 1.5 0 0 1-1.5 1.5Z"/><path stroke="currentColor" d="M9.5 1.5v4a1 1 0 0 0 1 1h3"/><path stroke="currentColor" stroke-linecap="round" stroke-linejoin="round" d="M4.5 12.5 7 9l2 2 2.5-3"/><path stroke="currentColor" stroke-linecap="round" stroke-linejoin="round" d="M4.5 6.31v6.19h7"/></svg>
