<svg xmlns="http://www.w3.org/2000/svg" fill="none" viewBox="0 0 32 32" width="1em" height="1em"><path stroke="currentColor" d="M24 27.5H8A1.5 1.5 0 0 1 6.5 26V6A1.5 1.5 0 0 1 8 4.5h10.13a1.5 1.5 0 0 1 1.098.477l5.869 6.288a1.5 1.5 0 0 1 .403 1.023V26a1.5 1.5 0 0 1-1.5 1.5Z"/><path stroke="currentColor" d="M17.492 4v5.5a2 2 0 0 0 2 2h5.494M9.5 23.5 13 17l4 4 4-7"/><circle cx="13" cy="17" r=".5" stroke="currentColor"/><circle cx="17" cy="21" r=".5" stroke="currentColor"/><circle cx="21" cy="14" r=".5" stroke="currentColor"/><path stroke="currentColor" stroke-linecap="round" stroke-linejoin="round" d="M9.5 13.5v10h12"/></svg>
