<svg xmlns="http://www.w3.org/2000/svg" fill="none" viewBox="0 0 16 16" width="1em" height="1em"><path stroke="currentColor" d="M7.558 1.774a.51.51 0 0 1 .884 0l1.123 1.964a.51.51 0 0 1-.442.762H6.877a.51.51 0 0 1-.442-.762z"/><path fill="currentColor" stroke="currentColor" d="M4.884 6.848a.51.51 0 0 1 .483-.348h5.266c.22 0 .414.14.483.348l.66 1.982c.11.33-.135.67-.482.67H4.706a.51.51 0 0 1-.483-.67zm-2 5a.51.51 0 0 1 .483-.348h9.266c.22 0 .414.14.483.348l.66 1.982c.11.33-.135.67-.482.67H2.706a.51.51 0 0 1-.483-.67z"/></svg>
