<svg viewBox="0 0 24 24" fill="none" xmlns="http://www.w3.org/2000/svg" width="1em" height="1em"><path d="M11.395 3.90768C11.6829 3.47588 12.3174 3.47589 12.6052 3.9077L14.2462 6.36932C14.5684 6.85263 14.222 7.5 13.6411 7.5L10.359 7.5C9.77808 7.5 9.43161 6.85261 9.75383 6.3693L11.395 3.90768Z" stroke="currentColor"/><path d="M7.79899 9.90203C7.92218 9.65564 8.17401 9.5 8.44948 9.5L15.5505 9.5C15.826 9.5 16.0778 9.65564 16.201 9.90203L17.4737 12.4475C17.7155 12.931 17.3639 13.5 16.8232 13.5L7.17675 13.5C6.63611 13.5 6.28448 12.931 6.52626 12.4475L7.79899 9.90203Z" fill="currentColor" stroke="currentColor"/><path d="M4.78814 15.8531C4.91958 15.634 5.15631 15.5 5.41177 15.5L18.5882 15.5C18.8437 15.5 19.0804 15.634 19.2119 15.8531L21.3391 19.3985C21.63 19.8833 21.2808 20.5 20.7155 20.5L3.2845 20.5C2.7192 20.5 2.37002 19.8833 2.66087 19.3985L4.78814 15.8531Z" fill="currentColor" stroke="currentColor"/></svg>
