<svg xmlns="http://www.w3.org/2000/svg" fill="none" viewBox="0 0 32 32" width="1em" height="1em"><rect width="27" height="27" x="2.5" y="2.5" stroke="currentColor" rx="6"/><path fill="currentColor" d="M12.794 21.18a5.72 5.72 0 0 1-2.024-.36 5.233 5.233 0 0 1-1.695-1.065 5.182 5.182 0 0 1-1.155-1.68c-.28-.66-.42-1.405-.42-2.235 0-.83.14-1.57.42-2.22.29-.66.675-1.22 1.155-1.68a4.917 4.917 0 0 1 1.695-1.065 5.516 5.516 0 0 1 2.024-.375c.71 0 1.386.125 2.025.375.64.24 1.2.595 1.68 1.065.49.46.876 1.02 1.155 1.68.29.65.436 1.39.436 2.22 0 .83-.145 1.575-.436 2.235-.28.66-.66 1.22-1.14 1.68-.48.46-1.04.815-1.68 1.065-.64.24-1.32.36-2.04.36Zm0-1.02c.56 0 1.09-.1 1.59-.3.51-.2.95-.485 1.32-.855.38-.37.68-.825.9-1.365.22-.54.33-1.145.33-1.815 0-.68-.11-1.285-.33-1.815-.22-.54-.52-.995-.9-1.365-.37-.37-.81-.65-1.32-.84-.5-.2-1.03-.3-1.59-.3s-1.09.1-1.59.3c-.5.19-.94.47-1.32.84-.38.37-.68.825-.9 1.365-.22.53-.33 1.135-.33 1.815 0 .67.11 1.275.33 1.815.23.54.53.995.9 1.365.38.37.82.655 1.32.855.51.2 1.04.3 1.59.3Zm8.059-8.55h-3.015v-.96h7.14v.96h-3V21h-1.125v-9.39Z"/></svg>
