<svg xmlns="http://www.w3.org/2000/svg" fill="none" viewBox="0 0 16 16" width="1em" height="1em"><rect width="13" height="13" x="1.5" y="1.5" stroke="currentColor" rx="3.5"/><path fill="currentColor" d="M4.467 7.936c0-.332.056-.63.168-.894.116-.264.272-.488.468-.672a2 2 0 0 1 .684-.42c.264-.1.546-.15.846-.15.3 0 .582.05.846.15a1.956 1.956 0 0 1 1.146 1.092 2.2 2.2 0 0 1 .174.894 2.2 2.2 0 0 1-.174.894 1.956 1.956 0 0 1-.462.672 2 2 0 0 1-.684.426 2.456 2.456 0 0 1-.846.144c-.3 0-.582-.048-.846-.144A2.027 2.027 0 0 1 4.635 8.83a2.269 2.269 0 0 1-.168-.894Zm2.166 1.452c.192 0 .37-.034.534-.102a1.24 1.24 0 0 0 .432-.288 1.33 1.33 0 0 0 .288-.462 1.62 1.62 0 0 0 .108-.606 1.62 1.62 0 0 0-.108-.606 1.269 1.269 0 0 0-.288-.456 1.14 1.14 0 0 0-.432-.288 1.38 1.38 0 0 0-.534-.102c-.192 0-.372.034-.54.102-.164.064-.308.16-.432.288-.12.124-.216.276-.288.456-.068.18-.102.382-.102.606 0 .224.034.426.102.606.072.18.17.334.294.462.124.124.268.22.432.288.164.068.342.102.534.102ZM8.644 5.86h3.048v.63h-1.134V10h-.774V6.49h-1.14v-.63Z"/></svg>
