<svg xmlns="http://www.w3.org/2000/svg" fill="none" viewBox="0 0 24 24" width="1em" height="1em"><rect width="19" height="19" x="2.5" y="2.5" stroke="currentColor" rx="5"/><path fill="currentColor" d="M9.65 16.132a4.201 4.201 0 0 1-1.486-.264 3.838 3.838 0 0 1-1.243-.781 3.8 3.8 0 0 1-.847-1.232c-.205-.484-.308-1.03-.308-1.639s.103-1.151.308-1.628a3.8 3.8 0 0 1 .847-1.232 3.61 3.61 0 0 1 1.243-.781c.47-.183.965-.275 1.485-.275a4.05 4.05 0 0 1 1.485.275c.47.176.88.436 1.232.781.36.337.642.748.847 1.232.213.477.32 1.02.32 1.628 0 .609-.107 1.155-.32 1.639a3.663 3.663 0 0 1-.836 1.232 3.713 3.713 0 0 1-1.232.781 4.224 4.224 0 0 1-1.496.264Zm0-.748c.41 0 .799-.073 1.165-.22a2.8 2.8 0 0 0 .968-.627c.279-.271.499-.605.66-1.001a3.5 3.5 0 0 0 .242-1.331c0-.499-.08-.942-.242-1.331a2.905 2.905 0 0 0-.66-1.001 2.667 2.667 0 0 0-.968-.616 3.11 3.11 0 0 0-1.166-.22c-.41 0-.799.073-1.166.22a2.796 2.796 0 0 0-1.628 1.617 3.446 3.446 0 0 0-.242 1.331c0 .491.081.935.242 1.331.169.396.389.73.66 1.001.279.271.602.48.968.627.374.147.763.22 1.166.22Zm5.909-6.27h-2.211V8.41h5.236v.704h-2.2V16h-.825V9.114Z"/></svg>
