<svg xmlns="http://www.w3.org/2000/svg" fill="none" viewBox="0 0 32 32" width="1em" height="1em"><rect width="27" height="27" x="2.5" y="2.5" stroke="currentColor" rx="6"/><path fill="currentColor" d="M12.795 21.18a5.7 5.7 0 0 1-2.025-.36 5.2 5.2 0 0 1-1.695-1.065 5.2 5.2 0 0 1-1.155-1.68q-.42-.99-.42-2.235t.42-2.22q.435-.99 1.155-1.68a4.9 4.9 0 0 1 1.695-1.065 5.5 5.5 0 0 1 2.024-.375q1.066 0 2.025.375.96.36 1.68 1.065.735.69 1.156 1.68.434.975.434 2.22t-.434 2.235q-.42.99-1.14 1.68t-1.68 1.065q-.96.36-2.04.36m0-1.02q.84 0 1.59-.3.765-.3 1.32-.855.57-.555.9-1.365t.33-1.815q0-1.02-.33-1.815-.33-.81-.9-1.365-.555-.555-1.32-.84-.75-.3-1.59-.3t-1.59.3q-.75.285-1.32.84t-.9 1.365q-.33.795-.33 1.815 0 1.005.33 1.815.345.81.9 1.365.57.555 1.32.855.765.3 1.59.3m8.058-8.55h-3.015v-.96h7.14v.96h-3V21h-1.125z"/></svg>
