<svg viewBox="0 0 16 16" fill="none" xmlns="http://www.w3.org/2000/svg" width="1em" height="1em"><rect x="1.5" y="1.5" width="13" height="13" rx="3.5" stroke="currentColor"/><path d="M4.46684 7.936C4.46684 7.604 4.52284 7.306 4.63484 7.042C4.75084 6.778 4.90684 6.554 5.10284 6.37C5.29884 6.186 5.52684 6.046 5.78684 5.95C6.05084 5.85 6.33284 5.8 6.63284 5.8C6.93284 5.8 7.21484 5.85 7.47884 5.95C7.74284 6.046 7.97084 6.186 8.16284 6.37C8.35884 6.554 8.51284 6.778 8.62484 7.042C8.74084 7.306 8.79884 7.604 8.79884 7.936C8.79884 8.268 8.74084 8.566 8.62484 8.83C8.51284 9.094 8.35884 9.318 8.16284 9.502C7.97084 9.686 7.74284 9.828 7.47884 9.928C7.21484 10.024 6.93284 10.072 6.63284 10.072C6.33284 10.072 6.05084 10.024 5.78684 9.928C5.52684 9.828 5.29884 9.686 5.10284 9.502C4.90684 9.318 4.75084 9.094 4.63484 8.83C4.52284 8.566 4.46684 8.268 4.46684 7.936ZM6.63284 9.388C6.82484 9.388 7.00284 9.354 7.16684 9.286C7.33484 9.218 7.47884 9.122 7.59884 8.998C7.72284 8.87 7.81884 8.716 7.88684 8.536C7.95884 8.356 7.99484 8.154 7.99484 7.93C7.99484 7.706 7.95884 7.504 7.88684 7.324C7.81884 7.144 7.72284 6.992 7.59884 6.868C7.47884 6.74 7.33484 6.644 7.16684 6.58C7.00284 6.512 6.82484 6.478 6.63284 6.478C6.44084 6.478 6.26084 6.512 6.09284 6.58C5.92884 6.644 5.78484 6.74 5.66084 6.868C5.54084 6.992 5.44484 7.144 5.37284 7.324C5.30484 7.504 5.27084 7.706 5.27084 7.93C5.27084 8.154 5.30484 8.356 5.37284 8.536C5.44484 8.716 5.54284 8.87 5.66684 8.998C5.79084 9.122 5.93484 9.218 6.09884 9.286C6.26284 9.354 6.44084 9.388 6.63284 9.388ZM8.64397 5.86L11.692 5.86V6.49H10.558V10H9.78397V6.49H8.64397V5.86Z" fill="currentColor"/></svg>
