<svg xmlns="http://www.w3.org/2000/svg" fill="none" viewBox="0 0 16 16" width="1em" height="1em"><rect width="13" height="13" x="1.5" y="1.5" stroke="currentColor" rx="3.5"/><path fill="currentColor" d="M4.467 7.936q0-.498.168-.894.174-.396.468-.672a2 2 0 0 1 .684-.42q.396-.15.846-.15t.846.15q.396.144.684.42.294.276.462.672a2.2 2.2 0 0 1 .174.894 2.2 2.2 0 0 1-.174.894 2 2 0 0 1-.462.672 2 2 0 0 1-.684.426 2.5 2.5 0 0 1-.846.144q-.45 0-.846-.144-.39-.15-.684-.426a2 2 0 0 1-.468-.672 2.3 2.3 0 0 1-.168-.894m2.166 1.452q.288 0 .534-.102a1.2 1.2 0 0 0 .432-.288 1.3 1.3 0 0 0 .288-.462 1.6 1.6 0 0 0 .108-.606 1.6 1.6 0 0 0-.108-.606 1.3 1.3 0 0 0-.288-.456 1.14 1.14 0 0 0-.432-.288 1.4 1.4 0 0 0-.534-.102q-.288 0-.54.102-.246.096-.432.288-.18.186-.288.456-.102.27-.102.606t.102.606q.108.27.294.462.186.186.432.288t.534.102M8.644 5.86h3.048v.63h-1.134V10h-.774V6.49h-1.14z"/></svg>
