<svg xmlns="http://www.w3.org/2000/svg" fill="none" viewBox="0 0 24 24" width="1em" height="1em"><rect width="19" height="19" x="2.5" y="2.5" stroke="currentColor" rx="5"/><path fill="currentColor" d="M9.65 16.132q-.781 0-1.486-.264a3.8 3.8 0 0 1-1.243-.781 3.8 3.8 0 0 1-.847-1.232q-.308-.726-.308-1.639t.308-1.628a3.8 3.8 0 0 1 .847-1.232q.54-.517 1.243-.781Q8.87 8.3 9.65 8.3q.782 0 1.485.275.705.264 1.232.781.54.506.847 1.232.32.716.32 1.628 0 .913-.32 1.639a3.7 3.7 0 0 1-.836 1.232 3.7 3.7 0 0 1-1.232.781q-.704.264-1.496.264m0-.748q.616 0 1.165-.22.561-.22.968-.627.419-.407.66-1.001a3.5 3.5 0 0 0 .242-1.331q0-.748-.242-1.331a2.9 2.9 0 0 0-.66-1.001 2.7 2.7 0 0 0-.968-.616 3.1 3.1 0 0 0-1.166-.22q-.615 0-1.166.22a2.8 2.8 0 0 0-1.628 1.617 3.5 3.5 0 0 0-.242 1.331q0 .737.242 1.331.254.594.66 1.001.419.407.968.627.561.22 1.166.22m5.909-6.27h-2.211V8.41h5.236v.704h-2.2V16h-.825z"/></svg>
