<svg enable-background="new 0 0 20 20" viewBox="0 0 20 20" xmlns="http://www.w3.org/2000/svg"><path d="m10 11c-.552 0-1-.448-1-1v-9c0-.552.448-1 1-1s1 .448 1 1v9c0 .552-.448 1-1 1z"/><path d="m10 20c-5.514 0-10-4.486-10-10 0-3.461 1.752-6.628 4.687-8.472.47-.293 1.085-.153 1.379.314.293.468.152 1.085-.315 1.379-2.349 1.476-3.751 4.01-3.751 6.779 0 4.411 3.589 8 8 8s8-3.589 8-8c0-2.769-1.402-5.303-3.751-6.779-.468-.294-.608-.911-.314-1.379.293-.467.912-.609 1.379-.314 2.934 1.844 4.686 5.011 4.686 8.472 0 5.514-4.486 10-10 10z"/></svg>