<svg viewBox="0 0 16 16" fill="none" stroke="#282829" stroke-linecap="round" xmlns="http://www.w3.org/2000/svg">
<path d="M8.5 1.49995C8.5 1.49995 2.5 0.999969 2.5 6.99995C2.5 12.4999 5.5 14.4999 8.5 14.4999" stroke-linejoin="round"/>
<path d="M7 7.5H8.5M7 7.5L6 5M7 7.5L6 10"/>
<path d="M8 1.49995C8 1.49995 14 0.999969 14 6.99995C14 12.4999 11 14.4999 8 14.4999" stroke-linejoin="round"/>
<path d="M10 7.5H8.5M10 7.5L11 5M10 7.5L11 10"/>
<rect x="6.5" y="5" width="1" height="1" rx="0.5" transform="rotate(-180 6.5 5)"/>
<rect x="6.5" y="11" width="1" height="1" rx="0.5" transform="rotate(-180 6.5 11)"/>
<rect x="11.5" y="5" width="1" height="1" rx="0.5" transform="rotate(-180 11.5 5)"/>
<rect x="11.5" y="11" width="1" height="1" rx="0.5" transform="rotate(-180 11.5 11)"/>
<path d="M8.5 9.5L8.5 14.5"/>
<path d="M8.5 2L8.5 5"/>
<path d="M14 7.5H12.5"/>
<path d="M4 7.5H3"/>
</svg>
