<svg viewBox="0 0 500 500" xmlns="http://www.w3.org/2000/svg"><path d="m250 0c138 0 250 112 250 250s-112 250-250 250-250-112-250-250 112-250 250-250zm-19.796392 317.953746v-186.022326c.000003-9.46571 10.148196-18.93142 20.296392-18.93142s20.296392 7.572568 20.296392 18.93142v186.022326l30.444587-28.39713c14.207475-13.251994 30.444588 0 30.444588 0s14.207474 13.251994 0 26.503988l-66.978093 66.25997c-8.118556 7.572568-20.296392 7.572568-28.414948 0l-66.978093-64.366828c-14.207474-13.251994 0-28.39713 0-28.39713s16.237113-13.251994 30.444588 0zm19.796392-267.953746c-110.4 0-200 89.6-200 200s89.6 200 200 200 200-89.6 200-200-89.6-200-200-200z"/></svg>