<svg enable-background="new 0 0 32 32" viewBox="0 0 32 32" xmlns="http://www.w3.org/2000/svg"><g fill="#296897"><path d="m30.006 0h-28.012c-1.101 0-1.994.893-1.994 1.994v28.012c0 1.101.893 1.994 1.994 1.994h28.012c1.101 0 1.994-.893 1.994-1.994v-28.012c0-1.101-.893-1.994-1.994-1.994zm-.006 30h-28v-28h28z"/><path d="m16 9.543-3.259-3.259c-.198-.198-.458-.294-.718-.291-.004 0-.006-.002-.01-.002s-.007.002-.01.002c-.26-.003-.52.093-.718.291l-3.26 3.259c-.391.391-.391 1.024 0 1.415l.02.02c.391.391 1.024.391 1.415 0l1.552-1.552v10.567c0 .552.448 1 1 1s1-.448 1-1v-10.568l1.552 1.552c.391.391 1.024.391 1.415 0l.02-.02c.392-.39.392-1.024.001-1.414"/><path d="m16.03 22.422 3.259 3.259c.198.198.458.294.718.291.004 0 .006.002.01.002s.007-.002.01-.002c.26.003.52-.093.718-.291l3.259-3.259c.391-.391.391-1.024 0-1.415l-.02-.02c-.391-.391-1.024-.391-1.415 0l-1.552 1.552v-10.567c0-.552-.448-1-1-1s-1 .448-1 1v10.567l-1.552-1.552c-.391-.391-1.024-.391-1.415 0l-.02.02c-.391.39-.391 1.024 0 1.415"/></g></svg>