<svg enable-background="new 0 0 32 32" viewBox="0 0 32 32" xmlns="http://www.w3.org/2000/svg"><g fill="#442f84"><path d="m30.006 0h-28.012c-1.101 0-1.994.893-1.994 1.994v28.012c0 1.101.893 1.994 1.994 1.994h28.012c1.101 0 1.994-.893 1.994-1.994v-28.012c0-1.101-.893-1.994-1.994-1.994zm-.006 30h-28v-28h28z"/><path d="m14.996 9.995h-7.993c-.554 0-1-.449-1-1v-.992c0-.554.449-1 1-1h7.993c.554 0 1 .449 1 1v.992c0 .554-.449 1-1 1"/><path d="m12.691 13.991c.538 0 1.023.079 1.453.236.432.157.799.375 1.103.654.303.279.536.612.699.998.162.386.243.811.243 1.275 0 .398-.056.767-.169 1.105-.112.339-.265.662-.459.969-.195.307-.42.603-.677.889s-.53.577-.818.871l-2.13 2.182c.274-.08.544-.143.811-.191.266-.047.517-.071.751-.071h2.033c.249 0 .446.069.59.205.145.138.217.318.217.542v1.345h-7.653v-.748c0-.144.03-.299.09-.463.059-.165.165-.314.314-.448l3.139-3.161c.269-.269.503-.526.703-.771.199-.244.363-.484.493-.72.129-.237.226-.474.291-.71.065-.237.097-.488.097-.751 0-.434-.103-.767-.31-.998-.206-.232-.522-.348-.946-.348-.174 0-.334.025-.479.075-.144.05-.274.117-.388.202-.115.084-.214.184-.296.299-.081.115-.148.239-.197.374-.08.223-.181.386-.303.486-.122.099-.288.148-.496.148-.05 0-.104-.002-.162-.006-.057-.005-.116-.013-.175-.023l-1.226-.217c.08-.542.234-1.016.46-1.42.227-.404.509-.74.845-1.01.337-.269.722-.47 1.155-.602.432-.132.898-.198 1.397-.198"/><path d="m21.36 13.991c.538 0 1.023.079 1.453.236.432.157.799.375 1.103.654.303.279.536.612.699.998.162.386.243.811.243 1.275 0 .398-.056.767-.169 1.105-.112.339-.265.662-.459.969-.195.307-.42.603-.677.889s-.53.577-.818.871l-2.13 2.182c.274-.08.544-.143.811-.191.266-.047.517-.071.751-.071h2.033c.249 0 .446.069.59.205.145.138.217.318.217.542v1.345h-7.653v-.748c0-.144.03-.299.09-.463.059-.165.165-.314.314-.448l3.139-3.161c.269-.269.503-.526.703-.771.199-.244.363-.484.493-.72.129-.237.226-.474.291-.71.065-.237.097-.488.097-.751 0-.434-.103-.767-.31-.998-.206-.232-.522-.348-.946-.348-.174 0-.334.025-.479.075-.144.05-.274.117-.388.202-.115.084-.214.184-.296.299-.081.115-.148.239-.197.374-.08.223-.181.386-.303.486-.122.099-.288.148-.496.148-.05 0-.104-.002-.162-.006-.057-.005-.116-.013-.175-.023l-1.226-.217c.08-.542.234-1.016.46-1.42.227-.404.509-.74.845-1.01.337-.269.722-.47 1.155-.602s.899-.198 1.397-.198"/></g></svg>