<svg enable-background="new 0 0 32 32" viewBox="0 0 32 32" xmlns="http://www.w3.org/2000/svg"><g fill="#00a78a"><path d="m30.006 0h-28.012c-1.101 0-1.994.893-1.994 1.994v28.012c0 1.101.893 1.994 1.994 1.994h28.012c1.101 0 1.994-.893 1.994-1.994v-28.012c0-1.101-.893-1.994-1.994-1.994zm-.006 30h-28v-28h28z"/><path d="m24.997 24.975h-17.994c-.554 0-1-.449-1-1v-.992c0-.554.449-1 1-1h17.994c.554 0 1 .449 1 1v.992c0 .554-.449 1-1 1"/><path d="m11 8v4h-3v8.992l7 .008v-13l-4 .004m-2 4.982h2v7h-2zm5 7h-2v-.011h.002v-10.968h1.998z"/><path d="m20 10v5h-3v5.992l7 .008v-11l-4 .004m-2 5.982h2l-.001 4h-2v-4zm5 4h-2v-.011h.002v-8.968h1.998z"/></g></svg>