<svg enable-background="new 0 0 32 32" viewBox="0 0 32 32" xmlns="http://www.w3.org/2000/svg"><g fill="#296897"><path d="m30.006 0h-28.012c-1.101 0-1.994.893-1.994 1.994v28.012c0 1.101.893 1.994 1.994 1.994h28.012c1.101 0 1.994-.893 1.994-1.994v-28.012c0-1.101-.893-1.994-1.994-1.994zm-.006 30h-28v-28h28z"/><path d="m6 7.996-.001 4h20l.001-4zm18.987 2.999h-17.981v-1.991h17.981z"/><path d="m6 12.996-.001 3h20l.001-3zm18.987 1.999h-17.981v-.991h17.981z"/><path d="m6 16.996-.001 3h20l.001-3zm18.987 1.999h-17.981v-.991h17.981z"/><path d="m6 20.996-.001 3h20l.001-3zm18.987 1.999h-17.981v-.991h17.981z"/></g></svg>