<svg enable-background="new 0 0 32 32" viewBox="0 0 32 32" xmlns="http://www.w3.org/2000/svg"><g fill="#f38130"><path d="m30.006 0h-28.012c-1.101 0-1.994.893-1.994 1.994v28.012c0 1.101.893 1.994 1.994 1.994h28.012c1.101 0 1.994-.893 1.994-1.994v-28.012c0-1.101-.893-1.994-1.994-1.994zm-.006 30h-28v-28h28z"/><path d="m16 6c-5.523 0-10 4.477-10 10s4.477 10 10 10 10-4.477 10-10-4.477-10-10-10m3 10c0 1.657-1.343 3-3 3s-3-1.343-3-3 1.343-3 3-3 3 1.343 3 3m-11 0c0-4.078 3.053-7.436 6.997-7.93v3.03c-2.281.464-3.997 2.48-3.997 4.898 0 .053.014.103.016.156l-2.968.705c-.03-.283-.048-.57-.048-.861m8 8c-3.43 0-6.347-2.162-7.484-5.194l2.962-.703c.795 1.706 2.514 2.897 4.522 2.897 1.019 0 1.964-.308 2.754-.832l2.146 2.146c-1.355 1.053-3.052 1.686-4.9 1.686m6.314-3.1-2.146-2.146c.524-.79.832-1.735.832-2.754 0-2.42-1.72-4.437-4-4.9v-3.03c3.946.491 7 3.851 7 7.931 0 1.848-.633 3.545-1.686 4.9"/></g></svg>