<svg fill="none" viewBox="0 0 24 24" xmlns="http://www.w3.org/2000/svg" xmlns:xlink="http://www.w3.org/1999/xlink"><mask id="a" fill="#fff"><ellipse fill="#fff" rx=".901048" ry=".898954" transform="matrix(.863854 .50143 -.498563 .868196 14.7301 9.63227)"/></mask><path d="m0 3c0-1.65685 1.34315-3 3-3h18c1.6569 0 3 1.34315 3 3v18c0 1.6569-1.3431 3-3 3h-18c-1.65685 0-3-1.3431-3-3z" fill="#181d3a"/><path d="m10.4998 8.39998-2.93523 4.89192c-.36579.6097-.16516 1.4024.44607 1.7625l3.75216 2.2106" stroke="#fff" stroke-linecap="round"/><path d="m14.4364 15.5423 2.3209-4.1776c.1734-.312.2301-.6754.1602-1.025l-.3355-1.67743c-.1602-.80108-.9314-1.32526-1.7349-1.17916l-1.8778.34143c-.4355.07917-.8141.34675-1.0346.73113l-2.38751 4.16143c-.40853.7121-.17086 1.6195.53361 2.0373l2.2799 1.3521c.726.4305 1.6649.1753 2.0757-.5642z" stroke="#fff" stroke-linecap="round"/><path d="m14.6446 9.58266c.0289-.05036.0906-.06442.1359-.03811l-.9972 1.73635c.9051.5254 2.0651.2171 2.589-.6954zm.1359-.03811c.0453.0263.064.08699.0351.13734l-1.7277-1.00286c-.524.91244-.2096 2.07657.6954 2.60187zm.0351.13734c-.0289.05036-.0906.06441-.1359.03811l.9971-1.73639c-.905-.52536-2.065-.21701-2.5889.69542zm-.1359.03811c-.0453-.0263-.064-.08699-.0351-.13734l1.7277 1.00284c.524-.91242.2096-2.07653-.6955-2.60189z" fill="#fff" mask="url(#a)"/></svg>