<svg fill="none" stroke="#282829" viewBox="0 0 24 24" xmlns="http://www.w3.org/2000/svg"><path d="m18.1423 9.81354c.0223.22916.1982.41356.4261.44656 1.6324.236 2.9316 1.7384 2.9316 3.6035 0 .795-.2524 1.7288-.7461 2.4508-.4863.7112-1.1796 1.1856-2.0872 1.1856h-.0067-.0068-.0071-.0074-.0076-.0078-.008-.0083-.0085-.0088-.0089-.0092-.0095-.0096-.0099-.0101-.0104-.0105-.0108-.011-.0112-.0115-.0116-.0119-.0121-.0123-.0126-.0127-.013-.0131-.0134-.0136-.0138-.014-.0142-.0145-.0146-.0148-.0151-.0152-.0155-.0156-.0159-.016-.0163-.0164-.0166-.0169-.017-.0172-.0175-.0176-.0178-.018-.0181-.0184-.0186-.0187-.0189-.0191-.0193-.0195-.0197-.0198-.02-.0202-.0204-.0206-.0207-.0209-.0211-.0212-.0215-.0216-.0217-.022-.0221-.0223-.0224-.0226-.0228-.0229-.0231-.0233-.0234-.0236-.0237-.0239-.0241-.0242-.0244-.0245-.0247-.0248-.025-.0251-.0253-.0255-.0255-.0258-.0259-.026-.0261-.0264-.0264-.0266-.0267-.0269-.027-.0272-.0273-.0274-.0276-.0276-.0279-.0279-.0281-.0282-.0284-.0285-.0286-.0287-.0289-.029-.0291-.0292-.0294-.0294-.0296-.0298-.0298-.0299-.0301-.0302-.0303-.0304-.0305-.0307-.0307-.0309-.0309-.0311-.0312-.0313-.0314-.0315-.0316-.0317-.0318-.0319-.032-.0321-.0322-.0323-.0324-.0325-.0326-.0327-.0328-.0328-.033-.033-.0331-.0333-.0333-.0334-.0334-.0336-.0336-.0338-.0338-.0339-.0339-.0341-.0341-.0342-.0343-.0343-.0344-.0345-.0346-.0347-.0347-.0347-.0349-.0349-.035-.035-.0351-.0352-.0352-.0353-.0354-.0354-.0355-.0355-.0356-.0356-.0358-.0357-.0358-.0359-.0359-.036-.036-.036-.0361-.0362-.0362-.0362-.0363-.0364-.0363-.0364-.0365-.0365-.0365-.0366-.0366-.0367-.0366-.0367-.0368-.0368-.0368-.0368-.0369-.0369-.0369-.0369-.037-.037-.037-.0371-.037-.0371-.0371-.0371-.0372-.0371-.0372-.0372-.0372-.0372-.0372-.0373-.0372-.0373-.0372-.0373-.0373-.0373-.0373-.0373-.0373-.0373-.0373-.0373-.0373-.0373-.0373-.0373-.0373-.0372-.0373-.0373-.0372-.0373-.0372-.0373-.0372-.0372-.0372-.0372-.0371-.0372-.0371-.0371-.0371-.0371-.037-.037-.037-.037-.037-.0369-.0369-.0369-.0368-.0368-.0368-.0368-.0367-.0367-.0366-.0366-.0366-.0366-.0365-.0364-.0364-.0364-.0364-.03627-.03626-.03621-.03617-.03612-.03607-.03602-.03598-.03592-.03588-.03582-.03577-.03571-.03566-.03561-.03554-.03549-.03543-.03537-.03531-.03525-.03519-.03513-.03506-.03499-.03493-.03486-.0348-.03472-.03466-.03458-.03451-.03444-.03437-.03429-.03422-.03414-.03407-.03398-.03391-.03383-.03374-.03366-.03359-.03349-.03342-.03332-.03324-.03316-.03306-.03298-.03288-.0328-.0327-.03261-.03251-.03242-.03233-.03222-.03213-.03203-.03194-.03183-.03173-.03162-.03153-.03142-.03131-.03121-.0311-.031-.03088-.03078-.03066-.03055-.03044-.03033-.03021-.0301-.02998-.02986-.02974-.02963-.02951-.02938-.02926-.02914-.02902-.02889-.02877-.02863-.02852-.02838-.02825-.02813-.02799-.02786-.02773-.02759-.02746-.02732-.02718-.02705-.02691-.02677-.02663-.02649-.02634-.0262-.02606-.02591-.02577-.02562-.02547-.02532-.02517-.02502-.02487-.02472-.02456-.02441-.02425-.0241-.02394-.02378-.02362-.02347-.0233-.02314-.02297-.02281-.02265-.02248-.02232-.02215-.02198-.02181-.02164-.02146-.0213-.02112-.02095-.02077-.0206-.02042-.02025-.02006-.01988-.01971-.01952-.01934-.01916-.01897-.01879-.0186-.01841-.01823-.01803-.01785-.01766-.01746-.01727-.01708-.01688-.01669-.01649-.0163-.01609-.0159-.0157-.01549-.01529-.01509-.01489-.01468-.01448-.01427-.01406-.01385-.01364-.01344-.01322-.01301-.01279-.01259-.01236-.01215-.01194-.01171-.0115-.01128-.01106-.01083-.01061-.01039-.01017-.00994-.00971-.00949-.00926-.00903-.0088-.00856-.00834-.0081-.00787-.00764-.0074-.00716c-1.22937 0-2.27778-1.0694-2.27778-2.4545 0-1.2524.86157-2.2523 1.93444-2.4269.19979-.0326.36026-.1823.40646-.3794.43498-1.8551 2.00016-3.19375 3.82577-3.19375.08345 0 .16623.00278.24826.00823.2275.01512.43641-.12558.50793-.34208.62364-1.88805 2.30194-3.2116 4.24384-3.2116 2.3013 0 4.2377 1.86451 4.4756 4.31354z" stroke-linejoin="round"/></svg>