<svg fill="none" stroke="#282829" viewBox="0 0 25 25" xmlns="http://www.w3.org/2000/svg"><g stroke-linecap="round" stroke-linejoin="round"><rect height="6" rx="1" transform="matrix(.70710678 .70710678 -.70710678 .70710678 9.721358 -6.011913)" width="6" x="12.1177" y="8.72876"/><rect height="2.99998" rx="1" transform="matrix(.707107 .707107 .707107 -.707107 9.99637 6.85007)" width="2.99998"/><path d="m15.6177 12.2288 2.7071-2.70715c.1875-.18753.2929-.44189.2929-.7071v-2.00245"/><circle r="1" transform="matrix(-1 0 0 1 18.6177 5.72876)"/><path d="m13.6177 10.2288 1.7071-1.70715c.1875-.18753.2929-.44189.2929-.7071v-5.08579"/><path d="m15.6177 13.7288 2.7071 2.7071c.1875.1875.2929.4419.2929.7071v2.0024"/><circle cx="18.6177" cy="20.2288" r="1" transform="matrix(-1 0 0 -1 37.2354 40.4576)"/><path d="m13.6177 15.7288 1.7071 1.7071c.1875.1875.2929.4419.2929.7071v4.5858"/><path d="m8.61768 12.2288-2.70711-2.70715c-.18754-.18753-.29289-.44189-.29289-.7071v-2.00245"/><circle cx="5.61768" cy="5.72876" r="1"/><path d="m10.6177 10.2288-1.70713-1.70715c-.18754-.18753-.29289-.44189-.29289-.7071v-5.08579"/><path d="m8.61768 13.7288-2.70711 2.7071c-.18754.1875-.29289.4419-.29289.7071v2.0024"/><circle r="1" transform="matrix(1 0 0 -1 5.61768 20.2288)"/><path d="m10.6177 15.7288-1.70713 1.7071c-.18754.1875-.29289.4419-.29289.7071v4.5858"/></g></svg>