<svg viewBox="0 0 16 16" stroke="#282829" fill="none" xmlns="http://www.w3.org/2000/svg">
<rect x="7.99998" y="5.33334" width="4.00001" height="4.00001" rx="1" transform="rotate(45 7.99998 5.33334)" stroke-linecap="round" stroke-linejoin="round"/>
<rect width="2" height="2" rx="1" transform="matrix(0.707107 0.707107 0.707107 -0.707107 6.5 4.41422)" stroke-linecap="round" stroke-linejoin="round"/>
<path d="M10.6667 8H13.3334" stroke-linecap="round" stroke-linejoin="round"/>
<path d="M2.66667 8H5.33334" stroke-linecap="round" stroke-linejoin="round"/>
<path d="M10 7L12.2071 4.79289C12.3946 4.60536 12.5 4.351 12.5 4.08579L12.5 1.5" stroke-linecap="round" stroke-linejoin="round"/>
<path d="M6 7L3.79289 4.79289C3.60536 4.60536 3.5 4.351 3.5 4.08579L3.5 1.5" stroke-linecap="round" stroke-linejoin="round"/>
<path d="M10 9L12.2071 11.2071C12.3946 11.3946 12.5 11.649 12.5 11.9142L12.5 14.5" stroke-linecap="round" stroke-linejoin="round"/>
<path d="M6 9L3.79289 11.2071C3.60536 11.3946 3.5 11.649 3.5 11.9142L3.5 14.5" stroke-linecap="round" stroke-linejoin="round"/>
</svg>
