<svg fill="none" stroke="#282829" viewBox="0 0 32 32" xmlns="http://www.w3.org/2000/svg"><g stroke-linecap="round"><path d="m21.628 2.5c.4239 0 .828.17934 1.1124.49367l6.3719 7.04313c.2496.2758.3877.6345.3877 1.0064v9.4615c0 .3573-.1276.7029-.3597.9746l-6.406 7.4953c-.2849.3334-.7016.5254-1.1402.5254h-11.0482c-.4334 0-.84562-.1875-1.13049-.5142l-6.54593-7.5066c-.23823-.2731-.36947-.6233-.36947-.9858v-9.4387c0-.3771.14202-.7403.39779-1.0174l6.51203-7.05472c.28396-.30762.68357-.48258 1.10217-.48258z"/><path d="m16 20.5v-14"/><path d="m16 24v1" stroke-linejoin="round"/></g></svg>