<svg fill="none" stroke="#282829" viewBox="0 0 16 16" xmlns="http://www.w3.org/2000/svg"><path d="m10.3702 1.5c.4239 0 .828.17934 1.1123.49367l2.6298 2.90681c.2495.27579.3877.63443.3877 1.00633v3.97644c0 .35735-.1276.70295-.3597.97455l-2.6638 3.1168c-.285.3334-.7016.5254-1.1403.5254h-4.60845c-.43342 0-.84566-.1875-1.13053-.5142l-2.72775-3.128-.37684.3286.37684-.3286c-.23822-.2732-.36947-.6234-.36947-.98587v-3.9536c0-.37708.14203-.74034.39779-1.01742l2.69385-2.91833c.28396-.30762.68356-.48258 1.1022-.48258z" stroke-linecap="round"/><path d="m8 9v-4.5" stroke-linecap="round"/><path d="m8 12v-1"/></svg>