<svg xmlns="http://www.w3.org/2000/svg" viewBox="0 0 1024 1024">
<path fill-rule="evenodd" clip-rule="evenodd" d="M620.707 387.476c-1.174 24.49-2.857 59.553 25.513 87.761 123.772 123.079 377.78 365.84 377.78 365.84s-7.003 110.666-7.003 121.658c0 19.253-19.253 38.506-38.506 38.506-8.369 0-113.78 11.382-113.78 11.382s-122.143-99.020-130.512-110.785c-8.369-11.765 3.858-24.009 12.43-43.789 8.757-20.193 9.231-29.85 4.307-34.553-4.912-4.69-14.838-4.864-33.204 5.751-18.51 10.699-30.467 27.741-42.118 16.641-11.645-11.095-23.327-22.206-34.84-33.138s1.893-22.991 9.117-40.645c7.075-17.282 7.368-27.747 2.288-32.552-6.050-5.72-25.003 1.749-43.514 9.046s-28.205 7.123-33.476 2.175c-41.849-39.29-92.879-95.24-102.264-102.243-26.97-20.116-61.25-10.375-90.33-9.033-7.015 0.323-13.835 0.641-20.34 0.641-281.736 8.392-362.255-186.869-362.255-322.364s133.7-306.398 318.577-306.398c198.733 0 318.524 165.416 302.535 364.002-0.293 3.612-0.198 7.691-0.408 12.102zM234.891 299.392c46.22 0 83.687-37.259 83.687-83.218s-37.467-83.219-83.687-83.219c-46.22 0-83.688 37.259-83.688 83.219s37.468 83.218 83.688 83.218z" fill="url(#paint0_linear)"></path>
<defs>
<linearGradient id="paint0_linear" x1="0" y1="0" x2="100%" y2="100%" gradientUnits="userSpaceOnUse">
<stop stop-color="#525296"/>
<stop offset="1" stop-color="#945296"/>
</linearGradient>
</defs>
</svg>
