<svg fill="none" viewBox="0 0 40 40" xmlns="http://www.w3.org/2000/svg"><path d="m0 8c0-4.41828 3.58172-8 8-8h24c4.4183 0 8 3.58172 8 8v24c0 4.4183-3.5817 8-8 8h-24c-4.41828 0-8-3.5817-8-8z" fill="#ffe300"/><g stroke="#bd9403"><circle cx="16.5" cy="26.5" r="1"/><circle cx="24.5" cy="26.5" r="1"/><path d="m10.5 11.5h2l3.5 10" stroke-linecap="round" stroke-linejoin="round"/></g><path d="m13.5 13c-.2761 0-.5.2239-.5.5 0 .2762.2239.5.5.5zm12.2857 11c.2762 0 .5-.2238.5-.5 0-.2761-.2238-.5-.5-.5zm-12.2857-10h14.1398v-1h-14.1398zm14.617.6492-1.6557 5.2982.9545.2983 1.6557-5.2983zm-3.0874 6.3508h-9.4939v1h9.4939zm-9.4939 3h10.25v-1h-10.25zm-1.5-1.5c0 .8285.6716 1.5 1.5 1.5v-1c-.2761 0-.5-.2238-.5-.5zm1.5-1.5c-.8284 0-1.5.6716-1.5 1.5h1c0-.2761.2239-.5.5-.5zm10.9256-1.0526c-.1957.6263-.7756 1.0526-1.4317 1.0526v1c1.0935 0 2.0601-.7106 2.3862-1.7543zm1.1785-5.9474c.3373 0 .5779.3272.4772.6492l.9545.2982c.3019-.9659-.4197-1.9474-1.4317-1.9474z" fill="#bd9403"/></svg>