<svg viewBox="0 0 24 24" fill="none" stroke="#282829" xmlns="http://www.w3.org/2000/svg">
<path d="M6 11.5H7.5V20.5H4.5V13C4.5 12.1716 5.17157 11.5 6 11.5Z"/>
<path d="M16.5 8.5H18C18.8284 8.5 19.5 9.17157 19.5 10V20.5H16.5V8.5Z"/>
<path d="M9 3.5H15C15.8284 3.5 16.5 4.17157 16.5 5V20.5H7.5V5C7.5 4.17157 8.17157 3.5 9 3.5Z"/>
<rect x="9.5" y="13.5" width="1" height="1" rx="0.5"/>
<rect x="9.5" y="17.5" width="1" height="1" rx="0.5"/>
<rect x="9.5" y="9.5" width="1" height="1" rx="0.5"/>
<rect x="9.5" y="5.5" width="1" height="1" rx="0.5"/>
<rect x="13.5" y="13.5" width="1" height="1" rx="0.5"/>
<rect x="13.5" y="17.5" width="1" height="1" rx="0.5"/>
<rect x="13.5" y="9.5" width="1" height="1" rx="0.5"/>
<rect x="13.5" y="5.5" width="1" height="1" rx="0.5"/>
</svg>