<svg viewBox="0 0 32 32" fill="none" stroke="#282829" xmlns="http://www.w3.org/2000/svg">
<path d="M7 14.5H10.5V28.5H5.5V16C5.5 15.1716 6.17157 14.5 7 14.5Z" />
<path d="M22.5 11.5H26C26.8284 11.5 27.5 12.1716 27.5 13V28.5H22.5V11.5Z"/>
<path d="M12 3.5H21C21.8284 3.5 22.5 4.17157 22.5 5V28.5H10.5V5C10.5 4.17157 11.1716 3.5 12 3.5Z"/>
<rect x="13.5" y="21.5" width="2" height="2" rx="0.5"/>
<rect x="13.5" y="16.5" width="2" height="2" rx="0.5"/>
<rect x="13.5" y="11.5" width="2" height="2" rx="0.5"/>
<rect x="13.5" y="6.5" width="2" height="2" rx="0.5"/>
<rect x="17.5" y="21.5" width="2" height="2" rx="0.5"/>
<rect x="17.5" y="16.5" width="2" height="2" rx="0.5"/>
<rect x="17.5" y="11.5" width="2" height="2" rx="0.5"/>
<rect x="17.5" y="6.5" width="2" height="2" rx="0.5"/>
</svg>