<svg fill="none" viewBox="0 0 40 40" xmlns="http://www.w3.org/2000/svg"><path d="m0 8c0-4.41828 3.58172-8 8-8h24c4.4183 0 8 3.58172 8 8v24c0 4.4183-3.5817 8-8 8h-24c-4.41828 0-8-3.5817-8-8z" fill="#1cebcf"/><g stroke="#078675"><circle cx="16" cy="20" r=".5"/><circle cx="24" cy="20" r=".5"/><path d="m18 21.5s.5 1 2 1 2-1 2-1" stroke-linecap="round" stroke-linejoin="round"/><path d="m12.5 18.5h-1c-.5523 0-1 .4477-1 1v2.3636c0 .5523.4477 1 1 1h1"/><path d="m28 18.5h.5c.5523 0 1 .4477 1 1v2.3636c0 .5523-.4477 1-1 1h-.5"/><circle cx="20" cy="11.5" r="1"/><path d="m20 12v2"/><path d="m12.5 16.5v8c0 1.1046.8954 2 2 2h11c1.1046 0 2-.8954 2-2v-8c0-1.1046-.8954-2-2-2h-11c-1.1046 0-2 .8954-2 2z"/></g></svg>