<svg viewBox="0 0 32 32" fill="none" stroke="#282829" xmlns="http://www.w3.org/2000/svg">
<path d="M24 27.5H8C7.17157 27.5 6.5 26.8284 6.5 26V6C6.5 5.17157 7.17157 4.5 8 4.5H18.1309C18.5467 4.5 18.9438 4.67257 19.2275 4.97652L25.0966 11.2648C25.3558 11.5426 25.5 11.9084 25.5 12.2883V26C25.5 26.8284 24.8284 27.5 24 27.5Z"/>
<path d="M17.4918 4V9.5C17.4918 10.6046 18.3873 11.5 19.4918 11.5H24.9864" />
<line x1="10.5" y1="11.5386" x2="14.5423" y2="11.5386" stroke-linecap="round"/>
<line x1="10.5" y1="16.5547" x2="19.5" y2="16.5547" stroke-linecap="round"/>
<line x1="10.5" y1="21.5039" x2="19.5" y2="21.5039" stroke-linecap="round"/>
</svg>