<svg enable-background="new 0 0 500 500" viewBox="0 0 500 500" xmlns="http://www.w3.org/2000/svg"><g transform="translate(18 150)"><path d="m332.2 191.7v-8.3h116.2v-16.6c0-12.4-42.7-33.2-83-33.2-16.4 0-33.2 3.4-47.3 8.3-5.3-4.2-11.9-7.9-19.1-11 21.5-9.4 48.7-13.9 66.4-13.9 33.2 0 99.6 15.9 99.6 49.8v33.2h-149.4-16.6 16.6z"/><path d="m365 84.2c-18.4 0-33.3-15.1-33.3-33.7s14.9-33.7 33.3-33.7 33.3 15.1 33.3 33.7-14.9 33.7-33.3 33.7m0-84.2c-27.6 0-50 22.6-50 50.5s22.4 50.5 50 50.5 50-22.6 50-50.5-22.4-50.5-50-50.5"/><path d="m233 0c-27.6 0-50 22.6-50 50.5s22.4 50.5 50 50.5 50-22.6 50-50.5-22.4-50.5-50-50.5"/><path d="m183.3 183.4h-166.6v-16.6c0-12.4 42.8-33.2 83.3-33.2s83.3 20.8 83.3 33.2zm-183.3-16.6v33.2h200v-33.2c0-33.9-66.7-49.8-100-49.8s-100 15.9-100 49.8z"/><path d="m135 166.8v33.2h200v-33.2c0-33.9-66.7-49.8-100-49.8s-100 15.9-100 49.8z"/><path d="m100 84.2c-18.4 0-33.3-15.1-33.3-33.7s14.9-33.7 33.3-33.7 33.3 15.1 33.3 33.7-14.9 33.7-33.3 33.7m0-84.2c-27.7 0-50 22.6-50 50.5s22.4 50.5 50 50.5c27.7 0 50-22.6 50-50.5s-22.4-50.5-50-50.5"/></g></svg>