<svg viewBox="0 0 16 16" fill="none" stroke="#282829" xmlns="http://www.w3.org/2000/svg">
<path d="M3 12C3.80341 13.0157 5.00748 13.0205 6.5 13"/>
<path d="M2 9H2.75C3.16421 9 3.5 9.33579 3.5 9.75V11.75C3.5 12.1642 3.16421 12.5 2.75 12.5H2.69767C2.31236 12.5 2 12.1876 2 11.8023V8.5C2 5.18629 4.68629 2.5 8 2.5V2.5C11.3137 2.5 14 5.18629 14 8.5V9M14 9V11.75C14 12.1642 13.6642 12.5 13.25 12.5V12.5C12.8358 12.5 12.5 12.1642 12.5 11.75V9.75C12.5 9.33579 12.8358 9 13.25 9H14Z"/>
<circle cx="7" cy="13" r="0.5"/>
</svg>