<svg xmlns="http://www.w3.org/2000/svg" viewBox="0 0 512 512">
<path d="M188.343 338.801v143.428c0 0.099 0 0.218 0 0.337 0 16.253-13.176 29.429-29.429 29.429 0 0 0 0 0 0h-126.853c-0.099 0-0.223 0-0.342 0-16.253 0-29.429-13.176-29.429-29.429 0-0.119 0-0.238 0-0.357v0.020-228.672c0.005-8.211 3.37-15.633 8.79-20.97l223.945-223.945c5.381-5.341 12.79-8.642 20.975-8.642s15.594 3.3 20.976 8.647v0l223.94 223.94c5.426 5.341 8.791 12.764 8.796 20.971v0 228.672c0 0.099 0 0.223 0 0.342 0 16.253-13.176 29.429-29.429 29.429-0.119 0-0.238 0-0.357 0h-122.438c-18.681 0-33.829-15.143-33.829-33.829v0 0-139.369c0-0.099 0-0.223 0-0.342 0-16.253-13.176-29.429-29.429-29.429-0.119 0-0.238 0-0.357 0h-75.755c-16.441 0-29.766 13.329-29.766 29.766v0z"></path>
</svg>