<svg xmlns="http://www.w3.org/2000/svg" viewBox="0 0 12.1 12">
<g fill="currentColor">
<path d="m10.995 10.995h-9.99v-.999c0-.699 2.597-1.998 4.995-1.998s4.995 1.299 4.995 1.998v.999m-10.989-.999v1.399c0 .3.3.599.599.599h10.889c.3 0 .599-.3.599-.599v-1.399c0-1.998-3.996-2.997-5.994-2.997s-6.093.999-6.093 2.997"/><path d="M6,5.001c-1.099,0-1.998-0.899-1.998-1.998S4.901,1.005,6,1.005s1.998,0.899,1.998,1.998S7.099,5.001,6,5.001 M6,0.006c-1.698,0-2.997,1.299-2.997,2.997S4.302,6,6,6s2.997-1.299,2.997-2.997S7.698,0.006,6,0.006"/>
</g>
</svg>