<svg viewBox="0 0 20 20" xmlns="http://www.w3.org/2000/svg"><g transform="translate(1 1)"><path d="m18.976 13.204c-.041-.124-.134-.224-.254-.276l-9.08-3.893c-.056-.024-.117-.037-.179-.037l-.002.003c-.253-.001-.46.203-.461.457 0 .063.012.125.037.183l3.893 9.08c.1.233.37.341.602.241.12-.052.213-.152.255-.277l1.225-3.675 3.675-1.225c.24-.081.37-.341.289-.581"/><path d="m0 0v8h8v-8zm6 6h-4v-4h4z"/><path d="m1 17h6v-6h-6zm2-4h2v2h-2z"/><path d="m11 7h6v-6h-6zm2-4h2v2h-2z"/><g fill="#bcc3ca"><path d="m3 8h2v3h-2z"/><path d="m8 3h3v2h-3z"/></g></g></svg>