<svg viewBox="0 0 247 24" xmlns="http://www.w3.org/2000/svg">
  <text fill="#f58020" x="83" y="24" font-size="1rem" font-family="Lato,sans-serif">Administration Console</text>
  <path d="m74.532374 12.086331h1.007194v12.086331h-1.007194z" fill="#bcc3ca" />
  <g fill="#fff">
    <path d="m55.7353158 18.1405057c0 2.0972776 1.6457769 3.8793533 3.7074247 3.8793533 2.0653754 0 3.7078906-1.7820757 3.7078906-3.8793533 0-2.1216896-1.6425152-3.8812679-3.7078906-3.8812679-2.0616478 0-3.7074247 1.7595783-3.7074247 3.8812679m9.5018921 0c0 3.3602394-2.5488108 5.9266102-5.7944674 5.9266102-3.2419289 0-5.7909727-2.5704395-5.7909727-5.9266102 0-3.3583246 2.5490438-5.9278068 5.7909727-5.9278068 3.2456566 0 5.7944674 2.5694822 5.7944674 5.9278068" />
    <path d="m48.435792 16.8548073c-.2523183-1.668153-1.3193707-2.7834461-2.9905425-2.7834461-1.620149 0-2.825825 1.1827851-3.0846668 2.7834461zm-6.1851763 1.6157391c.0186385 1.9094009 1.2737065 3.6917159 3.265926 3.6917159 1.5998796 0 2.4574822-.8338372 3.2456565-2.1678809l1.7606365 1.0245858c-1.0213881 1.9285476-2.9194834 3.0481487-5.0279603 3.0481487-3.3150849 0-5.3282726-2.5718755-5.3282726-5.8574428 0-3.427492 1.7832356-5.9960169 5.2823754-5.9960169 3.4534755 0 5.0773522 2.6185455 5.0773522 5.9268495v.3317159z" />
    <path d="m32.0777388 19.4953715 3.1268364-6.9535893h2.3409917l-5.4678281 11.5253337-5.4447631-11.5212651h2.3393611z" />
    <path d="m14.6505364 18.1405057c0 2.0972776 1.6471747 3.8793533 3.7088225 3.8793533 2.0635116 0 3.7055609-1.7820757 3.7055609-3.8793533 0-2.1216896-1.6420493-3.8812679-3.7055609-3.8812679-2.0616478 0-3.7088225 1.7595783-3.7088225 3.8812679m9.5032898 0c0 3.3602394-2.5504416 5.9266102-5.7944673 5.9266102s-5.7912056-2.5704395-5.7912056-5.9266102c0-3.3583246 2.5471799-5.9278068 5.7912056-5.9278068 3.2419289 0 5.7944673 2.5694822 5.7944673 5.9278068" />
    <path d="m8.9744233 15.7098369c-.83383855-.9750438-1.85382881-1.4963117-3.10540208-1.4963117-2.03811669 0-3.61283443 1.8524396-3.61283443 3.9004146 0 2.2863509 1.55118667 3.9511531 3.7533219 3.9511531 1.20427815 0 2.17837119-.5715278 2.96491461-1.4716604v2.7348616c-.94869811.5243791-1.89972605.7400184-2.98891164.7400184-3.19812847 0-5.81613456-2.5206581-5.81613456-5.8567247 0-3.4485534 2.59400906-5.9979316 5.93309096-5.9979316.97083131 0 2.03811669.2381367 2.87195524.7385826z" />
  </g>
  <path d="m49.8280857 5.49533158-8.9946926-5.3912216v10.62807332z" fill="#f58020" />
</svg>
