<svg viewBox="0 0 20 20" xmlns="http://www.w3.org/2000/svg"><g transform="translate(2)"><path d="m0 19v-18c0-.607.399-1 1-1h14c.603 0 1 .395 1 1v18c0 .605-.399.998-1 1h-14c-.603 0-1-.393-1-1m2-1v-16h12v16"/><path d="m9 15c-.293-.293-.293-.768 0-1.061l1.939-1.939-1.939-1.939c-.293-.293-.293-.768 0-1.061s.768-.293 1.061 0l3 3-3 3c-.293.293-.768.293-1.061 0"/><path d="m5.939 11-3-3 3-3c.293-.293.768-.293 1.061 0s.293.768 0 1.061l-1.939 1.939 1.939 1.939c.293.293.293.768 0 1.061s-.768.293-1.061 0"/></g></svg>