<svg viewBox="0 0 16 16" xmlns="http://www.w3.org/2000/svg"><g fill-rule="evenodd"><path d="m8.641 8.158c-.505-.229-.717-.019-.466.482l3.454 6.895c.248.495.546.461.666-.074l.575-2.583 2.607-.867c.527-.175.546-.503.039-.733l-6.875-3.119"/><rect height="2" rx="1" width="3" x="4" y="12"/><rect height="2" rx="1" width="3" x="8" y="1"/><rect height="2" rx="1" width="3" x="4" y="1"/><rect height="3" rx="1" width="2" x="1" y="8"/><rect height="3" rx="1" width="2" x="1" y="4"/><rect height="3" rx="1" width="2" x="12" y="4"/><rect height="3" rx="1" width="3"/><rect height="3" rx="1" width="3" y="12"/><rect height="3" rx="1" width="3" x="12"/></g></svg>