<svg viewBox="0 0 24 24" fill="none" xmlns="http://www.w3.org/2000/svg">
<path d="M17.5536 12.6305H15.9815C15.8487 12.6305 15.7214 12.6833 15.6276 12.7773L9.14612 19.2701C8.60072 19.8165 7.76037 19.8165 7.21497 19.2701L2.90942 14.957C2.36353 14.4102 2.36353 13.5669 2.90942 13.02L10.4259 5.49032L17.5536 12.6305Z" stroke="#282829" stroke-miterlimit="10" stroke-linecap="round" stroke-linejoin="round"/>
<mask id="path-2-inside-1_194_5428" fill="white">
<path d="M9.96273 11.2755V3.8551C9.96273 2.83479 9.1294 2 8.11088 2C7.09237 2 6.25903 2.83479 6.25903 3.8551V8.95662"/>
</mask>
<path d="M8.96273 11.2755C8.96273 11.8278 9.41045 12.2755 9.96273 12.2755C10.515 12.2755 10.9627 11.8278 10.9627 11.2755H8.96273ZM5.25903 8.95662C5.25903 9.5089 5.70675 9.95662 6.25903 9.95662C6.81132 9.95662 7.25903 9.5089 7.25903 8.95662H5.25903ZM10.9627 11.2755V3.8551H8.96273V11.2755H10.9627ZM10.9627 3.8551C10.9627 2.28416 9.68334 1 8.11088 1V3C8.57546 3 8.96273 3.38543 8.96273 3.8551H10.9627ZM8.11088 1C6.53843 1 5.25903 2.28416 5.25903 3.8551H7.25903C7.25903 3.38543 7.6463 3 8.11088 3V1ZM5.25903 3.8551V8.95662H7.25903V3.8551H5.25903Z" fill="#282829" mask="url(#path-2-inside-1_194_5428)"/>
<path d="M21.5 19.6811C21.5 20.7044 20.7045 21.5 19.6852 21.5C18.6658 21.5 17.8704 20.7044 17.8704 19.6811C17.8704 19.4632 17.9786 19.0627 18.1959 18.5229C18.4044 18.0049 18.6855 17.4238 18.9714 16.874C19.2249 16.3864 19.4789 15.9296 19.683 15.5723C19.8878 15.934 20.1434 16.3973 20.3985 16.8905C20.6845 17.4435 20.966 18.0266 21.1747 18.5431C21.3929 19.083 21.5 19.4762 21.5 19.6811Z" stroke="#282829" stroke-miterlimit="10" stroke-linecap="round" stroke-linejoin="round"/>
</svg>
