<svg viewBox="0 0 16 16" fill="none" stroke="#282829" xmlns="http://www.w3.org/2000/svg">
<path d="M12.2018 8.40443H11.1852C11.0524 8.40443 10.9251 8.45723 10.8313 8.55119L5.64613 13.7455C5.24887 14.1434 4.64001 14.1434 4.24275 13.7455L0.798307 10.295C0.400564 9.89654 0.400564 9.28509 0.798307 8.88665L6.74073 2.9338L12.2018 8.40443Z" stroke-miterlimit="10" stroke-linecap="round" stroke-linejoin="round"/>
<mask id="path-2-inside-1_194_5423" fill="white">
<path d="M6.37018 7.42039V1.48408C6.37018 0.667835 5.70352 0 4.88871 0C4.07389 0 3.40723 0.667835 3.40723 1.48408V5.5653"/>
</mask>
<path d="M5.37018 7.42039C5.37018 7.97268 5.8179 8.42039 6.37018 8.42039C6.92247 8.42039 7.37018 7.97268 7.37018 7.42039H5.37018ZM2.40723 5.5653C2.40723 6.11758 2.85494 6.5653 3.40723 6.5653C3.95951 6.5653 4.40723 6.11758 4.40723 5.5653H2.40723ZM7.37018 7.42039V1.48408H5.37018V7.42039H7.37018ZM7.37018 1.48408C7.37018 0.117204 6.25746 -1 4.88871 -1V1C5.14958 1 5.37018 1.21847 5.37018 1.48408H7.37018ZM4.88871 -1C3.51996 -1 2.40723 0.117204 2.40723 1.48408H4.40723C4.40723 1.21847 4.62783 1 4.88871 1V-1ZM2.40723 1.48408V5.5653H4.40723V1.48408H2.40723Z" fill="#282829" mask="url(#path-2-inside-1_194_5423)"/>
<path d="M15.5 14.1449C15.5 14.9084 14.9082 15.5 14.1481 15.5C13.388 15.5 12.7963 14.9084 12.7963 14.1449C12.7963 13.9919 12.8756 13.6876 13.0495 13.2556C13.2145 12.8455 13.4378 12.3838 13.6658 11.9453C13.8332 11.6235 14.0008 11.3183 14.146 11.061C14.292 11.322 14.4611 11.632 14.6299 11.9583C14.8581 12.3995 15.0817 12.8629 15.247 13.2719C15.4219 13.7045 15.5 14.0026 15.5 14.1449Z" stroke-miterlimit="10" stroke-linecap="round" stroke-linejoin="round"/>
</svg>
