<svg viewBox="0 0 32 32" fill="none" stroke="#282829" xmlns="http://www.w3.org/2000/svg">
<path d="M24.2573 17.0828H21.574C21.4413 17.0828 21.314 17.1356 21.2202 17.2295L12.1461 26.3195C11.3044 27.1627 10.0011 27.1627 9.15941 26.3195L3.13164 20.2811C2.28945 19.4375 2.28945 18.1304 3.13164 17.2867L13.7963 6.60336L24.2573 17.0828Z" stroke-miterlimit="10" stroke-linecap="round" stroke-linejoin="round"/>
<mask id="path-2-inside-1_194_5433" fill="white">
<path d="M13.1478 14.9857V4.59714C13.1478 3.16871 11.9812 2 10.5552 2C9.12931 2 7.96265 3.16871 7.96265 4.59714V11.7393"/>
</mask>
<path d="M12.1478 14.9857C12.1478 15.538 12.5955 15.9857 13.1478 15.9857C13.7001 15.9857 14.1478 15.538 14.1478 14.9857H12.1478ZM6.96265 11.7393C6.96265 12.2916 7.41036 12.7393 7.96265 12.7393C8.51493 12.7393 8.96265 12.2916 8.96265 11.7393H6.96265ZM14.1478 14.9857V4.59714H12.1478V14.9857H14.1478ZM14.1478 4.59714C14.1478 2.61808 12.5351 1 10.5552 1V3C11.4272 3 12.1478 3.71934 12.1478 4.59714H14.1478ZM10.5552 1C8.57537 1 6.96265 2.61808 6.96265 4.59714H8.96265C8.96265 3.71934 9.68325 3 10.5552 3V1ZM6.96265 4.59714V11.7393H8.96265V4.59714H6.96265Z" fill="#282829" mask="url(#path-2-inside-1_194_5433)"/>
<path d="M29.5 26.7536C29.5 28.2963 28.2971 29.5 26.7593 29.5C25.2214 29.5 24.0186 28.2963 24.0186 26.7536C24.0186 26.4058 24.1847 25.8128 24.4888 25.0574C24.784 24.3238 25.181 23.5038 25.5825 22.7314C25.9833 21.9605 26.3847 21.2448 26.6862 20.7213C26.7105 20.6791 26.7341 20.6382 26.757 20.5987C26.781 20.6405 26.8058 20.6839 26.8313 20.7286C27.133 21.2574 27.5345 21.9795 27.9355 22.7548C28.3373 23.5316 28.7346 24.3542 29.0301 25.0854C29.3351 25.8401 29.5 26.4234 29.5 26.7536Z" stroke="#282829" stroke-miterlimit="10" stroke-linecap="round" stroke-linejoin="round"/>
</svg>
