<svg xmlns="http://www.w3.org/2000/svg" viewBox="0 0 16 16">
<path d="M8.0041258 16C12.3775142 16 16 12.3775142 16 7.9958742 16 3.6224858 12.3692625 0 7.9958742 0 3.6224858 
0 0 3.6224858 0 7.9958742 0 12.3775142 3.6307375 16 8.0041258 16zm0-1.42754c-3.6472408 
0-6.5683342-2.9210933-6.5683342-6.5765858 0-3.6472409 2.9128417-6.5765859 6.5600826-6.5765859 3.6472408 0 
6.5765858 2.929345 6.5848548 6.5765859.0082344 3.6554925-2.9293623 6.5765858-6.5766032 6.5765858zm-1.4027849-3.6224858c.3795771 
0 .5528623-.1980402.5528623-.5033522V5.553378c0-.305312-.1732852-.5033522-.5528623-.5033522h-.7509025c-.3795771 
0-.561114.1980402-.561114.5033522v4.893244c0 .305312.1815369.5033522.561114.5033522h.7509025zm3.5482207 0c.3713255 
0 .5528623-.1980402.5528623-.5033522V5.553378c0-.305312-.1815368-.5033522-.5528623-.5033522h-.7509025c-.3713254 
0-.561114.1980402-.561114.5033522v4.893244c0 .305312.1897886.5033522.561114.5033522h.7509025z"/>
</svg>