<svg xmlns="http://www.w3.org/2000/svg" viewBox="0 0 3338 1024">
    <path fill="#000" d="M212.539 291.458c0 5.234-4.243 9.477-9.477 9.477s-9.477-4.243-9.477-9.477c0-5.234 4.243-9.477 9.477-9.477v0c0.016 0 0.034 0 0.053 0 5.205 0 9.424 4.219 9.424 9.424 0 0.019 0 0.037 0 0.056v-0.003z"></path>
    <path fill="#000" d="M18.953 406.494c0 5.234-4.243 9.477-9.477 9.477s-9.477-4.243-9.477-9.477c0-5.234 4.243-9.477 9.477-9.477v0c0.016 0 0.034 0 0.053 0 5.205 0 9.424 4.219 9.424 9.424 0 0.019 0 0.037 0 0.056v-0.003z"></path>
    <path fill="#000" d="M321.941 549.485c0 5.234-4.243 9.477-9.477 9.477s-9.477-4.243-9.477-9.477c0-5.234 4.243-9.477 9.477-9.477v0c0.016 0 0.034 0 0.053 0 5.205 0 9.424 4.219 9.424 9.424 0 0.019 0 0.037 0 0.056v-0.003z"></path>
    <path fill="#000" d="M160.681 1014.26c0 5.234-4.243 9.477-9.477 9.477s-9.477-4.243-9.477-9.477c0-5.234 4.243-9.477 9.477-9.477v0c0.016 0 0.034 0 0.053 0 5.205 0 9.424 4.219 9.424 9.424 0 0.019 0 0.037 0 0.056v-0.003z"></path>
    <path fill="#000" d="M632.142 160.26c0 5.234-4.243 9.477-9.477 9.477s-9.477-4.243-9.477-9.477c0-5.234 4.243-9.477 9.477-9.477v0c0.016 0 0.034 0 0.053 0 5.205 0 9.424 4.219 9.424 9.424 0 0.019 0 0.037 0 0.056v-0.003z"></path>
    <path fill="#000" d="M1045.375 168.473c0 5.234-4.243 9.477-9.477 9.477s-9.477-4.243-9.477-9.477c0-5.234 4.243-9.477 9.477-9.477v0c0.016 0 0.034 0 0.053 0 5.205 0 9.424 4.219 9.424 9.424 0 0.019 0 0.037 0 0.056v-0.003z"></path>
    <path fill="#000" d="M1006.363 637.354c0 5.234-4.243 9.477-9.477 9.477s-9.477-4.243-9.477-9.477c0-5.234 4.243-9.477 9.477-9.477v0c0.016 0 0.034 0 0.053 0 5.205 0 9.424 4.219 9.424 9.424 0 0.019 0 0.037 0 0.056v-0.003z"></path>
    <path fill="#000" d="M1004.836 822.675c0 5.234-4.243 9.477-9.477 9.477s-9.477-4.243-9.477-9.477c0-5.234 4.243-9.477 9.477-9.477v0c0.016 0 0.034 0 0.053 0 5.205 0 9.424 4.219 9.424 9.424 0 0.019 0 0.037 0 0.056v-0.003z"></path>
    <path fill="#000" d="M845.261 990.042c0 5.234-4.243 9.477-9.477 9.477s-9.477-4.243-9.477-9.477c0-5.234 4.243-9.477 9.477-9.477v0c0.016 0 0.034 0 0.053 0 5.205 0 9.424 4.219 9.424 9.424 0 0.019 0 0.037 0 0.056v-0.003z"></path>
    <path fill="#000" d="M1502.358 764.815c0 5.234-4.243 9.477-9.477 9.477s-9.477-4.243-9.477-9.477c0-5.234 4.243-9.477 9.477-9.477v0c0.016 0 0.034 0 0.053 0 5.205 0 9.424 4.219 9.424 9.424 0 0.019 0 0.037 0 0.056v-0.003z"></path>
    <path fill="#000" d="M1593.386 255.71c0 5.234-4.243 9.477-9.477 9.477s-9.477-4.243-9.477-9.477c0-5.234 4.243-9.477 9.477-9.477v0c0.016 0 0.034 0 0.053 0 5.205 0 9.424 4.219 9.424 9.424 0 0.019 0 0.037 0 0.056v-0.003z"></path>
    <path fill="#000" d="M1991.772 299.355c0 5.234-4.243 9.477-9.477 9.477s-9.477-4.243-9.477-9.477c0-5.234 4.243-9.477 9.477-9.477v0c0.016 0 0.034 0 0.053 0 5.205 0 9.424 4.219 9.424 9.424 0 0.019 0 0.037 0 0.056v-0.003z"></path>
    <path fill="#000" d="M2024.098 846.208c0 5.234-4.243 9.477-9.477 9.477s-9.477-4.243-9.477-9.477c0-5.234 4.243-9.477 9.477-9.477v0c0.016 0 0.034 0 0.053 0 5.205 0 9.424 4.219 9.424 9.424 0 0.019 0 0.037 0 0.056v-0.003z"></path>
    <path fill="#000" d="M2297.867 137.148c0 5.234-4.243 9.477-9.477 9.477s-9.477-4.243-9.477-9.477c0-5.234 4.243-9.477 9.477-9.477v0c0.016 0 0.034 0 0.053 0 5.205 0 9.424 4.219 9.424 9.424 0 0.019 0 0.037 0 0.056v-0.003z"></path>
    <path fill="#000" d="M2438.436 39.802c0 5.234-4.243 9.477-9.477 9.477s-9.477-4.243-9.477-9.477c0-5.234 4.243-9.477 9.477-9.477v0c0.016 0 0.034 0 0.053 0 5.205 0 9.424 4.219 9.424 9.424 0 0.019 0 0.037 0 0.056v-0.003z"></path>
    <path fill="#000" d="M2427.064 219.91c0 5.234-4.243 9.477-9.477 9.477s-9.477-4.243-9.477-9.477c0-5.234 4.243-9.477 9.477-9.477v0c0.016 0 0.034 0 0.053 0 5.205 0 9.424 4.219 9.424 9.424 0 0.019 0 0.037 0 0.056v-0.003z"></path>
    <path fill="#000" d="M2814.868 9.529c0 5.234-4.243 9.477-9.477 9.477s-9.477-4.243-9.477-9.477c0-5.234 4.243-9.477 9.477-9.477v0c0.016 0 0.034 0 0.053 0 5.205 0 9.424 4.219 9.424 9.424 0 0.019 0 0.037 0 0.056v-0.003z"></path>
    <path fill="#000" d="M2392.896 760.814c0 5.234-4.243 9.477-9.477 9.477s-9.477-4.243-9.477-9.477c0-5.234 4.243-9.477 9.477-9.477v0c0.016 0 0.034 0 0.053 0 5.205 0 9.424 4.219 9.424 9.424 0 0.019 0 0.037 0 0.056v-0.003z"></path>
    <path fill="#000" d="M3328.342 751.284c0 5.234-4.243 9.477-9.477 9.477s-9.477-4.243-9.477-9.477c0-5.234 4.243-9.477 9.477-9.477v0c0.016 0 0.034 0 0.053 0 5.205 0 9.424 4.219 9.424 9.424 0 0.019 0 0.037 0 0.056v-0.003z"></path>
    <path fill="#000" d="M3337.871 284.298c0 5.234-4.243 9.477-9.477 9.477s-9.477-4.243-9.477-9.477c0-5.234 4.243-9.477 9.477-9.477v0c0.016 0 0.034 0 0.053 0 5.205 0 9.424 4.219 9.424 9.424 0 0.019 0 0.037 0 0.056v-0.003z"></path>
    <path fill="#000" d="M2805.286 855.843c0 5.234-4.243 9.477-9.477 9.477s-9.477-4.243-9.477-9.477c0-5.234 4.243-9.477 9.477-9.477v0c0.016 0 0.034 0 0.053 0 5.205 0 9.424 4.219 9.424 9.424 0 0.019 0 0.037 0 0.056v-0.003z"></path>
    <path fill="#000" d="M2945.961 509.368c0 5.234-4.243 9.477-9.477 9.477s-9.477-4.243-9.477-9.477c0-5.234 4.243-9.477 9.477-9.477v0c0.016 0 0.034 0 0.053 0 5.205 0 9.424 4.219 9.424 9.424 0 0.019 0 0.037 0 0.056v-0.003z"></path>
    <path fill="#000" d="M7.561 407.415l3.846-0.896 141.603 607.54-3.846 0.896z"></path>
    <path fill="#000" d="M8.477 405.295l193.703-115.332 2.020 3.393-193.703 115.332z"></path>
    <path fill="#000" d="M8.661 408.741l1.683-3.572 302.755 142.659-1.683 3.572z"></path>
    <path fill="#000" d="M7.319 405.092l615.31-243.619 1.454 3.671-615.31 243.619z"></path>
    <path fill="#000" d="M202.611 289.698l419.657-133.042 1.193 3.764-419.657 133.042z"></path>
    <path fill="#000" d="M148.818 1014.373l52.827-722.822 3.938 0.288-52.827 722.822z"></path>
    <path fill="#000" d="M309.041 548.036l309.704-389.628 3.080 2.448-309.704 389.628z"></path>
    <path fill="#000" d="M149.17 1013.86l161.314-464.797 3.73 1.295-161.314 464.797z"></path>
    <path fill="#000" d="M310.925 551.215l2.543-3.020 523.327 440.683-2.543 3.020z"></path>
    <path fill="#000" d="M311.431 551.466l1.466-3.666 683.38 273.194-1.466 3.666z"></path>
    <path fill="#000" d="M311.959 551.624l0.503-3.916 684.431 87.92-0.503 3.916z"></path>
    <path fill="#000" d="M998.413 639.25l-845.366 374.852-1.579-3.633 845.419-374.852 1.527 3.633z"></path>
    <path fill="#000" d="M150.979 1012.459l684.421-24.020 0.138 3.946-684.421 24.020z"></path>
    <path fill="#000" d="M621.082 159.5l3.444-1.932 372.702 664.42-3.444 1.932z"></path>
    <path fill="#000" d="M621.322 159.674l3.113-2.429 373.779 479.105-3.113 2.429z"></path>
    <path fill="#000" d="M622.85 160.455l0.096-3.947 413.269 10.028-0.096 3.947z"></path>
    <path fill="#000" d="M994.708 637.424l39.225-469.087 3.935 0.329-39.225 469.087z"></path>
    <path fill="#000" d="M833.539 989.457l161.435-352.605 3.59 1.644-161.435 352.605z"></path>
    <path fill="#000" d="M834.919 988.491l657.515-225.502 1.281 3.735-657.515 225.502z"></path>
    <path fill="#000" d="M996.079 639.467l0.981-3.825 496.498 127.387-0.981 3.825z"></path>
    <path fill="#000" d="M995.32 821.099l497.511-58.092 0.458 3.922-497.511 58.092z"></path>
    <path fill="#000" d="M1035.832 170.409l0.622-3.899 547.554 87.41-0.622 3.899z"></path>
    <path fill="#000" d="M995.555 635.967l586.917-381.877 2.153 3.31-586.917 381.877z"></path>
    <path fill="#000" d="M1034.476 169.653l3.134-2.402 457.033 596.478-3.134 2.402z"></path>
    <path fill="#000" d="M1583.534 257.799l0.431-3.925 398.523 43.716-0.431 3.925z"></path>
    <path fill="#000" d="M1492.743 766.833l0.606-3.902 521.747 81.050-0.606 3.902z"></path>
    <path fill="#000" d="M1491.245 764.616l90.239-509.172 3.888 0.689-90.239 509.172z"></path>
    <path fill="#000" d="M1491.751 763.632l489.172-465.344 2.722 2.861-489.172 465.344z"></path>
    <path fill="#000" d="M1582.067 257.094l3.188-2.329 431.164 590.192-3.188 2.329z"></path>
    <path fill="#000" d="M1583.312 253.954l705.007-118.231 0.653 3.894-705.007 118.231z"></path>
    <path fill="#000" d="M1980.261 299.65l3.942-0.236 32.66 546.51-3.942 0.236z"></path>
    <path fill="#000" d="M2015.306 847.946l-0.895-3.791 368.535-85.342 0.895 3.896-368.535 85.237z"></path>
    <path fill="#000" d="M2012.336 851.048l273.495-706.528 3.672 1.421-273.495 706.528z"></path>
    <path fill="#000" d="M2009.804 845.453l401.799-625.020 3.317 2.132-401.799 625.020z"></path>
    <path fill="#000" d="M1980.68 300.865l2.979-2.592 401.171 461.17-2.979 2.592z"></path>
    <path fill="#000" d="M1981.352 297.986l306.304-162.385 1.849 3.489-306.304 162.385z"></path>
    <path fill="#000" d="M1981.268 297.951l446.876-259.775 1.984 3.414-446.876 259.775z"></path>
    <path fill="#000" d="M2288.058 135.078l517.079-127.581 0.946 3.834-517.079 127.581z"></path>
    <path fill="#000" d="M2287.545 139.1l2.137-3.321 128.439 82.646-2.137 3.321z"></path>
    <path fill="#000" d="M2286.641 137.903l3.904-0.593 94.719 623.355-3.904 0.593z"></path>
    <path fill="#000" d="M1981.881 297.602l434.877-79.501 0.71 3.884-434.877 79.501z"></path>
    <path fill="#000" d="M2377.299 755.658l43.333-722.223 3.949 0.237-43.333 722.223z"></path>
    <path fill="#000" d="M2427.844 41.543l2.682-2.898 507.521 469.64-2.682 2.898z"></path>
    <path fill="#000" d="M2429.035 38.227l376.41-30.484 0.319 3.936-376.41 30.484z"></path>
    <path fill="#000" d="M2415.369 221.149l3.393-2.019 378.531 636-3.393 2.019z"></path>
    <path fill="#000" d="M2795.178 858.001l-412.232-95.293 0.842-3.896 412.232 95.293-0.842 3.896z"></path>
    <path fill="#000" d="M2382.587 759.117l553.256-251.317 1.633 3.595-553.256 251.317z"></path>
    <path fill="#000" d="M2416.080 218.247l388.482-210.665 1.882 3.471-388.482 210.665z"></path>
    <path fill="#000" d="M2804.703 11.195l1.837-3.495 522.772 274.811-1.837 3.495z"></path>
    <path fill="#000" d="M2937.695 511.368l-2.001-3.475 391.7-225.333 2.001 3.475-391.7 225.333z"></path>
    <path fill="#000" d="M2935.522 511.163l2.11-3.338 382.221 241.63-2.11 3.338z"></path>
    <path fill="#000" d="M2793.726 855.251l141.094-346.432 3.657 1.489-141.094 346.432z"></path>
    <path fill="#000" d="M2795.968 858.001l-0.737-3.896 523.319-104.769 0.737 3.896-523.319 104.769z"></path>
    <path fill="#000" d="M2794.178 854.774l532.985-571.556 2.888 2.693-532.985 571.556z"></path>
    <path fill="#000" d="M2803.688 9.858l3.82-1.001 131.119 500.153-3.82 1.001z"></path>
    <path fill="#000" d="M3316.646 751.187l9.701-466.991 3.948 0.082-9.701 466.991z"></path>
</svg>
