<?xml version="1.0" encoding="UTF-8"?>
<svg fill="none" version="1.1" viewBox="0 0 217 176.9" xmlns="http://www.w3.org/2000/svg" xmlns:cc="http://creativecommons.org/ns#" xmlns:dc="http://purl.org/dc/elements/1.1/" xmlns:rdf="http://www.w3.org/1999/02/22-rdf-syntax-ns#">
 <g fill="#f6f7f9">
  <rect y="61" width="45" height="103"/>
  <rect x="172" width="45" height="164"/>
  <rect x="86" y="22" width="45" height="142"/>
 </g>
 <g transform="translate(-42.858 -39.198)" filter="url(#filter0_d)">
  <path d="m53.858 157.2c-1.0472-1.294-1.0472-3.056 0-4.351 7.232-8.941 38.196-42.382 96.737-42.382 58.687 0 88.557 33.607 95.4 42.448 0.979 1.265 0.979 2.954 0 4.219-6.843 8.841-36.713 42.448-95.4 42.448-58.542 0-89.505-33.441-96.737-42.382z" fill="#fff"/>
 </g>
 <path fill="#fff" d="m11.007 116s29.812-43.316 96.92-43.316c67.108 0 94.745 42.806 94.745 42.806" stroke="#333357" stroke-width="3.0169"/>
 <circle cx="108" cy="120" r="28" fill="#00adff"/>
 <circle cx="108" cy="120" r="14" fill="#333357"/>
 <g stroke="#333357" stroke-width="3">
  <line x1="113.68" x2="113.68" y1="64.032" y2="43.036"/>
  <path d="m164 175.84-118.81-118.81"/>
  <path d="m157.17 71.031 13.997-13.997"/>
 </g>
 <defs>
  <filter id="filter0_d" x="17.045" y="34.045" width="265.95" height="265.95" color-interpolation-filters="sRGB" filterUnits="userSpaceOnUse">
   <feFlood flood-opacity="0" result="BackgroundImageFix"/>
   <feColorMatrix in="SourceAlpha" values="0 0 0 0 0 0 0 0 0 0 0 0 0 0 0 0 0 0 127 0"/>
   <feOffset dy="12"/>
   <feGaussianBlur stdDeviation="17"/>
   <feColorMatrix values="0 0 0 0 0.0941177 0 0 0 0 0.113725 0 0 0 0 0.227451 0 0 0 0.07 0"/>
   <feBlend in2="BackgroundImageFix" result="effect1_dropShadow"/>
   <feBlend in="SourceGraphic" in2="effect1_dropShadow" result="shape"/>
  </filter>
 </defs>
</svg>
