<svg fill="none" viewBox="0 0 24 24" xmlns="http://www.w3.org/2000/svg"><path d="m0 3c0-1.65685 1.34315-3 3-3h18c1.6569 0 3 1.34315 3 3v18c0 1.6569-1.3431 3-3 3h-18c-1.65685 0-3-1.3431-3-3z" fill="#181d3a"/><g stroke="#fff" stroke-linecap="round" stroke-linejoin="round"><path d="m11.7998 18.3v-7"/><path d="m8.7998 13.8 3-3 3 3"/><path d="m17.2028 14.1072c.6728-.5698 1.097-1.3996 1.097-2.2983 0-1.5268-1.224-2.78838-2.8117-2.98686-.527-1.41893-1.9793-2.43837-3.6883-2.43837-2.15391 0-3.9 1.61929-3.9 3.61683-1.43594 0-2.6 1.0795-2.6 2.4112 0 .815.43602 1.5355 1.10354 1.972"/></g></svg>