<svg fill="none" stroke="#282829" viewBox="0 0 32 32" xmlns="http://www.w3.org/2000/svg"><g stroke-linecap="round"><circle cx="16" cy="16" r="13.5"/><path d="m16.5347 20v-1.2607c.0136-.3463.0544-.6421.1224-.8874.0681-.2452.1633-.4689.2857-.6709.1225-.2164.2722-.4184.449-.606.1769-.1876.381-.404.6123-.6493s.4558-.4833.6734-.7142c.2177-.2453.4082-.505.5715-.7791.1632-.2886.2925-.5988.3877-.9307.1089-.3318.1633-.7142.1633-1.1471 0-.4328-.0816-.8512-.2449-1.2552-.1497-.404-.3742-.7575-.6735-1.0605-.2993-.31747-.6734-.56997-1.1224-.75754-.4354-.18757-.932-.28136-1.4898-.28136s-1.0408.08657-1.449.25972c-.3946.15871-.7347.36071-1.0204.606-.2721.23088-.4898.47618-.6531.73588-.1496.2597-.2653.4833-.3469.6709" stroke-linejoin="round"/><path d="m16.5 24v-1"/></g></svg>