<svg enable-background="new 0 0 19.962 19.963" viewBox="0 0 19.962 19.963" xmlns="http://www.w3.org/2000/svg"><path d="m7.604 9.348c-.391-.391-1.023-.391-1.414 0s-.391 1.024 0 1.415l3.365 3.364 6.254-6.254c.391-.391.391-1.023 0-1.414s-1.023-.391-1.414 0l-4.84 4.84z"/><path d="m18.894 0h-8.758c-.369 0-.724.146-.985.407l-8.545 8.536c-.808.808-.808 2.131-.001 2.937l7.475 7.477c.403.404.936.606 1.469.606s1.065-.202 1.469-.606l8.536-8.533c.262-.262.409-.616.409-.986v-8.77c-.001-.588-.482-1.068-1.069-1.068zm-.932 9.587-8.36 8.357c-.005.005-.019.019-.053.019s-.049-.014-.054-.02l-7.475-7.477c-.026-.026-.025-.082.001-.108l8.366-8.358h7.575z"/></svg>