<svg viewBox="0 0 56 56" xmlns="http://www.w3.org/2000/svg"><g fill="none" fill-rule="evenodd"><circle cx="28" cy="28" fill="#fff" r="26.035714" stroke="#94a9bf"/><path d="m28 40.8529967c1.9329966 0 3.5-1.51803453 3.5-3.390625 0-1.71184302-1.3095201-3.12738919-3.011052-3.35780225l-.0005327-.50574049c.230477-1.85093038 1.4245712-2.91494826 4.1785362-4.30783036l.3615219-.18043c.087224-.0430851.203483-.1004139.3797746-.1873573 3.3846944-1.6713775 4.6764619-2.8530543 4.5874742-5.2512535l2.5757064-.0000828v-6.78125h-7v6.78125l3.4889788.0003383c.0743315 1.8972588-.9202063 2.8663506-3.7945171 4.3138576l-.2860511.1426081-.092789.0457612c-.0579695.0285893-.108425.053474-.1529605.0754447l-.0625627.0308694-.4364796.2174716c-1.6636692.8415511-2.8330323 1.5988173-3.5908859 2.4784787l-.1561287.19044755-.0000328-7.49515545 2.7977143-.0001217v-6.78125h-7.00000001v6.78125l3.20228571.0001217.0008823 7.46397159c-.7025465-.88536379-1.8016727-1.63886629-3.37866001-2.46055069l-.34526967-.1771917-.43647965-.2174716c-.05852121-.0288815-.12856888-.0634301-.21552315-.1063141l-.09278907-.0457612-.2860511-.1426081c-2.87431079-1.447507-3.86884854-2.4165988-3.7945171-4.3138576l3.06040745-.0003383v-6.78125h-7v6.78125l3.005.0001217-.00430703.1361859c-.03524571 2.3073361 1.27107345 3.4756047 4.591059 5.1150287.17629161.0869434.29255067.1442722.37977463.1873573l.35377208.1765116c2.58864322 1.3084586 3.80146352 2.32605731 4.13101632 3.97683097l.0330071.1860719-.0012623.65777533c-1.6903221.23999531-2.9880598 1.65048884-2.9880598 3.3546133 0 1.87259047 1.5670034 3.390625 3.5 3.390625zm0-.84765625c-1.4497475 0-2.625-1.1385259-2.625-2.54296875 0-1.40444286 1.1752525-2.54296875 2.625-2.54296875s2.625 1.13852589 2.625 2.54296875c0 1.40444285-1.1752525 2.54296875-2.625 2.54296875z" fill="#94a9bf" fill-rule="nonzero"/></g></svg>