<svg viewBox="0 0 64 64" xmlns="http://www.w3.org/2000/svg"><defs><linearGradient x1="67.865%" y1="40.331%" x2="40.823%" y2="81.706%" id="a"><stop stop-color="#0052CC" offset="18%"/><stop stop-color="#2684FF" offset="100%"/></linearGradient><linearGradient x1="32.498%" y1="59.158%" x2="59.488%" y2="18.079%" id="b"><stop stop-color="#0052CC" offset="18%"/><stop stop-color="#2684FF" offset="100%"/></linearGradient></defs><g fill="none" fill-rule="evenodd"><path d="M0 0h64v64H0z"/><g fill-rule="nonzero"><path d="M55.387 30.76L34.014 9.125 31.916 7 15.853 23.26l-7.343 7.5c-.787.797-.787 2.058 0 2.788l14.686 14.867 8.72 8.827 16.063-16.26.262-.266 7.146-7.168c.787-.796.787-2.057 0-2.787zm-23.471 8.828l-7.343-7.434 7.343-7.433 7.343 7.433-7.343 7.434z" fill="#2684FF"/><path d="M24.949 17.678C20.087 12.826 20.02 4.918 24.882 0L8.565 16.282l8.858 8.84 7.526-7.444z" fill="url(#a)" transform="translate(7 7)"/><path d="M32.474 25.121l-7.525 7.47a12.384 12.384 0 010 17.651L41.332 33.98l-8.858-8.859z" fill="url(#b)" transform="translate(7 7)"/></g></g></svg>