<svg enable-background="new 0 0 32 32" viewBox="0 0 32 32" xmlns="http://www.w3.org/2000/svg"><path d="m30 2v28h-28v-28zm0-2h-28c-1.1 0-2 .9-2 2v28c0 1.1.9 2 2 2h28c1.1 0 2-.9 2-2v-28c0-1.1-.9-2-2-2z" fill="#bcc3ca"/><path d="m23.1 10.3-3.2 1.2.5-3.5-2.6-2.2-3.2 1.2-.6 3.4-2.6-2.2-3.3 1.2-.6 3.4 2.6 2.2-3.2 1.2-.6 3.4 2.6 2.2 3.2-1.2-.5 3.4 2.6 2.2 3.2-1.2.6-3.4 2.6 2.2 3.2-1.2.6-3.4-2.5-2.2 3.2-1.2.6-3.4zm-7.7 9.1 3.2-1.2-.6 3.4zm1.2-6.8-3.2 1.2.6-3.4zm-6.5 2.4 3.2-1.2-.6 3.4zm5.3 4.4-3.2 1.2.6-3.4zm-2.6-2.2.6-3.4 3.2-1.2 2.6 2.2-.6 3.4-3.2 1.2zm6.4-2.4 2.6 2.2-3.2 1.2zm-2.6-2.2 3.2-1.2-.6 3.4zm-2-5.6 3.2-1.2 2.6 2.2-.6 3.4-3.2 1.2-2.6-2.2zm-7.1 5.7.6-3.4 3.2-1.2 2.6 2.2-.6 3.4-3.2 1.3zm1.4 9-2.6-2.2.6-3.4 3.2-1.2 2.6 2.2-.6 3.4zm8.5 3.3-3.2 1.2-2.6-2.2.6-3.4 3.2-1.2 2.6 2.2zm7.1-5.8-.6 3.4-3.2 1.2-2.7-2.2.6-3.4 3.2-1.2zm.6-3.3-3.2 1.1-2.6-2.2.6-3.4 3.2-1.2 2.6 2.2z" fill="#1a1a1a"/><path d="m25.1 13.1-7.9-6.6c-.4-.3-.4-.9-.1-1.2.3-.4.9-.4 1.2-.1l7.9 6.6c.4.3.4.9.1 1.2-.2.2-.4.3-.7.3-.1 0-.3 0-.5-.2" fill="#649791"/><path d="m14.1 27c-.4 0-.7-.2-.8-.6-.2-.5.1-1 .5-1.1l9.8-3.5c.5-.2 1 .1 1.1.5.2.5-.1 1-.5 1.1l-9.8 3.6c-.1 0-.2 0-.3 0" fill="#efc519"/><path d="m6.3 20.5c-.1 0-.1 0-.2 0-.5-.1-.8-.5-.7-1l1.8-10.3c.1-.5.5-.8 1-.7s.8.5.8 1l-1.8 10.3c-.1.4-.5.7-.9.7" fill="#a21c3d"/><path d="m10.7 12.5c-.1 0-.1 0-.2 0-.5-.1-.8-.5-.7-1l.7-3.5c.1-.5.5-.8 1-.7s.8.5.7 1l-.6 3.4c-.1.5-.5.8-.9.8" fill="#068cba"/><path d="m8.9 22.6c-.1 0-.1 0-.2 0-.5-.1-.8-.5-.7-1l.6-3.4c.1-.5.5-.8 1-.7s.8.5.7 1l-.6 3.4c0 .4-.3.7-.8.7" fill="#531210"/><path d="m17.2 10.1c-.2 0-.4-.1-.6-.2l-2.6-2.2c-.4-.3-.4-.9-.1-1.2.3-.4.9-.4 1.2-.1l2.6 2.2c.4.3.4.9.1 1.2-.1.2-.4.3-.6.3" fill="#509f4e"/><path d="m25.1 16.7c-.2 0-.4-.1-.6-.2l-2.6-2.2c-.4-.3-.4-.9-.1-1.2.3-.4.9-.4 1.2-.1l2.6 2.2c.4.3.4.9.1 1.2-.1.2-.3.3-.6.3" fill="#106e66"/><path d="m21.3 21.3c-.4 0-.7-.2-.8-.6-.2-.5.1-1 .5-1.1l3.2-1.2c.5-.2 1 .1 1.1.5.2.5-.1 1-.5 1.1l-3.2 1.2c-.1.1-.2.1-.3.1" fill="#068cba"/><path d="m15.4 20.3c-.2 0-.4-.1-.6-.2l-2.6-2.2c-.4-.3-.4-.9-.1-1.2.3-.4.9-.4 1.2-.1l2.6 2.2c.4.3.4.9.1 1.2-.1.2-.3.3-.6.3" fill="#92beaf"/><path d="m18.6 19.1c-.1 0-.1 0-.2 0-.5-.1-.8-.5-.7-1l.6-3.4c.1-.5.5-.8 1-.7s.8.5.7 1l-.6 3.4c0 .4-.3.7-.8.7" fill="#4b635b"/><path d="m13.4 14.7c-.4 0-.7-.2-.8-.6-.2-.5.1-1 .5-1.1l3.2-1.2c.5-.2 1 .1 1.1.5.2.5-.1 1-.5 1.1l-3.2 1.2c-.1 0-.2.1-.3.1" fill="#b9bc63"/><path d="m11.6 24.8c-.4 0-.7-.2-.8-.6-.2-.5.1-1 .5-1.1l3.2-1.2c.5-.2 1 .1 1.1.5.2.5-.1 1-.5 1.1l-3.2 1.2c-.1.1-.2.1-.3.1" fill="#e38b25"/></svg>