<svg viewBox="0 0 64 64" xmlns="http://www.w3.org/2000/svg"><g fill="none" fill-rule="evenodd"><path d="M0 0h64v64H0z"/><path d="M33.6 27c-3.4 0-6.2 1.8-7.6 4.6-1.4-2.8-4.4-4.6-7.6-4.6-2 0-3.8.6-5.2 1.8v-7.2c0-1-.8-1.6-1.8-1.6s-1.8.8-1.8 1.6V36c0 4.8 4 8.6 8.6 8.6 3.4 0 6.2-1.8 7.6-4.6 1.4 2.8 4.4 4.6 7.6 4.6 4.8 0 8.6-3.8 8.6-8.6.4-5.2-3.6-9-8.4-9M18.4 40.8c-2.8 0-5.2-2.4-5.2-5.2 0-2.8 2.4-5.2 5.2-5.2 2.8 0 5.2 2.4 5.2 5.2 0 2.8-2.4 5.2-5.2 5.2m15.2 0c-2.8 0-5.2-2.4-5.2-5.2 0-2.8 2.4-5.2 5.2-5.2 2.8 0 5.2 2.4 5.2 5.2 0 2.8-2.2 5.2-5.2 5.2" fill="#0075C9" fill-rule="nonzero"/><path d="M54 41.6l-4.4-6 4.4-6c.6-.8.4-1.8-.4-2.4-.8-.6-1.8-.4-2.4.4l-3.8 5.2-3.8-5.2c-.6-.8-1.6-.8-2.4-.4-.8.6-1 1.6-.4 2.4l4.4 6-4.4 6c-.6.8-.4 1.8.4 2.4.8.6 1.8.4 2.4-.4l3.8-5.2 3.8 5.2c.6.8 1.6.8 2.4.4.8-.6 1-1.8.4-2.4" fill="#0075C9" fill-rule="nonzero"/></g></svg>