<svg enable-background="new 0 0 32 32" viewBox="0 0 32 32" xmlns="http://www.w3.org/2000/svg"><path d="m2 0h28c1.1 0 2 .9 2 2v28c0 1.1-.9 2-2 2h-28c-1.1 0-2-.9-2-2v-28c0-1.1.9-2 2-2" fill="#004990"/><g fill="#fff" transform="translate(5 5)"><path d="m21 0h-20c-.6 0-1 .4-1 1v21h22v-21c0-.6-.4-1-1-1m0 21h-20v-15h20zm0-16h-20v-2h20z"/><path d="m15.2 17c-1.4 1.9-4.1 2.5-6.2 1.7s-3.7-3.1-3.5-5.4c0-2.8 2.6-5.3 5.5-5.2 1.3-.1 2.6.5 3.7 1.3-.4.5-.9 1-1.4 1.4-1.2-.9-3-1.1-4.3-.1-1.8 1.2-1.9 4.1-.1 5.5 1.7 1.5 4.8.8 5.3-1.6h-3.1v-1.9h5.2c0 1.5-.2 3.1-1.1 4.3"/></g></svg>