<svg viewBox="0 0 64 64" xmlns="http://www.w3.org/2000/svg"><g fill="none" fill-rule="evenodd"><path d="M0 0h64v64H0z"/><g fill="#2684FF" fill-rule="nonzero"><path d="M13.166 41.91c-.394.721-.92 1.509-1.313 2.165-.394.59-.197 1.378.46 1.772l8.53 5.25c.591.394 1.444.197 1.838-.46.328-.59.788-1.312 1.247-2.1 3.347-5.578 6.76-4.921 12.928-1.968l8.466 4.003a1.315 1.315 0 001.772-.59v-.066l4.068-9.188c.263-.656 0-1.444-.656-1.706-1.772-.853-5.315-2.494-8.531-4.069-11.55-5.578-21.328-5.184-28.81 6.956z"/><path d="M51.425 21.04c.46-.721.919-1.509 1.313-2.165.393-.59.196-1.378-.46-1.772l-8.531-5.25c-.59-.394-1.444-.197-1.838.394l-.065.065c-.328.591-.788 1.313-1.247 2.1-3.413 5.579-6.76 4.922-12.928 1.97l-8.4-4.004a1.315 1.315 0 00-1.772.59v.066l-4.069 9.188c-.262.656 0 1.444.656 1.706 1.772.853 5.316 2.494 8.532 4.069 11.55 5.578 21.328 5.184 28.809-6.956z"/></g></g></svg>