<svg enable-background="new 0 0 32 32" viewBox="0 0 32 32" xmlns="http://www.w3.org/2000/svg"><path d="m30 0h-28c-1.1 0-2 .9-2 2v28c0 1.1.9 2 2 2h28c1.1 0 2-.9 2-2v-28c0-1.1-.9-2-2-2m-18.1 4.1h8.5v.7h-2.4c-.6 0-.9.1-.9.8v5.6c-.1 2.1.5 2.2 1.4 2.3v.4c-1.2 0-3.1.2-3.1-2.6v-5.7c0-.7-.4-.8-1-.8h-2.4v-.7zm-4 6.6c-.7 0-1.1-.2-1.5-.4l.2-.3c.3.2.6.2 1 .2 1.6 0 1.8-1.5 1.8-2.8 0-1.4-.4-2.7-1.8-2.9-.6 0-1.1.1-1.4.7-.3.5-.2 1.2-.2 1.8v6.7h-1.8s0-8 0-8.4c0-.7-.2-.9-1.1-.9v-.3h4.6c2.4 0 3.4 1.5 3.4 3.4.1 1.7-1.4 3.2-3.2 3.2m12.5 15.2c-1.3 1.8-3.1 2.7-4.1 1.8-.5-.5-.7-1.3-.6-2.3-.1.9.1 1.6.7 2 .9.5 2.6-.3 3.6-1.9s.9-3.4 0-3.9c-.4-.2-1-.2-1.6.1.3.8.3 1.6-.1 2.1-.3.4-.8.7-1.4.8.5-.1.8-.3 1-.6.4-.5.3-1.3.1-2-.5.3-1 .8-1.4 1.5-.1.2-.2.3-.3.5.2-.5.3-.7.6-1.1s.6-.8 1-1.1c-.3-.7-.9-1.5-1.7-2.1-1.7-1.3-3.7-1.5-4.4-.5s0 2.9 1.6 4.3c.1-.1.3-.1.4-.2 1.2-.5 2.2-.1 2.4.8v.1c-.1-.7-1-1-1.9-.6-.2.1-.3.1-.4.2.6.4 1.3.8 1.9.9-.7-.1-1.4-.4-2-.8-.6.4-1 1.1-.9 1.7.1.7 1 1 1.9.6.5-.2.9-.5 1.2-.9-.3.5-.9 1-1.6 1.2-1.2.5-2.2.1-2.3-.8-.1-.7.4-1.6 1.3-2.1-.1-.1-.2-.1-.3-.2-2-1.5-3-3.7-2.1-5s3.3-1 5.3.5c1 .7 1.7 1.7 2.1 2.5 1-.7 2.1-.9 2.7-.3.9.8.6 3-.7 4.8m4.8-12.1c-2.3 0-4.1-1.9-4.1-4.6 0-3.6 1.7-5.1 4.6-5.1h3v2.1h-.4c-.2-1.4-1.7-1.7-2.7-1.7-2.4 0-2.6 2.5-2.6 4.4 0 2 .4 4.1 2.8 4.3 1 .1 2-.5 2.7-1.3l.3.3c-.8 1-2.2 1.6-3.6 1.6" fill="#00586f"/></svg>