<svg enable-background="new 0 0 32 32" viewBox="0 0 32 32" xmlns="http://www.w3.org/2000/svg"><path d="m30 32h-28c-1.1 0-2-.9-2-2v-28c0-1.1.9-2 2-2h28c1.1 0 2 .9 2 2v28c0 1.1-.9 2-2 2" fill="#4801b9"/><g fill="#390094"><path d="m16 25.3c-7.5 0-15 2.7-15 2.7v3h30v-3s-7.5-2.7-15-2.7"/><path d="m16 6.7c-7.5 0-15-2.7-15-2.7v-3h30v3s-7.5 2.7-15 2.7z"/></g><path d="m14.3 28 .2-10.2-8.5-13.8s1.7.5 3.2 0c.4.7 6.7 10.6 6.7 10.6l6.7-10.6s1.7.4 3.4 0c-.5.6-8.6 13.8-8.6 13.8l.2 10.2s-1.6-.3-3.3 0" fill="#fff"/></svg>