<svg enable-background="new 0 0 32 32" viewBox="0 0 32 32" xmlns="http://www.w3.org/2000/svg"><path d="m2 0h28c1.1 0 2 .9 2 2v28c0 1.1-.9 2-2 2h-28c-1.1 0-2-.9-2-2v-28c0-1.1.9-2 2-2" fill="#fff"/><path d="m2 0h28c1.1 0 2 .9 2 2v28c0 1.1-.9 2-2 2h-28c-1.1 0-2-.9-2-2v-28c0-1.1.9-2 2-2" fill="#f6f6f6"/><g transform="translate(6 5)"><path d="m9.9 22c-5.5 0-10-4.3-10-9.5 0-5.3 4.5-9.5 10-9.5s10 4.3 10 9.5-4.5 9.5-10 9.5m0-16c-1.8 0-3.5.6-4.8 1.9-1.3 1.2-2 2.9-2 4.6s.7 3.4 2 4.6 3 1.9 4.8 1.9 3.5-.7 4.8-1.9 2-2.9 2-4.6-.7-3.4-2-4.6c-1.3-1.3-3-1.9-4.8-1.9" fill="#ffb819"/><g transform="translate(5.238)"><g fill="#ffb819"><path d="m15.7 1h.8v.7h-.8z"/><path d="m15.7 0h.8v.7h-.8z"/><path d="m13.6 2h.7v.7h-.7z"/></g><g fill="#231f20"><path d="m11.5 4h.7v.7h-.7z"/><path d="m13.6 3h.8v.7h-.8z"/><path d="m11.5 3h.7v.7h-.7z"/><path d="m13.6 4h.7v.7h-.7z"/><path d="m14.7 1h.8v.7h-.8z"/><path d="m13.6 1h1.4v.7h-1.4z"/><path d="m12.6 2h.7v1.4h-.7z"/><path d="m12.6 4.3v.7h-.7v-.7h-1.2v.5h-.7v.6h.7v.7h-.7v-.6h-.7v1.1h-.8v.7h-.5v.7h-.5c-.6.8-2.1 3.4-2.5 4.5-1.7-2.2-3-3-4-3.3-.5-.2-1.1.4-.2 1.3 2.1 2.2 2.7 4 3.3 5.4.3.8 1.8.9 2.1.1.6-1.6 1.6-3.4 2.6-4.9v-.8h.6v-.8h.6v-.8h.7v-.8h-.7v-.7h.7v.7h.7v-.7h.6v-.8h.7v-.6h.6v-1.5z"/></g></g></g><path d="m30 2v28h-28v-28zm0-2h-28c-1.1 0-2 .9-2 2v28c0 1.1.9 2 2 2h28c1.1 0 2-.9 2-2v-28c0-1.1-.9-2-2-2z" fill="#bcc3ca"/></svg>