<svg enable-background="new 0 0 32 32" viewBox="0 0 32 32" xmlns="http://www.w3.org/2000/svg"><g transform="translate(6 6)"><path d="m10.4.1h4.3v4.3h-4.3v-4.3" fill="#76aad0"/><path d="m4.3 4.4h-4.3v-4.3h4.3z" fill="#0d1929"/><path d="m0 5.2h4.3v4.3h-4.3z" fill="#213156"/><path d="m0 10.4h4.3v4.3h-4.3z" fill="#76aad0"/><path d="m5.2.1h4.3v4.3h-4.3v-4.3" fill="#213156"/><g fill="#76aad0"><path d="m5.2 5.2h4.3v4.3h-4.3z"/><path d="m5.2 15.6h4.3v4.3h-4.3z"/><path d="m10.4 10.4h4.3v4.3h-4.3z"/></g><path d="m10.4 15.6h4.3v4.3h-4.3z" fill="#213156"/><path d="m15.6 5.2h4.3v4.3h-4.3z" fill="#76aad0"/><path d="m15.6 10.4h4.3v4.3h-4.3z" fill="#213156"/><path d="m15.6 15.6h4.3v4.3h-4.3z" fill="#0d1929"/></g><path d="m30 2v28h-28v-28zm0-2h-28c-1.1 0-2 .9-2 2v28c0 1.1.9 2 2 2h28c1.1 0 2-.9 2-2v-28c0-1.1-.9-2-2-2z" fill="#bcc3ca"/></svg>