<svg enable-background="new 0 0 32 32" viewBox="0 0 32 32" xmlns="http://www.w3.org/2000/svg"><g fill="#1c6db5" transform="translate(7 6)"><path d="m17.1 3.1h1.9v4h-1.9z"/><path d="m0 0v20h16.5v-20zm8.2 5.1c1.4 0 2.5 1 2.5 2.3s-1.1 2.3-2.5 2.3-2.5-1-2.5-2.3c0-1.2 1.1-2.3 2.5-2.3m5.1 9.2h-10.1v-1.7s-.1-2.3 5-2.3 5.1 2.3 5.1 2.3z"/><path d="m17.1 8.4h1.9v4h-1.9z"/><path d="m17.1 13.7h1.9v4h-1.9z"/></g><path d="m30 2v28h-28v-28zm0-2h-28c-1.1 0-2 .9-2 2v28c0 1.1.9 2 2 2h28c1.1 0 2-.9 2-2v-28c0-1.1-.9-2-2-2z" fill="#bcc3ca"/></svg>