<svg enable-background="new 0 0 32 32" viewBox="0 0 32 32" xmlns="http://www.w3.org/2000/svg"><path d="m2 0h28c1.1 0 2 .9 2 2v28c0 1.1-.9 2-2 2h-28c-1.1 0-2-.9-2-2v-28c0-1.1.9-2 2-2" fill="#1c6db1"/><circle cx="16" cy="16" fill="#fff" r="12"/><path d="m20.7 13.9c0-.1 0-.1 0 0 0-.1 0-.1 0-.2-.3-.8-.7-1.4-1.4-1.9-.9-.8-2-1.1-3.2-1.1-.4 0-.9.1-1.3.1-.9.2-1.7.6-2.3 1.2-.5.5-.8 1.1-1.1 1.7v.1zm-13.7 1.6v-.1c.1-1.1.3-2.2.7-3.2.5-1.1 1.2-2.1 2.1-3 1.2-1.1 2.7-1.8 4.3-2.1.6-.1 1.2-.2 1.9-.1 1.5 0 2.9.3 4.3 1 .7.4 1.3.8 1.9 1.3 1 1 1.8 2.2 2.2 3.5.2.6.4 1.3.4 1.9.1.6.1 1.2.1 1.8v.5l-.1.1h-.1-13.4-.2c.1.3.1.5.2.8.4 1.2 1.1 2.1 2.2 2.7.5.3 1.1.4 1.7.5.3 0 .6.1.9.1 1.4 0 2.6-.5 3.7-1.4 0 0 .1 0 .1-.1.2-.2.4-.2.6-.1.8.4 1.5.7 2.3 1.1.3.1.6.3.8.4 0 0 .1 0 .1.1-.2.2-.4.5-.5.7-.8 1-1.8 1.7-2.9 2.2-.7.3-1.5.5-2.3.7-.8.1-1.5.2-2.3.1-2-.1-3.8-.6-5.4-1.8-1.7-1.3-2.8-3-3.2-5.1-.1-.4-.1-.9-.2-1.3v-.1z" fill="#ed9b2d"/></svg>