<svg enable-background="new 0 0 32 32" viewBox="0 0 32 32" xmlns="http://www.w3.org/2000/svg"><path d="m2 0h28c1.1 0 2 .9 2 2v28c0 1.1-.9 2-2 2h-28c-1.1 0-2-.9-2-2v-28c0-1.1.9-2 2-2" fill="#004990"/><g fill="#fff"><circle cx="22.2" cy="15.4" r="2"/><path d="m7 14v4l3.9-2z"/><path d="m27 10.5h-22c-.8 0-1.5.7-1.5 1.5v8c0 .8.7 1.5 1.5 1.5h22c.8 0 1.5-.7 1.5-1.5v-8c0-.8-.7-1.5-1.5-1.5m-9 10h-13c-.3 0-.5-.2-.5-.5v-8c0-.3.2-.5.5-.5h13zm8.6-1.4-.5.5c-.1.1-.3.1-.4 0l-1.8-1.8c-.5.4-1.1.6-1.7.6-1.7 0-3-1.3-3-3s1.3-3 3-3 3 1.3 3 3c0 .5-.1 1-.4 1.4l1.8 1.8c.1.2.1.4 0 .5"/></g></svg>