<svg viewBox="0 0 64 64" xmlns="http://www.w3.org/2000/svg"><g fill="none" fill-rule="evenodd"><path d="M0 0h64v64H0z"/><path d="M37.2 24l-2.8 9.4-1-3.2c-1.8 0-3.4-.2-5-.2L32 40h4.4l6-16.2h-5.2v.2zm-5.8 0h-5.2l1.4 4h5l-1.2-4zM24 28v-4h-4.8v3.6c1.4.2 3 .2 4.8.4m-4.8 1.4v10.8H24V29.8c-1.8 0-3.4-.2-4.8-.4M56.4 33l-9.6.6s.2 1.8 2 2.4c2 .8 4.8-.2 4.8-.2l2.4 3.4s-1.8 1-5.4 1c-4.6 0-8.2-2.8-8.4-7.8 0-.8 0-1.4.2-2.2 6-.2 10.2-.6 10.2-.6s0-1.4-1.2-2c-.6-.4-1.8-.4-2.2-.4-.2 0-2.6.2-6 .6 1.2-2.4 3.4-4 6.4-4.2 4.6 0 6.2 3 6.6 5.8.4 1.4.2 3.6.2 3.6m-40.6-4c-2.4-.4-4.2-.6-4.8-.8v12.4s0 1-.4 1.8c-.8 1-1.8 1-1.8 1l1.8 4.2s1-.2 2-.6c1.2-.6 2-1.2 2.8-2.6.6-1.2.6-2.6.6-2.6V29h-.2zm0-1.6V24h-5v3c1 0 2.6.2 5 .4" fill="#512F8A" fill-rule="nonzero"/></g></svg>