<svg enable-background="new 0 0 20 20" viewBox="0 0 20 20" xmlns="http://www.w3.org/2000/svg"><path d="m13.5 5.6-.4.4c-2-1.5-4.9-1.3-6.7.5-1 1-1.5 2.3-1.5 3.7s.5 2.7 1.5 3.7c.1 0 .2.1.4.1.1 0 .2 0 .3-.1.2-.2.2-.5 0-.7-.8-.8-1.2-1.9-1.2-3s.4-2.2 1.2-3c1.4-1.4 3.7-1.6 5.3-.5l-1.6 1.6c-.2-.1-.5-.2-.8-.2-1.1 0-2 .9-2 2s.9 2 2 2 2-.9 2-2c0-.3-.1-.6-.2-.8l2.7-2.7c.3-.3.3-.7 0-1s-.8-.3-1 0z"/><path d="m10 1c-5 0-9 4-9 9s4 9 9 9 9-4 9-9-4-9-9-9zm0 16.2c-4 0-7.2-3.2-7.2-7.2s3.2-7.2 7.2-7.2 7.2 3.2 7.2 7.2-3.2 7.2-7.2 7.2z"/></svg>