<svg viewBox="0 0 17 15" xmlns="http://www.w3.org/2000/svg"><path d="m9.40625 14.703125c.96875 0 1.4375-.4765625 1.4375-1.53125v-5.4609375c0-.9140625-.3671875-1.3984375-1.1171875-1.5v-2.0078125c0-1.8125 1.15625-2.78125 2.5234375-2.78125 1.359375 0 2.515625.96875 2.515625 2.78125v1.6171875c0 .46875.28125.7109375.640625.7109375.34375 0 .625-.21875.625-.7109375v-1.46875c0-2.7890625-1.84375-4.140625-3.78125-4.140625-1.9453125 0-3.7890625 1.3515625-3.7890625 4.140625v1.8359375l-5.9921875.015625c-.96875 0-1.5859375.4765625-1.5859375 1.5078125v5.4609375c0 1.0546875.4765625 1.53125 1.4453125 1.53125z"/></svg>