<svg viewBox="0 0 24 24" xmlns="http://www.w3.org/2000/svg" stroke="#282829">
<g fill="none">
<circle cx="8" cy="5" r="1" stroke-linecap="round"/>
<circle cx="8" cy="19.6001" r="1" stroke-linecap="round"/>
<circle cx="16.8" cy="5" r="1" stroke-linecap="round"/>
<circle cx="16.8" cy="19.6001" r="1" stroke-linecap="round"/>
<circle cx="20.8" cy="11.7998" r="1" stroke-linecap="round"/>
<circle cx="4" cy="11.7998" r="1" stroke-linecap="round"/>
<path d="M15.6033 12.4334L15.6033 12.4333C15.6074 12.4262 15.6116 12.419 15.6158 12.4117C15.6866 12.2893 15.7667 12.1508 15.8169 12.0096C15.8802 11.8316 15.896 11.658 15.8686 11.4634C15.8348 11.2237 15.6619 10.5299 15.5 9.90602C15.3354 9.27179 15.1619 8.634 15.1142 8.48609C15.0407 8.25793 14.8942 8.04467 14.6683 7.90303C14.4402 7.75999 14.1692 7.71379 13.8902 7.75446C13.6702 7.78652 12.9933 7.96866 12.3782 8.14315C11.7579 8.31908 11.0969 8.51694 10.9016 8.59575C10.7194 8.66931 10.5769 8.76972 10.4545 8.91359C10.3573 9.02772 10.2774 9.16638 10.2068 9.28881C10.2026 9.29609 10.1984 9.30331 10.1943 9.31047L7.83254 13.4011C7.55073 13.8892 7.70922 14.5206 8.2043 14.8064L11.8387 16.9047C12.3338 17.1905 12.9597 17.0121 13.2415 16.524L15.6033 12.4334Z"/>
<ellipse cx="13.3899" cy="10.114" rx="0.2" ry="0.2" transform="rotate(30 13.3899 10.114)"/>
</g>
</svg>