<svg fill="none" viewBox="0 0 24 24" xmlns="http://www.w3.org/2000/svg"><path d="m0 3c0-1.65685 1.34315-3 3-3h18c1.6569 0 3 1.34315 3 3v18c0 1.6569-1.3431 3-3 3h-18c-1.65685 0-3-1.3431-3-3z" fill="#181d3a"/><g stroke="#fff"><circle cx="11.7998" cy="11.8" r="6.5"/><path d="m16.7998 7.33689c-1.3512.60199-3.0778.9631-4.9591.9631-1.91951 0-3.67789-.3759-5.0409-1"/><path d="m16.7998 16.2631c-1.3512-.602-3.0778-.9631-4.9591-.9631-1.91951 0-3.67789.3759-5.0409 1"/><path d="m5.0498 11.3h13.5"/><path d="m11.7998 5.04999v13.50001"/><path d="m11.2198 18.1236c-1.76831-1.4276-2.92-3.6181-2.92-6.3236 0-2.74613 1.18652-4.96162 3-6.3874"/><path d="m12.2998 18.1874c1.8135-1.4258 3-3.6413 3-6.3874 0-2.74613-1.1865-4.96162-3-6.3874"/></g></svg>