<svg viewBox="0 0 24 24" fill="none" xmlns="http://www.w3.org/2000/svg" width="1em" height="1em"><path d="M9 15.5L11.2929 13.2071C11.6834 12.8166 12.3166 12.8166 12.7071 13.2071L15 15.5" stroke="currentColor" stroke-linecap="round"/><path d="M9 11L11.2929 8.70711C11.6834 8.31658 12.3166 8.31658 12.7071 8.70711L15 11" stroke="currentColor" stroke-linecap="round"/><path d="M2.76777 13.3741C2.18198 12.7884 2.18198 11.8386 2.76777 11.2528L11.253 2.76754C11.8388 2.18175 12.7886 2.18175 13.3744 2.76754L21.8596 11.2528C22.4454 11.8386 22.4454 12.7884 21.8596 13.3741L13.3744 21.8594C12.7886 22.4452 11.8388 22.4452 11.253 21.8594L2.76777 13.3741Z" stroke="currentColor"/></svg>
