<svg viewBox="0 0 24 24" fill="none" xmlns="http://www.w3.org/2000/svg" width="1em" height="1em"><path d="M9 15.5L11.2929 13.2071C11.6834 12.8166 12.3166 12.8166 12.7071 13.2071L15 15.5" stroke="currentColor" stroke-linecap="round"/><path d="M9 11L11.2929 8.7071C11.6834 8.31657 12.3166 8.31657 12.7071 8.7071L15 11" stroke="currentColor" stroke-linecap="round"/><path d="M2.76777 13.3744C2.18198 12.7886 2.18198 11.8388 2.76777 11.253L11.253 2.76777C11.8388 2.18198 12.7886 2.18198 13.3744 2.76777L21.8596 11.253C22.4454 11.8388 22.4454 12.7886 21.8596 13.3744L13.3744 21.8597C12.7886 22.4454 11.8388 22.4454 11.253 21.8597L2.76777 13.3744Z" stroke="currentColor"/></svg>
