<svg viewBox="0 0 16 16" fill="none" xmlns="http://www.w3.org/2000/svg" stroke="currentColor" width="1em" height="1em"><path d="M6.5 10L7.29289 9.20711C7.68342 8.81658 8.31658 8.81658 8.70711 9.20711L9.5 10" stroke-linecap="round"/><path d="M6.5 6.5L7.29289 5.70711C7.68342 5.31658 8.31658 5.31658 8.70711 5.7071L9.5 6.5" stroke-linecap="round"/><path d="M1.61786 9.1925C1.03208 8.60671 1.03208 7.65696 1.61786 7.07118L6.92117 1.76788C7.50695 1.18209 8.4567 1.18209 9.04249 1.76788L14.3458 7.07118C14.9316 7.65696 14.9316 8.60671 14.3458 9.1925L9.04249 14.4958C8.4567 15.0816 7.50695 15.0816 6.92117 14.4958L1.61786 9.1925Z"/></svg>
