<svg viewBox="0 0 16 16" fill="none" xmlns="http://www.w3.org/2000/svg" width="1em" height="1em"><path d="M6.5 10L7.29289 9.20711C7.68342 8.81658 8.31658 8.81658 8.70711 9.20711L9.5 10" stroke="currentColor" stroke-linecap="round"/><path d="M6.5 6.5L7.29289 5.70711C7.68342 5.31658 8.31658 5.31658 8.70711 5.70711L9.5 6.5" stroke="currentColor" stroke-linecap="round"/><path d="M1.61774 9.1925C1.03196 8.60671 1.03196 7.65696 1.61774 7.07118L6.92104 1.76788C7.50683 1.18209 8.45658 1.18209 9.04236 1.76788L14.3457 7.07118C14.9315 7.65696 14.9315 8.60671 14.3457 9.1925L9.04236 14.4958C8.45658 15.0816 7.50683 15.0816 6.92104 14.4958L1.61774 9.1925Z" stroke="currentColor"/></svg>
