<svg version="1.1" id="Layer_1" xmlns="http://www.w3.org/2000/svg" xmlns:xlink="http://www.w3.org/1999/xlink" x="0px" y="0px"
	 width="571.733px" height="321.2px" viewBox="0 0 571.733 321.2" enable-background="new 0 0 571.733 321.2" xml:space="preserve" opacity="0.25">
<polygon fill="#D8DADA" points="0,55.041 12.667,55.041 0,32.673 "/>
<polygon fill="#D7D8D8" points="0,19.093 32.752,19.093 12.211,55.269 0,33.7 "/>
<polygon fill="#D0D2D2" points="32.295,18.865 11.754,55.041 52.723,55.041 "/>
<polygon fill="#CFD2D2" points="31.839,19.093 72.808,19.093 52.266,55.269 "/>
<polygon fill="#D2D5D5" points="72.351,18.865 51.81,55.041 92.778,55.041 "/>
<polygon fill="#D7DADA" points="71.895,19.093 112.863,19.093 92.322,55.269 "/>
<polygon fill="#DFE2E2" points="112.407,18.865 91.979,55.041 132.948,55.041 "/>
<polygon fill="#DEE0E0" points="111.95,19.093 152.919,19.093 132.491,55.269 "/>
<polygon fill="#E3E5E5" points="152.462,18.865 132.035,55.041 173.003,55.041 "/>
<polygon fill="#E6E8E8" points="152.006,19.093 192.974,19.093 172.547,55.269 "/>
<polygon fill="#E4E6E6" points="192.518,18.865 172.09,55.041 213.059,55.041 "/>
<polygon fill="#DCDFDF" points="192.061,19.093 233.03,19.093 212.603,55.269 "/>
<polygon fill="#EAEBEB" points="232.687,18.865 212.146,55.041 253.115,55.041 "/>
<polygon fill="#E6E8E8" points="232.231,19.093 273.199,19.093 252.658,55.269 "/>
<polygon fill="#EDEEEE" points="272.743,18.865 252.202,55.041 293.17,55.041 "/>
<polygon fill="#E0E2E2" points="272.286,19.093 313.255,19.093 292.714,55.269 "/>
<polygon fill="#E5E7E7" points="312.798,18.865 292.257,55.041 333.226,55.041 "/>
<polygon fill="#E7EAEA" points="312.342,19.093 353.31,19.093 332.883,55.269 "/>
<polygon fill="#F5F6F6" points="352.854,18.865 332.427,55.041 373.395,55.041 "/>
<polygon fill="#F2F3F3" points="352.397,19.093 393.366,19.093 372.939,55.269 "/>
<polygon fill="#F6F7F7" points="392.91,18.865 372.482,55.041 413.451,55.041 "/>
<polygon fill="#DFE1E1" points="392.453,19.093 433.422,19.093 412.994,55.269 "/>
<polygon fill="#D9DBDB" points="433.079,18.865 412.538,55.041 453.506,55.041 "/>
<polygon fill="#D7DADA" points="432.623,19.093 473.591,19.093 453.05,55.269 "/>
<polygon fill="#CCCECF" points="473.135,18.865 452.593,55.041 493.562,55.041 "/>
<polygon fill="#E2E3E3" points="472.678,19.093 513.647,19.093 493.105,55.269 "/>
<polygon fill="#E1E2E2" points="513.19,18.865 492.649,55.041 533.617,55.041 "/>
<polygon fill="#DFE0E1" points="512.734,19.093 553.702,19.093 533.275,55.269 "/>
<polygon fill="#D5D6D7" points="553.246,18.865 532.819,55.041 571.733,55.041 571.733,51.503 "/>
<polygon fill="#DADBDC" points="552.789,19.093 571.733,19.093 571.733,52.644 "/>
<polygon fill="#D2D4D4" points="0,54.47 12.667,54.47 0,76.837 "/>
<polygon fill="#CCCFCF" points="12.211,54.242 0,75.81 0,90.417 32.752,90.417 "/>
<polygon fill="#D0D3D3" points="11.754,54.47 52.723,54.47 32.295,90.645 "/>
<polygon fill="#E0E2E2" points="52.266,54.242 31.839,90.417 72.808,90.417 "/>
<polygon fill="#DEDFDF" points="51.81,54.47 92.778,54.47 72.351,90.645 "/>
<polygon fill="#E5E7E7" points="92.322,54.242 71.895,90.417 112.863,90.417 "/>
<polygon fill="#DDDFDF" points="91.979,54.47 132.948,54.47 112.407,90.645 "/>
<polygon fill="#E9EAEA" points="132.491,54.242 111.95,90.417 152.919,90.417 "/>
<polygon fill="#E9EAEA" points="132.035,54.47 173.003,54.47 152.462,90.645 "/>
<polygon fill="#EFF0F0" points="172.547,54.242 152.006,90.417 192.974,90.417 "/>
<polygon fill="#EDEEEE" points="172.09,54.47 213.059,54.47 192.518,90.645 "/>
<polygon fill="#E6E8E8" points="212.603,54.242 192.061,90.417 233.03,90.417 "/>
<polygon fill="#EDEEEE" points="212.146,54.47 253.115,54.47 232.687,90.645 "/>
<polygon fill="#ECEDED" points="252.658,54.242 232.231,90.417 273.199,90.417 "/>
<polygon fill="#F5F5F5" points="252.202,54.47 293.17,54.47 272.743,90.645 "/>
<polygon fill="#F0F0F0" points="292.714,54.242 272.286,90.417 313.255,90.417 "/>
<polygon fill="#ECEDEE" points="292.257,54.47 333.226,54.47 312.798,90.645 "/>
<polygon fill="#E9EAEA" points="332.883,54.242 312.342,90.417 353.31,90.417 "/>
<polygon fill="#ECEDED" points="332.427,54.47 373.395,54.47 352.854,90.645 "/>
<polygon fill="#E5E7E7" points="372.939,54.242 352.397,90.417 393.366,90.417 "/>
<polygon fill="#E7E9E9" points="372.482,54.47 413.451,54.47 392.91,90.645 "/>
<polygon fill="#DADCDC" points="412.994,54.242 392.453,90.417 433.422,90.417 "/>
<polygon fill="#D7DADA" points="412.538,54.47 453.506,54.47 433.079,90.645 "/>
<polygon fill="#CED1D1" points="453.05,54.242 432.623,90.417 473.591,90.417 "/>
<polygon fill="#C9CCCC" points="452.593,54.47 493.562,54.47 473.135,90.645 "/>
<polygon fill="#CDD0D0" points="493.105,54.242 472.678,90.417 513.647,90.417 "/>
<polygon fill="#D2D4D4" points="492.649,54.47 533.617,54.47 513.19,90.645 "/>
<polygon fill="#E4E5E6" points="533.275,54.242 512.734,90.417 553.702,90.417 "/>
<polygon fill="#D8D8D9" points="532.819,54.47 571.733,54.47 571.733,57.893 553.246,90.645 "/>
<polygon fill="#E4E4E5" points="571.733,56.866 552.789,90.417 571.733,90.417 "/>
<polygon fill="#D5D7D7" points="0,125.68 12.667,125.68 0,103.313 "/>
<polygon fill="#CED0D1" points="0,89.847 32.752,89.847 12.211,126.022 0,104.34 "/>
<polygon fill="#D3D6D6" points="32.295,89.618 11.754,125.68 52.723,125.68 "/>
<polygon fill="#E5E7E7" points="31.839,89.847 72.808,89.847 52.266,126.022 "/>
<polygon fill="#E8EAEA" points="72.351,89.618 51.81,125.68 92.778,125.68 "/>
<polygon fill="#E7E9E9" points="71.895,89.847 112.863,89.847 92.322,126.022 "/>
<polygon fill="#EAEBEB" points="112.407,89.618 91.979,125.68 132.948,125.68 "/>
<polygon fill="#EFEFF0" points="111.95,89.847 152.919,89.847 132.491,126.022 "/>
<polygon fill="#F4F4F4" points="152.462,89.618 132.035,125.68 173.003,125.68 "/>
<polygon fill="#F8F8F8" points="152.006,89.847 192.974,89.847 172.547,126.022 "/>
<polygon fill="#F4F5F5" points="192.518,89.618 172.09,125.68 213.059,125.68 "/>
<polygon fill="#E3E5E5" points="192.061,89.847 233.03,89.847 212.603,126.022 "/>
<polygon fill="#DEE1E1" points="232.687,89.618 212.146,125.68 253.115,125.68 "/>
<polygon fill="#E2E4E4" points="232.231,89.847 273.199,89.847 252.658,126.022 "/>
<polygon fill="#DEE1E1" points="272.743,89.618 252.202,125.68 293.17,125.68 "/>
<polygon fill="#E5E6E6" points="272.286,89.847 313.255,89.847 292.714,126.022 "/>
<polygon fill="#E8E9EA" points="312.798,89.618 292.257,125.68 333.226,125.68 "/>
<polygon fill="#EAEBEB" points="312.342,89.847 353.31,89.847 332.883,126.022 "/>
<polygon fill="#EDEDEE" points="352.854,89.618 332.427,125.68 373.395,125.68 "/>
<polygon fill="#E9EAEA" points="352.397,89.847 393.366,89.847 372.939,126.022 "/>
<polygon fill="#F5F5F5" points="392.91,89.618 372.482,125.68 413.451,125.68 "/>
<polygon fill="#EAEBEC" points="392.453,89.847 433.422,89.847 412.994,126.022 "/>
<polygon fill="#E6E7E7" points="433.079,89.618 412.538,125.68 453.506,125.68 "/>
<polygon fill="#D1D4D4" points="432.623,89.847 473.591,89.847 453.05,126.022 "/>
<polygon fill="#D8DBDB" points="473.135,89.618 452.593,125.68 493.562,125.68 "/>
<polygon fill="#DCDDDE" points="472.678,89.847 513.647,89.847 493.105,126.022 "/>
<polygon fill="#EAEBEB" points="513.19,89.618 492.649,125.68 533.617,125.68 "/>
<polygon fill="#ECEBED" points="512.734,89.847 553.702,89.847 533.275,126.022 "/>
<polygon fill="#E8E7E8" points="553.246,89.618 532.819,125.68 571.733,125.68 571.733,122.256 "/>
<polygon fill="#EBEAEC" points="552.789,89.847 571.733,89.847 571.733,123.283 "/>
<polygon fill="#E8E9E9" points="0,125.223 12.667,125.223 0,147.59 "/>
<polygon fill="#F7F7F7" points="12.211,124.995 0,146.563 0,161.056 32.752,161.056 "/>
<polygon fill="#E6E7E7" points="11.754,125.223 52.723,125.223 32.295,161.399 "/>
<polygon fill="#EFEFEF" points="52.266,124.995 31.839,161.056 72.808,161.056 "/>
<polygon fill="#EAEBEB" points="51.81,125.223 92.778,125.223 72.351,161.399 "/>
<polygon fill="#F5F5F6" points="92.322,124.995 71.895,161.056 112.863,161.056 "/>
<polygon fill="#F3F3F3" points="91.979,125.223 132.948,125.223 112.407,161.399 "/>
<polygon fill="#EBECEC" points="132.491,124.995 111.95,161.056 152.919,161.056 "/>
<polygon fill="#E8E9E9" points="132.035,125.223 173.003,125.223 152.462,161.399 "/>
<polygon fill="#E9EAEA" points="172.547,124.995 152.006,161.056 192.974,161.056 "/>
<polygon fill="#EBEDED" points="172.09,125.223 213.059,125.223 192.518,161.399 "/>
<polygon fill="#E1E3E3" points="212.603,124.995 192.061,161.056 233.03,161.056 "/>
<polygon fill="#E3E5E5" points="212.146,125.223 253.115,125.223 232.687,161.399 "/>
<polygon fill="#E5E6E6" points="252.658,124.995 232.231,161.056 273.199,161.056 "/>
<polygon fill="#E2E4E4" points="252.202,125.223 293.17,125.223 272.743,161.399 "/>
<polygon fill="#DCDFDF" points="292.714,124.995 272.286,161.056 313.255,161.056 "/>
<polygon fill="#E2E4E4" points="292.257,125.223 333.226,125.223 312.798,161.399 "/>
<polygon fill="#E7E8E9" points="332.883,124.995 312.342,161.056 353.31,161.056 "/>
<polygon fill="#ECEDEE" points="332.427,125.223 373.395,125.223 352.854,161.399 "/>
<polygon fill="#E6E7E8" points="372.939,124.995 352.397,161.056 393.366,161.056 "/>
<polygon fill="#EEEFEF" points="372.482,125.223 413.451,125.223 392.91,161.399 "/>
<polygon fill="#E9EAEA" points="412.994,124.995 392.453,161.056 433.422,161.056 "/>
<polygon fill="#EBECEC" points="412.538,125.223 453.506,125.223 433.079,161.399 "/>
<polygon fill="#EEEFEF" points="453.05,124.995 432.623,161.056 473.591,161.056 "/>
<polygon fill="#EDEEEE" points="452.593,125.223 493.562,125.223 473.135,161.399 "/>
<polygon fill="#F9F9F9" points="493.105,124.995 472.678,161.056 513.647,161.056 "/>
<polygon fill="#EEEEEE" points="492.649,125.223 533.617,125.223 513.19,161.399 "/>
<polygon fill="#E1E1E2" points="533.275,124.995 512.734,161.056 553.702,161.056 "/>
<polygon fill="#E5E5E5" points="532.819,125.223 571.733,125.223 571.733,128.647 553.246,161.399 "/>
<polygon fill="#DCDDDD" points="571.733,127.62 552.789,161.056 571.733,161.056 "/>
<polygon fill="#CACCCC" points="0,196.433 12.667,196.433 0,174.066 "/>
<polygon fill="#E9EAEA" points="0,160.6 32.752,160.6 12.211,196.661 0,175.093 "/>
<polygon fill="#E6E7E7" points="32.295,160.258 11.754,196.433 52.723,196.433 "/>
<polygon fill="#F3F3F3" points="31.839,160.6 72.808,160.6 52.266,196.661 "/>
<polygon fill="#EBEDED" points="72.351,160.258 51.81,196.433 92.778,196.433 "/>
<polygon fill="#F2F2F3" points="71.895,160.6 112.863,160.6 92.322,196.661 "/>
<polygon fill="#F0F1F1" points="112.407,160.258 91.979,196.433 132.948,196.433 "/>
<polygon fill="#F2F2F2" points="111.95,160.6 152.919,160.6 132.491,196.661 "/>
<polygon fill="#EDEDEE" points="152.462,160.258 132.035,196.433 173.003,196.433 "/>
<polygon fill="#E7E9E9" points="152.006,160.6 192.974,160.6 172.547,196.661 "/>
<polygon fill="#E5E7E7" points="192.518,160.258 172.09,196.433 213.059,196.433 "/>
<polygon fill="#E3E5E5" points="192.061,160.6 233.03,160.6 212.603,196.661 "/>
<polygon fill="#E4E5E5" points="232.687,160.258 212.146,196.433 253.115,196.433 "/>
<polygon fill="#DCDEDE" points="232.231,160.6 273.199,160.6 252.658,196.661 "/>
<polygon fill="#DDDFDF" points="272.743,160.258 252.202,196.433 293.17,196.433 "/>
<polygon fill="#E0E2E2" points="272.286,160.6 313.255,160.6 292.714,196.661 "/>
<polygon fill="#F1F2F2" points="312.798,160.258 292.257,196.433 333.226,196.433 "/>
<polygon fill="#F0F1F1" points="312.342,160.6 353.31,160.6 332.883,196.661 "/>
<polygon fill="#F6F6F7" points="352.854,160.258 332.427,196.433 373.395,196.433 "/>
<polygon fill="#EAEBEB" points="352.397,160.6 393.366,160.6 372.939,196.661 "/>
<polygon fill="#E4E6E7" points="392.91,160.258 372.482,196.433 413.451,196.433 "/>
<polygon fill="#E8E9EA" points="392.453,160.6 433.422,160.6 412.994,196.661 "/>
<polygon fill="#DEE1E1" points="433.079,160.258 412.538,196.433 453.506,196.433 "/>
<polygon fill="#E2E4E4" points="432.623,160.6 473.591,160.6 453.05,196.661 "/>
<polygon fill="#DCDEDE" points="473.135,160.258 452.593,196.433 493.562,196.433 "/>
<polygon fill="#E9EAEA" points="472.678,160.6 513.647,160.6 493.105,196.661 "/>
<polygon fill="#CBCDCD" points="513.19,160.258 492.649,196.433 533.617,196.433 "/>
<polygon fill="#CACBCC" points="512.734,160.6 553.702,160.6 533.275,196.661 "/>
<polygon fill="#BEBFC1" points="553.246,160.258 532.819,196.433 571.733,196.433 571.733,193.01 "/>
<polygon fill="#C6C8C9" points="552.789,160.6 571.733,160.6 571.733,194.037 "/>
<polygon fill="#BDC0C0" points="0,195.977 12.667,195.977 0,218.344 "/>
<polygon fill="#CACCCD" points="12.211,195.634 0,217.317 0,231.81 32.752,231.81 "/>
<polygon fill="#D2D4D4" points="11.754,195.977 52.723,195.977 32.295,232.038 "/>
<polygon fill="#CFD2D2" points="52.266,195.634 31.839,231.81 72.808,231.81 "/>
<polygon fill="#DADDDD" points="51.81,195.977 92.778,195.977 72.351,232.038 "/>
<polygon fill="#E2E4E4" points="92.322,195.634 71.895,231.81 112.863,231.81 "/>
<polygon fill="#DFE2E2" points="91.979,195.977 132.948,195.977 112.407,232.038 "/>
<polygon fill="#DBDEDE" points="132.491,195.634 111.95,231.81 152.919,231.81 "/>
<polygon fill="#E5E6E6" points="132.035,195.977 173.003,195.977 152.462,232.038 "/>
<polygon fill="#ECEDED" points="172.547,195.634 152.006,231.81 192.974,231.81 "/>
<polygon fill="#EAEBEB" points="172.09,195.977 213.059,195.977 192.518,232.038 "/>
<polygon fill="#EAEBEB" points="212.603,195.634 192.061,231.81 233.03,231.81 "/>
<polygon fill="#E8E9E9" points="212.146,195.977 253.115,195.977 232.687,232.038 "/>
<polygon fill="#E5E6E6" points="252.658,195.634 232.231,231.81 273.199,231.81 "/>
<polygon fill="#E4E5E6" points="252.202,195.977 293.17,195.977 272.743,232.038 "/>
<polygon fill="#E9EAEB" points="292.714,195.634 272.286,231.81 313.255,231.81 "/>
<polygon fill="#F3F3F3" points="292.257,195.977 333.226,195.977 312.798,232.038 "/>
<polygon fill="#F1F2F2" points="332.883,195.634 312.342,231.81 353.31,231.81 "/>
<polygon fill="#F1F2F2" points="332.427,195.977 373.395,195.977 352.854,232.038 "/>
<polygon fill="#DFE2E2" points="372.939,195.634 352.397,231.81 393.366,231.81 "/>
<polygon fill="#DCDEDF" points="372.482,195.977 413.451,195.977 392.91,232.038 "/>
<polygon fill="#DCDFDF" points="412.994,195.634 392.453,231.81 433.422,231.81 "/>
<polygon fill="#D4D7D7" points="412.538,195.977 453.506,195.977 433.079,232.038 "/>
<polygon fill="#DADCDC" points="453.05,195.634 432.623,231.81 473.591,231.81 "/>
<polygon fill="#E2E3E3" points="452.593,195.977 493.562,195.977 473.135,232.038 "/>
<polygon fill="#F4F4F4" points="493.105,195.634 472.678,231.81 513.647,231.81 "/>
<polygon fill="#DBDCDD" points="492.649,195.977 533.617,195.977 513.19,232.038 "/>
<polygon fill="#CFD0D1" points="533.275,195.634 512.734,231.81 553.702,231.81 "/>
<polygon fill="#C7C8C9" points="532.819,195.977 571.733,195.977 571.733,199.4 553.246,232.038 "/>
<polygon fill="#C8CACB" points="571.733,198.373 552.789,231.81 571.733,231.81 "/>
<polygon fill="#F6F6F6" points="0,267.187 12.667,267.187 0,244.819 "/>
<polygon fill="#E0E1E1" points="0,231.239 32.752,231.239 12.211,267.415 0,245.846 "/>
<polygon fill="#DCDEDE" points="32.295,231.011 11.754,267.187 52.723,267.187 "/>
<polygon fill="#DCDEDE" points="31.839,231.239 72.808,231.239 52.266,267.415 "/>
<polygon fill="#F9F9F9" points="72.351,231.011 51.81,267.187 92.778,267.187 "/>
<polygon fill="#F8F8F8" points="71.895,231.239 112.863,231.239 92.322,267.415 "/>
<polygon fill="#FAFAFA" points="112.407,231.011 91.979,267.187 132.948,267.187 "/>
<polygon fill="#E5E7E7" points="111.95,231.239 152.919,231.239 132.491,267.415 "/>
<polygon fill="#DEE0E0" points="152.462,231.011 132.035,267.187 173.003,267.187 "/>
<polygon fill="#EFF0F0" points="152.006,231.239 192.974,231.239 172.547,267.415 "/>
<polygon fill="#EEEFEF" points="192.518,231.011 172.09,267.187 213.059,267.187 "/>
<polygon fill="#EDEEEF" points="192.061,231.239 233.03,231.239 212.603,267.415 "/>
<polygon fill="#F1F2F2" points="232.687,231.011 212.146,267.187 253.115,267.187 "/>
<polygon fill="#F0F0F1" points="232.231,231.239 273.199,231.239 252.658,267.415 "/>
<polygon fill="#F1F2F2" points="272.743,231.011 252.202,267.187 293.17,267.187 "/>
<polygon fill="#E8EAEA" points="272.286,231.239 313.255,231.239 292.714,267.415 "/>
<polygon fill="#DCDEDE" points="312.798,231.011 292.257,267.187 333.226,267.187 "/>
<polygon fill="#E1E3E3" points="312.342,231.239 353.31,231.239 332.883,267.415 "/>
<polygon fill="#D5D8D8" points="352.854,231.011 332.427,267.187 373.395,267.187 "/>
<polygon fill="#D5D8D8" points="352.397,231.239 393.366,231.239 372.939,267.415 "/>
<polygon fill="#CED1D1" points="392.91,231.011 372.482,267.187 413.451,267.187 "/>
<polygon fill="#D7D9DA" points="392.453,231.239 433.422,231.239 412.994,267.415 "/>
<polygon fill="#C6C9C9" points="433.079,231.011 412.538,267.187 453.506,267.187 "/>
<polygon fill="#CED1D1" points="432.623,231.239 473.591,231.239 453.05,267.415 "/>
<polygon fill="#CDCFCF" points="473.135,231.011 452.593,267.187 493.562,267.187 "/>
<polygon fill="#E0E2E2" points="472.678,231.239 513.647,231.239 493.105,267.415 "/>
<polygon fill="#C7CACA" points="513.19,231.011 492.649,267.187 533.617,267.187 "/>
<polygon fill="#CED0D0" points="512.734,231.239 553.702,231.239 533.275,267.415 "/>
<polygon fill="#C8C9CB" points="553.246,231.011 532.819,267.187 571.733,267.187 571.733,263.763 "/>
<polygon fill="#CCCDCF" points="552.789,231.239 571.733,231.239 571.733,264.79 "/>
<polygon fill="#D8DADA" points="0,266.616 12.667,266.616 0,288.983 "/>
<polygon fill="#C7CACA" points="12.211,266.388 0,287.956 0,302.563 32.752,302.563 "/>
<polygon fill="#CDD0D0" points="11.754,266.616 52.723,266.616 32.295,302.791 "/>
<polygon fill="#D4D6D6" points="52.266,266.388 31.839,302.563 72.808,302.563 "/>
<polygon fill="#EEEFEF" points="51.81,266.616 92.778,266.616 72.351,302.791 "/>
<polygon fill="#F5F5F5" points="92.322,266.388 71.895,302.563 112.863,302.563 "/>
<polygon fill="#F0F0F0" points="91.979,266.616 132.948,266.616 112.407,302.791 "/>
<polygon fill="#D2D4D4" points="132.491,266.388 111.95,302.563 152.919,302.563 "/>
<polygon fill="#CED1D1" points="132.035,266.616 173.003,266.616 152.462,302.791 "/>
<polygon fill="#CFD1D1" points="172.547,266.388 152.006,302.563 192.974,302.563 "/>
<polygon fill="#DCDFDF" points="172.09,266.616 213.059,266.616 192.518,302.791 "/>
<polygon fill="#CFD1D1" points="212.603,266.388 192.061,302.563 233.03,302.563 "/>
<polygon fill="#E2E3E3" points="212.146,266.616 253.115,266.616 232.687,302.791 "/>
<polygon fill="#DADCDC" points="252.658,266.388 232.231,302.563 273.199,302.563 "/>
<polygon fill="#EBECEC" points="252.202,266.616 293.17,266.616 272.743,302.791 "/>
<polygon fill="#DEE0E0" points="292.714,266.388 272.286,302.563 313.255,302.563 "/>
<polygon fill="#D4D6D6" points="292.257,266.616 333.226,266.616 312.798,302.791 "/>
<polygon fill="#D5D8D8" points="332.883,266.388 312.342,302.563 353.31,302.563 "/>
<polygon fill="#E0E1E1" points="332.427,266.616 373.395,266.616 352.854,302.791 "/>
<polygon fill="#F1F2F2" points="372.939,266.388 352.397,302.563 393.366,302.563 "/>
<polygon fill="#D8DADA" points="372.482,266.616 413.451,266.616 392.91,302.791 "/>
<polygon fill="#C9CCCC" points="412.994,266.388 392.453,302.563 433.422,302.563 "/>
<polygon fill="#C7CACA" points="412.538,266.616 453.506,266.616 433.079,302.791 "/>
<polygon fill="#D5D7D7" points="453.05,266.388 432.623,302.563 473.591,302.563 "/>
<polygon fill="#D9DBDB" points="452.593,266.616 493.562,266.616 473.135,302.791 "/>
<polygon fill="#D2D4D4" points="493.105,266.388 472.678,302.563 513.647,302.563 "/>
<polygon fill="#BFC2C2" points="492.649,266.616 533.617,266.616 513.19,302.791 "/>
<polygon fill="#BEC0C1" points="533.275,266.388 512.734,302.563 553.702,302.563 "/>
<polygon fill="#C1C3C4" points="532.819,266.616 571.733,266.616 571.733,270.154 553.246,302.791 "/>
<polygon fill="#BFC1C2" points="571.733,269.012 552.789,302.563 571.733,302.563 "/>
<polygon fill="#E9EBEB" points="0,0 0,6.198 3.492,0 "/>
<polygon fill="#E8E9E9" points="2.912,0 0,5.171 0,19.664 32.752,19.664 21.586,0 "/>
<polygon fill="#E8E9E9" points="21,0 32.296,19.892 43.528,0 "/>
<polygon fill="#D3D5D6" points="42.943,0 31.839,19.664 72.808,19.664 61.642,0 "/>
<polygon fill="#CED1D2" points="61.056,0 72.351,19.892 83.583,0 "/>
<polygon fill="#CFD2D2" points="82.998,0 71.895,19.664 112.863,19.664 101.697,0 "/>
<polygon fill="#DBDDDD" points="101.174,0 112.407,19.892 123.702,0 "/>
<polygon fill="#D2D4D4" points="123.116,0 111.95,19.664 152.919,19.664 141.815,0 "/>
<polygon fill="#D8DADA" points="141.23,0 152.462,19.892 163.757,0 "/>
<polygon fill="#F2F2F2" points="163.171,0 152.006,19.664 192.974,19.664 181.871,0 "/>
<polygon fill="#DFE1E1" points="181.285,0 192.518,19.892 203.813,0 "/>
<polygon fill="#D8DADA" points="203.227,0 192.061,19.664 233.03,19.664 221.926,0 "/>
<polygon fill="#DFE0E0" points="221.392,0 232.687,19.892 243.92,0 "/>
<polygon fill="#E4E5E5" points="243.334,0 232.231,19.664 273.199,19.664 262.034,0 "/>
<polygon fill="#ECECEC" points="261.448,0 272.743,19.892 283.975,0 "/>
<polygon fill="#DADCDC" points="283.39,0 272.286,19.664 313.255,19.664 302.089,0 "/>
<polygon fill="#D4D6D6" points="301.503,0 312.798,19.892 324.031,0 "/>
<polygon fill="#E0E3E3" points="323.508,0 312.342,19.664 353.31,19.664 342.207,0 "/>
<polygon fill="#DCDEDE" points="341.622,0 352.854,19.892 364.149,0 "/>
<polygon fill="#D4D5D6" points="363.563,0 352.397,19.664 393.366,19.664 382.262,0 "/>
<polygon fill="#D2D4D4" points="381.677,0 392.91,19.892 404.205,0 "/>
<polygon fill="#F3F4F4" points="421.784,0 433.079,19.892 444.312,0 "/>
<polygon fill="#DFE0E1" points="403.619,0 392.453,19.664 433.422,19.664 422.318,0 "/>
<polygon fill="#EAECEC" points="443.726,0 432.623,19.664 473.591,19.664 462.426,0 "/>
<polygon fill="#E2E4E4" points="461.84,0 473.135,19.892 484.367,0 "/>
<polygon fill="#E2E4E4" points="483.782,0 472.678,19.664 513.647,19.664 502.481,0 "/>
<polygon fill="#CACDCD" points="501.895,0 513.19,19.892 524.423,0 "/>
<polygon fill="#CFD1D2" points="523.899,0 512.734,19.664 553.702,19.664 542.599,0 "/>
<polygon fill="#C0C1C2" points="542.013,0 553.246,19.892 564.513,0 "/>
<polygon fill="#CBCCCD" points="563.93,0 552.789,19.664 571.733,19.664 571.733,0 "/>
<polygon fill="#C8CBCB" points="3.235,321.2 0,315.459 0,321.2 "/>
<polygon fill="#D0D3D3" points="21.846,321.2 32.752,301.993 0,301.993 0,316.486 2.655,321.2 "/>
<polygon fill="#DDDFDF" points="43.27,321.2 32.296,301.764 21.26,321.2 "/>
<polygon fill="#E0E2E2" points="61.901,321.2 72.808,301.993 31.839,301.993 42.685,321.2 "/>
<polygon fill="#E4E5E6" points="83.326,321.2 72.351,301.764 61.315,321.2 "/>
<polygon fill="#E9E9EA" points="101.957,321.2 112.863,301.993 71.895,301.993 82.74,321.2 "/>
<polygon fill="#D8D9D9" points="123.443,321.2 112.407,301.764 101.432,321.2 "/>
<polygon fill="#C8CACB" points="142.073,321.2 152.919,301.993 111.95,301.993 122.857,321.2 "/>
<polygon fill="#BCBFBF" points="163.498,321.2 152.462,301.764 141.487,321.2 "/>
<polygon fill="#BEC1C2" points="182.128,321.2 192.974,301.993 152.006,301.993 162.912,321.2 "/>
<polygon fill="#BFC2C2" points="203.554,321.2 192.518,301.764 181.543,321.2 "/>
<polygon fill="#C2C5C5" points="222.184,321.2 233.03,301.993 192.061,301.993 202.968,321.2 "/>
<polygon fill="#C2C5C4" points="243.662,321.2 232.687,301.764 221.651,321.2 "/>
<polygon fill="#C4C7C7" points="262.293,321.2 273.199,301.993 232.231,301.993 243.077,321.2 "/>
<polygon fill="#C3C6C6" points="283.718,321.2 272.743,301.764 261.707,321.2 "/>
<polygon fill="#CBCECE" points="302.348,321.2 313.255,301.993 272.286,301.993 283.132,321.2 "/>
<polygon fill="#C8CBCB" points="323.773,321.2 312.798,301.764 301.762,321.2 "/>
<polygon fill="#D8DADA" points="342.465,321.2 353.31,301.993 312.342,301.993 323.248,321.2 "/>
<polygon fill="#E0E3E3" points="363.89,321.2 352.854,301.764 341.879,321.2 "/>
<polygon fill="#CFD1D3" points="571.733,321.2 571.733,301.993 552.789,301.993 563.671,321.2 "/>
<polygon fill="#D6D7DA" points="564.255,321.2 553.246,301.764 542.271,321.2 "/>
<polygon fill="#CBCDCF" points="542.857,321.2 553.702,301.993 512.734,301.993 523.64,321.2 "/>
<polygon fill="#C3C6C6" points="524.165,321.2 513.19,301.764 502.154,321.2 "/>
<polygon fill="#C3C6C6" points="502.74,321.2 513.647,301.993 472.678,301.993 483.524,321.2 "/>
<polygon fill="#BFC2C2" points="484.109,321.2 473.135,301.764 462.099,321.2 "/>
<polygon fill="#C6C9C9" points="462.685,321.2 473.591,301.993 432.623,301.993 443.469,321.2 "/>
<polygon fill="#C5C8C8" points="444.054,321.2 433.079,301.764 422.043,321.2 "/>
<polygon fill="#C4C7C7" points="422.576,321.2 433.422,301.993 392.453,301.993 403.359,321.2 "/>
<polygon fill="#CACDCD" points="403.946,321.2 392.91,301.764 381.935,321.2 "/>
<polygon fill="#E5E7E7" points="382.52,321.2 393.366,301.993 352.397,301.993 363.304,321.2 "/>
</svg>
