<svg viewBox="0 0 16 16" fill="none" xmlns="http://www.w3.org/2000/svg" width="1em" height="1em"><circle cx="10" cy="8" r="4.5" stroke="currentColor" stroke-linejoin="round"/><path d="M10.002 5.5L10.002 8.35714L11.5001 9.5" stroke="currentColor" stroke-linecap="round" stroke-linejoin="round"/><path d="M1.5 6.5C1.22386 6.5 1 6.27614 1 6C1 5.72386 1.22386 5.5 1.5 5.5V6.5ZM3.5 5.5C3.77614 5.5 4 5.72386 4 6C4 6.27614 3.77614 6.5 3.5 6.5V5.5ZM2.5 4C2.22386 4 2 3.77614 2 3.5C2 3.22386 2.22386 3 2.5 3V4ZM9.5 3C9.77614 3 10 3.22386 10 3.5C10 3.77614 9.77614 4 9.5 4V3ZM2.5 13C2.22386 13 2 12.7761 2 12.5C2 12.2239 2.22386 12 2.5 12V13ZM9.5 12C9.77614 12 10 12.2239 10 12.5C10 12.7761 9.77614 13 9.5 13V12ZM1.5 10C1.22386 10 1 9.77614 1 9.5C1 9.22386 1.22386 9 1.5 9V10ZM3.5 9C3.77614 9 4 9.22386 4 9.5C4 9.77614 3.77614 10 3.5 10V9ZM1.5 5.5H3.5V6.5H1.5V5.5ZM2.5 3H9.5V4H2.5V3ZM2.5 12H9.5V13H2.5V12ZM1.5 9H3.5V10H1.5V9Z" fill="currentColor"/></svg>
