<svg viewBox="0 0 32 32" fill="none" xmlns="http://www.w3.org/2000/svg" width="1em" height="1em"><circle cx="20" cy="16" r="9.5" stroke="currentColor" stroke-linejoin="round"/><path d="M20.0001 9.92822V16.7139L23.2144 19.9282" stroke="currentColor" stroke-linecap="round" stroke-linejoin="round"/><path d="M9 16.5C9.27614 16.5 9.5 16.2761 9.5 16C9.5 15.7239 9.27614 15.5 9 15.5V16.5ZM2.5 15.5C2.22386 15.5 2 15.7239 2 16C2 16.2761 2.22386 16.5 2.5 16.5V15.5ZM20 7C20.2761 7 20.5 6.77614 20.5 6.5C20.5 6.22386 20.2761 6 20 6V7ZM6.5 6C6.22386 6 6 6.22386 6 6.5C6 6.77614 6.22386 7 6.5 7V6ZM19.5 26C19.7761 26 20 25.7761 20 25.5C20 25.2239 19.7761 25 19.5 25V26ZM6.5 25C6.22386 25 6 25.2239 6 25.5C6 25.7761 6.22386 26 6.5 26V25ZM9 11C9.27614 11 9.5 10.7761 9.5 10.5C9.5 10.2239 9.27614 10 9 10V11ZM5.5 10C5.22386 10 5 10.2239 5 10.5C5 10.7761 5.22386 11 5.5 11V10ZM9 22C9.27614 22 9.5 21.7761 9.5 21.5C9.5 21.2239 9.27614 21 9 21V22ZM5.5 21C5.22386 21 5 21.2239 5 21.5C5 21.7761 5.22386 22 5.5 22V21ZM9 15.5H2.5V16.5H9V15.5ZM20 6H6.5V7H20V6ZM19.5 25H6.5V26H19.5V25ZM9 10H5.5V11H9V10ZM9 21H5.5V22H9V21Z" fill="currentColor"/></svg>
