<svg viewBox="0 0 24 24" fill="none" xmlns="http://www.w3.org/2000/svg" width="1em" height="1em"><circle cx="15" cy="12" r="6.5" stroke="currentColor" stroke-linejoin="round"/><path d="M15 8.0625V12.875L16.75 14.1875" stroke="currentColor" stroke-linecap="round" stroke-linejoin="round"/><path d="M6.5 12.5C6.77614 12.5 7 12.2761 7 12C7 11.7239 6.77614 11.5 6.5 11.5V12.5ZM2.5 11.5C2.22386 11.5 2 11.7239 2 12C2 12.2761 2.22386 12.5 2.5 12.5V11.5ZM15 6C15.2761 6 15.5 5.77614 15.5 5.5C15.5 5.22386 15.2761 5 15 5V6ZM5.5 5C5.22386 5 5 5.22386 5 5.5C5 5.77614 5.22386 6 5.5 6V5ZM15 19C15.2761 19 15.5 18.7761 15.5 18.5C15.5 18.2239 15.2761 18 15 18V19ZM5.5 18C5.22386 18 5 18.2239 5 18.5C5 18.7761 5.22386 19 5.5 19V18ZM6.5 9C6.77614 9 7 8.77614 7 8.5C7 8.22386 6.77614 8 6.5 8V9ZM4.5 8C4.22386 8 4 8.22386 4 8.5C4 8.77614 4.22386 9 4.5 9V8ZM6.5 16C6.77614 16 7 15.7761 7 15.5C7 15.2239 6.77614 15 6.5 15V16ZM4.5 15C4.22386 15 4 15.2239 4 15.5C4 15.7761 4.22386 16 4.5 16V15ZM6.5 11.5H2.5V12.5H6.5V11.5ZM15 5H5.5V6H15V5ZM15 18H5.5V19H15V18ZM6.5 8H4.5V9H6.5V8ZM6.5 15H4.5V16H6.5V15Z" fill="currentColor"/></svg>
