<svg viewBox="0 0 16 16" fill="none" xmlns="http://www.w3.org/2000/svg" width="1em" height="1em"><circle cx="8" cy="8" r="6.5" stroke="currentColor"/><path fill-rule="evenodd" clip-rule="evenodd" d="M5 7L11 7C11.2761 7 11.5 6.77614 11.5 6.5C11.5 6.22386 11.2761 6 11 6L5 6C4.72386 6 4.5 6.22386 4.5 6.5C4.5 6.77614 4.72386 7 5 7ZM5 10L11 10C11.2761 10 11.5 9.77614 11.5 9.5C11.5 9.22386 11.2761 9 11 9L5 9C4.72386 9 4.5 9.22386 4.5 9.5C4.5 9.77614 4.72386 10 5 10Z" fill="currentColor"/><path d="M10.4999 4.50006L5.49994 11.5001" stroke="currentColor" stroke-linecap="round"/></svg>
