<svg viewBox="0 0 32 32" fill="none" xmlns="http://www.w3.org/2000/svg" width="1em" height="1em"><circle cx="16" cy="16" r="13.5" stroke="currentColor"/><path fill-rule="evenodd" clip-rule="evenodd" d="M7.5 12C7.22386 12 7 12.2239 7 12.5C7 12.7761 7.22386 13 7.5 13L24.5 13C24.7761 13 25 12.7761 25 12.5C25 12.2239 24.7761 12 24.5 12L7.5 12ZM7.5 19C7.22386 19 7 19.2239 7 19.5C7 19.7761 7.22386 20 7.5 20H24.5C24.7761 20 25 19.7761 25 19.5C25 19.2239 24.7761 19 24.5 19H7.5Z" fill="currentColor"/><path d="M20.5 7.5L10.5 24.5" stroke="currentColor" stroke-linecap="round"/></svg>
