<svg viewBox="0 0 24 24" fill="none" xmlns="http://www.w3.org/2000/svg" width="1em" height="1em"><circle cx="12" cy="12" r="9.5" stroke="currentColor"/><path fill-rule="evenodd" clip-rule="evenodd" d="M6.5 10H17.5C17.7761 10 18 9.77614 18 9.5C18 9.22386 17.7761 9 17.5 9H6.5C6.22386 9 6 9.22386 6 9.5C6 9.77614 6.22386 10 6.5 10ZM6.5 14C6.22386 14 6 14.2239 6 14.5C6 14.7761 6.22386 15 6.5 15L17.5 15C17.7761 15 18 14.7761 18 14.5C18 14.2239 17.7761 14 17.5 14L6.5 14Z" fill="currentColor"/><path d="M15.5001 6.5L8.50006 17.5" stroke="currentColor" stroke-linecap="round"/></svg>
