<svg xmlns="http://www.w3.org/2000/svg" fill="none" viewBox="0 0 24 24" width="1em" height="1em"><path fill="currentColor" fill-rule="evenodd" d="M12.354 3.146a.5.5 0 0 0-.708 0L8.818 5.975a.5.5 0 0 0 .707.707L11.5 4.707V11a.5.5 0 0 0 1 0V4.707l1.975 1.975a.5.5 0 1 0 .707-.707zM16 12.5a3.5 3.5 0 0 0-3.5 3.5v4.5a.5.5 0 0 1-1 0V16A3.5 3.5 0 0 0 8 12.5H4.707l1.975 1.975a.5.5 0 1 1-.707.707l-2.829-2.828a.5.5 0 0 1 0-.707l2.829-2.829a.5.5 0 0 1 .707.707L4.707 11.5H8a4.5 4.5 0 0 1 4 2.437 4.5 4.5 0 0 1 4-2.437h3.293l-1.975-1.975a.5.5 0 0 1 .707-.707l2.829 2.829a.5.5 0 0 1 0 .707l-2.829 2.828a.5.5 0 1 1-.707-.707l1.975-1.975z" clip-rule="evenodd"/></svg>
