<svg xmlns="http://www.w3.org/2000/svg" fill="none" viewBox="0 0 32 32" width="1em" height="1em"><path fill="currentColor" fill-rule="evenodd" d="M15.646 3.646a.5.5 0 0 1 .707 0l4.243 4.243a.5.5 0 0 1-.707.707L16.5 5.207V14.5a.5.5 0 0 1-1 0V5.207l-3.39 3.39a.5.5 0 1 1-.706-.708zm-12 12a.5.5 0 0 0 0 .707l4.243 4.243a.5.5 0 0 0 .707-.707L5.207 16.5H12a3.5 3.5 0 0 1 3.5 3.5v7.5a.5.5 0 0 0 1 0V20a3.5 3.5 0 0 1 3.5-3.5h6.793l-3.39 3.39a.5.5 0 1 0 .708.706l4.243-4.242a.5.5 0 0 0 0-.707l-4.243-4.243a.5.5 0 1 0-.707.707l3.389 3.39H20a4.5 4.5 0 0 0-4 2.435 4.5 4.5 0 0 0-4-2.436H5.207l3.39-3.39a.5.5 0 1 0-.708-.706z" clip-rule="evenodd"/></svg>
