<svg xmlns="http://www.w3.org/2000/svg" fill="none" viewBox="0 0 16 16" width="1em" height="1em"><path fill="currentColor" fill-rule="evenodd" d="M7.5 6.5v-5a.5.5 0 0 1 1 0v5a.5.5 0 0 1-1 0Zm6.5 2a.5.5 0 0 1-.5.5H10a1.5 1.5 0 0 0-1.5 1.5v3a.5.5 0 0 1-1 0v-3A1.5 1.5 0 0 0 6 9H2.5a.5.5 0 0 1 0-1H6c.818 0 1.544.393 2 1 .456-.607 1.182-1 2-1h3.5a.5.5 0 0 1 .5.5Z" clip-rule="evenodd"/><path fill="currentColor" fill-rule="evenodd" d="M8 1a.5.5 0 0 1 .354.146l2.5 2.5a.5.5 0 0 1-.708.708L8 2.207 5.854 4.354a.5.5 0 1 1-.708-.708l2.5-2.5A.5.5 0 0 1 8 1Zm6 7.5a.5.5 0 0 1-.146.354l-2.5 2.5a.5.5 0 0 1-.708-.708L12.793 8.5l-2.147-2.146a.5.5 0 0 1 .708-.708l2.5 2.5A.5.5 0 0 1 14 8.5Zm-11.854.354a.5.5 0 0 1 0-.708l2.5-2.5a.5.5 0 1 1 .708.708L3.207 8.5l2.147 2.146a.5.5 0 0 1-.708.708l-2.5-2.5Z" clip-rule="evenodd"/></svg>
