<svg xmlns="http://www.w3.org/2000/svg" fill="none" viewBox="0 0 16 16" width="1em" height="1em"><path fill="currentColor" d="M8.646 4.647a.5.5 0 1 0 .708.707l-.708-.707ZM13.5 3.5l-.354.354.354-.354Zm-.354 2.647-3.5 3.5.708.707 3.5-3.5-.707-.707Zm-3.792-.793 1.5-1.5-.708-.707-1.5 1.5.708.707Zm3.793-1.5c.633.633.633 1.66 0 2.293l.707.707a2.621 2.621 0 0 0 0-3.708l-.707.708Zm.707-.708a2.621 2.621 0 0 0-3.708 0l.708.708a1.621 1.621 0 0 1 2.293 0l.707-.708Z"/><path fill="currentColor" d="M6.146 4.146a.5.5 0 0 1 .708.708l-.708-.708Zm.75 8.25 2.75-2.75.708.708-2.75 2.75-.708-.708Zm-.042-7.542-3.75 3.75-.708-.708 3.75-3.75.708.708Zm-3.75 7.542a2.682 2.682 0 0 0 3.792 0l.708.708a3.682 3.682 0 0 1-5.208 0l.708-.708Zm-.708.708a3.682 3.682 0 0 1 0-5.208l.708.708a2.682 2.682 0 0 0 0 3.792l-.708.708Z"/><path stroke="currentColor" stroke-linecap="round" d="m10 7-4.25 4.25a1.06 1.06 0 0 1-1.5 0v0a1.06 1.06 0 0 1 0-1.5L9.5 4.5"/></svg>
