<svg xmlns="http://www.w3.org/2000/svg" fill="none" viewBox="0 0 16 16" width="1em" height="1em"><path fill="currentColor" d="M8.646 4.647a.5.5 0 1 0 .708.707zM13.5 3.5l-.354.354zm-.354 2.647-3.5 3.5.708.707 3.5-3.5zm-3.792-.793 1.5-1.5-.708-.707-1.5 1.5zm3.793-1.5c.633.633.633 1.66 0 2.293l.707.707a2.62 2.62 0 0 0 0-3.707zm.707-.707a2.62 2.62 0 0 0-3.708 0l.708.707a1.62 1.62 0 0 1 2.293 0z"/><path fill="currentColor" d="M6.146 4.146a.5.5 0 0 1 .708.708zm.75 8.25 2.75-2.75.708.708-2.75 2.75zm-.042-7.542-3.75 3.75-.708-.708 3.75-3.75zm-3.75 7.542a2.68 2.68 0 0 0 3.792 0l.708.708a3.68 3.68 0 0 1-5.208 0zm-.708.708a3.68 3.68 0 0 1 0-5.208l.708.708a2.68 2.68 0 0 0 0 3.792z"/><path stroke="currentColor" stroke-linecap="round" d="m10 7-4.25 4.25a1.06 1.06 0 0 1-1.5 0v0a1.06 1.06 0 0 1 0-1.5L9.5 4.5"/></svg>
