<svg viewBox="0 0 32 32" fill="none" xmlns="http://www.w3.org/2000/svg" stroke="currentColor"><rect x="2.5" y="5.5" width="27" height="21" rx="1.5"/><line x1="3" y1="9.5" x2="29" y2="9.5"/><circle cx="4.5" cy="7.5" r="0.5" fill="#282829"/><circle cx="6.5" cy="7.5" r="0.5" fill="#282829"/><circle cx="8.5" cy="7.5" r="0.5" fill="#282829"/><circle cx="12" cy="23" r="0.5"/><circle cx="19" cy="23" r="0.5"/><path d="M11 13.5H20.156C20.8258 13.5 21.3063 14.1457 21.1138 14.7873L20.2138 17.7873C20.0869 18.2103 19.6976 18.5 19.256 18.5H13" stroke-linecap="round" stroke-linejoin="round"/><path d="M9 12.5H10.5L11.5 18.5" stroke-linecap="round" stroke-linejoin="round"/><path d="M14 18.5H12C11.4477 18.5 11 18.9477 11 19.5V19.5C11 20.0523 11.4477 20.5 12 20.5H19.5" stroke-linecap="round"/></svg>