<svg xmlns="http://www.w3.org/2000/svg" fill="none" viewBox="0 0 32 32" width="1em" height="1em"><rect width="27" height="21" x="2.5" y="5.5" stroke="currentColor" rx="1.5"/><path stroke="currentColor" d="M3 9.5h26"/><circle cx="4.5" cy="7.5" r=".5" fill="currentColor"/><circle cx="6.5" cy="7.5" r=".5" fill="currentColor"/><circle cx="8.5" cy="7.5" r=".5" fill="currentColor"/><circle cx="12" cy="23" r=".5" stroke="currentColor"/><circle cx="19" cy="23" r=".5" stroke="currentColor"/><path stroke="currentColor" stroke-linecap="round" stroke-linejoin="round" d="M11 13.5h9.156a1 1 0 0 1 .958 1.287l-.9 3a1 1 0 0 1-.958.713H13m-4-6h1.5l1 6"/><path stroke="currentColor" stroke-linecap="round" d="M14 18.5h-2a1 1 0 0 0-1 1v0a1 1 0 0 0 1 1h7.5"/></svg>
