<svg xmlns="http://www.w3.org/2000/svg" fill="none" viewBox="0 0 32 32" width="1em" height="1em"><path stroke="currentColor" stroke-linecap="round" stroke-linejoin="round" d="M6 24v4.5m2.121-2.879L6 23.5l-2.121 2.121M12.5 28v-4.5m2.121 2.879L12.5 28.5l-2.121-2.121"/><path stroke="currentColor" stroke-miterlimit="10" d="M28.181 19.663h-.651a5.536 5.536 0 0 0-.669-1.62l.451-.452a.323.323 0 0 0 0-.468l-1.42-1.42a.323.323 0 0 0-.468 0l-.45.451a5.533 5.533 0 0 0-1.621-.668v-.652a.335.335 0 0 0-.335-.334h-2.004a.335.335 0 0 0-.335.334v.652a5.533 5.533 0 0 0-1.62.668l-.468-.45a.323.323 0 0 0-.468 0l-1.42 1.42a.323.323 0 0 0 0 .467l.451.451a5.531 5.531 0 0 0-.668 1.621h-.652a.335.335 0 0 0-.334.334v2.006c0 .183.15.334.334.334h.652c.133.585.367 1.12.668 1.62l-.451.452a.323.323 0 0 0 0 .468l1.42 1.42a.323.323 0 0 0 .468 0l.451-.451c.501.3 1.036.535 1.62.668v.652c0 .184.151.334.335.334h2.005c.184 0 .334-.15.334-.334v-.652a5.533 5.533 0 0 0 1.62-.668l.452.45a.323.323 0 0 0 .468 0l1.42-1.42a.323.323 0 0 0 0-.467l-.451-.451a5.57 5.57 0 0 0 .668-1.621h.652c.183 0 .334-.15.334-.334v-2.006a.311.311 0 0 0-.318-.334Z"/><circle cx="22" cy="21" r="2.5" stroke="currentColor"/><path fill="currentColor" d="M24.333 10.829a1 1 0 0 0 .894.996c2.145.23 3.773 1.99 3.773 4.075 0 .878 1 .878 1 0 0-2.625-2.042-4.787-4.667-5.069.009-3.718-3.166-6.831-7-6.831-3.468 0-6.348 2.451-6.903 5.667-2.772-.043-5.262 1.892-5.814 4.535C3.666 14.14 2 15.703 2 17.6 2 19.478 3.567 21 5.5 21h8.03c.26 0 .469-.214.484-.473A.492.492 0 0 0 13.53 20H5.5C4.092 20 3 18.898 3 17.6c0-1.303 1.17-2.444 2.585-2.399a1 1 0 0 0 1.01-.795c.45-2.152 2.504-3.775 4.82-3.739a1 1 0 0 0 1-.83C12.885 7.114 15.34 5 18.333 5c3.305 0 6.008 2.688 6 5.829Z"/></svg>
