<svg xmlns="http://www.w3.org/2000/svg" fill="none" viewBox="0 0 24 24" width="1em" height="1em"><path stroke="currentColor" stroke-linecap="round" stroke-linejoin="round" d="M9.5 19.5v-3m1.414 2.586L9.5 20.5l-1.414-1.414M5.414 17.5v3m1.414-2.586L5.414 16.5 4 17.914"/><path stroke="currentColor" stroke-miterlimit="10" d="M21.636 14.997h-.489c-.1-.438-.275-.84-.501-1.215l.338-.339c.1-.1.1-.25 0-.35l-1.065-1.066c-.1-.1-.25-.1-.35 0l-.339.339a4.2 4.2 0 0 0-1.215-.502v-.488a.25.25 0 0 0-.251-.251H16.26a.25.25 0 0 0-.25.25v.49c-.439.1-.84.275-1.216.5l-.35-.338a.244.244 0 0 0-.352 0l-1.065 1.066c-.1.1-.1.25 0 .35l.339.339a4.2 4.2 0 0 0-.502 1.215h-.488a.25.25 0 0 0-.251.251v1.504c0 .138.113.25.25.25h.49c.1.44.275.84.5 1.216l-.338.339c-.1.1-.1.25 0 .35l1.065 1.066c.1.1.251.1.351 0l.339-.339a4.2 4.2 0 0 0 1.215.502v.488c0 .138.113.251.25.251h1.504a.25.25 0 0 0 .251-.25v-.49c.439-.1.84-.275 1.216-.5l.338.338c.1.1.25.1.35 0l1.066-1.065c.1-.1.1-.251 0-.351l-.338-.339c.225-.376.4-.777.5-1.215h.49c.137 0 .25-.113.25-.251v-1.504a.233.233 0 0 0-.238-.25Z"/><circle cx="17" cy="16" r="1.75" stroke="currentColor"/><path stroke="currentColor" stroke-linecap="round" stroke-linejoin="round" d="M21.5 10.182c0-1.933-1.39-3.53-3.192-3.783C18.061 3.927 16.04 2 13.583 2 11.512 2 9.75 3.37 9.101 5.281a4 4 0 0 0-.268-.008c-1.978 0-3.639 1.406-4.097 3.304-1.266.2-2.236 1.33-2.236 2.696C2.5 12.779 3.279 14 4.736 14H9.5"/></svg>
