<svg width="250px" height="150px" viewBox="0 0 250 150" version="1.1" xmlns="http://www.w3.org/2000/svg" xmlns:xlink="http://www.w3.org/1999/xlink">
    <title>Frame 1 Copy 5</title>
    <defs>
        <rect id="path-1" x="0" y="0" width="170" height="36" rx="2"></rect>
        <rect id="path-3" x="0" y="0" width="170" height="36" rx="2"></rect>
        <rect id="path-5" x="0" y="0" width="170" height="36" rx="2"></rect>
    </defs>
    <g id="Frame-1-Copy-5" stroke="none" stroke-width="1" fill="none" fill-rule="evenodd">
        <rect id="Rectangle" fill="#D8D8D8" opacity="0.394042969" x="39" y="6" width="171" height="14" rx="1"></rect>
        <path d="M201,9 C202.6545,9 204,10.3455 204,12 C204,12.647 203.792,13.245 203.4425,13.7355 L203.46,13.709 L204.844351,15.093475 C205.028824,15.278369 205.049321,15.5640065 204.905842,15.7709368 L204.844351,15.8444957 C204.740835,15.9479986 204.605315,16 204.469294,16 C204.333773,16 204.197753,15.9479986 204.094237,15.8444957 L204.094237,15.8444957 L202.709949,14.4605104 C202.224296,14.799134 201.635808,15 201,15 C199.3455,15 198,13.6545 198,12 C198,10.3455 199.3455,9 201,9 Z M201,10 C199.897,10 199,10.897 199,12 C199,13.1035 199.8975,14 201,14 C202.103,14 203,13.103 203,12 C203,10.897 202.103,10 201,10 Z" id="Combined-Shape" fill="#1D4F76" fill-rule="nonzero"></path>
        <g id="Card/Background-Copy" transform="translate(40.000000, 65.000000)">
            <mask id="mask-2" fill="white">
                <use xlink:href="#path-1"></use>
            </mask>
            <use id="Background" stroke-opacity="0.3" stroke="#B5C4CF" stroke-width="2" fill="#FFFFFF" fill-rule="nonzero" xlink:href="#path-1"></use>
            <path d="M153,21 C153,21.5626767 152.333054,22 151.578146,22 L41.4231672,22 C40.6209945,22 40,21.5306315 40,21 C40,20.4373233 40.6656326,20 41.4231672,20 L151.533508,20 C152.333054,20 153,20.4373233 153,21" id="Fill-9" fill="#DEE0E1" mask="url(#mask-2)"></path>
            <path d="M90,10 C90,11.0972304 88.9678018,12 87.7103485,12 L42.2883265,12 C41.0308732,12 40,11.098409 40,10 C40,8.90159104 41.0308732,8 42.2883265,8 L87.7103485,8 C88.9678018,8 90,8.90159104 90,10" id="Fill-11" fill="#B5C4CF" fill-rule="nonzero" mask="url(#mask-2)"></path>
            <path d="M86,27 C86,27.5626767 85.339888,28 84.593504,28 L41.406496,28 C40.6143616,28 40,27.5306315 40,27 C40,26.4373233 40.6588048,26 41.406496,26 L84.593504,26 C85.339888,26 86,26.4373233 86,27" id="Fill-13" fill="#DEE0E1" mask="url(#mask-2)"></path>
            <path d="M26.8284734,27 L13.1740995,27 C11.978988,27 11,25.9685714 11,24.7077857 L11,10.2922143 C11,9.03142857 11.978988,8 13.1740995,8 L26.8284734,8 C28.0235849,8 29,9.03142857 29,10.2922143 L29,24.7077857 C29,25.9685714 28.0235849,27 26.8284734,27" id="Fill-15" fill="#B5C4CF" fill-rule="nonzero" mask="url(#mask-2)"></path>
        </g>
        <g id="Card/Background-Copy-3" transform="translate(40.000000, 24.000000)">
            <mask id="mask-4" fill="white">
                <use xlink:href="#path-3"></use>
            </mask>
            <use id="Background" stroke-opacity="0.3" stroke="#B5C4CF" stroke-width="2" fill="#FFFFFF" fill-rule="nonzero" xlink:href="#path-3"></use>
            <path d="M153,21 C153,21.5626767 152.333054,22 151.578146,22 L41.4231672,22 C40.6209945,22 40,21.5306315 40,21 C40,20.4373233 40.6656326,20 41.4231672,20 L151.533508,20 C152.333054,20 153,20.4373233 153,21" id="Fill-9" fill="#DEE0E1" mask="url(#mask-4)"></path>
            <path d="M90,10 C90,11.0972304 88.9678018,12 87.7103485,12 L42.2883265,12 C41.0308732,12 40,11.098409 40,10 C40,8.90159104 41.0308732,8 42.2883265,8 L87.7103485,8 C88.9678018,8 90,8.90159104 90,10" id="Fill-11" fill="#B5C4CF" fill-rule="nonzero" mask="url(#mask-4)"></path>
            <path d="M86,27 C86,27.5626767 85.339888,28 84.593504,28 L41.406496,28 C40.6143616,28 40,27.5306315 40,27 C40,26.4373233 40.6588048,26 41.406496,26 L84.593504,26 C85.339888,26 86,26.4373233 86,27" id="Fill-13" fill="#DEE0E1" mask="url(#mask-4)"></path>
            <path d="M26.8284734,27 L13.1740995,27 C11.978988,27 11,25.9685714 11,24.7077857 L11,10.2922143 C11,9.03142857 11.978988,8 13.1740995,8 L26.8284734,8 C28.0235849,8 29,9.03142857 29,10.2922143 L29,24.7077857 C29,25.9685714 28.0235849,27 26.8284734,27" id="Fill-15" fill="#B5C4CF" fill-rule="nonzero" mask="url(#mask-4)"></path>
        </g>
        <g id="Card/Background-Copy-2" transform="translate(40.000000, 106.000000)">
            <mask id="mask-6" fill="white">
                <use xlink:href="#path-5"></use>
            </mask>
            <use id="Background" stroke-opacity="0.3" stroke="#B5C4CF" stroke-width="2" fill="#FFFFFF" fill-rule="nonzero" xlink:href="#path-5"></use>
            <path d="M153,19 C153,19.5626767 152.333054,20 151.578146,20 L41.4231672,20 C40.6209945,20 40,19.5306315 40,19 C40,18.4373233 40.6656326,18 41.4231672,18 L151.533508,18 C152.333054,18 153,18.4373233 153,19" id="Fill-9" fill="#DEE0E1" mask="url(#mask-6)"></path>
            <path d="M90,11 C90,12.0972304 88.9678018,13 87.7103485,13 L42.2883265,13 C41.0308732,13 40,12.098409 40,11 C40,9.90159104 41.0308732,9 42.2883265,9 L87.7103485,9 C88.9678018,9 90,9.90159104 90,11" id="Fill-11" fill="#B5C4CF" fill-rule="nonzero" mask="url(#mask-6)"></path>
            <path d="M86,25 C86,25.5626767 85.339888,26 84.593504,26 L41.406496,26 C40.6143616,26 40,25.5306315 40,25 C40,24.4373233 40.6588048,24 41.406496,24 L84.593504,24 C85.339888,24 86,24.4373233 86,25" id="Fill-13" fill="#DEE0E1" mask="url(#mask-6)"></path>
            <path d="M26.8284734,26 L13.1740995,26 C11.978988,26 11,25.0228571 11,23.8284286 L11,10.1715714 C11,8.97714286 11.978988,8 13.1740995,8 L26.8284734,8 C28.0235849,8 29,8.97714286 29,10.1715714 L29,23.8284286 C29,25.0228571 28.0235849,26 26.8284734,26" id="Fill-15" fill="#B5C4CF" fill-rule="nonzero" mask="url(#mask-6)"></path>
        </g>
    </g>
</svg>