<svg height="60" viewBox="0 0 100 100" width="60" xmlns="http://www.w3.org/2000/svg"><path d="m46.6 23.7-2.1-2.1c-.6-.6-1.5-.6-2.1 0l-13.2 13.2-5.3-5.3c-.6-.6-1.5-.6-2.1 0l-2.1 2.1c-.6.6-.6 1.5 0 2.1l7.4 7.4c.6.6 1.4.9 2.1.9.8 0 1.5-.3 2.1-.9l15.3-15.3c.5-.5.5-1.5 0-2.1zm30.4 14.3h-26c-1.1 0-2-.9-2-2v-4c0-1.1.9-2 2-2h26c1.1 0 2 .9 2 2v4c0 1.1-.9 2-2 2zm0 18h-32c-1.1 0-2-.9-2-2v-4c0-1.1.9-2 2-2h32c1.1 0 2 .9 2 2v4c0 1.1-.9 2-2 2zm-44 0h-4c-1.1 0-2-.9-2-2v-4c0-1.1.9-2 2-2h4c1.1 0 2 .9 2 2v4c0 1.1-.9 2-2 2zm0 18h-4c-1.1 0-2-.9-2-2v-4c0-1.1.9-2 2-2h4c1.1 0 2 .9 2 2v4c0 1.1-.9 2-2 2zm44 0h-32c-1.1 0-2-.9-2-2v-4c0-1.1.9-2 2-2h32c1.1 0 2 .9 2 2v4c0 1.1-.9 2-2 2z"/></svg>