<svg height="60" viewBox="0 0 100 100" width="60" xmlns="http://www.w3.org/2000/svg"><path d="m72 22h-21.9c-1.4-.1-2.6.6-3.6 1.6l-26.8 26.9c-2.3 2.3-2.3 6.1 0 8.5l21.2 21.2c2.3 2.3 6.1 2.3 8.5 0l27.1-27.2c1-1 1.6-2.6 1.5-4v-21c0-3.3-2.7-6-6-6zm-21.6 44-1.4 1.4c-.8.8-2 .8-2.8 0l-13.6-13.6c-.8-.8-.8-2 0-2.8l1.4-1.4c.8-.8 2-.8 2.8 0l13.6 13.6c.8.8.8 2 0 2.8zm8-8-1.4 1.4c-.8.8-2 .8-2.8 0l-13.6-13.6c-.8-.8-.8-2 0-2.8l1.4-1.4c.8-.8 2-.8 2.8 0l13.6 13.6c.8.8.8 2 0 2.8zm5.6-17c-2.8 0-5-2.2-5-5s2.2-5 5-5 5 2.2 5 5-2.2 5-5 5z"/></svg>