<svg height="60" viewBox="0 0 100 100" width="60" xmlns="http://www.w3.org/2000/svg"><path d="m74.6 33.6-13.2-13.2c-.3-.3-.6-.4-1-.4-.8 0-1.4.6-1.4 1.4v10.6c0 2.2 1.8 4 4 4h10.6c.8 0 1.4-.6 1.4-1.4 0-.4-.1-.7-.4-1zm-1.6 8.4h-14c-3.3 0-6-2.7-6-6v-14c0-1.1-.9-2-2-2h-20c-3.3 0-6 2.7-6 6v48c0 3.3 2.7 6 6 6h38c3.3 0 6-2.7 6-6v-30c0-1.1-.9-2-2-2zm-41-9.4 4.9-.7c.1 0 .3-.1.3-.2l2.2-4.5c.2-.3.6-.3.8 0l2.2 4.5c.1.1.2.2.3.2l4.9.7c.3.1.5.5.2.7l-3.6 3.5c-.1.1-.1.2-.1.4l.8 4.9c.1.3-.3.6-.6.4l-4.4-2.3c-.1-.1-.3-.1-.4 0l-4.4 2.3c-.3.2-.7-.1-.6-.4l.8-4.9c0-.1 0-.3-.1-.4l-3.6-3.5c-.1-.2.1-.6.4-.7zm31 33.4c0 1.1-.9 2-2 2h-26c-1.1 0-2-.9-2-2v-2c0-1.1.9-2 2-2h26c1.1 0 2 .9 2 2zm4-12c0 1.1-.9 2-2 2h-30c-1.1 0-2-.9-2-2v-2c0-1.1.9-2 2-2h30c1.1 0 2 .9 2 2z"/></svg>