<svg height="60" viewBox="0 0 100 100" width="60" xmlns="http://www.w3.org/2000/svg"><path d="m39 32h22c1.1 0 2-.9 2-2v-4c0-3.3-2.7-6-6-6h-14c-3.3 0-6 2.7-6 6v4c0 1.1.9 2 2 2zm33-7h-2c-.6 0-1 .4-1 1v4c0 4.4-3.6 8-8 8h-22c-4.4 0-8-3.6-8-8v-4c0-.6-.4-1-1-1h-2c-3.3 0-6 2.7-6 6v43c0 3.3 2.7 6 6 6h44c3.3 0 6-2.7 6-6v-43c0-3.3-2.7-6-6-6zm-29 41c0 1.1-.9 2-2 2h-2c-1.1 0-2-.9-2-2v-10c0-1.1.9-2 2-2h2c1.1 0 2 .9 2 2zm10 0c0 1.1-.9 2-2 2h-2c-1.1 0-2-.9-2-2v-19c0-1.1.9-2 2-2h2c1.1 0 2 .9 2 2zm10 0c0 1.1-.9 2-2 2h-2c-1.1 0-2-.9-2-2v-15c0-1.1.9-2 2-2h2c1.1 0 2 .9 2 2z"/></svg>