<svg height="60" viewBox="0 0 100 100" width="60" xmlns="http://www.w3.org/2000/svg"><path d="m79 51.1c.1-2.1-1.4-2.7-2-2.7h-21.8c-1.9 0-2.2 2-2.2 2.2v23.4h26zm-15 16.8c0 1.1-.9 2-2 2h-2c-1.1 0-2-.9-2-2v-2c0-1.1.9-2 2-2h2c1.1 0 2 .9 2 2zm0-10.2c0 1.1-.9 2-2 2h-2c-1.1 0-2-.9-2-2v-2c0-1.1.9-2 2-2h2c1.1 0 2 .9 2 2zm10 10.2c0 1.1-.9 2-2 2h-2c-1.1 0-2-.9-2-2v-2c0-1.1.9-2 2-2h2c1.1 0 2 .9 2 2zm0-10.2c0 1.1-.9 2-2 2h-2c-1.1 0-2-.9-2-2v-2c0-1.1.9-2 2-2h2c1.1 0 2 .9 2 2zm-15-17.4v-11.6c.1-2.1-1.4-2.7-2-2.7h-33.8c-1.9 0-2.2 2-2.2 2.2v45.8h26v-29.3s0-2.4 2.2-2.4h7.9s1.9-1.2 1.9-2zm-27 26.6c0 1.1-.9 2-2 2h-2c-1.1 0-2-.9-2-2v-2c0-1.1.9-2 2-2h2c1.1 0 2 .9 2 2zm0-10.3c0 1.1-.9 2-2 2h-2c-1.1 0-2-.9-2-2v-2c0-1.1.9-2 2-2h2c1.1 0 2 .9 2 2zm0-10.2c0 1.1-.9 2-2 2h-2c-1.1 0-2-.9-2-2v-2c0-1.1.9-2 2-2h2c1.1 0 2 .9 2 2zm0-10.2c0 1.1-.9 2-2 2h-2c-1.1 0-2-.9-2-2v-2c0-1.1.9-2 2-2h2c1.1 0 2 .9 2 2zm11 30.7c0 1.1-.9 2-2 2h-2c-1.1 0-2-.9-2-2v-2c0-1.1.9-2 2-2h2c1.1 0 2 .9 2 2zm0-10.3c0 1.1-.9 2-2 2h-2c-1.1 0-2-.9-2-2v-2c0-1.1.9-2 2-2h2c1.1 0 2 .9 2 2zm0-10.2c0 1.1-.9 2-2 2h-2c-1.1 0-2-.9-2-2v-2c0-1.1.9-2 2-2h2c1.1 0 2 .9 2 2zm0-10.2c0 1.1-.9 2-2 2h-2c-1.1 0-2-.9-2-2v-2c0-1.1.9-2 2-2h2c1.1 0 2 .9 2 2zm11 0c0 1.1-.9 2-2 2h-2c-1.1 0-2-.9-2-2v-2c0-1.1.9-2 2-2h2c1.1 0 2 .9 2 2z"/></svg>