<svg xmlns="http://www.w3.org/2000/svg" viewBox="0 0 512 512">
    <path fill="#000" d="M119.532 331.816h98.56c8.34 0 15.164-6.824 15.164-15.164v-227.446c0-16.68-15.164-30.326-30.326-30.326h-81.122c-9.856 0-17.438 7.582-17.438 17.438v240.334c0 8.34 6.824 15.164 15.164 15.164zM453.12 104.37v242.609c0 16.68-13.646 30.326-30.326 30.326h-333.587c-16.68 0-30.326-13.646-30.326-30.326v-242.609c-25.020 0-45.49 20.47-45.49 45.49v227.446c0 25.020 20.47 45.49 45.49 45.49h144.050c8.34 0 15.164 6.824 15.164 15.164s6.824 15.164 15.164 15.164h45.49c8.34 0 15.164-6.824 15.164-15.164s6.824-15.164 15.164-15.164h144.050c25.020 0 45.49-20.47 45.49-45.49v-227.446c0-25.020-20.47-45.49-45.49-45.49zM293.908 331.816h96.286c9.856 0 17.438-7.582 17.438-17.438v-240.334c0-8.34-6.824-15.164-15.164-15.164h-83.396c-15.164 0-30.326 13.646-30.326 30.326v227.446c0 8.34 6.824 15.164 15.164 15.164z"></path>
</svg>
