<svg height="64" viewBox="0 0 56 64" width="56" xmlns="http://www.w3.org/2000/svg"><path clip-rule="evenodd" d="m5.1 0c-2.8 0-5.1 2.3-5.1 5.1v53.8c0 2.8 2.3 5.1 5.1 5.1h45.8c2.8 0 5.1-2.3 5.1-5.1v-38.6l-18.9-20.3h-32z" fill="#e53c3c" fill-rule="evenodd"/><g clip-rule="evenodd" fill-rule="evenodd"><path d="m56 20.3v1h-12.8s-6.3-1.2-6.2-6.7c0 0 .2 5.7 6 5.7z" fill="#de2d2d"/><path d="m37.1 0v14.6c0 1.6 1.1 5.7 6.1 5.7h12.8z" fill="#fff" opacity=".5"/></g><path d="m17.5 43.1h-5.9v3.9h5.7c.4 0 .7.3.7.7 0 .3-.3.6-.7.6h-5.7v4.9c0 .4-.3.7-.7.7s-.8-.3-.8-.7v-10.3c0-.6.5-1.1 1.1-1.1h6.3c.3 0 .6.3.6.7 0 .3-.3.6-.6.6zm9.5 10.7h-5.4c-.6 0-1.1-.5-1.1-1.1v-10.3c0-.4.3-.7.8-.7.4 0 .7.3.7.7v10.1h5c.4 0 .7.2.7.6s-.3.7-.7.7zm12.2.1c-.3 0-.5-.2-.7-.5l-.9-2.3h-6l-.9 2.3c-.1.3-.4.5-.7.5-.4 0-.8-.4-.8-.8 0-.1 0-.2.1-.3l4.1-10.3c.2-.5.7-.8 1.2-.8.6 0 1 .3 1.2.8l4.2 10.3c0 .1.1.2.1.3 0 .4-.4.8-.9.8zm-4.6-10.6-2.5 6.5h5.1z" fill="#fff"/></svg>