<svg viewBox="0 0 16 16" fill="none" xmlns="http://www.w3.org/2000/svg" width="1em" height="1em"><mask id="path-1-inside-1_492_5414" fill="currentColor"><path d="M12 3.84615C12 2.82655 11.1734 2 10.1538 2C8.96431 2 8 2.96431 8 4.15385V6H9.84615C11.0357 6 12 5.03569 12 3.84615Z"/></mask><path d="M8 6V7H7V6H8ZM9 4.15385V6H7V4.15385H9ZM8 5H9.84615V7H8V5ZM9.84615 5C10.4834 5 11 4.48341 11 3.84615H13C13 5.58798 11.588 7 9.84615 7V5ZM10.1538 3C9.51659 3 9 3.51659 9 4.15385H7C7 2.41203 8.41202 1 10.1538 1V3ZM10.1538 1C11.7257 1 13 2.27427 13 3.84615H11C11 3.37884 10.6212 3 10.1538 3V1Z" fill="currentColor" mask="url(#path-1-inside-1_492_5414)"/><mask id="path-3-inside-2_492_5414" fill="currentColor"><path d="M4 3.84615C4 2.82655 4.82655 2 5.84615 2C7.03569 2 8 2.96431 8 4.15385V6H6.15385C4.96431 6 4 5.03569 4 3.84615Z"/></mask><path d="M8 6V7H9V6H8ZM7 4.15385V6H9V4.15385H7ZM8 5H6.15385V7H8V5ZM6.15385 5C5.51659 5 5 4.48341 5 3.84615H3C3 5.58798 4.41203 7 6.15385 7V5ZM5.84615 3C6.48341 3 7 3.51659 7 4.15385H9C9 2.41203 7.58798 1 5.84615 1V3ZM5.84615 1C4.27427 1 3 2.27427 3 3.84615H5C5 3.37884 5.37884 3 5.84615 3V1Z" fill="currentColor" mask="url(#path-3-inside-2_492_5414)"/><rect x="1.5" y="5.5" width="13" height="2" rx="0.5" stroke="currentColor"/><rect x="0.5" y="-0.5" width="11" height="6" rx="0.5" transform="matrix(1 0 0 -1 2 13)" stroke="currentColor"/><path d="M8 5V14" stroke="currentColor"/></svg>
