<svg viewBox="0 0 24 24" fill="none" xmlns="http://www.w3.org/2000/svg" width="1em" height="1em"><path d="M17 5.30769C17 4.30933 16.1907 3.5 15.1923 3.5H14.9615C13.6021 3.5 12.5 4.60207 12.5 5.96154V7.5H14.8077C16.0185 7.5 17 6.51847 17 5.30769Z" stroke="currentColor"/><path d="M7.5 5.30769C7.5 4.30933 8.30933 3.5 9.30769 3.5H9.53846C10.8979 3.5 12 4.60207 12 5.96154V7.5H9.69231C8.48153 7.5 7.5 6.51847 7.5 5.30769Z" stroke="currentColor"/><rect x="3.5" y="7.5" width="17" height="3" rx="0.5" stroke="currentColor"/><rect x="0.5" y="-0.5" width="15" height="9" rx="0.5" transform="matrix(1 0 0 -1 4 19)" stroke="currentColor"/><path d="M12 7.5L12 19.5" stroke="currentColor"/></svg>
