<svg xmlns="http://www.w3.org/2000/svg" fill="none" viewBox="0 0 16 16" width="1em" height="1em"><path stroke="currentColor" d="M11.5 3.846c0-.743-.603-1.346-1.346-1.346-.914 0-1.654.74-1.654 1.654V5.5h1.346c.913 0 1.654-.74 1.654-1.654Zm-7 0c0-.743.603-1.346 1.346-1.346.914 0 1.654.74 1.654 1.654V5.5H6.154C5.24 5.5 4.5 4.76 4.5 3.846Z"/><rect width="13" height="2" x="1.5" y="5.5" stroke="currentColor" rx=".5"/><rect width="11" height="6" x=".5" y="-.5" stroke="currentColor" rx=".5" transform="matrix(1 0 0 -1 2 13)"/><path stroke="currentColor" d="M8 5v9"/></svg>
