<svg viewBox="0 0 32 32" fill="none" xmlns="http://www.w3.org/2000/svg" width="1em" height="1em"><path d="M23.5 7.5C23.5 5.84315 22.1569 4.5 20.5 4.5H20C18.067 4.5 16.5 6.067 16.5 8V10.5H20.5C22.1569 10.5 23.5 9.15685 23.5 7.5Z" stroke="currentColor"/><path d="M8.5 7.5C8.5 5.84315 9.84315 4.5 11.5 4.5H12C13.933 4.5 15.5 6.067 15.5 8V10.5H11.5C9.84315 10.5 8.5 9.15685 8.5 7.5Z" stroke="currentColor"/><rect x="4.5" y="10.5" width="23" height="4" rx="0.5" stroke="currentColor"/><rect x="13.5" y="10.5" width="5" height="17" stroke="currentColor"/><rect x="0.5" y="-0.5" width="21" height="13" rx="0.5" transform="matrix(1 0 0 -1 5 27)" stroke="currentColor"/></svg>
