<svg viewBox="0 0 32 32" fill="none" xmlns="http://www.w3.org/2000/svg" width="1em" height="1em"><mask id="path-1-inside-1_492_5430" fill="currentColor"><path d="M24 7.5C24 5.567 22.433 4 20.5 4H20C17.7909 4 16 5.79086 16 8V11H20.5C22.433 11 24 9.433 24 7.5Z"/></mask><path d="M16 11V12H15V11H16ZM20.5 5H20V3H20.5V5ZM17 8V11H15V8H17ZM16 10H20.5V12H16V10ZM20.5 10C21.8807 10 23 8.88071 23 7.5H25C25 9.98528 22.9853 12 20.5 12V10ZM20 5C18.3431 5 17 6.34315 17 8H15C15 5.23858 17.2386 3 20 3V5ZM20.5 3C22.9853 3 25 5.01472 25 7.5H23C23 6.11929 21.8807 5 20.5 5V3Z" fill="currentColor" mask="url(#path-1-inside-1_492_5430)"/><mask id="path-3-inside-2_492_5430" fill="currentColor"><path d="M8 7.5C8 5.567 9.567 4 11.5 4H12C14.2091 4 16 5.79086 16 8V11H11.5C9.567 11 8 9.433 8 7.5Z"/></mask><path d="M16 11V12H17V11H16ZM11.5 5H12V3H11.5V5ZM15 8V11H17V8H15ZM16 10H11.5V12H16V10ZM11.5 10C10.1193 10 9 8.88071 9 7.5H7C7 9.98528 9.01472 12 11.5 12V10ZM12 5C13.6569 5 15 6.34315 15 8H17C17 5.23858 14.7614 3 12 3V5ZM11.5 3C9.01472 3 7 5.01472 7 7.5H9C9 6.11929 10.1193 5 11.5 5V3Z" fill="currentColor" mask="url(#path-3-inside-2_492_5430)"/><rect x="4.5" y="10.5" width="23" height="4" rx="0.5" stroke="currentColor"/><rect x="13.5" y="10.5" width="5" height="17" stroke="currentColor"/><rect x="0.5" y="-0.5" width="21" height="13" rx="0.5" transform="matrix(1 0 0 -1 5 27)" stroke="currentColor"/></svg>
