<svg viewBox="0 0 24 24" fill="none" xmlns="http://www.w3.org/2000/svg" width="1em" height="1em"><mask id="path-1-inside-1_492_5422" fill="currentColor"><path d="M17.5 5.30769C17.5 4.03319 16.4668 3 15.1923 3H14.9615C13.3259 3 12 4.32593 12 5.96154V8H14.8077C16.2946 8 17.5 6.79461 17.5 5.30769Z"/></mask><path d="M12 8V9H11V8H12ZM15.1923 4H14.9615V2H15.1923V4ZM13 5.96154V8H11V5.96154H13ZM12 7H14.8077V9H12V7ZM14.8077 7C15.7423 7 16.5 6.24233 16.5 5.30769H18.5C18.5 7.3469 16.8469 9 14.8077 9V7ZM14.9615 4C13.8782 4 13 4.87821 13 5.96154H11C11 3.77364 12.7736 2 14.9615 2V4ZM15.1923 2C17.0191 2 18.5 3.4809 18.5 5.30769H16.5C16.5 4.58547 15.9145 4 15.1923 4V2Z" fill="currentColor" mask="url(#path-1-inside-1_492_5422)"/><mask id="path-3-inside-2_492_5422" fill="currentColor"><path d="M7 5.30769C7 4.03319 8.03319 3 9.30769 3H9.53846C11.1741 3 12.5 4.32593 12.5 5.96154V8H9.69231C8.20539 8 7 6.79461 7 5.30769Z"/></mask><path d="M12.5 8V9H13.5V8H12.5ZM9.30769 4H9.53846V2H9.30769V4ZM11.5 5.96154V8H13.5V5.96154H11.5ZM12.5 7H9.69231V9H12.5V7ZM9.69231 7C8.75767 7 8 6.24233 8 5.30769H6C6 7.3469 7.6531 9 9.69231 9V7ZM9.53846 4C10.6218 4 11.5 4.87821 11.5 5.96154H13.5C13.5 3.77364 11.7264 2 9.53846 2V4ZM9.30769 2C7.4809 2 6 3.4809 6 5.30769H8C8 4.58547 8.58547 4 9.30769 4V2Z" fill="currentColor" mask="url(#path-3-inside-2_492_5422)"/><rect x="3.5" y="7.5" width="17" height="3" rx="0.5" stroke="currentColor"/><rect x="0.5" y="-0.5" width="15" height="9" rx="0.5" transform="matrix(1 0 0 -1 4 19)" stroke="currentColor"/><path d="M12 7.5L12 19.5" stroke="currentColor"/></svg>
