<svg xmlns="http://www.w3.org/2000/svg" fill="none" viewBox="0 0 24 24" width="1em" height="1em"><path stroke="currentColor" d="M17 5.308c0-.999-.81-1.808-1.808-1.808h-.23A2.46 2.46 0 0 0 12.5 5.962V7.5h2.308C16.018 7.5 17 6.518 17 5.308Zm-9.5 0c0-.999.81-1.808 1.808-1.808h.23A2.46 2.46 0 0 1 12 5.962V7.5H9.692A2.19 2.19 0 0 1 7.5 5.308Z"/><rect width="17" height="3" x="3.5" y="7.5" stroke="currentColor" rx=".5"/><rect width="15" height="9" x=".5" y="-.5" stroke="currentColor" rx=".5" transform="matrix(1 0 0 -1 4 19)"/><path stroke="currentColor" d="M12 7.5v12"/></svg>
