<svg xmlns="http://www.w3.org/2000/svg" fill="none" viewBox="0 0 32 32" width="1em" height="1em"><path stroke="currentColor" d="M23.5 7.5a3 3 0 0 0-3-3H20A3.5 3.5 0 0 0 16.5 8v2.5h4a3 3 0 0 0 3-3Zm-15 0a3 3 0 0 1 3-3h.5A3.5 3.5 0 0 1 15.5 8v2.5h-4a3 3 0 0 1-3-3Z"/><rect width="23" height="4" x="4.5" y="10.5" stroke="currentColor" rx=".5"/><path stroke="currentColor" d="M13.5 10.5h5v17h-5z"/><rect width="21" height="13" x=".5" y="-.5" stroke="currentColor" rx=".5" transform="matrix(1 0 0 -1 5 27)"/></svg>
