<svg viewBox="0 0 16 16" fill="none" xmlns="http://www.w3.org/2000/svg" width="1em" height="1em"><path d="M11.5 3.84615C11.5 3.10269 10.8973 2.5 10.1538 2.5C9.24045 2.5 8.5 3.24045 8.5 4.15385V5.5H9.84615C10.7595 5.5 11.5 4.75955 11.5 3.84615Z" stroke="currentColor"/><path d="M4.5 3.84615C4.5 3.10269 5.10269 2.5 5.84615 2.5C6.75955 2.5 7.5 3.24045 7.5 4.15385V5.5H6.15385C5.24045 5.5 4.5 4.75955 4.5 3.84615Z" stroke="currentColor"/><rect x="1.5" y="5.5" width="13" height="2" rx="0.5" stroke="currentColor"/><rect x="0.5" y="-0.5" width="11" height="6" rx="0.5" transform="matrix(1 0 0 -1 2 13)" stroke="currentColor"/><path d="M8 5L8 14" stroke="currentColor"/></svg>
