<svg viewBox="0 0 14 11" fill="none" xmlns="http://www.w3.org/2000/svg" width="1em" height="1em"><path d="M0.5 5C0.5 4.72386 0.723858 4.5 1 4.5H9C9.27614 4.5 9.5 4.72386 9.5 5V10C9.5 10.2761 9.27614 10.5 9 10.5H1C0.723858 10.5 0.5 10.2761 0.5 10V5Z" stroke="currentColor"/><path d="M4 2C4 2.27614 4.22386 2.5 4.5 2.5C4.77614 2.5 5 2.27614 5 2H4ZM12 6C11.7239 6 11.5 6.22386 11.5 6.5C11.5 6.77614 11.7239 7 12 7V6ZM5.5 1H12.5V0H5.5V1ZM13 1.5V5.5H14V1.5H13ZM5 2V1.5H4V2H5ZM12.5 6H12V7H12.5V6ZM13 5.5C13 5.77614 12.7761 6 12.5 6V7C13.3284 7 14 6.32843 14 5.5H13ZM12.5 1C12.7761 1 13 1.22386 13 1.5H14C14 0.671573 13.3284 0 12.5 0V1ZM5.5 0C4.67157 0 4 0.671573 4 1.5H5C5 1.22386 5.22386 1 5.5 1V0Z" fill="currentColor"/><path d="M0.545044 4.6211L4.17875 8.05565C4.58012 8.43502 5.22207 8.42598 5.6126 8.03546L9.14813 4.49992" stroke="currentColor"/></svg>
