<svg viewBox="0 0 16 16" fill="none" xmlns="http://www.w3.org/2000/svg" width="1em" height="1em"><path d="M1.5 8C1.5 7.72386 1.72386 7.5 2 7.5H10C10.2761 7.5 10.5 7.72386 10.5 8V13C10.5 13.2761 10.2761 13.5 10 13.5H2C1.72386 13.5 1.5 13.2761 1.5 13V8Z" stroke="currentColor"/><path d="M5 5C5 5.27614 5.22386 5.5 5.5 5.5C5.77614 5.5 6 5.27614 6 5H5ZM13 9C12.7239 9 12.5 9.22386 12.5 9.5C12.5 9.77614 12.7239 10 13 10V9ZM6.5 4H13.5V3H6.5V4ZM14 4.5V8.5H15V4.5H14ZM6 5V4.5H5V5H6ZM13.5 9H13V10H13.5V9ZM14 8.5C14 8.77614 13.7761 9 13.5 9V10C14.3284 10 15 9.32843 15 8.5H14ZM13.5 4C13.7761 4 14 4.22386 14 4.5H15C15 3.67157 14.3284 3 13.5 3V4ZM6.5 3C5.67157 3 5 3.67157 5 4.5H6C6 4.22386 6.22386 4 6.5 4V3Z" fill="currentColor"/><path d="M1.54504 7.6211L5.17875 11.0557C5.58012 11.435 6.22207 11.426 6.6126 11.0355L10.1481 7.49992" stroke="currentColor"/></svg>
