<svg viewBox="0 0 24 24" fill="none" xmlns="http://www.w3.org/2000/svg" stroke="currentColor"><path d="M3.0001 9.71754L8.19294 15.129C8.95772 15.926 10.2109 15.9389 10.9919 15.1579L16.2952 9.8546"/><path d="M2.5 11C2.5 10.1716 3.17157 9.5 4 9.5H15C15.8284 9.5 16.5 10.1716 16.5 11V18C16.5 18.8284 15.8284 19.5 15 19.5H4C3.17157 19.5 2.5 18.8284 2.5 18V11Z"/><path d="M7.5 6V6C7.5 5.17157 8.17157 4.5 9 4.5H19.5C20.6046 4.5 21.5 5.39543 21.5 6.5V12.5C21.5 13.6046 20.6046 14.5 19.5 14.5H19" stroke-linecap="round"/></svg>
