<svg xmlns="http://www.w3.org/2000/svg" fill="none" viewBox="0 0 24 24" width="1em" height="1em"><path stroke="currentColor" stroke-linejoin="round" d="M4.75 16.583c2.485 4.304 7.78 5.9 11.828 3.563a14 14 0 0 0 1.955-1.394c.181-.157.037-.43-.202-.402-3.394.4-7.307-1.055-9.184-4.306-1.877-3.25-1.18-7.368.863-10.107.144-.192-.02-.454-.247-.375-.748.258-1.617.668-2.185.996-4.047 2.336-5.313 7.72-2.828 12.025Z"/><path stroke="currentColor" stroke-linecap="round" d="M15.5 13v.5m1.5-2h.5m-4 0h.5m1.5-2v.5m4 3.5v1m0 0v1m0-1h-1m1 0h1m-1-8v1m0 0v1m0-1h-1m1 0h1"/></svg>
