<svg viewBox="0 0 32 32" fill="none" xmlns="http://www.w3.org/2000/svg" stroke="currentColor"><path d="M4.49998 23C8.25728 29.5078 16.4508 31.4304 22.5693 27.8979C23.5226 27.3474 24.8859 26.3896 25.8105 25.5346C25.9867 25.3716 25.8378 25.098 25.6004 25.1338C20.3566 25.9253 13.9085 24.0377 11 19C8.09136 13.9621 9.5752 7.25071 12.8732 3.08858C13.0223 2.90041 12.8594 2.6344 12.6301 2.70556C11.4274 3.07878 9.91622 3.78048 8.96287 4.3309C2.84439 7.8634 0.742677 16.4922 4.49998 23Z" stroke-linejoin="round"/><path d="M19.5 16.2143V18.5M21.2143 14.5H23.5M15.5 14.5H17.7857M19.5 10.5V12.7857" stroke-linecap="round"/><path d="M25.5 18.7222V20.5M25.5 20.5L25.5 22.5M25.5 20.5H23.5M25.5 20.5H27.5M25.5 5.5V7.5M25.5 7.5L25.5 9.27778M25.5 7.5H23.5M25.5 7.5H27.5" stroke-linecap="round"/></svg>
