<svg viewBox="0 0 24 24" fill="none" xmlns="http://www.w3.org/2000/svg" stroke="currentColor"><path d="M4.75003 16.5825C7.23531 20.8872 12.5308 22.4826 16.5779 20.146C17.1463 19.8178 17.935 19.2707 18.533 18.7518C18.7143 18.5945 18.5697 18.3218 18.3313 18.3499C14.9374 18.7506 11.0238 17.2952 9.14677 14.0441C7.26974 10.793 7.96613 6.67596 10.0101 3.93713C10.1537 3.74472 9.9898 3.48319 9.76286 3.56154C9.01453 3.81991 8.14634 4.22938 7.57794 4.55755C3.53085 6.89414 2.26475 12.2779 4.75003 16.5825Z" stroke-linejoin="round"/><path d="M15.5 13V13.5M17 11.5H17.5M13.5 11.5H14M15.5 9.5V10" stroke-linecap="round"/><path d="M19.5 13.5V14.5M19.5 14.5V15.5M19.5 14.5H18.5M19.5 14.5H20.5M19.5 6.5V7.5M19.5 7.5V8.5M19.5 7.5H18.5M19.5 7.5H20.5" stroke-linecap="round"/></svg>
