<svg xmlns="http://www.w3.org/2000/svg" fill="none" viewBox="0 0 32 32" width="1em" height="1em"><path stroke="currentColor" stroke-linejoin="round" d="M4.5 23c3.757 6.508 11.95 8.43 18.07 4.898.953-.55 2.316-1.508 3.24-2.363.177-.163.028-.437-.21-.401-5.243.791-11.692-1.096-14.6-6.134-2.909-5.038-1.425-11.75 1.873-15.911.15-.189-.014-.455-.243-.383-1.203.373-2.714 1.074-3.667 1.625C2.844 7.863.743 16.492 4.5 23Z"/><path stroke="currentColor" stroke-linecap="round" d="M19.5 16.214V18.5m1.714-4H23.5m-8 0h2.286m1.714-4v2.286m6 5.936V20.5m0 0v2m0-2h-2m2 0h2m-2-15v2m0 0v1.778m0-1.778h-2m2 0h2"/></svg>
