<svg viewBox="0 0 16 16" fill="none" xmlns="http://www.w3.org/2000/svg" stroke="currentColor"><path d="M3.13522 10.7163C4.57868 13.2165 8.33855 14.8311 11.1352 13.2165C11.474 13.0209 11.926 12.7127 12.309 12.4016C12.4954 12.2503 12.3557 11.9765 12.1162 11.993C9.80877 12.1515 7.15375 10.9981 6.00006 8.99987C5.02209 7.30599 5.20998 4.18203 6.47339 2.21197C6.60299 2.00987 6.4328 1.74956 6.20853 1.83526C5.7476 2.0114 5.25472 2.24879 4.91594 2.44438C2.11927 4.05904 1.63522 8.11827 3.13522 10.7163Z" stroke-linejoin="round"/><path d="M10.5 7.5V8.5M11.5 6.5H12.5M8.5 6.5H9.5M10.5 4.5V5.5" stroke-linecap="round"/></svg>
