<svg viewBox="0 0 32 32" fill="none" xmlns="http://www.w3.org/2000/svg" stroke="currentColor"><path d="M21.5 12.2344C21.5 12.5105 21.7239 12.7344 22 12.7344C22.2761 12.7344 22.5 12.5105 22.5 12.2344H21.5ZM11 19.3333C11 19.0572 10.7761 18.8333 10.5 18.8333C10.2239 18.8333 10 19.0572 10 19.3333H11ZM16.5 6C16.5 5.72386 16.2761 5.5 16 5.5C15.7239 5.5 15.5 5.72386 15.5 6L16.5 6ZM15.5 26C15.5 26.2761 15.7239 26.5 16 26.5C16.2761 26.5 16.5 26.2761 16.5 26H15.5ZM18.625 8H14V9H18.625V8ZM14 16H18V15H14V16ZM18 23H13.9479V24H18V23ZM21.5 11.875V12.2344H22.5V11.875H21.5ZM11 20.0521V19.3333H10V20.0521H11ZM13.9479 23C12.3198 23 11 21.6802 11 20.0521H10C10 22.2325 11.7675 24 13.9479 24V23ZM21.5 19.5C21.5 21.433 19.933 23 18 23V24C20.4853 24 22.5 21.9853 22.5 19.5H21.5ZM18 16C19.933 16 21.5 17.567 21.5 19.5H22.5C22.5 17.0147 20.4853 15 18 15V16ZM10 12C10 14.2091 11.7909 16 14 16V15C12.3431 15 11 13.6569 11 12H10ZM14 8C11.7909 8 10 9.79086 10 12H11C11 10.3431 12.3431 9 14 9V8ZM18.625 9C20.2128 9 21.5 10.2872 21.5 11.875H22.5C22.5 9.7349 20.7651 8 18.625 8V9ZM15.5 6L15.5 26H16.5L16.5 6L15.5 6Z" fill="#282829"/><circle cx="16" cy="16" r="13.5"/></svg>
