<svg viewBox="0 0 24 24" fill="none" xmlns="http://www.w3.org/2000/svg" width="1em" height="1em"><path d="M15.5 9.75C15.5 10.0261 15.7239 10.25 16 10.25C16.2761 10.25 16.5 10.0261 16.5 9.75H15.5ZM8.5 14.5C8.5 14.2239 8.27614 14 8 14C7.72386 14 7.5 14.2239 7.5 14.5H8.5ZM12.5 5.5C12.5 5.22386 12.2761 5 12 5C11.7239 5 11.5 5.22386 11.5 5.5H12.5ZM11.5 19C11.5 19.2761 11.7239 19.5 12 19.5C12.2761 19.5 12.5 19.2761 12.5 19H11.5ZM14 7H10.25V8H14V7ZM10.25 12.5H13.25V11.5H10.25V12.5ZM13.25 17H10.5V18H13.25V17ZM15.5 9.5V9.75H16.5V9.5H15.5ZM8.5 15V14.5H7.5V15H8.5ZM10.5 17C9.39543 17 8.5 16.1046 8.5 15H7.5C7.5 16.6569 8.84315 18 10.5 18V17ZM15.5 14.75C15.5 15.9926 14.4926 17 13.25 17V18C15.0449 18 16.5 16.5449 16.5 14.75H15.5ZM13.25 12.5C14.4926 12.5 15.5 13.5074 15.5 14.75H16.5C16.5 12.9551 15.0449 11.5 13.25 11.5V12.5ZM7.5 9.75C7.5 11.2688 8.73122 12.5 10.25 12.5V11.5C9.2835 11.5 8.5 10.7165 8.5 9.75H7.5ZM10.25 7C8.73122 7 7.5 8.23122 7.5 9.75H8.5C8.5 8.7835 9.2835 8 10.25 8V7ZM14 8C14.8284 8 15.5 8.67157 15.5 9.5H16.5C16.5 8.11929 15.3807 7 14 7V8ZM11.5 5.5V19H12.5V5.5H11.5Z" fill="currentColor"/><circle cx="12" cy="12" r="9.5" stroke="currentColor"/></svg>
