<svg viewBox="0 0 16 16" fill="none" xmlns="http://www.w3.org/2000/svg" stroke="currentColor"><path d="M10 6.76C10 7.03614 10.2239 7.26 10.5 7.26C10.7761 7.26 11 7.03614 11 6.76H10ZM6 9.08C6 8.80386 5.77614 8.58 5.5 8.58C5.22386 8.58 5 8.80386 5 9.08H6ZM8.5 4C8.5 3.72386 8.27614 3.5 8 3.5C7.72386 3.5 7.5 3.72386 7.5 4H8.5ZM7.5 5C7.5 5.27614 7.72386 5.5 8 5.5C8.27614 5.5 8.5 5.27614 8.5 5H7.5ZM8.5 11C8.5 10.7239 8.27614 10.5 8 10.5C7.72386 10.5 7.5 10.7239 7.5 11H8.5ZM7.5 12C7.5 12.2761 7.72386 12.5 8 12.5C8.27614 12.5 8.5 12.2761 8.5 12H7.5ZM8.9 4.5H7.00005V5.5H8.9V4.5ZM7.00005 8.5001H9.00005V7.5001H7.00005V8.5001ZM9.00005 10.5H7.1V11.5H9.00005V10.5ZM10 6.6V6.76H11V6.6H10ZM6 9.4V9.08H5V9.4H6ZM7.1 10.5C6.49249 10.5 6 10.0075 6 9.4H5C5 10.5598 5.9402 11.5 7.1 11.5V10.5ZM10 9.50005C10 10.0523 9.55231 10.5 9.00005 10.5V11.5C10.1046 11.5 11 10.6046 11 9.50005H10ZM9.00005 8.5001C9.55231 8.5001 10 8.94779 10 9.50005H11C11 8.39551 10.1046 7.5001 9.00005 7.5001V8.5001ZM5 6.50005C5 7.60465 5.89545 8.5001 7.00005 8.5001V7.5001C6.44774 7.5001 6 7.05236 6 6.50005H5ZM7.00005 4.5C5.89545 4.5 5 5.39545 5 6.50005H6C6 5.94774 6.44774 5.5 7.00005 5.5V4.5ZM8.9 5.5C9.50751 5.5 10 5.99249 10 6.6H11C11 5.4402 10.0598 4.5 8.9 4.5V5.5ZM7.5 4V5H8.5V4H7.5ZM7.5 11V12H8.5V11H7.5Z" fill="#282829"/><circle cx="8" cy="8" r="6.5"/></svg>