<svg viewBox="0 0 14 8" fill="none" xmlns="http://www.w3.org/2000/svg" width="1em" height="1em"><path d="M12.5 7.00004L12.5 1.5C12.5 0.947715 12.0523 0.5 11.5 0.499999L2.5 0.499989C1.94772 0.499988 1.5 0.947704 1.5 1.49999L1.5 7.00002" stroke="currentColor"/><mask id="path-2-inside-1_2_59712" fill="currentColor"><path d="M0 7.19998C0 7.08953 0.0895345 7 0.19998 7L13.8 7.00011C13.9105 7.00011 14 7.08964 14 7.20009C14 7.64187 13.6419 8 13.2001 7.99999L0.799909 7.9999C0.358131 7.99989 0 7.64176 0 7.19998Z"/></mask><path d="M0.199972 8L13.8 8.00011L13.8 6.00011L0.199988 6L0.199972 8ZM13.2001 6.99999L0.799917 6.9999L0.799901 8.9999L13.2001 8.99999L13.2001 6.99999ZM0.799917 6.9999C0.91042 6.9999 1 7.08948 1 7.19998H-1C-1 8.19404 -0.194159 8.99989 0.799901 8.9999L0.799917 6.9999ZM13 7.20009C13 7.08958 13.0896 6.99999 13.2001 6.99999L13.2001 8.99999C14.1941 9 15 8.19415 15 7.20009L13 7.20009ZM13.8 8.00011C13.3582 8.00011 13 7.64192 13 7.20009L15 7.20009C15 6.53736 14.4628 6.00011 13.8 6.00011L13.8 8.00011ZM0.199988 6C-0.462745 6 -1 6.53725 -1 7.19998H1C1 7.64182 0.641814 8.00001 0.199972 8L0.199988 6Z" fill="currentColor" mask="url(#path-2-inside-1_2_59712)"/><path d="M5.5 1C5.5 0.723858 5.72386 0.5 6 0.5L8 0.5C8.27614 0.5 8.5 0.723858 8.5 1C8.5 1.27614 8.27614 1.5 8 1.5L6 1.5C5.72386 1.5 5.5 1.27614 5.5 1Z" stroke="currentColor"/></svg>
