<svg xmlns="http://www.w3.org/2000/svg" fill="none" viewBox="0 0 14 8" width="1em" height="1em"><path stroke="currentColor" d="M12.5 7V1.5a1 1 0 0 0-1-1h-9a1 1 0 0 0-1 1V7"/><mask id="iconsLaptopSize16Px__a" fill="#fff"><path d="M0 7.2c0-.11.09-.2.2-.2h13.6c.11 0 .2.09.2.2a.8.8 0 0 1-.8.8H.8a.8.8 0 0 1-.8-.8"/></mask><path fill="currentColor" d="M.2 8h13.6V6H.2zm13-1H.8v2h12.4zM.8 7c.11 0 .2.09.2.2h-2A1.8 1.8 0 0 0 .8 9zm12.2.2c0-.11.09-.2.2-.2v2A1.8 1.8 0 0 0 15 7.2zm.8.8a.8.8 0 0 1-.8-.8h2A1.2 1.2 0 0 0 13.8 6zM.2 6A1.2 1.2 0 0 0-1 7.2h2a.8.8 0 0 1-.8.8z" mask="url(#iconsLaptopSize16Px__a)"/><path stroke="currentColor" d="M5.5 1A.5.5 0 0 1 6 .5h2a.5.5 0 0 1 0 1H6a.5.5 0 0 1-.5-.5Z"/></svg>
