<svg viewBox="0 0 20 14" fill="none" xmlns="http://www.w3.org/2000/svg" width="1em" height="1em"><path d="M18.5 11.5V2.00002C18.5 1.17159 17.8284 0.500016 17 0.500016L3 0.500002C2.17157 0.500001 1.5 1.17157 1.5 2L1.5 11.5" stroke="currentColor"/><path d="M0.5 11.5L19.5 11.5V12C19.5 12.8284 18.8284 13.5 18 13.5L2 13.5C1.17157 13.5 0.5 12.8284 0.5 12L0.5 11.5Z" stroke="currentColor"/><path d="M7.5 1C7.5 0.723858 7.72386 0.5 8 0.5L12 0.5C12.2761 0.5 12.5 0.723858 12.5 1V2C12.5 2.27614 12.2761 2.5 12 2.5L8 2.5C7.72386 2.5 7.5 2.27614 7.5 2V1Z" stroke="currentColor"/></svg>
