<svg xmlns="http://www.w3.org/2000/svg" fill="none" viewBox="0 0 24 24" width="1em" height="1em"><mask id="iconsOneToOnePersonalizationSize24Px__a" fill="#fff"><path fill-rule="evenodd" d="M10 13.958c0 .357-.197.68-.477.9a4 4 0 1 0 4.954 0c-.28-.22-.477-.543-.477-.9V5a2 2 0 1 0-4 0z" clip-rule="evenodd"/></mask><path fill="currentColor" d="m14.477 14.859-.62.785zm-4.954 0-.62-.785zM9 18c0-.955.445-1.805 1.143-2.356l-1.24-1.57A5 5 0 0 0 7 18zm3 3a3 3 0 0 1-3-3H7a5 5 0 0 0 5 5zm3-3a3 3 0 0 1-3 3v2a5 5 0 0 0 5-5zm-1.143-2.356A3 3 0 0 1 15 18h2a5 5 0 0 0-1.903-3.926zM15 13.958V5h-2v8.958zM15 5a3 3 0 0 0-3-3v2a1 1 0 0 1 1 1zm-3-3a3 3 0 0 0-3 3h2a1 1 0 0 1 1-1zM9 5v8.958h2V5zm6.097 9.074a.3.3 0 0 1-.088-.097c-.012-.022-.009-.027-.009-.019h-2c0 .736.4 1.325.857 1.686zm-4.954 1.57c.456-.36.857-.95.857-1.686H9c0-.008.003-.003-.01.02a.3.3 0 0 1-.087.096z" mask="url(#iconsOneToOnePersonalizationSize24Px__a)"/><circle cx="12" cy="18" r="1.5" stroke="currentColor"/><path stroke="currentColor" stroke-linecap="round" d="M12 16.5V13"/><path fill="currentColor" fill-rule="evenodd" d="M17 5.5a.5.5 0 0 1 .5-.5h3a.5.5 0 0 1 0 1h-3a.5.5 0 0 1-.5-.5m0 2a.5.5 0 0 1 .5-.5h3a.5.5 0 0 1 0 1h-3a.5.5 0 0 1-.5-.5m.5 1.5a.5.5 0 0 0 0 1h3a.5.5 0 0 0 0-1zm-.5 2.5a.5.5 0 0 1 .5-.5h3a.5.5 0 0 1 0 1h-3a.5.5 0 0 1-.5-.5m.5 1.5a.5.5 0 0 0 0 1h3a.5.5 0 0 0 0-1z" clip-rule="evenodd"/><path fill="currentColor" d="M4.168 7.592q0-.475.112-.924.12-.449.357-.798.239-.35.609-.56t.875-.21a1.71 1.71 0 0 1 1.477.77q.238.35.35.798.12.449.119.924 0 .475-.119.924a2.5 2.5 0 0 1-.35.798q-.239.35-.609.56-.364.21-.868.21-.51 0-.882-.21a1.8 1.8 0 0 1-.602-.56 2.6 2.6 0 0 1-.357-.798 3.8 3.8 0 0 1-.112-.924m.924-.014q0 .364.063.679.063.308.189.539.126.225.322.35.195.126.455.126a.8.8 0 0 0 .455-.126q.196-.125.322-.35.126-.231.182-.539.063-.315.063-.679 0-.371-.063-.679a1.7 1.7 0 0 0-.182-.539 1 1 0 0 0-.322-.35.8.8 0 0 0-.455-.126.8.8 0 0 0-.455.126 1 1 0 0 0-.322.35q-.126.224-.189.539a3.4 3.4 0 0 0-.063.679"/><path stroke="currentColor" stroke-width=".5" d="M8.75 5.5a.25.25 0 1 0-.5 0 .25.25 0 0 0 .5 0Z"/></svg>
