<svg xmlns="http://www.w3.org/2000/svg" fill="none" viewBox="0 0 32 32" width="1em" height="1em"><mask id="iconsOneToOnePersonalizationSize32Px__a" fill="#fff"><path fill-rule="evenodd" d="M13 18.226c0 .357-.194.681-.485.889a6 6 0 1 0 6.97 0c-.29-.208-.485-.532-.485-.89V5a3 3 0 1 0-6 0z" clip-rule="evenodd"/></mask><path fill="currentColor" d="m19.485 19.115.581-.814zm-6.97 0-.581-.814zM11 24a4.99 4.99 0 0 1 2.097-4.071L11.934 18.3A7 7 0 0 0 9 24zm5 5a5 5 0 0 1-5-5H9a7 7 0 0 0 7 7zm5-5a5 5 0 0 1-5 5v2a7 7 0 0 0 7-7zm-2.097-4.071A4.99 4.99 0 0 1 21 24h2c0-2.35-1.16-4.43-2.934-5.699zM20 18.226V5h-2v13.226zM20 5a4 4 0 0 0-4-4v2a2 2 0 0 1 2 2zm-4-4a4 4 0 0 0-4 4h2a2 2 0 0 1 2-2zm-4 4v13.226h2V5zm8.066 13.301a.2.2 0 0 1-.06-.063c-.008-.014-.006-.018-.006-.012h-2c0 .73.394 1.339.903 1.703zm-6.97 1.628c.51-.364.904-.973.904-1.703h-2c0-.006.002-.002-.006.012a.2.2 0 0 1-.06.063z" mask="url(#iconsOneToOnePersonalizationSize32Px__a)"/><circle cx="16" cy="24" r="2.5" stroke="currentColor"/><path stroke="currentColor" stroke-linecap="round" d="M16 15.5v6"/><path fill="currentColor" fill-rule="evenodd" d="M22 6.5a.5.5 0 0 1 .5-.5h5a.5.5 0 0 1 0 1h-5a.5.5 0 0 1-.5-.5m0 3a.5.5 0 0 1 .5-.5h5a.5.5 0 0 1 0 1h-5a.5.5 0 0 1-.5-.5m.5 2.5a.5.5 0 0 0 0 1h5a.5.5 0 0 0 0-1zm-.5 3.5a.5.5 0 0 1 .5-.5h5a.5.5 0 0 1 0 1h-5a.5.5 0 0 1-.5-.5m.5 2.5a.5.5 0 0 0 0 1h5a.5.5 0 0 0 0-1z" clip-rule="evenodd"/><path fill="currentColor" d="M10.684 11.872c0-2.16-.936-4.272-3.168-4.272-2.22 0-3.168 2.112-3.168 4.272 0 2.148.936 4.26 3.168 4.26s3.168-2.112 3.168-4.26m-1.176-.024c0 1.884-.66 3.264-1.992 3.264s-1.992-1.38-1.992-3.264c0-1.896.66-3.264 1.992-3.264s1.992 1.368 1.992 3.264"/><path stroke="currentColor" d="M11.5 7a.5.5 0 1 0-1 0 .5.5 0 0 0 1 0Z"/></svg>
