<svg xmlns="http://www.w3.org/2000/svg" fill="none" viewBox="0 0 24 24" width="1em" height="1em"><mask id="iconsOneToOnePersonalizationSize24Px__a" fill="#fff"><path fill-rule="evenodd" d="M10 13.958c0 .357-.197.68-.477.9a4 4 0 1 0 4.954 0c-.28-.22-.477-.543-.477-.9V5a2 2 0 1 0-4 0v8.958Z" clip-rule="evenodd"/></mask><path fill="currentColor" d="m14.477 14.859-.62.785.62-.785Zm-4.954 0-.62-.785.62.785ZM9 18c0-.955.445-1.805 1.143-2.356l-1.24-1.57A4.993 4.993 0 0 0 7 18h2Zm3 3a3 3 0 0 1-3-3H7a5 5 0 0 0 5 5v-2Zm3-3a3 3 0 0 1-3 3v2a5 5 0 0 0 5-5h-2Zm-1.143-2.356A2.993 2.993 0 0 1 15 18h2a4.993 4.993 0 0 0-1.903-3.926l-1.24 1.57ZM15 13.958V5h-2v8.958h2ZM15 5a3 3 0 0 0-3-3v2a1 1 0 0 1 1 1h2Zm-3-3a3 3 0 0 0-3 3h2a1 1 0 0 1 1-1V2ZM9 5v8.958h2V5H9Zm6.097 9.074a.34.34 0 0 1-.088-.097c-.012-.022-.009-.027-.009-.019h-2c0 .736.4 1.325.857 1.686l1.24-1.57Zm-4.954 1.57c.456-.36.857-.95.857-1.686H9c0-.008.003-.003-.01.02a.34.34 0 0 1-.087.096l1.24 1.57Z" mask="url(#iconsOneToOnePersonalizationSize24Px__a)"/><circle cx="12" cy="18" r="1.5" stroke="currentColor"/><path stroke="currentColor" stroke-linecap="round" d="M12 16.5V13"/><path fill="currentColor" fill-rule="evenodd" d="M17 5.5a.5.5 0 0 1 .5-.5h3a.5.5 0 0 1 0 1h-3a.5.5 0 0 1-.5-.5Zm0 2a.5.5 0 0 1 .5-.5h3a.5.5 0 0 1 0 1h-3a.5.5 0 0 1-.5-.5Zm.5 1.5a.5.5 0 0 0 0 1h3a.5.5 0 0 0 0-1h-3Zm-.5 2.5a.5.5 0 0 1 .5-.5h3a.5.5 0 0 1 0 1h-3a.5.5 0 0 1-.5-.5Zm.5 1.5a.5.5 0 0 0 0 1h3a.5.5 0 0 0 0-1h-3Z" clip-rule="evenodd"/><path fill="currentColor" d="M4.168 7.592c0-.317.037-.625.112-.924.08-.299.198-.565.357-.798.159-.233.362-.42.609-.56.247-.14.539-.21.875-.21a1.708 1.708 0 0 1 1.477.77c.159.233.275.5.35.798.08.299.119.607.119.924 0 .317-.04.625-.119.924a2.471 2.471 0 0 1-.35.798 1.708 1.708 0 0 1-1.477.77c-.34 0-.635-.07-.882-.21a1.818 1.818 0 0 1-.602-.56 2.588 2.588 0 0 1-.357-.798 3.795 3.795 0 0 1-.112-.924Zm.924-.014c0 .243.021.469.063.679.042.205.105.385.189.539.084.15.191.266.322.35a.82.82 0 0 0 .455.126.801.801 0 0 0 .455-.126c.13-.084.238-.2.322-.35.084-.154.145-.334.182-.539a3.46 3.46 0 0 0 .063-.679c0-.247-.021-.474-.063-.679a1.702 1.702 0 0 0-.182-.539.974.974 0 0 0-.322-.35.801.801 0 0 0-.455-.126.823.823 0 0 0-.455.126.974.974 0 0 0-.322.35c-.084.15-.147.329-.189.539a3.394 3.394 0 0 0-.063.679Z"/><path stroke="currentColor" stroke-width=".5" d="M8.75 5.5a.25.25 0 1 0-.5 0 .25.25 0 0 0 .5 0Z"/></svg>
