<svg viewBox="0 0 18 18" fill="none" xmlns="http://www.w3.org/2000/svg" width="1em" height="1em"><path d="M5.5 9.5H3.85047C3 9.5 2.5 10 2.5 11" stroke="currentColor" stroke-linecap="round" stroke-linejoin="round"/><path d="M12.5 9.5H14.1495C15 9.5 15.5 10 15.5 11" stroke="currentColor" stroke-linecap="round" stroke-linejoin="round"/><circle cx="5" cy="7" r="0.5" stroke="currentColor"/><circle cx="13" cy="7" r="0.5" stroke="currentColor"/><path d="M5 14.5V13.7222C5 12.4949 5.99492 11.5 7.22222 11.5H10.7778C12.0051 11.5 13 12.4949 13 13.7222V14.5" stroke="currentColor" stroke-linecap="round" stroke-linejoin="round"/><path d="M10.5 8C10.5 8.82843 9.82843 9.5 9 9.5C8.17157 9.5 7.5 8.82843 7.5 8C7.5 7.17157 8.17157 6.5 9 6.5C9.82843 6.5 10.5 7.17157 10.5 8Z" stroke="currentColor" stroke-linecap="round" stroke-linejoin="round"/></svg>
