<svg viewBox="0 0 24 24" fill="none" xmlns="http://www.w3.org/2000/svg" width="1em" height="1em"><path d="M6.5 11.5H4.56592C3.4663 11.5 2.5 12.4663 2.5 13.5659" stroke="currentColor" stroke-linecap="round" stroke-linejoin="round"/><path d="M17.5 11.5H19.4341C20.5337 11.5 21.5 12.4663 21.5 13.5659" stroke="currentColor" stroke-linecap="round" stroke-linejoin="round"/><path d="M5 9.5C5.82843 9.5 6.5 8.82843 6.5 8C6.5 7.17157 5.82843 6.5 5 6.5C4.17157 6.5 3.5 7.17157 3.5 8C3.5 8.82843 4.17157 9.5 5 9.5Z" stroke="currentColor" stroke-linecap="round" stroke-linejoin="round"/><path d="M19 9.5C19.8284 9.5 20.5 8.82843 20.5 8C20.5 7.17157 19.8284 6.5 19 6.5C18.1716 6.5 17.5 7.17157 17.5 8C17.5 8.82843 18.1716 9.5 19 9.5Z" stroke="currentColor" stroke-linecap="round" stroke-linejoin="round"/><path d="M17.5 17.5C17.5 15.877 16.123 14.5 14.5 14.5H9.5C7.87702 14.5 6.5 15.877 6.5 17.5" stroke="currentColor" stroke-linecap="round" stroke-linejoin="round"/><path d="M12 11.5C13.6569 11.5 15 10.1569 15 8.5C15 6.84315 13.6569 5.5 12 5.5C10.3432 5.5 9.00002 6.84315 9.00002 8.5C9.00002 10.1569 10.3432 11.5 12 11.5Z" stroke="currentColor" stroke-linecap="round" stroke-linejoin="round"/></svg>
