<svg xmlns="http://www.w3.org/2000/svg" fill="none" viewBox="0 0 32 32" width="1em" height="1em"><path stroke="currentColor" d="M17.096 28.92c1.064-1.375 3.153-4.178 4.979-7.27.913-1.545 1.765-3.171 2.39-4.733.623-1.555 1.035-3.081 1.035-4.417 0-3.11-1.002-5.619-2.716-7.352C21.07 3.416 18.686 2.5 16 2.5s-5.07.916-6.784 2.648S6.5 9.39 6.5 12.5c0 1.336.412 2.862 1.035 4.417.625 1.562 1.478 3.188 2.39 4.734 1.826 3.09 3.915 5.895 4.979 7.268.56.724 1.632.724 2.192 0Z"/><circle cx="16" cy="12" r="4.5" stroke="currentColor"/></svg>
