<svg xmlns="http://www.w3.org/2000/svg" fill="none" viewBox="0 0 32 32" width="1em" height="1em"><path stroke="currentColor" stroke-linecap="round" d="m29.5 20.5-12.8 4.74a2 2 0 0 1-1.4-.004L2.566 20.435"/><path stroke="currentColor" stroke-linecap="round" d="m29.5 16.5-12.8 4.74a2 2 0 0 1-1.4-.004L2.566 16.435"/><path stroke="currentColor" stroke-linecap="round" d="M15.459 6.746a1.5 1.5 0 0 1 1.082 0l12.37 4.788a.5.5 0 0 1 0 .932l-12.37 4.788a1.5 1.5 0 0 1-1.082 0l-12.37-4.788-.18.467.18-.467a.5.5 0 0 1 0-.932z"/></svg>
