<svg viewBox="0 0 32 32" fill="none" xmlns="http://www.w3.org/2000/svg" width="1em" height="1em"><path d="M29.5 20.5L16.7009 25.2404C16.2489 25.4078 15.7517 25.4063 15.3007 25.2363L2.56499 20.435" stroke="currentColor" stroke-linecap="round"/><path d="M29.5 16.5L16.7009 21.2404C16.2489 21.4078 15.7517 21.4064 15.3007 21.2364L2.56499 16.435" stroke="currentColor" stroke-linecap="round"/><path d="M15.4585 6.74576C15.8069 6.6109 16.1931 6.6109 16.5415 6.74576L28.9104 11.5337C29.3364 11.6986 29.3364 12.3014 28.9104 12.4663L16.5415 17.2542C16.1931 17.3891 15.8069 17.3891 15.4585 17.2542L3.08963 12.4663L2.90913 12.9326L3.08963 12.4663C2.66363 12.3014 2.66363 11.6986 3.08963 11.5337L15.4585 6.74576Z" stroke="currentColor" stroke-linecap="round"/></svg>
