<svg viewBox="0 0 16 16" fill="none" xmlns="http://www.w3.org/2000/svg" width="1em" height="1em"><path d="M7.66718 3.64769C7.88255 3.57168 8.11745 3.57168 8.33282 3.64769L14.3297 5.76425C14.5521 5.84274 14.5521 6.15726 14.3297 6.23575L8.33282 8.35231C8.11745 8.42832 7.88255 8.42832 7.66718 8.35231L1.67026 6.23575C1.44787 6.15726 1.44787 5.84274 1.67026 5.76425L7.66718 3.64769Z" stroke="currentColor" stroke-linecap="round"/><path d="M14.5 8.5L8.53847 10.7929C8.19187 10.9262 7.80813 10.9262 7.46153 10.7929L1.5 8.5" stroke="currentColor" stroke-linecap="round"/><path d="M14.5 11L8.53847 13.2929C8.19187 13.4262 7.80813 13.4262 7.46153 13.2929L1.5 11" stroke="currentColor" stroke-linecap="round"/></svg>
