<svg xmlns="http://www.w3.org/2000/svg" fill="none" viewBox="0 0 24 24" width="1em" height="1em"><path fill="currentColor" d="M20 7a.5.5 0 0 0 0-1zm-2.914-3.914.353-.354zM18.5 21.625h-13v1h13zM4 20.125V4.5H3v15.625zM5.5 3h10.172V2H5.5zM20 7.328v12.797h1V7.328zM16 3v1.5h1V3zm2.5 4H20V6h-1.5zm-1.768-3.56 2.829 2.828.707-.707-2.829-2.829zM16 4.5A2.5 2.5 0 0 0 18.5 7V6A1.5 1.5 0 0 1 17 4.5zm5 2.828a2.5 2.5 0 0 0-.732-1.767l-.707.707A1.5 1.5 0 0 1 20 7.328zM15.672 3a1.5 1.5 0 0 1 1.06.44l.707-.708A2.5 2.5 0 0 0 15.672 2zM5.5 21.625a1.5 1.5 0 0 1-1.5-1.5H3a2.5 2.5 0 0 0 2.5 2.5zm13 1a2.5 2.5 0 0 0 2.5-2.5h-1a1.5 1.5 0 0 1-1.5 1.5zM4 4.5A1.5 1.5 0 0 1 5.5 3V2A2.5 2.5 0 0 0 3 4.5z"/><path stroke="currentColor" stroke-linecap="round" d="M14 14.5h4m-4 2h4m-4 2h2.8"/><circle cx="9.5" cy="16.5" r="3" stroke="currentColor"/><path stroke="currentColor" stroke-linejoin="round" d="M9.5 13.875V16.5l2 2"/><path stroke="currentColor" stroke-linecap="round" stroke-linejoin="round" d="M6 10.429 9 7l3 3.5L14 8l2 2.5 1.5-2"/></svg>
