<svg viewBox="0 0 24 24" fill="none" xmlns="http://www.w3.org/2000/svg" width="1em" height="1em"><path d="M20 7C20.2761 7 20.5 6.77614 20.5 6.5C20.5 6.22386 20.2761 6 20 6V7ZM17.0858 3.08579L17.4393 2.73223L17.0858 3.08579ZM18.5 21.625H5.5V22.625H18.5V21.625ZM4 20.125V4.5H3V20.125H4ZM5.5 3H15.6716V2H5.5V3ZM20 7.32843V20.125H21V7.32843H20ZM16 3V4.5H17V3H16ZM18.5 7H20V6H18.5V7ZM16.7322 3.43934L19.5607 6.26777L20.2678 5.56066L17.4393 2.73223L16.7322 3.43934ZM16 4.5C16 5.88071 17.1193 7 18.5 7V6C17.6716 6 17 5.32843 17 4.5H16ZM21 7.32843C21 6.66539 20.7366 6.0295 20.2678 5.56066L19.5607 6.26777C19.842 6.54907 20 6.9306 20 7.32843H21ZM15.6716 3C16.0694 3 16.4509 3.15804 16.7322 3.43934L17.4393 2.73223C16.9705 2.26339 16.3346 2 15.6716 2V3ZM5.5 21.625C4.67157 21.625 4 20.9534 4 20.125H3C3 21.5057 4.11929 22.625 5.5 22.625V21.625ZM18.5 22.625C19.8807 22.625 21 21.5057 21 20.125H20C20 20.9534 19.3284 21.625 18.5 21.625V22.625ZM4 4.5C4 3.67157 4.67157 3 5.5 3V2C4.11929 2 3 3.11929 3 4.5H4Z" fill="currentColor"/><path d="M14 14.5H18M14 16.5H18M14 18.5H16.8" stroke="currentColor" stroke-linecap="round"/><circle cx="9.5" cy="16.5" r="3" stroke="currentColor"/><path d="M9.5 13.875V16.5L11.5 18.5" stroke="currentColor" stroke-linejoin="round"/><path d="M6 10.4286L9 7L12 10.5L14 8L16 10.5L17.5 8.5" stroke="currentColor" stroke-linecap="round" stroke-linejoin="round"/></svg>
