<svg viewBox="0 0 32 32" fill="none" xmlns="http://www.w3.org/2000/svg" width="1em" height="1em"><path d="M26 8C26.2761 8 26.5 7.77614 26.5 7.5C26.5 7.22386 26.2761 7 26 7V8ZM25.9142 6.91421L26.2678 6.56066L25.9142 6.91421ZM22.0858 3.08579L21.7322 3.43934L22.0858 3.08579ZM24.5 29H7.5V30H24.5V29ZM6 27.5V4.5H5V27.5H6ZM7.5 3H20.6716V2H7.5V3ZM26 8.32843V27.5H27V8.32843H26ZM21 2.98077V5.5H22V2.98077H21ZM23.5 8H26V7H23.5V8ZM21.7322 3.43934L25.5607 7.26777L26.2678 6.56066L22.4393 2.73223L21.7322 3.43934ZM21 5.5C21 6.88071 22.1193 8 23.5 8V7C22.6716 7 22 6.32843 22 5.5H21ZM27 8.32843C27 7.66539 26.7366 7.0295 26.2678 6.56066L25.5607 7.26777C25.842 7.54907 26 7.9306 26 8.32843H27ZM20.6716 3C21.0694 3 21.4509 3.15804 21.7322 3.43934L22.4393 2.73223C21.9705 2.26339 21.3346 2 20.6716 2V3ZM7.5 29C6.67157 29 6 28.3284 6 27.5H5C5 28.8807 6.11929 30 7.5 30V29ZM24.5 30C25.8807 30 27 28.8807 27 27.5H26C26 28.3284 25.3284 29 24.5 29V30ZM6 4.5C6 3.67157 6.67157 3 7.5 3V2C6.11929 2 5 3.11929 5 4.5H6Z" fill="currentColor"/><path d="M18.5 19.5H23.5M18.5 22.5H23.5M18.5 25.5H22" stroke="currentColor" stroke-linecap="round"/><circle cx="12.5" cy="22.5" r="4" stroke="currentColor"/><path d="M12.5 18.5V23M12.5 23L16 21M12.5 23L16 24" stroke="currentColor" stroke-linejoin="round"/><path d="M23.5 15.5H9.5C8.94772 15.5 8.5 15.0523 8.5 14.5V5.5" stroke="currentColor" stroke-linecap="round"/><path d="M8.5 13L12.5 8L16 13L19 9.5L21.5 13L23.5 10.5" stroke="currentColor" stroke-linecap="round" stroke-linejoin="round"/></svg>
