<svg viewBox="0 0 32 32" fill="none" xmlns="http://www.w3.org/2000/svg" width="1em" height="1em"><path d="M26 8C26.2761 8 26.5 7.77614 26.5 7.5C26.5 7.22386 26.2761 7 26 7V8ZM25.9142 6.91421L26.2678 6.56066L25.9142 6.91421ZM22.0858 3.08579L21.7322 3.43934L22.0858 3.08579ZM24.5 29H7.5V30H24.5V29ZM6 27.5V4.5H5V27.5H6ZM7.5 3H20.6716V2H7.5V3ZM26 8.32843V27.5H27V8.32843H26ZM21 2.98077V5.5H22V2.98077H21ZM23.5 8H26V7H23.5V8ZM21.7322 3.43934L25.5607 7.26777L26.2678 6.56066L22.4393 2.73223L21.7322 3.43934ZM21 5.5C21 6.88071 22.1193 8 23.5 8V7C22.6716 7 22 6.32843 22 5.5H21ZM27 8.32843C27 7.66539 26.7366 7.0295 26.2678 6.56066L25.5607 7.26777C25.842 7.54907 26 7.9306 26 8.32843H27ZM20.6716 3C21.0694 3 21.4509 3.15804 21.7322 3.43934L22.4393 2.73223C21.9705 2.26339 21.3346 2 20.6716 2V3ZM7.5 29C6.67157 29 6 28.3284 6 27.5H5C5 28.8807 6.11929 30 7.5 30V29ZM24.5 30C25.8807 30 27 28.8807 27 27.5H26C26 28.3284 25.3284 29 24.5 29V30ZM6 4.5C6 3.67157 6.67157 3 7.5 3V2C6.11929 2 5 3.11929 5 4.5H6Z" fill="currentColor"/><path d="M18.5 19C18.2239 19 18 19.2239 18 19.5C18 19.7761 18.2239 20 18.5 20V19ZM23.5 20C23.7761 20 24 19.7761 24 19.5C24 19.2239 23.7761 19 23.5 19V20ZM18.5 22C18.2239 22 18 22.2239 18 22.5C18 22.7761 18.2239 23 18.5 23V22ZM23.5 23C23.7761 23 24 22.7761 24 22.5C24 22.2239 23.7761 22 23.5 22V23ZM18.5 25C18.2239 25 18 25.2239 18 25.5C18 25.7761 18.2239 26 18.5 26V25ZM22 26C22.2761 26 22.5 25.7761 22.5 25.5C22.5 25.2239 22.2761 25 22 25V26ZM18.5 20H23.5V19H18.5V20ZM18.5 23H23.5V22H18.5V23ZM18.5 26H22V25H18.5V26Z" fill="currentColor"/><circle cx="12.5" cy="22.5" r="4" stroke="currentColor"/><path d="M12.5 23H12C12 23.2232 12.148 23.4194 12.3626 23.4808L12.5 23ZM12 18.5V23H13V18.5H12ZM12.7481 23.4341L16.2481 21.4341L15.7519 20.5659L12.2519 22.5659L12.7481 23.4341ZM12.3626 23.4808L15.8626 24.4808L16.1374 23.5192L12.6374 22.5192L12.3626 23.4808Z" fill="currentColor"/><path d="M23.5 15.5H9.5C8.94772 15.5 8.5 15.0523 8.5 14.5V5.5" stroke="currentColor" stroke-linecap="round"/><path d="M8.10957 12.6877C7.93706 12.9033 7.97202 13.2179 8.18765 13.3904C8.40328 13.5629 8.71793 13.528 8.89043 13.3123L8.10957 12.6877ZM12.5 8L12.9096 7.71327C12.8193 7.58423 12.6734 7.5053 12.516 7.50026C12.3586 7.49522 12.208 7.56465 12.1096 7.68765L12.5 8ZM16 13L15.5904 13.2867C15.679 13.4133 15.8212 13.4918 15.9755 13.4994C16.1299 13.507 16.2791 13.4427 16.3796 13.3254L16 13ZM19 9.5L19.4069 9.20938C19.3175 9.08431 19.1756 9.00728 19.0221 9.00049C18.8685 8.9937 18.7204 9.05791 18.6204 9.1746L19 9.5ZM21.5 13L21.0931 13.2906C21.1842 13.4181 21.3298 13.4955 21.4864 13.4998C21.643 13.5041 21.7926 13.4347 21.8904 13.3123L21.5 13ZM23.8904 10.8123C24.0629 10.5967 24.028 10.2821 23.8123 10.1096C23.5967 9.93706 23.2821 9.97202 23.1096 10.1877L23.8904 10.8123ZM8.89043 13.3123L12.8904 8.31235L12.1096 7.68765L8.10957 12.6877L8.89043 13.3123ZM12.0904 8.28673L15.5904 13.2867L16.4096 12.7133L12.9096 7.71327L12.0904 8.28673ZM16.3796 13.3254L19.3796 9.8254L18.6204 9.1746L15.6204 12.6746L16.3796 13.3254ZM18.5931 9.79062L21.0931 13.2906L21.9069 12.7094L19.4069 9.20938L18.5931 9.79062ZM21.8904 13.3123L23.8904 10.8123L23.1096 10.1877L21.1096 12.6877L21.8904 13.3123Z" fill="currentColor"/></svg>
