<svg viewBox="0 0 16 16" fill="none" xmlns="http://www.w3.org/2000/svg" width="1em" height="1em"><path d="M13.25 3.99985C13.5261 3.99986 13.75 3.77601 13.75 3.49987C13.75 3.22373 13.5262 2.99986 13.25 2.99985L13.25 3.99985ZM12.5 3.49982L12.4999 3.99982L12.5 3.49982ZM12.9142 2.91399L13.2678 2.56044L12.9142 2.91399ZM12.0858 2.08556L11.7322 2.43911L12.0858 2.08556ZM11.5 13.9998H4.5V14.9998H11.5V13.9998ZM3 12.4998V3.49977H2V12.4998H3ZM4.5 1.99977H10.6716V0.999775H4.5V1.99977ZM13 4.3282V12.4998H14V4.3282H13ZM11 1.49023V2.49982H12V1.49023H11ZM12.4999 3.99982L13.25 3.99985L13.25 2.99985L12.5 2.99982L12.4999 3.99982ZM11.7322 2.43911L12.5607 3.26754L13.2678 2.56044L12.4393 1.73201L11.7322 2.43911ZM11 2.49982C11 3.32822 11.6715 3.99978 12.4999 3.99982L12.5 2.99982C12.2238 2.99981 12 2.77595 12 2.49982H11ZM14 4.3282C14 3.66516 13.7366 3.02928 13.2678 2.56044L12.5607 3.26754C12.842 3.54885 13 3.93038 13 4.3282H14ZM10.6716 1.99977C11.0694 1.99977 11.4509 2.15781 11.7322 2.43911L12.4393 1.73201C11.9705 1.26317 11.3346 0.999775 10.6716 0.999775V1.99977ZM4.5 13.9998C3.67157 13.9998 3 13.3282 3 12.4998H2C2 13.8805 3.11929 14.9998 4.5 14.9998V13.9998ZM11.5 14.9998C12.8807 14.9998 14 13.8805 14 12.4998H13C13 13.3282 12.3284 13.9998 11.5 13.9998V14.9998ZM3 3.49977C3 2.67135 3.67157 1.99977 4.5 1.99977V0.999775C3.11929 0.999775 2 2.11906 2 3.49977H3Z" fill="currentColor"/><path d="M5.5 9C5.22386 9 5 9.22386 5 9.5C5 9.77614 5.22386 10 5.5 10V9ZM10.5 10C10.7761 10 11 9.77614 11 9.5C11 9.22386 10.7761 9 10.5 9V10ZM5.5 11C5.22386 11 5 11.2239 5 11.5C5 11.7761 5.22386 12 5.5 12V11ZM10.5 12C10.7761 12 11 11.7761 11 11.5C11 11.2239 10.7761 11 10.5 11V12ZM5.5 10H10.5V9H5.5V10ZM5.5 12H10.5V11H5.5V12Z" fill="currentColor"/><path d="M4.13424 6.2611C3.94596 6.4631 3.95709 6.77949 4.15909 6.96777C4.36109 7.15605 4.67748 7.14492 4.86576 6.94292L4.13424 6.2611ZM6.32609 4.64282L6.69533 4.30569C6.6012 4.20259 6.46826 4.14355 6.32866 4.14283C6.18906 4.14211 6.05551 4.19979 5.96033 4.30191L6.32609 4.64282ZM8.15217 6.64282L7.78293 6.97996C7.87967 7.08591 8.01727 7.1452 8.16073 7.14275C8.30418 7.14029 8.43967 7.07633 8.53273 6.96713L8.15217 6.64282ZM9.36957 5.21425L9.75013 4.88995C9.65513 4.77847 9.51603 4.71425 9.36957 4.71425C9.2231 4.71425 9.084 4.77847 8.989 4.88995L9.36957 5.21425ZM10.587 6.64282L10.2064 6.96713C10.3032 7.08071 10.4457 7.14512 10.5949 7.14276C10.7441 7.1404 10.8844 7.0715 10.9776 6.95491L10.587 6.64282ZM11.8906 5.81205C12.063 5.59631 12.0278 5.28169 11.8121 5.10932C11.5963 4.93696 11.2817 4.97213 11.1094 5.18788L11.8906 5.81205ZM4.86576 6.94292L6.69185 4.98373L5.96033 4.30191L4.13424 6.2611L4.86576 6.94292ZM5.95684 4.97996L7.78293 6.97996L8.52142 6.30569L6.69533 4.30569L5.95684 4.97996ZM8.53273 6.96713L9.75013 5.53856L8.989 4.88995L7.77161 6.31852L8.53273 6.96713ZM8.989 5.53856L10.2064 6.96713L10.9675 6.31852L9.75013 4.88995L8.989 5.53856ZM10.9776 6.95491L11.8906 5.81205L11.1094 5.18788L10.1963 6.33073L10.9776 6.95491Z" fill="currentColor"/></svg>
