<svg viewBox="0 0 24 24" fill="none" xmlns="http://www.w3.org/2000/svg" width="1em" height="1em"><path d="M20 7C20.2761 7 20.5 6.77614 20.5 6.5C20.5 6.22386 20.2761 6 20 6V7ZM17.0858 3.08579L17.4393 2.73223L17.0858 3.08579ZM18.5 21.625H5.5V22.625H18.5V21.625ZM4 20.125V4.5H3V20.125H4ZM5.5 3H15.6716V2H5.5V3ZM20 7.32843V20.125H21V7.32843H20ZM16 3V4.5H17V3H16ZM18.5 7H20V6H18.5V7ZM16.7322 3.43934L19.5607 6.26777L20.2678 5.56066L17.4393 2.73223L16.7322 3.43934ZM16 4.5C16 5.88071 17.1193 7 18.5 7V6C17.6716 6 17 5.32843 17 4.5H16ZM21 7.32843C21 6.66539 20.7366 6.0295 20.2678 5.56066L19.5607 6.26777C19.842 6.54907 20 6.9306 20 7.32843H21ZM15.6716 3C16.0694 3 16.4509 3.15804 16.7322 3.43934L17.4393 2.73223C16.9705 2.26339 16.3346 2 15.6716 2V3ZM5.5 21.625C4.67157 21.625 4 20.9534 4 20.125H3C3 21.5057 4.11929 22.625 5.5 22.625V21.625ZM18.5 22.625C19.8807 22.625 21 21.5057 21 20.125H20C20 20.9534 19.3284 21.625 18.5 21.625V22.625ZM4 4.5C4 3.67157 4.67157 3 5.5 3V2C4.11929 2 3 3.11929 3 4.5H4Z" fill="currentColor"/><path d="M14 14C13.7239 14 13.5 14.2239 13.5 14.5C13.5 14.7761 13.7239 15 14 15V14ZM18 15C18.2761 15 18.5 14.7761 18.5 14.5C18.5 14.2239 18.2761 14 18 14V15ZM14 16C13.7239 16 13.5 16.2239 13.5 16.5C13.5 16.7761 13.7239 17 14 17V16ZM18 17C18.2761 17 18.5 16.7761 18.5 16.5C18.5 16.2239 18.2761 16 18 16V17ZM14 18C13.7239 18 13.5 18.2239 13.5 18.5C13.5 18.7761 13.7239 19 14 19V18ZM16.8 19C17.0761 19 17.3 18.7761 17.3 18.5C17.3 18.2239 17.0761 18 16.8 18V19ZM14 15H18V14H14V15ZM14 17H18V16H14V17ZM14 19H16.8V18H14V19Z" fill="currentColor"/><circle cx="9.5" cy="16.5" r="3" stroke="currentColor"/><path d="M9.5 16.5H9C9 16.6326 9.05268 16.7598 9.14645 16.8536L9.5 16.5ZM9 13.875V16.5H10V13.875H9ZM9.14645 16.8536L11.1464 18.8536L11.8536 18.1464L9.85355 16.1464L9.14645 16.8536Z" fill="currentColor"/><path d="M5.62371 10.0993C5.44187 10.3071 5.46293 10.623 5.67075 10.8049C5.87857 10.9867 6.19445 10.9656 6.37629 10.7578L5.62371 10.0993ZM9 7L9.37963 6.6746C9.28522 6.56446 9.14762 6.50075 9.00255 6.50001C8.85748 6.49927 8.71924 6.56157 8.62371 6.67075L9 7ZM12 10.5L11.6204 10.8254C11.7173 10.9385 11.8596 11.0025 12.0085 10.9999C12.1574 10.9974 12.2974 10.9286 12.3904 10.8123L12 10.5ZM14 8L14.3904 7.68765C14.2955 7.56904 14.1519 7.5 14 7.5C13.8481 7.5 13.7045 7.56904 13.6096 7.68765L14 8ZM16 10.5L15.6096 10.8123C15.7062 10.9331 15.8532 11.0024 16.0078 10.9999C16.1624 10.9975 16.3072 10.9237 16.4 10.8L16 10.5ZM17.9 8.8C18.0657 8.57909 18.0209 8.26569 17.8 8.1C17.5791 7.93431 17.2657 7.97909 17.1 8.2L17.9 8.8ZM6.37629 10.7578L9.37629 7.32925L8.62371 6.67075L5.62371 10.0993L6.37629 10.7578ZM8.62037 7.3254L11.6204 10.8254L12.3796 10.1746L9.37963 6.6746L8.62037 7.3254ZM12.3904 10.8123L14.3904 8.31235L13.6096 7.68765L11.6096 10.1877L12.3904 10.8123ZM13.6096 8.31235L15.6096 10.8123L16.3904 10.1877L14.3904 7.68765L13.6096 8.31235ZM16.4 10.8L17.9 8.8L17.1 8.2L15.6 10.2L16.4 10.8Z" fill="currentColor"/></svg>
