<svg xmlns="http://www.w3.org/2000/svg" fill="none" viewBox="0 0 32 32" width="1em" height="1em"><path fill="currentColor" d="M26 8a.5.5 0 0 0 0-1zm-.086-1.086.354-.353zm-3.828-3.828-.354.353zM24.5 29h-17v1h17zM6 27.5v-23H5v23zM7.5 3h13.172V2H7.5zM26 8.328V27.5h1V8.328zm-5-5.347V5.5h1V2.98zM23.5 8H26V7h-2.5zm-1.768-4.56 3.829 3.828.707-.707-3.829-3.829zM21 5.5A2.5 2.5 0 0 0 23.5 8V7A1.5 1.5 0 0 1 22 5.5zm6 2.828a2.5 2.5 0 0 0-.732-1.767l-.707.707A1.5 1.5 0 0 1 26 8.328zM20.672 3a1.5 1.5 0 0 1 1.06.44l.707-.708A2.5 2.5 0 0 0 20.672 2zM7.5 29A1.5 1.5 0 0 1 6 27.5H5A2.5 2.5 0 0 0 7.5 30zm17 1a2.5 2.5 0 0 0 2.5-2.5h-1a1.5 1.5 0 0 1-1.5 1.5zM6 4.5A1.5 1.5 0 0 1 7.5 3V2A2.5 2.5 0 0 0 5 4.5z"/><path stroke="currentColor" stroke-linecap="round" d="M18.5 19.5h5m-5 3h5m-5 3H22"/><circle cx="12.5" cy="22.5" r="4" stroke="currentColor"/><path stroke="currentColor" stroke-linejoin="round" d="M12.5 18.5V23m0 0 3.5-2m-3.5 2 3.5 1"/><path stroke="currentColor" stroke-linecap="round" d="M23.5 15.5h-14a1 1 0 0 1-1-1v-9"/><path stroke="currentColor" stroke-linecap="round" stroke-linejoin="round" d="m8.5 13 4-5 3.5 5 3-3.5 2.5 3.5 2-2.5"/></svg>
