<svg xmlns="http://www.w3.org/2000/svg" fill="none" viewBox="0 0 32 32" width="1em" height="1em"><path stroke="currentColor" stroke-linecap="round" stroke-linejoin="round" d="M16 3.255S5-1.795 5 14.23c0 8.59 5.72 15.27 11 15.27m0-14h-4.5"/><path stroke="currentColor" stroke-linecap="round" stroke-linejoin="round" d="m12 9 1.3-1.733a1 1 0 0 0 .2-.6V3m-2 19 1.737 1.895a1 1 0 0 1 .263.676V28.5"/><path stroke="currentColor" stroke-linecap="round" d="M5.5 11.5h2m-1.5 7h1.5"/><circle cx="11" cy="10" r="1" stroke="currentColor" stroke-linecap="round" stroke-linejoin="round"/><circle cx="1" cy="1" r="1" stroke="currentColor" stroke-linecap="round" stroke-linejoin="round" transform="matrix(1 0 0 -1 10 22)"/><path stroke="currentColor" stroke-linecap="round" stroke-linejoin="round" d="M9.5 17a1.5 1.5 0 0 0 0-3M16 3.252c4-2.022 11-.477 11 10.977 0 8.59-5.72 15.271-11 15.271m0-14h4.5"/><path stroke="currentColor" stroke-linecap="round" stroke-linejoin="round" d="m20 9-1.3-1.733a1 1 0 0 1-.2-.6V3m2 19-1.737 1.895a1 1 0 0 0-.263.676V28.5"/><path stroke="currentColor" stroke-linecap="round" d="M26.5 11.5h-2m1.5 7h-1.5"/><circle cx="1" cy="1" r="1" stroke="currentColor" stroke-linecap="round" stroke-linejoin="round" transform="matrix(-1 0 0 1 22 9)"/><circle cx="21" cy="21" r="1" stroke="currentColor" stroke-linecap="round" stroke-linejoin="round" transform="rotate(-180 21 21)"/><path stroke="currentColor" stroke-linecap="round" stroke-linejoin="round" d="M22.5 17a1.5 1.5 0 0 1 0-3"/><path stroke="currentColor" stroke-linecap="round" d="M16 3.5v26"/></svg>
