<svg xmlns="http://www.w3.org/2000/svg" fill="none" viewBox="0 0 24 24" width="1em" height="1em"><path stroke="currentColor" stroke-linecap="round" stroke-linejoin="round" stroke-width="1.053" d="m8 7.5 1.085-.783a1 1 0 0 0 .415-.81V2.5"/><path stroke="currentColor" stroke-linecap="round" d="M4 12h4"/><path stroke="currentColor" stroke-linecap="round" stroke-linejoin="round" stroke-width="1.053" d="m8.5 17 .832 1.248a1 1 0 0 1 .168.555V21"/><circle cx="7" cy="8" r="1" stroke="currentColor" stroke-linecap="round" stroke-linejoin="round" stroke-width="1.053"/><path stroke="currentColor" stroke-linecap="round" stroke-linejoin="round" stroke-width="1.053" d="M10 12a1 1 0 1 1-2 0 1 1 0 0 1 2 0Z"/><circle cx="1" cy="1" r="1" stroke="currentColor" stroke-linecap="round" stroke-linejoin="round" stroke-width="1.053" transform="matrix(1 0 0 -1 7 17)"/><path stroke="currentColor" stroke-linecap="round" stroke-linejoin="round" d="M3.5 11C3.5.5 12 1.038 12 4c0-2.962 8.5-3.5 8.5 7 0 7.332-5.15 10.501-8.278 10.97a1.486 1.486 0 0 1-.444 0C8.65 21.502 3.5 18.333 3.5 11Z"/><path stroke="currentColor" stroke-linecap="round" stroke-linejoin="round" stroke-width="1.053" d="m16 7.5-1.085-.783a1 1 0 0 1-.415-.81V2.5"/><path stroke="currentColor" stroke-linecap="round" d="M20 12h-4"/><path stroke="currentColor" stroke-linecap="round" stroke-linejoin="round" stroke-width="1.053" d="m15.5 17-.832 1.248a1 1 0 0 0-.168.555V21"/><circle cx="1" cy="1" r="1" stroke="currentColor" stroke-linecap="round" stroke-linejoin="round" stroke-width="1.053" transform="matrix(-1 0 0 1 18 7)"/><path stroke="currentColor" stroke-linecap="round" stroke-linejoin="round" stroke-width="1.053" d="M14 12a1 1 0 1 0 2 0 1 1 0 0 0-2 0Z"/><circle cx="16" cy="16" r="1" stroke="currentColor" stroke-linecap="round" stroke-linejoin="round" stroke-width="1.053" transform="rotate(-180 16 16)"/><path stroke="currentColor" stroke-linecap="round" d="M12 3.5V22"/></svg>
