<svg xmlns="http://www.w3.org/2000/svg" fill="none" viewBox="0 0 16 16" width="1em" height="1em"><path stroke="currentColor" stroke-linecap="round" stroke-linejoin="round" d="M8 1.5S2 1 2 7c0 5.5 3 7.5 6 7.5"/><path stroke="currentColor" stroke-linecap="round" stroke-linejoin="round" d="M7.5 1.5S14 1 14 7c0 5.5-3 7.5-6 7.5"/><rect width="1" height="1" x="5" y="8.5" stroke="currentColor" stroke-linecap="round" rx=".5" transform="rotate(-180 5 8.5)"/><rect width="1" height="1" x="6" y="5" stroke="currentColor" stroke-linecap="round" rx=".5" transform="rotate(-180 6 5)"/><rect width="1" height="1" x="6" y="12" stroke="currentColor" stroke-linecap="round" rx=".5" transform="rotate(-180 6 12)"/><rect width="1" height="1" x="12" y="8.5" stroke="currentColor" stroke-linecap="round" rx=".5" transform="rotate(-180 12 8.5)"/><rect width="1" height="1" x="11" y="5" stroke="currentColor" stroke-linecap="round" rx=".5" transform="rotate(-180 11 5)"/><rect width="1" height="1" x="11" y="12" stroke="currentColor" stroke-linecap="round" rx=".5" transform="rotate(-180 11 12)"/><path stroke="currentColor" stroke-linecap="round" d="M10.5 4.5 12 3m-1.5 8.5 1 1m-6-8L4 3m1.5 8.5-1 1M8 2v12m2.5-6H8m0 0H5"/></svg>
