<svg viewBox="0 0 24 24" fill="none" xmlns="http://www.w3.org/2000/svg" width="1em" height="1em"><path d="M8 7.5L9.085 6.71739C9.3456 6.52942 9.5 6.22767 9.5 5.90635V2.5" stroke="currentColor" stroke-width="1.05263" stroke-linecap="round" stroke-linejoin="round"/><path d="M4 12H8" stroke="currentColor" stroke-linecap="round"/><path d="M8.5 17L9.33206 18.2481C9.44156 18.4124 9.5 18.6054 9.5 18.8028V21" stroke="currentColor" stroke-width="1.05263" stroke-linecap="round" stroke-linejoin="round"/><circle cx="7" cy="8" r="1" stroke="currentColor" stroke-width="1.05263" stroke-linecap="round" stroke-linejoin="round"/><path d="M10 12C10 12.5523 9.55228 13 9 13C8.44772 13 8 12.5523 8 12C8 11.4477 8.44772 11 9 11C9.55228 11 10 11.4477 10 12Z" stroke="currentColor" stroke-width="1.05263" stroke-linecap="round" stroke-linejoin="round"/><circle cx="1" cy="1" r="1" transform="matrix(1 0 0 -1 7 17)" stroke="currentColor" stroke-width="1.05263" stroke-linecap="round" stroke-linejoin="round"/><path d="M3.5 11C3.5 0.499987 12 1.03833 12 3.99999C12 1.03833 20.5 0.499987 20.5 11C20.5 18.3323 15.3499 21.5013 12.2218 21.9708C12.0739 21.993 11.9261 21.993 11.7782 21.9708C8.65015 21.5013 3.5 18.3323 3.5 11Z" stroke="currentColor" stroke-linecap="round" stroke-linejoin="round"/><path d="M16 7.5L14.915 6.71739C14.6544 6.52942 14.5 6.22767 14.5 5.90635V2.5" stroke="currentColor" stroke-width="1.05263" stroke-linecap="round" stroke-linejoin="round"/><path d="M20 12H16" stroke="currentColor" stroke-linecap="round"/><path d="M15.5 17L14.6679 18.2481C14.5584 18.4124 14.5 18.6054 14.5 18.8028V21" stroke="currentColor" stroke-width="1.05263" stroke-linecap="round" stroke-linejoin="round"/><circle cx="1" cy="1" r="1" transform="matrix(-1 0 0 1 18 7)" stroke="currentColor" stroke-width="1.05263" stroke-linecap="round" stroke-linejoin="round"/><path d="M14 12C14 12.5523 14.4477 13 15 13C15.5523 13 16 12.5523 16 12C16 11.4477 15.5523 11 15 11C14.4477 11 14 11.4477 14 12Z" stroke="currentColor" stroke-width="1.05263" stroke-linecap="round" stroke-linejoin="round"/><circle cx="16" cy="16" r="1" transform="rotate(-180 16 16)" stroke="currentColor" stroke-width="1.05263" stroke-linecap="round" stroke-linejoin="round"/><path d="M12 3.5L12 22" stroke="currentColor" stroke-linecap="round"/></svg>
