<svg viewBox="0 0 16 16" fill="none" xmlns="http://www.w3.org/2000/svg" stroke="currentColor"><path d="M8 1.49995C8 1.49995 2 0.999969 2 6.99995C2 12.4999 5 14.5 8 14.5" stroke-linecap="round" stroke-linejoin="round"/><path d="M7.5 1.49995C7.5 1.49995 14 0.999991 14 6.99997C14 12.5 11 14.5 8 14.5" stroke-linecap="round" stroke-linejoin="round"/><rect x="5" y="8.5" width="1" height="1" rx="0.5" transform="rotate(-180 5 8.5)" stroke-linecap="round"/><rect x="6" y="5" width="1" height="1" rx="0.5" transform="rotate(-180 6 5)" stroke-linecap="round"/><rect x="6" y="12" width="1" height="1" rx="0.5" transform="rotate(-180 6 12)" stroke-linecap="round"/><rect x="12" y="8.5" width="1" height="1" rx="0.5" transform="rotate(-180 12 8.5)" stroke-linecap="round"/><rect x="11" y="5" width="1" height="1" rx="0.5" transform="rotate(-180 11 5)" stroke-linecap="round"/><rect x="11" y="12" width="1" height="1" rx="0.5" transform="rotate(-180 11 12)" stroke-linecap="round"/><path d="M10.5 4.5L12 3" stroke-linecap="round"/><path d="M10.5 11.5L11.5 12.5" stroke-linecap="round"/><path d="M5.5 4.5L4 3" stroke-linecap="round"/><path d="M5.5 11.5L4.5 12.5" stroke-linecap="round"/><path d="M8 2L8 14" stroke-linecap="round"/><path d="M10.5 8H8" stroke-linecap="round"/><path d="M8 8H5" stroke-linecap="round"/></svg>
