<svg viewBox="0 0 32 32" fill="none" xmlns="http://www.w3.org/2000/svg" width="1em" height="1em"><path d="M15.5 23C15.5 26.5899 12.5899 29.5 9 29.5C5.41015 29.5 2.5 26.5899 2.5 23C2.5 19.4101 5.41015 16.5 9 16.5C12.5899 16.5 15.5 19.4101 15.5 23Z" stroke="currentColor"/><path d="M16 29.5C23.4558 29.5 29.5 23.4558 29.5 16C29.5 8.54416 23.4558 2.5 16 2.5C8.54416 2.5 2.5 8.54416 2.5 16" stroke="currentColor" stroke-linecap="round" stroke-dasharray="2 2.5"/><path d="M16 16L23.5 8.49951M23.5 8.49951L18 8.49951M23.5 8.49951L23.5 13.9994" stroke="currentColor" stroke-linecap="round" stroke-linejoin="round"/></svg>
