<svg viewBox="0 0 16 16" fill="none" xmlns="http://www.w3.org/2000/svg" stroke="currentColor" width="1em" height="1em"><circle cx="4.5" cy="11.5" r="3"/><path d="M8 14C7.72386 14 7.5 14.2239 7.5 14.5C7.5 14.7761 7.72386 15 8 15V14ZM1 8C1 8.27614 1.22386 8.5 1.5 8.5C1.77614 8.5 2 8.27614 2 8H1ZM2.07306 7.06046C2.11593 6.78767 1.92954 6.53177 1.65675 6.4889C1.38395 6.44603 1.12805 6.63242 1.08518 6.90521L2.07306 7.06046ZM2.33671 3.88496C2.17422 4.10823 2.22349 4.42096 2.44676 4.58345C2.67003 4.74594 2.98276 4.69667 3.14525 4.4734L2.33671 3.88496ZM4.4734 3.14525C4.69667 2.98276 4.74594 2.67003 4.58345 2.44676C4.42096 2.22349 4.10823 2.17422 3.88496 2.33671L4.4734 3.14525ZM6.90521 1.08518C6.63242 1.12805 6.44603 1.38395 6.4889 1.65675C6.53177 1.92954 6.78767 2.11593 7.06046 2.07306L6.90521 1.08518ZM8.93954 2.07306C9.21233 2.11593 9.46823 1.92954 9.5111 1.65675C9.55397 1.38395 9.36758 1.12805 9.09479 1.08518L8.93954 2.07306ZM12.115 2.33671C11.8918 2.17422 11.579 2.22349 11.4165 2.44676C11.2541 2.67003 11.3033 2.98276 11.5266 3.14525L12.115 2.33671ZM12.8547 4.4734C13.0172 4.69667 13.33 4.74594 13.5532 4.58345C13.7765 4.42096 13.8258 4.10823 13.6633 3.88496L12.8547 4.4734ZM14.9148 6.90521C14.8719 6.63242 14.616 6.44603 14.3433 6.4889C14.0705 6.53177 13.8841 6.78767 13.9269 7.06046L14.9148 6.90521ZM13.9269 8.93954C13.8841 9.21233 14.0705 9.46823 14.3433 9.5111C14.616 9.55397 14.8719 9.36758 14.9148 9.09479L13.9269 8.93954ZM13.6633 12.115C13.8258 11.8918 13.7765 11.579 13.5532 11.4165C13.33 11.2541 13.0172 11.3033 12.8547 11.5266L13.6633 12.115ZM11.5266 12.8547C11.3033 13.0172 11.2541 13.33 11.4165 13.5532C11.579 13.7765 11.8918 13.8258 12.115 13.6633L11.5266 12.8547ZM9.09479 14.9148C9.36758 14.8719 9.55397 14.616 9.5111 14.3433C9.46823 14.0705 9.21233 13.8841 8.93954 13.9269L9.09479 14.9148ZM2 8C2 7.68005 2.025 7.36628 2.07306 7.06046L1.08518 6.90521C1.02908 7.26221 1 7.62788 1 8H2ZM3.14525 4.4734C3.51573 3.96435 3.96435 3.51573 4.4734 3.14525L3.88496 2.33671C3.2915 2.76861 2.76861 3.2915 2.33671 3.88496L3.14525 4.4734ZM7.06046 2.07306C7.36628 2.025 7.68005 2 8 2V1C7.62788 1 7.26221 1.02908 6.90521 1.08518L7.06046 2.07306ZM8 2C8.31995 2 8.63372 2.025 8.93954 2.07306L9.09479 1.08518C8.73779 1.02908 8.37212 1 8 1V2ZM11.5266 3.14525C12.0357 3.51573 12.4843 3.96435 12.8547 4.4734L13.6633 3.88496C13.2314 3.2915 12.7085 2.76861 12.115 2.33671L11.5266 3.14525ZM13.9269 7.06046C13.975 7.36628 14 7.68005 14 8H15C15 7.62788 14.9709 7.26221 14.9148 6.90521L13.9269 7.06046ZM14 8C14 8.31995 13.975 8.63372 13.9269 8.93954L14.9148 9.09479C14.9709 8.73779 15 8.37212 15 8H14ZM12.8547 11.5266C12.4843 12.0357 12.0357 12.4843 11.5266 12.8547L12.115 13.6633C12.7085 13.2314 13.2314 12.7085 13.6633 12.115L12.8547 11.5266ZM8.93954 13.9269C8.63372 13.975 8.31995 14 8 14V15C8.37212 15 8.73779 14.9709 9.09479 14.9148L8.93954 13.9269Z" fill="#282829"/><path d="M8 8L11 5M11 5L8.75 5.00011M11 5L11 7.25011" stroke-linecap="round" stroke-linejoin="round"/></svg>
