<svg viewBox="0 0 24 24" fill="none" xmlns="http://www.w3.org/2000/svg" width="1em" height="1em"><circle cx="6.5" cy="17.5" r="4" stroke="currentColor"/><path d="M12 21C11.7239 21 11.5 21.2239 11.5 21.5C11.5 21.7761 11.7239 22 12 22V21ZM2 12C2 12.2761 2.22386 12.5 2.5 12.5C2.77614 12.5 3 12.2761 3 12H2ZM3.04863 11.0584C3.07717 10.7837 2.87764 10.5379 2.60298 10.5094C2.32831 10.4808 2.08252 10.6804 2.05398 10.955L3.04863 11.0584ZM2.86254 7.93132C2.75008 8.18352 2.86336 8.47914 3.11557 8.5916C3.36777 8.70407 3.66339 8.59078 3.77585 8.33858L2.86254 7.93132ZM4.71801 6.70994C4.8805 6.48667 4.83123 6.17395 4.60796 6.01145C4.38469 5.84896 4.07196 5.89823 3.90947 6.1215L4.71801 6.70994ZM6.1215 3.90947C5.89823 4.07196 5.84896 4.38469 6.01145 4.60796C6.17395 4.83123 6.48667 4.8805 6.70994 4.71801L6.1215 3.90947ZM8.33858 3.77585C8.59078 3.66339 8.70407 3.36777 8.59161 3.11557C8.47914 2.86336 8.18352 2.75008 7.93132 2.86254L8.33858 3.77585ZM10.955 2.05398C10.6804 2.08252 10.4808 2.32831 10.5094 2.60298C10.5379 2.87764 10.7837 3.07717 11.0584 3.04863L10.955 2.05398ZM12.9416 3.04863C13.2163 3.07717 13.4621 2.87764 13.4906 2.60298C13.5192 2.32831 13.3196 2.08252 13.045 2.05398L12.9416 3.04863ZM16.0687 2.86254C15.8165 2.75008 15.5209 2.86336 15.4084 3.11557C15.2959 3.36777 15.4092 3.66339 15.6614 3.77585L16.0687 2.86254ZM17.2901 4.71801C17.5133 4.8805 17.8261 4.83123 17.9885 4.60796C18.151 4.38469 18.1018 4.07196 17.8785 3.90947L17.2901 4.71801ZM20.0905 6.1215C19.928 5.89823 19.6153 5.84896 19.392 6.01145C19.1688 6.17395 19.1195 6.48667 19.282 6.70994L20.0905 6.1215ZM20.2241 8.33858C20.3366 8.59078 20.6322 8.70407 20.8844 8.59161C21.1366 8.47914 21.2499 8.18352 21.1375 7.93132L20.2241 8.33858ZM21.946 10.955C21.9175 10.6804 21.6717 10.4808 21.397 10.5094C21.1224 10.5379 20.9228 10.7837 20.9514 11.0584L21.946 10.955ZM20.9514 12.9416C20.9228 13.2163 21.1224 13.4621 21.397 13.4906C21.6717 13.5192 21.9175 13.3196 21.946 13.045L20.9514 12.9416ZM21.1375 16.0687C21.2499 15.8165 21.1366 15.5209 20.8844 15.4084C20.6322 15.2959 20.3366 15.4092 20.2241 15.6614L21.1375 16.0687ZM19.282 17.2901C19.1195 17.5133 19.1688 17.8261 19.392 17.9885C19.6153 18.151 19.928 18.1018 20.0905 17.8785L19.282 17.2901ZM17.8785 20.0905C18.1018 19.928 18.151 19.6153 17.9885 19.392C17.8261 19.1688 17.5133 19.1195 17.2901 19.282L17.8785 20.0905ZM15.6614 20.2241C15.4092 20.3366 15.2959 20.6322 15.4084 20.8844C15.5209 21.1366 15.8165 21.2499 16.0687 21.1375L15.6614 20.2241ZM13.045 21.946C13.3196 21.9175 13.5192 21.6717 13.4906 21.397C13.4621 21.1224 13.2163 20.9228 12.9416 20.9514L13.045 21.946ZM3 12C3 11.6818 3.01649 11.3677 3.04863 11.0584L2.05398 10.955C2.01828 11.2986 2 11.6473 2 12H3ZM3.77585 8.33858C4.03333 7.76116 4.34992 7.21571 4.71801 6.70994L3.90947 6.1215C3.50064 6.68326 3.1488 7.28936 2.86254 7.93132L3.77585 8.33858ZM6.70994 4.71801C7.21571 4.34992 7.76116 4.03333 8.33858 3.77585L7.93132 2.86254C7.28936 3.1488 6.68326 3.50064 6.1215 3.90947L6.70994 4.71801ZM11.0584 3.04863C11.3677 3.01649 11.6818 3 12 3V2C11.6473 2 11.2986 2.01828 10.955 2.05398L11.0584 3.04863ZM12 3C12.3182 3 12.6323 3.01649 12.9416 3.04863L13.045 2.05398C12.7014 2.01828 12.3527 2 12 2V3ZM15.6614 3.77585C16.2388 4.03333 16.7843 4.34992 17.2901 4.71801L17.8785 3.90947C17.3167 3.50064 16.7106 3.1488 16.0687 2.86254L15.6614 3.77585ZM19.282 6.70994C19.6501 7.21571 19.9667 7.76116 20.2241 8.33858L21.1375 7.93132C20.8512 7.28936 20.4994 6.68326 20.0905 6.1215L19.282 6.70994ZM20.9514 11.0584C20.9835 11.3677 21 11.6818 21 12H22C22 11.6473 21.9817 11.2986 21.946 10.955L20.9514 11.0584ZM21 12C21 12.3182 20.9835 12.6323 20.9514 12.9416L21.946 13.045C21.9817 12.7014 22 12.3527 22 12H21ZM20.2241 15.6614C19.9667 16.2388 19.6501 16.7843 19.282 17.2901L20.0905 17.8785C20.4994 17.3167 20.8512 16.7106 21.1375 16.0687L20.2241 15.6614ZM17.2901 19.282C16.7843 19.6501 16.2388 19.9667 15.6614 20.2241L16.0687 21.1375C16.7106 20.8512 17.3167 20.4994 17.8785 20.0905L17.2901 19.282ZM12.9416 20.9514C12.6323 20.9835 12.3182 21 12 21V22C12.3527 22 12.7014 21.9817 13.045 21.946L12.9416 20.9514Z" fill="currentColor"/><path d="M11.5 12.5L16.5 7.5M16.5 7.5H12.6538M16.5 7.5V11.3462" stroke="currentColor" stroke-linecap="round" stroke-linejoin="round"/></svg>
