<svg xmlns="http://www.w3.org/2000/svg" fill="none" viewBox="0 0 16 16" width="1em" height="1em"><circle cx="8" cy="8" r=".5" stroke="currentColor"/><path stroke="currentColor" stroke-linecap="round" d="M12 8a4 4 0 1 1-4-4"/><path stroke="currentColor" stroke-linecap="round" d="M9.857 1.77a6.5 6.5 0 1 0 4.017 3.445M8 7.793l3-3"/><path stroke="currentColor" stroke-linejoin="round" d="M13.02 3.05a.5.5 0 0 1-.45-.45l-.084-.88v.001zm0 0 .88.085m-.88-.084.88.084m0 0L12.007 5.03a.03.03 0 0 1-.015.009h-.005l-.049-.016-.004-.002-.107-.035-.923-.267-.268-.924-.035-.106.01-.018c.043-.08.146-.22.372-.446m2.917-.089-2.917.089m0 0 1.503-1.503z"/></svg>
