<svg viewBox="0 0 32 32" fill="none" xmlns="http://www.w3.org/2000/svg" stroke="currentColor"><path d="M17.8333 10.813C17.2599 10.6103 16.6428 10.5 16 10.5C12.9624 10.5 10.5 12.9624 10.5 16C10.5 19.0376 12.9624 21.5 16 21.5C19.0376 21.5 21.5 19.0376 21.5 16C21.5 15.3572 21.3897 14.7401 21.187 14.1667" stroke-linecap="round"/><path d="M18.85 6.93491C17.9503 6.65234 16.9929 6.5 16 6.5C10.7533 6.5 6.5 10.7533 6.5 16C6.5 21.2467 10.7533 25.5 16 25.5C21.2467 25.5 25.5 21.2467 25.5 16C25.5 15.0071 25.3477 14.0497 25.0651 13.15" stroke-linecap="round"/><path d="M20.8214 3.38643C19.3241 2.81374 17.6987 2.5 16 2.5C8.54416 2.5 2.5 8.54416 2.5 16C2.5 23.4558 8.54416 29.5 16 29.5C23.4558 29.5 29.5 23.4558 29.5 16C29.5 14.3013 29.1863 12.6759 28.6136 11.1786" stroke-linecap="round"/><mask id="path-4-inside-1_2_59906" fill="white"><path d="M27.6601 4.40205L27.1492 2.71694C26.9304 1.99538 26.0116 1.80783 25.4495 2.36998L22.3536 5.46594C21.2224 6.59713 21.1282 7.08087 21.314 7.47254L22.3679 9.69422L24.5896 10.7482C24.9813 10.934 25.465 10.8398 25.7905 10.5143L29.6921 6.61262C30.2543 6.05047 30.0667 5.13166 29.3452 4.91291L27.6601 4.40205Z"/></mask><path d="M27.1492 2.71694L28.1062 2.42681L27.1492 2.71694ZM27.6601 4.40205L26.7031 4.69217C26.8 5.0119 27.0502 5.2621 27.3699 5.35903L27.6601 4.40205ZM22.3679 9.69422L21.4645 10.1228C21.5633 10.3311 21.731 10.4989 21.9393 10.5977L22.3679 9.69422ZM21.314 7.47254L20.4105 7.90116L20.4105 7.90116L21.314 7.47254ZM22.3536 5.46594L21.6464 4.75883L21.6464 4.75884L22.3536 5.46594ZM25.4495 2.36998L24.7424 1.66288L24.7424 1.66288L25.4495 2.36998ZM29.3452 4.91291L29.6353 3.95592L29.6353 3.95592L29.3452 4.91291ZM24.5896 10.7482L24.161 11.6517L24.161 11.6517L24.5896 10.7482ZM25.7905 10.5143L26.4976 11.2214L26.4976 11.2214L25.7905 10.5143ZM29.6921 6.61262L28.985 5.90552L28.985 5.90552L29.6921 6.61262ZM26.1922 3.00706L26.7031 4.69217L28.617 4.11192L28.1062 2.42681L26.1922 3.00706ZM23.2714 9.2656L22.2175 7.04393L20.4105 7.90116L21.4645 10.1228L23.2714 9.2656ZM23.0607 6.17304L26.1566 3.07709L24.7424 1.66288L21.6464 4.75883L23.0607 6.17304ZM22.2175 7.04393C22.2222 7.05387 22.2391 7.0975 22.2389 7.15605C22.2388 7.20911 22.2245 7.21706 22.25 7.16091C22.3147 7.01893 22.5148 6.71894 23.0607 6.17303L21.6464 4.75884C21.0612 5.34413 20.6486 5.8516 20.4298 6.33221C20.3136 6.58735 20.2399 6.86038 20.239 7.14965C20.238 7.4444 20.3129 7.69538 20.4105 7.90116L22.2175 7.04393ZM28.1062 2.42681C27.6355 0.874212 25.7566 0.648617 24.7424 1.66288L26.1566 3.07709C26.1794 3.05426 26.1972 3.04684 26.2068 3.044C26.2183 3.04058 26.226 3.04143 26.2281 3.04186C26.2301 3.04227 26.2225 3.04114 26.2109 3.03097C26.2051 3.02589 26.2 3.01994 26.1961 3.01397C26.1922 3.00787 26.1915 3.00474 26.1922 3.00706L28.1062 2.42681ZM29.6353 3.95592L27.9502 3.44506L27.3699 5.35903L29.055 5.8699L29.6353 3.95592ZM21.9393 10.5977L24.161 11.6517L25.0182 9.8447L22.7966 8.79073L21.9393 10.5977ZM26.4976 11.2214L30.3992 7.31973L28.985 5.90552L25.0834 9.80717L26.4976 11.2214ZM24.161 11.6517C24.9654 12.0333 25.8979 11.8211 26.4976 11.2214L25.0834 9.80717C25.0617 9.8289 25.0391 9.83841 25.0237 9.84141C25.0086 9.84435 25.0085 9.84008 25.0182 9.8447L24.161 11.6517ZM29.055 5.8699C29.0574 5.8706 29.0542 5.8699 29.0481 5.86597C29.0422 5.86211 29.0362 5.85701 29.0311 5.85123C29.021 5.83963 29.0198 5.83198 29.0202 5.83399C29.0207 5.83613 29.0215 5.84383 29.0181 5.85532C29.0153 5.86488 29.0078 5.88268 28.985 5.90552L30.3992 7.31973C31.4135 6.30547 31.1879 4.42662 29.6353 3.95592L29.055 5.8699Z" fill="#282829" mask="url(#path-4-inside-1_2_59906)"/><path d="M16 15.8917L26.7929 5.09875" stroke-linecap="round"/></svg>
