<svg xmlns="http://www.w3.org/2000/svg" fill="none" viewBox="0 0 24 24" width="1em" height="1em"><path stroke="currentColor" stroke-linecap="round" d="M16 12a4 4 0 1 1-4-4"/><path stroke="currentColor" stroke-linecap="round" d="M19 12a7 7 0 1 1-7-7"/><path stroke="currentColor" stroke-linecap="round" d="M15 2.458A9.996 9.996 0 0 0 12 2C6.477 2 2 6.477 2 12s4.477 10 10 10 10-4.477 10-10a9.98 9.98 0 0 0-.458-3"/><path stroke="currentColor" stroke-linejoin="round" d="M19.95 4.266a.5.5 0 0 1-.326-.326l-.484-1.53c-.085-.267-.453-.39-.71-.133l1.52 1.989Zm0 0 1.528.484c.268.084.391.452.134.71L18.14 8.93a.45.45 0 0 1-.51.099l-1.865-.906-.906-1.865a.172.172 0 0 1-.022-.078c0-.02.004-.068.043-.157.085-.192.302-.499.795-.992l2.755-2.755 1.52 1.989Z"/><path stroke="currentColor" stroke-linecap="round" d="m12 11.892 7.5-7.5"/></svg>
