<svg xmlns="http://www.w3.org/2000/svg" fill="none" viewBox="0 0 32 32" width="1em" height="1em"><path stroke="currentColor" stroke-linecap="round" d="M17.833 10.813a5.5 5.5 0 1 0 3.354 3.354"/><path stroke="currentColor" stroke-linecap="round" d="M18.85 6.935A9.5 9.5 0 0 0 16 6.5a9.5 9.5 0 1 0 9.5 9.5c0-.993-.152-1.95-.435-2.85"/><path stroke="currentColor" stroke-linecap="round" d="M20.821 3.386A13.5 13.5 0 0 0 16 2.5C8.544 2.5 2.5 8.544 2.5 16S8.544 29.5 16 29.5 29.5 23.456 29.5 16c0-1.699-.314-3.324-.886-4.821"/><path stroke="currentColor" stroke-linejoin="round" d="M27.515 4.88a.5.5 0 0 1-.333-.333l-.511-1.685c-.093-.306-.532-.475-.868-.138zm0 0 1.685.511c.306.093.475.532.139.868l-3.902 3.902a.57.57 0 0 1-.633.135l-2.06-.977-.978-2.06a.23.23 0 0 1-.027-.105c0-.032.008-.094.056-.2.103-.227.356-.579.912-1.135l3.096-3.095z"/><path stroke="currentColor" stroke-linecap="round" d="M16 15.892 26.793 5.099"/></svg>
