<svg viewBox="0 0 24 24" fill="none" xmlns="http://www.w3.org/2000/svg" width="1em" height="1em"><path d="M16 12C16 14.2091 14.2091 16 12 16C9.79086 16 8 14.2091 8 12C8 9.79086 9.79086 8 12 8" stroke="currentColor" stroke-linecap="round"/><path d="M19 12C19 15.866 15.866 19 12 19C8.13401 19 5 15.866 5 12C5 8.13401 8.13401 5 12 5" stroke="currentColor" stroke-linecap="round"/><path d="M15 2.4578C14.053 2.16035 13.0452 2 12 2C6.47715 2 2 6.47715 2 12C2 17.5228 6.47715 22 12 22C17.5228 22 22 17.5228 22 12C22 10.9548 21.8396 9.94704 21.5422 9" stroke="currentColor" stroke-linecap="round"/><mask id="path-4-inside-1_2_59896" fill="currentColor"><path d="M20.1002 3.78886L19.6161 2.25996C19.4089 1.60528 18.5765 1.42354 18.0762 1.92375L15.3215 4.67854C14.315 5.68509 14.2364 6.12075 14.4094 6.47702L15.3913 8.49786L17.4121 9.47967C17.7684 9.65275 18.204 9.57415 18.4937 9.28452L21.9653 5.81281C22.4655 5.3126 22.2838 4.48019 21.6291 4.27292L20.1002 3.78886Z"/></mask><path d="M19.6161 2.25996L20.5695 1.95812L19.6161 2.25996ZM20.1002 3.78886L19.1468 4.0907C19.2451 4.40094 19.4881 4.64399 19.7984 4.74222L20.1002 3.78886ZM15.3913 8.49786L14.4918 8.93485C14.5898 9.13649 14.7526 9.29936 14.9543 9.39732L15.3913 8.49786ZM14.4094 6.47702L13.51 6.91401L13.51 6.91401L14.4094 6.47702ZM15.3215 4.67854L14.6144 3.97144L14.6144 3.97145L15.3215 4.67854ZM18.0762 1.92375L17.3691 1.21665L17.3691 1.21665L18.0762 1.92375ZM21.6291 4.27292L21.9309 3.31956L21.9309 3.31956L21.6291 4.27292ZM17.4121 9.47967L16.9751 10.3791H16.9751L17.4121 9.47967ZM18.4937 9.28452L19.2008 9.99162L19.2008 9.99162L18.4937 9.28452ZM21.9653 5.81281L21.2582 5.1057L21.2582 5.10571L21.9653 5.81281ZM18.6628 2.56179L19.1468 4.0907L21.0536 3.48702L20.5695 1.95812L18.6628 2.56179ZM16.2907 8.06086L15.3089 6.04002L13.51 6.91401L14.4918 8.93485L16.2907 8.06086ZM16.0286 5.38565L18.7834 2.63086L17.3691 1.21665L14.6144 3.97144L16.0286 5.38565ZM15.3089 6.04002C15.3163 6.05529 15.3365 6.10629 15.3373 6.17559C15.3381 6.24064 15.3209 6.26384 15.3373 6.22698C15.3837 6.12231 15.5459 5.86836 16.0286 5.38564L14.6144 3.97145C14.0906 4.49527 13.7102 4.96242 13.509 5.41628C13.4015 5.65869 13.3342 5.92052 13.3375 6.19891C13.3408 6.48155 13.416 6.7206 13.51 6.91401L15.3089 6.04002ZM20.5695 1.95812C20.1171 0.529059 18.355 0.230786 17.3691 1.21665L18.7834 2.63086C18.7868 2.62739 18.7829 2.63203 18.772 2.63513C18.7633 2.63761 18.7535 2.63811 18.7427 2.63576C18.7319 2.6334 18.7153 2.62698 18.6975 2.61133C18.6775 2.59371 18.6664 2.57328 18.6628 2.56179L20.5695 1.95812ZM21.9309 3.31956L20.402 2.8355L19.7984 4.74222L21.3273 5.22627L21.9309 3.31956ZM14.9543 9.39732L16.9751 10.3791L17.8491 8.5802L15.8283 7.59839L14.9543 9.39732ZM19.2008 9.99162L22.6724 6.51991L21.2582 5.10571L17.7865 8.57742L19.2008 9.99162ZM16.9751 10.3791C17.7322 10.747 18.6237 10.5687 19.2008 9.99162L17.7866 8.57741C17.7876 8.5764 17.7917 8.57306 17.8003 8.5715C17.8092 8.5699 17.8275 8.56971 17.8491 8.5802L16.9751 10.3791ZM21.3273 5.22627C21.3158 5.22264 21.2953 5.21157 21.2777 5.19156C21.2621 5.17379 21.2557 5.15713 21.2533 5.14632C21.2509 5.13554 21.2514 5.12578 21.2539 5.11704C21.257 5.10614 21.2617 5.10224 21.2582 5.1057L22.6724 6.51992C23.6583 5.53406 23.36 3.772 21.9309 3.31956L21.3273 5.22627Z" fill="currentColor" mask="url(#path-4-inside-1_2_59896)"/><path d="M12 11.8918L19.5 4.39185" stroke="currentColor" stroke-linecap="round"/></svg>
