<svg viewBox="0 0 16 16" fill="none" xmlns="http://www.w3.org/2000/svg" stroke="currentColor" width="1em" height="1em"><circle cx="8" cy="8" r="0.5"/><path d="M12 8C12 10.2091 10.2091 12 8 12C5.79086 12 4 10.2091 4 8C4 5.79086 5.79086 4 8 4" stroke-linecap="round"/><path d="M9.85714 1.76917C9.2687 1.59404 8.64533 1.5 8 1.5C4.41015 1.5 1.5 4.41015 1.5 8C1.5 11.5899 4.41015 14.5 8 14.5C11.5899 14.5 14.5 11.5899 14.5 8C14.5 7.00309 14.2756 6.05859 13.8745 5.21429" stroke-linecap="round"/><path d="M8.00001 7.79298L11 4.79295" stroke-linecap="round"/><mask id="path-5-inside-1_2_59886" fill="white"><path d="M13.0685 2.55279L12.9826 1.65631C12.9758 1.58622 12.9651 1.5151 12.9302 1.45395C12.7726 1.178 12.3788 1.12125 12.1325 1.3675L10.6299 2.87011C10.1536 3.34644 10.0582 3.58839 10.103 3.77101C10.1165 3.82627 10.1404 3.87858 10.1562 3.93323L10.5 5.12134L11.6881 5.46514C11.7428 5.48096 11.7953 5.50378 11.85 5.51941C12.0265 5.56984 12.2233 5.51938 12.3602 5.38246L14.2538 3.48881C14.5001 3.24255 14.4433 2.84868 14.1674 2.69114C14.1062 2.65623 14.0351 2.64547 13.965 2.63875L13.0685 2.55279Z"/></mask><path d="M12.9826 1.65631L13.978 1.56085V1.56085L12.9826 1.65631ZM13.0685 2.55279L12.0731 2.64824C12.1188 3.12507 12.4962 3.5025 12.9731 3.54822L13.0685 2.55279ZM10.5 5.12134L9.53941 5.39931C9.63478 5.72888 9.89245 5.98655 10.222 6.08193L10.5 5.12134ZM10.1562 3.93323L9.1956 4.2112L9.1956 4.2112L10.1562 3.93323ZM10.6299 2.87011L9.92279 2.16301L9.92278 2.16302L10.6299 2.87011ZM12.1325 1.3675L11.4254 0.660394L11.4254 0.660398L12.1325 1.3675ZM10.103 3.77101L9.13175 4.00905L9.13175 4.00905L10.103 3.77101ZM12.9302 1.45395L12.0617 1.94975L12.0617 1.94975L12.9302 1.45395ZM13.965 2.63875L13.8695 3.63419L13.8695 3.63419L13.965 2.63875ZM11.6881 5.46514L11.4101 6.42573L11.4101 6.42573L11.6881 5.46514ZM12.3602 5.38246L13.0673 6.08957L13.0673 6.08956L12.3602 5.38246ZM14.2538 3.48881L13.5467 2.7817L13.5467 2.78171L14.2538 3.48881ZM11.85 5.51941L11.5753 6.48094L11.5753 6.48094L11.85 5.51941ZM14.1674 2.69114L14.6632 1.82271L14.6632 1.82271L14.1674 2.69114ZM11.9871 1.75176L12.0731 2.64824L14.0639 2.45734L13.978 1.56085L11.9871 1.75176ZM11.4606 4.84337L11.1168 3.65526L9.1956 4.2112L9.53941 5.39931L11.4606 4.84337ZM11.337 3.57722L12.8396 2.0746L11.4254 0.660398L9.92279 2.16301L11.337 3.57722ZM11.0743 3.53297C11.0968 3.62478 11.0981 3.71714 11.0835 3.79804C11.0702 3.87151 11.0483 3.91081 11.0493 3.90889C11.0508 3.90617 11.0674 3.87702 11.1162 3.81699C11.1642 3.75796 11.2349 3.67931 11.337 3.57721L9.92278 2.16302C9.66107 2.42474 9.43885 2.68425 9.29279 2.95252C9.13201 3.24781 9.03424 3.6112 9.13175 4.00905L11.0743 3.53297ZM13.7986 0.958151C13.2992 0.0834266 12.1166 -0.0308206 11.4254 0.660394L12.8396 2.07461C12.6409 2.27331 12.246 2.27258 12.0617 1.94975L13.7986 0.958151ZM14.0605 1.64332L13.164 1.55736L12.9731 3.54822L13.8695 3.63419L14.0605 1.64332ZM10.222 6.08193L11.4101 6.42573L11.9661 4.50455L10.778 4.16075L10.222 6.08193ZM13.0673 6.08956L14.9609 4.19591L13.5467 2.78171L11.6531 4.67536L13.0673 6.08956ZM11.5753 6.48094C12.1093 6.63348 12.6797 6.47714 13.0673 6.08957L11.6531 4.67536C11.7668 4.56161 11.9438 4.50619 12.1247 4.55787L11.5753 6.48094ZM13.6716 3.55958C13.3487 3.37527 13.348 2.9804 13.5467 2.7817L14.9609 4.19591C15.6521 3.5047 15.5379 2.3221 14.6632 1.82271L13.6716 3.55958ZM13.8695 3.63419C13.8903 3.63618 13.8744 3.63564 13.8445 3.62874C13.812 3.62123 13.7476 3.60297 13.6716 3.55958L14.6632 1.82271C14.4019 1.67353 14.1423 1.65117 14.0605 1.64332L13.8695 3.63419ZM11.1168 3.65526C11.1062 3.61875 11.0957 3.58735 11.0878 3.56466C11.0808 3.54454 11.0724 3.52138 11.0699 3.51442C11.0659 3.50313 11.0654 3.50169 11.0661 3.50358C11.0669 3.50613 11.0703 3.51679 11.0743 3.53297L9.13175 4.00905C9.15213 4.09222 9.17755 4.16236 9.18757 4.19027C9.1947 4.21013 9.19606 4.21375 9.19842 4.22053C9.19988 4.22474 9.19826 4.22037 9.1956 4.2112L11.1168 3.65526ZM11.4101 6.42573C11.4016 6.42327 11.3981 6.42165 11.4307 6.43338C11.453 6.4414 11.5107 6.46249 11.5753 6.48094L12.1247 4.55787C12.1346 4.5607 12.1386 4.56256 12.1073 4.55131C12.0864 4.54377 12.0292 4.52283 11.9661 4.50455L11.4101 6.42573ZM13.978 1.56085C13.9701 1.479 13.9478 1.21945 13.7986 0.958151L12.0617 1.94975C12.0183 1.87375 12.0001 1.80927 11.9926 1.77676C11.9857 1.74689 11.9851 1.73097 11.9871 1.75176L13.978 1.56085Z" fill="#282829" mask="url(#path-5-inside-1_2_59886)"/></svg>
