<svg viewBox="0 0 32 32" fill="none" xmlns="http://www.w3.org/2000/svg" width="1em" height="1em"><path d="M14.7473 4.48076C14.1166 4.65631 13.5799 5.07225 13.2526 5.63921M14.7473 4.48076L13.2526 5.63921M14.7473 4.48076L14.8814 4.96245L13.2526 5.63921M14.7473 4.48076L21.6824 2.5505C22.9832 2.18844 24.3364 2.92472 24.739 4.21355L27.0268 11.5376C27.2351 12.2044 27.1548 12.928 26.8055 13.533L18.2548 28.3433C17.5644 29.539 16.0355 29.9487 14.8397 29.2584L5.58705 23.9163C4.39132 23.226 3.98163 21.697 4.67198 20.5013L13.2526 5.63921" stroke="currentColor" stroke-linecap="round"/><circle cx="21.7267" cy="6.72667" r="1.5" transform="rotate(29.5847 21.7267 6.72667)" stroke="currentColor"/></svg>
