<svg xmlns="http://www.w3.org/2000/svg" fill="none" viewBox="0 0 24 24" width="1em" height="1em"><path stroke="currentColor" stroke-linecap="round" stroke-linejoin="round" d="M3.5 11C3.5.5 12 1.038 12 4c0-2.962 8.5-3.5 8.5 7 0 7.332-5.15 10.501-8.278 10.97a1.5 1.5 0 0 1-.444 0C8.65 21.502 3.5 18.333 3.5 11"/><path stroke="currentColor" stroke-linecap="round" stroke-linejoin="round" d="m9 6.5.258-.3a1 1 0 0 0 .242-.653V2.5"/><path stroke="currentColor" stroke-linecap="round" d="M4 12h3"/><path stroke="currentColor" stroke-linecap="round" stroke-linejoin="round" d="m9 18 .207.207a1 1 0 0 1 .293.707V21"/><circle cx="8" cy="7" r="1" stroke="currentColor" stroke-linecap="round" stroke-linejoin="round"/><path stroke="currentColor" stroke-linecap="round" stroke-linejoin="round" d="M9 12a1 1 0 1 1-2 0 1 1 0 0 1 2 0m.5 5a1 1 0 0 1-1 1M15 6l-.207-.207a1 1 0 0 1-.293-.707V2.5"/><path stroke="currentColor" stroke-linecap="round" d="M20 12h-3"/><path stroke="currentColor" stroke-linecap="round" stroke-linejoin="round" d="m15 18-.207.207a1 1 0 0 0-.293.707V21M15 7a1 1 0 0 1 1-1m-1 6a1 1 0 1 0 2 0 1 1 0 0 0-2 0"/><path stroke="currentColor" stroke-linecap="round" stroke-linejoin="round" d="M14 17a1 1 0 1 1 2 0 1 1 0 0 1-2 0"/><path stroke="currentColor" stroke-linecap="round" d="M12 3.5V22m-8.5-1.5 18-18"/></svg>
