<svg viewBox="0 0 24 24" fill="none" xmlns="http://www.w3.org/2000/svg" width="1em" height="1em"><path d="M3.5 11C3.5 0.499987 12 1.03833 12 3.99999C12 1.03833 20.5 0.499987 20.5 11C20.5 18.3323 15.3499 21.5013 12.2218 21.9708C12.0739 21.993 11.9261 21.993 11.7782 21.9708C8.65015 21.5013 3.5 18.3323 3.5 11Z" stroke="currentColor" stroke-linecap="round" stroke-linejoin="round"/><path d="M9 6.5L9.25849 6.19914C9.41432 6.01777 9.5 5.78657 9.5 5.54746V2.5" stroke="currentColor" stroke-linecap="round" stroke-linejoin="round"/><path d="M4 12H7" stroke="currentColor" stroke-linecap="round"/><path d="M8.99997 18L9.20711 18.2071C9.39464 18.3947 9.5 18.649 9.5 18.9142V21" stroke="currentColor" stroke-linecap="round" stroke-linejoin="round"/><circle cx="8" cy="7" r="1" stroke="currentColor" stroke-linecap="round" stroke-linejoin="round"/><path d="M9 12C9 12.5523 8.55228 13 8 13C7.44772 13 7 12.5523 7 12C7 11.4477 7.44772 11 8 11C8.55228 11 9 11.4477 9 12Z" stroke="currentColor" stroke-linecap="round" stroke-linejoin="round"/><path d="M9.5 17C9.5 17.5523 9.05228 18 8.5 18" stroke="currentColor" stroke-linecap="round" stroke-linejoin="round"/><path d="M15 6L14.7929 5.79289C14.6054 5.60536 14.5 5.351 14.5 5.08579V2.5" stroke="currentColor" stroke-linecap="round" stroke-linejoin="round"/><path d="M20 12H17" stroke="currentColor" stroke-linecap="round"/><path d="M15 18L14.7929 18.2071C14.6054 18.3946 14.5 18.649 14.5 18.9142V21" stroke="currentColor" stroke-linecap="round" stroke-linejoin="round"/><path d="M15 7C15 6.44772 15.4477 6 16 6" stroke="currentColor" stroke-linecap="round" stroke-linejoin="round"/><path d="M15 12C15 12.5523 15.4477 13 16 13C16.5523 13 17 12.5523 17 12C17 11.4477 16.5523 11 16 11C15.4477 11 15 11.4477 15 12Z" stroke="currentColor" stroke-linecap="round" stroke-linejoin="round"/><path d="M14 17C14 16.4477 14.4477 16 15 16C15.5523 16 16 16.4477 16 17C16 17.5523 15.5523 18 15 18C14.4477 18 14 17.5523 14 17Z" stroke="currentColor" stroke-linecap="round" stroke-linejoin="round"/><path d="M12 3.5L12 22" stroke="currentColor" stroke-linecap="round"/><path d="M3.5 20.5L21.5 2.5" stroke="currentColor" stroke-linecap="round"/></svg>
