<svg xmlns="http://www.w3.org/2000/svg" fill="none" viewBox="0 0 32 32" width="1em" height="1em"><path stroke="currentColor" stroke-linecap="round" stroke-linejoin="round" d="M16 4.5s-1-1-3.5-1c-3.383-.02-8 1.945-8 11.361 0 7.953 6 13.639 11.5 13.639M16 16h-3.6"/><path stroke="currentColor" stroke-linecap="round" d="M5 13.5h2.5m-2.5 5h2.5"/><path stroke="currentColor" stroke-linecap="square" stroke-linejoin="round" d="m11.5 8 .707-.707a1 1 0 0 0 .293-.707V4"/><path stroke="currentColor" stroke-linecap="round" stroke-linejoin="round" d="M11.5 9a1.5 1.5 0 1 1-3 0 1.5 1.5 0 0 1 3 0Zm.5 13.5a1.5 1.5 0 0 1-1.5 1.5m0-6.5a1.5 1.5 0 0 0 0-3"/><path stroke="currentColor" stroke-linecap="square" stroke-linejoin="round" d="m12 24 .707.707a1 1 0 0 1 .293.707V27.5"/><path stroke="currentColor" stroke-linecap="round" d="M16 4.5v24"/><path stroke="currentColor" stroke-linecap="round" stroke-linejoin="round" d="M16 4.5s1-1 3.5-1c3.383-.02 8 1.945 8 11.361 0 7.953-6 13.639-11.5 13.639M16 16h3.6"/><path stroke="currentColor" stroke-linecap="round" d="M27 13.5h-2.5m2.5 5h-2.5"/><path stroke="currentColor" stroke-linecap="square" stroke-linejoin="round" d="m20.5 8-.707-.707a1 1 0 0 1-.293-.707V4"/><path stroke="currentColor" stroke-linecap="round" stroke-linejoin="round" d="M19.5 22a1.5 1.5 0 1 0 3 0 1.5 1.5 0 0 0-3 0Zm1-13A1.5 1.5 0 0 1 22 7.5m-.5 10a1.5 1.5 0 0 1 0-3"/><path stroke="currentColor" stroke-linecap="square" stroke-linejoin="round" d="m20 24-.707.707a1 1 0 0 0-.293.707V27.5"/><path stroke="currentColor" stroke-linecap="round" d="M16 4.5v24M28.042 4 4 28.042"/></svg>
