<svg viewBox="0 0 24 24" fill="none" xmlns="http://www.w3.org/2000/svg" width="1em" height="1em"><path d="M9.5 15L9.5 7.5C9.5 6.94772 9.94772 6.5 10.5 6.5V6.5C11.0523 6.5 11.5 6.94772 11.5 7.5V12.5" stroke="currentColor" stroke-linecap="round"/><path d="M9.5 14.9811L7.73533 11.9621C7.45694 11.4858 6.8461 11.3239 6.36835 11.5997V11.5997C5.88877 11.8766 5.72446 12.4898 6.00134 12.9694L9.25876 18.6114C9.92724 19.7693 11.163 20.4821 12.5 20.4811V20.4811L13.5 20.4811C15.7091 20.4811 17.5 18.6902 17.5 16.4811V16.4811" stroke="currentColor" stroke-linecap="round"/><path d="M11.5 14.5V11C11.5 10.4477 11.9477 10 12.5 10V10C13.0523 10 13.5 10.4477 13.5 11V14.5" stroke="currentColor" stroke-linecap="round"/><path d="M13.5 14.5V11.5C13.5 10.9477 13.9477 10.5 14.5 10.5V10.5C15.0523 10.5 15.5 10.9477 15.5 11.5V14.5" stroke="currentColor" stroke-linecap="round"/><path d="M15.5 14.5V12.5C15.5 11.9477 15.9477 11.5 16.5 11.5V11.5C17.0523 11.5 17.5 11.9477 17.5 12.5V16.5" stroke="currentColor" stroke-linecap="round"/><path d="M14.2092 9C14.3967 8.53678 14.5 8.03045 14.5 7.5C14.5 5.29086 12.7091 3.5 10.5 3.5C8.29086 3.5 6.5 5.29086 6.5 7.5C6.5 8.03045 6.60325 8.53678 6.79076 9" stroke="currentColor" stroke-linecap="round"/></svg>
