<svg xmlns="http://www.w3.org/2000/svg" fill="none" viewBox="0 0 24 24" width="1em" height="1em"><path stroke="currentColor" stroke-linecap="round" d="M9.5 15V7.5a1 1 0 0 1 1-1v0a1 1 0 0 1 1 1v5"/><path stroke="currentColor" stroke-linecap="round" d="m9.5 14.981-1.765-3.019a1.003 1.003 0 0 0-1.367-.362v0c-.48.277-.644.89-.367 1.37l3.259 5.64a3.74 3.74 0 0 0 3.241 1.87v0h1a4 4 0 0 0 4-4v0"/><path stroke="currentColor" stroke-linecap="round" d="M11.5 14.5V11a1 1 0 0 1 1-1v0a1 1 0 0 1 1 1v3.5m0 0v-3a1 1 0 0 1 1-1v0a1 1 0 0 1 1 1v3m0 0v-2a1 1 0 0 1 1-1v0a1 1 0 0 1 1 1v4M14.21 9a4 4 0 1 0-7.418 0"/></svg>
