<svg xmlns="http://www.w3.org/2000/svg" fill="none" viewBox="0 0 16 16" width="1em" height="1em"><path stroke="currentColor" d="M5 7.263a1.5 1.5 0 0 0-1.5 1.5v2a3.5 3.5 0 0 0 3.5 3.5h2a3.5 3.5 0 0 0 3.5-3.5"/><path stroke="currentColor" stroke-linecap="round" d="M3.901 5.763a3 3 0 1 1 5.197 0"/><path fill="currentColor" d="M5 10.263a.5.5 0 0 0 1 0H5Zm2.5-3H7a.5.5 0 0 0 .5.5v-.5Zm-1.5 3v-6H5v6h1Zm1-6v3h1v-3H7Zm5 5v1.5h1v-1.5h-1Zm-4.5-1.5h3v-1h-3v1Zm5.5 1.5a2.5 2.5 0 0 0-2.5-2.5v1a1.5 1.5 0 0 1 1.5 1.5h1Zm-5-5a1.5 1.5 0 0 0-1.5-1.5v1a.5.5 0 0 1 .5.5h1Zm-2 0a.5.5 0 0 1 .5-.5v-1a1.5 1.5 0 0 0-1.5 1.5h1Z"/></svg>
