<svg xmlns="http://www.w3.org/2000/svg" fill="none" viewBox="0 0 32 32" width="1em" height="1em"><path stroke="currentColor" stroke-linecap="round" d="M11.5 21V9a1.5 1.5 0 0 1 3 0v9.5"/><path stroke="currentColor" stroke-linecap="round" d="m11.5 21-2.152-3.75a1.5 1.5 0 1 0-2.598 1.5l3.864 7.223A6.675 6.675 0 0 0 16.5 29.5v0h1a6 6 0 0 0 6-6v0-3"/><path stroke="currentColor" stroke-linecap="round" d="M14.5 19.5V15a1.5 1.5 0 0 1 3 0v4.5m0 0V16a1.5 1.5 0 0 1 3 0v3.5m0 0V17a1.5 1.5 0 0 1 3 0v4.5M9.535 11a4 4 0 1 1 6.93 0"/><path stroke="currentColor" stroke-linecap="round" d="M18.63 12.25a6.5 6.5 0 1 0-11.26 0"/></svg>
