<svg fill="none" xmlns="http://www.w3.org/2000/svg">
  <path d="M59.016 55.0999c.0001-17.7423-9.8197-29.4611-14.8938-34.3321-1.1789-1.1317-2.9593-.2716-2.9593 1.3626V87.905c0 1.6274 1.7686 2.4893 2.9495 1.3695 5.0711-4.8086 14.9034-16.421 14.9036-34.1746Z" fill="url(#a)"/>
  <path d="M47.6326 55.088c.0002-14.9085-8.0166-24.8994-12.4971-29.3191-1.1634-1.1476-2.9434-.2989-2.9434 1.3353l.0001 55.8301c0 1.6274 1.7675 2.4786 2.933 1.3428 4.4784-4.3644 12.5073-14.2694 12.5074-29.1891Z" fill="url(#b)"/>
  <path d="M36.8115 55.0701c.0001-10.8155-5.4766-18.2717-8.9977-21.9478-1.1304-1.1801-2.8975-.3435-2.8975 1.2906v41.2165c0 1.6275 1.7555 2.466 2.888 1.2973 3.5208-3.6332 9.0071-11.0316 9.0072-21.8566Z" fill="url(#c)"/>
  <path d="M28.1153 55.0517c0-7.7312-3.6309-13.2352-6.3227-16.2533-1.0878-1.2196-2.8452-.4018-2.8452 1.2324l-.0001 30.0431c0 1.6343 1.7578 2.452 2.8454 1.2322 2.6918-3.0188 6.3225-8.5235 6.3226-16.2544Z" fill="url(#d)"/>
  <g filter="url(#e)">
    <path d="M59.0155 55.0999c.0002-17.7423-9.8197-29.4611-14.8938-34.3321-1.1788-1.1317-2.9593-.2716-2.9593 1.3626V87.905c0 1.6274 1.7686 2.4893 2.9495 1.3695 5.0711-4.8086 14.9034-16.421 14.9036-34.1746Z" fill="url(#f)"/>
  </g>
  <g style="mix-blend-mode:overlay" opacity=".7" filter="url(#g)">
    <path d="M49.263 55.088c.0002-20.6902-15.4405-31.9092-15.4405-31.9092v63.6455S49.2628 75.7781 49.263 55.088Z" fill="url(#h)"/>
  </g>
  <g style="mix-blend-mode:hard-light" opacity=".7" filter="url(#i)">
    <path d="M37.8113 55.0701c.0001-15.9395-11.8952-24.5825-11.8952-24.5825v49.0318s11.895-8.5099 11.8952-24.4493Z" fill="url(#j)"/>
  </g>
  <g style="mix-blend-mode:screen" opacity=".7" filter="url(#k)">
    <path d="M35.115 55.0517c.0001-7.7312-3.6309-13.2352-6.3227-16.2533-1.0877-1.2196-2.8452-.4018-2.8452 1.2324v30.0431c0 1.6343 1.7577 2.452 2.8454 1.2322 2.6917-3.0188 6.3224-8.5235 6.3225-16.2544Z" fill="url(#l)"/>
  </g>
  <path d="M76.393 69h1.677V56.208h4.134c4.29 0 8.502-2.301 8.502-7.059 0-4.485-3.198-7.059-8.502-7.059h-5.811V69Zm6.006-14.352H78.07V43.65h4.251c3.822 0 6.63 1.677 6.63 5.499 0 3.627-3.237 5.499-6.552 5.499ZM95.5883 69h11.3097v-1.56h-9.6327V42.09h-1.677V69Zm17.8807-8.424h12.675L129.615 69h1.95l-11.271-26.988h-.975L108.165 69h1.833l3.471-8.424Zm6.357-15.444 5.694 13.884h-11.427l5.733-13.884Zm14.877 18.369-1.56.936c.819 1.677 3.393 5.031 7.995 5.031 5.148 0 8.619-3.471 8.619-7.41 0-3.744-2.145-5.304-5.382-6.747l-3.51-1.599c-2.964-1.365-4.719-2.535-4.719-5.421 0-3.042 2.769-4.992 5.811-4.992 2.847 0 4.563 1.287 5.811 3.003l1.326-1.17c-1.092-1.404-3.042-3.432-6.903-3.432-4.641 0-7.8 2.925-7.8 6.708 0 3.003 1.911 5.109 4.563 6.318l3.315 1.482c4.251 1.911 5.733 3.12 5.733 5.967 0 3.042-2.457 5.694-6.786 5.694-3.549 0-5.577-2.574-6.513-4.368ZM155.354 69l2.418-23.79 9.867 23.985h.39l10.023-24.063L180.509 69h1.716l-2.808-26.91h-1.95l-9.516 23.556-9.555-23.556h-1.911L153.638 69h1.716Zm34.63-8.424h12.675L206.13 69h1.95l-11.271-26.988h-.975L184.68 69h1.833l3.471-8.424Zm6.357-15.444 5.694 13.884h-11.427l5.733-13.884Z" fill="#fff"/>
  <g clip-path="url(#m)">
    <path d="m186.068 80.5318-.478.5073c-.331-.3219-.683-.5073-1.161-.5073-.829 0-1.453.6537-1.453 1.5707 0 .9171.624 1.5708 1.453 1.5708.449 0 .878-.1854 1.19-.5074l.449.5074c-.39.4487-.946.6829-1.6.6829-1.366 0-2.253-.9756-2.253-2.2537 0-1.3073.887-2.2829 2.253-2.2829.615-.0098 1.2.2537 1.6.7122Zm5.337 1.5707c0 1.2781-.976 2.2537-2.283 2.2537-1.337 0-2.312-.9756-2.312-2.2537 0-1.3073.975-2.2829 2.312-2.2829 1.307 0 2.283.9756 2.283 2.2829Zm-3.824 0c0 .9171.653 1.5707 1.541 1.5707.859 0 1.512-.6536 1.512-1.5707s-.653-1.5707-1.512-1.5707c-.888 0-1.541.6536-1.541 1.5707Zm7.034 2.1657h-.898l-1.834-4.3317h.829l1.454 3.5903 1.453-3.5903h.8l-1.804 4.3317Zm6.487-2.1951v.2927h-3.414c.087.8878.712 1.3365 1.453 1.3365.498.0098.986-.1756 1.366-.5073l.39.5073c-.536.5074-1.131.6635-1.785.6635-1.307 0-2.224-.8878-2.224-2.2537 0-1.3366.917-2.2829 2.166-2.2829 1.19-.0098 2.048.9366 2.048 2.2439Zm-3.405-.3317h2.674c-.088-.7415-.596-1.2488-1.308-1.2488-.77.0097-1.248.5073-1.366 1.2488Zm8.986.3611c0 1.2781-.976 2.2537-2.283 2.2537-1.336 0-2.312-.9756-2.312-2.2537 0-1.3073.976-2.2829 2.312-2.2829 1.298 0 2.283.9756 2.283 2.2829Zm-3.824 0c0 .9171.653 1.5707 1.541 1.5707.859 0 1.512-.6536 1.512-1.5707s-.653-1.5707-1.512-1.5707c-.897 0-1.541.6536-1.541 1.5707Z" fill="#fff"/>
    <path d="M178.595 78.4537c-.839-.8293-1.932-1.3366-3.112-1.4537-.088 0-.156.078-.156.1756 0 .039.01.0683.039.0976l1.834 1.8048c0 .0293 0 .0293-.029.0293-.508-.3707-1.103-.5951-1.717-.6536-.059-.0098-.108.0292-.117.0878 0 .0292.009.0585.029.0878l1.249 1.2487s0 .0293-.03 0c-.341-.2146-.722-.3512-1.131-.3902-.059 0-.088.0585-.059.1171l2.108 2.1073c.058.0585.146 0 .117-.0585-.03-.4-.166-.7903-.391-1.1317-.029 0 0-.0293 0 0l1.22 1.1902c.058.0585.175 0 .175-.0878-.068-.6244-.292-1.2293-.653-1.7464-.029 0 0-.0292 0 0l1.844 1.8049c.048.0586.127.0683.185.0293.049-.0293.068-.0878.049-.1463-.107-1.1805-.625-2.283-1.454-3.1122Z" fill="#00ADFF"/>
    <path d="M171.454 78.4537c.848-.8196 1.941-1.3366 3.112-1.4537.088 0 .156.0585.166.1463 0 .0391-.01.0878-.049.1171l-1.805 1.8146c-.029.0293 0 .0293 0 .0293.517-.3707 1.122-.5951 1.746-.6536.088 0 .147.117.088.1756l-1.239 1.2487c-.029 0 0 .0293 0 0 .342-.2146.722-.3414 1.132-.3902.058 0 .117.0585.058.1171l-2.117 2.1073c-.058.0585-.117 0-.117-.0585.039-.4.186-.7903.42-1.1317 0 0-.029-.0293-.029 0l-1.191 1.1902c-.088.0585-.205 0-.175-.0878.058-.6342.283-1.239.653-1.7464 0 0-.029-.0292-.029 0l-1.815 1.8049c-.117.1171-.263.0293-.263-.117.117-1.1708.634-2.2635 1.454-3.1122Z" fill="#F05245"/>
    <path d="M171.454 85.6633c.829.8391 1.931 1.3561 3.112 1.4537.078.0097.146-.039.156-.1171.01-.0488-.01-.0878-.039-.1268l-1.805-1.8342c-.029 0 0-.0292 0 0 .517.3708 1.122.5952 1.746.6439.088 0 .147-.117.088-.1756l-1.239-1.239c-.029-.0293 0-.0293 0-.0293.332.2244.722.3708 1.122.4098.059 0 .117-.0878.059-.1171l-2.108-2.1073c-.058-.0585-.117-.0293-.117.0585.039.4.186.7903.42 1.1318 0 0-.029.0292-.029 0l-1.191-1.1903c-.088-.0585-.205-.0293-.175.0878.058.6244.283 1.2195.653 1.7171 0 .0195-.009.0293-.029.0293l-1.815-1.8342c-.068-.0585-.175-.039-.224.0293-.019.0292-.029.0585-.039.0975.107 1.1708.624 2.2732 1.454 3.1122Z" fill="#1CEBCF"/>
    <path d="M178.595 85.6634c-.829.8487-1.932 1.3658-3.112 1.4536-.117.0293-.205-.1463-.117-.2341l1.834-1.8342s0-.0292-.029 0c-.508.3708-1.103.5952-1.717.6537-.059.0097-.108-.039-.118-.0976 0-.0292.01-.0585.03-.0878l1.249-1.2488c0-.0292 0-.0292-.03-.0292-.331.2341-.722.3805-1.122.4097-.048-.0097-.078-.0487-.068-.0878 0-.0097 0-.0195.01-.0292l2.107-2.1074c.059-.0585.146-.0292.117.0586-.029.4-.166.7902-.39 1.1317-.029 0 0 .0293 0 0l1.219-1.1903c.039-.039.108-.039.147 0 .019.0196.029.0586.029.0878-.068.6147-.293 1.2098-.654 1.7171-.029.0293 0 .0293 0 .0293l1.835-1.8342c.087-.0878.263 0 .234.1171-.098 1.1805-.615 2.2829-1.454 3.122Z" fill="#FFE300"/>
    <path opacity=".87" d="M208.127 80.1124v1.0829h-.186v-1.0829h-.341v-.1756h.878v.1756h-.351Zm1.648 1.0829v-.839l-.292.6049h-.137l-.292-.6049v.839h-.196v-1.2488h.196l.36.7805.361-.7805h.186v1.2488h-.186Z" fill="#fff"/>
  </g>
  <path d="M108.78 78.79h1.791c.468 0 .9.072 1.296.216.402.144.747.351 1.035.621.288.27.513.597.675.981.168.384.252.816.252 1.296 0 .468-.084.894-.252 1.278-.168.378-.399.702-.693.972-.294.27-.639.48-1.035.63-.396.144-.822.216-1.278.216h-1.791v-6.21Zm1.773 5.616c.372 0 .714-.06 1.026-.18.318-.12.591-.288.819-.504.228-.222.405-.486.531-.792.132-.312.198-.657.198-1.035 0-.39-.063-.741-.189-1.053-.12-.312-.294-.576-.522-.792-.222-.216-.492-.381-.81-.495-.318-.114-.669-.171-1.053-.171h-1.098v5.022h1.098Zm7.872-.009c-.39.462-.999.693-1.827.693-.312 0-.597-.051-.855-.153-.252-.102-.471-.249-.657-.441-.18-.192-.321-.423-.423-.693-.096-.276-.144-.585-.144-.927 0-.3.048-.582.144-.846.102-.264.243-.495.423-.693.18-.198.399-.354.657-.468.258-.114.543-.171.855-.171.288 0 .552.051.792.153.246.096.453.234.621.414.174.174.309.384.405.63.096.246.144.513.144.801 0 .036-.003.075-.009.117v.117c-.006.042-.012.081-.018.117h-3.33c0 .216.036.417.108.603.078.18.183.336.315.468s.291.234.477.306c.186.072.39.108.612.108.21 0 .399-.027.567-.081.174-.054.327-.117.459-.189.144-.072.276-.159.396-.261l.288.396Zm-.54-1.854c0-.15-.027-.3-.081-.45-.048-.15-.126-.285-.234-.405-.102-.126-.237-.228-.405-.306-.162-.084-.36-.126-.594-.126-.21 0-.399.036-.567.108-.162.072-.3.168-.414.288-.108.12-.195.258-.261.414-.066.156-.105.315-.117.477h2.673Zm1.544 1.377c.204.228.408.393.612.495.21.096.417.144.621.144.114 0 .225-.012.333-.036.108-.03.204-.072.288-.126.084-.054.15-.126.198-.216.054-.09.081-.198.081-.324s-.039-.231-.117-.315c-.078-.09-.171-.165-.279-.225-.108-.06-.222-.108-.342-.144-.114-.042-.213-.075-.297-.099-.078-.024-.186-.057-.324-.099-.132-.048-.264-.114-.396-.198-.132-.09-.246-.207-.342-.351-.096-.144-.144-.327-.144-.549 0-.192.039-.36.117-.504.078-.15.18-.273.306-.369.126-.102.27-.177.432-.225.168-.054.336-.081.504-.081.342 0 .621.048.837.144.216.096.399.213.549.351l-.324.405c-.15-.126-.318-.222-.504-.288-.18-.066-.366-.099-.558-.099-.222 0-.402.051-.54.153-.138.102-.207.252-.207.45 0 .096.024.18.072.252.054.072.12.138.198.198.084.054.18.105.288.153.114.042.228.081.342.117.108.036.237.081.387.135.156.048.306.12.45.216.144.09.267.21.369.36.102.144.153.33.153.558 0 .204-.039.387-.117.549-.078.156-.189.291-.333.405-.138.108-.303.189-.495.243-.186.06-.387.09-.603.09-.348 0-.657-.066-.927-.198-.27-.138-.483-.321-.639-.549l.351-.423Zm4.521-4.59c-.006.132-.051.243-.135.333-.084.084-.195.126-.333.126s-.252-.042-.342-.126c-.09-.09-.135-.201-.135-.333s.045-.24.135-.324c.09-.09.204-.135.342-.135.138 0 .249.045.333.135.09.084.135.192.135.324Zm-.801 1.449h.666V85h-.666v-4.221Zm5.243 3.393c-.156.252-.363.45-.621.594-.252.138-.558.207-.918.207-.276 0-.54-.045-.792-.135-.246-.09-.462-.225-.648-.405-.18-.18-.324-.402-.432-.666-.108-.27-.162-.579-.162-.927 0-.33.054-.627.162-.891.108-.264.252-.489.432-.675.186-.186.399-.327.639-.423.246-.102.507-.153.783-.153.39 0 .714.081.972.243.264.156.462.345.594.567h.018l-.009-.729h.666V84.1c0 .474-.033.849-.099 1.125s-.168.507-.306.693c-.066.096-.15.195-.252.297-.102.102-.228.195-.378.279-.144.084-.318.153-.522.207-.198.054-.432.081-.702.081-.264 0-.507-.033-.729-.099-.216-.06-.402-.129-.558-.207-.156-.072-.282-.144-.378-.216-.09-.066-.144-.105-.162-.117l.333-.477c.072.054.159.111.261.171.108.066.228.126.36.18.132.06.276.108.432.144.156.036.315.054.477.054.288 0 .531-.045.729-.135.204-.09.366-.216.486-.378.12-.156.207-.345.261-.567.054-.222.081-.465.081-.729v-.234h-.018Zm-1.422.243c.24 0 .45-.039.63-.117.186-.084.339-.198.459-.342.126-.144.219-.312.279-.504.066-.192.099-.399.099-.621 0-.486-.135-.867-.405-1.143-.264-.282-.624-.423-1.08-.423-.24 0-.45.042-.63.126-.18.078-.33.189-.45.333-.12.138-.213.303-.279.495-.06.192-.09.396-.09.612 0 .222.03.429.09.621.066.192.159.36.279.504.126.144.279.258.459.342.186.078.399.117.639.117Zm5.383-3.717c.3 0 .546.045.738.135.198.084.351.204.459.36.114.156.192.342.234.558.042.21.063.441.063.693V85h-.666v-2.511c0-.396-.075-.696-.225-.9-.144-.21-.414-.315-.81-.315-.186 0-.351.036-.495.108-.144.072-.264.171-.36.297-.09.12-.159.264-.207.432-.048.162-.072.333-.072.513V85h-.666v-4.221h.666v.684h.027c.096-.228.261-.411.495-.549.24-.144.513-.216.819-.216Zm4.748 2.862c.066.102.153.21.261.324.108.114.231.219.369.315.138.09.285.168.441.234.156.06.318.09.486.09.378 0 .687-.093.927-.279.24-.192.36-.465.36-.819 0-.162-.03-.303-.09-.423-.06-.126-.141-.237-.243-.333-.102-.096-.219-.18-.351-.252-.132-.078-.27-.147-.414-.207l-.918-.396c-.348-.15-.609-.345-.783-.585-.174-.24-.261-.549-.261-.927 0-.264.054-.495.162-.693.108-.198.252-.363.432-.495s.384-.231.612-.297c.228-.072.462-.108.702-.108.258 0 .486.036.684.108.204.072.375.153.513.243.144.09.258.18.342.27.084.084.138.144.162.18l-.396.45c-.132-.156-.306-.306-.522-.45-.216-.144-.489-.216-.819-.216-.336 0-.618.084-.846.252-.228.168-.342.405-.342.711 0 .162.024.3.072.414.054.114.12.213.198.297.084.078.177.147.279.207.108.054.213.102.315.144l.846.36c.192.078.369.168.531.27.168.096.312.21.432.342.12.132.216.282.288.45.072.168.108.363.108.585 0 .276-.051.525-.153.747-.102.216-.246.402-.432.558-.18.15-.396.267-.648.351-.252.084-.528.126-.828.126-.234 0-.453-.036-.657-.108-.204-.072-.387-.162-.549-.27-.162-.108-.306-.225-.432-.351-.12-.132-.219-.258-.297-.378l.459-.441Zm3.839-2.79.693.009 1.368 3.474 1.341-3.483.693.009-2.061 4.986c-.078.192-.159.351-.243.477-.078.126-.159.225-.243.297-.084.078-.174.132-.27.162-.09.03-.192.045-.306.045-.096 0-.183-.009-.261-.027-.078-.012-.147-.027-.207-.045-.072-.024-.135-.048-.189-.072l.135-.567.144.054c.042.012.087.021.135.027.048.012.096.018.144.018.054 0 .105-.003.153-.009.048-.006.096-.03.144-.072.048-.036.096-.093.144-.171.054-.078.111-.189.171-.333l.234-.549-1.719-4.23Zm4.531 3.15c.204.228.408.393.612.495.21.096.417.144.621.144.114 0 .225-.012.333-.036.108-.03.204-.072.288-.126.084-.054.15-.126.198-.216.054-.09.081-.198.081-.324s-.039-.231-.117-.315c-.078-.09-.171-.165-.279-.225-.108-.06-.222-.108-.342-.144-.114-.042-.213-.075-.297-.099-.078-.024-.186-.057-.324-.099-.132-.048-.264-.114-.396-.198-.132-.09-.246-.207-.342-.351-.096-.144-.144-.327-.144-.549 0-.192.039-.36.117-.504.078-.15.18-.273.306-.369.126-.102.27-.177.432-.225.168-.054.336-.081.504-.081.342 0 .621.048.837.144.216.096.399.213.549.351l-.324.405c-.15-.126-.318-.222-.504-.288-.18-.066-.366-.099-.558-.099-.222 0-.402.051-.54.153-.138.102-.207.252-.207.45 0 .096.024.18.072.252.054.072.12.138.198.198.084.054.18.105.288.153.114.042.228.081.342.117.108.036.237.081.387.135.156.048.306.12.45.216.144.09.267.21.369.36.102.144.153.33.153.558 0 .204-.039.387-.117.549-.078.156-.189.291-.333.405-.138.108-.303.189-.495.243-.186.06-.387.09-.603.09-.348 0-.657-.066-.927-.198-.27-.138-.483-.321-.639-.549l.351-.423Zm5.565 1.035c-.198.09-.441.135-.729.135-.252 0-.447-.051-.585-.153-.132-.108-.231-.246-.297-.414-.06-.168-.096-.351-.108-.549-.012-.204-.018-.402-.018-.594v-2.034h-.63v-.558h.63v-1.305h.675v1.305h1.035v.558h-1.044v2.169c0 .174.006.333.018.477.012.138.051.258.117.36.036.054.09.096.162.126.078.024.168.036.27.036.066 0 .126-.003.18-.009.06-.012.111-.027.153-.045.048-.012.093-.027.135-.045l.036.54Zm4.373-.558c-.39.462-.999.693-1.827.693-.312 0-.597-.051-.855-.153-.252-.102-.471-.249-.657-.441-.18-.192-.321-.423-.423-.693-.096-.276-.144-.585-.144-.927 0-.3.048-.582.144-.846.102-.264.243-.495.423-.693.18-.198.399-.354.657-.468.258-.114.543-.171.855-.171.288 0 .552.051.792.153.246.096.453.234.621.414.174.174.309.384.405.63.096.246.144.513.144.801 0 .036-.003.075-.009.117v.117c-.006.042-.012.081-.018.117h-3.33c0 .216.036.417.108.603.078.18.183.336.315.468s.291.234.477.306c.186.072.39.108.612.108.21 0 .399-.027.567-.081.174-.054.327-.117.459-.189.144-.072.276-.159.396-.261l.288.396Zm-.54-1.854c0-.15-.027-.3-.081-.45-.048-.15-.126-.285-.234-.405-.102-.126-.237-.228-.405-.306-.162-.084-.36-.126-.594-.126-.21 0-.399.036-.567.108-.162.072-.3.168-.414.288-.108.12-.195.258-.261.414-.066.156-.105.315-.117.477h2.673Zm4.802-.936c.09-.264.249-.48.477-.648.234-.174.501-.261.801-.261.306 0 .555.051.747.153.192.096.342.228.45.396.108.162.18.348.216.558.036.21.054.426.054.648V85h-.666v-2.511c0-.126-.012-.261-.036-.405-.018-.144-.06-.276-.126-.396s-.156-.219-.27-.297c-.114-.078-.267-.117-.459-.117-.174 0-.33.039-.468.117-.132.078-.243.186-.333.324-.09.138-.159.297-.207.477-.048.18-.072.375-.072.585V85h-.666v-2.511c0-.126-.012-.261-.036-.405-.018-.144-.06-.276-.126-.396s-.156-.219-.27-.297c-.114-.078-.267-.117-.459-.117-.174 0-.33.039-.468.117-.132.078-.246.186-.342.324-.09.138-.159.297-.207.477-.048.18-.072.375-.072.585V85h-.666v-4.221h.666l-.009.675h.027c.102-.216.255-.396.459-.54.21-.144.444-.216.702-.216.414 0 .723.087.927.261.21.168.354.384.432.648Z" fill="#AEB0F1"/>
  <defs>
    <linearGradient id="a" x1="57.0522" y1="26" x2="63.5001" y2="86.5" gradientUnits="userSpaceOnUse">
      <stop stop-color="#F05245"/>
      <stop offset="1" stop-color="#F05245" stop-opacity=".08"/>
    </linearGradient>
    <linearGradient id="b" x1="45.9343" y1="29.9205" x2="60" y2="77" gradientUnits="userSpaceOnUse">
      <stop stop-color="#FFE300"/>
      <stop offset="1" stop-color="#FFE300" stop-opacity="0"/>
    </linearGradient>
    <linearGradient id="c" x1="35.5031" y1="35.6813" x2="37.9999" y2="77" gradientUnits="userSpaceOnUse">
      <stop stop-color="#16DCC1"/>
      <stop offset="1" stop-color="#16DCC1" stop-opacity="0"/>
    </linearGradient>
    <linearGradient id="d" x1="27.1068" y1="40.1083" x2="26" y2="72" gradientUnits="userSpaceOnUse">
      <stop stop-color="#00ADFF"/>
      <stop offset="1" stop-color="#00ADFF" stop-opacity="0"/>
    </linearGradient>
    <linearGradient id="f" x1="57.0518" y1="26" x2="52.0518" y2="100.5" gradientUnits="userSpaceOnUse">
      <stop stop-color="#F05245"/>
      <stop offset="1" stop-color="#F05245" stop-opacity="0"/>
    </linearGradient>
    <linearGradient id="h" x1="45.1304" y1="27.5" x2="43.1304" y2="98.5" gradientUnits="userSpaceOnUse">
      <stop stop-color="#FFE300"/>
      <stop offset="1" stop-color="#FFE300" stop-opacity="0"/>
    </linearGradient>
    <linearGradient id="j" x1="29.4996" y1="35.5" x2="27.4996" y2="87" gradientUnits="userSpaceOnUse">
      <stop stop-color="#1CEBCF"/>
      <stop offset="1" stop-color="#1CEBCF" stop-opacity="0"/>
    </linearGradient>
    <linearGradient id="l" x1="25.9998" y1="39" x2="32.9998" y2="74" gradientUnits="userSpaceOnUse">
      <stop stop-color="#00ADFF"/>
      <stop offset="1" stop-color="#00ADFF" stop-opacity="0"/>
    </linearGradient>
    <filter id="e" x="21.1624" y=".253174" width="57.853" height="109.528" filterUnits="userSpaceOnUse" color-interpolation-filters="sRGB">
      <feFlood flood-opacity="0" result="BackgroundImageFix"/>
      <feBlend in="SourceGraphic" in2="BackgroundImageFix" result="shape"/>
      <feGaussianBlur stdDeviation="10" result="effect1_foregroundBlur_86_22143"/>
    </filter>
    <filter id="g" x="30.8225" y="20.179" width="21.4404" height="69.6453" filterUnits="userSpaceOnUse" color-interpolation-filters="sRGB">
      <feFlood flood-opacity="0" result="BackgroundImageFix"/>
      <feBlend in="SourceGraphic" in2="BackgroundImageFix" result="shape"/>
      <feGaussianBlur stdDeviation="1.5" result="effect1_foregroundBlur_86_22143"/>
    </filter>
    <filter id="i" x="17.916" y="22.4875" width="27.8953" height="65.0317" filterUnits="userSpaceOnUse" color-interpolation-filters="sRGB">
      <feFlood flood-opacity="0" result="BackgroundImageFix"/>
      <feBlend in="SourceGraphic" in2="BackgroundImageFix" result="shape"/>
      <feGaussianBlur stdDeviation="4" result="effect1_foregroundBlur_86_22143"/>
    </filter>
    <filter id="k" x="8.94702" y="21.2126" width="43.168" height="67.6792" filterUnits="userSpaceOnUse" color-interpolation-filters="sRGB">
      <feFlood flood-opacity="0" result="BackgroundImageFix"/>
      <feBlend in="SourceGraphic" in2="BackgroundImageFix" result="shape"/>
      <feGaussianBlur stdDeviation="8.5" result="effect1_foregroundBlur_86_22143"/>
    </filter>
    <clipPath id="m">
      <path fill="#fff" transform="translate(170 77)" d="M0 0h40v10.1463H0z"/>
    </clipPath>
  </defs>
</svg>
