<svg fill="none" height="173" viewBox="0 0 264 173" width="264" xmlns="http://www.w3.org/2000/svg" xmlns:xlink="http://www.w3.org/1999/xlink"><filter id="a" color-interpolation-filters="sRGB" filterUnits="userSpaceOnUse" height="42.5455" width="147.545" x="32.4848" y="47.3636"><feFlood flood-opacity="0" result="BackgroundImageFix"/><feColorMatrix in="SourceAlpha" result="hardAlpha" type="matrix" values="0 0 0 0 0 0 0 0 0 0 0 0 0 0 0 0 0 0 127 0"/><feOffset dx="1.75758" dy="2.63636"/><feGaussianBlur stdDeviation="2.63636"/><feColorMatrix type="matrix" values="0 0 0 0 0.384314 0 0 0 0 0.411765 0 0 0 0 0.443137 0 0 0 0.19 0"/><feBlend in2="BackgroundImageFix" mode="normal" result="effect1_dropShadow_1803_73486"/><feBlend in="SourceGraphic" in2="effect1_dropShadow_1803_73486" mode="normal" result="shape"/></filter><filter id="b" color-interpolation-filters="sRGB" filterUnits="userSpaceOnUse" height="42.5455" width="147.545" x="87.4848" y="89.3636"><feFlood flood-opacity="0" result="BackgroundImageFix"/><feColorMatrix in="SourceAlpha" result="hardAlpha" type="matrix" values="0 0 0 0 0 0 0 0 0 0 0 0 0 0 0 0 0 0 127 0"/><feOffset dx="1.75758" dy="2.63636"/><feGaussianBlur stdDeviation="2.63636"/><feColorMatrix type="matrix" values="0 0 0 0 0.384314 0 0 0 0 0.411765 0 0 0 0 0.443137 0 0 0 0.19 0"/><feBlend in2="BackgroundImageFix" mode="normal" result="effect1_dropShadow_1803_73486"/><feBlend in="SourceGraphic" in2="effect1_dropShadow_1803_73486" mode="normal" result="shape"/></filter><rect fill="#fff" height="173" rx="8" width="264"/><g filter="url(#a)"><rect fill="#525296" height="137" rx="4" transform="matrix(0 1 -1 0 223 -123)" width="32" x="173" y="50"/></g><g stroke-linecap="round" stroke-width="1.5"><path d="m46 61.9999h90" stroke="#aeb0f1"/><path d="m46 69.9999h69" stroke="#aeb0f1"/><path d="m161.171 56.1715 5.657 5.6569" stroke="#fff"/><path d="m166.828 56.1715-5.657 5.6569" stroke="#fff"/></g><g filter="url(#b)"><rect fill="#12a344" height="137" rx="4" transform="matrix(0 1 -1 0 320 -136)" width="32" x="228" y="92"/></g><path d="m101 104h90" stroke="#d3fce9" stroke-linecap="round" stroke-width="1.5"/><path d="m101 112h69" stroke="#d3fce9" stroke-linecap="round" stroke-width="1.5"/><path d="m216.171 98.1715 5.657 5.6565" stroke="#fff" stroke-linecap="round" stroke-width="1.5"/><path d="m221.828 98.1715-5.657 5.6565" stroke="#fff" stroke-linecap="round" stroke-width="1.5"/></svg>