<svg width="264" height="173" viewBox="0 0 264 173" fill="none" xmlns="http://www.w3.org/2000/svg">
<rect width="264" height="173" rx="8" fill="white"/>
<g filter="url(#filter0_d_1803_73659)">
<rect x="83" y="71" width="95" height="32" rx="8" fill="#3F3F71" fill-opacity="0.8"/>
<path d="M105.624 87.004H100.872V91H99.972V82.72H100.872V86.224H105.624V82.72H106.524V91H105.624V87.004ZM113.196 90.196C112.676 90.812 111.864 91.12 110.76 91.12C110.344 91.12 109.964 91.052 109.62 90.916C109.284 90.78 108.992 90.584 108.744 90.328C108.504 90.072 108.316 89.764 108.18 89.404C108.052 89.036 107.988 88.624 107.988 88.168C107.988 87.768 108.052 87.392 108.18 87.04C108.316 86.688 108.504 86.38 108.744 86.116C108.984 85.852 109.276 85.644 109.62 85.492C109.964 85.34 110.344 85.264 110.76 85.264C111.144 85.264 111.496 85.332 111.816 85.468C112.144 85.596 112.42 85.78 112.644 86.02C112.876 86.252 113.056 86.532 113.184 86.86C113.312 87.188 113.376 87.544 113.376 87.928C113.376 87.976 113.372 88.028 113.364 88.084C113.364 88.14 113.364 88.192 113.364 88.24C113.356 88.296 113.348 88.348 113.34 88.396H108.9C108.9 88.684 108.948 88.952 109.044 89.2C109.148 89.44 109.288 89.648 109.464 89.824C109.64 90 109.852 90.136 110.1 90.232C110.348 90.328 110.62 90.376 110.916 90.376C111.196 90.376 111.448 90.34 111.672 90.268C111.904 90.196 112.108 90.112 112.284 90.016C112.476 89.92 112.652 89.804 112.812 89.668L113.196 90.196ZM112.476 87.724C112.476 87.524 112.44 87.324 112.368 87.124C112.304 86.924 112.2 86.744 112.056 86.584C111.92 86.416 111.74 86.28 111.516 86.176C111.3 86.064 111.036 86.008 110.724 86.008C110.444 86.008 110.192 86.056 109.968 86.152C109.752 86.248 109.568 86.376 109.416 86.536C109.272 86.696 109.156 86.88 109.068 87.088C108.98 87.296 108.928 87.508 108.912 87.724H112.476ZM114.702 82.72H115.59V91H114.702V82.72ZM117.422 82.72H118.31V91H117.422V82.72ZM122.614 91.12C122.206 91.12 121.822 91.052 121.462 90.916C121.11 90.772 120.802 90.572 120.538 90.316C120.274 90.052 120.066 89.744 119.914 89.392C119.762 89.032 119.686 88.636 119.686 88.204C119.686 87.772 119.762 87.376 119.914 87.016C120.066 86.656 120.274 86.348 120.538 86.092C120.802 85.828 121.11 85.624 121.462 85.48C121.822 85.336 122.206 85.264 122.614 85.264C123.022 85.264 123.406 85.336 123.766 85.48C124.126 85.624 124.438 85.828 124.702 86.092C124.966 86.348 125.174 86.656 125.326 87.016C125.478 87.376 125.554 87.772 125.554 88.204C125.554 88.636 125.478 89.032 125.326 89.392C125.174 89.744 124.966 90.052 124.702 90.316C124.438 90.572 124.126 90.772 123.766 90.916C123.406 91.052 123.022 91.12 122.614 91.12ZM122.614 90.34C122.926 90.34 123.206 90.284 123.454 90.172C123.71 90.06 123.922 89.908 124.09 89.716C124.266 89.516 124.402 89.284 124.498 89.02C124.594 88.756 124.642 88.476 124.642 88.18C124.642 87.876 124.594 87.596 124.498 87.34C124.402 87.076 124.266 86.848 124.09 86.656C123.922 86.464 123.71 86.312 123.454 86.2C123.206 86.088 122.926 86.032 122.614 86.032C122.302 86.032 122.022 86.088 121.774 86.2C121.526 86.312 121.314 86.464 121.138 86.656C120.962 86.848 120.826 87.076 120.73 87.34C120.642 87.596 120.598 87.876 120.598 88.18C120.598 88.476 120.642 88.756 120.73 89.02C120.826 89.284 120.962 89.516 121.138 89.716C121.314 89.908 121.526 90.06 121.774 90.172C122.022 90.284 122.302 90.34 122.614 90.34ZM130.374 91L128.562 85.372H129.474L130.902 89.848L132.558 85.36H133.302L134.946 89.86L136.362 85.372H137.274L135.402 91H134.526L132.906 86.548L131.25 91H130.374ZM140.78 91.12C140.372 91.12 139.988 91.052 139.628 90.916C139.276 90.772 138.968 90.572 138.704 90.316C138.44 90.052 138.232 89.744 138.08 89.392C137.928 89.032 137.852 88.636 137.852 88.204C137.852 87.772 137.928 87.376 138.08 87.016C138.232 86.656 138.44 86.348 138.704 86.092C138.968 85.828 139.276 85.624 139.628 85.48C139.988 85.336 140.372 85.264 140.78 85.264C141.188 85.264 141.572 85.336 141.932 85.48C142.292 85.624 142.604 85.828 142.868 86.092C143.132 86.348 143.34 86.656 143.492 87.016C143.644 87.376 143.72 87.772 143.72 88.204C143.72 88.636 143.644 89.032 143.492 89.392C143.34 89.744 143.132 90.052 142.868 90.316C142.604 90.572 142.292 90.772 141.932 90.916C141.572 91.052 141.188 91.12 140.78 91.12ZM140.78 90.34C141.092 90.34 141.372 90.284 141.62 90.172C141.876 90.06 142.088 89.908 142.256 89.716C142.432 89.516 142.568 89.284 142.664 89.02C142.76 88.756 142.808 88.476 142.808 88.18C142.808 87.876 142.76 87.596 142.664 87.34C142.568 87.076 142.432 86.848 142.256 86.656C142.088 86.464 141.876 86.312 141.62 86.2C141.372 86.088 141.092 86.032 140.78 86.032C140.468 86.032 140.188 86.088 139.94 86.2C139.692 86.312 139.48 86.464 139.304 86.656C139.128 86.848 138.992 87.076 138.896 87.34C138.808 87.596 138.764 87.876 138.764 88.18C138.764 88.476 138.808 88.756 138.896 89.02C138.992 89.284 139.128 89.516 139.304 89.716C139.48 89.908 139.692 90.06 139.94 90.172C140.188 90.284 140.468 90.34 140.78 90.34ZM145.046 85.372H145.934V86.332C146.07 85.988 146.262 85.724 146.51 85.54C146.766 85.356 147.05 85.264 147.362 85.264C147.458 85.264 147.542 85.268 147.614 85.276C147.686 85.284 147.75 85.296 147.806 85.312C147.862 85.328 147.914 85.344 147.962 85.36L147.902 86.2H147.866C147.77 86.16 147.666 86.132 147.554 86.116C147.442 86.1 147.342 86.092 147.254 86.092C147.126 86.092 147.006 86.112 146.894 86.152C146.79 86.192 146.698 86.24 146.618 86.296C146.538 86.344 146.47 86.396 146.414 86.452C146.366 86.508 146.33 86.552 146.306 86.584C146.194 86.744 146.102 86.928 146.03 87.136C145.966 87.344 145.934 87.66 145.934 88.084V91H145.046V85.372ZM148.951 82.72H149.839V91H148.951V82.72ZM156.026 90.028H156.014C155.806 90.364 155.522 90.632 155.162 90.832C154.802 91.024 154.382 91.12 153.902 91.12C153.47 91.12 153.086 91.048 152.75 90.904C152.422 90.752 152.142 90.548 151.91 90.292C151.686 90.028 151.514 89.72 151.394 89.368C151.274 89.008 151.214 88.616 151.214 88.192C151.214 87.776 151.278 87.392 151.406 87.04C151.534 86.68 151.718 86.368 151.958 86.104C152.198 85.84 152.486 85.636 152.822 85.492C153.158 85.34 153.534 85.264 153.95 85.264C154.382 85.264 154.774 85.36 155.126 85.552C155.486 85.736 155.77 85.996 155.978 86.332H156.002V82.72H156.89V91H156.026V90.028ZM154.082 90.352C154.394 90.352 154.67 90.296 154.91 90.184C155.15 90.072 155.354 89.916 155.522 89.716C155.69 89.516 155.814 89.284 155.894 89.02C155.982 88.756 156.026 88.472 156.026 88.168C156.026 87.864 155.982 87.58 155.894 87.316C155.814 87.052 155.69 86.824 155.522 86.632C155.354 86.44 155.15 86.292 154.91 86.188C154.67 86.076 154.394 86.02 154.082 86.02C153.77 86.02 153.494 86.076 153.254 86.188C153.014 86.292 152.81 86.44 152.642 86.632C152.474 86.824 152.346 87.052 152.258 87.316C152.17 87.572 152.126 87.852 152.126 88.156C152.126 88.46 152.17 88.748 152.258 89.02C152.346 89.284 152.474 89.516 152.642 89.716C152.81 89.908 153.014 90.064 153.254 90.184C153.494 90.296 153.77 90.352 154.082 90.352ZM159.133 82.72H160.057L159.973 88.912H159.205L159.133 82.72ZM160.273 90.472C160.273 90.664 160.209 90.82 160.081 90.94C159.953 91.06 159.789 91.12 159.589 91.12C159.389 91.12 159.225 91.06 159.097 90.94C158.969 90.82 158.905 90.664 158.905 90.472C158.905 90.264 158.969 90.1 159.097 89.98C159.225 89.86 159.389 89.8 159.589 89.8C159.789 89.8 159.953 89.86 160.081 89.98C160.209 90.1 160.273 90.264 160.273 90.472Z" fill="white"/>
<rect x="83.5" y="71.5" width="94" height="31" rx="7.5" stroke="#525296"/>
</g>
<defs>
<filter id="filter0_d_1803_73659" x="59" y="55" width="143" height="80" filterUnits="userSpaceOnUse" color-interpolation-filters="sRGB">
<feFlood flood-opacity="0" result="BackgroundImageFix"/>
<feColorMatrix in="SourceAlpha" type="matrix" values="0 0 0 0 0 0 0 0 0 0 0 0 0 0 0 0 0 0 127 0" result="hardAlpha"/>
<feOffset dy="8"/>
<feGaussianBlur stdDeviation="12"/>
<feColorMatrix type="matrix" values="0 0 0 0 0.246597 0 0 0 0 0.246597 0 0 0 0 0.441667 0 0 0 0.53 0"/>
<feBlend mode="normal" in2="BackgroundImageFix" result="effect1_dropShadow_1803_73659"/>
<feBlend mode="normal" in="SourceGraphic" in2="effect1_dropShadow_1803_73659" result="shape"/>
</filter>
</defs>
</svg>
