<svg viewBox="0 0 24 24" fill="none" xmlns="http://www.w3.org/2000/svg" stroke="currentColor"><path d="M20.5 13V13C21.0523 13 21.5 12.5523 21.5 12V4.5C21.5 3.39543 20.6046 2.5 19.5 2.5H8.5C7.39543 2.5 6.5 3.39543 6.5 4.5V9" stroke-linecap="round"/><path d="M7 4.5H21M7 6.5H20.9661" stroke-linecap="round"/><path d="M2.5 13C2.5 12.1716 3.17157 11.5 4 11.5H16C16.8284 11.5 17.5 12.1716 17.5 13V20C17.5 20.8284 16.8284 21.5 16 21.5H4C3.17157 21.5 2.5 20.8284 2.5 20V13Z"/><path d="M4.5 18.5H15.5" stroke-linecap="round" stroke-dasharray="0.5 1.5"/><rect x="4.5" y="13.5" width="2" height="2" rx="0.5"/></svg>
