<svg viewBox="0 0 32 32" fill="none" xmlns="http://www.w3.org/2000/svg" stroke="currentColor" width="1em" height="1em"><path d="M27.5 16.5V16.5C28.6046 16.5 29.5 15.6046 29.5 14.5V4.5C29.5 3.39543 28.6046 2.5 27.5 2.5H9.5C8.39543 2.5 7.5 3.39543 7.5 4.5V13" stroke-linecap="round"/><path d="M7.82141 5.5H29M7.5 8.5H29.5" stroke-linecap="round"/><path d="M2.5 17C2.5 16.1716 3.17157 15.5 4 15.5H23C23.8284 15.5 24.5 16.1716 24.5 17V28C24.5 28.8284 23.8284 29.5 23 29.5H4C3.17157 29.5 2.5 28.8284 2.5 28V17Z"/><path d="M4.5 23.5H9.5M17.5 23.5H22.5M12 23.5H15" stroke-linecap="round" stroke-dasharray="1 1.5"/><rect x="4.5" y="17.5" width="3" height="3" rx="0.5"/><path d="M4.5 26.5H11.7143" stroke-linecap="round"/><circle cx="21.5" cy="26.5" r="1"/></svg>
