<svg viewBox="0 0 32 32" fill="none" xmlns="http://www.w3.org/2000/svg" width="1em" height="1em"><path d="M27.5 16.5V16.5C28.6046 16.5 29.5 15.6046 29.5 14.5L29.5 4.5C29.5 3.39543 28.6046 2.5 27.5 2.5L9.5 2.5C8.39543 2.5 7.5 3.39543 7.5 4.5L7.5 13" stroke="currentColor" stroke-linecap="round"/><path d="M7.82141 5.5L29 5.5M7.5 8.5L29.5 8.5" stroke="currentColor" stroke-linecap="round"/><path d="M2.5 17C2.5 16.1716 3.17157 15.5 4 15.5L23 15.5C23.8284 15.5 24.5 16.1716 24.5 17L24.5 28C24.5 28.8284 23.8284 29.5 23 29.5L4 29.5C3.17157 29.5 2.5 28.8284 2.5 28L2.5 17Z" stroke="currentColor"/><path d="M4.5 23.5H9.5M17.5 23.5H22.5M12 23.5H15" stroke="currentColor" stroke-linecap="round" stroke-dasharray="1 1.5"/><rect x="4.5" y="17.5" width="3" height="3" rx="0.5" stroke="currentColor"/><path d="M4.5 26.5H11.7143" stroke="currentColor" stroke-linecap="round"/><circle cx="21.5" cy="26.5" r="1" stroke="currentColor"/></svg>
