<svg xmlns="http://www.w3.org/2000/svg" fill="none" viewBox="0 0 32 32" width="1em" height="1em"><path stroke="currentColor" stroke-linecap="round" d="M27.5 16.5v0a2 2 0 0 0 2-2v-10a2 2 0 0 0-2-2h-18a2 2 0 0 0-2 2V13m.321-7.5H29m-21.5 3h22"/><path stroke="currentColor" d="M2.5 17A1.5 1.5 0 0 1 4 15.5h19a1.5 1.5 0 0 1 1.5 1.5v11a1.5 1.5 0 0 1-1.5 1.5H4A1.5 1.5 0 0 1 2.5 28V17Z"/><path stroke="currentColor" stroke-dasharray="1 1.5" stroke-linecap="round" d="M4.5 23.5h5m8 0h5m-10.5 0h3"/><rect width="3" height="3" x="4.5" y="17.5" stroke="currentColor" rx=".5"/><path stroke="currentColor" stroke-linecap="round" d="M4.5 26.5h7.214"/><circle cx="21.5" cy="26.5" r="1" stroke="currentColor"/></svg>
