<svg viewBox="0 0 16 16" fill="none" xmlns="http://www.w3.org/2000/svg" stroke="currentColor"><path d="M13.5 8.5H14C14.2761 8.5 14.5 8.27614 14.5 8V2C14.5 1.72386 14.2761 1.5 14 1.5H5C4.72386 1.5 4.5 1.72386 4.5 2V5.21155" stroke-linecap="round"/><path d="M4.5 3.5L14.5 3.5" stroke-linecap="round"/><path d="M1.5 8C1.5 7.72386 1.72386 7.5 2 7.5H11C11.2761 7.5 11.5 7.72386 11.5 8V14C11.5 14.2761 11.2761 14.5 11 14.5H2C1.72386 14.5 1.5 14.2761 1.5 14V8Z"/><rect x="3" y="9" width="2" height="2" rx="0.5" fill="#282829"/><circle cx="9.5" cy="12.5" r="0.25" stroke-width="0.5"/></svg>