<svg xmlns="http://www.w3.org/2000/svg" fill="none" viewBox="0 0 24 24" width="1em" height="1em"><path stroke="currentColor" stroke-linecap="round" d="M20.5 13v0a1 1 0 0 0 1-1V4.5a2 2 0 0 0-2-2h-11a2 2 0 0 0-2 2V9M7 4.5h14m-14 2h13.966"/><path stroke="currentColor" d="M2.5 13A1.5 1.5 0 0 1 4 11.5h12a1.5 1.5 0 0 1 1.5 1.5v7a1.5 1.5 0 0 1-1.5 1.5H4A1.5 1.5 0 0 1 2.5 20v-7Z"/><path stroke="currentColor" stroke-dasharray="0.5 1.5" stroke-linecap="round" d="M4.5 18.5h11"/><rect width="2" height="2" x="4.5" y="13.5" stroke="currentColor" rx=".5"/></svg>
