<svg xmlns="http://www.w3.org/2000/svg" fill="none" viewBox="0 0 16 16" width="1em" height="1em"><path stroke="currentColor" stroke-linecap="round" d="M13.5 8.5h.5a.5.5 0 0 0 .5-.5V2a.5.5 0 0 0-.5-.5H5a.5.5 0 0 0-.5.5v3.212m0-1.712h10"/><path stroke="currentColor" d="M1.5 8a.5.5 0 0 1 .5-.5h9a.5.5 0 0 1 .5.5v6a.5.5 0 0 1-.5.5H2a.5.5 0 0 1-.5-.5V8Z"/><rect width="2" height="2" x="3" y="9" fill="currentColor" rx=".5"/><circle cx="9.5" cy="12.5" r=".25" stroke="currentColor" stroke-width=".5"/></svg>
