<svg xmlns="http://www.w3.org/2000/svg" fill="none" viewBox="0 0 32 32" width="1em" height="1em"><path stroke="currentColor" stroke-linecap="round" d="M5.5 27.444V26.5a2 2 0 0 1 2-2h3"/><path stroke="currentColor" stroke-linecap="round" stroke-linejoin="round" d="M11.5 20.5a2 2 0 1 1-4 0 2 2 0 0 1 4 0Z"/><path stroke="currentColor" stroke-linecap="round" d="M26.5 27.444V26.5a2 2 0 0 0-2-2h-2.944"/><path stroke="currentColor" stroke-linecap="round" stroke-linejoin="round" d="M20.5 20.5a2 2 0 1 0 4 0 2 2 0 0 0-4 0Z"/><path stroke="currentColor" stroke-linecap="round" d="M11.5 29.5v-1a2 2 0 0 1 2-2h5a2 2 0 0 1 2 2v1"/><path stroke="currentColor" stroke-linecap="round" stroke-linejoin="round" d="M18.5 21a2.5 2.5 0 1 1-5 0 2.5 2.5 0 0 1 5 0ZM15 14.5a1 1 0 1 0 2 0"/><path stroke="currentColor" d="M19.5 8.55a3.56 3.56 0 0 1-1.391 2.833c-.28.215-.578.483-.796.837l-.044.072a1.49 1.49 0 0 1-2.538 0l-.044-.072c-.218-.354-.516-.622-.796-.837A3.56 3.56 0 0 1 12.5 8.55C12.5 6.584 14.073 5 16 5s3.5 1.584 3.5 3.55Z"/><path stroke="currentColor" stroke-linecap="round" d="M10.5 7.5H10M11.5 5l-.5-.5m11 3h-.5m-.5-3-.5.5M16 3.5V3"/></svg>
