<svg xmlns="http://www.w3.org/2000/svg" fill="none" viewBox="0 0 24 26" width="1em" height="1em"><path stroke="currentColor" stroke-linecap="round" d="M15.943 22.114v0a2.057 2.057 0 0 0-2.057-2.057H10.8a2.057 2.057 0 0 0-2.057 2.057v0"/><circle cx="12.343" cy="15.943" r="2.071" stroke="currentColor"/><path stroke="currentColor" stroke-linecap="round" d="M7.2 20.057H5.657A2.057 2.057 0 0 0 3.6 22.114v0"/><circle cx="6.171" cy="16.457" r="1.557" stroke="currentColor"/><path stroke="currentColor" stroke-linecap="round" d="M17.486 20.057h1.543c1.136 0 2.057.921 2.057 2.057v0"/><circle cx="2" cy="2" r="1.5" stroke="currentColor" transform="matrix(-1.02857 0 0 1.02857 20.571 14.4)"/><path stroke="currentColor" d="M14.914 7.239a2.62 2.62 0 0 1-.833 1.923c-.333.31-.717.712-.912 1.247l-.16.438a.71.71 0 0 1-1.333 0l-.16-.438c-.194-.535-.578-.937-.91-1.247A2.62 2.62 0 0 1 9.77 7.24c0-1.448 1.158-2.61 2.572-2.61s2.571 1.162 2.571 2.61Z"/><path stroke="currentColor" stroke-linecap="round" d="M7.629 7.714H7.2m1.286-3.428-.429-.429m9.429 3.857h-.429m-.428-3.857-.43.429M12.343 3v-.43"/></svg>
