<svg xmlns="http://www.w3.org/2000/svg" fill="none" viewBox="0 0 16 16" width="1em" height="1em"><path stroke="currentColor" stroke-linecap="round" d="M12.5 13.5h1a1 1 0 0 1 1 1v0"/><circle cx="1" cy="1" r=".5" stroke="currentColor" transform="matrix(-1 0 0 1 13 10)"/><path stroke="currentColor" stroke-linecap="round" d="M3.5 13.5h-1a1 1 0 0 0-1 1v0"/><circle cx="4" cy="11" r=".5" stroke="currentColor"/><path stroke="currentColor" stroke-linecap="round" d="M10.5 14.333v0c0-1.012-.82-1.833-1.833-1.833H7.333c-1.012 0-1.833.82-1.833 1.833v0"/><circle cx="8" cy="9.75" r="1.25" stroke="currentColor"/><path stroke="currentColor" stroke-linecap="round" stroke-linejoin="round" d="M7.619 6.25c0 .21.168.381.375.381s.375-.17.375-.381"/><path stroke="currentColor" d="m7.584 4.837-.02-.033a1.939 1.939 0 0 0-.47-.506l-.31.392.31-.392a1.575 1.575 0 0 1-.594-1.24C6.5 2.183 7.185 1.5 8 1.5s1.5.684 1.5 1.557c0 .51-.234.957-.593 1.24a1.937 1.937 0 0 0-.47.507l.381.232-.382-.232-.02.033a.487.487 0 0 1-.832 0Z"/></svg>
