<svg xmlns="http://www.w3.org/2000/svg" fill="none" viewBox="0 0 32 34" width="1em" height="1em"><path stroke="currentColor" stroke-linecap="round" d="M5.395 29.16v-1.11c0-1.115.904-2.018 2.018-2.018H10.3"/><path stroke="currentColor" stroke-linecap="round" stroke-linejoin="round" d="M11.267 21.781c0 1.228-.91 2.152-1.948 2.152s-1.948-.924-1.948-2.152c0-1.227.91-2.151 1.948-2.151 1.039 0 1.948.924 1.948 2.151"/><path stroke="currentColor" stroke-linecap="round" d="M25.996 29.16v-1.11a2.02 2.02 0 0 0-2.018-2.018h-2.833"/><path stroke="currentColor" stroke-linecap="round" stroke-linejoin="round" d="M20.124 21.781c0 1.228.91 2.152 1.948 2.152s1.948-.924 1.948-2.152c0-1.227-.91-2.151-1.948-2.151-1.039 0-1.948.924-1.948 2.151"/><path stroke="currentColor" stroke-linecap="round" d="M11.281 31.344v-1.17c0-1.114.904-2.018 2.018-2.018h4.793c1.114 0 2.018.904 2.018 2.018v1.17"/><path stroke="currentColor" stroke-linecap="round" stroke-linejoin="round" d="M18.134 22.313c0 1.52-1.129 2.683-2.438 2.683s-2.439-1.163-2.439-2.683 1.129-2.683 2.439-2.683 2.438 1.162 2.438 2.683m-3.419-6.907c0 .587.439 1.063.98 1.063.542 0 .982-.476.982-1.063"/><path stroke="currentColor" d="M19.115 9.085c0 1.254-.547 2.356-1.374 3.043-.273.227-.563.507-.77.871l-.085.148a1.37 1.37 0 0 1-2.381 0L14.42 13l-.439.25.439-.25c-.208-.364-.498-.644-.77-.87-.828-.688-1.375-1.79-1.375-3.044 0-2.143 1.574-3.8 3.42-3.8s3.419 1.657 3.419 3.8Z"/><path stroke="currentColor" stroke-linecap="round" d="M10.3 7.969h-.49m1.471-2.656-.49-.532m10.79 3.188h-.49M20.6 4.781l-.49.532m-4.414-1.594v-.532"/></svg>
