<svg xmlns="http://www.w3.org/2000/svg" fill="none" viewBox="0 0 24 24" width="1em" height="1em"><path stroke="currentColor" stroke-linecap="round" d="M15.5 21.5v0a2 2 0 0 0-2-2h-3a2 2 0 0 0-2 2v0"/><circle cx="12" cy="15.5" r="2" stroke="currentColor"/><path stroke="currentColor" stroke-linecap="round" d="M7 19.5H5.5a2 2 0 0 0-2 2v0"/><circle cx="6" cy="16" r="1.5" stroke="currentColor"/><path stroke="currentColor" stroke-linecap="round" d="M17 19.5h1.5a2 2 0 0 1 2 2v0"/><circle cx="2" cy="2" r="1.5" stroke="currentColor" transform="matrix(-1 0 0 1 20 14)"/><path stroke="currentColor" d="M14.5 7.037c0 .742-.313 1.407-.81 1.87-.324.302-.697.693-.886 1.213l-.155.426a.69.69 0 0 1-1.298 0l-.155-.426c-.189-.52-.562-.91-.885-1.212a2.547 2.547 0 0 1-.811-1.87C9.5 5.63 10.625 4.5 12 4.5s2.5 1.13 2.5 2.537Z"/><path stroke="currentColor" stroke-linecap="round" d="M7.417 7.5H7m1.25-3.333-.417-.417M17 7.5h-.417m-.416-3.75-.417.417M12 2.917V2.5"/></svg>
