<svg xmlns="http://www.w3.org/2000/svg" fill="none" viewBox="0 0 16 17" width="1em" height="1em"><path stroke="currentColor" stroke-linecap="round" d="M12.262 14.344h.9c.586 0 1.062.475 1.062 1.062v0"/><mask id="iconsThoughtLeadershipSize16Px__a" fill="#fff"><ellipse cx=".972" cy="1.053" rx=".972" ry="1.053" transform="matrix(-1.00898 0 0 1.00898 12.752 10.625)"/></mask><path fill="currentColor" d="M11.8 11.687c0 .04.014.062.02.067q.003.004-.01-.005a.1.1 0 0 0-.039-.008v2.018c-1.173 0-1.99-1.005-1.99-2.072zm-.029.054a.1.1 0 0 0-.038.008q-.013.008-.01.005c.006-.005.02-.026.02-.067h2.018c0 1.067-.816 2.072-1.99 2.072zm-.028-.054c0-.04-.014-.061-.02-.066q-.003-.004.01.005.016.007.038.008V9.616c1.174 0 1.99 1.005 1.99 2.071zm.028-.053a.1.1 0 0 0 .039-.008q.013-.008.01-.005c-.006.005-.02.026-.02.066H9.782c0-1.066.816-2.071 1.99-2.071z" mask="url(#iconsThoughtLeadershipSize16Px__a)"/><path stroke="currentColor" stroke-linecap="round" d="M3.433 14.344h-.9c-.586 0-1.062.475-1.062 1.062v0"/><mask id="iconsThoughtLeadershipSize16Px__b" fill="#fff"><ellipse cx="3.924" cy="11.687" rx=".981" ry="1.062"/></mask><path fill="currentColor" d="M3.896 11.687c0 .04-.015.062-.02.067q-.004.004.01-.005a.1.1 0 0 1 .038-.008v2.018c1.173 0 1.99-1.005 1.99-2.072zm.028.054q.022 0 .038.008l.01.005c-.005-.005-.02-.026-.02-.067H1.934c0 1.067.816 2.072 1.99 2.072zm.028-.054c0-.04.015-.061.02-.066q.004-.004-.01.005a.1.1 0 0 1-.038.008V9.616c-1.174 0-1.99 1.005-1.99 2.071zm-.028-.053a.1.1 0 0 1-.039-.008l-.009-.005c.005.005.02.026.02.066h2.018c0-1.066-.817-2.071-1.99-2.071z" mask="url(#iconsThoughtLeadershipSize16Px__b)"/><path stroke="currentColor" stroke-linecap="round" d="M10.3 15.23v0a1.95 1.95 0 0 0-1.948-1.949H7.343a1.95 1.95 0 0 0-1.948 1.948v0"/><path stroke="currentColor" d="M9.06 10.36c0 .786-.58 1.354-1.212 1.354-.633 0-1.213-.568-1.213-1.355s.58-1.355 1.213-1.355c.632 0 1.212.568 1.212 1.355Z"/><path stroke="currentColor" stroke-linecap="round" stroke-linejoin="round" d="M7.474 6.64c0 .224.165.405.368.405s.368-.18.368-.404"/><path stroke="currentColor" d="m8.259 5.127.44.247-.44-.247-.04.07a.426.426 0 0 1-.743 0l-.04-.07c-.128-.23-.306-.4-.454-.527-.352-.3-.592-.787-.592-1.352 0-.98.703-1.68 1.458-1.68s1.457.7 1.457 1.68c0 .565-.24 1.051-.591 1.352a2 2 0 0 0-.455.527Z"/></svg>
