<svg xmlns="http://www.w3.org/2000/svg" fill="none" viewBox="0 0 16 16" width="1em" height="1em"><path stroke="currentColor" d="M13.5 11.46a1.049 1.049 0 0 1-1.047 1.04H3.547A1.049 1.049 0 0 1 2.5 11.46a1.023 1.023 0 0 1 .432-.843c.068-.048.14-.086.243-.141l.025-.013c.105-.056.251-.134.386-.247.316-.267.482-.647.48-1.206-.011-1.89.35-3.27 1.005-4.165C5.706 3.976 6.665 3.5 8.026 3.5c1.36 0 2.304.475 2.927 1.342.643.894.992 2.274.982 4.168-.003.56.162.94.48 1.206.134.113.28.19.385.247l.025.013c.104.055.175.093.243.14.264.188.434.496.432.845Z"/><path stroke="currentColor" stroke-linecap="round" stroke-linejoin="round" d="M9.558 14c-.396.309-.948.5-1.558.5-.61 0-1.162-.191-1.558-.5m2.42-12A.917.917 0 0 0 7.23 2"/></svg>
