<svg xmlns="http://www.w3.org/2000/svg" fill="none" viewBox="0 0 32 32" width="1em" height="1em"><path stroke="currentColor" d="M28.5 22.77c-.01 1.493-1.272 2.73-2.852 2.73H6.352c-1.58 0-2.842-1.237-2.852-2.73a2.67 2.67 0 0 1 1.175-2.219c.18-.124.368-.22.584-.331l.061-.031a4 4 0 0 0 .735-.453c.248-.202.466-.462.618-.821.148-.353.22-.776.218-1.291-.022-4.024.768-7.054 2.287-9.068C10.68 6.566 12.946 5.5 16.056 5.5s5.346 1.065 6.82 3.052c1.492 2.014 2.255 5.045 2.233 9.072-.003.515.07.938.218 1.29.151.36.37.62.618.822.24.195.505.335.735.453l.06.03c.217.112.405.208.585.332a2.67 2.67 0 0 1 1.175 2.22Z"/><path stroke="currentColor" stroke-linecap="round" stroke-linejoin="round" d="M19.355 27a3.502 3.502 0 0 1-6.71 0m5.292-23A1.995 1.995 0 0 0 16 2.5 1.995 1.995 0 0 0 14.063 4"/></svg>
