<svg xmlns="http://www.w3.org/2000/svg" fill="none" viewBox="0 0 24 24" width="1em" height="1em"><path stroke="currentColor" d="M20.5 16.693a1.823 1.823 0 0 1-1.82 1.807H5.32c-.998 0-1.814-.81-1.82-1.807a1.784 1.784 0 0 1 .753-1.472 3.399 3.399 0 0 1 .43-.248c.158-.084.356-.19.535-.341.406-.341.634-.833.63-1.615-.016-2.862.53-4.993 1.557-6.397C8.412 5.242 9.93 4.5 12.039 4.5c2.107 0 3.605.742 4.593 2.117 1.009 1.403 1.536 3.535 1.52 6.4-.004.782.224 1.274.63 1.615a2.975 2.975 0 0 0 .576.363c.152.08.273.144.39.226.459.327.756.864.752 1.472Z"/><path stroke="currentColor" stroke-linecap="round" stroke-linejoin="round" d="M14.292 20a2.5 2.5 0 0 1-4.584 0m3.685-16.782a1.388 1.388 0 0 0-1.234-.756 1.381 1.381 0 0 0-1.233.756"/></svg>
