<svg xmlns="http://www.w3.org/2000/svg" fill="none" viewBox="0 0 24 24" width="1em" height="1em"><path stroke="currentColor" stroke-linejoin="round" d="M17.5 4v1.361a.5.5 0 0 1-.14.347l-5.44 5.655a1.5 1.5 0 0 0-.42 1.04V20a.5.5 0 0 1-.5.5H9a.5.5 0 0 1-.5-.5v-7.597a1.5 1.5 0 0 0-.42-1.04L2.64 5.708a.5.5 0 0 1-.14-.347V4a.5.5 0 0 1 .5-.5h14a.5.5 0 0 1 .5.5Z"/><path stroke="currentColor" d="M3 5.5h14"/><path stroke="currentColor" stroke-linecap="round" d="m15.121 15.121 4.243 4.243m-4.243 0 4.243-4.243"/></svg>
