<svg xmlns="http://www.w3.org/2000/svg" fill="none" viewBox="0 0 16 16" width="1em" height="1em"><path stroke="currentColor" stroke-linejoin="round" d="M8.832 7.179a1.174 1.174 0 0 0-.332.82v5.338c0 .105-.078.163-.143.163H5.643c-.065 0-.143-.058-.143-.163v-5.34a1.174 1.174 0 0 0-.332-.818L1.539 3.677a.175.175 0 0 1-.039-.112v-.902c0-.105.078-.163.143-.163h10.714c.065 0 .143.058.143.163v.902a.175.175 0 0 1-.04.112L8.832 7.179Z"/><path stroke="currentColor" stroke-linecap="round" d="m10.414 9.414 2.829 2.828m-2.829 0 2.829-2.828"/></svg>
