<svg xmlns="http://www.w3.org/2000/svg" fill="none" viewBox="0 0 24 24" width="1em" height="1em"><path stroke="currentColor" d="M8.5 5A1.5 1.5 0 0 1 10 3.5h10A1.5 1.5 0 0 1 21.5 5v6a1.5 1.5 0 0 1-1.5 1.5H10A1.5 1.5 0 0 1 8.5 11z"/><path stroke="currentColor" stroke-linecap="round" stroke-linejoin="round" d="M13.5 6.5a1 1 0 1 1-2 0 1 1 0 0 1 2 0"/><path stroke="currentColor" stroke-linecap="round" d="M11 11v-1a1 1 0 0 1 1-1h1a1 1 0 0 1 1 1v1m2.5-5.5h3m-3 2h3"/><path stroke="currentColor" stroke-linecap="round" d="M5.5 4.5h-1a2 2 0 0 0-2 2v8a2 2 0 0 0 2 2h13a2 2 0 0 0 2-2v0"/><path stroke="currentColor" d="M11 17v3"/><path stroke="currentColor" stroke-linecap="round" d="M6.5 20.5h9"/></svg>
