<svg xmlns="http://www.w3.org/2000/svg" fill="none" viewBox="0 0 32 32" width="1em" height="1em"><path stroke="currentColor" stroke-linecap="round" stroke-linejoin="round" d="M8.5 29.5h14"/><path stroke="currentColor" stroke-linecap="round" d="M7.5 6.5h-3a2 2 0 0 0-2 2v14a2 2 0 0 0 2 2h23a2 2 0 0 0 2-2v-2"/><path stroke="currentColor" d="M16 24.5v5"/><path stroke="currentColor" stroke-linecap="round" stroke-linejoin="round" d="M10.5 5A1.5 1.5 0 0 1 12 3.5h16A1.5 1.5 0 0 1 29.5 5v10a1.5 1.5 0 0 1-1.5 1.5H12a1.5 1.5 0 0 1-1.5-1.5z"/><circle cx="16.5" cy="7.5" r="2" stroke="currentColor"/><path stroke="currentColor" stroke-linecap="round" d="M13.5 14.5v-1a2 2 0 0 1 2-2h2a2 2 0 0 1 2 2v1m1.5-8h6m-6 2h6m-6 2h6"/></svg>
