<svg xmlns="http://www.w3.org/2000/svg" fill="none" viewBox="0 0 16 16" width="1em" height="1em"><rect width="9" height="6" x="5.5" y="1.5" stroke="currentColor" rx="1.5"/><path fill="currentColor" d="M10 5a1 1 0 1 0 0-2 1 1 0 0 0 0 2Z"/><path stroke="currentColor" stroke-linecap="round" d="M8.5 7v0a1 1 0 0 1 1-1h1a1 1 0 0 1 1 1v0"/><path stroke="currentColor" stroke-linecap="round" stroke-linejoin="round" d="M4 3.5h-.5a2 2 0 0 0-2 2v4a2 2 0 0 0 2 2h9a2 2 0 0 0 2-2V9"/><path stroke="currentColor" stroke-linecap="round" d="M5.5 14.5h5"/><path stroke="currentColor" d="M8 12v2"/></svg>
