<svg viewBox="0 0 24 24" fill="none" xmlns="http://www.w3.org/2000/svg" width="1em" height="1em"><path d="M8.5 5C8.5 4.17157 9.17157 3.5 10 3.5L20 3.5C20.8284 3.5 21.5 4.17157 21.5 5V11C21.5 11.8284 20.8284 12.5 20 12.5L10 12.5C9.17157 12.5 8.5 11.8284 8.5 11L8.5 5Z" stroke="currentColor"/><path d="M13.5 6.5C13.5 7.05228 13.0523 7.5 12.5 7.5C11.9477 7.5 11.5 7.05228 11.5 6.5C11.5 5.94772 11.9477 5.5 12.5 5.5C13.0523 5.5 13.5 5.94772 13.5 6.5Z" stroke="currentColor" stroke-linecap="round" stroke-linejoin="round"/><path d="M11 11V10C11 9.44772 11.4477 9 12 9H13C13.5523 9 14 9.44759 14 9.99987C14 10.3353 14 10.6999 14 11" stroke="currentColor" stroke-linecap="round"/><line x1="16.5" y1="5.5" x2="19.5" y2="5.5" stroke="currentColor" stroke-linecap="round"/><line x1="16.5" y1="7.5" x2="19.5" y2="7.5" stroke="currentColor" stroke-linecap="round"/><path d="M5.5 4.5L4.5 4.5C3.39543 4.5 2.5 5.39543 2.5 6.5L2.5 14.5C2.5 15.6046 3.39543 16.5 4.5 16.5H17.5C18.6046 16.5 19.5 15.6046 19.5 14.5V14.5" stroke="currentColor" stroke-linecap="round"/><line x1="11" y1="17" x2="11" y2="20" stroke="currentColor"/><line x1="6.5" y1="20.5" x2="15.5" y2="20.5" stroke="currentColor" stroke-linecap="round"/></svg>
