<svg xmlns="http://www.w3.org/2000/svg" fill="none" viewBox="0 0 16 16" width="1em" height="1em"><path stroke="currentColor" stroke-linecap="round" d="M10.37 1.5a1.5 1.5 0 0 1 1.113.494l2.63 2.906a1.5 1.5 0 0 1 .387 1.007v3.976a1.5 1.5 0 0 1-.36.975l-2.664 3.117a1.5 1.5 0 0 1-1.14.525H5.728a1.5 1.5 0 0 1-1.13-.514l-2.729-3.128-.376.328.376-.328a1.5 1.5 0 0 1-.369-.986V5.918c0-.377.142-.74.398-1.017l2.694-2.918A1.5 1.5 0 0 1 5.694 1.5zM8 9V4.5"/><rect width=".5" height=".5" x="8.25" y="11.75" stroke="currentColor" stroke-width=".5" rx=".25" transform="rotate(-180 8.25 11.75)"/></svg>
