<svg xmlns="http://www.w3.org/2000/svg" fill="none" viewBox="0 0 32 32" width="1em" height="1em"><path stroke="currentColor" stroke-linecap="round" d="M21.628 2.5a1.5 1.5 0 0 1 1.112.494l6.372 7.043a1.5 1.5 0 0 1 .388 1.006v9.462a1.5 1.5 0 0 1-.36.974l-6.406 7.496a1.5 1.5 0 0 1-1.14.525H10.546a1.5 1.5 0 0 1-1.13-.514l-6.547-7.507a1.5 1.5 0 0 1-.369-.986v-9.438c0-.377.142-.74.398-1.018L9.41 2.983a1.5 1.5 0 0 1 1.102-.483h11.116ZM16 20.5v-14"/><path stroke="currentColor" stroke-linecap="round" stroke-linejoin="round" d="M16 24.5v1"/></svg>
