<svg viewBox="0 0 24 24" fill="none" xmlns="http://www.w3.org/2000/svg" width="1em" height="1em"><path d="M2.5 10C2.5 9.17157 3.17157 8.5 4 8.5L20 8.5C20.8284 8.5 21.5 9.17157 21.5 10L21.5 20C21.5 20.8285 20.8284 21.5 20 21.5L4 21.5C3.17157 21.5 2.5 20.8285 2.5 20L2.5 10Z" stroke="currentColor"/><path d="M2 12.5L22 12.5" stroke="currentColor"/><path d="M5.5 8.1484L5.5 2.49976" stroke="currentColor" stroke-linecap="round"/><path d="M18.5 16.5C18.5 17.6046 17.6046 18.5 16.5 18.5C15.3954 18.5 14.5 17.6046 14.5 16.5C14.5 15.3954 15.3954 14.5 16.5 14.5C17.6046 14.5 18.5 15.3954 18.5 16.5Z" stroke="currentColor" stroke-linecap="round"/><path d="M5.5 15.5L11.5 15.5M5.5 18.5H11.5" stroke="currentColor" stroke-linecap="round"/></svg>
