<svg viewBox="0 0 24 24" fill="none" xmlns="http://www.w3.org/2000/svg" width="1em" height="1em"><path d="M2.5 10.0001C2.5 9.17166 3.17157 8.50009 4 8.50009H20C20.8284 8.50009 21.5 9.17166 21.5 10.0001V20.0001C21.5 20.8286 20.8284 21.5001 20 21.5001H4C3.17157 21.5001 2.5 20.8286 2.5 20.0001V10.0001Z" stroke="currentColor"/><path d="M2 12.5001H22" stroke="currentColor"/><path d="M5.5 8.14862V2.49997" stroke="currentColor" stroke-linecap="round"/><path d="M18.5 16.5001C18.5 17.6047 17.6046 18.5001 16.5 18.5001C15.3954 18.5001 14.5 17.6047 14.5 16.5001C14.5 15.3955 15.3954 14.5001 16.5 14.5001C17.6046 14.5001 18.5 15.3955 18.5 16.5001Z" stroke="currentColor" stroke-linecap="round"/><path d="M5.5 15.5001H11.5M5.5 18.5001H11.5" stroke="currentColor" stroke-linecap="round"/></svg>
