<svg xmlns="http://www.w3.org/2000/svg" fill="none" viewBox="0 0 24 24" width="1em" height="1em"><path stroke="currentColor" stroke-miterlimit="10" d="M21.034 10.546h-.952a8.088 8.088 0 0 0-.977-2.369l.66-.659a.472.472 0 0 0 0-.684l-2.076-2.076a.472.472 0 0 0-.684 0l-.66.66a8.087 8.087 0 0 0-2.368-.977v-.953A.49.49 0 0 0 13.489 3h-2.93a.49.49 0 0 0-.489.488v.953a8.086 8.086 0 0 0-2.369.977l-.683-.66a.472.472 0 0 0-.684 0L4.258 6.834a.472.472 0 0 0 0 .684l.66.66a8.088 8.088 0 0 0-.977 2.368h-.953a.49.49 0 0 0-.488.489v2.93c0 .269.22.489.488.489h.953a8.08 8.08 0 0 0 .977 2.369l-.66.659a.472.472 0 0 0 0 .684l2.076 2.076a.472.472 0 0 0 .684 0l.659-.66c.732.44 1.514.782 2.369.977v.953c0 .268.22.488.488.488h2.93a.49.49 0 0 0 .489-.488v-.953a8.084 8.084 0 0 0 2.368-.977l.66.66a.472.472 0 0 0 .683 0l2.076-2.076a.472.472 0 0 0 0-.684l-.66-.66c.44-.732.782-1.513.977-2.368h.953a.49.49 0 0 0 .488-.489v-2.93a.455.455 0 0 0-.464-.489Z"/><circle cx="12" cy="12.5" r="5.042" stroke="currentColor"/></svg>
