<svg viewBox="0 0 34 34" fill="none" xmlns="http://www.w3.org/2000/svg" width="1em" height="1em"><path d="M28.8871 14.4293H27.634C27.3769 13.3046 26.9271 12.2763 26.3488 11.3123L27.2163 10.4447C27.4733 10.1877 27.4733 9.80206 27.2163 9.54499L24.4852 6.81362C24.2281 6.55656 23.8426 6.55656 23.5855 6.81362L22.718 7.68123C21.7541 7.10283 20.7259 6.65296 19.6014 6.39589V5.14267C19.6014 4.7892 19.3122 4.5 18.9587 4.5H15.1031C14.7496 4.5 14.4605 4.7892 14.4605 5.14267V6.39589C13.3359 6.65296 12.3077 7.10283 11.3438 7.68123L10.4441 6.81362C10.1871 6.55656 9.80154 6.55656 9.54449 6.81362L6.8134 9.54499C6.55635 9.80206 6.55635 10.1877 6.8134 10.4447L7.68092 11.3123C7.10257 12.2763 6.65275 13.3046 6.3957 14.4293H5.14261C4.78917 14.4293 4.5 14.7185 4.5 15.072V18.928C4.5 19.2815 4.78917 19.5707 5.14261 19.5707H6.3957C6.65275 20.6954 7.10257 21.7236 7.68092 22.6877L6.8134 23.5553C6.55635 23.8123 6.55635 24.1979 6.8134 24.455L9.54449 27.1864C9.80154 27.4434 10.1871 27.4434 10.4441 27.1864L11.3117 26.3188C12.2756 26.8972 13.3038 27.347 14.4283 27.6041V28.8573C14.4283 29.2108 14.7175 29.5 15.0709 29.5H18.9266C19.28 29.5 19.5692 29.2108 19.5692 28.8573V27.6041C20.6938 27.347 21.722 26.8972 22.6859 26.3188L23.5534 27.1864C23.8105 27.4434 24.196 27.4434 24.4531 27.1864L27.1842 24.455C27.4412 24.1979 27.4412 23.8123 27.1842 23.5553L26.3166 22.6877C26.895 21.7236 27.3448 20.6954 27.6019 19.5707H28.8549C29.2084 19.5707 29.4976 19.2815 29.4976 18.928V15.072C29.5297 14.7185 29.2405 14.4293 28.8871 14.4293Z" stroke="currentColor" stroke-miterlimit="10"/><circle cx="17" cy="17" r="6.79167" stroke="currentColor"/><circle cx="17" cy="17" r="4.5" stroke="currentColor"/></svg>
