<svg viewBox="0 0 16 16" fill="none" xmlns="http://www.w3.org/2000/svg" width="1em" height="1em"><path d="M12.2793 7.07455H11.8282C11.7357 6.66967 11.5738 6.29949 11.3656 5.95244L11.6779 5.6401C11.7704 5.54756 11.7704 5.40874 11.6779 5.3162L10.6947 4.3329C10.6021 4.24036 10.4633 4.24036 10.3708 4.3329L10.0585 4.64524C9.71147 4.43702 9.34133 4.27506 8.93649 4.18252V3.73136C8.93649 3.60411 8.83238 3.5 8.70515 3.5H7.31711C7.18987 3.5 7.08577 3.60411 7.08577 3.73136V4.18252C6.68092 4.27506 6.31078 4.43702 5.96377 4.64524L5.63989 4.3329C5.54736 4.24036 5.40855 4.24036 5.31602 4.3329L4.33282 5.3162C4.24029 5.40874 4.24029 5.54756 4.33282 5.6401L4.64513 5.95244C4.43693 6.29949 4.27499 6.66967 4.18245 7.07455H3.73134C3.6041 7.07455 3.5 7.17866 3.5 7.30591V8.69409C3.5 8.82134 3.6041 8.92545 3.73134 8.92545H4.18245C4.27499 9.33033 4.43693 9.70051 4.64513 10.0476L4.33282 10.3599C4.24029 10.4524 4.24029 10.5913 4.33282 10.6838L5.31602 11.6671C5.40855 11.7596 5.54736 11.7596 5.63989 11.6671L5.9522 11.3548C6.29921 11.563 6.66936 11.7249 7.0742 11.8175V12.2686C7.0742 12.3959 7.1783 12.5 7.30554 12.5H8.69358C8.82082 12.5 8.92492 12.3959 8.92492 12.2686V11.8175C9.32976 11.7249 9.69991 11.563 10.0469 11.3548L10.3592 11.6671C10.4518 11.7596 10.5906 11.7596 10.6831 11.6671L11.6663 10.6838C11.7588 10.5913 11.7588 10.4524 11.6663 10.3599L11.354 10.0476C11.5622 9.70051 11.7241 9.33033 11.8167 8.92545H12.2678C12.395 8.92545 12.4991 8.82134 12.4991 8.69409V7.30591C12.5107 7.17866 12.4066 7.07455 12.2793 7.07455Z" stroke="currentColor" stroke-miterlimit="10"/><path d="M9.5 8.0002C9.5 8.82878 8.82838 9.50039 8 9.50039C7.17162 9.50039 6.5 8.82878 6.5 8.0002C6.5 7.17161 7.17162 6.5 8 6.5C8.82838 6.5 9.5 7.17161 9.5 8.0002Z" stroke="currentColor"/></svg>
