<svg viewBox="0 0 24 24" fill="none" xmlns="http://www.w3.org/2000/svg" stroke="currentColor"><path d="M21.0342 10.0463H20.0818C19.8865 9.19152 19.5446 8.41003 19.1051 7.67738L19.7644 7.01799C19.9597 6.82262 19.9597 6.52956 19.7644 6.33419L17.6887 4.25835C17.4934 4.06298 17.2004 4.06298 17.005 4.25835L16.3457 4.91774C15.6131 4.47815 14.8317 4.13625 13.977 3.94087V2.98843C13.977 2.71979 13.7573 2.5 13.4886 2.5H10.5583C10.2897 2.5 10.07 2.71979 10.07 2.98843V3.94087C9.21528 4.13625 8.43387 4.47815 7.70129 4.91774L7.01755 4.25835C6.8222 4.06298 6.52917 4.06298 6.33382 4.25835L4.25818 6.33419C4.06283 6.52956 4.06283 6.82262 4.25818 7.01799L4.9175 7.67738C4.47796 8.41003 4.13609 9.19152 3.94073 10.0463H2.98838C2.71977 10.0463 2.5 10.2661 2.5 10.5347V13.4653C2.5 13.7339 2.71977 13.9537 2.98838 13.9537H3.94073C4.13609 14.8085 4.47796 15.59 4.9175 16.3226L4.25818 16.982C4.06283 17.1774 4.06283 17.4704 4.25818 17.6658L6.33382 19.7416C6.52917 19.937 6.8222 19.937 7.01755 19.7416L7.67687 19.0823C8.40945 19.5219 9.19086 19.8638 10.0455 20.0591V21.0116C10.0455 21.2802 10.2653 21.5 10.5339 21.5H13.4642C13.7328 21.5 13.9526 21.2802 13.9526 21.0116V20.0591C14.8073 19.8638 15.5887 19.5219 16.3213 19.0823L16.9806 19.7416C17.1759 19.937 17.469 19.937 17.6643 19.7416L19.74 17.6658C19.9353 17.4704 19.9353 17.1774 19.74 16.982L19.0806 16.3226C19.5202 15.59 19.8621 14.8085 20.0574 13.9537H21.0098C21.2784 13.9537 21.4981 13.7339 21.4981 13.4653V10.5347C21.5226 10.2661 21.3028 10.0463 21.0342 10.0463Z" stroke-miterlimit="10"/><circle cx="12" cy="12" r="5.04167"/></svg>