<svg xmlns="http://www.w3.org/2000/svg" fill="none" viewBox="0 0 16 16" width="1em" height="1em"><path stroke="currentColor" stroke-miterlimit="10" d="M14.181 6.663h-.651a5.5 5.5 0 0 0-.669-1.62l.451-.452a.323.323 0 0 0 0-.468l-1.42-1.42a.323.323 0 0 0-.467 0l-.452.451a5.5 5.5 0 0 0-1.62-.668v-.652a.335.335 0 0 0-.334-.334H7.014a.335.335 0 0 0-.335.334v.652a5.5 5.5 0 0 0-1.62.668l-.468-.45a.323.323 0 0 0-.468 0l-1.42 1.42a.323.323 0 0 0 0 .467l.451.451a5.5 5.5 0 0 0-.668 1.621h-.652a.335.335 0 0 0-.334.334v2.006c0 .183.15.334.334.334h.652c.133.585.367 1.12.668 1.62l-.451.452a.323.323 0 0 0 0 .468l1.42 1.42a.323.323 0 0 0 .468 0l.451-.451c.501.3 1.036.534 1.62.668v.652c0 .184.151.334.335.334h2.005c.184 0 .334-.15.334-.334v-.652a5.5 5.5 0 0 0 1.62-.668l.452.45a.323.323 0 0 0 .468 0l1.42-1.42a.323.323 0 0 0 0-.467l-.451-.451a5.6 5.6 0 0 0 .668-1.621h.652c.183 0 .334-.15.334-.334V6.997a.31.31 0 0 0-.318-.334Z"/><circle cx="8" cy="8" r="2.5" stroke="currentColor"/></svg>
