<svg xmlns="http://www.w3.org/2000/svg" fill="none" viewBox="0 0 32 32" width="1em" height="1em"><path stroke="currentColor" stroke-miterlimit="10" d="M27.887 12.93h-1.253c-.257-1.125-.707-2.154-1.285-3.118l.867-.867a.62.62 0 0 0 0-.9l-2.73-2.731a.62.62 0 0 0-.9 0l-.868.867c-.964-.578-1.992-1.028-3.117-1.285V3.643A.645.645 0 0 0 17.96 3h-3.856a.644.644 0 0 0-.643.643v1.253c-1.124.257-2.152.707-3.116 1.285l-.9-.867a.62.62 0 0 0-.9 0l-2.73 2.731a.62.62 0 0 0 0 .9l.867.867c-.578.964-1.028 1.993-1.285 3.117H4.143a.645.645 0 0 0-.643.643v3.856c0 .354.29.643.643.643h1.253c.257 1.124.707 2.153 1.285 3.117l-.868.867a.62.62 0 0 0 0 .9l2.731 2.731a.62.62 0 0 0 .9 0l.868-.867c.964.578 1.992 1.028 3.116 1.285v1.253c0 .354.29.643.643.643h3.856c.353 0 .642-.29.642-.643v-1.253c1.125-.257 2.153-.707 3.117-1.285l.867.867a.62.62 0 0 0 .9 0l2.731-2.731a.62.62 0 0 0 0-.9l-.867-.867c.578-.964 1.028-1.993 1.285-3.117h1.253c.353 0 .643-.29.643-.643v-3.856a.6.6 0 0 0-.61-.643Z"/><circle cx="16" cy="15.5" r="6.792" stroke="currentColor"/><circle cx="16" cy="15.5" r="4.5" stroke="currentColor"/></svg>
