<svg xmlns="http://www.w3.org/2000/svg" fill="none" viewBox="0 0 24 24" width="1em" height="1em"><path stroke="currentColor" stroke-linecap="round" d="M14.5 10.137V10v0A1.5 1.5 0 0 0 13 8.5h-2.25A1.75 1.75 0 0 0 9 10.25v0c0 .966.784 1.75 1.75 1.75H13a2 2 0 0 1 2 2v0a2 2 0 0 1-2 2h-2a2 2 0 0 1-2-2v0-.275M12 7.5v10"/><path fill="currentColor" d="M5.046 6.808a.5.5 0 1 0-.797-.604l.797.604Zm12.618 13.131a.5.5 0 1 0-.624-.781l.625.781ZM2.325 6.245a.5.5 0 0 0 .35.937l-.35-.937Zm2.431-.375.471-.167a.5.5 0 0 0-.646-.301l.175.468Zm.35 2.483a.5.5 0 1 0 .942-.334l-.942.334Zm13.848 8.84a.5.5 0 0 0 .797.603l-.797-.604ZM6.335 4.06a.5.5 0 0 0 .625.781l-.625-.781Zm15.34 13.694a.5.5 0 0 0-.35-.937l.35.937Zm-2.431.375-.471.167a.5.5 0 0 0 .646.301l-.175-.468Zm-.35-2.483a.5.5 0 1 0-.942.334l.942-.334ZM5.756 18.429c-3.09-3.171-3.328-8.169-.71-11.621l-.797-.604c-2.911 3.84-2.65 9.39.79 12.923l.717-.698Zm11.284.729a8.382 8.382 0 0 1-11.284-.73l-.716.699a9.383 9.383 0 0 0 12.625.812l-.625-.781ZM2.675 7.182l2.256-.843-.35-.937-2.256.843.35.937Zm1.61-1.145.82 2.316.943-.334-.82-2.316-.943.334Zm13.959-.466c3.09 3.171 3.328 8.169.71 11.621l.797.604c2.911-3.84 2.65-9.39-.79-12.923l-.717.698ZM6.96 4.842a8.382 8.382 0 0 1 11.284.73l.716-.699a9.383 9.383 0 0 0-12.625-.812l.625.781Zm14.365 11.976-2.256.843.35.937 2.256-.843-.35-.937Zm-1.61 1.145-.82-2.316-.943.334.82 2.316.943-.334Z"/></svg>
