<svg xmlns="http://www.w3.org/2000/svg" fill="none" viewBox="0 0 16 16" width="1em" height="1em"><path stroke="currentColor" stroke-linecap="round" d="M9.5 6.385v-.132 0a.753.753 0 0 0-.753-.753H7.135C6.508 5.5 6 6.008 6 6.635v0c0 .626.508 1.134 1.135 1.134h1.328c.754 0 1.365.612 1.365 1.366v0c0 .754-.611 1.365-1.365 1.365h-1.38A1.08 1.08 0 0 1 6 9.418v0-.264M8 4v1m0 6v1"/><path fill="currentColor" d="m3.483 12.637.358-.348zm-.115-8.094a.5.5 0 1 0-.797-.604zm8.606 9.012a.5.5 0 1 0-.624-.78zM1.325 3.915a.5.5 0 1 0 .35.936zm1.719-.109.47-.167a.5.5 0 0 0-.645-.301zm.09 1.752a.5.5 0 0 0 .943-.335zm9.383-2.195-.358.349zm.115 8.094a.5.5 0 0 0 .797.604zM4.026 2.445a.5.5 0 0 0 .624.781zm10.649 9.64a.5.5 0 1 0-.35-.936zm-1.719.109-.47.167a.5.5 0 0 0 .645.301zm-.09-1.752a.5.5 0 1 0-.943.335zM3.84 12.29c-2.058-2.113-2.218-5.445-.473-7.746L2.57 3.94c-2.038 2.688-1.856 6.574.554 9.047zm7.51.485a5.58 5.58 0 0 1-7.51-.485l-.716.697a6.58 6.58 0 0 0 8.85.57zM1.674 4.851l1.544-.577-.35-.936-1.544.576zm.897-.878.562 1.585.943-.335-.562-1.584zm9.587-.261c2.058 2.112 2.218 5.444.473 7.745l.797.604c2.038-2.688 1.856-6.574-.554-9.047zm-7.51-.486a5.58 5.58 0 0 1 7.51.486l.716-.698a6.58 6.58 0 0 0-8.85-.57zm9.676 7.923-1.544.577.35.936 1.544-.576zm-.897.878-.562-1.585-.943.335.562 1.584z"/></svg>
