<svg viewBox="0 0 32 32" fill="none" xmlns="http://www.w3.org/2000/svg" width="1em" height="1em"><path d="M7.66245 9.72101C7.83939 9.50901 7.81098 9.1937 7.59898 9.01675C7.38698 8.8398 7.07168 8.86822 6.89473 9.08022L7.66245 9.72101ZM23.0919 25.2774C23.3039 25.1005 23.3323 24.7851 23.1554 24.5731C22.9784 24.3611 22.6631 24.3327 22.4511 24.5097L23.0919 25.2774ZM8.30754 23.8646C4.43475 19.9918 4.2196 13.8458 7.66245 9.72101L6.89473 9.08022C3.12328 13.5987 3.3584 20.3297 7.60043 24.5717L8.30754 23.8646ZM22.4511 24.5097C18.3263 27.9525 12.1803 27.7374 8.30754 23.8646L7.60043 24.5717C11.8425 28.8137 18.5734 29.0488 23.0919 25.2774L22.4511 24.5097Z" fill="currentColor"/><path d="M7.77197 11.8438V8.84375H4.77197" stroke="currentColor" stroke-linecap="round" stroke-linejoin="round"/><path d="M24.3378 22.2806C24.1608 22.4926 24.1893 22.8079 24.4013 22.9848C24.6133 23.1618 24.9286 23.1334 25.1055 22.9214L24.3378 22.2806ZM8.90833 6.72419C8.69633 6.90114 8.66792 7.21644 8.84487 7.42844C9.02182 7.64044 9.33712 7.66885 9.54912 7.4919L8.90833 6.72419ZM23.6927 8.13699C27.5655 12.0098 27.7806 18.1558 24.3378 22.2806L25.1055 22.9214C28.877 18.4029 28.6418 11.6719 24.3998 7.42989L23.6927 8.13699ZM9.54912 7.4919C13.6739 4.04906 19.8199 4.26421 23.6927 8.13699L24.3998 7.42989C20.1578 3.18786 13.4268 2.95274 8.90833 6.72419L9.54912 7.4919Z" fill="currentColor"/><path d="M24.2283 20.1578V23.1578H27.2283" stroke="currentColor" stroke-linecap="round" stroke-linejoin="round"/><path d="M19.5 13.9771V13.7708V13.7708C19.5 12.3786 18.3714 11.25 16.9792 11.25L14.2917 11.2501C13.026 11.2501 12 12.2761 12 13.5417V13.5417C12 14.8074 13.026 15.8334 14.2917 15.8334H17.2083C18.474 15.8334 19.5 16.8594 19.5 18.1251V18.1251C19.5 19.3907 18.474 20.4167 17.2083 20.4167H14.5208C13.1286 20.4167 12 19.2881 12 17.8959V17.8959V17.4834" stroke="currentColor" stroke-linecap="round"/><path d="M15.75 10V21.6667" stroke="currentColor" stroke-linecap="round"/></svg>
