<svg viewBox="0 0 24 24" fill="none" xmlns="http://www.w3.org/2000/svg" width="1em" height="1em"><path d="M14.5 10.1373V9.99957V9.99957C14.5 9.17111 13.8284 8.49952 12.9999 8.49953L10.7501 8.49955C9.78356 8.49956 9 9.28312 9 10.2497V10.2497C9 11.2163 9.78353 11.9998 10.7501 11.9998L13.0002 11.9999C14.1048 12 15.0002 12.8954 15.0001 14V14C15 15.1046 14.1046 15.9999 13 15.9999L10.9996 15.9997C9.89525 15.9996 9.0001 15.1043 9.00022 14V14V13.7245" stroke="currentColor" stroke-linecap="round"/><path d="M12 7.5V17.5" stroke="currentColor" stroke-linecap="round"/><path d="M5.04569 6.80773C5.21252 6.58767 5.16937 6.27405 4.94932 6.10722C4.72926 5.94039 4.41563 5.98354 4.24881 6.20359L5.04569 6.80773ZM17.6645 19.9389C17.8803 19.7666 17.9155 19.4519 17.7431 19.2362C17.5707 19.0204 17.2561 18.9853 17.0404 19.1576L17.6645 19.9389ZM2.325 6.24472C2.06632 6.34137 1.93498 6.62942 2.03163 6.8881C2.12828 7.14677 2.41633 7.27812 2.675 7.18147L2.325 6.24472ZM4.75601 5.87017L5.22727 5.70308C5.18247 5.57672 5.0888 5.47365 4.96729 5.417C4.84577 5.36035 4.7066 5.35487 4.58101 5.40179L4.75601 5.87017ZM5.10588 8.35318C5.19816 8.61345 5.48396 8.74963 5.74422 8.65735C6.00449 8.56507 6.14067 8.27928 6.04839 8.01901L5.10588 8.35318ZM18.9543 17.192C18.7875 17.4121 18.8306 17.7257 19.0507 17.8925C19.2707 18.0594 19.5844 18.0162 19.7512 17.7962L18.9543 17.192ZM6.33545 4.06084C6.11971 4.2332 6.08454 4.54783 6.2569 4.76357C6.42927 4.97932 6.74389 5.01448 6.95963 4.84212L6.33545 4.06084ZM21.675 17.755C21.9337 17.6584 22.065 17.3703 21.9684 17.1117C21.8717 16.853 21.5837 16.7216 21.325 16.8183L21.675 17.755ZM19.244 18.1296L18.7727 18.2967C18.8175 18.423 18.9112 18.5261 19.0327 18.5828C19.1542 18.6394 19.2934 18.6449 19.419 18.598L19.244 18.1296ZM18.8941 15.6466C18.8018 15.3863 18.516 15.2501 18.2558 15.3424C17.9955 15.4347 17.8593 15.7205 17.9516 15.9807L18.8941 15.6466ZM5.75614 18.4287C2.66688 15.2574 2.42824 10.2603 5.04569 6.80773L4.24881 6.20359C1.33767 10.0435 1.59952 15.5948 5.03983 19.1265L5.75614 18.4287ZM17.0404 19.1576C13.6878 21.836 8.84013 21.5946 5.75614 18.4287L5.03983 19.1265C8.48541 22.6636 13.9132 22.9359 17.6645 19.9389L17.0404 19.1576ZM2.675 7.18147L4.93102 6.33854L4.58101 5.40179L2.325 6.24472L2.675 7.18147ZM4.28476 6.03725L5.10588 8.35318L6.04839 8.01901L5.22727 5.70308L4.28476 6.03725ZM18.2439 5.57104C21.3331 8.74234 21.5718 13.7395 18.9543 17.192L19.7512 17.7962C22.6623 13.9562 22.4005 8.40494 18.9602 4.87326L18.2439 5.57104ZM6.95963 4.84212C10.3122 2.16371 15.1599 2.40515 18.2439 5.57104L18.9602 4.87326C15.5146 1.33618 10.0868 1.06384 6.33545 4.06084L6.95963 4.84212ZM21.325 16.8183L19.069 17.6612L19.419 18.598L21.675 17.755L21.325 16.8183ZM19.7152 17.9625L18.8941 15.6466L17.9516 15.9807L18.7727 18.2967L19.7152 17.9625Z" fill="currentColor"/></svg>
