<svg viewBox="0 0 24 24" fill="none" xmlns="http://www.w3.org/2000/svg" stroke="currentColor" width="1em" height="1em"><path d="M14 10.1373C14 10.4134 14.2239 10.6373 14.5 10.6373C14.7761 10.6373 15 10.4134 15 10.1373H14ZM9.50022 13.7245C9.50022 13.4484 9.27636 13.2245 9.00022 13.2245C8.72408 13.2245 8.50022 13.4484 8.50022 13.7245H9.50022ZM13.0002 11.9999L13.0002 12.4999L13.0002 11.9999ZM12.9999 7.99953L10.7501 7.99955L10.7501 8.99955L13 8.99953L12.9999 7.99953ZM10.7501 12.4998L13.0002 12.4999L13.0002 11.4999L10.7501 11.4998L10.7501 12.4998ZM13 15.4999L10.9996 15.4997L10.9995 16.4997L13 16.4999L13 15.4999ZM14 9.99957V10.1373H15V9.99957H14ZM9.50022 14V13.7245H8.50022V14H9.50022ZM10.9996 15.4997C10.1714 15.4997 9.50013 14.8282 9.50022 14.0001L8.50022 13.9999C8.50007 15.3804 9.61906 16.4996 10.9995 16.4997L10.9996 15.4997ZM14.5001 14C14.5001 14.8284 13.8285 15.4999 13 15.4999L13 16.4999C14.3807 16.5 15.5 15.3807 15.5001 14L14.5001 14ZM13.0002 12.4999C13.8286 12.5 14.5002 13.1716 14.5001 14L15.5001 14C15.5002 12.6193 14.3809 11.5 13.0002 11.4999L13.0002 12.4999ZM8.5 10.2497C8.5 11.4924 9.50738 12.4998 10.7501 12.4998L10.7501 11.4998C10.0597 11.4998 9.5 10.9401 9.5 10.2497H8.5ZM10.7501 7.99955C9.50741 7.99956 8.5 9.00698 8.5 10.2497H9.5C9.5 9.55926 10.0597 8.99956 10.7501 8.99955L10.7501 7.99955ZM13 8.99953C13.5523 8.99952 14 9.44726 14 9.99957H15C15 8.89497 14.1045 7.99952 12.9999 7.99953L13 8.99953Z" fill="#282829"/><path d="M12 7.5V17.5" stroke-linecap="round"/><path d="M5.04569 6.80773C5.21252 6.58767 5.16937 6.27405 4.94932 6.10722C4.72926 5.94039 4.41563 5.98354 4.24881 6.20359L5.04569 6.80773ZM17.6645 19.9389C17.8803 19.7666 17.9155 19.4519 17.7431 19.2362C17.5707 19.0204 17.2561 18.9853 17.0404 19.1576L17.6645 19.9389ZM2.325 6.24472C2.06632 6.34137 1.93498 6.62942 2.03163 6.8881C2.12828 7.14677 2.41633 7.27812 2.675 7.18147L2.325 6.24472ZM4.75601 5.87017L5.22727 5.70308C5.18247 5.57672 5.0888 5.47365 4.96729 5.417C4.84577 5.36035 4.7066 5.35487 4.58101 5.40179L4.75601 5.87017ZM5.10588 8.35318C5.19816 8.61345 5.48396 8.74963 5.74422 8.65735C6.00449 8.56507 6.14067 8.27928 6.04839 8.01901L5.10588 8.35318ZM18.9543 17.192C18.7875 17.4121 18.8306 17.7257 19.0507 17.8925C19.2707 18.0594 19.5844 18.0162 19.7512 17.7962L18.9543 17.192ZM6.33545 4.06084C6.11971 4.2332 6.08454 4.54783 6.2569 4.76357C6.42927 4.97932 6.74389 5.01448 6.95963 4.84212L6.33545 4.06084ZM21.675 17.755C21.9337 17.6584 22.065 17.3703 21.9684 17.1117C21.8717 16.853 21.5837 16.7216 21.325 16.8183L21.675 17.755ZM19.244 18.1296L18.7727 18.2967C18.8175 18.423 18.9112 18.5261 19.0327 18.5828C19.1542 18.6394 19.2934 18.6449 19.419 18.598L19.244 18.1296ZM18.8941 15.6466C18.8018 15.3863 18.516 15.2501 18.2558 15.3424C17.9955 15.4347 17.8593 15.7205 17.9516 15.9807L18.8941 15.6466ZM5.75614 18.4287C2.66688 15.2574 2.42824 10.2603 5.04569 6.80773L4.24881 6.20359C1.33767 10.0435 1.59952 15.5948 5.03983 19.1265L5.75614 18.4287ZM17.0404 19.1576C13.6878 21.836 8.84013 21.5946 5.75614 18.4287L5.03983 19.1265C8.48541 22.6636 13.9132 22.9359 17.6645 19.9389L17.0404 19.1576ZM2.675 7.18147L4.93102 6.33854L4.58101 5.40179L2.325 6.24472L2.675 7.18147ZM4.28476 6.03725L5.10588 8.35318L6.04839 8.01901L5.22727 5.70308L4.28476 6.03725ZM18.2439 5.57104C21.3331 8.74234 21.5718 13.7395 18.9543 17.192L19.7512 17.7962C22.6623 13.9562 22.4005 8.40494 18.9602 4.87326L18.2439 5.57104ZM6.95963 4.84212C10.3122 2.16371 15.1599 2.40515 18.2439 5.57104L18.9602 4.87326C15.5146 1.33618 10.0868 1.06384 6.33545 4.06084L6.95963 4.84212ZM21.325 16.8183L19.069 17.6612L19.419 18.598L21.675 17.755L21.325 16.8183ZM19.7152 17.9625L18.8941 15.6466L17.9516 15.9807L18.7727 18.2967L19.7152 17.9625Z" fill="#282829"/></svg>
