<svg xmlns="http://www.w3.org/2000/svg" fill="none" viewBox="0 0 32 32" width="1em" height="1em"><path stroke="currentColor" stroke-linecap="round" d="M7.279 9.4c-3.608 4.322-3.382 10.76.675 14.818s10.496 4.283 14.817.675"/><path stroke="currentColor" stroke-linecap="round" stroke-linejoin="round" d="M7.772 11.844v-3h-3"/><path stroke="currentColor" stroke-linecap="round" d="M24.721 22.6c3.608-4.32 3.383-10.76-.675-14.817C19.99 3.726 13.55 3.501 9.23 7.108"/><path stroke="currentColor" stroke-linecap="round" stroke-linejoin="round" d="M24.228 20.158v3h3"/><path stroke="currentColor" stroke-linecap="round" d="M19.5 13.977v-.206 0a2.52 2.52 0 0 0-2.52-2.521h-2.688A2.292 2.292 0 0 0 12 13.542v0a2.292 2.292 0 0 0 2.292 2.291h2.916a2.292 2.292 0 0 1 2.292 2.292v0a2.292 2.292 0 0 1-2.292 2.292h-2.687A2.52 2.52 0 0 1 12 17.896v0-.413M15.75 10v11.667"/></svg>
