<svg viewBox="0 0 32 32" fill="none" xmlns="http://www.w3.org/2000/svg" width="1em" height="1em"><path d="M7.27859 9.40061C3.67144 13.7223 3.89658 20.1607 7.95399 24.2181C12.0114 28.2756 18.4499 28.5007 22.7715 24.8935" stroke="currentColor" stroke-linecap="round"/><path d="M7.77197 11.8438V8.84375H4.77197" stroke="currentColor" stroke-linecap="round" stroke-linejoin="round"/><path d="M24.7215 22.601C28.3287 18.2793 28.1035 11.8409 24.0461 7.78344C19.9887 3.72603 13.5502 3.5009 9.2286 7.10804" stroke="currentColor" stroke-linecap="round"/><path d="M24.2281 20.1578V23.1578H27.2281" stroke="currentColor" stroke-linecap="round" stroke-linejoin="round"/><path d="M19 13.9771C19 14.2532 19.2239 14.4771 19.5 14.4771C19.7761 14.4771 20 14.2532 20 13.9771H19ZM12.5 17.4834C12.5 17.2073 12.2761 16.9834 12 16.9834C11.7239 16.9834 11.5 17.2073 11.5 17.4834H12.5ZM16.9792 10.75L14.2916 10.7501L14.2917 11.7501L16.9792 11.75L16.9792 10.75ZM14.2917 16.3334H17.2083V15.3334H14.2917V16.3334ZM17.2083 19.9167H14.5208V20.9167H17.2083V19.9167ZM19 13.7708V13.9771H20V13.7708H19ZM12.5 17.8959V17.4834H11.5V17.8959H12.5ZM14.5208 19.9167C13.4048 19.9167 12.5 19.012 12.5 17.8959H11.5C11.5 19.5643 12.8525 20.9167 14.5208 20.9167V19.9167ZM19 18.1251C19 19.1146 18.1978 19.9167 17.2083 19.9167V20.9167C18.7501 20.9167 20 19.6669 20 18.1251H19ZM17.2083 16.3334C18.1978 16.3334 19 17.1356 19 18.1251H20C20 16.5833 18.7501 15.3334 17.2083 15.3334V16.3334ZM11.5 13.5417C11.5 15.0835 12.7499 16.3334 14.2917 16.3334V15.3334C13.3022 15.3334 12.5 14.5313 12.5 13.5417H11.5ZM14.2916 10.7501C12.7499 10.7501 11.5 11.9999 11.5 13.5417H12.5C12.5 12.5522 13.3022 11.7501 14.2917 11.7501L14.2916 10.7501ZM16.9792 11.75C18.0952 11.75 19 12.6548 19 13.7708H20C20 12.1025 18.6475 10.75 16.9792 10.75L16.9792 11.75Z" fill="currentColor"/><path d="M15.75 10V21.6667" stroke="currentColor" stroke-linecap="round"/></svg>
