<svg viewBox="0 0 32 32" fill="none" xmlns="http://www.w3.org/2000/svg" width="1em" height="1em"><path d="M7.27859 9.40061C3.67144 13.7223 3.89658 20.1607 7.95399 24.2181C12.0114 28.2756 18.4499 28.5007 22.7715 24.8935" stroke="currentColor" stroke-linecap="round"/><path d="M7.77197 11.8438V8.84375H4.77197" stroke="currentColor" stroke-linecap="round" stroke-linejoin="round"/><path d="M24.7217 22.601C28.3288 18.2793 28.1037 11.8409 24.0463 7.78344C19.9888 3.72603 13.5504 3.5009 9.22873 7.10804" stroke="currentColor" stroke-linecap="round"/><path d="M24.2283 20.1578V23.1578H27.2283" stroke="currentColor" stroke-linecap="round" stroke-linejoin="round"/><path d="M19.5 13.9771V13.7708V13.7708C19.5 12.3786 18.3714 11.25 16.9792 11.25L14.2917 11.2501C13.026 11.2501 12 12.2761 12 13.5417V13.5417C12 14.8074 13.026 15.8334 14.2917 15.8334H17.2083C18.474 15.8334 19.5 16.8594 19.5 18.1251V18.1251C19.5 19.3907 18.474 20.4167 17.2083 20.4167H14.5208C13.1286 20.4167 12 19.2881 12 17.8959V17.8959V17.4834" stroke="currentColor" stroke-linecap="round"/><path d="M15.75 10V21.6667" stroke="currentColor" stroke-linecap="round"/></svg>
