<svg xmlns="http://www.w3.org/2000/svg" fill="none" viewBox="0 0 16 16" width="1em" height="1em"><path stroke="currentColor" stroke-linecap="round" d="M9.5 6.385v-.132 0a.753.753 0 0 0-.753-.753H7.135C6.508 5.5 6 6.008 6 6.635v0c0 .626.508 1.134 1.135 1.134h1.328c.754 0 1.365.612 1.365 1.366v0c0 .754-.611 1.365-1.365 1.365h-1.38A1.082 1.082 0 0 1 6 9.418v0-.264M8 4v1m0 6v1"/><path fill="currentColor" d="m3.483 12.637.358-.348-.358.348Zm-.115-8.094a.5.5 0 1 0-.797-.604l.797.604Zm8.606 9.012a.5.5 0 1 0-.624-.78l.624.78ZM1.325 3.915a.5.5 0 1 0 .35.936l-.35-.937Zm1.719-.109.47-.167a.5.5 0 0 0-.645-.301l.175.468Zm.09 1.752a.5.5 0 0 0 .943-.335l-.943.335Zm9.383-2.195-.358.349.358-.35Zm.115 8.094a.5.5 0 0 0 .797.604l-.797-.604ZM4.026 2.445a.5.5 0 0 0 .624.781l-.624-.781Zm10.649 9.64a.5.5 0 1 0-.35-.936l.35.937Zm-1.719.109-.47.167a.5.5 0 0 0 .645.301l-.175-.468Zm-.09-1.752a.5.5 0 1 0-.943.335l.943-.335ZM3.84 12.29c-2.058-2.113-2.218-5.445-.473-7.746L2.57 3.94c-2.038 2.688-1.856 6.574.554 9.047l.716-.697Zm7.51.485a5.578 5.578 0 0 1-7.51-.485l-.716.697a6.578 6.578 0 0 0 8.85.57l-.625-.782ZM1.674 4.851l1.544-.577-.35-.936-1.544.576.35.937Zm.897-.878.562 1.585.943-.335-.562-1.584-.943.334Zm9.587-.261c2.058 2.112 2.218 5.444.473 7.745l.797.604c2.038-2.688 1.856-6.574-.554-9.047l-.716.698Zm-7.51-.486a5.578 5.578 0 0 1 7.51.486l.716-.698a6.578 6.578 0 0 0-8.85-.57l.625.782Zm9.676 7.923-1.544.577.35.936 1.544-.576-.35-.937Zm-.897.878-.562-1.585-.943.335.562 1.584.943-.334Z"/></svg>
