<svg viewBox="0 0 32 32" fill="none" xmlns="http://www.w3.org/2000/svg" width="1em" height="1em"><path d="M21 3.98077C21 3.70463 20.7761 3.48077 20.5 3.48077C20.2239 3.48077 20 3.70463 20 3.98077H21ZM25 9C25.2761 9 25.5 8.77614 25.5 8.5C25.5 8.22386 25.2761 8 25 8V9ZM6 11.5C6 11.7761 6.22386 12 6.5 12C6.77614 12 7 11.7761 7 11.5H6ZM7 19.5C7 19.2239 6.77614 19 6.5 19C6.22386 19 6 19.2239 6 19.5H7ZM21.0858 4.08579L20.7322 4.43934L21.0858 4.08579ZM23.5 28H8.5V29H23.5V28ZM8.5 4H19.6716V3H8.5V4ZM25 9.32843V26.5H26V9.32843H25ZM20 3.98077V6.5H21V3.98077H20ZM22.5 9H25V8H22.5V9ZM20.7322 4.43934L24.5607 8.26777L25.2678 7.56066L21.4393 3.73223L20.7322 4.43934ZM7 11.5C7 11.4965 7 11.4929 7 11.4894C7 11.4858 7 11.4823 7 11.4788C7 11.4752 7 11.4717 7 11.4681C7 11.4646 7 11.461 7 11.4575C7 11.4539 7 11.4504 7 11.4468C7 11.4433 7 11.4397 7 11.4362C7 11.4326 7 11.4291 7 11.4255C7 11.4219 7 11.4184 7 11.4148C7 11.4113 7 11.4077 7 11.4041C7 11.4006 7 11.397 7 11.3934C7 11.3899 7 11.3863 7 11.3827C7 11.3792 7 11.3756 7 11.372C7 11.3685 7 11.3649 7 11.3613C7 11.3577 7 11.3542 7 11.3506C7 11.347 7 11.3434 7 11.3398C7 11.3363 7 11.3327 7 11.3291C7 11.3255 7 11.3219 7 11.3183C7 11.3148 7 11.3112 7 11.3076C7 11.304 7 11.3004 7 11.2968C7 11.2932 7 11.2896 7 11.286C7 11.2824 7 11.2789 7 11.2753C7 11.2717 7 11.2681 7 11.2645C7 11.2609 7 11.2573 7 11.2537C7 11.2501 7 11.2465 7 11.2429C7 11.2393 7 11.2356 7 11.232C7 11.2284 7 11.2248 7 11.2212C7 11.2176 7 11.214 7 11.2104C7 11.2068 7 11.2032 7 11.1995C7 11.1959 7 11.1923 7 11.1887C7 11.1851 7 11.1815 7 11.1778C7 11.1742 7 11.1706 7 11.167C7 11.1634 7 11.1597 7 11.1561C7 11.1525 7 11.1489 7 11.1452C7 11.1416 7 11.138 7 11.1343C7 11.1307 7 11.1271 7 11.1235C7 11.1198 7 11.1162 7 11.1125C7 11.1089 7 11.1053 7 11.1016C7 11.098 7 11.0944 7 11.0907C7 11.0871 7 11.0834 7 11.0798C7 11.0762 7 11.0725 7 11.0689C7 11.0652 7 11.0616 7 11.0579C7 11.0543 7 11.0506 7 11.047C7 11.0433 7 11.0397 7 11.036C7 11.0324 7 11.0287 7 11.0251C7 11.0214 7 11.0177 7 11.0141C7 11.0104 7 11.0068 7 11.0031C7 10.9995 7 10.9958 7 10.9921C7 10.9885 7 10.9848 7 10.9811C7 10.9775 7 10.9738 7 10.9701C7 10.9665 7 10.9628 7 10.9591C7 10.9555 7 10.9518 7 10.9481C7 10.9444 7 10.9408 7 10.9371C7 10.9334 7 10.9297 7 10.9261C7 10.9224 7 10.9187 7 10.915C7 10.9114 7 10.9077 7 10.904C7 10.9003 7 10.8966 7 10.8929C7 10.8893 7 10.8856 7 10.8819C7 10.8782 7 10.8745 7 10.8708C7 10.8671 7 10.8634 7 10.8597C7 10.8561 7 10.8524 7 10.8487C7 10.845 7 10.8413 7 10.8376C7 10.8339 7 10.8302 7 10.8265C7 10.8228 7 10.8191 7 10.8154C7 10.8117 7 10.808 7 10.8043C7 10.8006 7 10.7969 7 10.7932C7 10.7895 7 10.7858 7 10.782C7 10.7783 7 10.7746 7 10.7709C7 10.7672 7 10.7635 7 10.7598C7 10.7561 7 10.7524 7 10.7486C7 10.7449 7 10.7412 7 10.7375C7 10.7338 7 10.7301 7 10.7263C7 10.7226 7 10.7189 7 10.7152C7 10.7115 7 10.7077 7 10.704C7 10.7003 7 10.6966 7 10.6928C7 10.6891 7 10.6854 7 10.6817C7 10.6779 7 10.6742 7 10.6705C7 10.6667 7 10.663 7 10.6593C7 10.6555 7 10.6518 7 10.6481C7 10.6443 7 10.6406 7 10.6369C7 10.6331 7 10.6294 7 10.6256C7 10.6219 7 10.6182 7 10.6144C7 10.6107 7 10.6069 7 10.6032C7 10.5995 7 10.5957 7 10.592C7 10.5882 7 10.5845 7 10.5807C7 10.577 7 10.5732 7 10.5695C7 10.5657 7 10.562 7 10.5582C7 10.5545 7 10.5507 7 10.547C7 10.5432 7 10.5394 7 10.5357C7 10.5319 7 10.5282 7 10.5244C7 10.5207 7 10.5169 7 10.5131C7 10.5094 7 10.5056 7 10.5019C7 10.4981 7 10.4943 7 10.4906C7 10.4868 7 10.483 7 10.4793C7 10.4755 7 10.4717 7 10.468C7 10.4642 7 10.4604 7 10.4566C7 10.4529 7 10.4491 7 10.4453C7 10.4416 7 10.4378 7 10.434C7 10.4302 7 10.4265 7 10.4227C7 10.4189 7 10.4151 7 10.4113C7 10.4076 7 10.4038 7 10.4C7 10.3962 7 10.3924 7 10.3887C7 10.3849 7 10.3811 7 10.3773C7 10.3735 7 10.3697 7 10.3659C7 10.3622 7 10.3584 7 10.3546C7 10.3508 7 10.347 7 10.3432C7 10.3394 7 10.3356 7 10.3318C7 10.328 7 10.3242 7 10.3204C7 10.3166 7 10.3128 7 10.3091C7 10.3053 7 10.3015 7 10.2977C7 10.2939 7 10.2901 7 10.2863C7 10.2825 7 10.2787 7 10.2748C7 10.271 7 10.2672 7 10.2634C7 10.2596 7 10.2558 7 10.252C7 10.2482 7 10.2444 7 10.2406C7 10.2368 7 10.233 7 10.2292C7 10.2254 7 10.2215 7 10.2177C7 10.2139 7 10.2101 7 10.2063C7 10.2025 7 10.1987 7 10.1948C7 10.191 7 10.1872 7 10.1834C7 10.1796 7 10.1757 7 10.1719C7 10.1681 7 10.1643 7 10.1605C7 10.1566 7 10.1528 7 10.149C7 10.1452 7 10.1413 7 10.1375C7 10.1337 7 10.1299 7 10.126C7 10.1222 7 10.1184 7 10.1146C7 10.1107 7 10.1069 7 10.1031C7 10.0992 7 10.0954 7 10.0916C7 10.0877 7 10.0839 7 10.0801C7 10.0762 7 10.0724 7 10.0686C7 10.0647 7 10.0609 7 10.057C7 10.0532 7 10.0494 7 10.0455C7 10.0417 7 10.0378 7 10.034C7 10.0302 7 10.0263 7 10.0225C7 10.0186 7 10.0148 7 10.0109C7 10.0071 7 10.0032 7 9.9994C7 9.99555 7 9.9917 7 9.98785C7 9.98401 7 9.98016 7 9.97631C7 9.97245 7 9.9686 7 9.96475C7 9.9609 7 9.95705 7 9.95319C7 9.94934 7 9.94548 7 9.94163C7 9.93777 7 9.93391 7 9.93006C7 9.9262 7 9.92234 7 9.91848C7 9.91462 7 9.91076 7 9.9069C7 9.90304 7 9.89918 7 9.89532C7 9.89145 7 9.88759 7 9.88373C7 9.87986 7 9.876 7 9.87213C7 9.86826 7 9.8644 7 9.86053C7 9.85666 7 9.85279 7 9.84893C7 9.84506 7 9.84119 7 9.83732C7 9.83345 7 9.82957 7 9.8257C7 9.82183 7 9.81796 7 9.81408C7 9.81021 7 9.80633 7 9.80246C7 9.79858 7 9.79471 7 9.79083C7 9.78695 7 9.78307 7 9.7792C7 9.77532 7 9.77144 7 9.76756C7 9.76368 7 9.7598 7 9.75591C7 9.75203 7 9.74815 7 9.74427C7 9.74038 7 9.7365 7 9.73261C7 9.72873 7 9.72484 7 9.72096C7 9.71707 7 9.71318 7 9.70929C7 9.70541 7 9.70152 7 9.69763C7 9.69374 7 9.68985 7 9.68596C7 9.68207 7 9.67817 7 9.67428C7 9.67039 7 9.6665 7 9.6626C7 9.65871 7 9.65481 7 9.65092C7 9.64702 7 9.64313 7 9.63923C7 9.63533 7 9.63143 7 9.62754C7 9.62364 7 9.61974 7 9.61584C7 9.61194 7 9.60804 7 9.60414C7 9.60023 7 9.59633 7 9.59243C7 9.58853 7 9.58462 7 9.58072C7 9.57681 7 9.57291 7 9.569C7 9.5651 7 9.56119 7 9.55728C7 9.55338 7 9.54947 7 9.54556C7 9.54165 7 9.53774 7 9.53383C7 9.52992 7 9.52601 7 9.5221C7 9.51819 7 9.51428 7 9.51036C7 9.50645 7 9.50254 7 9.49862C7 9.49471 7 9.49079 7 9.48688C7 9.48296 7 9.47905 7 9.47513C7 9.47121 7 9.4673 7 9.46338C7 9.45946 7 9.45554 7 9.45162C7 9.4477 7 9.44378 7 9.43986C7 9.43594 7 9.43202 7 9.4281C7 9.42417 7 9.42025 7 9.41633C7 9.4124 7 9.40848 7 9.40455C7 9.40063 7 9.3967 7 9.39278C7 9.38885 7 9.38492 7 9.381C7 9.37707 7 9.37314 7 9.36921C7 9.36528 7 9.36135 7 9.35742C7 9.35349 7 9.34956 7 9.34563C7 9.3417 7 9.33777 7 9.33384C7 9.3299 7 9.32597 7 9.32204C7 9.3181 7 9.31417 7 9.31023C7 9.3063 7 9.30236 7 9.29842C7 9.29449 7 9.29055 7 9.28661C7 9.28268 7 9.27874 7 9.2748C7 9.27086 7 9.26692 7 9.26298C7 9.25904 7 9.2551 7 9.25116C7 9.24722 7 9.24328 7 9.23933C7 9.23539 7 9.23145 7 9.2275C7 9.22356 7 9.21962 7 9.21567C7 9.21173 7 9.20778 7 9.20383C7 9.19989 7 9.19594 7 9.19199C7 9.18805 7 9.1841 7 9.18015C7 9.1762 7 9.17225 7 9.1683C7 9.16435 7 9.1604 7 9.15645C7 9.1525 7 9.14855 7 9.1446C7 9.14065 7 9.1367 7 9.13274C7 9.12879 7 9.12484 7 9.12088C7 9.11693 7 9.11297 7 9.10902C7 9.10506 7 9.10111 7 9.09715C7 9.0932 7 9.08924 7 9.08528C7 9.08132 7 9.07737 7 9.07341C7 9.06945 7 9.06549 7 9.06153C7 9.05757 7 9.05361 7 9.04965C7 9.04569 7 9.04173 7 9.03777C7 9.03381 7 9.02984 7 9.02588C7 9.02192 7 9.01796 7 9.01399C7 9.01003 7 9.00606 7 9.0021C7 8.99813 7 8.99417 7 8.9902C7 8.98624 7 8.98227 7 8.9783C7 8.97434 7 8.97037 7 8.9664C7 8.96243 7 8.95847 7 8.9545C7 8.95053 7 8.94656 7 8.94259C7 8.93862 7 8.93465 7 8.93068C7 8.92671 7 8.92274 7 8.91876C7 8.91479 7 8.91082 7 8.90685C7 8.90287 7 8.8989 7 8.89493C7 8.89095 7 8.88698 7 8.88301C7 8.87903 7 8.87506 7 8.87108C7 8.8671 7 8.86313 7 8.85915C7 8.85518 7 8.8512 7 8.84722C7 8.84324 7 8.83927 7 8.83529C7 8.83131 7 8.82733 7 8.82335C7 8.81937 7 8.81539 7 8.81141C7 8.80743 7 8.80345 7 8.79947C7 8.79549 7 8.79151 7 8.78752C7 8.78354 7 8.77956 7 8.77558C7 8.77159 7 8.76761 7 8.76363C7 8.75964 7 8.75566 7 8.75167C7 8.74769 7 8.74371 7 8.73972C7 8.73573 7 8.73175 7 8.72776C7 8.72378 7 8.71979 7 8.7158C7 8.71181 7 8.70783 7 8.70384C7 8.69985 7 8.69586 7 8.69187C7 8.68789 7 8.6839 7 8.67991C7 8.67592 7 8.67193 7 8.66794C7 8.66395 7 8.65996 7 8.65596C7 8.65197 7 8.64798 7 8.64399C7 8.64 7 8.636 7 8.63201C7 8.62802 7 8.62403 7 8.62003C7 8.61604 7 8.61205 7 8.60805C7 8.60406 7 8.60006 7 8.59607C7 8.59207 7 8.58808 7 8.58408C7 8.58008 7 8.57609 7 8.57209C7 8.5681 7 8.5641 7 8.5601C7 8.5561 7 8.55211 7 8.54811C7 8.54411 7 8.54011 7 8.53611C7 8.53211 7 8.52812 7 8.52412C7 8.52012 7 8.51612 7 8.51212C7 8.50812 7 8.50412 7 8.50012C7 8.49611 7 8.49211 7 8.48811C7 8.48411 7 8.48011 7 8.47611C7 8.4721 7 8.4681 7 8.4641C7 8.4601 7 8.45609 7 8.45209C7 8.44809 7 8.44408 7 8.44008C7 8.43607 7 8.43207 7 8.42806C7 8.42406 7 8.42005 7 8.41605C7 8.41204 7 8.40804 7 8.40403C7 8.40003 7 8.39602 7 8.39201C7 8.38801 7 8.384 7 8.37999C7 8.37599 7 8.37198 7 8.36797C7 8.36396 7 8.35995 7 8.35595C7 8.35194 7 8.34793 7 8.34392C7 8.33991 7 8.3359 7 8.33189C7 8.32788 7 8.32387 7 8.31986C7 8.31585 7 8.31184 7 8.30783C7 8.30382 7 8.29981 7 8.2958C7 8.29179 7 8.28778 7 8.28376C7 8.27975 7 8.27574 7 8.27173C7 8.26771 7 8.2637 7 8.25969C7 8.25568 7 8.25166 7 8.24765C7 8.24364 7 8.23962 7 8.23561C7 8.2316 7 8.22758 7 8.22357C7 8.21955 7 8.21554 7 8.21152C7 8.20751 7 8.20349 7 8.19948C7 8.19546 7 8.19145 7 8.18743C7 8.18342 7 8.1794 7 8.17538C7 8.17137 7 8.16735 7 8.16333C7 8.15932 7 8.1553 7 8.15128C7 8.14727 7 8.14325 7 8.13923C7 8.13521 7 8.1312 7 8.12718C7 8.12316 7 8.11914 7 8.11512C7 8.1111 7 8.10708 7 8.10307C7 8.09905 7 8.09503 7 8.09101C7 8.08699 7 8.08297 7 8.07895C7 8.07493 7 8.07091 7 8.06689C7 8.06287 7 8.05885 7 8.05483C7 8.05081 7 8.04679 7 8.04277C7 8.03875 7 8.03473 7 8.0307C7 8.02668 7 8.02266 7 8.01864C7 8.01462 7 8.0106 7 8.00658C7 8.00255 7 7.99853 7 7.99451C7 7.99049 7 7.98646 7 7.98244C7 7.97842 7 7.9744 7 7.97037C7 7.96635 7 7.96233 7 7.9583C7 7.95428 7 7.95026 7 7.94623C7 7.94221 7 7.93819 7 7.93416C7 7.93014 7 7.92611 7 7.92209C7 7.91807 7 7.91404 7 7.91002C7 7.90599 7 7.90197 7 7.89794C7 7.89392 7 7.88989 7 7.88587C7 7.88184 7 7.87782 7 7.87379C7 7.86977 7 7.86574 7 7.86172C7 7.85769 7 7.85367 7 7.84964C7 7.84561 7 7.84159 7 7.83756C7 7.83354 7 7.82951 7 7.82548C7 7.82146 7 7.81743 7 7.81341C7 7.80938 7 7.80535 7 7.80133C7 7.7973 7 7.79327 7 7.78925C7 7.78522 7 7.78119 7 7.77717C7 7.77314 7 7.76911 7 7.76508C7 7.76106 7 7.75703 7 7.753C7 7.74897 7 7.74495 7 7.74092C7 7.73689 7 7.73286 7 7.72884C7 7.72481 7 7.72078 7 7.71675C7 7.71273 7 7.7087 7 7.70467C7 7.70064 7 7.69661 7 7.69259C7 7.68856 7 7.68453 7 7.6805C7 7.67647 7 7.67244 7 7.66842C7 7.66439 7 7.66036 7 7.65633C7 7.6523 7 7.64827 7 7.64424C7 7.64022 7 7.63619 7 7.63216C7 7.62813 7 7.6241 7 7.62007C7 7.61604 7 7.61201 7 7.60799C7 7.60396 7 7.59993 7 7.5959C7 7.59187 7 7.58784 7 7.58381C7 7.57978 7 7.57575 7 7.57173C7 7.5677 7 7.56367 7 7.55964C7 7.55561 7 7.55158 7 7.54755C7 7.54352 7 7.53949 7 7.53546C7 7.53143 7 7.52741 7 7.52338C7 7.51935 7 7.51532 7 7.51129C7 7.50726 7 7.50323 7 7.4992C7 7.49517 7 7.49114 7 7.48711C7 7.48308 7 7.47905 7 7.47503C7 7.471 7 7.46697 7 7.46294C7 7.45891 7 7.45488 7 7.45085C7 7.44682 7 7.44279 7 7.43876C7 7.43473 7 7.43071 7 7.42668C7 7.42265 7 7.41862 7 7.41459C7 7.41056 7 7.40653 7 7.4025C7 7.39847 7 7.39444 7 7.39042C7 7.38639 7 7.38236 7 7.37833C7 7.3743 7 7.37027 7 7.36624C7 7.36221 7 7.35819 7 7.35416C7 7.35013 7 7.3461 7 7.34207C7 7.33804 7 7.33401 7 7.32999C7 7.32596 7 7.32193 7 7.3179C7 7.31387 7 7.30984 7 7.30582C7 7.30179 7 7.29776 7 7.29373C7 7.2897 7 7.28568 7 7.28165C7 7.27762 7 7.27359 7 7.26957C7 7.26554 7 7.26151 7 7.25748C7 7.25345 7 7.24943 7 7.2454C7 7.24137 7 7.23735 7 7.23332C7 7.22929 7 7.22526 7 7.22124C7 7.21721 7 7.21318 7 7.20916C7 7.20513 7 7.2011 7 7.19708C7 7.19305 7 7.18902 7 7.185C7 7.18097 7 7.17694 7 7.17292C7 7.16889 7 7.16487 7 7.16084C7 7.15681 7 7.15279 7 7.14876C7 7.14474 7 7.14071 7 7.13669C7 7.13266 7 7.12863 7 7.12461C7 7.12058 7 7.11656 7 7.11253C7 7.10851 7 7.10448 7 7.10046C7 7.09644 7 7.09241 7 7.08839C7 7.08436 7 7.08034 7 7.07631C7 7.07229 7 7.06827 7 7.06424C7 7.06022 7 7.05619 7 7.05217C7 7.04815 7 7.04412 7 7.0401C7 7.03608 7 7.03205 7 7.02803C7 7.02401 7 7.01999 7 7.01596C7 7.01194 7 7.00792 7 7.0039C7 6.99987 7 6.99585 7 6.99183C7 6.98781 7 6.98379 7 6.97976C7 6.97574 7 6.97172 7 6.9677C7 6.96368 7 6.95966 7 6.95564C7 6.95162 7 6.9476 7 6.94358C7 6.93955 7 6.93553 7 6.93151C7 6.92749 7 6.92347 7 6.91946C7 6.91544 7 6.91142 7 6.9074C7 6.90338 7 6.89936 7 6.89534C7 6.89132 7 6.8873 7 6.88328C7 6.87927 7 6.87525 7 6.87123C7 6.86721 7 6.86319 7 6.85918C7 6.85516 7 6.85114 7 6.84712C7 6.84311 7 6.83909 7 6.83507C7 6.83106 7 6.82704 7 6.82302C7 6.81901 7 6.81499 7 6.81098C7 6.80696 7 6.80294 7 6.79893C7 6.79491 7 6.7909 7 6.78688C7 6.78287 7 6.77885 7 6.77484C7 6.77083 7 6.76681 7 6.7628C7 6.75878 7 6.75477 7 6.75076C7 6.74674 7 6.74273 7 6.73872C7 6.73471 7 6.73069 7 6.72668C7 6.72267 7 6.71866 7 6.71464C7 6.71063 7 6.70662 7 6.70261C7 6.6986 7 6.69459 7 6.69058C7 6.68657 7 6.68256 7 6.67855C7 6.67454 7 6.67053 7 6.66652C7 6.66251 7 6.6585 7 6.65449C7 6.65048 7 6.64647 7 6.64246C7 6.63846 7 6.63445 7 6.63044C7 6.62643 7 6.62242 7 6.61842C7 6.61441 7 6.6104 7 6.6064C7 6.60239 7 6.59838 7 6.59438C7 6.59037 7 6.58637 7 6.58236C7 6.57836 7 6.57435 7 6.57035C7 6.56634 7 6.56234 7 6.55833C7 6.55433 7 6.55033 7 6.54632C7 6.54232 7 6.53832 7 6.53431C7 6.53031 7 6.52631 7 6.52231C7 6.5183 7 6.5143 7 6.5103C7 6.5063 7 6.5023 7 6.4983C7 6.4943 7 6.4903 7 6.4863C7 6.4823 7 6.4783 7 6.4743C7 6.4703 7 6.4663 7 6.4623C7 6.4583 7 6.4543 7 6.45031C7 6.44631 7 6.44231 7 6.43831C7 6.43432 7 6.43032 7 6.42632C7 6.42233 7 6.41833 7 6.41433C7 6.41034 7 6.40634 7 6.40235C7 6.39835 7 6.39436 7 6.39036C7 6.38637 7 6.38238 7 6.37838C7 6.37439 7 6.3704 7 6.3664C7 6.36241 7 6.35842 7 6.35443C7 6.35044 7 6.34644 7 6.34245C7 6.33846 7 6.33447 7 6.33048C7 6.32649 7 6.3225 7 6.31851C7 6.31452 7 6.31053 7 6.30654C7 6.30255 7 6.29857 7 6.29458C7 6.29059 7 6.2866 7 6.28262C7 6.27863 7 6.27464 7 6.27066C7 6.26667 7 6.26268 7 6.2587C7 6.25471 7 6.25073 7 6.24674C7 6.24276 7 6.23878 7 6.23479C7 6.23081 7 6.22683 7 6.22284C7 6.21886 7 6.21488 7 6.2109C7 6.20691 7 6.20293 7 6.19895C7 6.19497 7 6.19099 7 6.18701C7 6.18303 7 6.17905 7 6.17507C7 6.17109 7 6.16711 7 6.16313C7 6.15916 7 6.15518 7 6.1512C7 6.14722 7 6.14325 7 6.13927C7 6.13529 7 6.13132 7 6.12734C7 6.12337 7 6.11939 7 6.11542C7 6.11144 7 6.10747 7 6.1035C7 6.09952 7 6.09555 7 6.09158C7 6.0876 7 6.08363 7 6.07966C7 6.07569 7 6.07172 7 6.06775C7 6.06378 7 6.05981 7 6.05584C7 6.05187 7 6.0479 7 6.04393C7 6.03996 7 6.03599 7 6.03202C7 6.02806 7 6.02409 7 6.02012C7 6.01616 7 6.01219 7 6.00822C7 6.00426 7 6.00029 7 5.99633C7 5.99236 7 5.9884 7 5.98444C7 5.98047 7 5.97651 7 5.97255C7 5.96858 7 5.96462 7 5.96066C7 5.9567 7 5.95274 7 5.94878C7 5.94482 7 5.94086 7 5.9369C7 5.93294 7 5.92898 7 5.92502C7 5.92106 7 5.91711 7 5.91315C7 5.90919 7 5.90523 7 5.90128C7 5.89732 7 5.89337 7 5.88941C7 5.88546 7 5.8815 7 5.87755C7 5.87359 7 5.86964 7 5.86569C7 5.86174 7 5.85778 7 5.85383C7 5.84988 7 5.84593 7 5.84198C7 5.83803 7 5.83408 7 5.83013C7 5.82618 7 5.82223 7 5.81828C7 5.81433 7 5.81039 7 5.80644C7 5.80249 7 5.79855 7 5.7946C7 5.79065 7 5.78671 7 5.78276C7 5.77882 7 5.77488 7 5.77093C7 5.76699 7 5.76305 7 5.7591C7 5.75516 7 5.75122 7 5.74728C7 5.74334 7 5.7394 7 5.73546C7 5.73152 7 5.72758 7 5.72364C7 5.7197 7 5.71576 7 5.71182C7 5.70789 7 5.70395 7 5.70001C7 5.69608 7 5.69214 7 5.68821C7 5.68427 7 5.68034 7 5.6764C7 5.67247 7 5.66854 7 5.6646C7 5.66067 7 5.65674 7 5.65281C7 5.64888 7 5.64495 7 5.64102C7 5.63709 7 5.63316 7 5.62923C7 5.6253 7 5.62137 7 5.61745C7 5.61352 7 5.60959 7 5.60567C7 5.60174 7 5.59781 7 5.59389C7 5.58996 7 5.58604 7 5.58212C7 5.57819 7 5.57427 7 5.57035C7 5.56643 7 5.56251 7 5.55858C7 5.55466 7 5.55074 7 5.54682C7 5.5429 7 5.53899 7 5.53507C7 5.53115 7 5.52723 7 5.52332C7 5.5194 7 5.51548 7 5.51157C7 5.50765 7 5.50374 7 5.49982H6C6 5.50374 6 5.50765 6 5.51157C6 5.51548 6 5.5194 6 5.52332C6 5.52723 6 5.53115 6 5.53507C6 5.53899 6 5.5429 6 5.54682C6 5.55074 6 5.55466 6 5.55858C6 5.56251 6 5.56643 6 5.57035C6 5.57427 6 5.57819 6 5.58212C6 5.58604 6 5.58996 6 5.59389C6 5.59781 6 5.60174 6 5.60567C6 5.60959 6 5.61352 6 5.61745C6 5.62137 6 5.6253 6 5.62923C6 5.63316 6 5.63709 6 5.64102C6 5.64495 6 5.64888 6 5.65281C6 5.65674 6 5.66067 6 5.6646C6 5.66854 6 5.67247 6 5.6764C6 5.68034 6 5.68427 6 5.68821C6 5.69214 6 5.69608 6 5.70001C6 5.70395 6 5.70789 6 5.71182C6 5.71576 6 5.7197 6 5.72364C6 5.72758 6 5.73152 6 5.73546C6 5.7394 6 5.74334 6 5.74728C6 5.75122 6 5.75516 6 5.7591C6 5.76305 6 5.76699 6 5.77093C6 5.77488 6 5.77882 6 5.78276C6 5.78671 6 5.79065 6 5.7946C6 5.79855 6 5.80249 6 5.80644C6 5.81039 6 5.81433 6 5.81828C6 5.82223 6 5.82618 6 5.83013C6 5.83408 6 5.83803 6 5.84198C6 5.84593 6 5.84988 6 5.85383C6 5.85778 6 5.86174 6 5.86569C6 5.86964 6 5.87359 6 5.87755C6 5.8815 6 5.88546 6 5.88941C6 5.89337 6 5.89732 6 5.90128C6 5.90523 6 5.90919 6 5.91315C6 5.91711 6 5.92106 6 5.92502C6 5.92898 6 5.93294 6 5.9369C6 5.94086 6 5.94482 6 5.94878C6 5.95274 6 5.9567 6 5.96066C6 5.96462 6 5.96858 6 5.97255C6 5.97651 6 5.98047 6 5.98444C6 5.9884 6 5.99236 6 5.99633C6 6.00029 6 6.00426 6 6.00822C6 6.01219 6 6.01616 6 6.02012C6 6.02409 6 6.02806 6 6.03202C6 6.03599 6 6.03996 6 6.04393C6 6.0479 6 6.05187 6 6.05584C6 6.05981 6 6.06378 6 6.06775C6 6.07172 6 6.07569 6 6.07966C6 6.08363 6 6.0876 6 6.09158C6 6.09555 6 6.09952 6 6.1035C6 6.10747 6 6.11144 6 6.11542C6 6.11939 6 6.12337 6 6.12734C6 6.13132 6 6.13529 6 6.13927C6 6.14325 6 6.14722 6 6.1512C6 6.15518 6 6.15916 6 6.16313C6 6.16711 6 6.17109 6 6.17507C6 6.17905 6 6.18303 6 6.18701C6 6.19099 6 6.19497 6 6.19895C6 6.20293 6 6.20691 6 6.2109C6 6.21488 6 6.21886 6 6.22284C6 6.22683 6 6.23081 6 6.23479C6 6.23878 6 6.24276 6 6.24674C6 6.25073 6 6.25471 6 6.2587C6 6.26268 6 6.26667 6 6.27066C6 6.27464 6 6.27863 6 6.28262C6 6.2866 6 6.29059 6 6.29458C6 6.29857 6 6.30255 6 6.30654C6 6.31053 6 6.31452 6 6.31851C6 6.3225 6 6.32649 6 6.33048C6 6.33447 6 6.33846 6 6.34245C6 6.34644 6 6.35044 6 6.35443C6 6.35842 6 6.36241 6 6.3664C6 6.3704 6 6.37439 6 6.37838C6 6.38238 6 6.38637 6 6.39036C6 6.39436 6 6.39835 6 6.40235C6 6.40634 6 6.41034 6 6.41433C6 6.41833 6 6.42233 6 6.42632C6 6.43032 6 6.43432 6 6.43831C6 6.44231 6 6.44631 6 6.45031C6 6.4543 6 6.4583 6 6.4623C6 6.4663 6 6.4703 6 6.4743C6 6.4783 6 6.4823 6 6.4863C6 6.4903 6 6.4943 6 6.4983C6 6.5023 6 6.5063 6 6.5103C6 6.5143 6 6.5183 6 6.52231C6 6.52631 6 6.53031 6 6.53431C6 6.53832 6 6.54232 6 6.54632C6 6.55033 6 6.55433 6 6.55833C6 6.56234 6 6.56634 6 6.57035C6 6.57435 6 6.57836 6 6.58236C6 6.58637 6 6.59037 6 6.59438C6 6.59838 6 6.60239 6 6.6064C6 6.6104 6 6.61441 6 6.61842C6 6.62242 6 6.62643 6 6.63044C6 6.63445 6 6.63846 6 6.64246C6 6.64647 6 6.65048 6 6.65449C6 6.6585 6 6.66251 6 6.66652C6 6.67053 6 6.67454 6 6.67855C6 6.68256 6 6.68657 6 6.69058C6 6.69459 6 6.6986 6 6.70261C6 6.70662 6 6.71063 6 6.71464C6 6.71866 6 6.72267 6 6.72668C6 6.73069 6 6.73471 6 6.73872C6 6.74273 6 6.74674 6 6.75076C6 6.75477 6 6.75878 6 6.7628C6 6.76681 6 6.77083 6 6.77484C6 6.77885 6 6.78287 6 6.78688C6 6.7909 6 6.79491 6 6.79893C6 6.80294 6 6.80696 6 6.81098C6 6.81499 6 6.81901 6 6.82302C6 6.82704 6 6.83106 6 6.83507C6 6.83909 6 6.84311 6 6.84712C6 6.85114 6 6.85516 6 6.85918C6 6.86319 6 6.86721 6 6.87123C6 6.87525 6 6.87927 6 6.88328C6 6.8873 6 6.89132 6 6.89534C6 6.89936 6 6.90338 6 6.9074C6 6.91142 6 6.91544 6 6.91946C6 6.92347 6 6.92749 6 6.93151C6 6.93553 6 6.93955 6 6.94358C6 6.9476 6 6.95162 6 6.95564C6 6.95966 6 6.96368 6 6.9677C6 6.97172 6 6.97574 6 6.97976C6 6.98379 6 6.98781 6 6.99183C6 6.99585 6 6.99987 6 7.0039C6 7.00792 6 7.01194 6 7.01596C6 7.01999 6 7.02401 6 7.02803C6 7.03205 6 7.03608 6 7.0401C6 7.04412 6 7.04815 6 7.05217C6 7.05619 6 7.06022 6 7.06424C6 7.06827 6 7.07229 6 7.07631C6 7.08034 6 7.08436 6 7.08839C6 7.09241 6 7.09644 6 7.10046C6 7.10448 6 7.10851 6 7.11253C6 7.11656 6 7.12058 6 7.12461C6 7.12863 6 7.13266 6 7.13669C6 7.14071 6 7.14474 6 7.14876C6 7.15279 6 7.15681 6 7.16084C6 7.16487 6 7.16889 6 7.17292C6 7.17694 6 7.18097 6 7.185C6 7.18902 6 7.19305 6 7.19708C6 7.2011 6 7.20513 6 7.20916C6 7.21318 6 7.21721 6 7.22124C6 7.22526 6 7.22929 6 7.23332C6 7.23735 6 7.24137 6 7.2454C6 7.24943 6 7.25345 6 7.25748C6 7.26151 6 7.26554 6 7.26957C6 7.27359 6 7.27762 6 7.28165C6 7.28568 6 7.2897 6 7.29373C6 7.29776 6 7.30179 6 7.30582C6 7.30984 6 7.31387 6 7.3179C6 7.32193 6 7.32596 6 7.32999C6 7.33401 6 7.33804 6 7.34207C6 7.3461 6 7.35013 6 7.35416C6 7.35819 6 7.36221 6 7.36624C6 7.37027 6 7.3743 6 7.37833C6 7.38236 6 7.38639 6 7.39042C6 7.39444 6 7.39847 6 7.4025C6 7.40653 6 7.41056 6 7.41459C6 7.41862 6 7.42265 6 7.42668C6 7.43071 6 7.43473 6 7.43876C6 7.44279 6 7.44682 6 7.45085C6 7.45488 6 7.45891 6 7.46294C6 7.46697 6 7.471 6 7.47503C6 7.47905 6 7.48308 6 7.48711C6 7.49114 6 7.49517 6 7.4992C6 7.50323 6 7.50726 6 7.51129C6 7.51532 6 7.51935 6 7.52338C6 7.52741 6 7.53143 6 7.53546C6 7.53949 6 7.54352 6 7.54755C6 7.55158 6 7.55561 6 7.55964C6 7.56367 6 7.5677 6 7.57173C6 7.57575 6 7.57978 6 7.58381C6 7.58784 6 7.59187 6 7.5959C6 7.59993 6 7.60396 6 7.60799C6 7.61201 6 7.61604 6 7.62007C6 7.6241 6 7.62813 6 7.63216C6 7.63619 6 7.64022 6 7.64424C6 7.64827 6 7.6523 6 7.65633C6 7.66036 6 7.66439 6 7.66842C6 7.67244 6 7.67647 6 7.6805C6 7.68453 6 7.68856 6 7.69259C6 7.69661 6 7.70064 6 7.70467C6 7.7087 6 7.71273 6 7.71675C6 7.72078 6 7.72481 6 7.72884C6 7.73286 6 7.73689 6 7.74092C6 7.74495 6 7.74897 6 7.753C6 7.75703 6 7.76106 6 7.76508C6 7.76911 6 7.77314 6 7.77717C6 7.78119 6 7.78522 6 7.78925C6 7.79327 6 7.7973 6 7.80133C6 7.80535 6 7.80938 6 7.81341C6 7.81743 6 7.82146 6 7.82548C6 7.82951 6 7.83354 6 7.83756C6 7.84159 6 7.84561 6 7.84964C6 7.85367 6 7.85769 6 7.86172C6 7.86574 6 7.86977 6 7.87379C6 7.87782 6 7.88184 6 7.88587C6 7.88989 6 7.89392 6 7.89794C6 7.90197 6 7.90599 6 7.91002C6 7.91404 6 7.91807 6 7.92209C6 7.92611 6 7.93014 6 7.93416C6 7.93819 6 7.94221 6 7.94623C6 7.95026 6 7.95428 6 7.9583C6 7.96233 6 7.96635 6 7.97037C6 7.9744 6 7.97842 6 7.98244C6 7.98646 6 7.99049 6 7.99451C6 7.99853 6 8.00255 6 8.00658C6 8.0106 6 8.01462 6 8.01864C6 8.02266 6 8.02668 6 8.0307C6 8.03473 6 8.03875 6 8.04277C6 8.04679 6 8.05081 6 8.05483C6 8.05885 6 8.06287 6 8.06689C6 8.07091 6 8.07493 6 8.07895C6 8.08297 6 8.08699 6 8.09101C6 8.09503 6 8.09905 6 8.10307C6 8.10708 6 8.1111 6 8.11512C6 8.11914 6 8.12316 6 8.12718C6 8.1312 6 8.13521 6 8.13923C6 8.14325 6 8.14727 6 8.15128C6 8.1553 6 8.15932 6 8.16333C6 8.16735 6 8.17137 6 8.17538C6 8.1794 6 8.18342 6 8.18743C6 8.19145 6 8.19546 6 8.19948C6 8.20349 6 8.20751 6 8.21152C6 8.21554 6 8.21955 6 8.22357C6 8.22758 6 8.2316 6 8.23561C6 8.23962 6 8.24364 6 8.24765C6 8.25166 6 8.25568 6 8.25969C6 8.2637 6 8.26771 6 8.27173C6 8.27574 6 8.27975 6 8.28376C6 8.28778 6 8.29179 6 8.2958C6 8.29981 6 8.30382 6 8.30783C6 8.31184 6 8.31585 6 8.31986C6 8.32387 6 8.32788 6 8.33189C6 8.3359 6 8.33991 6 8.34392C6 8.34793 6 8.35194 6 8.35595C6 8.35995 6 8.36396 6 8.36797C6 8.37198 6 8.37599 6 8.37999C6 8.384 6 8.38801 6 8.39201C6 8.39602 6 8.40003 6 8.40403C6 8.40804 6 8.41204 6 8.41605C6 8.42005 6 8.42406 6 8.42806C6 8.43207 6 8.43607 6 8.44008C6 8.44408 6 8.44809 6 8.45209C6 8.45609 6 8.4601 6 8.4641C6 8.4681 6 8.4721 6 8.47611C6 8.48011 6 8.48411 6 8.48811C6 8.49211 6 8.49611 6 8.50012C6 8.50412 6 8.50812 6 8.51212C6 8.51612 6 8.52012 6 8.52412C6 8.52812 6 8.53211 6 8.53611C6 8.54011 6 8.54411 6 8.54811C6 8.55211 6 8.5561 6 8.5601C6 8.5641 6 8.5681 6 8.57209C6 8.57609 6 8.58008 6 8.58408C6 8.58808 6 8.59207 6 8.59607C6 8.60006 6 8.60406 6 8.60805C6 8.61205 6 8.61604 6 8.62003C6 8.62403 6 8.62802 6 8.63201C6 8.636 6 8.64 6 8.64399C6 8.64798 6 8.65197 6 8.65596C6 8.65996 6 8.66395 6 8.66794C6 8.67193 6 8.67592 6 8.67991C6 8.6839 6 8.68789 6 8.69187C6 8.69586 6 8.69985 6 8.70384C6 8.70783 6 8.71181 6 8.7158C6 8.71979 6 8.72378 6 8.72776C6 8.73175 6 8.73573 6 8.73972C6 8.74371 6 8.74769 6 8.75167C6 8.75566 6 8.75964 6 8.76363C6 8.76761 6 8.77159 6 8.77558C6 8.77956 6 8.78354 6 8.78752C6 8.79151 6 8.79549 6 8.79947C6 8.80345 6 8.80743 6 8.81141C6 8.81539 6 8.81937 6 8.82335C6 8.82733 6 8.83131 6 8.83529C6 8.83927 6 8.84324 6 8.84722C6 8.8512 6 8.85518 6 8.85915C6 8.86313 6 8.8671 6 8.87108C6 8.87506 6 8.87903 6 8.88301C6 8.88698 6 8.89095 6 8.89493C6 8.8989 6 8.90287 6 8.90685C6 8.91082 6 8.91479 6 8.91876C6 8.92274 6 8.92671 6 8.93068C6 8.93465 6 8.93862 6 8.94259C6 8.94656 6 8.95053 6 8.9545C6 8.95847 6 8.96243 6 8.9664C6 8.97037 6 8.97434 6 8.9783C6 8.98227 6 8.98624 6 8.9902C6 8.99417 6 8.99813 6 9.0021C6 9.00606 6 9.01003 6 9.01399C6 9.01796 6 9.02192 6 9.02588C6 9.02984 6 9.03381 6 9.03777C6 9.04173 6 9.04569 6 9.04965C6 9.05361 6 9.05757 6 9.06153C6 9.06549 6 9.06945 6 9.07341C6 9.07737 6 9.08132 6 9.08528C6 9.08924 6 9.0932 6 9.09715C6 9.10111 6 9.10506 6 9.10902C6 9.11297 6 9.11693 6 9.12088C6 9.12484 6 9.12879 6 9.13274C6 9.1367 6 9.14065 6 9.1446C6 9.14855 6 9.1525 6 9.15645C6 9.1604 6 9.16435 6 9.1683C6 9.17225 6 9.1762 6 9.18015C6 9.1841 6 9.18805 6 9.19199C6 9.19594 6 9.19989 6 9.20383C6 9.20778 6 9.21173 6 9.21567C6 9.21962 6 9.22356 6 9.2275C6 9.23145 6 9.23539 6 9.23933C6 9.24328 6 9.24722 6 9.25116C6 9.2551 6 9.25904 6 9.26298C6 9.26692 6 9.27086 6 9.2748C6 9.27874 6 9.28268 6 9.28661C6 9.29055 6 9.29449 6 9.29842C6 9.30236 6 9.3063 6 9.31023C6 9.31417 6 9.3181 6 9.32204C6 9.32597 6 9.3299 6 9.33384C6 9.33777 6 9.3417 6 9.34563C6 9.34956 6 9.35349 6 9.35742C6 9.36135 6 9.36528 6 9.36921C6 9.37314 6 9.37707 6 9.381C6 9.38492 6 9.38885 6 9.39278C6 9.3967 6 9.40063 6 9.40455C6 9.40848 6 9.4124 6 9.41633C6 9.42025 6 9.42417 6 9.4281C6 9.43202 6 9.43594 6 9.43986C6 9.44378 6 9.4477 6 9.45162C6 9.45554 6 9.45946 6 9.46338C6 9.4673 6 9.47121 6 9.47513C6 9.47905 6 9.48296 6 9.48688C6 9.49079 6 9.49471 6 9.49862C6 9.50254 6 9.50645 6 9.51036C6 9.51428 6 9.51819 6 9.5221C6 9.52601 6 9.52992 6 9.53383C6 9.53774 6 9.54165 6 9.54556C6 9.54947 6 9.55338 6 9.55728C6 9.56119 6 9.5651 6 9.569C6 9.57291 6 9.57681 6 9.58072C6 9.58462 6 9.58853 6 9.59243C6 9.59633 6 9.60023 6 9.60414C6 9.60804 6 9.61194 6 9.61584C6 9.61974 6 9.62364 6 9.62754C6 9.63143 6 9.63533 6 9.63923C6 9.64313 6 9.64702 6 9.65092C6 9.65481 6 9.65871 6 9.6626C6 9.6665 6 9.67039 6 9.67428C6 9.67817 6 9.68207 6 9.68596C6 9.68985 6 9.69374 6 9.69763C6 9.70152 6 9.70541 6 9.70929C6 9.71318 6 9.71707 6 9.72096C6 9.72484 6 9.72873 6 9.73261C6 9.7365 6 9.74038 6 9.74427C6 9.74815 6 9.75203 6 9.75591C6 9.7598 6 9.76368 6 9.76756C6 9.77144 6 9.77532 6 9.7792C6 9.78307 6 9.78695 6 9.79083C6 9.79471 6 9.79858 6 9.80246C6 9.80633 6 9.81021 6 9.81408C6 9.81796 6 9.82183 6 9.8257C6 9.82957 6 9.83345 6 9.83732C6 9.84119 6 9.84506 6 9.84893C6 9.85279 6 9.85666 6 9.86053C6 9.8644 6 9.86826 6 9.87213C6 9.876 6 9.87986 6 9.88373C6 9.88759 6 9.89145 6 9.89532C6 9.89918 6 9.90304 6 9.9069C6 9.91076 6 9.91462 6 9.91848C6 9.92234 6 9.9262 6 9.93006C6 9.93391 6 9.93777 6 9.94163C6 9.94548 6 9.94934 6 9.95319C6 9.95705 6 9.9609 6 9.96475C6 9.9686 6 9.97245 6 9.97631C6 9.98016 6 9.98401 6 9.98785C6 9.9917 6 9.99555 6 9.9994C6 10.0032 6 10.0071 6 10.0109C6 10.0148 6 10.0186 6 10.0225C6 10.0263 6 10.0302 6 10.034C6 10.0378 6 10.0417 6 10.0455C6 10.0494 6 10.0532 6 10.057C6 10.0609 6 10.0647 6 10.0686C6 10.0724 6 10.0762 6 10.0801C6 10.0839 6 10.0877 6 10.0916C6 10.0954 6 10.0992 6 10.1031C6 10.1069 6 10.1107 6 10.1146C6 10.1184 6 10.1222 6 10.126C6 10.1299 6 10.1337 6 10.1375C6 10.1413 6 10.1452 6 10.149C6 10.1528 6 10.1566 6 10.1605C6 10.1643 6 10.1681 6 10.1719C6 10.1757 6 10.1796 6 10.1834C6 10.1872 6 10.191 6 10.1948C6 10.1987 6 10.2025 6 10.2063C6 10.2101 6 10.2139 6 10.2177C6 10.2215 6 10.2254 6 10.2292C6 10.233 6 10.2368 6 10.2406C6 10.2444 6 10.2482 6 10.252C6 10.2558 6 10.2596 6 10.2634C6 10.2672 6 10.271 6 10.2748C6 10.2787 6 10.2825 6 10.2863C6 10.2901 6 10.2939 6 10.2977C6 10.3015 6 10.3053 6 10.3091C6 10.3128 6 10.3166 6 10.3204C6 10.3242 6 10.328 6 10.3318C6 10.3356 6 10.3394 6 10.3432C6 10.347 6 10.3508 6 10.3546C6 10.3584 6 10.3622 6 10.3659C6 10.3697 6 10.3735 6 10.3773C6 10.3811 6 10.3849 6 10.3887C6 10.3924 6 10.3962 6 10.4C6 10.4038 6 10.4076 6 10.4113C6 10.4151 6 10.4189 6 10.4227C6 10.4265 6 10.4302 6 10.434C6 10.4378 6 10.4416 6 10.4453C6 10.4491 6 10.4529 6 10.4566C6 10.4604 6 10.4642 6 10.468C6 10.4717 6 10.4755 6 10.4793C6 10.483 6 10.4868 6 10.4906C6 10.4943 6 10.4981 6 10.5019C6 10.5056 6 10.5094 6 10.5131C6 10.5169 6 10.5207 6 10.5244C6 10.5282 6 10.5319 6 10.5357C6 10.5394 6 10.5432 6 10.547C6 10.5507 6 10.5545 6 10.5582C6 10.562 6 10.5657 6 10.5695C6 10.5732 6 10.577 6 10.5807C6 10.5845 6 10.5882 6 10.592C6 10.5957 6 10.5995 6 10.6032C6 10.6069 6 10.6107 6 10.6144C6 10.6182 6 10.6219 6 10.6256C6 10.6294 6 10.6331 6 10.6369C6 10.6406 6 10.6443 6 10.6481C6 10.6518 6 10.6555 6 10.6593C6 10.663 6 10.6667 6 10.6705C6 10.6742 6 10.6779 6 10.6817C6 10.6854 6 10.6891 6 10.6928C6 10.6966 6 10.7003 6 10.704C6 10.7077 6 10.7115 6 10.7152C6 10.7189 6 10.7226 6 10.7263C6 10.7301 6 10.7338 6 10.7375C6 10.7412 6 10.7449 6 10.7486C6 10.7524 6 10.7561 6 10.7598C6 10.7635 6 10.7672 6 10.7709C6 10.7746 6 10.7783 6 10.782C6 10.7858 6 10.7895 6 10.7932C6 10.7969 6 10.8006 6 10.8043C6 10.808 6 10.8117 6 10.8154C6 10.8191 6 10.8228 6 10.8265C6 10.8302 6 10.8339 6 10.8376C6 10.8413 6 10.845 6 10.8487C6 10.8524 6 10.8561 6 10.8597C6 10.8634 6 10.8671 6 10.8708C6 10.8745 6 10.8782 6 10.8819C6 10.8856 6 10.8893 6 10.8929C6 10.8966 6 10.9003 6 10.904C6 10.9077 6 10.9114 6 10.915C6 10.9187 6 10.9224 6 10.9261C6 10.9297 6 10.9334 6 10.9371C6 10.9408 6 10.9444 6 10.9481C6 10.9518 6 10.9555 6 10.9591C6 10.9628 6 10.9665 6 10.9701C6 10.9738 6 10.9775 6 10.9811C6 10.9848 6 10.9885 6 10.9921C6 10.9958 6 10.9995 6 11.0031C6 11.0068 6 11.0104 6 11.0141C6 11.0177 6 11.0214 6 11.0251C6 11.0287 6 11.0324 6 11.036C6 11.0397 6 11.0433 6 11.047C6 11.0506 6 11.0543 6 11.0579C6 11.0616 6 11.0652 6 11.0689C6 11.0725 6 11.0762 6 11.0798C6 11.0834 6 11.0871 6 11.0907C6 11.0944 6 11.098 6 11.1016C6 11.1053 6 11.1089 6 11.1125C6 11.1162 6 11.1198 6 11.1235C6 11.1271 6 11.1307 6 11.1343C6 11.138 6 11.1416 6 11.1452C6 11.1489 6 11.1525 6 11.1561C6 11.1597 6 11.1634 6 11.167C6 11.1706 6 11.1742 6 11.1778C6 11.1815 6 11.1851 6 11.1887C6 11.1923 6 11.1959 6 11.1995C6 11.2032 6 11.2068 6 11.2104C6 11.214 6 11.2176 6 11.2212C6 11.2248 6 11.2284 6 11.232C6 11.2356 6 11.2393 6 11.2429C6 11.2465 6 11.2501 6 11.2537C6 11.2573 6 11.2609 6 11.2645C6 11.2681 6 11.2717 6 11.2753C6 11.2789 6 11.2824 6 11.286C6 11.2896 6 11.2932 6 11.2968C6 11.3004 6 11.304 6 11.3076C6 11.3112 6 11.3148 6 11.3183C6 11.3219 6 11.3255 6 11.3291C6 11.3327 6 11.3363 6 11.3398C6 11.3434 6 11.347 6 11.3506C6 11.3542 6 11.3577 6 11.3613C6 11.3649 6 11.3685 6 11.372C6 11.3756 6 11.3792 6 11.3827C6 11.3863 6 11.3899 6 11.3934C6 11.397 6 11.4006 6 11.4041C6 11.4077 6 11.4113 6 11.4148C6 11.4184 6 11.4219 6 11.4255C6 11.4291 6 11.4326 6 11.4362C6 11.4397 6 11.4433 6 11.4468C6 11.4504 6 11.4539 6 11.4575C6 11.461 6 11.4646 6 11.4681C6 11.4717 6 11.4752 6 11.4788C6 11.4823 6 11.4858 6 11.4894C6 11.4929 6 11.4965 6 11.5H7ZM7 26.5V19.5H6V26.5H7ZM20 6.5C20 7.88071 21.1193 9 22.5 9V8C21.6716 8 21 7.32843 21 6.5H20ZM26 9.32843C26 8.66539 25.7366 8.0295 25.2678 7.56066L24.5607 8.26777C24.842 8.54907 25 8.9306 25 9.32843H26ZM19.6716 4C20.0694 4 20.4509 4.15804 20.7322 4.43934L21.4393 3.73223C20.9705 3.26339 20.3346 3 19.6716 3V4ZM8.5 28C7.67157 28 7 27.3284 7 26.5H6C6 27.8807 7.11929 29 8.5 29V28ZM23.5 29C24.8807 29 26 27.8807 26 26.5H25C25 27.3284 24.3284 28 23.5 28V29ZM8.5 3C7.11935 3 6 4.11905 6 5.49982H7C7 4.67145 7.67152 4 8.5 4V3Z" fill="currentColor"/><path d="M9.5 9.5H17.5" stroke="currentColor" stroke-linecap="round"/><path d="M18.5 14.5H22.5" stroke="currentColor" stroke-linecap="round"/><path d="M18.5 18.5H22.5" stroke="currentColor" stroke-linecap="round"/><path d="M9.5 23.5H22.5" stroke="currentColor" stroke-linecap="round"/><path d="M2.5 16L14.5 16" stroke="currentColor" stroke-linecap="round" stroke-linejoin="round"/><path d="M11.5 12.5L15.5 16L11.5 19.5" stroke="currentColor" stroke-linecap="round" stroke-linejoin="round"/></svg>
