<svg viewBox="0 0 32 32" fill="none" xmlns="http://www.w3.org/2000/svg" width="1em" height="1em"><path d="M20.5 3.98077V6.5C20.5 7.60457 21.3954 8.5 22.5 8.5H25M6.5 11.5C6.5 9.68853 6.5 7.50378 6.5 5.49982C6.5 4.39525 7.39543 3.5 8.5 3.5H19.6716C20.202 3.5 20.7107 3.71071 21.0858 4.08579L24.9142 7.91421C25.2893 8.28929 25.5 8.79799 25.5 9.32843V26.5C25.5 27.6046 24.6046 28.5 23.5 28.5H8.5C7.39543 28.5 6.5 27.6046 6.5 26.5V19.5" stroke="currentColor" stroke-linecap="round"/><path d="M9.5 9.5H17.5" stroke="currentColor" stroke-linecap="round"/><path d="M18.5 14.5H22.5" stroke="currentColor" stroke-linecap="round"/><path d="M18.5 18.5H22.5" stroke="currentColor" stroke-linecap="round"/><path d="M9.5 23.5H22.5" stroke="currentColor" stroke-linecap="round"/><path d="M2.5 16L14.5 16" stroke="currentColor" stroke-linecap="round" stroke-linejoin="round"/><path d="M11.5 12.5L15.5 16L11.5 19.5" stroke="currentColor" stroke-linecap="round" stroke-linejoin="round"/></svg>
