<svg viewBox="0 0 16 16" fill="none" xmlns="http://www.w3.org/2000/svg" width="1em" height="1em"><path d="M3.50001 5.5L3.50001 3.5C3.50001 2.39543 4.39544 1.5 5.50001 1.5H9.67157C10.202 1.5 10.7107 1.71071 11.0858 2.08579L12.9142 3.91421C13.2893 4.28929 13.5 4.79799 13.5 5.32843V12.5C13.5 13.6046 12.6046 14.5 11.5 14.5H5.50001C4.39544 14.5 3.50001 13.6046 3.50001 12.5L3.50001 11.5" stroke="currentColor" stroke-linecap="round"/><path d="M11 2C11 1.72386 10.7761 1.5 10.5 1.5C10.2239 1.5 10 1.72386 10 2H11ZM13 5C13.2761 5 13.5 4.77614 13.5 4.5C13.5 4.22386 13.2761 4 13 4V5ZM10 2V3.5H11V2H10ZM11.5 5H13V4H11.5V5ZM10 3.5C10 4.32843 10.6716 5 11.5 5V4C11.2239 4 11 3.77614 11 3.5H10Z" fill="currentColor"/><path d="M1 8.5H10.5M10.5 8.5L8.5 6.5M10.5 8.5L8.5 10.5" stroke="currentColor" stroke-linecap="round" stroke-linejoin="round"/></svg>
