<svg xmlns="http://www.w3.org/2000/svg" fill="none" viewBox="0 0 64 64" width="1em" height="1em"><circle cx="32" cy="32" r="27.5" stroke="currentColor"/><circle cx="32" cy="32" r="9.5" stroke="currentColor"/><rect width="2" height="6" x="17.5" y="23.5" stroke="currentColor" rx="1"/><rect width="2" height="6" x="30.5" y="7.5" stroke="currentColor" rx="1"/><rect width="2" height="6" x="44.5" y="23.5" stroke="currentColor" rx="1"/><rect width="2" height="6" x="44.5" y="18.5" stroke="currentColor" rx="1" transform="rotate(-90 44.5 18.5)"/><rect width="2" height="6" x="13.5" y="18.5" stroke="currentColor" rx="1" transform="rotate(-90 13.5 18.5)"/><rect width="2" height="6" x="18.707" y="11.121" stroke="currentColor" rx="1" transform="rotate(-45 18.707 11.121)"/><rect width="2" height="6" x="42.95" y="9.707" stroke="currentColor" rx="1" transform="rotate(45 42.95 9.707)"/><rect width="2" height="6" x="35.707" y="18.192" stroke="currentColor" rx="1" transform="rotate(-45 35.707 18.192)"/><rect width="2" height="6" x="24.121" y="22.364" stroke="currentColor" rx="1" transform="rotate(-135 24.121 22.364)"/><rect width="2" height="6" x="55.364" y="26.95" stroke="currentColor" rx="1" transform="rotate(135 55.364 26.95)"/><rect width="2" height="6" x="9.121" y="28.364" stroke="currentColor" rx="1" transform="rotate(-135 9.121 28.364)"/><path stroke="currentColor" d="M5 35c4 0 5-4 9-4s5 4 9 4m18 0c4 0 5-4 9-4s5 4 9 4"/></svg>
