<svg xmlns="http://www.w3.org/2000/svg" fill="none" viewBox="0 0 32 32" width="1em" height="1em"><circle cx="16" cy="16" r="13.5" stroke="currentColor"/><circle cx="16" cy="16" r="4.5" stroke="currentColor"/><rect width=".5" height="2.5" x="8.75" y="11.25" stroke="currentColor" stroke-width=".5" rx=".25"/><rect width=".5" height="2.5" x="15.75" y="4.25" stroke="currentColor" stroke-width=".5" rx=".25"/><rect width=".5" height="2.5" x="22.25" y="11.25" stroke="currentColor" stroke-width=".5" rx=".25"/><rect width=".5" height="2.5" x="22.25" y="8.75" stroke="currentColor" stroke-width=".5" rx=".25" transform="rotate(-90 22.25 8.75)"/><rect width=".5" height="2.5" x="7.25" y="8.75" stroke="currentColor" stroke-width=".5" rx=".25" transform="rotate(-90 7.25 8.75)"/><rect width=".5" height="2.5" x="11.354" y="5.707" stroke="currentColor" stroke-width=".5" rx=".25" transform="rotate(-45 11.354 5.707)"/><rect width=".5" height="2.5" x="21.121" y="5.354" stroke="currentColor" stroke-width=".5" rx=".25" transform="rotate(45 21.121 5.354)"/><rect width=".5" height="2.5" x="18.354" y="8.707" stroke="currentColor" stroke-width=".5" rx=".25" transform="rotate(-45 18.354 8.707)"/><rect width=".5" height="2.5" x="12.707" y="10.793" stroke="currentColor" stroke-width=".5" rx=".25" transform="rotate(-135 12.707 10.793)"/><rect width=".5" height="2.5" x="27.682" y="13.121" stroke="currentColor" stroke-width=".5" rx=".25" transform="rotate(135 27.682 13.121)"/><rect width="1" height="3" x="4.561" y="14.121" fill="currentColor" rx=".5" transform="rotate(-135 4.56 14.121)"/><path stroke="currentColor" d="M2.5 17.5c2 0 2.5-2 4.5-2s2.5 2 4.5 2m9 0c2 0 2.5-2 4.5-2s2.5 2 4.5 2"/></svg>
