<svg viewBox="0 0 64 64" fill="none" xmlns="http://www.w3.org/2000/svg" width="1em" height="1em"><circle cx="32" cy="32" r="27.5" stroke="currentColor"/><circle cx="32" cy="32" r="9.5" stroke="currentColor"/><rect x="17.5" y="23.5" width="2" height="6" rx="1" stroke="currentColor"/><rect x="30.5" y="7.5" width="2" height="6" rx="1" stroke="currentColor"/><rect x="44.5" y="23.5" width="2" height="6" rx="1" stroke="currentColor"/><rect x="44.5" y="18.5" width="2" height="6" rx="1" transform="rotate(-90 44.5 18.5)" stroke="currentColor"/><rect x="13.5" y="18.5" width="2" height="6" rx="1" transform="rotate(-90 13.5 18.5)" stroke="currentColor"/><rect x="18.7071" y="11.1211" width="2" height="6" rx="1" transform="rotate(-45 18.7071 11.1211)" stroke="currentColor"/><rect x="42.9497" y="9.70711" width="2" height="6" rx="1" transform="rotate(45 42.9497 9.70711)" stroke="currentColor"/><rect x="35.7071" y="18.1924" width="2" height="6" rx="1" transform="rotate(-45 35.7071 18.1924)" stroke="currentColor"/><rect x="24.1213" y="22.3642" width="2" height="6" rx="1" transform="rotate(-135 24.1213 22.3642)" stroke="currentColor"/><rect x="55.3639" y="26.9497" width="2" height="6" rx="1" transform="rotate(135 55.3639 26.9497)" stroke="currentColor"/><rect x="9.12134" y="28.3642" width="2" height="6" rx="1" transform="rotate(-135 9.12134 28.3642)" stroke="currentColor"/><path d="M5 35C9 35 10 31 14 31C18 31 19 35 23 35" stroke="currentColor"/><path d="M41 35C45 35 46 31 50 31C54 31 55 35 59 35" stroke="currentColor"/></svg>
