<svg viewBox="0 0 32 32" fill="none" xmlns="http://www.w3.org/2000/svg" width="1em" height="1em"><circle cx="16" cy="16" r="13.5" stroke="currentColor"/><circle cx="16" cy="16" r="4.5" stroke="currentColor"/><rect x="8.75" y="11.25" width="0.5" height="2.5" rx="0.25" stroke="currentColor" stroke-width="0.5"/><rect x="15.75" y="4.25" width="0.5" height="2.5" rx="0.25" stroke="currentColor" stroke-width="0.5"/><rect x="22.25" y="11.25" width="0.5" height="2.5" rx="0.25" stroke="currentColor" stroke-width="0.5"/><rect x="22.25" y="8.75" width="0.5" height="2.5" rx="0.25" transform="rotate(-90 22.25 8.75)" stroke="currentColor" stroke-width="0.5"/><rect x="7.25" y="8.75" width="0.5" height="2.5" rx="0.25" transform="rotate(-90 7.25 8.75)" stroke="currentColor" stroke-width="0.5"/><rect x="11.3536" y="5.70703" width="0.5" height="2.5" rx="0.25" transform="rotate(-45 11.3536 5.70703)" stroke="currentColor" stroke-width="0.5"/><rect x="21.1213" y="5.35355" width="0.5" height="2.5" rx="0.25" transform="rotate(45 21.1213 5.35355)" stroke="currentColor" stroke-width="0.5"/><rect x="18.3536" y="8.70703" width="0.5" height="2.5" rx="0.25" transform="rotate(-45 18.3536 8.70703)" stroke="currentColor" stroke-width="0.5"/><rect x="12.707" y="10.7929" width="0.5" height="2.5" rx="0.25" transform="rotate(-135 12.707 10.7929)" stroke="currentColor" stroke-width="0.5"/><rect x="27.6818" y="13.1211" width="0.5" height="2.5" rx="0.25" transform="rotate(135 27.6818 13.1211)" stroke="currentColor" stroke-width="0.5"/><rect x="4.56055" y="14.1211" width="1" height="3" rx="0.5" transform="rotate(-135 4.56055 14.1211)" fill="currentColor"/><path d="M2.5 18C3.69388 18 4.44376 17.3853 5.06235 16.8904C5.69376 16.3853 6.19388 16 7 16V15C5.80612 15 5.05624 15.6147 4.43765 16.1096C3.80624 16.6147 3.30612 17 2.5 17V18ZM7 16C7.80612 16 8.30624 16.3853 8.93765 16.8904C9.55624 17.3853 10.3061 18 11.5 18V17C10.6939 17 10.1938 16.6147 9.56235 16.1096C8.94376 15.6147 8.19388 15 7 15V16Z" fill="currentColor"/><path d="M20.5 18C21.6939 18 22.4438 17.3853 23.0623 16.8904C23.6938 16.3853 24.1939 16 25 16V15C23.8061 15 23.0562 15.6147 22.4377 16.1096C21.8062 16.6147 21.3061 17 20.5 17V18ZM25 16C25.8061 16 26.3062 16.3853 26.9377 16.8904C27.5562 17.3853 28.3061 18 29.5 18V17C28.6939 17 28.1938 16.6147 27.5623 16.1096C26.9438 15.6147 26.1939 15 25 15V16Z" fill="currentColor"/></svg>
