<svg viewBox="0 0 24 24" fill="none" xmlns="http://www.w3.org/2000/svg" width="1em" height="1em"><circle cx="11.5" cy="12.5" r="3.25" stroke="currentColor"/><path d="M3 13.5C3.73164 13.5 4.19603 13.155 4.54215 12.9058C4.89047 12.655 5.12053 12.5 5.5 12.5V11.5C4.76836 11.5 4.30397 11.845 3.95785 12.0942C3.60953 12.345 3.37947 12.5 3 12.5V13.5ZM5.5 12.5C5.87947 12.5 6.10953 12.655 6.45785 12.9058C6.80397 13.155 7.26836 13.5 8 13.5V12.5C7.62053 12.5 7.39047 12.345 7.04215 12.0942C6.69603 11.845 6.23164 11.5 5.5 11.5V12.5Z" fill="currentColor"/><path d="M12 4.5L12 5.5" stroke="currentColor" stroke-linecap="round"/><path d="M21.5 12C21.5 17.2467 17.2467 21.5 12 21.5C6.7533 21.5 2.5 17.2467 2.5 12C2.5 6.7533 6.7533 2.5 12 2.5C17.2467 2.5 21.5 6.7533 21.5 12Z" stroke="currentColor"/><path d="M8 6L8.70711 6.70711" stroke="currentColor" stroke-linecap="round"/><path d="M15 6.70703L15.7071 5.99992" stroke="currentColor" stroke-linecap="round"/></svg>
