<svg viewBox="0 0 32 32" fill="none" xmlns="http://www.w3.org/2000/svg" width="1em" height="1em"><circle cx="16" cy="16" r="13.5" stroke="currentColor"/><circle cx="16" cy="16" r="4.5" stroke="currentColor"/><rect x="8.75" y="11.25" width="0.5" height="2.5" rx="0.25" stroke="currentColor" stroke-width="0.5"/><rect x="15.75" y="4.25" width="0.5" height="2.5" rx="0.25" stroke="currentColor" stroke-width="0.5"/><rect x="22.25" y="11.25" width="0.5" height="2.5" rx="0.25" stroke="currentColor" stroke-width="0.5"/><rect x="22.25" y="8.75" width="0.5" height="2.5" rx="0.25" transform="rotate(-90 22.25 8.75)" stroke="currentColor" stroke-width="0.5"/><rect x="7.25" y="8.75" width="0.5" height="2.5" rx="0.25" transform="rotate(-90 7.25 8.75)" stroke="currentColor" stroke-width="0.5"/><rect x="11.3536" y="5.70703" width="0.5" height="2.5" rx="0.25" transform="rotate(-45 11.3536 5.70703)" stroke="currentColor" stroke-width="0.5"/><rect x="21.1213" y="5.35355" width="0.5" height="2.5" rx="0.25" transform="rotate(45 21.1213 5.35355)" stroke="currentColor" stroke-width="0.5"/><rect x="18.3536" y="8.70703" width="0.5" height="2.5" rx="0.25" transform="rotate(-45 18.3536 8.70703)" stroke="currentColor" stroke-width="0.5"/><rect x="12.707" y="10.7929" width="0.5" height="2.5" rx="0.25" transform="rotate(-135 12.707 10.7929)" stroke="currentColor" stroke-width="0.5"/><rect x="27.6818" y="13.1211" width="0.5" height="2.5" rx="0.25" transform="rotate(135 27.6818 13.1211)" stroke="currentColor" stroke-width="0.5"/><rect x="4.56055" y="14.1211" width="1" height="3" rx="0.5" transform="rotate(-135 4.56055 14.1211)" fill="currentColor"/><path d="M2.5 17.5C4.5 17.5 5 15.5 7 15.5C9 15.5 9.5 17.5 11.5 17.5" stroke="currentColor"/><path d="M20.5 17.5C22.5 17.5 23 15.5 25 15.5C27 15.5 27.5 17.5 29.5 17.5" stroke="currentColor"/></svg>
