<svg viewBox="0 0 64 64" fill="none" xmlns="http://www.w3.org/2000/svg" width="1em" height="1em"><circle cx="32" cy="32" r="27.5" stroke="currentColor"/><circle cx="32" cy="32" r="9.5" stroke="currentColor"/><rect x="17.5" y="23.5" width="2" height="6" rx="1" stroke="currentColor"/><rect x="30.5" y="7.5" width="2" height="6" rx="1" stroke="currentColor"/><rect x="44.5" y="23.5" width="2" height="6" rx="1" stroke="currentColor"/><rect x="44.5" y="18.5" width="2" height="6" rx="1" transform="rotate(-90 44.5 18.5)" stroke="currentColor"/><rect x="13.5" y="18.5" width="2" height="6" rx="1" transform="rotate(-90 13.5 18.5)" stroke="currentColor"/><rect x="18.7071" y="11.1211" width="2" height="6" rx="1" transform="rotate(-45 18.7071 11.1211)" stroke="currentColor"/><rect x="42.9497" y="9.70711" width="2" height="6" rx="1" transform="rotate(45 42.9497 9.70711)" stroke="currentColor"/><rect x="35.7071" y="18.1924" width="2" height="6" rx="1" transform="rotate(-45 35.7071 18.1924)" stroke="currentColor"/><rect x="24.1213" y="22.3642" width="2" height="6" rx="1" transform="rotate(-135 24.1213 22.3642)" stroke="currentColor"/><rect x="55.3639" y="26.9497" width="2" height="6" rx="1" transform="rotate(135 55.3639 26.9497)" stroke="currentColor"/><rect x="9.12134" y="28.3642" width="2" height="6" rx="1" transform="rotate(-135 9.12134 28.3642)" stroke="currentColor"/><path d="M5 35.5C7.19388 35.5 8.56876 34.3853 9.81235 33.3904C11.0688 32.3853 12.1939 31.5 14 31.5V30.5C11.8061 30.5 10.4312 31.6147 9.18765 32.6096C7.93124 33.6147 6.80612 34.5 5 34.5V35.5ZM14 31.5C15.8061 31.5 16.9312 32.3853 18.1877 33.3904C19.4312 34.3853 20.8061 35.5 23 35.5V34.5C21.1939 34.5 20.0688 33.6147 18.8123 32.6096C17.5688 31.6147 16.1939 30.5 14 30.5V31.5Z" fill="currentColor"/><path d="M41 35.5C43.1939 35.5 44.5688 34.3853 45.8123 33.3904C47.0688 32.3853 48.1939 31.5 50 31.5V30.5C47.8061 30.5 46.4312 31.6147 45.1877 32.6096C43.9312 33.6147 42.8061 34.5 41 34.5V35.5ZM50 31.5C51.8061 31.5 52.9312 32.3853 54.1877 33.3904C55.4312 34.3853 56.8061 35.5 59 35.5V34.5C57.1939 34.5 56.0688 33.6147 54.8123 32.6096C53.5688 31.6147 52.1939 30.5 50 30.5V31.5Z" fill="currentColor"/></svg>
