<svg xmlns="http://www.w3.org/2000/svg" fill="none" viewBox="0 0 24 24" width="1em" height="1em"><path stroke="currentColor" stroke-linecap="round" d="M18.706 3.72a1.795 1.795 0 0 0-2.222-1.164l-5.302 1.587c-.521.156-1.04.6-1.299 1.055L4.472 14.73a1.791 1.791 0 0 0 .676 2.441l7.308 4.15c.86.488 1.955.19 2.443-.671l5.412-9.532c.269-.474.415-1.176.225-1.76l-1.83-5.637Z"/><path stroke="currentColor" stroke-linecap="round" d="M15 11.593v-.156 0c0-.863-.7-1.562-1.563-1.562h-1.874c-.863 0-1.563.7-1.563 1.562v0C10 12.3 10.7 13 11.563 13h1.874C14.3 13 15 13.7 15 14.561v0c0 .863-.7 1.563-1.563 1.563h-1.874c-.863 0-1.563-.7-1.563-1.563v0-.313m2.5-5.623v8.75"/><path stroke="currentColor" d="M17.065 6.753a1 1 0 1 1-1.739-.987 1 1 0 0 1 1.74.987Z"/></svg>
