<svg xmlns="http://www.w3.org/2000/svg" fill="none" viewBox="0 0 32 32" width="1em" height="1em"><path stroke="currentColor" stroke-linecap="round" d="M20 14.75v-.25 0a2.5 2.5 0 0 0-2.5-2.5h-3a2.5 2.5 0 0 0-2.5 2.5v0a2.5 2.5 0 0 0 2.5 2.5h3a2.5 2.5 0 0 1 2.5 2.5v0a2.5 2.5 0 0 1-2.5 2.5h-3a2.5 2.5 0 0 1-2.5-2.5v0-.5m4-9v14"/><path stroke="currentColor" stroke-linecap="round" d="M14.747 4.48a2.5 2.5 0 0 0-1.494 1.16m1.494-1.16-1.494 1.16m1.494-1.16.134.483-1.628.676m1.494-1.158 6.935-1.93a2.5 2.5 0 0 1 3.057 1.663l2.288 7.324a2.5 2.5 0 0 1-.222 1.995l-8.55 14.81a2.5 2.5 0 0 1-3.415.915l-9.253-5.342a2.5 2.5 0 0 1-.915-3.415l8.58-14.862"/><circle cx="21.727" cy="6.727" r="1.5" stroke="currentColor" transform="rotate(29.585 21.727 6.727)"/></svg>
