<svg xmlns="http://www.w3.org/2000/svg" fill="none" viewBox="0 0 24 24" width="1em" height="1em"><rect width="4" height="3" x="17.5" y="17.5" stroke="currentColor" rx=".5"/><rect width="4" height="3" x="2.5" y="17.5" stroke="currentColor" rx=".5"/><rect width="7" height="3" x="8.5" y="18.5" stroke="currentColor" rx=".5"/><path stroke="currentColor" stroke-linecap="round" d="M12 12.5v6m-7.5-1V16a1 1 0 0 1 1-1h13a1 1 0 0 1 1 1v1.5"/><path stroke="currentColor" stroke-miterlimit="10" d="M16.755 6.472h-.501a4.257 4.257 0 0 0-.515-1.247l.348-.347a.249.249 0 0 0 0-.36l-1.093-1.093a.249.249 0 0 0-.36 0l-.347.347a4.256 4.256 0 0 0-1.247-.514v-.5a.258.258 0 0 0-.256-.258H11.24a.258.258 0 0 0-.257.257v.501a4.27 4.27 0 0 0-1.246.514l-.36-.347a.248.248 0 0 0-.36 0L7.925 4.518a.249.249 0 0 0 0 .36l.347.347a4.257 4.257 0 0 0-.514 1.247h-.501A.258.258 0 0 0 7 6.729V8.27c0 .142.116.257.257.257h.501c.103.45.283.861.514 1.247l-.347.347a.249.249 0 0 0 0 .36l1.093 1.093a.248.248 0 0 0 .36 0l.347-.348c.385.232.796.412 1.246.515v.5c0 .142.116.258.257.258h1.543a.258.258 0 0 0 .257-.257v-.501c.45-.103.86-.283 1.246-.515l.347.348a.248.248 0 0 0 .36 0l1.093-1.093a.249.249 0 0 0 0-.36l-.347-.347c.231-.386.41-.797.514-1.247h.501a.258.258 0 0 0 .257-.257V6.73a.24.24 0 0 0-.244-.257Z"/><path stroke="currentColor" d="M14 7.5a2 2 0 1 1-4 0 2 2 0 0 1 4 0Z"/></svg>
