<svg xmlns="http://www.w3.org/2000/svg" fill="none" viewBox="0 0 32 32" width="1em" height="1em"><rect width="6" height="4" x="23.5" y="23.5" stroke="currentColor" rx="1.5"/><rect width="6" height="4" x="2.5" y="23.5" stroke="currentColor" rx="1.5"/><rect width="9" height="5" x="11.5" y="24.5" stroke="currentColor" rx="1.5"/><path stroke="currentColor" d="M16 18v6m10.5-.5v-2a1 1 0 0 0-1-1h-19a1 1 0 0 0-1 1V23"/><circle cx="16" cy="10" r="2.5" stroke="currentColor"/><circle cx="16" cy="10" r="4.5" stroke="currentColor"/><path stroke="currentColor" stroke-miterlimit="10" d="M23.132 8.458h-.752a6.4 6.4 0 0 0-.77-1.87l.52-.521a.373.373 0 0 0 0-.54l-1.64-1.639a.373.373 0 0 0-.54 0l-.52.52a6.4 6.4 0 0 0-1.87-.77v-.752a.387.387 0 0 0-.386-.386h-2.313a.387.387 0 0 0-.386.386v.752a6.4 6.4 0 0 0-1.87.77l-.54-.52a.373.373 0 0 0-.54 0L9.889 5.527a.373.373 0 0 0 0 .54l.52.52a6.4 6.4 0 0 0-.77 1.87h-.752a.387.387 0 0 0-.386.386v2.314c0 .212.174.385.386.385h.751a6.4 6.4 0 0 0 .772 1.87l-.521.521a.373.373 0 0 0 0 .54l1.639 1.639a.373.373 0 0 0 .54 0l.52-.52a6.4 6.4 0 0 0 1.87.77v.752c0 .212.173.386.386.386h2.313a.387.387 0 0 0 .386-.386v-.751a6.4 6.4 0 0 0 1.87-.772l.52.52a.373.373 0 0 0 .54 0l1.638-1.638a.373.373 0 0 0 0-.54l-.52-.52a6.4 6.4 0 0 0 .771-1.87h.752a.387.387 0 0 0 .386-.386V8.843a.36.36 0 0 0-.367-.385Z"/></svg>
