<svg xmlns="http://www.w3.org/2000/svg" fill="none" viewBox="0 0 32 32" width="1em" height="1em"><rect width="27" height="21" x="2.5" y="5.5" stroke="currentColor" rx="1.5"/><path stroke="currentColor" d="M3 9.5h26"/><circle cx="4.5" cy="7.5" r=".5" fill="currentColor"/><circle cx="6.5" cy="7.5" r=".5" fill="currentColor"/><circle cx="8.5" cy="7.5" r=".5" fill="currentColor"/><path stroke="currentColor" stroke-linejoin="round" d="m6.656 19.254-1.31-1.264a.25.25 0 0 1 .127-.426l1.915-.367a.25.25 0 0 0 .181-.142l.703-1.553a.25.25 0 0 1 .456 0l.703 1.553a.25.25 0 0 0 .18.142l1.916.367a.25.25 0 0 1 .127.426l-1.31 1.264a.25.25 0 0 0-.073.22l.333 2.017a.25.25 0 0 1-.368.26l-1.615-.891a.25.25 0 0 0-.242 0l-1.615.891a.25.25 0 0 1-.368-.26l.333-2.017a.25.25 0 0 0-.073-.22Zm15 0-1.31-1.264a.25.25 0 0 1 .127-.426l1.916-.367a.25.25 0 0 0 .18-.142l.703-1.553a.25.25 0 0 1 .456 0l.703 1.553a.25.25 0 0 0 .18.142l1.916.367a.25.25 0 0 1 .127.426l-1.31 1.264a.25.25 0 0 0-.073.22l.333 2.017a.25.25 0 0 1-.368.26l-1.615-.891a.25.25 0 0 0-.242 0l-1.615.891a.25.25 0 0 1-.368-.26l.333-2.017a.25.25 0 0 0-.073-.22Zm-7.5-3-1.31-1.264a.25.25 0 0 1 .127-.426l1.915-.367a.25.25 0 0 0 .181-.142l.703-1.553a.25.25 0 0 1 .456 0l.703 1.553a.25.25 0 0 0 .18.142l1.916.367a.25.25 0 0 1 .127.426l-1.31 1.264a.25.25 0 0 0-.073.22l.333 2.017a.25.25 0 0 1-.368.26l-1.615-.891a.25.25 0 0 0-.242 0l-1.615.891a.25.25 0 0 1-.368-.26l.333-2.017a.25.25 0 0 0-.073-.22Z"/></svg>
