<svg xmlns="http://www.w3.org/2000/svg" fill="none" viewBox="0 0 16 16" width="1em" height="1em"><path stroke="currentColor" d="m10.311 10.542-.618-.597a.5.5 0 0 1 .253-.85l.956-.184a.5.5 0 0 0 .361-.285l.282-.62a.5.5 0 0 1 .91 0l.282.62a.5.5 0 0 0 .361.285l.956.183a.5.5 0 0 1 .253.851l-.618.597a.5.5 0 0 0-.146.44l.164 1.001a.5.5 0 0 1-.735.52l-.73-.404a.5.5 0 0 0-.484 0l-.73.403a.5.5 0 0 1-.735-.519l.164-1a.5.5 0 0 0-.146-.441Zm-8 0-.618-.597a.5.5 0 0 1 .253-.85l.956-.184a.5.5 0 0 0 .361-.285l.282-.62a.5.5 0 0 1 .91 0l.282.62a.5.5 0 0 0 .361.285l.956.183a.5.5 0 0 1 .253.851l-.618.597a.5.5 0 0 0-.146.44l.164 1.001a.5.5 0 0 1-.734.52l-.731-.404a.5.5 0 0 0-.484 0l-.73.403a.5.5 0 0 1-.735-.519l.164-1a.5.5 0 0 0-.146-.441Zm4-6-.618-.597a.5.5 0 0 1 .253-.85l.956-.184a.5.5 0 0 0 .361-.285l.282-.62a.5.5 0 0 1 .91 0l.282.62a.5.5 0 0 0 .361.285l.956.183a.5.5 0 0 1 .253.851l-.618.597a.5.5 0 0 0-.146.44l.164 1.001a.5.5 0 0 1-.734.52l-.731-.404a.5.5 0 0 0-.484 0l-.73.403a.5.5 0 0 1-.735-.519l.164-1a.5.5 0 0 0-.146-.441Z"/></svg>
