<svg xmlns="http://www.w3.org/2000/svg" fill="none" viewBox="0 0 16 16" width="1em" height="1em"><path stroke="currentColor" d="M12.5 6c0 .506-.154 1.148-.433 1.882-.276.726-.663 1.51-1.098 2.29-.87 1.559-1.917 3.067-2.612 4.02a.435.435 0 0 1-.714 0c-.695-.953-1.741-2.461-2.612-4.02-.435-.78-.822-1.564-1.098-2.29C3.653 7.148 3.5 6.506 3.5 6c0-1.453.512-2.568 1.308-3.32C5.608 1.923 6.73 1.5 8 1.5c1.27 0 2.392.423 3.192 1.18.796.752 1.308 1.867 1.308 3.32Z"/><circle cx="8" cy="6" r="1.5" stroke="currentColor"/></svg>
