<svg xmlns="http://www.w3.org/2000/svg" fill="none" viewBox="0 0 32 32" width="1em" height="1em"><path stroke="currentColor" stroke-linecap="round" d="M25.5 8.5h2a2 2 0 0 1 2 2v16a2 2 0 0 1-2 2h-23a2 2 0 0 1-2-2v-16a2 2 0 0 1 2-2h7"/><path stroke="currentColor" stroke-linecap="round" stroke-linejoin="round" d="m2.5 10.926 4.773 4.86a1 1 0 0 1-.013 1.415L2.5 21.874M7.374 8.5l12.645 12.645a1 1 0 0 0 1.435-.022l8.046-8.55m0 5.643-5.414 5.577a1 1 0 0 0 .01 1.404L27.4 28.5m-24.9-2 7.615-7.326a1 1 0 0 1 1.394.007L21 28.5"/><path stroke="currentColor" d="M22.5 7.828c0 1.047-.557 2.508-1.328 4-.758 1.469-1.678 2.884-2.315 3.81a.425.425 0 0 1-.714 0c-.637-.926-1.557-2.341-2.315-3.81-.77-1.492-1.328-2.953-1.328-4 0-1.206.349-2.29 1.006-3.063.648-.763 1.63-1.265 2.994-1.265 1.365 0 2.346.502 2.994 1.265.657.773 1.006 1.857 1.006 3.063Z"/><path stroke="currentColor" d="M20 7.5a1.5 1.5 0 1 1-3 0 1.5 1.5 0 0 1 3 0Z"/></svg>
