<svg xmlns="http://www.w3.org/2000/svg" fill="none" viewBox="0 0 24 24" width="1em" height="1em"><path stroke="currentColor" stroke-linecap="round" d="M20.5 5.5v0a1 1 0 0 1 1 1v12a2 2 0 0 1-2 2h-15a2 2 0 0 1-2-2v-11a2 2 0 0 1 2-2h4"/><path stroke="currentColor" stroke-linecap="round" stroke-linejoin="round" d="m2.5 8 2.793 2.793a1 1 0 0 1 0 1.414L2.5 15m3-9.5 8.793 8.793a1 1 0 0 0 1.414 0L21.5 8.5m0 4-3.793 3.793a1 1 0 0 0 0 1.414L20 20M2.5 18.5l4.793-4.793a1 1 0 0 1 1.414 0L15.5 20.5"/><path stroke="currentColor" d="M17.5 5.75c0 .276-.084.639-.253 1.074-.167.43-.403.898-.676 1.373-.547.95-1.223 1.896-1.73 2.565a.42.42 0 0 1-.681 0c-.508-.67-1.184-1.614-1.73-2.565-.274-.475-.51-.943-.677-1.373-.169-.435-.253-.798-.253-1.074 0-1.828 1.375-3.25 3-3.25s3 1.422 3 3.25Z"/><circle cx="14.5" cy="5.5" r="1" stroke="currentColor"/></svg>
