<svg viewBox="0 0 16 16" fill="none" xmlns="http://www.w3.org/2000/svg" width="1em" height="1em"><circle cx="8" cy="8" r="6.5" stroke="currentColor"/><path d="M13 12.4631C11.6488 11.8611 9.92218 11.5 8.04085 11.5C6.12139 11.5 4.36301 11.8759 3 12.5" stroke="currentColor"/><path d="M1.25 7.5L14.75 7.5" stroke="currentColor"/><path d="M13 3.5369C11.6488 4.13889 9.92218 4.5 8.04085 4.5C6.12139 4.5 4.36301 4.1241 3 3.5" stroke="currentColor"/><path d="M8.5 14.3871C10.3135 12.9613 11.5 10.7458 11.5 7.9997C11.5 5.25357 10.3135 3.03809 8.5 1.6123" stroke="currentColor"/><path d="M7.41995 14.3233C5.65168 12.8957 4.5 10.7052 4.5 7.9997C4.5 5.25357 5.68652 3.03809 7.5 1.6123" stroke="currentColor"/><path d="M8 1.25L8 14.75" stroke="currentColor"/></svg>
