<svg viewBox="0 0 24 24" fill="none" xmlns="http://www.w3.org/2000/svg" width="1em" height="1em"><circle cx="12" cy="12" r="9.5" stroke="currentColor"/><path d="M19.1426 18.376C17.2123 17.516 14.7458 17.0001 12.0581 17.0001C9.31606 17.0001 6.80409 17.5371 4.85693 18.4287" stroke="currentColor"/><path d="M2 11.5L21 11.5" stroke="currentColor"/><path d="M19.1426 5.624C17.2123 6.48399 14.7458 6.99986 12.0581 6.99986C9.31606 6.99986 6.80409 6.46286 4.85693 5.57129" stroke="currentColor"/><path d="M12 2.5C9.01099 4.46652 7 7.79023 7 12C7 16.2098 9.01099 19.5335 12 21.5" stroke="currentColor"/><path d="M12 2.35742L12 21.6431" stroke="currentColor"/><path d="M12 2.5C14.989 4.46652 17 7.79023 17 12C17 16.2098 14.989 19.5335 12 21.5" stroke="currentColor"/></svg>
