<svg xmlns="http://www.w3.org/2000/svg" fill="none" viewBox="0 0 24 24" width="1em" height="1em"><circle cx="12" cy="12" r="9.5" stroke="currentColor"/><path stroke="currentColor" d="M19.143 18.376c-1.93-.86-4.397-1.376-7.085-1.376-2.742 0-5.254.537-7.201 1.429M2 11.5h19m-1.857-5.876C17.213 6.484 14.746 7 12.058 7c-2.742 0-5.254-.537-7.201-1.43"/><path stroke="currentColor" d="M12 2.5C9.011 4.467 7 7.79 7 12s2.011 7.534 5 9.5m0-19.143v19.286M12 2.5c2.989 1.967 5 5.29 5 9.5s-2.011 7.534-5 9.5"/></svg>
