<svg xmlns="http://www.w3.org/2000/svg" fill="none" viewBox="0 0 16 16" width="1em" height="1em"><circle cx="8" cy="8" r="6.5" stroke="currentColor"/><path stroke="currentColor" d="M13 12.463c-1.351-.602-3.078-.963-4.96-.963-1.919 0-3.677.376-5.04 1m-1.75-5h13.5M13 3.537c-1.351.602-3.078.963-4.96.963-1.919 0-3.677-.376-5.04-1"/><path stroke="currentColor" d="M8.5 14.387c1.813-1.426 3-3.641 3-6.387s-1.187-4.962-3-6.388M7.42 14.323C5.652 12.896 4.5 10.705 4.5 8c0-2.746 1.187-4.962 3-6.388M8 1.25v13.5"/></svg>
