<svg viewBox="0 0 32 32" fill="none" xmlns="http://www.w3.org/2000/svg" width="1em" height="1em"><circle cx="16" cy="16" r="13.5" stroke="currentColor"/><path d="M26 24.9262C23.2975 23.7222 19.8444 23 16.0817 23C12.2428 23 8.72602 23.7518 6 25" stroke="currentColor"/><path d="M26 7.0738C23.2975 8.27778 19.8444 9 16.0817 9C12.2428 9 8.72602 8.2482 6 7" stroke="currentColor"/><path d="M16 2.5L16 29.5" stroke="currentColor"/><path d="M16 2.5C20.1846 5.29452 23 10.0177 23 16C23 21.9823 20.1846 26.7055 16 29.5" stroke="currentColor"/><path d="M16 2.5C11.8154 5.29452 9 10.0177 9 16C9 21.9823 11.8154 26.7055 16 29.5" stroke="currentColor"/><path d="M2.44151 15.5L29.4914 15.5" stroke="currentColor"/></svg>
