<svg enable-background="new 0 0 512 512" height="512" viewBox="0 0 512 512" width="512" xmlns="http://www.w3.org/2000/svg"><path d="m276.029 67.131c.201-.019.298-.028.324-.03-.041.003-.183.017-.324.03z"/><path d="m276.004 67.133c.01-.001.018-.001.025-.002-.008.001-.015.001-.025.002z"/><path d="m275.736 67.158c.039-.004.07-.007.104-.01-.061.006-.104.01-.104.01z"/><path d="m276.354 67.101c.011-.001.011-.001 0 0z"/><path d="m275.842 67.148c.014-.001.026-.002.041-.004-.014.002-.028.003-.041.004z"/><path d="m275.883 67.145c.043-.004.085-.008.121-.011-.043.003-.084.007-.121.011z"/><path d="m283.864 67.091c-.027-.003-.03-.003 0 0z"/><path d="m284.491 67.158c-.017-.001-.025-.003-.04-.004.024.002.04.004.04.004z"/><path d="m284.371 67.146c-.305-.033-.456-.049-.507-.055.077.009.347.037.507.055z"/><path d="m284.451 67.154c-.021-.002-.047-.005-.08-.008.027.002.051.005.08.008z"/><path d="m113.664 140.567c.009-.001.024-.002.03-.003-.01.001-.015.002-.03.003z"/><path d="m113.426 140.591c.08-.008.174-.018.238-.024-.045.005-.126.013-.238.024z"/><path d="m113.272 140.606s.06-.006.134-.013c-.046.005-.075.008-.134.013z"/><path d="m113.406 140.593c.006-.001.013-.001.02-.002-.008.001-.013.001-.02.002z"/><path d="m119.832 140.593c-.006 0-.011-.001-.017-.001.005 0 .011 0 .017.001z"/><path d="m119.551 140.567c-.086-.007-.104-.009 0 0z"/><path d="m119.815 140.591c-.125-.011-.214-.02-.264-.024.071.007.175.016.264.024z"/><path d="m113.694 140.564c.042-.004.053-.005 0 0z"/><path d="m119.982 140.606c-.065-.006-.099-.009-.15-.014.084.009.15.014.15.014z"/><path d="m284.491 67.158c-1.468-.157-7.341-.132-8.755 0-37.904 3.67-59.058 36.383-59.058 36.383s-12.032 14.365-8.677 30.041c4.561 21.232 11.062 39.057 3.25 58.219-3.513 8.65 5.819 27.864 6.134 30.932 1.442 14.338 21.154 21.888 23.304 62.623 1.289 24.42-39.459 43.955-72.311 55.689-12.763-7.941-22.156-17.471-21.606-28.191 1.625-32.164 16.724-38.113 17.825-49.438.209-2.411 7.365-17.589 4.665-24.404-5.977-15.15-.996-29.201 2.49-45.978 2.596-12.372-6.632-23.696-6.632-23.696s-16.146-25.846-45.139-28.729c-1.153-.104-5.662-.104-6.71 0-28.992 2.884-45.191 28.729-45.191 28.729s-9.018 11.298-6.605 23.696c3.276 16.882 8.44 30.827 2.464 45.978-2.674 6.815 4.456 21.993 4.718 24.404 1.075 11.324 16.147 17.273 17.799 49.438 1.651 32.162-86.162 53.604-86.162 53.604v49.542h351.407v-62.754s-34.286-27.156-32.137-67.893c2.147-40.733 21.859-48.285 23.275-62.623.314-3.067 9.646-22.281 6.134-30.932-7.812-19.162-1.311-36.986 3.25-58.219 3.384-15.675-8.648-30.04-8.648-30.04s-21.127-32.711-59.084-36.381z"/><path d="m496.014 337.053s0-36.789 0-49.053c0-15.287-15.731-42.292-47.981-42.292-31.75 0-48.042 25.511-48.042 42.292v49.053h-15.991v110.947h127.501v-110.947zm-63.974-.001-.04-39.03s.131-26.021 16.03-26.021c16.18 0 15.97 26.021 15.97 26.021l.024 39.03z"/></svg>