<svg enable-background="new 0 0 512 512" height="512" viewBox="0 0 512 512" width="512" xmlns="http://www.w3.org/2000/svg"><path d="m251.398 67.167c1.477-.142 0 0 0 0zm0 0c-39.869 3.663-62.133 36.377-62.133 36.377s-12.637 14.369-9.087 30.073c4.771 21.212 11.643 39.018 3.407 58.187-3.692 8.661 6.134 27.857 6.446 30.924 1.505 14.341 22.234 21.866 24.506 62.618 2.272 40.75-118.472 67.896-118.472 67.896v62.758h319.867v-62.758s-120.744-27.148-118.474-67.896c2.272-40.751 23.002-48.277 24.507-62.618.313-3.066 10.137-22.263 6.446-30.924-8.236-19.169-1.363-36.974 3.407-58.187 3.55-15.704-9.087-30.073-9.087-30.073s-22.26-32.714-62.131-36.377c-1.534-.17-7.725-.142-9.202 0zm9.202 0s-1.534-.17 0 0z"/></svg>