<svg xmlns="http://www.w3.org/2000/svg" xmlns:xlink="http://www.w3.org/1999/xlink" viewBox="-269 416.89 20 20" xml:space="preserve">
	<circle fill-rule="evenodd" clip-rule="evenodd" cx="-264.367" cy="431.89" r="1.6"/>
	<circle fill-rule="evenodd" clip-rule="evenodd" cx="-264.367" cy="426.89" r="1.6"/>
    <circle fill-rule="evenodd" clip-rule="evenodd" cx="-264.367" cy="421.89" r="1.6"/>
	<path d="M-253.033,432.89h-7.339c-0.552,0-1-0.448-1-1s0.448-1,1-1h7.339c0.552,0,1,0.448,1,1
		S-252.48,432.89-253.033,432.89z"/>
	<path d="M-253.033,427.89h-7.339c-0.552,0-1-0.448-1-1s0.448-1,1-1h7.339c0.552,0,1,0.448,1,1
		S-252.48,427.89-253.033,427.89z"/>
	<path d="M-253.033,422.89h-7.339c-0.552,0-1-0.448-1-1s0.448-1,1-1h7.339c0.552,0,1,0.448,1,1
		S-252.48,422.89-253.033,422.89z"/>	
</svg>
