<?xml version="1.0" encoding="utf-8"?>
<!-- Generator: Adobe Illustrator 19.1.0, SVG Export Plug-In . SVG Version: 6.00 Build 0)  -->
<svg version="1.1" id="Calque_1" xmlns="http://www.w3.org/2000/svg" xmlns:xlink="http://www.w3.org/1999/xlink" x="0px" y="0px"
	 viewBox="0 0 20 20" style="enable-background:new 0 0 20 20;" xml:space="preserve">
<style type="text/css">
	.st0{fill:#000000;}
	.st1{fill-rule:evenodd;clip-rule:evenodd;fill:#000000;}
	.st2{fill-rule:evenodd;clip-rule:evenodd;fill:none;}
	.st3{clip-path:url(#SVGID_2_);fill:#000000;}
	.st4{fill-rule:evenodd;clip-rule:evenodd;fill:#000000;}
</style>
<g>
	<path class="st1" d="M10,17.2c-4,0-7.2-3.2-7.2-7.2S6,2.8,10,2.8S17.2,6,17.2,10S14,17.2,10,17.2z M10,1c-5,0-9,4-9,9s4,9,9,9
		c5,0,9-4,9-9S15,1,10,1z"/>
	<polygon class="st1" points="10.5,5.5 9.1,5.5 9.1,10.9 13.8,13.7 14.5,12.6 10.5,10.2 	"/>
</g>
<rect x="-290.2" y="-396" class="st2" width="960" height="800"/>
<rect x="-290.2" y="-396" class="st2" width="960" height="800"/>
<rect x="-40.5" y="-82.3" class="st2" width="1920" height="1080"/>
</svg>
