<svg width="20" height="20" xmlns="http://www.w3.org/2000/svg" xmlns:svg="http://www.w3.org/2000/svg" viewBox="0 0 20 20" >
  <g>
   <circle r="1.70297" cy="15.54704" cx="4.25247" fill="#395F83"/>
   <circle r="1.70297" cy="10.22525" cx="4.25247" fill="#395F83"/>
   <path d="m16.38615,16.6114l-7.87625,0c-0.63862,0 -1.06436,-0.42574 -1.06436,-1.06436s0.42574,-1.06436 1.06436,-1.06436l7.87625,0c0.63862,0 1.06436,0.42574 1.06436,1.06436s-0.53218,1.06436 -1.06436,1.06436z" fill="#395F83"/>
   <path d="m16.38615,11.28961l-7.87625,0c-0.63862,0 -1.06436,-0.42574 -1.06436,-1.06436s0.42574,-1.06436 1.06436,-1.06436l7.87625,0c0.63862,0 1.06436,0.42574 1.06436,1.06436s-0.53218,1.06436 -1.06436,1.06436z" fill="#395F83"/>
   <path d="m16.38615,5.96782l-7.87625,0c-0.63862,0 -1.06436,-0.42574 -1.06436,-1.06436s0.42574,-1.06436 1.06436,-1.06436l7.87625,0c0.63862,0 1.06436,0.42574 1.06436,1.06436s-0.53218,1.06436 -1.06436,1.06436z" fill="#395F83"/>
   <circle r="1.70297" cy="4.90346" cx="4.25247" fill="#395F83"/>
  </g>
</svg>
