<svg xmlns="http://www.w3.org/2000/svg" viewBox="0 0 500 500">
    <path d="M250,0 C388,0 500,112 500,250 C500,388 388,500 250,500 C112,500 0,388 0,250 C0,112 112,0 250,0 Z M230.203608,317.953746 L230.203608,131.93142 C230.203611,122.46571 240.351804,113 250.5,113 C260.648196,113 270.796392,120.572568 270.796392,131.93142 L270.796392,317.953746 L301.240979,289.556616 C315.448454,276.304622 331.685567,289.556616 331.685567,289.556616 C331.685567,289.556616 345.893041,302.80861 331.685567,316.060604 L264.707474,382.320574 C256.588918,389.893142 244.411082,389.893142 236.292526,382.320574 L169.314433,317.953746 C155.106959,304.701752 169.314433,289.556616 169.314433,289.556616 C169.314433,289.556616 185.551546,276.304622 199.759021,289.556616 L230.203608,317.953746 Z M250,50 C139.6,50 50,139.6 50,250 C50,360.4 139.6,450 250,450 C360.4,450 450,360.4 450,250 C450,139.6 360.4,50 250,50 Z" fill="#000000" fill-rule="nonzero"></path>
</svg>