<svg viewBox="0 0 64 64" fill="none" xmlns="http://www.w3.org/2000/svg">
<path d="M64 31.9999C64.0057 36.3317 63.1288 40.6193 61.4229 44.601L61.3169 44.8453C58.4313 51.4099 53.4277 56.8173 47.1063 60.2028C40.7849 63.5882 33.5108 64.7562 26.4473 63.5198C26.2551 63.4857 26.0633 63.4504 25.8717 63.4138C23.8924 63.0301 21.9541 62.4585 20.0833 61.7068C19.7794 61.5847 19.4777 61.4581 19.1782 61.3271C18.9737 61.2382 18.7692 61.1463 18.5666 61.0516C13.0243 58.483 8.33184 54.3834 5.0423 49.2361C1.75276 44.0889 0.00325364 38.1085 0 31.9999C0 14.3271 14.3271 0 32 0C49.6729 0 64 14.3271 64 31.9999Z" fill="#79D1C3"/>
<path opacity="0.2" d="M20.9905 22.8659C20.3865 26.2739 21.72 29.3598 21.72 29.3598C21.72 29.3598 24.0328 26.9203 24.6369 23.5122C25.241 20.1042 23.9075 17.0183 23.9075 17.0183C23.9075 17.0183 21.5946 19.4579 20.9905 22.8659Z" fill="black"/>
<path d="M31.9343 39.0857C38.8242 39.0857 44.4095 33.5004 44.4095 26.6105C44.4095 19.7206 38.8242 14.1353 31.9343 14.1353C25.0444 14.1353 19.459 19.7206 19.459 26.6105C19.459 33.5004 25.0444 39.0857 31.9343 39.0857Z" fill="#D0CDE1"/>
<path d="M27.061 36.1624C27.061 36.1624 28.6204 43.5696 28.6204 44.3493C28.6204 45.129 36.0276 48.6377 36.0276 48.6377L42.6551 47.4681L44.9942 40.4508C44.9942 40.4508 41.0957 34.603 41.0957 32.2639L27.061 36.1624Z" fill="#D0CDE1"/>
<path d="M61.4228 44.6011L61.3168 44.8453C58.4312 51.41 53.4276 56.8174 47.1062 60.2028C40.7848 63.5883 33.5107 64.7562 26.4472 63.5198C26.255 63.4858 26.0632 63.4504 25.8716 63.4138C23.8923 63.0301 21.954 62.4585 20.0832 61.7068C19.7793 61.5847 19.4776 61.4581 19.1781 61.3272C18.9736 61.2382 18.7691 61.1464 18.5665 61.0517C16.7301 60.2009 14.9786 59.1776 13.3357 57.9956L11.8569 53.7059L12.6882 53.0716L14.398 51.766L16.2224 50.3734L16.6967 50.0108L23.855 44.5462L24.3833 44.1429L28.104 41.3026L28.105 41.3017C28.105 41.3017 32.1286 47.8579 37.9767 45.9085C43.8247 43.9592 43.6969 38.3696 43.6969 38.3696L61.4228 44.6011Z" fill="#2F2E41"/>
<path d="M21.1156 16.5592C21.1156 16.5592 25.0765 7.97742 32.6681 9.95784C40.2598 11.9383 44.5507 14.9089 44.8807 17.8795C45.2108 20.8502 44.7157 25.3061 44.7157 25.3061C44.7157 25.3061 43.8905 19.1998 38.6094 20.5201C33.3283 21.8404 25.0765 20.8502 25.0765 20.8502L23.7562 32.7327C23.7562 32.7327 22.2709 30.5872 20.6205 31.9075C18.9702 33.2278 15.8345 19.1998 21.1156 16.5592Z" fill="#2F2E41"/>
<path d="M20.0836 61.7072C19.7797 61.5851 19.478 61.4586 19.1786 61.3276C18.9741 61.2386 18.7696 61.1468 18.567 61.0521C15.5297 59.6437 12.7317 57.7685 10.2744 55.4947C11.1445 54.3094 11.8574 53.7063 11.8574 53.7063H17.7054L18.5821 56.6545L20.0836 61.7072Z" fill="#2F2E41"/>
<path d="M56.3003 43.9587L61.3171 44.8449C59.9745 47.9034 58.1613 50.7327 55.9434 53.2302L56.3003 43.9587Z" fill="#2F2E41"/>
</svg>