<svg viewBox="0 0 24 24" xmlns="http://www.w3.org/2000/svg">
<circle cx="8" cy="19" r="1" stroke="#282829"/>
<circle cx="16" cy="19" r="1" stroke="#282829"/>
<path d="M18.5 16.5H7.5C6.39543 16.5 5.5 15.6046 5.5 14.5V8.5C5.5 7.94772 5.05228 7.5 4.5 7.5H3.5" stroke="#282829" stroke-linecap="round"/>
<path d="M16.6033 9.43336L16.6033 9.43333C16.6074 9.42617 16.6116 9.41895 16.6158 9.41168C16.6866 9.28935 16.7667 9.1508 16.8169 9.0096C16.8802 8.83161 16.896 8.65802 16.8686 8.46344C16.8348 8.22369 16.6619 7.52987 16.5 6.90602C16.3354 6.27179 16.1619 5.634 16.1142 5.48609C16.0407 5.25793 15.8942 5.04467 15.6683 4.90303C15.4402 4.75999 15.1692 4.71379 14.8902 4.75446C14.6702 4.78652 13.9933 4.96866 13.3782 5.14315C12.7579 5.31908 12.0969 5.51694 11.9016 5.59575C11.7194 5.66931 11.5769 5.76972 11.4545 5.91359C11.3573 6.02772 11.2774 6.16638 11.2068 6.28881C11.2026 6.29609 11.1984 6.30331 11.1943 6.31047L8.83254 10.4011C8.55073 10.8892 8.70922 11.5206 9.2043 11.8064L12.8387 13.9047C13.3338 14.1905 13.9597 14.0121 14.2415 13.524L16.6033 9.43336Z" stroke="#282829"/>
<ellipse cx="14.3899" cy="7.11401" rx="0.693624" ry="0.693623" transform="rotate(30 14.3899 7.11401)" fill="#282829"/>
</svg>
