<svg viewBox="0 0 24 24" fill="none" stroke="#282829" xmlns="http://www.w3.org/2000/svg">
<path d="M20.5 16.6926C20.4936 17.69 19.6782 18.5 18.6792 18.5H5.32079C4.32176 18.5 3.50642 17.69 3.50004 16.6926C3.49615 16.0848 3.79303 15.5481 4.25276 15.2215C4.36861 15.1391 4.49015 15.0748 4.64163 14.9947C4.65498 14.9876 4.66856 14.9805 4.68239 14.9731C4.84092 14.8891 5.03859 14.7826 5.21783 14.6319C5.62372 14.2906 5.85178 13.7987 5.84761 13.0165C5.83237 10.1549 6.37767 8.024 7.40464 6.61994C8.41229 5.24228 9.931 4.50002 12.039 4.50002C14.1463 4.50002 15.6438 5.24152 16.6319 6.61654C17.6407 8.02026 18.1676 10.1518 18.1524 13.0165C18.1482 13.7987 18.3763 14.2906 18.7822 14.6319C18.9614 14.7826 19.1591 14.8891 19.3176 14.9731C19.3314 14.9805 19.345 14.9876 19.3584 14.9947C19.5099 15.0748 19.6314 15.1391 19.7472 15.2215C20.207 15.5481 20.5039 16.0848 20.5 16.6926Z"/>
<path d="M14.292 20C13.9062 20.883 13.0252 21.5 12 21.5C10.9748 21.5 10.0938 20.883 9.70801 20" stroke-linecap="round" stroke-linejoin="round"/>
<path d="M13.5 3.50001C13.4448 3.28561 13.3396 3.0913 13.1975 2.9303C12.9438 2.64285 12.5726 2.46155 12.159 2.46155C11.7455 2.46155 11.3743 2.64285 11.1205 2.9303C10.9784 3.0913 10.818 3.50001 10.818 3.50001" stroke-linecap="round" stroke-linejoin="round"/>
</svg>
