<svg enable-background="new 0 0 20 10" viewBox="0 0 20 10" xmlns="http://www.w3.org/2000/svg"><path d="m3.221 5.179c.379.089.852.268 1.137.356l4.169 1.965c.188.09.284.179.378.268.095.089.095.268.095.358v1.874l-9-4.465v-1.071l9-4.464v1.875c0 .178 0 .268-.095.357s-.19.179-.378.268l-4.169 2.322c-.379.178-.758.267-1.137.357"/><path d="m15.642 4.821-4.168-2.321c-.189-.09-.284-.179-.379-.268s-.095-.178-.095-.358v-1.874l9 4.465v1.071l-9 4.464v-1.875c0-.09 0-.268.095-.357.094-.09.189-.179.379-.268l4.168-1.964c.284-.09.758-.268 1.137-.358-.378-.089-.758-.178-1.137-.357"/></svg>