<svg viewBox="0 0 16.5 16.1" xmlns="http://www.w3.org/2000/svg"><path d="m7.4 0v8.4l-2.6-1.4c0-.1 0-.1 0-.2 0-.8-.6-1.4-1.4-1.4s-1.4.6-1.4 1.4.6 1.4 1.4 1.4c.3 0 .6-.1.8-.2l3.2 1.8v6.2c-.4-.1-.9-.2-1.3-.3v-2.6c.5-.2.9-.7.9-1.3 0-.8-.6-1.4-1.4-1.4s-1.5.6-1.5 1.4c0 .6.3 1 .8 1.3v1.8c-2.2-1.6-3.9-4.9-3.9-7.8 0-2.5 1.2-4.7 3-5.9v1.4l.5.6c0 .1-.1.3-.1.5 0 .7.7 1.3 1.4 1.3s1.4-.6 1.4-1.4-.6-1.4-1.4-1.4c-.2 0-.3 0-.5.1l-.1-.1v-1.6c.6-.3 1.4-.5 2.2-.6zm2 0c.8.1 1.6.3 2.2.6v1.6l-.2.2c-.1-.1-.3-.1-.5-.1-.8 0-1.4.6-1.4 1.4s.7 1.3 1.5 1.3 1.4-.6 1.4-1.4c0-.2 0-.3-.1-.5l.5-.6v-1.3c1.8 1.2 3 3.4 3 5.9 0 2.8-1.7 6.1-3.9 7.7v-1.8c.5-.2.8-.7.8-1.3 0-.8-.6-1.4-1.4-1.4s-1.4.6-1.4 1.4c0 .6.4 1.1.9 1.3v2.6l-1.4.4v-6.2l3.2-1.8c.2.1.5.2.8.2.8 0 1.4-.6 1.4-1.4s-.6-1.4-1.4-1.4-1.4.6-1.4 1.4v.2l-2.6 1.4z"/></svg>