<svg xmlns="http://www.w3.org/2000/svg" xmlns:xlink="http://www.w3.org/1999/xlink"
	 viewBox="0 0 16.5 16.1">
<g>
<path d="M7.2,0C3.2,0,0,3.3,0,7.3c0,4,3.2,8.8,7.2,8.8h0.5V0H7.2z M6.7,9.1L4.4,6.8c0-0.1,0-0.1,0-0.2
	c0-0.6-0.4-1-1-1s-1,0.4-1,1s0.4,1,1,1c0.1,0,0.2,0,0.3-0.1l3,3v4.6c-0.4-0.1-0.8-0.2-1.2-0.3v-2.4C5.8,12.2,6,11.9,6,11.5
	c0-0.6-0.4-1-1-1s-1,0.4-1,1c0,0.4,0.2,0.7,0.5,0.8v1.8C2.5,12.7,1,9.8,1,7.3c0-2.2,1.1-4.1,2.7-5.2v1.2L4.3,4c0,0.1,0,0.2,0,0.2
	c0,0.6,0.4,1,1,1s1-0.4,1-1s-0.4-1-1-1c-0.1,0-0.2,0-0.2,0L4.7,2.9V1.5C5.3,1.3,6,1.1,6.7,1V9.1z"/>
<path d="M8.8,0v16.1h0.5c4,0,7.2-4.8,7.2-8.8c0-4-3.2-7.3-7.2-7.3L8.8,0z M9.8,1c0.7,0.1,1.4,0.2,2,0.5v1.3l-0.4,0.4
	c-0.1,0-0.2,0-0.2,0c-0.6,0-1,0.4-1,1s0.4,1,1,1s1-0.4,1-1c0-0.1,0-0.2,0-0.2l0.6-0.6V2.1c1.6,1.1,2.7,3,2.7,5.2
	c0,2.5-1.5,5.4-3.5,6.9v-1.8c0.3-0.2,0.5-0.5,0.5-0.8c0-0.6-0.4-1-1-1s-1,0.4-1,1c0,0.4,0.2,0.7,0.5,0.8v2.4
	c-0.4,0.2-0.8,0.3-1.2,0.3v-4.6l3-3c0.1,0,0.2,0.1,0.3,0.1c0.6,0,1-0.4,1-1s-0.4-1-1-1s-1,0.4-1,1c0,0.1,0,0.1,0,0.2L9.8,9.1V1z"/>

</g>
</svg>
