<svg xmlns="http://www.w3.org/2000/svg" viewBox="0 0 32 32" enable-background="new 0 0 32 32">
  <g fill="#296897">
    <path d="M30.006,0H1.994C0.893,0,0,0.893,0,1.994v28.012C0,31.107,0.893,32,1.994,32h28.012
		C31.107,32,32,31.107,32,30.006V1.994C32,0.893,31.107,0,30.006,0z M30,30H2V2h28V30z"/>
    <path d="m6 7.996l-.001 4h20l.001-4h-20m18.987 2.999h-17.981v-1.991h17.981v1.991"/>
    <path d="m6 12.996l-.001 3h20l.001-3h-20m18.987 1.999h-17.981v-.991h17.981v.991"/>
    <path d="m6 16.996l-.001 3h20l.001-3h-20m18.987 1.999h-17.981v-.991h17.981v.991"/>
    <path d="m6 20.996l-.001 3h20l.001-3h-20m18.987 1.999h-17.981v-.991h17.981v.991"/>
  </g>
</svg>
