<svg enable-background="new 0 0 32 32" viewBox="0 0 32 32" xmlns="http://www.w3.org/2000/svg"><g fill="#ce3f00"><path d="m30.006-.073h-28.012c-1.101 0-1.994.893-1.994 1.994v28.012c0 1.101.893 1.994 1.994 1.994h28.012c1.101 0 1.994-.893 1.994-1.994v-28.012c0-1.101-.893-1.994-1.994-1.994zm-.006 30h-28v-28h28z"/><circle cx="15.851" cy="15.544" r="4.631"/><circle cx="21.974" cy="9.346" r="3.232"/><circle cx="15.165" cy="23.194" r="2.546"/><ellipse cx="21.511" cy="19.998" rx="2.028" ry="2.028" transform="matrix(.9649 -.2628 .2628 .9649 -4.499 6.3554)"/><ellipse cx="16" cy="8.143" rx="2.028" ry="2.028" transform="matrix(.9649 -.2628 .2628 .9649 -1.5774 4.4906)"/><ellipse cx="8.822" cy="13.188" rx="2.028" ry="2.028" transform="matrix(.9905 -.1374 .1374 .9905 -1.7278 1.3367)"/><ellipse cx="10.003" cy="18.817" rx="1.181" ry="1.181" transform="matrix(.9905 -.1374 .1374 .9905 -2.4897 1.5523)"/><ellipse cx="22.693" cy="16.13" rx="1.181" ry="1.181" transform="matrix(.9905 -.1374 .1374 .9905 -2.0005 3.2697)"/></g></svg>