<svg enable-background="new 0 0 32 32" fill="#1d4f76" viewBox="0 0 32 32" xmlns="http://www.w3.org/2000/svg"><path d="m30 0h-28c-1.1 0-2 .9-2 2v28c0 1.1.9 2 2 2h28c1.1 0 2-.9 2-2v-28c0-1.1-.9-2-2-2m0 30h-28v-28h28z"/><path d="m16 26.5-.6-1.1c-.6-1-6.1-10.3-6.1-13.3 0-3.2 3-5.9 6.8-5.9 3.7 0 6.8 2.6 6.8 5.9 0 3-5.5 12.2-6.1 13.3zm0-18.8c-2.9 0-5.2 2-5.2 4.4 0 1.8 2.9 7.4 5.2 11.4 2.3-4 5.2-9.7 5.2-11.4 0-2.4-2.3-4.4-5.2-4.4m0 7.8c-1.3 0-2.8-1.1-2.8-2.8 0-1.6 1.2-2.8 2.8-2.8 1.3 0 2.7 1.1 2.7 2.8.1 1.6-1.1 2.8-2.7 2.8m0-4c-.7 0-1.2.5-1.2 1.2s.7 1.2 1.2 1.2c.7 0 1.2-.5 1.2-1.2.1-.7-.6-1.2-1.2-1.2"/></svg>