<?xml version="1.0" encoding="utf-8"?>
<!-- Generator: Adobe Illustrator 18.0.0, SVG Export Plug-In . SVG Version: 6.00 Build 0)  -->
<!DOCTYPE svg PUBLIC "-//W3C//DTD SVG 1.1//EN" "http://www.w3.org/Graphics/SVG/1.1/DTD/svg11.dtd">
<svg version="1.1" id="Icon_Trend" xmlns="http://www.w3.org/2000/svg" xmlns:xlink="http://www.w3.org/1999/xlink" x="0px" y="0px"
	 viewBox="0 0 16 16" enable-background="new 0 0 16 16" xml:space="preserve">
<g>
	<path fill="#E0E0E0" d="M15,1L15,1v14L1,15L1,1H15 M15,0H1C0.4,0,0,0.4,0,1v14c0,0.6,0.4,1,1,1h14c0.6,0,1-0.4,1-1V1
		C16,0.4,15.6,0,15,0L15,0z"/>
</g>
<polygon fill-rule="evenodd" clip-rule="evenodd" fill="#38805F" points="5.2,11 3.9,7 2.2,7 5.2,3 8.2,7 6.4,7 "/>
<polygon fill-rule="evenodd" clip-rule="evenodd" fill="#D0021B" points="11.2,4.9 9.9,9 8.2,9 11.2,12.9 14.2,9 12.4,9 "/>
<path opacity="0.1" d="M14.6,0C14.1,0.6,6,12.8,4,16h12V0H14.6z"/>
</svg>
