<svg xmlns="http://www.w3.org/2000/svg" viewBox="0 0 32 32" enable-background="new 0 0 32 32">
  <g fill="#296897">
    <path d="M30.006,0H1.994C0.893,0,0,0.893,0,1.994v28.012C0,31.107,0.893,32,1.994,32h28.012
		C31.107,32,32,31.107,32,30.006V1.994C32,0.893,31.107,0,30.006,0z M30,30H2V2h28V30z"/>
    <path
        d="m16 9.543l-3.259-3.259c-.198-.198-.458-.294-.718-.291-.004 0-.006-.002-.01-.002-.004 0-.007.002-.01.002-.26-.003-.52.093-.718.291l-3.26 3.259c-.391.391-.391 1.024 0 1.415l.02.02c.391.391 1.024.391 1.415 0l1.552-1.552v10.567c0 .552.448 1 1 1 .552 0 1-.448 1-1v-10.568l1.552 1.552c.391.391 1.024.391 1.415 0l.02-.02c.392-.39.392-1.024.001-1.414"/>
    <path
        d="m16.03 22.422l3.259 3.259c.198.198.458.294.718.291.004 0 .006.002.01.002.004 0 .007-.002.01-.002.26.003.52-.093.718-.291l3.259-3.259c.391-.391.391-1.024 0-1.415l-.02-.02c-.391-.391-1.024-.391-1.415 0l-1.552 1.552v-10.567c0-.552-.448-1-1-1-.552 0-1 .448-1 1v10.567l-1.552-1.552c-.391-.391-1.024-.391-1.415 0l-.02.02c-.391.39-.391 1.024 0 1.415"/>
  </g>
</svg>
