<?xml version="1.0" encoding="UTF-8" standalone="no"?>
<svg width="16px" height="16px" viewBox="0 0 16 16" version="1.1" xmlns="http://www.w3.org/2000/svg" xmlns:xlink="http://www.w3.org/1999/xlink" xmlns:sketch="http://www.bohemiancoding.com/sketch/ns">
    <!-- Generator: Sketch 3.2.2 (9983) - http://www.bohemiancoding.com/sketch -->
    <title>16/uatype/table</title>
    <desc>Created with Sketch.</desc>
    <defs>
        <rect id="path-1" x="0" y="0" width="16" height="16" rx="1"></rect>
    </defs>
    <g stroke="none" stroke-width="1" fill="none" fill-rule="evenodd" sketch:type="MSPage">
        <g sketch:type="MSArtboardGroup">
            <g sketch:type="MSLayerGroup">
                <mask id="mask-2" sketch:name="Mask" fill="white">
                    <use xlink:href="#path-1"></use>
                </mask>
                <use fill="#BDBDBD" sketch:type="MSShapeGroup" xlink:href="#path-1"></use>
                <path d="M1,12 L1,15 L15,15 L15,12 L1,12 Z M1,8 L1,11 L15,11 L15,8 L1,8 Z M1,4 L1,7 L15,7 L15,4 L1,4 Z" fill="#FFFFFF" sketch:type="MSShapeGroup" mask="url(#mask-2)"></path>
                <path d="M2,5 L2,6 L3,6 L3,5 L2,5 Z M2,13 L2,14 L3,14 L3,13 L2,13 Z M12,5 L12,6 L14,6 L14,5 L12,5 Z M4,5 L4,6 L10,6 L10,5 L4,5 Z M4,9 L4,10 L10,10 L10,9 L4,9 Z M4,13 L4,14 L9,14 L9,13 L4,13 Z M2,9 L2,10 L3,10 L3,9 L2,9 Z M12,9 L12,10 L14,10 L14,9 L12,9 Z M13,13 L13,14 L14,14 L14,13 L13,13 Z" fill="#4B4B4B" sketch:type="MSShapeGroup" mask="url(#mask-2)"></path>
                <path d="M16,0 L16,16 L4,16 L14,0 L16,0 Z" opacity="0.119999997" fill="#000000" sketch:type="MSShapeGroup" mask="url(#mask-2)"></path>
            </g>
        </g>
    </g>
</svg>