<?xml version="1.0" encoding="UTF-8" standalone="no"?>
<svg width="16px" height="16px" viewBox="0 0 16 16" version="1.1" xmlns="http://www.w3.org/2000/svg" xmlns:xlink="http://www.w3.org/1999/xlink" xmlns:sketch="http://www.bohemiancoding.com/sketch/ns">
    <!-- Generator: Sketch 3.2.2 (9983) - http://www.bohemiancoding.com/sketch -->
    <title>16/uatype/pieChart</title>
    <desc>Created with Sketch.</desc>
    <defs>
        <rect id="path-1" x="0" y="0" width="16" height="16" rx="1"></rect>
    </defs>
    <g stroke="none" stroke-width="1" fill="none" fill-rule="evenodd" sketch:type="MSPage">
        <g sketch:type="MSArtboardGroup" transform="translate(-16.000000, -16.000000)">
            <g sketch:type="MSLayerGroup" transform="translate(16.000000, 16.000000)">
                <mask id="mask-2" sketch:name="Mask" fill="white">
                    <use xlink:href="#path-1"></use>
                </mask>
                <use stroke="#BDBDBD" fill="#F9F9F9" sketch:type="MSShapeGroup" xlink:href="#path-1"></use>
                <path d="M13.1534504,10.7458707 C12.174264,12.3921014 10.3416466,13.5 8.24242424,13.5 C6.67761745,13.5 5.26095078,12.8843915 4.23548582,11.8890873 C3.21002085,10.8937831 2.57575758,9.51878306 2.57575758,8 C2.57575758,4.96243388 5.11281066,2.5 8.24242424,2.5 L8.24242424,8 C8.24242424,8 12.0163032,10.0533676 13.1534504,10.7458707 Z" fill="#3767CB" sketch:type="MSShapeGroup" mask="url(#mask-2)"></path>
                <path d="M13.1534504,10.7458707 C13.6340784,9.93782781 13.9090909,9.00008561 13.9090909,8 C13.9090909,4.96243388 11.3720378,2.5 8.24242424,2.5 C5.11281066,2.5 2.57575758,4.96243388 2.57575758,8 C2.57575758,9.51878306 3.21002085,10.8937831 4.23548582,11.8890873 C3.21002085,10.8937831 2.57575758,9.51878306 2.57575758,8 C2.57575758,4.96243388 5.11281066,2.5 8.24242424,2.5 L8.24242424,8 C8.24242424,8 12.0163032,10.0533676 13.1534504,10.7458707 Z" fill="#8FBEE9" sketch:type="MSShapeGroup" mask="url(#mask-2)"></path>
                <path d="M14.0700575,0 C13.6218343,0.588822842 5.212683,12.7774648 3.12121212,16 L15.5496013,16 L15.5496013,0 L14.0700575,0 Z" opacity="0.06" fill="#000000" sketch:type="MSShapeGroup" mask="url(#mask-2)"></path>
            </g>
        </g>
    </g>
</svg>