<svg xmlns="http://www.w3.org/2000/svg" viewBox="0 0 32 32" enable-background="new 0 0 32 32">
  <g fill="#00a78a">
    <path d="M30.006,0H1.994C0.893,0,0,0.893,0,1.994v28.012C0,31.107,0.893,32,1.994,32h28.012
		C31.107,32,32,31.107,32,30.006V1.994C32,0.893,31.107,0,30.006,0z M30,30H2V2h28V30z"/>
    <path d="m24.997 24.975h-17.994c-.554 0-1-.449-1-1v-.992c0-.554.449-1 1-1h17.994c.554 0 1 .449 1 1v.992c0 .554-.449 1-1 1"/>
    <path d="m11 8v4h-3v8.992l7 .008v-13l-4 .004m-2 4.982h2v7h-2v-7m5 7h-2v-.011h.002v-10.968h1.998v10.979"/>
    <path d="m20 10v5h-3v5.992l7 .008v-11l-4 .004m-2 5.982h2l-.001 4h-2v-4zm5 4h-2v-.011h.002v-8.968h1.998v8.979"/>
  </g>
</svg>
