<?xml version="1.0" encoding="utf-8"?>
<!-- Generator: Adobe Illustrator 22.1.0, SVG Export Plug-In . SVG Version: 6.00 Build 0)  -->
<svg version="1.1" id="Layer_1" xmlns="http://www.w3.org/2000/svg" xmlns:xlink="http://www.w3.org/1999/xlink" x="0px" y="0px"
	 viewBox="0 0 22.7 23" style="enable-background:new 0 0 22.7 23;" xml:space="preserve">
<path class="st0" d="M22.7,11.5c0,6.4-5.1,11.5-11.4,11.5S0,17.9,0,11.5S5.1,0,11.4,0S22.7,5.1,22.7,11.5z M9.8,17.7l8.3-8.7
	c0.3-0.3,0.3-0.8,0-1.1l-1-1.1c-0.3-0.3-0.7-0.3-1,0L9.3,14l-3.2-3.3c-0.3-0.3-0.7-0.3-1,0l-1,1.1c-0.3,0.3-0.3,0.8,0,1.1l4.7,4.9
	C9.1,18,9.5,18,9.8,17.7z"/>
</svg>
