<svg enable-background="new 0 0 12 12" viewBox="0 0 12 12" xmlns="http://www.w3.org/2000/svg">
<ellipse cx="6" cy="6" fill="#fff" rx="5.377" ry="5.377" transform="matrix(.7071 -.7071 .7071 .7071 -2.4853 6)"/>
<path d="m6 0c3.312 0 6 2.688 6 6s-2.688 6-6 6-6-2.688-6-6 2.688-6 6-6zm-4.8 6c0 2.646 2.154 4.8 4.8 4.8s4.8-2.154 4.8-4.8-2.154-4.8-4.8-4.8-4.8 2.154-4.8 4.8z"/>
<path d="m5.293 6-1.768-1.768.707-.707 1.768 1.768 1.753-1.783.722.722-1.768 1.768 1.768 1.768-.707.707-1.768-1.768-1.768 1.768-.707-.707z"/>
</svg>
