<svg height="94" viewBox="0 0 117 94" width="117" xmlns="http://www.w3.org/2000/svg"><path d="m103.500001 20.4999999h-40.5000009s-7.5000001.5-7.5000001-4.9999999c0-9.55194099 10.4462891-10.17523203 14.0397949-2.8861085.9823609 3.0680542 2.9970818 4.6704356 5.6432686 3.6890675-2.2556114 0-4.3212213-1.0531645-4.9201116-3.9131562-.527512-2.87848949-1.9991161-12.31630963 8.2370487-11.8898028 9.0236232.37598427 9.716678 6.10449222 9.4999994 12.3183952-.0405956 1.1642.1976318 2.5181522 3.1420898 3.4845638-2.4638671-1.3693857-2.4790039-2.6966858-2.4790039-3.4845638 0-.7878781.9177746-2.3183952 3.3369141-2.3183952 3.5 0 4.5 3.5 4.5 3.5s.5 6.1441446 7 6.1441446"/><path d="m58.4695436 50.6030434c.0000266 7.0171856-8.9320318 6.4751949-8.9320318 6.4751949h-49.5375118s11.078131-1.2465576 12.7317832-4.0502692c1.0205729-1.7303469-.0494792-3.7995064-.0494792-3.7995064s-2.85156259-5.208296 2.4690107-7.7174037c3.9348695-1.8556292 6.4043718-.0832476 7.3136871 2.8593461.9093154 2.9425937-.8936307 3.8313132-3.2117517 7.2767812 3.211752-2.4187241 5.0158291-4.7668009 4.5285092-7.2767811-.48732-2.5099802-3.8837769-10.3888892 4.7508049-11.3052387 10.4802084-1.1122175 8.2283856 12.3807452 8.2283856 12.3807452s.5687511-8.8629372 7.6502605-8.2790154c6.5191801.5375537 6.5681865 6.3980079 5.4254596 8.6913-.7228508 1.5177335-4.3369382 3.7179388-7.4972458 4.7448463-2.8179515.9156627-10.42629 1.6848789-10.42629 1.6848789 15.7903234-.0000003 18.7750525-6.0592838 18.7750525-6.0592838s7.7813352-1.3787938 7.781357 4.3744057z"/><path d="m75.6159564 93.6020606s-7.1553701-.0968329-5.7348929-6.4077843c1.4200862-6.3092143 7.9882467-3.4591304 9.275851-3.0125926 1.2876043.4465379 2.5174684 3.6593437 8.4137869 4.5712089-4.4657479-1.5744944-6.8939065-4.1682872-7.1261826-4.9848423-.8766193-3.0817118-2.4472074-10.62024 6.5401211-11.0791758 9.3700689-.4784804 8.6290731 7.3579133 8.078951 10.1279769-.1173397.5908483-.9790555 3.1395305 3.7185267 5.4356158-3.2079449-2.2960853-2.8724499-4.7228651-2.7965031-5.4356155.2947197-2.527667 3.1525708-5.9856275 7.7643505-4.3387384 6.248635 2.2314176 3.79678 7.309472 3.796782 8.7161634-.000002 1.8432839-1.109773 6.4077848 9.953253 6.4077847 11.063025-.0000002-41.8840436-.0000008-41.8840436-.0000008z"/></svg>