<svg viewBox="0 0 16 16" fill="none" stroke="#282829" xmlns="http://www.w3.org/2000/svg">
<path d="M5.5 5.49998L2.97885 10.1221C2.71439 10.6069 2.89305 11.2144 3.37789 11.4788L8.00001 14" stroke-linecap="round"/>
<path d="M9.2653 3.90409C8.8789 4.01448 8.55296 4.27531 8.36053 4.6281L6.0362 8.88938C5.64168 9.61267 5.90438 10.5188 6.62459 10.9189L9.34418 12.4298C10.0907 12.8445 11.0324 12.5532 11.4143 11.7894L13.762 7.09402C13.9399 6.7382 13.9692 6.32627 13.8434 5.94886L13.2771 4.25014C13.0232 3.48827 12.2142 3.06158 11.442 3.28219L9.2653 3.90409Z" stroke-linecap="round"/>
<path d="M11.4665 5.55801C11.3975 5.67759 11.2446 5.71855 11.125 5.64952C11.0054 5.58048 10.9645 5.42759 11.0335 5.30801C11.1025 5.18844 11.2554 5.14747 11.375 5.21651C11.4946 5.28554 11.5356 5.43844 11.4665 5.55801Z" stroke-width="0.5"/>
</svg>
