<svg width="20" height="20" xmlns="http://www.w3.org/2000/svg" xmlns:svg="http://www.w3.org/2000/svg" viewBox="0 0 20 20">
	<g>
   <path d="m12.29999,1.99997l-10.20001,0l0,12.39999l10.20001,0l0,-12.39999zm-0.89999,10.10001l-7.80002,0l0,-1l7.80002,0l0,1zm0,-3l-7.80002,0l0,-1l7.80002,0l0,1zm0,-3.10001l-7.80002,0l0,-1l7.80002,0l0,1z" fill="none"/>
   <path id="svg_7" d="m14.29999,14.59998c0,1 -0.70001,1.79999 -1.70001,1.79999l-5,0l0,1.60001l10.20001,0l0,-14.19998l-3.60001,0l0,10.79999l0.10001,0l0,-0.00001z" fill="none"/>
   <rect height="1" width="7.8" y="11.09998" x="3.6"/>
   <rect height="1" width="7.8" y="8.09998" x="3.6"/>
   <rect height="1" width="7.8" y="4.99998" x="3.6"/>
   <path d="m18.20001,1.79999l-3.89999,0c0,-1 -0.70001,-1.79999 -1.70001,-1.79999l-10.89999,0c-0.89999,0 -1.70001,0.79999 -1.70001,1.79999l0,12.70001c0,1 0.70001,1.79999 1.70001,1.79999l3.89999,0l0,1.79999c0,1 0.70001,1.80002 1.70001,1.80002l10.89999,0c0.89999,0 1.70001,-0.80002 1.70001,-1.80002l0,-14.5c-0.00003,-1 -0.70001,-1.79999 -1.70001,-1.79999zm-16.10001,12.59998l0,-12.39999l10.20001,0l0,12.39999l-10.20001,0zm15.79999,3.60001l-10.20001,0l0,-1.60001l5,0c0.89999,0 1.70001,-0.79999 1.70001,-1.79999l0,-10.70001l3.60001,0l0,14.10001l-0.10001,0z"/>
  </g>
</svg>
