<svg fill="none" viewBox="0 0 33 33" xmlns="http://www.w3.org/2000/svg"><g stroke="#282829" stroke-linecap="round" stroke-linejoin="round"><rect height="7.20926" rx="2" transform="matrix(.70710678 .70710678 -.70710678 .70710678 13.014279 -7.961649)" width="7.20926" x="16.1177" y="11.7288"/><rect height="2.65685" rx="1" transform="matrix(.707107 .707107 .707107 -.707107 14.2177 10.7288)" width="2.65685"/><path d="m20.1177 15.7288 3.2133-3.2708c.1837-.187.2867-.4386.2867-.7008v-3.02844"/><circle r="1" transform="matrix(-1 0 0 1 23.6177 7.72876)"/><path d="m13.1177 14.7288c0 1.6568 1.3431 3 3 3 1.6568 0 3-1.3432 3-3"/><path d="m18.6177 13.7288 1.7071-1.7071c.1875-.1876.2929-.4419.2929-.7072v-5.58574"/><path d="m11.6177 15.7288-3.21336-3.2708c-.18372-.187-.28666-.4386-.28666-.7008v-3.02844"/><circle cx="8.11768" cy="7.72876" r="1"/><path d="m13.1177 13.7288-1.7071-1.7071c-.1876-.1876-.2929-.4419-.2929-.7072v-5.58574"/><path d="m20.1177 17.7288 3.2133 3.2707c.1837.187.2867.4386.2867.7008v3.0285"/><circle cx="23.6177" cy="25.7288" r="1" transform="matrix(-1 0 0 -1 47.2354 51.4576)"/><path d="m18.6177 19.7288 1.7071 1.7071c.1875.1875.2929.4419.2929.7071v5.5858"/><path d="m11.6177 17.7288-3.21336 3.2707c-.18372.187-.28666.4386-.28666.7008v3.0285"/><circle r="1" transform="matrix(1 0 0 -1 8.11768 25.7288)"/><path d="m13.1177 19.7288-1.7071 1.7071c-.1876.1875-.2929.4419-.2929.7071v5.5858"/></g></svg>