<svg viewBox="0 0 24 24" stroke="#282829" fill="none" xmlns="http://www.w3.org/2000/svg">
<rect x="12" y="8" width="6" height="6" rx="1" transform="rotate(45 12 8)" stroke-linecap="round" stroke-linejoin="round"/>
<rect width="2.99998" height="2.99998" rx="1" transform="matrix(0.707107 0.707107 0.707107 -0.707107 9.87869 6.12131)" stroke-linecap="round" stroke-linejoin="round"/>
<path d="M15.5 11.5L18.2071 8.79289C18.3946 8.60536 18.5 8.351 18.5 8.08579L18.5 6.08334" stroke-linecap="round" stroke-linejoin="round"/>
<circle r="1" transform="matrix(-1 0 0 1 18.5 5)" stroke-linecap="round" stroke-linejoin="round"/>
<path d="M13.5 9.5L15.2071 7.79289C15.3946 7.60536 15.5 7.351 15.5 7.08579L15.5 2" stroke-linecap="round" stroke-linejoin="round"/>
<path d="M15.5 13L18.2071 15.7071C18.3946 15.8946 18.5 16.149 18.5 16.4142L18.5 18.4167" stroke-linecap="round" stroke-linejoin="round"/>
<circle cx="18.5" cy="19.5" r="1" transform="rotate(-180 18.5 19.5)" stroke-linecap="round" stroke-linejoin="round"/>
<path d="M13.5 15L15.2071 16.7071C15.3946 16.8946 15.5 17.149 15.5 17.4142L15.5 22" stroke-linecap="round" stroke-linejoin="round"/>
<path d="M8.5 11.5L5.79289 8.79289C5.60536 8.60536 5.5 8.351 5.5 8.08579L5.5 6.08334" stroke-linecap="round" stroke-linejoin="round"/>
<circle cx="5.5" cy="5" r="1" stroke-linecap="round" stroke-linejoin="round"/>
<path d="M10.5 9.5L8.79289 7.79289C8.60536 7.60536 8.5 7.351 8.5 7.08579L8.5 2" stroke-linecap="round" stroke-linejoin="round"/>
<path d="M8.5 13L5.79289 15.7071C5.60536 15.8946 5.5 16.149 5.5 16.4142L5.5 18.4167" stroke-linecap="round" stroke-linejoin="round"/>
<circle r="1" transform="matrix(1 0 0 -1 5.5 19.5)" stroke-linecap="round" stroke-linejoin="round"/>
<path d="M10.5 15L8.79289 16.7071C8.60536 16.8946 8.5 17.149 8.5 17.4142L8.5 22" stroke-linecap="round" stroke-linejoin="round"/>
</svg>
