<svg fill="none" stroke="#282829" viewBox="0 0 27 27" xmlns="http://www.w3.org/2000/svg"><g stroke-linecap="round"><path d="m17.2664 4c.4239 0 .828.17934 1.1124.49367l4.2335 4.67953c.2495.27579.3877.63443.3877 1.0063v6.3272c0 .3574-.1276.703-.3597.9746l-4.2676 4.9933c-.285.3334-.7016.5254-1.1403.5254h-7.36828c-.43343 0-.84567-.1875-1.13053-.5142l-4.36412-5.0045c-.23822-.2732-.36947-.6234-.36947-.9859v-6.3043c0-.37713.14203-.74038.3978-1.01746l4.3302-4.69106c.28396-.30762.68356-.48258 1.10221-.48258z"/><path d="m13.5 15v-8"/><path d="m13.5 18.5v1"/></g></svg>