<svg enable-background="new 0 0 512 512" height="512" viewBox="0 0 512 512" width="512" xmlns="http://www.w3.org/2000/svg"><path d="m384 0c-24.82 0-231.18 0-256 0-64 0-128 64-128 128v256c0 64 64 127.999 128 127.999h64c64 .001 96-64 96-127.999 0-32 0-96.001 0-96.001h96l-128-127.999-128 127.999h96s.343 32.001 0 64.001c-.244 22.714-6.629 64.499-64 64.499-16 0 7.702 0 0 0-34.157 0-63.455-32.058-64-64.5-.187-11.113-.187-180.885 0-191.999.545-32.443 29.844-64 64-64h192c34.157 0 63.455 31.557 64 64 1.612 95.985 0 351.999 0 351.999h96s0-272 0-384c0-63.999-64-127.999-128-127.999z"/></svg>