<svg width="20" height="20" viewBox="-5 7 20 20" xmlns="http://www.w3.org/2000/svg">
  <polygon points="7.1,8.7 7.1,7 2.9,7 2.9,8.7 -3.6,8.7 -3.6,9.5 2.9,9.5 7.1,9.5 13.6,9.5 13.6,8.7"/>
  <rect x="1.7" y="14.5" width="0.8" height="8.3"/>
  <rect x="7.5" y="14.5" width="0.8" height="8.3"/>
  <path d="m9.8,27h-9.6c-1.4,0 -2.5,-1.1 -2.5,-2.5v-14.3h14.7v14.2c-0.1,1.4 -1.2,2.6 -2.6,2.6zm-10.1,-14.8v12.2c0,0.3 0.2,0.5 0.5,0.5h9.6c0.3,0 0.5,-0.2 0.5,-0.5v-12.2h-10.6l0,0z"/>
  <rect x="4.6" y="14.5" width="0.8" height="8.3"/>
</svg>
