<?xml version="1.0" encoding="utf-8"?>
<svg version="1.1" id="Calque_1" xmlns="http://www.w3.org/2000/svg" xmlns:xlink="http://www.w3.org/1999/xlink" x="0px" y="0px"
	 viewBox="0 0 20 20" style="enable-background:new 0 0 20 20;" xml:space="preserve">
<g>
	<path d="M15.3,5.3l-0.6,12.6c0,0-0.1,0.1-0.1,0.1H5.4c0,0-0.1-0.1-0.1-0.1L4.7,5.3H15.3 M17.4,3.3H2.6L3.3,18
		c0.1,1.1,1,2,2.1,2h9.2c1.1,0,2-0.9,2.1-2L17.4,3.3L17.4,3.3z"/>
	<polygon points="6.3,7.5 6.7,15.8 7.5,15.8 7.1,7.5 	"/>
	<polygon points="6.3,7.5 6.7,15.8 7.5,15.8 7.1,7.5 	"/>
	<polygon points="6.3,7.5 6.7,15.8 7.5,15.8 7.1,7.5 	"/>
	<polygon points="6.8,1.7 1.4,1.7 1.4,2.5 18.6,2.5 18.6,1.7 	"/>
	<polygon points="6.8,1.7 1.4,1.7 1.4,2.5 18.6,2.5 18.6,1.7 	"/>
	<polygon points="6.8,1.7 1.4,1.7 1.4,2.5 18.6,2.5 18.6,1.7 	"/>
	<rect x="7.9" y="0" width="4.1" height="2.5"/>
	<rect x="9.6" y="7.5" width="0.8" height="8.3"/>
	<rect x="9.6" y="7.5" width="0.8" height="8.3"/>
	<rect x="9.6" y="7.5" width="0.8" height="8.3"/>
	<polygon points="12.9,7.5 12.5,15.8 13.3,15.8 13.7,7.5 	"/>
	<polygon points="12.9,7.5 12.5,15.8 13.3,15.8 13.7,7.5 	"/>
	<polygon points="12.9,7.5 12.5,15.8 13.3,15.8 13.7,7.5 	"/>
</g>
</svg>
