<svg height="20" viewBox="0 0 20 20" width="20" xmlns="http://www.w3.org/2000/svg"><path d="m18.536 19.535c-.256 0-.512-.098-.707-.293l-5.04-5.04c-.391-.39-.391-1.024 0-1.414.39-.391 1.023-.391 1.414 0l5.04 5.03c.391.39.391 1.023 0 1.414-.195.195-.451.293-.707.293"/><path d="m8 2c-3.309 0-6 2.691-6 6s2.691 6 6 6 6-2.691 6-6-2.691-6-6-6m0 14c-4.411 0-8-3.589-8-8s3.589-8 8-8 8 3.589 8 8-3.589 8-8 8"/><path d="m9 7v-1.01c0-.54-.448-.991-1-.991-.556 0-1 .444-1 .991v1.01h-1.01c-.54 0-.991.448-.991 1 0 .556.444 1 .991 1h1.01v1.01c0 .54.448.991 1 .991.556 0 1-.444 1-.991v-1.01h1.01c.54 0 .991-.448.991-1 0-.556-.444-1-.991-1z"/></svg>