<svg viewBox="0 0 48 48" xmlns="http://www.w3.org/2000/svg"><path d="m24.8189412 4.28381443c3.6931668 3.69310356 4.9061381 8.87809297 3.7865598 13.62307917l18.5691544 18.5691986c.2208047.216252.3578907.5159065.3773028.8243501l.4471105 8.4951626c.0297189.7145801-.6566599 1.3731369-1.3692798 1.3134463l-10.7307783-.8942842c-.6194165-.0518499-1.151447-.6219458-1.1597303-1.2435122v-4.1079027h-4.1078395c-.6574187-.0063232-1.2537558-.6000677-1.2574864-1.2574864v-4.1078395h-4.1079027c-.3300689 0-.6589363-.1317114-.894221-.3633287l-6.5110821-6.5110821c-4.7377019 1.1083864-9.9229569-.0863743-13.60908033-3.7725224-5.66889419-5.6688817-5.66888786-14.89837788 0-20.56727857 6.95518973-6.70419133 15.99031833-4.62551643 20.56727293 0zm-1.788442 1.78844196c-4.7023428-4.70234279-12.2880645-4.70227956-16.99038265 0-4.70230485 4.70234281-4.70232382 12.28807081 0 16.99033141 3.23211438 3.2321454 7.84643245 4.2274104 11.93242545 3.0180433.4315555-.1239339.9259633.0063231 1.2435122.3213428l6.5669788 6.5670421 4.862382-.0000633c.6574187.0063232 1.2537557.600131 1.2575496 1.2575497l-.0000632 4.1078395h4.1079027c.6574187.0063231 1.2537557.6001309 1.2575496 1.2575496l-.0000632 4.2196329 8.1318971.6706974-.3492912-6.5530679-18.6810111-18.6809921c-.3176122-.3229869-.4402182-.8244133-.3074319-1.2574864 1.2432593-5.7355088-.3548556-9.12680806-3.0319542-11.91841901zm-8.9423047 1.78844196c1.7179704 1.71793876 1.7179704 4.54167135 0 6.25961015-1.7179324 1.717964-4.54166498 1.717964-6.25960374 0-1.71795203-1.7179388-1.717971-4.54167139 0-6.25961015 1.71793243-1.71793875 4.54165874-1.71793875 6.25960374 0zm-1.7884609 1.7885052c-.7513808-.75138085-1.9313011-.75138085-2.6826819-.00006324-.75141247.75144409-.75139982 1.93134529 0 2.68272619.7513808.7513808 1.9312884.7513808 2.6827009 0 .7513745-.7513809.7513745-1.9312821-.000019-2.68266295z"/></svg>