<?xml version="1.0" encoding="UTF-8" standalone="no"?>
<svg width="23px" height="23px" viewBox="0 0 23 23" version="1.1" xmlns="http://www.w3.org/2000/svg" xmlns:xlink="http://www.w3.org/1999/xlink" xmlns:sketch="http://www.bohemiancoding.com/sketch/ns">
    <!-- Generator: Sketch 3.2.2 (9983) - http://www.bohemiancoding.com/sketch -->
    <title>logo_google</title>
    <desc>Created with Sketch.</desc>
    <defs></defs>
    <g id="Sign-In" stroke="none" stroke-width="1" fill="none" fill-rule="evenodd" sketch:type="MSPage">
        <g id="Specs/Cloud-Platform---Desktop---Log-In" sketch:type="MSArtboardGroup" transform="translate(-583.000000, -518.000000)" fill="#FFFFFF">
            <g id="section-signup-vertical" sketch:type="MSLayerGroup" transform="translate(549.000000, 259.000000)">
                <g id="log-in-google" transform="translate(24.000000, 249.000000)" sketch:type="MSShapeGroup">
                    <g id="section_logo" transform="translate(2.000000, 2.000000)">
                        <path d="M17.9005513,18.8608378 C17.9005513,17.4775479 20.8986189,17.0763721 20.8986189,13.8256112 C20.8986189,11.8751349 20.7214307,10.6993089 19.2088007,10.0076639 C19.2088007,9.52338386 21.8796842,9.84155438 21.8796842,8.93779577 L16.0290616,8.93779577 C16.0290616,8.93779577 10.105634,9.08510793 10.105634,14.1757373 C10.105634,19.2662678 15.2840524,18.6761287 15.2840524,18.6761287 L15.2840524,19.9674104 C15.2840524,20.4883948 15.979063,20.3132823 16.0653179,21.368904 C15.7155223,21.368904 8.86999468,21.1847885 8.86999468,25.795392 C8.86999468,30.4060944 14.9024837,30.1852746 14.9024837,30.1852746 C14.9024837,30.1852746 21.8796842,30.5081939 21.8796842,24.7813224 C21.8796842,21.3507992 17.9005513,20.2441277 17.9005513,18.8608378 L17.9005513,18.8608378 Z M12.8460087,14.4710542 C12.2983626,12.4267888 13.0201756,10.4477207 14.4585385,10.0508979 C15.8969014,9.65358051 17.5066048,10.9888876 18.0543483,13.0332519 C18.6023843,15.0780119 17.8805713,17.0573769 16.4422084,17.4545953 C15.0036506,17.8514181 13.3938498,16.5157153 12.8460087,14.4710542 L12.8460087,14.4710542 Z M15.8419321,28.7129445 C13.4270847,28.879054 11.3729489,27.5644241 11.2539462,25.7764957 C11.1342613,23.9885673 12.9950301,22.4046401 15.4098775,22.2386295 C17.8254071,22.0726188 19.8801277,23.3867541 19.9995202,25.1746825 C20.1188153,26.9631055 18.2571694,28.5469338 15.8419321,28.7129445 Z M31,18 L31,20 L27.999939,20 L27.999939,23 L26,23 L26,20 L23,20 L23,18 L26.015564,18 L26,15 L27.999939,15 L27.999939,18 L31,18 Z" id="logo_google"></path>
                    </g>
                </g>
            </g>
        </g>
    </g>
</svg>