<?xml version="1.0" encoding="UTF-8" standalone="no"?>
<svg width="20px" height="20px" viewBox="0 0 20 20" version="1.1" xmlns="http://www.w3.org/2000/svg" xmlns:xlink="http://www.w3.org/1999/xlink" xmlns:sketch="http://www.bohemiancoding.com/sketch/ns">
    <!-- Generator: Sketch 3.4 (15588) - http://www.bohemiancoding.com/sketch -->
    <title>Page 1</title>
    <desc>Created with Sketch.</desc>
    <defs>
        <path id="path-1" d="M0,0.0840718563 L19.9102994,0.0840718563 L19.9102994,20 L0,20 L0,0.0840718563 Z"></path>
    </defs>
    <g id="Page-1" stroke="none" stroke-width="1" fill="none" fill-rule="evenodd" sketch:type="MSPage">
        <g id="Header-+-Menu" sketch:type="MSArtboardGroup" transform="translate(-1726.000000, -32.000000)">
            <g id="Page-1" sketch:type="MSLayerGroup" transform="translate(1726.000000, 32.000000)">
                <g id="Group-3">
                    <mask id="mask-2" sketch:name="Clip 2" fill="white">
                        <use xlink:href="#path-1"></use>
                    </mask>
                    <g id="Clip-2"></g>
                    <path d="M13.4398563,8.5420479 C13.436503,8.8717485 13.4332695,9.20324551 13.4315928,9.53294611 C13.1002156,9.5362994 12.7703952,9.53785629 12.4406946,9.53953293 L12.4406946,10.5271976 C12.7703952,10.5287545 13.1017725,10.5304311 13.4315928,10.5337844 C13.4348263,10.863485 13.4348263,11.1933054 13.4381796,11.5246826 C13.7663234,11.5246826 14.096024,11.523006 14.4257246,11.5246826 C14.4274012,11.1933054 14.4290778,10.863485 14.4324311,10.5321078 C14.7621317,10.5304311 15.093509,10.5287545 15.4233293,10.5271976 L15.4233293,9.53953293 C15.093509,9.53785629 14.7621317,9.5362994 14.4324311,9.53294611 C14.4307545,9.20324551 14.4274012,8.8717485 14.4257246,8.5420479 L13.4398563,8.5420479 Z M4.50189222,10.0333054 C4.47207186,11.4815689 5.46967665,12.863485 6.84165269,13.3142635 C8.13410778,13.7483952 9.72320958,13.4236048 10.5832096,12.3167784 C11.2112335,11.5412096 11.3536287,10.5073174 11.2857246,9.54120958 C10.1788982,9.53126946 9.0719521,9.53462275 7.9668024,9.5362994 C7.96512575,9.93067066 7.9668024,10.3233653 7.96835928,10.7177365 C8.63123353,10.7359401 9.29398802,10.7276766 9.95686228,10.7408503 C9.78943713,11.3142635 9.40835928,11.8477964 8.83003593,12.0548623 C7.71326946,12.5470778 6.28823952,11.9040838 5.93686228,10.7325868 C5.51267066,9.61079042 6.20704192,8.25701796 7.35362874,7.9305509 C8.06452695,7.68037126 8.79686228,7.9620479 9.40500599,8.33162874 C9.71326946,8.04324551 10.0015329,7.7351018 10.2848862,7.42360479 C9.59398802,6.84528144 8.70572455,6.49067066 7.79279042,6.56851497 C6.00153293,6.59007186 4.43398802,8.24384431 4.50189222,10.0333054 L4.50189222,10.0333054 Z M0.578179641,0.179053892 C0.816742515,0.0846826347 1.07853892,0.0979760479 1.32871856,0.0879161677 C7.13494611,0.0946227545 12.9410539,0.0879161677 18.7472814,0.0912694611 C19.3918323,0.011748503 19.9750659,0.598335329 19.8988982,1.24120958 C19.9121916,7.1020479 19.9038084,12.9645629 19.9038084,18.8270778 C19.9784192,19.4766587 19.3968623,20.0583353 18.7472814,19.9953413 C12.8864431,19.997018 7.02392814,19.997018 1.16308982,19.9953413 C0.513508982,20.0583353 -0.0680479042,19.4766587 0.00644311377,18.825521 C0.00644311377,12.9645629 -0.00349700599,7.1020479 0.0114730539,1.24120958 C-0.0250538922,0.810431138 0.205245509,0.392826347 0.578179641,0.179053892 L0.578179641,0.179053892 Z" id="Fill-1" fill="#DC4E41" sketch:type="MSShapeGroup" mask="url(#mask-2)"></path>
                </g>
                <path d="M4.50194012,10.0333653 C4.43403593,8.24378443 6.00158084,6.59013174 7.79271856,6.56857485 C8.70577246,6.49073054 9.59391617,6.84522156 10.2849341,7.42354491 C10.0015808,7.73504192 9.7131976,8.04330539 9.40505389,8.33156886 C8.79691018,7.96210778 8.06445509,7.68043114 7.35367665,7.93061078 C6.20697006,8.25707784 5.51271856,9.6108503 5.93691018,10.7326467 C6.28816766,11.9041437 7.7131976,12.547018 8.83008383,12.0549222 C9.40840719,11.8477365 9.78948503,11.3142036 9.95679042,10.7409102 C9.29403593,10.7276168 8.63116168,10.7358802 7.96840719,10.7176766 C7.96673054,10.3233054 7.96505389,9.93061078 7.96673054,9.53623952 C9.072,9.53456287 10.1788263,9.53132934 11.2857725,9.54126946 C11.3536766,10.5072575 11.2111617,11.5412695 10.5831377,12.3167186 C9.72313772,13.4236647 8.13415569,13.7483353 6.84158084,13.3142036 C5.46960479,12.8635449 4.47211976,11.4816287 4.50194012,10.0333653" id="Fill-4" fill="#FFFFFF" sketch:type="MSShapeGroup"></path>
                <path d="M13.4398563,8.5420479 L14.4257246,8.5420479 C14.4274012,8.8717485 14.4307545,9.20324551 14.4324311,9.53294611 C14.7621317,9.5362994 15.093509,9.53785629 15.4233293,9.53953293 L15.4233293,10.5271976 C15.093509,10.5287545 14.7621317,10.5304311 14.4324311,10.5321078 C14.4290778,10.863485 14.4274012,11.1933054 14.4257246,11.5246826 C14.096024,11.523006 13.7663234,11.5246826 13.4381796,11.5246826 C13.4348263,11.1933054 13.4348263,10.863485 13.4315928,10.5337844 C13.1017725,10.5304311 12.7703952,10.5287545 12.4406946,10.5271976 L12.4406946,9.53953293 C12.7703952,9.53785629 13.1002156,9.5362994 13.4315928,9.53294611 C13.4332695,9.20324551 13.436503,8.8717485 13.4398563,8.5420479" id="Fill-6" fill="#FFFFFF" sketch:type="MSShapeGroup"></path>
            </g>
        </g>
    </g>
</svg>