<svg viewBox="0 0 28 21" xmlns="http://www.w3.org/2000/svg"><path d="m26.786 12.461c-.852 0-1.662.184-2.394.513-.842-1.512-2.423-2.531-4.235-2.531-1.363 0-2.596.577-3.481 1.507-.974-1.284-2.511-2.112-4.24-2.112-2.945 0-5.332 2.403-5.332 5.368 0 .76.156 1.481.439 2.135-1.37.807-2.291 2.315-2.291 4.04 0 2.577 2.051 4.666 4.582 4.666.323 0 .638-.034.942-.099.695 1.901 2.507 3.257 4.633 3.257 2.041 0 3.792-1.25 4.544-3.03.571.281 1.214.439 1.893.439 1.621 0 3.035-.901 3.776-2.234.377.077.767.117 1.166.117 3.269 0 5.919-2.694 5.919-6.02 0-3.325-2.65-6.02-5.919-6.02" transform="translate(-5 -9)"/></svg>