<svg width="46" height="46" viewBox="0 0 46 46" xmlns="http://www.w3.org/2000/svg" xmlns:svg="http://www.w3.org/2000/svg">
   <path d="m45.99011,23.54022c0,-1.62693 -0.14898,-3.19125 -0.42567,-4.69302l-22.04825,0l0,8.87499l12.59899,0c-0.54269,2.86795 -2.19206,5.29788 -4.67142,6.92478l0,5.75678l7.56577,0c4.42668,-3.99427 6.98055,-9.87619 6.98055,-16.86354l0,0l0.00002,0.00002l0.00001,-0.00001z" fill="#4285F4" stroke="null"/>
   <path d="m23.51621,45.96236c6.32078,0 11.62003,-2.0545 15.49335,-5.5586l-7.56577,-5.75678c-2.09628,1.37661 -4.77784,2.19006 -7.92758,2.19006c-6.09732,0 -11.25823,-4.03599 -13.09912,-9.45901l-7.82118,0l0,5.94449c3.85206,7.49837 11.76902,12.63981 20.92031,12.63981l0,0l0,0.00003l-0.00001,0z" fill="#34A853" stroke="null"/>
   <path d="m10.41708,27.37805c-0.46821,-1.37662 -0.73423,-2.84709 -0.73423,-4.35929c0,-1.51217 0.26603,-2.98267 0.73423,-4.35928l0,-5.94447l-7.82118,0c-1.5855,3.09738 -2.49,6.6015 -2.49,10.30375c0,3.70226 0.9045,7.20638 2.49,10.30378l7.82118,-5.9445l0,0l0,0.00001z" fill="#FBBC05" stroke="null"/>
   <path d="m23.51621,9.20047c3.43705,0 6.52297,1.1576 8.94911,3.43108l6.71452,-6.58063c-4.05426,-3.70225 -9.35348,-5.97575 -15.66363,-5.97575c-9.15129,0 -17.06825,5.14145 -20.92031,12.63984l7.82118,5.94447c1.84091,-5.42302 7.00182,-9.45901 13.09912,-9.45901l0,0l0.00001,0z" fill="#EA4335" stroke="null"/>
</svg>
