<svg viewBox="0 0 9 15" xmlns="http://www.w3.org/2000/svg"><g clip-rule="evenodd" fill-rule="evenodd"><path d="m7 12h1c.552 0 1 .448 1 1v1c0 .552-.448 1-1 1h-1c-.552 0-1-.448-1-1v-1c0-.552.448-1 1-1z"/><path d="m7 6h1c.552 0 1 .448 1 1v1c0 .552-.448 1-1 1h-1c-.552 0-1-.448-1-1v-1c0-.552.448-1 1-1z"/><path d="m7 0h1c.552 0 1 .448 1 1v1c0 .552-.448 1-1 1h-1c-.552 0-1-.448-1-1v-1c0-.552.448-1 1-1z"/><path d="m1 12h1c.552 0 1 .448 1 1v1c0 .552-.448 1-1 1h-1c-.552 0-1-.448-1-1v-1c0-.552.448-1 1-1z"/><path d="m1 6h1c.552 0 1 .448 1 1v1c0 .552-.448 1-1 1h-1c-.552 0-1-.448-1-1v-1c0-.552.448-1 1-1z"/><path d="m1 0h1c.552 0 1 .448 1 1v1c0 .552-.448 1-1 1h-1c-.552 0-1-.448-1-1v-1c0-.552.448-1 1-1z"/></g></svg>