<?xml version="1.0" encoding="utf-8"?>
<!-- Generator: Adobe Illustrator 19.1.0, SVG Export Plug-In . SVG Version: 6.00 Build 0)  -->
<svg version="1.1" id="Calque_1" xmlns="http://www.w3.org/2000/svg" xmlns:xlink="http://www.w3.org/1999/xlink" x="0px" y="0px"
	 viewBox="0 0 20 20" style="enable-background:new 0 0 20 20;" xml:space="preserve">
<style type="text/css">
	.st0{fill:#000000;}
	.st1{fill-rule:evenodd;clip-rule:evenodd;fill:#000000;}
	.st2{fill-rule:evenodd;clip-rule:evenodd;fill:none;}
</style>
<g>
	<path class="st0" d="M16.4,19L1.9,19C1.4,18.9,1,18.4,1,17.8v-14c0-0.7,0.5-1.2,1.2-1.2h9.3v1.7H2.9c-0.1,0-0.2,0.1-0.2,0.2v12.6
		c0,0.1,0.1,0.2,0.2,0.2h12.6c0.1,0,0.2-0.1,0.2-0.2V8.5h1.7v9.3C17.4,18.4,17,18.9,16.4,19L16.4,19z"/>
	<path class="st2" d="M16.9,17.8V9h-0.7v8.1c0,0.4-0.3,0.7-0.7,0.7H2.9c-0.4,0-0.7-0.3-0.7-0.7V4.5c0-0.4,0.3-0.7,0.7-0.7H11V3.1
		H2.2c-0.4,0-0.7,0.3-0.7,0.7v14c0,0.3,0.2,0.6,0.5,0.7h14.3C16.7,18.4,16.9,18.2,16.9,17.8z"/>
	<path class="st0" d="M4.4,15.6l1.7-4.4L16.3,1L19,3.7L8.6,14L4.4,15.6z M6.9,11.9l-0.8,2l2-0.8l9.5-9.5l-1.3-1.3L6.9,11.9z"/>
	<polygon class="st2" points="16.3,1.7 6.4,11.6 5.2,14.8 8.4,13.6 18.3,3.7 	"/>
	<polyline class="st1" points="15,3.5 14.5,4 16,5.5 16.5,5 15,3.5 	"/>
</g>
</svg>
