<svg width="20" height="20" xmlns="http://www.w3.org/2000/svg" xmlns:svg="http://www.w3.org/2000/svg" viewBox="0 0 20 20">
 <g>
  <title>Layer 1</title>
  <g id="Edit_20px">
   <g id="svg_1">
    <path id="svg_2" d="m15.7,17.1c0,0.1 -0.1,0.2 -0.2,0.2l-12.6,0c-0.1,0 -0.2,-0.1 -0.2,-0.2l0,-12.6c0,-0.1 0.1,-0.2 0.2,-0.2l8.6,0l0,-1.7l-9.3,0c-0.7,0 -1.2,0.6 -1.2,1.2l0,14c0,0.6 0.4,1 0.9,1.2l14.5,0l0.1,0c0.5,-0.1 0.9,-0.6 0.9,-1.2l0,-9.3l-1.7,0l0,8.6z"/>
    <path id="svg_3" d="m4.4,15.6l4.2,-1.6l10.4,-10.3l-2.7,-2.7l-10.2,10.2l-1.7,4.4zm11.9,-13.2l1.3,1.3l-1.2,1.2l-1.3,-1.3l1.2,-1.2zm-9.4,9.5l7.7,-7.7l1.3,1.3l-7.7,7.7l-2,0.8l0.7,-2.1z"/>
   </g>
  </g>
 </g>

</svg>
