<svg enable-background="new 0 0 26.308 32" viewBox="0 0 26.308 32" xmlns="http://www.w3.org/2000/svg"><path d="m24.637 11.985c0-1.925-1.193-3.608-2.989-4.262.079-.406.12-.811.12-1.234 0-3.578-2.911-6.489-6.49-6.489-2.09 0-4.035 1.002-5.257 2.692-.6-.466-1.338-.722-2.108-.722-1.899 0-3.444 1.545-3.444 3.444 0 .42.075.821.215 1.2-1.786.644-3.013 2.367-3.013 4.279 0 1.935 1.199 3.625 3.003 4.275-.077.401-.118.815-.118 1.233 0 3.57 2.904 6.474 6.474 6.474 2.095 0 4.039-1.007 5.254-2.703.605.475 1.344.735 2.111.735 1.899 0 3.444-1.545 3.444-3.444 0-.42-.075-.822-.215-1.201 1.785-.641 3.013-2.364 3.013-4.277" fill="#fff"/><path d="m10.7 9.852 5.025 2.291 5.07-4.443c.073-.366.109-.732.109-1.114 0-3.126-2.543-5.669-5.668-5.669-1.87 0-3.614.921-4.674 2.465l-.843 4.376z" fill="#ffd00a"/><path d="m5.498 15.174c-.073.366-.111.747-.111 1.131 0 3.134 2.55 5.684 5.684 5.684 1.885 0 3.638-.929 4.696-2.489l.837-4.361-1.117-2.135-5.045-2.3z" fill="#20b9af"/><path d="m5.466 6.477 3.444.814.755-3.916c-.471-.36-1.052-.557-1.649-.557-1.497 0-2.714 1.218-2.714 2.714 0 .331.055.648.164.945" fill="#ee5096"/><path d="m5.167 7.298c-1.539.51-2.609 1.985-2.609 3.607 0 1.58.977 2.99 2.443 3.549l4.832-4.367-.886-1.896z" fill="#12a5df"/><path d="m16.651 19.5c.472.363 1.05.561 1.641.561 1.497 0 2.714-1.217 2.714-2.714 0-.33-.055-.647-.164-.944l-3.442-.805z" fill="#90c640"/><path d="m17.351 14.696 3.788.886c1.539-.509 2.609-1.984 2.609-3.607 0-1.577-.979-2.986-2.449-3.542l-4.955 4.341z" fill="#05799f"/><g fill="#221f1f"><path d="m3.734 31.247.299-.031.021.609c-.784.11-1.454.165-2.011.165-.743 0-1.269-.215-1.578-.645-.31-.43-.465-1.099-.465-2.006 0-1.809.718-2.713 2.156-2.713.694 0 1.214.194 1.558.583s.516.999.516 1.831l-.041.588h-3.405c0 .571.103.994.309 1.269s.566.413 1.078.413c.512-.001 1.033-.022 1.563-.063zm-.279-2.238c0-.633-.102-1.08-.304-1.341-.203-.261-.533-.392-.99-.392s-.801.138-1.031.413-.349.715-.356 1.32z"/><path d="m5.308 31.95v-6.789h.774v6.789z"/><path d="m10.953 28.287v2.602c0 .258.642.247.642.247l-.039.684c-.543 0-.993.045-1.263-.216-.619.275-1.237.387-1.856.387-.474 0-.836-.134-1.083-.402-.248-.268-.371-.653-.371-1.155s.127-.872.382-1.109c.254-.237.653-.383 1.197-.438l1.619-.155v-.444c0-.351-.076-.602-.227-.753s-.358-.227-.619-.227l-2.033.002v-.682h1.981c.584 0 1.009.134 1.274.402.264.266.396.686.396 1.257zm-3.177 2.104c0 .633.261.949.784.949.468 0 .928-.079 1.382-.237l.237-.083v-1.702l-1.527.144c-.309.028-.533.117-.67.268-.137.152-.206.372-.206.661z"/><path d="m13.973 27.317c-.75 0-1.124.261-1.124.784 0 .241.086.411.258.511s.564.203 1.176.309c.612.107 1.045.256 1.3.449.254.193.382.554.382 1.083 0 .53-.17.918-.511 1.166-.34.248-.837.371-1.49.371-.426 0-1.849-.158-1.849-.158l.041-.67c.818.079 1.409.137 1.808.137s.703-.064.913-.191.315-.34.315-.639-.089-.502-.268-.609-.571-.208-1.176-.304-1.035-.237-1.289-.423-.382-.529-.382-1.031.177-.873.531-1.114.796-.361 1.325-.361c.419 0 1.875.107 1.875.107v.675c-.767-.037-1.395-.092-1.835-.092z"/><path d="m19.695 27.4h-1.64v2.465c0 .592.043.98.129 1.166s.29.279.614.279l.918-.062.052.64c-.462.074-.813.112-1.053.112-.536 0-.908-.131-1.114-.392s-.309-.76-.309-1.496v-2.712h-.732v-.67h.732v-1.578h.763v1.578h1.64z"/><path d="m20.77 26.07v-.897h.774v.897zm0 5.88v-5.221h.774v5.221z"/><path d="m24.895 26.626c.227 0 .612.041 1.155.124l.248.031-.031.629c-.55-.062-.956-.093-1.217-.093-.585 0-.982.139-1.191.418-.21.279-.315.794-.315 1.547s.098 1.277.294 1.573.603.444 1.222.444l1.217-.093.031.639c-.64.096-1.118.144-1.434.144-.805 0-1.36-.206-1.666-.619s-.459-1.109-.459-2.089.165-1.668.495-2.063c.33-.394.88-.592 1.651-.592z"/></g></svg>