<svg xmlns="http://www.w3.org/2000/svg" viewBox="0 0 512 512">
    <path fill="#000" d="M318.752 280.235l167.024 171.904c-8.091 7.908-22.012 11.864-41.756 11.864h-369.978c-22.172 0-37.791-4.041-46.856-12.117l166.537-171.651 14.808 15.146c15.539 15.483 31.481 23.222 47.826 23.222s32.288-7.739 47.827-23.222l14.564-15.146zM6.068 87.635l163.87 168.117-163.87 168.623c-4.045-7.238-6.071-19.439-6.071-36.6v-263.535c0-17.166 2.025-29.367 6.071-36.6zM506.171 88.136c3.886 7.237 5.827 19.27 5.827 36.099v263.535c0 16.997-1.861 29.114-5.583 36.351l-163.626-168.37zM437.95 48.002c22.659 0 38.358 4.289 47.095 12.872l-200.043 205.982c-9.872 10.097-19.421 15.146-28.645 15.146-9.389 0-18.938-5.048-28.645-15.146l-201.013-206.99c7.767-7.908 21.525-11.864 41.269-11.864z"></path>
</svg>
