<svg fill="none" viewBox="0 0 280 248" xmlns="http://www.w3.org/2000/svg" xmlns:xlink="http://www.w3.org/1999/xlink"><filter id="a" color-interpolation-filters="sRGB" filterUnits="userSpaceOnUse" height="220.406" width="220.662" x="47.9336" y="43.0551"><feFlood flood-opacity="0" result="BackgroundImageFix"/><feBlend in="SourceGraphic" in2="BackgroundImageFix" mode="normal" result="shape"/><feGaussianBlur result="effect1_foregroundBlur" stdDeviation="12"/></filter><filter id="b" color-interpolation-filters="sRGB" filterUnits="userSpaceOnUse" height="30.6538" width="54.2985" x="100.807" y="123.323"><feFlood flood-opacity="0" result="BackgroundImageFix"/><feBlend in="SourceGraphic" in2="BackgroundImageFix" mode="normal" result="shape"/><feGaussianBlur result="effect1_foregroundBlur" stdDeviation="2"/></filter><clipPath id="c"><path d="m0 0h280v248h-280z"/></clipPath><g clip-path="url(#c)"><rect fill="#f6f7f9" height="160" rx="8" width="88" x="104" y="44"/><path d="m52.8363 115.544c-4.6246-5.152-5.2436-11.325-3.6101-16.8746m11.143-13.8182c-2.9289 1.4583-5.7132 3.9588-7.8573 7.0371m7.2628 28.5097c13.0669 6.982 32.465 2.581 47.7253-2.721" stroke="#282829" stroke-linecap="round" stroke-width="3"/><g filter="url(#a)" opacity=".3"><path d="m91.3399 204.389 153.2551-82.777-95.078-13.98z" fill="#626971"/></g><path d="m136.191 129.368-21.191-13.368 106.921-45.144z" fill="#e2b104"/><path d="m116.047 116.14 107.06-44.9891-91.356 8.2822c-3.152.2857-5.839 2.4029-6.855 5.4005l-10.184 30.0634c-.276.816.54 1.577 1.335 1.243z" fill="#f5d029"/><path d="m95.0814 185.856 2.0469 1.565c1.9447 1.488 4.6807 1.348 6.4637-.33l119.379-112.3012c.53-.4985.747-1.2455.567-1.9505l-.573-2.2491z" fill="#3f3f71"/><path d="m150.057 108.77-7.158-4.178 79.604-34.382z" fill="#333357"/><path d="m130.258 80.8958 10.359 22.6202c.453.987 1.611 1.433 2.609 1.004l78.705-33.8654c.315-.1358.192-.6094-.15-.574l-90.717 9.4042c-.681.0706-1.091.7888-.806 1.411z" fill="#6b6bbd"/><path d="m114.798 126.247 108.31-55.0966-127.2672 114.5796c-.7566.681-1.9285-.072-1.6231-1.044l17.0763-54.3c.564-1.794 1.827-3.286 3.504-4.139z" fill="#ffe300"/><path d="m138.209 116.049-43.2151 69.131c-.3069.491.3269 1.024.7579.638l127.0232-113.9742c.878-.7878-.093-2.1799-1.136-1.6282l-79.248 41.9414c-1.713.906-3.155 2.249-4.182 3.892z" fill="#8787db"/><path d="m50.544 64.5581c-2.7675 1.1481-5.3466 2.555-7.7269 4.176m-10.4723 64.1419c2.1259 2.051 4.4639 3.791 6.9727 5.25m106.8055-19.304c-31.122 17.591-52.0956 24.388-73.9123 25.61m-22.4887-2.008c3.3871.934 6.9373 1.536 10.5833 1.86m-32.2637-59.9397c1.0174-1.7406 2.1539-3.4225 3.4054-5.0283 1.1549-1.4819 2.4077-2.8989 3.7555-4.2375m-8.7788 50.0825c-5.2938-8.233-5.7651-18.926-3.3285-28.5938" stroke="#282829" stroke-linecap="round" stroke-width="3"/><g filter="url(#b)" opacity=".3"><path d="m148.123 128.822c-16.03 9.061-28.475 15.631-40.623 19.678" stroke="#282829" stroke-linejoin="round" stroke-width="3"/></g><path d="m209.304 149c0 6.738 7.303 8.303 7.303 8.303s-7.303 1.957-7.303 8.304c0-6.347-7.304-8.304-7.304-8.304s7.304-1.174 7.304-8.303z" fill="#ffe300"/><path d="m162.106 52.6818c0 5.766 6.251 7.1059 6.251 7.1059s-6.251 1.675-6.251 7.106c0-5.431-6.25-7.106-6.25-7.106s6.25-1.0049 6.25-7.1059z" fill="#d6d7fd"/><path d="m155.105 175c.001 5.766 6.251 7.106 6.251 7.106s-6.251 1.675-6.251 7.106c0-5.431-6.25-7.106-6.25-7.106s6.251-1.005 6.25-7.106z" fill="#d6d7fd"/><path d="m89.4551 96c0 4.426 4.7981 5.455 4.7981 5.455s-4.7981 1.286-4.7981 5.455c0-4.169-4.7981-5.455-4.7981-5.455s4.7981-.771 4.7981-5.455z" fill="#ffe300"/></g></svg>