<svg viewBox="0 0 18 15" xmlns="http://www.w3.org/2000/svg">
  <g fill-rule="evenodd">
    <path
        d="m2 13h14v-11h-14v11m-.2-13c-.99 0-1.8.844-1.8 1.875v11.251c0 1.031.81 1.875 1.8 1.875h14.4c.99 0 1.8-.844 1.8-1.875v-11.251c0-1.031-.811-1.875-1.8-1.875h-14.4"/>
    <path
        d="m14.603 6.23c-.23-.446-.772-.63-1.226-.404l-4.377 2.174-4.355-2.174c-.445-.222-.993-.037-1.218.404l.019-.037c-.227.446-.056.986.393 1.212l5.161 2.595 5.191-2.595c.447-.223.621-.77.393-1.212l.019.037"/>
  </g>
</svg>

