<svg xmlns="http://www.w3.org/2000/svg" viewBox="0 0 500 500" >
    <path d="M250,0 C388,0 500,112 500,250 C500,388 388,500 250,500 C112,500 0,388 0,250 C0,112 112,0 250,0 Z M250,406.25 C267.25,406.25 281.25,392.25 281.25,375 C281.25,357.75 267.25,343.75 250,343.75 C232.75,343.75 218.75,357.75 218.75,375 C218.75,392.25 232.75,406.25 250,406.25 Z M275.5,289.6875 C277.9375,267.375 281.25,235.5 281.25,226.4375 L281.25,119.40625 C281.25,105.21875 269.75,93.75 255.59375,93.75 L244.375,93.75 C230.21875,93.75 218.75,105.21875 218.75,119.40625 L218.75,226.4375 C218.75,235.5 222.0625,267.375 224.5,289.6875 C225.9375,302.6875 236.90625,312.5 250,312.5 C263.09375,312.5 274.0625,302.6875 275.5,289.6875 Z M250,50 C139.6,50 50,139.6 50,250 C50,360.4 139.6,450 250,450 C360.4,450 450,360.4 450,250 C450,139.6 360.4,50 250,50 Z" fill="#000000" fill-rule="nonzero"></path>
</svg>