<svg xmlns="http://www.w3.org/2000/svg" viewBox="0 0 500 500">
    <path d="M250,0 C112,0 0,112 0,250 C0,388 112,500 250,500 C388,500 500,388 500,250 C500,112 388,0 250,0 Z M250,406.25 C232.75,406.25 218.75,392.25 218.75,375 C218.75,357.75 232.75,343.75 250,343.75 C267.25,343.75 281.25,357.75 281.25,375 C281.25,392.25 267.25,406.25 250,406.25 Z M275.5,289.6875 C274.0625,302.6875 263.09375,312.5 250,312.5 C236.90625,312.5 225.9375,302.6875 224.5,289.6875 C222.0625,267.375 218.75,235.5 218.75,226.4375 L218.75,119.40625 C218.75,105.21875 230.21875,93.75 244.375,93.75 L255.59375,93.75 C269.75,93.75 281.25,105.21875 281.25,119.40625 L281.25,226.4375 C281.25,235.5 277.9375,267.375 275.5,289.6875 Z" fill="#000000" fill-rule="nonzero"></path>
</svg>