<svg width="20" height="20" viewBox="0 0 20 20" xmlns="http://www.w3.org/2000/svg" xmlns:svg="http://www.w3.org/2000/svg">
  <g>
   <path d="m6.004,18.5l0,-0.5c0,-0.276 -0.224,-0.5 -0.5,-0.5l-1.724,0l4.931,-4.931c0.157,-0.157 0.157,-0.412 0,-0.57l-0.708,-0.708c-0.157,-0.157 -0.412,-0.157 -0.57,0l-4.933,4.933l0,-1.724c0,-0.276 -0.224,-0.5 -0.5,-0.5l-0.5,0c-0.276,0 -0.5,0.224 -0.5,0.5l0,4c0,0.276 0.224,0.5 0.5,0.5l4.004,0c0.276,0 0.5,-0.224 0.5,-0.5z"/>
   <path d="m13.996,18.5l0,-0.5c0,-0.276 0.224,-0.5 0.5,-0.5l1.724,0l-4.931,-4.931c-0.157,-0.157 -0.157,-0.412 0,-0.57l0.708,-0.708c0.157,-0.157 0.412,-0.157 0.57,0l4.933,4.933l0,-1.724c0,-0.276 0.224,-0.5 0.5,-0.5l0.5,0c0.276,0 0.5,0.224 0.5,0.5l0,4c0,0.276 -0.224,0.5 -0.5,0.5l-4.004,0c-0.276,0 -0.5,-0.224 -0.5,-0.5z" />
   <path id="svg_4" d="m6.004,1.5l0,0.5c0,0.276 -0.224,0.5 -0.5,0.5l-1.724,0l4.931,4.931c0.157,0.157 0.157,0.412 0,0.57l-0.708,0.708c-0.157,0.157 -0.412,0.157 -0.57,0l-4.933,-4.933l0,1.724c0,0.276 -0.224,0.5 -0.5,0.5l-0.5,0c-0.276,0 -0.5,-0.224 -0.5,-0.5l0,-4c0,-0.276 0.224,-0.5 0.5,-0.5l4.004,0c0.276,0 0.5,0.224 0.5,0.5z"/>
   <path id="svg_5" d="m13.996,1.5l0,0.5c0,0.276 0.224,0.5 0.5,0.5l1.724,0l-4.931,4.931c-0.157,0.157 -0.157,0.412 0,0.57l0.708,0.708c0.157,0.157 0.412,0.157 0.57,0l4.933,-4.933l0,1.724c0,0.276 0.224,0.5 0.5,0.5l0.5,0c0.276,0 0.5,-0.224 0.5,-0.5l0,-4c0,-0.276 -0.224,-0.5 -0.5,-0.5l-4.004,0c-0.276,0 -0.5,0.224 -0.5,0.5z"/>
  </g>
</svg>
