<svg height="20" viewBox="0 0 20 20" width="20" xmlns="http://www.w3.org/2000/svg"><path d="m6.004 18.5v-.5c0-.276-.224-.5-.5-.5h-1.724l4.931-4.931c.157-.157.157-.412 0-.57l-.708-.708c-.157-.157-.412-.157-.57 0l-4.933 4.933v-1.724c0-.276-.224-.5-.5-.5h-.5c-.276 0-.5.224-.5.5v4c0 .276.224.5.5.5h4.004c.276 0 .5-.224.5-.5z"/><path d="m13.996 18.5v-.5c0-.276.224-.5.5-.5h1.724l-4.931-4.931c-.157-.157-.157-.412 0-.57l.708-.708c.157-.157.412-.157.57 0l4.933 4.933v-1.724c0-.276.224-.5.5-.5h.5c.276 0 .5.224.5.5v4c0 .276-.224.5-.5.5h-4.004c-.276 0-.5-.224-.5-.5z"/><path d="m6.004 1.5v.5c0 .276-.224.5-.5.5h-1.724l4.931 4.931c.157.157.157.412 0 .57l-.708.708c-.157.157-.412.157-.57 0l-4.933-4.933v1.724c0 .276-.224.5-.5.5h-.5c-.276 0-.5-.224-.5-.5v-4c0-.276.224-.5.5-.5h4.004c.276 0 .5.224.5.5z"/><path d="m13.996 1.5v.5c0 .276.224.5.5.5h1.724l-4.931 4.931c-.157.157-.157.412 0 .57l.708.708c.157.157.412.157.57 0l4.933-4.933v1.724c0 .276.224.5.5.5h.5c.276 0 .5-.224.5-.5v-4c0-.276-.224-.5-.5-.5h-4.004c-.276 0-.5.224-.5.5z"/></svg>