<?xml version="1.0" encoding="utf-8"?>
<!-- Generator: Adobe Illustrator 16.0.4, SVG Export Plug-In . SVG Version: 6.00 Build 0)  -->
<!DOCTYPE svg PUBLIC "-//W3C//DTD SVG 1.1//EN" "http://www.w3.org/Graphics/SVG/1.1/DTD/svg11.dtd">
<svg version="1.1" id="Layer_1" xmlns="http://www.w3.org/2000/svg" xmlns:xlink="http://www.w3.org/1999/xlink" x="0px" y="0px"
	 width="768px" height="768px" viewBox="0 0 768 768" enable-background="new 0 0 768 768" xml:space="preserve">
<g display="none" opacity="0.3">
	<line display="inline" fill="none" stroke="#B35047" x1="72" y1="0" x2="72" y2="768"/>
	<line display="inline" fill="none" stroke="#B35047" x1="120" y1="0" x2="120" y2="768"/>
	<line display="inline" fill="none" stroke="#B35047" x1="168" y1="0" x2="168" y2="768"/>
	<line display="inline" fill="none" stroke="#B35047" x1="216" y1="0" x2="216" y2="768"/>
	<line display="inline" fill="none" stroke="#B35047" x1="264" y1="0" x2="264" y2="768"/>
	<line display="inline" fill="none" stroke="#B35047" x1="312" y1="0" x2="312" y2="768"/>
	<line display="inline" fill="none" stroke="#B35047" x1="360" y1="0" x2="360" y2="768"/>
	<line display="inline" fill="none" stroke="#B35047" x1="408" y1="0" x2="408" y2="768"/>
	<line display="inline" fill="none" stroke="#B35047" x1="456" y1="0" x2="456" y2="768"/>
	<line display="inline" fill="none" stroke="#B35047" x1="504" y1="0" x2="504" y2="768"/>
	<line display="inline" fill="none" stroke="#B35047" x1="552" y1="0" x2="552" y2="768"/>
	<line display="inline" fill="none" stroke="#B35047" x1="600" y1="0" x2="600" y2="768"/>
	<line display="inline" fill="none" stroke="#B35047" x1="648" y1="0" x2="648" y2="768"/>
	<line display="inline" fill="none" stroke="#B35047" x1="696" y1="0" x2="696" y2="768"/>
	<line display="inline" fill="none" stroke="#B35047" x1="744" y1="0" x2="744" y2="768"/>
	<line display="inline" fill="none" stroke="#B35047" x1="0" y1="72" x2="768" y2="72"/>
	<line display="inline" fill="none" stroke="#B35047" x1="0" y1="120" x2="768" y2="120"/>
	<line display="inline" fill="none" stroke="#B35047" x1="0" y1="168" x2="768" y2="168"/>
	<line display="inline" fill="none" stroke="#B35047" x1="0" y1="216" x2="768" y2="216"/>
	<line display="inline" fill="none" stroke="#B35047" x1="0" y1="264" x2="768" y2="264"/>
	<line display="inline" fill="none" stroke="#B35047" x1="0" y1="312" x2="768" y2="312"/>
	<line display="inline" fill="none" stroke="#B35047" x1="0" y1="360" x2="768" y2="360"/>
	<line display="inline" fill="none" stroke="#B35047" x1="0" y1="408" x2="768" y2="408"/>
	<line display="inline" fill="none" stroke="#B35047" x1="0" y1="456" x2="768" y2="456"/>
	<line display="inline" fill="none" stroke="#B35047" x1="0" y1="504" x2="768" y2="504"/>
	<line display="inline" fill="none" stroke="#B35047" x1="0" y1="552" x2="768" y2="552"/>
	<line display="inline" fill="none" stroke="#B35047" x1="0" y1="600" x2="768" y2="600"/>
	<line display="inline" fill="none" stroke="#B35047" x1="0" y1="648" x2="768" y2="648"/>
	<line display="inline" fill="none" stroke="#B35047" x1="0" y1="696" x2="768" y2="696"/>
	<line display="inline" fill="none" stroke="#B35047" x1="0" y1="744" x2="768" y2="744"/>
	<line display="inline" fill="none" stroke="#B35047" x1="0" y1="24" x2="768" y2="24"/>
	<line display="inline" fill="none" stroke="#B35047" x1="24" y1="0" x2="24" y2="768"/>
</g>
<g display="none">
	<line display="inline" fill="none" stroke="#B35047" x1="48" y1="0" x2="48" y2="768"/>
	<line display="inline" fill="none" stroke="#B35047" x1="96" y1="0" x2="96" y2="768"/>
	<line display="inline" fill="none" stroke="#B35047" x1="144" y1="0" x2="144" y2="768"/>
	<line display="inline" fill="none" stroke="#B35047" x1="192" y1="0" x2="192" y2="768"/>
	<line display="inline" fill="none" stroke="#B35047" x1="240" y1="0" x2="240" y2="768"/>
	<line display="inline" fill="none" stroke="#B35047" x1="288" y1="0" x2="288" y2="768"/>
	<line display="inline" fill="none" stroke="#B35047" x1="336" y1="0" x2="336" y2="768"/>
	<line display="inline" fill="none" stroke="#B35047" x1="384" y1="0" x2="384" y2="768"/>
	<line display="inline" fill="none" stroke="#B35047" x1="432" y1="0" x2="432" y2="768"/>
	<line display="inline" fill="none" stroke="#B35047" x1="480" y1="0" x2="480" y2="768"/>
	<line display="inline" fill="none" stroke="#B35047" x1="528" y1="0" x2="528" y2="768"/>
	<line display="inline" fill="none" stroke="#B35047" x1="576" y1="0" x2="576" y2="768"/>
	<line display="inline" fill="none" stroke="#B35047" x1="624" y1="0" x2="624" y2="768"/>
	<line display="inline" fill="none" stroke="#B35047" x1="672" y1="0" x2="672" y2="768"/>
	<line display="inline" fill="none" stroke="#B35047" x1="720" y1="0" x2="720" y2="768"/>
	<line display="inline" fill="none" stroke="#B35047" x1="0" y1="48" x2="768" y2="48"/>
	<line display="inline" fill="none" stroke="#B35047" x1="0" y1="96" x2="768" y2="96"/>
	<line display="inline" fill="none" stroke="#B35047" x1="0" y1="144" x2="768" y2="144"/>
	<line display="inline" fill="none" stroke="#B35047" x1="0" y1="192" x2="768" y2="192"/>
	<line display="inline" fill="none" stroke="#B35047" x1="0" y1="240" x2="768" y2="240"/>
	<line display="inline" fill="none" stroke="#B35047" x1="0" y1="288" x2="768" y2="288"/>
	<line display="inline" fill="none" stroke="#B35047" x1="0" y1="336" x2="768" y2="336"/>
	<line display="inline" fill="none" stroke="#B35047" x1="0" y1="384" x2="768" y2="384"/>
	<line display="inline" fill="none" stroke="#B35047" x1="0" y1="432" x2="768" y2="432"/>
	<line display="inline" fill="none" stroke="#B35047" x1="0" y1="480" x2="768" y2="480"/>
	<line display="inline" fill="none" stroke="#B35047" x1="0" y1="528" x2="768" y2="528"/>
	<line display="inline" fill="none" stroke="#B35047" x1="0" y1="576" x2="768" y2="576"/>
	<line display="inline" fill="none" stroke="#B35047" x1="0" y1="624" x2="768" y2="624"/>
	<line display="inline" fill="none" stroke="#B35047" x1="0" y1="672" x2="768" y2="672"/>
	<line display="inline" fill="none" stroke="#B35047" x1="0" y1="720" x2="768" y2="720"/>
	<rect display="inline" fill="none" stroke="#B35047" width="768" height="768"/>
</g>
<rect x="96" y="526.875" width="576" height="49.5"/>
<rect x="96" y="96" width="576" height="240"/>
<rect x="96" y="624.375" width="576" height="48"/>
<rect x="96" y="431.625" width="576" height="49.5"/>
</svg>
