<svg width="20" height="20" viewBox="0 0 20 20" xmlns="http://www.w3.org/2000/svg" xmlns:svg="http://www.w3.org/2000/svg" >
  <g>
    <path id="Fill-1" d="m2.71445,2.70952l0.22911,0c0.72663,0 1.45327,0.00004 2.17986,0c1.25324,0 2.50653,0.001 3.75977,-0.0006c0.45649,-0.00056 0.80027,-0.25323 0.89482,-0.64982c0.13435,-0.56367 -0.27234,-1.0573 -0.87982,-1.05782c-2.31982,-0.00192 -4.63963,-0.00132 -6.95949,-0.00052c-0.58872,0.00024 -0.93734,0.34111 -0.9375,0.9281c-0.0016,5.37988 -0.00156,10.75972 -0.00012,16.13957c0.00016,0.59034 0.34542,0.93122 0.93278,0.9313c5.37963,0.00048 10.75929,0.00044 16.13891,-0.00104c0.09892,0 0.20143,-0.00616 0.29606,-0.03204c0.41102,-0.1122 0.63028,-0.43571 0.63052,-0.92718c0.00108,-2.21995 0.00068,-4.43987 -0.00028,-6.65982c-0.00004,-0.08635 -0.0044,-0.17367 -0.01743,-0.25891c-0.05376,-0.35143 -0.33498,-0.63271 -0.68476,-0.69051c-0.55313,-0.09135 -1.00066,0.29988 -1.00138,0.88498c-0.00224,1.9066 -0.00088,3.81324 -0.00092,5.71984l0,0.24763l-14.58013,0l0,-14.57316l0,0zm13.43136,-0.0675c0.0134,0.02069 0.02682,0.04142 0.04025,0.06215c-0.0564,0.0408 -0.11963,0.07473 -0.1682,0.12333c-2.22078,2.22022 -4.44033,4.44163 -6.65984,6.66308c-0.05422,0.05428 -0.11115,0.10664 -0.15934,0.16598c-0.19679,0.24259 -0.25316,0.51658 -0.14315,0.80931c0.10919,0.29061 0.32309,0.4696 0.63403,0.52211c0.32118,0.05424 0.56665,-0.08011 0.78723,-0.30113c2.23187,-2.23623 4.46596,-4.47016 6.6997,-6.7045c0.05046,-0.05048 0.10387,-0.09804 0.18663,-0.17585l0,0.2568c0.00003,0.8956 -0.00169,1.79116 0.00084,2.68675c0.00138,0.49267 0.33184,0.84889 0.79011,0.86067c0.47281,0.01217 0.83792,-0.3313 0.84022,-0.82888c0.00756,-1.6504 0.00779,-3.30088 -0.00038,-4.95124c-0.00246,-0.49647 -0.3495,-0.82696 -0.84398,-0.82804c-1.6369,-0.00353 -3.27383,-0.00326 -4.91072,-0.00011c-0.48996,0.00096 -0.85714,0.36327 -0.85238,0.82454c0.00468,0.4551 0.3658,0.81031 0.84586,0.81327c0.90153,0.00548 1.80314,0.00168 2.70471,0.00176l0.20841,0l0,0z"/>
    <path id="Fill-2" d="m2.71445,2.70952l0,14.57316l14.58013,0l0,-0.24763c0.00004,-1.9066 -0.00132,-3.81324 0.00092,-5.71984c0.00072,-0.5851 0.44825,-0.97633 1.00138,-0.88498c0.34978,0.0578 0.631,0.33908 0.68476,0.69051c0.01303,0.08524 0.01739,0.17256 0.01743,0.25891c0.00096,2.21995 0.00136,4.43987 0.00028,6.65982c-0.00024,0.49147 -0.2195,0.81498 -0.63052,0.92718c-0.09463,0.02588 -0.19714,0.03204 -0.29606,0.03204c-5.37962,0.00148 -10.75928,0.00152 -16.13891,0.00104c-0.58736,-0.00008 -0.93262,-0.34096 -0.93278,-0.9313c-0.00144,-5.37985 -0.00148,-10.75969 0.00012,-16.13957c0.00016,-0.58699 0.34878,-0.92786 0.9375,-0.9281c2.31986,-0.0008 4.63967,-0.0014 6.95949,0.00052c0.60748,0.00052 1.01417,0.49415 0.87982,1.05782c-0.09455,0.39659 -0.43833,0.64926 -0.89482,0.64982c-1.25324,0.0016 -2.50653,0.0006 -3.75977,0.0006c-0.72659,0.00004 -1.45323,0 -2.17986,0l-0.22911,0"/>
    <path id="Fill-3" d="m16.14581,2.64202l-0.20841,0c-0.90157,-0.00008 -1.80318,0.00372 -2.70471,-0.00176c-0.48006,-0.00296 -0.84118,-0.35817 -0.84586,-0.81327c-0.00476,-0.46127 0.36242,-0.82358 0.85238,-0.82454c1.63689,-0.00315 3.27382,-0.00342 4.91072,0.00011c0.49448,0.00108 0.84152,0.33157 0.84398,0.82804c0.00817,1.65036 0.00794,3.30084 0.00038,4.95124c-0.0023,0.49758 -0.36741,0.84105 -0.84022,0.82888c-0.45827,-0.01178 -0.78873,-0.368 -0.79011,-0.86067c-0.00253,-0.89559 -0.00081,-1.79115 -0.00084,-2.68675l0,-0.2568c-0.08276,0.07781 -0.13617,0.12537 -0.18663,0.17585c-2.23374,2.23434 -4.46783,4.46827 -6.6997,6.7045c-0.22058,0.22102 -0.46605,0.35537 -0.78723,0.30113c-0.31094,-0.05251 -0.52484,-0.2315 -0.63403,-0.52211c-0.11001,-0.29273 -0.05364,-0.56672 0.14315,-0.80931c0.04819,-0.05934 0.10512,-0.1117 0.15934,-0.16598c2.21951,-2.22145 4.43906,-4.44286 6.65984,-6.66308c0.04857,-0.0486 0.1118,-0.08253 0.1682,-0.12333c-0.01343,-0.02073 -0.02685,-0.04146 -0.04025,-0.06215"/>
  </g>
</svg>
