<svg viewBox="0 0 18 18" xmlns="http://www.w3.org/2000/svg"><g fill="currentColor" fill-rule="evenodd"><path d="m16.15 1.643c.013.021.027.041.04.062-.056.041-.12.075-.168.123-2.221 2.22-4.44 4.442-6.66 6.663-.054.054-.111.107-.159.166-.197.243-.253.517-.143.809.109.291.323.47.634.522.321.054.567-.08.787-.301 2.232-2.236 4.466-4.47 6.7-6.705.05-.05.104-.098.187-.176v.257c0 .896-.002 1.791.001 2.687.001.493.332.849.79.861.473.012.838-.331.84-.829.008-1.65.008-3.301 0-4.951-.002-.496-.349-.827-.844-.828-1.637-.004-3.274-.003-4.911 0-.49.001-.857.363-.852.825.005.455.366.81.846.813.902.005 1.803.002 2.705.002h.208m-13.436.069h.229 2.18c1.253 0 2.507.001 3.76-.001.456-.001.8-.253.895-.65.134-.564-.272-1.057-.88-1.058-2.32-.002-4.64-.001-6.959-.001-.589 0-.937.341-.938.928-.002 5.38-.002 10.76 0 16.14 0 .59.345.931.933.931 5.38 0 10.759 0 16.14-.001.099 0 .201-.006.296-.032.411-.112.63-.436.631-.927.001-2.22.001-4.44 0-6.66 0-.086-.004-.174-.017-.259-.054-.351-.335-.633-.685-.691-.553-.091-1 .3-1 .885-.002 1.907-.001 3.813-.001 5.72v.248h-14.58v-14.573" transform="translate(-1)" /></g></svg>