<svg viewBox="0 0 18 18" xmlns="http://www.w3.org/2000/svg"><g><path d="m9 1.541c4.976 0 7.101 1.333 7.459 1.712l-.032.046c-.629.649-3.201 1.677-7.427 1.677-4.24 0-6.802-1.024-7.413-1.659l-.046-.065c.362-.38 2.487-1.711 7.459-1.711m-5.646 4.269c1.591.456 3.582.705 5.646.705 2.064 0 4.056-.249 5.646-.705l-4.484 6.329-.037.051v4.075c-.912.542-1.78.247-2.25-.004v-4.07l-4.521-6.381m14.646-2.552c0-1.826-3.952-3.257-9-3.257-5.05 0-9 1.43-9 3.257 0 .167.035.337.104.506l.066.136c.042.071.132.222.194.297l6.02 8.496v4.158l.216.195c.106.098 1.072.955 2.47.955.882 0 1.679-.303 2.37-.905l.177-.171v-4.232l6.01-8.486c.067-.083.121-.158.157-.22l.047-.075.062-.145c.071-.168.107-.338.107-.509"/></g></svg>
