<svg version="1.1" xmlns="http://www.w3.org/2000/svg" xmlns:xlink="http://www.w3.org/1999/xlink" viewBox="0 0 20 20">
<path d="M19.2,4.1c0-1.9-4-3.3-9.2-3.3S0.8,2.3,0.8,4.1c0,0.2,0,0.3,0.1,0.5l0,0L1,4.8C1,4.9,1.1,5,1.2,5.1l6.2,8.7V18
	l0.2,0.2c0.1,0.1,1.1,1,2.5,1c0.9,0,1.7-0.3,2.4-0.9l0.2-0.2v-4.3l6.1-8.7C18.9,5,18.9,4.9,19,4.9l0-0.1l0.1-0.1l0,0
	C19.2,4.5,19.2,4.3,19.2,4.1z M4.2,6.7C5.9,7.2,7.9,7.5,10,7.5s4.1-0.3,5.8-0.7l-4.6,6.5l0,0.1v4.2c-0.9,0.6-1.8,0.3-2.3,0v-4.2
	L4.2,6.7z M10,2.4c5.1,0,7.3,1.4,7.6,1.7l0,0c-0.6,0.7-3.3,1.7-7.6,1.7c-4.3,0-7-1-7.6-1.7l0-0.1C2.7,3.7,4.9,2.4,10,2.4z"/>
</svg>
