<svg enable-background="new 0 0 512 512" height="512" viewBox="0 0 512 512" width="512" xmlns="http://www.w3.org/2000/svg"><path d="m384 118.182c0-48.514-78.798-87.843-176-87.843-97.203 0-176 39.329-176 87.843 0 28.32 32.148 43.663 68.545 69.569 19.656 13.99 59.171 76.343 59.455 100.249.305 25.727 0 96 0 96l96 48s.306-118.273 0-144c-.283-23.869 38.967-85.978 58.978-100.068 36.735-25.864 69.022-41.324 69.022-69.75zm-301.715-.158c0-27.771 56.285-50.285 125.714-50.285 69.431 0 125.714 22.514 125.714 50.285 0 27.773-56.283 50.287-125.714 50.287-69.429 0-125.714-22.514-125.714-50.287z"/><path d="m512 352h-64v-64h-64v64h-64v64l64 .188v63.812h64v-64h64z"/></svg>