<svg enable-background="new 0 0 235.5 369.4" viewBox="0 0 235.5 369.4" xmlns="http://www.w3.org/2000/svg"><g fill="#676767"><path d="m42.9 174.7h25.3c1.4 0 2.4-1.1 2.4-2.4v-40.9c0-1.4-1.1-2.4-2.4-2.4h-25.3c-1.4 0-2.4 1.1-2.4 2.4v40.9c0 1.3 1.1 2.4 2.4 2.4z"/><path d="m42.9 119.6h25.3c1.4 0 2.4-1.1 2.4-2.4v-29.1c0-1.4-1.1-2.4-2.4-2.4h-25.3c-1.4 0-2.4 1.1-2.4 2.4v29.1c0 1.3 1.1 2.4 2.4 2.4z"/><path d="m42.9 76.4h25.3c1.4 0 2.4-1.1 2.4-2.4v-17.3c0-1.4-1.1-2.4-2.4-2.4h-25.3c-1.4 0-2.4 1.1-2.4 2.4v17.3c0 1.3 1.1 2.4 2.4 2.4z"/><path d="m42.9 45.1h25.3c1.4 0 2.4-1.1 2.4-2.4v-5.4c0-1.4-1.1-2.4-2.4-2.4h-25.3c-1.4 0-2.4 1.1-2.4 2.4v5.4c0 1.3 1.1 2.4 2.4 2.4z"/><path d="m194.3 262.4-68.1-68.1c-1-1-2.5-1-3.5 0l-17.7 17.9c-1 1-1 2.5 0 3.5l33.4 33.4h-67.8v-9.6c0-.1 0-.1 0-.2s0-.1 0-.2v-52.8c0-1.4-1.1-2.4-2.4-2.4h-25.3c-1.4 0-2.4 1.1-2.4 2.4v52.8.2.2 37.3c0 1.4 1.1 2.4 2.4 2.4h95.4l-33.3 33.4c-1 1-1 2.5 0 3.5l17.9 17.9c.5.5 1.1.7 1.7.7s1.3-.2 1.7-.7l68.1-68.1c.5-.5.7-1.1.7-1.7s-.3-1.3-.8-1.8z"/></g></svg>