<?xml version="1.0" encoding="utf-8"?>
<!-- Generator: Adobe Illustrator 19.0.1, SVG Export Plug-In . SVG Version: 6.00 Build 0)  -->
<svg version="1.1" id="Calque_1" xmlns="http://www.w3.org/2000/svg" xmlns:xlink="http://www.w3.org/1999/xlink" x="0px" y="0px"
	 viewBox="0 0 235.5 369.4" style="enable-background:new 0 0 235.5 369.4;" xml:space="preserve">
<style type="text/css">
	.st0{fill:#676767;}
</style>
<g>
	<path class="st0" d="M42.9,174.7h25.3c1.4,0,2.4-1.1,2.4-2.4v-40.9c0-1.4-1.1-2.4-2.4-2.4H42.9c-1.4,0-2.4,1.1-2.4,2.4v40.9
		C40.5,173.6,41.6,174.7,42.9,174.7z"/>
	<path class="st0" d="M42.9,119.6h25.3c1.4,0,2.4-1.1,2.4-2.4V88.1c0-1.4-1.1-2.4-2.4-2.4H42.9c-1.4,0-2.4,1.1-2.4,2.4v29.1
		C40.5,118.5,41.6,119.6,42.9,119.6z"/>
	<path class="st0" d="M42.9,76.4h25.3c1.4,0,2.4-1.1,2.4-2.4V56.7c0-1.4-1.1-2.4-2.4-2.4H42.9c-1.4,0-2.4,1.1-2.4,2.4V74
		C40.5,75.3,41.6,76.4,42.9,76.4z"/>
	<path class="st0" d="M42.9,45.1h25.3c1.4,0,2.4-1.1,2.4-2.4v-5.4c0-1.4-1.1-2.4-2.4-2.4H42.9c-1.4,0-2.4,1.1-2.4,2.4v5.4
		C40.5,44,41.6,45.1,42.9,45.1z"/>
	<path class="st0" d="M194.3,262.4l-68.1-68.1c-1-1-2.5-1-3.5,0L105,212.2c-1,1-1,2.5,0,3.5l33.4,33.4H70.6v-9.6c0-0.1,0-0.1,0-0.2
		c0-0.1,0-0.1,0-0.2v-52.8c0-1.4-1.1-2.4-2.4-2.4H42.9c-1.4,0-2.4,1.1-2.4,2.4v52.8c0,0.1,0,0.1,0,0.2c0,0.1,0,0.1,0,0.2v37.3
		c0,1.4,1.1,2.4,2.4,2.4h95.4L105,312.6c-1,1-1,2.5,0,3.5l17.9,17.9c0.5,0.5,1.1,0.7,1.7,0.7c0.6,0,1.3-0.2,1.7-0.7l68.1-68.1
		c0.5-0.5,0.7-1.1,0.7-1.7S194.8,262.9,194.3,262.4z"/>
</g>
</svg>
