<svg enable-background="new 0 0 512 512" height="512" viewBox="0 0 512 512" width="512" xmlns="http://www.w3.org/2000/svg"><path d="m480 371.454s0-52.063 0-67.454c0-19.186-16-48.122-48-48.121s-48 27.06-48 48.121v67.864l-32-.394v140.53h160v-140.527zm-64 .017v-51.471s-3.949-32 16-32c20.305 0 16 32 16 32v51.471z"/><path d="m320 336h32s0-19.736 0-32c0-40.373 36.083-80.233 80.244-80.233 8.516 0 29.271 3.733 47.89 16.059 0-10.796-.134-51.856-.134-79.826 0-16-16-32-32-32-51.555 0-151.323 0-192 0-32 0-32-64-96-64-20.014 0-65.066-.545-96 0-16 .282-32 16-32 32v320c0 16 16 32 32 32h256z"/></svg>