<?xml version="1.0" encoding="utf-8"?>
<!-- Generator: Adobe Illustrator 16.0.4, SVG Export Plug-In . SVG Version: 6.00 Build 0)  -->
<!DOCTYPE svg PUBLIC "-//W3C//DTD SVG 1.1//EN" "http://www.w3.org/Graphics/SVG/1.1/DTD/svg11.dtd">
<svg version="1.1" id="Layer_1" xmlns="http://www.w3.org/2000/svg" xmlns:xlink="http://www.w3.org/1999/xlink" x="0px" y="0px"
	 width="512px" height="512px" viewBox="0 0 512 512" enable-background="new 0 0 512 512" xml:space="preserve">
<g display="none" opacity="0.3">
	<line display="inline" fill="none" stroke="#B35047" x1="48" y1="0" x2="48" y2="512"/>
	<line display="inline" fill="none" stroke="#B35047" x1="80" y1="0" x2="80" y2="512"/>
	<line display="inline" fill="none" stroke="#B35047" x1="112" y1="0" x2="112" y2="512"/>
	<line display="inline" fill="none" stroke="#B35047" x1="144" y1="0" x2="144" y2="512"/>
	<line display="inline" fill="none" stroke="#B35047" x1="176" y1="0" x2="176" y2="512"/>
	<line display="inline" fill="none" stroke="#B35047" x1="208" y1="0" x2="208" y2="512"/>
	<line display="inline" fill="none" stroke="#B35047" x1="240" y1="0" x2="240" y2="512"/>
	<line display="inline" fill="none" stroke="#B35047" x1="272" y1="0" x2="272" y2="512"/>
	<line display="inline" fill="none" stroke="#B35047" x1="304" y1="0" x2="304" y2="512"/>
	<line display="inline" fill="none" stroke="#B35047" x1="336" y1="0" x2="336" y2="512"/>
	<line display="inline" fill="none" stroke="#B35047" x1="368" y1="0" x2="368" y2="512"/>
	<line display="inline" fill="none" stroke="#B35047" x1="400" y1="0" x2="400" y2="512"/>
	<line display="inline" fill="none" stroke="#B35047" x1="432" y1="0" x2="432" y2="512"/>
	<line display="inline" fill="none" stroke="#B35047" x1="464" y1="0" x2="464" y2="512"/>
	<line display="inline" fill="none" stroke="#B35047" x1="496" y1="0" x2="496" y2="512"/>
	<line display="inline" fill="none" stroke="#B35047" x1="0" y1="48" x2="512" y2="48"/>
	<line display="inline" fill="none" stroke="#B35047" x1="0" y1="80" x2="512" y2="80"/>
	<line display="inline" fill="none" stroke="#B35047" x1="0" y1="112" x2="512" y2="112"/>
	<line display="inline" fill="none" stroke="#B35047" x1="0" y1="144" x2="512" y2="144"/>
	<line display="inline" fill="none" stroke="#B35047" x1="0" y1="176" x2="512" y2="176"/>
	<line display="inline" fill="none" stroke="#B35047" x1="0" y1="208" x2="512" y2="208"/>
	<line display="inline" fill="none" stroke="#B35047" x1="0" y1="240" x2="512" y2="240"/>
	<line display="inline" fill="none" stroke="#B35047" x1="0" y1="272" x2="512" y2="272"/>
	<line display="inline" fill="none" stroke="#B35047" x1="0" y1="304" x2="512" y2="304"/>
	<line display="inline" fill="none" stroke="#B35047" x1="0" y1="336" x2="512" y2="336"/>
	<line display="inline" fill="none" stroke="#B35047" x1="0" y1="368" x2="512" y2="368"/>
	<line display="inline" fill="none" stroke="#B35047" x1="0" y1="400" x2="512" y2="400"/>
	<line display="inline" fill="none" stroke="#B35047" x1="0" y1="432" x2="512" y2="432"/>
	<line display="inline" fill="none" stroke="#B35047" x1="0" y1="464" x2="512" y2="464"/>
	<line display="inline" fill="none" stroke="#B35047" x1="0" y1="496" x2="512" y2="496"/>
	<line display="inline" fill="none" stroke="#B35047" x1="0" y1="16" x2="512" y2="16"/>
	<line display="inline" fill="none" stroke="#B35047" x1="16" y1="0" x2="16" y2="512"/>
</g>
<g display="none">
	<line display="inline" fill="none" stroke="#B35047" x1="32" y1="0" x2="32" y2="512"/>
	<line display="inline" fill="none" stroke="#B35047" x1="64" y1="0" x2="64" y2="512"/>
	<line display="inline" fill="none" stroke="#B35047" x1="96" y1="0" x2="96" y2="512"/>
	<line display="inline" fill="none" stroke="#B35047" x1="128" y1="0" x2="128" y2="512"/>
	<line display="inline" fill="none" stroke="#B35047" x1="160" y1="0" x2="160" y2="512"/>
	<line display="inline" fill="none" stroke="#B35047" x1="192" y1="0" x2="192" y2="512"/>
	<line display="inline" fill="none" stroke="#B35047" x1="224" y1="0" x2="224" y2="512"/>
	<line display="inline" fill="none" stroke="#B35047" x1="256" y1="0" x2="256" y2="512"/>
	<line display="inline" fill="none" stroke="#B35047" x1="288" y1="0" x2="288" y2="512"/>
	<line display="inline" fill="none" stroke="#B35047" x1="320" y1="0" x2="320" y2="512"/>
	<line display="inline" fill="none" stroke="#B35047" x1="352" y1="0" x2="352" y2="512"/>
	<line display="inline" fill="none" stroke="#B35047" x1="384" y1="0" x2="384" y2="512"/>
	<line display="inline" fill="none" stroke="#B35047" x1="416" y1="0" x2="416" y2="512"/>
	<line display="inline" fill="none" stroke="#B35047" x1="448" y1="0" x2="448" y2="512"/>
	<line display="inline" fill="none" stroke="#B35047" x1="480" y1="0" x2="480" y2="512"/>
	<line display="inline" fill="none" stroke="#B35047" x1="0" y1="32" x2="512" y2="32"/>
	<line display="inline" fill="none" stroke="#B35047" x1="0" y1="64" x2="512" y2="64"/>
	<line display="inline" fill="none" stroke="#B35047" x1="0" y1="96" x2="512" y2="96"/>
	<line display="inline" fill="none" stroke="#B35047" x1="0" y1="128" x2="512" y2="128"/>
	<line display="inline" fill="none" stroke="#B35047" x1="0" y1="160" x2="512" y2="160"/>
	<line display="inline" fill="none" stroke="#B35047" x1="0" y1="192" x2="512" y2="192"/>
	<line display="inline" fill="none" stroke="#B35047" x1="0" y1="224" x2="512" y2="224"/>
	<line display="inline" fill="none" stroke="#B35047" x1="0" y1="256" x2="512" y2="256"/>
	<line display="inline" fill="none" stroke="#B35047" x1="0" y1="288" x2="512" y2="288"/>
	<line display="inline" fill="none" stroke="#B35047" x1="0" y1="320" x2="512" y2="320"/>
	<line display="inline" fill="none" stroke="#B35047" x1="0" y1="352" x2="512" y2="352"/>
	<line display="inline" fill="none" stroke="#B35047" x1="0" y1="384" x2="512" y2="384"/>
	<line display="inline" fill="none" stroke="#B35047" x1="0" y1="416" x2="512" y2="416"/>
	<line display="inline" fill="none" stroke="#B35047" x1="0" y1="448" x2="512" y2="448"/>
	<line display="inline" fill="none" stroke="#B35047" x1="0" y1="480" x2="512" y2="480"/>
	<rect display="inline" fill="none" stroke="#B35047" width="512" height="512"/>
</g>
<g>
	<path d="M480,371.454c0,0,0-52.063,0-67.454c0-19.186-16-48.122-48-48.121S384,282.939,384,304c0,15.391,0,67.864,0,67.864
		l-32-0.394V512h160V371.473L480,371.454z M416,371.471V320c0,0-3.949-32,16-32c20.305,0,16,32,16,32v51.471H416z"/>
</g>
<g>
	<path d="M320,336h32c0,0,0-19.736,0-32c0-40.373,36.083-80.233,80.244-80.233c8.516,0,29.271,3.733,47.89,16.059
		C480.134,229.03,480,187.97,480,160c0-16-16-32-32-32c-51.555,0-151.323,0-192,0c-32,0-32-64-96-64c-20.014,0-65.066-0.545-96,0
		c-16,0.282-32,16-32,32c0,69.155,0,247,0,320c0,16,16,32,32,32c59.201,0,256,0,256,0V336z"/>
</g>
</svg>
