<svg height="20" viewBox="0 0 20 20" width="20"><path d="m2.714 2.71h6.17c.456-.002.8-.254.894-.65.134-.566-.272-1.06-.88-1.06h-6.96c-.588 0-.937.342-.937.93v16.138c0 .59.346.932.934.932h16.14c.098 0 .2-.007.295-.033.41-.113.63-.436.63-.928v-6.66c0-.087-.005-.174-.018-.26-.054-.35-.335-.632-.685-.69-.553-.09-1 .3-1.002.885-.002 1.907 0 3.813 0 5.72v.248h-14.58v-14.572zm13.432-.068c.013.02.027.04.04.062-.056.04-.12.075-.168.123l-6.66 6.664c-.054.055-.11.107-.16.167-.196.242-.252.516-.142.81.11.29.323.468.634.52.32.055.566-.08.787-.3 2.232-2.236 4.466-4.47 6.7-6.705.05-.05.103-.098.186-.176v.257c0 .896-.002 1.79 0 2.687.002.493.333.85.79.86.474.013.84-.33.84-.828.01-1.65.01-3.3 0-4.95-.002-.498-.35-.828-.843-.83-1.637-.003-3.274-.003-4.91 0-.49 0-.858.364-.853.825.005.455.366.81.846.813.9.006 1.803.002 2.704.002h.21z"/><path d="m2.714 2.71v14.573h14.58v-.248-5.72c.002-.585.45-.976 1.003-.885.35.058.63.34.685.69.013.086.017.173.017.26v6.66c0 .49-.22.814-.63.927-.096.026-.198.032-.297.032h-16.139c-.586 0-.932-.34-.932-.932v-16.139c0-.586.35-.927.94-.927h6.958c.608.002 1.014.495.88 1.06-.095.396-.438.648-.895.65h-6.17"/><path d="m16.146 2.642h-.21c-.9 0-1.802.004-2.703-.002-.48-.003-.84-.358-.846-.813-.005-.46.362-.824.852-.825 1.636-.003 3.273-.003 4.91 0 .494.002.84.332.844.83.008 1.65.008 3.3 0 4.95-.002.497-.367.84-.84.83-.458-.013-.79-.37-.79-.862-.003-.896 0-1.79 0-2.687v-.256c-.084.077-.137.125-.188.175l-6.7 6.705c-.22.22-.465.355-.786.3-.31-.052-.525-.23-.634-.52-.11-.294-.054-.568.143-.81.047-.06.104-.112.158-.166l6.66-6.662c.048-.05.112-.083.168-.124-.013-.02-.027-.04-.04-.062"/></svg>