<svg viewBox="0 0 32 32" fill="none" xmlns="http://www.w3.org/2000/svg">
<path d="M7 23.8652C8.71167 24.9999 10.2117 24.9999 13.3915 24.977" stroke="#282829"/>
<circle cx="15" cy="25" r="1.5" stroke="#282829"/>
<path d="M4.5 17.5C4.22386 17.5 4 17.7239 4 18C4 18.2761 4.22386 18.5 4.5 18.5V17.5ZM27.5 18.5C27.7761 18.5 28 18.2761 28 18C28 17.7239 27.7761 17.5 27.5 17.5V18.5ZM6.5 19.569V23.431H7.5V19.569H6.5ZM6.5 23.431C6.5 24.0414 6.03004 24.5 5.5 24.5V25.5C6.62423 25.5 7.5 24.5508 7.5 23.431H6.5ZM5.5 24.5C4.96996 24.5 4.5 24.0414 4.5 23.431H3.5C3.5 24.5508 4.37577 25.5 5.5 25.5V24.5ZM5.5 18.5C6.03004 18.5 6.5 18.9586 6.5 19.569H7.5C7.5 18.4492 6.62423 17.5 5.5 17.5V18.5ZM4.5 17C4.5 10.6487 9.64873 5.5 16 5.5V4.5C9.09644 4.5 3.5 10.0964 3.5 17H4.5ZM16 5.5C22.3513 5.5 27.5 10.6487 27.5 17H28.5C28.5 10.0964 22.9036 4.5 16 4.5V5.5ZM5.5 17.5H4.5V18.5H5.5V17.5ZM24.5 19.569V23.431H25.5V19.569H24.5ZM24.5 23.431C24.5 24.5508 25.3758 25.5 26.5 25.5V24.5C25.97 24.5 25.5 24.0414 25.5 23.431H24.5ZM26.5 25.5C27.6242 25.5 28.5 24.5508 28.5 23.431H27.5C27.5 24.0414 27.03 24.5 26.5 24.5V25.5ZM28.5 23.431V18H27.5V23.431H28.5ZM26.5 17.5C25.3758 17.5 24.5 18.4492 24.5 19.569H25.5C25.5 18.9586 25.97 18.5 26.5 18.5V17.5ZM26.5 18.5H27.5V17.5H26.5V18.5ZM4.5 23.431V17H3.5V23.431H4.5ZM27.5 17V18H28.5V17H27.5Z" fill="#282829"/>
</svg>
