<svg viewBox="0 0 16 16" fill="none" xmlns="http://www.w3.org/2000/svg">
<path d="M3 12C3.80341 13.0157 5.00748 13.0205 6.5 13" stroke="#282829"/>
<path d="M2.25 8.5C1.97386 8.5 1.75 8.72386 1.75 9C1.75 9.27614 1.97386 9.5 2.25 9.5V8.5ZM13.75 9.5C14.0261 9.5 14.25 9.27614 14.25 9C14.25 8.72386 14.0261 8.5 13.75 8.5V9.5ZM3 9.78448V11.7155H4V9.78448H3ZM3 11.7155C3 11.8934 2.86647 12 2.75 12V13C3.46066 13 4 12.4028 4 11.7155H3ZM2.75 12C2.63353 12 2.5 11.8934 2.5 11.7155H1.5C1.5 12.4028 2.03933 13 2.75 13V12ZM2.75 9.5C2.86647 9.5 3 9.60664 3 9.78448H4C4 9.09722 3.46066 8.5 2.75 8.5V9.5ZM2.5 8.5C2.5 5.46243 4.96243 3 8 3V2C4.41015 2 1.5 4.91015 1.5 8.5H2.5ZM8 3C11.0376 3 13.5 5.46243 13.5 8.5H14.5C14.5 4.91015 11.5899 2 8 2V3ZM2.75 8.5H2.25V9.5H2.75V8.5ZM12 9.78448V11.7155H13V9.78448H12ZM12 11.7155C12 12.4028 12.5393 13 13.25 13V12C13.1335 12 13 11.8934 13 11.7155H12ZM13.25 13C13.9607 13 14.5 12.4028 14.5 11.7155H13.5C13.5 11.8934 13.3665 12 13.25 12V13ZM14.5 11.7155V9H13.5V11.7155H14.5ZM13.25 8.5C12.5393 8.5 12 9.09722 12 9.78448H13C13 9.60664 13.1335 9.5 13.25 9.5V8.5ZM13.25 9.5H13.75V8.5H13.25V9.5ZM2.5 11.7155V8.5H1.5V11.7155H2.5ZM13.5 8.5V9H14.5V8.5H13.5Z" fill="#282829"/>
<circle cx="7" cy="13" r="0.5" stroke="#282829"/>
</svg>
