<svg viewBox="0 0 24 24" fill="none" stroke="#282829" xmlns="http://www.w3.org/2000/svg">
<path d="M5.25 17.8989C6.53375 18.75 7.65875 18.75 10.0436 18.7328"/>
<circle cx="11.25" cy="18.75" r="1"/>
<path d="M3 13.5H4.25C4.80228 13.5 5.25 13.9477 5.25 14.5V17.625C5.25 18.2463 4.74632 18.75 4.125 18.75V18.75C3.50368 18.75 3 18.2463 3 17.625V12.75C3 7.77944 7.02944 3.75 12 3.75V3.75C16.9706 3.75 21 7.77944 21 12.75V13.5M21 13.5V17.625C21 18.2463 20.4963 18.75 19.875 18.75V18.75C19.2537 18.75 18.75 18.2463 18.75 17.625V14.5C18.75 13.9477 19.1977 13.5 19.75 13.5H21Z"/>
</svg>