<?xml version="1.0" encoding="utf-8"?>
<!-- Generator: Adobe Illustrator 16.0.4, SVG Export Plug-In . SVG Version: 6.00 Build 0)  -->
<!DOCTYPE svg PUBLIC "-//W3C//DTD SVG 1.1//EN" "http://www.w3.org/Graphics/SVG/1.1/DTD/svg11.dtd">
<svg version="1.1" id="Layer_1" xmlns="http://www.w3.org/2000/svg" xmlns:xlink="http://www.w3.org/1999/xlink" x="0px" y="0px"
	 width="512px" height="512px" viewBox="0 0 512 512" enable-background="new 0 0 512 512" xml:space="preserve">
<g display="none" opacity="0.3">
	<line display="inline" fill="none" stroke="#B35047" x1="48" y1="0" x2="48" y2="512"/>
	<line display="inline" fill="none" stroke="#B35047" x1="80" y1="0" x2="80" y2="512"/>
	<line display="inline" fill="none" stroke="#B35047" x1="112" y1="0" x2="112" y2="512"/>
	<line display="inline" fill="none" stroke="#B35047" x1="144" y1="0" x2="144" y2="512"/>
	<line display="inline" fill="none" stroke="#B35047" x1="176" y1="0" x2="176" y2="512"/>
	<line display="inline" fill="none" stroke="#B35047" x1="208" y1="0" x2="208" y2="512"/>
	<line display="inline" fill="none" stroke="#B35047" x1="240" y1="0" x2="240" y2="512"/>
	<line display="inline" fill="none" stroke="#B35047" x1="272" y1="0" x2="272" y2="512"/>
	<line display="inline" fill="none" stroke="#B35047" x1="304" y1="0" x2="304" y2="512"/>
	<line display="inline" fill="none" stroke="#B35047" x1="336" y1="0" x2="336" y2="512"/>
	<line display="inline" fill="none" stroke="#B35047" x1="368" y1="0" x2="368" y2="512"/>
	<line display="inline" fill="none" stroke="#B35047" x1="400" y1="0" x2="400" y2="512"/>
	<line display="inline" fill="none" stroke="#B35047" x1="432" y1="0" x2="432" y2="512"/>
	<line display="inline" fill="none" stroke="#B35047" x1="464" y1="0" x2="464" y2="512"/>
	<line display="inline" fill="none" stroke="#B35047" x1="496" y1="0" x2="496" y2="512"/>
	<line display="inline" fill="none" stroke="#B35047" x1="0" y1="48" x2="512" y2="48"/>
	<line display="inline" fill="none" stroke="#B35047" x1="0" y1="80" x2="512" y2="80"/>
	<line display="inline" fill="none" stroke="#B35047" x1="0" y1="112" x2="512" y2="112"/>
	<line display="inline" fill="none" stroke="#B35047" x1="0" y1="144" x2="512" y2="144"/>
	<line display="inline" fill="none" stroke="#B35047" x1="0" y1="176" x2="512" y2="176"/>
	<line display="inline" fill="none" stroke="#B35047" x1="0" y1="208" x2="512" y2="208"/>
	<line display="inline" fill="none" stroke="#B35047" x1="0" y1="240" x2="512" y2="240"/>
	<line display="inline" fill="none" stroke="#B35047" x1="0" y1="272" x2="512" y2="272"/>
	<line display="inline" fill="none" stroke="#B35047" x1="0" y1="304" x2="512" y2="304"/>
	<line display="inline" fill="none" stroke="#B35047" x1="0" y1="336" x2="512" y2="336"/>
	<line display="inline" fill="none" stroke="#B35047" x1="0" y1="368" x2="512" y2="368"/>
	<line display="inline" fill="none" stroke="#B35047" x1="0" y1="400" x2="512" y2="400"/>
	<line display="inline" fill="none" stroke="#B35047" x1="0" y1="432" x2="512" y2="432"/>
	<line display="inline" fill="none" stroke="#B35047" x1="0" y1="464" x2="512" y2="464"/>
	<line display="inline" fill="none" stroke="#B35047" x1="0" y1="496" x2="512" y2="496"/>
	<line display="inline" fill="none" stroke="#B35047" x1="0" y1="16" x2="512" y2="16"/>
	<line display="inline" fill="none" stroke="#B35047" x1="16" y1="0" x2="16" y2="512"/>
</g>
<g display="none">
	<line display="inline" fill="none" stroke="#B35047" x1="32" y1="0" x2="32" y2="512"/>
	<line display="inline" fill="none" stroke="#B35047" x1="64" y1="0" x2="64" y2="512"/>
	<line display="inline" fill="none" stroke="#B35047" x1="96" y1="0" x2="96" y2="512"/>
	<line display="inline" fill="none" stroke="#B35047" x1="128" y1="0" x2="128" y2="512"/>
	<line display="inline" fill="none" stroke="#B35047" x1="160" y1="0" x2="160" y2="512"/>
	<line display="inline" fill="none" stroke="#B35047" x1="192" y1="0" x2="192" y2="512"/>
	<line display="inline" fill="none" stroke="#B35047" x1="224" y1="0" x2="224" y2="512"/>
	<line display="inline" fill="none" stroke="#B35047" x1="256" y1="0" x2="256" y2="512"/>
	<line display="inline" fill="none" stroke="#B35047" x1="288" y1="0" x2="288" y2="512"/>
	<line display="inline" fill="none" stroke="#B35047" x1="320" y1="0" x2="320" y2="512"/>
	<line display="inline" fill="none" stroke="#B35047" x1="352" y1="0" x2="352" y2="512"/>
	<line display="inline" fill="none" stroke="#B35047" x1="384" y1="0" x2="384" y2="512"/>
	<line display="inline" fill="none" stroke="#B35047" x1="416" y1="0" x2="416" y2="512"/>
	<line display="inline" fill="none" stroke="#B35047" x1="448" y1="0" x2="448" y2="512"/>
	<line display="inline" fill="none" stroke="#B35047" x1="480" y1="0" x2="480" y2="512"/>
	<line display="inline" fill="none" stroke="#B35047" x1="0" y1="32" x2="512" y2="32"/>
	<line display="inline" fill="none" stroke="#B35047" x1="0" y1="64" x2="512" y2="64"/>
	<line display="inline" fill="none" stroke="#B35047" x1="0" y1="96" x2="512" y2="96"/>
	<line display="inline" fill="none" stroke="#B35047" x1="0" y1="128" x2="512" y2="128"/>
	<line display="inline" fill="none" stroke="#B35047" x1="0" y1="160" x2="512" y2="160"/>
	<line display="inline" fill="none" stroke="#B35047" x1="0" y1="192" x2="512" y2="192"/>
	<line display="inline" fill="none" stroke="#B35047" x1="0" y1="224" x2="512" y2="224"/>
	<line display="inline" fill="none" stroke="#B35047" x1="0" y1="256" x2="512" y2="256"/>
	<line display="inline" fill="none" stroke="#B35047" x1="0" y1="288" x2="512" y2="288"/>
	<line display="inline" fill="none" stroke="#B35047" x1="0" y1="320" x2="512" y2="320"/>
	<line display="inline" fill="none" stroke="#B35047" x1="0" y1="352" x2="512" y2="352"/>
	<line display="inline" fill="none" stroke="#B35047" x1="0" y1="384" x2="512" y2="384"/>
	<line display="inline" fill="none" stroke="#B35047" x1="0" y1="416" x2="512" y2="416"/>
	<line display="inline" fill="none" stroke="#B35047" x1="0" y1="448" x2="512" y2="448"/>
	<line display="inline" fill="none" stroke="#B35047" x1="0" y1="480" x2="512" y2="480"/>
	<rect display="inline" fill="none" stroke="#B35047" width="512" height="512"/>
</g>
<path d="M396.553,34.904C358.746,9.009,315.826-0.155,261.076-0.155c-40.959,0-76.4,7.568-104.361,24.708
	c-41.344,25.487-60.651,68.134-60.651,135.47h106.342c0-17.938-1.98-37.452,9.846-54.184c11.423-16.731,27.557-29.494,55.518-29.494
	c28.363,0,42.941,7.568,56.324,22.724c11.809,13.132,16.154,28.678,16.154,45.021c0,14.338-7.885,27.491-17.346,39.436
	c-5.5,7.179-12.191,13.152-21.23,19.125c0,0-57.133,31.09-77.613,60.177c-14.961,21.926-20.48,49.009-21.653,81.693
	c0,2.375,0.789,7.549,9.846,7.549h85.844c7.885,0,9.461-5.563,9.848-7.938c0.422-11.983,1.961-30.312,4.346-37.083
	c4.689-12.724,13.385-24.318,27.152-34.261l28.768-17.529c26-18.328,46.461-33.483,55.537-45.04
	c15.768-19.515,26.768-43.017,26.768-71.305C450.512,93.077,431.975,59.223,396.553,34.904z"/>
<path d="M257.749,384.049c-35.826-1.303-65.767,23.994-66.94,63.089c-0.789,39.139,27.172,64.911,63.017,66.212
	c37.402,0.868,66.536-23.083,67.344-62.221C322.361,411.601,295.17,384.915,257.749,384.049z"/>
</svg>
