<svg fill="none" stroke="#282829" viewBox="0 0 16 16" xmlns="http://www.w3.org/2000/svg"><circle cx="8" cy="8" r="6.5" stroke-linecap="round"/><path d="m7.33334 12c0 .3682.29847.6667.66666.6667s.66667-.2985.66667-.6667" stroke-linecap="round" stroke-linejoin="round"/><path d="m6.91618 9.85236-.42745.25944.42745-.25944c-.20256-.33378-.4807-.58618-.73524-.78709-.7162-.5653-1.18094-1.45723-1.18094-2.46527 0-1.72545 1.35633-3.1 3-3.1s3 1.37455 3 3.1c0 1.00804-.4647 1.89997-1.18094 2.46527-.25454.20091-.53268.45331-.73524.78709l-.03464.05709c-.22252.36665-.62029.59055-1.04918.59055s-.82666-.2239-1.04918-.59055z"/></svg>