<svg fill="none" stroke="#282829" viewBox="0 0 32 32" xmlns="http://www.w3.org/2000/svg"><circle cx="16" cy="16" r="13.5" stroke-linecap="round"/><path d="m15.3044 25.2922c0 .3842.3114.6957.6956.6957s.6957-.3115.6957-.6957" stroke-linecap="round" stroke-linejoin="round"/><path d="m15.1111 23.6111h1.7778" stroke-linecap="round"/><path d="m21.0652 15.4295c0 1.7387-.8518 3.2739-2.1546 4.2029-.3008.2145-.5975.4868-.8152.8399l-.3892.6313c-.2731.443-.7564.7128-1.2768.7128h-.8588c-.5204 0-1.0037-.2698-1.2768-.7128l-.3892-.6313c-.2177-.3531-.5144-.6254-.8152-.8399l-.2903.4071.2903-.4071c-1.3028-.929-2.1546-2.4642-2.1546-4.2029 0-2.8418 2.2736-5.1348 5.0652-5.1348s5.0652 2.293 5.0652 5.1348z"/><g stroke-linecap="round"><path d="m9.04348 15.0121h-1.04348"/><path d="m10.087 10.8381-1.04352-1.04344"/><path d="m24 15.0121h-1.0435"/><path d="m22.9565 9.79466-1.0435 1.04344"/><path d="m16 7.01208v1.3913"/></g></svg>