<svg fill="none" stroke="#282829" viewBox="0 0 25 25" xmlns="http://www.w3.org/2000/svg"><circle cx="12.5" cy="12.5" r="9.5" stroke-linecap="round"/><path d="m11.8684 17.9135c0 .3488.2828.6316.6316.6316s.6316-.2828.6316-.6316" stroke-linecap="round" stroke-linejoin="round"/><path d="m11.3009 15.7198-.0113-.0176c-.2204-.3443-.5182-.6026-.7938-.8085-.78504-.5869-1.28527-1.5052-1.28527-2.5336 0-1.7525 1.46077-3.19469 3.28947-3.19469s3.2895 1.44219 3.2895 3.19469c0 1.0284-.5003 1.9467-1.2853 2.5336-.2756.2059-.5734.4642-.7938.8085l-.0113.0176c-.2617.4088-.7137.6561-1.1991.6561s-.9374-.2473-1.1991-.6561z"/><g stroke-linecap="round"><path d="m7.13158 12.7707h-.63158"/><path d="m8.07896 8.66541-.3158-.3158"/><path d="m18.5 12.7707h-.6316"/><path d="m17.2368 8.34961-.3158.3158"/><path d="m12.5 6.50001v.63158"/></g></svg>