<svg xmlns="http://www.w3.org/2000/svg" viewBox="0 0 20 12">
<g fill="currentColor">
<path d="m14 5c-1.1 0-2-.9-2-2s.9-2 2-2 2 .9 2 2-.9 2-2 2m0-5c-1.7 0-3 1.3-3 3s1.3 3 3 3 3-1.3 3-3-1.3-3-3-3"/><path d="m14 7c-1.1 0-2.7.3-4 .8-.024.009-.045.018-.065.027-1.284-.551-2.885-.827-3.935-.827-2 0-6 1-6 3v1.6c0 .2.2.4.4.4h19.2c.2 0 .4-.2.4-.4v-1.6c0-2-4-3-6-3m-13 4v-1c0-.7 2.6-2 5-2s5 1.3 5 2v1h-10m18 0h-7v-1c0-.588-.346-1.09-.885-1.505.896-.297 1.89-.495 2.885-.495 2.4 0 5 1.3 5 2v1"/><path d="m6 5c-1.1 0-2-.9-2-2s.9-2 2-2 2 .9 2 2-.9 2-2 2m0-5c-1.7 0-3 1.3-3 3s1.3 3 3 3 3-1.3 3-3-1.3-3-3-3"/>
</g>
</svg>