<?xml version="1.0" encoding="UTF-8"?>
<svg width="485px" height="321px" viewBox="0 0 485 321" version="1.1" xmlns="http://www.w3.org/2000/svg" xmlns:xlink="http://www.w3.org/1999/xlink">
    <!-- Generator: Sketch 48.2 (47327) - http://www.bohemiancoding.com/sketch -->
    <title>Search In-Product</title>
    <desc>Created with Sketch.</desc>
    <defs>
        <rect id="path-1" x="0.267955174" y="0.0629147746" width="379.669102" height="153.668135"></rect>
        <ellipse id="path-3" cx="149.319991" cy="77.2096342" rx="3.53323463" ry="3.40842964"></ellipse>
        <ellipse id="path-4" cx="53.3596686" cy="44.6693693" rx="3.53323463" ry="3.40842964"></ellipse>
        <ellipse id="path-5" cx="210.233935" cy="57.1848558" rx="3.53323463" ry="3.40842964"></ellipse>
        <ellipse id="path-6" cx="274.485629" cy="53.8473927" rx="3.53323463" ry="3.40842964"></ellipse>
        <linearGradient x1="0%" y1="61.9664054%" x2="100%" y2="61.9664073%" id="linearGradient-7">
            <stop stop-color="#19B5EA" offset="0%"></stop>
            <stop stop-color="#0D80EF" offset="100%"></stop>
        </linearGradient>
        <rect id="path-8" x="0" y="0.758992061" width="319.443233" height="207.072245"></rect>
        <filter x="-4.5%" y="-5.6%" width="111.6%" height="117.9%" filterUnits="objectBoundingBox" id="filter-10">
            <feOffset dx="4" dy="7" in="SourceAlpha" result="shadowOffsetOuter1"></feOffset>
            <feGaussianBlur stdDeviation="5" in="shadowOffsetOuter1" result="shadowBlurOuter1"></feGaussianBlur>
            <feColorMatrix values="0 0 0 0 0   0 0 0 0 0   0 0 0 0 0  0 0 0 0.0698879076 0" type="matrix" in="shadowBlurOuter1"></feColorMatrix>
        </filter>
        <ellipse id="path-11" cx="11.8978771" cy="11.9042993" rx="11.531072" ry="11.5516368"></ellipse>
        <filter x="-112.7%" y="-56.3%" width="325.5%" height="325.1%" filterUnits="objectBoundingBox" id="filter-12">
            <feOffset dx="0" dy="13" in="SourceAlpha" result="shadowOffsetOuter1"></feOffset>
            <feGaussianBlur stdDeviation="6.5" in="shadowOffsetOuter1" result="shadowBlurOuter1"></feGaussianBlur>
            <feColorMatrix values="0 0 0 0 0   0 0 0 0 0   0 0 0 0 0  0 0 0 0.126783288 0" type="matrix" in="shadowBlurOuter1"></feColorMatrix>
        </filter>
    </defs>
    <g id="Page-1" stroke="none" stroke-width="1" fill="none" fill-rule="evenodd">
        <g id="Search-In-Product" transform="translate(6.000000, -7.000000)">
            <g id="Analytics-&amp;-Machine-Learning" transform="translate(98.000000, 0.000000)">
                <g id="Group" transform="translate(139.240156, 154.525115)" stroke="#26E8CC" stroke-width="1.85491525">
                    <polyline id="Path-2" transform="translate(40.484270, 20.170672) scale(-1, 1) translate(-40.484270, -20.170672) " points="32.7252017 0.492236599 32.7252017 27.5652496 48.2433391 39.8491081"></polyline>
                    <polyline id="Path-2" points="131.930764 0.492236599 131.930764 32.4876156 182.794486 75.8984619"></polyline>
                    <path d="M154.083318,51.1926063 L181.039289,51.279391" id="Path-2" fill="#26E8CC"></path>
                    <path d="M182.143219,0 L202.326657,16.2438078" id="Path-2" fill="#26E8CC"></path>
                    <ellipse id="Oval" cx="208.564754" cy="20.512422" rx="7.60244105" ry="7.6017867"></ellipse>
                    <path d="M112.731884,46.2702404 L138.03698,67.1059366" id="Path-2" fill="#26E8CC"></path>
                    <ellipse id="Oval" cx="144.455995" cy="70.6080714" rx="7.60244105" ry="7.6017867"></ellipse>
                    <polyline id="Path-2" transform="translate(105.831133, 44.350117) scale(-1, 1) translate(-105.831133, -44.350117) " points="99.4226613 0.492236599 99.4226613 76.7889095 112.239605 88.2079974"></polyline>
                    <path d="M93.5330043,0 L93.5330043,58.3134113" id="Path-2" fill="#26E8CC" transform="translate(93.533004, 29.156706) scale(-1, 1) translate(-93.533004, -29.156706) "></path>
                    <path d="M7.87646352,0 L7.87646352,16.9885422" id="Path-2" fill="#26E8CC" transform="translate(7.876464, 8.494271) scale(-1, 1) translate(-7.876464, -8.494271) "></path>
                    <path d="M162.609728,0 L162.45206,16.1092897" id="Path-2" fill="#26E8CC" transform="translate(162.530894, 8.054645) scale(-1, 1) translate(-162.530894, -8.054645) "></path>
                    <polyline id="Path-2" transform="translate(66.276096, 30.475584) scale(-1, 1) translate(-66.276096, -30.475584) " points="53.7875574 0 53.7875574 41.3478744 78.7646352 60.9511689"></polyline>
                    <ellipse id="Oval" transform="translate(162.178038, 23.353358) scale(-1, 1) translate(-162.178038, -23.353358) " cx="162.178038" cy="23.3533579" rx="7.60244105" ry="7.6017867"></ellipse>
                    <ellipse id="Oval" transform="translate(93.258982, 65.685705) scale(-1, 1) translate(-93.258982, -65.685705) " cx="93.2589819" cy="65.6857054" rx="7.60244105" ry="7.6017867"></ellipse>
                    <ellipse id="Oval" cx="27.2935999" cy="44.0272951" rx="7.60244105" ry="7.6017867"></ellipse>
                    <ellipse id="Oval" cx="7.60244105" cy="24.3378311" rx="7.60244105" ry="7.6017867"></ellipse>
                    <ellipse id="Oval" cx="93.2589819" cy="93.250955" rx="7.60244105" ry="7.6017867"></ellipse>
                    <ellipse id="Oval" cx="47.9693166" cy="65.6857054" rx="7.60244105" ry="7.6017867"></ellipse>
                    <ellipse id="Oval" cx="188.761102" cy="50.9186075" rx="7.60244105" ry="7.6017867"></ellipse>
                    <ellipse id="Oval" cx="188.761102" cy="80.4528034" rx="7.60244105" ry="7.6017867"></ellipse>
                </g>
                <g id="Group" transform="translate(0.000000, 0.306369)">
                    <mask id="mask-2" fill="white">
                        <use xlink:href="#path-1"></use>
                    </mask>
                    <g id="Mask"></g>
                    <g opacity="0.8" mask="url(#mask-2)">
                        <g transform="translate(8.800000, 7.210375)">
                            <path d="M58.1708098,18.032384 C91.5483133,17.6878707 119.095292,93.1362922 148.290069,93.1362922 C177.484846,93.1362922 171.237103,18.032384 194.601355,41.2988332 C217.965608,64.5652824 228.158621,5.03391296 255.753684,0.570402773 C267.239624,-1.28745155 280.139965,18.0934507 292.779025,41.2988332 C310.505409,73.8445718 355.230591,154.115153 380.263719,154.115153 L0.594616287,154.115153 C0.594616287,154.115153 26.119709,18.3632066 58.1708098,18.032384 Z" id="Path-7" stroke="#0D80EF" stroke-width="1.85491525" fill-opacity="0.2" fill="#0D80EF" fill-rule="evenodd" opacity="0.738106343"></path>
                            <path d="M55.6674971,45.5782662 C68.1005921,50.5306087 88.210563,112.758368 118.667535,112.758368 C149.124507,112.758368 151.62782,40.4105661 165.39604,70.3832267 C179.16426,100.355887 217.13117,39.0325127 245.919267,35.5873793 C274.707364,32.1422459 340.210714,154.099968 348.55509,154.099968 L2.26349146,154.099968 C2.26349146,154.099968 40.8279116,39.6673719 55.6674971,45.5782662 Z" id="Path-7" stroke="#0D80EF" stroke-width="1.85491525" fill-opacity="0.5" fill="#4ED6FF" fill-rule="evenodd" opacity="0.738106343"></path>
                            <g id="Oval-2-Copy-3" stroke="none" fill="none">
                                <use fill="#FFFFFF" fill-rule="evenodd" xlink:href="#path-3"></use>
                                <ellipse stroke="#0D80EF" stroke-width="1.39118644" cx="149.319991" cy="77.2096342" rx="2.83764141" ry="2.71283642"></ellipse>
                            </g>
                            <g id="Oval-2-Copy-3" stroke="none" fill="none">
                                <use fill="#FFFFFF" fill-rule="evenodd" xlink:href="#path-4"></use>
                                <ellipse stroke="#0D80EF" stroke-width="1.39118644" cx="53.3596686" cy="44.6693693" rx="2.83764141" ry="2.71283642"></ellipse>
                            </g>
                            <g id="Oval-2-Copy-3" stroke="none" fill="none">
                                <use fill="#FFFFFF" fill-rule="evenodd" xlink:href="#path-5"></use>
                                <ellipse stroke="#0D80EF" stroke-width="1.39118644" cx="210.233935" cy="57.1848558" rx="2.83764141" ry="2.71283642"></ellipse>
                            </g>
                            <g id="Oval-2-Copy-3" stroke="none" fill="none">
                                <use fill="#FFFFFF" fill-rule="evenodd" xlink:href="#path-6"></use>
                                <ellipse stroke="#0D80EF" stroke-width="1.39118644" cx="274.485629" cy="53.8473927" rx="2.83764141" ry="2.71283642"></ellipse>
                            </g>
                            <path d="M53.4564445,95.6028399 C65.3747799,98.2723319 84.6521502,131.815348 113.848131,131.815348 C143.044112,131.815348 145.443782,92.8172623 158.641965,108.973612 C171.840148,125.129962 208.235138,92.0744416 235.83134,90.2173899 C263.427541,88.3603382 297.533454,144.578734 318.219998,144.257594 C337.30329,143.961344 325.419007,154.099968 325.419007,154.099968 L2.26349146,154.099968 C2.26349146,154.099968 39.2312531,92.4166537 53.4564445,95.6028399 Z" id="Path-7" stroke="#3CA0FF" stroke-width="1.85491525" fill-opacity="0.4" fill="#3CA0FF" fill-rule="evenodd" opacity="0.738106343"></path>
                        </g>
                    </g>
                    <path d="M0.267955174,153.770743 L379.937058,153.770743" id="Path-11" stroke="#0061C0" stroke-width="1.36" fill-opacity="0.2" fill="#004990" stroke-linecap="round" stroke-linejoin="round"></path>
                </g>
            </g>
            <g id="software" transform="translate(0.000000, 103.000000)">
                <g id="wallpaper" transform="translate(0.255859, 0.000000)">
                    <mask id="mask-9" fill="white">
                        <use xlink:href="#path-8"></use>
                    </mask>
                    <g id="Mask">
                        <use fill="black" fill-opacity="1" filter="url(#filter-10)" xlink:href="#path-8"></use>
                        <use fill="url(#linearGradient-7)" fill-rule="evenodd" xlink:href="#path-8"></use>
                    </g>
                </g>
                <rect id="Rectangle-10" fill="#A5B3CB" x="16.953125" y="13" width="286.046875" height="32" rx="8"></rect>
                <rect id="Rectangle-10" fill="#FFFFFF" transform="translate(227.203695, 28.971890) scale(1, -1) translate(-227.203695, -28.971890) " x="162.910345" y="18.3391054" width="128.5867" height="21.2655688" rx="10.6327844"></rect>
                <rect id="Rectangle-11" fill="#A5B3CB" x="17" y="56" width="34.5976562" height="93.921875" rx="8"></rect>
                <g id="art" opacity="0.9" transform="translate(101.706257, 63.667969)">
                    <rect id="Rectangle-8" fill="#FFFFFF" x="0" y="0" width="163.256624" height="114.994941"></rect>
                    <circle id="Oval" stroke="#004990" stroke-width="4" fill-opacity="0.2" fill="#004990" cx="60.3885967" cy="48.4902337" r="22.9572072"></circle>
                    <path d="M86.4206261,98.4606657 L89.122132,101.460992 C89.3662291,101.732089 89.7162607,101.814673 89.9041509,101.645496 L91.9675415,99.7876111 C92.1554316,99.618434 92.1098882,99.2616875 91.8657911,98.9905902 L91.4976128,98.5816868 L100.730626,90.2682447 C100.730676,90.281707 100.7318,90.2952681 100.732163,90.3088042 L111.037959,81.0294235 C111.045406,81.0081446 111.054635,80.9877498 111.062082,80.966471 L122.903788,70.3041504 L123.271966,70.7130538 C123.516064,70.9841511 123.866095,71.0667352 124.053985,70.8975582 L126.117376,69.039673 C126.305266,68.8704959 126.259723,68.5137493 126.015626,68.2426521 L123.334977,65.2654898 C123.090879,64.9943925 122.740848,64.9118083 122.552958,65.0809854 L120.489567,66.9388706 C120.301677,67.1080477 120.34722,67.4647942 120.591317,67.7358915 L120.959496,68.1447949 L118.890255,70.0079477 L118.910758,70.0307191 L95.237413,91.346295 L95.2169095,91.3235237 L89.5538099,96.4226014 L89.1856317,96.013698 C88.9415346,95.7426008 88.5915029,95.6600166 88.4036127,95.8291937 C87.1696056,96.9402987 86.552602,97.4958512 86.552602,97.4958512 C86.2980586,97.7250431 86.1819103,98.195545 86.4206261,98.4606657 Z" id="Fill-1" fill="#D8D8D8"></path>
                    <rect id="Rectangle-12" fill-opacity="0.3" fill="#19B5EA" x="59.8695038" y="48.7448688" width="47.1974127" height="33.2703073"></rect>
                    <path d="M105.6169,51.2357543 L105.6169,79.559559 C105.073165,79.6186352 104.641266,80.0505346 104.581839,80.5941523 L63.1340003,80.5941523 C63.0748072,80.0507686 62.6429078,79.6186352 62.0992901,79.559559 L62.0992901,51.2357543 C62.6429078,51.1765611 63.0748072,50.7447787 63.1340003,50.201044 L104.58219,50.201044 C104.641266,50.7446617 105.073165,51.1766781 105.6169,51.2357543 M110.167987,50.0729481 L110.167987,46.8197816 C110.167987,46.1738042 109.64414,45.6499565 108.998162,45.6499565 L105.744879,45.6499565 C105.142302,45.6499565 104.645711,46.1057204 104.582073,46.6915688 L63.1341173,46.6915688 C63.0702449,46.1057204 62.5740051,45.6499565 61.9713112,45.6499565 L58.7181446,45.6499565 C58.0721672,45.6499565 57.5483196,46.1738042 57.5483196,46.8197816 L57.5483196,50.0729481 C57.5483196,50.675642 58.0040834,51.1721158 58.5899318,51.2357543 L58.5899318,79.559559 C58.0040834,79.6233145 57.5483196,80.1196713 57.5483196,80.7221312 L57.5483196,83.9754147 C57.5483196,84.6213921 58.0721672,85.1452398 58.7181446,85.1452398 L61.9713112,85.1452398 C62.5740051,85.1452398 63.0703619,84.6894759 63.1341173,84.1037445 L104.582307,84.1037445 C104.646296,84.6897099 105.142302,85.1452398 105.745113,85.1452398 L108.998162,85.1452398 C109.64414,85.1452398 110.167987,84.6213921 110.167987,83.9754147 L110.167987,80.7221312 C110.167987,80.1196713 109.71234,79.6229635 109.126609,79.559559 L109.126609,51.2357543 C109.712224,51.1721158 110.167987,50.675642 110.167987,50.0729481" id="Fill-1" fill="#19B5EA"></path>
                    <path d="M138.502675,69.0483871 C138.384819,68.9241325 138.237551,68.8617988 138.060698,68.8617988 C137.955948,68.8617988 137.861037,68.8845719 137.775827,68.9304966 L125.204374,75.2163262 C125.073274,75.2818935 124.978466,75.3799005 124.919469,75.5108976 C124.860541,75.6419291 124.847504,75.7794966 124.88015,75.9233595 C124.912865,76.0674631 124.986619,76.1835304 125.101104,76.2723181 C125.215658,76.3605553 125.345003,76.4048632 125.489038,76.4048632 L131.146027,76.4048632 L131.146027,82.0620926 C131.146027,82.2063339 131.1903,82.3355765 131.278641,82.4502334 C131.367119,82.564787 131.483358,82.638576 131.627393,82.6711877 C131.692857,82.6840191 131.74205,82.6907616 131.77473,82.6907616 C132.036587,82.6907616 132.223313,82.576208 132.334564,82.3468943 L138.620634,69.7752694 C138.686064,69.6509116 138.707152,69.5216002 138.684413,69.3873695 C138.661571,69.2530012 138.60082,69.1401332 138.502675,69.0483871 Z" id="Fill-1" fill="#004990" transform="translate(131.777957, 75.776280) scale(-1, 1) translate(-131.777957, -75.776280) "></path>
                </g>
                <g id="Search" transform="translate(270.000000, 17.000000)">
                    <g id="Oval-3">
                        <use fill="black" fill-opacity="1" filter="url(#filter-12)" xlink:href="#path-11"></use>
                        <use fill="#19B5EA" fill-rule="evenodd" xlink:href="#path-11"></use>
                    </g>
                    <path d="M14.6153846,11.6538462 C14.6153846,10.0210337 13.2866587,8.69230769 11.6538462,8.69230769 C10.0210337,8.69230769 8.69230769,10.0210337 8.69230769,11.6538462 C8.69230769,13.2866587 10.0210337,14.6153846 11.6538462,14.6153846 C13.2866587,14.6153846 14.6153846,13.2866587 14.6153846,11.6538462 Z M18,17.1538462 C18,17.6165865 17.6165865,18 17.1538462,18 C16.9290865,18 16.7109375,17.9074519 16.5588942,17.7487981 L14.2914663,15.4879808 C13.5180288,16.0234375 12.5925481,16.3076923 11.6538462,16.3076923 C9.08233173,16.3076923 7,14.2253606 7,11.6538462 C7,9.08233173 9.08233173,7 11.6538462,7 C14.2253606,7 16.3076923,9.08233173 16.3076923,11.6538462 C16.3076923,12.5925481 16.0234375,13.5180288 15.4879808,14.2914663 L17.7554087,16.5588942 C17.9074519,16.7109375 18,16.9290865 18,17.1538462 Z" id="" fill="#FFFFFF"></path>
                </g>
            </g>
        </g>
    </g>
</svg>