<svg height="321" viewBox="0 0 485 321" width="485" xmlns="http://www.w3.org/2000/svg" xmlns:xlink="http://www.w3.org/1999/xlink"><defs><linearGradient id="a" x1="0%" x2="100%" y1="61.966405%" y2="61.966407%"><stop offset="0" stop-color="#19b5ea"/><stop offset="1" stop-color="#0d80ef"/></linearGradient><path id="b" d="m0 .758992h319.443233v207.072245h-319.443233z"/><filter id="c" height="117.9%" width="111.6%" x="-4.5%" y="-5.6%"><feOffset dx="4" dy="7" in="SourceAlpha" result="shadowOffsetOuter1"/><feGaussianBlur in="shadowOffsetOuter1" result="shadowBlurOuter1" stdDeviation="5"/><feColorMatrix in="shadowBlurOuter1" type="matrix" values="0 0 0 0 0   0 0 0 0 0   0 0 0 0 0  0 0 0 0.0698879076 0"/></filter><ellipse id="d" cx="11.897877" cy="11.904299" rx="11.531072" ry="11.551637"/><filter id="e" height="325.1%" width="325.5%" x="-112.7%" y="-56.3%"><feOffset dx="0" dy="13" in="SourceAlpha" result="shadowOffsetOuter1"/><feGaussianBlur in="shadowOffsetOuter1" result="shadowBlurOuter1" stdDeviation="6.5"/><feColorMatrix in="shadowBlurOuter1" type="matrix" values="0 0 0 0 0   0 0 0 0 0   0 0 0 0 0  0 0 0 0.126783288 0"/></filter><mask id="f" fill="#fff"><path d="m.267955.062915h379.669102v153.668135h-379.669102z" fill="#fff" fill-rule="evenodd"/></mask></defs><g fill="none" fill-rule="evenodd"><g stroke="#26e8cc" stroke-width="1.854915" transform="translate(243.240156 147.525115)"><path d="m32.7252017.4922366v27.073013l15.5181374 12.2838585" transform="matrix(-1 0 0 1 80.96854 0)"/><path d="m131.930764.4922366v31.995379l50.863722 43.4108463"/><path d="m154.083318 51.1926063 26.955971.0867847" fill="#26e8cc"/><path d="m182.143219 0 20.183438 16.2438078" fill="#26e8cc"/><ellipse cx="208.564754" cy="20.512422" rx="7.602441" ry="7.601787"/><path d="m112.731884 46.2702404 25.305096 20.8356962" fill="#26e8cc"/><ellipse cx="144.455995" cy="70.608071" rx="7.602441" ry="7.601787"/><path d="m99.4226613.4922366v76.2966729l12.8169437 11.4190879" transform="matrix(-1 0 0 1 211.662266 0)"/><g fill="#26e8cc"><path d="m93.5330043 0v58.3134113" transform="matrix(-1 0 0 1 187.066008 0)"/><path d="m7.87646352 0v16.9885422" transform="matrix(-1 0 0 1 15.752928 0)"/><path d="m162.609728 0-.157668 16.1092897" transform="matrix(-1 0 0 1 325.061788 0)"/></g><path d="m53.7875574 0v41.3478744l24.9770778 19.6032945" transform="matrix(-1 0 0 1 132.552192 0)"/><ellipse cx="162.178038" cy="23.353358" rx="7.602441" ry="7.601787" transform="matrix(-1 0 0 1 324.356076 0)"/><ellipse cx="93.258982" cy="65.685705" rx="7.602441" ry="7.601787" transform="matrix(-1 0 0 1 186.517964 0)"/><ellipse cx="27.2936" cy="44.027295" rx="7.602441" ry="7.601787"/><ellipse cx="7.602441" cy="24.337831" rx="7.602441" ry="7.601787"/><ellipse cx="93.258982" cy="93.250955" rx="7.602441" ry="7.601787"/><ellipse cx="47.969317" cy="65.685705" rx="7.602441" ry="7.601787"/><ellipse cx="188.761102" cy="50.918608" rx="7.602441" ry="7.601787"/><ellipse cx="188.761102" cy="80.452803" rx="7.602441" ry="7.601787"/></g><g transform="translate(104 -6.693631)"><g mask="url(#f)" opacity=".8"><g transform="translate(8.8 7.210375)"><path d="m58.1708098 18.032384c33.3775035-.3445133 60.9244822 75.1039082 90.1192592 75.1039082s22.947034-75.1039082 46.311286-51.837459c23.364253 23.2664492 33.557266-36.26492024 61.152329-40.72843043 11.48594-1.85785432 24.386281 17.52304793 37.025341 40.72843043 17.726384 32.5457386 62.451566 112.8163198 87.484694 112.8163198h-379.66910271s25.52509271-135.7519464 57.57619351-136.082769z" style="stroke:#0d80ef;stroke-width:1.854915;fill-opacity:.2;fill:#0d80ef;fill-rule:evenodd;opacity:.738106"/><path d="m55.6674971 45.5782662c12.433095 4.9523425 32.5430659 67.1801018 63.0000379 67.1801018s32.960285-72.3478019 46.728505-42.3751413c13.76822 29.9726603 51.73513-31.350714 80.523227-34.7958474s94.291447 118.5125887 102.635823 118.5125887h-346.29159854s38.56442014-114.4325961 53.40400564-108.5217018z" style="stroke:#0d80ef;stroke-width:1.854915;fill-opacity:.5;fill:#4ed6ff;fill-rule:evenodd;opacity:.738106"/><g fill="none"><ellipse cx="149.319991" cy="77.209634" fill="#fff" fill-rule="evenodd" rx="3.533235" ry="3.40843"/><ellipse cx="149.319991" cy="77.209634" rx="2.837641" ry="2.712836" stroke="#0d80ef" stroke-width="1.391186"/><ellipse cx="53.359669" cy="44.669369" fill="#fff" fill-rule="evenodd" rx="3.533235" ry="3.40843"/><ellipse cx="53.359669" cy="44.669369" rx="2.837641" ry="2.712836" stroke="#0d80ef" stroke-width="1.391186"/><ellipse cx="210.233935" cy="57.184856" fill="#fff" fill-rule="evenodd" rx="3.533235" ry="3.40843"/><ellipse cx="210.233935" cy="57.184856" rx="2.837641" ry="2.712836" stroke="#0d80ef" stroke-width="1.391186"/><ellipse cx="274.485629" cy="53.847393" fill="#fff" fill-rule="evenodd" rx="3.533235" ry="3.40843"/><ellipse cx="274.485629" cy="53.847393" rx="2.837641" ry="2.712836" stroke="#0d80ef" stroke-width="1.391186"/></g><path d="m53.4564445 95.6028399c11.9183354 2.669492 31.1957057 36.2125081 60.3916865 36.2125081 29.195981 0 31.595651-38.9980857 44.793834-22.841736 13.198183 16.15635 49.593173-16.8991704 77.189375-18.7562221 27.596201-1.8570517 61.702114 54.3613441 82.388658 54.0402041 19.083292-.29625 7.199009 9.842374 7.199009 9.842374h-323.15551554s36.96776164-61.6833143 51.19295304-58.4971281z" style="stroke:#3ca0ff;stroke-width:1.854915;fill-opacity:.4;fill:#3ca0ff;fill-rule:evenodd;opacity:.738106"/></g></g><path d="m.26795517 153.770743h379.66910283" style="stroke:#0061c0;stroke-width:1.36;fill-opacity:.2;fill:#004990;stroke-linecap:round;stroke-linejoin:round"/></g><g transform="translate(6 96)"><g transform="translate(.255859)"><use fill="#000" filter="url(#c)" xlink:href="#b"/><use fill="url(#a)" fill-rule="evenodd" xlink:href="#b"/></g><rect fill="#a5b3cb" height="32" rx="8" width="286.046875" x="16.953125" y="13"/><rect fill="#fff" height="21.265569" rx="10.632784" transform="matrix(1 0 0 -1 0 57.94378)" width="128.5867" x="162.910345" y="18.339105"/><rect fill="#a5b3cb" height="93.921875" rx="8" width="34.597656" x="17" y="56"/><g opacity=".9" transform="translate(101.706257 63.667969)"><path d="m0 0h163.256624v114.994941h-163.256624z" fill="#fff"/><circle cx="60.388597" cy="48.490234" fill="#004990" fill-opacity=".2" r="22.957207" stroke="#004990" stroke-width="4"/><path d="m86.4206261 98.4606657 2.7015059 3.0003263c.2440971.271097.5941287.353681.7820189.184504l2.0633906-1.8578849c.1878901-.1691771.1423467-.5259236-.1017504-.7970209l-.3681783-.4089034 9.2330132-8.3134421c.00005.0134623.001174.0270234.001537.0405595l10.305796-9.2793807c.007447-.0212789.016676-.0416737.024123-.0629525l11.841706-10.6623206.368178.4089034c.244098.2710973.594129.3536814.782019.1845044l2.063391-1.8578852c.18789-.1691771.142347-.5259237-.10175-.7970209l-2.680649-2.9771623c-.244098-.2710973-.594129-.3536815-.782019-.1845044l-2.063391 1.8578852c-.18789.1691771-.142347.5259236.10175.7970209l.368179.4089034-2.069241 1.8631528.020503.0227714-23.673345 21.3155759-.0205035-.0227713-5.6630996 5.0990777-.3681782-.4089034c-.2440971-.2710972-.5941288-.3536814-.782019-.1845043-1.2340071 1.111105-1.8510107 1.6666575-1.8510107 1.6666575-.2545434.2291919-.3706917.6996938-.1319759.9648145z" fill="#d8d8d8"/><path d="m59.869504 48.744869h47.197413v33.270307h-47.197413z" fill="#19b5ea" fill-opacity=".3"/><path d="m105.6169 51.2357543v28.3238047c-.543735.0590762-.975634.4909756-1.035061 1.0345933h-41.4478387c-.0591931-.5433837-.4910925-.9755171-1.0347102-1.0345933v-28.3238047c.5436177-.0591932.9755171-.4909756 1.0347102-1.0347103h41.4481897c.059076.5436177.490975.9756341 1.03471 1.0347103m4.551087-1.1628062v-3.2531665c0-.6459774-.523847-1.1698251-1.169825-1.1698251h-3.253283c-.602577 0-1.099168.4557639-1.162806 1.0416123h-41.4479557c-.0638724-.5858484-.5601122-1.0416123-1.1628061-1.0416123h-3.2531666c-.6459774 0-1.169825.5238477-1.169825 1.1698251v3.2531665c0 .6026939.4557638 1.0991677 1.0416122 1.1628062v28.3238047c-.5858484.0637555-1.0416122.5601123-1.0416122 1.1625722v3.2532835c0 .6459774.5238476 1.1698251 1.169825 1.1698251h3.2531666c.6026939 0 1.0990507-.4557639 1.1628061-1.0414953h41.4481897c.063989.5859654.559995 1.0414953 1.162806 1.0414953h3.253049c.645978 0 1.169825-.5238477 1.169825-1.1698251v-3.2532835c0-.6024599-.455647-1.0991677-1.041378-1.1625722v-28.3238047c.585615-.0636385 1.041378-.5601123 1.041378-1.1628062" fill="#19b5ea"/><path d="m138.502675 69.0483871c-.117856-.1242546-.265124-.1865883-.441977-.1865883-.10475 0-.199661.0227731-.284871.0686978l-12.571453 6.2858296c-.1311.0655673-.225908.1635743-.284905.2945714-.058928.1310315-.071965.268599-.039319.4124619.032715.1441036.106469.2601709.220954.3489586.114554.0882372.243899.1325451.387934.1325451h5.656989v5.6572294c0 .1442413.044273.2734839.132614.3881408.088478.1145536.204717.1883426.348752.2209543.065464.0128314.114657.0195739.147337.0195739.261857 0 .448583-.1145536.559834-.3438673l6.28607-12.5716249c.06543-.1243578.086518-.2536692.063779-.3878999-.022842-.1343683-.083593-.2472363-.181738-.3389824z" fill="#004990" transform="matrix(-1 0 0 1 263.555914 0)"/></g><g transform="translate(270 17)"><use fill="#000" filter="url(#e)" xlink:href="#d"/><use fill="#19b5ea" fill-rule="evenodd" xlink:href="#d"/><path d="m14.6153846 11.6538462c0-1.6328125-1.3287259-2.96153851-2.9615384-2.96153851s-2.96153851 1.32872601-2.96153851 2.96153851 1.32872601 2.9615384 2.96153851 2.9615384 2.9615384-1.3287259 2.9615384-2.9615384zm3.3846154 5.5c0 .4627403-.3834135.8461538-.8461538.8461538-.2247597 0-.4429087-.0925481-.594952-.2512019l-2.2674279-2.2608173c-.7734375.5354567-1.6989182.8197115-2.6376201.8197115-2.57151447 0-4.6538462-2.0823317-4.6538462-4.6538461 0-2.57151447 2.08233173-4.6538462 4.6538462-4.6538462 2.5715144 0 4.6538461 2.08233173 4.6538461 4.6538462 0 .9387019-.2842548 1.8641826-.8197115 2.6376201l2.2674279 2.2674279c.1520432.1520433.2445913.3701923.2445913.594952z" fill="#fff"/></g></g></g></svg>