<svg enable-background="new 0 0 512 512" height="512" viewBox="0 0 512 512" width="512" xmlns="http://www.w3.org/2000/svg"><path d="m256 160c123.758 0 224-35.89 224-79.994 0-44.115-100.242-80.006-224-80.006s-224 35.891-224 80.006c0 44.104 100.242 79.994 224 79.994z"/><path d="m256 192c-123.758 0-224-37.972-224-82.076v77.645c0 44.104 100.242 84.431 224 84.431s224-40.327 224-84.431v-77.645c0 44.104-100.242 82.076-224 82.076z"/><path d="m256 416c-123.758 0-224-38.73-224-82.836v97.66c0 44.104 100.242 81.176 224 81.176s224-37.072 224-81.176v-97.66c0 44.106-100.242 82.836-224 82.836z"/><path d="m256 304.502c-123.758 0-224-37.972-224-82.076v77.645c0 44.104 100.242 84.432 224 84.432s224-40.327 224-84.432v-77.645c0 44.104-100.242 82.076-224 82.076z"/></svg>