<svg fill="none" viewBox="0 0 40 40" xmlns="http://www.w3.org/2000/svg"><path d="m0 8c0-4.41828 3.58172-8 8-8h24c4.4183 0 8 3.58172 8 8v24c0 4.4183-3.5817 8-8 8h-24c-4.41828 0-8-3.5817-8-8z" fill="#333357"/><path d="m17.8645 20.028h-.648l-.348 1.26-.38-1.26h-.524l-.38 1.26-.348-1.26h-.648l.648 1.972h.604l.388-1.208.384 1.208h.604zm3.773 0h-.648l-.348 1.26-.38-1.26h-.524l-.38 1.26-.348-1.26h-.648l.648 1.972h.604l.388-1.208.384 1.208h.604zm3.773 0h-.648l-.348 1.26-.38-1.26h-.524l-.38 1.26-.348-1.26h-.648l.648 1.972h.604l.388-1.208.384 1.208h.604z" fill="#fff"/><g stroke="#fff"><rect height="15" rx="1.5" width="19" x="10.5" y="12.5"/><path d="m10.1052 15.5h19.1579"/><circle cx="12.5" cy="13.9736" r=".25" stroke-width=".5"/><circle cx="14.5" cy="13.9736" r=".25" stroke-width=".5"/><circle cx="16.5" cy="13.9736" r=".25" stroke-width=".5"/></g></svg>