<svg width="100%" height="100%" viewBox="0 0 28 28" fill="none" xmlns="http://www.w3.org/2000/svg">
<path d="M19.628 0C20.1932 0 20.732 0.239118 21.1111 0.658223L27.4831 7.7014C27.8158 8.06911 28 8.5473 28 9.04317V18.5047C28 18.9812 27.8299 19.4419 27.5204 19.8041L21.1144 27.2994C20.7344 27.744 20.1789 28 19.594 28H8.54593C7.96803 28 7.41838 27.75 7.03856 27.3145L0.492625 19.8079C0.174995 19.4436 0 18.9767 0 18.4934V9.05469C0 8.55191 0.189367 8.06758 0.530393 7.69813L7.04242 0.64344C7.42103 0.233276 7.95383 0 8.51203 0H19.628Z" fill="#CD2113"/>
<path d="M14 18.5L14 4.5" stroke="white" stroke-linecap="round"/>
<path d="M14 22L14 23" stroke="white" stroke-linecap="round" stroke-linejoin="round"/>
</svg>
