<svg width="27" height="27" viewBox="0 0 27 27" fill="none" xmlns="http://www.w3.org/2000/svg">
<path d="M17.2664 4C17.6903 4 18.0944 4.17934 18.3788 4.49367L22.6123 9.1732C22.8618 9.44899 23 9.80763 23 10.1795V16.5067C23 16.8641 22.8724 17.2097 22.6403 17.4813L18.3727 22.4746C18.0877 22.808 17.6711 23 17.2324 23H9.86412C9.43069 23 9.01845 22.8125 8.73359 22.4858L4.36947 17.4813C4.13125 17.2081 4 16.8579 4 16.4954V10.1911C4 9.81397 4.14203 9.45072 4.3978 9.17364L8.728 4.48258C9.01196 4.17496 9.41156 4 9.83021 4H17.2664Z" stroke="#CD2113" stroke-linecap="round"/>
<path d="M13.5 15L13.5 7" stroke="#CD2113" stroke-linecap="round"/>
<path d="M13.5 18.5L13.5 19.5" stroke="#CD2113" stroke-linecap="round"/>
</svg>
