<svg width="18" height="18" viewBox="0 0 18 18" fill="none" xmlns="http://www.w3.org/2000/svg">
<path d="M11.3702 2C11.9354 2 12.4742 2.23912 12.8533 2.65822L15.4831 5.56503C15.8158 5.93275 16 6.41094 16 6.90681V10.8832C16 11.3597 15.8299 11.8205 15.5204 12.1827L12.8566 15.2994C12.4766 15.744 11.9211 16 11.3362 16H6.72775C6.14985 16 5.6002 15.75 5.22038 15.3145L2.49263 12.1864C2.175 11.8221 2 11.3552 2 10.8719V6.91833C2 6.41555 2.18937 5.93122 2.53039 5.56177L5.22424 2.64344C5.60285 2.23328 6.13565 2 6.69384 2H11.3702Z" fill="#CD2113"/>
<path d="M9 10L9 5.5" stroke="white" stroke-linecap="round"/>
<rect x="8.5" y="12" width="1" height="1" fill="white"/>
</svg>
