<svg width="18" height="18" viewBox="0 0 18 18" fill="none" xmlns="http://www.w3.org/2000/svg">
<circle cx="9.5" cy="9" r="7" fill="#525296"/>
<path d="M9.50049 10.5V9.98426C9.50632 9.8426 9.52381 9.72159 9.55296 9.62125C9.58212 9.5209 9.62293 9.42941 9.67541 9.34678C9.72789 9.25824 9.79203 9.1756 9.86783 9.09887C9.94363 9.02213 10.0311 8.9336 10.1302 8.83325C10.2293 8.73291 10.3256 8.63551 10.4189 8.54107C10.5121 8.44073 10.5938 8.33448 10.6638 8.22233C10.7337 8.10428 10.7891 7.97737 10.8299 7.84161C10.8766 7.70585 10.8999 7.54943 10.8999 7.37236C10.8999 7.19528 10.8649 7.0241 10.7949 6.85883C10.7308 6.69356 10.6346 6.54894 10.5063 6.42499C10.378 6.29513 10.2177 6.19183 10.0253 6.1151C9.83868 6.03837 9.62585 6 9.38678 6C9.14772 6 8.94072 6.03542 8.76579 6.10625C8.5967 6.17118 8.45092 6.25381 8.32847 6.35416C8.21186 6.4486 8.11856 6.54894 8.04859 6.65519C7.98445 6.76144 7.93489 6.85293 7.8999 6.92966" stroke="white" stroke-linecap="round" stroke-linejoin="round"/>
<rect x="9" y="12" width="1" height="1" fill="white"/>
</svg>
