<svg width="18" height="18" viewBox="0 0 18 18" fill="none" xmlns="http://www.w3.org/2000/svg">
<circle cx="9" cy="9" r="7" fill="#12A344"/>
<path d="M8.33325 13C8.33325 13.3682 8.63173 13.6667 8.99992 13.6667C9.36811 13.6667 9.66659 13.3682 9.66659 13" stroke="white" stroke-linecap="round" stroke-linejoin="round"/>
<path d="M7.91618 10.8524L7.48873 11.1118L7.91618 10.8524C7.71362 10.5186 7.43548 10.2662 7.18094 10.0653C6.46474 9.49997 6 8.60804 6 7.6C6 5.87455 7.35633 4.5 9 4.5C10.6437 4.5 12 5.87455 12 7.6C12 8.60804 11.5353 9.49997 10.8191 10.0653C10.5645 10.2662 10.2864 10.5186 10.0838 10.8524L10.0492 10.9095C9.82666 11.2761 9.42889 11.5 9 11.5C8.57111 11.5 8.17334 11.2761 7.95082 10.9095L7.91618 10.8524Z" stroke="white"/>
</svg>
