<svg width="18" height="18" viewBox="0 0 18 18" fill="none" xmlns="http://www.w3.org/2000/svg">
<circle cx="9" cy="9" r="6.5" stroke="#525296" stroke-linecap="round"/>
<rect x="9.25" y="5.25" width="0.5" height="0.5" fill="#525296" stroke="#525296" stroke-width="0.5"/>
<path d="M9.5 7.5L10 7.5L10 7L9.5 7L9.5 7.5ZM8.375 7C8.09886 7 7.875 7.22386 7.875 7.5C7.875 7.77614 8.09886 8 8.375 8L8.375 7ZM8 12C7.72386 12 7.5 12.2239 7.5 12.5C7.5 12.7761 7.72386 13 8 13L8 12ZM11 13C11.2761 13 11.5 12.7761 11.5 12.5C11.5 12.2239 11.2761 12 11 12L11 13ZM9 7.5L9 12.5L10 12.5L10 7.5L9 7.5ZM9.5 7L8.375 7L8.375 8L9.5 8L9.5 7ZM8 13L9.5 13L9.5 12L8 12L8 13ZM9.5 13L11 13L11 12L9.5 12L9.5 13Z" fill="#525296"/>
</svg>
