<svg width="27" height="27" viewBox="0 0 27 27" fill="none" xmlns="http://www.w3.org/2000/svg">
<circle cx="13.5" cy="13.5" r="9.5" stroke="#525296" stroke-linecap="round"/>
<path d="M13.9878 16.3V15.2914C13.9986 15.0144 14.0313 14.7778 14.0857 14.5816C14.1401 14.3853 14.2163 14.2064 14.3143 14.0448C14.4122 13.8717 14.532 13.7101 14.6735 13.56C14.815 13.41 14.9782 13.2368 15.1633 13.0406C15.3483 12.8444 15.5279 12.6539 15.702 12.4692C15.8762 12.273 16.0286 12.0652 16.1592 11.8459C16.2898 11.615 16.3932 11.3669 16.4694 11.1014C16.5565 10.8359 16.6 10.53 16.6 10.1837C16.6 9.83743 16.5347 9.50269 16.4041 9.17949C16.2844 8.85629 16.1048 8.57349 15.8653 8.33109C15.6259 8.07714 15.3265 7.87514 14.9673 7.72509C14.619 7.57503 14.2218 7.5 13.7755 7.5C13.3293 7.5 12.9429 7.56926 12.6163 7.70777C12.3007 7.83474 12.0286 7.99634 11.8 8.19257C11.5823 8.37726 11.4082 8.57349 11.2776 8.78126C11.1578 8.98903 11.0653 9.16795 11 9.318" stroke="#525296" stroke-linecap="round" stroke-linejoin="round"/>
<path d="M13.96 19.5L13.96 18.7" stroke="#525296" stroke-linecap="round"/>
</svg>
