<svg width="100%" height="100%" viewBox="0 0 28 28" fill="none" xmlns="http://www.w3.org/2000/svg">
<circle cx="14" cy="14" r="14" fill="#525296"/>
<path d="M14.5347 18V16.7393C14.5483 16.393 14.5892 16.0972 14.6572 15.8519C14.7252 15.6067 14.8205 15.383 14.9429 15.181C15.0654 14.9646 15.215 14.7626 15.3919 14.575C15.5688 14.3874 15.7728 14.171 16.0041 13.9257C16.2354 13.6804 16.4599 13.4424 16.6776 13.2115C16.8953 12.9662 17.0858 12.7065 17.249 12.4324C17.4123 12.1438 17.5415 11.8336 17.6368 11.5017C17.7456 11.1699 17.8 10.7875 17.8 10.3546C17.8 9.92179 17.7184 9.50336 17.5552 9.09936C17.4055 8.69536 17.181 8.34186 16.8817 8.03886C16.5824 7.72143 16.2082 7.46893 15.7592 7.28136C15.3239 7.09379 14.8273 7 14.2694 7C13.7116 7 13.2286 7.08657 12.8205 7.25972C12.4259 7.41843 12.0858 7.62043 11.8 7.86572C11.5279 8.09657 11.3103 8.34186 11.147 8.60157C10.9973 8.86129 10.8817 9.08493 10.8 9.2725" stroke="white" stroke-linecap="round" stroke-linejoin="round"/>
<path d="M14.5 22L14.5 21" stroke="white" stroke-linecap="round"/>
</svg>
