<svg width="36" height="36" viewBox="0 0 36 36" fill="none" xmlns="http://www.w3.org/2000/svg">
<circle cx="18" cy="18" r="13.5" stroke="#525296" stroke-linecap="round"/>
<path d="M18.5347 22V20.7393C18.5483 20.393 18.5892 20.0972 18.6572 19.8519C18.7252 19.6067 18.8205 19.383 18.9429 19.181C19.0654 18.9646 19.215 18.7626 19.3919 18.575C19.5688 18.3874 19.7728 18.171 20.0041 17.9257C20.2354 17.6804 20.4599 17.4424 20.6776 17.2115C20.8953 16.9662 21.0858 16.7065 21.249 16.4324C21.4123 16.1438 21.5415 15.8336 21.6368 15.5017C21.7456 15.1699 21.8 14.7875 21.8 14.3546C21.8 13.9218 21.7184 13.5034 21.5552 13.0994C21.4055 12.6954 21.181 12.3419 20.8817 12.0389C20.5824 11.7214 20.2082 11.4689 19.7592 11.2814C19.3239 11.0938 18.8273 11 18.2694 11C17.7116 11 17.2286 11.0866 16.8205 11.2597C16.4259 11.4184 16.0858 11.6204 15.8 11.8657C15.5279 12.0966 15.3103 12.3419 15.147 12.6016C14.9973 12.8613 14.8817 13.0849 14.8 13.2725" stroke="#525296" stroke-linecap="round" stroke-linejoin="round"/>
<path d="M18.5 26L18.5 25" stroke="#525296" stroke-linecap="round"/>
</svg>
