<svg width="36" height="36" viewBox="0 0 36 36" fill="none" xmlns="http://www.w3.org/2000/svg">
<path d="M23.628 4C24.1932 4 24.732 4.23912 25.1111 4.65822L31.4831 11.7014C31.8158 12.0691 32 12.5473 32 13.0432V22.5047C32 22.9812 31.8299 23.4419 31.5204 23.8041L25.1144 31.2994C24.7344 31.744 24.1789 32 23.594 32H12.5459C11.968 32 11.4184 31.75 11.0386 31.3145L4.49263 23.8079C4.175 23.4436 4 22.9767 4 22.4934V13.0547C4 12.5519 4.18937 12.0676 4.53039 11.6981L11.0424 4.64344C11.421 4.23328 11.9538 4 12.512 4H23.628Z" stroke="#ffffff" fill="#CD2113"/>
<path d="M18 22.5L18 8.5" stroke="white" stroke-linecap="round"/>
<path d="M18 26L18 27" stroke="white" stroke-linecap="round" stroke-linejoin="round"/>
</svg>
