<svg width="36" height="36" viewBox="0 0 36 36" fill="none" xmlns="http://www.w3.org/2000/svg">
<circle cx="18" cy="18" r="14" fill="#12A344"/>
<path d="M17.3044 27.2922C17.3044 27.6764 17.6159 27.9879 18.0001 27.9879C18.3843 27.9879 18.6957 27.6764 18.6957 27.2922" stroke="white" stroke-linecap="round" stroke-linejoin="round"/>
<path d="M17.1111 25.6111H18.8889" stroke="white" stroke-linecap="round"/>
<path d="M23.0652 17.4295C23.0652 19.1682 22.2134 20.7034 20.9106 21.6324C20.6098 21.8469 20.3131 22.1192 20.0954 22.4723L19.7062 23.1036C19.4331 23.5466 18.9499 23.8164 18.4294 23.8164H17.5707C17.0502 23.8164 16.5669 23.5466 16.2938 23.1036L15.9046 22.4723C15.6869 22.1192 15.3903 21.8469 15.0895 21.6324L14.7992 22.0395L15.0895 21.6324C13.7867 20.7034 12.9348 19.1682 12.9348 17.4295C12.9348 14.5877 15.2084 12.2947 18 12.2947C20.7916 12.2947 23.0652 14.5877 23.0652 17.4295Z" stroke="white"/>
<path d="M11.0435 17.0121L9.99998 17.0121" stroke="white" stroke-linecap="round"/>
<path d="M12.0869 12.8381L11.0434 11.7947" stroke="white" stroke-linecap="round"/>
<path d="M26 17.0121L24.9565 17.0121" stroke="white" stroke-linecap="round"/>
<path d="M24.9565 11.7947L23.9131 12.8381" stroke="white" stroke-linecap="round"/>
<path d="M18 9.01214L18 10.4034" stroke="white" stroke-linecap="round"/>
</svg>
