<svg width="27" height="27" viewBox="0 0 27 27" fill="none" xmlns="http://www.w3.org/2000/svg">
<circle cx="13.5" cy="13.5" r="9.5" stroke="#12A344" stroke-linecap="round"/>
<path d="M12.8684 18.9136C12.8684 19.2624 13.1512 19.5452 13.5 19.5452C13.8488 19.5452 14.1316 19.2624 14.1316 18.9136" stroke="#12A344" stroke-linecap="round" stroke-linejoin="round"/>
<path d="M12.3008 16.7198L12.3008 16.7198L12.2895 16.7022C12.2895 16.7022 12.2895 16.7022 12.2895 16.7022C12.0691 16.3579 11.7713 16.0996 11.4958 15.8937C10.7107 15.3068 10.2104 14.3885 10.2104 13.3601C10.2104 11.6076 11.6712 10.1654 13.4999 10.1654C15.3287 10.1654 16.7894 11.6076 16.7894 13.3601C16.7894 14.3885 16.2892 15.3068 15.5041 15.8937C15.2285 16.0996 14.9307 16.3579 14.7103 16.7022L14.7103 16.7022L14.699 16.7198C14.4373 17.1286 13.9853 17.3759 13.4999 17.3759C13.0145 17.3759 12.5625 17.1286 12.3008 16.7198Z" stroke="#12A344"/>
<path d="M8.13159 13.7706L7.50001 13.7706" stroke="#12A344" stroke-linecap="round"/>
<path d="M9.07886 9.66541L8.76306 9.34961" stroke="#12A344" stroke-linecap="round"/>
<path d="M19.5 13.7706L18.8684 13.7706" stroke="#12A344" stroke-linecap="round"/>
<path d="M18.2368 9.34961L17.921 9.66541" stroke="#12A344" stroke-linecap="round"/>
<path d="M13.5 7.50001L13.5 8.13159" stroke="#12A344" stroke-linecap="round"/>
</svg>
