<svg width="36" height="36" viewBox="0 0 36 36" fill="none" xmlns="http://www.w3.org/2000/svg">
<path d="M23.628 4.5C24.0519 4.5 24.456 4.67934 24.7404 4.99367L31.1123 12.0368C31.3618 12.3126 31.5 12.6713 31.5 13.0432V22.5047C31.5 22.862 31.3724 23.2076 31.1403 23.4793L24.7343 30.9746C24.4493 31.308 24.0327 31.5 23.594 31.5H12.5459C12.1125 31.5 11.7003 31.3125 11.4154 30.9858L4.86947 23.4792C4.63125 23.2061 4.5 22.8559 4.5 22.4934V13.0547C4.5 12.6776 4.64203 12.3144 4.8978 12.0373L11.4098 4.98258C11.6938 4.67496 12.0934 4.5 12.512 4.5H23.628Z" stroke="#CD2113" stroke-linecap="round"/>
<path d="M18 22.5L18 8.5" stroke="#CD2113" stroke-linecap="round"/>
<path d="M18 26L18 27" stroke="#CD2113" stroke-linecap="round" stroke-linejoin="round"/>
</svg>
