<svg width="27" height="27" viewBox="0 0 27 27" fill="none" xmlns="http://www.w3.org/2000/svg">
<path d="M17.2664 3.5C17.8316 3.5 18.3704 3.73912 18.7495 4.15822L22.9831 8.83776C23.3158 9.20548 23.5 9.68367 23.5 10.1795V16.5067C23.5 16.9832 23.3299 17.444 23.0204 17.8061L18.7528 22.7994C18.3728 23.244 17.8173 23.5 17.2324 23.5H9.86412C9.28621 23.5 8.73656 23.25 8.35674 22.8145L3.99263 17.8099C3.675 17.4456 3.5 16.9787 3.5 16.4954V10.1911C3.5 9.68828 3.68937 9.20394 4.03039 8.8345L8.3606 4.14344C8.73921 3.73328 9.27201 3.5 9.83021 3.5H17.2664Z" fill="#CD2113"/>
<path d="M13.5 15L13.5 7" stroke="white" stroke-linecap="round"/>
<path d="M13.5 18.5L13.5 19.5" stroke="white" stroke-linecap="round"/>
</svg>
