<svg width="18" height="18" viewBox="0 0 18 18" fill="none" xmlns="http://www.w3.org/2000/svg">
<path d="M11.3702 2.5C11.7941 2.5 12.1982 2.67934 12.4825 2.99367L15.1123 5.90048C15.3618 6.17627 15.5 6.53491 15.5 6.90681V10.8832C15.5 11.2406 15.3724 11.5862 15.1403 11.8578L12.4765 14.9746C12.1915 15.308 11.7749 15.5 11.3362 15.5H6.72775C6.29433 15.5 5.88209 15.3125 5.59722 14.9858L2.86947 11.8578L2.49263 12.1864L2.86947 11.8578C2.63125 11.5846 2.5 11.2344 2.5 10.8719V6.91833C2.5 6.54125 2.64203 6.17799 2.89779 5.90091L5.59164 2.98258C5.8756 2.67496 6.2752 2.5 6.69384 2.5H11.3702Z" stroke="#CD2113" stroke-linecap="round"/>
<path d="M9 10L9 5.5" stroke="#CD2113" stroke-linecap="round"/>
<rect x="8.5" y="12" width="1" height="1" fill="#CD2113"/>
</svg>
