<svg xmlns="http://www.w3.org/2000/svg" viewBox="-0.955 2 18.955 19.001"><rect x="2" y="8" fill="#BCC3CA" width="2" height="6"/><rect x="6" y="5" fill="#BCC3CA" width="6" height="2"/><path id="sectionColor" d="M0,14v6h6v-6H0z M4,18H2v-2h2V18z"/><path id="sectionColor" d="M11,3v6h6V3H11z M15,7h-2V5h2V7z"/><path id="sectionColor" d="M-0.955,2v8h8V2H-0.955z M5.045,8h-4V4h4V8z"/><path id="sectionColor" d="M8.461,11C8.208,10.999,8.001,11.203,8,11.457c0,0.063,0.012,0.125,0.037,0.183l3.893,9.083c0.1,0.233,0.37,0.341,0.602,0.241c0.12-0.052,0.213-0.152,0.255-0.277l1.225-3.675l3.675-1.225c0.24-0.081,0.37-0.341,0.289-0.581c-0.041-0.124-0.134-0.224-0.254-0.276L8.64,11.037C8.583,11.013,8.522,11,8.461,11L8.461,11z"/>
</svg>