<svg viewBox="0 0 12 14" xmlns="http://www.w3.org/2000/svg">
  <path fill="currentColor"
        d="m12.009 2.804-2.57-2.575c-.305-.305-.8-.305-1.105-.001l0 0c-.305.305-.306.8-.001 1.105l1.237 1.239h-8.787c-.436 0-.783.35-.783.782 0 .434.351.781.783.781h8.789l-1.238 1.239c-.305.305-.305.8 0 1.105l0 0c .305.305.8.305 1.105 0l2.57-2.571c.304-.305.304-.799 0-1.104z"/>
  <path fill="currentColor"
        d="m11.714 9.865h-8.783l1.237-1.239c.305-.305.304-.8-.001-1.105l0 0c-.305-.305-.8-.305-1.105.001l-2.57 2.574c-.305.305-.304.799 0 1.104l2.57 2.571c.305.305.8.305 1.105 0s .305-.8 0-1.105l-1.238-1.239h8.785c.435 0 .788-.347.788-.781-.001-.431-.356-.781-.788-.781z"/>
</svg>
