<svg viewBox="0 0 24 24" stroke="#282829" fill="none" xmlns="http://www.w3.org/2000/svg">
<path d="M21.0396 16.8205C21.0396 16.684 20.9837 16.5534 20.885 16.4591L20.5396 16.8205L20.885 16.459L20.8848 16.4589L20.8842 16.4583L20.8817 16.4559L20.8719 16.4465L20.8333 16.4096L20.6847 16.2675C20.5556 16.1439 20.3686 15.9649 20.1373 15.7431C19.6746 15.2996 19.0346 14.6852 18.325 14.0017C16.9052 12.634 15.2099 10.9923 14.1005 9.88908C13.7641 9.55463 13.7669 9.14431 13.7887 8.68983C13.7907 8.64755 13.7915 8.60633 13.792 8.57492C13.7921 8.57015 13.7922 8.56561 13.7923 8.56133C13.793 8.52457 13.7937 8.50394 13.795 8.48847C13.9472 6.59724 13.4661 4.87731 12.4308 3.62178C11.39 2.35956 9.82273 1.60901 7.89842 1.60901C4.26468 1.60901 2.03955 4.62874 2.03955 7.30557C2.03955 8.57942 2.30866 10.2162 3.29193 11.5269C4.29633 12.8658 5.98645 13.7857 8.65053 13.7081C8.77667 13.7078 8.90621 13.7019 9.02591 13.6963L9.03162 13.6961C9.15845 13.6902 9.29031 13.6765 9.40706 13.6644C9.42698 13.6624 9.44647 13.6603 9.46542 13.6584C9.60319 13.6444 9.72364 13.6338 9.83764 13.6332C10.0624 13.6319 10.2131 13.67 10.3336 13.7598C10.3333 13.7596 10.338 13.7631 10.3492 13.7726C10.3598 13.7815 10.3735 13.7934 10.3906 13.8086C10.4249 13.839 10.4684 13.8789 10.5207 13.9277C10.6254 14.0255 10.7585 14.1527 10.9122 14.3003C10.9682 14.354 11.0267 14.4104 11.0873 14.4687C11.358 14.7291 11.6706 15.0297 11.9801 15.3203L12.3224 14.9558L11.9801 15.3203C12.1621 15.4912 12.3884 15.5253 12.5663 15.5158C12.7417 15.5065 12.9255 15.4536 13.1075 15.3819C13.2263 15.3351 13.3027 15.3169 13.3501 15.312C13.3479 15.3225 13.3451 15.334 13.3418 15.3467C13.3296 15.3928 13.311 15.4473 13.2852 15.5104C13.2103 15.6934 13.1409 15.9142 13.1297 16.1382C13.1184 16.3653 13.1665 16.6588 13.4036 16.884L13.4069 16.887C13.5052 16.9804 13.7076 17.1727 14.0327 17.2214C14.3542 17.2696 14.6911 17.1655 15.0566 16.9543C15.0597 16.9525 15.0628 16.9507 15.0658 16.9491C15.0565 16.977 15.0442 17.0092 15.0283 17.046C14.999 17.1137 14.9652 17.1779 14.926 17.2505C14.9221 17.2577 14.9181 17.2651 14.9139 17.2728C14.8802 17.335 14.8372 17.4144 14.8034 17.4911C14.7651 17.5782 14.7185 17.7046 14.7136 17.8532C14.7081 18.0179 14.7545 18.1791 14.8561 18.3219C14.9194 18.4109 15.0953 18.6 15.2741 18.7893C15.4698 18.9963 15.7153 19.2511 15.9549 19.498C16.1947 19.7452 16.4296 19.9856 16.6045 20.1642L16.8152 20.3789L16.874 20.4387L16.8895 20.4544L16.8935 20.4585L16.8945 20.4595L16.8948 20.4598L16.8948 20.4598L17.2511 20.109L16.8948 20.4599C16.9888 20.5553 17.1172 20.609 17.2511 20.609H17.2512H17.2513H17.2515H17.2518H17.2521H17.2524H17.2529H17.2533H17.2539H17.2544H17.2551H17.2557H17.2565H17.2573H17.2581H17.259H17.26H17.261H17.262H17.2631H17.2643H17.2655H17.2667H17.268H17.2694H17.2708H17.2723H17.2738H17.2753H17.2769H17.2786H17.2803H17.2821H17.2839H17.2857H17.2876H17.2896H17.2916H17.2936H17.2957H17.2978H17.3H17.3023H17.3045H17.3069H17.3092H17.3117H17.3141H17.3166H17.3192H17.3218H17.3245H17.3271H17.3299H17.3327H17.3355H17.3384H17.3413H17.3442H17.3472H17.3503H17.3533H17.3565H17.3596H17.3629H17.3661H17.3694H17.3727H17.3761H17.3795H17.383H17.3865H17.39H17.3936H17.3972H17.4009H17.4046H17.4084H17.4121H17.416H17.4198H17.4237H17.4276H17.4316H17.4356H17.4397H17.4438H17.4479H17.452H17.4562H17.4605H17.4648H17.4691H17.4734H17.4778H17.4822H17.4866H17.4911H17.4957H17.5002H17.5048H17.5094H17.5141H17.5188H17.5235H17.5283H17.5331H17.5379H17.5427H17.5476H17.5526H17.5575H17.5625H17.5675H17.5726H17.5777H17.5828H17.5879H17.5931H17.5983H17.6035H17.6088H17.6141H17.6194H17.6248H17.6302H17.6356H17.641H17.6465H17.652H17.6575H17.6631H17.6687H17.6743H17.6799H17.6856H17.6913H17.697H17.7027H17.7085H17.7143H17.7201H17.726H17.7319H17.7378H17.7437H17.7496H17.7556H17.7616H17.7676H17.7737H17.7798H17.7859H17.792H17.7981H17.8043H17.8105H17.8167H17.8229H17.8292H17.8355H17.8418H17.8481H17.8544H17.8608H17.8672H17.8736H17.88H17.8864H17.8929H17.8994H17.9059H17.9124H17.9189H17.9255H17.9321H17.9387H17.9453H17.9519H17.9586H17.9652H17.9719H17.9786H17.9854H17.9921H17.9988H18.0056H18.0124H18.0192H18.026H18.0329H18.0397H18.0466H18.0535H18.0603H18.0673H18.0742H18.0811H18.0881H18.095H18.102H18.109H18.116H18.123H18.13H18.1371H18.1441H18.1512H18.1583H18.1654H18.1725H18.1796H18.1867H18.1938H18.201H18.2081H18.2153H18.2225H18.2296H18.2368H18.244H18.2512H18.2584H18.2657H18.2729H18.2802H18.2874H18.2947H18.3019H18.3092H18.3165H18.3238H18.3311H18.3384H18.3457H18.353H18.3603H18.3676H18.3749H18.3823H18.3896H18.397H18.4043H18.4117H18.419H18.4264H18.4337H18.4411H18.4485H18.4558H18.4632H18.4706H18.478H18.4854H18.4927H18.5001H18.5075H18.5149H18.5223H18.5297H18.5371H18.5445H18.5519H18.5593H18.5667H18.574H18.5814H18.5888H18.5962H18.6036H18.611H18.6184H18.6258H18.6331H18.6405H18.6479H18.6553H18.6626H18.67H18.6774H18.6847H18.6921H18.6994H18.7068H18.7141H18.7215H18.7288H18.7361H18.7435H18.7508H18.7581H18.7654H18.7727H18.78H18.7873H18.7946H18.8018H18.8091H18.8164H18.8236H18.8309H18.8381H18.8453H18.8526H18.8598H18.867H18.8742H18.8813H18.8885H18.8957H18.9028H18.91H18.9171H18.9242H18.9313H18.9385H18.9455H18.9526H18.9597H18.9667H18.9738H18.9808H18.9878H18.9948H19.0018H19.0088H19.0158H19.0227H19.0297H19.0366H19.0435H19.0504H19.0573H19.0642H19.071H19.0779H19.0847H19.0915H19.0983H19.105H19.1118H19.1185H19.1253H19.132H19.1387H19.1453H19.152H19.1586H19.1653H19.1719H19.1784H19.185H19.1916H19.1981H19.2046H19.2111H19.2175H19.224H19.2304H19.2368H19.2432H19.2496H19.2559H19.2623H19.2686H19.2748H19.2811H19.2873H19.2936H19.2997H19.3059H19.3121H19.3182H19.3243H19.3304H19.3364H19.3425H19.3485H19.3544H19.3604H19.3663H19.3722H19.3781H19.384H19.3898H19.3956H19.4014H19.4072H19.4129H19.4186H19.4242H19.4299H19.4355H19.4411H19.4467H19.4522H19.4577H19.4632H19.4686H19.4741H19.4795H19.4848H19.4902H19.4955H19.5007H19.506H19.5112H19.5164H19.5215H19.5266H19.5317H19.5368H19.5418H19.5468H19.5518H19.5567H19.5616H19.5665H19.5713H19.5761H19.5809H19.5856H19.5903H19.595H19.5996H19.6042H19.6088H19.6133H19.6178H19.6223H19.6267H19.6311H19.6354H19.6398H19.644H19.6483H19.6525H19.6567H19.6608H19.6649H19.6689H19.673H19.6769H19.6809H19.6848H19.6887H19.6925H19.6963H19.7H19.7037H19.7074H19.7111H19.7146H19.7182H19.7217H19.7252H19.7286H19.732H19.7353H19.7386H19.7419H19.7451H19.7483H19.7515H19.7545H19.7576H19.7606H19.7636H19.7665H19.7694H19.7722H19.775H19.7778H19.7805H19.7831H19.7857H19.7883H19.7908H19.7933H19.7957H19.7981H19.8004H19.8027H19.805H19.8072H19.8093H19.8114H19.8135H19.8155H19.8175H19.8194H19.8213H19.8231H19.8248H19.8266H19.8282H19.8299H19.8314H19.8329H19.8344H19.8358H19.8372H19.8385H19.8398H19.841H19.8422H19.8433H19.8444H19.8454H19.8463H19.8472C20.1829 20.609 20.4768 20.4462 20.6768 20.2462C20.8767 20.0462 21.0396 19.7524 21.0396 19.4167V19.4155V19.4143V19.413V19.4117V19.4103V19.4089V19.4074V19.4058V19.4043V19.4026V19.401V19.3992V19.3975V19.3956V19.3938V19.3919V19.3899V19.3879V19.3858V19.3837V19.3816V19.3794V19.3772V19.3749V19.3725V19.3702V19.3678V19.3653V19.3628V19.3602V19.3576V19.355V19.3523V19.3496V19.3468V19.344V19.3411V19.3382V19.3353V19.3323V19.3293V19.3262V19.3231V19.3199V19.3167V19.3135V19.3102V19.3069V19.3035V19.3001V19.2967V19.2932V19.2897V19.2861V19.2825V19.2789V19.2752V19.2715V19.2677V19.264V19.2601V19.2563V19.2524V19.2484V19.2444V19.2404V19.2364V19.2323V19.2281V19.224V19.2198V19.2156V19.2113V19.207V19.2026V19.1983V19.1939V19.1894V19.1849V19.1804V19.1759V19.1713V19.1667V19.162V19.1573V19.1526V19.1479V19.1431V19.1383V19.1335V19.1286V19.1237V19.1187V19.1138V19.1088V19.1037V19.0987V19.0936V19.0885V19.0833V19.0781V19.0729V19.0677V19.0624V19.0571V19.0518V19.0464V19.041V19.0356V19.0302V19.0247V19.0192V19.0137V19.0081V19.0026V18.997V18.9913V18.9857V18.98V18.9743V18.9685V18.9628V18.957V18.9512V18.9453V18.9395V18.9336V18.9277V18.9218V18.9158V18.9098V18.9038V18.8978V18.8917V18.8857V18.8796V18.8734V18.8673V18.8611V18.855V18.8488V18.8425V18.8363V18.83V18.8237V18.8174V18.8111V18.8047V18.7983V18.792V18.7855V18.7791V18.7727V18.7662V18.7597V18.7532V18.7467V18.7401V18.7336V18.727V18.7204V18.7138V18.7072V18.7005V18.6939V18.6872V18.6805V18.6738V18.667V18.6603V18.6535V18.6468V18.64V18.6332V18.6264V18.6195V18.6127V18.6058V18.5989V18.5921V18.5852V18.5782V18.5713V18.5644V18.5574V18.5505V18.5435V18.5365V18.5295V18.5225V18.5155V18.5084V18.5014V18.4943V18.4873V18.4802V18.4731V18.466V18.4589V18.4518V18.4446V18.4375V18.4304V18.4232V18.4161V18.4089V18.4017V18.3945V18.3873V18.3801V18.3729V18.3657V18.3585V18.3513V18.344V18.3368V18.3296V18.3223V18.315V18.3078V18.3005V18.2932V18.286V18.2787V18.2714V18.2641V18.2568V18.2495V18.2422V18.2349V18.2276V18.2203V18.213V18.2057V18.1984V18.191V18.1837V18.1764V18.1691V18.1617V18.1544V18.1471V18.1398V18.1324V18.1251V18.1178V18.1104V18.1031V18.0958V18.0885V18.0811V18.0738V18.0665V18.0592V18.0518V18.0445V18.0372V18.0299V18.0226V18.0153V18.008V18.0007V17.9934V17.9861V17.9788V17.9715V17.9642V17.9569V17.9497V17.9424V17.9351V17.9279V17.9206V17.9134V17.9062V17.8989V17.8917V17.8845V17.8773V17.8701V17.8629V17.8557V17.8485V17.8413V17.8341V17.827V17.8198V17.8127V17.8055V17.7984V17.7913V17.7842V17.7771V17.77V17.7629V17.7559V17.7488V17.7418V17.7347V17.7277V17.7207V17.7137V17.7067V17.6997V17.6928V17.6858V17.6789V17.6719V17.665V17.6581V17.6512V17.6444V17.6375V17.6307V17.6238V17.617V17.6102V17.6034V17.5966V17.5899V17.5831V17.5764V17.5697V17.563V17.5563V17.5497V17.543V17.5364V17.5298V17.5232V17.5166V17.51V17.5035V17.497V17.4905V17.484V17.4775V17.4711V17.4646V17.4582V17.4518V17.4455V17.4391V17.4328V17.4265V17.4202V17.4139V17.4077V17.4014V17.3952V17.389V17.3829V17.3767V17.3706V17.3645V17.3585V17.3524V17.3464V17.3404V17.3344V17.3284V17.3225V17.3166V17.3107V17.3048V17.299V17.2932V17.2874V17.2816V17.2759V17.2702V17.2645V17.2589V17.2532V17.2476V17.242V17.2365V17.231V17.2255V17.22V17.2146V17.2092V17.2038V17.1984V17.1931V17.1878V17.1825V17.1773V17.1721V17.1669V17.1617V17.1566V17.1515V17.1464V17.1414V17.1364V17.1314V17.1265V17.1216V17.1167V17.1119V17.1071V17.1023V17.0975V17.0928V17.0882V17.0835V17.0789V17.0743V17.0698V17.0653V17.0608V17.0563V17.0519V17.0475V17.0432V17.0389V17.0346V17.0304V17.0262V17.022V17.0179V17.0138V17.0098V17.0057V17.0018V16.9978V16.9939V16.9901V16.9862V16.9824V16.9787V16.975V16.9713V16.9676V16.9641V16.9605V16.957V16.9535V16.9501V16.9467V16.9433V16.94V16.9367V16.9335V16.9303V16.9271V16.924V16.9209V16.9179V16.9149V16.912V16.9091V16.9062V16.9034V16.9006V16.8979V16.8952V16.8926V16.89V16.8874V16.8849V16.8824V16.88V16.8776V16.8753V16.873V16.8708V16.8686V16.8664V16.8643V16.8623V16.8603V16.8583V16.8564V16.8545V16.8527V16.8509V16.8492V16.8475V16.8459V16.8443V16.8428V16.8413V16.8399V16.8385V16.8372V16.8359V16.8347V16.8335V16.8323V16.8313V16.8302V16.8292V16.8283V16.8274V16.8266V16.8258V16.8251V16.8244V16.8238V16.8233V16.8227V16.8223V16.8219V16.8215V16.8212V16.821V16.8208V16.8207V16.8205ZM7.39842 5.9167C7.39842 6.46417 6.95134 6.91277 6.39391 6.91277C5.83648 6.91277 5.3894 6.46417 5.3894 5.9167C5.3894 5.36923 5.83648 4.92063 6.39391 4.92063C6.95134 4.92063 7.39842 5.36923 7.39842 5.9167Z" stroke-linecap="round" stroke-linejoin="round"/>
</svg>
