<svg enable-background="new 0 0 512 512" height="512" viewBox="0 0 512 512" width="512" xmlns="http://www.w3.org/2000/svg"><path d="m454.863 136.244-88.935 88.932-79.108-79.11 88.932-88.932c13.973-13.973 17.322-33.232 3.377-47.206-13.975-13.945-33.26-10.597-47.205 3.349l-88.933 88.932-41.396-41.396c-11.067-11.039-28.944-11.039-39.956 0-10.708 10.682-11.012 27.837-.912 38.905-6.062 5.866-17.129 16.795-19.646 19.314-73.685 73.688-93.278 177.256-52.657 248.977l-75.928 75.984c-15.329 15.328-15.329 40.176 0 55.506 15.332 15.354 40.177 15.328 55.535 0l75.956-75.955c71.72 40.646 175.29 21.057 248.975-52.603 2.521-2.545 13.449-13.612 19.316-19.646 11.066 10.045 28.223 9.769 38.9-.938 11.068-11.015 11.068-28.89 0-39.93l-41.395-41.423 88.932-88.932c13.947-13.945 17.295-33.231 3.352-47.205-13.971-13.944-33.233-10.597-47.204 3.377z"/></svg>