<svg enable-background="new 0 0 512 512" height="512" viewBox="0 0 512 512" width="512" xmlns="http://www.w3.org/2000/svg"><path d="m261.876.075c.124.014.362.041.752.083-.192-.021-.56-.062-.752-.083z"/><path d="m480 416c-34.648-31.232-163.331-36.213-160-96 3.335-59.791 19.857-70.926 32-96 1.972-4.071 15.663-28.245 10.249-40.952-12.085-28.127-2.001-54.251 4.999-85.376 5.208-23.042-13.334-44.125-13.334-44.125s-32.662-48-91.162-53.375c-1.121-.124-3.94-.176-6.752-.172-2.813-.005-5.631.047-6.752.171-58.5 5.375-91.162 53.375-91.162 53.375s-18.542 21.083-13.334 44.125c7 31.125 17.084 57.249 4.999 85.376-5.414 12.708 8.277 36.882 10.249 40.953 12.143 25.074 28.665 36.209 32 96 3.331 59.787-125.352 64.768-160 96-18.79 16.938-32 96-32 96h256 256s-13.21-79.062-32-96z"/><path d="m249.372.158c.39-.043.628-.069.752-.083-.192.021-.56.062-.752.083z"/></svg>