<?xml version="1.0" encoding="utf-8"?>
<!-- Generator: Adobe Illustrator 16.0.4, SVG Export Plug-In . SVG Version: 6.00 Build 0)  -->
<!DOCTYPE svg PUBLIC "-//W3C//DTD SVG 1.1//EN" "http://www.w3.org/Graphics/SVG/1.1/DTD/svg11.dtd">
<svg version="1.1" id="Layer_1" xmlns="http://www.w3.org/2000/svg" xmlns:xlink="http://www.w3.org/1999/xlink" x="0px" y="0px"
	 width="512px" height="512px" viewBox="0 0 512 512" enable-background="new 0 0 512 512" xml:space="preserve">
<g display="none" opacity="0.3">
	<line display="inline" fill="none" stroke="#B35047" x1="48" y1="0" x2="48" y2="512"/>
	<line display="inline" fill="none" stroke="#B35047" x1="80" y1="0" x2="80" y2="512"/>
	<line display="inline" fill="none" stroke="#B35047" x1="112" y1="0" x2="112" y2="512"/>
	<line display="inline" fill="none" stroke="#B35047" x1="144" y1="0" x2="144" y2="512"/>
	<line display="inline" fill="none" stroke="#B35047" x1="176" y1="0" x2="176" y2="512"/>
	<line display="inline" fill="none" stroke="#B35047" x1="208" y1="0" x2="208" y2="512"/>
	<line display="inline" fill="none" stroke="#B35047" x1="240" y1="0" x2="240" y2="512"/>
	<line display="inline" fill="none" stroke="#B35047" x1="272" y1="0" x2="272" y2="512"/>
	<line display="inline" fill="none" stroke="#B35047" x1="304" y1="0" x2="304" y2="512"/>
	<line display="inline" fill="none" stroke="#B35047" x1="336" y1="0" x2="336" y2="512"/>
	<line display="inline" fill="none" stroke="#B35047" x1="368" y1="0" x2="368" y2="512"/>
	<line display="inline" fill="none" stroke="#B35047" x1="400" y1="0" x2="400" y2="512"/>
	<line display="inline" fill="none" stroke="#B35047" x1="432" y1="0" x2="432" y2="512"/>
	<line display="inline" fill="none" stroke="#B35047" x1="464" y1="0" x2="464" y2="512"/>
	<line display="inline" fill="none" stroke="#B35047" x1="496" y1="0" x2="496" y2="512"/>
	<line display="inline" fill="none" stroke="#B35047" x1="0" y1="48" x2="512" y2="48"/>
	<line display="inline" fill="none" stroke="#B35047" x1="0" y1="80" x2="512" y2="80"/>
	<line display="inline" fill="none" stroke="#B35047" x1="0" y1="112" x2="512" y2="112"/>
	<line display="inline" fill="none" stroke="#B35047" x1="0" y1="144" x2="512" y2="144"/>
	<line display="inline" fill="none" stroke="#B35047" x1="0" y1="176" x2="512" y2="176"/>
	<line display="inline" fill="none" stroke="#B35047" x1="0" y1="208" x2="512" y2="208"/>
	<line display="inline" fill="none" stroke="#B35047" x1="0" y1="240" x2="512" y2="240"/>
	<line display="inline" fill="none" stroke="#B35047" x1="0" y1="272" x2="512" y2="272"/>
	<line display="inline" fill="none" stroke="#B35047" x1="0" y1="304" x2="512" y2="304"/>
	<line display="inline" fill="none" stroke="#B35047" x1="0" y1="336" x2="512" y2="336"/>
	<line display="inline" fill="none" stroke="#B35047" x1="0" y1="368" x2="512" y2="368"/>
	<line display="inline" fill="none" stroke="#B35047" x1="0" y1="400" x2="512" y2="400"/>
	<line display="inline" fill="none" stroke="#B35047" x1="0" y1="432" x2="512" y2="432"/>
	<line display="inline" fill="none" stroke="#B35047" x1="0" y1="464" x2="512" y2="464"/>
	<line display="inline" fill="none" stroke="#B35047" x1="0" y1="496" x2="512" y2="496"/>
	<line display="inline" fill="none" stroke="#B35047" x1="0" y1="16" x2="512" y2="16"/>
	<line display="inline" fill="none" stroke="#B35047" x1="16" y1="0" x2="16" y2="512"/>
</g>
<g display="none">
	<line display="inline" fill="none" stroke="#B35047" x1="32" y1="0" x2="32" y2="512"/>
	<line display="inline" fill="none" stroke="#B35047" x1="64" y1="0" x2="64" y2="512"/>
	<line display="inline" fill="none" stroke="#B35047" x1="96" y1="0" x2="96" y2="512"/>
	<line display="inline" fill="none" stroke="#B35047" x1="128" y1="0" x2="128" y2="512"/>
	<line display="inline" fill="none" stroke="#B35047" x1="160" y1="0" x2="160" y2="512"/>
	<line display="inline" fill="none" stroke="#B35047" x1="192" y1="0" x2="192" y2="512"/>
	<line display="inline" fill="none" stroke="#B35047" x1="224" y1="0" x2="224" y2="512"/>
	<line display="inline" fill="none" stroke="#B35047" x1="256" y1="0" x2="256" y2="512"/>
	<line display="inline" fill="none" stroke="#B35047" x1="288" y1="0" x2="288" y2="512"/>
	<line display="inline" fill="none" stroke="#B35047" x1="320" y1="0" x2="320" y2="512"/>
	<line display="inline" fill="none" stroke="#B35047" x1="352" y1="0" x2="352" y2="512"/>
	<line display="inline" fill="none" stroke="#B35047" x1="384" y1="0" x2="384" y2="512"/>
	<line display="inline" fill="none" stroke="#B35047" x1="416" y1="0" x2="416" y2="512"/>
	<line display="inline" fill="none" stroke="#B35047" x1="448" y1="0" x2="448" y2="512"/>
	<line display="inline" fill="none" stroke="#B35047" x1="480" y1="0" x2="480" y2="512"/>
	<line display="inline" fill="none" stroke="#B35047" x1="0" y1="32" x2="512" y2="32"/>
	<line display="inline" fill="none" stroke="#B35047" x1="0" y1="64" x2="512" y2="64"/>
	<line display="inline" fill="none" stroke="#B35047" x1="0" y1="96" x2="512" y2="96"/>
	<line display="inline" fill="none" stroke="#B35047" x1="0" y1="128" x2="512" y2="128"/>
	<line display="inline" fill="none" stroke="#B35047" x1="0" y1="160" x2="512" y2="160"/>
	<line display="inline" fill="none" stroke="#B35047" x1="0" y1="192" x2="512" y2="192"/>
	<line display="inline" fill="none" stroke="#B35047" x1="0" y1="224" x2="512" y2="224"/>
	<line display="inline" fill="none" stroke="#B35047" x1="0" y1="256" x2="512" y2="256"/>
	<line display="inline" fill="none" stroke="#B35047" x1="0" y1="288" x2="512" y2="288"/>
	<line display="inline" fill="none" stroke="#B35047" x1="0" y1="320" x2="512" y2="320"/>
	<line display="inline" fill="none" stroke="#B35047" x1="0" y1="352" x2="512" y2="352"/>
	<line display="inline" fill="none" stroke="#B35047" x1="0" y1="384" x2="512" y2="384"/>
	<line display="inline" fill="none" stroke="#B35047" x1="0" y1="416" x2="512" y2="416"/>
	<line display="inline" fill="none" stroke="#B35047" x1="0" y1="448" x2="512" y2="448"/>
	<line display="inline" fill="none" stroke="#B35047" x1="0" y1="480" x2="512" y2="480"/>
	<rect display="inline" fill="none" stroke="#B35047" width="512" height="512"/>
</g>
<g>
	<path d="M261.876,0.075c0.124,0.014,0.362,0.041,0.752,0.083C262.436,0.137,262.068,0.096,261.876,0.075z"/>
	<path d="M480,416c-34.648-31.232-163.331-36.213-160-96c3.335-59.791,19.857-70.926,32-96c1.972-4.071,15.663-28.245,10.249-40.952
		c-12.085-28.127-2.001-54.251,4.999-85.376c5.208-23.042-13.334-44.125-13.334-44.125s-32.662-48-91.162-53.375
		C261.631,0.048,258.812-0.004,256,0c-2.813-0.005-5.631,0.047-6.752,0.171c-58.5,5.375-91.162,53.375-91.162,53.375
		s-18.542,21.083-13.334,44.125c7,31.125,17.084,57.249,4.999,85.376C144.337,195.755,158.028,219.929,160,224
		c12.143,25.074,28.665,36.209,32,96c3.331,59.787-125.352,64.768-160,96c-18.79,16.938-32,96-32,96h256h256
		C512,512,498.79,432.938,480,416z"/>
	<path d="M249.372,0.158c0.39-0.043,0.628-0.069,0.752-0.083C249.932,0.096,249.564,0.137,249.372,0.158z"/>
</g>
</svg>
