<svg viewBox="0 0 12 14" xmlns="http://www.w3.org/2000/svg"><g><path d="m9.992 5h-7.983c-1.107 0-2.01.894-2.01 1.997v5.01c0 1.101.899 1.997 2.01 1.997h7.983c1.107 0 2.01-.894 2.01-1.997v-5.01c0-1.101-.9-1.997-2.01-1.997m-.001 1.5c.28 0 .509.223.509.497v5.01c0 .274-.229.497-.509.497h-7.983c-.28 0-.508-.223-.508-.497v-5.01c0-.274.228-.497.508-.497h7.983"/><path d="m10 5h-1.6v-1.062c0-1.3-1.076-2.359-2.4-2.359-1.324 0-2.4 1.059-2.4 2.359v1.062h-1.6v-1.062c0-2.171 1.794-3.938 4-3.938 2.206 0 4 1.767 4 3.938v1.062" /></g></svg>
