<svg xmlns="http://www.w3.org/2000/svg" viewBox="0 0 11 15"><path d="M8.6328125 14.703125c.96875 0 1.4453125-.4765625 1.4453125-1.53125V7.7109375c0-.9453125-.390625-1.4296875-1.1953125-1.5078125V4.3515625c0-2.7890625-1.84375-4.140625-3.78125-4.140625C3.15625.2109375 1.3125 1.5625 1.3125 4.3515625V6.234375c-.7421875.1171875-1.1953125.59375-1.1953125 1.4765625v5.4609375c0 1.0546875.4765625 1.53125 1.4453125 1.53125h7.0703125zm-6.0546875-8.5v-2c0-1.8125 1.15625-2.78125 2.5234375-2.78125 1.359375 0 2.515625.96875 2.515625 2.78125V6.1875l-5.0390625.015625z" fill="#000000" fill-rule="nonzero"/></svg>