<svg width="140px" height="37px" enable-background="new 0 0 165.828 33.026" viewBox="0 0 165.828 33.026" xmlns="http://www.w3.org/2000/svg">
  <g fill="#fff">
    <path
        d="m12.105 21.305c-1.146-1.331-2.549-2.043-4.269-2.043-2.802 0-4.967 2.529-4.967 5.325 0 3.121 2.132 5.394 5.16 5.394 1.656 0 2.995-.78 4.076-2.009v3.734c-1.304.716-2.612 1.01-4.109 1.01-4.397-.001-7.996-3.442-7.996-7.996 0-4.708 3.566-8.188 8.156-8.188 1.335 0 2.802.325 3.948 1.008v3.765"/>
    <path
        d="m19.908 24.623c0 2.863 2.264 5.296 5.099 5.296 2.837 0 5.094-2.433 5.094-5.296 0-2.896-2.257-5.299-5.094-5.299-2.835 0-5.099 2.402-5.099 5.299m13.064 0c0 4.587-3.506 8.091-7.966 8.091s-7.961-3.509-7.961-8.091c0-4.585 3.502-8.093 7.961-8.093 4.457 0 7.966 3.508 7.966 8.093"/>
    <path d="m43.865 26.473 4.299-9.493h3.218l-7.517 15.734-7.485-15.729h3.216z"/>
    <path
        d="m66.353 22.868c-.347-2.277-1.814-3.8-4.111-3.8-2.227 0-3.885 1.615-4.241 3.8zm-8.503 2.205c.026 2.607 1.751 5.04 4.49 5.04 2.199 0 3.378-1.138 4.462-2.96l2.42 1.399c-1.404 2.633-4.013 4.161-6.912 4.161-4.557 0-7.325-3.511-7.325-7.996 0-4.679 2.451-8.186 7.262-8.186 4.748 0 6.98 3.575 6.98 8.091v.453z"/>
    <path
        d="m76.388 24.623c0 2.863 2.262 5.296 5.097 5.296 2.839 0 5.097-2.433 5.097-5.296 0-2.896-2.258-5.299-5.097-5.299-2.835 0-5.097 2.402-5.097 5.299m13.062 0c0 4.587-3.504 8.091-7.966 8.091-4.457 0-7.961-3.509-7.961-8.091 0-4.585 3.504-8.093 7.961-8.093 4.462 0 7.966 3.508 7.966 8.093"/>
  </g>
  <path d="m68.267 7.36-12.365-7.36v14.509z" fill="#f58020"/>
  <path d="m99.767 17.858h1v15h-1z" fill="#bcc3ca"/>
  <path
      d="m123.252 29.749c.111 0 .21.046.294.137l.809.872c-.616.714-1.363 1.271-2.241 1.669-.879.399-1.941.599-3.188.599-1.078 0-2.058-.188-2.939-.562-.883-.375-1.635-.899-2.258-1.575s-1.105-1.485-1.449-2.431c-.343-.945-.514-1.984-.514-3.118 0-1.135.178-2.174.535-3.119.357-.944.859-1.757 1.506-2.436.648-.679 1.424-1.206 2.326-1.58.903-.375 1.9-.562 2.992-.562 1.072 0 2.017.172 2.836.515.818.343 1.539.809 2.162 1.396l-.672.935c-.041.07-.096.128-.162.174-.066.045-.156.067-.268.067-.127 0-.28-.067-.463-.204-.182-.137-.42-.289-.713-.457-.295-.168-.662-.32-1.104-.457-.44-.136-.983-.204-1.627-.204-.777 0-1.488.135-2.132.404s-1.198.659-1.664 1.17c-.466.512-.827 1.135-1.087 1.869-.259.735-.389 1.564-.389 2.489 0 .938.135 1.774.404 2.509.27.735.637 1.356 1.103 1.864s1.015.895 1.649 1.16c.633.266 1.316.398 2.053.398.447 0 .852-.025 1.212-.078s.693-.135.997-.247c.305-.111.588-.254.852-.425.262-.172.523-.377.781-.614.12-.105.239-.158.359-.158z"
      fill="#f58020"/>
  <path d="m128.753 17.391v15.467h-1.869v-15.467z" fill="#f58020"/>
  <path
      d="m136.806 22.053c.777 0 1.478.13 2.101.389s1.155.627 1.597 1.103c.44.477.777 1.052 1.013 1.728.234.676.352 1.43.352 2.263 0 .84-.117 1.596-.352 2.268s-.572 1.246-1.013 1.722c-.441.477-.974.843-1.597 1.098-.623.256-1.323.384-2.101.384-.783 0-1.488-.128-2.115-.384-.627-.255-1.16-.621-1.602-1.098-.44-.476-.778-1.05-1.013-1.722s-.353-1.428-.353-2.268c0-.833.117-1.587.353-2.263.234-.676.572-1.251 1.013-1.728.441-.476.975-.844 1.602-1.103s1.332-.389 2.115-.389zm0 9.492c1.051 0 1.834-.352 2.353-1.056.519-.703.776-1.685.776-2.945 0-1.267-.258-2.253-.776-2.961-.519-.706-1.302-1.061-2.353-1.061-.531 0-.995.092-1.391.273-.396.183-.725.444-.986.787-.264.344-.459.766-.589 1.266-.13.501-.194 1.065-.194 1.695 0 1.261.261 2.242.783 2.945.521.706 1.314 1.057 2.377 1.057z"
      fill="#f58020"/>
  <path
      d="m153.523 22.221v10.637h-1.113c-.267 0-.435-.13-.504-.389l-.147-1.145c-.462.512-.979.923-1.554 1.234-.574.311-1.232.467-1.975.467-.58 0-1.094-.097-1.537-.289-.445-.192-.818-.463-1.119-.813s-.527-.773-.678-1.271-.225-1.046-.225-1.648v-6.783h1.869v6.783c0 .805.184 1.428.551 1.869.367.44.93.661 1.686.661.553 0 1.068-.131 1.549-.394.479-.263.922-.625 1.328-1.087v-7.833h1.869z"
      fill="#f58020"/>
  <path
      d="m165.828 17.391v15.467h-1.112c-.267 0-.435-.13-.504-.389l-.168-1.291c-.455.546-.974.986-1.554 1.322-.582.336-1.254.505-2.017.505-.608 0-1.162-.118-1.659-.353-.496-.234-.92-.579-1.27-1.034-.351-.455-.62-1.021-.809-1.701-.189-.679-.284-1.459-.284-2.341 0-.784.104-1.514.315-2.189.21-.676.511-1.262.902-1.759.393-.497.873-.888 1.444-1.171.57-.283 1.212-.425 1.927-.425.65 0 1.209.11 1.674.33.467.221.881.527 1.245.919v-5.891h1.87zm-1.868 7.36c-.351-.469-.728-.796-1.134-.981s-.861-.278-1.365-.278c-.987 0-1.746.354-2.279 1.061-.531.707-.797 1.715-.797 3.024 0 .692.059 1.286.178 1.779.119.494.295.899.525 1.218s.515.552.851.698c.336.147.718.221 1.145.221.616 0 1.153-.14 1.611-.42.458-.279.88-.675 1.266-1.187v-5.135z"
      fill="#f58020"/>
</svg>
