<svg height="37" viewBox="0 0 100 37" width="100" xmlns="http://www.w3.org/2000/svg"><g fill="none" fill-rule="evenodd"><g fill="#fff"><path d="m90.9596429 18.5769307c-4.9696429 0-8.8771429 3.9326238-8.8771429 9.0734257 0 5.1371386 3.9075 9.0715941 8.8771429 9.0715941 4.9757142 0 8.8825-3.9282277 8.8825-9.0715941 0-5.1408019-3.9071429-9.0734257-8.8825-9.0734257zm0 15.0117426c-3.1603572 0-5.6832143-2.7281089-5.6832143-5.9383169 0-3.2475742 2.5228571-5.9408812 5.6832143-5.9408812 3.1657142 0 5.6839285 2.693307 5.6839285 5.9408812 0 3.2098416-2.5182143 5.9383169-5.6839285 5.9383169z"/><path d="m69.5082143 18.578396c-5.3642857 0-8.0975 3.9311585-8.0975 9.1778317 0 5.0294357 3.0860714 8.9657228 8.1675 8.9657228 3.2328571 0 6.1414286-1.7137228 7.7078571-4.6649307l-2.6996428-1.5686535c-1.2075 2.0419604-2.5221429 3.3186436-4.975 3.3186436-3.0539286 0-4.9778572-2.7281089-5.0064286-5.6511089l12.6857143.0025643v-.5077425c.0003571-5.064604-2.4889286-9.0723268-7.7825-9.0723268zm-4.7342857 7.1036337c.3967857-2.4500594 2.2453571-4.260495 4.7289285-4.260495 2.5617858 0 4.1967858 1.7071287 4.5835715 4.260495z"/><path d="m49.0107143 29.7241881-4.7603572-10.6373168h-3.5857142l8.3460714 17.6347129 8.3821428-17.6409406h-3.5882142z"/><path d="m27.9817857 18.5769307c-4.9728571 0-8.8771428 3.9326238-8.8771428 9.0734257 0 5.1371386 3.9046428 9.0715941 8.8771428 9.0715941s8.8825-3.9282277 8.8825-9.0715941c0-5.1408019-3.9125-9.0734257-8.8825-9.0734257zm0 15.0117426c-3.1607143 0-5.6857143-2.7281089-5.6857143-5.9383169 0-3.2475742 2.525-5.9408812 5.6857143-5.9408812 3.1628572 0 5.6807143 2.693307 5.6807143 5.9408812 0 3.2098416-2.5175 5.9383169-5.6807143 5.9383169z"/><path d="m.0975 27.7587921c0 5.1063663 4.01357143 8.9649901 8.91607143 8.9649901 1.66964287 0 3.12749997-.3300693 4.58178567-1.1330792v-4.1861287c-1.2057142 1.377792-2.6989285 2.2526039-4.54499996 2.2526039-3.37607143 0-5.75392857-2.5482376-5.75392857-6.0478515 0-3.1351089 2.41428572-5.9705544 5.53857143-5.9705544 1.9189286 0 3.4821429.7982475 4.7603571 2.2903366v-4.220198c-1.2782142-.7660099-2.9142857-1.1305149-4.40249996-1.1305149-5.11857143 0-9.09535714 3.9018515-9.09535714 9.1803961z"/></g><path d="m76.2207143 8.2949604-13.7875-8.25173268v16.26754458z" fill="#f58025"/></g></svg>