<svg viewBox="0 0 104 104" fill="none" xmlns="http://www.w3.org/2000/svg">
    <path d="M88.91 15.003C79.9591 6.10373 68.4938 1.10413 56.7269.00422152 55.3189-.0957704 54.5143 1.60409 55.52 2.60401L74.327 21.3025c.1006.1 0 .3-.2011.2-5.4309-3.8997-11.5658-6.0995-17.9019-6.6995-1.0057-.1-1.5085 1.0999-.8045 1.7999l12.8732 12.7989c.1006.1 0 .3-.2012.2-3.52-2.3998-7.5429-3.7997-11.6663-4.1996-.704-.1-1.1063.7999-.6034 1.1999l21.8241 21.6982c.5029.5 1.3074.1 1.2069-.5999-.4023-4.0997-1.8103-8.0994-4.2241-11.5991-.1005-.1.1006-.3.2012-.2l12.3703 12.299c.704.7 1.9109.1 1.8103-.7999-.5028-6.1995-2.7154-12.399-6.6377-17.6986-.1006-.1.1006-.3.2011-.2l18.8071 18.6985c1.006.9999 2.715.2 2.615-1.2999-1.107-11.599-6.1351-22.9981-15.086-31.8974z" fill="#00ADFF"/>
    <path d="M15.0901 15.003C24.041 6.10373 35.5062 1.10413 47.2731.00422152 48.6811-.0957704 49.4857 1.60409 48.48 2.60401L29.673 21.3025c-.1006.1 0 .3.2011.2 5.4309-3.8997 11.5658-6.0995 17.9019-6.6995 1.0057-.1 1.5085 1.0999.8045 1.7999L35.7073 29.4018c-.1005.1 0 .3.2012.2 3.52-2.3998 7.5429-3.7997 11.6663-4.1996.704-.1 1.1063.7999.6035 1.1999L26.3541 48.4003c-.5028.5-1.3074.1-1.2068-.6.4022-4.0996 1.8103-8.0993 4.224-11.599.1006-.1-.1006-.3-.2012-.2l-12.3703 12.299c-.704.6999-1.9109.1-1.8103-.7999.6034-6.2995 2.816-12.499 6.7383-17.7986.1006-.1-.1006-.3-.2011-.2L2.61912 48.2003c-1.00572.9999-2.715446.2-2.61487399-1.2999C1.11054 35.3014 6.13914 23.9023 15.0901 15.003z" fill="#F05245"/>
    <path d="M15.0901 88.997c8.9509 8.8993 20.4161 13.899 32.183 14.999 1.408.1 2.2126-1.6 1.2069-2.6L29.673 82.6975c-.1006-.1 0-.3.2011-.2 5.4309 3.8997 11.5658 6.0995 17.9019 6.6995 1.0057.1 1.5085-1.0999.8045-1.7999L35.7073 74.5982c-.1005-.1 0-.3.2012-.2 3.52 2.3998 7.5429 3.7997 11.6663 4.1996.704.1 1.1063-.7999.6035-1.1999L26.3541 55.5997c-.5028-.5-1.3074-.1-1.2068.6.4022 4.0996 1.8103 8.0993 4.224 11.599.1006.1-.1006.3-.2012.2l-12.3703-12.299c-.704-.6999-1.9109-.1-1.8103.7999.6034 6.2995 2.816 12.499 6.7383 17.7986.1006.1-.1006.3-.2011.2L2.61912 55.7997c-1.00572-.9999-2.715446-.2-2.61487399 1.2999C1.11054 68.6986 6.13914 80.0977 15.0901 88.997z" fill="#1CEBCF"/>
    <path d="M88.91 88.997c-8.9509 8.8993-20.4162 13.899-32.1831 14.999-1.408.1-2.2126-1.6-1.2069-2.6l18.807-18.6985c.1006-.1 0-.3-.2011-.2-5.4309 3.8997-11.5658 6.0995-17.9019 6.6995-1.0057.0999-1.5085-1.1-.8045-1.7999l12.8732-12.799c.1006-.1 0-.2999-.2012-.1999-3.52 2.3998-7.5429 3.7996-11.6663 4.1996-.704.1-1.1063-.7999-.6034-1.1999l21.8241-21.6982c.5029-.5 1.3074-.1 1.2069.5999-.4023 4.0997-1.8103 8.0994-4.2241 11.5991-.1005.1.1006.3.2012.2l12.3703-12.299c.704-.7 1.9109-.1 1.8103.7999-.5028 6.1995-2.7154 12.399-6.6377 17.7986-.1006.0999.1006.2999.2011.1999l18.8071-18.6984c1.006-1 2.715-.2 2.615 1.2999-1.107 11.499-6.1351 22.8981-15.086 31.7974z" fill="#FFE300"/>
</svg>