<svg viewBox="0 0 247 24" xmlns="http://www.w3.org/2000/svg"><path d="m90.552 19.744-1.8-4.664c-.0533336-.1386674-.109333-.2999991-.168-.484s-.1146664-.379999-.168-.588c-.1120006.4320022-.2266661.7919986-.344 1.08l-1.8 4.656zm3.232 4.256h-1.2c-.1386674 0-.2506662-.0346663-.336-.104s-.1493331-.1573328-.192-.264l-1.072-2.768h-5.144l-1.072 2.768c-.0320002.0960005-.0933329.181333-.184.256s-.202666.112-.336.112h-1.2l4.584-11.464h1.568zm6.28-6.176c-.266668-.3573351-.5546651-.606666-.864-.748s-.6559981-.212-1.04-.212c-.7520038 0-1.3306646.2693306-1.736.808s-.608 1.3066617-.608 2.304c0 .5280026.0453329.9799981.136 1.356s.2239991.6853321.4.928.3919987.4199994.648.532.546665.168.872.168c.4693357 0 .8786649-.1066656 1.228-.32s.6706652-.5146647.964-.904zm1.424-5.608v11.784h-.848c-.202668 0-.330666-.0986657-.384-.296l-.128-.984c-.3466684.4160021-.7413311.7519987-1.184 1.008s-.9546638.384-1.536.384c-.4640023 0-.8853314-.0893324-1.264-.268s-.701332-.4413316-.968-.788-.4719993-.7786641-.616-1.296-.216-1.1119966-.216-1.784c0-.5973363.0799992-1.1533308.24-1.668s.3893318-.9613314.688-1.34.6653312-.6759989 1.1-.892.9239973-.324 1.468-.324c.4960025 0 .9213316.0839992 1.276.252s.6706653.4013318.948.7v-4.488zm2.256 11.784v-8.104h.856c.202668 0 .328.0986657.376.296l.104.832c.298668-.3680018.634665-.6693322 1.008-.904s.805331-.352 1.296-.352c.544003 0 .985332.1519985 1.324.456s.582666.7146641.732 1.232c.117334-.2933348.267999-.5466656.452-.76s.390666-.3893326.62-.528.473332-.2399997.732-.304.521332-.096.788-.096c.426669 0 .806665.0679993 1.14.204s.615999.3346654.848.596.409333.5826648.532.964.184.8173309.184 1.308v5.16h-1.432v-5.16c0-.6346698-.138665-1.1159984-.416-1.444s-.677331-.492-1.2-.492c-.234668 0-.457332.0413329-.668.124s-.395999.2039992-.556.364-.286666.3613321-.38.604-.14.5239984-.14.844v5.16h-1.432v-5.16c0-.6506699-.130665-1.1359984-.392-1.456s-.642664-.48-1.144-.48c-.352002 0-.677332.0946657-.976.284s-.573332.446665-.824.772v6.04zm14.664-8.104v8.104h-1.424v-8.104zm.304-2.544c0 .1386674-.028.2679994-.084.388s-.130666.2266662-.224.32-.202666.1666664-.328.22-.257333.08-.396.08-.267999-.0266664-.388-.08-.225333-.1266662-.316-.22-.162666-.1999994-.216-.32-.08-.2493326-.08-.388.026666-.270666.08-.396.125333-.2346662.216-.328.195999-.1666664.316-.22.249333-.08.388-.08.270666.0266664.396.08.234666.1266662.328.22.168.202666.224.328.084.2573326.084.396zm3.376 3.72c.176001-.1973343.362666-.3759992.56-.536s.406666-.2973328.628-.412.455999-.2026664.704-.264.515999-.092.804-.092c.442669 0 .833332.0733326 1.172.22s.621332.3546653.848.624.398666.5933314.516.972.176.797331.176 1.256v5.16h-1.432v-5.16c0-.6133364-.139999-1.0893316-.42-1.428s-.70533-.508-1.276-.508c-.421335 0-.814665.1013323-1.18.304s-.702665.4773316-1.012.824v5.968h-1.432v-8.104h.856c.202668 0 .328.0986657.376.296zm9.088-1.176v8.104h-1.424v-8.104zm.304-2.544c0 .1386674-.028.2679994-.084.388s-.130666.2266662-.224.32-.202666.1666664-.328.22-.257333.08-.396.08-.267999-.0266664-.388-.08-.225333-.1266662-.316-.22-.162666-.1999994-.216-.32-.08-.2493326-.08-.388.026666-.270666.08-.396.125333-.2346662.216-.328.195999-.1666664.316-.22.249333-.08.388-.08.270666.0266664.396.08.234666.1266662.328.22.168.202666.224.328.084.2573326.084.396zm6.752 3.88c-.064.1173339-.162666.176-.296.176-.08 0-.170666-.029333-.272-.088s-.225333-.1239996-.372-.196-.321332-.1386664-.524-.2-.442665-.092-.72-.092c-.240001 0-.455999.0306664-.648.092s-.355999.1453328-.492.252-.24.230666-.312.372-.108.2946658-.108.46c0 .208001.059999.3813326.18.52s.278666.2586662.476.36.421332.1906663.672.268.507999.1599996.772.248.521332.1853328.772.292.474666.2399992.672.4.355999.3559988.476.588.18.510665.18.836c0 .3733352-.066666.7186651-.2 1.036s-.330665.5919988-.592.824-.581331.414666-.96.548-.815998.2-1.312.2c-.565336 0-1.077331-.0919991-1.536-.276s-.847998-.4199986-1.168-.708l.336-.544c.042667-.0693337.093333-.1226665.152-.16s.133333-.056.224-.056c.096 0 .197333.037333.304.112s.235999.1573329.388.248.337332.173333.556.248.490665.112.816.112c.277335 0 .519999-.0359996.728-.108s.381333-.1693327.52-.292.241333-.2639992.308-.424.1-.3306658.1-.512c0-.2240011-.059999-.4093326-.18-.556s-.278666-.2719995-.476-.376-.422665-.1946663-.676-.272-.511999-.1586662-.776-.244-.522665-.1826661-.776-.292-.478666-.2466658-.676-.412-.355999-.3693321-.476-.612-.18-.5373316-.18-.884c0-.3093349.063999-.6066652.192-.892s.314665-.5359989.56-.752.546665-.3879994.904-.516.765331-.192 1.224-.192c.533336 0 1.011998.0839992 1.436.252s.790665.3986652 1.1.692zm4.696 6.896c-.640003 0-1.131998-.1786649-1.476-.536s-.516-.8719966-.516-1.544v-4.96h-.976c-.085334 0-.157333-.0253331-.216-.076s-.088-.1293328-.088-.236v-.568l1.328-.168.328-2.504c.016-.0800004.052-.1453331.108-.196s.129333-.076.22-.076h.72v2.792h2.344v1.032h-2.344v4.864c0 .341335.082666.5946658.248.76s.378665.248.64.248c.149334 0 .278666-.0199998.388-.06s.204-.0839998.284-.132.148-.0919998.204-.132.105333-.06.148-.06c.074667 0 .141333.0453329.2.136l.416.68c-.245335.2293345-.541332.4093327-.888.54s-.703998.196-1.072.196zm4.6-6.608c.256001-.5546694.570665-.9879984.944-1.3s.829331-.468 1.368-.468c.170668 0 .334666.0186665.492.056s.297333.0959996.42.176l-.104 1.064c-.032.133334-.111999.2-.24.2-.074667 0-.183999-.0159998-.328-.048s-.306666-.048-.488-.048c-.256001 0-.483999.037333-.684.112s-.378666.1853326-.536.332-.298666.3279989-.424.544-.238666.4626653-.34.74v5.12h-1.432v-8.104h.816c.154667 0 .261333.029333.32.088s.098667.1599993.12.304zm8.736 2.832c-.656003.0213334-1.214664.0733329-1.676.156s-.837332.190666-1.128.324-.501333.2906658-.632.472-.196.3839989-.196.608c0 .2133344.034666.3973326.104.552s.163999.2813328.284.38.261333.1706664.424.216.337332.068.524.068c.250668 0 .479999-.0253331.688-.076s.403999-.1239995.588-.22.359999-.210666.528-.344.331999-.2853325.492-.456zm-4.6-3.312c.448002-.4320022.930664-.7546656 1.448-.968s1.090664-.32 1.72-.32c.453336 0 .855998.0746659 1.208.224s.647999.357332.888.624.421333.5893314.544.968.184.7946644.184 1.248v5.184h-.632c-.138667 0-.245333-.0226664-.32-.068s-.133333-.134666-.176-.268l-.16-.768c-.213334.1973343-.421332.3719992-.624.524s-.415999.2799995-.64.384-.462665.1839997-.716.24-.534665.084-.844.084c-.314668 0-.610665-.0439996-.888-.132s-.518666-.2199991-.724-.396-.367999-.3986653-.488-.668-.18-.5879982-.18-.956c0-.3200016.087999-.6279985.264-.924s.461331-.5586655.856-.788.90933-.4173326 1.544-.564 1.413329-.2306666 2.336-.252v-.632c0-.6293365-.135999-1.1053317-.408-1.428s-.669331-.484-1.192-.484c-.352002 0-.646665.0439996-.884.132s-.442666.1866661-.616.296-.322666.2079996-.448.296-.249333.132-.372.132c-.096 0-.178666-.0253331-.248-.076s-.128-.113333-.176-.188zm15.576 6.96h-1.424v-6.912h-4.176v4.864c0 .341335.082666.5946658.248.76s.378665.248.64.248c.149334 0 .278666-.0199998.388-.06s.204-.0839998.284-.132.148-.0919998.204-.132.105333-.06.148-.06c.074667 0 .141333.0453329.2.136l.416.68c-.245335.2293345-.541332.4093327-.888.54s-.703998.196-1.072.196c-.640003 0-1.131998-.1786649-1.476-.536s-.516-.8719966-.516-1.544v-4.96h-.976c-.085334 0-.157333-.0253331-.216-.076s-.088-.1293328-.088-.236v-.568l1.328-.176.328-2.496c.016-.0800004.052-.1453331.108-.196s.129333-.076.22-.076h.72v2.792h5.6zm.352-10.704c0 .1386674-.028.2679994-.084.388s-.130666.2253329-.224.316-.201333.1626664-.324.216-.253333.08-.392.08-.267999-.0266664-.388-.08-.225333-.1253329-.316-.216-.162666-.1959994-.216-.316-.08-.2493326-.08-.388.026666-.270666.08-.396.125333-.2346662.216-.328.195999-.1666664.316-.22.249333-.08.388-.08.269333.0266664.392.08.230666.1266662.324.22.168.202666.224.328.084.2573326.084.396zm5.4 2.472c.592003 0 1.125331.0986657 1.6.296s.879998.4773315 1.216.84.593332.8013308.772 1.316.268 1.0893302.268 1.724c0 .6400032-.089332 1.2159974-.268 1.728s-.435998.9493315-.772 1.312-.741331.6413324-1.216.836-1.007997.292-1.6.292c-.597336 0-1.134664-.0973324-1.612-.292s-.883998-.4733315-1.22-.836-.593332-.7999974-.772-1.312-.268-1.0879968-.268-1.728c0-.6346698.089332-1.2093308.268-1.724s.435998-.9533315.772-1.316.742664-.6426657 1.22-.84 1.014664-.296 1.612-.296zm0 7.232c.800004 0 1.397331-.2679973 1.792-.804s.592-1.2839952.592-2.244c0-.9653382-.197331-1.7173306-.592-2.256s-.991996-.808-1.792-.808c-.405335 0-.758665.0693326-1.06.208s-.551999.3386654-.752.6-.349333.5826648-.448.964-.148.8119976-.148 1.292c0 .9600048.198665 1.7079973.596 2.244s1.001329.804 1.812.804zm7-5.928c.176001-.1973343.362666-.3759992.56-.536s.406666-.2973328.628-.412.455999-.2026664.704-.264.515999-.092.804-.092c.442669 0 .833332.0733326 1.172.22s.621332.3546653.848.624.398666.5933314.516.972.176.797331.176 1.256v5.16h-1.432v-5.16c0-.6133364-.139999-1.0893316-.42-1.428s-.70533-.508-1.276-.508c-.421335 0-.814665.1013323-1.18.304s-.702665.4773316-1.012.824v5.968h-1.432v-8.104h.856c.202668 0 .328.0986657.376.296zm20.064 4.56c.085334 0 .16.0346663.224.104l.616.664c-.469336.5440027-1.038663.9679985-1.708 1.272s-1.478662.456-2.428.456c-.821337 0-1.567997-.1426652-2.24-.428s-1.245331-.6853308-1.72-1.2-.842665-1.1319964-1.104-1.852-.392-1.5119957-.392-2.376.135999-1.6559964.408-2.376.654664-1.3386641 1.148-1.856 1.083997-.9186652 1.772-1.204 1.447996-.428 2.28-.428c.816004 0 1.535997.1306654 2.16.392s1.173331.6159978 1.648 1.064l-.512.712c-.032.0533336-.073333.0973332-.124.132s-.118666.052-.204.052c-.096 0-.213333-.0519995-.352-.156s-.319999-.2199994-.544-.348-.503998-.2439995-.84-.348-.749331-.156-1.24-.156c-.592003 0-1.133331.1026656-1.624.308s-.913332.5026647-1.268.892-.630666.8639972-.828 1.424-.296 1.1919965-.296 1.896c0 .7146702.102666 1.3519972.308 1.912s.485332 1.0333314.84 1.42.773331.6813323 1.256.884 1.003997.304 1.564.304c.341335 0 .649332-.0199998.924-.06s.527999-.1026662.76-.188.447999-.1933327.648-.324.398666-.2866658.596-.468c.090667-.0800004.181333-.12.272-.12zm5.56-5.864c.592003 0 1.125331.0986657 1.6.296s.879998.4773315 1.216.84.593332.8013308.772 1.316.268 1.0893302.268 1.724c0 .6400032-.089332 1.2159974-.268 1.728s-.435998.9493315-.772 1.312-.741331.6413324-1.216.836-1.007997.292-1.6.292c-.597336 0-1.134664-.0973324-1.612-.292s-.883998-.4733315-1.22-.836-.593332-.7999974-.772-1.312-.268-1.0879968-.268-1.728c0-.6346698.089332-1.2093308.268-1.724s.435998-.9533315.772-1.316.742664-.6426657 1.22-.84 1.014664-.296 1.612-.296zm0 7.232c.800004 0 1.397331-.2679973 1.792-.804s.592-1.2839952.592-2.244c0-.9653382-.197331-1.7173306-.592-2.256s-.991996-.808-1.792-.808c-.405335 0-.758665.0693326-1.06.208s-.551999.3386654-.752.6-.349333.5826648-.448.964-.148.8119976-.148 1.292c0 .9600048.198665 1.7079973.596 2.244s1.001329.804 1.812.804zm7-5.928c.176001-.1973343.362666-.3759992.56-.536s.406666-.2973328.628-.412.455999-.2026664.704-.264.515999-.092.804-.092c.442669 0 .833332.0733326 1.172.22s.621332.3546653.848.624.398666.5933314.516.972.176.797331.176 1.256v5.16h-1.432v-5.16c0-.6133364-.139999-1.0893316-.42-1.428s-.70533-.508-1.276-.508c-.421335 0-.814665.1013323-1.18.304s-.702665.4773316-1.012.824v5.968h-1.432v-8.104h.856c.202668 0 .328.0986657.376.296zm12.304.16c-.064.1173339-.162666.176-.296.176-.08 0-.170666-.029333-.272-.088s-.225333-.1239996-.372-.196-.321332-.1386664-.524-.2-.442665-.092-.72-.092c-.240001 0-.455999.0306664-.648.092s-.355999.1453328-.492.252-.24.230666-.312.372-.108.2946658-.108.46c0 .208001.059999.3813326.18.52s.278666.2586662.476.36.421332.1906663.672.268.507999.1599996.772.248.521332.1853328.772.292.474666.2399992.672.4.355999.3559988.476.588.18.510665.18.836c0 .3733352-.066666.7186651-.2 1.036s-.330665.5919988-.592.824-.581331.414666-.96.548-.815998.2-1.312.2c-.565336 0-1.077331-.0919991-1.536-.276s-.847998-.4199986-1.168-.708l.336-.544c.042667-.0693337.093333-.1226665.152-.16s.133333-.056.224-.056c.096 0 .197333.037333.304.112s.235999.1573329.388.248.337332.173333.556.248.490665.112.816.112c.277335 0 .519999-.0359996.728-.108s.381333-.1693327.52-.292.241333-.2639992.308-.424.1-.3306658.1-.512c0-.2240011-.059999-.4093326-.18-.556s-.278666-.2719995-.476-.376-.422665-.1946663-.676-.272-.511999-.1586662-.776-.244-.522665-.1826661-.776-.292-.478666-.2466658-.676-.412-.355999-.3693321-.476-.612-.18-.5373316-.18-.884c0-.3093349.063999-.6066652.192-.892s.314665-.5359989.56-.752.546665-.3879994.904-.516.765331-.192 1.224-.192c.533336 0 1.011998.0839992 1.436.252s.790665.3986652 1.1.692zm5.624-1.464c.592003 0 1.125331.0986657 1.6.296s.879998.4773315 1.216.84.593332.8013308.772 1.316.268 1.0893302.268 1.724c0 .6400032-.089332 1.2159974-.268 1.728s-.435998.9493315-.772 1.312-.741331.6413324-1.216.836-1.007997.292-1.6.292c-.597336 0-1.134664-.0973324-1.612-.292s-.883998-.4733315-1.22-.836-.593332-.7999974-.772-1.312-.268-1.0879968-.268-1.728c0-.6346698.089332-1.2093308.268-1.724s.435998-.9533315.772-1.316.742664-.6426657 1.22-.84 1.014664-.296 1.612-.296zm0 7.232c.800004 0 1.397331-.2679973 1.792-.804s.592-1.2839952.592-2.244c0-.9653382-.197331-1.7173306-.592-2.256s-.991996-.808-1.792-.808c-.405335 0-.758665.0693326-1.06.208s-.551999.3386654-.752.6-.349333.5826648-.448.964-.148.8119976-.148 1.292c0 .9600048.198665 1.7079973.596 2.244s1.001329.804 1.812.804zm7.128-10.784v11.784h-1.424v-11.784zm7.728 6.848c0-.3306683-.046666-.633332-.14-.908s-.229332-.511999-.408-.712-.395999-.3546661-.652-.464-.546665-.164-.872-.164c-.68267 0-1.222665.1986647-1.62.596s-.644.9479965-.74 1.652zm1.152 3.8c-.176001.2133344-.386665.3986659-.632.556s-.507999.2866662-.788.388-.569332.1773331-.868.228-.594665.076-.888.076c-.560003 0-1.075998-.0946657-1.548-.284s-.879998-.4666648-1.224-.832-.611999-.8173306-.804-1.356-.288-1.1573298-.288-1.856c0-.5653362.086666-1.0933309.26-1.584s.422665-.9159982.748-1.276.722664-.6426656 1.192-.848.99733-.308 1.584-.308c.485336 0 .934665.0813325 1.348.244s.770665.3973318 1.072.704.537332.6853311.708 1.136.256.9639971.256 1.54c0 .2240011-.024.373333-.072.448s-.138666.112-.272.112h-5.416c.016.5120026.086666.9573314.212 1.336s.299999.6946654.524.948.490665.442666.8.568.655998.188 1.04.188c.357335 0 .665332-.0413329.924-.124s.481332-.1719995.668-.268.342666-.1853329.468-.268.233333-.124.324-.124c.117334 0 .208.0453329.272.136z" fill="#f58020"/><path d="m74.532374 12.086331h1.007194v12.086331h-1.007194z" fill="#bcc3ca"/><g fill="#fff"><path d="m55.7353158 18.1405057c0 2.0972776 1.6457769 3.8793533 3.7074247 3.8793533 2.0653754 0 3.7078906-1.7820757 3.7078906-3.8793533 0-2.1216896-1.6425152-3.8812679-3.7078906-3.8812679-2.0616478 0-3.7074247 1.7595783-3.7074247 3.8812679m9.5018921 0c0 3.3602394-2.5488108 5.9266102-5.7944674 5.9266102-3.2419289 0-5.7909727-2.5704395-5.7909727-5.9266102 0-3.3583246 2.5490438-5.9278068 5.7909727-5.9278068 3.2456566 0 5.7944674 2.5694822 5.7944674 5.9278068"/><path d="m48.435792 16.8548073c-.2523183-1.668153-1.3193707-2.7834461-2.9905425-2.7834461-1.620149 0-2.825825 1.1827851-3.0846668 2.7834461zm-6.1851763 1.6157391c.0186385 1.9094009 1.2737065 3.6917159 3.265926 3.6917159 1.5998796 0 2.4574822-.8338372 3.2456565-2.1678809l1.7606365 1.0245858c-1.0213881 1.9285476-2.9194834 3.0481487-5.0279603 3.0481487-3.3150849 0-5.3282726-2.5718755-5.3282726-5.8574428 0-3.427492 1.7832356-5.9960169 5.2823754-5.9960169 3.4534755 0 5.0773522 2.6185455 5.0773522 5.9268495v.3317159z"/><path d="m32.0777388 19.4953715 3.1268364-6.9535893h2.3409917l-5.4678281 11.5253337-5.4447631-11.5212651h2.3393611z"/><path d="m14.6505364 18.1405057c0 2.0972776 1.6471747 3.8793533 3.7088225 3.8793533 2.0635116 0 3.7055609-1.7820757 3.7055609-3.8793533 0-2.1216896-1.6420493-3.8812679-3.7055609-3.8812679-2.0616478 0-3.7088225 1.7595783-3.7088225 3.8812679m9.5032898 0c0 3.3602394-2.5504416 5.9266102-5.7944673 5.9266102s-5.7912056-2.5704395-5.7912056-5.9266102c0-3.3583246 2.5471799-5.9278068 5.7912056-5.9278068 3.2419289 0 5.7944673 2.5694822 5.7944673 5.9278068"/><path d="m8.9744233 15.7098369c-.83383855-.9750438-1.85382881-1.4963117-3.10540208-1.4963117-2.03811669 0-3.61283443 1.8524396-3.61283443 3.9004146 0 2.2863509 1.55118667 3.9511531 3.7533219 3.9511531 1.20427815 0 2.17837119-.5715278 2.96491461-1.4716604v2.7348616c-.94869811.5243791-1.89972605.7400184-2.98891164.7400184-3.19812847 0-5.81613456-2.5206581-5.81613456-5.8567247 0-3.4485534 2.59400906-5.9979316 5.93309096-5.9979316.97083131 0 2.03811669.2381367 2.87195524.7385826z"/></g><path d="m49.8280857 5.49533158-8.9946926-5.3912216v10.62807332z" fill="#f58020"/></svg>