<?xml version="1.0" encoding="UTF-8"?>
<svg width="140px" height="24px" viewBox="0 0 139 24" xmlns="http://www.w3.org/2000/svg" xmlns:xlink="http://www.w3.org/1999/xlink">
    <g>
        <path d="M91.1991053,20.7098947 C91.281632,20.7098947 91.3538418,20.7434207 91.4157368,20.8104737 L92.0114737,21.4526316 C91.5575767,21.9787395 91.0069769,22.388788 90.3596579,22.6827895 C89.7123389,22.9767909 88.9296362,23.1237895 88.0115263,23.1237895 C87.2172066,23.1237895 86.4951085,22.9858172 85.8452105,22.7098684 C85.1953125,22.4339197 84.6408444,22.0470814 84.1817895,21.5493421 C83.7227345,21.0516028 83.3668434,20.4545824 83.1141053,19.7582632 C82.8613672,19.0619439 82.735,18.2960042 82.735,17.4604211 C82.735,16.6248379 82.866525,15.8588982 83.1295789,15.1625789 C83.3926329,14.4662597 83.7627081,13.8679499 84.2398158,13.3676316 C84.7169234,12.8673133 85.2881546,12.4791856 85.9535263,12.2032368 C86.6188981,11.9272881 87.3538907,11.7893158 88.1585263,11.7893158 C88.9476882,11.7893158 89.643997,11.9156829 90.2474737,12.1684211 C90.8509504,12.4211592 91.3822082,12.7641557 91.8412632,13.1974211 L91.3461053,13.886 C91.3151577,13.9375792 91.2751845,13.9801314 91.2261842,14.0136579 C91.177184,14.0471844 91.1114215,14.0639474 91.0288947,14.0639474 C90.9360522,14.0639474 90.8225796,14.0136584 90.6884737,13.9130789 C90.5543678,13.8124995 90.3790011,13.7003164 90.1623684,13.5765263 C89.9457358,13.4527362 89.674949,13.3405531 89.35,13.2399737 C89.025051,13.1393942 88.6253182,13.0891053 88.1507895,13.0891053 C87.5782603,13.0891053 87.0547392,13.1883937 86.5802105,13.3869737 C86.1056818,13.5855536 85.6969228,13.8731034 85.3539211,14.2496316 C85.0109193,14.6261598 84.744001,15.0852078 84.5531579,15.6267895 C84.3623148,16.1683711 84.2668947,16.7795755 84.2668947,17.4604211 C84.2668947,18.1515824 84.3661832,18.7679447 84.5647632,19.3095263 C84.7633431,19.851108 85.0341299,20.3088666 85.3771316,20.6828158 C85.7201333,21.056765 86.125024,21.3417359 86.5918158,21.5377368 C87.0586076,21.7337378 87.5627868,21.8317368 88.1043684,21.8317368 C88.4344753,21.8317368 88.7323408,21.8123949 88.9979737,21.7737105 C89.2636066,21.7350261 89.5086041,21.6744215 89.7329737,21.5918947 C89.9573432,21.509368 90.1662359,21.4049217 90.3596579,21.2785526 C90.5530799,21.1521836 90.7452096,21.0013167 90.9360526,20.8259474 C91.0237373,20.7485786 91.1114206,20.7098947 91.1991053,20.7098947 Z M96.9928098,15.0387895 C97.5653389,15.0387895 98.0811233,15.1342096 98.5401782,15.3250526 C98.9992331,15.5158957 99.3912292,15.7866825 99.7161782,16.1374211 C100.041127,16.4881596 100.289993,16.9123922 100.462783,17.4101316 C100.635574,17.9078709 100.721968,18.4636285 100.721968,19.0774211 C100.721968,19.6963715 100.635574,20.2534186 100.462783,20.7485789 C100.289993,21.2437393 100.041127,21.6666825 99.7161782,22.0174211 C99.3912292,22.3681596 98.9992331,22.637657 98.5401782,22.8259211 C98.0811233,23.0141852 97.5653389,23.1083158 96.9928098,23.1083158 C96.4151227,23.1083158 95.89547,23.0141852 95.4338361,22.8259211 C94.9722022,22.637657 94.5789167,22.3681596 94.2539677,22.0174211 C93.9290187,21.6666825 93.6801527,21.2437393 93.5073624,20.7485789 C93.3345721,20.2534186 93.2481782,19.6963715 93.2481782,19.0774211 C93.2481782,18.4636285 93.3345721,17.9078709 93.5073624,17.4101316 C93.6801527,16.9123922 93.9290187,16.4881596 94.2539677,16.1374211 C94.5789167,15.7866825 94.9722022,15.5158957 95.4338361,15.3250526 C95.89547,15.1342096 96.4151227,15.0387895 96.9928098,15.0387895 Z M96.9928098,22.0328947 C97.7664978,22.0328947 98.3441763,21.7737131 98.7258624,21.2553421 C99.1075485,20.7369711 99.2983887,20.0135836 99.2983887,19.0851579 C99.2983887,18.1515743 99.1075485,17.4243184 98.7258624,16.9033684 C98.3441763,16.3824184 97.7664978,16.1219474 96.9928098,16.1219474 C96.6008078,16.1219474 96.2591007,16.1889993 95.9676782,16.3231053 C95.6762557,16.4572112 95.4338371,16.6506303 95.240415,16.9033684 C95.046993,17.1561065 94.9025734,17.4668666 94.8071519,17.8356579 C94.7117303,18.2044492 94.6640203,18.620945 94.6640203,19.0851579 C94.6640203,20.0135836 94.85615,20.7369711 95.240415,21.2553421 C95.6246801,21.7737131 96.2088058,22.0328947 96.9928098,22.0328947 Z M104.179146,16.2998947 C104.349357,16.1090517 104.529882,15.9362639 104.720725,15.7815263 C104.911568,15.6267887 105.114013,15.4939742 105.328067,15.3830789 C105.542121,15.2721837 105.769066,15.1870792 106.008909,15.1277632 C106.248752,15.0684471 106.507934,15.0387895 106.786462,15.0387895 C107.214569,15.0387895 107.592381,15.1097098 107.919909,15.2515526 C108.247437,15.3933954 108.520803,15.5945513 108.740014,15.8550263 C108.959226,16.1155013 109.125566,16.4288403 109.239041,16.7950526 C109.352515,17.161265 109.409251,17.5661557 109.409251,18.0097368 L109.409251,23 L108.024356,23 L108.024356,18.0097368 C108.024356,17.416576 107.888963,16.9562385 107.618172,16.6287105 C107.347381,16.3011826 106.936043,16.1374211 106.384146,16.1374211 C105.97667,16.1374211 105.596279,16.2354201 105.242962,16.4314211 C104.889644,16.627422 104.563411,16.893051 104.264251,17.2283158 L104.264251,23 L102.879356,23 L102.879356,15.1625789 L103.707198,15.1625789 C103.903199,15.1625789 104.024409,15.257999 104.07083,15.4488421 L104.179146,16.2998947 Z M116.495008,16.4546316 C116.433113,16.5681058 116.337693,16.6248421 116.208745,16.6248421 C116.131376,16.6248421 116.043693,16.596474 115.945692,16.5397368 C115.847692,16.4829997 115.727772,16.4198161 115.585929,16.3501842 C115.444086,16.2805523 115.275167,16.2160792 115.079166,16.1567632 C114.883165,16.0974471 114.651062,16.0677895 114.38285,16.0677895 C114.150744,16.0677895 113.941851,16.0974471 113.756166,16.1567632 C113.570481,16.2160792 113.411877,16.2973153 113.28035,16.4004737 C113.148823,16.5036321 113.048245,16.6235519 112.978614,16.7602368 C112.908982,16.8969217 112.874166,17.0452097 112.874166,17.2051053 C112.874166,17.4062642 112.932192,17.5738941 113.048245,17.708 C113.164298,17.8421059 113.317744,17.9581574 113.508587,18.0561579 C113.69943,18.1541584 113.91606,18.2405523 114.158482,18.3153421 C114.400904,18.390132 114.64977,18.4700785 114.905087,18.5551842 C115.160404,18.6402899 115.40927,18.7344205 115.651692,18.8375789 C115.894115,18.9407374 116.110744,19.0696834 116.301587,19.2244211 C116.49243,19.3791587 116.645876,19.5687094 116.761929,19.7930789 C116.877983,20.0174485 116.936008,20.2869458 116.936008,20.6015789 C116.936008,20.9626334 116.871535,21.2966037 116.742587,21.6035 C116.613639,21.9103963 116.422799,22.1760252 116.170061,22.4003947 C115.917323,22.6247643 115.607852,22.8014204 115.24164,22.9303684 C114.875427,23.0593164 114.452484,23.1237895 113.972798,23.1237895 C113.426058,23.1237895 112.930905,23.0348167 112.487324,22.8568684 C112.043743,22.6789202 111.66722,22.4506856 111.357745,22.1721579 L111.682692,21.6460526 C111.723956,21.5789997 111.772955,21.5274212 111.829692,21.4913158 C111.88643,21.4552103 111.958639,21.4371579 112.046324,21.4371579 C112.139167,21.4371579 112.237166,21.4732628 112.340324,21.5454737 C112.443482,21.6176846 112.56856,21.6976311 112.715561,21.7853158 C112.862562,21.8730004 113.041797,21.952947 113.253271,22.0251579 C113.464746,22.0973688 113.727796,22.1334737 114.042429,22.1334737 C114.310641,22.1334737 114.545323,22.0986582 114.746482,22.0290263 C114.947641,21.9593944 115.115271,21.8652638 115.249377,21.7466316 C115.383483,21.6279994 115.482771,21.4913166 115.547245,21.3365789 C115.611719,21.1818413 115.643956,21.0167904 115.643956,20.8414211 C115.643956,20.6247884 115.58593,20.4455533 115.469877,20.3037105 C115.353823,20.1618677 115.200378,20.0406584 115.009535,19.9400789 C114.818692,19.8394995 114.600773,19.7518162 114.355771,19.6770263 C114.11077,19.6022365 113.860615,19.5235794 113.605298,19.4410526 C113.349981,19.3585259 113.099825,19.2643953 112.854824,19.1586579 C112.609823,19.0529205 112.391904,18.9201061 112.201061,18.7602105 C112.010218,18.600315 111.856772,18.4030275 111.740719,18.1683421 C111.624666,17.9336567 111.56664,17.6486859 111.56664,17.3134211 C111.56664,17.0142617 111.628534,16.7267119 111.752324,16.4507632 C111.876114,16.1748144 112.056639,15.9323958 112.293903,15.7235 C112.531167,15.5146042 112.822585,15.3482638 113.168166,15.2244737 C113.513747,15.1006836 113.908322,15.0387895 114.351903,15.0387895 C114.867695,15.0387895 115.330611,15.1200255 115.740666,15.2825 C116.150721,15.4449745 116.505323,15.6680512 116.804482,15.9517368 L116.495008,16.4546316 Z M122.350607,15.0387895 C122.923137,15.0387895 123.438921,15.1342096 123.897976,15.3250526 C124.357031,15.5158957 124.749027,15.7866825 125.073976,16.1374211 C125.398925,16.4881596 125.647791,16.9123922 125.820581,17.4101316 C125.993372,17.9078709 126.079765,18.4636285 126.079765,19.0774211 C126.079765,19.6963715 125.993372,20.2534186 125.820581,20.7485789 C125.647791,21.2437393 125.398925,21.6666825 125.073976,22.0174211 C124.749027,22.3681596 124.357031,22.637657 123.897976,22.8259211 C123.438921,23.0141852 122.923137,23.1083158 122.350607,23.1083158 C121.77292,23.1083158 121.253268,23.0141852 120.791634,22.8259211 C120.33,22.637657 119.936714,22.3681596 119.611765,22.0174211 C119.286816,21.6666825 119.03795,21.2437393 118.86516,20.7485789 C118.69237,20.2534186 118.605976,19.6963715 118.605976,19.0774211 C118.605976,18.4636285 118.69237,17.9078709 118.86516,17.4101316 C119.03795,16.9123922 119.286816,16.4881596 119.611765,16.1374211 C119.936714,15.7866825 120.33,15.5158957 120.791634,15.3250526 C121.253268,15.1342096 121.77292,15.0387895 122.350607,15.0387895 Z M122.350607,22.0328947 C123.124296,22.0328947 123.701974,21.7737131 124.08366,21.2553421 C124.465346,20.7369711 124.656186,20.0135836 124.656186,19.0851579 C124.656186,18.1515743 124.465346,17.4243184 124.08366,16.9033684 C123.701974,16.3824184 123.124296,16.1219474 122.350607,16.1219474 C121.958606,16.1219474 121.616898,16.1889993 121.325476,16.3231053 C121.034053,16.4572112 120.791635,16.6506303 120.598213,16.9033684 C120.404791,17.1561065 120.260371,17.4668666 120.16495,17.8356579 C120.069528,18.2044492 120.021818,18.620945 120.021818,19.0851579 C120.021818,20.0135836 120.213948,20.7369711 120.598213,21.2553421 C120.982478,21.7737131 121.566604,22.0328947 122.350607,22.0328947 Z M129.660733,11.6036316 L129.660733,23 L128.283575,23 L128.283575,11.6036316 L129.660733,11.6036316 Z M137.551122,18.2263684 C137.551122,17.9065773 137.505991,17.6138697 137.415727,17.3482368 C137.325463,17.0826039 137.193938,16.8530799 137.021148,16.6596579 C136.848358,16.4662359 136.638176,16.3166584 136.390595,16.2109211 C136.143015,16.1051837 135.861913,16.0523158 135.54728,16.0523158 C134.887066,16.0523158 134.364834,16.2444454 133.980569,16.6287105 C133.596304,17.0129756 133.357754,17.5455229 133.264911,18.2263684 L137.551122,18.2263684 Z M138.665227,21.9013684 C138.495016,22.1076852 138.291281,22.2869203 138.054017,22.4390789 C137.816752,22.5912376 137.562728,22.7163153 137.291938,22.8143158 C137.021147,22.9123163 136.741334,22.9858155 136.45249,23.0348158 C136.163647,23.083816 135.877386,23.1083158 135.593701,23.1083158 C135.052119,23.1083158 134.553098,23.0167641 134.096622,22.8336579 C133.640146,22.6505517 133.245571,22.3823439 132.912885,22.0290263 C132.580199,21.6757088 132.321017,21.2385816 132.135332,20.7176316 C131.949647,20.1966816 131.856806,19.5983718 131.856806,18.9226842 C131.856806,18.3759446 131.940621,17.8653182 132.108253,17.3907895 C132.275886,16.9162608 132.517015,16.5049228 132.831648,16.1567632 C133.146281,15.8086035 133.530541,15.5352378 133.984438,15.3366579 C134.438335,15.138078 134.948961,15.0387895 135.516332,15.0387895 C135.985703,15.0387895 136.420251,15.1174466 136.81999,15.2747632 C137.219729,15.4320797 137.565305,15.6590248 137.856727,15.9556053 C138.14815,16.2521857 138.376384,16.6183926 138.541438,17.0542368 C138.706491,17.4900811 138.789017,17.9865235 138.789017,18.5435789 C138.789017,18.7602116 138.765806,18.9046312 138.719385,18.9768421 C138.672964,19.049053 138.58528,19.0851579 138.456332,19.0851579 L133.21849,19.0851579 C133.233964,19.5803183 133.302305,20.0109982 133.423517,20.3772105 C133.544728,20.7434229 133.713647,21.0490251 133.93028,21.2940263 C134.146912,21.5390275 134.404804,21.722131 134.703964,21.8433421 C135.003123,21.9645532 135.338383,22.0251579 135.709753,22.0251579 C136.055334,22.0251579 136.353199,21.9851846 136.603359,21.9052368 C136.853518,21.8252891 137.068858,21.7388952 137.249385,21.6460526 C137.429912,21.5532101 137.580779,21.4668162 137.70199,21.3868684 C137.823201,21.3069207 137.927648,21.2669474 138.015332,21.2669474 C138.128807,21.2669474 138.21649,21.310789 138.278385,21.3984737 L138.665227,21.9013684 Z" id="Console" fill="#F58020"></path>
        <rect fill="#BCC3CA" x="74" y="12" width="1" height="12"></rect>
        <g>
            <path d="M55.3372064,18.0109307 C55.3372064,20.0932277 56.9712278,21.8625743 59.0181495,21.8625743 C61.0687722,21.8625743 62.6995552,20.0932277 62.6995552,18.0109307 C62.6995552,15.904396 61.0687722,14.1573861 59.0181495,14.1573861 C56.9712278,14.1573861 55.3372064,15.904396 55.3372064,18.0109307 M64.7712278,18.0109307 C64.7712278,21.3471683 62.2406228,23.8952079 59.0181495,23.8952079 C55.7993772,23.8952079 53.2685409,21.3431287 53.2685409,18.0109307 C53.2685409,14.6765941 55.7993772,12.1254653 59.0181495,12.1254653 C62.2406228,12.1254653 64.7712278,14.6765941 64.7712278,18.0109307" id="o" fill="#FFFFFF"></path>
            <path d="M48.0898221,16.7344158 C47.839306,15.0781782 46.7798754,13.9708515 45.1206406,13.9708515 C43.5120641,13.9708515 42.315,15.1451881 42.0580071,16.7344158 L48.0898221,16.7344158 L48.0898221,16.7344158 Z M41.9488256,18.3386139 C41.967331,20.2343762 43.2134342,22.0039604 45.1914235,22.0039604 C46.7798754,22.0039604 47.6313523,21.1760792 48.4138968,19.8515644 L50.1619573,20.8688317 C49.1478648,22.783604 47.2633274,23.8952079 45.169911,23.8952079 C41.8785053,23.8952079 39.8796975,21.341703 39.8796975,18.079604 C39.8796975,14.6765941 41.6501957,12.1264158 45.1243416,12.1264158 C48.5531495,12.1264158 50.165427,14.7262574 50.165427,18.0109307 L50.165427,18.3402772 L41.9488256,18.3386139 L41.9488256,18.3386139 Z" id="e" fill="#FFFFFF"></path>
            <polyline fill="#FFFFFF" points="31.8486121 19.3561188 34.9531139 12.452198 37.2773843 12.452198 31.8486121 23.8952079 26.4427402 12.4562376 28.7653915 12.4562376 31.8486121 19.3561188"></polyline>
            <path d="M14.5458897,18.0109307 C14.5458897,20.0932277 16.1812989,21.8625743 18.2282206,21.8625743 C20.2769929,21.8625743 21.9073132,20.0932277 21.9073132,18.0109307 C21.9073132,15.904396 20.2769929,14.1573861 18.2282206,14.1573861 C16.1812989,14.1573861 14.5458897,15.904396 14.5458897,18.0109307 M23.9812989,18.0109307 C23.9812989,21.3471683 21.4490747,23.8952079 18.2282206,23.8952079 C15.0073665,23.8952079 12.4783808,21.3431287 12.4783808,18.0109307 C12.4783808,14.6765941 15.0073665,12.1254653 18.2282206,12.1254653 C21.4469929,12.1254653 23.9812989,14.6765941 23.9812989,18.0109307" id="o" fill="#FFFFFF"></path>
            <path d="M8.91032028,15.5976238 C8.08243772,14.6295446 7.0697331,14.112 5.82709964,14.112 C3.80354093,14.112 2.24007117,15.9512079 2.24007117,17.9845545 C2.24007117,20.2545743 3.78017794,21.9074851 5.96658363,21.9074851 C7.16225979,21.9074851 8.12939502,21.3400396 8.91032028,20.4463366 L8.91032028,23.1616634 C7.96839858,23.682297 7.0241637,23.896396 5.94275801,23.896396 C2.76747331,23.896396 0.16816726,21.3937426 0.16816726,18.081505 C0.16816726,14.6575842 2.74364769,12.1264158 6.058879,12.1264158 C7.0227758,12.1264158 8.08243772,12.3628515 8.91032028,12.8597228 L8.91032028,15.5976238" id="c" fill="#FFFFFF"></path>
            <polyline id="Triangle" fill="#F58020" points="49.4721708 5.45607921 40.541726 0.103366337 40.541726 10.6555248 49.4721708 5.45607921"></polyline>
        </g>
    </g>
</svg>
