<?xml version="1.0" encoding="UTF-8"?>
<svg viewBox="0 0 247 24" xmlns="http://www.w3.org/2000/svg" xmlns:xlink="http://www.w3.org/1999/xlink">
    <g>
        <path d="M90.552,19.744 L88.752,15.08 C88.6986664,14.9413326 88.642667,14.7800009 88.584,14.596 C88.525333,14.4119991 88.4693336,14.216001 88.416,14.008 C88.3039994,14.4400022 88.1893339,14.7999986 88.072,15.088 L86.272,19.744 L90.552,19.744 Z M93.784,24 L92.584,24 C92.4453326,24 92.3333338,23.9653337 92.248,23.896 C92.1626662,23.8266663 92.0986669,23.7386672 92.056,23.632 L90.984,20.864 L85.84,20.864 L84.768,23.632 C84.7359998,23.7280005 84.6746671,23.813333 84.584,23.888 C84.4933329,23.962667 84.381334,24 84.248,24 L83.048,24 L87.632,12.536 L89.2,12.536 L93.784,24 Z M100.064,17.824 C99.797332,17.4666649 99.5093349,17.217334 99.2,17.076 C98.8906651,16.934666 98.5440019,16.864 98.16,16.864 C97.4079962,16.864 96.8293354,17.1333306 96.424,17.672 C96.0186646,18.2106694 95.816,18.9786617 95.816,19.976 C95.816,20.5040026 95.8613329,20.9559981 95.952,21.332 C96.0426671,21.7080019 96.1759991,22.0173321 96.352,22.26 C96.5280009,22.5026679 96.7439987,22.6799994 97,22.792 C97.2560013,22.9040006 97.546665,22.96 97.872,22.96 C98.3413357,22.96 98.7506649,22.8533344 99.1,22.64 C99.4493351,22.4266656 99.7706652,22.1253353 100.064,21.736 L100.064,17.824 Z M101.488,12.216 L101.488,24 L100.64,24 C100.437332,24 100.309334,23.9013343 100.256,23.704 L100.128,22.72 C99.7813316,23.1360021 99.3866689,23.4719987 98.944,23.728 C98.5013311,23.9840013 97.9893362,24.112 97.408,24.112 C96.9439977,24.112 96.5226686,24.0226676 96.144,23.844 C95.7653314,23.6653324 95.442668,23.4026684 95.176,23.056 C94.909332,22.7093316 94.7040007,22.2773359 94.56,21.76 C94.4159993,21.2426641 94.344,20.6480034 94.344,19.976 C94.344,19.3786637 94.4239992,18.8226692 94.584,18.308 C94.7440008,17.7933308 94.9733318,17.3466686 95.272,16.968 C95.5706682,16.5893314 95.9373312,16.2920011 96.372,16.076 C96.8066688,15.8599989 97.2959973,15.752 97.84,15.752 C98.3360025,15.752 98.7613316,15.8359992 99.116,16.004 C99.4706684,16.1720008 99.7866653,16.4053318 100.064,16.704 L100.064,12.216 L101.488,12.216 Z M103.744,24 L103.744,15.896 L104.6,15.896 C104.802668,15.896 104.928,15.9946657 104.976,16.192 L105.08,17.024 C105.378668,16.6559982 105.714665,16.3546678 106.088,16.12 C106.461335,15.8853322 106.893331,15.768 107.384,15.768 C107.928003,15.768 108.369332,15.9199985 108.708,16.224 C109.046668,16.5280015 109.290666,16.9386641 109.44,17.456 C109.557334,17.1626652 109.707999,16.9093344 109.892,16.696 C110.076001,16.4826656 110.282666,16.3066674 110.512,16.168 C110.741334,16.0293326 110.985332,15.9280003 111.244,15.864 C111.502668,15.7999997 111.765332,15.768 112.032,15.768 C112.458669,15.768 112.838665,15.8359993 113.172,15.972 C113.505335,16.1080007 113.787999,16.3066654 114.02,16.568 C114.252001,16.8293346 114.429333,17.1506648 114.552,17.532 C114.674667,17.9133352 114.736,18.3493309 114.736,18.84 L114.736,24 L113.304,24 L113.304,18.84 C113.304,18.2053302 113.165335,17.7240016 112.888,17.396 C112.610665,17.0679984 112.210669,16.904 111.688,16.904 C111.453332,16.904 111.230668,16.9453329 111.02,17.028 C110.809332,17.1106671 110.624001,17.2319992 110.464,17.392 C110.303999,17.5520008 110.177334,17.7533321 110.084,17.996 C109.990666,18.2386679 109.944,18.5199984 109.944,18.84 L109.944,24 L108.512,24 L108.512,18.84 C108.512,18.1893301 108.381335,17.7040016 108.12,17.384 C107.858665,17.0639984 107.477336,16.904 106.976,16.904 C106.623998,16.904 106.298668,16.9986657 106,17.188 C105.701332,17.3773343 105.426668,17.634665 105.176,17.96 L105.176,24 L103.744,24 Z M118.408,15.896 L118.408,24 L116.984,24 L116.984,15.896 L118.408,15.896 Z M118.712,13.352 C118.712,13.4906674 118.684,13.6199994 118.628,13.74 C118.572,13.8600006 118.497334,13.9666662 118.404,14.06 C118.310666,14.1533338 118.201334,14.2266664 118.076,14.28 C117.950666,14.3333336 117.818667,14.36 117.68,14.36 C117.541333,14.36 117.412001,14.3333336 117.292,14.28 C117.171999,14.2266664 117.066667,14.1533338 116.976,14.06 C116.885333,13.9666662 116.813334,13.8600006 116.76,13.74 C116.706666,13.6199994 116.68,13.4906674 116.68,13.352 C116.68,13.2133326 116.706666,13.081334 116.76,12.956 C116.813334,12.830666 116.885333,12.7213338 116.976,12.628 C117.066667,12.5346662 117.171999,12.4613336 117.292,12.408 C117.412001,12.3546664 117.541333,12.328 117.68,12.328 C117.818667,12.328 117.950666,12.3546664 118.076,12.408 C118.201334,12.4613336 118.310666,12.5346662 118.404,12.628 C118.497334,12.7213338 118.572,12.830666 118.628,12.956 C118.684,13.081334 118.712,13.2133326 118.712,13.352 Z M122.088,17.072 C122.264001,16.8746657 122.450666,16.6960008 122.648,16.536 C122.845334,16.3759992 123.054666,16.2386672 123.276,16.124 C123.497334,16.0093328 123.731999,15.9213336 123.98,15.86 C124.228001,15.7986664 124.495999,15.768 124.784,15.768 C125.226669,15.768 125.617332,15.8413326 125.956,15.988 C126.294668,16.1346674 126.577332,16.3426653 126.804,16.612 C127.030668,16.8813347 127.202666,17.2053314 127.32,17.584 C127.437334,17.9626686 127.496,18.381331 127.496,18.84 L127.496,24 L126.064,24 L126.064,18.84 C126.064,18.2266636 125.924001,17.7506684 125.644,17.412 C125.363999,17.0733316 124.93867,16.904 124.368,16.904 C123.946665,16.904 123.553335,17.0053323 123.188,17.208 C122.822665,17.4106677 122.485335,17.6853316 122.176,18.032 L122.176,24 L120.744,24 L120.744,15.896 L121.6,15.896 C121.802668,15.896 121.928,15.9946657 121.976,16.192 L122.088,17.072 Z M131.176,15.896 L131.176,24 L129.752,24 L129.752,15.896 L131.176,15.896 Z M131.48,13.352 C131.48,13.4906674 131.452,13.6199994 131.396,13.74 C131.34,13.8600006 131.265334,13.9666662 131.172,14.06 C131.078666,14.1533338 130.969334,14.2266664 130.844,14.28 C130.718666,14.3333336 130.586667,14.36 130.448,14.36 C130.309333,14.36 130.180001,14.3333336 130.06,14.28 C129.939999,14.2266664 129.834667,14.1533338 129.744,14.06 C129.653333,13.9666662 129.581334,13.8600006 129.528,13.74 C129.474666,13.6199994 129.448,13.4906674 129.448,13.352 C129.448,13.2133326 129.474666,13.081334 129.528,12.956 C129.581334,12.830666 129.653333,12.7213338 129.744,12.628 C129.834667,12.5346662 129.939999,12.4613336 130.06,12.408 C130.180001,12.3546664 130.309333,12.328 130.448,12.328 C130.586667,12.328 130.718666,12.3546664 130.844,12.408 C130.969334,12.4613336 131.078666,12.5346662 131.172,12.628 C131.265334,12.7213338 131.34,12.830666 131.396,12.956 C131.452,13.081334 131.48,13.2133326 131.48,13.352 Z M138.232,17.232 C138.168,17.3493339 138.069334,17.408 137.936,17.408 C137.856,17.408 137.765334,17.378667 137.664,17.32 C137.562666,17.261333 137.438667,17.1960004 137.292,17.124 C137.145333,17.0519996 136.970668,16.9853336 136.768,16.924 C136.565332,16.8626664 136.325335,16.832 136.048,16.832 C135.807999,16.832 135.592001,16.8626664 135.4,16.924 C135.207999,16.9853336 135.044001,17.0693328 134.908,17.176 C134.771999,17.2826672 134.668,17.406666 134.596,17.548 C134.524,17.689334 134.488,17.8426658 134.488,18.008 C134.488,18.216001 134.547999,18.3893326 134.668,18.528 C134.788001,18.6666674 134.946666,18.7866662 135.144,18.888 C135.341334,18.9893338 135.565332,19.0786663 135.816,19.156 C136.066668,19.2333337 136.323999,19.3159996 136.588,19.404 C136.852001,19.4920004 137.109332,19.5893328 137.36,19.696 C137.610668,19.8026672 137.834666,19.9359992 138.032,20.096 C138.229334,20.2560008 138.387999,20.4519988 138.508,20.684 C138.628001,20.9160012 138.688,21.194665 138.688,21.52 C138.688,21.8933352 138.621334,22.2386651 138.488,22.556 C138.354666,22.8733349 138.157335,23.1479988 137.896,23.38 C137.634665,23.6120012 137.314669,23.794666 136.936,23.928 C136.557331,24.061334 136.120002,24.128 135.624,24.128 C135.058664,24.128 134.546669,24.0360009 134.088,23.852 C133.629331,23.6679991 133.240002,23.4320014 132.92,23.144 L133.256,22.6 C133.298667,22.5306663 133.349333,22.4773335 133.408,22.44 C133.466667,22.4026665 133.541333,22.384 133.632,22.384 C133.728,22.384 133.829333,22.421333 133.936,22.496 C134.042667,22.570667 134.171999,22.6533329 134.324,22.744 C134.476001,22.8346671 134.661332,22.917333 134.88,22.992 C135.098668,23.066667 135.370665,23.104 135.696,23.104 C135.973335,23.104 136.215999,23.0680004 136.424,22.996 C136.632001,22.9239996 136.805333,22.8266673 136.944,22.704 C137.082667,22.5813327 137.185333,22.4400008 137.252,22.28 C137.318667,22.1199992 137.352,21.9493342 137.352,21.768 C137.352,21.5439989 137.292001,21.3586674 137.172,21.212 C137.051999,21.0653326 136.893334,20.9400005 136.696,20.836 C136.498666,20.7319995 136.273335,20.6413337 136.02,20.564 C135.766665,20.4866663 135.508001,20.4053338 135.244,20.32 C134.979999,20.2346662 134.721335,20.1373339 134.468,20.028 C134.214665,19.9186661 133.989334,19.7813342 133.792,19.616 C133.594666,19.4506658 133.436001,19.2466679 133.316,19.004 C133.195999,18.7613321 133.136,18.4666684 133.136,18.12 C133.136,17.8106651 133.199999,17.5133348 133.328,17.228 C133.456001,16.9426652 133.642665,16.6920011 133.888,16.476 C134.133335,16.2599989 134.434665,16.0880006 134.792,15.96 C135.149335,15.8319994 135.557331,15.768 136.016,15.768 C136.549336,15.768 137.027998,15.8519992 137.452,16.02 C137.876002,16.1880008 138.242665,16.4186652 138.552,16.712 L138.232,17.232 Z M142.928,24.128 C142.287997,24.128 141.796002,23.9493351 141.452,23.592 C141.107998,23.2346649 140.936,22.7200034 140.936,22.048 L140.936,17.088 L139.96,17.088 C139.874666,17.088 139.802667,17.0626669 139.744,17.012 C139.685333,16.9613331 139.656,16.8826672 139.656,16.776 L139.656,16.208 L140.984,16.04 L141.312,13.536 C141.328,13.4559996 141.364,13.3906669 141.42,13.34 C141.476,13.2893331 141.549333,13.264 141.64,13.264 L142.36,13.264 L142.36,16.056 L144.704,16.056 L144.704,17.088 L142.36,17.088 L142.36,21.952 C142.36,22.293335 142.442666,22.5466658 142.608,22.712 C142.773334,22.8773342 142.986665,22.96 143.248,22.96 C143.397334,22.96 143.526666,22.9400002 143.636,22.9 C143.745334,22.8599998 143.84,22.8160002 143.92,22.768 C144,22.7199998 144.068,22.6760002 144.124,22.636 C144.18,22.5959998 144.229333,22.576 144.272,22.576 C144.346667,22.576 144.413333,22.6213329 144.472,22.712 L144.888,23.392 C144.642665,23.6213345 144.346668,23.8013327 144,23.932 C143.653332,24.0626673 143.296002,24.128 142.928,24.128 Z M147.528,17.52 C147.784001,16.9653306 148.098665,16.5320016 148.472,16.22 C148.845335,15.9079984 149.301331,15.752 149.84,15.752 C150.010668,15.752 150.174666,15.7706665 150.332,15.808 C150.489334,15.8453335 150.629333,15.9039996 150.752,15.984 L150.648,17.048 C150.616,17.181334 150.536001,17.248 150.408,17.248 C150.333333,17.248 150.224001,17.2320002 150.08,17.2 C149.935999,17.1679998 149.773334,17.152 149.592,17.152 C149.335999,17.152 149.108001,17.189333 148.908,17.264 C148.707999,17.338667 148.529334,17.4493326 148.372,17.596 C148.214666,17.7426674 148.073334,17.9239989 147.948,18.14 C147.822666,18.3560011 147.709334,18.6026653 147.608,18.88 L147.608,24 L146.176,24 L146.176,15.896 L146.992,15.896 C147.146667,15.896 147.253333,15.925333 147.312,15.984 C147.370667,16.042667 147.410667,16.1439993 147.432,16.288 L147.528,17.52 Z M156.264,20.352 C155.607997,20.3733334 155.049336,20.4253329 154.588,20.508 C154.126664,20.5906671 153.750668,20.698666 153.46,20.832 C153.169332,20.965334 152.958667,21.1226658 152.828,21.304 C152.697333,21.4853342 152.632,21.6879989 152.632,21.912 C152.632,22.1253344 152.666666,22.3093326 152.736,22.464 C152.805334,22.6186674 152.899999,22.7453328 153.02,22.844 C153.140001,22.9426672 153.281333,23.0146664 153.444,23.06 C153.606667,23.1053336 153.781332,23.128 153.968,23.128 C154.218668,23.128 154.447999,23.1026669 154.656,23.052 C154.864001,23.0013331 155.059999,22.9280005 155.244,22.832 C155.428001,22.7359995 155.603999,22.621334 155.772,22.488 C155.940001,22.354666 156.103999,22.2026675 156.264,22.032 L156.264,20.352 Z M151.664,17.04 C152.112002,16.6079978 152.594664,16.2853344 153.112,16.072 C153.629336,15.8586656 154.202664,15.752 154.832,15.752 C155.285336,15.752 155.687998,15.8266659 156.04,15.976 C156.392002,16.1253341 156.687999,16.333332 156.928,16.6 C157.168001,16.866668 157.349333,17.1893314 157.472,17.568 C157.594667,17.9466686 157.656,18.3626644 157.656,18.816 L157.656,24 L157.024,24 C156.885333,24 156.778667,23.9773336 156.704,23.932 C156.629333,23.8866664 156.570667,23.797334 156.528,23.664 L156.368,22.896 C156.154666,23.0933343 155.946668,23.2679992 155.744,23.42 C155.541332,23.5720008 155.328001,23.6999995 155.104,23.804 C154.879999,23.9080005 154.641335,23.9879997 154.388,24.044 C154.134665,24.1000003 153.853335,24.128 153.544,24.128 C153.229332,24.128 152.933335,24.0840004 152.656,23.996 C152.378665,23.9079996 152.137334,23.7760009 151.932,23.6 C151.726666,23.4239991 151.564001,23.2013347 151.444,22.932 C151.323999,22.6626653 151.264,22.3440018 151.264,21.976 C151.264,21.6559984 151.351999,21.3480015 151.528,21.052 C151.704001,20.7559985 151.989331,20.4933345 152.384,20.264 C152.778669,20.0346655 153.29333,19.8466674 153.928,19.7 C154.56267,19.5533326 155.341329,19.4693334 156.264,19.448 L156.264,18.816 C156.264,18.1866635 156.128001,17.7106683 155.856,17.388 C155.583999,17.0653317 155.186669,16.904 154.664,16.904 C154.311998,16.904 154.017335,16.9479996 153.78,17.036 C153.542665,17.1240004 153.337334,17.2226661 153.164,17.332 C152.990666,17.4413339 152.841334,17.5399996 152.716,17.628 C152.590666,17.7160004 152.466667,17.76 152.344,17.76 C152.248,17.76 152.165334,17.7346669 152.096,17.684 C152.026666,17.6333331 151.968,17.570667 151.92,17.496 L151.664,17.04 Z M167.24,24 L165.816,24 L165.816,17.088 L161.64,17.088 L161.64,21.952 C161.64,22.293335 161.722666,22.5466658 161.888,22.712 C162.053334,22.8773342 162.266665,22.96 162.528,22.96 C162.677334,22.96 162.806666,22.9400002 162.916,22.9 C163.025334,22.8599998 163.12,22.8160002 163.2,22.768 C163.28,22.7199998 163.348,22.6760002 163.404,22.636 C163.46,22.5959998 163.509333,22.576 163.552,22.576 C163.626667,22.576 163.693333,22.6213329 163.752,22.712 L164.168,23.392 C163.922665,23.6213345 163.626668,23.8013327 163.28,23.932 C162.933332,24.0626673 162.576002,24.128 162.208,24.128 C161.567997,24.128 161.076002,23.9493351 160.732,23.592 C160.387998,23.2346649 160.216,22.7200034 160.216,22.048 L160.216,17.088 L159.24,17.088 C159.154666,17.088 159.082667,17.0626669 159.024,17.012 C158.965333,16.9613331 158.936,16.8826672 158.936,16.776 L158.936,16.208 L160.264,16.032 L160.592,13.536 C160.608,13.4559996 160.644,13.3906669 160.7,13.34 C160.756,13.2893331 160.829333,13.264 160.92,13.264 L161.64,13.264 L161.64,16.056 L167.24,16.056 L167.24,24 Z M167.592,13.296 C167.592,13.4346674 167.564,13.5639994 167.508,13.684 C167.452,13.8040006 167.377334,13.9093329 167.284,14 C167.190666,14.0906671 167.082667,14.1626664 166.96,14.216 C166.837333,14.2693336 166.706667,14.296 166.568,14.296 C166.429333,14.296 166.300001,14.2693336 166.18,14.216 C166.059999,14.1626664 165.954667,14.0906671 165.864,14 C165.773333,13.9093329 165.701334,13.8040006 165.648,13.684 C165.594666,13.5639994 165.568,13.4346674 165.568,13.296 C165.568,13.1573326 165.594666,13.025334 165.648,12.9 C165.701334,12.774666 165.773333,12.6653338 165.864,12.572 C165.954667,12.4786662 166.059999,12.4053336 166.18,12.352 C166.300001,12.2986664 166.429333,12.272 166.568,12.272 C166.706667,12.272 166.837333,12.2986664 166.96,12.352 C167.082667,12.4053336 167.190666,12.4786662 167.284,12.572 C167.377334,12.6653338 167.452,12.774666 167.508,12.9 C167.564,13.025334 167.592,13.1573326 167.592,13.296 Z M172.992,15.768 C173.584003,15.768 174.117331,15.8666657 174.592,16.064 C175.066669,16.2613343 175.471998,16.5413315 175.808,16.904 C176.144002,17.2666685 176.401332,17.7053308 176.58,18.22 C176.758668,18.7346692 176.848,19.3093302 176.848,19.944 C176.848,20.5840032 176.758668,21.1599974 176.58,21.672 C176.401332,22.1840026 176.144002,22.6213315 175.808,22.984 C175.471998,23.3466685 175.066669,23.6253324 174.592,23.82 C174.117331,24.0146676 173.584003,24.112 172.992,24.112 C172.394664,24.112 171.857336,24.0146676 171.38,23.82 C170.902664,23.6253324 170.496002,23.3466685 170.16,22.984 C169.823998,22.6213315 169.566668,22.1840026 169.388,21.672 C169.209332,21.1599974 169.12,20.5840032 169.12,19.944 C169.12,19.3093302 169.209332,18.7346692 169.388,18.22 C169.566668,17.7053308 169.823998,17.2666685 170.16,16.904 C170.496002,16.5413315 170.902664,16.2613343 171.38,16.064 C171.857336,15.8666657 172.394664,15.768 172.992,15.768 Z M172.992,23 C173.792004,23 174.389331,22.7320027 174.784,22.196 C175.178669,21.6599973 175.376,20.9120048 175.376,19.952 C175.376,18.9866618 175.178669,18.2346694 174.784,17.696 C174.389331,17.1573306 173.792004,16.888 172.992,16.888 C172.586665,16.888 172.233335,16.9573326 171.932,17.096 C171.630665,17.2346674 171.380001,17.4346654 171.18,17.696 C170.979999,17.9573346 170.830667,18.2786648 170.732,18.66 C170.633333,19.0413352 170.584,19.4719976 170.584,19.952 C170.584,20.9120048 170.782665,21.6599973 171.18,22.196 C171.577335,22.7320027 172.181329,23 172.992,23 Z M179.992,17.072 C180.168001,16.8746657 180.354666,16.6960008 180.552,16.536 C180.749334,16.3759992 180.958666,16.2386672 181.18,16.124 C181.401334,16.0093328 181.635999,15.9213336 181.884,15.86 C182.132001,15.7986664 182.399999,15.768 182.688,15.768 C183.130669,15.768 183.521332,15.8413326 183.86,15.988 C184.198668,16.1346674 184.481332,16.3426653 184.708,16.612 C184.934668,16.8813347 185.106666,17.2053314 185.224,17.584 C185.341334,17.9626686 185.4,18.381331 185.4,18.84 L185.4,24 L183.968,24 L183.968,18.84 C183.968,18.2266636 183.828001,17.7506684 183.548,17.412 C183.267999,17.0733316 182.84267,16.904 182.272,16.904 C181.850665,16.904 181.457335,17.0053323 181.092,17.208 C180.726665,17.4106677 180.389335,17.6853316 180.08,18.032 L180.08,24 L178.648,24 L178.648,15.896 L179.504,15.896 C179.706668,15.896 179.832,15.9946657 179.88,16.192 L179.992,17.072 Z M200.056,21.632 C200.141334,21.632 200.216,21.6666663 200.28,21.736 L200.896,22.4 C200.426664,22.9440027 199.857337,23.3679985 199.188,23.672 C198.518663,23.9760015 197.709338,24.128 196.76,24.128 C195.938663,24.128 195.192003,23.9853348 194.52,23.7 C193.847997,23.4146652 193.274669,23.0146692 192.8,22.5 C192.325331,21.9853308 191.957335,21.3680036 191.696,20.648 C191.434665,19.9279964 191.304,19.1360043 191.304,18.272 C191.304,17.4079957 191.439999,16.6160036 191.712,15.896 C191.984001,15.1759964 192.366664,14.5573359 192.86,14.04 C193.353336,13.5226641 193.943997,13.1213348 194.632,12.836 C195.320003,12.5506652 196.079996,12.408 196.912,12.408 C197.728004,12.408 198.447997,12.5386654 199.072,12.8 C199.696003,13.0613346 200.245331,13.4159978 200.72,13.864 L200.208,14.576 C200.176,14.6293336 200.134667,14.6733332 200.084,14.708 C200.033333,14.7426668 199.965334,14.76 199.88,14.76 C199.784,14.76 199.666667,14.7080005 199.528,14.604 C199.389333,14.4999995 199.208001,14.3840006 198.984,14.256 C198.759999,14.1279994 198.480002,14.0120005 198.144,13.908 C197.807998,13.8039995 197.394669,13.752 196.904,13.752 C196.311997,13.752 195.770669,13.8546656 195.28,14.06 C194.789331,14.2653344 194.366668,14.5626647 194.012,14.952 C193.657332,15.3413353 193.381334,15.8159972 193.184,16.376 C192.986666,16.9360028 192.888,17.5679965 192.888,18.272 C192.888,18.9866702 192.990666,19.6239972 193.196,20.184 C193.401334,20.7440028 193.681332,21.2173314 194.036,21.604 C194.390668,21.9906686 194.809331,22.2853323 195.292,22.488 C195.774669,22.6906677 196.295997,22.792 196.856,22.792 C197.197335,22.792 197.505332,22.7720002 197.78,22.732 C198.054668,22.6919998 198.307999,22.6293338 198.54,22.544 C198.772001,22.4586662 198.987999,22.3506673 199.188,22.22 C199.388001,22.0893327 199.586666,21.9333342 199.784,21.752 C199.874667,21.6719996 199.965333,21.632 200.056,21.632 Z M205.616,15.768 C206.208003,15.768 206.741331,15.8666657 207.216,16.064 C207.690669,16.2613343 208.095998,16.5413315 208.432,16.904 C208.768002,17.2666685 209.025332,17.7053308 209.204,18.22 C209.382668,18.7346692 209.472,19.3093302 209.472,19.944 C209.472,20.5840032 209.382668,21.1599974 209.204,21.672 C209.025332,22.1840026 208.768002,22.6213315 208.432,22.984 C208.095998,23.3466685 207.690669,23.6253324 207.216,23.82 C206.741331,24.0146676 206.208003,24.112 205.616,24.112 C205.018664,24.112 204.481336,24.0146676 204.004,23.82 C203.526664,23.6253324 203.120002,23.3466685 202.784,22.984 C202.447998,22.6213315 202.190668,22.1840026 202.012,21.672 C201.833332,21.1599974 201.744,20.5840032 201.744,19.944 C201.744,19.3093302 201.833332,18.7346692 202.012,18.22 C202.190668,17.7053308 202.447998,17.2666685 202.784,16.904 C203.120002,16.5413315 203.526664,16.2613343 204.004,16.064 C204.481336,15.8666657 205.018664,15.768 205.616,15.768 Z M205.616,23 C206.416004,23 207.013331,22.7320027 207.408,22.196 C207.802669,21.6599973 208,20.9120048 208,19.952 C208,18.9866618 207.802669,18.2346694 207.408,17.696 C207.013331,17.1573306 206.416004,16.888 205.616,16.888 C205.210665,16.888 204.857335,16.9573326 204.556,17.096 C204.254665,17.2346674 204.004001,17.4346654 203.804,17.696 C203.603999,17.9573346 203.454667,18.2786648 203.356,18.66 C203.257333,19.0413352 203.208,19.4719976 203.208,19.952 C203.208,20.9120048 203.406665,21.6599973 203.804,22.196 C204.201335,22.7320027 204.805329,23 205.616,23 Z M212.616,17.072 C212.792001,16.8746657 212.978666,16.6960008 213.176,16.536 C213.373334,16.3759992 213.582666,16.2386672 213.804,16.124 C214.025334,16.0093328 214.259999,15.9213336 214.508,15.86 C214.756001,15.7986664 215.023999,15.768 215.312,15.768 C215.754669,15.768 216.145332,15.8413326 216.484,15.988 C216.822668,16.1346674 217.105332,16.3426653 217.332,16.612 C217.558668,16.8813347 217.730666,17.2053314 217.848,17.584 C217.965334,17.9626686 218.024,18.381331 218.024,18.84 L218.024,24 L216.592,24 L216.592,18.84 C216.592,18.2266636 216.452001,17.7506684 216.172,17.412 C215.891999,17.0733316 215.46667,16.904 214.896,16.904 C214.474665,16.904 214.081335,17.0053323 213.716,17.208 C213.350665,17.4106677 213.013335,17.6853316 212.704,18.032 L212.704,24 L211.272,24 L211.272,15.896 L212.128,15.896 C212.330668,15.896 212.456,15.9946657 212.504,16.192 L212.616,17.072 Z M224.92,17.232 C224.856,17.3493339 224.757334,17.408 224.624,17.408 C224.544,17.408 224.453334,17.378667 224.352,17.32 C224.250666,17.261333 224.126667,17.1960004 223.98,17.124 C223.833333,17.0519996 223.658668,16.9853336 223.456,16.924 C223.253332,16.8626664 223.013335,16.832 222.736,16.832 C222.495999,16.832 222.280001,16.8626664 222.088,16.924 C221.895999,16.9853336 221.732001,17.0693328 221.596,17.176 C221.459999,17.2826672 221.356,17.406666 221.284,17.548 C221.212,17.689334 221.176,17.8426658 221.176,18.008 C221.176,18.216001 221.235999,18.3893326 221.356,18.528 C221.476001,18.6666674 221.634666,18.7866662 221.832,18.888 C222.029334,18.9893338 222.253332,19.0786663 222.504,19.156 C222.754668,19.2333337 223.011999,19.3159996 223.276,19.404 C223.540001,19.4920004 223.797332,19.5893328 224.048,19.696 C224.298668,19.8026672 224.522666,19.9359992 224.72,20.096 C224.917334,20.2560008 225.075999,20.4519988 225.196,20.684 C225.316001,20.9160012 225.376,21.194665 225.376,21.52 C225.376,21.8933352 225.309334,22.2386651 225.176,22.556 C225.042666,22.8733349 224.845335,23.1479988 224.584,23.38 C224.322665,23.6120012 224.002669,23.794666 223.624,23.928 C223.245331,24.061334 222.808002,24.128 222.312,24.128 C221.746664,24.128 221.234669,24.0360009 220.776,23.852 C220.317331,23.6679991 219.928002,23.4320014 219.608,23.144 L219.944,22.6 C219.986667,22.5306663 220.037333,22.4773335 220.096,22.44 C220.154667,22.4026665 220.229333,22.384 220.32,22.384 C220.416,22.384 220.517333,22.421333 220.624,22.496 C220.730667,22.570667 220.859999,22.6533329 221.012,22.744 C221.164001,22.8346671 221.349332,22.917333 221.568,22.992 C221.786668,23.066667 222.058665,23.104 222.384,23.104 C222.661335,23.104 222.903999,23.0680004 223.112,22.996 C223.320001,22.9239996 223.493333,22.8266673 223.632,22.704 C223.770667,22.5813327 223.873333,22.4400008 223.94,22.28 C224.006667,22.1199992 224.04,21.9493342 224.04,21.768 C224.04,21.5439989 223.980001,21.3586674 223.86,21.212 C223.739999,21.0653326 223.581334,20.9400005 223.384,20.836 C223.186666,20.7319995 222.961335,20.6413337 222.708,20.564 C222.454665,20.4866663 222.196001,20.4053338 221.932,20.32 C221.667999,20.2346662 221.409335,20.1373339 221.156,20.028 C220.902665,19.9186661 220.677334,19.7813342 220.48,19.616 C220.282666,19.4506658 220.124001,19.2466679 220.004,19.004 C219.883999,18.7613321 219.824,18.4666684 219.824,18.12 C219.824,17.8106651 219.887999,17.5133348 220.016,17.228 C220.144001,16.9426652 220.330665,16.6920011 220.576,16.476 C220.821335,16.2599989 221.122665,16.0880006 221.48,15.96 C221.837335,15.8319994 222.245331,15.768 222.704,15.768 C223.237336,15.768 223.715998,15.8519992 224.14,16.02 C224.564002,16.1880008 224.930665,16.4186652 225.24,16.712 L224.92,17.232 Z M230.544,15.768 C231.136003,15.768 231.669331,15.8666657 232.144,16.064 C232.618669,16.2613343 233.023998,16.5413315 233.36,16.904 C233.696002,17.2666685 233.953332,17.7053308 234.132,18.22 C234.310668,18.7346692 234.4,19.3093302 234.4,19.944 C234.4,20.5840032 234.310668,21.1599974 234.132,21.672 C233.953332,22.1840026 233.696002,22.6213315 233.36,22.984 C233.023998,23.3466685 232.618669,23.6253324 232.144,23.82 C231.669331,24.0146676 231.136003,24.112 230.544,24.112 C229.946664,24.112 229.409336,24.0146676 228.932,23.82 C228.454664,23.6253324 228.048002,23.3466685 227.712,22.984 C227.375998,22.6213315 227.118668,22.1840026 226.94,21.672 C226.761332,21.1599974 226.672,20.5840032 226.672,19.944 C226.672,19.3093302 226.761332,18.7346692 226.94,18.22 C227.118668,17.7053308 227.375998,17.2666685 227.712,16.904 C228.048002,16.5413315 228.454664,16.2613343 228.932,16.064 C229.409336,15.8666657 229.946664,15.768 230.544,15.768 Z M230.544,23 C231.344004,23 231.941331,22.7320027 232.336,22.196 C232.730669,21.6599973 232.928,20.9120048 232.928,19.952 C232.928,18.9866618 232.730669,18.2346694 232.336,17.696 C231.941331,17.1573306 231.344004,16.888 230.544,16.888 C230.138665,16.888 229.785335,16.9573326 229.484,17.096 C229.182665,17.2346674 228.932001,17.4346654 228.732,17.696 C228.531999,17.9573346 228.382667,18.2786648 228.284,18.66 C228.185333,19.0413352 228.136,19.4719976 228.136,19.952 C228.136,20.9120048 228.334665,21.6599973 228.732,22.196 C229.129335,22.7320027 229.733329,23 230.544,23 Z M237.672,12.216 L237.672,24 L236.248,24 L236.248,12.216 L237.672,12.216 Z M245.4,19.064 C245.4,18.7333317 245.353334,18.430668 245.26,18.156 C245.166666,17.881332 245.030668,17.644001 244.852,17.444 C244.673332,17.243999 244.456001,17.0893339 244.2,16.98 C243.943999,16.8706661 243.653335,16.816 243.328,16.816 C242.64533,16.816 242.105335,17.0146647 241.708,17.412 C241.310665,17.8093353 241.064,18.3599965 240.968,19.064 L245.4,19.064 Z M246.552,22.864 C246.375999,23.0773344 246.165335,23.2626659 245.92,23.42 C245.674665,23.5773341 245.412001,23.7066662 245.132,23.808 C244.851999,23.9093338 244.562668,23.9853331 244.264,24.036 C243.965332,24.0866669 243.669335,24.112 243.376,24.112 C242.815997,24.112 242.300002,24.0173343 241.828,23.828 C241.355998,23.6386657 240.948002,23.3613352 240.604,22.996 C240.259998,22.6306648 239.992001,22.1786694 239.8,21.64 C239.607999,21.1013306 239.512,20.4826702 239.512,19.784 C239.512,19.2186638 239.598666,18.6906691 239.772,18.2 C239.945334,17.7093309 240.194665,17.2840018 240.52,16.924 C240.845335,16.5639982 241.242664,16.2813344 241.712,16.076 C242.181336,15.8706656 242.70933,15.768 243.296,15.768 C243.781336,15.768 244.230665,15.8493325 244.644,16.012 C245.057335,16.1746675 245.414665,16.4093318 245.716,16.716 C246.017335,17.0226682 246.253332,17.4013311 246.424,17.852 C246.594668,18.3026689 246.68,18.8159971 246.68,19.392 C246.68,19.6160011 246.656,19.765333 246.608,19.84 C246.56,19.914667 246.469334,19.952 246.336,19.952 L240.92,19.952 C240.936,20.4640026 241.006666,20.9093314 241.132,21.288 C241.257334,21.6666686 241.431999,21.9826654 241.656,22.236 C241.880001,22.4893346 242.146665,22.678666 242.456,22.804 C242.765335,22.929334 243.111998,22.992 243.496,22.992 C243.853335,22.992 244.161332,22.9506671 244.42,22.868 C244.678668,22.7853329 244.901332,22.6960005 245.088,22.6 C245.274668,22.5039995 245.430666,22.4146671 245.556,22.332 C245.681334,22.2493329 245.789333,22.208 245.88,22.208 C245.997334,22.208 246.088,22.2533329 246.152,22.344 L246.552,22.864 Z" id="Administration-Conso" fill="#F58020"></path>
        <rect id="Rectangle" fill="#BCC3CA" x="74.5323741" y="12.0863309" width="1.00719424" height="12.0863309"></rect>
        <g>
            <path d="M55.7353158,18.1405057 C55.7353158,20.2377833 57.3810927,22.019859 59.4427405,22.019859 C61.5081159,22.019859 63.1506311,20.2377833 63.1506311,18.1405057 C63.1506311,16.0188161 61.5081159,14.2592378 59.4427405,14.2592378 C57.3810927,14.2592378 55.7353158,16.0188161 55.7353158,18.1405057 M65.2372079,18.1405057 C65.2372079,21.5007451 62.6883971,24.0671159 59.4427405,24.0671159 C56.2008116,24.0671159 53.6517678,21.4966764 53.6517678,18.1405057 C53.6517678,14.7821811 56.2008116,12.2126989 59.4427405,12.2126989 C62.6883971,12.2126989 65.2372079,14.7821811 65.2372079,18.1405057" id="o" fill="#FFFFFF" fill-rule="nonzero"></path>
            <path d="M48.435792,16.8548073 C48.1834737,15.1866543 47.1164213,14.0713612 45.4452495,14.0713612 C43.8251005,14.0713612 42.6194245,15.2541463 42.3605827,16.8548073 L48.435792,16.8548073 Z M42.2506157,18.4705464 C42.2692542,20.3799473 43.5243222,22.1622623 45.5165417,22.1622623 C47.1164213,22.1622623 47.9740239,21.3284251 48.7621982,19.9943814 L50.5228347,21.0189672 C49.5014466,22.9475148 47.6033513,24.0671159 45.4948744,24.0671159 C42.1797895,24.0671159 40.1666018,21.4952404 40.1666018,18.2096731 C40.1666018,14.7821811 41.9498374,12.2136562 45.4489772,12.2136562 C48.9024527,12.2136562 50.5263294,14.8322017 50.5263294,18.1405057 L50.5263294,18.4722216 L42.2506157,18.4705464 Z" id="e" fill="#FFFFFF" fill-rule="nonzero"></path>
            <polyline id="Path" fill="#FFFFFF" points="32.0777388 19.4953715 35.2045752 12.5417822 37.5455669 12.5417822 32.0777388 24.0671159 26.6329757 12.5458508 28.9723368 12.5458508 32.0777388 19.4953715"></polyline>
            <path d="M14.6505364,18.1405057 C14.6505364,20.2377833 16.2977111,22.019859 18.3593589,22.019859 C20.4228705,22.019859 22.0649198,20.2377833 22.0649198,18.1405057 C22.0649198,16.0188161 20.4228705,14.2592378 18.3593589,14.2592378 C16.2977111,14.2592378 14.6505364,16.0188161 14.6505364,18.1405057 M24.1538262,18.1405057 C24.1538262,21.5007451 21.6033846,24.0671159 18.3593589,24.0671159 C15.1153332,24.0671159 12.5681533,21.4966764 12.5681533,18.1405057 C12.5681533,14.7821811 15.1153332,12.2126989 18.3593589,12.2126989 C21.6012878,12.2126989 24.1538262,14.7821811 24.1538262,18.1405057" id="o" fill="#FFFFFF" fill-rule="nonzero"></path>
            <path d="M8.9744233,15.7098369 C8.14058475,14.7347931 7.12059449,14.2135252 5.86902122,14.2135252 C3.83090453,14.2135252 2.25618679,16.0659648 2.25618679,18.1139398 C2.25618679,20.4002907 3.80737346,22.0650929 6.00950869,22.0650929 C7.21378684,22.0650929 8.18787988,21.4935651 8.9744233,20.5934325 L8.9744233,23.3282941 C8.02572519,23.8526732 7.07469725,24.0683125 5.98551166,24.0683125 C2.78738319,24.0683125 0.169377096,21.5476544 0.169377096,18.2115878 C0.169377096,14.7630344 2.76338616,12.2136562 6.10246806,12.2136562 C7.07329937,12.2136562 8.14058475,12.4517929 8.9744233,12.9522388 L8.9744233,15.7098369" id="c" fill="#FFFFFF"></path>
            <polyline fill="#F58020" points="49.8280857 5.49533158 40.8333931 0.10410998 40.8333931 10.7321833 49.8280857 5.49533158"></polyline>
        </g>
    </g>
</svg>