<svg id="Layer_1" xmlns="http://www.w3.org/2000/svg" x="0px" y="0px" viewBox="0 0 409.4 103.6" style="enable-background:new 0 0 409.4 103.6;" xml:space="preserve">
<style type="text/css">
	.st0{fill:#FFFFFF;}
	.st1{fill:#00ADFF;}
	.st2{fill:#F05245;}
	.st3{fill:#1CEBCF;}
	.st4{fill:#FFE300;}
</style>
<g>
	<g>
		<path class="st0" d="M164.6,36.2c-4.9,5.2-4.9,5.2-4.9,5.2c-3.3-3.3-7-5.2-11.9-5.2c-8.5,0-14.9,6.7-14.9,16.1s6.4,16.1,14.9,16.1
			c4.9,0,9.1-2.1,12.2-5.2c4.6,5.2,4.6,5.2,4.6,5.2c-4,4.6-9.7,7-16.4,7c-14,0-23.1-10-23.1-23.1c0-13.4,9.1-23.4,23.1-23.4
			C154.8,28.9,160.6,31.6,164.6,36.2L164.6,36.2z"/>
		<path class="st0" d="M219.3,52.3c0,13.1-10,23.1-23.4,23.1c-13.7,0-23.7-10-23.7-23.1c0-13.4,10-23.4,23.7-23.4
			C209.2,28.9,219.3,38.9,219.3,52.3L219.3,52.3z M180.1,52.3c0,9.4,6.7,16.1,15.8,16.1c8.8,0,15.5-6.7,15.5-16.1
			s-6.7-16.1-15.5-16.1C186.7,36.2,180.1,42.9,180.1,52.3L180.1,52.3z"/>
		<polygon class="st0" points="252.1,74.5 243,74.5 224.1,30.1 232.6,30.1 247.5,66.9 262.4,30.1 270.6,30.1 252.1,74.5 		"/>
		<path class="st0" d="M318.6,52c0,1.2,0,2.1,0,3c-35,0-35,0-35,0c0.9,9.1,7.3,13.7,14.9,13.7c5.5,0,10-1.8,14-5.2
			c4,5.2,4,5.2,4,5.2c-5.5,5.2-11.5,6.7-18.2,6.7c-13.4,0-22.8-9.1-22.8-23.1c0-13.7,9.4-23.4,22.2-23.4
			C309.8,28.9,318.6,38.6,318.6,52L318.6,52z M283.7,48.6c27.4,0,27.4,0,27.4,0c-0.9-7.6-6.1-12.8-13.4-12.8
			C289.8,35.9,284.9,41,283.7,48.6L283.7,48.6z"/>
		<path class="st0" d="M375.8,52.3c0,13.1-10,23.1-23.4,23.1c-13.7,0-23.7-10-23.7-23.1c0-13.4,10-23.4,23.7-23.4
			C365.8,28.9,375.8,38.9,375.8,52.3L375.8,52.3z M336.6,52.3c0,9.4,6.7,16.1,15.8,16.1c8.8,0,15.5-6.7,15.5-16.1
			s-6.7-16.1-15.5-16.1C343.3,36.2,336.6,42.9,336.6,52.3L336.6,52.3z"/>
	</g>
	<g>
		<polyline class="st0" points="394,30.2 385,30.2 385,31.9 388.6,31.9 388.6,43 390.5,43 390.5,31.9 394,31.9 394,30.2 		"/>
		<polyline class="st0" points="409.4,30.2 407.4,30.2 403.7,38.2 400,30.2 398,30.2 398,43 400,43 400,34.4 403,40.7 404.5,40.7 
			407.4,34.4 407.4,43 409.4,43 409.4,30.2 		"/>
	</g>
	<g>
		<path class="st1" d="M88.1,15C79.2,6.1,67.9,1.1,56.2,0C54.8-0.1,54,1.6,55,2.6l18.7,18.7c0.1,0.1,0,0.3-0.2,0.2
			c-5.3-3.9-11.5-6.1-17.8-6.7c-1-0.1-1.5,1.1-0.8,1.8l12.7,12.7c0.1,0.1,0,0.3-0.2,0.2c-3.5-2.4-7.5-3.8-11.6-4.2
			c-0.7-0.1-1.1,0.8-0.6,1.2l21.6,21.6c0.5,0.5,1.3,0.1,1.2-0.6c-0.4-4.1-1.8-8-4.2-11.5c-0.1-0.1,0.1-0.3,0.2-0.2l12.2,12.2
			c0.7,0.7,1.9,0.1,1.8-0.8c-0.6-6.3-2.8-12.4-6.7-17.8c-0.1-0.1,0.1-0.3,0.2-0.2L100.4,48c1,1,2.7,0.2,2.6-1.2
			C102,35.2,97,23.9,88.1,15"/>
		<path class="st2" d="M15,15C23.9,6.1,35.2,1.1,46.8,0C48.2-0.1,49,1.6,48,2.6L29.4,21.3c-0.1,0.1,0,0.3,0.2,0.2
			c5.3-3.9,11.5-6.1,17.8-6.7c1-0.1,1.5,1.1,0.8,1.8L35.4,29.3c-0.1,0.1,0,0.3,0.2,0.2c3.5-2.4,7.5-3.8,11.6-4.2
			c0.7-0.1,1.1,0.8,0.6,1.2L26.1,48.2c-0.5,0.5-1.3,0.1-1.2-0.6c0.4-4.1,1.8-8,4.2-11.5c0.1-0.1-0.1-0.3-0.2-0.2L16.6,48.1
			c-0.7,0.7-1.9,0.1-1.8-0.8c0.6-6.3,2.8-12.4,6.7-17.8c0.1-0.1-0.1-0.3-0.2-0.2L2.6,48c-1,1-2.7,0.2-2.6-1.2
			C1.1,35.2,6.1,23.9,15,15"/>
		<path class="st3" d="M15,88.7c8.9,8.9,20.2,13.9,31.9,15c1.4,0.1,2.2-1.6,1.2-2.6L29.4,82.4c-0.1-0.1,0-0.3,0.2-0.2
			c5.3,3.9,11.5,6.1,17.8,6.7c1,0.1,1.5-1.1,0.8-1.8L35.4,74.3c-0.1-0.1,0-0.3,0.2-0.2c3.5,2.4,7.5,3.8,11.6,4.2
			c0.7,0.1,1.1-0.8,0.6-1.2L26.1,55.4c-0.5-0.5-1.3-0.1-1.2,0.6c0.4,4.1,1.8,8,4.2,11.5c0.1,0.1-0.1,0.3-0.2,0.2L16.6,55.5
			c-0.7-0.7-1.9-0.1-1.8,0.8c0.6,6.3,2.8,12.4,6.7,17.8c0.1,0.1-0.1,0.3-0.2,0.2L2.6,55.6c-1-1-2.7-0.2-2.6,1.2
			C1.1,68.5,6.1,79.8,15,88.7"/>
		<path class="st4" d="M88.1,88.7c-8.9,8.9-20.2,13.9-31.9,15c-1.4,0.1-2.2-1.6-1.2-2.6l18.7-18.7c0.1-0.1,0-0.3-0.2-0.2
			C68.2,86,62,88.3,55.7,88.8c-1,0.1-1.5-1.1-0.8-1.8l12.7-12.7c0.1-0.1,0-0.3-0.2-0.2c-3.5,2.4-7.5,3.8-11.6,4.2
			c-0.7,0.1-1.1-0.8-0.6-1.2l21.6-21.6c0.5-0.5,1.3-0.1,1.2,0.6c-0.4,4.1-1.8,8-4.2,11.5c-0.1,0.1,0.1,0.3,0.2,0.2l12.2-12.2
			c0.7-0.7,1.9-0.1,1.8,0.8c-0.6,6.3-2.8,12.4-6.7,17.8c-0.1,0.1,0.1,0.3,0.2,0.2l18.7-18.7c1-1,2.7-0.2,2.6,1.2
			C102,68.5,97,79.8,88.1,88.7"/>
	</g>
</g>
</svg>
