<svg enable-background="new 0 0 528 528" height="528" viewBox="0 0 528 528" width="528" xmlns="http://www.w3.org/2000/svg"><path d="m351.999 220c-15.557-.059-42.497-28.517-44-44-1.921-19.789 66.136-87.901 66.136-87.901s-33.386-.441-43.947.327c-50.2 4.802-88.688 47.117-88.688 98.574 0 10.302.25 21.97.699 33 0 0-132.51 144.089-132.2 154 .486 15.549 28.468 44.873 44 44 9.899-.557 154.146-131.889 154.146-131.889 9.91-.096 22.595-.111 32.355-.111 50.852 0 93.887-38.496 99.499-87.847.333-8.73.147-44.324.147-44.324s-68.376 66.246-88.147 66.171z"/><path d="m43.999 22 121 121.596v-121.596z"/><path d="m263.999 0c-.348 0-2.026 0-2.527 0-10.854 0-19.653 9.736-19.653 21.748 0 12.011 8.799 21.747 19.653 21.747.501 0 2.348.002 2.779.002 121.643 0 220.252 98.61 220.252 220.251s-98.609 220.252-220.252 220.252c-121.642 0-220.252-98.609-220.252-220.252 0-74.459 36.957-140.274 93.521-180.137v-37.168l-13.02-6.597c-74.75 46.619-124.501 129.57-124.501 224.154 0 145.803 118.197 264 264 264s264-118.197 264-264-118.197-264-264-264z"/></svg>