<svg version="1.1" id="Layer_1" xmlns="http://www.w3.org/2000/svg" xmlns:xlink="http://www.w3.org/1999/xlink" x="0px" y="0px"
	 width="528px" height="528px" viewBox="0 0 528 528" enable-background="new 0 0 528 528" xml:space="preserve">
<path d="M351.999,220c-15.557-0.059-42.497-28.517-44-44c-1.921-19.789,66.136-87.901,66.136-87.901s-33.386-0.441-43.947,0.327
	C279.988,93.228,241.5,135.543,241.5,187c0,10.302,0.25,21.97,0.699,33c0,0-132.51,144.089-132.2,154
	c0.486,15.549,28.468,44.873,44,44c9.899-0.557,154.146-131.889,154.146-131.889c9.91-0.096,22.595-0.111,32.355-0.111
	c50.852,0,93.887-38.496,99.499-87.847c0.333-8.73,0.147-44.324,0.147-44.324S371.77,220.075,351.999,220z"/>
<polygon points="43.999,22 164.999,143.596 164.999,22 "/>
<path d="M263.999,0c-0.348,0-2.026,0-2.527,0c-10.854,0-19.653,9.736-19.653,21.748c0,12.011,8.799,21.747,19.653,21.747
	c0.501,0,2.348,0.002,2.779,0.002c121.643,0,220.252,98.61,220.252,220.251C484.503,385.389,385.894,484,264.251,484
	c-121.642,0-220.252-98.609-220.252-220.252c0-74.459,36.957-140.274,93.521-180.137V46.443l-13.02-6.597
	C49.75,86.465-0.001,169.416-0.001,264c0,145.803,118.197,264,264,264c145.803,0,264-118.197,264-264S409.802,0,263.999,0z"/>
</svg>
