<?xml version="1.0" encoding="utf-8"?>
<!-- Generator: Adobe Illustrator 16.0.4, SVG Export Plug-In . SVG Version: 6.00 Build 0)  -->
<!DOCTYPE svg PUBLIC "-//W3C//DTD SVG 1.1//EN" "http://www.w3.org/Graphics/SVG/1.1/DTD/svg11.dtd">
<svg version="1.1" id="Layer_1" xmlns="http://www.w3.org/2000/svg" xmlns:xlink="http://www.w3.org/1999/xlink" x="0px" y="0px"
	 width="528px" height="528px" viewBox="0 0 528 528" enable-background="new 0 0 528 528" xml:space="preserve">
<g display="none">
	<line display="inline" fill="none" stroke="#B35047" x1="-0.001" y1="22" x2="527.999" y2="22"/>
	<line display="inline" fill="none" stroke="#B35047" x1="-0.001" y1="44" x2="527.999" y2="44"/>
	<line display="inline" fill="none" stroke="#B35047" x1="-0.001" y1="66" x2="527.999" y2="66"/>
	<line display="inline" fill="none" stroke="#B35047" x1="-0.001" y1="88" x2="527.999" y2="88"/>
	<line display="inline" fill="none" stroke="#B35047" x1="-0.001" y1="110" x2="527.999" y2="110"/>
	<line display="inline" fill="none" stroke="#B35047" x1="-0.001" y1="132" x2="527.999" y2="132"/>
	<line display="inline" fill="none" stroke="#B35047" x1="-0.001" y1="374" x2="527.999" y2="374"/>
	<line display="inline" fill="none" stroke="#B35047" x1="-0.001" y1="396" x2="527.999" y2="396"/>
	<line display="inline" fill="none" stroke="#B35047" x1="-0.001" y1="418" x2="527.999" y2="418"/>
	<line display="inline" fill="none" stroke="#B35047" x1="-0.001" y1="440" x2="527.999" y2="440"/>
	<line display="inline" fill="none" stroke="#B35047" x1="-0.001" y1="462" x2="527.999" y2="462"/>
	<line display="inline" fill="none" stroke="#B35047" x1="-0.001" y1="484" x2="527.999" y2="484"/>
	<line display="inline" fill="none" stroke="#B35047" x1="-0.001" y1="506" x2="527.999" y2="506"/>
	<line display="inline" fill="none" stroke="#B35047" x1="21.999" y1="0" x2="21.999" y2="528"/>
	<line display="inline" fill="none" stroke="#B35047" x1="43.999" y1="0" x2="43.999" y2="528"/>
	<line display="inline" fill="none" stroke="#B35047" x1="65.999" y1="0" x2="65.999" y2="528"/>
	<line display="inline" fill="none" stroke="#B35047" x1="87.999" y1="0" x2="87.999" y2="528"/>
	<line display="inline" fill="none" stroke="#B35047" x1="109.999" y1="0" x2="109.999" y2="528"/>
	<line display="inline" fill="none" stroke="#B35047" x1="351.999" y1="0" x2="351.999" y2="528"/>
	<line display="inline" fill="none" stroke="#B35047" x1="373.999" y1="0" x2="373.999" y2="528"/>
	<line display="inline" fill="none" stroke="#B35047" x1="395.999" y1="0" x2="395.999" y2="528"/>
	<line display="inline" fill="none" stroke="#B35047" x1="417.999" y1="0" x2="417.999" y2="528"/>
	<line display="inline" fill="none" stroke="#B35047" x1="439.999" y1="0" x2="439.999" y2="528"/>
	<line display="inline" fill="none" stroke="#B35047" x1="461.999" y1="0" x2="461.999" y2="528"/>
	<line display="inline" fill="none" stroke="#B35047" x1="483.999" y1="0" x2="483.999" y2="528"/>
	<line display="inline" fill="none" stroke="#B35047" x1="505.999" y1="0" x2="505.999" y2="528"/>
	<g display="inline">
		<g>
			<line fill="none" stroke="#B35047" x1="-0.001" y1="528" x2="527.999" y2="528"/>
			<line fill="none" stroke="#B35047" x1="-0.001" y1="0" x2="-0.001" y2="528"/>
		</g>
		<g>
			<line fill="none" stroke="#B35047" x1="-0.001" y1="0" x2="527.999" y2="0"/>
			<line fill="none" stroke="#B35047" x1="527.999" y1="0" x2="527.999" y2="528"/>
		</g>
	</g>
	<line display="inline" fill="none" stroke="#B35047" x1="329.999" y1="0" x2="329.999" y2="528"/>
	<line display="inline" fill="none" stroke="#B35047" x1="307.999" y1="0" x2="307.999" y2="528"/>
	<line display="inline" fill="none" stroke="#B35047" x1="285.999" y1="0" x2="285.999" y2="528"/>
	<line display="inline" fill="none" stroke="#B35047" x1="263.999" y1="0" x2="263.999" y2="528"/>
	<line display="inline" fill="none" stroke="#B35047" x1="197.999" y1="0" x2="197.999" y2="528"/>
	<line display="inline" fill="none" stroke="#B35047" x1="175.999" y1="0" x2="175.999" y2="528"/>
	<line display="inline" fill="none" stroke="#B35047" x1="153.999" y1="0" x2="153.999" y2="528"/>
	<line display="inline" fill="none" stroke="#B35047" x1="131.999" y1="0" x2="131.999" y2="528"/>
	<line display="inline" fill="none" stroke="#B35047" x1="241.999" y1="0" x2="241.999" y2="528"/>
	<line display="inline" fill="none" stroke="#B35047" x1="219.999" y1="0" x2="219.999" y2="528"/>
	<line display="inline" fill="none" stroke="#B35047" x1="-0.001" y1="154" x2="527.999" y2="154"/>
	<line display="inline" fill="none" stroke="#B35047" x1="-0.001" y1="176" x2="527.999" y2="176"/>
	<line display="inline" fill="none" stroke="#B35047" x1="-0.001" y1="198" x2="527.999" y2="198"/>
	<line display="inline" fill="none" stroke="#B35047" x1="-0.001" y1="220" x2="527.999" y2="220"/>
	<line display="inline" fill="none" stroke="#B35047" x1="-0.001" y1="242" x2="527.999" y2="242"/>
	<line display="inline" fill="none" stroke="#B35047" x1="-0.001" y1="264" x2="527.999" y2="264"/>
	<line display="inline" fill="none" stroke="#B35047" x1="-0.001" y1="286" x2="527.999" y2="286"/>
	<line display="inline" fill="none" stroke="#B35047" x1="-0.001" y1="308" x2="527.999" y2="308"/>
	<line display="inline" fill="none" stroke="#B35047" x1="-0.001" y1="330" x2="527.999" y2="330"/>
	<line display="inline" fill="none" stroke="#B35047" x1="-0.001" y1="352" x2="527.999" y2="352"/>
</g>
<g display="none">
	<line display="inline" opacity="0.3" fill="none" stroke="#CC3333" enable-background="new    " x1="0" y1="33" x2="528" y2="33"/>
	<line display="inline" opacity="0.3" fill="none" stroke="#CC3333" enable-background="new    " x1="0" y1="55" x2="528" y2="55"/>
	<line display="inline" opacity="0.3" fill="none" stroke="#CC3333" enable-background="new    " x1="0" y1="77" x2="528" y2="77"/>
	<line display="inline" opacity="0.3" fill="none" stroke="#CC3333" enable-background="new    " x1="0" y1="99" x2="528" y2="99"/>
	
		<line display="inline" opacity="0.3" fill="none" stroke="#CC3333" enable-background="new    " x1="0" y1="121" x2="528" y2="121"/>
	
		<line display="inline" opacity="0.3" fill="none" stroke="#CC3333" enable-background="new    " x1="0" y1="143" x2="528" y2="143"/>
	
		<line display="inline" opacity="0.3" fill="none" stroke="#CC3333" enable-background="new    " x1="0" y1="385" x2="528" y2="385"/>
	
		<line display="inline" opacity="0.3" fill="none" stroke="#CC3333" enable-background="new    " x1="0" y1="407" x2="528" y2="407"/>
	
		<line display="inline" opacity="0.3" fill="none" stroke="#CC3333" enable-background="new    " x1="0" y1="429" x2="528" y2="429"/>
	
		<line display="inline" opacity="0.3" fill="none" stroke="#CC3333" enable-background="new    " x1="0" y1="451" x2="528" y2="451"/>
	
		<line display="inline" opacity="0.3" fill="none" stroke="#CC3333" enable-background="new    " x1="0" y1="473" x2="528" y2="473"/>
	
		<line display="inline" opacity="0.3" fill="none" stroke="#CC3333" enable-background="new    " x1="0" y1="495" x2="528" y2="495"/>
	
		<line display="inline" opacity="0.3" fill="none" stroke="#CC3333" enable-background="new    " x1="0" y1="517" x2="528" y2="517"/>
	
		<line display="inline" opacity="0.3" fill="none" stroke="#CC3333" enable-background="new    " x1="0" y1="165" x2="528" y2="165"/>
	
		<line display="inline" opacity="0.3" fill="none" stroke="#CC3333" enable-background="new    " x1="0" y1="187" x2="528" y2="187"/>
	
		<line display="inline" opacity="0.3" fill="none" stroke="#CC3333" enable-background="new    " x1="0" y1="209" x2="528" y2="209"/>
	
		<line display="inline" opacity="0.3" fill="none" stroke="#CC3333" enable-background="new    " x1="0" y1="231" x2="528" y2="231"/>
	
		<line display="inline" opacity="0.3" fill="none" stroke="#CC3333" enable-background="new    " x1="0" y1="253" x2="528" y2="253"/>
	
		<line display="inline" opacity="0.3" fill="none" stroke="#CC3333" enable-background="new    " x1="0" y1="275" x2="528" y2="275"/>
	
		<line display="inline" opacity="0.3" fill="none" stroke="#CC3333" enable-background="new    " x1="0" y1="297" x2="528" y2="297"/>
	
		<line display="inline" opacity="0.3" fill="none" stroke="#CC3333" enable-background="new    " x1="0" y1="319" x2="528" y2="319"/>
	
		<line display="inline" opacity="0.3" fill="none" stroke="#CC3333" enable-background="new    " x1="0" y1="341" x2="528" y2="341"/>
	
		<line display="inline" opacity="0.3" fill="none" stroke="#CC3333" enable-background="new    " x1="0" y1="363" x2="528" y2="363"/>
	<g display="inline" opacity="0.3">
		<line fill="none" stroke="#CC3333" x1="76.999" y1="0" x2="76.999" y2="528"/>
		<line fill="none" stroke="#CC3333" x1="98.999" y1="0" x2="98.999" y2="528"/>
		<line fill="none" stroke="#CC3333" x1="120.999" y1="0" x2="120.999" y2="528"/>
		<line fill="none" stroke="#CC3333" x1="142.999" y1="0" x2="142.999" y2="528"/>
		<line fill="none" stroke="#CC3333" x1="164.999" y1="0" x2="164.999" y2="528"/>
		<line fill="none" stroke="#CC3333" x1="450.999" y1="0" x2="450.999" y2="528"/>
		<line fill="none" stroke="#CC3333" x1="472.999" y1="0" x2="472.999" y2="528"/>
		<line fill="none" stroke="#CC3333" x1="494.999" y1="0" x2="494.999" y2="528"/>
		<line fill="none" stroke="#CC3333" x1="516.999" y1="0" x2="516.999" y2="528"/>
		<line fill="none" stroke="#CC3333" x1="54.999" y1="0" x2="54.999" y2="528"/>
		<line fill="none" stroke="#CC3333" x1="384.999" y1="0" x2="384.999" y2="528"/>
		<line fill="none" stroke="#CC3333" x1="362.999" y1="0" x2="362.999" y2="528"/>
		<line fill="none" stroke="#CC3333" x1="340.999" y1="0" x2="340.999" y2="528"/>
		<line fill="none" stroke="#CC3333" x1="318.999" y1="0" x2="318.999" y2="528"/>
		<line fill="none" stroke="#CC3333" x1="32.999" y1="0" x2="32.999" y2="528"/>
		<line fill="none" stroke="#CC3333" x1="406.999" y1="0" x2="406.999" y2="528"/>
		<line fill="none" stroke="#CC3333" x1="296.999" y1="0" x2="296.999" y2="528"/>
		<line fill="none" stroke="#CC3333" x1="274.999" y1="0" x2="274.999" y2="528"/>
		<line fill="none" stroke="#CC3333" x1="252.999" y1="0" x2="252.999" y2="528"/>
		<line fill="none" stroke="#CC3333" x1="230.999" y1="0" x2="230.999" y2="528"/>
		<line fill="none" stroke="#CC3333" x1="208.999" y1="0" x2="208.999" y2="528"/>
		<line fill="none" stroke="#CC3333" x1="186.999" y1="0" x2="186.999" y2="528"/>
		<line fill="none" stroke="#CC3333" x1="428.999" y1="0" x2="428.999" y2="528"/>
		<line fill="none" stroke="#CC3333" x1="10.007" y1="0" x2="10.007" y2="528"/>
	</g>
	<line display="inline" opacity="0.3" fill="none" stroke="#CC3333" enable-background="new    " x1="0" y1="11" x2="528" y2="11"/>
</g>
<path d="M351.999,220c-15.557-0.059-42.497-28.517-44-44c-1.921-19.789,66.136-87.901,66.136-87.901s-33.386-0.441-43.947,0.327
	C279.988,93.228,241.5,135.543,241.5,187c0,10.302,0.25,21.97,0.699,33c0,0-132.51,144.089-132.2,154
	c0.486,15.549,28.468,44.873,44,44c9.899-0.557,154.146-131.889,154.146-131.889c9.91-0.096,22.595-0.111,32.355-0.111
	c50.852,0,93.887-38.496,99.499-87.847c0.333-8.73,0.147-44.324,0.147-44.324S371.77,220.075,351.999,220z"/>
<polygon points="43.999,22 164.999,143.596 164.999,22 "/>
<path d="M263.999,0c-0.348,0-2.026,0-2.527,0c-10.854,0-19.653,9.736-19.653,21.748c0,12.011,8.799,21.747,19.653,21.747
	c0.501,0,2.348,0.002,2.779,0.002c121.643,0,220.252,98.61,220.252,220.251C484.503,385.389,385.894,484,264.251,484
	c-121.642,0-220.252-98.609-220.252-220.252c0-74.459,36.957-140.274,93.521-180.137V46.443l-13.02-6.597
	C49.75,86.465-0.001,169.416-0.001,264c0,145.803,118.197,264,264,264c145.803,0,264-118.197,264-264S409.802,0,263.999,0z"/>
</svg>
