<?xml version="1.0" encoding="utf-8"?>
<!-- Generator: Adobe Illustrator 19.0.0, SVG Export Plug-In . SVG Version: 6.00 Build 0)  -->
<svg version="1.1" id="Calque_1" xmlns="http://www.w3.org/2000/svg" xmlns:xlink="http://www.w3.org/1999/xlink" x="0px" y="0px"
	 viewBox="0 0 16 16" style="enable-background:new 0 0 16 16;" xml:space="preserve">
<style type="text/css">
	.st0{fill:#565871;}
	.st1{fill:#626882;}
	.st2{fill-rule:evenodd;clip-rule:evenodd;fill:#FFFFFF;}
	
		.st3{fill-rule:evenodd;clip-rule:evenodd;fill:none;stroke:#FFFFFF;stroke-linecap:round;stroke-linejoin:round;stroke-miterlimit:10;}
</style>
<g id="XMLID_2_">
	<g id="XMLID_12_">
		<path id="XMLID_14_" class="st0" d="M16,14.3V1.7C16,0.8,15.6,0,14.6,0h-3.1L3.7,16h10.6C15.2,16,16,15.2,16,14.3z"/>
		<path id="XMLID_13_" class="st1" d="M1.7,0C0.8,0,0,0.8,0,1.7v12.6C0,15.2,0.8,16,1.7,16h3.9l7.8-16H1.7z"/>
	</g>
	<path id="XMLID_9_" class="st2" d="M5.6,5.1L4.8,7h1.6L5.6,5.1z M7,9L6.7,8H4.6L4.2,9H3L5,4h1.3l1.9,5H7z"/>
	<path id="XMLID_5_" class="st2" d="M12,7.5C12,7.2,11.8,7,11.4,7H10v1h1.4C11.8,8,12,7.9,12,7.5z M12,5.5C12,5.2,11.8,5,11.4,5H10
		v1h1.3C11.7,6,12,5.8,12,5.5z M9,9V4h2.6C12.6,4,13,4.3,13,5c0,0.6-0.3,0.9-0.8,1c0.5,0.1,1,0.6,0.9,1.5C13.1,8.3,12.9,9,12,9H9z"
		/>
	<line id="XMLID_4_" class="st3" x1="3.5" y1="10.5" x2="9.7" y2="10.5"/>
	<line id="XMLID_3_" class="st3" x1="3.5" y1="12.5" x2="11.8" y2="12.5"/>
</g>
</svg>