<?xml version="1.0" encoding="UTF-8" standalone="no"?>
<svg width="16px" height="16px" viewBox="0 0 16 16" version="1.1" xmlns="http://www.w3.org/2000/svg" xmlns:xlink="http://www.w3.org/1999/xlink" xmlns:sketch="http://www.bohemiancoding.com/sketch/ns">
    <!-- Generator: Sketch 3.2.2 (9983) - http://www.bohemiancoding.com/sketch -->
    <title>16/extraction/metadata</title>
    <desc>Created with Sketch.</desc>
    <defs>
        <rect id="path-1" x="0" y="0" width="16" height="16" rx="3"></rect>
    </defs>
    <g stroke="none" stroke-width="1" fill="none" fill-rule="evenodd" sketch:type="MSPage">
        <g sketch:type="MSArtboardGroup" transform="translate(0.000000, -16.000000)">
            <g sketch:type="MSLayerGroup" transform="translate(0.000000, 16.000000)">
                <mask id="mask-2" sketch:name="Mask" fill="white">
                    <use xlink:href="#path-1"></use>
                </mask>
                <use fill="#B2AC87" sketch:type="MSShapeGroup" xlink:href="#path-1"></use>
                <rect fill="#FFFFFF" sketch:type="MSShapeGroup" mask="url(#mask-2)" x="2" y="3" width="2" height="2" rx="1"></rect>
                <rect fill="#FFFFFF" sketch:type="MSShapeGroup" mask="url(#mask-2)" x="2" y="9" width="2" height="2" rx="1"></rect>
                <rect fill="#FFFFFF" sketch:type="MSShapeGroup" mask="url(#mask-2)" x="9" y="11" width="2" height="2" rx="1"></rect>
                <rect fill="#FFFFFF" sketch:type="MSShapeGroup" mask="url(#mask-2)" x="12" y="7" width="2" height="2" rx="1"></rect>
                <rect fill="#FFFFFF" sketch:type="MSShapeGroup" mask="url(#mask-2)" x="11" y="3" width="2" height="2" rx="1"></rect>
                <circle fill="#FFFFFF" sketch:type="MSShapeGroup" mask="url(#mask-2)" cx="7.5" cy="7.5" r="2.5"></circle>
                <path d="M7.43379422,7.79032258 L10.1214775,13.0513196" stroke="#FFFFFF" sketch:type="MSShapeGroup" mask="url(#mask-2)"></path>
                <path d="M7.77690272,7.61876833 L13.0378998,7.90469208" stroke="#FFFFFF" sketch:type="MSShapeGroup" mask="url(#mask-2)"></path>
                <path d="M7.66253322,7.33284457 L12.1229438,3.95894428" stroke="#FFFFFF" sketch:type="MSShapeGroup" mask="url(#mask-2)"></path>
                <path d="M7.49097897,7.61876833 L2.97338366,3.90175953" stroke="#FFFFFF" sketch:type="MSShapeGroup" mask="url(#mask-2)"></path>
                <path d="M7.71971797,7.33284457 L3.08775316,10.0205279" stroke="#FFFFFF" sketch:type="MSShapeGroup" mask="url(#mask-2)"></path>
                <path d="M15.1924601,0 C14.75742,0.588822842 7.02995703,12.4927604 5,15.7152956 L14.0606573,15.7152956 C15.7187216,15.7152956 17.0628483,14.3795653 17.0628483,12.7055525 L17.0628481,2.66242028 C17.0628481,1.55854774 16.2152144,0.362910716 15.1924601,0 L15.1924601,0 Z" opacity="0.160000011" fill="#000000" sketch:type="MSShapeGroup" mask="url(#mask-2)"></path>
            </g>
        </g>
    </g>
</svg>