<svg fill="#b2ac87" height="16" viewBox="0 0 16 16" width="16" xmlns="http://www.w3.org/2000/svg"><rect height="16" rx="3" width="16"/><g fill="none" fill-rule="evenodd"><g fill="#fff"><rect height="2" rx="1" width="2" x="2" y="3"/><rect height="2" rx="1" width="2" x="2" y="9"/><rect height="2" rx="1" width="2" x="9" y="11"/><rect height="2" rx="1" width="2" x="12" y="7"/><rect height="2" rx="1" width="2" x="11" y="3"/><circle cx="7.5" cy="7.5" r="2.5"/></g><g stroke="#fff"><path d="m7.43379422 7.79032258 2.68768328 5.26099702"/><path d="m7.77690272 7.61876833 5.26099708.28592375"/><path d="m7.66253322 7.33284457 4.46041058-3.37390029"/><path d="m7.49097897 7.61876833-4.51759531-3.7170088"/><path d="m7.71971797 7.33284457-4.63196481 2.68768333"/></g><path d="m15.1924601 0c-.4350401.58882284-8.16250307 12.4927604-10.1924601 15.7152956h9.0606573c1.6580643 0 3.002191-1.3357303 3.002191-3.0097431l-.0000002-10.04313222c0-1.10387254-.8476337-2.29950956-1.870388-2.66242028z" fill="#000" opacity=".16"/></g></svg>