<?xml version="1.0" encoding="UTF-8" standalone="no"?>
<svg width="16px" height="16px" fill="#82617F" viewBox="0 0 16 16" version="1.1" xmlns="http://www.w3.org/2000/svg" xmlns:xlink="http://www.w3.org/1999/xlink" xmlns:sketch="http://www.bohemiancoding.com/sketch/ns">
    <rect x="0" y="0" width="16" height="16" rx="3"></rect>
    <g stroke="none" stroke-width="1" fill="none" fill-rule="evenodd" sketch:type="MSPage">
        <g sketch:type="MSArtboardGroup" transform="translate(-16.000000, -16.000000)">
            <g sketch:type="MSLayerGroup" transform="translate(16.000000, 16.000000)">
                <path d="M8.116,11.629 L8.116,10.247 L11.544,8.899 L8.116,7.566 L8.116,6.194 L13.028,8.318 L13.028,9.49 L8.116,11.629 L8.116,11.629 Z" fill="#FFFFFF" sketch:type="MSShapeGroup" ></path>
                <path d="M2.734,12.156 L6.437,3.875 L7.718,3.875 L4.03,12.156 L2.734,12.156 L2.734,12.156 Z" fill="#FFFFFF" sketch:type="MSShapeGroup"></path>
                <path d="M14.1401539,0.00607362886 C13.7051138,0.594896471 6.02995703,12.4642215 4,15.6867567 L13.0606573,15.6867567 C14.7187216,15.6867567 16.0628483,14.3501256 16.0628483,12.6772791 L16.0628483,2.69623431 C16.0628483,1.03414572 14.737967,-0.0932098761 14.1401539,0.00607362886 L14.1401539,0.00607362886 Z" opacity="0.160000011" fill="#000000" sketch:type="MSShapeGroup" ></path>
            </g>
        </g>
    </g>
</svg>
