<svg enable-background="new 0 0 16 16" viewBox="0 0 16 16" xmlns="http://www.w3.org/2000/svg"><path d="m16 14.3v-12.6c0-.9-.4-1.7-1.4-1.7h-3.1l-7.8 16h10.6c.9 0 1.7-.8 1.7-1.7z" fill="#565871"/><path d="m1.7 0c-.9 0-1.7.8-1.7 1.7v12.6c0 .9.8 1.7 1.7 1.7h3.9l7.8-16z" fill="#626882"/><g clip-rule="evenodd"><path d="m5.6 5.1-.8 1.9h1.6zm1.4 3.9-.3-1h-2.1l-.4 1h-1.2l2-5h1.3l1.9 5z" fill="#fff" fill-rule="evenodd"/><path d="m12 7.5c0-.3-.2-.5-.6-.5h-1.4v1h1.4c.4 0 .6-.1.6-.5zm0-2c0-.3-.2-.5-.6-.5h-1.4v1h1.3c.4 0 .7-.2.7-.5zm-3 3.5v-5h2.6c1 0 1.4.3 1.4 1 0 .6-.3.9-.8 1 .5.1 1 .6.9 1.5 0 .8-.2 1.5-1.1 1.5z" fill="#fff" fill-rule="evenodd"/><path d="m3.5 10.5h6.2" fill="none" stroke="#fff" stroke-linecap="round" stroke-linejoin="round" stroke-miterlimit="10"/><path d="m3.5 12.5h8.3" fill="none" stroke="#fff" stroke-linecap="round" stroke-linejoin="round" stroke-miterlimit="10"/></g></svg>