<svg enable-background="new 0 0 512 512" height="512" viewBox="0 0 512 512" width="512" xmlns="http://www.w3.org/2000/svg"><path d="m447.932 80c0-16 0-16.275-16-16.275h-353.404c-16 0-16 .275-16 16.275 0 2.805.001 60.991 0 64-.005 16-.005 16 16 16h353.403c16.005 0 16.005 0 16-16 0-3.009.001-61.195.001-64z"/><path d="m447.932 240.3c0-16 0-16.275-16-16.275h-353.404c-16 0-16 .275-16 16.275 0 2.805.001 60.991 0 64-.005 16-.005 16 16 16h353.403c16.005 0 16.005 0 16-16 0-3.009.001-61.195.001-64z"/><path d="m447.932 400.3c0-16 0-16.274-16-16.274h-353.404c-16 0-16 .274-16 16.274 0 2.806.001 60.991 0 64-.005 16-.005 16 16 16h353.403c16.005 0 16.005 0 16-16 0-3.009.001-61.195.001-64z"/></svg>