<svg viewBox="0 0 16 16" xmlns="http://www.w3.org/2000/svg"><g fill="currentColor" fill-rule="evenodd"><path d="m14.504 8.995h-4.501c-.002-.554-.452-.995-1.01-.995h-1.982c-.564 0-1.01.445-1.01.995h-4.501v-4.495h13 .004v4.495m0 5.505h-13-.002v-4.505h4.5v.006c0 .556.452.999 1.01.999h1.982c.566 0 1.01-.447 1.01-.999v-.006h4.5v4.505m-8.513-13.5h4.02c.54 0 .991.448.991 1v1h-6v-1h-.002c0-.556.444-1 .991-1m9.01 2h-2.998v-1c0-1.103-.893-2-1.991-2h-4.02c-1.098 0-1.991.897-1.991 2v1h-3c-.552 0-1 .529-1 1.182v10.636c0 .653.448 1.182 1 1.182h14c.552 0 1-.529 1-1.182v-10.636c0-.653-.448-1.182-1-1.182" /></g></svg>