<svg viewBox="0 0 16 16" xmlns="http://www.w3.org/2000/svg"><g fill="currentColor" fill-rule="evenodd"><path d="m1.5 2.998h13v1.995h-.5-12-.5v-1.995m11.5-2.999h-10l-3 1.999v3.5c0 .551.453.998 1 .998v8.503c0 .421.524 1 1 1h12c.476 0 1-.579 1-1v-8.503c.552 0 1-.448 1-.998v-3.5l-3-1.999m-10.5 14.494h11v-7.997h-11v7.997m.193-12.494l.754-.501h9.12l.755.501h-10.629"/><path d="m9.802 12h-3.604c-.66 0-1.198-.538-1.198-1.199v-.602c0-.661.538-1.199 1.198-1.199h3.604c.661 0 1.198.538 1.198 1.199v.602c0 .661-.537 1.199-1.198 1.199m-3.516-1.999v.999h3.428l-.001-.999h-3.427"/></g></svg>