<svg enable-background="new 0 0 512 512" height="512" viewBox="0 0 512 512" width="512" xmlns="http://www.w3.org/2000/svg"><path d="m32 0v96c-17.594 0-32 14.406-32 32v32c0 17.594 14.406 32 32 32v320h64v-320c17.594 0 32-14.406 32-32v-32c0-17.594-14.406-32-32-32v-96zm192 0v320c-17.594 0-32 14.406-32 32v32c0 17.594 14.406 32 32 32v96h64v-96c17.594 0 32-14.406 32-32v-32c0-17.594-14.406-32-32-32v-320zm192 0v160c-17.594 0-32 14.406-32 32v32c0 17.594 14.406 32 32 32v256h64v-256c17.594 0 32-14.406 32-32v-32c0-17.594-14.406-32-32-32v-160z"/></svg>