<svg viewBox="0 0 16 16" xmlns="http://www.w3.org/2000/svg"><g fill="currentColor" fill-rule="evenodd"><path d="m14.5 9.331l-.894-.894-1.267 1.269-4.159-4.16-2.888 2.887-1.768-1.768-2.024 2.025v-6.696c0-.272.222-.494.494-.494h12.01c.272 0 .494.222.494.494v7.337m0 4.675c0 .272-.222.494-.494.494h-12.01c-.272 0-.494-.222-.494-.494v-3.902l2.024-2.025 1.768 1.768 2.888-2.887 4.159 4.16 1.267-1.268.894.893v3.261m-.494-14.01h-12.01c-1.099 0-1.994.893-1.994 1.994v12.01c0 1.099.893 1.994 1.994 1.994h12.01c1.099 0 1.994-.892 1.994-1.994v-12.01c0-1.099-.893-1.993-1.994-1.993"/></g></svg>