<svg viewBox="0 0 16 15" xmlns="http://www.w3.org/2000/svg"><g fill="currentColor" fill-rule="evenodd"><path d="m0 14.744c0 .141.102.256.251.256h15.497c.139 0 .251-.114.251-.256v-2.488c0-.141-.102-.256-.251-.256h-15.497c-.139 0-.251.114-.251.256v2.488m1-.744h14v-1h-14v1"/><path d="m0 10.744c0 .141.102.256.251.256h15.497c.139 0 .251-.114.251-.256v-2.488c0-.141-.102-.256-.251-.256h-15.497c-.139 0-.251.114-.251.256v2.488m13-.744h2v-1h-2v1m-12 0h11v-1h-11v1"/><path d="m0 6.744c0 .141.102.256.251.256h15.497c.139 0 .251-.114.251-.256v-2.488c0-.141-.102-.256-.251-.256h-15.497c-.139 0-.251.114-.251.256v2.488m13-1.744h1 1v1h-1-1v-1m-12 1h11v-1h-11v1"/><path d="m3.341 0c-.275 0-.664.161-.852.344l-2.384 2.312c-.196.19-.122.344.139.344h15.512c.273 0 .327-.161.139-.344l-2.385-2.312c-.196-.19-.57-.344-.852-.344h-9.317m-.07 1h9.458l1.031 1h-11.52l1.031-1"/></g></svg>