<svg enable-background="new 0 0 512 512" height="512" viewBox="0 0 512 512" width="512" xmlns="http://www.w3.org/2000/svg"><path d="m323.779 67.112c.068-.006.108-.01.126-.011-.02.002-.066.006-.126.011z"/><path d="m323.497 67.139c.094-.009.199-.019.282-.026-.065.006-.155.014-.282.026z"/><path d="m323.905 67.101c.012-.001.012-.001 0 0z"/><path d="m323.288 67.158c.014-.001.021-.002.035-.003-.02.002-.035.003-.035.003z"/><path d="m323.475 67.141c.009-.001.018-.001.022-.002-.008.001-.015.001-.022.002z"/><path d="m323.323 67.155c.033-.003.087-.008.149-.014-.044.005-.093.009-.149.014z"/><path d="m367.116 285.354c2.147-40.731 21.858-48.284 23.274-62.622.314-3.067 9.646-22.281 6.137-30.932-7.813-19.162-1.312-36.986 3.25-58.219 3.382-15.675-8.65-30.04-8.65-30.04s-21.127-32.713-59.084-36.383c-1.468-.157-7.34-.131-8.755 0-37.904 3.67-59.058 36.384-59.058 36.384s-12.034 14.365-8.68 30.04c4.562 21.232 11.062 39.057 3.251 58.219-3.513 8.65 5.819 27.864 6.136 30.932 1.439 14.338 21.151 21.888 23.304 62.623 1.421 26.936-48.295 47.929-82.152 59.063-15.595-8.56-28.023-19.28-27.392-31.567 1.625-32.164 16.724-38.114 17.825-49.438.21-2.411 7.366-17.589 4.666-24.403-5.977-15.151-.996-29.202 2.49-45.978 2.595-12.373-6.632-23.697-6.632-23.697s-16.147-25.846-45.139-28.729c-1.152-.105-5.66-.105-6.709 0-28.992 2.883-45.191 28.729-45.191 28.729s-9.018 11.298-6.606 23.697c3.277 16.881 8.44 30.826 2.464 45.978-2.673 6.814 4.457 21.992 4.719 24.403 1.075 11.324 16.147 17.273 17.798 49.438 1.651 32.162-86.162 53.604-86.162 53.604v49.544h447.78l-.221-62.754s-114.813-27.156-112.663-67.892z"/><path d="m332.043 67.158c-.016-.001-.025-.003-.04-.004.023.002.04.004.04.004z"/><path d="m331.416 67.091c-.027-.003-.03-.003 0 0z"/><path d="m332.003 67.154c-.021-.002-.047-.005-.08-.008.026.002.051.005.08.008z"/><path d="m331.923 67.146c-.304-.033-.456-.049-.507-.055.078.009.347.037.507.055z"/><path d="m151.54 140.572c.081.007.189.018.369.034 0 0-.217-.02-.369-.034z"/><path d="m151.54 140.572c-.211-.019-.141-.012 0 0z"/><path d="m145.198 140.606c.172-.017.272-.027.345-.035-.138.014-.345.035-.345.035z"/><path d="m145.543 140.571c.12-.011.173-.017 0 0z"/></svg>