<svg xmlns="http://www.w3.org/2000/svg" viewBox="0 0 512 512">
    <path fill="#000" d="M382.928 304.229c2.456-44.822 24.993-53.132 26.611-68.911 0.361-3.375 11.029-24.52 7.017-34.041-8.935-21.084-1.5-40.702 3.717-64.069 3.867-17.25-9.89-33.056-9.89-33.056s-24.154-36-67.556-40.036c-1.678-0.173-8.39-0.145-10.012 0-43.341 4.040-67.528 40.040-67.528 40.040s-13.758 15.806-9.923 33.056c5.217 23.363 12.647 42.98 3.717 64.069-4.017 9.52 6.651 30.661 7.017 34.041 1.646 15.778 24.183 24.085 26.649 68.91 1.627 29.644-55.224 52.743-93.933 64.996-17.831-9.422-32.043-21.216-31.322-34.739 1.856-35.395 19.12-41.944 20.381-54.403 0.239-2.653 8.423-19.354 5.334-26.855-6.834-16.673-1.139-32.132 2.845-50.596 2.967-13.617-7.584-26.077-7.584-26.077s-18.464-28.444-51.614-31.613c-1.317-0.117-6.474-0.117-7.673 0-33.15 3.173-51.67 31.613-51.67 31.613s-10.313 12.431-7.552 26.077c3.746 18.577 9.651 33.923 2.817 50.596-3.056 7.5 5.096 24.201 5.395 26.855 1.228 12.459 18.464 19.008 20.349 54.403s-98.517 58.988-98.517 58.988v54.52h512l-0.253-69.056s-131.277-29.882-128.821-74.709z"></path>
</svg>
