<?xml version="1.0" encoding="utf-8"?>
<!-- Generator: Adobe Illustrator 16.0.4, SVG Export Plug-In . SVG Version: 6.00 Build 0)  -->
<!DOCTYPE svg PUBLIC "-//W3C//DTD SVG 1.1//EN" "http://www.w3.org/Graphics/SVG/1.1/DTD/svg11.dtd">
<svg version="1.1" id="Layer_1" xmlns="http://www.w3.org/2000/svg" xmlns:xlink="http://www.w3.org/1999/xlink" x="0px" y="0px"
	 width="512px" height="512px" viewBox="0 0 512 512" enable-background="new 0 0 512 512" xml:space="preserve">
<g display="none" opacity="0.3">
	<line display="inline" fill="none" stroke="#B35047" x1="48" y1="0" x2="48" y2="512"/>
	<line display="inline" fill="none" stroke="#B35047" x1="80" y1="0" x2="80" y2="512"/>
	<line display="inline" fill="none" stroke="#B35047" x1="112" y1="0" x2="112" y2="512"/>
	<line display="inline" fill="none" stroke="#B35047" x1="144" y1="0" x2="144" y2="512"/>
	<line display="inline" fill="none" stroke="#B35047" x1="176" y1="0" x2="176" y2="512"/>
	<line display="inline" fill="none" stroke="#B35047" x1="208" y1="0" x2="208" y2="512"/>
	<line display="inline" fill="none" stroke="#B35047" x1="240" y1="0" x2="240" y2="512"/>
	<line display="inline" fill="none" stroke="#B35047" x1="272" y1="0" x2="272" y2="512"/>
	<line display="inline" fill="none" stroke="#B35047" x1="304" y1="0" x2="304" y2="512"/>
	<line display="inline" fill="none" stroke="#B35047" x1="336" y1="0" x2="336" y2="512"/>
	<line display="inline" fill="none" stroke="#B35047" x1="368" y1="0" x2="368" y2="512"/>
	<line display="inline" fill="none" stroke="#B35047" x1="400" y1="0" x2="400" y2="512"/>
	<line display="inline" fill="none" stroke="#B35047" x1="432" y1="0" x2="432" y2="512"/>
	<line display="inline" fill="none" stroke="#B35047" x1="464" y1="0" x2="464" y2="512"/>
	<line display="inline" fill="none" stroke="#B35047" x1="496" y1="0" x2="496" y2="512"/>
	<line display="inline" fill="none" stroke="#B35047" x1="0" y1="48" x2="512" y2="48"/>
	<line display="inline" fill="none" stroke="#B35047" x1="0" y1="80" x2="512" y2="80"/>
	<line display="inline" fill="none" stroke="#B35047" x1="0" y1="112" x2="512" y2="112"/>
	<line display="inline" fill="none" stroke="#B35047" x1="0" y1="144" x2="512" y2="144"/>
	<line display="inline" fill="none" stroke="#B35047" x1="0" y1="176" x2="512" y2="176"/>
	<line display="inline" fill="none" stroke="#B35047" x1="0" y1="208" x2="512" y2="208"/>
	<line display="inline" fill="none" stroke="#B35047" x1="0" y1="240" x2="512" y2="240"/>
	<line display="inline" fill="none" stroke="#B35047" x1="0" y1="272" x2="512" y2="272"/>
	<line display="inline" fill="none" stroke="#B35047" x1="0" y1="304" x2="512" y2="304"/>
	<line display="inline" fill="none" stroke="#B35047" x1="0" y1="336" x2="512" y2="336"/>
	<line display="inline" fill="none" stroke="#B35047" x1="0" y1="368" x2="512" y2="368"/>
	<line display="inline" fill="none" stroke="#B35047" x1="0" y1="400" x2="512" y2="400"/>
	<line display="inline" fill="none" stroke="#B35047" x1="0" y1="432" x2="512" y2="432"/>
	<line display="inline" fill="none" stroke="#B35047" x1="0" y1="464" x2="512" y2="464"/>
	<line display="inline" fill="none" stroke="#B35047" x1="0" y1="496" x2="512" y2="496"/>
	<line display="inline" fill="none" stroke="#B35047" x1="0" y1="16" x2="512" y2="16"/>
	<line display="inline" fill="none" stroke="#B35047" x1="16" y1="0" x2="16" y2="512"/>
</g>
<g display="none">
	<line display="inline" fill="none" stroke="#B35047" x1="32" y1="0" x2="32" y2="512"/>
	<line display="inline" fill="none" stroke="#B35047" x1="64" y1="0" x2="64" y2="512"/>
	<line display="inline" fill="none" stroke="#B35047" x1="96" y1="0" x2="96" y2="512"/>
	<line display="inline" fill="none" stroke="#B35047" x1="128" y1="0" x2="128" y2="512"/>
	<line display="inline" fill="none" stroke="#B35047" x1="160" y1="0" x2="160" y2="512"/>
	<line display="inline" fill="none" stroke="#B35047" x1="192" y1="0" x2="192" y2="512"/>
	<line display="inline" fill="none" stroke="#B35047" x1="224" y1="0" x2="224" y2="512"/>
	<line display="inline" fill="none" stroke="#B35047" x1="256" y1="0" x2="256" y2="512"/>
	<line display="inline" fill="none" stroke="#B35047" x1="288" y1="0" x2="288" y2="512"/>
	<line display="inline" fill="none" stroke="#B35047" x1="320" y1="0" x2="320" y2="512"/>
	<line display="inline" fill="none" stroke="#B35047" x1="352" y1="0" x2="352" y2="512"/>
	<line display="inline" fill="none" stroke="#B35047" x1="384" y1="0" x2="384" y2="512"/>
	<line display="inline" fill="none" stroke="#B35047" x1="416" y1="0" x2="416" y2="512"/>
	<line display="inline" fill="none" stroke="#B35047" x1="448" y1="0" x2="448" y2="512"/>
	<line display="inline" fill="none" stroke="#B35047" x1="480" y1="0" x2="480" y2="512"/>
	<line display="inline" fill="none" stroke="#B35047" x1="0" y1="32" x2="512" y2="32"/>
	<line display="inline" fill="none" stroke="#B35047" x1="0" y1="64" x2="512" y2="64"/>
	<line display="inline" fill="none" stroke="#B35047" x1="0" y1="96" x2="512" y2="96"/>
	<line display="inline" fill="none" stroke="#B35047" x1="0" y1="128" x2="512" y2="128"/>
	<line display="inline" fill="none" stroke="#B35047" x1="0" y1="160" x2="512" y2="160"/>
	<line display="inline" fill="none" stroke="#B35047" x1="0" y1="192" x2="512" y2="192"/>
	<line display="inline" fill="none" stroke="#B35047" x1="0" y1="224" x2="512" y2="224"/>
	<line display="inline" fill="none" stroke="#B35047" x1="0" y1="256" x2="512" y2="256"/>
	<line display="inline" fill="none" stroke="#B35047" x1="0" y1="288" x2="512" y2="288"/>
	<line display="inline" fill="none" stroke="#B35047" x1="0" y1="320" x2="512" y2="320"/>
	<line display="inline" fill="none" stroke="#B35047" x1="0" y1="352" x2="512" y2="352"/>
	<line display="inline" fill="none" stroke="#B35047" x1="0" y1="384" x2="512" y2="384"/>
	<line display="inline" fill="none" stroke="#B35047" x1="0" y1="416" x2="512" y2="416"/>
	<line display="inline" fill="none" stroke="#B35047" x1="0" y1="448" x2="512" y2="448"/>
	<line display="inline" fill="none" stroke="#B35047" x1="0" y1="480" x2="512" y2="480"/>
	<rect display="inline" fill="none" stroke="#B35047" width="512" height="512"/>
</g>
<path d="M416,192c-5.636,0-16.914,0-32,0c0,0,0-64,0-96c0-33.941-32-96-128-96S128.393,62.062,128,96c-0.37,32,0,96,0,96
	c-15.086,0-26.365,0-32,0c-11.313,0-32,0-32,32c0,21.556,0,234.444,0,256c0,32,20.686,32,32,32c34.844,0,285.157,0,320,0
	c11.314,0,32,0,32-32c0-21.556,0-234.444,0-256C448,192,427.314,192,416,192z M288,360.489V448c0,0-63.701,2.109-64-32.402
	c-0.068-7.91,0-15.598,0-31.643c0-8.939,32-15.955,32-15.955c-35.346,0-64-25.072-64-56s28.654-56,64-56c35.348,0,64,25.072,64,56
	C320,332.725,307.124,350.807,288,360.489z M320,192c-40.602,0-87.4,0-128,0c0,0,0-32,0-64c0-22.627,16.36-64,64-64
	c49.427,0,64,41.373,64,64C320,160,320,192,320,192z"/>
</svg>
