<svg enable-background="new 0 0 512 512" height="512" viewBox="0 0 512 512" width="512" xmlns="http://www.w3.org/2000/svg"><path d="m416 192c-5.636 0-16.914 0-32 0 0 0 0-64 0-96 0-33.941-32-96-128-96s-127.607 62.062-128 96c-.37 32 0 96 0 96-15.086 0-26.365 0-32 0-11.313 0-32 0-32 32v256c0 32 20.686 32 32 32h320c11.314 0 32 0 32-32 0-21.556 0-234.444 0-256 0-32-20.686-32-32-32zm-128 168.489v87.511s-63.701 2.109-64-32.402c-.068-7.91 0-15.598 0-31.643 0-8.939 32-15.955 32-15.955-35.346 0-64-25.072-64-56s28.654-56 64-56c35.348 0 64 25.072 64 56 0 20.725-12.876 38.807-32 48.489zm32-168.489c-40.602 0-87.4 0-128 0 0 0 0-32 0-64 0-22.627 16.36-64 64-64 49.427 0 64 41.373 64 64z"/></svg>