<svg width="20" height="20" xmlns="http://www.w3.org/2000/svg" xmlns:svg="http://www.w3.org/2000/svg" viewBox="0 0 20 20">
 <g>
  <title>Layer 1</title>
  <g id="svg_1">
   <g id="svg_2">
    <ellipse id="svg_3" ry="0.7" rx="0.7" cy="10" cx="6.4"/>
    <path id="svg_4" d="m6.4,11.2c-0.7,0 -1.2,-0.5 -1.2,-1.2s0.5,-1.2 1.2,-1.2s1.1,0.6 1.1,1.2s-0.5,1.2 -1.1,1.2zm0,-1.4c-0.1,0 -0.2,0.1 -0.2,0.2c0,0.2 0.4,0.2 0.4,0c-0.1,-0.1 -0.1,-0.2 -0.2,-0.2z"/>
   </g>
   <g id="svg_5">
    <ellipse id="svg_6" ry="0.7" rx="0.7" cy="10" cx="10"/>
    <path id="svg_7" d="m10,11.2c-0.7,0 -1.2,-0.5 -1.2,-1.2s0.5,-1.2 1.2,-1.2c0.7,0 1.2,0.5 1.2,1.2s-0.5,1.2 -1.2,1.2zm0,-1.4c-0.1,0 -0.2,0.1 -0.2,0.2c0,0.2 0.4,0.2 0.4,0c0,-0.1 -0.1,-0.2 -0.2,-0.2z"/>
   </g>
   <g id="svg_8">
    <ellipse id="svg_9" ry="0.7" rx="0.7" cy="10" cx="13.6"/>
    <path id="svg_10" d="m13.6,11.2c-0.7,0 -1.2,-0.5 -1.2,-1.2s0.5,-1.2 1.2,-1.2c0.7,0 1.2,0.5 1.2,1.2s-0.5,1.2 -1.2,1.2zm0,-1.4c-0.1,0 -0.2,0.1 -0.2,0.2c0,0.2 0.4,0.2 0.4,0c0,-0.1 -0.1,-0.2 -0.2,-0.2z"/>
   </g>
  </g>
  <path id="svg_11" d="m10,17.2c-4,0 -7.2,-3.2 -7.2,-7.2s3.2,-7.2 7.2,-7.2s7.2,3.2 7.2,7.2s-3.2,7.2 -7.2,7.2zm0,-16.2c-5,0 -9,4 -9,9s4,9 9,9c5,0 9,-4 9,-9s-4,-9 -9,-9z"/>
 </g>
</svg>
