<svg viewBox="0 0 522 530" xmlns="http://www.w3.org/2000/svg">
  <path
      d="m5 261c0 141.3 114.3 256 255.7 256 141.6 0 256.3-114.6 256.3-256 0-141.3-114.6-256-256.3-256-141.3 0-255.7 114.6-255.7 256m257-204.8c113.7 0 206.1 91.9 206.1 204.8s-92.4 204.8-206.1 204.8c-113.4 0-205.6-91.9-205.6-204.8s92.3-204.8 205.6-204.8"/>
  <path d="m363.4 286.6c14.1 0 25.6-11.5 25.6-25.6s-11.5-25.6-25.6-25.6-25.6 11.5-25.6 25.6 11.5 25.6 25.6 25.6"/>
  <path d="m261 286.6c14.1 0 25.6-11.5 25.6-25.6s-11.5-25.6-25.6-25.6-25.6 11.5-25.6 25.6 11.5 25.6 25.6 25.6"/>
  <path d="m158.6 286.6c14.1 0 25.6-11.5 25.6-25.6s-11.5-25.6-25.6-25.6-25.6 11.5-25.6 25.6 11.5 25.6 25.6 25.6"/>
</svg>
