<svg xmlns="http://www.w3.org/2000/svg" viewBox="0 0 56 56">
  <g fill="none" fill-rule="evenodd">
    <circle cx="27" cy="27" r="26.0357143" transform="translate(1 1)" fill="#FFF" stroke="#94A9BF"/>
    <path d="M19 23.015506l-.00004975 11.3748796C20.69612158 34.632979 22 36.0916951 22 37.8549483c0 1.9329966-1.56700338 3.5-3.5 3.5s-3.5-1.5670034-3.5-3.5c0-1.7629068 1.30336614-3.2213961 2.99905009-3.4644196L18 23.015506h1zM31.2857143 16v7H27.787l.0043218.2211972c.0728882 2.3227154 1.3255685 3.4874423 4.6272467 5.1338201.095546.0476439.2251499.1120635.4508078.2242485 1.7483202.8702726 2.9513246 1.6119265 3.7026123 2.4510103l-.00056-8.0147701h1l.0003137 11.3749316c1.6959941.2427499 2.9996863 1.7013835 2.9996863 3.4645107 0 1.9329966-1.5670034 3.5-3.5 3.5-1.9329967 0-3.5-1.5670034-3.5-3.5 0-1.7631272 1.3036921-3.2217608 2.9996862-3.4645107l.0009733-1.1781642c-.2264823-1.5236622-1.4123839-2.4543996-4.1414115-3.8128452l-.2283374-.1135217c-.0953428-.0474095-.1653488-.0822429-.2230773-.1110291-3.5897403-1.7900196-5.0632036-3.1671129-5.1444711-5.9276634L26.831 23h-2.54528571v-7h7.00000001zM18.5 35.2299483c-1.44974747 0-2.625 1.1752525-2.625 2.625s1.17525253 2.625 2.625 2.625 2.625-1.1752525 2.625-2.625-1.17525253-2.625-2.625-2.625zm18.5714286 0c-1.4497475 0-2.625 1.1752525-2.625 2.625s1.1752525 2.625 2.625 2.625c1.4497474 0 2.625-1.1752525 2.625-2.625s-1.1752526-2.625-2.625-2.625zM22 16v7h-7v-7h7zm18.5714286 0v7h-7v-7h7z" fill="#94A9BF" fill-rule="nonzero"/>
  </g>
</svg>