<?xml version="1.0" encoding="utf-8"?>
<!-- Generator: Adobe Illustrator 16.0.4, SVG Export Plug-In . SVG Version: 6.00 Build 0)  -->
<!DOCTYPE svg PUBLIC "-//W3C//DTD SVG 1.1//EN" "http://www.w3.org/Graphics/SVG/1.1/DTD/svg11.dtd">
<svg version="1.1" id="Layer_1" xmlns="http://www.w3.org/2000/svg" xmlns:xlink="http://www.w3.org/1999/xlink" x="0px" y="0px"
	 width="512px" height="512px" viewBox="0 0 512 512" enable-background="new 0 0 512 512" xml:space="preserve">
<g display="none" opacity="0.3">
	<line display="inline" fill="none" stroke="#B35047" x1="48" y1="0" x2="48" y2="512"/>
	<line display="inline" fill="none" stroke="#B35047" x1="80" y1="0" x2="80" y2="512"/>
	<line display="inline" fill="none" stroke="#B35047" x1="112" y1="0" x2="112" y2="512"/>
	<line display="inline" fill="none" stroke="#B35047" x1="144" y1="0" x2="144" y2="512"/>
	<line display="inline" fill="none" stroke="#B35047" x1="176" y1="0" x2="176" y2="512"/>
	<line display="inline" fill="none" stroke="#B35047" x1="208" y1="0" x2="208" y2="512"/>
	<line display="inline" fill="none" stroke="#B35047" x1="240" y1="0" x2="240" y2="512"/>
	<line display="inline" fill="none" stroke="#B35047" x1="272" y1="0" x2="272" y2="512"/>
	<line display="inline" fill="none" stroke="#B35047" x1="304" y1="0" x2="304" y2="512"/>
	<line display="inline" fill="none" stroke="#B35047" x1="336" y1="0" x2="336" y2="512"/>
	<line display="inline" fill="none" stroke="#B35047" x1="368" y1="0" x2="368" y2="512"/>
	<line display="inline" fill="none" stroke="#B35047" x1="400" y1="0" x2="400" y2="512"/>
	<line display="inline" fill="none" stroke="#B35047" x1="432" y1="0" x2="432" y2="512"/>
	<line display="inline" fill="none" stroke="#B35047" x1="464" y1="0" x2="464" y2="512"/>
	<line display="inline" fill="none" stroke="#B35047" x1="496" y1="0" x2="496" y2="512"/>
	<line display="inline" fill="none" stroke="#B35047" x1="0" y1="48" x2="512" y2="48"/>
	<line display="inline" fill="none" stroke="#B35047" x1="0" y1="80" x2="512" y2="80"/>
	<line display="inline" fill="none" stroke="#B35047" x1="0" y1="112" x2="512" y2="112"/>
	<line display="inline" fill="none" stroke="#B35047" x1="0" y1="144" x2="512" y2="144"/>
	<line display="inline" fill="none" stroke="#B35047" x1="0" y1="176" x2="512" y2="176"/>
	<line display="inline" fill="none" stroke="#B35047" x1="0" y1="208" x2="512" y2="208"/>
	<line display="inline" fill="none" stroke="#B35047" x1="0" y1="240" x2="512" y2="240"/>
	<line display="inline" fill="none" stroke="#B35047" x1="0" y1="272" x2="512" y2="272"/>
	<line display="inline" fill="none" stroke="#B35047" x1="0" y1="304" x2="512" y2="304"/>
	<line display="inline" fill="none" stroke="#B35047" x1="0" y1="336" x2="512" y2="336"/>
	<line display="inline" fill="none" stroke="#B35047" x1="0" y1="368" x2="512" y2="368"/>
	<line display="inline" fill="none" stroke="#B35047" x1="0" y1="400" x2="512" y2="400"/>
	<line display="inline" fill="none" stroke="#B35047" x1="0" y1="432" x2="512" y2="432"/>
	<line display="inline" fill="none" stroke="#B35047" x1="0" y1="464" x2="512" y2="464"/>
	<line display="inline" fill="none" stroke="#B35047" x1="0" y1="496" x2="512" y2="496"/>
	<line display="inline" fill="none" stroke="#B35047" x1="0" y1="16" x2="512" y2="16"/>
	<line display="inline" fill="none" stroke="#B35047" x1="16" y1="0" x2="16" y2="512"/>
</g>
<g display="none">
	<line display="inline" fill="none" stroke="#B35047" x1="32" y1="0" x2="32" y2="512"/>
	<line display="inline" fill="none" stroke="#B35047" x1="64" y1="0" x2="64" y2="512"/>
	<line display="inline" fill="none" stroke="#B35047" x1="96" y1="0" x2="96" y2="512"/>
	<line display="inline" fill="none" stroke="#B35047" x1="128" y1="0" x2="128" y2="512"/>
	<line display="inline" fill="none" stroke="#B35047" x1="160" y1="0" x2="160" y2="512"/>
	<line display="inline" fill="none" stroke="#B35047" x1="192" y1="0" x2="192" y2="512"/>
	<line display="inline" fill="none" stroke="#B35047" x1="224" y1="0" x2="224" y2="512"/>
	<line display="inline" fill="none" stroke="#B35047" x1="256" y1="0" x2="256" y2="512"/>
	<line display="inline" fill="none" stroke="#B35047" x1="288" y1="0" x2="288" y2="512"/>
	<line display="inline" fill="none" stroke="#B35047" x1="320" y1="0" x2="320" y2="512"/>
	<line display="inline" fill="none" stroke="#B35047" x1="352" y1="0" x2="352" y2="512"/>
	<line display="inline" fill="none" stroke="#B35047" x1="384" y1="0" x2="384" y2="512"/>
	<line display="inline" fill="none" stroke="#B35047" x1="416" y1="0" x2="416" y2="512"/>
	<line display="inline" fill="none" stroke="#B35047" x1="448" y1="0" x2="448" y2="512"/>
	<line display="inline" fill="none" stroke="#B35047" x1="480" y1="0" x2="480" y2="512"/>
	<line display="inline" fill="none" stroke="#B35047" x1="0" y1="32" x2="512" y2="32"/>
	<line display="inline" fill="none" stroke="#B35047" x1="0" y1="64" x2="512" y2="64"/>
	<line display="inline" fill="none" stroke="#B35047" x1="0" y1="96" x2="512" y2="96"/>
	<line display="inline" fill="none" stroke="#B35047" x1="0" y1="128" x2="512" y2="128"/>
	<line display="inline" fill="none" stroke="#B35047" x1="0" y1="160" x2="512" y2="160"/>
	<line display="inline" fill="none" stroke="#B35047" x1="0" y1="192" x2="512" y2="192"/>
	<line display="inline" fill="none" stroke="#B35047" x1="0" y1="224" x2="512" y2="224"/>
	<line display="inline" fill="none" stroke="#B35047" x1="0" y1="256" x2="512" y2="256"/>
	<line display="inline" fill="none" stroke="#B35047" x1="0" y1="288" x2="512" y2="288"/>
	<line display="inline" fill="none" stroke="#B35047" x1="0" y1="320" x2="512" y2="320"/>
	<line display="inline" fill="none" stroke="#B35047" x1="0" y1="352" x2="512" y2="352"/>
	<line display="inline" fill="none" stroke="#B35047" x1="0" y1="384" x2="512" y2="384"/>
	<line display="inline" fill="none" stroke="#B35047" x1="0" y1="416" x2="512" y2="416"/>
	<line display="inline" fill="none" stroke="#B35047" x1="0" y1="448" x2="512" y2="448"/>
	<line display="inline" fill="none" stroke="#B35047" x1="0" y1="480" x2="512" y2="480"/>
	<rect display="inline" fill="none" stroke="#B35047" width="512" height="512"/>
</g>
<g>
	<polygon points="447.75,448 448,448 448,447.75 	"/>
</g>
<g>
	<path d="M38.556,233.619c-61.319-12.325-39.149,48.664-4.705,48.258c-58.575,49.335,38.952,96.609,56.868-8.633
		C108.635,168.008,14.979,166.014,38.556,233.619z"/>
	<path d="M373.06,129.039c100.526,35.917,118.753-55.967,48.08-44.487c22.786-58.25-41.123-47.008-46.707-13.015
		C336.02,5.286,272.527,93.12,373.06,129.039z"/>
	<path d="M511.715,235.008l-383.78-192.91v427.805L474.4,297.305c-54.7-9.087-109.244,4.26-175.59,24.066
		c-0.728,0.216,0.733-21.797,0-21.576C371.119,231.496,474.502,226.749,511.715,235.008z M277.52,238.131
		c-17.443,3.709-35.519-9.41-38.495-25.3c-2.979-15.888,7.843-33.848,25.284-37.558c17.447-3.707,34.901,8.244,37.883,24.137
		C305.166,215.297,294.962,234.426,277.52,238.131z"/>
</g>
</svg>
