<svg enable-background="new 0 0 512 512" height="512" viewBox="0 0 512 512" width="512" xmlns="http://www.w3.org/2000/svg"><path d="m447.75 448h.25v-.25z"/><path d="m38.556 233.619c-61.319-12.325-39.149 48.664-4.705 48.258-58.575 49.335 38.952 96.609 56.868-8.633 17.916-105.236-75.74-107.23-52.163-39.625z"/><path d="m373.06 129.039c100.526 35.917 118.753-55.967 48.08-44.487 22.786-58.25-41.123-47.008-46.707-13.015-38.413-66.251-101.906 21.583-1.373 57.502z"/><path d="m511.715 235.008-383.78-192.91v427.805l346.465-172.598c-54.7-9.087-109.244 4.26-175.59 24.066-.728.216.733-21.797 0-21.576 72.309-68.299 175.692-73.046 212.905-64.787zm-234.195 3.123c-17.443 3.709-35.519-9.41-38.495-25.3-2.979-15.888 7.843-33.848 25.284-37.558 17.447-3.707 34.901 8.244 37.883 24.137 2.974 15.887-7.23 35.016-24.672 38.721z"/></svg>