<svg viewBox="0 0 60 60" xmlns="http://www.w3.org/2000/svg">
  <g stroke="none" stroke-width="1" fill="none" fill-rule="evenodd">
      <path d="M3.753,60 C1.68,60 0,58.333 0,56.247 L0,3.753 C0,1.68 1.667,0 3.753,0 L56.247,0 C58.32,0 60,1.667 60,3.753 L60,56.246 C60,58.32 58.333,60 56.247,60 L3.753,60 Z" id="Path" fill="#D9D9D9"></path>
      <g transform="translate(12.000000, 12.000000)" fill="#B2B2B2" fill-rule="nonzero">
        <path d="M29.8742929,5.12555556 C23.0400957,-1.70855797 11.9597475,-1.70851274 5.12560607,5.12565659 C-1.70853536,11.9598259 -1.70853536,23.0401741 5.12560607,29.8743434 C11.9597475,36.7085127 23.0400957,36.708558 29.8742929,29.8744444 C33.1562259,26.5925517 35,22.1413257 35,17.5 C35,12.8586743 33.1562259,8.40744834 29.8742929,5.12555556 L29.8742929,5.12555556 Z M24.2820707,26.3977778 C23.9787082,26.6993406 23.4887665,26.6993406 23.185404,26.3977778 L18.1570707,21.3694444 C17.8537082,21.0678816 17.3637665,21.0678816 17.060404,21.3694444 L11.6976262,26.7322222 C11.3942638,27.033785 10.904322,27.033785 10.6009596,26.7322222 L8.26762623,24.3988889 C7.96606343,24.0955264 7.96606343,23.6055847 8.26762623,23.3022222 L13.630404,17.9394444 C13.9319668,17.636082 13.9319668,17.1461402 13.630404,16.8427778 L8.60207067,11.8144444 C8.30050788,11.511082 8.30050788,11.0211402 8.60207067,10.7177778 L10.7798485,8.54 C11.0832109,8.2384372 11.5731527,8.2384372 11.8765151,8.54 L16.9048485,13.5683333 C17.2082109,13.8698961 17.6981527,13.8698961 18.0015151,13.5683333 L23.3020707,8.26777778 C23.6054331,7.96621498 24.0953749,7.96621498 24.3987373,8.26777778 L26.7320707,10.6011111 C27.0336335,10.9044736 27.0336335,11.3944153 26.7320707,11.6977778 L21.4315151,16.9944444 C21.1299523,17.2978069 21.1299523,17.7877486 21.4315151,18.0911111 L26.4442929,23.1233333 C26.7458557,23.4266958 26.7458557,23.9166375 26.4442929,24.22 L24.2820707,26.3977778 Z" id="Shape"></path>
      </g>
  </g>
</svg>