<svg enable-background="new 0 0 512 512" height="512" viewBox="0 0 512 512" width="512" xmlns="http://www.w3.org/2000/svg"><path d="m255.83 512c35.527 0 64.33-28.802 64.33-64.33h-128.66c0 35.528 28.801 64.33 64.33 64.33z"/><path d="m384 224c0-23.837 0-62.075 0-64 0-88.297-39.324-160-127.623-160-.069 0-.139.001-.207.001h-.34c-.069 0-.138-.001-.207-.001-88.298 0-127.623 71.703-127.623 160v64c0 72.5-96 96-96 160 0 16 159.779 33.998 223.83 32h.34c64.051 1.998 223.83-18.002 223.83-34.002 0-64-96-85.498-96-157.998z"/></svg>