<svg viewBox="0 0 24 24" fill="none" stroke="#282829" stroke-linecap="round" stroke-linejoin="round" xmlns="http://www.w3.org/2000/svg">
<path d="M22.7135 13.9639V13.5657C22.7135 12.4661 21.8221 11.5747 20.7225 11.5747H17.5369"/>
<path d="M18.6387 9C19.4671 9 20.1387 8.32843 20.1387 7.5C20.1387 6.67157 19.4671 6 18.6387 6C17.8102 6 17.1387 6.67157 17.1387 7.5C17.1387 8.32843 17.8102 9 18.6387 9Z"/>
<path d="M2 13.9639V13.5657C2 12.4661 2.89141 11.5747 3.99103 11.5747H7.17668"/>
<path d="M5.09277 9C5.9212 9 6.59277 8.32843 6.59277 7.5C6.59277 6.67157 5.9212 6 5.09277 6C4.26435 6 3.59277 6.67157 3.59277 7.5C3.59277 8.32843 4.26435 9 5.09277 9Z"/>
<path d="M7.04614 17.7544V17.1667C7.04614 15.5437 8.36182 14.228 9.9848 14.228H14.6867C16.3096 14.228 17.6253 15.5437 17.6253 17.1667V17.7544"/>
<path d="M12.3358 11.8773C13.9587 11.8773 15.2744 10.5616 15.2744 8.93866C15.2744 7.31568 13.9587 6 12.3358 6C10.7128 6 9.39709 7.31568 9.39709 8.93866C9.39709 10.5616 10.7128 11.8773 12.3358 11.8773Z"/>
</svg>
