<svg viewBox="0 0 16 16" fill="none" stroke="#282829" stroke-linecap="round" stroke-linejoin="round" xmlns="http://www.w3.org/2000/svg">
<path d="M14.5112 10.1206V9.85047C14.5112 9.10463 13.9066 8.5 13.1608 8.5H11"/>
<path d="M12 6.5C12.2761 6.5 12.5 6.27614 12.5 6C12.5 5.72386 12.2761 5.5 12 5.5C11.7239 5.5 11.5 5.72386 11.5 6C11.5 6.27614 11.7239 6.5 12 6.5Z"/>
<path d="M1 10.1206V9.85047C1 9.10463 1.60463 8.5 2.35047 8.5H4.51122"/>
<path d="M4 6.5C4.27614 6.5 4.5 6.27614 4.5 6C4.5 5.72386 4.27614 5.5 4 5.5C3.72386 5.5 3.5 5.72386 3.5 6C3.5 6.27614 3.72386 6.5 4 6.5Z"/>
<path d="M4 13.1667V12.7222C4 11.4949 4.99492 10.5 6.22222 10.5H9.77778C11.0051 10.5 12 11.4949 12 12.7222V13.1667"/>
<path d="M9.72215 6.78228C9.72215 7.73344 8.95109 8.5045 7.99993 8.5045C7.04877 8.5045 6.27771 7.73344 6.27771 6.78228C6.27771 5.83112 7.04877 5.06006 7.99993 5.06006C8.95109 5.06006 9.72215 5.83112 9.72215 6.78228Z"/>
</svg>
