<svg viewBox="0 0 32 32" fill="none" stroke="#282829" stroke-linecap="round" stroke-linejoin="round" xmlns="http://www.w3.org/2000/svg">
<path d="M28.9999 17.9966V17.4967C28.9999 16.1165 27.881 14.9976 26.5008 14.9976H22.5021"/>
<path d="M24.5015 12.9984C25.8818 12.9984 27.0007 11.8794 27.0007 10.4992C27.0007 9.11892 25.8818 8 24.5015 8C23.1212 8 22.0023 9.11892 22.0023 10.4992C22.0023 11.8794 23.1212 12.9984 24.5015 12.9984Z"/>
<path d="M3 17.9966V17.4967C3 16.1165 4.11892 14.9976 5.49918 14.9976H9.49786"/>
<path d="M7.49857 12.9984C8.87883 12.9984 9.99775 11.8794 9.99775 10.4992C9.99775 9.11892 8.87883 8 7.49857 8C6.11831 8 4.99939 9.11892 4.99939 10.4992C4.99939 11.8794 6.11831 12.9984 7.49857 12.9984Z"/>
<path d="M9.33411 22.7545V22.0168C9.33411 19.9796 10.9856 18.3281 13.0228 18.3281H18.9246C20.9618 18.3281 22.6133 19.9796 22.6133 22.0168V22.7545"/>
<path d="M15.9737 15.3773C18.0109 15.3773 19.6624 13.7258 19.6624 11.6887C19.6624 9.65147 18.0109 8 15.9737 8C13.9365 8 12.285 9.65147 12.285 11.6887C12.285 13.7258 13.9365 15.3773 15.9737 15.3773Z"/>
</svg>
