<svg enable-background="new 0 0 512 512" height="512" viewBox="0 0 512 512" width="512" xmlns="http://www.w3.org/2000/svg"><path d="m448 336.99c-30.834-13.916-76.625-49.562-144.5-61.917 17.396-18.646 30.583-47.833 44.166-82.375 7.917-20.021 6.604-37.125 6.667-61.458.042-18 3.521-46.812-.896-62.646-.354-1.312-.771-2.49-1.188-3.729-15.499-50.208-52.249-64.573-95.228-64.802-.229 0-.418-.031-.646-.031-44.375-.125-82.292 14.656-97.375 68.271-4.438 15.792-1.125 44.583-1.146 62.479-.062 24.364-1.438 41.542 6.375 61.625 13.562 34.802 26.458 63.979 43.708 82.625-67.396 12.271-113.062 47.438-143.771 61.083-63.624 28.356-64.166 59.5-64.166 59.5v84.416h512v31.969-115.135s-.229-31.291-64-59.875z"/></svg>