<svg fill="none" xmlns="http://www.w3.org/2000/svg">
  <g filter="url(#a)">
    <path d="m64.5 103 34-26H42L2 103h62.5Z" fill="url(#b)"/>
  </g>
  <path d="M37.6718 25.8232h56.0718v55.6471H46.9463c-5.1222 0-9.2745-4.1523-9.2745-9.2745V25.8232Z" fill="#C5CACF"/>
  <path d="M37.6718 25.8232h56.0718L124.328 2.21533H74.5507c-4.3288 0-8.5332 1.44836-11.9435 4.11442L37.6718 25.8232Z" fill="#F6F7F9"/>
  <path d="M93.7435 25.8232 124.328 2.21533V51.4167c0 4.202-1.958 8.164-5.296 10.7163L93.7435 81.4702v-55.647Z" fill="#E5E8E8"/>
  <path fill-rule="evenodd" clip-rule="evenodd" d="M72.5043 14.8623H58.9111v5.0588h.1361c.6298.9621 3.3725 1.6863 6.6606 1.6863 3.2881 0 6.0308-.7242 6.6606-1.6863h.1359v-.4126c0-.003.0001-.006.0001-.009 0-.003-.0001-.006-.0001-.009v-4.6282Z" fill="#C5CACF"/>
  <ellipse cx="65.7076" cy="15.2841" rx="6.79659" ry="2.10785" fill="#E5E8E8"/>
  <path fill-rule="evenodd" clip-rule="evenodd" d="M87.797 2.21582H74.2038v4.6137c-.0003.00788-.0004.01577-.0004.02367s.0001.01579.0004.02366v.39779h.1355c.6295.96218 3.3724 1.68639 6.6607 1.68639 3.2882 0 6.0311-.72421 6.6607-1.68639h.1363V2.21582Z" fill="#C5CACF"/>
  <ellipse cx="81.0008" cy="2.63714" rx="6.79659" ry="2.10784" fill="#E5E8E8"/>
  <path fill-rule="evenodd" clip-rule="evenodd" d="M93.7438 14.8623H80.1506v4.6156c-.0002.0072-.0003.0144-.0003.0216 0 .0072.0001.0144.0003.0217v.3999h.1357c.6297.9621 3.3725 1.6863 6.6606 1.6863 3.288 0 6.0308-.7242 6.6606-1.6863h.1363v-5.0588Z" fill="#C5CACF"/>
  <ellipse cx="86.9476" cy="15.2841" rx="6.79659" ry="2.10785" fill="#E5E8E8"/>
  <path fill-rule="evenodd" clip-rule="evenodd" d="M109.036 2.21582H95.4427v5.05882h.136c.6296.96218 3.3725 1.68639 6.6603 1.68639 3.289 0 6.032-.72421 6.661-1.68639h.136V2.21582Z" fill="#C5CACF"/>
  <ellipse cx="102.239" cy="2.63714" rx="6.79659" ry="2.10784" fill="#E5E8E8"/>
  <defs>
    <linearGradient id="b" x1="57.5" y1="76.5" x2="56.5" y2="96.5" gradientUnits="userSpaceOnUse">
      <stop stop-color="#CACACA"/>
      <stop offset="1" stop-color="#FDFDFD" stop-opacity="0"/>
    </linearGradient>
    <filter id="a" x="0" y="75" width="100.5" height="30" filterUnits="userSpaceOnUse" color-interpolation-filters="sRGB">
      <feFlood flood-opacity="0" result="BackgroundImageFix"/>
      <feBlend in="SourceGraphic" in2="BackgroundImageFix" result="shape"/>
      <feGaussianBlur stdDeviation="1" result="effect1_foregroundBlur_1101_18824"/>
    </filter>
  </defs>
</svg>
