<svg xmlns="http://www.w3.org/2000/svg" viewBox="0 0 16 16">
<path d="M7.9958742 0C12.3692625 0 16 3.6224858 16 7.9958742 16 12.3775142 12.3775142 16 8.0041258 16 3.6307375 16 0 
12.3775142 0 7.9958742 0 3.6224858 3.6224858 0 7.9958742 0zm0 1.4192883c-3.6472409 0-6.5600826 2.929345-6.5600826 
6.5765859 0 3.6554925 2.9210934 6.5765858 6.5683342 6.5765858 3.6472409 0 6.5848376-2.9210933 
6.5766032-6.5765858-.008269-3.6472409-2.937614-6.5765859-6.5848548-6.5765859zM5.996875 
5.2160571c0-.3695313.4296875-.5242188.7648438-.3351563l4.365625 2.5867188c.309375.1804687.3179687.6359375 0 .825l-4.365625 
2.578125c-.3609375.20625-.7648438.0429687-.7648438-.3265625z"/>
</svg>
