<svg xmlns="http://www.w3.org/2000/svg" fill="none">
  <path fill="#f6f7f9" d="M0 61h45v103H0zM172 0h45v164h-45zM86 22h45v142H86z" />
  <g transform="translate(-42 -35)" filter="url(#prefix__filter0_d)">
    <path fill="#fff"
      d="M53.858 157.198c-1.047-1.294-1.047-3.056 0-4.351 7.232-8.941 38.195-42.382 96.737-42.382 58.687 0 88.557 33.607 95.4 42.448a3.397 3.397 0 010 4.219c-6.843 8.841-36.713 42.448-95.4 42.448-58.542 0-89.505-33.441-96.737-42.382z" />
  </g>
  <path fill="#fff" stroke-width="3" stroke="#333357" d="M11 118s30.02-42.535 97.595-42.535C176.171 75.465 204 117.5 204 117.5" />
  <circle fill="#00adff" r="28" cy="120" cx="108" />
  <circle fill="#333357" r="14" cy="120" cx="108" />
  <path stroke-width="3" stroke="#333357"
    d="M113.679 64.032V43.036M164 175.842L45.191 57.034M157.172 71.031l13.997-13.997" />
  <defs id="prefix__defs870">
    <filter color-interpolation-filters="sRGB" filterUnits="userSpaceOnUse" y="34.045"
      x="17.045" id="prefix__filter0_d">
      <feFlood id="prefix__feFlood855" result="BackgroundImageFix" flood-opacity="0" />
      <feColorMatrix id="prefix__feColorMatrix857" values="0 0 0 0 0 0 0 0 0 0 0 0 0 0 0 0 0 0 127 0" type="matrix"
        in="SourceAlpha" />
      <feOffset id="prefix__feOffset859" dy="12" />
      <feGaussianBlur id="prefix__feGaussianBlur861" stdDeviation="17" />
      <feColorMatrix id="prefix__feColorMatrix863"
        values="0 0 0 0 0.0941177 0 0 0 0 0.113725 0 0 0 0 0.227451 0 0 0 0.07 0" type="matrix" />
      <feBlend id="prefix__feBlend865" result="effect1_dropShadow" in2="BackgroundImageFix" mode="normal" />
      <feBlend id="prefix__feBlend867" result="shape" in2="effect1_dropShadow" in="SourceGraphic" mode="normal" />
    </filter>
  </defs>
</svg>