<svg viewBox="0 0 56 56" xmlns="http://www.w3.org/2000/svg"><g fill="none" fill-rule="evenodd"><circle cx="28" cy="28" fill="#fff" r="26.035714" stroke="#94a9bf"/><path d="m25.23961225 17.35744519c.65329218 0 1.34527885.15704581 2.07760555.4608819.7325917.30394603 1.3353197.68584593 1.8012598 1.15271916l10.3734234 10.38016985c.5315144.5613665.8096814 1.2468768.8096814 2.0080312 0 .7765732-.2829613 1.4662355-.8273002 2.0116635l-7.130183 7.1584795c-.5606643.5329772-1.2458546.8121287-2.0068417.8121287-.7763859 0-1.4657465-.2839711-2.0116822-.8310002l-10.34461745-10.379964c-.4714996-.4600108-.85526824-1.062154-1.15995187-1.7994669-.30299642-.7332299-.4595727-1.42591293-.4595727-2.07969144v-6.03655097c0-.77032967.29016811-1.45894579.84250044-2.0123839.55271478-.55382133 1.24100934-.8450164 2.01118874-.8450164zm0 2h-6.02448979c-.23390726 0-.4145208.07641172-.59556166.25781503-.1814233.18178652-.25812751.36381808-.25812751.59958527v6.03655097c0 .37166637.09926889.81082534.30797048 1.31586844.20701438.5009602.44596321.8758772.71819367 1.1416119l10.35409836 10.3893382c.169004.1693423.3485515.243304.5955617.243304.2430994 0 .4364718-.0787813.6093253-.2425836l7.1113541-7.1401028c.1693891-.1697283.2436455-.3507137.2436455-.5995853 0-.2449425-.0790507-.4397537-.243151-.6136011l-10.3550864-10.36130617c-.267321-.26785625-.6493555-.50992052-1.1525628-.71869693-.50347228-.20888635-.94106611-.30819791-1.31116995-.30819791zm-3.12481511 2.09292845c.50964914 0 .94476759.17684461 1.3053684.53053913.3606008.35369453.5408985.78047952.5408985 1.28036778s-.18270167.92903118-.54811048 1.28744164c-.3557928.34897859-.78850728.52346528-1.29815642.52346528s-.94476759-.17684461-1.3053684-.53053914c-.36060081-.35369452-.54089851-.78047952-.54089851-1.28036778s.1802977-.92667325.54089851-1.28036778c.36060081-.35369452.79571926-.53053913 1.3053684-.53053913z" fill="#94a9bf" fill-rule="nonzero"/></g></svg>