<svg fill="none" stroke="#282829" viewBox="0 0 25 25" xmlns="http://www.w3.org/2000/svg"><g stroke-linecap="round"><circle cx="12.5" cy="12.5" r="9.5"/><path d="m12.9878 15.3v-1.0086c.0108-.277.0435-.5136.0979-.7098.0544-.1963.1306-.3752.2286-.5368.0979-.1731.2177-.3347.3592-.4848.1415-.15.3047-.3232.4898-.5194.185-.1962.3646-.3867.5387-.5714.1742-.1962.3266-.404.4572-.6233.1306-.2309.234-.479.3102-.7445.0871-.26551.1306-.5714.1306-.91768 0-.34629-.0653-.68103-.1959-1.00423-.1197-.3232-.2993-.606-.5388-.8484-.2394-.25395-.5388-.45595-.898-.606-.3483-.15006-.7455-.22509-1.1918-.22509-.4462 0-.8326.06926-1.1592.20777-.3156.12697-.5877.28857-.8163.4848-.2177.18469-.3918.38092-.5224.58869-.1198.20777-.2123.38669-.2776.53674" stroke-linejoin="round"/><path d="m12.96 18.5v-.8"/></g></svg>