<svg fill="none" stroke="#282829" viewBox="0 0 16 16" xmlns="http://www.w3.org/2000/svg"><circle cx="8.5" cy="8" r="6.5" stroke-linecap="round"/><path d="m8.50058 9.5v-.51574c.00583-.14166.02332-.26267.05248-.36301.02915-.10035.06997-.19184.12244-.27447.05248-.08854.11662-.17118.19242-.24791.07581-.07674.16327-.16527.26239-.26562.09913-.10034.19534-.19774.28863-.29218.0933-.10034.17493-.20659.2449-.31874.06997-.11805.12537-.24496.16618-.38072.04665-.13576.06997-.29218.06997-.46925 0-.17708-.03498-.34826-.10495-.51353-.06414-.16527-.16035-.30989-.28863-.43384-.12828-.12986-.28863-.23316-.48105-.30989-.18659-.07673-.39942-.1151-.63849-.1151-.23906 0-.44606.03542-.62099.10625-.16909.06493-.31487.14756-.43731.24791-.11662.09444-.20992.19478-.27989.30103-.06414.10625-.1137.19774-.14869.27447" stroke-linecap="round" stroke-linejoin="round"/><path d="m8 11.5h1"/></svg>