<?xml version="1.0" encoding="utf-8"?>
<!-- Generator: Adobe Illustrator 19.1.0, SVG Export Plug-In . SVG Version: 6.00 Build 0)  -->
<svg version="1.1" id="Calque_1" xmlns="http://www.w3.org/2000/svg" xmlns:xlink="http://www.w3.org/1999/xlink" x="0px" y="0px"
	 viewBox="0 0 20 20" style="enable-background:new 0 0 20 20;" xml:space="preserve">
<style type="text/css">
	.st0{fill:#000000;}
	.st1{fill-rule:evenodd;clip-rule:evenodd;fill:#000000;}
	.st2{fill-rule:evenodd;clip-rule:evenodd;fill:none;}
	.st3{clip-path:url(#SVGID_2_);fill:#000000;}
	.st4{fill-rule:evenodd;clip-rule:evenodd;fill:#000000;}
</style>
<rect x="-290.2" y="-429.1" class="st2" width="960" height="800"/>
<rect x="-290.2" y="-429.1" class="st2" width="960" height="800"/>
<rect x="-40.5" y="-115.4" class="st2" width="1920" height="1080"/>
<rect x="-254.7" y="-429.1" class="st2" width="960" height="800"/>
<rect x="-254.7" y="-429.1" class="st2" width="960" height="800"/>
<rect x="-5" y="-115.4" class="st2" width="1920" height="1080"/>
<path class="st1" d="M17.2,10.5c-0.2,3.8-3.4,6.7-7.2,6.7c-4,0-7.2-3.2-7.2-7.2C2.8,6,6,2.8,10,2.8c1.9,0,3.5,0.7,4.8,1.9l-0.1,0.1
	l-3.6,3.6h7.9V0.5l-2.6,2.6l-0.2,0.2C14.5,1.9,12.3,1,10,1c-5,0-9,4-9,9c0,5,4,9,9,9c4.8,0,8.8-3.7,9-8.5H17.2z"/>
</svg>
