<svg version="1.1" id="Refresh_20px" xmlns:sketch="http://www.bohemiancoding.com/sketch/ns"
	 xmlns="http://www.w3.org/2000/svg" xmlns:xlink="http://www.w3.org/1999/xlink" x="0px" y="0px" viewBox="-269 416.89 20 20"
	 enable-background="new -269 416.89 20 20" xml:space="preserve">
<path fill-rule="evenodd" clip-rule="evenodd" d="M-251.804,427.62c-0.238,3.762-3.369,6.71-7.191,6.71
	c-3.978,0-7.2-3.222-7.2-7.2c0-3.978,3.222-7.2,7.2-7.2c1.851,0,3.528,0.71,4.803,1.857l-0.118,0.118l-3.625,3.625h7.88v-7.88
	l-2.645,2.645l-0.212,0.212c-1.604-1.473-3.74-2.378-6.091-2.378c-4.968,0-8.991,4.032-8.991,9c0,4.968,4.023,9,8.991,9
	c4.834,0,8.776-3.74,8.999-8.51H-251.804z"/>
</svg>
