<svg version="1.1" xmlns="http://www.w3.org/2000/svg" xmlns:xlink="http://www.w3.org/1999/xlink"
	 viewBox="0 0 20 20" xml:space="preserve">
<path d="M18.6,0.8c-0.7-0.6-3.5,0.3-4,0.5c-2.2,0.7-4.3,2-6,3.7L8.5,5.1C6.3,4.6,2.7,6,1.8,7.6C1.5,8.1,1.6,8.9,2.1,9.4
	c0.3,0.2,0.6,0.4,1,0.5C3.4,10,3.7,10.2,4,10.3l-0.1,0.2L3.6,11l-0.3,0.4L8,16.2l0.4-0.3l0.5-0.3l0.3-0.1c0.2,0.3,0.3,0.6,0.5,0.9
	c0.1,0.4,0.3,0.7,0.5,1c0.3,0.3,0.6,0.5,1.1,0.5c0.3,0,0.5-0.1,0.8-0.2c1.5-0.9,3-4.4,2.5-6.7l0.1-0.1C18,7.6,19,3.1,19,1.6
	C18.9,1.3,18.8,1,18.6,0.8z M13.6,10l-0.4,0.4l-0.3,0.3l0.2,0.4c0.4,1.2-0.2,3.3-1,4.6c-0.4,0.7-0.8,0.9-0.9,0.9l0,0
	c-0.1-0.2-0.3-0.4-0.3-0.7c-0.2-0.6-0.6-1.2-1-1.7l-0.4-0.5L9,14.1l-0.7,0.4H8.2L5,11.3v-0.1l0.4-0.7L5.9,10L5.3,9.6
	c-0.5-0.4-1-0.7-1.6-0.9C3.4,8.6,3.2,8.5,3,8.3l0,0c0-0.1,0.3-0.4,0.9-0.9c1.3-0.8,3.4-1.4,4.6-1l0.4,0.2l0.3-0.3L9.5,6
	c2.9-2.8,6.7-3.9,8-4C17.5,3.2,16.6,7.1,13.6,10z"/>
<path d="M0.7,16.8c-0.4,0.8,0,1.8,0.8,2.1c0.4,0.2,0.9,0.2,1.3,0l4.6-2l-4.7-4.7L0.7,16.8z M5,16.4l-2.8,1.2
	c-0.1,0-0.2,0-0.3-0.2v-0.1l1.2-2.8L5,16.4z"/>
<circle cx="12.9" cy="6.7" r="1.6"/>
</svg>
