<?xml version="1.0" encoding="utf-8"?>
<!-- Generator: Adobe Illustrator 16.0.4, SVG Export Plug-In . SVG Version: 6.00 Build 0)  -->
<!DOCTYPE svg PUBLIC "-//W3C//DTD SVG 1.1//EN" "http://www.w3.org/Graphics/SVG/1.1/DTD/svg11.dtd">
<svg version="1.1" id="Layer_1" xmlns="http://www.w3.org/2000/svg" xmlns:xlink="http://www.w3.org/1999/xlink" x="0px" y="0px"
	 width="512px" height="115.201px" viewBox="0 0 512 115.201" enable-background="new 0 0 512 115.201" xml:space="preserve">
<path id="Shape" d="M24.703,88.692c-6.872,0-16.535-1.319-24.703-7.481L4.391,71.3c3.266,2.524,11.434,6.963,19.478,6.963
	c4.944,0,11.763-2.312,11.763-6.863c0-2.774-2.228-6.625-13.066-9.006c-3.675-0.808-20.622-4.451-20.622-18.208
	c0-9.794,7.044-19.024,22.563-19.024c11.231,0,18.631,4.263,21.847,5.869l-3.881,9.405c-6.531-4.144-13.766-5.263-18.168-5.263
	c-6.841,0-10.11,3.949-10.11,6.988c0,6.675,10.503,7.574,16.95,9.806c9.984,3.307,16.95,8.806,16.95,18.007
	C48.084,79.767,39.734,88.692,24.703,88.692z M80.957,88.486c-14.888,0-26.95-5.052-26.95-19.419
	c0-13.152,12.062-20.844,26.95-20.844c4.547,0,8.744,0.162,12.456,0.712V47.01c0-11.737-13.272-11.487-13.272-11.487
	c-11.435,0-18.172,5.014-18.172,5.014l-4.284-9.713c0,0,9.8-5.862,22.253-5.862c26.544,0,25.854,19.625,25.854,19.625v10.317
	l0.003,28.733C101.375,86.666,92.122,88.486,80.957,88.486z M130.984,87.074h-12.659V1.691h12.659V87.074z M196.194,60.304h-40.366
	v1.28c0,10.113,7.913,14.832,16.666,16.052c7.769,1.073,18.116-3.238,18.116-3.238l4.082,9.714c0,0-7.078,4.312-20.688,4.312
	c-26.543,0-32.4-16.726-32.4-32.101c0-18.35,10.072-31.119,29.497-31.119C193.325,25.197,198.645,45.529,196.194,60.304z
	 M204.025,81.209l4.391-9.911c3.269,2.524,11.435,6.963,19.479,6.963c4.943,0,11.762-2.312,11.762-6.863
	c0-2.774-2.231-6.625-13.069-9.006c-3.675-0.808-20.619-4.451-20.619-18.208c0-9.794,7.044-19.024,22.562-19.024
	c11.231,0,18.631,4.263,21.85,5.869l-3.881,9.405c-6.538-4.144-13.769-5.263-18.175-5.263c-6.837,0-10.106,3.949-10.106,6.988
	c0,6.674,10.506,7.573,16.95,9.806c9.981,3.307,16.95,8.806,16.95,18.007c0,9.787-8.35,18.711-23.381,18.711
	C221.863,88.692,212.194,87.371,204.025,81.209z M296.663,36.91l-13.412-0.244l-9.862,53.946
	c-2.994,13.362-6.601,19.338-12.363,22.271c-10.26,5.219-22.975,0-22.975,0l4.25-9.9c16.475,5.449,17.731-9.155,18.475-13.112
	c0.75-3.955,9.738-53.208,9.738-53.208h-10.238l2.5-10.144h9.738c0,0,0.524-16.006,9.977-22.399
	c11.562-7.826,25.485-2.095,25.485-2.095l-4.249,10.144c-9.676-2.469-14.48,1.757-14.48,1.757
	c-3.307,3.713-4.281,13.088-4.281,13.088h14.021L296.663,36.91z M328.363,88.699c-15.787,0-28.588-10.524-28.588-32.107
	c0-20.231,12.801-31.856,28.588-31.856c15.788,0,28.588,11.352,28.588,31.856C356.951,78.442,344.151,88.699,328.363,88.699z
	 M399.414,38.248c0,0-19.638-7.7-19.638,20.769v28.406h-12.471V26.378h12.456v5.818c10.281-10.625,25.102-4.744,25.102-4.744
	L399.414,38.248z M434.67,88.56c-15.781,0-29.531-10.387-29.531-31.968c0-21.312,14.15-31.562,29.669-31.562
	c10.994,0,15.244,2.02,18.244,3.506l-3.538,9.438c-6.263-2.156-10.763-2.138-13.344-2.021
	c-11.844,0.545-17.331,10.031-17.331,20.694c0,12.22,7.662,20.989,16.106,20.989c8.844,0,10.756-0.812,14.831-2.568l3.812,9.175
	C450.326,86.673,444.876,88.56,434.67,88.56z M511.451,60.304h-40.362v1.28c0,10.113,7.913,14.832,16.663,16.052
	c7.77,1.073,18.112-3.238,18.112-3.238l4.087,9.714c0,0-7.081,4.312-20.688,4.312c-26.55,0-32.397-16.726-32.397-32.101
	c0-18.35,10.075-31.119,29.5-31.119C508.589,25.197,513.901,45.529,511.451,60.304z M485.989,36.085
	c-13.882,0-14.9,14.236-14.9,14.236h28C498.002,37.91,489.526,36.085,485.989,36.085z M328.363,36.197
	c-10.89,0-14.875,9.787-14.875,20.45c0,11.375,3.985,21.25,14.875,21.25c11.432,0,15.062-9.729,15.062-21.25
	C343.426,45.848,339.795,36.197,328.363,36.197z M67.481,69.067c0,13.148,25.319,7.688,25.319,7.688v-17.4
	C92.8,59.354,67.481,53.89,67.481,69.067z M170.731,36.085c-13.884,0-14.903,14.236-14.903,14.236h28.003
	C182.738,37.91,174.272,36.085,170.731,36.085z"/>
</svg>
