<svg enable-background="new 0 0 512 115.201" height="115.201" viewBox="0 0 512 115.201" width="512" xmlns="http://www.w3.org/2000/svg"><path d="m24.703 88.692c-6.872 0-16.535-1.319-24.703-7.481l4.391-9.911c3.266 2.524 11.434 6.963 19.478 6.963 4.944 0 11.763-2.312 11.763-6.863 0-2.774-2.228-6.625-13.066-9.006-3.675-.808-20.622-4.451-20.622-18.208 0-9.794 7.044-19.024 22.563-19.024 11.231 0 18.631 4.263 21.847 5.869l-3.881 9.405c-6.531-4.144-13.766-5.263-18.168-5.263-6.841 0-10.11 3.949-10.11 6.988 0 6.675 10.503 7.574 16.95 9.806 9.984 3.307 16.95 8.806 16.95 18.007-.011 9.793-8.361 18.718-23.392 18.718zm56.254-.206c-14.888 0-26.95-5.052-26.95-19.419 0-13.152 12.062-20.844 26.95-20.844 4.547 0 8.744.162 12.456.712v-1.925c0-11.737-13.272-11.487-13.272-11.487-11.435 0-18.172 5.014-18.172 5.014l-4.284-9.713s9.8-5.862 22.253-5.862c26.544 0 25.854 19.625 25.854 19.625v10.317l.003 28.733c-4.42 3.029-13.673 4.849-24.838 4.849zm50.027-1.412h-12.659v-85.383h12.659zm65.21-26.77h-40.366v1.28c0 10.113 7.913 14.832 16.666 16.052 7.769 1.073 18.116-3.238 18.116-3.238l4.082 9.714s-7.078 4.312-20.688 4.312c-26.543 0-32.4-16.726-32.4-32.101 0-18.35 10.072-31.119 29.497-31.119 22.224-.007 27.544 20.325 25.093 35.1zm7.831 20.905 4.391-9.911c3.269 2.524 11.435 6.963 19.479 6.963 4.943 0 11.762-2.312 11.762-6.863 0-2.774-2.231-6.625-13.069-9.006-3.675-.808-20.619-4.451-20.619-18.208 0-9.794 7.044-19.024 22.562-19.024 11.231 0 18.631 4.263 21.85 5.869l-3.881 9.405c-6.538-4.144-13.769-5.263-18.175-5.263-6.837 0-10.106 3.949-10.106 6.988 0 6.674 10.506 7.573 16.95 9.806 9.981 3.307 16.95 8.806 16.95 18.007 0 9.787-8.35 18.711-23.381 18.711-6.875.009-16.544-1.312-24.713-7.474zm92.638-44.299-13.412-.244-9.862 53.946c-2.994 13.362-6.601 19.338-12.363 22.271-10.26 5.219-22.975 0-22.975 0l4.25-9.9c16.475 5.449 17.731-9.155 18.475-13.112.75-3.955 9.738-53.208 9.738-53.208h-10.238l2.5-10.144h9.738s.524-16.006 9.977-22.399c11.562-7.826 25.485-2.095 25.485-2.095l-4.249 10.144c-9.676-2.469-14.48 1.757-14.48 1.757-3.307 3.713-4.281 13.088-4.281 13.088h14.021zm31.7 51.789c-15.787 0-28.588-10.524-28.588-32.107 0-20.231 12.801-31.856 28.588-31.856 15.788 0 28.588 11.352 28.588 31.856 0 21.85-12.8 32.107-28.588 32.107zm71.051-50.451s-19.638-7.7-19.638 20.769v28.406h-12.471v-61.045h12.456v5.818c10.281-10.625 25.102-4.744 25.102-4.744zm35.256 50.312c-15.781 0-29.531-10.387-29.531-31.968 0-21.312 14.15-31.562 29.669-31.562 10.994 0 15.244 2.02 18.244 3.506l-3.538 9.438c-6.263-2.156-10.763-2.138-13.344-2.021-11.844.545-17.331 10.031-17.331 20.694 0 12.22 7.662 20.989 16.106 20.989 8.844 0 10.756-.812 14.831-2.568l3.812 9.175c-3.262 2.43-8.712 4.317-18.918 4.317zm76.781-28.256h-40.362v1.28c0 10.113 7.913 14.832 16.663 16.052 7.77 1.073 18.112-3.238 18.112-3.238l4.087 9.714s-7.081 4.312-20.688 4.312c-26.55 0-32.397-16.726-32.397-32.101 0-18.35 10.075-31.119 29.5-31.119 22.223-.007 27.535 20.325 25.085 35.1zm-25.462-24.219c-13.882 0-14.9 14.236-14.9 14.236h28c-1.087-12.411-9.563-14.236-13.1-14.236zm-157.626.112c-10.89 0-14.875 9.787-14.875 20.45 0 11.375 3.985 21.25 14.875 21.25 11.432 0 15.062-9.729 15.062-21.25.001-10.799-3.63-20.45-15.062-20.45zm-260.882 32.87c0 13.148 25.319 7.688 25.319 7.688v-17.4c0-.001-25.319-5.465-25.319 9.712zm103.25-32.982c-13.884 0-14.903 14.236-14.903 14.236h28.003c-1.093-12.411-9.559-14.236-13.1-14.236z"/></svg>