<?xml version="1.0" encoding="utf-8"?>
<!-- Generator: Adobe Illustrator 16.0.4, SVG Export Plug-In . SVG Version: 6.00 Build 0)  -->
<!DOCTYPE svg PUBLIC "-//W3C//DTD SVG 1.1//EN" "http://www.w3.org/Graphics/SVG/1.1/DTD/svg11.dtd">
<svg version="1.1" id="Layer_1" xmlns="http://www.w3.org/2000/svg" xmlns:xlink="http://www.w3.org/1999/xlink" x="0px" y="0px"
	 width="512px" height="370.305px" viewBox="0 0 512 370.305" enable-background="new 0 0 512 370.305" xml:space="preserve">
<path id="Shape" d="M401.609,50.153c-15.889,0-30.984,3.515-44.634,9.815c-15.708-28.911-45.193-48.383-78.993-48.383
	c-25.419,0-48.405,11.03-64.917,28.807C194.896,15.842,166.239,0,133.997,0C79.074,0,34.554,45.945,34.554,102.625
	c0,14.518,2.916,28.313,8.182,40.812C17.188,158.864,0,187.693,0,220.715c0,49.287,38.262,89.217,85.459,89.217
	c6.02,0,11.9-0.643,17.565-1.885c12.964,36.34,46.753,62.259,86.39,62.259c38.062,0,70.721-23.879,84.732-57.958
	c10.664,5.365,22.658,8.394,35.309,8.394c30.241,0,56.592-17.216,70.427-42.701c7.028,1.475,14.301,2.239,21.738,2.239
	c60.96,0,110.38-51.516,110.38-115.047C512,101.667,462.58,50.153,401.609,50.153L401.609,50.153z M92.521,199.219
	c-5.166,0-12.433-1.028-18.574-5.862l3.304-7.771c2.456,1.984,8.597,5.464,14.644,5.464c3.714,0,8.846-1.815,8.846-5.389
	c0-2.173-1.674-5.188-9.827-7.056c-2.76-0.639-15.503-3.492-15.503-14.278c0-7.672,5.299-14.91,16.961-14.91
	c8.447,0,14.012,3.342,16.429,4.602l-2.916,7.377c-4.917-3.254-10.354-4.13-13.663-4.13c-5.144,0-7.599,3.1-7.599,5.477
	c0,5.231,7.898,5.937,12.743,7.688c7.505,2.595,12.743,6.9,12.743,14.117C110.103,192.226,103.822,199.219,92.521,199.219
	L92.521,199.219z M134.817,199.066c-11.196,0-20.264-3.957-20.264-15.227c0-10.31,9.068-16.341,20.264-16.341
	c3.415,0,6.574,0.128,9.362,0.562v-1.515c0-9.194-9.978-9.007-9.978-9.007c-8.597,0-13.663,3.936-13.663,3.936l-3.22-7.615
	c0,0,7.366-4.602,16.733-4.602c19.954,0,19.433,15.388,19.433,15.388v8.093l0.005,22.523
	C150.166,197.635,143.209,199.066,134.817,199.066L134.817,199.066z M172.431,197.957h-9.522V131.02h9.522V197.957L172.431,197.957z
	 M221.457,176.966H191.11v1.003c0,7.933,5.947,11.629,12.527,12.583c5.842,0.854,13.619-2.539,13.619-2.539l3.07,7.615
	c0,0-5.321,3.383-15.553,3.383c-19.96,0-24.36-13.107-24.36-25.166c0-14.378,7.571-24.394,22.177-24.394
	C219.301,149.447,223.297,165.387,221.457,176.966L221.457,176.966z M227.344,193.357l3.304-7.771
	c2.455,1.984,8.597,5.464,14.644,5.464c3.714,0,8.847-1.815,8.847-5.389c0-2.173-1.68-5.188-9.827-7.056
	c-2.761-0.639-15.504-3.492-15.504-14.278c0-7.672,5.294-14.91,16.961-14.91c8.447,0,14.012,3.342,16.428,4.602l-2.915,7.377
	c-4.917-3.254-10.354-4.13-13.663-4.13c-5.144,0-7.599,3.1-7.599,5.477c0,5.231,7.893,5.937,12.743,7.688
	c7.504,2.595,12.743,6.9,12.743,14.117c0,7.676-6.279,14.67-17.576,14.67C240.752,199.219,233.485,198.191,227.344,193.357
	L227.344,193.357z M296.995,158.631l-10.077-0.193l-7.428,42.292c-2.239,10.476-4.967,15.153-9.29,17.46
	c-7.716,4.091-17.271,0-17.271,0l3.193-7.762c12.394,4.27,13.323-7.185,13.901-10.285c0.554-3.104,7.313-41.705,7.313-41.705h-7.704
	l1.873-7.953h7.328c0,0,0.391-12.556,7.504-17.565c8.689-6.131,19.156-1.641,19.156-1.641l-3.191,7.954
	c-7.271-1.94-10.887,1.374-10.887,1.374c-2.48,2.909-3.215,10.266-3.215,10.266h10.529L296.995,158.631L296.995,158.631z
	 M320.829,199.232c-11.873,0-21.495-8.247-21.495-25.176c0-15.862,9.622-24.971,21.495-24.971c11.872,0,21.494,8.896,21.494,24.971
	C342.323,191.184,332.701,199.232,320.829,199.232L320.829,199.232z M374.25,159.678c0,0-14.766-6.035-14.766,16.284v22.271h-9.379
	v-47.862h9.379v4.562c7.716-8.324,18.864-3.719,18.864-3.719L374.25,159.678L374.25,159.678z M400.756,199.121
	c-11.872,0-22.204-8.137-22.204-25.064c0-16.705,10.645-24.742,22.307-24.742c8.271,0,11.463,1.585,13.724,2.749l-2.66,7.404
	c-4.723-1.695-8.092-1.68-10.043-1.591c-8.891,0.427-13.015,7.871-13.015,16.229c0,9.571,5.753,16.444,12.104,16.444
	c6.651,0,8.081-0.633,11.151-2.006l2.857,7.185C412.518,197.635,408.438,199.121,400.756,199.121L400.756,199.121z M458.479,176.966
	h-30.341v1.003c0,7.933,5.953,11.629,12.526,12.583c5.842,0.854,13.624-2.539,13.624-2.539l3.06,7.615c0,0-5.318,3.383-15.542,3.383
	c-19.965,0-24.363-13.107-24.363-25.166c0-14.378,7.568-24.394,22.171-24.394C456.328,149.447,460.319,165.387,458.479,176.966z
	 M202.312,157.983c-10.438,0-11.202,11.156-11.202,11.156h21.052C211.342,159.412,204.973,157.983,202.312,157.983z
	 M439.345,157.983c-10.439,0-11.207,11.156-11.207,11.156h21.054C448.368,159.412,442.005,157.983,439.345,157.983z
	 M320.829,158.072c-8.192,0-11.188,7.677-11.188,16.035c0,8.913,2.993,16.655,11.188,16.655c8.591,0,11.329-7.627,11.329-16.655
	C332.158,165.632,329.42,158.072,320.829,158.072z M124.686,183.84c0,10.315,19.034,6.024,19.034,6.024v-13.642
	C143.72,176.223,124.686,171.94,124.686,183.84L124.686,183.84z"/>
</svg>
