<svg enable-background="new 0 0 512 370.305" height="370.305" viewBox="0 0 512 370.305" width="512" xmlns="http://www.w3.org/2000/svg"><path d="m401.609 50.153c-15.889 0-30.984 3.515-44.634 9.815-15.708-28.911-45.193-48.383-78.993-48.383-25.419 0-48.405 11.03-64.917 28.807-18.169-24.55-46.826-40.392-79.068-40.392-54.923 0-99.443 45.945-99.443 102.625 0 14.518 2.916 28.313 8.182 40.812-25.548 15.427-42.736 44.256-42.736 77.278 0 49.287 38.262 89.217 85.459 89.217 6.02 0 11.9-.643 17.565-1.885 12.964 36.34 46.753 62.259 86.39 62.259 38.062 0 70.721-23.879 84.732-57.958 10.664 5.365 22.658 8.394 35.309 8.394 30.241 0 56.592-17.216 70.427-42.701 7.028 1.475 14.301 2.239 21.738 2.239 60.96 0 110.38-51.516 110.38-115.047 0-63.566-49.42-115.08-110.391-115.08zm-309.088 149.066c-5.166 0-12.433-1.028-18.574-5.862l3.304-7.771c2.456 1.984 8.597 5.464 14.644 5.464 3.714 0 8.846-1.815 8.846-5.389 0-2.173-1.674-5.188-9.827-7.056-2.76-.639-15.503-3.492-15.503-14.278 0-7.672 5.299-14.91 16.961-14.91 8.447 0 14.012 3.342 16.429 4.602l-2.916 7.377c-4.917-3.254-10.354-4.13-13.663-4.13-5.144 0-7.599 3.1-7.599 5.477 0 5.231 7.898 5.937 12.743 7.688 7.505 2.595 12.743 6.9 12.743 14.117-.006 7.678-6.287 14.671-17.588 14.671zm42.296-.153c-11.196 0-20.264-3.957-20.264-15.227 0-10.31 9.068-16.341 20.264-16.341 3.415 0 6.574.128 9.362.562v-1.515c0-9.194-9.978-9.007-9.978-9.007-8.597 0-13.663 3.936-13.663 3.936l-3.22-7.615s7.366-4.602 16.733-4.602c19.954 0 19.433 15.388 19.433 15.388v8.093l.005 22.523c-3.323 2.374-10.28 3.805-18.672 3.805zm37.614-1.109h-9.522v-66.937h9.522zm49.026-20.991h-30.347v1.003c0 7.933 5.947 11.629 12.527 12.583 5.842.854 13.619-2.539 13.619-2.539l3.07 7.615s-5.321 3.383-15.553 3.383c-19.96 0-24.36-13.107-24.36-25.166 0-14.378 7.571-24.394 22.177-24.394 16.711-.004 20.707 15.936 18.867 27.515zm5.887 16.391 3.304-7.771c2.455 1.984 8.597 5.464 14.644 5.464 3.714 0 8.847-1.815 8.847-5.389 0-2.173-1.68-5.188-9.827-7.056-2.761-.639-15.504-3.492-15.504-14.278 0-7.672 5.294-14.91 16.961-14.91 8.447 0 14.012 3.342 16.428 4.602l-2.915 7.377c-4.917-3.254-10.354-4.13-13.663-4.13-5.144 0-7.599 3.1-7.599 5.477 0 5.231 7.893 5.937 12.743 7.688 7.504 2.595 12.743 6.9 12.743 14.117 0 7.676-6.279 14.67-17.576 14.67-5.178.001-12.445-1.027-18.586-5.861zm69.651-34.726-10.077-.193-7.428 42.292c-2.239 10.476-4.967 15.153-9.29 17.46-7.716 4.091-17.271 0-17.271 0l3.193-7.762c12.394 4.27 13.323-7.185 13.901-10.285.554-3.104 7.313-41.705 7.313-41.705h-7.704l1.873-7.953h7.328s.391-12.556 7.504-17.565c8.689-6.131 19.156-1.641 19.156-1.641l-3.191 7.954c-7.271-1.94-10.887 1.374-10.887 1.374-2.48 2.909-3.215 10.266-3.215 10.266h10.529zm23.834 40.601c-11.873 0-21.495-8.247-21.495-25.176 0-15.862 9.622-24.971 21.495-24.971 11.872 0 21.494 8.896 21.494 24.971 0 17.128-9.622 25.176-21.494 25.176zm53.421-39.554s-14.766-6.035-14.766 16.284v22.271h-9.379v-47.862h9.379v4.562c7.716-8.324 18.864-3.719 18.864-3.719zm26.506 39.443c-11.872 0-22.204-8.137-22.204-25.064 0-16.705 10.645-24.742 22.307-24.742 8.271 0 11.463 1.585 13.724 2.749l-2.66 7.404c-4.723-1.695-8.092-1.68-10.043-1.591-8.891.427-13.015 7.871-13.015 16.229 0 9.571 5.753 16.444 12.104 16.444 6.651 0 8.081-.633 11.151-2.006l2.857 7.185c-2.459 1.906-6.539 3.392-14.221 3.392zm57.723-22.155h-30.341v1.003c0 7.933 5.953 11.629 12.526 12.583 5.842.854 13.624-2.539 13.624-2.539l3.06 7.615s-5.318 3.383-15.542 3.383c-19.965 0-24.363-13.107-24.363-25.166 0-14.378 7.568-24.394 22.171-24.394 16.714-.004 20.705 15.936 18.865 27.515zm-256.167-18.983c-10.438 0-11.202 11.156-11.202 11.156h21.052c-.82-9.727-7.189-11.156-9.85-11.156zm237.033 0c-10.439 0-11.207 11.156-11.207 11.156h21.054c-.824-9.727-7.187-11.156-9.847-11.156zm-118.516.089c-8.192 0-11.188 7.677-11.188 16.035 0 8.913 2.993 16.655 11.188 16.655 8.591 0 11.329-7.627 11.329-16.655 0-8.475-2.738-16.035-11.329-16.035zm-196.143 25.768c0 10.315 19.034 6.024 19.034 6.024v-13.642c0 .001-19.034-4.282-19.034 7.618z"/></svg>