<svg viewBox="0 0 15 15" xmlns="http://www.w3.org/2000/svg"><g fill="currentColor" fill-rule="evenodd"><path d="m2.01 6.03c0-2.216 1.803-4.02 4.02-4.02 2.216 0 4.02 1.803 4.02 4.02 0 2.216-1.803 4.02-4.02 4.02-2.215 0-4.02-1.801-4.02-4.02m12.696 7.256l-3.769-3.768c.702-.986 1.12-2.187 1.12-3.487 0-3.325-2.704-6.03-6.03-6.03-3.325 0-6.03 2.704-6.03 6.03 0 3.325 2.704 6.03 6.03 6.03 1.3 0 2.502-.418 3.487-1.12l3.769 3.769c.196.196.453.294.71.294.257 0 .514-.098.71-.294.393-.393.393-1.028 0-1.422"/></g></svg>