<svg viewBox="0 0 20 20" xmlns="http://www.w3.org/2000/svg"><g transform="translate(1 1)"><path d="m1.3 5h1.4c.166 0 .3.134.3.3v1.4c0 .166-.134.3-.3.3h-1.4c-.166 0-.3-.134-.3-.3v-1.4c0-.166.134-.3.3-.3"/><path d="m.53 0c-.293 0-.53.237-.53.53v1.94c0 .293.237.53.53.53h1.94c.293 0 .53-.237.53-.53v-1.94c0-.293-.237-.53-.53-.53h-1.94"/><path d="m13.53 0c-.293 0-.53.237-.53.53v1.94c0 .293.237.53.53.53h1.94c.293 0 .53-.237.53-.53v-1.94c0-.293-.237-.53-.53-.53h-1.94"/><path d="m.53 13c-.293 0-.53.237-.53.53v1.94c0 .293.237.53.53.53h1.94c.293 0 .53-.237.53-.53v-1.94c0-.293-.237-.53-.53-.53h-1.94"/><path d="m1.3 9h1.4c.166 0 .3.134.3.3v1.4c0 .166-.134.3-.3.3h-1.4c-.166 0-.3-.134-.3-.3v-1.4c0-.166.134-.3.3-.3"/><path d="m5.3 13h1.4c.166 0 .3.134.3.3v1.4c0 .166-.134.3-.3.3h-1.4c-.166 0-.3-.134-.3-.3v-1.4c0-.166.134-.3.3-.3"/><path d="m5.3 1h1.4c.166 0 .3.134.3.3v1.4c0 .166-.134.3-.3.3h-1.4c-.166 0-.3-.134-.3-.3v-1.4c0-.166.134-.3.3-.3"/><path d="m9.3 1h1.4c.166 0 .3.134.3.3v1.4c0 .166-.134.3-.3.3h-1.4c-.166 0-.3-.134-.3-.3v-1.4c0-.166.134-.3.3-.3"/><path d="m13.3 5h1.4c.166 0 .3.134.3.3v1.4c0 .166-.134.3-.3.3h-1.4c-.166 0-.3-.134-.3-.3v-1.4c0-.166.134-.3.3-.3"/><path d="m9.46 9c-.253-.001-.46.203-.461.457 0 .063.012.125.037.183l3.893 9.08c.1.233.37.341.602.241.12-.052.213-.152.255-.277l1.225-3.674 3.675-1.225c.239-.081.369-.341.288-.581-.041-.124-.134-.224-.253-.276l-9.08-3.893c-.057-.024-.118-.037-.179-.037"/></g></svg>
