<svg enable-background="new 0 0 512 512" height="512" viewBox="0 0 512 512" width="512" xmlns="http://www.w3.org/2000/svg"><path d="m256-.75-96 96h64v129.5h63.5v-129.5h64.5z"/><path d="m288 351.975c69.175-25.59 224-159.975 224-159.975v-32l-192-.025v96h-128v-96l-192 .025v32s156.377 130.525 224 159.975c14.669 6.386 48.994 5.55 64 0z"/><path d="m512 480c0-64 0-240 0-240s-134.518 119.484-192 143.975c-29.439 12.543-97.911 10.895-128 0-58.75-21.271-192-143.975-192-143.975s0 175.994 0 240c0 32 32 32 32 32h448s32 0 32-32z"/></svg>