<svg enable-background="new -287 410.89 20 20" height="20" viewBox="-287 410.89 20 20" width="20" xmlns="http://www.w3.org/2000/svg"><path d="m-275.149 430.64h-3.701c-.607 0-1.122-.444-1.197-1.033l-.289-1.959c-.339-.159-.668-.346-.985-.558l-1.927.753c-.582.203-1.213-.028-1.493-.531l-1.84-3.097c-.306-.54-.177-1.187.297-1.553l1.62-1.231c-.016-.179-.024-.36-.024-.542 0-.181.009-.362.024-.541l-1.616-1.229c-.485-.374-.612-1.044-.297-1.562l1.847-3.108c.277-.499.915-.729 1.476-.516l1.937.756c.327-.217.652-.402.982-.559l.291-1.974c.073-.574.588-1.019 1.195-1.019h3.701c.607 0 1.122.444 1.197 1.034l.289 1.958c.338.159.668.346.985.558l1.929-.753c.576-.205 1.209.027 1.491.53l1.84 3.098c.306.542.177 1.188-.298 1.553l-1.618 1.231c.015.177.023.356.023.541 0 .186-.009.365-.023.542l1.615 1.228c.478.37.606 1.016.31 1.542l-1.858 3.129c-.285.509-.909.734-1.476.517l-1.938-.757c-.327.217-.652.402-.982.559l-.291 1.974c-.074.575-.588 1.019-1.196 1.019zm-3.451-1.5h3.201l.376-2.551.401-.16c.469-.187.926-.444 1.397-.79l.333-.243 2.458.961 1.586-2.672-2.076-1.579.055-.43c.033-.257.059-.514.059-.787 0-.272-.025-.529-.059-.786l-.055-.43 2.076-1.58-1.586-2.671-2.464.962-.333-.25c-.438-.327-.905-.591-1.392-.785l-.401-.16-.376-2.55h-3.201l-.376 2.55-.401.16c-.469.187-.926.446-1.398.791l-.332.243-2.457-.959-1.587 2.67 2.077 1.58-.055.43c-.033.257-.06.521-.06.786s.026.53.06.787l.055.43-2.077 1.58 1.587 2.671 2.463-.963.334.251c.437.327.904.591 1.391.784l.401.16z"/><path d="m-277 424.39c-1.93 0-3.5-1.57-3.5-3.5s1.57-3.5 3.5-3.5 3.5 1.57 3.5 3.5-1.57 3.5-3.5 3.5zm0-6c-1.379 0-2.5 1.122-2.5 2.5 0 1.379 1.121 2.5 2.5 2.5s2.5-1.122 2.5-2.5c0-1.379-1.121-2.5-2.5-2.5z"/></svg>