<svg version="1.1" xmlns="http://www.w3.org/2000/svg" xmlns:xlink="http://www.w3.org/1999/xlink" x="0px" y="0px"
	 width="20px" height="20px" viewBox="-287 410.89 20 20" enable-background="new -287 410.89 20 20" xml:space="preserve">
    <path d="M-275.149,430.64h-3.701c-0.607,0-1.122-0.444-1.197-1.033l-0.289-1.959
	   c-0.339-0.159-0.668-0.346-0.985-0.558l-1.927,0.753c-0.582,0.203-1.213-0.028-1.493-0.531l-1.84-3.097
	   c-0.306-0.54-0.177-1.187,0.297-1.553l1.62-1.231c-0.016-0.179-0.024-0.36-0.024-0.542c0-0.181,0.009-0.362,0.024-0.541
	   l-1.616-1.229c-0.485-0.374-0.612-1.044-0.297-1.562l1.847-3.108c0.277-0.499,0.915-0.729,1.476-0.516l1.937,0.756
	   c0.327-0.217,0.652-0.402,0.982-0.559l0.291-1.974c0.073-0.574,0.588-1.019,1.195-1.019h3.701c0.607,0,1.122,0.444,1.197,1.034
	   l0.289,1.958c0.338,0.159,0.668,0.346,0.985,0.558l1.929-0.753c0.576-0.205,1.209,0.027,1.491,0.53l1.84,3.098
	   c0.306,0.542,0.177,1.188-0.298,1.553l-1.618,1.231c0.015,0.177,0.023,0.356,0.023,0.541c0,0.186-0.009,0.365-0.023,0.542
	   l1.615,1.228c0.478,0.37,0.606,1.016,0.31,1.542l-1.858,3.129c-0.285,0.509-0.909,0.734-1.476,0.517l-1.938-0.757
	   c-0.327,0.217-0.652,0.402-0.982,0.559l-0.291,1.974C-274.027,430.196-274.541,430.64-275.149,430.64z M-278.6,429.14h3.201
	   l0.376-2.551l0.401-0.16c0.469-0.187,0.926-0.444,1.397-0.79l0.333-0.243l2.458,0.961l1.586-2.672l-2.076-1.579l0.055-0.43
	   c0.033-0.257,0.059-0.514,0.059-0.787c0-0.272-0.025-0.529-0.059-0.786l-0.055-0.43l2.076-1.58l-1.586-2.671l-2.464,0.962
	   l-0.333-0.25c-0.438-0.327-0.905-0.591-1.392-0.785l-0.401-0.16l-0.376-2.55h-3.201l-0.376,2.55l-0.401,0.16
	   c-0.469,0.187-0.926,0.446-1.398,0.791l-0.332,0.243l-2.457-0.959l-1.587,2.67l2.077,1.58l-0.055,0.43
	   c-0.033,0.257-0.06,0.521-0.06,0.786c0,0.265,0.026,0.53,0.06,0.787l0.055,0.43l-2.077,1.58l1.587,2.671l2.463-0.963l0.334,0.251
	   c0.437,0.327,0.904,0.591,1.391,0.784l0.401,0.16L-278.6,429.14z"/>
    <path d="M-277,424.39c-1.93,0-3.5-1.57-3.5-3.5c0-1.93,1.57-3.5,3.5-3.5s3.5,1.57,3.5,3.5
	   C-273.5,422.82-275.07,424.39-277,424.39z M-277,418.39c-1.379,0-2.5,1.122-2.5,2.5c0,1.379,1.121,2.5,2.5,2.5s2.5-1.122,2.5-2.5
	   C-274.5,419.511-275.621,418.39-277,418.39z"/>
</svg>
