<svg enable-background="new 0 0 512 512" height="512" viewBox="0 0 512 512" width="512" xmlns="http://www.w3.org/2000/svg"><path d="m320 96c0 5.125.312 9.922.938 14.719l-158.703 75.843c-16.954-16.328-40.314-26.562-66.235-26.562-53.125 0-96 42.875-96 96s42.875 96 96 96c25.921 0 49.281-10.25 66.234-26.875l158.704 76.156c-.626 4.781-.938 9.594-.938 14.719 0 53.125 42.875 96 96 96s96-42.875 96-96-42.875-96-96-96c-27.5 0-52.156 11.5-69.751 30.062l-156.17-74.562c1.279-6.375 1.921-12.781 1.921-19.5s-.642-13.125-1.921-19.516l156.17-74.562c17.251 18.562 42.251 30.078 69.751 30.078 53.125 0 96-42.875 96-96s-42.875-96-96-96-96 42.875-96 96z"/></svg>