<svg viewBox="0 0 14 16" xmlns="http://www.w3.org/2000/svg"><path d="m6.984375 15.3359375c.1171875 0 .3125-.0390625.5-.1484375 4.21875-2.3359375 5.6796875-3.359375 5.6796875-6.0546875v-5.6328125c0-.8125-.34375-1.078125-1.0078125-1.359375-.8515625-.359375-3.6484375-1.359375-4.5-1.6484375-.2109375-.0703125-.453125-.1171875-.671875-.1171875-.2265625 0-.4609375.0625-.671875.1171875-.8515625.2421875-3.65625 1.296875-4.5078125 1.6484375-.6640625.2734375-1 .546875-1 1.359375v5.6328125c0 2.6953125 1.4609375 3.703125 5.671875 6.0546875.1875.109375.3828125.1484375.5078125.1484375zm0-1.421875v-12.28125c.0859375 0 .1875.0234375.328125.0703125 1.0703125.421875 3.2109375 1.1953125 4.34375 1.5859375.203125.078125.25.1875.25.4375v5.125c0 2.2421875-1.09375 2.84375-4.4765625 4.890625-.2109375.1328125-.328125.171875-.4453125.171875z"/></svg>