<svg viewBox="0 0 28 14" xmlns="http://www.w3.org/2000/svg"><path d="m1.6 0h24.8c.9 0 1.6.7 1.6 1.6v10.8c0 .9-.7 1.6-1.6 1.6h-24.8c-.9 0-1.6-.7-1.6-1.6v-10.8c0-.9.7-1.6 1.6-1.6z"/><path d="m1.6 0h24.8c.9 0 1.6.7 1.6 1.6v10.8c0 .9-.7 1.6-1.6 1.6h-24.8c-.9 0-1.6-.7-1.6-1.6v-10.8c0-.9.7-1.6 1.6-1.6z" fill="#fff"/><g fill="none" stroke="#f0f0f0" stroke-linecap="square" stroke-width=".8" transform="translate(8.8 2.470588)"><path d="m5.2.4v8.2"/><path d="m9.2 1.2v6.6"/><path d="m1.2 1.2v6.6"/></g></svg>