<svg xmlns="http://www.w3.org/2000/svg" viewBox="0 0 28 14">
  <path d="M1.6,0h24.8C27.3,0,28,0.7,28,1.6v10.8c0,0.9-0.7,1.6-1.6,1.6H1.6C0.7,14,0,13.3,0,12.4V1.6
					C0,0.7,0.7,0,1.6,0z"/>
  <path style="fill:#FFFFFF;" d="M1.6,0h24.8C27.3,0,28,0.7,28,1.6v10.8c0,0.9-0.7,1.6-1.6,1.6H1.6C0.7,14,0,13.3,0,12.4V1.6
					C0,0.7,0.7,0,1.6,0z"/>
  <g transform="translate(8.800000, 2.470588)">
    <path style="fill:none;stroke:#F0F0F0;stroke-width:0.8;stroke-linecap:square;" d="M5.2,0.4v8.2"/>
    <path style="fill:none;stroke:#F0F0F0;stroke-width:0.8;stroke-linecap:square;" d="M9.2,1.2v6.6"/>
    <path style="fill:none;stroke:#F0F0F0;stroke-width:0.8;stroke-linecap:square;" d="M1.2,1.2v6.6"/>
  </g>
</svg>
