<svg enable-background="new 0 0 64 64" viewBox="0 0 64 64"><path d="m60 0h-56c-2.2 0-4 1.8-4 4v56c0 2.2 1.8 4 4 4h56c2.2 0 4-1.8 4-4v-56c0-2.2-1.8-4-4-4" fill="#1f263f"/><g fill="#fff"><path d="m40.5 51h-17.4c-1.2 0-2.4-.7-3-1.7l-8.7-15c-.6-1.1-.6-2.4 0-3.5l8.7-15c.6-1.1 1.8-1.7 3-1.7h17.4c1.2 0 2.4.7 3 1.7l8.7 15c.6 1.1.6 2.4 0 3.5l-8.7 15c-.6 1-1.8 1.7-3 1.7zm-17.4-35c-.5 0-1 .3-1.3.7l-8.7 15c-.3.5-.3 1 0 1.5l8.7 15c.3.5.7.7 1.3.7h17.4c.5 0 1-.3 1.3-.7l8.7-15c.3-.5.3-1 0-1.5l-8.7-15c-.3-.4-.8-.7-1.3-.7z"/><path d="m26 42.4c-3.4 0-3.5-.8-3.5-4.8v-2.6c0-.7-1.5-1.5-2.4-1.5v-2c.2 0 2.4 0 2.4-1.5v-2.5c0-4 .1-4.8 3.5-4.8v2c-.5 0-1 0-1.4.1-.1.9-.1 1.8-.1 2.7v2.5c0 1.1-.5 2.1-1.3 2.7.8.5 1.3 1.4 1.4 2.3v2.5c-.1.9 0 1.9.1 2.8h1.3zm11.6 0v-2c.5 0 1 0 1.5-.1.1-.9.1-1.8.1-2.7v-2.6c0-1 .5-1.9 1.4-2.4-.9-.6-1.4-1.6-1.4-2.6v-2.6c.1-.9 0-1.9-.2-2.8h-1.4v-2c3.4 0 3.5.8 3.5 4.8v2.6c0 1.5 2.2 1.5 2.4 1.5v2c-1 0-2.4.8-2.4 1.5v2.5c.1 4.1 0 4.9-3.5 4.9z"/></g></svg>