<svg xmlns="http://www.w3.org/2000/svg" viewBox="0 0 32 32" enable-background="new 0 0 32 32">
  <path fill="#0073cf"
        d="m30 0h-28c-1.1 0-2 .9-2 2v28c0 1.1.9 2 2 2h28c1.1 0 2-.9 2-2v-28c0-1.1-.9-2-2-2m-11 27.3c0 .4-.1.6-.6.6-1.6 0-3.2 0-4.8.1-.4 0-.6-.2-.6-.6 0-1.4 0-2.7 0-4.1 0-.4.2-.6.6-.6.8 0 1.6.1 2.3.1.8 0 1.6 0 2.4-.1.5 0 .7.1.6.6 0 .7 0 3.3.1 4m-.3-14.8c-.1 2.3-.2 4.5-.2 6.8 0 .4-.1.6-.6.6-.9 0-3.4.1-3.7.1-.4 0-.6-.1-.6-.5-.1-1.6-.1-3.3-.2-4.9-.2-3-.4-5.9-.7-8.9 0-.4.1-.6.5-.7 1.8-.3 3.7-.6 5.5-.9.5-.1.6.1.6.6-.2 2.5-.4 5.1-.6 7.8"/>
</svg>
