<svg xmlns="http://www.w3.org/2000/svg" viewBox="0 0 32 32" enable-background="new 0 0 32 32">
  <path fill="#009ddc"
        d="m20.5 4.6c-.7 0-1.4.2-2 .4-.7-1.3-2-2.1-3.6-2.1-1.1 0-2.2.5-2.9 1.3-.8-1.1-2.1-1.8-3.6-1.8-2.5 0-4.5 2-4.5 4.5 0 .6.1 1.2.4 1.8-1.1.7-1.9 1.9-1.9 3.4 0 2.2 1.7 3.9 3.8 3.9.3 0 .5 0 .8-.1.6 1.6 2.1 2.7 3.9 2.7 1.7 0 3.2-1 3.8-2.5.5.2 1 .4 1.6.4 1.4 0 2.5-.8 3.2-1.9.3.1.6.1 1 .1 2.7 0 5-2.3 5-5.1 0-2.8-2.2-5-5-5"
        transform="translate(2 6)"/>
  <path fill="#bcc3ca" d="m30 2v28h-28v-28h28m0-2h-28c-1.1 0-2 .9-2 2v28c0 1.1.9 2 2 2h28c1.1 0 2-.9 2-2v-28c0-1.1-.9-2-2-2z"/>
</svg>
