<svg viewBox="0 0 64 64" xmlns="http://www.w3.org/2000/svg"><g fill="none" fill-rule="evenodd"><path d="M0 0h64v64H0z"/><path d="M32 31.2c-3.8 2.2-8 3.4-12.2 3.4-1.4 0-2.6-1.2-2.6-2.6 0-1.4 1.2-2.6 2.6-2.6 9.8 0 17.6-7.6 18.2-17.2h5.2C42.8 20 38.8 27 32 31.2M43.2 52H38c-.4-7.4-5.2-13.6-11.8-16.2 1.8-.6 6.2-2.6 6.2-2.6C39 37.4 42.8 44.4 43.2 52m2-40.8v-1H36v1c0 9-7.4 16.2-16.2 16.2-2.6 0-4.6 2-4.6 4.6 0 2.6 2 4.6 4.6 4.6 9 0 16.2 7.4 16.2 16.2v1h9.2v-1c0-8.4-4-16-10.8-20.8 6.8-4.8 10.8-12.4 10.8-20.8" fill="#000" fill-rule="nonzero"/></g></svg>