<svg xmlns="http://www.w3.org/2000/svg" viewBox="0 0 32 32" enable-background="new 0 0 32 32">
  <path fill="#1c6db5"
        d="m17.1 8c-.1 0-.3 0-.4 0-.5-1.3-1.4-2.4-2.6-3 0-.1 0-.2 0-.3 0-1.1-.9-2-1.9-2-.4 0-.9.2-1.2.4v3.2c.3.3.7.4 1.2.4.6 0 1.2-.3 1.6-.9 1 .5 1.8 1.4 2.1 2.5-.4.4-.7.9-.7 1.6 0 .6.3 1.2.7 1.6-.4 1.1-1.2 2-2.2 2.6-.3-.5-.9-.9-1.6-.9-.4 0-.9.2-1.2.4v3.2c.3.3.7.4 1.2.4 1.1 0 1.9-.9 1.9-2 0-.1 0-.2 0-.3 1.2-.6 2.2-1.7 2.6-3.1.1 0 .2 0 .4 0 1.1 0 1.9-.9 1.9-2 .1-.9-.7-1.8-1.8-1.8m-11.8 5.9c-.9.7-2.1.4-3 0 0-.6 0-1.2 0-1.8.6.5 1.5 1.2 2.2.5.6-1-.5-1.6-1.2-2.1-1.4-.8-1.4-3.2-.1-4.2.8-.5 1.7-.4 2.6-.2 0 .6 0 1.1 0 1.7-.7-.2-1.6-.7-2.2.1-.4 1.1.9 1.6 1.5 2.1 1.2.8 1.3 3 .2 3.9m-6.2-11.7v15.8l11 2v-20l-11 2.2"
        transform="translate(7 6)"/>
  <path fill="#bcc3ca" d="m30 2v28h-28v-28h28m0-2h-28c-1.1 0-2 .9-2 2v28c0 1.1.9 2 2 2h28c1.1 0 2-.9 2-2v-28c0-1.1-.9-2-2-2z"/>
</svg>
