<svg xmlns="http://www.w3.org/2000/svg" viewBox="0 0 32 32" enable-background="new 0 0 32 32"><path d="m30 2v28h-28v-28h28m0-2h-28c-1.1 0-2 .9-2 2v28c0 1.1.9 2 2 2h28c1.1 0 2-.9 2-2v-28c0-1.1-.9-2-2-2z" fill="#bcc3ca"/><g fill="#1c6db5"><path d="m25.5 17.8c0-.1 0-.2 0-.2 0-1.9-1.5-3.4-3.4-3.4-.7 0-1.3.2-1.9.6-.6-1.3-2-2.1-3.5-2.1-2.2 0-3.9 1.7-3.9 3.9 0 .1 0 .2 0 .2-.1 0-.2 0-.3 0-1.7 0-3.1 1.4-3.1 3.1 0 1.7 1.4 3.1 3.1 3.1h11.4 2c.1 0 .1-.1.2-.1.9-.4 1.5-1.4 1.5-2.4.2-1.3-.8-2.5-2.1-2.7"/><path d="m12.2 16.1c.2-2.3 2.2-4.2 4.6-4.2 1.5 0 2.9.7 3.7 1.9.5-.2 1.1-.3 1.6-.3 0 0 .1 0 .1 0-.2-2.5-2.3-4.5-4.9-4.5-2 0-3.7 1.1-4.5 2.8-.6-.4-1.3-.6-2-.6-2 0-3.6 1.6-3.6 3.6 0 .3 0 .5.1.8-1.7.1-3 1.5-3 3.2 0 1.8 1.4 3.2 3.2 3.2h2.1c-.4-.6-.7-1.4-.7-2.2 0-1.9 1.4-3.5 3.3-3.7"/></g></svg>