<?xml version="1.0" encoding="UTF-8" standalone="no"?>
<svg width="32px" height="32px" viewBox="0 0 32 32" version="1.1" xmlns="http://www.w3.org/2000/svg" xmlns:xlink="http://www.w3.org/1999/xlink" xmlns:sketch="http://www.bohemiancoding.com/sketch/ns">
    <!-- Generator: Sketch 3.2.2 (9983) - http://www.bohemiancoding.com/sketch -->
    <title>Queue</title>
    <desc>Created with Sketch.</desc>
    <defs>
        <rect id="path-1" x="0" y="0" width="32" height="32" rx="2"></rect>
    </defs>
    <g id="Sources-Icons-32px" stroke="none" stroke-width="1" fill="none" fill-rule="evenodd" sketch:type="MSPage">
        <g id="Queue" sketch:type="MSArtboardGroup">
            <g id="source-queue" sketch:type="MSLayerGroup">
                <mask id="mask-2" sketch:name="BG" fill="white">
                    <use xlink:href="#path-1"></use>
                </mask>
                <use id="BG" fill="#004990" sketch:type="MSShapeGroup" xlink:href="#path-1"></use>
                <g id="test-3" mask="url(#mask-2)" fill="#FFFFFF" sketch:type="MSShapeGroup">
                    <g transform="translate(5.000000, 9.000000)">
                        <path d="M-0.5,4.5 L2,8.0622189 L4.5,4.5 L-0.5,4.5 Z" id="Rectangle-184" transform="translate(2.000000, 6.500000) rotate(-90.000000) translate(-2.000000, -6.500000) "></path>
                        <rect id="Rectangle-175" x="4" y="0" width="3" height="12.9622473"></rect>
                        <path d="M19.5,4.5 L22,8.0622189 L24.5,4.5 L19.5,4.5 Z" id="Rectangle-186" transform="translate(22.000000, 6.500000) rotate(-90.000000) translate(-22.000000, -6.500000) "></path>
                        <rect id="Rectangle-176" x="8" y="0" width="3" height="12.9622473"></rect>
                        <rect id="Rectangle-177" x="12" y="0" width="3" height="12.9622473"></rect>
                        <rect id="Rectangle-178" x="16" y="0" width="3" height="12.9622473"></rect>
                    </g>
                </g>
                <path d="M29,0 L8,32 L32,32 L32,0 L29,0 Z" id="shadow" opacity="0.102203825" fill="#000000" sketch:type="MSShapeGroup" mask="url(#mask-2)"></path>
            </g>
        </g>
    </g>
</svg>