<svg fill="#53aa45" height="32" viewBox="0 0 32 32" width="32" xmlns="http://www.w3.org/2000/svg" xmlns:xlink="http://www.w3.org/1999/xlink"><linearGradient id="a" x1="50%" x2="50%" y1="0%" y2="100%"><stop offset="0" stop-color="#b3e3b3"/><stop offset="1" stop-color="#fff"/></linearGradient><rect height="32" rx="2" width="32"/><g fill="none" fill-rule="evenodd"><g transform="translate(5 5)"><path d="m12.375 5.958333h4.583333v4.583333h-4.583333z" fill="#b5e3b5" fill-rule="evenodd"/><path d="m11 22c6.0751322 0 11-4.9248678 11-11 0-6.07513225-4.9248678-11-11-11-6.07513225 0-11 4.92486775-11 11 0 6.0751322 4.92486775 11 11 11zm-4.2786173-6.7264198c1.1016383 0 3.4899712-1.667499 4.2798762.1662093 1.1634616 2.7008934-3.61504075 3.1995187-3.61504075 3.1995187s1.43166224 1.3712218 4.37242435 1.3712222c2.9407621.0000003 8.6857177-2.6530441 8.8519261-9.0105304-1.7710535 0-12.49762294 0-17.40979021 0 0 2.1516093 1.36899497 4.2735802 3.52060431 4.2735802zm0-8.54716036c1.1016383 0 3.4899712 1.66749891 4.2798762-.1662093 1.1634616-2.70089348-3.61504075-3.19951876-3.61504075-3.19951876s1.43166224-1.37122183 4.37242435-1.37122218c2.9407621-.00000035 8.6857177 2.65304411 8.8519261 9.0105304-1.7710535 0-12.49762294 0-17.40979021 0 0-2.15160934 1.36899497-4.27358016 3.52060431-4.27358016z" fill="url(#a)" fill-rule="evenodd"/><path d="m8.25 7.791667h6.416667v6.416667h-6.416667z" fill="none" stroke="#fff"/></g><path d="m29 0-21 32h24v-32z" fill="#000" opacity=".102204"/></g></svg>