<svg viewBox="0 0 64 64" xmlns="http://www.w3.org/2000/svg"><g fill="none" fill-rule="evenodd"><path d="M0 0h64v64H0z"/><path d="M32.214 15h.092l.228.002c2.704.013 14.894.133 18.266 1.198 2 .4 3.6 2.2 4.2 4.2.926 3.519.995 10.466 1 11.476v.248c-.004.686-.037 4.119-.348 7.352l-.058.567c-.143 1.318-.335 2.572-.594 3.557-.6 2-2.2 3.6-4.2 4.2-1.66.437-5.453.683-9.202.821l-.724.026c-3.614.12-7.052.146-8.34.152h-1.068c-1.33-.006-4.958-.033-8.701-.165l-.726-.027-.725-.03c-3.375-.144-6.615-.383-8.114-.777-2-.4-3.6-2.2-4.2-4.2-.87-3.307-.983-9.645-.998-11.232L8 32.124v-.192-.051l.002-.236c.014-1.569.125-7.954.998-11.445.6-2 2.2-3.6 4.2-4.2 3.318-.873 15.177-.984 18.13-.998l.364-.001h.092zM27 24.8v14.4L39.6 32 27 24.8z" fill="red" fill-rule="nonzero"/></g></svg>