<?xml version="1.0" encoding="UTF-8" standalone="no"?>
<svg width="32px" height="32px" viewBox="0 0 32 32" version="1.1" xmlns="http://www.w3.org/2000/svg" xmlns:xlink="http://www.w3.org/1999/xlink" xmlns:sketch="http://www.bohemiancoding.com/sketch/ns">
    <!-- Generator: Sketch 3.2.2 (9983) - http://www.bohemiancoding.com/sketch -->
    <title>WebScraper</title>
    <desc>Created with Sketch.</desc>
    <defs>
        <rect id="path-1" x="0" y="0" width="32" height="32" rx="2"></rect>
    </defs>
    <g id="Sources-Icons-32px" stroke="none" stroke-width="1" fill="none" fill-rule="evenodd" sketch:type="MSPage">
        <g id="WebScraper" sketch:type="MSArtboardGroup">
            <g id="source-web_scraper" sketch:type="MSLayerGroup">
                <mask id="mask-2" sketch:name="BG 4" fill="white">
                    <use xlink:href="#path-1"></use>
                </mask>
                <use id="BG-4" fill="#BBBBBB" sketch:type="MSShapeGroup" xlink:href="#path-1"></use>
                <path d="M0,3.5 L0,2 C0,0.887729645 0.89621101,0 2.00174332,0 L29.9982567,0 C31.1107383,0 32,0.8954305 32,2 L32,3.5 L32,3 C32,1.8954305 31.1107383,1 29.9982567,1 L2.00174332,1 C0.89621101,1 0,1.88772964 0,3 L0,3.5 Z" id="shadow-4" fill="#909090" sketch:type="MSShapeGroup" mask="url(#mask-2)"></path>
                <path d="M0,5.5 L0,4 C0,2.88772964 0.89621101,2 2.00174332,2 L29.9982567,2 C31.1107383,2 32,2.8954305 32,4 L32,5.5 L32,5 C32,3.8954305 31.1107383,3 29.9982567,3 L2.00174332,3 C0.89621101,3 0,3.88772964 0,5 L0,5.5 Z" id="shadow-2" fill="#909090" sketch:type="MSShapeGroup" mask="url(#mask-2)"></path>
                <path d="M0,7.5 L0,6 C0,4.88772964 0.89621101,4 2.00174332,4 L29.9982567,4 C31.1107383,4 32,4.8954305 32,6 L32,7.5 L32,7 C32,5.8954305 31.1107383,5 29.9982567,5 L2.00174332,5 C0.89621101,5 0,5.88772964 0,7 L0,7.5 Z" id="shadow-3" fill="#909090" sketch:type="MSShapeGroup" mask="url(#mask-2)"></path>
                <path d="M3,7 L3,10 L24,10 L24,7 L3,7 Z M1,12 L1,29.0025781 C1,30.1057238 1.89784041,31 2.99161703,31 L29.008383,31 C30.1083227,31 31,30.1090746 31,29.0025781 L31,12 L1,12 Z" id="Address-Bar" fill="#FEFEFE" sketch:type="MSShapeGroup" mask="url(#mask-2)"></path>
                <path d="M6,17 L6,20 L18,20 L18,17 L6,17 Z M20,17 L20,26 L26,26 L26,17 L20,17 Z M6,21 L6,22 L18,22 L18,21 L6,21 Z M6,23 L6,24 L18,24 L18,23 L6,23 Z M6,25 L6,26 L18,26 L18,25 L6,25 Z M24,7 L24,10 L29,10 L29,7 L24,7 Z" id="content" fill="#88888A" sketch:type="MSShapeGroup" mask="url(#mask-2)"></path>
                <path d="M28,17 L29,17 L29,22 L28,22 L28,17 Z M3,20 L4,20 L4,25 L3,25 L3,20 Z M28,23 L29,23 L29,28 L28,28 L28,23 Z M3,15 L4,15 L4,19 L3,19 L3,15 Z M26,14 L29,14 L29,15 L26,15 L26,14 Z M20,14 L25,14 L25,15 L20,15 L20,14 Z M14,14 L19,14 L19,15 L14,15 L14,14 Z M8,14 L13,14 L13,15 L8,15 L8,14 Z M3,14 L7,14 L7,15 L3,15 L3,14 Z M6,28 L11,28 L11,29 L6,29 L6,28 Z M12,28 L17,28 L17,29 L12,29 L12,28 Z M18,28 L23,28 L23,29 L18,29 L18,28 Z M24,28 L29,28 L29,29 L24,29 L24,28 Z M3,28 L5,28 L5,29 L3,29 L3,28 Z M28,15 L29,15 L29,16 L28,16 L28,15 Z M3,26 L4,26 L4,28 L3,28 L3,26 Z" id="Rectangle-245" fill="#EEC031" sketch:type="MSShapeGroup" mask="url(#mask-2)"></path>
                <path d="M29,0 L8,32 L32,32 L32,0 L29,0 Z" id="shadow" opacity="0.102203825" fill="#000000" sketch:type="MSShapeGroup" mask="url(#mask-2)"></path>
            </g>
        </g>
    </g>
</svg>