<svg xmlns="http://www.w3.org/2000/svg" viewBox="0 0 32 32" enable-background="new 0 0 32 32">
  <path fill="#004990" d="m30 0h-28c-1.1 0-2 .9-2 2v28c0 1.1.9 2 2 2h28c1.1 0 2-.9 2-2v-28c0-1.1-.9-2-2-2"/>
  <g fill="#fff">
    <path d="m6 14.5l5-3.5-5-3.5v7"/>
    <path d="m14.5 12.5c.8 0 1.5-.7 1.5-1.5s-.7-1.5-1.5-1.5-1.5.7-1.5 1.5.7 1.5 1.5 1.5"/>
    <path d="m19.5 12.5c.8 0 1.5-.7 1.5-1.5s-.7-1.5-1.5-1.5c-.8 0-1.5.7-1.5 1.5s.7 1.5 1.5 1.5"/>
    <path d="m12.5 22.5c.8 0 1.5-.7 1.5-1.5 0-.8-.7-1.5-1.5-1.5s-1.5.7-1.5 1.5c0 .8.7 1.5 1.5 1.5"/>
    <path d="m7.5 22.5c.8 0 1.5-.7 1.5-1.5 0-.8-.7-1.5-1.5-1.5s-1.5.7-1.5 1.5c0 .8.7 1.5 1.5 1.5"/>
    <path d="m21 24.5l5-3.5-5-3.5v7"/>
    <path d="m24.5 12.5c.8 0 1.5-.7 1.5-1.5s-.7-1.5-1.5-1.5c-.8 0-1.5.7-1.5 1.5s.7 1.5 1.5 1.5"/>
    <path d="m17.5 22.5c.8 0 1.5-.7 1.5-1.5 0-.8-.7-1.5-1.5-1.5-.8 0-1.5.7-1.5 1.5 0 .8.7 1.5 1.5 1.5"/>
  </g>
</svg>
