<?xml version="1.0" encoding="UTF-8" standalone="no"?>
<svg width="32px" height="32px" viewBox="0 0 32 32" version="1.1" xmlns="http://www.w3.org/2000/svg" xmlns:xlink="http://www.w3.org/1999/xlink" xmlns:sketch="http://www.bohemiancoding.com/sketch/ns">
    <!-- Generator: Sketch 3.2.2 (9983) - http://www.bohemiancoding.com/sketch -->
    <title>MicrosoftExchange</title>
    <desc>Created with Sketch.</desc>
    <defs>
        <rect id="path-1" x="0" y="0" width="32" height="32" rx="2"></rect>
    </defs>
    <g id="Sources-Icons-32px" stroke="none" stroke-width="1" fill="none" fill-rule="evenodd" sketch:type="MSPage">
        <g id="MicrosoftExchange" sketch:type="MSArtboardGroup">
            <g id="source-exchange" sketch:type="MSLayerGroup">
                <mask id="mask-2" sketch:name="BG" fill="white">
                    <use xlink:href="#path-1"></use>
                </mask>
                <use id="BG" fill="#2B67A3" sketch:type="MSShapeGroup" xlink:href="#path-1"></use>
                <path d="M13.5290173,20.1170909 L9.27803468,19.6997576 L9.27803468,11.3528485 L13.365896,10.8941818 L13.365896,12.5827879 L10.8745665,12.7661818 L10.8745665,14.697697 L13.192948,14.6355152 L13.192948,16.3110303 L10.8745665,16.2841212 L10.8745665,18.2701818 L13.5290173,18.4287273 L13.5290173,20.1170909 L13.5290173,20.1170909 Z M6,8.03175758 L6,23.9443636 L17.2033526,25.9761212 L17.2033526,6 L6,8.03175758 Z M24.5850867,12.6666667 L24.5850867,14.2678788 C24.5850867,14.3374545 24.5587283,14.404 24.5117919,14.4532121 L23.5036994,15.5086061 C23.4354913,15.5801212 23.3248555,15.5801212 23.2566474,15.5086061 L22.8928324,15.1271515 C22.8246243,15.0555152 22.8246243,14.9395152 22.8928324,14.868 L23.3411561,14.3917576 C23.3504046,14.3819394 23.3554913,14.3687273 23.3554913,14.3549091 L23.3554913,12.6666667 L21.9431214,12.6666667 C20.6913295,13.6447273 19.6701734,15.4225455 19.3645087,15.1220606 C19.003815,14.7673939 21.425896,11.4203636 21.7248555,11.3775758 L24.3353757,11.3775758 C24.4732948,11.3775758 24.5850867,11.4947879 24.5850867,11.6392727 L24.5850867,12.6666667 Z M24.5850867,19.3094545 L24.5850867,20.3368485 C24.5850867,20.4814545 24.4732948,20.5986667 24.3353757,20.5986667 L21.8283237,20.5986667 C21.7620809,20.5986667 21.6984971,20.5710303 21.6516763,20.5218182 L20.6449711,19.4648485 C20.576763,19.3933333 20.5768786,19.2773333 20.6450867,19.2058182 L21.0089017,18.8243636 C21.0771098,18.7528485 21.1877457,18.7528485 21.2560694,18.8243636 L21.710289,19.2944242 C21.7195376,19.3041212 21.7321387,19.3094545 21.7453179,19.3094545 L23.3554913,19.3094545 L23.3554913,17.8286061 C22.422659,16.5161212 20.7271676,15.4454545 21.0137572,15.1249697 C21.3519075,14.7467879 24.5442775,17.286303 24.5850867,17.5997576 L24.5850867,19.3094545 L24.5850867,19.3094545 Z M24.9998844,9.89551515 L18.2602312,9.89551515 L18.2602312,11.3775758 L18.547052,11.3775758 C18.6134104,11.3775758 18.6768786,11.4052121 18.723815,11.454303 L19.7304046,12.5112727 C19.7986127,12.5829091 19.7986127,12.6987879 19.7304046,12.770303 L19.3665896,13.1517576 C19.2982659,13.2233939 19.1876301,13.2233939 19.119422,13.1517576 L18.6652023,12.6818182 C18.6558382,12.6721212 18.643237,12.6666667 18.6301734,12.6666667 L18.2602312,12.6666667 L18.2602312,15.5083636 C18.953526,16.164 19.5396532,16.6522424 19.3617341,16.8512727 C19.2465896,16.98 18.8002312,16.7701818 18.2602312,16.4253333 L18.2602312,19.3094545 L18.4323699,19.3094545 C19.6840462,18.3313939 20.7053179,16.5535758 21.0109827,16.8541818 C21.3716763,17.2087273 18.9495954,20.5558788 18.6506358,20.5986667 L18.2602312,20.5986667 L18.2602312,22.0807273 L24.9998844,22.0807273 C25.5514451,22.0807273 25.9986127,21.6118788 25.9986127,21.0335758 L25.9986127,10.9426667 C25.9986127,10.3643636 25.5514451,9.89551515 24.9998844,9.89551515 L24.9998844,9.89551515 Z" id="logo-exchange-2" fill="#FFFFFF" sketch:type="MSShapeGroup" mask="url(#mask-2)"></path>
                <path d="M29,0 L8,32 L32,32 L32,0 L29,0 Z" id="shadow" opacity="0.102203825" fill="#000000" sketch:type="MSShapeGroup" mask="url(#mask-2)"></path>
            </g>
        </g>
    </g>
</svg>