<?xml version="1.0" encoding="UTF-8" standalone="no"?>
<svg width="32px" height="32px" viewBox="0 0 32 32" version="1.1" xmlns="http://www.w3.org/2000/svg" xmlns:xlink="http://www.w3.org/1999/xlink" xmlns:sketch="http://www.bohemiancoding.com/sketch/ns">
    <!-- Generator: Sketch 3.2.2 (9983) - http://www.bohemiancoding.com/sketch -->
    <title>Mail</title>
    <desc>Created with Sketch.</desc>
    <defs>
        <rect id="path-1" x="0" y="0" width="32" height="32" rx="2"></rect>
    </defs>
    <g id="Sources-Icons-32px" stroke="none" stroke-width="1" fill="none" fill-rule="evenodd" sketch:type="MSPage">
        <g id="Mail" sketch:type="MSArtboardGroup">
            <g id="source-mail" sketch:type="MSLayerGroup">
                <mask id="mask-2" sketch:name="BG" fill="white">
                    <use xlink:href="#path-1"></use>
                </mask>
                <use id="BG" fill="#004990" sketch:type="MSShapeGroup" xlink:href="#path-1"></use>
                <rect id="Rectangle-255" fill="#CDCDCD" sketch:type="MSShapeGroup" mask="url(#mask-2)" x="3" y="12" width="26" height="13"></rect>
                <path d="M3,12.007484 C3,11.4510659 3.45127869,11 4.00329963,11 L27.9967004,11 C28.5508075,11 29,11.4489202 29,12.007484 L29,24.992516 C29,25.5489341 28.5487213,26 27.9967004,26 L4.00329963,26 C3.44919255,26 3,25.5510798 3,24.992516 L3,12.007484 Z M4,13 L16,20 L28,13 L4,13 Z" id="Rectangle-246" fill="#FEFEFE" sketch:type="MSShapeGroup" mask="url(#mask-2)"></path>
                <path d="M3,4 L16,11 L29,4 L3,4 Z" id="Path-232" fill="#FEFEFE" sketch:type="MSShapeGroup" mask="url(#mask-2)">
                    <g transform="translate(16.000000, 7.500000) scale(1, -1) translate(-16.000000, -7.500000) "></g>
                </path>
                <path d="M27.1428571,12 L29,12 L16,5 L3,12 L4.85714286,12 L16,6 L27.1428571,12 L27.1428571,12 Z" id="Path-233" fill="#CDCDCD" sketch:type="MSShapeGroup" mask="url(#mask-2)"></path>
                <path d="M27.1428571,25 L29,25 L16,20 L3,25 L4.85714286,25 L16,20.7142857 L27.1428571,25 L27.1428571,25 Z" id="Path-234" fill="#E9E9E9" sketch:type="MSShapeGroup" mask="url(#mask-2)"></path>
                <rect id="Rectangle-247" fill="#FEFEFE" sketch:type="MSShapeGroup" mask="url(#mask-2)" x="3" y="11" width="26" height="1"></rect>
                <path d="M29,0 L8,32 L32,32 L32,0 L29,0 Z" id="shadow" opacity="0.102203825" fill="#000000" sketch:type="MSShapeGroup" mask="url(#mask-2)"></path>
            </g>
        </g>
    </g>
</svg>