<svg height="32" viewBox="0 0 32 32" width="32" xmlns="http://www.w3.org/2000/svg" xmlns:xlink="http://www.w3.org/1999/xlink"><defs><rect id="a" height="32" rx="2" width="32"/><mask id="b" fill="#fff"><use fill="#fff" fill-rule="evenodd" xlink:href="#a"/></mask></defs><g fill="none" fill-rule="evenodd"><use fill="#f6f6f6" xlink:href="#a"/><g mask="url(#b)"><g transform="translate(4 4)"><path d="m21.5636923 13.2036h-3.488c-.4812308-.0018-1.5193846-.1158-2.2898461-.3408-.2578462-.075-.9446154-.2754-1.6098462-.6828-.6184615-.3786-1.1889231-.9006-1.7550769-1.602-.8006154-.993-1.2929231-1.947-1.5741539-3.1938-.1335384-.5928-.1655384-1.1172-.2030769-1.8774-.016-.3354-.1316923-1.0662-.1316923-1.0662-.4793846-2.4174-2.65907692-4.245-5.27876923-4.245-2.97046154 0-5.37846154 2.3484-5.37846154 5.2446 0 2.565 1.88984615 4.6962 4.38461539 5.151 0 0 .89784615.1338 1.34523076.1398 1.71507693.0228 3.34892308.5052 4.85169232 1.653 1.0849231.8286 2.6024615 2.0898 2.7790769 5.493v3.4662c0 1.2924 1.0744616 2.34 2.3993846 2.34h5.9489231c1.3261539 0 2.4-1.0476 2.4-2.34v-5.7996c0-1.2924-1.0738461-2.34-2.4-2.34" fill="#005795"/><g fill="#1a1918"><path d="m5.27753846 23.7792c2.97107692 0 5.37907694-2.3478 5.37907694-5.244 0-2.8968-2.40800002-5.2446-5.37907694-5.2446-2.97046154 0-5.37846154 2.3478-5.37846154 5.2446 0 2.8962 2.408 5.244 5.37846154 5.244"/><path d="m23.968 5.5092c0-2.8956-2.408-5.244-5.3784615-5.244-2.971077 0-5.3784616 2.3484-5.3784616 5.244 0 2.8968 2.4073846 5.2446 5.3784616 5.2446 2.9704615 0 5.3784615-2.3478 5.3784615-5.2446"/></g></g></g><path d="m29 0-21 32h24v-32z" fill="#000" opacity=".102204"/></g></svg>