<svg xmlns="http://www.w3.org/2000/svg" viewBox="0 0 32 32" enable-background="new 0 0 32 32">
  <defs>
    <filter id="1" filterUnits="userSpaceOnUse" x="4" y="10" width="23.9" height="12.9">
      <feColorMatrix type="matrix" values="1 0 0 0 0  0 1 0 0 0  0 0 1 0 0  0 0 0 1 0"/>
    </filter>
    <mask maskUnits="userSpaceOnUse" x="4" y="10" width="23.9" height="12.9" id="0">
      <g filter="url(#1)">
        <path fill="#fff" d="m2 0h28c1.1 0 2 .9 2 2v28c0 1.1-.9 2-2 2h-28c-1.1 0-2-.9-2-2v-28c0-1.1.9-2 2-2"/>
      </g>
    </mask>
  </defs>
  <path fill="#006fa8" d="m2 0h28c1.1 0 2 .9 2 2v28c0 1.1-.9 2-2 2h-28c-1.1 0-2-.9-2-2v-28c0-1.1.9-2 2-2"/>
  <path mask="url(#0)" fill="#fff"
        d="m9.7 22.9c3.1 0 5.7-2.5 5.7-6.4 0-4.3-2.8-6.5-5.7-6.5-2.8 0-5.7 2.2-5.7 6.5 0 4 2.6 6.4 5.7 6.4m-.1-.6c-1.9 0-3.7-1.7-3.7-5.8 0-4.3 1.9-5.8 3.7-5.8s3.7 1.5 3.7 5.8c0 4.1-1.8 5.8-3.7 5.8zm15.5.3h-5.5v-.3c1.7-.1 1.8-.5 1.9-2v-9.3h-1.3c-2.1 0-2.6.4-3 2.6h-.5l.1-3.4h11l.1 3.4h-.4c-.4-2.2-.9-2.6-3-2.6h-1.2v9.6c0 1.4.2 1.8 1.8 1.8v.2"/>
</svg>
