<?xml version="1.0" encoding="UTF-8" standalone="no"?>
<svg width="32px" height="32px" viewBox="0 0 32 32" version="1.1" xmlns="http://www.w3.org/2000/svg" xmlns:xlink="http://www.w3.org/1999/xlink" xmlns:sketch="http://www.bohemiancoding.com/sketch/ns">
    <!-- Generator: Sketch 3.2.2 (9983) - http://www.bohemiancoding.com/sketch -->
    <title>Database</title>
    <desc>Created with Sketch.</desc>
    <defs>
        <rect id="path-1" x="0" y="0" width="32" height="32" rx="2"></rect>
    </defs>
    <g id="Sources-Icons-32px" stroke="none" stroke-width="1" fill="none" fill-rule="evenodd" sketch:type="MSPage">
        <g id="Database" sketch:type="MSArtboardGroup">
            <g id="source-database" sketch:type="MSLayerGroup">
                <mask id="mask-2" sketch:name="BG" fill="white">
                    <use xlink:href="#path-1"></use>
                </mask>
                <use id="BG" fill="#004990" sketch:type="MSShapeGroup" xlink:href="#path-1"></use>
                <path d="M16.5,26 C11.8066055,26 8,24.719308 8,23.1428571 L8,20.2857143 C8,20.0373884 8.12311719,19.8016071 8.30020052,19.5714286 C9.24788411,20.8018973 12.5432943,21.7142857 16.5,21.7142857 C20.4567057,21.7142857 23.7521159,20.8018973 24.6997995,19.5714286 C24.8768828,19.8016071 25,20.0373884 25,20.2857143 L25,23.1428571 C25,24.719308 21.1927083,26 16.5,26 L16.5,26 Z M16.5,20.2857143 C11.8066055,20.2857143 8,19.0050223 8,17.4285714 L8,14.5714286 C8,14.420067 8.05671094,14.2728795 8.1328125,14.1270982 L8.1328125,14.1270982 C8.17571094,14.0357143 8.23242188,13.9457366 8.30020052,13.8571429 C9.24788411,15.0869196 12.5432943,16 16.5,16 C20.4567057,16 23.7521159,15.0869196 24.6997995,13.8571429 C24.7675781,13.9457366 24.8243112,14.0357143 24.8671875,14.1270982 L24.8671875,14.1270982 C24.9432891,14.2728795 25,14.420067 25,14.5714286 L25,17.4285714 C25,19.0050223 21.1927083,20.2857143 16.5,20.2857143 L16.5,20.2857143 Z M16.5,14.5714286 C11.8066055,14.5714286 8,13.2914286 8,11.7142857 L8,10.2857143 L8,8.85714286 C8,7.28 11.8066055,6 16.5,6 C21.1927083,6 25,7.28 25,8.85714286 L25,10.2857143 L25,11.7142857 C25,13.2914286 21.1927083,14.5714286 16.5,14.5714286 L16.5,14.5714286 Z M16.5135576,6.51948052 C12.3884461,6.51948052 9.04385965,7.46159965 9.04385965,8.6281615 C9.04385965,9.79472336 12.3884461,10.7368425 16.5135576,10.7368425 C20.6386691,10.7368425 23.9832556,9.79472336 23.9832556,8.6281615 C23.9832556,7.46159965 20.6386691,6.51948052 16.5135576,6.51948052 L16.5135576,6.51948052 Z" id="Shape" fill="#FFFFFF" sketch:type="MSShapeGroup" mask="url(#mask-2)"></path>
                <path d="M29,0 L8,32 L32,32 L32,0 L29,0 Z" id="shadow" opacity="0.102203825" fill="#000000" sketch:type="MSShapeGroup" mask="url(#mask-2)"></path>
            </g>
        </g>
    </g>
</svg>