<?xml version="1.0" encoding="UTF-8" standalone="no"?>
<svg width="32px" height="32px" fill="#53AA45" viewBox="0 0 32 32" version="1.1" xmlns="http://www.w3.org/2000/svg" xmlns:xlink="http://www.w3.org/1999/xlink" xmlns:sketch="http://www.bohemiancoding.com/sketch/ns">
    <!-- Generator: Sketch 3.2.2 (9983) - http://www.bohemiancoding.com/sketch -->
    <title>Clearspace</title>
    <desc>Created with Sketch.</desc>
    <rect id="path-1" x="0" y="0" width="32" height="32" rx="2"></rect>
    <linearGradient x1="50%" y1="0%" x2="50%" y2="100%" id="linearGradient-3">
        <stop stop-color="#B3E3B3" offset="0%"></stop>
        <stop stop-color="#FFFFFF" offset="100%"></stop>
    </linearGradient>
    <g id="Sources-Icons-32px" stroke="none" stroke-width="1" fill="none" fill-rule="evenodd" sketch:type="MSPage">
        <g id="Clearspace" sketch:type="MSArtboardGroup">
            <g id="source-clearspace" sketch:type="MSLayerGroup">
                <g id="logo-clearspace" sketch:type="MSShapeGroup">
                    <g transform="translate(5.000000, 5.000000)">
                        <rect id="Rectangle-2" stroke="none" fill="#B5E3B5" fill-rule="evenodd" x="12.375" y="5.95833333" width="4.58333333" height="4.58333333"></rect>
                        <path d="M11,22 C17.0751322,22 22,17.0751322 22,11 C22,4.92486775 17.0751322,0 11,0 C4.92486775,0 0,4.92486775 0,11 C0,17.0751322 4.92486775,22 11,22 Z M6.7213827,15.2735802 C7.823021,15.2735802 10.2113539,13.6060812 11.0012589,15.4397895 C12.1647205,18.1406829 7.38621815,18.6393082 7.38621815,18.6393082 C7.38621815,18.6393082 8.81788039,20.01053 11.7586425,20.0105304 C14.6994046,20.0105307 20.4443602,17.3574863 20.6105686,11 C18.8395151,11 8.11294566,11 3.20077839,11 C3.20077839,13.1516093 4.56977336,15.2735802 6.7213827,15.2735802 Z M6.7213827,6.72641984 C7.823021,6.72641984 10.2113539,8.39391875 11.0012589,6.56021054 C12.1647205,3.85931706 7.38621815,3.36069178 7.38621815,3.36069178 C7.38621815,3.36069178 8.81788039,1.98946995 11.7586425,1.9894696 C14.6994046,1.98946925 20.4443602,4.64251371 20.6105686,11 C18.8395151,11 8.11294566,11 3.20077839,11 C3.20077839,8.84839066 4.56977336,6.72641984 6.7213827,6.72641984 Z" id="Oval-3" stroke="none" fill="url(#linearGradient-3)" fill-rule="evenodd"></path>
                        <rect id="Rectangle-1" stroke="#FFFFFF" stroke-width="1" fill="none" x="8.25" y="7.79166667" width="6.41666667" height="6.41666667"></rect>
                    </g>
                </g>
                <path d="M29,0 L8,32 L32,32 L32,0 L29,0 Z" id="shadow" opacity="0.102203825" fill="#000000" sketch:type="MSShapeGroup" ></path>
            </g>
        </g>
    </g>
</svg>
