<svg enable-background="new 0 0 32 32" viewBox="0 0 32 32" xmlns="http://www.w3.org/2000/svg"><path d="m24.7 16.8h-1.6v1.6h-1.6v-1.6h-1.5v-1.6h1.6v-1.6h1.6v1.6h1.6v1.6zm-7.6 2.7c-1.4 1.9-4.2 2.5-6.3 1.7-2.2-.8-3.7-3.1-3.5-5.5 0-2.9 2.7-5.4 5.5-5.3 1.4-.1 2.7.5 3.7 1.4-.4.5-.9 1-1.4 1.5-1.3-.9-3.1-1.1-4.3-.1-1.8 1.2-1.9 4.2-.2 5.5 1.7 1.5 4.9.8 5.3-1.6h-3.2v-1.9h5.3c.2 1.5 0 3.1-.9 4.3m13.1-19.4h-28.4c-.9 0-1.7.7-1.7 1.7v28.5c0 .9.7 1.7 1.7 1.7h28.5c.9 0 1.7-.7 1.7-1.7v-28.5c-.1-1-.8-1.7-1.8-1.7" fill="#dc4e41"/></svg>