<svg xmlns="http://www.w3.org/2000/svg" viewBox="0 0 32 32" enable-background="new 0 0 32 32">
  <path fill="#bcc3ca" d="m30 2v28h-28v-28h28m0-2h-28c-1.1 0-2 .9-2 2v28c0 1.1.9 2 2 2h28c1.1 0 2-.9 2-2v-28c0-1.1-.9-2-2-2z"/>
  <path fill="#1a1a1a"
        d="m23.1 10.3l-3.2 1.2.5-3.5-2.6-2.2-3.2 1.2-.6 3.4-2.6-2.2-3.3 1.2-.6 3.4 2.6 2.2-3.2 1.2-.6 3.4 2.6 2.2 3.2-1.2-.5 3.4 2.6 2.2 3.2-1.2.6-3.4 2.6 2.2 3.2-1.2.6-3.4-2.5-2.2 3.2-1.2.6-3.4-2.6-2.1m-7.7 9.1l3.2-1.2-.6 3.4-2.6-2.2m1.2-6.8l-3.2 1.2.6-3.4 2.6 2.2m-6.5 2.4l3.2-1.2-.6 3.4-2.6-2.2m5.3 4.4l-3.2 1.2.6-3.4 2.6 2.2m-2.6-2.2l.6-3.4 3.2-1.2 2.6 2.2-.6 3.4-3.2 1.2-2.6-2.2m6.4-2.4l2.6 2.2-3.2 1.2.6-3.4m-2.6-2.2l3.2-1.2-.6 3.4-2.6-2.2m-2-5.6l3.2-1.2 2.6 2.2-.6 3.4-3.2 1.2-2.6-2.2.6-3.4m-7.1 5.7l.6-3.4 3.2-1.2 2.6 2.2-.6 3.4-3.2 1.3-2.6-2.3m1.4 9l-2.6-2.2.6-3.4 3.2-1.2 2.6 2.2-.6 3.4-3.2 1.2m8.5 3.3l-3.2 1.2-2.6-2.2.6-3.4 3.2-1.2 2.6 2.2-.6 3.4m7.1-5.8l-.6 3.4-3.2 1.2-2.7-2.2.6-3.4 3.2-1.2 2.7 2.2m.6-3.3l-3.2 1.1-2.6-2.2.6-3.4 3.2-1.2 2.6 2.2-.6 3.5"/>
  <path fill="#649791" d="m25.1 13.1l-7.9-6.6c-.4-.3-.4-.9-.1-1.2.3-.4.9-.4 1.2-.1l7.9 6.6c.4.3.4.9.1 1.2-.2.2-.4.3-.7.3-.1 0-.3 0-.5-.2"/>
  <path fill="#efc519" d="m14.1 27c-.4 0-.7-.2-.8-.6-.2-.5.1-1 .5-1.1l9.8-3.5c.5-.2 1 .1 1.1.5.2.5-.1 1-.5 1.1l-9.8 3.6c-.1 0-.2 0-.3 0"/>
  <path fill="#a21c3d" d="m6.3 20.5c-.1 0-.1 0-.2 0-.5-.1-.8-.5-.7-1l1.8-10.3c.1-.5.5-.8 1-.7.5.1.8.5.8 1l-1.8 10.3c-.1.4-.5.7-.9.7"/>
  <path fill="#068cba" d="m10.7 12.5c-.1 0-.1 0-.2 0-.5-.1-.8-.5-.7-1l.7-3.5c.1-.5.5-.8 1-.7.5.1.8.5.7 1l-.6 3.4c-.1.5-.5.8-.9.8"/>
  <path fill="#531210" d="m8.9 22.6c-.1 0-.1 0-.2 0-.5-.1-.8-.5-.7-1l.6-3.4c.1-.5.5-.8 1-.7.5.1.8.5.7 1l-.6 3.4c0 .4-.3.7-.8.7"/>
  <path fill="#509f4e"
        d="m17.2 10.1c-.2 0-.4-.1-.6-.2l-2.6-2.2c-.4-.3-.4-.9-.1-1.2.3-.4.9-.4 1.2-.1l2.6 2.2c.4.3.4.9.1 1.2-.1.2-.4.3-.6.3"/>
  <path fill="#106e66"
        d="m25.1 16.7c-.2 0-.4-.1-.6-.2l-2.6-2.2c-.4-.3-.4-.9-.1-1.2.3-.4.9-.4 1.2-.1l2.6 2.2c.4.3.4.9.1 1.2-.1.2-.3.3-.6.3"/>
  <path fill="#068cba" d="m21.3 21.3c-.4 0-.7-.2-.8-.6-.2-.5.1-1 .5-1.1l3.2-1.2c.5-.2 1 .1 1.1.5.2.5-.1 1-.5 1.1l-3.2 1.2c-.1.1-.2.1-.3.1"/>
  <path fill="#92beaf"
        d="m15.4 20.3c-.2 0-.4-.1-.6-.2l-2.6-2.2c-.4-.3-.4-.9-.1-1.2.3-.4.9-.4 1.2-.1l2.6 2.2c.4.3.4.9.1 1.2-.1.2-.3.3-.6.3"/>
  <path fill="#4b635b" d="m18.6 19.1c-.1 0-.1 0-.2 0-.5-.1-.8-.5-.7-1l.6-3.4c.1-.5.5-.8 1-.7.5.1.8.5.7 1l-.6 3.4c0 .4-.3.7-.8.7"/>
  <path fill="#b9bc63" d="m13.4 14.7c-.4 0-.7-.2-.8-.6-.2-.5.1-1 .5-1.1l3.2-1.2c.5-.2 1 .1 1.1.5.2.5-.1 1-.5 1.1l-3.2 1.2c-.1 0-.2.1-.3.1"/>
  <path fill="#e38b25" d="m11.6 24.8c-.4 0-.7-.2-.8-.6-.2-.5.1-1 .5-1.1l3.2-1.2c.5-.2 1 .1 1.1.5.2.5-.1 1-.5 1.1l-3.2 1.2c-.1.1-.2.1-.3.1"/>
</svg>
