<svg enable-background="new 0 0 32 32" viewBox="0 0 32 32" xmlns="http://www.w3.org/2000/svg"><g fill="#e53227"><path d="m0 2v28c0 1.1.9 2 2 2h28c1.1 0 2-.9 2-2v-28c0-1.1-.9-2-2-2h-28c-1.1 0-2 .9-2 2zm16 25.6c-6.3 0-11.5-5.2-11.5-11.6s5.2-11.6 11.5-11.6 11.5 5.2 11.5 11.6-5.2 11.6-11.5 11.6z"/><path d="m16.1 7.5c-4.6 0-8.4 3.8-8.4 8.4 0 4.7 3.8 8.4 8.4 8.4s8.4-3.8 8.4-8.4-3.7-8.4-8.4-8.4m-1 16.5c-5.4-.6-6.8-6-6.8-6 1.1 2.1 3.1 4.5 7.1 4.6s6.2-3.6 6.2-3.6l1.4.9c.1 0-2.6 4.7-7.9 4.1m8.1-4.3-1.3-.8-.2-.1-.1.2s-2.2 3.7-6.1 3.5c-1.7-.1-3.1-.5-4.3-1.4-.4-.4-.6-.7-.6-.7 1.9 1.5 4.9 1.6 6.8.7 4.4-2.1 4.2-5.8 4.2-5.8h2.5c0 .1.3 2.4-.9 4.4m.9-4.7h-2.6-.2v.2c0 .1.1 3.9-3.7 5.6-1.9.9-3.3.6-3.5.5 0 0 1.1 0 2.5-.7 1.2-.5 2.4-1.8 3-2.9 1.7-3.3-.2-4.7-.2-4.7l2.9-1.8c.1 0 1.6 1.8 1.8 3.8"/></g></svg>