<?xml version="1.0" encoding="UTF-8" standalone="no"?>
<svg width="32px" height="32px" viewBox="0 0 32 32" version="1.1" xmlns="http://www.w3.org/2000/svg" xmlns:xlink="http://www.w3.org/1999/xlink" xmlns:sketch="http://www.bohemiancoding.com/sketch/ns">
    <!-- Generator: Sketch 3.2.2 (9983) - http://www.bohemiancoding.com/sketch -->
    <title>Facebook</title>
    <desc>Created with Sketch.</desc>
    <defs>
        <rect id="path-1" x="0" y="0" width="32" height="32" rx="2"></rect>
    </defs>
    <g id="Sources-Icons-32px" stroke="none" stroke-width="1" fill="none" fill-rule="evenodd" sketch:type="MSPage">
        <g id="Facebook" sketch:type="MSArtboardGroup">
            <g id="source-facebook" sketch:type="MSLayerGroup">
                <mask id="mask-2" sketch:name="BG" fill="white">
                    <use xlink:href="#path-1"></use>
                </mask>
                <use id="BG" fill="#3B579D" sketch:type="MSShapeGroup" xlink:href="#path-1"></use>
                <path d="M17.0710918,32.0160158 L17.0710918,19.6118347 L12.8899072,19.6118347 L12.8899072,14.7895351 L17.0710918,14.7895351 L17.0710918,11.1100926 C17.0710918,7.25301504 19.4623186,4.85567263 23.2287798,4.85567263 C25.4961264,4.85567263 27.0223112,5.03343764 27.0223112,5.03343764 L27.0223112,9.38186965 L24.4678064,9.38186965 C22.8490196,9.38186965 22.0885134,9.95122937 22.0885134,11.6675839 L22.0885134,14.7895351 L26.8550638,14.7895351 L26.2418234,19.6118347 L22.0885134,19.6118347 L22.0885134,32.0160158 L17.0710918,32.0160158 Z" id="logo-facebook" fill="#FFFFFF" sketch:type="MSShapeGroup" mask="url(#mask-2)"></path>
                <path d="M29,0 L8,32 L32,32 L32,0 L29,0 Z" id="shadow" opacity="0.102203825" fill="#000000" sketch:type="MSShapeGroup" mask="url(#mask-2)"></path>
            </g>
        </g>
    </g>
</svg>