<svg xmlns="http://www.w3.org/2000/svg" viewBox="0 0 32 32" enable-background="new 0 0 32 32">
  <defs>
    <filter id="1" filterUnits="userSpaceOnUse" x="4" y="5.1" width="23.7" height="22.2">
      <feColorMatrix type="matrix" values="1 0 0 0 0  0 1 0 0 0  0 0 1 0 0  0 0 0 1 0"/>
    </filter>
    <mask maskUnits="userSpaceOnUse" x="4" y="5.1" width="23.7" height="22.2" id="0">
      <g filter="url(#1)">
        <path d="m2 0h28c1.1 0 2 .9 2 2v28c0 1.1-.9 2-2 2h-28c-1.1 0-2-.9-2-2v-28c0-1.1.9-2 2-2" fill="#fff"/>
      </g>
    </mask>
  </defs>
  <path d="m2 0h28c1.1 0 2 .9 2 2v28c0 1.1-.9 2-2 2h-28c-1.1 0-2-.9-2-2v-28c0-1.1.9-2 2-2" fill="#007ee5"/>
  <path
      d="m11 5.1l-7 4.6 4.8 3.9 7-4.4-4.8-4.1m-7 12.4l7 4.6 4.9-4.1-7-4.4-4.9 3.9m11.9.5l4.9 4.1 7-4.6-4.8-3.9-7.1 4.4m11.8-8.3l-7-4.6-4.9 4.1 7 4.4 4.9-3.9m-11.8 9.2l-4.9 4.1-2.1-1.4v1.5l7 4.2 7-4.2v-1.5l-2.1 1.4-4.9-4.1"
      fill="#fff" mask="url(#0)"/>
</svg>
