<?xml version="1.0" encoding="UTF-8" standalone="no"?>
<svg width="32px" height="32px" viewBox="0 0 32 32" version="1.1" xmlns="http://www.w3.org/2000/svg" xmlns:xlink="http://www.w3.org/1999/xlink" xmlns:sketch="http://www.bohemiancoding.com/sketch/ns">
    <defs>
        <rect id="path-1" x="0" y="0" width="32" height="32" rx="2"></rect>
    </defs>
    <g id="Sources-Icons-32px" stroke="none" stroke-width="1" fill="none" fill-rule="evenodd" sketch:type="MSPage">
        <g id="All" sketch:type="MSArtboardGroup">
            <g id="source-all" sketch:type="MSLayerGroup">
                <mask id="mask-2" sketch:name="BG" fill="white">
                    <use xlink:href="#path-1"></use>
                </mask>
                <use id="BG" fill="#004990" sketch:type="MSShapeGroup" xlink:href="#path-1"></use>
                <g id="Group" mask="url(#mask-2)" sketch:type="MSShapeGroup">
                    <g transform="translate(4.000000, 10.000000)">
                        <path d="M24,5.98735416 C24,0.654420448 18.6631035,1.00472331 18.6631035,1.00472331 C14.1362069,1.00472331 12,5.98735428 12,5.98735428 C12,5.98735428 14.1362069,10.6670769 18.6631034,10.667077 C18.6631034,10.667077 24,11.3202879 24,5.98735416 Z" id="Path-176" stroke="#FFFFFF" stroke-width="1.5" fill="none"></path>
                        <path d="M12,5.98735416 C12,0.654420448 6.66310346,1.00472331 6.66310346,1.00472331 C2.1362069,1.00472331 0,5.98735428 0,5.98735428 C0,5.98735428 2.13620688,10.6670769 6.66310343,10.667077 C6.66310343,10.667077 12,11.3202879 12,5.98735416 Z" id="Path-178" stroke="#FFFFFF" stroke-width="1.5" fill="none" transform="translate(6.000000, 5.846184) scale(-1, 1) translate(-6.000000, -5.846184) "></path>
                        <path d="M5,2.51928711 C5,2.51928711 8.06334943,2.71520153 10.4104004,6.62695312 C13.4104004,11.6269531 19.013916,10.6503906 19.013916,10.6503906 L19.013916,9.21728516 C19.013916,9.21728516 16.0630297,9.26471746 13.5771484,5.12158203 C10.5771484,0.121582031 5,1 5,1 L5,2.51928711 Z" id="Path-242" stroke="none" opacity="0.5" fill="#004990" fill-rule="evenodd" transform="translate(12.006958, 5.834030) scale(-1, 1) translate(-12.006958, -5.834030) "></path>
                        <path d="M5,2.51928711 C5,2.51928711 8.06334943,2.71520153 10.4104004,6.62695312 C13.4104004,11.6269531 19.013916,10.6503906 19.013916,10.6503906 L19.013916,9.21728516 C19.013916,9.21728516 16.0630297,9.26471746 13.5771484,5.12158203 C10.5771484,0.121582031 5,1 5,1 L5,2.51928711 Z" id="Path-243" stroke="none" fill="#FFFFFF" fill-rule="evenodd"></path>
                    </g>
                </g>
                <path d="M29,0 L8,32 L32,32 L32,0 L29,0 Z" id="shadow" opacity="0.102203825" fill="#000000" sketch:type="MSShapeGroup" mask="url(#mask-2)"></path>
            </g>
        </g>
    </g>
</svg>
