<svg xmlns="http://www.w3.org/2000/svg" viewBox="0 0 32 32" enable-background="new 0 0 32 32">
  <path fill="#fff" d="m2 0h28c1.1 0 2 .9 2 2v28c0 1.1-.9 2-2 2h-28c-1.1 0-2-.9-2-2v-28c0-1.1.9-2 2-2"/>
  <path fill="#004990" d="m2 0h28c1.1 0 2 .9 2 2v28c0 1.1-.9 2-2 2h-28c-1.1 0-2-.9-2-2v-28c0-1.1.9-2 2-2"/>
  <g fill="#fff">
    <path d="m24 10v13h-16v-13h16m0-2h-16c-1.1 0-2 .9-2 2v13c0 1.1.9 2 2 2h16c1.1 0 2-.9 2-2v-13c0-1.1-.9-2-2-2z"/>
    <path d="m22 14v7h-12v-7h-1v7.1c0 .6.2.9 1 .9h12c.8 0 1-.3 1-.9v-7.1"/>
    <path d="m16 15.7l-5.4-4.7h-1.6l7 6 7-6h-1.5z"/>
  </g>
</svg>
