<svg xmlns="http://www.w3.org/2000/svg" viewBox="0 0 32 32" enable-background="new 0 0 32 32">
  <defs>
    <filter id="1" filterUnits="userSpaceOnUse" x="12.9" y="4.9" width="14.1" height="27.1">
      <feColorMatrix type="matrix" values="1 0 0 0 0  0 1 0 0 0  0 0 1 0 0  0 0 0 1 0"/>
    </filter>
    <mask maskUnits="userSpaceOnUse" x="12.9" y="4.9" width="14.1" height="27.1" id="0">
      <g filter="url(#1)">
        <path d="m2.1 0h27.9c1.1 0 2 .9 2 2v27.9c0 1.1-.9 2-2 2h-27.9c-1.1 0-2-.9-2-2v-27.9c0-1.1.9-2 2-2" fill="#fff"/>
      </g>
    </mask>
  </defs>
  <path d="m2.1 0h27.9c1.1 0 2 .9 2 2v27.9c0 1.1-.9 2-2 2h-27.9c-1.1 0-2-.9-2-2v-27.9c0-1.1.9-2 2-2" fill="#3b579d"/>
  <path
      d="m17.1 32v-12.4h-4.2v-4.8h4.2v-3.7c0-3.8 2.4-6.2 6.1-6.2 2.3 0 3.8.1 3.8.1v4.3h-2.5c-1.6 0-2.4.6-2.4 2.3v3.1h4.8l-.6 4.8h-4.1v12.5h-5.1"
      fill="#fff" mask="url(#0)"/>
</svg>
