<svg xmlns="http://www.w3.org/2000/svg" viewBox="0 0 32 32" enable-background="new 0 0 32 32">
  <path d="m2 0h28c1.1 0 2 .9 2 2v28c0 1.1-.9 2-2 2h-28c-1.1 0-2-.9-2-2v-28c0-1.1.9-2 2-2" fill="#fff"/>
  <path d="m2 0h28c1.1 0 2 .9 2 2v28c0 1.1-.9 2-2 2h-28c-1.1 0-2-.9-2-2v-28c0-1.1.9-2 2-2" fill="#004990"/>
  <g transform="translate(6 6)" fill="#fff">
    <path
        d="m18 15h-16c-1.6 0-3-1.3-3-3v-11c0-1.1.9-2 2-2h3.7l1.6 1.9h11.7c1.7 0 3 1.3 3 3v8.1c0 1.6-1.3 3-3 3m-17-14v11c0 .6.4 1 1 1h16c.5 0 1-.5 1-1v-8.1c0-.6-.4-1-1-1h-12.6l-1.6-1.9h-2.8"/>
    <path d="m0 18h20v1h-20z"/>
    <path d="m7 17h6v3h-6z"/>
    <path d="m9 14h2v3h-2z"/>
  </g>
</svg>
