<svg height="32" viewBox="0 0 32 32" width="32" xmlns="http://www.w3.org/2000/svg" xmlns:xlink="http://www.w3.org/1999/xlink"><defs><rect id="a" height="32" rx="2" width="32"/><mask id="b" fill="#fff"><use fill="#fff" fill-rule="evenodd" xlink:href="#a"/></mask></defs><g fill="none" fill-rule="evenodd"><use fill="#39393a" xlink:href="#a"/><g mask="url(#b)"><g transform="matrix(.66913061 .74314483 -.74314483 .66913061 16.21904 -1.69045)"><path d="m9.80671928 19.7240586c-1.41065665-.2977925-2.76043913-.9711458-3.8912931-2.0256842-3.31561938-3.0918651-3.49368563-8.28972044-.39772211-11.60973485s8.29357843-3.50496598 11.60919783-.41310089c3.3156193 3.09186509 3.4936856 8.28972044.3977221 11.60973484-1.3370111 1.4337688-3.0659797 2.2828491-4.8660586 2.5358239l.5385805.0477983.020008 4.0636209z" fill="#e51b24"/><path d="m13.4078437 19.8500093c-1.6894009-.1896609-3.3341363-.9037661-4.6723117-2.1516349-3.31561938-3.0918651-3.49368563-8.28972044-.39772211-11.60973485 3.09596351-3.32001441 8.29357841-3.50496598 11.60919781-.41310089s3.4936856 8.28972044.3977221 11.60973484c-1.0358642 1.1108283-2.3070027 1.8706945-3.6642043 2.2742892l.0412042-.0036569-3.5467016 4.3766108.0200079-4.0636209z" fill="#01adf0"/><path d="m13.0122939 20.0347734c-.0040973.0000061-.0081952.0000092-.0122939.0000092-.0000001-4.1980702 0-12.21381755 0-16.4173913 4.4825651 0 8.1164021 3.67515823 8.1164021 8.2086957 0 3.5832036-2.2700426 6.6301813-5.4349937 7.7501622l-2.505942 4.3581227z" fill="#00a84f"/><path d="m12.9949925 20.0347811c.0016691.000001.0033382.0000015.0050075.0000015.0000001-4.1980702 0-12.21381755 0-16.4173913-4.48256511 0-8.11640212 3.67515823-8.11640212 8.2086957 0 3.7132181 2.43776563 6.850591 5.78297802 7.8643984l2.4733635 4.301465-.1449469-3.9571692z" fill="#f15c21"/><path d="m11.2367134 19.437755c-.9654448-.3800784-1.87231148-.95141-2.66339539-1.7153509-3.26115391-3.1492597-3.31975477-8.37917477-.13088869-11.68134226 1.24968082-1.29408237 2.81264428-2.10006519 4.44769708-2.4122306 1.6388254.23550878 3.2165049.9666721 4.4928093 2.19918497 3.2611539 3.14925972 3.3197548 8.37917479.1308887 11.68134229-.6325594.6550345-1.3453866 1.1850106-2.1072011 1.5891867l-2.2179163 4.8666996z" fill="#fff9ae"/></g></g><path d="m29 0-21 32h24v-32z" fill="#000" opacity=".102204"/></g></svg>