<svg enable-background="new 0 0 64 64" viewBox="0 0 64 64"><path d="m60 0h-56c-2.2 0-4 1.8-4 4v56c0 2.2 1.8 4 4 4h56c2.2 0 4-1.8 4-4v-56c0-2.2-1.8-4-4-4" fill="#1f263f"/><g fill="#fff"><path d="m47.7 24.4c0-.1-.1-.2-.2-.3l-10.8-10.8c-.1-.1-.2-.2-.3-.2-.1-.1-.3-.1-.4-.1h-14.4c-2.5 0-4.6 2.1-4.6 4.6v28.8c0 2.5 2.1 4.6 4.6 4.6h21.6c2.5 0 4.6-2.1 4.6-4.6v-21.6c0-.1 0-.3-.1-.4zm-10.7-8 7.4 7.4h-7.4zm6.2 32.6h-21.6c-1.4 0-2.6-1.2-2.6-2.6v-28.8c0-1.4 1.2-2.6 2.6-2.6h13.4v9.8c0 .6.4 1 1 1h9.8v20.6c0 1.4-1.2 2.6-2.6 2.6z"/><path d="m39.6 34.8h-14.4c-.6 0-1-.4-1-1s.4-1 1-1h14.4c.6 0 1 .4 1 1s-.4 1-1 1zm0 7.2h-14.4c-.6 0-1-.4-1-1s.4-1 1-1h14.4c.6 0 1 .4 1 1s-.4 1-1 1zm-10.8-14.4h-3.6c-.6 0-1-.4-1-1s.4-1 1-1h3.6c.6 0 1 .4 1 1s-.4 1-1 1z"/></g></svg>