<?xml version="1.0" encoding="UTF-8" standalone="no"?>
<svg width="32px" height="32px" viewBox="0 0 32 32" version="1.1" xmlns="http://www.w3.org/2000/svg" xmlns:xlink="http://www.w3.org/1999/xlink" xmlns:sketch="http://www.bohemiancoding.com/sketch/ns">
    <defs>
        <rect id="path-1" x="0" y="0" width="32" height="32" rx="2"></rect>
    </defs>
    <g id="Sources-Icons-32px" stroke="none" stroke-width="1" fill="none" fill-rule="evenodd" sketch:type="MSPage">
        <g id="Websphere" sketch:type="MSArtboardGroup">
            <g id="source-websphere" sketch:type="MSLayerGroup">
                <mask id="mask-2" sketch:name="BG" fill="white">
                    <use xlink:href="#path-1"></use>
                </mask>
                <use id="BG" fill="#7262A0" sketch:type="MSShapeGroup" xlink:href="#path-1"></use>
                <g id="logo-websphere" mask="url(#mask-2)" sketch:type="MSShapeGroup">
                    <g transform="translate(4.000000, 4.000000)">
                        <ellipse id="Oval-3" fill-opacity="0.05" fill="#D7BADD" cx="12" cy="11.7876106" rx="12" ry="11.7876106"></ellipse>
                        <path d="M12,17 C18.627417,17 24,14.7614237 24,12 C24,9.23857625 18.627417,7 12,7 C5.372583,7 0,9.23857625 0,12 C0,14.7614237 5.372583,17 12,17 Z M12,15 C17.5228475,15 22,13.6568542 22,12 C22,10.3431458 17.5228475,9 12,9 C6.4771525,9 2,10.3431458 2,12 C2,13.6568542 6.4771525,15 12,15 Z" id="Oval-6" fill="#FFFFFF" transform="translate(12.000000, 12.000000) rotate(-90.000000) translate(-12.000000, -12.000000) "></path>
                        <path d="M12,17 C18.627417,17 24,14.7614237 24,12 C24,9.23857625 18.627417,7 12,7 C5.372583,7 0,9.23857625 0,12 C0,14.7614237 5.372583,17 12,17 Z M12,15 C17.5228475,15 22,13.6568542 22,12 C22,10.3431458 17.5228475,9 12,9 C6.4771525,9 2,10.3431458 2,12 C2,13.6568542 6.4771525,15 12,15 Z" id="Oval-8" fill="#FFFFFF"></path>
                        <path d="M12,24 C18.627417,24 24,18.627417 24,12 C24,5.372583 18.627417,0 12,0 C5.372583,0 0,5.372583 0,12 C0,18.627417 5.372583,24 12,24 Z M12,22 C17.5228475,22 22,17.5228475 22,12 C22,6.4771525 17.5228475,2 12,2 C6.4771525,2 2,6.4771525 2,12 C2,17.5228475 6.4771525,22 12,22 Z" id="Oval-4" fill="#FFFFFF"></path>
                    </g>
                </g>
                <path d="M29,0 L8,32 L32,32 L32,0 L29,0 Z" id="shadow" opacity="0.102203825" fill="#000000" sketch:type="MSShapeGroup" mask="url(#mask-2)"></path>
            </g>
        </g>
    </g>
</svg>
