<svg xmlns="http://www.w3.org/2000/svg" viewBox="0 0 32 32" enable-background="new 0 0 32 32">
  <defs>
    <filter id="1" filterUnits="userSpaceOnUse" x="6" y="7" width="21.9" height="19">
      <feColorMatrix type="matrix" values="1 0 0 0 0  0 1 0 0 0  0 0 1 0 0  0 0 0 1 0"/>
    </filter>
    <mask maskUnits="userSpaceOnUse" x="6" y="7" width="21.9" height="19" id="0">
      <g filter="url(#1)">
        <path fill="#fff" d="m2 0h28c1.1 0 2 .9 2 2v28c0 1.1-.9 2-2 2h-28c-1.1 0-2-.9-2-2v-28c0-1.1.9-2 2-2"/>
      </g>
    </mask>
  </defs>
  <path fill="#00b0ed" d="m2 0h28c1.1 0 2 .9 2 2v28c0 1.1-.9 2-2 2h-28c-1.1 0-2-.9-2-2v-28c0-1.1.9-2 2-2"/>
  <path mask="url(#0)" fill="#fff"
        d="m12.9 26c-2.5 0-4.9-.8-6.9-2.2.4 0 .7.1 1.1.1 2.1 0 4.1-.8 5.6-2-2 0-3.6-1.4-4.2-3.3.3.1.6.1.8.1.4 0 .8-.1 1.2-.2-2.1-.4-3.6-2.4-3.6-4.7 0 0 0 0 0-.1.6.4 1.3.6 2 .6-1.2-.9-2-2.3-2-4 0-.9.2-1.7.6-2.4 2.2 2.9 5.5 4.8 9.3 5-.1-.4-.1-.7-.1-1.1 0-2.6 2-4.8 4.5-4.8 1.3 0 2.5.6 3.3 1.5 1-.2 2-.6 2.9-1.2-.3 1.1-1.1 2.1-2 2.6.9-.1 1.8-.4 2.6-.8-.6 1-1.4 1.8-2.2 2.5 0 .2 0 .4 0 .6-.1 6.5-4.6 13.8-12.9 13.8"/>
</svg>
