<?xml version="1.0" encoding="utf-8"?>
<svg version="1.1" viewBox="0 0 64 64" style="enable-background:new 0 0 64 64;">
<path fill="#1F263F" d="M60,0H4C1.8,0,0,1.8,0,4v56c0,2.2,1.8,4,4,4h56c2.2,0,4-1.8,4-4V4C64,1.8,62.2,0,60,0"/>
<g>
	<path fill="#FFFFFF" d="M40.5,51H23.1c-1.2,0-2.4-0.7-3-1.7l-8.7-15c-0.6-1.1-0.6-2.4,0-3.5l8.7-15c0.6-1.1,1.8-1.7,3-1.7h17.4
		c1.2,0,2.4,0.7,3,1.7l8.7,15c0.6,1.1,0.6,2.4,0,3.5l-8.7,15C42.9,50.3,41.7,51,40.5,51z M23.1,16c-0.5,0-1,0.3-1.3,0.7l-8.7,15
		c-0.3,0.5-0.3,1,0,1.5l8.7,15c0.3,0.5,0.7,0.7,1.3,0.7h17.4c0.5,0,1-0.3,1.3-0.7l8.7-15c0.3-0.5,0.3-1,0-1.5l-8.7-15
		C41.5,16.3,41,16,40.5,16H23.1z"/>
	<path fill="#FFFFFF" d="M26,42.4c-3.4,0-3.5-0.8-3.5-4.8V35c0-0.7-1.5-1.5-2.4-1.5v-2c0.2,0,2.4,0,2.4-1.5v-2.5c0-4,0.1-4.8,3.5-4.8v2
		c-0.5,0-1,0-1.4,0.1c-0.1,0.9-0.1,1.8-0.1,2.7V30c0,1.1-0.5,2.1-1.3,2.7c0.8,0.5,1.3,1.4,1.4,2.3v2.5c-0.1,0.9,0,1.9,0.1,2.8H26
		L26,42.4z M37.6,42.4v-2c0.5,0,1,0,1.5-0.1c0.1-0.9,0.1-1.8,0.1-2.7V35c0-1,0.5-1.9,1.4-2.4C39.7,32,39.2,31,39.2,30v-2.6
		c0.1-0.9,0-1.9-0.2-2.8h-1.4v-2c3.4,0,3.5,0.8,3.5,4.8V30c0,1.5,2.2,1.5,2.4,1.5v2c-1,0-2.4,0.8-2.4,1.5v2.5
		C41.2,41.6,41.1,42.4,37.6,42.4z"/>
</g>
</svg>
