<svg enable-background="new 0 0 64 64" viewBox="0 0 64 64"><path d="m60 0h-56c-2.2 0-4 1.8-4 4v56c0 2.2 1.8 4 4 4h56c2.2 0 4-1.8 4-4v-56c0-2.2-1.8-4-4-4" fill="#1f263f"/><g fill="#fff"><path d="m47.3 44.6c-.4 0-.7-.2-.9-.5-.3-.5-.1-1.1.4-1.4 3.9-2.1 5.4-7.1 3.2-11-1.4-2.6-4.1-4.2-7.1-4.2h-2.3c-.5 0-.9-.3-1-.7-1.9-7.2-9.3-11.6-16.5-9.7s-11.6 9.3-9.7 16.5c.5 2.1 1.6 4 3 5.6.4.4.3 1-.1 1.4s-1 .3-1.4-.1c-1.6-1.8-2.8-4-3.4-6.4-2.1-8.3 2.9-16.8 11.2-18.9 8-2.1 16.3 2.6 18.7 10.4h1.5c3.7 0 7.1 2 8.9 5.3 2.7 4.9.9 11-4 13.7-.2 0-.4 0-.5 0z"/><path d="m40 38.6-7.3-7.3c-.1-.1-.2-.2-.3-.2-.2-.1-.5-.1-.8 0-.1.1-.2.1-.3.2l-7.3 7.3c-.4.4-.4 1 0 1.4s1 .4 1.4 0l5.6-5.6v13.9c0 .6.4 1 1 1s1-.4 1-1v-13.9l5.6 5.6c.2.2.5.3.7.3s.5-.1.7-.3c.4-.4.4-1 0-1.4z"/></g></svg>