<svg enable-background="new 0 0 32 32" viewBox="0 0 32 32" xmlns="http://www.w3.org/2000/svg"><path d="m2 0h28c1.1 0 2 .9 2 2v28c0 1.1-.9 2-2 2h-28c-1.1 0-2-.9-2-2v-28c0-1.1.9-2 2-2" fill="#fff"/><path d="m2 0h28c1.1 0 2 .9 2 2v28c0 1.1-.9 2-2 2h-28c-1.1 0-2-.9-2-2v-28c0-1.1.9-2 2-2" fill="#004990"/><path d="m16 10c3.8 0 7 2 7 4.4.1 2.5-1.3 4.6-4.2 6.3-1.2.7-2.5 1.2-3.4 1.6v-1.9-1.6l-1.6-.3c-2.8-.6-4.8-2.3-4.8-4.1 0-2.4 3.2-4.4 7-4.4m0-2c-5 0-9 2.8-9 6.4 0 2.9 2.7 5.3 6.4 6.1v3.5c0 .5.3.8.7.8h.2s10.9-2.4 10.7-10.3c0-3.7-4-6.5-9-6.5z" fill="#fff"/><circle cx="9" cy="9" fill="#d0011b" r="3"/></svg>