<svg viewBox="0 0 64 64" xmlns="http://www.w3.org/2000/svg"><rect fill="#1f263f" height="64" rx="2" width="64"/><path d="m46 19.19h-28a4 4 0 0 0 -4 3.94v17.74a4 4 0 0 0 4 3.94h28a4 4 0 0 0 4-3.94v-17.74a4 4 0 0 0 -4-3.94zm0 1.89a1.64 1.64 0 0 1 .38 0l-13.83 10.4a1 1 0 0 1 -1.07 0l-13.89-10.36a1.64 1.64 0 0 1 .38 0zm2 19.79a2.05 2.05 0 0 1 -2 2.05h-28a2.05 2.05 0 0 1 -2-2.05v-17.74a1.89 1.89 0 0 1 .16-.79l14.23 10.66a2.79 2.79 0 0 0 1.6.49 3 3 0 0 0 1.66-.49l14.27-10.66a1.89 1.89 0 0 1 .16.79z" fill="#fff"/></svg>