<?xml version="1.0" encoding="UTF-8" standalone="no"?>
<svg width="32px" height="32px" fill="#004990" viewBox="0 0 32 32" version="1.1" xmlns="http://www.w3.org/2000/svg" xmlns:xlink="http://www.w3.org/1999/xlink" xmlns:sketch="http://www.bohemiancoding.com/sketch/ns">
    <rect id="path-1" x="0" y="0" width="32" height="32" rx="2"></rect>
    <g id="Sources-Icons-32px" stroke="none" stroke-width="1" fill="none" fill-rule="evenodd" sketch:type="MSPage">
        <g id="Custom" sketch:type="MSArtboardGroup">
            <g id="source-custom" sketch:type="MSLayerGroup">
                <path d="M21.4695725,16.3472362 L23.7986507,18.3066288 L22.1294613,20.2398564 L21.526557,19.7494999 C21.526557,19.7494999 17.9152289,24.63512 11.9413516,23.0366093 C10.368598,24.4136845 8.96283624,28.2510868 6.74066826,26.331287 C4.51850029,24.4114872 7.90363213,22.2925907 8.96662044,20.5959355 C6.74066825,16.997913 9.25385189,11.7858769 10.4574652,10.4825322 C10.2948675,10.3458134 9.88275814,9.99840129 9.88275814,9.99840129 L11.582099,8.02916301 L14.028294,10.087083 L14.028294,10.087083 C13.925303,9.98564945 13.8320908,9.88533727 13.7528753,9.78819621 C15.9164495,7.30003703 17.5510931,4.10777629 18.9677191,5.23228801 C20.1475286,6.19993937 18.8178167,6.99083292 15.4091253,11.1895634 C15.2573982,11.0850777 15.0946539,10.9690123 14.930362,10.8459693 L20.145868,15.2336381 C20.1026164,15.186522 20.0620466,15.1398979 20.0246038,15.0939822 C22.188178,12.605823 23.8228216,9.4135623 25.2394476,10.538074 C26.4192571,11.5057254 25.0895452,12.2966189 21.6808538,16.4953494 C21.6123804,16.4481957 21.5416632,16.3986836 21.4695725,16.3472362 Z" id="Path-98" fill="#FFFFFF" sketch:type="MSShapeGroup"></path>
                <path d="M29,0 L8,32 L32,32 L32,0 L29,0 Z" id="shadow" opacity="0.102203825" fill="#000000" sketch:type="MSShapeGroup" ></path>
            </g>
        </g>
    </g>
</svg>
