<?xml version="1.0" encoding="UTF-8" standalone="no"?>
<svg width="32px" height="32px" fill="#BBBBBB" viewBox="0 0 32 32" version="1.1" xmlns="http://www.w3.org/2000/svg" xmlns:xlink="http://www.w3.org/1999/xlink" xmlns:sketch="http://www.bohemiancoding.com/sketch/ns">
    <rect id="path-1" x="0" y="0" width="32" height="32" rx="2"></rect>
    <g id="Sources-Icons-32px" stroke="none" stroke-width="1" fill="none" fill-rule="evenodd" sketch:type="MSPage">
        <g id="Site-Map" sketch:type="MSArtboardGroup">
            <g id="source-web_crawler" sketch:type="MSLayerGroup">
                <path d="M0,3.5 L0,2 C0,0.887729645 0.89621101,0 2.00174332,0 L29.9982567,0 C31.1107383,0 32,0.8954305 32,2 L32,3.5 L32,3 C32,1.8954305 31.1107383,1 29.9982567,1 L2.00174332,1 C0.89621101,1 0,1.88772964 0,3 L0,3.5 Z" id="shadow" fill="#909090" sketch:type="MSShapeGroup" ></path>
                <path d="M0,5.5 L0,4 C0,2.88772964 0.89621101,2 2.00174332,2 L29.9982567,2 C31.1107383,2 32,2.8954305 32,4 L32,5.5 L32,5 C32,3.8954305 31.1107383,3 29.9982567,3 L2.00174332,3 C0.89621101,3 0,3.88772964 0,5 L0,5.5 Z" id="shadow-2" fill="#909090" sketch:type="MSShapeGroup" ></path>
                <path d="M0,7.5 L0,6 C0,4.88772964 0.89621101,4 2.00174332,4 L29.9982567,4 C31.1107383,4 32,4.8954305 32,6 L32,7.5 L32,7 C32,5.8954305 31.1107383,5 29.9982567,5 L2.00174332,5 C0.89621101,5 0,5.88772964 0,7 L0,7.5 Z" id="shadow-3" fill="#909090" sketch:type="MSShapeGroup" ></path>
                <path d="M1,12 L1,29.0025781 C1,30.1057238 1.89784041,31 2.99161703,31 L29.008383,31 C30.1083227,31 31,30.1090746 31,29.0025781 L31,12 L1,12 Z M3,7 L3,10 L24,10 L24,7 L3,7 Z" id="Page" fill="#FEFEFE" sketch:type="MSShapeGroup"></path>
                <path d="M14,14 L14,18 L19,18 L19,14 L14,14 Z M3,24 L3,28 L8,28 L8,24 L3,24 Z M10,24 L10,28 L15,28 L15,24 L10,24 Z M17,24 L17,28 L22,28 L22,24 L17,24 Z M24,24 L24,28 L29,28 L29,24 L24,24 Z M24,7 L24,10 L29,10 L29,7 L24,7 Z" id="Graph-Box" fill="#88888A" sketch:type="MSShapeGroup"></path>
                <path d="M27,20.5 L27,20 L17,20 L17,18 L16,18 L16,20 L6,20 L6,21 L12,21 L12,24 L13,24 L13,21 L19,21 L19,24 L20,24 L20,21 L26,21 L26,24 L27,24 L27,20.5 Z M5,20 L5,24 L6,24 L6,20 L5,20 Z" id="Graph-Line" fill="#BFBFBF" sketch:type="MSShapeGroup"></path>
                <path d="M29,0 L8,32 L32,32 L32,0 L29,0 Z" id="shadow" opacity="0.102203825" fill="#000000" sketch:type="MSShapeGroup"></path>
            </g>
        </g>
    </g>
</svg>
