<svg viewBox="0 0 64 64" xmlns="http://www.w3.org/2000/svg"><g fill="none" fill-rule="evenodd"><path d="M0 0h64v64H0z"/><path d="M26.6 41l-9.4-1V21.6l9-1v3.8l-5.4.4V29l5.2-.2v3.6h-5.2v4.4l5.8.4V41zM10 14.4v35l24.6 4.4v-44L10 14.4zm40.8 10.2v3.6c0 .2 0 .2-.2.4L48.4 31c-.2.2-.4.2-.6 0l-.8-.8c-.2-.2-.2-.4 0-.6l1-1v-3.8h-3.2c-2.8 2.2-5 6-5.6 5.4-.8-.8 4.6-8.2 5.2-8.2h5.8c.4 0 .6.2.6.6v2zm0 14.6v2.2c0 .4-.2.6-.6.6h-5.6c-.2 0-.2 0-.4-.2L42 39.4c-.2-.2-.2-.4 0-.6l.8-.8c.2-.2.4-.2.6 0l1 1H48v-3.2c-2-2.8-5.8-5.2-5.2-6 .8-.8 7.8 4.8 7.8 5.4l.2 4zm1-20.6H37v3.2h.6c.2 0 .2 0 .4.2l2.2 2.4c.2.2.2.4 0 .6l-.8.8c-.2.2-.4.2-.6 0l-1-1H37V31c1.6 1.4 2.8 2.6 2.4 3-.2.2-1.2-.2-2.4-1v6.4h.4c2.8-2.2 5-6 5.6-5.4.8.8-4.6 8.2-5.2 8.2H37v3.2h14.8c1.2 0 2.2-1 2.2-2.4V20.8c0-1.2-1-2.2-2.2-2.2" fill="#1C6DB5" fill-rule="nonzero"/></g></svg>