<svg enable-background="new 0 0 64 64" viewBox="0 0 64 64"><path d="m60 0h-56c-2.2 0-4 1.8-4 4v56c0 2.2 1.8 4 4 4h56c2.2 0 4-1.8 4-4v-56c0-2.2-1.8-4-4-4" fill="#1f263f"/><path d="m39.9 29.9h-16.7c-1.1 0-2-.9-2-2v-15.9c0-1.1.9-2 2-2h16.7c1.1 0 2 .9 2 2v15.9c0 1.1-.9 2-2 2zm-16.7-17.9v15.9h16.8v-15.9zm13.8 42.2h-10c-1.1 0-2-.9-2-2v-7.4c0-1.1.9-2 2-2h10c1.1 0 2 .9 2 2v7.4c0 1.1-.9 2-2 2zm-10-9.4v7.4h10v-7.4zm27 9.4h-9.9c-1.1 0-2-.9-2-2v-7.4c0-1.1.9-2 2-2h9.9c1.1 0 2 .9 2 2v7.4c0 1.1-.9 2-2 2zm-9.9-9.4v7.4h9.9v-7.4zm-24.2 9.4h-9.9c-1.1 0-2-.9-2-2v-7.4c0-1.1.9-2 2-2h9.9c1.1 0 2 .9 2 2v7.4c0 1.1-.9 2-2 2zm-9.9-9.4v7.4h9.9v-7.4zm39-9.7h-16v-2.8c0-.6-.4-1-1-1s-1 .4-1 1v2.8h-16c-.6 0-1 .4-1 1v3.9c0 .6.4 1 1 1s1-.4 1-1v-2.9h15v2.9c0 .6.4 1 1 1s1-.4 1-1v-2.9h15v2.7c0 .6.4 1 1 1s1-.4 1-1v-3.7c0-.6-.4-1-1-1z" fill="#fff"/></svg>