<?xml version="1.0" encoding="UTF-8" standalone="no"?>
<svg width="32px" height="32px" viewBox="0 0 32 32" version="1.1" xmlns="http://www.w3.org/2000/svg" xmlns:xlink="http://www.w3.org/1999/xlink" xmlns:sketch="http://www.bohemiancoding.com/sketch/ns">
    <!-- Generator: Sketch 3.2.2 (9983) - http://www.bohemiancoding.com/sketch -->
    <title>Litmos</title>
    <desc>Created with Sketch.</desc>
    <defs>
        <rect id="path-1" x="0" y="0" width="32" height="32" rx="2"></rect>
    </defs>
    <g id="Sources-Icons-32px" stroke="none" stroke-width="1" fill="none" fill-rule="evenodd" sketch:type="MSPage">
        <g id="Litmos" sketch:type="MSArtboardGroup">
            <g id="source-litmos" sketch:type="MSLayerGroup">
                <mask id="mask-2" sketch:name="BG" fill="white">
                    <use xlink:href="#path-1"></use>
                </mask>
                <use id="BG" fill="#F6F6F6" sketch:type="MSShapeGroup" xlink:href="#path-1"></use>
                <circle id="Oval-36" fill="#99CA3B" sketch:type="MSShapeGroup" mask="url(#mask-2)" cx="16.5" cy="16.5" r="11.5"></circle>
                <path d="M10.1017191,18.1929023 C9.99556715,16.7541799 10.0293087,16.515006 10.3389362,16.451396 C10.9167351,16.2711382 12.2767624,15.9993257 14.6608242,16.1154909 C14.6608242,16.1154909 15.4204601,15.9897184 15.1569389,17.8796835 C15.1569389,17.8796836 14.9995808,19.3801355 13.78941,19.7881174 C13.78941,19.7881175 11.4113583,19.7881175 10.9209465,19.7881174 C10.3514828,19.7881175 10.1017191,18.5707517 10.1017191,18.1929023 Z M13.445433,18.5274095 C13.8087832,18.5274095 14.1033367,18.232856 14.1033367,17.8695059 C14.1033367,17.5061557 13.8087832,17.2116022 13.445433,17.2116022 C13.0820829,17.2116022 12.7875294,17.5061557 12.7875294,17.8695059 C12.7875294,18.232856 13.0820829,18.5274095 13.445433,18.5274095 Z M22.4345459,18.1563654 C22.4345459,17.5669852 22.5756725,16.5320711 22.2555165,16.4025259 C21.6777176,16.2222681 20.4005151,15.9912977 18.0164533,16.1074629 C18.0164533,16.1074629 17.1300359,15.8195505 17.5382371,17.8796835 C17.5382371,17.8796836 17.6955953,19.3801355 18.905766,19.7881174 C18.905766,19.7881175 21.2447743,19.7881174 21.735186,19.7881173 C22.3046497,19.7881174 22.3826049,18.9540798 22.4345459,18.1563654 Z M19.1554684,18.498456 C19.5188185,18.498456 19.813372,18.2039025 19.813372,17.8405523 C19.813372,17.4772021 19.5188185,17.1826486 19.1554684,17.1826486 C18.7921182,17.1826486 18.4975647,17.4772021 18.4975647,17.8405523 C18.4975647,18.2039025 18.7921182,18.498456 19.1554684,18.498456 Z M12.9453507,11.7823429 C12.9453507,11.7823429 12.5859756,10.8728559 12.9453506,9.7947309 C12.9453506,9.7947309 13.2680253,9.74319753 13.2680253,9.74319753 C13.2680253,9.74319753 13.5112463,10.9198609 14.4682364,11.6735249 C14.4682363,11.673525 14.5917715,11.673525 14.5917715,11.673525 C14.5917715,11.673525 14.3167609,8.60389357 15.1044334,7.88278887 C15.1044334,7.88278887 15.3798516,7.875 15.3798516,7.875 C15.3798516,7.875 15.2311384,10.1329129 16.7089866,11.3015609 C16.7089864,11.3015611 16.943015,11.2463594 16.943015,11.2463594 C16.943015,11.2463594 16.0422226,9.55332112 17.4367029,8.0406947 C17.4367028,8.0406947 17.631787,8.13520272 17.631787,8.13520272 C17.631787,8.13520272 17.2824196,10.5132997 18.7000853,11.2919607 C18.7000853,11.2919606 21.9668383,12.5779397 22.4622923,15.5639767 C22.4622924,15.5639764 23.9790849,15.6879646 23.9151437,16.5739943 C23.9151438,16.573994 23.9989191,17.2581469 23.0960893,17.358678 C23.0960893,17.3586778 23.0401179,17.055682 23.0401179,17.055682 C23.0401179,17.055682 23.5849766,17.186191 23.5849766,16.573994 C23.5849766,15.9617971 22.1321258,15.8532518 20.9696815,15.6589828 C20.9696812,15.6589829 20.3770027,15.4853177 17.4226195,15.4853181 C17.4226195,15.4853178 16.7470706,16.1070694 16.7470706,16.1070694 L15.7097466,16.1242774 L15.1481326,15.4883068 C15.1481326,15.4883068 13.2148616,15.4284865 11.3099387,15.6915421 C9.4050159,15.9545977 8.94610624,16.1242776 8.94610621,16.6567282 C8.94610619,17.1891789 9.33410078,16.909958 9.47298726,17.191761 C9.47298726,17.191761 9.40420064,17.3586778 9.40420064,17.3586778 C9.40420064,17.3586778 8.71231688,17.3586778 8.62993228,17.002292 C8.62993228,17.0022922 8.47238875,16.3324039 8.81478218,16.0119729 C9.1571756,15.691542 9.31227379,15.8432438 9.98021501,15.5639763 C10.5528783,13.3354984 12.9453507,11.7823429 12.9453507,11.7823429 Z M16.2642368,17.0429258 L16.495602,17.073678 C16.495602,17.073678 16.805756,19.3466196 18.2711128,20.2458028 C18.6990112,20.4897585 22.0847343,20.3761377 22.0847343,20.3761377 L22.1805881,20.236722 L22.3767704,20.236722 L22.0328812,23.3089132 C22.0328812,23.3089132 20.8064789,25.3903665 16.2689308,25.3903665 C11.7313827,25.3903665 10.5690731,23.422183 10.5690731,23.422183 L10.2306236,20.2934446 L10.4420284,20.236722 L10.6143898,20.3761377 C10.6143898,20.3761377 13.575066,20.613513 14.2114738,20.3712682 C15.6967911,19.6906843 16.0218605,17.073678 16.0218605,17.073678 L16.2642368,17.0429258 Z" id="Oval-34" fill="#FFFFFF" sketch:type="MSShapeGroup" mask="url(#mask-2)"></path>
                <path d="M29,0 L8,32 L32,32 L32,0 L29,0 Z" id="shadow" opacity="0.102203825" fill="#000000" sketch:type="MSShapeGroup" mask="url(#mask-2)"></path>
            </g>
        </g>
    </g>
</svg>