<?xml version="1.0" encoding="UTF-8" standalone="no"?>
<svg width="32px" height="32px" viewBox="0 0 32 32" version="1.1" xmlns="http://www.w3.org/2000/svg" xmlns:xlink="http://www.w3.org/1999/xlink" xmlns:sketch="http://www.bohemiancoding.com/sketch/ns">
    <defs>
        <rect id="path-1" x="0" y="0" width="32" height="32" rx="2"></rect>
    </defs>
    <g id="Sources-Icons-32px" stroke="none" stroke-width="1" fill="none" fill-rule="evenodd" sketch:type="MSPage">
        <g id="Yammer" sketch:type="MSArtboardGroup">
            <g id="source-yammer" sketch:type="MSLayerGroup">
                <mask id="mask-2" sketch:name="BG" fill="white">
                    <use xlink:href="#path-1"></use>
                </mask>
                <use id="BG" fill="#189CC7" sketch:type="MSShapeGroup" xlink:href="#path-1"></use>
                <path d="M17.1362362,9.38147639 C17.1409634,9.3654129 17.1485998,9.34934941 17.1536907,9.33328591 C17.3620544,8.67906369 17.0013271,7.97993671 16.3511453,7.77111131 C15.7173271,7.56922242 15.042418,7.90692083 14.8155089,8.52719068 C14.810418,8.54398433 14.8009634,8.57173036 14.7871453,8.61225417 C14.7856907,8.61773036 14.7842362,8.62357163 14.782418,8.62977798 L14.7809634,8.62977798 C14.3733271,9.80022242 10.8125998,19.1298256 10.8125998,19.1298256 L10.7500544,19.1298256 L6.55041799,8.46147639 C6.55041799,8.46147639 6.54932708,8.45965099 6.54932708,8.45892083 L6.49078163,8.30777798 C6.20278163,7.69663512 5.49041799,7.39727004 4.8475089,7.63968274 C4.18823618,7.88830179 3.84823618,8.61225417 4.06532708,9.27852401 C4.57987254,10.5887938 9.42896345,22.4140796 9.42896345,22.4140796 L9.11114527,23.1179526 C8.57623618,24.5709685 7.97878163,25.5508415 6.37587254,25.5508415 C6.22023618,25.5508415 5.68205436,25.5194446 5.64714527,25.5154288 C5.13041799,25.4880478 4.64823618,25.8261113 4.50787254,26.3474446 C4.34859981,26.9406986 4.69478163,27.5503812 5.28205436,27.7208732 C5.7075089,27.7946192 6.14314527,27.8223653 6.53332708,27.8223653 C9.48823618,27.8223653 10.4635089,26.1159843 11.438418,23.6235875 C11.438418,23.6235875 16.7940544,10.1864764 17.0395089,9.62644464 C17.078418,9.5370002 17.1118725,9.4574129 17.1402362,9.38366687 L17.1362362,9.38147639 Z M24.522645,18.5254603 C24.4095541,18.5254603 24.2979177,18.5097619 24.190645,18.4783651 L24.0364632,18.4013333 C23.6557359,18.1884921 19.3139177,15.2466825 19.2731904,14.466873 C19.2677359,14.3650159 19.310645,14.2730159 19.3920995,14.2164286 C19.4775541,14.1569206 19.5939177,14.1269841 19.746645,14.1269841 C20.7648268,14.1269841 23.5888268,15.4774127 25.238645,16.3846349 C25.7400995,16.7840317 25.8517359,17.4601587 25.5233722,17.9771111 C25.3019177,18.3206508 24.9288268,18.5254603 24.522645,18.5254603 Z M19.746645,9.39811111 C19.5939177,9.39811111 19.4775541,9.3681746 19.3920995,9.30793651 C19.310645,9.25098413 19.2677359,9.16044444 19.2731904,9.05785714 C19.3153722,8.27512698 23.6557359,5.33514286 24.0364632,5.12412698 L24.158645,5.06060317 C24.2979177,5.01606349 24.4102813,5 24.522645,5 C24.9288268,5 25.302645,5.20444444 25.522645,5.54615873 C25.8517359,6.06493651 25.7408268,6.74142857 25.2651904,7.12074603 C23.5888268,8.04731746 20.7648268,9.39811111 19.746645,9.39811111 Z M26.935731,12.8218254 L26.9200946,12.8218254 C26.8622764,12.8218254 21.2026401,12.8083175 20.7560946,11.8992698 C20.7120946,11.8101905 20.7190037,11.7086984 20.7731855,11.6225397 C21.1891855,10.9507937 26.399731,10.4765556 26.835731,10.4761905 L26.9702764,10.4772857 C27.5171855,10.5966667 27.8982764,11.0409683 27.9324583,11.5644921 C27.975731,12.176 27.5531855,12.714127 26.9513674,12.8189048 L26.935731,12.8218254 Z" id="Fill-74" fill="#FFFFFF" sketch:type="MSShapeGroup" mask="url(#mask-2)"></path>
                <path d="M29,0 L8,32 L32,32 L32,0 L29,0 Z" id="shadow" opacity="0.102203825" fill="#000000" sketch:type="MSShapeGroup" mask="url(#mask-2)"></path>
            </g>
        </g>
    </g>
</svg>
