<?xml version="1.0" encoding="UTF-8" standalone="no"?>
<svg width="32px" height="32px" viewBox="0 0 32 32" version="1.1" xmlns="http://www.w3.org/2000/svg" xmlns:xlink="http://www.w3.org/1999/xlink" xmlns:sketch="http://www.bohemiancoding.com/sketch/ns">
    <!-- Generator: Sketch 3.2.2 (9983) - http://www.bohemiancoding.com/sketch -->
    <title>Evernote</title>
    <desc>Created with Sketch.</desc>
    <defs>
        <rect id="path-1" x="0" y="0" width="32" height="32" rx="2"></rect>
    </defs>
    <g id="Sources-Icons-32px" stroke="none" stroke-width="1" fill="none" fill-rule="evenodd" sketch:type="MSPage">
        <g id="Evernote" sketch:type="MSArtboardGroup">
            <g id="source-evernote" sketch:type="MSLayerGroup">
                <mask id="mask-2" sketch:name="BG" fill="white">
                    <use xlink:href="#path-1"></use>
                </mask>
                <use id="BG" fill="#76B74B" sketch:type="MSShapeGroup" xlink:href="#path-1"></use>
                <path d="M20.15186,15.4059805 C19.84444,15.3957953 19.5496363,15.4145361 19.2741778,15.4573139 C19.3515585,14.8514981 19.6101951,14.1075709 20.5244649,14.1385339 C21.5375634,14.1723488 21.6792878,15.0996096 21.6826522,15.7274255 C21.2562172,15.543277 20.7275893,15.4255361 20.15186,15.4059805 L20.15186,15.4059805 Z M24.4822355,8.82756201 C24.3127549,7.95000498 23.7740339,7.51733759 23.286199,7.347041 C22.761356,7.16289255 21.6952686,6.97222556 20.356246,6.81944752 C19.2792244,6.69641028 18.0129565,6.70659548 17.247981,6.72941034 C17.1563017,6.11992783 16.7151476,5.56381578 16.221425,5.37111175 C14.9072148,4.85859237 12.8755508,4.98244443 12.3540722,5.12381504 C11.9394125,5.23625967 11.481016,5.46603784 11.2257438,5.82048288 C11.054581,6.05718698 10.9435565,6.3602986 10.9427154,6.78400302 C10.9427154,7.02355898 10.9494442,7.588634 10.9557524,8.09056077 C10.9620606,8.59370977 10.9692099,9.04430312 10.9692099,9.04715498 C10.9687894,9.49571129 10.5936612,9.86034153 10.129377,9.86074894 L7.99762276,9.86074894 C7.54301113,9.86074894 7.19563907,9.93489721 6.92985318,10.0514159 C6.66406729,10.168342 6.47608265,10.326009 6.33309658,10.5126019 C6.04838606,10.8829358 5.99876148,11.3396403 6.00002312,11.8061226 C6.00002312,11.8061226 6.00422859,12.1870491 6.09885173,12.9244578 C6.17791463,13.4952365 6.81672596,17.4817247 7.4235757,18.6937638 C7.65866164,19.165135 7.81552578,19.3623205 8.27728671,19.5700986 C9.30720702,19.9970623 11.659328,20.4721001 12.762003,20.6081744 C13.8621547,20.7446561 14.5531139,21.0314714 14.9644092,20.19547 C14.9656708,20.1930256 15.047257,19.9876919 15.1582815,19.6849877 C15.5157467,18.6363193 15.5657918,17.7053918 15.5657918,17.0319462 C15.5657918,16.9635016 15.6692465,16.9602424 15.6692465,17.0319462 C15.6692465,17.5073914 15.5754644,19.1903943 16.887572,19.641395 C17.4056862,19.8194324 18.4801846,19.9779141 19.5723459,20.1021736 C20.5589498,20.2125812 21.2759829,20.5886188 21.2759829,23.0424378 C21.2759829,24.535181 20.9521615,24.7396999 19.2602998,24.7396999 C17.8888951,24.7396999 17.3657342,24.7739222 17.3657342,23.7187352 C17.3657342,22.8652153 18.2371082,22.954845 18.8822278,22.954845 C19.1707232,22.954845 18.9617112,22.7470669 18.9617112,22.2206957 C18.9617112,21.6967689 19.2994107,21.3940646 18.9797947,21.3867313 C16.7471092,21.3268423 15.43374,21.3842868 15.43374,24.0886618 C15.43374,26.5441103 16.4039426,27 19.5723459,27 C22.0565187,27 22.9312571,26.9209628 23.9569719,23.8381058 C24.1605168,23.2294381 24.6512955,21.3720646 24.9486224,18.2533557 C25.1361865,16.2815005 24.7711515,10.3296757 24.4822355,8.82756201 L24.4822355,8.82756201 Z M7.8975325,9.26104422 L7.89879414,9.26104422 L10.0305484,9.26104422 C10.1525071,9.26063682 10.2509151,9.16489591 10.2513357,9.04715498 C10.2513357,9.04674757 10.2252618,7.2765594 10.2252618,6.78481784 L10.2252618,6.77911412 C10.2252618,6.37496529 10.3127356,6.02255729 10.4653943,5.72718643 L10.5381489,5.5947788 C10.5301585,5.59600102 10.5221681,5.59966769 10.5137572,5.60740845 L6.37262802,9.58615588 C6.36421708,9.592267 6.35959106,9.60041517 6.35706777,9.60937814 C6.44285942,9.56822993 6.55977157,9.51200761 6.57617291,9.50508167 C6.93658194,9.34741474 7.37395112,9.26104422 7.8975325,9.26104422 L7.8975325,9.26104422 Z" id="logo-evernote" fill="#5F5D5E" sketch:type="MSShapeGroup" mask="url(#mask-2)"></path>
                <path d="M29,0 L8,32 L32,32 L32,0 L29,0 Z" id="shadow" opacity="0.102203825" fill="#000000" sketch:type="MSShapeGroup" mask="url(#mask-2)"></path>
            </g>
        </g>
    </g>
</svg>