<svg xmlns="http://www.w3.org/2000/svg" viewBox="0 0 32 32" enable-background="new 0 0 32 32"><path d="m30 2v28h-28v-28h28m0-2h-28c-1.1 0-2 .9-2 2v28c0 1.1.9 2 2 2h28c1.1 0 2-.9 2-2v-28c0-1.1-.9-2-2-2z" fill="#bcc3ca"/><g fill="#1c75bc"><path d="m20.8 10.2c-1.1 2.7-2.8 5.2-4.5 7v4.2l-.2.1h-.3c-5.9.4-9.4 3.3-9.4 3.3 6.6-4.1 14.1-2.2 14.1-2.2l.6-.1v-12.2l-.3-.1"/><path d="m25.2 13.1c0 0-.6.8-2.6 2.5-.5.4-.7.6-1.1 1v6.4l-.4.1c0 0-1.7-.5-4.5-.6-2.8-.1-6.9.7-10.1 2.4h.1c0 0 8.5-3.3 18.5.1l.4-.1v-11.6l-.3-.2"/><path d="m15.9 7.2l-.5-.1c0 .4-.5 3.4-2.7 7.6-1.3 2.5-3.3 5.6-6.2 8.7v1.4c0 0 3.2-3 8.9-3.6h.2l.3-.1v-13.9c0 0 0 0 0 0"/></g></svg>