<svg xmlns="http://www.w3.org/2000/svg" viewBox="0 0 32 32" enable-background="new 0 0 32 32">
  <path fill="#4801b9" d="m30 32h-28c-1.1 0-2-.9-2-2v-28c0-1.1.9-2 2-2h28c1.1 0 2 .9 2 2v28c0 1.1-.9 2-2 2"/>
  <g fill="#390094">
    <path d="m16 25.3c-7.5 0-15 2.7-15 2.7v3h30v-3c0 0-7.5-2.7-15-2.7"/>
    <path d="M16,6.7C8.5,6.7,1,4,1,4V1h30v3C31,4,23.5,6.7,16,6.7z"/>
  </g>
  <path fill="#fff"
        d="m14.3 28l.2-10.2-8.5-13.8c0 0 1.7.5 3.2 0 .4.7 6.7 10.6 6.7 10.6l6.7-10.6c0 0 1.7.4 3.4 0-.5.6-8.6 13.8-8.6 13.8l.2 10.2c0 0-1.6-.3-3.3 0"/>
</svg>
