<svg enable-background="new 0 0 363.17 259.45" viewBox="0 0 363.17 259.45" xmlns="http://www.w3.org/2000/svg"><g fill="#03363d"><path d="m173.82 40.51v112.86h-93.48z"/><path d="m173.82 0c0 25.814-20.926 46.74-46.74 46.74s-46.74-20.926-46.74-46.74z"/><path d="m189.22 153.37c0-25.814 20.926-46.74 46.74-46.74s46.74 20.926 46.74 46.74z"/><path d="m189.22 112.86v-112.86h93.49z"/><path d="m241.51 249.92c4.807.107 9.462-1.69 12.95-5l6.42 6.93c-4.24 4.36-10.12 7.6-19.26 7.6-15.67 0-25.79-10.39-25.79-24.46-.261-13.252 10.27-24.207 23.522-24.468.283-.006.565-.006.848-.002 15.56 0 24.38 11.84 23.61 28.26h-36.78c1.3 6.82 6.09 11.17 14.47 11.17m11.21-19c-1-6.37-4.79-11.06-12.41-11.06-7.07 0-12 4-13.27 11.06z"/><path d="m0 249.41 28.31-28.76h-27.64v-9.02h40.76v9.21l-28.31 28.75h28.69v9.03h-41.81z"/><path d="m73.6 249.92c4.807.107 9.462-1.69 12.95-5l6.42 6.93c-4.24 4.36-10.12 7.6-19.26 7.6-15.67 0-25.79-10.39-25.79-24.46-.261-13.252 10.27-24.207 23.522-24.468.283-.006.565-.006.848-.002 15.56 0 24.38 11.84 23.61 28.26h-36.78c1.3 6.82 6.09 11.17 14.47 11.17m11.21-19c-1-6.37-4.79-11.06-12.41-11.06-7.07 0-12 4-13.27 11.06z"/><path d="m157.02 234.98c0-15 11.23-24.44 23.59-24.44 6.008-.08 11.744 2.501 15.67 7.05v-27.72h10v68.61h-10v-6.49c-3.853 4.739-9.652 7.47-15.76 7.42-12 0-23.5-9.49-23.5-24.43m39.82-.09c-.221-8.237-7.078-14.736-15.315-14.515s-14.736 7.078-14.515 15.315c.217 8.083 6.833 14.522 14.919 14.52 8.591 0 14.911-6.86 14.911-15.32"/><path d="m270.32 248.51 9.06-4.7c2.441 4.352 7.092 6.993 12.08 6.86 5.66 0 8.59-2.91 8.59-6.2 0-3.76-5.47-4.61-11.42-5.83-8-1.69-16.33-4.33-16.33-14 0-7.43 7.07-14.29 18.21-14.19 8.77 0 15.29 3.48 19 9.11l-8.4 4.61c-2.359-3.494-6.357-5.522-10.57-5.36-5.38 0-8.12 2.63-8.12 5.64 0 3.38 4.34 4.32 11.14 5.83 7.74 1.69 16.51 4.23 16.51 14 0 6.48-5.66 15.22-19.06 15.13-9.81 0-16.7-3.95-20.67-10.9"/><path d="m337.22 237.61-7.93 8.65v12.21h-10v-68.61h10v44.93l21.23-23.31h12.18l-18.41 20.11 18.88 26.88h-11.32z"/><path d="m126.79 210.53c-11.89 0-21.85 7.71-21.85 20.49v27.45h10.19v-26.18c0-7.71 4.43-12.32 12-12.32s11.33 4.61 11.33 12.32v26.18h10.14v-27.45c0-12.78-10-20.49-21.85-20.49"/></g></svg>