<svg enable-background="new 0 0 73.3 75.8" viewBox="0 0 73.3 75.8" xmlns="http://www.w3.org/2000/svg" xmlns:xlink="http://www.w3.org/1999/xlink"><linearGradient id="a"><stop offset=".18" stop-color="#0052cc"/><stop offset="1" stop-color="#2684ff"/></linearGradient><linearGradient id="b" gradientTransform="matrix(1 0 0 -1 0 78)" gradientUnits="userSpaceOnUse" x1="34.6324" x2="18.9924" xlink:href="#a" y1="62.655" y2="47.015"/><linearGradient id="c" gradientTransform="matrix(1 0 0 -1 0 78)" gradientUnits="userSpaceOnUse" x1="38.7774" x2="54.3874" xlink:href="#a" y1="17.72" y2="33.33"/><path d="m72.4 35.8-32.6-32.6-3.2-3.2-24.5 24.5-11.2 11.3c-1.2 1.2-1.2 3.1 0 4.2l22.4 22.4 13.3 13.3 24.5-24.5.4-.4 10.9-10.8c1.2-1.2 1.2-3.1 0-4.2zm-35.8 13.3-11.2-11.2 11.2-11.2 11.2 11.2z" fill="#2684ff"/><path d="m36.6 26.7c-7.3-7.3-7.4-19.2-.1-26.6l-24.5 24.5 13.3 13.3z" fill="url(#b)"/><path d="m47.9 37.8-11.3 11.3c7.4 7.4 7.4 19.3 0 26.7l24.6-24.6z" fill="url(#c)"/></svg>