<svg xmlns="http://www.w3.org/2000/svg" viewBox="0 0 32 32" enable-background="new 0 0 32 32">
  <defs>
    <filter id="1" filterUnits="userSpaceOnUse" x="4" y="5" width="23.9" height="22.8">
      <feColorMatrix type="matrix" values="1 0 0 0 0  0 1 0 0 0  0 0 1 0 0  0 0 0 1 0"/>
    </filter>
    <mask maskUnits="userSpaceOnUse" x="4" y="5" width="23.9" height="22.8" id="0">
      <g filter="url(#1)">
        <path fill="#fff" d="m2 0h28c1.1 0 2 .9 2 2v28c0 1.1-.9 2-2 2h-28c-1.1 0-2-.9-2-2v-28c0-1.1.9-2 2-2"/>
      </g>
    </mask>
  </defs>
  <path fill="#189cc7" d="m2 0h28c1.1 0 2 .9 2 2v28c0 1.1-.9 2-2 2h-28c-1.1 0-2-.9-2-2v-28c0-1.1.9-2 2-2"/>
  <path mask="url(#0)" fill="#fff"
        d="m17.1 9.4c0 0 0-.1 0 0 .3-.7-.1-1.4-.7-1.6-.6-.2-1.3.1-1.5.8 0 0 0 0 0 .1-.4 1.2-4 10.5-4 10.5h-.1l-4.2-10.7c0 0 0 0 0 0l-.1-.2c-.3-.6-1-.9-1.6-.7-.7.2-1 1-.8 1.6.5 1.3 5.4 13.1 5.4 13.1l-.3.7c-.5 1.5-1.1 2.4-2.7 2.4-.2 0-.7 0-.7 0-.5 0-1 .3-1.1.8-.2.6.2 1.2.8 1.4.4.1.9.1 1.3.1 3 0 3.9-1.7 4.9-4.2 0 0 5.4-13.4 5.6-14-.2 0-.2 0-.2-.1m7.4 9.1c-.1 0-.2 0-.3 0l-.2-.1c-.4-.2-4.7-3.2-4.8-3.9 0-.1 0-.2.1-.3.1-.1.2-.1.4-.1 1 0 3.8 1.4 5.5 2.3.5.4.6 1.1.3 1.6-.2.3-.6.5-1 .5m-4.8-9.1c-.2 0-.3 0-.4-.1-.1-.1-.1-.1-.1-.3 0-.8 4.4-3.7 4.8-3.9l.1-.1c.2 0 .3 0 .4 0 .4 0 .8.2 1 .5.3.5.2 1.2-.3 1.6-1.6.9-4.4 2.3-5.5 2.3m7.2 3.4c-.1 0-5.7 0-6.2-.9 0-.1 0-.2 0-.3.4-.7 5.6-1.1 6.1-1.1h.1c.5.1.9.6 1 1.1.1.6-.3 1.1-1 1.2"/>
</svg>
