<?xml version="1.0" encoding="UTF-8" standalone="no"?>
<svg width="32px" height="32px" viewBox="0 0 32 32" version="1.1" xmlns="http://www.w3.org/2000/svg" xmlns:xlink="http://www.w3.org/1999/xlink" xmlns:sketch="http://www.bohemiancoding.com/sketch/ns">
    <!-- Generator: Sketch 3.2.2 (9983) - http://www.bohemiancoding.com/sketch -->
    <title>OracleUCM</title>
    <desc>Created with Sketch.</desc>
    <defs>
        <rect id="path-1" x="0" y="0" width="32" height="32" rx="2"></rect>
    </defs>
    <g id="Sources-Icons-32px" stroke="none" stroke-width="1" fill="none" fill-rule="evenodd" sketch:type="MSPage">
        <g id="OracleUCM" sketch:type="MSArtboardGroup">
            <g id="source-oracle-ucm" sketch:type="MSLayerGroup">
                <mask id="mask-2" sketch:name="BG" fill="white">
                    <use xlink:href="#path-1"></use>
                </mask>
                <use id="BG" fill="#DB3C2E" sketch:type="MSShapeGroup" xlink:href="#path-1"></use>
                <path d="M21.2338168,21.3943807 L10.7664176,21.3943807 C8.01512088,21.3943807 6.40691575,18.9791379 6.40691575,16.0001269 C6.40691575,13.0211159 8.01512088,10.6058731 10.7664176,10.6058731 L21.2338168,10.6058731 C23.9851136,10.6058731 25.5933187,13.0211159 25.5933187,16.0001269 C25.5933187,18.9791379 23.9851136,21.3943807 21.2338168,21.3943807 L21.2338168,21.3943807 Z M21.2338168,8 L10.7664176,8 C6.68589011,8 4,11.5818698 4,16.0001269 C4,20.418384 6.68589011,24 10.7664176,24 L21.2338168,24 C25.3143443,24 28,20.418384 28,16.0001269 C28,11.5818698 25.3143443,8 21.2338168,8 L21.2338168,8 Z" id="logo-oracle" fill="#FFFFFF" sketch:type="MSShapeGroup" mask="url(#mask-2)"></path>
                <path d="M29,0 L8,32 L32,32 L32,0 L29,0 Z" id="shadow" opacity="0.102203825" fill="#000000" sketch:type="MSShapeGroup" mask="url(#mask-2)"></path>
            </g>
        </g>
    </g>
</svg>