<?xml version="1.0" encoding="UTF-8" standalone="no"?>
<svg width="32px" height="32px" fill="#059CDA" viewBox="0 0 32 32" version="1.1" xmlns="http://www.w3.org/2000/svg" xmlns:xlink="http://www.w3.org/1999/xlink" xmlns:sketch="http://www.bohemiancoding.com/sketch/ns">
    <rect id="path-1" x="0" y="0" width="32" height="32" rx="2"></rect>
    <g id="Sources-Icons-32px" stroke="none" stroke-width="1" fill="none" fill-rule="evenodd" sketch:type="MSPage">
        <g id="Salesforce" sketch:type="MSArtboardGroup">
            <g id="source-salesforce" sketch:type="MSLayerGroup">
                <g id="Salesforce[UNOFFICIAL]">
                    <g transform="translate(2.000000, 7.000000)">
                        <g id="Essai_01" stroke-width="1" fill="none" sketch:type="MSLayerGroup" transform="translate(0.302439, -0.123894)">
                            <g id="Group"></g>
                        </g>
                        <path d="M6.93666829,9.45327434 C6.93666829,9.99247788 7.9574,9.76853982 7.9574,9.76853982 L7.9574,9.05504425 C7.9574,9.05504425 6.93666829,8.83097345 6.93666829,9.45327434 L6.93666829,9.45327434 Z" id="Shape" fill="#FFFFFF" sketch:type="MSShapeGroup"></path>
                        <path d="M17.4541561,8.10539823 C17.0151756,8.10539823 16.854361,8.5069469 16.854361,8.94420354 C16.854361,9.41053097 17.0151756,9.81553097 17.4541561,9.81553097 C17.9151317,9.81553097 18.0615902,9.41637168 18.0615902,8.94420354 C18.0615902,8.50110619 17.9151317,8.10539823 17.4541561,8.10539823 L17.4541561,8.10539823 Z" id="Shape" fill="#FFFFFF" sketch:type="MSShapeGroup"></path>
                        <path d="M23.8090341,8.10088496 C23.249278,8.10088496 23.2081854,8.68455752 23.2081854,8.68455752 L24.3371805,8.68455752 C24.2930585,8.17575221 23.9516732,8.10088496 23.8090341,8.10088496 L23.8090341,8.10088496 Z" id="Shape" fill="#FFFFFF" sketch:type="MSShapeGroup"></path>
                        <path d="M21.7862732,2.46088496 C20.9341268,2.46088496 20.124522,2.64460177 19.392361,2.97420354 C18.5504878,1.46199115 16.9692098,0.443584071 15.1569171,0.443584071 C13.7937463,0.443584071 12.5612293,1.02048673 11.6758927,1.95022124 C10.7016537,0.66619469 9.16489268,-0.162256637 7.43597073,-0.162256637 C4.49099512,-0.162256637 2.10366829,2.24066372 2.10366829,5.20535398 C2.10366829,5.9649115 2.26013659,6.68623894 2.54225366,7.34013274 C1.17262927,8.14707965 0.250941463,9.6549115 0.250941463,11.3823009 C0.250941463,13.9597788 2.30241463,16.0486283 4.83343415,16.0486283 C5.15611707,16.0486283 5.47142439,16.014646 5.77514146,15.9498673 C6.47029268,17.8510177 8.28219024,19.2067257 10.4076829,19.2067257 C12.4486195,19.2067257 14.1996683,17.9570796 14.9514537,16.1748673 C15.5229317,16.455885 16.1656634,16.614115 16.8444829,16.614115 C18.4659317,16.614115 19.8792829,15.7134513 20.6207951,14.3805752 C20.9976098,14.4573009 21.3874634,14.4975221 21.7864049,14.4975221 C25.0555122,14.4975221 27.7053317,11.8034956 27.7053317,8.48013274 C27.7053317,5.15544248 25.0553805,2.46088496 21.7862732,2.46088496 L21.7862732,2.46088496 Z M5.21209268,10.2579646 C4.93498049,10.2579646 4.54539024,10.2040708 4.21612195,9.95106195 L4.39313659,9.54460177 C4.5248439,9.64827434 4.8541122,9.83013274 5.17837561,9.83013274 C5.37764878,9.83013274 5.65265366,9.73535398 5.65265366,9.54871681 C5.65265366,9.4350885 5.56282927,9.27738938 5.12582439,9.17955752 C4.97765366,9.14637168 4.2944878,8.9970354 4.2944878,8.43287611 C4.2944878,8.03146018 4.57844878,7.65300885 5.20405854,7.65300885 C5.65686829,7.65300885 5.95518537,7.82783186 6.08491707,7.89353982 L5.92844878,8.27929204 C5.66503415,8.10924779 5.37343415,8.06358407 5.19589268,8.06358407 C4.92009756,8.06358407 4.78839024,8.22539823 4.78839024,8.34977876 C4.78839024,8.62349558 5.21182927,8.66053097 5.4716878,8.75212389 C5.87418537,8.88765487 6.15498537,9.1130531 6.15498537,9.49044248 C6.15472195,9.89199115 5.81807805,10.2579646 5.21209268,10.2579646 L5.21209268,10.2579646 Z M7.47996098,10.2497345 C6.87977073,10.2497345 6.39337561,10.0423894 6.39337561,9.45327434 C6.39337561,8.9140708 6.87977073,8.59867257 7.47996098,8.59867257 C7.66316585,8.59867257 7.83240976,8.60517699 7.98202927,8.62787611 L7.98202927,8.54889381 C7.98202927,8.06769912 7.44703415,8.07778761 7.44703415,8.07778761 C6.98605854,8.07778761 6.71447805,8.28340708 6.71447805,8.28340708 L6.54167805,7.88517699 C6.54167805,7.88517699 6.9368,7.64464602 7.43886829,7.64464602 C8.50899024,7.64464602 8.48106829,8.44933628 8.48106829,8.44933628 L8.48106829,8.87252212 L8.4812,10.0506195 C8.30313171,10.175 7.93000488,10.2497345 7.47996098,10.2497345 L7.47996098,10.2497345 Z M9.49679512,10.1915929 L8.98642927,10.1915929 L8.98642927,6.69048673 L9.49679512,6.69048673 L9.49679512,10.1915929 L9.49679512,10.1915929 Z M12.1258049,9.09393805 L10.4984293,9.09393805 L10.4984293,9.14637168 C10.4984293,9.56119469 10.8174244,9.75460177 11.1702683,9.80451327 C11.4834683,9.84884956 11.9005854,9.67176991 11.9005854,9.67176991 L12.0652195,10.07 C12.0652195,10.07 11.7798098,10.2470796 11.2311171,10.2470796 C10.1609951,10.2470796 9.92497561,9.56119469 9.92497561,8.93066372 C9.92497561,8.17840708 10.3310293,7.65460177 11.114161,7.65460177 C12.0101659,7.65446903 12.2245854,8.48809735 12.1258049,9.09393805 L12.1258049,9.09393805 Z M12.4415073,9.95106195 L12.618522,9.54460177 C12.7502293,9.64827434 13.0794976,9.83013274 13.403761,9.83013274 C13.6030341,9.83013274 13.878039,9.73535398 13.878039,9.54871681 C13.878039,9.4350885 13.7882146,9.27738938 13.3512098,9.17955752 C13.203039,9.14637168 12.5198732,8.9970354 12.5198732,8.43287611 C12.5198732,8.03146018 12.8038341,7.65300885 13.4294439,7.65300885 C13.8822537,7.65300885 14.1805707,7.82783186 14.3103024,7.89353982 L14.1538341,8.27929204 C13.8904195,8.10924779 13.5988195,8.06358407 13.421278,8.06358407 C13.1454829,8.06358407 13.0137756,8.22539823 13.0137756,8.34977876 C13.0137756,8.62349558 13.4372146,8.66053097 13.6970732,8.75212389 C14.0995707,8.88765487 14.3803707,9.1130531 14.3803707,9.49044248 C14.3803707,9.89172566 14.0437268,10.2578319 13.4378732,10.2578319 C13.1604976,10.2579646 12.7707756,10.2040708 12.4415073,9.95106195 L12.4415073,9.95106195 Z M16.1760683,8.13473451 L15.6355415,8.12464602 L15.2379171,10.3366814 C15.1171415,10.884646 14.9717366,11.1296903 14.7395366,11.249823 C14.3258439,11.4638053 13.8133707,11.249823 13.8133707,11.249823 L13.9844585,10.8438938 C14.648922,11.0673009 14.6993659,10.4684956 14.7295268,10.3061504 C14.7596878,10.1438053 15.1220146,8.12451327 15.1220146,8.12451327 L14.7092439,8.12451327 L14.81,7.70849558 L15.2026195,7.70849558 C15.2026195,7.70849558 15.2236927,7.0519469 15.6045902,6.7899115 C16.0709659,6.4690708 16.6321707,6.70402655 16.6321707,6.70402655 L16.4610829,7.12004425 C16.0709659,7.01862832 15.8770927,7.19199115 15.8770927,7.19199115 C15.7436732,7.34411504 15.7044244,7.72880531 15.7044244,7.72880531 L16.2697122,7.72880531 L16.1760683,8.13473451 L16.1760683,8.13473451 Z M17.4541561,10.2580973 C16.8177463,10.2580973 16.3017171,9.82668142 16.3017171,8.94168142 C16.3017171,8.1120354 16.8177463,7.63561947 17.4541561,7.63561947 C18.0905659,7.63561947 18.6065951,8.1010177 18.6065951,8.94168142 C18.6065951,9.83769912 18.0905659,10.2580973 17.4541561,10.2580973 L17.4541561,10.2580973 Z M20.3187902,8.18942478 C20.3187902,8.18942478 19.5268341,7.87376106 19.5268341,9.04123894 L19.5268341,10.2059292 L19.024239,10.2059292 L19.024239,7.70278761 L19.5265707,7.70278761 L19.5265707,7.94146018 C19.940922,7.5059292 20.5383463,7.74699115 20.5383463,7.74699115 L20.3187902,8.18942478 L20.3187902,8.18942478 Z M21.7400439,10.2525221 C21.1036341,10.2525221 20.549278,9.82668142 20.549278,8.94168142 C20.549278,8.06783186 21.1199659,7.64743363 21.7455756,7.64743363 C22.188639,7.64743363 22.3602537,7.73039823 22.4808976,7.79119469 L22.3382585,8.17840708 C22.0857756,8.08986726 21.904678,8.09066372 21.8004976,8.09544248 C21.3230585,8.11761062 21.101922,8.5069469 21.101922,8.94420354 C21.101922,9.44504425 21.4107756,9.80451327 21.7511073,9.80451327 C22.1077707,9.80451327 22.1845561,9.77132743 22.3491902,9.69938053 L22.5028927,10.0755752 C22.3711854,10.1751327 22.1516293,10.2525221 21.7400439,10.2525221 L21.7400439,10.2525221 Z M24.835561,9.09393805 L23.2081854,9.09393805 L23.2081854,9.14637168 C23.2081854,9.56119469 23.5271805,9.75460177 23.8800244,9.80451327 C24.1932244,9.84884956 24.6103415,9.67176991 24.6103415,9.67176991 L24.7749756,10.07 C24.7749756,10.07 24.4895659,10.2470796 23.9408732,10.2470796 C22.8707512,10.2470796 22.6347317,9.56119469 22.6347317,8.93066372 C22.6347317,8.17840708 23.0407854,7.65460177 23.8239171,7.65460177 C24.719922,7.65446903 24.9343415,8.48809735 24.835561,9.09393805 L24.835561,9.09393805 Z" id="Shape" fill="#FFFFFF" sketch:type="MSShapeGroup"></path>
                        <path d="M11.099278,8.10088496 C10.539522,8.10088496 10.4984293,8.68455752 10.4984293,8.68455752 L11.6274244,8.68455752 C11.5833024,8.17575221 11.2419171,8.10088496 11.099278,8.10088496 L11.099278,8.10088496 Z" id="Shape" fill="#FFFFFF" sketch:type="MSShapeGroup"></path>
                    </g>
                </g>
                <rect id="Rectangle-254" fill="#FFFFFF" sketch:type="MSShapeGroup" x="6" y="13" width="22" height="6"></rect>
            </g>
            <path d="M29,0 L8,32 L32,32 L32,0 L29,0 Z" id="shadow" opacity="0.102203825" fill="#000000" sketch:type="MSShapeGroup"></path>
        </g>
    </g>
</svg>
