<svg enable-background="new 0 0 32 32" viewBox="0 0 32 32" xmlns="http://www.w3.org/2000/svg"><path d="m8.3 15.5-4.7-.5v-9.2l4.5-.5v1.9l-2.7.2v2.1l2.6-.1v1.8h-2.6v2.2l2.9.2zm-8.3-13.3v17.5l12.3 2.2v-22zm20.4 5.1v1.8c0 .1 0 .1-.1.2l-1.1 1.2c-.1.1-.2.1-.3 0l-.4-.4c-.1-.1-.1-.2 0-.3l.5-.5v-1.9h-1.6c-1.4 1.1-2.5 3-2.8 2.7-.4-.4 2.3-4.1 2.6-4.1h2.9c.2 0 .3.1.3.3zm0 7.3v1.1c0 .2-.1.3-.3.3h-2.8c-.1 0-.1 0-.2-.1l-1.1-1.2c-.1-.1-.1-.2 0-.3l.4-.4c.1-.1.2-.1.3 0l.5.5h1.8v-1.6c-1-1.4-2.9-2.6-2.6-3 .4-.4 3.9 2.4 3.9 2.7zm.5-10.3h-7.4v1.6h.3c.1 0 .1 0 .2.1l1.1 1.2c.1.1.1.2 0 .3l-.4.4c-.1.1-.2.1-.3 0l-.5-.5h-.4v3.1c.8.7 1.4 1.3 1.2 1.5-.1.1-.6-.1-1.2-.5v3.2h.2c1.4-1.1 2.5-3 2.8-2.7.4.4-2.3 4.1-2.6 4.1h-.4v1.6h7.4c.6 0 1.1-.5 1.1-1.2v-11.1c0-.6-.5-1.1-1.1-1.1" fill="#1c6db5" transform="translate(5 5)"/><path d="m30 2v28h-28v-28zm0-2h-28c-1.1 0-2 .9-2 2v28c0 1.1.9 2 2 2h28c1.1 0 2-.9 2-2v-28c0-1.1-.9-2-2-2z" fill="#bcc3ca"/></svg>