<svg enable-background="new 0 0 32 32" viewBox="0 0 32 32" xmlns="http://www.w3.org/2000/svg"><path d="m2 0h28c1.1 0 2 .9 2 2v28c0 1.1-.9 2-2 2h-28c-1.1 0-2-.9-2-2v-28c0-1.1.9-2 2-2" fill="#39393a"/><path d="m18.6 12-1.4 4.7-.5-1.6c-.9 0-1.7-.1-2.5-.1l1.8 5h2.2l3-8.1h-2.6zm-2.9 0h-2.6l.7 2h2.5zm-3.7 2v-2h-2.4v1.8c.7.1 1.5.1 2.4.2m-2.4.7v5.4h2.4v-5.2c-.9 0-1.7-.1-2.4-.2m18.6 1.8-4.8.3s.1.9 1 1.2c1 .4 2.4-.1 2.4-.1l1.2 1.7s-.9.5-2.7.5c-2.3 0-4.1-1.4-4.2-3.9 0-.4 0-.7.1-1.1 3-.1 5.1-.3 5.1-.3s0-.7-.6-1c-.3-.2-.9-.2-1.1-.2-.1 0-1.3.1-3 .3.6-1.2 1.7-2 3.2-2.1 2.3 0 3.1 1.5 3.3 2.9.2.7.1 1.8.1 1.8m-20.3-2c-1.2-.2-2.1-.3-2.4-.4v6.2s0 .5-.2.9c-.4.5-.9.5-.9.5l.9 2.1s.5-.1 1-.3c.6-.3 1-.6 1.4-1.3.3-.6.3-1.3.3-1.3v-6.4zm0-.8v-1.7h-2.5v1.5c.5 0 1.3.1 2.5.2" fill="#fff"/></svg>