<svg enable-background="new 0 0 64 64" viewBox="0 0 64 64"><path d="m60 0h-56c-2.2 0-4 1.8-4 4v56c0 2.2 1.8 4 4 4h56c2.2 0 4-1.8 4-4v-56c0-2.2-1.8-4-4-4" fill="#1f263f"/><path d="m32.2 13c-8.6 0-17.2 2.2-17.2 6.4v25.2c0 4.2 8.6 6.4 17.2 6.4s17.2-2.2 17.2-6.4v-25.2c0-4.2-8.6-6.4-17.2-6.4zm15.2 19c0 1.8-5.8 4.4-15.2 4.4s-15.2-2.6-15.2-4.4v-9.5c3 2.1 9.1 3.2 15.2 3.2s12.2-1.1 15.2-3.2zm-15.2-17c9.3 0 15.2 2.6 15.2 4.4s-5.9 4.4-15.2 4.4-15.2-2.6-15.2-4.4 5.9-4.4 15.2-4.4zm0 34c-9.4 0-15.2-2.6-15.2-4.4v-9.4c3 2.1 9.1 3.2 15.2 3.2s12.2-1.1 15.2-3.2v9.5c0 1.7-5.8 4.3-15.2 4.3z" fill="#fff"/></svg>