<?xml version="1.0" encoding="UTF-8" standalone="no"?>
<svg width="32px" height="32px" viewBox="0 0 32 32" version="1.1" xmlns="http://www.w3.org/2000/svg" xmlns:xlink="http://www.w3.org/1999/xlink" xmlns:sketch="http://www.bohemiancoding.com/sketch/ns">
    <defs>
        <rect id="path-1" x="0" y="0" width="32" height="32" rx="2"></rect>
    </defs>
    <g id="Sources-Icons-32px" stroke="none" stroke-width="1" fill="none" fill-rule="evenodd" sketch:type="MSPage">
        <g id="Twitter" sketch:type="MSArtboardGroup">
            <g id="source-twitter" sketch:type="MSLayerGroup">
                <mask id="mask-2" sketch:name="BG" fill="white">
                    <use xlink:href="#path-1"></use>
                </mask>
                <use id="BG" fill="#00B0ED" sketch:type="MSShapeGroup" xlink:href="#path-1"></use>
                <path d="M12.9189071,26 C10.3699843,26 7.99745419,25.2059745 6,23.8450567 C6.35310728,23.8893545 6.71241084,23.9120165 7.07670361,23.9120165 C9.19132375,23.9120165 11.1375178,23.1451854 12.6822415,21.8587529 C10.7071583,21.8200137 9.04027945,20.4332697 8.46595706,18.5276085 C8.74149018,18.5836221 9.0242657,18.6136386 9.31508834,18.6136386 C9.72677859,18.6136386 10.125513,18.5550595 10.5042906,18.4454266 C8.43940159,18.004843 6.88365339,16.0661722 6.88365339,13.7421617 C6.88365339,13.7219797 6.88365339,13.7018832 6.88397527,13.6818722 C7.49257837,14.0411292 8.18849263,14.2568886 8.92842459,14.2817741 C7.71733421,13.4216439 6.92042869,11.9534877 6.92042869,10.2894121 C6.92042869,9.41038267 7.14301181,8.5864262 7.53152639,7.87800322 C9.75767951,10.7799377 13.0834705,12.6895327 16.8347123,12.889557 C16.7577819,12.5385097 16.7177878,12.1724113 16.7177878,11.7964785 C16.7177878,9.14758887 18.7387395,7 21.2314935,7 C22.5296536,7 23.7026812,7.58254193 24.5260617,8.51476294 C25.5541607,8.29960212 26.5201361,7.90040868 27.3922016,7.35079081 C27.0551886,8.47080719 26.3395589,9.41081025 25.4076228,10.0044694 C26.3206482,9.88850831 27.190541,9.6306745 28,9.24918309 C27.3948572,10.2110785 26.6295768,11.0559011 25.7477742,11.7321697 C25.7564651,11.9378381 25.7608106,12.1447038 25.7608106,12.3526812 C25.7608106,18.691117 21.2209518,26 12.9189071,26" id="Twitter-logo" fill="#FFFFFF" sketch:type="MSShapeGroup" mask="url(#mask-2)"></path>
                <path d="M29,0 L8,32 L32,32 L32,0 L29,0 Z" id="shadow" opacity="0.102203825" fill="#000000" sketch:type="MSShapeGroup" mask="url(#mask-2)"></path>
            </g>
        </g>
    </g>
</svg>
