<svg viewBox="0 0 64 64" xmlns="http://www.w3.org/2000/svg"><g fill="none" fill-rule="evenodd"><path d="M0 0h64v64H0z"/><path d="M32.017 8A23.964 23.964 0 0156 31.983v.034C55.99 45.272 45.238 56.009 31.983 56 18.728 55.99 7.991 45.238 8 31.983 8.01 18.728 18.762 7.991 32.017 8zm0 6.547c-9.63 0-17.437 7.806-17.437 17.436 0 9.63 7.807 17.437 17.437 17.437a17.427 17.427 0 0017.436-17.437l-.003-.327c-.175-9.479-7.913-17.109-17.433-17.109zM43.875 38.63l2.538 1.604a16.562 16.562 0 01-29.36-1.203c3.506 4.443 8.417 7.048 13.661 7.048l.36-.002a15.244 15.244 0 0012.8-7.447zm4.676-7.85c.034.402.034.802.067 1.17a16.586 16.586 0 01-1.804 7.482l-3.273-2.07-.234.4a14.352 14.352 0 01-12.593 7.449h-.033c-2.913 0-5.765-.834-8.218-2.405 2.04.77 4.2 1.166 6.38 1.169a15.985 15.985 0 007.817-1.97c4.142-2.306 6.68-6.38 7.014-11.224zm-3.106-8.517a16.565 16.565 0 013.04 7.683h-5.612l-.034.4c-.2 4.777-2.538 8.652-6.58 10.923a14.575 14.575 0 01-5.345 1.737c4.142-1.536 7.85-4.676 9.42-8.284a9.02 9.02 0 00-.635-8.818z" fill="#FE2911" fill-rule="nonzero"/></g></svg>