<svg xmlns="http://www.w3.org/2000/svg" viewBox="0 0 32 32" enable-background="new 0 0 32 32">
  <defs>
    <filter id="1" filterUnits="userSpaceOnUse" x="6" y="6" width="20" height="21">
      <feColorMatrix type="matrix" values="1 0 0 0 0  0 1 0 0 0  0 0 1 0 0  0 0 0 1 0"/>
    </filter>
    <mask maskUnits="userSpaceOnUse" x="6" y="6" width="20" height="21" id="0">
      <g filter="url(#1)">
        <path fill="#fff" d="m2 0h28c1.1 0 2 .9 2 2v28c0 1.1-.9 2-2 2h-28c-1.1 0-2-.9-2-2v-28c0-1.1.9-2 2-2"/>
      </g>
    </mask>
  </defs>
  <path fill="#0077b5" d="m2 0h28c1.1 0 2 .9 2 2v28c0 1.1-.9 2-2 2h-28c-1.1 0-2-.9-2-2v-28c0-1.1.9-2 2-2"/>
  <path mask="url(#0)" fill="#fff"
        d="m6 13h4v14h-4v-14m2.5-7c1.4 0 2.5 1.1 2.5 2.5 0 1.4-1.1 2.5-2.5 2.5-1.4 0-2.5-1.1-2.5-2.5 0-1.4 1.1-2.5 2.5-2.5m4.5 7.3h4v1.9h.1c.5-1.1 1.9-2.2 3.9-2.2 4.2 0 5 2.8 5 6.5v7.5h-4.2v-6.6c0-1.6 0-3.6-2.2-3.6-2.2 0-2.5 1.7-2.5 3.5v6.7h-4.1v-13.7"/>
</svg>
