<svg xmlns="http://www.w3.org/2000/svg" viewBox="0 0 32 32" enable-background="new 0 0 32 32">
  <path fill="#bcc3ca" d="m30 2v28h-28v-28h28m0-2h-28c-1.1 0-2 .9-2 2v28c0 1.1.9 2 2 2h28c1.1 0 2-.9 2-2v-28c0-1.1-.9-2-2-2z"/>
  <path fill="#e05243" d="m25.6 9.3v13.5l-1.6.7v-15z"/>
  <g fill="#8c3123">
    <path d="m16 10.5v11.1l8 1.9v-15z"/>
    <path d="m6.4 9.3v13.5l1.6.7v-15z"/>
  </g>
  <path fill="#e05243" d="m16 10.5v11.1l-8 1.9v-15z"/>
  <g fill="#8c3123">
    <path d="m12.5 6.2v4.9l3.5-.8v-5.9z"/>
    <path d="m12.5 20.9v4.9l3.5 1.8v-5.9z"/>
    <path d="m12.5 13.5v4.9l3.5.5v-5.8z"/>
  </g>
  <g fill="#e05243">
    <path d="m19.5 13.5v4.9l-3.5.5v-5.8z"/>
    <path d="m19.5 6.2v4.9l-3.5-.8v-5.9z"/>
    <path d="m19.5 20.9v4.9l-3.5 1.8v-5.9z"/>
  </g>
  <path fill="#5e1f18" d="m16 10.3l-3.5.8 3.5.7 3.5-.7z"/>
  <path fill="#f2b0a9" d="m16 20.2l-3.5.7 3.5.8 3.5-.8z"/>
</svg>
