<svg enable-background="new 0 0 64 64" viewBox="0 0 64 64"><path d="m60 0h-56c-2.2 0-4 1.8-4 4v56c0 2.2 1.8 4 4 4h56c2.2 0 4-1.8 4-4v-56c0-2.2-1.8-4-4-4" fill="#1f263f"/><path d="m51 33c0-5.7-2.5-11.1-6.9-14.7-3.3-2.7-7.3-4.2-11.5-4.3h-.9c-.1 0-.1 0-.2 0-10.5.6-18.6 9.6-18 20 .5 9.7 8.2 17.4 17.9 17.9h.2l.4.1h.6c10.3-.3 18.4-8.7 18.4-19zm-7.2 12.2c0-.1 0-.1 0 0-1.4-1.1-2.8-2-4.4-2.6 1.1-2.7 1.7-5.6 1.9-8.5h7.7c-.3 4.1-2.1 8.1-5.2 11.1zm-11.8 4.8c-1.9-1.8-3.5-4-4.7-6.3 3.1-.9 6.4-.9 9.5 0-1.2 2.4-2.9 4.5-4.8 6.3zm-3.1-.3c-2.6-.5-5.1-1.6-7.2-3.2 1.1-.9 2.3-1.6 3.6-2.1 1 1.9 2.2 3.7 3.6 5.3zm3.1-33.7c1.8 1.7 3.3 3.6 4.4 5.8-1.5.4-3 .6-4.5.6s-3-.2-4.5-.6c1.3-2.2 2.8-4.1 4.6-5.8zm-6.4 5.1c-1.2-.5-2.4-1.2-3.5-1.9 2-1.4 4.3-2.4 6.8-2.9-1.3 1.5-2.4 3.1-3.3 4.8zm9.5-4.8c2.4.5 4.8 1.4 6.8 2.9-1.1.8-2.3 1.4-3.5 1.9-.9-1.7-2-3.3-3.3-4.8zm-3.1 8.1c1.8 0 3.6-.3 5.4-.8 1.2 2.7 1.9 5.5 2 8.4h-14.7c.1-2.9.8-5.8 2-8.4 1.7.5 3.5.8 5.3.8zm7.3 9.6c-.1 2.7-.7 5.4-1.7 7.8-3.7-1.1-7.6-1.1-11.2 0-1-2.5-1.6-5.2-1.7-7.8zm-.6 10.4c1.3.6 2.5 1.3 3.6 2.1-2.1 1.6-4.6 2.7-7.2 3.2 1.4-1.6 2.6-3.4 3.6-5.3zm10.2-12.4h-7.6c-.1-3.1-.8-6.2-2.1-9.1 1.5-.6 2.9-1.4 4.2-2.4 3.3 3 5.3 7.1 5.5 11.5zm-28.4-11.5c1.3 1 2.7 1.8 4.2 2.4-1.2 2.9-1.9 6-2.1 9.1h-7.6c.3-4.4 2.3-8.5 5.5-11.5zm-5.4 13.5h7.6c.1 2.9.7 5.8 1.8 8.5-1.5.7-3 1.5-4.3 2.5 0 0-.1.1-.1.1-3-2.9-4.8-6.9-5-11.1z" fill="#fff"/></svg>