<?xml version="1.0" encoding="UTF-8" standalone="no"?>
<svg width="32px" height="32px" viewBox="0 0 32 32" version="1.1" xmlns="http://www.w3.org/2000/svg" xmlns:xlink="http://www.w3.org/1999/xlink" xmlns:sketch="http://www.bohemiancoding.com/sketch/ns">
    <!-- Generator: Sketch 3.2.2 (9983) - http://www.bohemiancoding.com/sketch -->
    <title>Sitecore</title>
    <desc>Created with Sketch.</desc>
    <defs>
        <rect id="path-1" x="0" y="0" width="32" height="32" rx="2"></rect>
    </defs>
    <g id="Sources-Icons-32px" stroke="none" stroke-width="1" fill="none" fill-rule="evenodd" sketch:type="MSPage">
        <g id="Sitecore" sketch:type="MSArtboardGroup">
            <g id="source-sitecore" sketch:type="MSLayerGroup">
                <mask id="mask-2" sketch:name="BG" fill="white">
                    <use xlink:href="#path-1"></use>
                </mask>
                <use id="BG" fill="#CA3028" sketch:type="MSShapeGroup" xlink:href="#path-1"></use>
                <g id="Sitecore_logo" mask="url(#mask-2)" fill="#FFFFFF" sketch:type="MSShapeGroup">
                    <g transform="translate(5.000000, 4.000000)">
                        <path d="M11.138875,19.8499485 C6.68410417,19.8499485 3.07289583,16.0928866 3.07289583,11.4580309 C3.07289583,6.82317526 6.68410417,3.06587629 11.138875,3.06587629 C15.5934167,3.06587629 19.2048542,6.82317526 19.2048542,11.4580309 C19.2048542,16.0928866 15.5934167,19.8499485 11.138875,19.8499485 L11.138875,19.8499485 Z M11.0311667,0.0455257732 C4.939,0.0455257732 0,5.18424742 0,11.5227629 C0,17.8615155 4.939,23 11.0311667,23 C17.1235625,23 22.0621042,17.8615155 22.0621042,11.5227629 C22.0621042,5.18424742 17.1235625,0.0455257732 11.0311667,0.0455257732 L11.0311667,0.0455257732 Z" id="Fill-1"></path>
                        <path d="M3.65658333,13.5894433 C3.65658333,13.5894433 4.97795833,18.9306598 10.1399375,19.5028144 C15.3021458,20.0752062 17.8834792,15.4334742 17.8834792,15.4334742 L16.5006875,14.5431134 C16.5006875,14.5431134 14.3495,18.2947216 10.5088958,18.1676289 C6.66783333,18.040299 4.7320625,15.6558866 3.65658333,13.5894433" id="Fill-4"></path>
                        <path d="M6.37358333,16.6069485 C7.5370625,17.4622165 8.90977083,17.9136804 10.5148542,17.9667938 C14.1929792,18.0886701 16.313,14.4771959 16.3338542,14.4406804 L16.4349167,14.2645052 L16.603125,14.372866 L17.8976875,15.2060825 C19.086375,13.1846907 18.8019792,10.9214433 18.8019792,10.9214433 L16.4085625,10.9506082 C16.4085625,10.9506082 16.5928125,14.6068969 12.3525417,16.6731031 C10.5865833,17.5338247 7.62116667,17.3934536 5.83825,15.9420825 C5.83825,15.9420825 5.9943125,16.2311237 6.37358333,16.6069485" id="Fill-5"></path>
                        <path d="M16.0554167,10.7587835 L16.044875,10.5498866 L16.2467708,10.5475155 L18.7662292,10.5204845 C18.6539375,8.50027835 17.1767292,6.72216495 17.1767292,6.72216495 L14.3497292,8.53442268 C14.3497292,8.53442268 16.149375,9.92627835 14.52,13.2159897 C13.9532708,14.360299 12.733875,15.5958969 11.6143958,16.1386495 C10.2455833,16.8023299 9.19347917,16.8364742 9.19347917,16.8364742 C9.33189583,16.8933814 10.6555625,17.1660619 12.5120417,16.3126907 C16.1743542,14.6294227 16.0620625,10.9024742 16.0554167,10.7587835" id="Fill-6"></path>
                    </g>
                </g>
                <path d="M29,0 L8,32 L32,32 L32,0 L29,0 Z" id="shadow" opacity="0.102203825" fill="#000000" sketch:type="MSShapeGroup" mask="url(#mask-2)"></path>
            </g>
        </g>
    </g>
</svg>