<svg xmlns="http://www.w3.org/2000/svg" viewBox="0 0 32 32">
<path d="M30,2V30H2V2H30m0-2H2A2,2,0,0,0,0,2V30a2,2,0,0,0,2,2H30a2,2,0,0,0,2-2V2A2,2,0,0,0,30,0Z" style="fill:#bcc3ca"/>
<path d="M18.3,15.6l3.1-1.2a5.92,5.92,0,0,1,1.9-.5h.3a7.81,7.81,0,0,0-9.5-5.7,7.68,7.68,0,0,0-4.6,3.3h.1a6.4,6.4,0,0,1,3.4.9h0l5.3,3.2" style="fill:#0364b8"/>
<path d="M13.1,12.4h0a6.29,6.29,0,0,0-3.3-.9H9.7a6.32,6.32,0,0,0-6.2,6.3,6.06,6.06,0,0,0,1.1,3.5l4.6-1.9,2.1-.9,4.6-1.9,2.4-1Z" style="fill:#0078d4"/>
<path d="M27.9,21.3a5,5,0,0,0-2-6.8,4.2,4.2,0,0,0-2.1-.6h-.3a4.48,4.48,0,0,0-2,.4h0l-3.2,1.3Z" style="fill:#1490df"/>
<path d="M23.5,18.7l-1.3-.8-3-1.8-.9-.5-2.4,1-4.6,1.9-2.1.9L4.6,21.3A6.27,6.27,0,0,0,9.7,24H23.4a5,5,0,0,0,4.5-2.7Z" style="fill:#28a8ea"/>
</svg>