<?xml version="1.0" encoding="UTF-8" standalone="no"?>
<svg width="32px" height="32px" viewBox="0 0 32 32" version="1.1" xmlns="http://www.w3.org/2000/svg" xmlns:xlink="http://www.w3.org/1999/xlink" xmlns:sketch="http://www.bohemiancoding.com/sketch/ns">
    <defs>
        <rect id="path-1" x="0" y="0" width="32" height="32" rx="2"></rect>
    </defs>
    <g id="Sources-Icons-32px" stroke="none" stroke-width="1" fill="none" fill-rule="evenodd" sketch:type="MSPage">
        <g id="FilesSystem" sketch:type="MSArtboardGroup">
            <g id="source-flie_system" sketch:type="MSLayerGroup">
                <mask id="mask-2" sketch:name="BG" fill="white">
                    <use xlink:href="#path-1"></use>
                </mask>
                <use id="BG" fill="#004990" sketch:type="MSShapeGroup" xlink:href="#path-1"></use>
                <g id="folder" mask="url(#mask-2)" fill="#FFFFFF" sketch:type="MSShapeGroup">
                    <g transform="translate(6.000000, 6.000000)">
                        <path d="M5.84577585,1.86666667 L4.22793432,0 L1.00196142,0 C0.448593406,0 0,0.449948758 0,1.00684547 L0,11.9941413 C0,13.1019465 0.898212381,14 1.99079514,14 L18.0092049,14 C19.1086907,14 20,13.107807 20,11.9964268 L20,3.87023989 C20,2.76369696 19.1038519,1.86666667 18.0020657,1.86666667 L5.84577585,1.86666667 Z" id="Rectangle-165"></path>
                        <rect id="Rectangle-166" x="0" y="18" width="20" height="1"></rect>
                        <rect id="Rectangle-168" x="7" y="17" width="6" height="3"></rect>
                        <rect id="Rectangle-167" x="9" y="14" width="2" height="3"></rect>
                    </g>
                </g>
                <path d="M29,0 L8,32 L32,32 L32,0 L29,0 Z" id="shadow" opacity="0.102203825" fill="#000000" sketch:type="MSShapeGroup" mask="url(#mask-2)"></path>
            </g>
        </g>
    </g>
</svg>
