<svg xmlns="http://www.w3.org/2000/svg" viewBox="0 0 32 32" enable-background="new 0 0 32 32">
  <defs>
    <linearGradient id="1" gradientUnits="userSpaceOnUse" y1="-809.72" x2="0" y2="-808.72"
                    gradientTransform="matrix(10 0 0 2 5147 1624.45)">
      <stop stop-color="#ebdb3d"/>
      <stop offset="1" stop-color="#f1e03e"/>
    </linearGradient>
    <linearGradient id="2" gradientUnits="userSpaceOnUse" y1="-809.74" x2="0" y2="-808.75"
                    gradientTransform="matrix(10 0 0 3 5147 2437.23)">
      <stop stop-color="#f3e23d"/>
      <stop offset=".485" stop-color="#ebdb3d"/>
      <stop offset="1" stop-color="#f9e73d"/>
    </linearGradient>
    <linearGradient id="3" gradientUnits="userSpaceOnUse" y1="-809.75" x2="0" y2="-808.75"
                    gradientTransform="matrix(14 0 0 3 7423 2444.23)">
      <stop stop-color="#f5e43d"/>
      <stop offset=".485" stop-color="#ebdb3d"/>
      <stop offset="1" stop-color="#f7e53c"/>
    </linearGradient>
    <radialGradient id="0" cx="2.975" cy="2.579" r="2.677" gradientUnits="userSpaceOnUse">
      <stop stop-color="#7e9fce"/>
      <stop offset="1" stop-color="#3163a6"/>
    </radialGradient>
  </defs>
  <path fill="#fff" d="m2 0h28c1.1 0 2 .9 2 2v28c0 1.1-.9 2-2 2h-28c-1.1 0-2-.9-2-2v-28c0-1.1.9-2 2-2"/>
  <path fill="#ebb554" d="m2 0h28c1.1 0 2 .9 2 2v28c0 1.1-.9 2-2 2h-28c-1.1 0-2-.9-2-2v-28c0-1.1.9-2 2-2"/>
  <g transform="translate(4 4)">
    <path fill="#fdeb3c" stroke="#a58419" d="m2 18.9v-16.9h20v20h-18-2c-.6 0-1-.4-1-1v-.5c0-.7.4-1.3 1-1.6z"/>
    <path fill="#9e9a56" d="m4 6l3 3 1-1-2-4-2 2"/>
    <circle fill="url(#0)" stroke="#365e94" cx="4" cy="4" r="4"/>
    <path fill="url(#1)" d="m9 5h10v2h-10z"/>
    <path fill="url(#2)" d="m9 8h10v3h-10z"/>
    <path fill="#ebdb3d" d="m5 12h14v2h-14z"/>
    <path fill="url(#3)" d="m5 15h14v3h-14z"/>
  </g>
</svg>
