<svg xmlns="http://www.w3.org/2000/svg" viewBox="0 0 32 32" enable-background="new 0 0 32 32">
  <path fill="#fff" d="m2 0h28c1.1 0 2 .9 2 2v28c0 1.1-.9 2-2 2h-28c-1.1 0-2-.9-2-2v-28c0-1.1.9-2 2-2"/>
  <path fill="#7262a0" d="m2 0h28c1.1 0 2 .9 2 2v28c0 1.1-.9 2-2 2h-28c-1.1 0-2-.9-2-2v-28c0-1.1.9-2 2-2"/>
  <g transform="translate(4 4)" fill="#fff">
    <path d="m12 0c-2.8 0-5 5.4-5 12s2.2 12 5 12 5-5.4 5-12-2.2-12-5-12m0 22c-1.7 0-3-4.5-3-10s1.3-10 3-10 3 4.5 3 10-1.3 10-3 10"/>
    <path d="m12 7c-6.6 0-12 2.2-12 5s5.4 5 12 5 12-2.2 12-5-5.4-5-12-5m0 8c-5.5 0-10-1.3-10-3s4.5-3 10-3 10 1.3 10 3-4.5 3-10 3"/>
  </g>
  <path fill="#fff"
        d="m16 4c-6.6 0-12 5.4-12 12s5.4 12 12 12 12-5.4 12-12-5.4-12-12-12m0 22c-5.5 0-10-4.5-10-10s4.5-10 10-10 10 4.5 10 10-4.5 10-10 10"/>
</svg>
