<?xml version="1.0" encoding="UTF-8" standalone="no"?>
<svg width="32px" height="32px" viewBox="0 0 32 32" version="1.1" xmlns="http://www.w3.org/2000/svg" xmlns:xlink="http://www.w3.org/1999/xlink" xmlns:sketch="http://www.bohemiancoding.com/sketch/ns">
    <!-- Generator: Sketch 3.2.2 (9983) - http://www.bohemiancoding.com/sketch -->
    <title>Notes</title>
    <desc>Created with Sketch.</desc>
    <defs>
        <rect id="path-1" x="0" y="0" width="32" height="32" rx="2"></rect>
    </defs>
    <g id="Sources-Icons-32px" stroke="none" stroke-width="1" fill="none" fill-rule="evenodd" sketch:type="MSPage">
        <g id="Notes" sketch:type="MSArtboardGroup">
            <g id="source-notes" sketch:type="MSLayerGroup">
                <mask id="mask-2" sketch:name="BG" fill="white">
                    <use xlink:href="#path-1"></use>
                </mask>
                <use id="BG" fill="#F7DA67" sketch:type="MSShapeGroup" xlink:href="#path-1"></use>
                <path d="M12.6865672,10.9515306 C12.6865672,12.0294694 11.784597,12.9030612 10.6716418,12.9030612 C9.55904478,12.9030612 8.65671642,12.0294694 8.65671642,10.9515306 C8.65671642,9.87393878 9.55904478,9 10.6716418,9 C11.784597,9 12.6865672,9.87393878 12.6865672,10.9515306 Z M18.0597015,10.9515306 C18.0597015,12.0294694 17.1577313,12.9030612 16.0447761,12.9030612 C14.9321791,12.9030612 14.0298507,12.0294694 14.0298507,10.9515306 C14.0298507,9.87393878 14.9321791,9 16.0447761,9 C17.1577313,9 18.0597015,9.87393878 18.0597015,10.9515306 Z M23.4328358,10.9515306 C23.4328358,12.0294694 22.5308657,12.9030612 21.4179104,12.9030612 C20.3053134,12.9030612 19.4029851,12.0294694 19.4029851,10.9515306 C19.4029851,9.87393878 20.3053134,9 21.4179104,9 C22.5308657,9 23.4328358,9.87393878 23.4328358,10.9515306 Z M18.5995224,24.1476939 C18.4186269,21.4603061 18.2380896,18.7725714 18.0575522,16.0851837 C17.9812537,15.1102857 17.2322388,14.3199592 16.3847164,14.3199592 L15.9441194,14.3199592 C15.096597,14.3199592 14.3475821,15.1102857 14.2712836,16.0851837 C14.0903881,18.7725714 13.9098507,21.4603061 13.7293134,24.1476939 C13.6530149,25.1225918 14.6015522,25.9136122 15.8477612,25.9132653 L16.4810746,25.9132653 C17.7272836,25.9132653 18.6758209,25.1225918 18.5995224,24.1476939 Z M10.9295522,13.9976531 L10.9227463,13.992449 C10.8826269,13.9626122 10.8421493,13.9334694 10.7995224,13.9077959 C9.79725373,13.2826122 7.00823881,12.8423469 5.75164179,12.490898 C5.18280597,12.332 4.5681194,12.5519592 4.28835821,13.2059388 L4.14579104,13.5383061 C3.86602985,14.1919388 4.09492537,14.8674286 4.65767164,15.046449 C5.68107463,15.3836735 6.70447761,15.7212449 7.72823881,16.0588163 C7.22352239,18.3999592 6.71916418,20.741449 6.21408955,23.0829388 C5.99773134,24.0380612 6.82197015,24.9498163 8.056,25.1191224 L8.68322388,25.2051633 C9.91689552,25.3744694 10.9703881,24.7204898 11.0362985,23.744898 C11.2465672,21.0595918 11.457194,18.3739388 11.6678209,15.6886327 C11.7140299,14.9964898 11.4084776,14.3560408 10.9295522,13.9976531 Z M21.2173134,14.1419796 L21.2237612,14.1371224 C21.2642388,14.1069388 21.3043582,14.0781429 21.3473433,14.0524694 C22.3492537,13.4272857 25.1386269,12.9866735 26.3948657,12.6355714 C26.9637015,12.4763265 27.5787463,12.6962857 27.8585075,13.3502653 L28.0010746,13.6829796 C28.2808358,14.3366122 28.0515821,15.012102 27.489194,15.1911224 C26.465791,15.5283469 25.4420299,15.8659184 24.4186269,16.2031429 C24.9229851,18.5446327 25.4277015,20.8861224 25.9324179,23.2276122 C26.1491343,24.1823878 25.3245373,25.0944898 24.0908657,25.263449 L23.4636418,25.3498367 C22.2296119,25.5187959 21.1761194,24.8651633 21.110209,23.8895714 C20.8999403,21.2039184 20.6893134,18.5186122 20.4790448,15.8329592 C20.4324776,15.1408163 20.7380299,14.5003673 21.2173134,14.1419796 Z" id="logo-note" fill="#FFFFFF" sketch:type="MSShapeGroup" mask="url(#mask-2)"></path>
                <path d="M12.6865672,9.95153061 C12.6865672,11.0294694 11.784597,11.9030612 10.6716418,11.9030612 C9.55904478,11.9030612 8.65671642,11.0294694 8.65671642,9.95153061 C8.65671642,8.87393878 9.55904478,8 10.6716418,8 C11.784597,8 12.6865672,8.87393878 12.6865672,9.95153061 Z M18.0597015,9.95153061 C18.0597015,11.0294694 17.1577313,11.9030612 16.0447761,11.9030612 C14.9321791,11.9030612 14.0298507,11.0294694 14.0298507,9.95153061 C14.0298507,8.87393878 14.9321791,8 16.0447761,8 C17.1577313,8 18.0597015,8.87393878 18.0597015,9.95153061 Z M23.4328358,9.95153061 C23.4328358,11.0294694 22.5308657,11.9030612 21.4179104,11.9030612 C20.3053134,11.9030612 19.4029851,11.0294694 19.4029851,9.95153061 C19.4029851,8.87393878 20.3053134,8 21.4179104,8 C22.5308657,8 23.4328358,8.87393878 23.4328358,9.95153061 Z M18.5995224,23.1476939 C18.4186269,20.4603061 18.2380896,17.7725714 18.0575522,15.0851837 C17.9812537,14.1102857 17.2322388,13.3199592 16.3847164,13.3199592 L15.9441194,13.3199592 C15.096597,13.3199592 14.3475821,14.1102857 14.2712836,15.0851837 C14.0903881,17.7725714 13.9098507,20.4603061 13.7293134,23.1476939 C13.6530149,24.1225918 14.6015522,24.9136122 15.8477612,24.9132653 L16.4810746,24.9132653 C17.7272836,24.9132653 18.6758209,24.1225918 18.5995224,23.1476939 Z M10.9295522,12.9976531 L10.9227463,12.992449 C10.8826269,12.9626122 10.8421493,12.9334694 10.7995224,12.9077959 C9.79725373,12.2826122 7.00823881,11.8423469 5.75164179,11.490898 C5.18280597,11.332 4.5681194,11.5519592 4.28835821,12.2059388 L4.14579104,12.5383061 C3.86602985,13.1919388 4.09492537,13.8674286 4.65767164,14.046449 C5.68107463,14.3836735 6.70447761,14.7212449 7.72823881,15.0588163 C7.22352239,17.3999592 6.71916418,19.741449 6.21408955,22.0829388 C5.99773134,23.0380612 6.82197015,23.9498163 8.056,24.1191224 L8.68322388,24.2051633 C9.91689552,24.3744694 10.9703881,23.7204898 11.0362985,22.744898 C11.2465672,20.0595918 11.457194,17.3739388 11.6678209,14.6886327 C11.7140299,13.9964898 11.4084776,13.3560408 10.9295522,12.9976531 Z M21.2173134,13.1419796 L21.2237612,13.1371224 C21.2642388,13.1069388 21.3043582,13.0781429 21.3473433,13.0524694 C22.3492537,12.4272857 25.1386269,11.9866735 26.3948657,11.6355714 C26.9637015,11.4763265 27.5787463,11.6962857 27.8585075,12.3502653 L28.0010746,12.6829796 C28.2808358,13.3366122 28.0515821,14.012102 27.489194,14.1911224 C26.465791,14.5283469 25.4420299,14.8659184 24.4186269,15.2031429 C24.9229851,17.5446327 25.4277015,19.8861224 25.9324179,22.2276122 C26.1491343,23.1823878 25.3245373,24.0944898 24.0908657,24.263449 L23.4636418,24.3498367 C22.2296119,24.5187959 21.1761194,23.8651633 21.110209,22.8895714 C20.8999403,20.2039184 20.6893134,17.5186122 20.4790448,14.8329592 C20.4324776,14.1408163 20.7380299,13.5003673 21.2173134,13.1419796 Z" id="logo-note-2" fill="#E26329" sketch:type="MSShapeGroup" mask="url(#mask-2)"></path>
                <path d="M29,0 L8,32 L32,32 L32,0 L29,0 Z" id="shadow" opacity="0.102203825" fill="#000000" sketch:type="MSShapeGroup" mask="url(#mask-2)"></path>
            </g>
        </g>
    </g>
</svg>