<svg enable-background="new 0 0 62.8 60.4" viewBox="0 0 62.8 60.4" xmlns="http://www.w3.org/2000/svg"><g fill="#2684ff"><path d="m2.3 46.1c-.6 1.1-1.4 2.3-2 3.3-.6.9-.3 2.1.7 2.7l13 8c.9.6 2.2.3 2.8-.7.5-.9 1.2-2 1.9-3.2 5.1-8.5 10.3-7.5 19.7-3l12.9 6.1c1 .5 2.2.1 2.7-.9 0 0 0 0 0-.1l6.2-14c.4-1 0-2.2-1-2.6-2.7-1.3-8.1-3.8-13-6.2-17.6-8.5-32.5-7.9-43.9 10.6z"/><path d="m60.6 14.3c.7-1.1 1.4-2.3 2-3.3.6-.9.3-2.1-.7-2.7l-13-8c-.9-.6-2.2-.3-2.8.6l-.1.1c-.5.9-1.2 2-1.9 3.2-5.2 8.5-10.3 7.5-19.7 3l-12.8-6.1c-1-.5-2.2-.1-2.7.9v.1l-6.2 14c-.4 1 0 2.2 1 2.6 2.7 1.3 8.1 3.8 13 6.2 17.6 8.5 32.5 7.9 43.9-10.6z"/></g></svg>