<?xml version="1.0" encoding="UTF-8" standalone="no"?>
<svg width="32px" height="32px" viewBox="0 0 32 32" version="1.1" xmlns="http://www.w3.org/2000/svg" xmlns:xlink="http://www.w3.org/1999/xlink" xmlns:sketch="http://www.bohemiancoding.com/sketch/ns">
    <!-- Generator: Sketch 3.2.2 (9983) - http://www.bohemiancoding.com/sketch -->
    <title>SharePoint</title>
    <desc>Created with Sketch.</desc>
    <defs>
        <rect id="path-1" x="0" y="0" width="32" height="32" rx="2"></rect>
    </defs>
    <g id="Sources-Icons-32px" stroke="none" stroke-width="1" fill="none" fill-rule="evenodd" sketch:type="MSPage">
        <g id="SharePoint" sketch:type="MSArtboardGroup">
            <g id="source-sharepoint" sketch:type="MSLayerGroup">
                <mask id="mask-2" sketch:name="BG" fill="white">
                    <use xlink:href="#path-1"></use>
                </mask>
                <use id="BG" fill="#2B67A3" sketch:type="MSShapeGroup" xlink:href="#path-1"></use>
                <path d="M25.273254,14.6341017 C25.1399206,14.6341017 25.0097619,14.6490169 24.8840476,14.6768136 C24.3999206,13.3507119 23.4542063,12.2747797 22.2561111,11.6693559 C22.2659524,11.5852881 22.272619,11.5002034 22.272619,11.4134237 C22.272619,10.2903729 21.4199206,9.37986441 20.3678571,9.37986441 C19.9221429,9.37986441 19.5129365,9.54461017 19.1884921,9.81884746 L19.1884921,13.008339 C19.5129365,13.2825763 19.9221429,13.447322 20.3678571,13.447322 C21.0176984,13.447322 21.5907143,13.0991864 21.9345238,12.5690169 C22.9161111,13.0859661 23.6846825,13.987661 24.0697619,15.0920678 C23.6418254,15.4649492 23.3684921,16.0320678 23.3684921,16.667661 C23.3684921,17.3103729 23.6484921,17.8829153 24.0846825,18.2557966 C23.705,19.3802034 22.929127,20.2991864 21.9345238,20.8232542 C21.5907143,20.2927458 21.0176984,19.9449492 20.3678571,19.9449492 C19.9221429,19.9449492 19.5129365,20.1096949 19.1884921,20.3835932 L19.1884921,23.5734237 C19.5129365,23.847661 19.9221429,24.0124068 20.3678571,24.0124068 C21.4196032,24.0124068 22.272619,23.1015593 22.272619,21.9785085 C22.272619,21.8917288 22.2656349,21.8066441 22.2561111,21.7229153 C23.4697619,21.1090169 24.4237302,20.0124068 24.9021429,18.6625763 C25.0221429,18.687661 25.1462698,18.7015593 25.273254,18.7015593 C26.325,18.7015593 27.1780159,17.7910508 27.1780159,16.667661 C27.1780159,15.5446102 26.325,14.6341017 25.273254,14.6341017 Z M13.3399206,20.6764746 C12.4383333,21.3751186 11.2570635,21.0798644 10.3078571,20.6629153 C10.2954762,20.0730847 10.2824603,19.4835932 10.2637302,18.8903729 C10.873254,19.3717288 11.7748413,20.0798644 12.5015079,19.4222373 C13.0637302,18.4154576 11.9589683,17.7747797 11.3205556,17.2866441 C9.94944444,16.4018983 9.89865079,13.9815593 11.2284921,13.0357966 C12.0065873,12.5103729 12.9557937,12.6768136 13.8129365,12.8049492 C13.8253175,13.3612203 13.8383333,13.9205424 13.8507143,14.4764746 C13.1364286,14.2357966 12.2256349,13.7510508 11.6380159,14.5269831 C11.2284921,15.6700339 12.5237302,16.1002034 13.1494444,16.6968136 C14.3716667,17.5408814 14.4764286,19.7107119 13.3399206,20.6764746 Z M7.10880952,8.81444068 L7.08531746,24.6337627 L18.1437302,26.7805424 L18.1437302,6.66766102 L7.10880952,8.81444068 L7.10880952,8.81444068 Z" id="Fill-3" fill="#FFFFFF" sketch:type="MSShapeGroup" mask="url(#mask-2)"></path>
                <path d="M29,1 L8,33 L32,33 L32,1 L29,1 Z" id="shadow" opacity="0.102203825" fill="#000000" sketch:type="MSShapeGroup" mask="url(#mask-2)"></path>
            </g>
        </g>
    </g>
</svg>