<?xml version="1.0" encoding="UTF-8" standalone="no"?>
<svg width="32px" height="32px" fill="#007EE5" viewBox="0 0 32 32" version="1.1" xmlns="http://www.w3.org/2000/svg" xmlns:xlink="http://www.w3.org/1999/xlink" xmlns:sketch="http://www.bohemiancoding.com/sketch/ns">
    <!-- Generator: Sketch 3.2.2 (9983) - http://www.bohemiancoding.com/sketch -->
    <title>Dropbox</title>
    <desc>Created with Sketch.</desc>
    <rect id="path-1" x="0" y="0" width="32" height="32" rx="2"></rect>
    <g id="Sources-Icons-32px" stroke="none" stroke-width="1" fill="none" fill-rule="evenodd" sketch:type="MSPage">
        <g id="Dropbox" sketch:type="MSArtboardGroup">
            <g id="source-dropbox" sketch:type="MSLayerGroup">
                <path d="M10.961614,5.10988824 L3.96168421,9.70707059 L8.80178947,13.6056941 L15.8594211,9.22163529 L10.961614,5.10988824 Z M3.96168421,17.5043176 L10.961614,22.1015 L15.8594211,17.9890647 L8.80178947,13.6056941 L3.96168421,17.5043176 Z M15.8594211,17.9890647 L20.7576842,22.1015 L27.757386,17.5043176 L22.9175088,13.6056941 L15.8594211,17.9890647 Z M27.757386,9.70707059 L20.7576842,5.10988824 L15.8594211,9.22163529 L22.9175088,13.6056941 L27.757386,9.70707059 Z M15.8740175,18.8741353 L10.961614,22.9739529 L8.85949123,21.5938118 L8.85949123,23.1409647 L15.8740175,27.3724647 L22.8885439,23.1409647 L22.8885439,21.5938118 L20.7864211,22.9739529 L15.8740175,18.8741353 Z" id="logo-dropbox" fill="#FFFFFF" sketch:type="MSShapeGroup" mask="url(#mask-2)"></path>
                <path d="M29,0 L8,32 L32,32 L32,0 L29,0 Z" id="shadow" opacity="0.102203825" fill="#000000" sketch:type="MSShapeGroup" ></path>
            </g>
        </g>
    </g>
</svg>
