<svg xmlns="http://www.w3.org/2000/svg" viewBox="0 0 32 32" enable-background="new 0 0 32 32">
  <defs>
    <linearGradient id="0" gradientUnits="userSpaceOnUse" y1="16.07" x2="0" y2="5.558">
      <stop stop-color="#149d5f"/>
      <stop offset=".446" stop-color="#0b9759"/>
      <stop offset="1" stop-color="#069355"/>
    </linearGradient>
    <linearGradient id="1" gradientUnits="userSpaceOnUse" x1="16.03" x2="8.09">
      <stop stop-color="#3678e6"/>
      <stop offset=".446" stop-color="#2d71e5"/>
      <stop offset="1" stop-color="#286de4"/>
    </linearGradient>
    <linearGradient id="2" gradientUnits="userSpaceOnUse" x1="17.822" x2="28.07">
      <stop stop-color="#edc449"/>
      <stop offset="1" stop-color="#e8b935"/>
    </linearGradient>
  </defs>
  <path fill="#bcc3ca"
        d="m29.9 2v27.9h-27.9v-27.9h27.9m0-2h-27.9c-1.1 0-2 .9-2 2v28c0 1.1.9 2 2 2h28c1.1 0 2-.9 2-2v-28c-.1-1.1-1-2-2.1-2z"/>
  <path fill="#0ca45f" d="M11.8 5.6 3.9 19.2 8.1 26.4 16 12.8z"/>
  <path fill="url(#0)" d="m16 12.8l-4.2-7.2 2.3 10.5z"/>
  <path fill="#3279f1" d="m12.3 19.2l-4.2 7.2h15.8l4.2-7.2z"/>
  <path fill="#fccc46" d="m28.1 19.2l-7.9-13.6h-8.4l7.9 13.6z"/>
  <path fill="url(#1)" d="m12.3 19.2l-4.2 7.2 7.9-7.2z"/>
  <path fill="url(#2)" d="m19.7 19.2h8.4l-10.3-3.2z"/>
</svg>
