<?xml version="1.0" encoding="UTF-8" standalone="no"?>
<svg width="32px" height="32px" viewBox="0 0 32 32" version="1.1" xmlns="http://www.w3.org/2000/svg" xmlns:xlink="http://www.w3.org/1999/xlink" xmlns:sketch="http://www.bohemiancoding.com/sketch/ns">
    <!-- Generator: Sketch 3.2.2 (9983) - http://www.bohemiancoding.com/sketch -->
    <title>LDAP</title>
    <desc>Created with Sketch.</desc>
    <defs>
        <rect id="path-1" x="0" y="0" width="32" height="32" rx="2"></rect>
    </defs>
    <g id="Sources-Icons-32px" stroke="none" stroke-width="1" fill="none" fill-rule="evenodd" sketch:type="MSPage">
        <g id="LDAP" sketch:type="MSArtboardGroup">
            <g id="source-ldap" sketch:type="MSLayerGroup">
                <mask id="mask-2" sketch:name="BG" fill="white">
                    <use xlink:href="#path-1"></use>
                </mask>
                <use id="BG" fill="#004990" sketch:type="MSShapeGroup" xlink:href="#path-1"></use>
                <text id="LDAP" sketch:type="MSTextLayer" mask="url(#mask-2)" font-family="Proxima Nova" font-size="9" font-weight="bold" fill="#FFFFFF">
                    <tspan x="5" y="15">LDAP</tspan>
                </text>
                <path d="M23.0301975,22 L15.8898346,22 C15.4448897,20.274766 13.8756399,19 12.0080527,19 C9.7944663,19 8,20.790861 8,23 C8,25.209139 9.7944663,27 12.0080527,27 C13.8756399,27 15.4448897,25.725234 15.8898346,24 L16.5554199,24.014133 L18.1282257,25.087863 L19.6606014,24.014133 L21.4827766,25.07373 L23.779376,24.0141329 L24.0322107,22.987061 L23.0301975,22 Z M10.8767432,21.5911679 L12.4088321,22.8767432 L11.1232568,24.4088321 L9.59116795,23.1232568 L10.8767432,21.5911679 Z" id="key" fill="#FFFFFF" sketch:type="MSShapeGroup" mask="url(#mask-2)"></path>
                <path d="M29,0 L8,32 L32,32 L32,0 L29,0 Z" id="shadow" opacity="0.102203825" fill="#000000" sketch:type="MSShapeGroup" mask="url(#mask-2)"></path>
            </g>
        </g>
    </g>
</svg>
