<svg viewBox="0 0 64 64" xmlns="http://www.w3.org/2000/svg"><g fill="none" fill-rule="evenodd"><path d="M0 0h64v64H0z"/><g fill-rule="nonzero"><path d="M12.24 46.92l2.053 3.547a4.842 4.842 0 001.76 1.76l7.334-12.694H8.72c0 .827.213 1.654.64 2.4l2.88 4.987z" fill="#0066DA"/><path d="M32 24.6l-7.333-12.693a4.842 4.842 0 00-1.76 1.76L9.36 37.133a4.832 4.832 0 00-.64 2.4h14.667L32 24.6z" fill="#00AC47"/><path d="M32 24.6l7.333-12.693a4.688 4.688 0 00-2.4-.64h-9.866c-.854 0-1.68.24-2.4.64L32 24.6z" fill="#00832D"/><path d="M40.613 39.533H23.387l-7.334 12.694c.72.426 1.547.64 2.4.64h27.094c.853 0 1.68-.24 2.4-.64l-7.334-12.694z" fill="#2684FC"/><path d="M47.947 52.227a4.842 4.842 0 001.76-1.76L50.56 49l4.08-7.067c.427-.746.64-1.573.64-2.4H40.64l7.307 12.694z" fill="#EA4335"/><path d="M47.867 25.4l-6.774-11.733a4.842 4.842 0 00-1.76-1.76L32 24.6l8.613 14.933h14.64c0-.826-.213-1.653-.64-2.4L47.867 25.4z" fill="#FFBA00"/></g></g></svg>
