<svg xmlns="http://www.w3.org/2000/svg" viewBox="0 0 32 32" enable-background="new 0 0 32 32">
  <defs>
    <filter id="1" filterUnits="userSpaceOnUse" x="8" y="7" width="16" height="19">
      <feColorMatrix type="matrix" values="1 0 0 0 0  0 1 0 0 0  0 0 1 0 0  0 0 0 1 0"/>
    </filter>
    <mask maskUnits="userSpaceOnUse" x="8" y="7" width="16" height="19" id="0">
      <g filter="url(#1)">
        <path fill="#fff" d="m2 0h28c1.1 0 2 .9 2 2v28c0 1.1-.9 2-2 2h-28c-1.1 0-2-.9-2-2v-28c0-1.1.9-2 2-2"/>
      </g>
    </mask>
  </defs>
  <path fill="#004990" d="m2 0h28c1.1 0 2 .9 2 2v28c0 1.1-.9 2-2 2h-28c-1.1 0-2-.9-2-2v-28c0-1.1.9-2 2-2"/>
  <path mask="url(#0)" fill="#fff"
        d="m16 26c-4.4 0-8-1.2-8-2.7v-2.7c0-.2.1-.5.3-.7.9 1.2 4 2 7.7 2s6.8-.9 7.7-2c.2.2.3.4.3.7v2.7c0 1.5-3.6 2.7-8 2.7m0-5.4c-4.4 0-8-1.2-8-2.7v-2.7c0-.1.1-.3.1-.4 0-.1.1-.2.2-.3.9 1.2 4 2 7.7 2s6.8-.9 7.7-2c.1.1.1.2.2.3.1.1.1.3.1.4v2.7c0 1.4-3.6 2.7-8 2.7m0-5.5c-4.4 0-8-1.2-8-2.7v-1.4-1.3c0-1.5 3.6-2.7 8-2.7 4.4 0 8 1.2 8 2.7v1.4 1.4c0 1.4-3.6 2.6-8 2.6m0-7.6c-3.9 0-7 .9-7 2s3.1 2 7 2 7-.9 7-2-3.1-2-7-2"/>
</svg>
