<svg enable-background="new 0 0 32 32" viewBox="0 0 32 32" xmlns="http://www.w3.org/2000/svg"><path d="m30 32h-28c-1.1 0-2-.9-2-2v-28c0-1.1.9-2 2-2h28c1.1 0 2 .9 2 2v28c0 1.1-.9 2-2 2" fill="#f7da67"/><g fill="#fff"><circle cx="10.6" cy="9.4" r="2"/><circle cx="16" cy="9.4" r="2"/><circle cx="21.4" cy="9.4" r="2"/></g><g fill="#ff6b0d"><circle cx="10.6" cy="9.1" r="2"/><circle cx="16" cy="9.1" r="2"/><circle cx="21.4" cy="9.1" r="2"/></g><g fill="#fff"><path d="m18.5 23.1c-.2-2.8-.4-5.6-.5-8.4-.1-1-.8-1.8-1.7-1.8h-.4c-.9 0-1.6.8-1.7 1.8-.2 2.8-.4 5.6-.5 8.4-.1 1 .9 1.8 2.1 1.8h.6c1.3.1 2.2-.8 2.1-1.8"/><path d="m10.8 12.6c-1.1-.7-3.9-1.2-5.2-1.6-.6-.2-1.2.1-1.5.7l-.1.4c-.3.7-.1 1.4.5 1.6 1 .4 2.1.7 3.1 1.1-.5 2.4-1 4.9-1.5 7.3-.2 1 .6 1.9 1.9 2.1l.6.1c1.2.2 2.3-.5 2.4-1.5.2-2.8.4-5.6.6-8.4 0-.8-.3-1.4-.8-1.8"/><path d="m21.2 12.7c1.1-.7 3.9-1.2 5.2-1.6.6-.2 1.2.1 1.5.7l.1.3c.3.7.1 1.4-.5 1.6-1 .4-2.1.7-3.1 1.1.5 2.4 1 4.9 1.5 7.3.2 1-.6 1.9-1.9 2.1l-.6.1c-1.2.2-2.3-.5-2.4-1.5-.2-2.8-.4-5.6-.6-8.4 0-.6.3-1.3.8-1.7"/></g><g fill="#ff7009"><path d="m18.5 22.8c-.2-2.8-.4-5.6-.5-8.4-.1-1-.8-1.8-1.7-1.8h-.4c-.9 0-1.6.8-1.7 1.8-.2 2.8-.4 5.6-.5 8.4-.1 1 .9 1.8 2.1 1.8h.6c1.3 0 2.2-.8 2.1-1.8"/><path d="m10.8 12.2c-1.1-.7-3.9-1.2-5.2-1.6-.6-.2-1.2.1-1.5.7l-.1.5c-.3.7-.1 1.4.5 1.6 1 .4 2.1.7 3.1 1.1-.5 2.4-1 4.9-1.5 7.3-.2 1 .6 1.9 1.9 2.1l.6.1c1.2.2 2.3-.5 2.4-1.5.2-2.8.4-5.6.6-8.4 0-.8-.3-1.5-.8-1.9"/><path d="m21.2 12.4c1.1-.7 3.9-1.2 5.2-1.6.6-.2 1.2.1 1.5.7l.1.3c.3.7.1 1.4-.5 1.6-1 .4-2.1.7-3.1 1.1.5 2.4 1 4.9 1.5 7.3.2 1-.6 1.9-1.9 2.1l-.6.1c-1.2.2-2.3-.5-2.4-1.5-.2-2.8-.4-5.6-.6-8.4 0-.7.3-1.4.8-1.7"/></g></svg>