<svg enable-background="new 0 0 32 32" viewBox="0 0 32 32" xmlns="http://www.w3.org/2000/svg"><path d="m2 0h28c1.1 0 2 .9 2 2v28c0 1.1-.9 2-2 2h-28c-1.1 0-2-.9-2-2v-28c0-1.1.9-2 2-2" fill="#004990"/><path d="m21.6 21.1c-2.1 0-4.4-1.4-5.6-3.3-1.2 1.9-3.5 3.3-5.6 3.3-3.1 0-5.6-2.3-5.6-5.1s2.5-5.1 5.6-5.1c2.1 0 4.4 1.4 5.6 3.3 1.2-1.9 3.5-3.3 5.6-3.3 3.1 0 5.6 2.3 5.6 5.1s-2.5 5.1-5.6 5.1m-4.8-5.1c.7 1.9 2.9 3.6 4.8 3.6 2.2 0 4.1-1.6 4.1-3.6s-1.8-3.6-4.1-3.6c-1.9 0-4.1 1.7-4.8 3.6m-6.4-3.6c-2.2 0-4.1 1.6-4.1 3.6s1.8 3.6 4.1 3.6c1.9 0 4.1-1.7 4.8-3.6-.7-1.9-2.9-3.6-4.8-3.6" fill="#fff"/><path d="m10.4 21.1v-1.5c2 0 4.3-1.8 4.9-3.8l.1-.2c.9-2.5 3.4-4.6 6.2-4.6v1.5c-2 0-4.3 1.8-4.9 3.8v.2c-1 2.6-3.7 4.6-6.3 4.6z" fill="#004990" opacity=".5" stroke="#004990" stroke-miterlimit="10" stroke-width=".5"/><path d="m21.5 20.9c-2.7 0-5.3-1.9-6.1-4.4 0 0-1.2-4.2-5.1-4.2v-1.3c2.8 0 5.5 2 6.3 4.5 0 0 1.4 4.3 4.9 4.3z" fill="#fff"/></svg>