<svg width="32" height="32" viewBox="0 0 32 32" xmlns="http://www.w3.org/2000/svg" xmlns:svg="http://www.w3.org/2000/svg">
 <g>
  <title>Layer 1</title>
  <rect id="svg_2" rx="2" height="32" width="32" y="0" x="0" fill="#CA3028"/>
  <g id="svg_1" fill="#FFFFFF">
   <path id="svg_3" d="m16.13888,23.84995c-4.45478,0 -8.06598,-3.75706 -8.06598,-8.39192c0,-4.63485 3.6112,-8.39215 8.06598,-8.39215c4.45454,0 8.06597,3.7573 8.06597,8.39215c0,4.63486 -3.61143,8.39192 -8.06597,8.39192l0,0zm-0.10771,-19.80442c-6.09217,0 -11.03117,5.13872 -11.03117,11.47723c0,6.33876 4.939,11.47724 11.03117,11.47724c6.09239,0 11.03093,-5.13848 11.03093,-11.47724c0,-6.33851 -4.93854,-11.47723 -11.03093,-11.47723l0,0z"/>
   <path d="m8.65658,17.58944c0,0 1.32138,5.34122 6.48336,5.91338c5.16221,0.57239 7.74354,-4.06935 7.74354,-4.06935l-1.38279,-0.89036c0,0 -2.15119,3.75161 -5.99179,3.62452c-3.84107,-0.12733 -5.77684,-2.51174 -6.85232,-4.57819" id="svg_4"/>
   <path d="m11.37358,20.60695c1.16348,0.85527 2.53619,1.30673 4.14127,1.35984c3.67813,0.12188 5.79815,-3.48959 5.819,-3.52611l0.10107,-0.17617l0.1682,0.10836l1.29457,0.83321c1.18868,-2.02139 0.90429,-4.28464 0.90429,-4.28464l-2.39342,0.02917c0,0 0.18425,3.65629 -4.05602,5.72249c-1.76596,0.86072 -4.73137,0.72035 -6.51429,-0.73102c0,0 0.15606,0.28904 0.53533,0.66487" id="svg_5"/>
   <path d="m21.05542,14.75878l-0.01055,-0.20889l0.2019,-0.00237l2.51946,-0.02704c-0.11229,-2.0202 -1.5895,-3.79831 -1.5895,-3.79831l-2.827,1.81225c0,0 1.79965,1.39186 0.17027,4.68157c-0.56673,1.14431 -1.78612,2.37991 -2.9056,2.92266c-1.36882,0.66368 -2.42092,0.69782 -2.42092,0.69782c0.13842,0.05691 1.46208,0.32959 3.31856,-0.52378c3.66231,-1.68327 3.55002,-5.41022 3.54338,-5.55391" id="svg_6"/>
  </g>
  <path fill="#000000" opacity="0.1022" id="shadow" d="m29,0l-21,32l24,0l0,-32l-3,0z"/>
 </g>
</svg>
