<svg xmlns="http://www.w3.org/2000/svg" viewBox="0 0 32 32" enable-background="new 0 0 32 32">
  <defs>
    <filter id="1" filterUnits="userSpaceOnUse" x="5" y="1.6" width="22" height="26.8">
      <feColorMatrix type="matrix" values="1 0 0 0 0  0 1 0 0 0  0 0 1 0 0  0 0 0 1 0"/>
    </filter>
    <mask maskUnits="userSpaceOnUse" x="5" y="1.6" width="22" height="26.8" id="0">
      <g filter="url(#1)">
        <path d="m2.1.1h27.9c1.1 0 2 .9 2 2v27.9c0 1.1-.9 2-2 2h-27.9c-1.1 0-2-.9-2-2v-27.9c0-1.1.9-2 2-2" fill="#fff"/>
      </g>
    </mask>
  </defs>
  <path d="m2.1.1h27.9c1.1 0 2 .9 2 2v27.9c0 1.1-.9 2-2 2h-27.9c-1.1 0-2-.9-2-2v-27.9c0-1.1.9-2 2-2" fill="#2ba9e0"/>
  <g mask="url(#0)">
    <path
        d="m17.5 5.6c-1.3-.9-2.5-1.2-3.7-2-.8-.6-1.8-1.9-2.7-3-.2 1.8-.7 2.5-1.3 3-1.2 1-2 1.3-3.1 2-.9.5-5.7 3.6-5.7 10.3s5.3 11.6 11.1 11.6c5.8 0 10.9-4.5 10.9-11.4s-4.8-10-5.5-10.5m-2 16c.4 0 .8 0 1.1.2.3.2.5.7.6.9.1.3 0 .4-.2.5-.2.1-.2.1-.4-.3-.2-.3-.3-.7-1.2-.7-.8 0-1.1.3-1.5.7-.4.4-.6.5-.7.3-.1-.2-.1-.4.2-.7.3-.3.7-.7 1.1-.9.4 0 .6 0 1 0m-4 3c.5.4 1.2.7 2.8.7 1.6 0 2.6-.5 3.1-.9.2-.2.3 0 .3.1 0 .1.1.3-.1.4-.1.1-1.2 1-2.5 1.1-1.3.1-3.1.2-4.1-.8-.2-.2-.1-.4 0-.5.1-.1.2-.2.4-.2 0 0 0 0 .1.1m-5.8-4.7c0-2 1.8-3.9 4-3.9 2.8 0 4.8 3 6.2 3 1.2 0 3.5-2.6 4.7-2.6 1.2 0 1.6 1.3 1.6 2.1s-.2 2.2-.8 3.1c-.6.9-.9 1.2-1.6 1.2-.9-.1-2.6-3-3.7-3-1.4-.1-4.5 3.1-6.9 3.1-1.5 0-1.9-.2-2.4-.6-.7-.5-1.1-1.3-1.1-2.4"
        fill="#fff" transform="translate(4 1)"/>
  </g>
</svg>
