<?xml version="1.0" encoding="UTF-8" standalone="no"?>
<svg width="32px" height="32px" viewBox="0 0 32 32" version="1.1" xmlns="http://www.w3.org/2000/svg" xmlns:xlink="http://www.w3.org/1999/xlink" xmlns:sketch="http://www.bohemiancoding.com/sketch/ns">
    <defs>
        <rect id="path-1" x="0" y="0" width="32" height="32" rx="2"></rect>
    </defs>
    <g id="Sources-Icons-32px" stroke="none" stroke-width="1" fill="none" fill-rule="evenodd" sketch:type="MSPage">
        <g id="GooglePlus" sketch:type="MSArtboardGroup">
            <g id="source-gplus" sketch:type="MSLayerGroup">
                <mask id="mask-2" sketch:name="BG" fill="white">
                    <use xlink:href="#path-1"></use>
                </mask>
                <use id="BG" fill="#DD4B38" sketch:type="MSShapeGroup" xlink:href="#path-1"></use>
                <path d="M14.9005513,15.8608378 C14.9005513,14.4775479 17.8986189,14.0763721 17.8986189,10.8256112 C17.8986189,8.87513493 17.7214307,7.69930887 16.2088007,7.00766393 C16.2088007,6.52338386 18.8796842,6.84155438 18.8796842,5.93779577 L13.0290616,5.93779577 C13.0290616,5.93779577 7.105634,6.08510793 7.105634,11.1757373 C7.105634,16.2662678 12.2840524,15.6761287 12.2840524,15.6761287 L12.2840524,16.9674104 C12.2840524,17.4883948 12.979063,17.3132823 13.0653179,18.368904 C12.7155223,18.368904 5.86999468,18.1847885 5.86999468,22.795392 C5.86999468,27.4060944 11.9024837,27.1852746 11.9024837,27.1852746 C11.9024837,27.1852746 18.8796842,27.5081939 18.8796842,21.7813224 C18.8796842,18.3507992 14.9005513,17.2441277 14.9005513,15.8608378 L14.9005513,15.8608378 Z M9.84600872,11.4710542 C9.29836261,9.4267888 10.0201756,7.44772067 11.4585385,7.05089792 C12.8969014,6.65358051 14.5066048,7.98888757 15.0543483,10.0332519 C15.6023843,12.0780119 14.8805713,14.0573769 13.4422084,14.4545953 C12.0036506,14.8514181 10.3938498,13.5157153 9.84600872,11.4710542 L9.84600872,11.4710542 Z M12.8419321,25.7129445 C10.4270847,25.879054 8.37294888,24.5644241 8.25394623,22.7764957 C8.13426134,20.9885673 9.99503006,19.4046401 12.4098775,19.2386295 C14.8254071,19.0726188 16.8801277,20.3867541 16.9995202,22.1746825 C17.1188153,23.9631055 15.2571694,25.5469338 12.8419321,25.7129445 L12.8419321,25.7129445 Z" id="Shape" fill="#FFFFFF" sketch:type="MSShapeGroup" mask="url(#mask-2)"></path>
                <path d="M28,15 L28,17 L24.999939,17 L24.999939,20 L23,20 L23,17 L20,17 L20,15 L23.015564,15 L23,12 L24.999939,12 L24.999939,15 L28,15 Z" id="Shape" fill="#FFFFFF" sketch:type="MSShapeGroup" mask="url(#mask-2)"></path>
                <path d="M29,0 L8,32 L32,32 L32,0 L29,0 Z" id="shadow" opacity="0.102203825" fill="#000000" sketch:type="MSShapeGroup" mask="url(#mask-2)"></path>
            </g>
        </g>
    </g>
</svg>
