<svg viewBox="0 0 64 64" xmlns="http://www.w3.org/2000/svg"><g fill="none" fill-rule="evenodd"><path d="M0 0h64v64H0z"/><g fill-rule="nonzero"><path d="M7.3 49.9l2.567 4.433c.533.934 1.3 1.667 2.2 2.2l9.166-15.866H2.9a6.04 6.04 0 00.8 3L7.3 49.9z" fill="#0066DA"/><path d="M32 22L22.833 6.133c-.9.534-1.666 1.267-2.2 2.2L3.7 37.667a6.04 6.04 0 00-.8 3h18.333L32 22z" fill="#00AC47"/><path d="M32 22l9.167-15.867a5.86 5.86 0 00-3-.8H25.833c-1.066 0-2.1.3-3 .8L32 22z" fill="#00832D"/><path d="M42.767 40.667H21.233l-9.166 15.866c.9.534 1.933.8 3 .8h33.866c1.067 0 2.1-.3 3-.8l-9.166-15.866z" fill="#2684FC"/><path d="M51.933 56.533c.9-.533 1.667-1.266 2.2-2.2L55.2 52.5l5.1-8.833a6.04 6.04 0 00.8-3H42.8l9.133 15.866z" fill="#EA4335"/><path d="M51.833 23L43.367 8.333c-.534-.933-1.3-1.666-2.2-2.2L32 22l10.767 18.667h18.3a6.04 6.04 0 00-.8-3L51.833 23z" fill="#FFBA00"/></g></g></svg>