<?xml version="1.0" encoding="UTF-8" standalone="no"?>
<svg width="32px" height="32px" viewBox="0 0 32 32" version="1.1" xmlns="http://www.w3.org/2000/svg" xmlns:xlink="http://www.w3.org/1999/xlink" xmlns:sketch="http://www.bohemiancoding.com/sketch/ns">
    <!-- Generator: Sketch 3.2.2 (9983) - http://www.bohemiancoding.com/sketch -->
    <title>Lithium</title>
    <desc>Created with Sketch.</desc>
    <defs>
        <rect id="path-1" x="0" y="0" width="32" height="32" rx="2"></rect>
    </defs>
    <g id="Sources-Icons-32px" stroke="none" stroke-width="1" fill="none" fill-rule="evenodd" sketch:type="MSPage">
        <g id="Lithium" sketch:type="MSArtboardGroup">
            <g id="source-lithium" sketch:type="MSLayerGroup">
                <mask id="mask-2" sketch:name="BG" fill="white">
                    <use xlink:href="#path-1"></use>
                </mask>
                <use id="BG" fill="#572B71" sketch:type="MSShapeGroup" xlink:href="#path-1"></use>
                <path d="M18.4917293,25.0157365 L15.0857143,25.0157365 C11.7246992,25.0157365 9,22.4118802 9,19.2001198 L9,8.00907784 L10.7034586,8.00907784 C11.6439474,8.00907784 12.406015,8.73705389 12.406015,9.63608383 L12.4062406,19.2001198 C12.4062406,20.6142515 13.6059023,21.7604311 15.0857143,21.7607545 L16.6615038,21.7607545 C17.6728195,21.7607545 18.4917293,22.5437006 18.4917293,23.509988 L18.4917293,25.0157365 L18.4917293,25.0157365 Z M22.0987218,7 C21.0386842,7 20.1799624,7.81873054 20.1799624,8.83222754 C20.1799624,9.84486228 21.0386842,10.6658563 22.0987218,10.6658563 C23.1583083,10.6658563 24.0164662,9.84486228 24.0164662,8.83222754 C24.0164662,7.81873054 23.1583083,7 22.0987218,7 L22.0987218,7 Z M22.0988346,11.863988 L20.3953759,11.863988 L20.3953759,23.3950898 C20.3953759,24.2937964 21.1574436,25.0157365 22.0984962,25.0157365 L23.801391,25.0157365 L23.801391,13.4911018 C23.801391,12.5919641 23.0393233,11.863988 22.0988346,11.863988 L22.0988346,11.863988 Z" id="logo-lihium" fill="#FFFFFF" sketch:type="MSShapeGroup" mask="url(#mask-2)"></path>
                <path d="M29,0 L8,32 L32,32 L32,0 L29,0 Z" id="shadow" opacity="0.102203825" fill="#000000" sketch:type="MSShapeGroup" mask="url(#mask-2)"></path>
            </g>
        </g>
    </g>
</svg>