<svg enable-background="new 0 0 32 32" viewBox="0 0 32 32" xmlns="http://www.w3.org/2000/svg"><path d="m2 0h28c1.1 0 2 .9 2 2v28c0 1.1-.9 2-2 2h-28c-1.1 0-2-.9-2-2v-28c0-1.1.9-2 2-2" fill="#76b74b"/><path d="m20.1 15.4c-.3 0-.6 0-.9.1.1-.6.3-1.3 1.2-1.3 1 0 1.2 1 1.2 1.6-.4-.3-.9-.4-1.5-.4m4.4-6.6c-.2-.9-.7-1.3-1.2-1.5s-1.6-.4-2.9-.5c-1.1-.1-2.3-.1-3.1-.1-.1-.6-.5-1.2-1-1.4-1.3-.5-3.3-.4-3.9-.2-.4.1-.9.3-1.1.7-.2.2-.3.5-.3 1v1.3 1c0 .4-.4.8-.8.8h-2.2c-.4 0-.8.1-1 .2-.3.1-.5.3-.6.5-.3.3-.4.8-.4 1.2 0 0 0 .4.1 1.1.1.6.7 4.5 1.3 5.8.2.5.4.7.9.9 1 .4 3.4.9 4.5 1s1.8.4 2.2-.4c0 0 .1-.2.2-.5.4-1 .4-2 .4-2.6 0-.1.1-.1.1 0 0 .5-.1 2.2 1.2 2.6.5.2 1.6.3 2.7.5 1 .1 1.7.5 1.7 2.9 0 1.5-.3 1.7-2 1.7-1.4 0-1.9 0-1.9-1 0-.9.9-.8 1.5-.8.3 0 .1-.2.1-.7s.3-.8 0-.8c-2.2-.1-3.5 0-3.5 2.7 0 2.4 1 2.9 4.1 2.9 2.5 0 3.4-.1 4.4-3.2.2-.6.7-2.5 1-5.6.1-2-.3-8-.5-9.5m-16.6.5h2.1c.1 0 .2-.1.2-.2 0 0 0-1.8 0-2.3 0-.4.1-.8.2-1l.1-.1-4.1 4c.1 0 .2-.1.2-.1.4-.2.8-.3 1.3-.3" fill="#fff"/></svg>