<?xml version="1.0" encoding="UTF-8" standalone="no"?>
<svg width="32px" height="32px" viewBox="0 0 32 32" version="1.1" xmlns="http://www.w3.org/2000/svg" xmlns:xlink="http://www.w3.org/1999/xlink" xmlns:sketch="http://www.bohemiancoding.com/sketch/ns">
    <!-- Generator: Sketch 3.2.2 (9983) - http://www.bohemiancoding.com/sketch -->
    <title>Documentum</title>
    <desc>Created with Sketch.</desc>
    <defs>
        <rect id="path-1" x="0" y="0" width="32" height="32" rx="2"></rect>
    </defs>
    <g id="Sources-Icons-32px" stroke="none" stroke-width="1" fill="none" fill-rule="evenodd" sketch:type="MSPage">
        <g id="Documentum" sketch:type="MSArtboardGroup">
            <g id="source-documentum" sketch:type="MSLayerGroup">
                <mask id="mask-2" sketch:name="BG" fill="white">
                    <use xlink:href="#path-1"></use>
                </mask>
                <use id="BG" fill="#F6F6F6" sketch:type="MSShapeGroup" xlink:href="#path-1"></use>
                <g id="Documentum" mask="url(#mask-2)" sketch:type="MSShapeGroup">
                    <g transform="translate(4.000000, 4.000000)">
                        <path d="M21.5636923,13.2036 L18.0756923,13.2036 C17.5944615,13.2018 16.5563077,13.0878 15.7858462,12.8628 C15.528,12.7878 14.8412308,12.5874 14.176,12.18 C13.5575385,11.8014 12.9870769,11.2794 12.4209231,10.578 C11.6203077,9.585 11.128,8.631 10.8467692,7.3842 C10.7132308,6.7914 10.6812308,6.267 10.6436923,5.5068 C10.6276923,5.1714 10.512,4.4406 10.512,4.4406 C10.0326154,2.0232 7.85292308,0.1956 5.23323077,0.1956 C2.26276923,0.1956 -0.145230769,2.544 -0.145230769,5.4402 C-0.145230769,8.0052 1.74461538,10.1364 4.23938462,10.5912 C4.23938462,10.5912 5.13723077,10.725 5.58461538,10.731 C7.29969231,10.7538 8.93353846,11.2362 10.4363077,12.384 C11.5212308,13.2126 13.0387692,14.4738 13.2153846,17.877 L13.2153846,21.3432 C13.2153846,22.6356 14.2898462,23.6832 15.6147692,23.6832 L21.5636923,23.6832 C22.8898462,23.6832 23.9636923,22.6356 23.9636923,21.3432 L23.9636923,15.5436 C23.9636923,14.2512 22.8898462,13.2036 21.5636923,13.2036" id="Fill-2" fill="#005795"></path>
                        <path d="M5.27753846,23.7792 C8.24861538,23.7792 10.6566154,21.4314 10.6566154,18.5352 C10.6566154,15.6384 8.24861538,13.2906 5.27753846,13.2906 C2.30707692,13.2906 -0.100923077,15.6384 -0.100923077,18.5352 C-0.100923077,21.4314 2.30707692,23.7792 5.27753846,23.7792" id="Fill-3" fill="#1A1918"></path>
                        <path d="M23.968,5.5092 C23.968,2.6136 21.56,0.2652 18.5895385,0.2652 C15.6184615,0.2652 13.2110769,2.6136 13.2110769,5.5092 C13.2110769,8.406 15.6184615,10.7538 18.5895385,10.7538 C21.56,10.7538 23.968,8.406 23.968,5.5092" id="Fill-4" fill="#1A1918"></path>
                    </g>
                </g>
                <path d="M29,0 L8,32 L32,32 L32,0 L29,0 Z" id="shadow" opacity="0.102203825" fill="#000000" sketch:type="MSShapeGroup" mask="url(#mask-2)"></path>
            </g>
        </g>
    </g>
</svg>