<svg viewBox="0 0 64 64" xmlns="http://www.w3.org/2000/svg"><g fill="none" fill-rule="evenodd"><path d="M0 0h64v64H0z"/><path d="M10 23h10v25h-7a3 3 0 01-3-3V23z" fill="#4285F4"/><path d="M44 23h10v22a3 3 0 01-3 3h-7V23z" fill="#34A853"/><path d="M20 17.984L32 27v-.01l12-8.992v12.981l-12 8.985V40l-.024-.019-.007.006v-.011L20 30.978V17.984z" fill="#EA4335"/><path d="M53.134 16.8a4.5 4.5 0 01.9 2.7v4L44 31.012V18.025l2.834-2.125a4.5 4.5 0 016.3.9z" fill="#FBBC04"/><path d="M10.9 16.8a4.5 4.5 0 00-.9 2.7v4l10.034 7.512V18.025L17.2 15.9a4.5 4.5 0 00-6.3.9z" fill="#C5221F"/></g></svg>