<svg viewBox="0 0 64 64">
  <g>
    <rect fill="#1f263f" width="64" height="64" rx="4" ry="4"/>
    <path fill="#fff" d="M34.37,34.1A1,1,0,0,0,33,33.73l-3.46,2h0l-2-3.46,3.46-2a1,1,0,0,0,.37-1.37A1,1,0,0,0,30,28.54l-3.46,2-.5-.87a1,1,0,0,0-1.37-.37,13.53,13.53,0,0,0-4.6,3.94,5.13,5.13,0,0,0-.61,4.87l-10,6a1,1,0,0,0-.34,1.38A1,1,0,0,0,10,46a1.07,1.07,0,0,0,.52-.14l9.94-6a5,5,0,0,0,4.06,1.9,12.76,12.76,0,0,0,6.15-2A1,1,0,0,0,31,38.33l-.5-.87h0l3.46-2A1,1,0,0,0,34.37,34.1ZM21.61,38a3.18,3.18,0,0,1,.13-3.66,10.28,10.28,0,0,1,3.08-2.78l4,6.88C25.25,40.27,22.84,40.13,21.61,38Z"/>
    <path fill="#fff" d="M53.87,19.51a1,1,0,0,0-1.36-.38l-8.95,5.05C42,22.23,39,21,33.33,24.3A1,1,0,0,0,33,25.67l5,8.66a1,1,0,0,0,1.37.37,13.53,13.53,0,0,0,4.6-3.94,5.16,5.16,0,0,0,.62-4.84l8.94-5.05A1,1,0,0,0,53.87,19.51ZM42.26,29.66a10.28,10.28,0,0,1-3.08,2.78l-4-6.88c3.54-1.84,5.95-1.69,7.18.44A3.18,3.18,0,0,1,42.26,29.66Z"/>
    <path fill="#fff" d="M32,51.5a19.32,19.32,0,0,1-13.8-5.73,1,1,0,1,1,1.41-1.41A17.5,17.5,0,0,0,48.9,27.45a1,1,0,0,1,.71-1.23,1,1,0,0,1,1.22.71A19.23,19.23,0,0,1,51.5,32,19.53,19.53,0,0,1,32,51.5Z"/>
    <path fill="#fff" d="M14.13,37.82a1,1,0,0,1-1-.74A19.73,19.73,0,0,1,12.5,32,19.5,19.5,0,0,1,45.79,18.21a1,1,0,1,1-1.42,1.42A17.5,17.5,0,0,0,15.1,36.56a1,1,0,0,1-.71,1.23A1.09,1.09,0,0,1,14.13,37.82Z"/>
  </g>
</svg>
