<svg xmlns="http://www.w3.org/2000/svg" viewBox="0 0 32 32" enable-background="new 0 0 32 32">
  <defs>
    <filter id="1" filterUnits="userSpaceOnUse" x="7" y="7" width="18" height="18">
      <feColorMatrix type="matrix" values="1 0 0 0 0  0 1 0 0 0  0 0 1 0 0  0 0 0 1 0"/>
    </filter>
    <mask maskUnits="userSpaceOnUse" x="7" y="7" width="18" height="18" id="0">
      <g filter="url(#1)">
        <path fill="#fff" d="m2 0h28c1.1 0 2 .9 2 2v28c0 1.1-.9 2-2 2h-28c-1.1 0-2-.9-2-2v-28c0-1.1.9-2 2-2"/>
      </g>
    </mask>
  </defs>
  <path fill="#ff6501" d="m2 0h28c1.1 0 2 .9 2 2v28c0 1.1-.9 2-2 2h-28c-1.1 0-2-.9-2-2v-28c0-1.1.9-2 2-2"/>
  <path mask="url(#0)" fill="#fff"
        d="m11.1 20.9c.4.4.7 1 .7 1.7 0 .7-.3 1.2-.7 1.7-.4.4-1 .7-1.7.7-.7 0-1.3-.3-1.7-.7-.4-.4-.7-1-.7-1.7 0-.7.3-1.2.7-1.7.4-.4 1-.7 1.7-.7.7 0 1.3.3 1.7.7m-3.4 3.4c0 0 0 0 0 0m-.7-11.2v3.4c2.2 0 4.4.9 5.9 2.5 1.6 1.6 2.5 3.7 2.5 5.9h3.4c0-3.3-1.3-6.2-3.5-8.4-2.1-2-5-3.4-8.3-3.4m0-6.1v3.4c8 0 14.5 6.5 14.5 14.5h3.5c0-4.9-2-9.4-5.3-12.7-3.2-3.2-7.7-5.2-12.7-5.2"/>
</svg>
