<?xml version="1.0" encoding="UTF-8" standalone="no"?>
<svg width="32px" height="32px" viewBox="0 0 32 32" version="1.1" xmlns="http://www.w3.org/2000/svg" xmlns:xlink="http://www.w3.org/1999/xlink" xmlns:sketch="http://www.bohemiancoding.com/sketch/ns">
    <defs>
        <rect id="path-1" x="0" y="0" width="32" height="32" rx="2"></rect>
    </defs>
    <g id="Sources-Icons-32px" stroke="none" stroke-width="1" fill="none" fill-rule="evenodd" sketch:type="MSPage">
        <g id="Aha" sketch:type="MSArtboardGroup">
            <g id="source-aha" sketch:type="MSLayerGroup">
                <mask id="mask-2" sketch:name="BG" fill="white">
                    <use xlink:href="#path-1"></use>
                </mask>
                <use id="BG" fill="#0073CF" sketch:type="MSShapeGroup" xlink:href="#path-1"></use>
                <path d="M15.7925559,19.9453515 C15.3829299,19.9453515 14.9726888,19.9332481 14.5636778,19.9488096 C14.1568811,19.9642558 13.9724879,19.8216664 13.9562504,19.4196035 C13.8908087,17.7904879 13.8294263,16.1603348 13.712812,14.5339857 C13.5002493,11.5692327 13.25718,8.60632411 13.0057459,5.6441071 C12.9711798,5.23812498 13.086441,5.02752609 13.51907,4.95905551 C15.475926,4.64886304 17.4311829,4.32991003 19.3875469,4.01683581 C19.8868478,3.93695347 20.0316316,4.14282628 19.9944823,4.60275491 C19.7835188,7.22181214 19.5638214,9.84098464 19.410919,12.4632694 C19.2790514,14.723029 19.2246806,16.9868231 19.1553025,19.2493492 C19.1428784,19.6529106 19.0103958,19.8599361 18.5545177,19.8549795 C17.6339048,19.8450663 16.7130458,19.8520978 15.7923099,19.8520978 C15.7924329,19.8831055 15.7925559,19.9142285 15.7925559,19.9453515 Z M19.5234739,25.3516453 C19.5234739,26.0033838 19.5029311,26.6558139 19.5307315,27.3063996 C19.5494292,27.7471934 19.3954196,27.9143354 18.9025153,27.9156033 C17.2068112,27.9200989 15.5111071,27.9557174 13.8160181,27.9994049 C13.3614931,28.0112777 13.1911232,27.8463259 13.1959206,27.4303152 C13.2109279,26.069549 13.2167094,24.7085522 13.2057615,23.3477859 C13.2021941,22.9179428 13.3956902,22.7693593 13.8369299,22.7929898 C14.6668839,22.8374841 15.498314,22.8825548 16.329006,22.8797883 C17.1803639,22.8769066 18.0329518,22.8339107 18.8823415,22.7756992 C19.3956657,22.7405418 19.5803049,22.9170206 19.5559487,23.3971216 C19.5229818,24.0472463 19.547707,24.7000221 19.547707,25.3516453 L19.5234739,25.3516453 Z" id="Fill-3" fill="#FFFFFF" sketch:type="MSShapeGroup" mask="url(#mask-2)"></path>
                <path d="M29,0 L8,32 L32,32 L32,0 L29,0 Z" id="shadow" opacity="0.102203825" fill="#000000" sketch:type="MSShapeGroup" mask="url(#mask-2)"></path>
            </g>
        </g>
    </g>
</svg>
