<svg enable-background="new 0 0 32 32" viewBox="0 0 32 32" xmlns="http://www.w3.org/2000/svg"><path d="m2 0h28c1.1 0 2 .9 2 2v28c0 1.1-.9 2-2 2h-28c-1.1 0-2-.9-2-2v-28c0-1.1.9-2 2-2" fill="#fff"/><path d="m2 0h28c1.1 0 2 .9 2 2v28c0 1.1-.9 2-2 2h-28c-1.1 0-2-.9-2-2v-28c0-1.1.9-2 2-2" fill="#004990"/><g fill="#fff"><g transform="translate(6 3)"><path d="m1 3c-.6 0-1 .4-1 1v1h19v17h1v-18c0-.5-.5-1-1-1z"/><path d="m3 0c-.6 0-1 .4-1 1v1h19v17h1v-18c0-.5-.5-1-1-1z"/></g><g transform="translate(4 9)"><path d="m19 0h-18c-.6 0-1 .5-1 1v18h20v-18c0-.6-.5-1-1-1m0 18h-18v-13h18zm0-14h-18v-2h18z"/><g transform="translate(3 7)"><path d="m0 0h10v3h-10z"/><path d="m0 5h4v4h-4z"/></g></g></g></svg>