<?xml version="1.0" encoding="UTF-8" standalone="no"?>
<svg width="32px" height="32px" viewBox="0 0 32 32" version="1.1" xmlns="http://www.w3.org/2000/svg" xmlns:xlink="http://www.w3.org/1999/xlink" xmlns:sketch="http://www.bohemiancoding.com/sketch/ns">
    <!-- Generator: Sketch 3.3.3 (12081) - http://www.bohemiancoding.com/sketch -->
    <title>Salesforce</title>
    <desc>Created with Sketch.</desc>
    <defs>
        <rect id="path-1" x="0" y="0" width="32" height="32" rx="2"></rect>
    </defs>
    <g id="Sources-Icons-32px" stroke="none" stroke-width="1" fill="none" fill-rule="evenodd" sketch:type="MSPage">
        <g id="Salesforce" sketch:type="MSArtboardGroup">
            <g id="source-salesforce" sketch:type="MSLayerGroup">
                <mask id="mask-2" sketch:name="BG" fill="white">
                    <use xlink:href="#path-1"></use>
                </mask>
                <use id="BG" fill="#FFFFFF" sketch:type="MSShapeGroup" xlink:href="#path-1"></use>
                <g id="Salesforce[UNOFFICIAL]" mask="url(#mask-2)">
                    <g transform="translate(2.000000, 6.000000)">
                        <g id="Essai_01" stroke-width="1" fill="none" sketch:type="MSLayerGroup" transform="translate(0.302439, 0.876106)">
                            <g id="Group"></g>
                        </g>
                        <path d="M6.93666829,10.4532743 C6.93666829,10.9924779 7.9574,10.7685398 7.9574,10.7685398 L7.9574,10.0550442 C7.9574,10.0550442 6.93666829,9.83097345 6.93666829,10.4532743 L6.93666829,10.4532743 Z" id="Shape" fill="#FFFFFF" sketch:type="MSShapeGroup"></path>
                        <path d="M17.4541561,9.10539823 C17.0151756,9.10539823 16.854361,9.5069469 16.854361,9.94420354 C16.854361,10.410531 17.0151756,10.815531 17.4541561,10.815531 C17.9151317,10.815531 18.0615902,10.4163717 18.0615902,9.94420354 C18.0615902,9.50110619 17.9151317,9.10539823 17.4541561,9.10539823 L17.4541561,9.10539823 Z" id="Shape" fill="#FFFFFF" sketch:type="MSShapeGroup"></path>
                        <path d="M23.8090341,9.10088496 C23.249278,9.10088496 23.2081854,9.68455752 23.2081854,9.68455752 L24.3371805,9.68455752 C24.2930585,9.17575221 23.9516732,9.10088496 23.8090341,9.10088496 L23.8090341,9.10088496 Z" id="Shape" fill="#FFFFFF" sketch:type="MSShapeGroup"></path>
                        <path d="M21.7862732,3.46088496 C20.9341268,3.46088496 20.124522,3.64460177 19.392361,3.97420354 C18.5504878,2.46199115 16.9692098,1.44358407 15.1569171,1.44358407 C13.7937463,1.44358407 12.5612293,2.02048673 11.6758927,2.95022124 C10.7016537,1.66619469 9.16489268,0.837743363 7.43597073,0.837743363 C4.49099512,0.837743363 2.10366829,3.24066372 2.10366829,6.20535398 C2.10366829,6.9649115 2.26013659,7.68623894 2.54225366,8.34013274 C1.17262927,9.14707965 0.250941463,10.6549115 0.250941463,12.3823009 C0.250941463,14.9597788 2.30241463,17.0486283 4.83343415,17.0486283 C5.15611707,17.0486283 5.47142439,17.014646 5.77514146,16.9498673 C6.47029268,18.8510177 8.28219024,20.2067257 10.4076829,20.2067257 C12.4486195,20.2067257 14.1996683,18.9570796 14.9514537,17.1748673 C15.5229317,17.455885 16.1656634,17.614115 16.8444829,17.614115 C18.4659317,17.614115 19.8792829,16.7134513 20.6207951,15.3805752 C20.9976098,15.4573009 21.3874634,15.4975221 21.7864049,15.4975221 C25.0555122,15.4975221 27.7053317,12.8034956 27.7053317,9.48013274 C27.7053317,6.15544248 25.0553805,3.46088496 21.7862732,3.46088496 L21.7862732,3.46088496 Z M5.21209268,11.2579646 C4.93498049,11.2579646 4.54539024,11.2040708 4.21612195,10.9510619 L4.39313659,10.5446018 C4.5248439,10.6482743 4.8541122,10.8301327 5.17837561,10.8301327 C5.37764878,10.8301327 5.65265366,10.735354 5.65265366,10.5487168 C5.65265366,10.4350885 5.56282927,10.2773894 5.12582439,10.1795575 C4.97765366,10.1463717 4.2944878,9.9970354 4.2944878,9.43287611 C4.2944878,9.03146018 4.57844878,8.65300885 5.20405854,8.65300885 C5.65686829,8.65300885 5.95518537,8.82783186 6.08491707,8.89353982 L5.92844878,9.27929204 C5.66503415,9.10924779 5.37343415,9.06358407 5.19589268,9.06358407 C4.92009756,9.06358407 4.78839024,9.22539823 4.78839024,9.34977876 C4.78839024,9.62349558 5.21182927,9.66053097 5.4716878,9.75212389 C5.87418537,9.88765487 6.15498537,10.1130531 6.15498537,10.4904425 C6.15472195,10.8919912 5.81807805,11.2579646 5.21209268,11.2579646 L5.21209268,11.2579646 Z M7.47996098,11.2497345 C6.87977073,11.2497345 6.39337561,11.0423894 6.39337561,10.4532743 C6.39337561,9.9140708 6.87977073,9.59867257 7.47996098,9.59867257 C7.66316585,9.59867257 7.83240976,9.60517699 7.98202927,9.62787611 L7.98202927,9.54889381 C7.98202927,9.06769912 7.44703415,9.07778761 7.44703415,9.07778761 C6.98605854,9.07778761 6.71447805,9.28340708 6.71447805,9.28340708 L6.54167805,8.88517699 C6.54167805,8.88517699 6.9368,8.64464602 7.43886829,8.64464602 C8.50899024,8.64464602 8.48106829,9.44933628 8.48106829,9.44933628 L8.48106829,9.87252212 L8.4812,11.0506195 C8.30313171,11.175 7.93000488,11.2497345 7.47996098,11.2497345 L7.47996098,11.2497345 Z M9.49679512,11.1915929 L8.98642927,11.1915929 L8.98642927,7.69048673 L9.49679512,7.69048673 L9.49679512,11.1915929 L9.49679512,11.1915929 Z M12.1258049,10.0939381 L10.4984293,10.0939381 L10.4984293,10.1463717 C10.4984293,10.5611947 10.8174244,10.7546018 11.1702683,10.8045133 C11.4834683,10.8488496 11.9005854,10.6717699 11.9005854,10.6717699 L12.0652195,11.07 C12.0652195,11.07 11.7798098,11.2470796 11.2311171,11.2470796 C10.1609951,11.2470796 9.92497561,10.5611947 9.92497561,9.93066372 C9.92497561,9.17840708 10.3310293,8.65460177 11.114161,8.65460177 C12.0101659,8.65446903 12.2245854,9.48809735 12.1258049,10.0939381 L12.1258049,10.0939381 Z M12.4415073,10.9510619 L12.618522,10.5446018 C12.7502293,10.6482743 13.0794976,10.8301327 13.403761,10.8301327 C13.6030341,10.8301327 13.878039,10.735354 13.878039,10.5487168 C13.878039,10.4350885 13.7882146,10.2773894 13.3512098,10.1795575 C13.203039,10.1463717 12.5198732,9.9970354 12.5198732,9.43287611 C12.5198732,9.03146018 12.8038341,8.65300885 13.4294439,8.65300885 C13.8822537,8.65300885 14.1805707,8.82783186 14.3103024,8.89353982 L14.1538341,9.27929204 C13.8904195,9.10924779 13.5988195,9.06358407 13.421278,9.06358407 C13.1454829,9.06358407 13.0137756,9.22539823 13.0137756,9.34977876 C13.0137756,9.62349558 13.4372146,9.66053097 13.6970732,9.75212389 C14.0995707,9.88765487 14.3803707,10.1130531 14.3803707,10.4904425 C14.3803707,10.8917257 14.0437268,11.2578319 13.4378732,11.2578319 C13.1604976,11.2579646 12.7707756,11.2040708 12.4415073,10.9510619 L12.4415073,10.9510619 Z M16.1760683,9.13473451 L15.6355415,9.12464602 L15.2379171,11.3366814 C15.1171415,11.884646 14.9717366,12.1296903 14.7395366,12.249823 C14.3258439,12.4638053 13.8133707,12.249823 13.8133707,12.249823 L13.9844585,11.8438938 C14.648922,12.0673009 14.6993659,11.4684956 14.7295268,11.3061504 C14.7596878,11.1438053 15.1220146,9.12451327 15.1220146,9.12451327 L14.7092439,9.12451327 L14.81,8.70849558 L15.2026195,8.70849558 C15.2026195,8.70849558 15.2236927,8.0519469 15.6045902,7.7899115 C16.0709659,7.4690708 16.6321707,7.70402655 16.6321707,7.70402655 L16.4610829,8.12004425 C16.0709659,8.01862832 15.8770927,8.19199115 15.8770927,8.19199115 C15.7436732,8.34411504 15.7044244,8.72880531 15.7044244,8.72880531 L16.2697122,8.72880531 L16.1760683,9.13473451 L16.1760683,9.13473451 Z M17.4541561,11.2580973 C16.8177463,11.2580973 16.3017171,10.8266814 16.3017171,9.94168142 C16.3017171,9.1120354 16.8177463,8.63561947 17.4541561,8.63561947 C18.0905659,8.63561947 18.6065951,9.1010177 18.6065951,9.94168142 C18.6065951,10.8376991 18.0905659,11.2580973 17.4541561,11.2580973 L17.4541561,11.2580973 Z M20.3187902,9.18942478 C20.3187902,9.18942478 19.5268341,8.87376106 19.5268341,10.0412389 L19.5268341,11.2059292 L19.024239,11.2059292 L19.024239,8.70278761 L19.5265707,8.70278761 L19.5265707,8.94146018 C19.940922,8.5059292 20.5383463,8.74699115 20.5383463,8.74699115 L20.3187902,9.18942478 L20.3187902,9.18942478 Z M21.7400439,11.2525221 C21.1036341,11.2525221 20.549278,10.8266814 20.549278,9.94168142 C20.549278,9.06783186 21.1199659,8.64743363 21.7455756,8.64743363 C22.188639,8.64743363 22.3602537,8.73039823 22.4808976,8.79119469 L22.3382585,9.17840708 C22.0857756,9.08986726 21.904678,9.09066372 21.8004976,9.09544248 C21.3230585,9.11761062 21.101922,9.5069469 21.101922,9.94420354 C21.101922,10.4450442 21.4107756,10.8045133 21.7511073,10.8045133 C22.1077707,10.8045133 22.1845561,10.7713274 22.3491902,10.6993805 L22.5028927,11.0755752 C22.3711854,11.1751327 22.1516293,11.2525221 21.7400439,11.2525221 L21.7400439,11.2525221 Z M24.835561,10.0939381 L23.2081854,10.0939381 L23.2081854,10.1463717 C23.2081854,10.5611947 23.5271805,10.7546018 23.8800244,10.8045133 C24.1932244,10.8488496 24.6103415,10.6717699 24.6103415,10.6717699 L24.7749756,11.07 C24.7749756,11.07 24.4895659,11.2470796 23.9408732,11.2470796 C22.8707512,11.2470796 22.6347317,10.5611947 22.6347317,9.93066372 C22.6347317,9.17840708 23.0407854,8.65460177 23.8239171,8.65460177 C24.719922,8.65446903 24.9343415,9.48809735 24.835561,10.0939381 L24.835561,10.0939381 Z" id="Shape" fill="#0092DA" sketch:type="MSShapeGroup"></path>
                        <path d="M11.099278,9.10088496 C10.539522,9.10088496 10.4984293,9.68455752 10.4984293,9.68455752 L11.6274244,9.68455752 C11.5833024,9.17575221 11.2419171,9.10088496 11.099278,9.10088496 L11.099278,9.10088496 Z" id="Shape" fill="#FFFFFF" sketch:type="MSShapeGroup"></path>
                    </g>
                </g>
                <rect id="Rectangle-254" fill="#0092DA" sketch:type="MSShapeGroup" mask="url(#mask-2)" x="6" y="13" width="22" height="6"></rect>
                <path d="M29,0 L8,32 L32,32 L32,0 L29,0 Z" id="shadow" opacity="0.148087687" fill="#000000" sketch:type="MSShapeGroup" mask="url(#mask-2)"></path>
            </g>
        </g>
    </g>
</svg>