<svg image-rendering="optimizeQuality" shape-rendering="geometricPrecision" viewBox="0 0 32 32" xmlns="http://www.w3.org/2000/svg"><path d="m30 32h-28c-1.1 0-2-.9-2-2v-28c0-1.1.9-2 2-2h28c1.1 0 2 .9 2 2v28c0 1.1-.9 2-2 2" fill="#fff"/><path d="m27.5 10.2c-.3-1-1.1-1.9-2.1-2.1-1.9-.6-9.4-.6-9.4-.6s-7.5 0-9.4.5c-1 .3-1.8 1.1-2.1 2.1-.5 2-.5 5.9-.5 5.9s0 3.9.5 5.8c.3 1 1.1 1.9 2.1 2.1 1.9.5 9.4.5 9.4.5s7.5 0 9.4-.5c1-.3 1.8-1.1 2.1-2.1.5-1.9.5-5.8.5-5.8s0-3.9-.5-5.8z" fill="#f00"/><path d="m13.5 19.6 6.3-3.6-6.3-3.6z" fill="#fff"/><path d="m30 2v28h-28v-28zm0-2h-28c-1.1 0-2 .9-2 2v28c0 1.1.9 2 2 2h28c1.1 0 2-.9 2-2v-28c0-1.1-.9-2-2-2z" fill="#bcc3ca"/></svg>