<?xml version="1.0" encoding="UTF-8" standalone="no"?>
<svg width="32px" height="32px" viewBox="0 0 32 32" version="1.1" xmlns="http://www.w3.org/2000/svg" xmlns:xlink="http://www.w3.org/1999/xlink" xmlns:sketch="http://www.bohemiancoding.com/sketch/ns">
    <!-- Generator: Sketch 3.2.2 (9983) - http://www.bohemiancoding.com/sketch -->
    <title>MicrosoftOutlookOnline</title>
    <desc>Created with Sketch.</desc>
    <defs>
        <rect id="path-1" x="0" y="0" width="32" height="32" rx="2"></rect>
    </defs>
    <g id="Sources-Icons-32px" stroke="none" stroke-width="1" fill="none" fill-rule="evenodd" sketch:type="MSPage">
        <g id="MicrosoftOutlookOnline" sketch:type="MSArtboardGroup">
            <g id="source-outlook" sketch:type="MSLayerGroup">
                <mask id="mask-2" sketch:name="BG" fill="white">
                    <use xlink:href="#path-1"></use>
                </mask>
                <use id="BG" fill="#2B67A3" sketch:type="MSShapeGroup" xlink:href="#path-1"></use>
                <g id="logo-outlook" mask="url(#mask-2)" fill="#FFFFFF" sketch:type="MSShapeGroup">
                    <g transform="translate(6.000000, 6.000000)">
                        <path d="M12.5104478,4.17164179 L12.5104478,8.10208955 L13.8838806,8.96686567 C13.92,8.97731343 13.998806,8.97820896 14.0349254,8.96686567 L19.9462687,4.98119403 C19.9462687,4.50955224 19.5062687,4.17164179 19.2579104,4.17164179 L12.5104478,4.17164179" id="Fill-76"></path>
                        <path d="M12.5104478,9.56865672 L13.7638806,10.4295522 C13.940597,10.559403 14.1534328,10.4295522 14.1534328,10.4295522 C13.941194,10.559403 19.9471642,6.57014925 19.9471642,6.57014925 L19.9471642,13.7940299 C19.9471642,14.580597 19.4435821,14.9101493 18.8776119,14.9101493 L12.5095522,14.9101493 L12.5095522,9.56865672 L12.5104478,9.56865672" id="Fill-77"></path>
                        <path d="M6.02029851,7.7561194 C5.59283582,7.7561194 5.25253731,7.95701493 5.00119403,8.35761194 C4.74985075,8.75880597 4.6238806,9.28925373 4.6238806,9.94955224 C4.6238806,10.6197015 4.74985075,11.1495522 5.00119403,11.538806 C5.25253731,11.9292537 5.58238806,12.1229851 5.98985075,12.1229851 C6.41044776,12.1229851 6.7438806,11.9334328 6.98985075,11.5549254 C7.2358209,11.1758209 7.35970149,10.6498507 7.35970149,9.97731343 C7.35970149,9.2761194 7.24029851,8.73044776 7.00119403,8.34029851 C6.76179104,7.95104478 6.43522388,7.7561194 6.02029851,7.7561194" id="Fill-84"></path>
                        <path d="M7.90089552,12.4635821 C7.40656716,13.1140299 6.76179104,13.44 5.96656716,13.44 C5.19134328,13.44 4.56059701,13.1247761 4.07223881,12.4943284 C3.58477612,11.8635821 3.34029851,11.0423881 3.34029851,10.0295522 C3.34029851,8.96029851 3.58776119,8.09522388 4.08358209,7.43492537 C4.57940299,6.77432836 5.2358209,6.4441791 6.05343284,6.4441791 C6.82537313,6.4441791 7.45044776,6.75940299 7.92656716,7.39223881 C8.40328358,8.02447761 8.64179104,8.85731343 8.64179104,9.89223881 C8.64268657,10.9555224 8.39522388,11.8128358 7.90089552,12.4635821 L7.90089552,12.4635821 Z M0.0731343284,2.17552239 L0.0731343284,17.5525373 L11.7707463,20.0050746 L11.7707463,-0.0886567164 L0.0731343284,2.17552239 L0.0731343284,2.17552239 Z" id="Fill-85"></path>
                    </g>
                </g>
                <path d="M29,0 L8,32 L32,32 L32,0 L29,0 Z" id="shadow" opacity="0.102203825" fill="#000000" sketch:type="MSShapeGroup" mask="url(#mask-2)"></path>
            </g>
        </g>
    </g>
</svg>