<?xml version="1.0" encoding="UTF-8" standalone="no"?>
<svg width="32px" height="32px" viewBox="0 0 32 32" version="1.1" xmlns="http://www.w3.org/2000/svg" xmlns:xlink="http://www.w3.org/1999/xlink" xmlns:sketch="http://www.bohemiancoding.com/sketch/ns">
    <defs>
        <rect id="path-1" x="0" y="0" width="32" height="32" rx="2"></rect>
    </defs>
    <g id="Sources-Icons-32px" stroke="none" stroke-width="1" fill="none" fill-rule="evenodd" sketch:type="MSPage">
        <g id="Yahoo" sketch:type="MSArtboardGroup">
            <g id="source-yahoo" sketch:type="MSLayerGroup">
                <mask id="mask-2" sketch:name="BG" fill="white">
                    <use xlink:href="#path-1"></use>
                </mask>
                <use id="BG" fill="#4801B9" sketch:type="MSShapeGroup" xlink:href="#path-1"></use>
                <path d="M16,25.2839161 C8.5,25.2839161 1,28 1,28 L1,31 L31,31 L31,28 C31,28 23.5,25.2839161 16,25.2839161 Z" id="Rectangle-108" fill="#390094" sketch:type="MSShapeGroup" mask="url(#mask-2)"></path>
                <path d="M16,1.28391606 C8.5,1.28391606 1,4 1,4 L1,7 L31,7 L31,4 C31,4 23.5,1.28391606 16,1.28391606 Z" id="Rectangle-109" fill="#390094" sketch:type="MSShapeGroup" mask="url(#mask-2)">
                    <g transform="translate(16.000000, 4.000000) scale(1, -1) translate(-16.000000, -4.000000) "></g>
                </path>
                <path d="M14.338817,28.0318789 L14.5581245,17.8218307 L6.00989869,4.03975322 C6.00989869,4.03975322 7.66944421,4.5457906 9.23505348,4.03975322 C9.61067732,4.69462518 15.9670504,14.6367717 15.9670504,14.6367717 L22.6365453,4.03975322 C22.6365453,4.03975322 24.3274028,4.45648992 26.018261,4.03975322 C25.4859536,4.66485825 17.3760986,17.8515976 17.3760986,17.8515976 L17.5639717,28.0318794 C17.5639717,28.0318794 15.9670507,27.6745601 14.338817,28.0318789 Z" id="logo-yahoo" fill="#FFFFFF" sketch:type="MSShapeGroup" mask="url(#mask-2)"></path>
                <path d="M29,0 L8,32 L32,32 L32,0 L29,0 Z" id="shadow" opacity="0.102203825" fill="#000000" sketch:type="MSShapeGroup" mask="url(#mask-2)"></path>
            </g>
        </g>
    </g>
</svg>
