<svg xmlns="http://www.w3.org/2000/svg" viewBox="0 0 32 32" enable-background="new 0 0 32 32">
  <path fill="#fff" d="m2 0h28c1.1 0 2 .9 2 2v28c0 1.1-.9 2-2 2h-28c-1.1 0-2-.9-2-2v-28c0-1.1.9-2 2-2"/>
  <path fill="#004990" d="m2 0h28c1.1 0 2 .9 2 2v28c0 1.1-.9 2-2 2h-28c-1.1 0-2-.9-2-2v-28c0-1.1.9-2 2-2"/>
  <g transform="translate(5 5)" fill="#fff">
    <path d="m21 0h-20c-.6 0-1 .4-1 1v21h22v-21c0-.6-.4-1-1-1m0 21h-20v-15h20v15m0-16h-20v-2h20v2"/>
    <path d="m17 10c.6 0 1 .4 1 1v6c0 .6-.4 1-1 1-.6 0-1-.4-1-1v-6c0-.6.4-1 1-1"/>
    <g transform="translate(3 8)">
      <path d="m0 0h11v3h-11z"/>
      <path d="m0 5h6v6h-6z"/>
    </g>
  </g>
</svg>
