<svg viewBox="0 0 64 64" xmlns="http://www.w3.org/2000/svg"><g fill="none" fill-rule="evenodd"><path d="M0 0h64v64H0z"/><g fill-rule="nonzero"><path d="M36.6 31.2l6.2-2.4a11.84 11.84 0 013.8-1h.6a15.62 15.62 0 00-19-11.4A15.36 15.36 0 0019 23h.2a12.8 12.8 0 016.8 1.8l10.6 6.4z" fill="#0364B8"/><path d="M26.2 24.8a12.58 12.58 0 00-6.6-1.8h-.2c-6.871.13-12.38 5.727-12.4 12.6a12.12 12.12 0 002.2 7l9.2-3.8 4.2-1.8 9.2-3.8 4.8-2-10.4-6.4z" fill="#0078D4"/><path d="M55.8 42.6a10 10 0 00-4-13.6 8.4 8.4 0 00-4.2-1.2H47a8.96 8.96 0 00-4 .8l-6.4 2.6 19.2 11.4z" fill="#1490DF"/><path d="M47 37.4l-2.6-1.6-6-3.6-1.8-1-4.8 2-9.2 3.8-4.2 1.8-9.2 3.8A12.54 12.54 0 0019.4 48h27.4a10 10 0 009-5.4L47 37.4z" fill="#28A8EA"/></g></g></svg>