<svg viewBox="0 0 64 64" xmlns="http://www.w3.org/2000/svg"><g fill="none" fill-rule="evenodd"><path d="M0 0h64v64H0z"/><g transform="translate(10 9)"><circle fill="#036C70" fill-rule="nonzero" cx="20.6" cy="14" r="13.2"/><circle fill="#1A9BA1" fill-rule="nonzero" cx="32.8" cy="25.6" r="11.2"/><circle fill="#37C6D0" fill-rule="nonzero" cx="22" cy="36.2" r="9"/><path d="M23 10.6H8a13.16 13.16 0 009.2 16.2 10 10 0 003.4.4h1.2a9.2 9.2 0 00-8.8 9v.6h9.8a1.8 1.8 0 001.8-1.8V12.4a1.54 1.54 0 00-1.6-1.8z" fill="#000" fill-rule="nonzero" opacity=".1"/><path d="M21.6 12h-14c-1.13 7.118 3.691 13.815 10.8 15a6.8 6.8 0 002 .2h1.2a9.1 9.1 0 00-8.8 9.2 5.54 5.54 0 00.2 1.8h8.2a1.8 1.8 0 001.8-1.8V13.8a1.34 1.34 0 00-1.4-1.8z" fill="#000" fill-rule="nonzero" opacity=".2"/><path d="M21.6 12h-14c-1.13 7.118 3.691 13.815 10.8 15a6.8 6.8 0 002 .2h1.2a9.06 9.06 0 00-8.8 8.2h8.4a1.8 1.8 0 001.8-1.8V13.8a1.34 1.34 0 00-1.4-1.8z" fill="#000" fill-rule="nonzero" opacity=".2"/><path d="M20.2 12H7.6c-1.13 7.118 3.691 13.815 10.8 15a6.8 6.8 0 002 .2h1.2a9.06 9.06 0 00-8.8 8.2H20a1.8 1.8 0 001.8-1.8V13.8a1.54 1.54 0 00-1.6-1.8z" fill="#000" fill-rule="nonzero" opacity=".2"/><path d="M1.8 12h18.4a1.8 1.8 0 011.8 1.8v18.4a1.8 1.8 0 01-1.8 1.8H1.8A1.8 1.8 0 010 32.2V13.8A1.8 1.8 0 011.8 12z" fill="#03787C" fill-rule="nonzero"/><path d="M7.8 22.8l-1.2-1.2a4.7 4.7 0 01-.4-1.6 3 3 0 01.8-2.2 4.14 4.14 0 012-1.2 11.7 11.7 0 012.6-.4 22 22 0 013.6.4V19a3.82 3.82 0 00-1.6-.6 5.54 5.54 0 00-1.8-.2 7.1 7.1 0 00-2 .4 1.36 1.36 0 00-.8 1.2c.006.313.153.607.4.8.2.2.6.4.8.6a11.8 11.8 0 011.6.8h.2a6.26 6.26 0 012 1c.4.4 1 .8 1.2 1.2.32.543.46 1.173.4 1.8a4 4 0 01-.6 2.2 3.6 3.6 0 01-1.8 1.2 11.7 11.7 0 01-2.6.4 9.74 9.74 0 01-2.4-.2 7.62 7.62 0 01-2-.6v-2.6a6.26 6.26 0 002 1 7.18 7.18 0 002.2.4 7.1 7.1 0 002-.4 1.2 1.2 0 00.6-1.2 1.04 1.04 0 00-.4-.8 4.36 4.36 0 00-1-.8 6.72 6.72 0 00-2-.8c-.6-.4-1.2-.6-1.8-1z" fill="#FFF" fill-rule="nonzero"/><path d="M0 1h44.2v44.2H0z"/></g></g></svg>