<svg shape-rendering="geometricPrecision" image-rendering="optimizeQuality" xmlns="http://www.w3.org/2000/svg" viewBox="0 0 32 32"
     enable-background="new 0 0 32 32" xmlns:xlink="http://www.w3.org/1999/xlink">
  <defs>
    <path id="1" d="m7.4 8.5l8.6 6.4 8.7-6.4z"/>
    <linearGradient id="0" gradientUnits="userSpaceOnUse" x1="10.489" x2="21.536">
      <stop stop-color="#f8f6ef"/>
      <stop offset="1" stop-color="#e7e4d6"/>
    </linearGradient>
  </defs>
  <path d="m24.7 8.5c.9 0 1.7.8 1.7 1.7v.5l-2.4 1.7-8 5.4-8.1-5.6v10.5.6h-.6c-.9 0-1.7-.8-1.7-1.7v-11.4c0-.9.8-1.7 1.7-1.7l8.7 6.4 8.7-6.4"
        fill="#e75a4d"/>
  <use fill="url(#0)" xlink:href="#1"/>
  <path fill="#e7e4d7" d="m8 12.3v11.1h16v-11l-8 5.4z"/>
  <path fill="#b8b7ae" d="m8 23.4l8-5.6-8 5.5z"/>
  <path fill="#b7b6ad" d="m24 12.4v11l-8-5.6z"/>
  <path d="m26.4 10.7v11c0 1.2-.6 1.7-2.4 1.7v-11.1l2.4-1.6" fill="#b2392f"/>
  <g fill="url(#0)">
    <use xlink:href="#1"/>
    <use xlink:href="#1"/>
    <use xlink:href="#1"/>
    <use xlink:href="#1"/>
    <use xlink:href="#1"/>
    <use xlink:href="#1"/>
    <use xlink:href="#1"/>
  </g>
  <use fill="#f7f5ed" xlink:href="#1"/>
  <path d="m30 2v27.9h-27.9v-27.9h27.9m0-2h-28c-1.1 0-2 .9-2 2v28c0 1.1.9 2 2 2h28c1.1 0 2-.9 2-2v-28c0-1.1-.9-2-2-2z" fill="#bcc3ca"/>
</svg>
