<?xml version="1.0" encoding="utf-8"?>
<!-- Generator: Adobe Illustrator 24.0.1, SVG Export Plug-In . SVG Version: 6.00 Build 0)  -->
<svg version="1.1" id="Layer_1" image-rendering="optimizeQuality" shape-rendering="geometricPrecision"
	 xmlns="http://www.w3.org/2000/svg" xmlns:xlink="http://www.w3.org/1999/xlink" x="0px" y="0px" viewBox="0 0 32 32"
	 style="enable-background:new 0 0 32 32;" xml:space="preserve">
<style type="text/css">
	.st0{fill:#FFFFFF;}
	.st1{fill:#FF0000;}
	.st2{fill:#BCC3CA;}
</style>
<path class="st0" d="M30,32H2c-1.1,0-2-0.9-2-2V2c0-1.1,0.9-2,2-2h28c1.1,0,2,0.9,2,2v28C32,31.1,31.1,32,30,32"/>
<g id="XMLID_184_">
	<path id="XMLID_182_" class="st1" d="M27.5,10.2c-0.3-1-1.1-1.9-2.1-2.1C23.5,7.5,16,7.5,16,7.5s-7.5,0-9.4,0.5
		c-1,0.3-1.8,1.1-2.1,2.1C4,12.1,4,16,4,16s0,3.9,0.5,5.8c0.3,1,1.1,1.9,2.1,2.1c1.9,0.5,9.4,0.5,9.4,0.5s7.5,0,9.4-0.5
		c1-0.3,1.8-1.1,2.1-2.1C28,19.9,28,16,28,16S28,12.1,27.5,10.2z"/>
	<polygon id="XMLID_1355_" class="st0" points="13.5,19.6 19.8,16 13.5,12.4 	"/>
</g>
<path class="st2" d="M30,2v28H2V2H30 M30,0H2C0.9,0,0,0.9,0,2v28c0,1.1,0.9,2,2,2h28c1.1,0,2-0.9,2-2V2C32,0.9,31.1,0,30,0z"/>
</svg>
