<?xml version="1.0" encoding="UTF-8" standalone="no"?>
<svg width="32px" height="32px" viewBox="0 0 32 32" version="1.1" xmlns="http://www.w3.org/2000/svg" xmlns:xlink="http://www.w3.org/1999/xlink" xmlns:sketch="http://www.bohemiancoding.com/sketch/ns">
    <defs>
        <rect id="path-1" x="0" y="0" width="32" height="32" rx="2"></rect>
    </defs>
    <g id="Sources-Icons-32px" stroke="none" stroke-width="1" fill="none" fill-rule="evenodd" sketch:type="MSPage">
        <g id="Opentext" sketch:type="MSArtboardGroup">
            <g id="source-opentext" sketch:type="MSLayerGroup">
                <mask id="mask-2" sketch:name="BG" fill="white">
                    <use xlink:href="#path-1"></use>
                </mask>
                <use id="BG" fill="#006FA8" sketch:type="MSShapeGroup" xlink:href="#path-1"></use>
                <path d="M9.70475168,22.9476533 C12.8593826,22.9476533 15.4059597,20.48996 15.4059597,16.4939333 C15.4059597,12.1791467 12.5610738,10 9.70475168,10 C6.84295302,10 4,12.1791467 4,16.4939333 C4,20.48996 6.54802685,22.9476533 9.70475168,22.9476533 M9.58700671,22.2707867 C7.64977181,22.2707867 5.87167785,20.6002 5.87167785,16.4753867 C5.87167785,12.1982133 7.80746309,10.6758267 9.58700671,10.6758267 C11.3665503,10.6758267 13.301047,12.1982133 13.301047,16.4753867 C13.301047,20.6002 11.5227919,22.2707867 9.58700671,22.2707867 Z M25.1398121,22.63808 L19.6285101,22.63808 L19.6285101,22.3366533 C21.3452349,22.25744 21.402094,21.7871867 21.4900403,20.2888933 L21.4900403,10.93496 L20.1798658,10.93496 C18.1005638,10.93496 17.5946309,11.32548 17.1800268,13.5353067 L16.7248322,13.5353067 L16.8391946,10.1733333 L27.8940134,10.1733333 L28.0049933,13.5353067 L27.5565638,13.5353067 C27.1574228,11.3 26.6265235,10.93496 24.5546309,10.93496 L23.3283758,10.93496 L23.3283758,20.5105867 C23.3283758,21.8924 23.5524295,22.27564 25.1398121,22.3366533 L25.1398121,22.63808 Z" id="Fill-5" fill="#FFFFFF" sketch:type="MSShapeGroup" mask="url(#mask-2)"></path>
                <path d="M29,0 L8,32 L32,32 L32,0 L29,0 Z" id="shadow" opacity="0.102203825" fill="#000000" sketch:type="MSShapeGroup" mask="url(#mask-2)"></path>
            </g>
        </g>
    </g>
</svg>
