<svg xmlns="http://www.w3.org/2000/svg" viewBox="0 0 32 32" enable-background="new 0 0 32 32">
  <defs>
    <filter id="1" filterUnits="userSpaceOnUse" x="4" y="8" width="23.9" height="16">
      <feColorMatrix type="matrix" values="1 0 0 0 0  0 1 0 0 0  0 0 1 0 0  0 0 0 1 0"/>
    </filter>
    <mask maskUnits="userSpaceOnUse" x="4" y="8" width="23.9" height="16" id="0">
      <g filter="url(#1)">
        <path fill="#fff" d="m2 0h28c1.1 0 2 .9 2 2v28c0 1.1-.9 2-2 2h-28c-1.1 0-2-.9-2-2v-28c0-1.1.9-2 2-2"/>
      </g>
    </mask>
  </defs>
  <path fill="#db3c2e" d="m2 0h28c1.1 0 2 .9 2 2v28c0 1.1-.9 2-2 2h-28c-1.1 0-2-.9-2-2v-28c0-1.1.9-2 2-2"/>
  <path mask="url(#0)" fill="#fff"
        d="m21.2 21.4h-10.4c-2.8 0-4.4-2.4-4.4-5.4s1.6-5.4 4.3-5.4h10.4c2.7 0 4.3 2.4 4.3 5.4s-1.4 5.4-4.2 5.4m0-13.4h-10.4c-4.1 0-6.8 3.6-6.8 8s2.7 8 6.7 8h10.4c4.1 0 6.7-3.6 6.7-8s-2.5-8-6.6-8"/>
</svg>
