<?xml version="1.0" encoding="UTF-8" standalone="no"?>
<svg width="32px" height="32px" viewBox="0 0 32 32" version="1.1" xmlns="http://www.w3.org/2000/svg" xmlns:xlink="http://www.w3.org/1999/xlink" xmlns:sketch="http://www.bohemiancoding.com/sketch/ns">
    <!-- Generator: Sketch 3.2.2 (9983) - http://www.bohemiancoding.com/sketch -->
    <title>EktronCMS</title>
    <desc>Created with Sketch.</desc>
    <defs>
        <rect id="path-1" x="0" y="0" width="32" height="32" rx="2"></rect>
    </defs>
    <g id="Sources-Icons-32px" stroke="none" stroke-width="1" fill="none" fill-rule="evenodd" sketch:type="MSPage">
        <g id="EktronCMS" sketch:type="MSArtboardGroup">
            <g id="source-ektron" sketch:type="MSLayerGroup">
                <mask id="mask-2" sketch:name="BG" fill="white">
                    <use xlink:href="#path-1"></use>
                </mask>
                <use id="BG" fill="#1C6DB1" sketch:type="MSShapeGroup" xlink:href="#path-1"></use>
                <circle id="Oval-24" fill="#FFFFFF" sketch:type="MSShapeGroup" mask="url(#mask-2)" cx="16" cy="16" r="12"></circle>
                <path d="M20.6699712,13.8615506 C20.6699712,13.8260713 20.6731395,13.8061981 20.6692401,13.7879098 C20.6621725,13.7547471 20.6518148,13.722194 20.6409697,13.6900067 C20.3788589,12.9114143 19.9151995,12.2741293 19.2808208,11.7590099 C18.3513086,11.0043142 17.2722799,10.6657375 16.0896742,10.6672006 C15.661231,10.6678102 15.2253546,10.7231627 14.8059286,10.8139944 C13.9194313,11.0060211 13.1239599,11.3953173 12.4840978,12.0554017 C12.0075217,12.5469902 11.6755879,13.1367257 11.3856941,13.7514552 C11.3721682,13.7799849 11.3715589,13.8146107 11.3615667,13.8615506 L20.6699712,13.8615506 L20.6699712,13.8615506 Z M7,15.5005447 C7.01401336,15.4576283 7.03838442,15.4153214 7.04069967,15.3719173 C7.09809352,14.2731584 7.33827031,13.2165845 7.77280631,12.2057312 C8.26546729,11.0597886 8.99257786,10.0795377 9.90722374,9.239253 C11.1369874,8.10940409 12.5775608,7.40737863 14.2293094,7.14134536 C14.8450442,7.04210105 15.4645565,6.98613896 16.0867497,7.00296417 C17.5758215,7.04307642 19.0121299,7.31837575 20.3457143,8.01796278 C21.0311503,8.37763195 21.650419,8.82776707 22.2142434,9.35934592 C23.2565937,10.3416695 23.9974739,11.5145568 24.454675,12.8684979 C24.6652409,13.4920057 24.8225561,14.13051 24.8826308,14.786449 C24.9379531,15.3908151 24.9670765,15.9978636 24.9977841,16.6040585 C25.0068014,16.7826739 24.9865734,16.9636058 24.9681732,17.1423431 C24.9643957,17.1780661 24.9133383,17.2220799 24.8743446,17.2373201 C24.8320609,17.2540234 24.7782008,17.2417093 24.7295805,17.2417093 L11.3794795,17.2417093 L11.137353,17.2417093 C11.2052264,17.5200567 11.2531155,17.77658 11.3307374,18.0235935 C11.7053205,19.2153787 12.4483942,20.1073582 13.5517939,20.6894127 C14.0900288,20.9733685 14.6704256,21.1352805 15.2772649,21.190633 C15.5720329,21.2174558 15.8685069,21.2515939 16.1635185,21.2451321 C17.5636359,21.2148955 18.8133839,20.7713441 19.8842483,19.8538829 C19.9064259,19.8348631 19.9359149,19.8215736 19.9517561,19.7985304 C20.118576,19.554565 20.3042835,19.5938238 20.5422669,19.7120879 C21.3004506,20.0885823 22.0704542,20.4415458 22.8361929,20.8030438 C23.1134137,20.9338658 23.3916094,21.0627371 23.668952,21.1933153 C23.7070927,21.2112378 23.7427963,21.234281 23.7978749,21.2652491 C23.6103396,21.5055569 23.4390111,21.7412317 23.251232,21.9630073 C22.4395539,22.9205808 21.4761659,23.6813726 20.3249989,24.1935659 C19.5919174,24.5194627 18.8253257,24.729412 18.0333881,24.8519433 C17.2770323,24.9689882 16.5158022,25.0180008 15.7517695,24.9941041 C13.7880713,24.9325336 11.9631664,24.4296064 10.3922078,23.2046585 C8.72193724,21.9024122 7.63121045,20.2217208 7.21812099,18.1290558 C7.13099445,17.6875772 7.09992135,17.2351255 7.04082153,16.7879165 C7.03558175,16.7478043 7.01401336,16.7100085 7,16.6709936 L7,15.5005447 L7,15.5005447 Z" id="Fill-2" fill="#ED9B2D" sketch:type="MSShapeGroup" mask="url(#mask-2)"></path>
                <path d="M29,0 L8,32 L32,32 L32,0 L29,0 Z" id="shadow" opacity="0.102203825" fill="#000000" sketch:type="MSShapeGroup" mask="url(#mask-2)"></path>
            </g>
        </g>
    </g>
</svg>