<svg xmlns="http://www.w3.org/2000/svg" viewBox="0 0 32 32" enable-background="new 0 0 32 32">
  <defs>
    <filter id="1" filterUnits="userSpaceOnUse" x="4.3" y="11.8" width="23.9" height="12">
      <feColorMatrix type="matrix" values="1 0 0 0 0  0 1 0 0 0  0 0 1 0 0  0 0 0 1 0"/>
    </filter>
    <mask maskUnits="userSpaceOnUse" x="4.3" y="11.8" width="23.9" height="12" id="0">
      <g filter="url(#1)">
        <path fill="#fff" d="m2 0h28c1.1 0 2 .9 2 2v28c0 1.1-.9 2-2 2h-28c-1.1 0-2-.9-2-2v-28c0-1.1.9-2 2-2"/>
      </g>
    </mask>
  </defs>
  <path fill="#39393a" d="m2 0h28c1.1 0 2 .9 2 2v28c0 1.1-.9 2-2 2h-28c-1.1 0-2-.9-2-2v-28c0-1.1.9-2 2-2"/>
  <path mask="url(#0)" fill="#fff"
        d="m18.6 12l-1.4 4.7-.5-1.6c-.9 0-1.7-.1-2.5-.1l1.8 5h2.2l3-8.1h-2.6zm-2.9 0h-2.6l.7 2c.8 0 1.7 0 2.5 0l-.6-2m-3.7 2v-2h-2.4v1.8c.7.1 1.5.1 2.4.2m-2.4.7v5.4h2.4v-5.2c-.9 0-1.7-.1-2.4-.2m18.6 1.8l-4.8.3c0 0 .1.9 1 1.2 1 .4 2.4-.1 2.4-.1l1.2 1.7c0 0-.9.5-2.7.5-2.3 0-4.1-1.4-4.2-3.9 0-.4 0-.7.1-1.1 3-.1 5.1-.3 5.1-.3s0-.7-.6-1c-.3-.2-.9-.2-1.1-.2-.1 0-1.3.1-3 .3.6-1.2 1.7-2 3.2-2.1 2.3 0 3.1 1.5 3.3 2.9.2.7.1 1.8.1 1.8m-20.3-2c-1.2-.2-2.1-.3-2.4-.4v6.2c0 0 0 .5-.2.9-.4.5-.9.5-.9.5l.9 2.1c0 0 .5-.1 1-.3.6-.3 1-.6 1.4-1.3.3-.6.3-1.3.3-1.3v-6.4zm0-.8v-1.7h-2.5v1.5c.5 0 1.3.1 2.5.2"/>
</svg>
