<?xml version="1.0" encoding="utf-8"?>
<svg version="1.1" viewBox="0 0 64 64" style="enable-background:new 0 0 64 64;">
<path fill="#1F263F" d="M60,0H4C1.8,0,0,1.8,0,4v56c0,2.2,1.8,4,4,4h56c2.2,0,4-1.8,4-4V4C64,1.8,62.2,0,60,0"/>
<path fill="#FFFFFF" d="M47.3,44.6c-0.4,0-0.7-0.2-0.9-0.5c-0.3-0.5-0.1-1.1,0.4-1.4c3.9-2.1,5.4-7.1,3.2-11c-1.4-2.6-4.1-4.2-7.1-4.2
	h-2.3c-0.5,0-0.9-0.3-1-0.7c-1.9-7.2-9.3-11.6-16.5-9.7s-11.6,9.3-9.7,16.5c0.5,2.1,1.6,4,3,5.6c0.4,0.4,0.3,1-0.1,1.4
	s-1,0.3-1.4-0.1c-1.6-1.8-2.8-4-3.4-6.4c-2.1-8.3,2.9-16.8,11.2-18.9c8-2.1,16.3,2.6,18.7,10.4h1.5c3.7,0,7.1,2,8.9,5.3
	c2.7,4.9,0.9,11-4,13.7C47.6,44.6,47.4,44.6,47.3,44.6z"/>
<path fill="#FFFFFF" d="M40,38.6l-7.3-7.3c-0.1-0.1-0.2-0.2-0.3-0.2c-0.2-0.1-0.5-0.1-0.8,0c-0.1,0.1-0.2,0.1-0.3,0.2L24,38.6
	c-0.4,0.4-0.4,1,0,1.4s1,0.4,1.4,0l5.6-5.6v13.9c0,0.6,0.4,1,1,1c0.6,0,1-0.4,1-1V34.4l5.6,5.6c0.2,0.2,0.5,0.3,0.7,0.3
	s0.5-0.1,0.7-0.3C40.4,39.6,40.4,39,40,38.6z"/>
</svg>
