<?xml version="1.0" encoding="UTF-8" standalone="no"?>
<svg width="32px" height="32px" fill="#0079B3" viewBox="0 0 32 32" version="1.1" xmlns="http://www.w3.org/2000/svg" xmlns:xlink="http://www.w3.org/1999/xlink" xmlns:sketch="http://www.bohemiancoding.com/sketch/ns">
    <!-- Generator: Sketch 3.2.2 (9983) - http://www.bohemiancoding.com/sketch -->
    <title>Box</title>
    <desc>Created with Sketch.</desc>
    <rect id="path-1" x="0" y="0" width="32" height="32" rx="2"></rect>
    <g id="Sources-Icons-32px" stroke="none" stroke-width="1" fill="none" fill-rule="evenodd" sketch:type="MSPage">
        <g id="Box" sketch:type="MSArtboardGroup">
            <g id="source-box" sketch:type="MSLayerGroup">
                <path d="M31,20.594278 L31,11.8114439 C28.8501569,8.30860356 25.1739415,6 21,6 C17.1966214,6 13.8065156,7.9168837 11.6079621,10.9075148 L11.6079621,10.9075148 C10.4177149,9.74582002 8.57208459,9 6.5,9 C4.18423316,9 2.1513157,9.93155551 1,11.3340878 L1,15.8329561 L1,29.0059397 C1,30.1072288 1.89784041,31 2.99161703,31 L29.008383,31 C30.1083227,31 31,30.1054862 31,29.0059397 L31,20.594278 Z" id="Oval-1" fill="#FFFFFF" sketch:type="MSShapeGroup"></path>
                <g id="box" sketch:type="MSShapeGroup">
                    <g transform="translate(4.000000, 13.000000)">
                        <path d="M12.9029333,12.0182759 C11.358019,12.0182759 10.1057524,10.6956782 10.1057524,9.06435632 C10.1057524,7.43263218 11.358019,6.1101954 12.9029333,6.1101954 C14.4477714,6.1101954 15.7002667,7.43263218 15.7002667,9.06435632 C15.7002667,10.6956782 14.4477714,12.0182759 12.9029333,12.0182759 L12.9029333,12.0182759 Z M12.9029333,6.02973563 C11.3185524,6.02973563 10.0295619,7.39103448 10.0295619,9.06435632 C10.0295619,10.7375172 11.3185524,12.0987356 12.9029333,12.0987356 C14.4873905,12.0987356 15.7764571,10.7375172 15.7764571,9.06435632 C15.7764571,7.39103448 14.4873905,6.02973563 12.9029333,6.02973563 L12.9029333,6.02973563 Z" id="Fill-1" fill="#FFFFFF"></path>
                        <path d="M12.9029333,13.9087586 C11.2025905,13.9087586 9.64982857,12.9223218 8.85051429,11.3345287 L8.7832381,11.2008851 L8.7159619,11.3345287 C7.91664762,12.9223218 6.36380952,13.9087586 4.66354286,13.9087586 C3.45158095,13.9087586 2.3088,13.4140115 1.4456381,12.5159195 C0.583466667,11.618954 0.0978285714,10.4216322 0.0780952381,9.14449425 L0.0761904762,9.09621839 L0.0761904762,0.998344828 L0.076647619,0.977022989 C0.0864761905,0.488471264 0.470628571,0.091 0.933104762,0.091 C1.39550476,0.091 1.77973333,0.488471264 1.7896381,0.977103448 L1.79009524,0.993597701 L1.79009524,5.28467816 L1.912,5.18796552 C2.71070476,4.55458621 3.66209524,4.21987356 4.66354286,4.21987356 C6.36388571,4.21987356 7.91664762,5.20614943 8.7159619,6.79378161 L8.7832381,6.92750575 L8.85051429,6.79378161 C9.64975238,5.20614943 11.2025905,4.21987356 12.9029333,4.21987356 C15.432381,4.21987356 17.4902857,6.39301149 17.4902857,9.06435632 C17.4902857,11.7355402 15.432381,13.9087586 12.9029333,13.9087586 L12.9029333,13.9087586 Z M12.9029333,4.13941379 C11.1173333,4.13941379 9.56678095,5.19955172 8.7832381,6.75604598 C7.99969524,5.19955172 6.44914286,4.13941379 4.66354286,4.13941379 C3.61401905,4.13941379 2.6455619,4.50566667 1.86628571,5.12367816 L1.86628571,0.975333333 L1.86582857,0.975333333 C1.85500952,0.440758621 1.44198095,0.0105402299 0.933104762,0.0105402299 C0.424152381,0.0105402299 0.0112,0.440758621 0.000457142857,0.975333333 L0,0.975333333 L0,9.14586207 L0.0019047619,9.14586207 C0.043352381,11.827908 2.11382857,13.9892184 4.66354286,13.9892184 C6.44914286,13.9892184 7.99969524,12.9287586 8.7832381,11.3723448 C9.56678095,12.9287586 11.1173333,13.9892184 12.9029333,13.9892184 C15.4785524,13.9892184 17.5664762,11.7840575 17.5664762,9.06435632 C17.5664762,6.34433333 15.4785524,4.13941379 12.9029333,4.13941379 L12.9029333,4.13941379 Z" id="Fill-3" fill="#FFFFFF"></path>
                        <path d="M4.66354286,12.0182759 C3.11862857,12.0182759 1.86628571,10.6956782 1.86628571,9.06435632 C1.86628571,7.43263218 3.11862857,6.1101954 4.66354286,6.1101954 C6.20845714,6.1101954 7.4608,7.43263218 7.4608,9.06435632 C7.4608,10.6956782 6.20845714,12.0182759 4.66354286,12.0182759 L4.66354286,12.0182759 Z M4.66354286,6.02973563 C3.07908571,6.02973563 1.79009524,7.39103448 1.79009524,9.06435632 C1.79009524,10.7375172 3.07908571,12.0987356 4.66354286,12.0987356 C6.24792381,12.0987356 7.53699048,10.7375172 7.53699048,9.06435632 C7.53699048,7.39103448 6.24792381,6.02973563 4.66354286,6.02973563 L4.66354286,6.02973563 Z" id="Fill-4" fill="#FFFFFF"></path>
                        <path d="M23.5964952,13.7384253 C23.4470095,13.8568621 23.2694857,13.9195402 23.0830476,13.9195402 C22.8176762,13.9195402 22.5715048,13.7933793 22.4077714,13.5730805 L22.4010667,13.5641494 L20.3472,10.6648621 L20.2861714,10.5787701 L18.1779048,13.554977 L18.1645714,13.5729195 C18.0008381,13.7932184 17.7547429,13.9195402 17.4892952,13.9195402 C17.3029333,13.9195402 17.1253333,13.8567011 16.9757714,13.7381034 C16.606019,13.4448276 16.5248762,12.8833793 16.7948952,12.4865517 L16.8062476,12.4697356 L19.1819429,9.11601149 L19.2160762,9.06797701 L19.1819429,9.01970115 L16.8089143,5.66983908 L16.7948952,5.64932184 C16.5248762,5.25257471 16.606019,4.69104598 16.9757714,4.39768966 C17.1253333,4.27909195 17.3029333,4.21633333 17.4892952,4.21633333 C17.7547429,4.21641379 18.0008381,4.34273563 18.1645714,4.56295402 L18.1756952,4.57775862 L20.225219,7.47101149 L20.2861714,7.55726437 L20.3472,7.47101149 L22.3990095,4.57462069 L22.4078476,4.5627931 C22.5715048,4.34257471 22.8176,4.21617241 23.0830476,4.21617241 C23.2694857,4.21617241 23.4470095,4.27893103 23.5964952,4.39752874 C23.9662476,4.6908046 24.0474667,5.25233333 23.7775238,5.64924138 L23.766019,5.66637931 L21.3904762,9.01970115 L21.3563429,9.06797701 L21.3904762,9.11601149 L23.7619048,12.4636207 L23.7775238,12.4865517 C24.0474667,12.8835402 23.9662476,13.4451494 23.5964952,13.7384253 L23.5964952,13.7384253 Z M23.8398476,12.4394023 L21.4515048,9.06797701 L23.8398476,5.69647126 L23.8393905,5.69614943 C24.134781,5.26182759 24.049219,4.65596552 23.6422095,4.33316092 C23.4743619,4.2 23.2778667,4.1357931 23.0830476,4.1357931 C22.8056381,4.1357931 22.531581,4.26597701 22.3478857,4.51306897 L22.347581,4.51290805 L20.2861714,7.42289655 L18.2249143,4.51290805 L18.2245333,4.51331034 C18.0408381,4.26621839 17.7667048,4.13595402 17.4892952,4.13587356 C17.2944,4.13587356 17.097981,4.20016092 16.9300571,4.33332184 C16.5231238,4.6562069 16.4374857,5.26198851 16.7331048,5.69631034 L16.7326476,5.69647126 L19.1209143,9.06797701 L16.7326476,12.4394023 L16.7331048,12.4395632 C16.4374857,12.8738851 16.5231238,13.4797471 16.9300571,13.8024713 C17.097981,13.9356322 17.2944762,14 17.4892952,14 C17.7667048,14 18.0408381,13.8697356 18.2245333,13.6225632 L18.2249143,13.6228851 L20.2861714,10.712977 L22.347581,13.6228851 L22.3478857,13.6227241 C22.5315048,13.8697356 22.8057143,14 23.0830476,14 C23.2779429,14 23.4743619,13.935954 23.6422095,13.8026322 C24.049219,13.479908 24.134781,12.874046 23.8393905,12.4397241 L23.8398476,12.4394023 L23.8398476,12.4394023 Z" id="Fill-5" fill="#FFFFFF"></path>
                        <path d="M12.9029333,12.0177931 C11.358019,12.0177931 10.1057524,10.6951954 10.1057524,9.0637931 C10.1057524,7.43222989 11.358019,6.10971264 12.9029333,6.10971264 C14.4477714,6.10971264 15.7002667,7.43222989 15.7002667,9.0637931 C15.7002667,10.6951954 14.4477714,12.0177931 12.9029333,12.0177931 L12.9029333,12.0177931 Z M4.66354286,12.0177931 C3.11862857,12.0177931 1.86628571,10.6951954 1.86628571,9.0637931 C1.86628571,7.43222989 3.11862857,6.10971264 4.66354286,6.10971264 C6.20845714,6.10971264 7.4608,7.43222989 7.4608,9.0637931 C7.4608,10.6951954 6.20845714,12.0177931 4.66354286,12.0177931 L4.66354286,12.0177931 Z M12.9029333,4.13885057 C11.1173333,4.13885057 9.56678095,5.19906897 8.7832381,6.75556322 C7.99969524,5.19906897 6.44914286,4.13885057 4.66354286,4.13885057 C3.61401905,4.13885057 2.6455619,4.50518391 1.86628571,5.12311494 L1.86628571,0.974850575 L1.86582857,0.974850575 C1.85500952,0.440195402 1.44198095,0.0100574713 0.933104762,0.0100574713 C0.424152381,0.0100574713 0.0112,0.440195402 0.000457142857,0.974850575 L0,0.974850575 L0,9.14537931 L0.0019047619,9.14537931 C0.043352381,11.8274253 2.11382857,13.9886552 4.66354286,13.9886552 C6.44914286,13.9886552 7.99969524,12.9282759 8.7832381,11.3717816 C9.56678095,12.9282759 11.1173333,13.9886552 12.9029333,13.9886552 C15.4785524,13.9886552 17.5664762,11.7836552 17.5664762,9.0637931 C17.5664762,6.34385057 15.4785524,4.13885057 12.9029333,4.13885057 L12.9029333,4.13885057 Z" id="Fill-6" fill="#0079B3"></path>
                        <path d="M23.8398476,12.4388391 L21.4515048,9.06741379 L23.8398476,5.69598851 L23.8393905,5.69566667 C24.134781,5.26134483 24.049219,4.65548276 23.6422095,4.33267816 C23.2353524,4.00995402 22.6604952,4.09194253 22.3478857,4.51258621 L22.347581,4.51242529 L20.2861714,7.42233333 L18.2249143,4.51242529 L18.2245333,4.51282759 C17.9117714,4.09202299 17.3369905,4.01003448 16.9300571,4.33283908 C16.5231238,4.65564368 16.4374857,5.26150575 16.7331048,5.69574713 L16.7326476,5.69598851 L19.1209143,9.06741379 L16.7326476,12.4388391 L16.7331048,12.4390805 C16.4374857,12.8734023 16.5231238,13.4791839 16.9300571,13.8019885 C17.3369905,14.1247931 17.9117714,14.0428046 18.2245333,13.622 L18.2249143,13.6224023 L20.2861714,10.7124943 L22.347581,13.6224023 L22.3478857,13.6222414 C22.6604952,14.0428851 23.2353524,14.1248736 23.6422095,13.8022299 C24.049219,13.4794253 24.134781,12.8735632 23.8393905,12.4391609 L23.8398476,12.4388391" id="Fill-7" fill="#0079B3"></path>
                    </g>
                </g>
                <path d="M29,0 L8,32 L32,32 L32,0 L29,0 Z" id="shadow" opacity="0.102203825" fill="#000000" sketch:type="MSShapeGroup"></path>
            </g>
        </g>
    </g>
</svg>
