<svg version="1.1" id="Calque_1" xmlns:sketch="http://www.bohemiancoding.com/sketch/ns"
	 xmlns="http://www.w3.org/2000/svg" xmlns:xlink="http://www.w3.org/1999/xlink" width="32px" height="32px"
	 viewBox="0 0 32 32">
	<path fill="#FFFFFF" d="M2,0h28c1.1,0,2,0.9,2,2v28c0,1.1-0.9,2-2,2H2c-1.1,0-2-0.9-2-2V2C0,0.9,0.9,0,2,0z"/>
        <path fill="#004990" d="M2,0h28c1.1,0,2,0.9,2,2v28c0,1.1-0.9,2-2,2H2c-1.1,0-2-0.9-2-2V2C0,0.9,0.9,0,2,0z"/>
        <g transform="translate(5.000000, 5.000000)" sketch:type="MSLayerGroup">
			<path fill="#FFFFFF" d="M21,0H1C0.4,0,0,0.4,0,1v21h22V1C22,0.4,21.6,0,21,0z M21,21H1V6h20V21z M21,5H1V3h20V5z"/>
			<path fill="#FFFFFF" d="M17,10L17,10c0.6,0,1,0.4,1,1v6c0,0.6-0.4,1-1,1l0,0c-0.6,0-1-0.4-1-1v-6 C16,10.4,16.4,10,17,10z"/>
			<g transform="translate(3.000000, 8.000000)" sketch:type="MSShapeGroup">
				<rect fill="#FFFFFF" width="11" height="3"/>
				<rect y="5" fill="#FFFFFF" width="6" height="6"/>
			</g>
		</g>
</svg>
