<?xml version="1.0" encoding="UTF-8" standalone="no"?>
<svg width="32px" height="32px" viewBox="0 0 32 32" version="1.1" xmlns="http://www.w3.org/2000/svg" xmlns:xlink="http://www.w3.org/1999/xlink" xmlns:sketch="http://www.bohemiancoding.com/sketch/ns">
    <!-- Generator: Sketch 3.2.2 (9983) - http://www.bohemiancoding.com/sketch -->
    <title>MicrosoftActiveDirectory</title>
    <desc>Created with Sketch.</desc>
    <defs>
        <rect id="path-1" x="0" y="0" width="32" height="32" rx="2"></rect>
    </defs>
    <g id="Sources-Icons-32px" stroke="none" stroke-width="1" fill="none" fill-rule="evenodd" sketch:type="MSPage">
        <g id="MicrosoftActiveDirectory" sketch:type="MSArtboardGroup">
            <g id="source-active_directory" sketch:type="MSLayerGroup">
                <mask id="mask-2" sketch:name="BG" fill="white">
                    <use xlink:href="#path-1"></use>
                </mask>
                <use id="BG" fill="#2B67A3" sketch:type="MSShapeGroup" xlink:href="#path-1"></use>
                <g id="logo-active_directory" mask="url(#mask-2)" fill="#FFFFFF" sketch:type="MSShapeGroup">
                    <g transform="translate(8.000000, 7.000000)">
                        <rect id="Rectangle-3" x="15.3" y="2.82857143" width="1.7" height="3.6"></rect>
                        <path d="M0,0 L0,18 L14.7333333,18 L14.7333333,0 L0,0 Z M7.33565395,9.25714286 C2.7713079,9.25714286 2.83333333,11.3142857 2.83333333,11.3142857 L2.83333333,12.8571429 L11.9,12.8571429 L11.9,11.3142857 C11.9,11.3142857 11.9,9.25714286 7.33565395,9.25714286 Z M7.36666667,8.74285714 C8.6185121,8.74285714 9.63333333,7.82184291 9.63333333,6.68571429 C9.63333333,5.54958566 8.6185121,4.62857143 7.36666667,4.62857143 C6.11482123,4.62857143 5.1,5.54958566 5.1,6.68571429 C5.1,7.82184291 6.11482123,8.74285714 7.36666667,8.74285714 Z" id="Rectangle-1"></path>
                        <rect id="Path-2" x="15.3" y="7.58571429" width="1.7" height="3.6"></rect>
                        <rect id="Path-3" x="15.3" y="12.3428571" width="1.7" height="3.6"></rect>
                    </g>
                </g>
                <path d="M29,0 L8,32 L32,32 L32,0 L29,0 Z" id="shadow" opacity="0.102203825" fill="#000000" sketch:type="MSShapeGroup" mask="url(#mask-2)"></path>
            </g>
        </g>
    </g>
</svg>