<?xml version="1.0" encoding="utf-8"?>
<svg version="1.1" viewBox="0 0 64 64" style="enable-background:new 0 0 64 64;">
<path fill="#1F263F" d="M60,0H4C1.8,0,0,1.8,0,4v56c0,2.2,1.8,4,4,4h56c2.2,0,4-1.8,4-4V4C64,1.8,62.2,0,60,0"/>
<g>
	<path fill="#FFFFFF" d="M47.7,24.4c0-0.1-0.1-0.2-0.2-0.3L36.7,13.3c-0.1-0.1-0.2-0.2-0.3-0.2C36.3,13,36.1,13,36,13H21.6
		c-2.5,0-4.6,2.1-4.6,4.6v28.8c0,2.5,2.1,4.6,4.6,4.6c0,0,0,0,0,0h21.6c2.5,0,4.6-2.1,4.6-4.6V24.8C47.8,24.7,47.8,24.5,47.7,24.4z
		 M37,16.4l7.4,7.4H37V16.4z M43.2,49H21.6c-1.4,0-2.6-1.2-2.6-2.6V17.6c0-1.4,1.2-2.6,2.6-2.6H35v9.8c0,0.6,0.4,1,1,1h9.8v20.6
		C45.8,47.8,44.6,49,43.2,49z"/>
	<path fill="#FFFFFF" d="M39.6,34.8H25.2c-0.6,0-1-0.4-1-1s0.4-1,1-1h14.4c0.6,0,1,0.4,1,1S40.2,34.8,39.6,34.8z M39.6,42H25.2
		c-0.6,0-1-0.4-1-1s0.4-1,1-1h14.4c0.6,0,1,0.4,1,1S40.2,42,39.6,42z M28.8,27.6h-3.6c-0.6,0-1-0.4-1-1s0.4-1,1-1h3.6
		c0.6,0,1,0.4,1,1S29.4,27.6,28.8,27.6z"/>
</g>
</svg>
