<svg enable-background="new 0 0 32 32" viewBox="0 0 32 32" xmlns="http://www.w3.org/2000/svg"><g fill="#1c6db5" transform="translate(6 4)"><path d="m13.1 5.4v4.1l1.4.9h.2l6.2-4.2c0-.5-.5-.8-.7-.8z"/><path d="m13.1 11 1.3.9c.2.1.4 0 .4 0l6.1-4v7.6c0 .8-.5 1.2-1.1 1.2h-6.7z"/><path d="m6.3 9.1c-.4 0-.8.2-1.1.6s-.4 1-.4 1.7.1 1.3.4 1.7.6.6 1 .6.8-.2 1.1-.6.4-.9.4-1.6-.1-1.3-.4-1.7c-.2-.5-.5-.7-1-.7"/><path d="m8.3 14.1c-.5.7-1.2 1-2 1s-1.5-.3-2-1-.8-1.5-.8-2.6.3-2 .8-2.7 1.2-1 2.1-1c.8 0 1.5.3 2 1s.8 1.5.8 2.6c-.1 1.1-.4 2-.9 2.7m-8.2-10.8v16.1l12.3 2.6v-21l-12.3 2.3"/></g><path d="m30 2v28h-28v-28zm0-2h-28c-1.1 0-2 .9-2 2v28c0 1.1.9 2 2 2h28c1.1 0 2-.9 2-2v-28c0-1.1-.9-2-2-2z" fill="#bcc3ca"/></svg>