<svg enable-background="new 0 0 32 32" viewBox="0 0 32 32" xmlns="http://www.w3.org/2000/svg"><path d="m2 0h28c1.1 0 2 .9 2 2v28c0 1.1-.9 2-2 2h-28c-1.1 0-2-.9-2-2v-28c0-1.1.9-2 2-2" fill="#ff6501"/><path d="m11.1 20.9c.4.4.7 1 .7 1.7s-.3 1.2-.7 1.7c-.4.4-1 .7-1.7.7s-1.3-.3-1.7-.7-.7-1-.7-1.7.3-1.2.7-1.7c.4-.4 1-.7 1.7-.7s1.3.3 1.7.7m-4.1-7.8v3.4c2.2 0 4.4.9 5.9 2.5 1.6 1.6 2.5 3.7 2.5 5.9h3.4c0-3.3-1.3-6.2-3.5-8.4-2.1-2-5-3.4-8.3-3.4m0-6.1v3.4c8 0 14.5 6.5 14.5 14.5h3.5c0-4.9-2-9.4-5.3-12.7-3.2-3.2-7.7-5.2-12.7-5.2" fill="#fff"/></svg>