<svg fill="none" viewBox="0 0 40 40" xmlns="http://www.w3.org/2000/svg"><path d="m0 8c0-4.41828 3.58172-8 8-8h24c4.4183 0 8 3.58172 8 8v24c0 4.4183-3.5817 8-8 8h-24c-4.41828 0-8-3.5817-8-8z" fill="#333357"/><g stroke="#fff" stroke-linecap="round" stroke-linejoin="round"><path d="m20 29.5v-9.5"/><path d="m16.5 23.5 3.5-4 3.5 4"/><path d="m26.5 23.5c2.1111 0 3-1.8913 3-3.5277 0-1.9326-1.1973-3.719-3-3.9723 0-2.4802-2.2271-4.5-5-4.5-2.0713 0-3.7496 1.6607-4.3993 3.5719-2.1007-.5719-4.1007.815-4.1007 3.4281-1.2664.2003-2.5 1.1985-2.5 2.5633 0 1.5062 1 2.4367 3 2.4367"/></g></svg>