<?xml version="1.0" encoding="UTF-8" standalone="no"?>
<svg width="32px" height="32px" viewBox="0 0 32 32" version="1.1" xmlns="http://www.w3.org/2000/svg" xmlns:xlink="http://www.w3.org/1999/xlink" xmlns:sketch="http://www.bohemiancoding.com/sketch/ns">
    <!-- Generator: Sketch 3.2.2 (9983) - http://www.bohemiancoding.com/sketch -->
    <title>Windchill</title>
    <desc>Created with Sketch.</desc>
    <defs>
        <rect id="path-1" x="0" y="0" width="32" height="32" rx="2"></rect>
    </defs>
    <g id="Sources-Icons-32px" stroke="none" stroke-width="1" fill="none" fill-rule="evenodd" sketch:type="MSPage">
        <g id="Windchill" sketch:type="MSArtboardGroup">
            <g id="source-windchill" sketch:type="MSLayerGroup">
                <mask id="mask-2" sketch:name="BG" fill="white">
                    <use xlink:href="#path-1"></use>
                </mask>
                <use id="BG" fill="#00586F" sketch:type="MSShapeGroup" xlink:href="#path-1"></use>
                <path d="M18.4256522,14.6038127 L18.4256522,14.9832668 C17.1816619,15.0251858 15.232715,15.193735 15.232715,12.2873525 L15.232715,6.51606974 C15.232715,5.84230948 14.8183381,5.71611589 14.2376087,5.71611589 L11.7913236,5.71611589 L11.7913236,5 L20.3745991,5 L20.3745991,5.71611589 L17.928314,5.71611589 C17.3475846,5.71611589 16.9744734,5.84230948 16.9744734,6.51606974 L16.9744734,12.2449969 C16.8915121,14.4352635 17.4722415,14.5195381 18.4256522,14.6038127 Z M28.6681546,13.0034684 C27.9631981,13.8034222 26.9680918,14.3933445 25.9312899,14.3090699 C23.4845749,14.1405207 23.0701981,11.992173 23.0701981,9.92809997 C23.0701981,8.03257614 23.3190821,5.46329205 25.7241014,5.46329205 C26.7192078,5.46329205 28.2533479,5.71611589 28.4192706,7.19026665 L28.7923817,7.19026665 L28.7923817,5 L25.7653672,5 C22.821314,5 21.1212512,6.51606974 21.1212512,10.2651984 C21.1212512,13.0453874 22.9455411,14.9832668 25.3092947,14.9832668 C26.7604735,15.0251858 28.1291208,14.4352635 29,13.2982112 L28.6681546,13.0034684 Z M7.76877294,11.8659794 C7.10551202,11.8659794 6.69070529,11.6974302 6.27589856,11.4026874 L6.48351685,11.0655889 C6.77366663,11.2341382 7.10551202,11.3184128 7.47862315,11.3184128 C9.09572463,11.3184128 9.26164732,9.75998739 9.26164732,8.41159357 C9.26164732,7.02171742 8.92980194,5.63140462 7.47862315,5.46329205 C6.85662798,5.42093641 6.31759415,5.54756666 6.06871011,6.1370523 C5.77813048,6.68461897 5.81982608,7.40073486 5.81982608,8.03257614 L5.81982608,14.9832668 L4.07806765,14.9832668 L4.07806765,6.34795717 C4.07806765,5.67376026 3.87087921,5.42093641 3,5.42093641 L3,5 L7.68581159,5 C10.0908309,5 11.0859372,6.51606974 11.0859372,8.45394921 C11.0859372,10.3075541 9.63475846,11.8659794 7.76877294,11.8659794 Z" id="Fill-2" fill="#FFFFFF" sketch:type="MSShapeGroup" mask="url(#mask-2)"></path>
                <path d="M12.9322521,23.1169335 C12.7505275,23.0045968 12.5705465,22.8818025 12.3936845,22.7484289 C10.3994537,21.2806278 9.44103716,19.0710778 10.3375997,17.8041303 C11.2341623,16.5525592 13.5993569,16.7997021 15.5934275,18.2830397 C16.778487,19.1553667 17.603206,20.2949977 17.8892325,21.3388372 C19.0930219,20.0454445 20.5174028,19.6002597 21.3734297,20.3985716 C22.4052444,21.3440419 22.1194428,23.7242542 20.8337467,25.6991899 C19.5480507,27.6575016 17.6593248,28.5858228 16.6275101,27.6067545 C16.0720315,27.1003338 15.8972927,26.1888116 16.0560714,25.1421971 C15.9450085,26.1042914 16.1672987,26.9146696 16.7385729,27.252225 C17.6593248,27.8093928 19.3734764,26.9316436 20.3575752,25.2265422 C21.341674,23.5384149 21.3099183,21.5634792 20.3575752,21.0063115 C19.7257792,20.6304974 18.7903925,20.8540721 17.941584,21.5578167 C18.0697377,22.1876859 17.9911615,22.7720422 17.6648956,23.2274984 C17.3557859,23.6601185 16.8764975,23.9072614 16.2890447,24 C16.7374061,23.9072614 17.0929865,23.7064077 17.3248589,23.3665263 C17.5853184,22.9816189 17.6508003,22.4785361 17.5448507,21.9294268 C17.2826807,22.2051687 17.0360251,22.5290592 16.8180445,22.897077 C16.6910216,23.1333134 16.6592658,23.1670864 16.5639986,23.4034977 C16.754533,22.9138761 16.881556,22.6944388 17.1829887,22.2385901 C17.289335,22.0786089 17.3993891,21.9260646 17.512398,21.7813348 L17.512398,21.7813348 C17.2886844,20.8679668 16.609246,19.8480586 15.5780441,19.0401649 C13.8776999,17.7113917 11.9453231,17.5412908 11.2497059,18.5920083 C10.5385451,19.6427258 11.2806329,21.57422 12.9809771,22.9029933 C13.0481674,22.9555497 13.1156324,23.0063132 13.183281,23.0552837 C14.1142725,22.8672304 14.8839472,23.1687134 15,23.8108908 L15,23.9159241 L15,23.9028629 C14.9100914,23.3772703 14.2832444,23.1302253 13.5188221,23.2827818 C14.0585459,23.624521 14.6003984,23.8533119 15.0989159,23.9690871 C14.5264235,23.86699 13.9134346,23.6566949 13.3091032,23.333849 C13.262972,23.3470878 13.2164908,23.3617408 13.1697403,23.3778324 C12.2692238,23.6927963 11.6196584,24.4409546 11.7230992,25.044624 C11.826387,25.6484295 12.6383055,25.8715573 13.5535119,25.5565934 C14.0258814,25.3990434 14.4243427,25.123399 14.6901366,24.8084351 C14.3801202,25.2284323 13.8486854,25.6091101 13.2286526,25.8321018 C12.1364034,26.2127795 11.1325991,25.924074 11.0144684,25.1889768 C10.881648,24.4540157 11.6787237,23.5484435 12.771126,23.1679019 C12.8251445,23.1493274 12.8788818,23.1323466 12.9322521,23.1169335 Z" id="Fill-22" fill="#FFFFFF" sketch:type="MSShapeGroup" mask="url(#mask-2)"></path>
                <path d="M29,0 L8,32 L32,32 L32,0 L29,0 Z" id="shadow" opacity="0.102203825" fill="#000000" sketch:type="MSShapeGroup" mask="url(#mask-2)"></path>
            </g>
        </g>
    </g>
</svg>