<svg viewBox="0 0 64 64" xmlns="http://www.w3.org/2000/svg"><g fill="none" fill-rule="evenodd"><path d="M0 0h64v64H0z"/><g fill-rule="nonzero"><path fill="#E05243" d="M51.2 18.6v27L48 47V17z"/><g fill="#8C3123"><path d="M32 21v22.2L48 47V17zM12.8 18.6v27L16 47V17z"/></g><path fill="#E05243" d="M32 21v22.2L16 47V17z"/><g fill="#8C3123"><path d="M25 12.4v9.8l7-1.6V8.8zM25 41.8v9.8l7 3.6V43.4zM25 27v9.8l7 1V26.2z"/></g><g fill="#E05243"><path d="M39 27v9.8l-7 1V26.2zM39 12.4v9.8l-7-1.6V8.8zM39 41.8v9.8l-7 3.6V43.4z"/></g><path fill="#5E1F18" d="M32 20.6l-7 1.6 7 1.4 7-1.4z"/><path fill="#F2B0A9" d="M32 40.4l-7 1.4 7 1.6 7-1.6z"/></g></g></svg>