<svg xmlns="http://www.w3.org/2000/svg" viewBox="0 0 32 32" enable-background="new 0 0 32 32">
  <g fill="#0075c9">
    <path
        d="m16.8 13.5c-1.7 0-3.1.9-3.8 2.3-.7-1.4-2.2-2.3-3.8-2.3-1 0-1.9.3-2.6.9v-3.6c0-.5-.4-.8-.9-.8s-.9.4-.9.8v7.2c0 2.4 2 4.3 4.3 4.3 1.7 0 3.1-.9 3.8-2.3.7 1.4 2.2 2.3 3.8 2.3 2.4 0 4.3-1.9 4.3-4.3.2-2.6-1.8-4.5-4.2-4.5m-7.6 6.9c-1.4 0-2.6-1.2-2.6-2.6s1.2-2.6 2.6-2.6 2.6 1.2 2.6 2.6c0 1.4-1.2 2.6-2.6 2.6m7.6 0c-1.4 0-2.6-1.2-2.6-2.6s1.2-2.6 2.6-2.6 2.6 1.2 2.6 2.6c0 1.4-1.1 2.6-2.6 2.6"/>
    <path
        d="m27 20.8l-2.2-3 2.2-3c.3-.4.2-.9-.2-1.2-.4-.3-.9-.2-1.2.2l-1.9 2.6-1.9-2.6c-.3-.4-.8-.4-1.2-.2-.4.3-.5.8-.2 1.2l2.2 3-2.2 3c-.3.4-.2.9.2 1.2.4.3.9.2 1.2-.2l1.9-2.6 1.9 2.6c.3.4.8.4 1.2.2.4-.3.5-.9.2-1.2"/>
  </g>
  <path fill="#bcc3ca" d="m30 2v28h-28v-28h28m0-2h-28c-1.1 0-2 .9-2 2v28c0 1.1.9 2 2 2h28c1.1 0 2-.9 2-2v-28c0-1.1-.9-2-2-2z"/>
</svg>
