<svg viewBox="0 0 64 64" xmlns="http://www.w3.org/2000/svg"><g fill="none" fill-rule="evenodd"><path d="M0 0h64v64H0z"/><path d="M19.4 45.8c6.2 0 11.4-5 11.4-12.8 0-8.6-5.6-13-11.4-13C13.8 20 8 24.4 8 33c0 8 5.2 12.8 11.4 12.8m-.2-1.2c-3.8 0-7.4-3.4-7.4-11.6 0-8.6 3.8-11.6 7.4-11.6 3.6 0 7.4 3 7.4 11.6 0 8.2-3.6 11.6-7.4 11.6zm31 .6h-11v-.6c3.4-.2 3.6-1 3.8-4V22h-2.6c-4.2 0-5.2.8-6 5.2h-1l.2-6.8h22l.2 6.8H55c-.8-4.4-1.8-5.2-6-5.2h-2.4v19.2c0 2.8.4 3.6 3.6 3.6v.4z" fill="#000" fill-rule="nonzero"/></g></svg>