<svg xmlns="http://www.w3.org/2000/svg" viewBox="0 0 32 32" enable-background="new 0 0 32 32">
  <g transform="translate(6 6)">
    <path fill="#76aad0" d="m10.4.1h4.3v4.3h-4.3v-4.3"/>
    <path fill="#0d1929" d="M4.3,4.4H0V0.1h4.3V4.4"/>
    <path fill="#213156" d="M0,5.2h4.3v4.3H0V5.2z"/>
    <path fill="#76aad0" d="M0,10.4h4.3v4.3H0V10.4z"/>
    <path fill="#213156" d="m5.2.1h4.3v4.3h-4.3v-4.3"/>
    <g fill="#76aad0">
      <path d="M5.2,5.2h4.3v4.3H5.2V5.2z"/>
      <path d="m5.2 15.6h4.3v4.3h-4.3v-4.3"/>
      <path d="m10.4 10.4h4.3v4.3h-4.3v-4.3"/>
    </g>
    <path fill="#213156" d="m10.4 15.6h4.3v4.3h-4.3v-4.3"/>
    <path fill="#76aad0" d="m15.6 5.2h4.3v4.3h-4.3v-4.3"/>
    <path fill="#213156" d="m15.6 10.4h4.3v4.3h-4.3v-4.3"/>
    <path fill="#0d1929" d="m15.6 15.6h4.3v4.3h-4.3v-4.3"/>
  </g>
  <path fill="#bcc3ca" d="m30 2v28h-28v-28h28m0-2h-28c-1.1 0-2 .9-2 2v28c0 1.1.9 2 2 2h28c1.1 0 2-.9 2-2v-28c0-1.1-.9-2-2-2z"/>
</svg>
