<?xml version="1.0" encoding="UTF-8" standalone="no"?>
<svg width="32px" height="32px" viewBox="0 0 32 32" fill="#1F2E4F" version="1.1" xmlns="http://www.w3.org/2000/svg" xmlns:xlink="http://www.w3.org/1999/xlink" xmlns:sketch="http://www.bohemiancoding.com/sketch/ns">
    <!-- Generator: Sketch 3.2.2 (9983) - http://www.bohemiancoding.com/sketch -->
    <title>Confluence</title>
    <desc>Created with Sketch.</desc>
    <rect id="path-1" x="0" y="0" width="32" height="32" rx="2"></rect>
    <g id="Sources-Icons-32px" stroke="none" stroke-width="1" fill="none" fill-rule="evenodd" sketch:type="MSPage">
        <g id="Confluence" sketch:type="MSArtboardGroup">
            <g id="source-confluence" sketch:type="MSLayerGroup">
                <path d="M20.6817319,20.3947504 C20.4087032,19.832437 20.0854544,19.2637545 19.7071127,18.6854478 C19.4362497,18.2708955 19.1458944,17.8678075 18.8425441,17.4729285 C18.7192277,17.3121462 18.7708013,17.1123006 18.8651499,17.0129439 C18.9584155,16.9131626 19.0520873,16.8135229 19.1461651,16.7127509 C20.4428149,15.329825 21.7841346,13.900193 22.812358,12.3554941 C23.9059621,10.7121462 24.5119857,9.15343541 24.6650822,7.54985847 C24.6803783,7.38865157 24.6102599,7.21767885 24.4859959,7.11832218 C24.4041008,7.05321668 24.3054206,7.01939012 24.2055221,7.01939012 C24.1502937,7.01939012 24.0941177,7.03014668 24.0409198,7.05137674 C23.0436947,7.4500772 22.0313089,7.75295934 21.1069096,7.97799794 C20.9184832,8.02413793 20.7661989,8.17034225 20.7029841,8.34612712 C20.0295492,10.274807 18.310023,12.1113484 16.505759,14.0350746 C16.4334747,14.1069738 16.3319519,14.2016598 16.1670788,14.2016598 C16.0022057,14.2016598 15.9016304,14.109946 15.8281279,14.0350746 C14.0238639,12.1113484 12.3043377,10.2813176 11.6310382,8.35235461 C11.5678233,8.1768528 11.4152683,8.03036541 11.2269773,7.98422542 C10.3021719,7.75918682 9.2889739,7.43054555 8.29323786,7.03198662 C8.2396338,7.01075656 8.18359319,7 8.1282294,7 C8.02819556,7 7.92951536,7.03396809 7.84789099,7.09921513 C7.72078439,7.20055327 7.6531025,7.3640247 7.66894006,7.53032681 C7.82176578,9.13418682 8.42778947,10.7122877 9.52179962,12.3554941 C10.5497522,13.900193 11.891072,15.3299665 13.1877218,16.7127509 C15.5768927,19.25965 17.8338132,21.6660062 18.0318504,24.4564848 C18.0497184,24.7082733 18.2503275,24.9034483 18.4920873,24.9034483 L21.2992616,24.9034483 C21.425556,24.9034483 21.5464358,24.8490993 21.6336101,24.753281 C21.7205137,24.6574627 21.7665374,24.5290916 21.7601753,24.3968991 C21.7354037,23.8713845 21.6624426,23.3455867 21.54427,22.8173829 L21.5452176,22.8162506 C21.5418335,22.8006819 21.5392616,22.7851132 21.5392616,22.7688369 C21.5392616,22.6616958 21.6184494,22.5732373 21.7226795,22.5732373 C21.7314781,22.5732373 21.7400061,22.5749357 21.7488047,22.5762095 L21.7490754,22.5760679 C24.0405137,22.9272131 25.4898538,23.4874035 25.4920196,24.104632 L25.4920196,24.1060473 C25.4920196,24.6873263 24.1891431,25.5654014 22.0717827,26.208106 L22.0709705,26.2088137 C21.8826795,26.2650026 21.7452852,26.443052 21.7452852,26.6542203 C21.7452852,26.9101132 21.9475187,27.1183093 22.1972649,27.1183093 C22.2319181,27.1183093 22.2652176,27.1142048 22.2975695,27.106562 C25.1437286,26.418142 27.0304291,25.2612455 27.0304291,23.9553139 C27.0304291,22.4043875 24.4799045,21.0190556 20.6817319,20.3947504 Z M13.1548284,18.8821796 C13.0972988,18.8191971 12.9819688,18.7352676 12.8269773,18.7352676 C12.6175695,18.7352676 12.4931702,18.8766598 12.4463343,18.9516727 C12.1398707,19.4393978 11.8722565,19.9203294 11.6413258,20.3965903 C7.84870318,21.0218863 5.30223955,22.4058029 5.30223955,23.9553139 C5.30223955,25.2626608 7.17567441,26.4170098 10.027248,27.1050051 C10.0275187,27.1051467 10.0303614,27.1048636 10.0314443,27.1047221 C10.0650145,27.1130726 10.0995323,27.1183093 10.1354037,27.1183093 C10.3852852,27.1183093 10.5873834,26.9101132 10.5873834,26.6542203 C10.5873834,26.4436181 10.4499891,26.2676917 10.2626456,26.2110782 L10.2611566,26.208106 C8.14352551,25.5654014 6.84078439,24.6873263 6.84078439,24.1060473 L6.84078439,24.104632 C6.84295021,23.4883942 8.2882294,22.929053 10.5742531,22.5777663 C10.5823749,22.576351 10.5903614,22.5750772 10.5986186,22.5750772 C10.7037962,22.5750772 10.7839316,22.664385 10.7839316,22.7725167 C10.7839316,22.7890762 10.7814951,22.8049279 10.7777049,22.8203551 L10.7796,22.8224781 C10.6622396,23.3482759 10.5903614,23.8719506 10.5655898,24.3950592 C10.5593631,24.5264025 10.6056575,24.6570381 10.6928318,24.7529979 C10.7798707,24.8483917 10.9022396,24.9034483 11.0283986,24.9034483 L13.8355729,24.9034483 C14.0767912,24.9034483 14.2798368,24.7061503 14.2974341,24.4547864 C14.3586186,23.5959599 14.6152683,22.7351518 15.0807844,21.8307514 C15.2420027,21.5178204 15.1166558,21.2238549 15.0237962,21.0981729 C14.561935,20.4701879 13.9962497,19.8003088 13.1548284,18.8821796 Z M15.8427472,11.6315492 C15.9538808,11.7444931 16.0794984,11.7657231 16.1662666,11.7657231 L16.1670788,11.7657231 C16.2539824,11.7657231 16.3797353,11.7444931 16.4907336,11.6315492 C17.480649,10.6252445 18.0122226,9.45193001 18.1290416,9.1256948 C18.1460974,9.07771487 18.1632886,9.02350746 18.1632886,8.94736233 C18.1632886,8.6869403 17.9555052,8.500965 17.738517,8.500965 C17.5594308,8.500965 17.0491093,8.55616315 16.1696507,8.55616315 L16.1638301,8.55616315 C15.2843715,8.55616315 14.7741854,8.500965 14.5952345,8.500965 C14.378111,8.500965 14.1704629,8.6869403 14.1704629,8.94736233 C14.1704629,9.02350746 14.1875187,9.07771487 14.2045746,9.1256948 C14.3211228,9.45193001 14.8529671,10.6252445 15.8427472,11.6315492 Z" id="logo-confluence" fill="#F8FAFF" sketch:type="MSShapeGroup" mask="url(#mask-2)"></path>
                <path d="M29,0 L8,32 L32,32 L32,0 L29,0 Z" id="shadow" opacity="0.102203825" fill="#000000" sketch:type="MSShapeGroup" mask="url(#mask-2)"></path>
            </g>
        </g>
    </g>
</svg>
