<svg width="32" height="32" viewBox="0 0 32 32" xmlns="http://www.w3.org/2000/svg" xmlns:svg="http://www.w3.org/2000/svg">
 <rect fill="#FFFFFF" width="29.9" height="30.1" id="svg_2" y="0.77488" x="1.01531"/>
 <path fill="#BCC3CA" d="m30.01531,2.07487l0,28l-28,0l0,-28l28,0m0,-2l-28,0c-1.10001,0 -2,0.89999 -2,2l0,28c0,1.10001 0.89999,2 2,2l28,0c1.10001,0 2,-0.9 2,-2l0,-28c0,-1.10001 -0.9,-2 -2,-2l0,0z" />
 <polygon fill="#E05243" points="25.015310287475586,9.774886131286621 25.015310287475586,22.37489128112793 23.61531639099121,23.17487907409668 23.61531639099121,8.97486686706543 " />
 <polygon fill="#8C3123" points="16.015310287475586,10.87489128112793 16.015310287475586,21.274885177612305 23.61531639099121,23.17487907409668 23.61531639099121,8.97486686706543 " />
 <polygon fill="#8C3123" points="7.015310287475586,9.774886131286621 7.015310287475586,22.37489128112793 8.415304183959961,23.17487907409668 8.415304183959961,8.97486686706543 " />
 <polygon fill="#E05243" points="16.015310287475586,10.87489128112793 16.015310287475586,21.274885177612305 8.415304183959961,23.17487907409668 8.415304183959961,8.97486686706543 " />
 <polygon fill="#8C3123" points="12.715322494506836,6.874891757965088 12.715322494506836,11.47486686706543 16.015310287475586,10.674880027770996 16.015310287475586,5.174879550933838 " />
 <polygon fill="#8C3123" points="12.715322494506836,20.67487907409668 12.715322494506836,25.274885177612305 16.015310287475586,26.97486686706543 16.015310287475586,21.47486686706543 " />
 <polygon fill="#8C3123" points="12.715322494506836,13.774886131286621 12.715322494506836,18.37489128112793 16.015310287475586,18.774885177612305 16.015310287475586,13.274885177612305 " />
 <polygon fill="#E05243" points="19.315298080444336,13.774886131286621 19.315298080444336,18.37489128112793 16.015310287475586,18.774885177612305 16.015310287475586,13.274885177612305 " />
 <polygon fill="#E05243" points="19.315298080444336,6.874891757965088 19.315298080444336,11.47486686706543 16.015310287475586,10.674880027770996 16.015310287475586,5.174879550933838 " />
 <polygon fill="#E05243" points="19.315298080444336,20.67487907409668 19.315298080444336,25.274885177612305 16.015310287475586,26.97486686706543 16.015310287475586,21.47486686706543 " />
 <polygon fill="#5E1F18" points="16.015310287475586,10.674880027770996 12.715322494506836,11.47486686706543 16.015310287475586,12.17487907409668 19.315298080444336,11.47486686706543 " />
 <polygon fill="#F2B0A9" points="16.015310287475586,20.074872970581055 12.715322494506836,20.67487907409668 16.015310287475586,21.47486686706543 19.315298080444336,20.67487907409668 " />
</svg>
