<svg xmlns="http://www.w3.org/2000/svg" viewBox="0 0 32 32" enable-background="new 0 0 32 32">
  <defs>
    <filter id="1" filterUnits="userSpaceOnUse" x="9" y="7" width="15" height="18">
      <feColorMatrix type="matrix" values="1 0 0 0 0  0 1 0 0 0  0 0 1 0 0  0 0 0 1 0"/>
    </filter>
    <mask maskUnits="userSpaceOnUse" x="9" y="7" width="15" height="18" id="0">
      <g filter="url(#1)">
        <path fill="#fff" d="m2 0h28c1.1 0 2 .9 2 2v28c0 1.1-.9 2-2 2h-28c-1.1 0-2-.9-2-2v-28c0-1.1.9-2 2-2"/>
      </g>
    </mask>
  </defs>
  <path fill="#572b71" d="m2 0h28c1.1 0 2 .9 2 2v28c0 1.1-.9 2-2 2h-28c-1.1 0-2-.9-2-2v-28c0-1.1.9-2 2-2"/>
  <path mask="url(#0)" fill="#fff"
        d="m18.5 25h-3.4c-3.4 0-6.1-2.6-6.1-5.8v-11.2h1.7c.9 0 1.7.7 1.7 1.6v9.5c0 1.4 1.2 2.6 2.7 2.6h1.6c1 0 1.8.8 1.8 1.7v1.6m3.6-18c-1.1 0-1.9.8-1.9 1.8 0 1 .9 1.8 1.9 1.8 1.1 0 1.9-.8 1.9-1.8 0-1-.9-1.8-1.9-1.8m0 4.9h-1.7v11.5c0 .9.8 1.6 1.7 1.6h1.7v-11.5c0-.9-.8-1.6-1.7-1.6"/>
</svg>
