<?xml version="1.0" encoding="UTF-8" standalone="no"?>
<svg width="32px" height="32px" viewBox="0 0 32 32" version="1.1" xmlns="http://www.w3.org/2000/svg" xmlns:xlink="http://www.w3.org/1999/xlink" xmlns:sketch="http://www.bohemiancoding.com/sketch/ns">
    <defs>
        <rect id="path-1" x="0" y="0" width="32" height="32" rx="2"></rect>
    </defs>
    <g id="Sources-Icons-32px" stroke="none" stroke-width="1" fill="none" fill-rule="evenodd" sketch:type="MSPage">
        <g id="TargetProcess" sketch:type="MSArtboardGroup">
            <g id="source-targetprocess" sketch:type="MSLayerGroup">
                <mask id="mask-2" sketch:name="BG" fill="white">
                    <use xlink:href="#path-1"></use>
                </mask>
                <use id="BG" fill="#F6F6F6" sketch:type="MSShapeGroup" xlink:href="#path-1"></use>
                <g id="logo-targetprocess" mask="url(#mask-2)" sketch:type="MSShapeGroup">
                    <g transform="translate(15.796513, 16.000000) rotate(-20.000000) translate(-15.796513, -16.000000) translate(3.796513, 6.000000)">
                        <rect id="Rectangle-1" fill="#EFC600" x="5.58490566" y="18.2352941" width="12.6792453" height="1.76470588" rx="10"></rect>
                        <rect id="Rectangle-14" fill="#A30F38" transform="translate(4.019739, 5.738203) rotate(120.000000) translate(-4.019739, -5.738203) " x="-2.31988389" y="4.85585003" width="12.6792453" height="1.76470588" rx="10"></rect>
                        <rect id="Rectangle-15" fill="#619591" transform="translate(20.095210, 5.891080) scale(-1, 1) rotate(120.000000) translate(-20.095210, -5.891080) " x="13.7555878" y="5.00872657" width="12.6792453" height="1.76470588" rx="10"></rect>
                        <rect id="Rectangle-2" fill="#E48B00" x="3.9245283" y="15.4411765" width="5.43396226" height="1.76470588" rx="10"></rect>
                        <rect id="Rectangle-4" fill="#560600" transform="translate(4.075472, 11.764706) rotate(-60.000000) translate(-4.075472, -11.764706) " x="1.35849057" y="10.8823529" width="5.43396226" height="1.76470588" rx="10"></rect>
                        <rect id="Rectangle-5" fill="#90BDAE" transform="translate(9.207547, 11.764706) scale(-1, 1) rotate(-59.000000) translate(-9.207547, -11.764706) " x="6.49056604" y="10.8823529" width="5.43396226" height="1.76470588" rx="10"></rect>
                        <rect id="Rectangle-7" fill="#48615A" transform="translate(14.792453, 11.764706) rotate(-60.000000) translate(-14.792453, -11.764706) " x="12.0754717" y="10.8823529" width="5.43396226" height="1.76470588" rx="10"></rect>
                        <rect id="Rectangle-6" fill="#619591" transform="translate(19.924528, 11.764706) scale(-1, 1) rotate(-59.000000) translate(-19.924528, -11.764706) " x="17.2075472" y="10.8823529" width="5.43396226" height="1.76470588" rx="10"></rect>
                        <rect id="Rectangle-3" fill="#0089BA" x="14.490566" y="15.4411765" width="5.43396226" height="1.76470588" rx="10"></rect>
                        <rect id="Rectangle-8" fill="#48615A" transform="translate(14.792453, 11.764706) rotate(-60.000000) translate(-14.792453, -11.764706) " x="12.0754717" y="10.8823529" width="5.43396226" height="1.76470588" rx="10"></rect>
                        <rect id="Rectangle-9" fill="#046C64" transform="translate(19.924528, 11.764706) scale(-1, 1) rotate(-59.000000) translate(-19.924528, -11.764706) " x="17.2075472" y="10.8823529" width="5.43396226" height="1.76470588" rx="10"></rect>
                        <rect id="Rectangle-10" fill="#0089BA" x="14.490566" y="15.4411765" width="5.43396226" height="1.76470588" rx="10"></rect>
                        <rect id="Rectangle-13" fill="#0089BA" transform="translate(9.509434, 2.794118) rotate(-60.000000) translate(-9.509434, -2.794118) " x="6.79245283" y="1.91176471" width="5.43396226" height="1.76470588" rx="10"></rect>
                        <rect id="Rectangle-11" fill="#4CA04B" transform="translate(14.641509, 2.794118) scale(-1, 1) rotate(-59.000000) translate(-14.641509, -2.794118) " x="11.9245283" y="1.91176471" width="5.43396226" height="1.76470588" rx="10"></rect>
                        <rect id="Rectangle-12" fill="#B9BC5C" x="9.20754717" y="6.47058824" width="5.43396226" height="1.76470588" rx="10"></rect>
                    </g>
                </g>
                <path d="M29,0 L8,32 L32,32 L32,0 L29,0 Z" id="shadow" opacity="0.102203825" fill="#000000" sketch:type="MSShapeGroup" mask="url(#mask-2)"></path>
            </g>
        </g>
    </g>
</svg>
