<svg xmlns="http://www.w3.org/2000/svg" viewBox="0 0 32 32" enable-background="new 0 0 32 32">
  <g fill="#004990">
    <path
        d="m30 0h-28c-1.1 0-2 .9-2 2v28c0 1.1.9 2 2 2h28c1.1 0 2-.9 2-2v-28c0-1.1-.9-2-2-2m-3.9 13.2l-4.1 4.1 1.6 1.6.1.1c.2.2.2.4 0 .6l-.9.9c-.1.1-.2.1-.3.1s-.2 0-.3-.1l-.1-.1c-2.2 1.8-5 2.9-7.5 2.9-1 0-1.9-.2-2.7-.6-.1.1-.1.2-.2.3l-2.8 2.8c-.3.4-.8.6-1.3.6-.4 0-.9-.2-1.3-.6-.7-.8-.7-2 0-2.7l2.7-2.8c.1-.1.1-.1.2-.2-1.2-2.8-.3-6.9 2.4-10.1l-.2-.2c-.2-.2-.2-.4 0-.6l.9-.9c.1-.1.2-.1.3-.1.1 0 .2 0 .3.1l.2.2 1.5 1.5 4.1-4.1c.2-.2.5-.3.8-.3.3 0 .6.1.8.3.4.4.4 1.2 0 1.6l-4.1 4.1 4.2 4.2 4.1-4.1c.2-.2.5-.3.8-.3s.6.1.8.3c.4.3.4 1.1 0 1.5"/>
    <path d="m13 11.5c-2.5 3-3.2 7-1.3 8.8"/>
    <path d="m11.7 20.3c-1.8-1.8-1.1-5.8 1.3-8.8l7.5 7.5c-3.1 2.5-7 3.1-8.8 1.3"/>
  </g>
</svg>
