<?xml version="1.0" encoding="UTF-8" standalone="no"?>
<svg width="32px" height="32px" viewBox="0 0 32 32" version="1.1" xmlns="http://www.w3.org/2000/svg" xmlns:xlink="http://www.w3.org/1999/xlink" xmlns:sketch="http://www.bohemiancoding.com/sketch/ns">
    <!-- Generator: Sketch 3.2.2 (9983) - http://www.bohemiancoding.com/sketch -->
    <title>Drupal</title>
    <desc>Created with Sketch.</desc>
    <defs>
        <rect id="path-1" x="0" y="0" width="32" height="32" rx="2"></rect>
        <path id="path-3" d="M0,0.0306054054 L31.945284,0.0306054054 L31.945284,37.9876757 L0,37.9876757"></path>
    </defs>
    <g id="Sources-Icons-32px" stroke="none" stroke-width="1" fill="none" fill-rule="evenodd" sketch:type="MSPage">
        <g id="Drupal" sketch:type="MSArtboardGroup">
            <g id="source-drupal" sketch:type="MSLayerGroup">
                <mask id="mask-2" sketch:name="BG" fill="white">
                    <use xlink:href="#path-1"></use>
                </mask>
                <use id="BG" fill="#00457A" sketch:type="MSShapeGroup" xlink:href="#path-1"></use>
                <g id="drupal-logo-original" mask="url(#mask-2)">
                    <g transform="translate(0.000000, -6.000000)">
                        <path d="M23.9257284,7.09367568 C22.0616296,5.88671351 20.3028148,5.4112 18.5441975,4.20423784 C17.4536296,3.43622703 15.9413333,1.6075027 14.674963,0.0347135135 C14.4288395,2.55832432 13.6902716,3.58247568 12.8462222,4.31392432 C11.0522469,5.77702703 9.92671605,6.21597838 8.37906173,7.09367568 C7.0777284,7.78876757 0.0077037037,12.1776649 0.0077037037,21.6141946 C0.0077037037,31.0507243 7.64049383,38 16.1171358,38 C24.5939753,38 31.945284,31.5991568 31.945284,21.9066919 C31.945284,12.214227 25.0512593,7.82532973 23.9257284,7.09367568" id="Fill-1" fill="#1A517D" sketch:type="MSShapeGroup"></path>
                        <path d="M21.0688395,29.8028865 C21.6316049,29.8028865 22.2293333,29.8396541 22.6516543,30.1321514 C23.0737778,30.4248541 23.3199012,31.0831784 23.4607407,31.4490054 C23.6011852,31.814627 23.4607407,32.0342054 23.1792593,32.1804541 C22.9329383,32.3267027 22.8979753,32.2535784 22.6516543,31.7780649 C22.4053333,31.3025514 22.1943704,30.8272432 20.9631605,30.8272432 C19.7323457,30.8272432 19.3453827,31.2661946 18.7472593,31.7780649 C18.1495309,32.2903459 17.9383704,32.4729514 17.7272099,32.1804541 C17.5164444,31.8879568 17.5867654,31.5950486 17.9735309,31.2296324 C18.3604938,30.8638054 18.9935802,30.2784 19.5915062,30.0224649 C20.1894321,29.7665297 20.5060741,29.8028865 21.0688395,29.8028865" id="Fill-4" fill="#FFFFFF" sketch:type="MSShapeGroup"></path>
                        <path d="M15.2300247,33.9726162 C15.9334321,34.5578162 16.988642,35.0333297 19.2397037,35.0333297 C21.490963,35.0333297 23.0737778,34.3750054 23.7771852,33.8263676 C24.0938272,33.5704324 24.2344691,33.7898054 24.2696296,33.9358486 C24.3047901,34.0825081 24.3749136,34.3016757 24.1287901,34.5578162 C23.9531852,34.7408324 22.3350123,35.9112324 20.4357531,36.0940432 C18.5362963,36.2768541 15.9687901,36.3867459 14.4211358,34.9236432 C14.1750123,34.6675027 14.2451358,34.3016757 14.4211358,34.155427 C14.5967407,34.0091784 14.7375802,33.8994919 14.9487407,33.8994919 C15.1597037,33.8994919 15.1245432,33.8994919 15.2300247,33.9726162" id="Fill-5" fill="#FFFFFF" sketch:type="MSShapeGroup"></path>
                        <g id="Group-9" stroke-width="1" fill="none" sketch:type="MSLayerGroup">
                            <mask id="mask-4" sketch:name="Clip 7" fill="white">
                                <use xlink:href="#path-3"></use>
                            </mask>
                            <g id="Clip-7"></g>
                            <path d="M6.61274074,31.1928649 C9.2857284,31.1563027 9.77817284,30.6807892 12.1349136,29.5835135 C24.8675556,23.6583892 27.2240988,18.2451351 27.6815802,17.0016108 C28.1386667,15.7578811 28.8069136,13.7463459 28.1033086,11.5154378 C27.9676049,11.0844973 27.868642,10.7388 27.7971358,10.4604757 C26.1050864,8.4931027 24.425284,7.41944865 23.9178272,7.08956757 C22.0888889,5.88260541 20.2949136,5.40709189 18.5362963,4.20012973 C17.4457284,3.46868108 15.9334321,1.60339459 14.6672593,0.0306054054 C14.4211358,2.55421622 13.7175309,3.61492973 12.8381235,4.31002162 C11.0443457,5.77291892 9.91881481,6.21187027 8.37135802,7.08956757 C7.06982716,7.82122162 0,12.1737622 0,21.6100865 C0,24.6231784 0.778074074,27.3823892 2.11318519,29.7429081 L2.46222222,29.7299676 C3.20079012,30.4248541 4.36148148,31.2296324 6.61274074,31.1928649" id="Fill-6" fill="#206CA7" sketch:type="MSShapeGroup" mask="url(#mask-4)"></path>
                            <path d="M28.1933827,11.3712432 C30.5025185,14.3736541 31.6734815,17.9168973 31.6734815,21.9027892 C31.6734815,24.2158595 31.2497778,26.4005514 30.4144198,28.3968865 C29.6217284,30.2905189 28.4805926,31.9680649 27.0222222,33.3835135 C24.1392593,36.1809297 20.2637037,37.7216757 16.1094321,37.7216757 C14.0539259,37.7216757 12.0371358,37.3133297 10.1147654,36.5083459 C8.22637037,35.7173297 6.52483951,34.5849297 5.05718519,33.1423676 C1.96622222,30.1042162 0.263703704,26.0088432 0.263703704,21.6100865 C0.263703704,17.6923892 1.48681481,14.2111784 3.8982716,11.2634054 C5.74103704,9.01134054 7.72780247,7.76309189 8.49679012,7.33112432 C8.8697284,7.11935135 9.22014815,6.93263784 9.55851852,6.75188108 C10.6200494,6.18537297 11.6225185,5.65029189 13.0010864,4.5259027 C13.7362963,3.94481081 14.5195062,3.02459459 14.8529383,0.687697297 C16.0148148,2.12471351 17.3631605,3.73961081 18.393284,4.4308 C19.3078519,5.05831351 20.2457284,5.49808649 21.1529877,5.92348108 C22.0110617,6.32587027 22.8985679,6.74181622 23.7763951,7.32126486 C23.7779753,7.32229189 23.8095802,7.34262703 23.8095802,7.34262703 C26.3760988,9.00908108 27.7438025,10.7870703 28.1933827,11.3712432 L28.1933827,11.3712432 Z M23.9178272,7.08956757 C22.0888889,5.88260541 20.2949136,5.40709189 18.5362963,4.20012973 C17.4457284,3.46868108 15.9334321,1.60339459 14.6672593,0.0306054054 C14.4211358,2.55421622 13.7175309,3.61492973 12.8381235,4.31002162 C11.0443457,5.77291892 9.91881481,6.21187027 8.37135802,7.08956757 C7.06982716,7.82122162 0,12.1737622 0,21.6100865 C0,24.6231784 0.778074074,27.3823892 2.11318519,29.7429081 C4.96,34.7757514 10.3391605,37.9958919 16.1094321,37.9958919 C24.5862716,37.9958919 31.9373827,31.5950486 31.9373827,21.9027892 C31.9373827,16.5801189 29.8583704,12.8569405 27.7971358,10.4604757 C26.1050864,8.4931027 24.425284,7.41944865 23.9178272,7.08956757 L23.9178272,7.08956757 Z" id="Fill-8" fill="#194264" sketch:type="MSShapeGroup" mask="url(#mask-4)"></path>
                        </g>
                        <path d="M14.8430617,0.762054054 C15.3357037,2.26171892 15.2651852,3.02972973 15.2651852,3.35899459 C15.2651852,3.68805405 15.0893827,4.56595676 14.5266173,5.00490811 C14.2802963,5.18771892 14.2097778,5.33417297 14.2097778,5.37073514 C14.2097778,5.51698378 14.5266173,5.62667027 14.5266173,5.95572973 C14.5266173,6.35811892 14.3506173,7.1628973 12.4865185,9.10130811 C10.6224198,11.0397189 7.94923457,12.7587568 5.87397531,13.8194703 C3.79851852,14.8801838 2.81382716,14.8070595 2.53234568,14.2949838 C2.25106173,13.7829081 2.63782716,12.6490703 3.93916049,11.1496108 C5.24069136,9.64994595 9.35604938,7.49195676 9.35604938,7.49195676 L14.4914568,3.76138378 L14.7727407,2.33484324" id="Fill-10" fill="#89C6E1" sketch:type="MSShapeGroup"></path>
                        <path d="M14.8430617,0.725491892 C14.5266173,3.13962162 13.8230123,3.87107027 12.8734815,4.63908108 C11.2906667,5.88260541 9.74281481,6.65082162 9.39140741,6.83363243 C8.47664198,7.30914595 5.1705679,9.21099459 3.44691358,11.9541838 C2.91930864,12.7955243 3.44691358,13.1245838 3.55239506,13.1979135 C3.65807407,13.2710378 4.85392593,13.4170811 7.4214321,11.8079351 C9.9891358,10.1985838 11.1148642,9.24755676 12.5568395,7.67497297 C13.3305679,6.83363243 13.4360494,6.35811892 13.4360494,6.13874595 C13.4360494,5.88260541 13.2604444,5.77291892 12.978963,5.69979459 C12.8381235,5.66323243 12.802963,5.59010811 12.978963,5.48042162 C13.154963,5.37073514 13.8935309,5.00490811 14.0695309,4.85845405 C14.2451358,4.71220541 15.0893827,4.12700541 15.1245432,3.17618378 C15.1597037,2.22515676 15.0893827,1.56683243 14.8430617,0.725491892" id="Fill-11" fill="#FFFFFF" sketch:type="MSShapeGroup"></path>
                        <path d="M6.92918519,27.3158378 C6.96434568,24.4629622 9.53185185,21.7928973 12.768,21.7563351 C16.883358,21.7199784 19.7323457,25.9991892 21.8074074,25.962627 C23.5660247,25.9260649 26.9426173,22.3417405 28.5959506,22.3417405 C30.3545679,22.3417405 30.8470123,24.2435892 30.8470123,25.377427 C30.8470123,26.5112649 30.4952099,28.5595676 29.6511605,29.8396541 C28.8069136,31.1197405 28.2793086,31.5950486 27.2946173,31.5221297 C26.0282469,31.4124432 23.4957037,27.3158378 21.8779259,27.2427135 C19.8378272,27.1695892 15.4058272,31.6683784 11.9237531,31.6683784 C9.81353086,31.6683784 9.18044444,31.3391135 8.47664198,30.8638054 C7.4214321,30.0955892 6.89382716,28.9251892 6.92918519,27.3158378" id="Fill-12" fill="#FFFFFF" sketch:type="MSShapeGroup"></path>
                    </g>
                </g>
                <path d="M29,0 L8,32 L32,32 L32,0 L29,0 Z" id="shadow" opacity="0.102203825" fill="#000000" sketch:type="MSShapeGroup" mask="url(#mask-2)"></path>
            </g>
        </g>
    </g>
</svg>