<?xml version="1.0" encoding="utf-8"?>
<svg version="1.1" viewBox="0 0 64 64" style="enable-background:new 0 0 64 64;">
<path fill="#1F263F" d="M60,0H4C1.8,0,0,1.8,0,4v56c0,2.2,1.8,4,4,4h56c2.2,0,4-1.8,4-4V4C64,1.8,62.2,0,60,0"/>
<g>
	<path fill="#FFFFFF" d="M39.9,29.9H23.2c-1.1,0-2-0.9-2-2V12c0-1.1,0.9-2,2-2h16.7c1.1,0,2,0.9,2,2v15.9C41.9,29,41,29.9,39.9,29.9z
		 M23.2,12v15.9H40V12H23.2z M37,54.2H27c-1.1,0-2-0.9-2-2v-7.4c0-1.1,0.9-2,2-2h10c1.1,0,2,0.9,2,2v7.4C39,53.3,38.1,54.2,37,54.2z
		 M27,44.8v7.4h10v-7.4H27z M54,54.2h-9.9c-1.1,0-2-0.9-2-2v-7.4c0-1.1,0.9-2,2-2H54c1.1,0,2,0.9,2,2v7.4C56,53.3,55.1,54.2,54,54.2
		z M44.1,44.8v7.4H54v-7.4H44.1z M19.9,54.2H10c-1.1,0-2-0.9-2-2v-7.4c0-1.1,0.9-2,2-2h9.9c1.1,0,2,0.9,2,2v7.4
		C21.9,53.3,21,54.2,19.9,54.2z M10,44.8v7.4h9.9v-7.4H10z M49,35.1H33v-2.8c0-0.6-0.4-1-1-1s-1,0.4-1,1v2.8H15c-0.6,0-1,0.4-1,1V40
		c0,0.6,0.4,1,1,1s1-0.4,1-1v-2.9h15V40c0,0.6,0.4,1,1,1s1-0.4,1-1v-2.9h15v2.7c0,0.6,0.4,1,1,1s1-0.4,1-1v-3.7
		C50,35.5,49.6,35.1,49,35.1z"/>
</g>
</svg>
