<?xml version="1.0" encoding="UTF-8" standalone="no"?>
<svg width="32px" height="32px" viewBox="0 0 32 32" version="1.1" xmlns="http://www.w3.org/2000/svg" xmlns:xlink="http://www.w3.org/1999/xlink" xmlns:sketch="http://www.bohemiancoding.com/sketch/ns">
    <!-- Generator: Sketch 3.2.2 (9983) - http://www.bohemiancoding.com/sketch -->
    <title>MicrosoftDynamics</title>
    <desc>Created with Sketch.</desc>
    <defs>
        <rect id="path-1" x="0" y="0" width="32" height="32" rx="2"></rect>
    </defs>
    <g id="Sources-Icons-32px" stroke="none" stroke-width="1" fill="none" fill-rule="evenodd" sketch:type="MSPage">
        <g id="MicrosoftDynamics" sketch:type="MSArtboardGroup">
            <g id="source-dynamics" sketch:type="MSLayerGroup">
                <mask id="mask-2" sketch:name="BG" fill="white">
                    <use xlink:href="#path-1"></use>
                </mask>
                <use id="BG" fill="#2B67A3" sketch:type="MSShapeGroup" xlink:href="#path-1"></use>
                <path d="M14.5182009,5.11180205 C14.7314558,5.11180205 14.9842033,5.11180205 14.9842033,5.11180205 L14.9842033,19.8915393 C14.9842033,19.8915393 9.2714285,20.5365565 6.475,23.037162 C6.47500602,23.0370741 10.9107142,20.586052 15.4187499,20.4622584 L15.4187499,15.8323839 C17.6130667,13.5559404 19.1278184,9.79560534 19.8173075,8.50381274 C20.1225461,8.43776471 20.408929,8.50381274 20.408929,8.50381274 L20.408929,21.5268826 C13.634821,20.3879828 7.23659487,22.8039351 7.39107141,22.7648164 C10.14603,22.067167 16.1226172,21.0577946 20.8287602,22.1458495 C20.8287602,21.2545369 20.8287604,15.1563627 20.8287604,15.1563627 C20.8287604,15.1563627 23.9658646,12.7288318 24.675892,11.6729248 C24.8441373,11.5690134 24.9651776,11.6729248 24.9651776,11.6729248 C24.9651776,11.6729248 25.01826,24.0227911 24.9651776,24.0027502 C15.5874997,20.4622584 5.04292582,24.0027502 5.04292582,24.0027502 L5.04292582,22.5116582 C5.04292582,22.5116582 12.6057692,14.5596376 14.5182009,5.11180205 Z" id="logo-dynamics" fill="#FFFFFF" sketch:type="MSShapeGroup" mask="url(#mask-2)"></path>
                <path d="M29,0 L8,32 L32,32 L32,0 L29,0 Z" id="shadow" opacity="0.102203825" fill="#000000" sketch:type="MSShapeGroup" mask="url(#mask-2)"></path>
            </g>
        </g>
    </g>
</svg>