<svg xmlns="http://www.w3.org/2000/svg" viewBox="0 0 62.8 60.4" enable-background="new 0 0 62.8 60.4">
<g>
	<path fill="#2684FF" d="M2.3,46.1c-0.6,1.1-1.4,2.3-2,3.3C-0.3,50.3,0,51.5,1,52.1l13,8c0.9,0.6,2.2,0.3,2.8-0.7l0,0
		c0.5-0.9,1.2-2,1.9-3.2c5.1-8.5,10.3-7.5,19.7-3l12.9,6.1c1,0.5,2.2,0.1,2.7-0.9c0,0,0,0,0-0.1l6.2-14c0.4-1,0-2.2-1-2.6
		c-2.7-1.3-8.1-3.8-13-6.2C28.6,27,13.7,27.6,2.3,46.1z"/>
	<path fill="#2684FF" d="M60.6,14.3c0.7-1.1,1.4-2.3,2-3.3c0.6-0.9,0.3-2.1-0.7-2.7l-13-8C48-0.3,46.7,0,46.1,0.9L46,1
		c-0.5,0.9-1.2,2-1.9,3.2c-5.2,8.5-10.3,7.5-19.7,3L11.6,1.1C10.6,0.6,9.4,1,8.9,2c0,0,0,0,0,0.1l-6.2,14c-0.4,1,0,2.2,1,2.6
		c2.7,1.3,8.1,3.8,13,6.2C34.3,33.4,49.2,32.8,60.6,14.3z"/>
</g>
</svg>
