<?xml version="1.0" encoding="UTF-8" standalone="no"?>
<svg width="32px" height="32px" fill="#39393A" viewBox="0 0 32 32" version="1.1" xmlns="http://www.w3.org/2000/svg" xmlns:xlink="http://www.w3.org/1999/xlink" xmlns:sketch="http://www.bohemiancoding.com/sketch/ns">
    <rect id="path-1" x="0" y="0" width="32" height="32" rx="2"></rect>
    <g id="Sources-Icons-32px" stroke="none" stroke-width="1" fill="none" fill-rule="evenodd" sketch:type="MSPage">
        <g id="Jive" sketch:type="MSArtboardGroup">
            <g id="source-jive" sketch:type="MSLayerGroup">
                <path d="M18.5604688,12 L17.1122049,16.7472463 L16.6360895,15.1915632 C15.7725843,15.1673576 14.9433224,15.130818 14.1538462,15.0854133 L15.9618874,20.1080171 L18.1608812,20.1080171 L21.1453678,12 L18.5604688,12 Z M15.6594379,12 L13.0431163,12 L13.7733101,14.028334 C14.5879245,14.0496874 15.4314379,14.0620985 16.2904647,14.0620728 L15.6594379,12 Z M11.9844936,13.9663555 L11.9844936,12 L9.55534718,12 L9.55534718,13.836257 C10.302242,13.8841028 11.1183905,13.9291991 11.9844936,13.9663555 Z M9.55534718,14.6933704 L9.55534718,20.1080171 L11.9844936,20.1080171 L11.9844936,14.9325996 C11.1020111,14.858955 10.2886585,14.7769336 9.55534718,14.6933704 Z M28.221607,16.4659529 L23.419875,16.8047024 C23.419875,16.8047024 23.4732936,17.6622527 24.4141925,18.0157259 C25.4228853,18.3946381 26.8249554,17.963743 26.8249554,17.963743 L28.0457389,19.6225696 C28.0457389,19.6225696 27.1338626,20.1367452 25.3370544,20.1552976 C22.9948771,20.1794518 21.2288977,18.7561542 21.0876441,16.2451478 C21.0676029,15.888591 21.0885348,15.5342441 21.1470998,15.1901242 C24.1919328,15.0993405 26.2380441,14.8579015 26.2380441,14.8579015 C26.2380441,14.8579015 26.2724853,14.1745182 25.6862668,13.8302184 C25.3507121,13.633182 24.8073224,13.5847452 24.5717266,13.612137 C24.4269101,13.6289422 23.2431657,13.7619443 21.5814998,13.8781927 C22.1937472,12.6877259 23.3338214,11.8312291 24.8187781,11.8166081 C27.0790833,11.7942784 27.8993389,13.349833 28.1612853,14.7284454 C28.2935328,15.4240343 28.221607,16.4659529 28.221607,16.4659529 Z M7.83521523,14.4772163 C6.60955749,14.3081627 5.76931007,14.1584325 5.40606883,14.0901328 L5.40606883,20.347349 C5.40606883,20.347349 5.44120285,20.8584925 5.16567296,21.204591 C4.79226265,21.6736445 4.25362347,21.7391178 4.25362347,21.7391178 L5.13635337,23.7979529 C5.13635337,23.7979529 5.64480698,23.7017473 6.14375956,23.4529336 C6.76229151,23.144531 7.19119873,22.8182441 7.52284409,22.1994861 C7.85448945,21.5807281 7.83521523,20.8901499 7.83521523,20.8901499 L7.83521523,14.4772163 Z M7.83521523,13.7133019 L7.83521523,12 L5.40606883,12 L5.40606883,13.4923426 C5.83940492,13.5380557 6.69029151,13.6228266 7.83521523,13.7133019 Z" id="logo-jive" fill="#FFFFFF" sketch:type="MSShapeGroup"></path>
                <path d="M29,0 L8,32 L32,32 L32,0 L29,0 Z" id="shadow" opacity="0.102203825" fill="#000000" sketch:type="MSShapeGroup" ></path>
            </g>
        </g>
    </g>
</svg>
