<svg xmlns="http://www.w3.org/2000/svg" viewBox="0 0 32 32" enable-background="new 0 0 32 32">
  <g fill="#e53227">
    <path d="M0,2V30c0,1.1,0.9,2,2,2H30c1.1,0,2-0.9,2-2V2c0-1.1-0.9-2-2-2H2C0.9,0,0,0.9,0,2z M16,27.6
			C9.7,27.6,4.5,22.4,4.5,16S9.7,4.4,16,4.4S27.5,9.6,27.5,16S22.3,27.6,16,27.6z"/>
    <path
        d="m16.1 7.5c-4.6 0-8.4 3.8-8.4 8.4 0 4.7 3.8 8.4 8.4 8.4s8.4-3.8 8.4-8.4-3.7-8.4-8.4-8.4m-1 16.5c-5.4-.6-6.8-6-6.8-6 1.1 2.1 3.1 4.5 7.1 4.6s6.2-3.6 6.2-3.6l1.4.9c.1 0-2.6 4.7-7.9 4.1m8.1-4.3l-1.3-.8-.2-.1-.1.2c0 0-2.2 3.7-6.1 3.5-1.7-.1-3.1-.5-4.3-1.4-.4-.4-.6-.7-.6-.7 1.9 1.5 4.9 1.6 6.8.7 4.4-2.1 4.2-5.8 4.2-5.8h2.5c0 .1.3 2.4-.9 4.4m.9-4.7h-2.6-.2v.2c0 .1.1 3.9-3.7 5.6-1.9.9-3.3.6-3.5.5 0 0 1.1 0 2.5-.7 1.2-.5 2.4-1.8 3-2.9 1.7-3.3-.2-4.7-.2-4.7l2.9-1.8c.1 0 1.6 1.8 1.8 3.8"/>
  </g>
</svg>
