<svg enable-background="new 0 0 32 32" viewBox="0 0 32 32" xmlns="http://www.w3.org/2000/svg"><path d="m16 27.5c6.4 0 11.5-5.1 11.5-11.5s-5.1-11.5-11.5-11.5-11.5 5.1-11.5 11.5c0 6.3 5.1 11.5 11.5 11.5" fill="#99ca3b"/><g fill="#fff"><path d="m21.6 19.9s-3.4.1-3.8-.1c-1.5-.9-1.8-3.2-1.8-3.2h-.2-.2s-.3 2.6-1.8 3.3c-.6.2-3.6 0-3.6 0l-.2-.1-.2.1.3 3.1s1.2 2 5.7 2 5.8-2.1 5.8-2.1l.3-3.1z"/><path d="m10.4 19.3h2.9c1.2-.4 1.4-1.9 1.4-1.9.3-1.9-.5-1.8-.5-1.8-2.4-.1-3.7.2-4.3.3-.3.1-.3.3-.2 1.7-.1.5.2 1.7.7 1.7m2.5-2.6c.4 0 .7.3.7.7s-.3.7-.7.7-.7-.3-.7-.7.4-.7.7-.7"/><path d="m23.4 16.1c.1-.9-1.5-1-1.5-1-.5-3-3.8-4.3-3.8-4.3-1.4-.8-1.1-3.2-1.1-3.2l-.2-.1c-1.4 1.5-.5 3.2-.5 3.2l-.2.1c-1.5-1.2-1.3-3.4-1.3-3.4h-.3c-.8.7-.5 3.8-.5 3.8h-.1c-1-.8-1.2-1.9-1.2-1.9l-.3.1c-.4 1.1 0 2 0 2s-2.4 1.6-3 3.8c-.7.3-.8.1-1.2.4-.3.3-.2 1-.2 1 .1.4.8.4.8.4l.1-.2c-.1-.3-.5 0-.5-.5s.5-.7 2.4-1 3.8-.2 3.8-.2l.6.6h1l.7-.6c3 0 3.5.2 3.5.2 1.2.2 2.6.3 2.6.9s-.5.5-.5.5l.1.3c.9-.3.8-.9.8-.9"/><path d="m21.8 15.9c-.6-.2-1.9-.4-4.2-.3 0 0-.9-.3-.5 1.8 0 0 .2 1.5 1.4 1.9h2.8c.6 0 .6-.8.7-1.6-.1-.6.1-1.7-.2-1.8m-3.1 2.1c-.4 0-.7-.3-.7-.7s.3-.7.7-.7.7.3.7.7-.4.7-.7.7"/></g><path d="m30 2v28h-28v-28zm0-2h-28c-1.1 0-2 .9-2 2v28c0 1.1.9 2 2 2h28c1.1 0 2-.9 2-2v-28c0-1.1-.9-2-2-2z" fill="#bcc3ca"/></svg>