<svg xmlns="http://www.w3.org/2000/svg" viewBox="0 0 32 32" enable-background="new 0 0 32 32">
  <defs>
    <filter id="1" filterUnits="userSpaceOnUse" x="5.3" y="7" width="21.7" height="20.1">
      <feColorMatrix type="matrix" values="1 0 0 0 0  0 1 0 0 0  0 0 1 0 0  0 0 0 1 0"/>
    </filter>
    <mask maskUnits="userSpaceOnUse" x="5.3" y="7" width="21.7" height="20.1" id="0">
      <g filter="url(#1)">
        <path fill="#fff" d="m2 0h28c1.1 0 2 .9 2 2v28c0 1.1-.9 2-2 2h-28c-1.1 0-2-.9-2-2v-28c0-1.1.9-2 2-2"/>
      </g>
    </mask>
  </defs>
  <path fill="#1f2e4f" d="m2 0h28c1.1 0 2 .9 2 2v28c0 1.1-.9 2-2 2h-28c-1.1 0-2-.9-2-2v-28c0-1.1.9-2 2-2"/>
  <path mask="url(#0)" fill="#f8faff"
        d="m20.7 20.4c-.3-.6-.6-1.1-1-1.7-.3-.4-.6-.8-.9-1.2-.1-.2-.1-.4 0-.5.1-.1.2-.2.3-.3 1.3-1.4 2.6-2.8 3.7-4.4 1.1-1.6 1.7-3.2 1.9-4.8 0-.2-.1-.3-.2-.4-.1 0-.2-.1-.3-.1-.1 0-.1 0-.2 0-1 .4-2 .7-2.9.9-.2 0-.3.2-.4.4-.7 1.9-2.4 3.8-4.2 5.7-.1.1-.2.2-.3.2s-.3-.1-.3-.2c-1.8-1.9-3.5-3.8-4.2-5.7-.1-.1-.3-.3-.5-.3-.9-.2-1.9-.6-2.9-1-.1 0-.1 0-.2 0-.1 0-.2 0-.3.1-.1.1-.1.3-.1.4.2 1.6.8 3.2 1.9 4.8 1 1.5 2.4 3 3.7 4.4 2.4 2.5 4.6 5 4.8 7.7 0 .3.2.4.5.4h2.8c.1 0 .2-.1.3-.2.1-.1.1-.2.1-.4 0-.5-.1-1.1-.2-1.6 0 0 0 0 0 0 0-.1.1-.2.2-.2 2.3.4 3.7.9 3.7 1.5 0 .6-1.3 1.5-3.4 2.1-.2.1-.3.2-.3.4 0 .3.2.5.5.5 0 0 .1 0 .1 0 2.8-.7 4.7-1.8 4.7-3.2-.1-1.3-2.6-2.7-6.4-3.3m-7.5-1.5c-.1-.1-.2-.1-.3-.1-.2 0-.3.1-.4.2-.3.5-.6 1-.8 1.4-3.8.6-6.3 2-6.3 3.6 0 1.3 1.9 2.5 4.7 3.1 0 0 .1 0 .1 0 .2 0 .5-.2.5-.5 0-.2-.1-.4-.3-.4-2.1-.6-3.4-1.5-3.4-2.1 0-.6 1.4-1.2 3.7-1.5.1 0 .2.1.2.2-.1.5-.2 1-.2 1.6 0 .1 0 .3.1.4.1.1.2.2.3.2h2.8c.2 0 .4-.2.5-.4.1-.9.3-1.7.8-2.6.2-.3 0-.6-.1-.7-.5-.8-1.1-1.5-1.9-2.4m2.6-7.3c.1.1.2.1.3.1.1 0 .2 0 .3-.1 1-1 1.5-2.2 1.6-2.5 0 0 0-.1 0-.2 0-.3-.2-.4-.4-.4-.2 0-.7.1-1.6.1-.9 0-1.4-.1-1.6-.1-.2 0-.4.2-.4.4 0 .1 0 .1 0 .2.3.4.9 1.5 1.8 2.5"/>
</svg>
