<?xml version="1.0" encoding="UTF-8" standalone="no"?>
<svg width="32px" height="32px" viewBox="0 0 32 32" version="1.1" xmlns="http://www.w3.org/2000/svg" xmlns:xlink="http://www.w3.org/1999/xlink" xmlns:sketch="http://www.bohemiancoding.com/sketch/ns">
    <!-- Generator: Sketch 3.2.2 (9983) - http://www.bohemiancoding.com/sketch -->
    <title>RSS</title>
    <desc>Created with Sketch.</desc>
    <defs>
        <rect id="path-1" x="0" y="0" width="32" height="32" rx="2"></rect>
    </defs>
    <g id="Sources-Icons-32px" stroke="none" stroke-width="1" fill="none" fill-rule="evenodd" sketch:type="MSPage">
        <g id="RSS" sketch:type="MSArtboardGroup">
            <g id="source-rss" sketch:type="MSLayerGroup">
                <mask id="mask-2" sketch:name="BG" fill="white">
                    <use xlink:href="#path-1"></use>
                </mask>
                <use id="BG" fill="#FF6501" sketch:type="MSShapeGroup" xlink:href="#path-1"></use>
                <path d="M11.08,20.9138 C11.516,21.3492 11.7812,21.94 11.7828,22.5978 C11.7812,23.2544 11.516,23.8452 11.0816,24.279 L11.08,24.2798 C10.6448,24.713 10.0504,24.9778 9.3894,24.9778 C8.7292,24.9778 8.1362,24.7122 7.7012,24.279 C7.2672,23.8454 7,23.2552 7,22.5978 C7,21.94 7.2672,21.3478 7.7012,20.9132 L7.7012,20.9138 C8.1364,20.4802 8.7294,20.2134 9.3894,20.2134 C10.0504,20.2134 10.6442,20.4808 11.08,20.9138 L11.08,20.9138 Z M11.08,20.9132 L11.08,20.9138 L11.0808,20.9138 L11.08,20.9132 L11.08,20.9132 Z M7.7012,24.2798 C7.7012,24.2798 7.7012,24.2798 7.7012,24.279 L7.7004,24.279 L7.7012,24.2798 L7.7012,24.2798 Z M7.002,13.1208 L7.002,16.5578 C9.2458,16.5592 11.368,17.4406 12.9562,19.0312 C14.544,20.6168 15.4218,22.7422 15.4254,24.9938 L15.4266,24.9938 L15.4266,25 L18.8778,25 C18.875,21.726 17.5442,18.7604 15.3926,16.6072 C13.2406,14.4544 10.2762,13.1228 7.002,13.1208 L7.002,13.1208 Z M7.0082,7 L7.0082,10.4354 C15.029,10.4412 21.5492,16.9716 21.5546,25 L25,25 C24.9976,20.038 22.9808,15.5424 19.7214,12.2808 C16.461,9.0202 11.9684,7.0022 7.0082,7 L7.0082,7 Z" id="RSS" fill="#FFFFFF" sketch:type="MSShapeGroup" mask="url(#mask-2)"></path>
                <path d="M29,0 L8,32 L32,32 L32,0 L29,0 Z" id="shadow" opacity="0.102203825" fill="#000000" sketch:type="MSShapeGroup" mask="url(#mask-2)"></path>
            </g>
        </g>
    </g>
</svg>