<svg enable-background="new 0 0 528 528" height="528" viewBox="0 0 528 528" width="528" xmlns="http://www.w3.org/2000/svg"><path d="m524.997 495.531-84.997-165.274c-6.162-10.179-11.317-21.616-21.5-21.981v-.26c-.167-.005-.331-.016-.501-.016-10.518 0-15.736 11.654-22 22l-84.997 165c-7.146 12.141-2.19 33 22 33h169.995c24.191 0 29.147-20.328 22-32.469zm-84.997 10.726h-21.5v-.257h-22.501v-22h21.5v.257h22.501zm-21.5-44v-.257h-22.744l.732-88h21.011v.257h22.012l.732 88z"/><path d="m287.943 495 6.763-13.126c-9.956 1.384-20.118 2.126-30.455 2.126-121.642 0-220.252-98.609-220.252-220.252 0-121.642 98.61-220.251 220.252-220.251 121.643 0 220.252 98.61 220.252 220.251 0 23.404-3.665 45.949-10.433 67.107l26.688 50.039c17.434-35.236 27.241-74.918 27.241-116.896 0-145.803-118.197-264-264-264s-264 118.197-264 264 118.197 264 264 264c11.483 0 22.788-.766 33.883-2.195-13.597-5.662-15.682-21.044-9.939-30.803z"/><path d="m252.354 87.398c-79.167 0-143.344 64.177-143.344 143.344 0 28.555 8.352 55.156 22.742 77.504l-37.801 37.801c10.133 18.553 22.853 35.488 37.682 50.317l44.323-44.322c22.116 13.959 48.311 22.044 76.397 22.044 79.167 0 143.344-64.177 143.344-143.344.001-79.166-64.176-143.344-143.343-143.344zm.149 242.602c-54.676 0-99-44.324-99-99s44.324-99 99-99 99 44.324 99 99-44.324 99-99 99z"/></svg>