<?xml version="1.0" encoding="utf-8"?>
<!-- Generator: Adobe Illustrator 16.0.4, SVG Export Plug-In . SVG Version: 6.00 Build 0)  -->
<!DOCTYPE svg PUBLIC "-//W3C//DTD SVG 1.1//EN" "http://www.w3.org/Graphics/SVG/1.1/DTD/svg11.dtd">
<svg version="1.1" xmlns="http://www.w3.org/2000/svg" xmlns:xlink="http://www.w3.org/1999/xlink" x="0px" y="0px" width="528px"
	 height="528px" viewBox="0 0 528 528" enable-background="new 0 0 528 528" xml:space="preserve">
<g id="Layer_1">
	<g display="none">
		<line display="inline" fill="none" stroke="#B35047" x1="0" y1="22" x2="528" y2="22"/>
		<line display="inline" fill="none" stroke="#B35047" x1="0" y1="44" x2="528" y2="44"/>
		<line display="inline" fill="none" stroke="#B35047" x1="0" y1="66" x2="528" y2="66"/>
		<line display="inline" fill="none" stroke="#B35047" x1="0" y1="88" x2="528" y2="88"/>
		<line display="inline" fill="none" stroke="#B35047" x1="0" y1="110" x2="528" y2="110"/>
		<line display="inline" fill="none" stroke="#B35047" x1="0" y1="132" x2="528" y2="132"/>
		<line display="inline" fill="none" stroke="#B35047" x1="0" y1="374" x2="528" y2="374"/>
		<line display="inline" fill="none" stroke="#B35047" x1="0" y1="396" x2="528" y2="396"/>
		<line display="inline" fill="none" stroke="#B35047" x1="0" y1="418" x2="528" y2="418"/>
		<line display="inline" fill="none" stroke="#B35047" x1="0" y1="440" x2="528" y2="440"/>
		<line display="inline" fill="none" stroke="#B35047" x1="0" y1="462" x2="528" y2="462"/>
		<line display="inline" fill="none" stroke="#B35047" x1="0" y1="484" x2="528" y2="484"/>
		<line display="inline" fill="none" stroke="#B35047" x1="0" y1="506" x2="528" y2="506"/>
		<line display="inline" fill="none" stroke="#B35047" x1="22" y1="0" x2="22" y2="528"/>
		<line display="inline" fill="none" stroke="#B35047" x1="44" y1="0" x2="44" y2="528"/>
		<line display="inline" fill="none" stroke="#B35047" x1="66" y1="0" x2="66" y2="528"/>
		<line display="inline" fill="none" stroke="#B35047" x1="88" y1="0" x2="88" y2="528"/>
		<line display="inline" fill="none" stroke="#B35047" x1="110" y1="0" x2="110" y2="528"/>
		<line display="inline" fill="none" stroke="#B35047" x1="352" y1="0" x2="352" y2="528"/>
		<line display="inline" fill="none" stroke="#B35047" x1="374" y1="0" x2="374" y2="528"/>
		<line display="inline" fill="none" stroke="#B35047" x1="396" y1="0" x2="396" y2="528"/>
		<line display="inline" fill="none" stroke="#B35047" x1="418" y1="0" x2="418" y2="528"/>
		<line display="inline" fill="none" stroke="#B35047" x1="440" y1="0" x2="440" y2="528"/>
		<line display="inline" fill="none" stroke="#B35047" x1="462" y1="0" x2="462" y2="528"/>
		<line display="inline" fill="none" stroke="#B35047" x1="484" y1="0" x2="484" y2="528"/>
		<line display="inline" fill="none" stroke="#B35047" x1="506" y1="0" x2="506" y2="528"/>
		<g display="inline">
			<g>
				<line fill="none" stroke="#B35047" x1="0" y1="528" x2="528" y2="528"/>
				<line fill="none" stroke="#B35047" x1="0" y1="0" x2="0" y2="528"/>
			</g>
			<g>
				<line fill="none" stroke="#B35047" x1="0" y1="0" x2="528" y2="0"/>
				<line fill="none" stroke="#B35047" x1="528" y1="0" x2="528" y2="528"/>
			</g>
		</g>
		<line display="inline" fill="none" stroke="#B35047" x1="330" y1="0" x2="330" y2="528"/>
		<line display="inline" fill="none" stroke="#B35047" x1="308" y1="0" x2="308" y2="528"/>
		<line display="inline" fill="none" stroke="#B35047" x1="286" y1="0" x2="286" y2="528"/>
		<line display="inline" fill="none" stroke="#B35047" x1="264" y1="0" x2="264" y2="528"/>
		<line display="inline" fill="none" stroke="#B35047" x1="198" y1="0" x2="198" y2="528"/>
		<line display="inline" fill="none" stroke="#B35047" x1="176" y1="0" x2="176" y2="528"/>
		<line display="inline" fill="none" stroke="#B35047" x1="154" y1="0" x2="154" y2="528"/>
		<line display="inline" fill="none" stroke="#B35047" x1="132" y1="0" x2="132" y2="528"/>
		<line display="inline" fill="none" stroke="#B35047" x1="242" y1="0" x2="242" y2="528"/>
		<line display="inline" fill="none" stroke="#B35047" x1="220" y1="0" x2="220" y2="528"/>
		<line display="inline" fill="none" stroke="#B35047" x1="0" y1="154" x2="528" y2="154"/>
		<line display="inline" fill="none" stroke="#B35047" x1="0" y1="176" x2="528" y2="176"/>
		<line display="inline" fill="none" stroke="#B35047" x1="0" y1="198" x2="528" y2="198"/>
		<line display="inline" fill="none" stroke="#B35047" x1="0" y1="220" x2="528" y2="220"/>
		<line display="inline" fill="none" stroke="#B35047" x1="0" y1="242" x2="528" y2="242"/>
		<line display="inline" fill="none" stroke="#B35047" x1="0" y1="264" x2="528" y2="264"/>
		<line display="inline" fill="none" stroke="#B35047" x1="0" y1="286" x2="528" y2="286"/>
		<line display="inline" fill="none" stroke="#B35047" x1="0" y1="308" x2="528" y2="308"/>
		<line display="inline" fill="none" stroke="#B35047" x1="0" y1="330" x2="528" y2="330"/>
		<line display="inline" fill="none" stroke="#B35047" x1="0" y1="352" x2="528" y2="352"/>
	</g>
	<g display="none">
		
			<line display="inline" opacity="0.3" fill="none" stroke="#CC3333" enable-background="new    " x1="0" y1="33" x2="528" y2="33"/>
		
			<line display="inline" opacity="0.3" fill="none" stroke="#CC3333" enable-background="new    " x1="0" y1="55" x2="528" y2="55"/>
		
			<line display="inline" opacity="0.3" fill="none" stroke="#CC3333" enable-background="new    " x1="0" y1="77" x2="528" y2="77"/>
		
			<line display="inline" opacity="0.3" fill="none" stroke="#CC3333" enable-background="new    " x1="0" y1="99" x2="528" y2="99"/>
		
			<line display="inline" opacity="0.3" fill="none" stroke="#CC3333" enable-background="new    " x1="0" y1="121" x2="528" y2="121"/>
		
			<line display="inline" opacity="0.3" fill="none" stroke="#CC3333" enable-background="new    " x1="0" y1="143" x2="528" y2="143"/>
		
			<line display="inline" opacity="0.3" fill="none" stroke="#CC3333" enable-background="new    " x1="0" y1="385" x2="528" y2="385"/>
		
			<line display="inline" opacity="0.3" fill="none" stroke="#CC3333" enable-background="new    " x1="0" y1="407" x2="528" y2="407"/>
		
			<line display="inline" opacity="0.3" fill="none" stroke="#CC3333" enable-background="new    " x1="0" y1="429" x2="528" y2="429"/>
		
			<line display="inline" opacity="0.3" fill="none" stroke="#CC3333" enable-background="new    " x1="0" y1="451" x2="528" y2="451"/>
		
			<line display="inline" opacity="0.3" fill="none" stroke="#CC3333" enable-background="new    " x1="0" y1="473" x2="528" y2="473"/>
		
			<line display="inline" opacity="0.3" fill="none" stroke="#CC3333" enable-background="new    " x1="0" y1="495" x2="528" y2="495"/>
		
			<line display="inline" opacity="0.3" fill="none" stroke="#CC3333" enable-background="new    " x1="0" y1="517" x2="528" y2="517"/>
		
			<line display="inline" opacity="0.3" fill="none" stroke="#CC3333" enable-background="new    " x1="0" y1="165" x2="528" y2="165"/>
		
			<line display="inline" opacity="0.3" fill="none" stroke="#CC3333" enable-background="new    " x1="0" y1="187" x2="528" y2="187"/>
		
			<line display="inline" opacity="0.3" fill="none" stroke="#CC3333" enable-background="new    " x1="0" y1="209" x2="528" y2="209"/>
		
			<line display="inline" opacity="0.3" fill="none" stroke="#CC3333" enable-background="new    " x1="0" y1="231" x2="528" y2="231"/>
		
			<line display="inline" opacity="0.3" fill="none" stroke="#CC3333" enable-background="new    " x1="0" y1="253" x2="528" y2="253"/>
		
			<line display="inline" opacity="0.3" fill="none" stroke="#CC3333" enable-background="new    " x1="0" y1="275" x2="528" y2="275"/>
		
			<line display="inline" opacity="0.3" fill="none" stroke="#CC3333" enable-background="new    " x1="0" y1="297" x2="528" y2="297"/>
		
			<line display="inline" opacity="0.3" fill="none" stroke="#CC3333" enable-background="new    " x1="0" y1="319" x2="528" y2="319"/>
		
			<line display="inline" opacity="0.3" fill="none" stroke="#CC3333" enable-background="new    " x1="0" y1="341" x2="528" y2="341"/>
		
			<line display="inline" opacity="0.3" fill="none" stroke="#CC3333" enable-background="new    " x1="0" y1="363" x2="528" y2="363"/>
		<g display="inline" opacity="0.3">
			<line fill="none" stroke="#CC3333" x1="76.999" y1="0" x2="76.999" y2="528"/>
			<line fill="none" stroke="#CC3333" x1="98.999" y1="0" x2="98.999" y2="528"/>
			<line fill="none" stroke="#CC3333" x1="120.999" y1="0" x2="120.999" y2="528"/>
			<line fill="none" stroke="#CC3333" x1="142.999" y1="0" x2="142.999" y2="528"/>
			<line fill="none" stroke="#CC3333" x1="164.999" y1="0" x2="164.999" y2="528"/>
			<line fill="none" stroke="#CC3333" x1="450.999" y1="0" x2="450.999" y2="528"/>
			<line fill="none" stroke="#CC3333" x1="472.999" y1="0" x2="472.999" y2="528"/>
			<line fill="none" stroke="#CC3333" x1="494.999" y1="0" x2="494.999" y2="528"/>
			<line fill="none" stroke="#CC3333" x1="516.999" y1="0" x2="516.999" y2="528"/>
			<line fill="none" stroke="#CC3333" x1="54.999" y1="0" x2="54.999" y2="528"/>
			<line fill="none" stroke="#CC3333" x1="384.999" y1="0" x2="384.999" y2="528"/>
			<line fill="none" stroke="#CC3333" x1="362.999" y1="0" x2="362.999" y2="528"/>
			<line fill="none" stroke="#CC3333" x1="340.999" y1="0" x2="340.999" y2="528"/>
			<line fill="none" stroke="#CC3333" x1="318.999" y1="0" x2="318.999" y2="528"/>
			<line fill="none" stroke="#CC3333" x1="32.999" y1="0" x2="32.999" y2="528"/>
			<line fill="none" stroke="#CC3333" x1="406.999" y1="0" x2="406.999" y2="528"/>
			<line fill="none" stroke="#CC3333" x1="296.999" y1="0" x2="296.999" y2="528"/>
			<line fill="none" stroke="#CC3333" x1="274.999" y1="0" x2="274.999" y2="528"/>
			<line fill="none" stroke="#CC3333" x1="252.999" y1="0" x2="252.999" y2="528"/>
			<line fill="none" stroke="#CC3333" x1="230.999" y1="0" x2="230.999" y2="528"/>
			<line fill="none" stroke="#CC3333" x1="208.999" y1="0" x2="208.999" y2="528"/>
			<line fill="none" stroke="#CC3333" x1="186.999" y1="0" x2="186.999" y2="528"/>
			<line fill="none" stroke="#CC3333" x1="428.999" y1="0" x2="428.999" y2="528"/>
			<line fill="none" stroke="#CC3333" x1="10.007" y1="0" x2="10.007" y2="528"/>
		</g>
		
			<line display="inline" opacity="0.3" fill="none" stroke="#CC3333" enable-background="new    " x1="0" y1="11" x2="528" y2="11"/>
	</g>
</g>
<g id="Layer_2">
	<path d="M264,0C118.197,0,0,118.197,0,264s118.197,264,264,264c145.803,0,264-118.197,264-264S409.803,0,264,0z M264.252,484
		C142.61,484,44,385.391,44,263.748c0-121.642,98.61-220.251,220.252-220.251c121.642,0,220.252,98.61,220.252,220.251
		C484.504,385.389,385.894,484,264.252,484z"/>
	<path d="M110,308.398V374c0,20.982,23.171,44,44,44h220c20.83,0,44-23.018,44-44l-0.292-65.6L110,308.398z M352.292,374.036
		c-11.284,0-22.045-11.109-22.045-22.036c0-11.409,10.851-22,22.045-22c11.143,0,22.11,11.266,22.11,21.698
		C374.402,363.303,363.524,374.036,352.292,374.036z"/>
	<polygon points="374.467,110.214 308.133,110.214 308.133,132 373.746,132 264,253 153.746,132 219.746,132 219.912,110 
		153.66,110 109.832,286 418.168,286 	"/>
	<polygon points="286.675,154.086 286.675,65.61 243.012,66 243.012,154.414 198,154.086 264.623,220.165 330,154.086 	"/>
</g>
</svg>
