<svg enable-background="new 0 0 528 528" height="528" viewBox="0 0 528 528" width="528" xmlns="http://www.w3.org/2000/svg"><path d="m263.999 0c-145.803 0-264 118.197-264 264s118.197 264 264 264 264-118.197 264-264-118.197-264-264-264zm.252 484c-121.642 0-220.252-98.609-220.252-220.252 0-121.642 98.61-220.251 220.252-220.251 121.643 0 220.252 98.61 220.252 220.251s-98.609 220.252-220.252 220.252z"/><path d="m312.962 303.482c2.478-44.375 14.738-52.642 23.75-71.25 1.464-3.02 11.625-20.962 7.605-30.394-8.97-20.875-1.484-40.264 3.711-63.364 3.864-17.102-9.896-32.749-9.896-32.749s-24.24-35.625-67.657-39.615c-.832-.092-2.925-.13-5.013-.127-2.088-.004-4.18.035-5.012.127-43.418 3.989-67.659 39.614-67.659 39.614s-13.762 15.647-9.896 32.749c5.195 23.101 12.68 42.489 3.71 63.365-4.019 9.432 6.143 27.375 7.606 30.394 9.013 18.609 21.275 26.875 23.75 71.25 2.334 41.885-98.796 29.525-129.962 49.521 40.15 42.47 79.076 108.997 176.251 108.997 98.749 0 136.354-66.979 176.552-110-32.325-19.234-130.137-7.303-127.84-48.518zm6.569 126.051-22 22-33.531-33.533-33.488 33.487-22-22 33.487-33.487-33.256-33.256 22-22 33.257 33.256 33.426-33.427 22 22-33.427 33.427z"/></svg>