<?xml version="1.0" encoding="utf-8"?>
<!-- Generator: Adobe Illustrator 16.0.4, SVG Export Plug-In . SVG Version: 6.00 Build 0)  -->
<!DOCTYPE svg PUBLIC "-//W3C//DTD SVG 1.1//EN" "http://www.w3.org/Graphics/SVG/1.1/DTD/svg11.dtd">
<svg version="1.1" id="Layer_1" xmlns="http://www.w3.org/2000/svg" xmlns:xlink="http://www.w3.org/1999/xlink" x="0px" y="0px"
	 width="528px" height="528px" viewBox="0 0 528 528" enable-background="new 0 0 528 528" xml:space="preserve">
<g display="none">
	<line display="inline" fill="none" stroke="#B35047" x1="-0.001" y1="22" x2="527.999" y2="22"/>
	<line display="inline" fill="none" stroke="#B35047" x1="-0.001" y1="44" x2="527.999" y2="44"/>
	<line display="inline" fill="none" stroke="#B35047" x1="-0.001" y1="66" x2="527.999" y2="66"/>
	<line display="inline" fill="none" stroke="#B35047" x1="-0.001" y1="88" x2="527.999" y2="88"/>
	<line display="inline" fill="none" stroke="#B35047" x1="-0.001" y1="110" x2="527.999" y2="110"/>
	<line display="inline" fill="none" stroke="#B35047" x1="-0.001" y1="132" x2="527.999" y2="132"/>
	<line display="inline" fill="none" stroke="#B35047" x1="-0.001" y1="374" x2="527.999" y2="374"/>
	<line display="inline" fill="none" stroke="#B35047" x1="-0.001" y1="396" x2="527.999" y2="396"/>
	<line display="inline" fill="none" stroke="#B35047" x1="-0.001" y1="418" x2="527.999" y2="418"/>
	<line display="inline" fill="none" stroke="#B35047" x1="-0.001" y1="440" x2="527.999" y2="440"/>
	<line display="inline" fill="none" stroke="#B35047" x1="-0.001" y1="462" x2="527.999" y2="462"/>
	<line display="inline" fill="none" stroke="#B35047" x1="-0.001" y1="484" x2="527.999" y2="484"/>
	<line display="inline" fill="none" stroke="#B35047" x1="-0.001" y1="506" x2="527.999" y2="506"/>
	<line display="inline" fill="none" stroke="#B35047" x1="21.999" y1="0" x2="21.999" y2="528"/>
	<line display="inline" fill="none" stroke="#B35047" x1="43.999" y1="0" x2="43.999" y2="528"/>
	<line display="inline" fill="none" stroke="#B35047" x1="65.999" y1="0" x2="65.999" y2="528"/>
	<line display="inline" fill="none" stroke="#B35047" x1="87.999" y1="0" x2="87.999" y2="528"/>
	<line display="inline" fill="none" stroke="#B35047" x1="109.999" y1="0" x2="109.999" y2="528"/>
	<line display="inline" fill="none" stroke="#B35047" x1="351.999" y1="0" x2="351.999" y2="528"/>
	<line display="inline" fill="none" stroke="#B35047" x1="373.999" y1="0" x2="373.999" y2="528"/>
	<line display="inline" fill="none" stroke="#B35047" x1="395.999" y1="0" x2="395.999" y2="528"/>
	<line display="inline" fill="none" stroke="#B35047" x1="417.999" y1="0" x2="417.999" y2="528"/>
	<line display="inline" fill="none" stroke="#B35047" x1="439.999" y1="0" x2="439.999" y2="528"/>
	<line display="inline" fill="none" stroke="#B35047" x1="461.999" y1="0" x2="461.999" y2="528"/>
	<line display="inline" fill="none" stroke="#B35047" x1="483.999" y1="0" x2="483.999" y2="528"/>
	<line display="inline" fill="none" stroke="#B35047" x1="505.999" y1="0" x2="505.999" y2="528"/>
	<g display="inline">
		<g>
			<line fill="none" stroke="#B35047" x1="-0.001" y1="528" x2="527.999" y2="528"/>
			<line fill="none" stroke="#B35047" x1="-0.001" y1="0" x2="-0.001" y2="528"/>
		</g>
		<g>
			<line fill="none" stroke="#B35047" x1="-0.001" y1="0" x2="527.999" y2="0"/>
			<line fill="none" stroke="#B35047" x1="527.999" y1="0" x2="527.999" y2="528"/>
		</g>
	</g>
	<line display="inline" fill="none" stroke="#B35047" x1="329.999" y1="0" x2="329.999" y2="528"/>
	<line display="inline" fill="none" stroke="#B35047" x1="307.999" y1="0" x2="307.999" y2="528"/>
	<line display="inline" fill="none" stroke="#B35047" x1="285.999" y1="0" x2="285.999" y2="528"/>
	<line display="inline" fill="none" stroke="#B35047" x1="263.999" y1="0" x2="263.999" y2="528"/>
	<line display="inline" fill="none" stroke="#B35047" x1="197.999" y1="0" x2="197.999" y2="528"/>
	<line display="inline" fill="none" stroke="#B35047" x1="175.999" y1="0" x2="175.999" y2="528"/>
	<line display="inline" fill="none" stroke="#B35047" x1="153.999" y1="0" x2="153.999" y2="528"/>
	<line display="inline" fill="none" stroke="#B35047" x1="131.999" y1="0" x2="131.999" y2="528"/>
	<line display="inline" fill="none" stroke="#B35047" x1="241.999" y1="0" x2="241.999" y2="528"/>
	<line display="inline" fill="none" stroke="#B35047" x1="219.999" y1="0" x2="219.999" y2="528"/>
	<line display="inline" fill="none" stroke="#B35047" x1="-0.001" y1="154" x2="527.999" y2="154"/>
	<line display="inline" fill="none" stroke="#B35047" x1="-0.001" y1="176" x2="527.999" y2="176"/>
	<line display="inline" fill="none" stroke="#B35047" x1="-0.001" y1="198" x2="527.999" y2="198"/>
	<line display="inline" fill="none" stroke="#B35047" x1="-0.001" y1="220" x2="527.999" y2="220"/>
	<line display="inline" fill="none" stroke="#B35047" x1="-0.001" y1="242" x2="527.999" y2="242"/>
	<line display="inline" fill="none" stroke="#B35047" x1="-0.001" y1="264" x2="527.999" y2="264"/>
	<line display="inline" fill="none" stroke="#B35047" x1="-0.001" y1="286" x2="527.999" y2="286"/>
	<line display="inline" fill="none" stroke="#B35047" x1="-0.001" y1="308" x2="527.999" y2="308"/>
	<line display="inline" fill="none" stroke="#B35047" x1="-0.001" y1="330" x2="527.999" y2="330"/>
	<line display="inline" fill="none" stroke="#B35047" x1="-0.001" y1="352" x2="527.999" y2="352"/>
</g>
<g display="none">
	<line display="inline" opacity="0.3" fill="none" stroke="#CC3333" enable-background="new    " x1="0" y1="33" x2="528" y2="33"/>
	<line display="inline" opacity="0.3" fill="none" stroke="#CC3333" enable-background="new    " x1="0" y1="55" x2="528" y2="55"/>
	<line display="inline" opacity="0.3" fill="none" stroke="#CC3333" enable-background="new    " x1="0" y1="77" x2="528" y2="77"/>
	<line display="inline" opacity="0.3" fill="none" stroke="#CC3333" enable-background="new    " x1="0" y1="99" x2="528" y2="99"/>
	
		<line display="inline" opacity="0.3" fill="none" stroke="#CC3333" enable-background="new    " x1="0" y1="121" x2="528" y2="121"/>
	
		<line display="inline" opacity="0.3" fill="none" stroke="#CC3333" enable-background="new    " x1="0" y1="143" x2="528" y2="143"/>
	
		<line display="inline" opacity="0.3" fill="none" stroke="#CC3333" enable-background="new    " x1="0" y1="385" x2="528" y2="385"/>
	
		<line display="inline" opacity="0.3" fill="none" stroke="#CC3333" enable-background="new    " x1="0" y1="407" x2="528" y2="407"/>
	
		<line display="inline" opacity="0.3" fill="none" stroke="#CC3333" enable-background="new    " x1="0" y1="429" x2="528" y2="429"/>
	
		<line display="inline" opacity="0.3" fill="none" stroke="#CC3333" enable-background="new    " x1="0" y1="451" x2="528" y2="451"/>
	
		<line display="inline" opacity="0.3" fill="none" stroke="#CC3333" enable-background="new    " x1="0" y1="473" x2="528" y2="473"/>
	
		<line display="inline" opacity="0.3" fill="none" stroke="#CC3333" enable-background="new    " x1="0" y1="495" x2="528" y2="495"/>
	
		<line display="inline" opacity="0.3" fill="none" stroke="#CC3333" enable-background="new    " x1="0" y1="517" x2="528" y2="517"/>
	
		<line display="inline" opacity="0.3" fill="none" stroke="#CC3333" enable-background="new    " x1="0" y1="165" x2="528" y2="165"/>
	
		<line display="inline" opacity="0.3" fill="none" stroke="#CC3333" enable-background="new    " x1="0" y1="187" x2="528" y2="187"/>
	
		<line display="inline" opacity="0.3" fill="none" stroke="#CC3333" enable-background="new    " x1="0" y1="209" x2="528" y2="209"/>
	
		<line display="inline" opacity="0.3" fill="none" stroke="#CC3333" enable-background="new    " x1="0" y1="231" x2="528" y2="231"/>
	
		<line display="inline" opacity="0.3" fill="none" stroke="#CC3333" enable-background="new    " x1="0" y1="253" x2="528" y2="253"/>
	
		<line display="inline" opacity="0.3" fill="none" stroke="#CC3333" enable-background="new    " x1="0" y1="275" x2="528" y2="275"/>
	
		<line display="inline" opacity="0.3" fill="none" stroke="#CC3333" enable-background="new    " x1="0" y1="297" x2="528" y2="297"/>
	
		<line display="inline" opacity="0.3" fill="none" stroke="#CC3333" enable-background="new    " x1="0" y1="319" x2="528" y2="319"/>
	
		<line display="inline" opacity="0.3" fill="none" stroke="#CC3333" enable-background="new    " x1="0" y1="341" x2="528" y2="341"/>
	
		<line display="inline" opacity="0.3" fill="none" stroke="#CC3333" enable-background="new    " x1="0" y1="363" x2="528" y2="363"/>
	<g display="inline" opacity="0.3">
		<line fill="none" stroke="#CC3333" x1="76.999" y1="0" x2="76.999" y2="528"/>
		<line fill="none" stroke="#CC3333" x1="98.999" y1="0" x2="98.999" y2="528"/>
		<line fill="none" stroke="#CC3333" x1="120.999" y1="0" x2="120.999" y2="528"/>
		<line fill="none" stroke="#CC3333" x1="142.999" y1="0" x2="142.999" y2="528"/>
		<line fill="none" stroke="#CC3333" x1="164.999" y1="0" x2="164.999" y2="528"/>
		<line fill="none" stroke="#CC3333" x1="450.999" y1="0" x2="450.999" y2="528"/>
		<line fill="none" stroke="#CC3333" x1="472.999" y1="0" x2="472.999" y2="528"/>
		<line fill="none" stroke="#CC3333" x1="494.999" y1="0" x2="494.999" y2="528"/>
		<line fill="none" stroke="#CC3333" x1="516.999" y1="0" x2="516.999" y2="528"/>
		<line fill="none" stroke="#CC3333" x1="54.999" y1="0" x2="54.999" y2="528"/>
		<line fill="none" stroke="#CC3333" x1="384.999" y1="0" x2="384.999" y2="528"/>
		<line fill="none" stroke="#CC3333" x1="362.999" y1="0" x2="362.999" y2="528"/>
		<line fill="none" stroke="#CC3333" x1="340.999" y1="0" x2="340.999" y2="528"/>
		<line fill="none" stroke="#CC3333" x1="318.999" y1="0" x2="318.999" y2="528"/>
		<line fill="none" stroke="#CC3333" x1="32.999" y1="0" x2="32.999" y2="528"/>
		<line fill="none" stroke="#CC3333" x1="406.999" y1="0" x2="406.999" y2="528"/>
		<line fill="none" stroke="#CC3333" x1="296.999" y1="0" x2="296.999" y2="528"/>
		<line fill="none" stroke="#CC3333" x1="274.999" y1="0" x2="274.999" y2="528"/>
		<line fill="none" stroke="#CC3333" x1="252.999" y1="0" x2="252.999" y2="528"/>
		<line fill="none" stroke="#CC3333" x1="230.999" y1="0" x2="230.999" y2="528"/>
		<line fill="none" stroke="#CC3333" x1="208.999" y1="0" x2="208.999" y2="528"/>
		<line fill="none" stroke="#CC3333" x1="186.999" y1="0" x2="186.999" y2="528"/>
		<line fill="none" stroke="#CC3333" x1="428.999" y1="0" x2="428.999" y2="528"/>
		<line fill="none" stroke="#CC3333" x1="10.007" y1="0" x2="10.007" y2="528"/>
	</g>
	<line display="inline" opacity="0.3" fill="none" stroke="#CC3333" enable-background="new    " x1="0" y1="11" x2="528" y2="11"/>
</g>
<path d="M524.997,495.531L440,330.257c-6.162-10.179-11.317-21.616-21.5-21.981v-0.26c-0.167-0.005-0.331-0.016-0.501-0.016
	c-10.518,0-15.736,11.654-22,22l-84.997,165c-7.146,12.141-2.19,33,22,33h169.995C527.188,528,532.144,507.672,524.997,495.531z
	 M440,506.257h-21.5V506h-22.501v-22h21.5v0.257H440V506.257z M418.5,462.257V462h-22.744l0.732-88h21.011v0.257h22.012l0.732,88
	H418.5z"/>
<path d="M287.943,495l6.763-13.126c-9.956,1.384-20.118,2.126-30.455,2.126c-121.642,0-220.252-98.609-220.252-220.252
	c0-121.642,98.61-220.251,220.252-220.251c121.643,0,220.252,98.61,220.252,220.251c0,23.404-3.665,45.949-10.433,67.107
	l26.688,50.039c17.434-35.236,27.241-74.918,27.241-116.896c0-145.803-118.197-264-264-264c-145.803,0-264,118.197-264,264
	c0,145.803,118.197,264,264,264c11.483,0,22.788-0.766,33.883-2.195C284.285,520.141,282.2,504.759,287.943,495z"/>
<g>
	<path d="M252.354,87.398c-79.167,0-143.344,64.177-143.344,143.344c0,28.555,8.352,55.156,22.742,77.504l-37.801,37.801
		c10.133,18.553,22.853,35.488,37.682,50.317l44.323-44.322c22.116,13.959,48.311,22.044,76.397,22.044
		c79.167,0,143.344-64.177,143.344-143.344C395.698,151.576,331.521,87.398,252.354,87.398z M252.503,330c-54.676,0-99-44.324-99-99
		s44.324-99,99-99s99,44.324,99,99S307.179,330,252.503,330z"/>
</g>
</svg>
