<svg enable-background="new 0 0 528 528" height="528" viewBox="0 0 528 528" width="528" xmlns="http://www.w3.org/2000/svg"><path d="m264 0c-145.803 0-264 118.197-264 264s118.197 264 264 264 264-118.197 264-264-118.197-264-264-264zm.252 484c-121.642 0-220.252-98.609-220.252-220.252 0-121.642 98.61-220.251 220.252-220.251s220.252 98.61 220.252 220.251-98.61 220.252-220.252 220.252z"/><path d="m264 132c-148.715 0-198 154-198 154s63.583 110 198 110c128.477 0 198-110 198-110s-47.298-154-198-154zm-.359 219.58c-48.569 0-87.94-39.372-87.94-87.939 0-48.57 39.372-87.941 87.94-87.941 48.567 0 87.939 39.372 87.939 87.941 0 48.567-39.372 87.939-87.939 87.939z"/><path d="m262.393 209c-4.956 0-9.754.667-14.322 1.896 9.468 4.361 16.043 13.927 16.043 25.035 0 15.219-12.337 27.557-27.557 27.557-11.917 0-22.065-7.565-25.909-18.154-2.103 5.829-3.255 12.113-3.255 18.667 0 30.376 24.625 55 55 55 30.376 0 55-24.624 55-55s-24.623-55.001-55-55.001z"/></svg>