<svg enable-background="new 0 0 528 528" height="528" viewBox="0 0 528 528" width="528" xmlns="http://www.w3.org/2000/svg"><path d="m264 0c-145.803 0-264 118.197-264 264s118.197 264 264 264 264-118.197 264-264-118.197-264-264-264zm.252 484c-121.642 0-220.252-98.609-220.252-220.252 0-121.642 98.61-220.251 220.252-220.251s220.252 98.61 220.252 220.251-98.61 220.252-220.252 220.252z"/><path d="m110 308.398v65.602c0 20.982 23.171 44 44 44h220c20.83 0 44-23.018 44-44l-.292-65.6zm242.292 65.638c-11.284 0-22.045-11.109-22.045-22.036 0-11.409 10.851-22 22.045-22 11.143 0 22.11 11.266 22.11 21.698 0 11.605-10.878 22.338-22.11 22.338z"/><path d="m374.467 110.214h-66.334v21.786h65.613l-109.746 121-110.254-121h66l.166-22h-66.252l-43.828 176h308.336z"/><path d="m286.675 154.086v-88.476l-43.663.39v88.414l-45.012-.328 66.623 66.079 65.377-66.079z"/></svg>