<svg enable-background="new 0 0 528 528" height="528" viewBox="0 0 528 528" width="528" xmlns="http://www.w3.org/2000/svg"><path d="m110.343 175.271h307.777v-22h-308.237z"/><path d="m352 88h-176l-66.229 54.461h308.46z"/><path d="m132 418.63 263.976-.63.024-220h-264zm66-154.63 22-22 44.001 44 43.999-44 22 22-44 44 44 44.286-22 21.714-43.999-44-44.001 44.047-22-22.462 44-43.585z"/><path d="m264 0c-145.803 0-264 118.197-264 264s118.197 264 264 264 264-118.197 264-264-118.197-264-264-264zm.252 484c-121.642 0-220.252-98.609-220.252-220.252 0-121.642 98.61-220.251 220.252-220.251s220.252 98.61 220.252 220.251-98.61 220.252-220.252 220.252z"/></svg>