<svg enable-background="new 0 0 528 528" height="528" viewBox="0 0 528 528" width="528" xmlns="http://www.w3.org/2000/svg"><path d="m524.998 495.531-84.997-165.274c-6.162-10.179-11.317-21.616-21.5-21.981v-.26c-.167-.005-.331-.016-.501-.016-10.518 0-15.737 11.654-22 22l-84.997 165c-7.146 12.141-2.19 33 22 33h169.995c24.191 0 29.147-20.328 22-32.469zm-84.997 10.726h-21.5v-.257h-22.501v-22h21.5v.257h22.501zm-21.5-44v-.257h-22.744l.732-88h21.011v.257h22.012l.732 88z"/><path d="m287.945 495 6.762-13.126c-9.956 1.384-20.118 2.126-30.455 2.126-121.642 0-220.252-98.609-220.252-220.252 0-121.642 98.61-220.251 220.252-220.251s220.252 98.61 220.252 220.251c0 23.404-3.665 45.949-10.433 67.107l26.688 50.039c17.432-35.236 27.241-74.917 27.241-116.894 0-145.803-118.197-264-264-264s-264 118.197-264 264 118.197 264 264 264c11.484 0 22.788-.766 33.883-2.195-13.597-5.664-15.682-21.046-9.938-30.805z"/><path d="m286 212.731v-102.731c0-12.15-9.85-22-22-22-12.151 0-22 9.85-22 22l-.375 102.901c-12.939 5.674-23.312 16.11-28.893 29.099-25.588 0-58.996 0-59.167 0-12.151 0-22 9.85-22 22s9.85 22 22 22h59.167c8.536 19.866 28.274 33.782 51.269 33.782 30.808 0 55.782-24.976 55.782-55.782-.001-22.994-13.917-42.732-33.783-51.269z"/></svg>