<svg version="1.1" xmlns="http://www.w3.org/2000/svg" xmlns:xlink="http://www.w3.org/1999/xlink"
	 viewBox="0 0 20 20" style="enable-background:new 0 0 20 20;">
    <path d="M13.5,5.6L13.1,6c-2-1.5-4.9-1.3-6.7,0.5c-1,1-1.5,2.3-1.5,3.7c0,1.4,0.5,2.7,1.5,3.7C6.5,13.9,6.6,14,6.8,14
        c0.1,0,0.2,0,0.3-0.1c0.2-0.2,0.2-0.5,0-0.7c-0.8-0.8-1.2-1.9-1.2-3s0.4-2.2,1.2-3c1.4-1.4,3.7-1.6,5.3-0.5l-1.6,1.6
        c-0.2-0.1-0.5-0.2-0.8-0.2c-1.1,0-2,0.9-2,2c0,1.1,0.9,2,2,2s2-0.9,2-2c0-0.3-0.1-0.6-0.2-0.8l2.7-2.7c0.3-0.3,0.3-0.7,0-1
        C14.2,5.3,13.7,5.3,13.5,5.6z"/>
    <path d="M10,1c-5,0-9,4-9,9c0,5,4,9,9,9c5,0,9-4,9-9C19,5,15,1,10,1z M10,17.2c-4,0-7.2-3.2-7.2-7.2
        C2.8,6,6,2.8,10,2.8c4,0,7.2,3.2,7.2,7.2C17.2,14,14,17.2,10,17.2z"/>
</svg>
