<svg xmlns="http://www.w3.org/2000/svg" viewBox="0 0 16 16">
<path d="M8.0041258 16C12.3775142 16 16 12.3775142 16 7.9958742 16 3.6224858 12.3692625 0 7.9958742 0 3.6224858 
0 0 3.6224858 0 7.9958742 0 12.3775142 3.6307375 16 8.0041258 16zm0-1.42754c-3.6472408 
0-6.5683342-2.9210933-6.5683342-6.5765858 0-3.6472409 2.9128417-6.5765859 6.5600826-6.5765859 3.6472408 0 6.5765858 
2.929345 6.5848548 6.5765859.0082344 3.6554925-2.9293623 6.5765858-6.5766032 6.5765858zm1.988654-3.8122743c.4785972 
0 .7674059-.280557.7674059-.7509026V5.9907169c0-.4703456-.2888087-.7509026-.7674059-.7509026H6.0072202c-.4703455 
0-.7674059.280557-.7674059.7509026v4.0185662c0 .4703456.2970604.7509026.7674059.7509026h3.9855596z"/>
</svg>