<svg enable-background="new 0 0 512 512" height="512" viewBox="0 0 512 512" width="512" xmlns="http://www.w3.org/2000/svg"><path d="m447.75 448h.25v-.25z"/><path d="m95.888 480.002v-48.25l48 .25c41.922 0 61.75 4.188 80 16 22.719 14.125 40.625 32 112 32 160.312 0 163.188-41.281 176-208v-32c1.595-20.484-5.438-36.469-16-48-13.125-14.391-36.812-16-48-16h-143.999c20.47-71.359 22.062-133.765 0-160-6.75-8-16-16.208-32-16-14.422.187-27.205 23.031-32 48-8.641 41.92-9.594 104-112 128l-16 160h-16v-208.002h-96v352.002z"/></svg>