<svg viewBox="0 0 32 32" fill="none" stroke="#282829" stroke-linecap="round" xmlns="http://www.w3.org/2000/svg">
<circle cx="16" cy="16" r="13.5"/>
<path d="M15.3044 25.2923C15.3044 25.6765 15.6158 25.9879 16 25.9879C16.3842 25.9879 16.6957 25.6765 16.6957 25.2923" stroke-linejoin="round"/>
<path d="M15.1111 23.6111H16.8889"/>
<path d="M21.0652 15.4295C21.0652 17.1682 20.2134 18.7034 18.9106 19.6324C18.6098 19.8469 18.3131 20.1192 18.0954 20.4723L17.7062 21.1036C17.4331 21.5466 16.9498 21.8164 16.4294 21.8164H15.5706C15.0502 21.8164 14.5669 21.5466 14.2938 21.1036L13.9046 20.4723C13.6869 20.1192 13.3902 19.8469 13.0894 19.6324L12.7991 20.0395L13.0894 19.6324C11.7866 18.7034 10.9348 17.1682 10.9348 15.4295C10.9348 12.5877 13.2084 10.2947 16 10.2947C18.7916 10.2947 21.0652 12.5877 21.0652 15.4295Z"/>
<path d="M9.04348 15.0121L8 15.0121"/>
<path d="M10.087 10.8382L9.04348 9.79469"/>
<path d="M24 15.0121L22.9565 15.0121"/>
<path d="M22.9565 9.79469L21.913 10.8382"/>
<path d="M16 7.01208L16 8.40338"/>
</svg>
