<?xml version="1.0" encoding="utf-8"?>
<!-- Generator: Adobe Illustrator 16.0.4, SVG Export Plug-In . SVG Version: 6.00 Build 0)  -->
<!DOCTYPE svg PUBLIC "-//W3C//DTD SVG 1.1//EN" "http://www.w3.org/Graphics/SVG/1.1/DTD/svg11.dtd">
<svg version="1.1" id="Layer_1" xmlns="http://www.w3.org/2000/svg" xmlns:xlink="http://www.w3.org/1999/xlink" x="0px" y="0px"
	 width="512px" height="512px" viewBox="0 0 512 512" enable-background="new 0 0 512 512" xml:space="preserve">
<g id="Layer_1_1_" display="none">
	<g display="inline" opacity="0.3">
		<line fill="none" stroke="#B35047" x1="48" y1="0" x2="48" y2="512"/>
		<line fill="none" stroke="#B35047" x1="80" y1="0" x2="80" y2="512"/>
		<line fill="none" stroke="#B35047" x1="112" y1="0" x2="112" y2="512"/>
		<line fill="none" stroke="#B35047" x1="144" y1="0" x2="144" y2="512"/>
		<line fill="none" stroke="#B35047" x1="176" y1="0" x2="176" y2="512"/>
		<line fill="none" stroke="#B35047" x1="208" y1="0" x2="208" y2="512"/>
		<line fill="none" stroke="#B35047" x1="240" y1="0" x2="240" y2="512"/>
		<line fill="none" stroke="#B35047" x1="272" y1="0" x2="272" y2="512"/>
		<line fill="none" stroke="#B35047" x1="304" y1="0" x2="304" y2="512"/>
		<line fill="none" stroke="#B35047" x1="336" y1="0" x2="336" y2="512"/>
		<line fill="none" stroke="#B35047" x1="368" y1="0" x2="368" y2="512"/>
		<line fill="none" stroke="#B35047" x1="400" y1="0" x2="400" y2="512"/>
		<line fill="none" stroke="#B35047" x1="432" y1="0" x2="432" y2="512"/>
		<line fill="none" stroke="#B35047" x1="464" y1="0" x2="464" y2="512"/>
		<line fill="none" stroke="#B35047" x1="496" y1="0" x2="496" y2="512"/>
		<line fill="none" stroke="#B35047" x1="0" y1="48" x2="512" y2="48"/>
		<line fill="none" stroke="#B35047" x1="0" y1="80" x2="512" y2="80"/>
		<line fill="none" stroke="#B35047" x1="0" y1="112" x2="512" y2="112"/>
		<line fill="none" stroke="#B35047" x1="0" y1="144" x2="512" y2="144"/>
		<line fill="none" stroke="#B35047" x1="0" y1="176" x2="512" y2="176"/>
		<line fill="none" stroke="#B35047" x1="0" y1="208" x2="512" y2="208"/>
		<line fill="none" stroke="#B35047" x1="0" y1="240" x2="512" y2="240"/>
		<line fill="none" stroke="#B35047" x1="0" y1="272" x2="512" y2="272"/>
		<line fill="none" stroke="#B35047" x1="0" y1="304" x2="512" y2="304"/>
		<line fill="none" stroke="#B35047" x1="0" y1="336" x2="512" y2="336"/>
		<line fill="none" stroke="#B35047" x1="0" y1="368" x2="512" y2="368"/>
		<line fill="none" stroke="#B35047" x1="0" y1="400" x2="512" y2="400"/>
		<line fill="none" stroke="#B35047" x1="0" y1="432" x2="512" y2="432"/>
		<line fill="none" stroke="#B35047" x1="0" y1="464" x2="512" y2="464"/>
		<line fill="none" stroke="#B35047" x1="0" y1="496" x2="512" y2="496"/>
		<line fill="none" stroke="#B35047" x1="0" y1="16" x2="512" y2="16"/>
		<line fill="none" stroke="#B35047" x1="16" y1="0" x2="16" y2="512"/>
	</g>
	<g display="inline">
		<line fill="none" stroke="#B35047" x1="32" y1="0" x2="32" y2="512"/>
		<line fill="none" stroke="#B35047" x1="64" y1="0" x2="64" y2="512"/>
		<line fill="none" stroke="#B35047" x1="96" y1="0" x2="96" y2="512"/>
		<line fill="none" stroke="#B35047" x1="128" y1="0" x2="128" y2="512"/>
		<line fill="none" stroke="#B35047" x1="160" y1="0" x2="160" y2="512"/>
		<line fill="none" stroke="#B35047" x1="192" y1="0" x2="192" y2="512"/>
		<line fill="none" stroke="#B35047" x1="224" y1="0" x2="224" y2="512"/>
		<line fill="none" stroke="#B35047" x1="256" y1="0" x2="256" y2="512"/>
		<line fill="none" stroke="#B35047" x1="288" y1="0" x2="288" y2="512"/>
		<line fill="none" stroke="#B35047" x1="320" y1="0" x2="320" y2="512"/>
		<line fill="none" stroke="#B35047" x1="352" y1="0" x2="352" y2="512"/>
		<line fill="none" stroke="#B35047" x1="384" y1="0" x2="384" y2="512"/>
		<line fill="none" stroke="#B35047" x1="416" y1="0" x2="416" y2="512"/>
		<line fill="none" stroke="#B35047" x1="448" y1="0" x2="448" y2="512"/>
		<line fill="none" stroke="#B35047" x1="480" y1="0" x2="480" y2="512"/>
		<line fill="none" stroke="#B35047" x1="0" y1="32" x2="512" y2="32"/>
		<line fill="none" stroke="#B35047" x1="0" y1="64" x2="512" y2="64"/>
		<line fill="none" stroke="#B35047" x1="0" y1="96" x2="512" y2="96"/>
		<line fill="none" stroke="#B35047" x1="0" y1="128" x2="512" y2="128"/>
		<line fill="none" stroke="#B35047" x1="0" y1="160" x2="512" y2="160"/>
		<line fill="none" stroke="#B35047" x1="0" y1="192" x2="512" y2="192"/>
		<line fill="none" stroke="#B35047" x1="0" y1="224" x2="512" y2="224"/>
		<line fill="none" stroke="#B35047" x1="0" y1="256" x2="512" y2="256"/>
		<line fill="none" stroke="#B35047" x1="0" y1="288" x2="512" y2="288"/>
		<line fill="none" stroke="#B35047" x1="0" y1="320" x2="512" y2="320"/>
		<line fill="none" stroke="#B35047" x1="0" y1="352" x2="512" y2="352"/>
		<line fill="none" stroke="#B35047" x1="0" y1="384" x2="512" y2="384"/>
		<line fill="none" stroke="#B35047" x1="0" y1="416" x2="512" y2="416"/>
		<line fill="none" stroke="#B35047" x1="0" y1="448" x2="512" y2="448"/>
		<line fill="none" stroke="#B35047" x1="0" y1="480" x2="512" y2="480"/>
		<rect fill="none" stroke="#B35047" width="512" height="512"/>
	</g>
</g>
<g id="Layer_3">
	<path d="M432.686,176.667c-0.062-1.333,0.125-43.467-21.742-87.483C389.579,45.081,342.018-0.558,256.04,0.005
		C170.021-0.558,122.477,45.08,101.111,89.184c-21.891,44.016-21.702,86.15-21.797,87.5c0.723,89.021,68.159,154.574,68.942,155.925
		c9.851,9.756,16.297,19.354,20.42,30.791C163.422,369.215,160,376.605,160,384c0,8,0.02,24.001,0,32c-0.041,16,16,32,32,32
		c0,16,0,32,16,32c11.247,0,16,32,47.621,32C288,512,292.619,480,304,480c16,0,16-16,16-32c16,0,31.972-15.979,32-32
		c0.028-16-0.016-24,0-32c0.014-7.393-3.404-14.781-8.66-20.596c4.118-11.442,10.541-21.121,20.403-30.812
		C364.558,331.242,431.995,265.688,432.686,176.667z M341.014,309.895c-13.835,14.138-22.412,27.551-27.757,42.105
		c-31.194,0-83.296,0-114.499,0c-5.349-14.557-13.932-27.969-27.771-42.105c0,0-3.373-3.375-9.028-10.182
		c-17.122-20.408-50.792-69.397-50.503-123.029c0-0.031-0.031-8.534,2.283-22.44c3.435-20.933,12.337-52.188,33.201-77.083
		c21.011-24.808,52.847-44.785,109.1-45.043c74.589,0.563,107.373,35.254,126.166,71.436c9.082,18.149,13.772,36.777,16.062,50.69
		c2.339,13.907,2.213,22.44,2.308,22.44c0.062,35.789-14.589,69.405-29.757,93.993c-7.562,12.267-15.122,22.214-20.771,29.036
		C344.401,306.52,341.014,309.861,341.014,309.895z"/>
	<path d="M512,176c0,8.836-7.163,16-16,16h-32c-8.837,0-16-7.164-16-16l0,0c0-8.836,7.163-16,16-16h32
		C504.837,160,512,167.164,512,176L512,176z"/>
	<path d="M64,176c0,8.836-7.163,16-16,16H16c-8.837,0-16-7.164-16-16l0,0c0-8.836,7.163-16,16-16h32C56.837,160,64,167.164,64,176
		L64,176z"/>
	<path d="M475.312,36.687c6.248,6.248,6.249,16.379,0,22.627l-22.627,22.627c-6.249,6.249-16.38,6.248-22.627,0l0,0
		c-6.249-6.249-6.249-16.379,0-22.627l22.627-22.627C458.936,30.438,469.065,30.438,475.312,36.687L475.312,36.687z"/>
	<path d="M81.941,81.942c-6.248,6.248-16.379,6.249-22.627,0L36.687,59.314c-6.249-6.249-6.248-16.379,0-22.627l0,0
		c6.249-6.249,16.379-6.249,22.627,0l22.627,22.627C88.19,65.563,88.19,75.693,81.941,81.942L81.941,81.942z"/>
	<path d="M481.94,315.312c-6.247,6.248-16.378,6.25-22.628,0l-22.627-22.627c-6.249-6.248-6.248-16.379,0-22.627l0,0
		c6.247-6.248,16.379-6.248,22.627,0l22.628,22.627C488.189,298.936,488.188,309.066,481.94,315.312L481.94,315.312z"/>
	<path d="M81.941,270.059c6.248,6.248,6.249,16.379,0,22.627l-22.627,22.627c-6.248,6.25-16.379,6.248-22.627,0l0,0
		c-6.249-6.248-6.249-16.379,0-22.627l22.627-22.627C65.562,263.811,75.693,263.811,81.941,270.059L81.941,270.059z"/>
	<path d="M316.27,195.73c-6.246-6.249-18.44-4.185-27.236,4.611l-31.85,31.85c-0.468,0.467-0.906,0.949-1.334,1.434
		c-0.797-1.053-1.674-2.079-2.649-3.055l-30.712-30.711c-8.481-8.481-20.421-10.291-26.67-4.042
		c-6.248,6.248-4.439,18.188,4.042,26.669l30.712,30.711c2.865,2.866,6.126,4.957,9.429,6.246v62.173
		c0,7.944,7.164,14.384,16,14.384c8.837,0,16-6.439,16-14.384v-61.14c2.729-1.363,5.397-3.248,7.812-5.66l31.848-31.848
		C320.455,214.174,322.518,201.979,316.27,195.73z"/>
</g>
</svg>
