<svg enable-background="new 0 0 512 512" height="512" viewBox="0 0 512 512" width="512" xmlns="http://www.w3.org/2000/svg"><path d="m432.686 176.667c-.062-1.333.125-43.467-21.742-87.483-21.365-44.103-68.926-89.742-154.904-89.179-86.019-.563-133.563 45.075-154.929 89.179-21.891 44.016-21.702 86.15-21.797 87.5.723 89.021 68.159 154.574 68.942 155.925 9.851 9.756 16.297 19.354 20.42 30.791-5.254 5.815-8.676 13.205-8.676 20.6 0 8 .02 24.001 0 32-.041 16 16 32 32 32 0 16 0 32 16 32 11.247 0 16 32 47.621 32 32.379 0 36.998-32 48.379-32 16 0 16-16 16-32 16 0 31.972-15.979 32-32 .028-16-.016-24 0-32 .014-7.393-3.404-14.781-8.66-20.596 4.118-11.442 10.541-21.121 20.403-30.812.815-1.35 68.252-66.904 68.943-155.925zm-91.672 133.228c-13.835 14.138-22.412 27.551-27.757 42.105-31.194 0-83.296 0-114.499 0-5.349-14.557-13.932-27.969-27.771-42.105 0 0-3.373-3.375-9.028-10.182-17.122-20.408-50.792-69.397-50.503-123.029 0-.031-.031-8.534 2.283-22.44 3.435-20.933 12.337-52.188 33.201-77.083 21.011-24.808 52.847-44.785 109.1-45.043 74.589.563 107.373 35.254 126.166 71.436 9.082 18.149 13.772 36.777 16.062 50.69 2.339 13.907 2.213 22.44 2.308 22.44.062 35.789-14.589 69.405-29.757 93.993-7.562 12.267-15.122 22.214-20.771 29.036-5.647 6.807-9.034 10.148-9.034 10.182z"/><path d="m512 176c0 8.836-7.163 16-16 16h-32c-8.837 0-16-7.164-16-16 0-8.836 7.163-16 16-16h32c8.837 0 16 7.164 16 16z"/><path d="m64 176c0 8.836-7.163 16-16 16h-32c-8.837 0-16-7.164-16-16 0-8.836 7.163-16 16-16h32c8.837 0 16 7.164 16 16z"/><path d="m475.312 36.687c6.248 6.248 6.249 16.379 0 22.627l-22.627 22.627c-6.249 6.249-16.38 6.248-22.627 0-6.249-6.249-6.249-16.379 0-22.627l22.627-22.627c6.251-6.249 16.38-6.249 22.627 0z"/><path d="m81.941 81.942c-6.248 6.248-16.379 6.249-22.627 0l-22.627-22.628c-6.249-6.249-6.248-16.379 0-22.627 6.249-6.249 16.379-6.249 22.627 0l22.627 22.627c6.249 6.249 6.249 16.379 0 22.628z"/><path d="m481.94 315.312c-6.247 6.248-16.378 6.25-22.628 0l-22.627-22.627c-6.249-6.248-6.248-16.379 0-22.627 6.247-6.248 16.379-6.248 22.627 0l22.628 22.627c6.249 6.251 6.248 16.381 0 22.627z"/><path d="m81.941 270.059c6.248 6.248 6.249 16.379 0 22.627l-22.627 22.627c-6.248 6.25-16.379 6.248-22.627 0-6.249-6.248-6.249-16.379 0-22.627l22.627-22.627c6.248-6.248 16.379-6.248 22.627 0z"/><path d="m316.27 195.73c-6.246-6.249-18.44-4.185-27.236 4.611l-31.85 31.85c-.468.467-.906.949-1.334 1.434-.797-1.053-1.674-2.079-2.649-3.055l-30.712-30.711c-8.481-8.481-20.421-10.291-26.67-4.042-6.248 6.248-4.439 18.188 4.042 26.669l30.712 30.711c2.865 2.866 6.126 4.957 9.429 6.246v62.173c0 7.944 7.164 14.384 16 14.384 8.837 0 16-6.439 16-14.384v-61.14c2.729-1.363 5.397-3.248 7.812-5.66l31.848-31.848c8.793-8.794 10.856-20.989 4.608-27.238z"/></svg>