<svg xmlns="http://www.w3.org/2000/svg" viewBox="0 0 16 16">
    <path d="M8.44,12.13a.64.64,0,0,0-.92,0l-.69.68a2.65,2.65,0,0,1-3.67,0A2.77,2.77,0,0,1,3.24,9l.56-.56a.65.65,0,0,0,0-.93L3,6.69a.67.67,0,0,0-.93,0l-.5.51a5.24,5.24,0,0,0-.06,7.44,5.08,5.08,0,0,0,7-.11l.68-.69a.64.64,0,0,0,0-.92Z"/>
    <path d="M7.56,3.87a.64.64,0,0,0,.92,0l.69-.68a2.65,2.65,0,0,1,3.67,0A2.77,2.77,0,0,1,12.76,7l-.56.56a.65.65,0,0,0,0,.93l.79.79a.67.67,0,0,0,.93,0l.5-.51a5.24,5.24,0,0,0,.06-7.44,5.08,5.08,0,0,0-7,.11l-.68.69a.64.64,0,0,0,0,.92Z"/>
    <rect x="6.74" y="-1.3" width="2.53" height="18.59" rx="1" transform="translate(-3.31 8) rotate(-45)"/>
</svg>