<svg viewBox="0 0 32 32" fill="none" stroke="#282829" xmlns="http://www.w3.org/2000/svg">
    <path d="M4.5 17C4.5 16.1716 5.17157 15.5 6 15.5H18C18.8284 15.5 19.5 16.1716 19.5 17V26C19.5 26.8284 18.8284 27.5 18 27.5H6C5.17157 27.5 4.5 26.8284 4.5 26V17Z"/>
    <path d="M27.5 15.5V11C27.5 7.96243 25.0376 5.5 22 5.5V5.5C18.9624 5.5 16.5 7.96243 16.5 11V15.5" stroke-linecap="round"/>
    <path d="M12 18C10.8954 18 10 18.8954 10 20C10 20.7403 10.4022 21.3866 11 21.7324L10.5 24.5H13.5L13 21.7324C13.5978 21.3866 14 20.7403 14 20C14 18.8954 13.1046 18 12 18Z" stroke-linejoin="round"/>
</svg>
