<svg viewBox="0 0 24 24" fill="none" stroke="#282829" xmlns="http://www.w3.org/2000/svg"><path d="M3.5 13C3.5 12.1716 4.17157 11.5 5 11.5H13C13.8284 11.5 14.5 12.1716 14.5 13V20C14.5 20.8284 13.8284 21.5 13 21.5H5C4.17157 21.5 3.5 20.8284 3.5 20V13Z"/><path d="M19.5 11V8C19.5 6.067 17.933 4.5 16 4.5V4.5V4.5C14.067 4.5 12.5 6.067 12.5 8V11" stroke-linecap="round"/><path d="M9 14.5C8.17157 14.5 7.5 15.1716 7.5 16C7.5 16.5552 7.80165 17.04 8.25 17.2993L7.875 19H10.125L9.75 17.2993C10.1984 17.04 10.5 16.5552 10.5 16C10.5 15.1716 9.82843 14.5 9 14.5Z" stroke-linejoin="round"/></svg>
