<svg width="56" height="56" xmlns="http://www.w3.org/2000/svg"><g fill="none" fill-rule="evenodd"><circle cx="27" cy="27" r="26.036" transform="translate(1 1)" fill="#FFF" stroke="#94A9BF"/><path d="M36.034 17l4.378 3.162v3.73c0 .64-.605 1.18-1.422 1.337.028.123.043.25.043.381V37.22c0 .982-.826 1.781-1.841 1.781H18.808c-1.015 0-1.84-.8-1.84-1.781V25.61c0-.13.014-.258.042-.381-.817-.156-1.422-.696-1.422-1.337v-3.73L19.966 17h16.068zm1.408 8.274H18.558a.397.397 0 00-.212.336V37.22c0 .21.199.402.462.402h18.384c.263 0 .462-.192.462-.402V25.61a.397.397 0 00-.212-.336zm-6.543 1.38c1.063 0 1.928.742 1.928 1.654v.829c0 .912-.865 1.654-1.928 1.654h-5.798c-1.063 0-1.928-.742-1.928-1.654v-.83c0-.911.865-1.653 1.928-1.653h5.798zm-.144 1.379l-5.512.001-.001 1.378 5.516-.001-.003-1.378zm8.278-6.896H16.967v2.623a.98.98 0 00.531.136l.818-.002c.157-.042.322-.064.492-.064h18.384c.17 0 .335.022.492.064l.818.002a.979.979 0 00.53-.136v-2.623zm-3.445-2.758H20.412l-1.909 1.379h18.993l-1.908-1.379z" fill="#94A9BF" fill-rule="nonzero"/></g></svg>