<svg viewBox="0 0 56 56" xmlns="http://www.w3.org/2000/svg"><g fill="none" fill-rule="evenodd"><circle cx="28" cy="28" fill="#fff" r="26.035714" stroke="#94a9bf"/><g fill="#94a9bf" fill-rule="nonzero"><path d="m26.61850766 12.06715324c.40830761 0 .84079931.09815364 1.29850348.2880512.45786976.18996626.83457486.4286537 1.12578736.72044947l6.4833896 6.48760615c.3321965.35085405.5060509.77929798.5060509 1.25501949 0 .48535827-.1768508.91639722-.5170626 1.25728965l-4.4563644 4.4740497c-.0484289.0460373-.0983443.0890445-.1496659.1289798.5686932.377289 1.2509651.7595853 2.0588691 1.1721229.0933047.0476439.2198683.1120635.4402328.2242485 3.4205912 1.7435906 4.7036265 2.9709048 4.5841778 5.4998392l-.0141605.2265655-.9315553-.0701956c.1685218-2.1824275-.8542556-3.1984684-4.0668708-4.8360467-.2196069-.1117991-.3468683-.1765738-.4408254-.2245508-1.097067-.5601921-1.9917288-1.0799423-2.7056582-1.6143107l-.0288197.0009284c-.4852411 0-.9160915-.177482-1.2573014-.5193752l-.0602345-.060671.0012711 8.0344586h-1.00000005l.00156271-8.7220162c-.79513711 1.0350394-2.09874622 1.8954242-4.02884759 2.8809861-.09395706.047977-.22121848.1127517-.44082542.2245508-3.11526321 1.5879547-4.17139515 2.5914702-4.07888131 4.6408076l.01201056.1952391-.93155526.0701956-.01416055-.2265655c-.1194487-2.5289344 1.16358661-3.7562486 4.58417778-5.4998392.22036451-.112185.34692817-.1766046.44023285-.2242485 2.0162291-1.029541 3.25000059-1.8707342 3.90888042-2.9245301l-4.85901658-4.87584476c-.29468725-.28750677-.53454266-.66384624-.72496992-1.12466678-.18937276-.45826871-.28723293-.8911956-.28723293-1.29980717v-3.77284436c0-.48145604.18135506-.91184112.52656276-1.25773994.34544674-.34613832.77563084-.52813525 1.25699297-.52813525zm0 1.25h-3.76530612c-.14619204 0-.2590755.04775733-.37222604.16113439-.11338956.11361658-.16132969.22738631-.16132969.3747408v3.77284436c0 .23229148.06204305.50676583.19248155.82241778.12938398.31310012.278727.54742326.44887104.71350745l6.4713115 6.49333638c.1056275.1058389.2178447.152065.372226.152065.1519372 0 .2727949-.0492383.3808284-.1516148l4.4445962-4.46256425c.1058683-.10608016.1522785-.21919601.1522785-.3747408 0-.15308902-.0494067-.27484605-.1519694-.38350066l-6.471929-6.47581637c-.16707562-.16741016-.40584717-.31870033-.72035173-.44918559-.31467017-.13055396-.58816631-.19262369-.81948121-.19262369zm-1.95300945 1.30808028c.31853071 0 .59047974.11052788.81585525.33158696.2253755.22105908.33806157.4877997.33806157.80022986 0 .31243017-.11418855.58064449-.34256906.80465103-.2223705.21811162-.49281705.3271658-.81134776.3271658s-.59047974-.11052789-.81585525-.33158696c-.2253755-.22105908-.33806157-.4877997-.33806157-.80022987 0-.31243016.11268607-.57917078.33806157-.80022986.22537551-.22105908.49732454-.33158696.81585525-.33158696z"/><path d="m22 40.4957043v-7h-7v7zm9.2857143 0v-7h-7.00000001v7zm9.2857143 0v-7h-7v7z"/></g></g></svg>