<svg viewBox="0 0 56 56" xmlns="http://www.w3.org/2000/svg">
    <g transform="translate(1.000000, 1.000000)" fill="none" stroke="#94A9BF">
        <circle id="Oval" cx="27" cy="27" r="26.0357143"></circle>
    </g>
    <path d="M36.0339074,17 L40.4120027,20.1623025 L40.4120027,23.8924541 C40.4120027,24.5327999 39.8073501,25.0726697 38.9896641,25.229023 C39.0182135,25.3518716 39.0328913,25.4795514 39.0328913,25.6104912 L39.0328913,37.2188371 C39.0328913,38.2008861 38.2072633,39 37.1917776,39 L18.8082224,39 C17.7927367,39 16.9671087,38.2008861 16.9671087,37.2188371 L16.9671087,25.6104912 C16.9671087,25.4795514 16.9817865,25.3518716 17.0096352,25.2289104 C16.1926499,25.0726697 15.5879973,24.5327999 15.5879973,23.8924541 L15.5879973,20.1623025 L19.9660926,17 L36.0339074,17 Z M37.4423555,25.2737776 L18.5576445,25.2737776 C18.4285069,25.3474815 18.3462201,25.4751825 18.3462201,25.6104912 L18.3462201,37.2188371 C18.3462201,37.4289944 18.5445447,37.6208886 18.8082224,37.6208886 L37.1917776,37.6208886 C37.4554553,37.6208886 37.6537799,37.4289944 37.6537799,37.2188371 L37.6537799,25.6104912 C37.6537799,25.4751825 37.5714931,25.3474815 37.4423555,25.2737776 Z M30.8990301,26.6537799 C31.9619113,26.6537799 32.8268899,27.3960176 32.8268899,28.3078861 L32.8268899,29.1370079 C32.8268899,30.0488763 31.9619113,30.7911141 30.8990301,30.7911141 L25.1009699,30.7911141 C24.0380887,30.7911141 23.1731101,30.0488763 23.1731101,29.1370079 L23.1731101,28.3078861 C23.1731101,27.3960176 24.0380887,26.6537799 25.1009699,26.6537799 L30.8990301,26.6537799 Z M30.755466,28.0328913 L25.2426961,28.0342676 L25.2417772,29.4120027 L30.7582228,29.4106263 L30.755466,28.0328913 Z M39.0328913,21.1373342 L16.9671087,21.1373342 L16.9671087,23.7595133 C17.0830583,23.8385694 17.2757213,23.8955571 17.4984909,23.8955571 L18.3159081,23.8943743 C18.4726588,23.8522778 18.6377659,23.8297745 18.8082224,23.8297745 L37.1917776,23.8297745 C37.3622341,23.8297745 37.5273412,23.8522778 37.6840919,23.8943743 L38.5019864,23.8955571 C38.7245005,23.8955571 38.9170155,23.8385908 39.0328913,23.7595509 L39.0328913,21.1373342 Z M35.5879267,18.3791114 L20.4120733,18.3791114 L18.5029973,19.758 L37.4959973,19.758 L35.5879267,18.3791114 Z" id="Combined-Shape" fill="#94A9BF" fill-rule="nonzero"></path>
</svg>