<svg viewBox="0 0 56 56" xmlns="http://www.w3.org/2000/svg"><circle cx="28" cy="28" fill="none" r="26.035714" stroke="#94a9bf"/><path d="m36.0339074 17 4.3780953 3.1623025v3.7301516c0 .6403458-.6046526 1.1802156-1.4223386 1.3365689.0285494.1228486.0432272.2505284.0432272.3814682v11.6083459c0 .982049-.825628 1.7811629-1.8411137 1.7811629h-18.3835552c-1.0154857 0-1.8411137-.7991139-1.8411137-1.7811629v-11.6083459c0-.1309398.0146778-.2586196.0425265-.3815808-.8169853-.1562407-1.4216379-.6961105-1.4216379-1.3364563v-3.7301516l4.3780953-3.1623025zm1.4084481 8.2737776h-18.884711c-.1291376.0737039-.2114244.2014049-.2114244.3367136v11.6083459c0 .2101573.1983246.4020515.4620023.4020515h18.3835552c.2636777 0 .4620023-.1918942.4620023-.4020515v-11.6083459c0-.1353087-.0822868-.2630097-.2114244-.3367136zm-6.5433254 1.3800023c1.0628812 0 1.9278598.7422377 1.9278598 1.6541062v.8291218c0 .9118684-.8649786 1.6541062-1.9278598 1.6541062h-5.7980602c-1.0628812 0-1.9278598-.7422378-1.9278598-1.6541062v-.8291218c0-.9118685.8649786-1.6541062 1.9278598-1.6541062zm-.1435641 1.3791114-5.5127699.0013763-.0009189 1.3777351 5.5164456-.0013764zm8.2774253-6.8955571h-22.0657826v2.6221791c.1159496.0790561.3086126.1360438.5313822.1360438l.8174172-.0011828c.1567507-.0420965.3218578-.0645998.4923143-.0645998h18.3835552c.1704565 0 .3355636.0225033.4923143.0645998l.8178945.0011828c.2225141 0 .4150291-.0569663.5309049-.1360062zm-3.4449646-2.7582228h-15.1758534l-1.909076 1.3788886h18.993z" fill="#94a9bf"/></svg>