<svg width="24" height="20" xmlns="http://www.w3.org/2000/svg" xmlns:svg="http://www.w3.org/2000/svg">
  <circle fill="none" stroke="#68778C" stroke-width="1.5" stroke-miterlimit="10" cx="37.1" cy="937.9" r="2.9" id="svg_1"/>
  <g stroke="null" id="svg_4">
   <g stroke="null" id="svg_5">
    <path stroke="null" fill="#3A6083" d="m12,16.81077c-4.66,0 -9.08103,-2.38975 -11.70975,-6.33282l-0.23897,-0.47795l0.23897,-0.47795c2.62872,-3.94308 7.04975,-6.33282 11.70975,-6.33282s9.08103,2.38975 11.70975,6.33282l0.23897,0.47795l-0.23897,0.47795c-2.62872,3.94308 -7.04975,6.33282 -11.70975,6.33282zm-9.91744,-6.81077c2.27026,3.22616 5.97436,5.13795 9.91744,5.13795s7.64718,-1.9118 9.91744,-5.13795c-2.27026,-3.22616 -5.97436,-5.13795 -9.91744,-5.13795s-7.64718,1.9118 -9.91744,5.13795z" id="svg_6"/>
    <path stroke="null" fill="#3A6083" d="m12,16.81077c-4.66,0 -9.08103,-2.38975 -11.70975,-6.33282l-0.23897,-0.47795l0.23897,-0.47795c2.62872,-3.94308 7.04975,-6.33282 11.70975,-6.33282s9.08103,2.38975 11.70975,6.33282l0.23897,0.47795l-0.23897,0.47795c-2.62872,3.94308 -7.04975,6.33282 -11.70975,6.33282zm-9.91744,-6.81077c2.27026,3.22616 5.97436,5.13795 9.91744,5.13795s7.64718,-1.9118 9.91744,-5.13795c-2.27026,-3.22616 -5.97436,-5.13795 -9.91744,-5.13795s-7.64718,1.9118 -9.91744,5.13795z" id="svg_7"/>
   </g>
   <path stroke="null" fill="#3A6083" d="m12,13.94308c-2.15077,0 -3.94308,-1.79231 -3.94308,-3.94308c0,-2.15077 1.79231,-3.94308 3.94308,-3.94308c2.15077,0 3.94308,1.79231 3.94308,3.94308c0,2.15077 -1.79231,3.94308 -3.94308,3.94308zm0,-6.21334c-1.31436,0 -2.27026,1.07539 -2.27026,2.27026c0,1.31436 1.07539,2.27026 2.27026,2.27026c1.31436,0 2.27026,-1.07539 2.27026,-2.27026c0,-1.31436 -0.9559,-2.27026 -2.27026,-2.27026z" id="svg_8"/>
  </g>
</svg>
