<svg enable-background="new 0 0 512 512" height="512" viewBox="0 0 512 512" width="512" xmlns="http://www.w3.org/2000/svg"><path d="m448 64.165h-384c-32-.328-64 31.672-64 63.672v256c0 32 32 64 64 64h383.75c32.25 0 64.25-32 64.25-64v-256c0-32-32-63.674-64-63.672zm-223.997 33.653c11.625 0 21.05 10.3 21.05 23.007 0 12.712-9.425 23.012-21.05 23.012s-21.05-10.3-21.05-23.012c.001-12.707 9.425-23.007 21.05-23.007zm-63.993 0c11.625 0 21.05 10.3 21.05 23.007 0 12.712-9.425 23.012-21.05 23.012-11.638 0-21.062-10.3-21.062-23.012-.001-12.707 9.424-23.007 21.062-23.007zm-64 0c11.625 0 21.05 10.3 21.05 23.007 0 12.712-9.425 23.012-21.05 23.012s-21.062-10.3-21.062-23.012c-.001-12.707 9.437-23.007 21.062-23.007zm383.99 286.019c0 16-16 31.75-32 32h-384c-16 0-32-15.678-32-32v-192c0-16 16-32 32-32h384c16 0 32 16 32 32z"/><path d="m288 191.837h160v192h-160z"/><path d="m64 191.837h192v48.163h-192z"/><path d="m64 256h192v32h-192z"/><path d="m64 304h192v32h-192z"/><path d="m64 352h192v32h-192z"/></svg>