<svg fill="none" viewBox="0 0 24 24" xmlns="http://www.w3.org/2000/svg"><path d="m12.0802 5.625h.0345l.0856.00075c1.014.00487 5.5852.04988 6.8497.44925.75.15 1.35.825 1.575 1.575.3472 1.31962.3731 3.9247.375 4.3035v.093c-.0015.2573-.0139 1.5446-.1305 2.757l-.0217.2126c-.0537.4943-.1257.9645-.2228 1.3339-.225.75-.825 1.35-1.575 1.575-.6225.1639-2.0449.2561-3.4508.3079l-.2714.0097c-1.3553.045-2.6445.0548-3.1275.057h-.4006c-.4987-.0022-1.8592-.0124-3.26283-.0619l-.27225-.0101-.27187-.0112c-1.26563-.054-2.48062-.1436-3.04275-.2914-.75-.15-1.35-.825-1.575-1.575-.32625-1.2401-.36863-3.6169-.37425-4.212l-.00075-.0915v-.072-.0191l.00075-.0885c.00525-.5884.04687-2.98277.37425-4.2919.225-.75.825-1.35 1.575-1.575 1.24425-.32738 5.6914-.369 6.7987-.37425l.1366-.00037h.0345zm-1.9552 3.675v5.4l4.725-2.7z" fill="#f00"/></svg>