<svg xmlns="http://www.w3.org/2000/svg" fill="none" viewBox="0 0 24 24" width="1em" height="1em"><path fill="currentColor" d="M20 13.5a.5.5 0 0 0-1 0zM17.5 6a.5.5 0 0 0 0-1zm-1.646-3.854a.5.5 0 0 0-.708.708zM18.5 5.5l.354.354a.5.5 0 0 0 0-.708zm-3.354 2.646a.5.5 0 0 0 .708.708zM19 13.5a7.5 7.5 0 0 1-7.5 7.5v1a8.5 8.5 0 0 0 8.5-8.5zM11.5 21A7.5 7.5 0 0 1 4 13.5H3a8.5 8.5 0 0 0 8.5 8.5zM4 13.5A7.5 7.5 0 0 1 11.5 6V5A8.5 8.5 0 0 0 3 13.5zM11.5 6h6V5h-6zm3.646-3.146 3 3 .708-.708-3-3zm3 2.292-3 3 .708.708 3-3z"/></svg>
