<svg xmlns="http://www.w3.org/2000/svg" fill="none" viewBox="0 0 32 32" width="1em" height="1em"><path fill="currentColor" d="M29 18a.5.5 0 0 0-1 0h1ZM26.5 7a.5.5 0 0 0 0-1v1Zm-2.646-4.853a.5.5 0 0 0-.708.707l.707-.707ZM27.5 6.5l.354.354a.5.5 0 0 0 0-.707L27.5 6.5Zm-4.354 3.646a.5.5 0 0 0 .707.708l-.707-.707ZM28 18c0 6.075-4.925 11-11 11v1c6.627 0 12-5.373 12-12h-1ZM17 29c-6.075 0-11-4.925-11-11H5c0 6.627 5.373 12 12 12v-1ZM6 18c0-6.075 4.925-11 11-11V6C10.373 6 5 11.373 5 18h1ZM17 7h9.5V6H17v1Zm6.146-4.146 4 4 .707-.707-4-4-.707.707Zm4 3.293-4 4 .707.707 4-4-.707-.707Z"/></svg>
