<svg viewBox="0 0 32 32" fill="none" xmlns="http://www.w3.org/2000/svg" stroke="currentColor"><path d="M29 17.9999C29 17.7238 28.7761 17.4999 28.5 17.4999C28.2239 17.4999 28 17.7238 28 17.9999H29ZM26.5 6.9999C26.7761 6.9999 27 6.77605 27 6.4999C27 6.22376 26.7761 5.9999 26.5 5.9999V6.9999ZM23.8535 2.14645C23.6583 1.95118 23.3417 1.95118 23.1464 2.14645C22.9512 2.34171 22.9512 2.65829 23.1464 2.85355L23.8535 2.14645ZM27.5 6.5L27.8535 6.85355C28.0488 6.65829 28.0488 6.34171 27.8535 6.14645L27.5 6.5ZM23.1464 10.1464C22.9512 10.3417 22.9512 10.6583 23.1464 10.8536C23.3417 11.0488 23.6583 11.0488 23.8535 10.8536L23.1464 10.1464ZM28 17.9999C28 24.075 23.0751 28.9999 17 28.9999V29.9999C23.6274 29.9999 29 24.6273 29 17.9999H28ZM17 28.9999C10.9249 28.9999 6 24.075 6 17.9999H5C5 24.6273 10.3726 29.9999 17 29.9999V28.9999ZM6 17.9999C6 11.9248 10.9249 6.9999 17 6.9999V5.9999C10.3726 5.9999 5 11.3725 5 17.9999H6ZM17 6.9999H26.5V5.9999H17V6.9999ZM23.1464 2.85355L27.1464 6.85355L27.8535 6.14645L23.8535 2.14645L23.1464 2.85355ZM27.1464 6.14645L23.1464 10.1464L23.8535 10.8536L27.8535 6.85355L27.1464 6.14645Z" fill="#282829"/></svg>
