<svg xmlns="http://www.w3.org/2000/svg" fill="none" viewBox="0 0 16 16" width="1em" height="1em"><circle cx="8" cy="8" r="6.5" stroke="currentColor"/><path stroke="currentColor" stroke-linejoin="round" d="M8 4.93 9.447 8 8 11.07 6.553 8z"/><path fill="currentColor" fill-rule="evenodd" d="M7.5 2v.5a.5.5 0 0 0 1 0V2a.5.5 0 0 0-1 0m0 11.5v.5a.5.5 0 0 0 1 0v-.5a.5.5 0 0 0-1 0m6-6h.5a.5.5 0 0 1 0 1h-.5a.5.5 0 0 1 0-1m-11 0H2a.5.5 0 0 0 0 1h.5a.5.5 0 0 0 0-1" clip-rule="evenodd"/><path stroke="currentColor" stroke-linecap="round" d="m13.5 2.5-11 11"/></svg>
