<svg xmlns="http://www.w3.org/2000/svg" fill="none" viewBox="0 0 32 32" width="1em" height="1em"><path fill="currentColor" fill-rule="evenodd" d="M27 16c0 6.075-4.925 11-11 11S5 22.075 5 16 9.925 5 16 5s11 4.925 11 11Zm1 0c0 6.627-5.373 12-12 12S4 22.627 4 16 9.373 4 16 4s12 5.373 12 12Zm-3 0a9 9 0 1 1-18 0 9 9 0 0 1 18 0Zm1 0c0 5.523-4.477 10-10 10S6 21.523 6 16 10.477 6 16 6s10 4.477 10 10Z" clip-rule="evenodd"/><path stroke="currentColor" d="M15.496 10.845a.5.5 0 0 1 .938.007l1.805 4.974a.5.5 0 0 1-.001.344l-1.805 4.886a.5.5 0 0 1-.935.008l-1.893-4.887a.5.5 0 0 1-.001-.358l1.892-4.974Z"/><path fill="currentColor" fill-rule="evenodd" d="M16.5 7a.5.5 0 1 0-1 0v1.35a.5.5 0 0 0 1 0V7Zm8.5 8.5h-1.35a.5.5 0 0 0 0 1H25a.5.5 0 1 0 0-1Zm-9 7.65a.5.5 0 0 1 .5.5V25a.5.5 0 1 1-1 0v-1.35a.5.5 0 0 1 .5-.5ZM8.35 15.5H7a.5.5 0 0 0 0 1h1.35a.5.5 0 0 0 0-1Z" clip-rule="evenodd"/><path stroke="currentColor" stroke-linecap="round" d="m26.5 5.5-21 21"/></svg>
