<svg xmlns="http://www.w3.org/2000/svg" fill="none" viewBox="0 0 24 24" width="1em" height="1em"><circle cx="12" cy="12" r="7.5" stroke="currentColor"/><path stroke="currentColor" d="m11.948 8.47 1.335 3.707-1.335 3.37-1.349-3.37z"/><path fill="currentColor" fill-rule="evenodd" d="M12.5 5a.5.5 0 0 0-1 0v1.5a.5.5 0 0 0 1 0zm6.75 7.75a.5.5 0 0 0 0-1h-1.5a.5.5 0 0 0 0 1zM12 17.5a.5.5 0 0 1 .5.5v1.5a.5.5 0 0 1-1 0V18a.5.5 0 0 1 .5-.5m-5.75-4.75a.5.5 0 0 0 0-1h-1.5a.5.5 0 0 0 0 1z" clip-rule="evenodd"/><path stroke="currentColor" stroke-linecap="round" d="M20 4 3.707 20.293"/></svg>
