<svg viewBox="0 0 32 32" fill="none" xmlns="http://www.w3.org/2000/svg" stroke="currentColor"><rect x="2.5" y="5.5" width="27" height="21" rx="1.5"/><line x1="3" y1="9.5" x2="29" y2="9.5"/><circle cx="4.5" cy="7.5" r="0.5" fill="#282829"/><circle cx="6.5" cy="7.5" r="0.5" fill="#282829"/><circle cx="8.5" cy="7.5" r="0.5" fill="#282829"/><line x1="11" y1="26" x2="11" y2="10"/><path d="M5 14.5H9M5 17.5H9M5 20.5H9" stroke-linecap="round"/><path d="M22.5 15C22.5 16.3807 21.3807 17.5 20 17.5C18.6193 17.5 17.5 16.3807 17.5 15C17.5 13.6193 18.6193 12.5 20 12.5C21.3807 12.5 22.5 13.6193 22.5 15Z" stroke-linecap="round" stroke-linejoin="round"/><path d="M16 23.5V21.5C16 20.3954 16.8954 19.5 18 19.5H22C23.1046 19.5 24 20.3954 24 21.5V23.5" stroke-linecap="round"/></svg>
