<svg viewBox="0 0 32 32" fill="none" xmlns="http://www.w3.org/2000/svg" width="1em" height="1em"><rect x="2.5" y="5.5" width="27" height="21" rx="1.5" stroke="currentColor"/><line x1="3" y1="9.5" x2="29" y2="9.5" stroke="currentColor"/><circle cx="4.5" cy="7.5" r="0.5" fill="currentColor"/><circle cx="6.5" cy="7.5" r="0.5" fill="currentColor"/><circle cx="8.5" cy="7.5" r="0.5" fill="currentColor"/><line x1="9" y1="26" x2="9" y2="10" stroke="currentColor"/><path d="M3 14.5H7M3 17.5H7M3 20.5H7" stroke="currentColor" stroke-linecap="round"/><path d="M20.5 15C20.5 16.3807 19.3807 17.5 18 17.5C16.6193 17.5 15.5 16.3807 15.5 15C15.5 13.6193 16.6193 12.5 18 12.5C19.3807 12.5 20.5 13.6193 20.5 15Z" stroke="currentColor" stroke-linecap="round" stroke-linejoin="round"/><path d="M14 23.5V21.5C14 20.3954 14.8954 19.5 16 19.5H20C21.1046 19.5 22 20.3954 22 21.5V23.5" stroke="currentColor" stroke-linecap="round"/></svg>
