<svg xmlns="http://www.w3.org/2000/svg" fill="none" viewBox="0 0 32 32" width="1em" height="1em"><rect width="27" height="21" x="2.5" y="5.5" stroke="currentColor" rx="1.5"/><path stroke="currentColor" d="M3 9.5h26"/><circle cx="4.5" cy="7.5" r=".5" fill="currentColor"/><circle cx="6.5" cy="7.5" r=".5" fill="currentColor"/><circle cx="8.5" cy="7.5" r=".5" fill="currentColor"/><path stroke="currentColor" d="M9 26V10"/><path stroke="currentColor" stroke-linecap="round" d="M4 14.5h3m-3 3h3m-3 3h3"/><path stroke="currentColor" stroke-linecap="round" stroke-linejoin="round" d="M20.5 15a2.5 2.5 0 1 1-5 0 2.5 2.5 0 0 1 5 0Z"/><path stroke="currentColor" stroke-linecap="round" d="M14.5 23.5v-2a2 2 0 0 1 2-2h3a2 2 0 0 1 2 2v2"/></svg>
