<svg xmlns="http://www.w3.org/2000/svg" fill="none" viewBox="0 0 18 18" width="1em" height="1em"><path stroke="currentColor" stroke-linecap="round" stroke-linejoin="round" d="M9.5 7.5a2.5 2.5 0 1 0 0-5 2.5 2.5 0 0 0 0 5M8 9.5H6.5a2 2 0 0 0-2 2v2"/><path stroke="currentColor" d="M12.618 11.32c.1.285.35.547.698.608v.041a.93.93 0 0 0-.73.572l-.038.084a.93.93 0 0 0 .064.925l-.03.028a.93.93 0 0 0-.92-.111l-.086.033.157.445-.157-.445a.93.93 0 0 0-.609.699l-.04-.001a.93.93 0 0 0-.573-.73l-.083-.037a.93.93 0 0 0-.926.063l-.028-.03a.93.93 0 0 0 .112-.92l-.462.192.462-.192-.033-.086a.93.93 0 0 0-.7-.608l.002-.041a.93.93 0 0 0 .73-.572q.017-.042.037-.084a.93.93 0 0 0-.064-.925l.03-.029a.93.93 0 0 0 .92.112q.043-.018.086-.033a.93.93 0 0 0 .61-.699l.04.001a.93.93 0 0 0 .572.73q.042.017.083.037c.273.13.637.14.926-.064l.028.03a.93.93 0 0 0-.111.92z"/></svg>
