<svg xmlns="http://www.w3.org/2000/svg" fill="none" viewBox="0 0 26 26" width="1em" height="1em"><path stroke="currentColor" stroke-linecap="round" stroke-linejoin="round" d="M5.5 21.5v-2.926c0-2.557 1.139-4.074 3.16-4.074H12m1-3a4 4 0 1 0 0-8 4 4 0 0 0 0 8"/><path stroke="currentColor" stroke-miterlimit="10" d="M21.304 16.677h-.401a3.4 3.4 0 0 0-.411-.997l.277-.278a.2.2 0 0 0 0-.288l-.874-.874a.2.2 0 0 0-.288 0l-.277.278a3.4 3.4 0 0 0-.998-.411v-.401a.206.206 0 0 0-.205-.206h-1.234a.206.206 0 0 0-.206.206v.4a3.4 3.4 0 0 0-.997.412l-.288-.278a.2.2 0 0 0-.288 0l-.874.874a.2.2 0 0 0 0 .288l.278.278c-.185.308-.33.637-.411.997h-.401a.206.206 0 0 0-.206.206v1.234c0 .113.092.206.206.206h.4c.083.36.227.689.412.997l-.278.278a.2.2 0 0 0 0 .288l.874.874a.2.2 0 0 0 .288 0l.278-.278c.308.185.637.33.997.411v.401c0 .113.093.206.206.206h1.233a.206.206 0 0 0 .206-.206v-.4c.36-.083.689-.227.998-.412l.277.278a.2.2 0 0 0 .288 0l.874-.874a.2.2 0 0 0 0-.288l-.278-.278c.185-.308.33-.637.412-.997h.4a.206.206 0 0 0 .206-.206v-1.234a.19.19 0 0 0-.195-.206Z"/><circle cx="17.5" cy="17.5" r="1.833" stroke="currentColor"/></svg>
