<svg xmlns="http://www.w3.org/2000/svg" fill="none" viewBox="0 0 32 32" width="1em" height="1em"><path stroke="currentColor" stroke-linecap="round" stroke-linejoin="round" d="M6.5 25.5v-4.667c0-3.221 2.345-5.333 5.267-5.333H15.5m.5-3a5 5 0 1 0 0-10 5 5 0 0 0 0 10"/><path stroke="currentColor" stroke-miterlimit="10" d="M27.206 19.766h-.602a5.1 5.1 0 0 0-.617-1.496l.417-.416a.3.3 0 0 0 0-.432l-1.311-1.312a.3.3 0 0 0-.432 0l-.416.417a5.1 5.1 0 0 0-1.496-.617v-.601A.31.31 0 0 0 22.44 15h-1.85a.31.31 0 0 0-.309.309v.601c-.54.123-1.033.34-1.496.617l-.432-.417a.3.3 0 0 0-.432 0l-1.31 1.312a.3.3 0 0 0 0 .431l.416.417a5.1 5.1 0 0 0-.617 1.496h-.601a.31.31 0 0 0-.309.309v1.85c0 .17.139.309.309.309h.6c.124.54.34 1.033.618 1.496l-.417.416a.3.3 0 0 0 0 .432l1.311 1.312a.3.3 0 0 0 .432 0l.417-.417c.462.278.956.494 1.496.617v.602c0 .17.138.308.308.308h1.85a.31.31 0 0 0 .31-.308v-.602a5.1 5.1 0 0 0 1.495-.617l.417.417a.3.3 0 0 0 .431 0l1.311-1.312a.3.3 0 0 0 0-.431l-.416-.417c.278-.463.493-.956.617-1.496h.601a.31.31 0 0 0 .309-.309v-1.85a.287.287 0 0 0-.293-.309Z"/><circle cx="21.5" cy="21" r="3" stroke="currentColor"/></svg>
