<svg xmlns="http://www.w3.org/2000/svg" fill="none" viewBox="0 0 18 18" width="1em" height="1em"><path stroke="currentColor" stroke-linecap="round" stroke-linejoin="round" d="M9.5 7.5a2.5 2.5 0 1 0 0-5 2.5 2.5 0 0 0 0 5ZM8 9.5H6.5a2 2 0 0 0-2 2v2"/><path stroke="currentColor" d="M12.617 11.32a.927.927 0 0 0 .7.608l-.002.041a.927.927 0 0 0-.73.572 1.706 1.706 0 0 1-.037.084.927.927 0 0 0 .064.925l-.03.028a.926.926 0 0 0-.92-.111 1.582 1.582 0 0 1-.086.033l.157.445-.157-.445a.927.927 0 0 0-.609.699l-.04-.001a.926.926 0 0 0-.573-.73 1.799 1.799 0 0 1-.083-.037.926.926 0 0 0-.926.063l-.028-.03a.926.926 0 0 0 .112-.92l-.462.192.462-.192a1.7 1.7 0 0 1-.033-.086.927.927 0 0 0-.7-.608l.002-.041a.927.927 0 0 0 .73-.572c.011-.028.024-.056.037-.084a.926.926 0 0 0-.064-.925l.03-.029a.927.927 0 0 0 .92.112c.029-.012.057-.023.086-.033a.927.927 0 0 0 .61-.699l.04.001a.93.93 0 0 0 .572.73c.028.011.056.024.083.037.273.13.637.14.926-.064l.028.03a.926.926 0 0 0-.111.92l.032.087Z"/></svg>
