<svg viewBox="0 0 16 16" fill="none" xmlns="http://www.w3.org/2000/svg" width="1em" height="1em"><path d="M13 4.5H6C3.51472 4.5 1.5 6.51472 1.5 9V9C1.5 11.4853 3.51472 13.5 6 13.5H7.5" stroke="currentColor" stroke-linecap="round"/><path d="M13.5 4.5L13.8536 4.85355C13.9473 4.75979 14 4.63261 14 4.5C14 4.36739 13.9473 4.24021 13.8536 4.14645L13.5 4.5ZM11.8536 2.14645C11.6583 1.95118 11.3417 1.95118 11.1464 2.14645C10.9512 2.34171 10.9512 2.65829 11.1464 2.85355L11.8536 2.14645ZM11.1464 6.14645C10.9512 6.34171 10.9512 6.65829 11.1464 6.85355C11.3417 7.04881 11.6583 7.04881 11.8536 6.85355L11.1464 6.14645ZM11.1464 2.85355L13.1464 4.85355L13.8536 4.14645L11.8536 2.14645L11.1464 2.85355ZM13.1464 4.14645L11.1464 6.14645L11.8536 6.85355L13.8536 4.85355L13.1464 4.14645Z" fill="currentColor"/></svg>
