<svg viewBox="0 0 16 16" fill="none" xmlns="http://www.w3.org/2000/svg" width="1em" height="1em"><path d="M4.07795 8.96591L3.35596 9.65782C2.55848 10.4221 2.53154 11.6881 3.2958 12.4856L3.42712 12.6226C4.19138 13.4201 5.45742 13.4471 6.25491 12.6828L9.14286 9.91518C9.94034 9.15092 9.96729 7.88489 9.20303 7.0874C9.09242 6.97198 8.97522 6.84968 8.84747 6.71638" stroke="currentColor" stroke-linecap="round"/><path d="M11.9328 7.04532L12.6548 6.35342C13.4523 5.58916 13.4792 4.32311 12.7149 3.52563L12.5822 3.38712C11.818 2.58963 10.5519 2.5627 9.75442 3.32695L6.86647 6.09458C6.06898 6.85883 6.04204 8.12488 6.8063 8.92236L7.16271 9.29426" stroke="currentColor" stroke-linecap="round"/></svg>
