<svg viewBox="0 0 16 16" fill="none" xmlns="http://www.w3.org/2000/svg" stroke="currentColor"><path d="M1.5 5C1.5 4.17157 2.17157 3.5 3 3.5H13C13.8284 3.5 14.5 4.17157 14.5 5V11C14.5 11.8284 13.8284 12.5 13 12.5H3C2.17157 12.5 1.5 11.8284 1.5 11V5Z"/><path d="M1.64645 4.35355L6.93934 9.64645L7.64645 8.93934L2.35355 3.64645L1.64645 4.35355ZM9.06066 9.64645L14.3536 4.35355L13.6464 3.64645L8.35355 8.93934L9.06066 9.64645ZM6.93934 9.64645C7.52513 10.2322 8.47487 10.2322 9.06066 9.64645L8.35355 8.93934C8.15829 9.1346 7.84171 9.1346 7.64645 8.93934L6.93934 9.64645Z" fill="#282829"/></svg>
