<svg viewBox="0 0 24 24" fill="none" xmlns="http://www.w3.org/2000/svg" stroke="currentColor"><circle cx="8.5" cy="18.5" r="1"/><circle cx="16.5" cy="18.5" r="1"/><path d="M2.5 3.5H4.5L8 13.5" stroke-linecap="round" stroke-linejoin="round"/><path d="M5.5 5C5.22386 5 5 5.22386 5 5.5C5 5.77614 5.22386 6 5.5 6V5ZM17.7857 16C18.0619 16 18.2857 15.7761 18.2857 15.5C18.2857 15.2239 18.0619 15 17.7857 15V16ZM5.5 6H19.6398V5H5.5V6ZM20.117 6.64914L18.4613 11.9474L19.4158 12.2457L21.0715 6.94741L20.117 6.64914ZM17.0296 13H7.53571V14H17.0296V13ZM7.53571 16H17.7857V15H7.53571V16ZM6.03571 14.5C6.03571 15.3284 6.70729 16 7.53571 16V15C7.25957 15 7.03571 14.7761 7.03571 14.5H6.03571ZM7.53571 13C6.70729 13 6.03571 13.6716 6.03571 14.5H7.03571C7.03571 14.2239 7.25957 14 7.53571 14V13ZM18.4613 11.9474C18.2656 12.5736 17.6857 13 17.0296 13V14C18.1231 14 19.0897 13.2894 19.4158 12.2457L18.4613 11.9474ZM19.6398 6C19.9771 6 20.2177 6.32717 20.117 6.64914L21.0715 6.94741C21.3734 5.98152 20.6518 5 19.6398 5V6Z" fill="#282829"/></svg>