<svg viewBox="0 0 32 32" fill="none" xmlns="http://www.w3.org/2000/svg" stroke="currentColor"><circle cx="10" cy="26" r="1.5"/><circle cx="23" cy="26" r="1.5"/><path d="M6.5 8C6.22386 8 6 8.22386 6 8.5C6 8.77614 6.22386 9 6.5 9V8ZM25.5 23C25.7761 23 26 22.7761 26 22.5C26 22.2239 25.7761 22 25.5 22V23ZM6.5 9H27.2472V8H6.5V9ZM27.7348 9.61081L25.8662 17.8324L26.8414 18.0541L28.7099 9.83243L27.7348 9.61081ZM24.4035 19H9V20H24.4035V19ZM9 23H25.5V22H9V23ZM7 21C7 22.1046 7.89543 23 9 23V22C8.44772 22 8 21.5523 8 21H7ZM9 19C7.89543 19 7 19.8954 7 21H8C8 20.4477 8.44772 20 9 20V19ZM25.8662 17.8324C25.711 18.5154 25.1039 19 24.4035 19V20C25.5708 20 26.5827 19.1923 26.8414 18.0541L25.8662 17.8324ZM27.2472 9C27.5681 9 27.8059 9.29793 27.7348 9.61081L28.7099 9.83243C28.9233 8.89379 28.2098 8 27.2472 8V9Z" fill="#282829"/><path d="M3 6H5.5L8.5 19.5" stroke-linecap="round" stroke-linejoin="round"/></svg>
