<svg viewBox="0 0 18 18" fill="none" xmlns="http://www.w3.org/2000/svg" stroke="currentColor" width="1em" height="1em"><path d="M8.99997 4.5C8.99997 5.86684 8.99997 8.5 8.99997 8.5M4.44995 13.55L7.49997 11M13.55 13.55L10.5 11" stroke-linejoin="round"/><path d="M4.5 14.5C4.5 15.0523 4.05228 15.5 3.5 15.5C2.94772 15.5 2.5 15.0523 2.5 14.5C2.5 13.9477 2.94772 13.5 3.5 13.5C4.05228 13.5 4.5 13.9477 4.5 14.5Z" stroke-linecap="round" stroke-linejoin="round"/><path d="M15.5 14.5C15.5 15.0523 15.0523 15.5 14.5 15.5C13.9477 15.5 13.5 15.0523 13.5 14.5C13.5 13.9477 13.9477 13.5 14.5 13.5C15.0523 13.5 15.5 13.9477 15.5 14.5Z" stroke-linecap="round" stroke-linejoin="round"/><path d="M10.5 10C10.5 10.8284 9.82843 11.5 9 11.5C8.17157 11.5 7.5 10.8284 7.5 10C7.5 9.17157 8.17157 8.5 9 8.5C9.82843 8.5 10.5 9.17157 10.5 10Z" stroke-linecap="round" stroke-linejoin="round"/><path d="M10 3.5C10 4.05228 9.55228 4.5 9 4.5C8.44772 4.5 8 4.05228 8 3.5C8 2.94772 8.44772 2.5 9 2.5C9.55228 2.5 10 2.94772 10 3.5Z" stroke-linecap="round" stroke-linejoin="round"/></svg>
