<svg viewBox="0 0 32 32" fill="none" xmlns="http://www.w3.org/2000/svg" width="1em" height="1em"><path d="M16 8L16 15M7 25L14 19.5M25 25L18 19.5" stroke="currentColor" stroke-linejoin="round"/><path d="M7.5 27C7.5 28.3807 6.38071 29.5 5 29.5C3.61929 29.5 2.5 28.3807 2.5 27C2.5 25.6193 3.61929 24.5 5 24.5C6.38071 24.5 7.5 25.6193 7.5 27Z" stroke="currentColor" stroke-linecap="round" stroke-linejoin="round"/><path d="M29.5 27C29.5 28.3807 28.3807 29.5 27 29.5C25.6193 29.5 24.5 28.3807 24.5 27C24.5 25.6193 25.6193 24.5 27 24.5C28.3807 24.5 29.5 25.6193 29.5 27Z" stroke="currentColor" stroke-linecap="round" stroke-linejoin="round"/><path d="M18.5 18C18.5 19.3807 17.3807 20.5 16 20.5C14.6193 20.5 13.5 19.3807 13.5 18C13.5 16.6193 14.6193 15.5 16 15.5C17.3807 15.5 18.5 16.6193 18.5 18Z" stroke="currentColor" stroke-linecap="round" stroke-linejoin="round"/><path d="M18.5 5C18.5 6.38071 17.3807 7.5 16 7.5C14.6193 7.5 13.5 6.38071 13.5 5C13.5 3.61929 14.6193 2.5 16 2.5C17.3807 2.5 18.5 3.61929 18.5 5Z" stroke="currentColor" stroke-linecap="round" stroke-linejoin="round"/></svg>
