<svg xmlns="http://www.w3.org/2000/svg" fill="none" viewBox="0 0 24 24" width="1em" height="1em"><rect width="71" height="131" x="-20.5" y="-60.5" stroke="currentColor" stroke-dasharray="10 5" rx="4.5"/><path stroke="currentColor" stroke-linecap="round" stroke-linejoin="round" d="M5.5 20a1.5 1.5 0 1 1-3 0 1.5 1.5 0 0 1 3 0Z"/><path stroke="currentColor" stroke-linejoin="round" d="m5 19 5.5-5M12 5.5v6m7 7.5-5.5-5"/><path stroke="currentColor" stroke-linecap="round" stroke-linejoin="round" d="M21.5 20a1.5 1.5 0 1 1-3 0 1.5 1.5 0 0 1 3 0Zm-8-7a1.5 1.5 0 1 1-3 0 1.5 1.5 0 0 1 3 0Zm0-9a1.5 1.5 0 1 1-3 0 1.5 1.5 0 0 1 3 0Z"/></svg>
