<svg viewBox="0 0 16 16" fill="none" xmlns="http://www.w3.org/2000/svg" width="1em" height="1em"><path d="M7.99997 3.5C7.99997 4.86684 7.99997 7.5 7.99997 7.5M3.44995 12.55L6.49997 10M12.55 12.55L9.49997 10" stroke="currentColor" stroke-linejoin="round"/><path d="M3.5 13.5C3.5 14.0523 3.05228 14.5 2.5 14.5C1.94772 14.5 1.5 14.0523 1.5 13.5C1.5 12.9477 1.94772 12.5 2.5 12.5C3.05228 12.5 3.5 12.9477 3.5 13.5Z" stroke="currentColor" stroke-linecap="round" stroke-linejoin="round"/><path d="M14.5 13.5C14.5 14.0523 14.0523 14.5 13.5 14.5C12.9477 14.5 12.5 14.0523 12.5 13.5C12.5 12.9477 12.9477 12.5 13.5 12.5C14.0523 12.5 14.5 12.9477 14.5 13.5Z" stroke="currentColor" stroke-linecap="round" stroke-linejoin="round"/><path d="M9.5 9C9.5 9.82843 8.82843 10.5 8 10.5C7.17157 10.5 6.5 9.82843 6.5 9C6.5 8.17157 7.17157 7.5 8 7.5C8.82843 7.5 9.5 8.17157 9.5 9Z" stroke="currentColor" stroke-linecap="round" stroke-linejoin="round"/><path d="M9 2.5C9 3.05228 8.55228 3.5 8 3.5C7.44772 3.5 7 3.05228 7 2.5C7 1.94772 7.44772 1.5 8 1.5C8.55228 1.5 9 1.94772 9 2.5Z" stroke="currentColor" stroke-linecap="round" stroke-linejoin="round"/></svg>
