<svg enable-background="new 0 0 976.5 488.2" opacity=".2" viewBox="0 0 976.5 488.2" xmlns="http://www.w3.org/2000/svg">
  <g fill="#fff">
    <path d="m303.6 21 63.9 9-24.1-60.3zm66.8 11.4-70.3-9.9 43.8-56.5z"/>
    <path d="m374.6 32 63.9 9-24.1-60.3zm66.8 11.4-70.3-9.9 43.8-56.5z" opacity=".2969"/>
    <path d="m-41.4 161 63.9 9-24.1-60.3zm66.8 11.4-70.3-9.9 43.8-56.5z"/>
    <path d="m29.6 172 63.9 9-24.1-60.3zm66.8 11.4-70.3-9.9 43.8-56.5z"/>
    <path d="m46.6 48 63.9 9-24.2-60.2zm66.8 11.4-70.3-9.9 43.8-56.5z" opacity=".057065"/>
    <path d="m2.6 105 63.9 9-24.2-60.2zm66.8 11.4-70.3-9.9 43.8-56.5z" opacity=".2077"/>
    <path d="m73.6 114 63.9 9-24.1-60.3zm66.8 11.4-70.3-9.9 43.8-56.5z"/>
    <path d="m171.6 191 63.9 9-24.1-60.3zm66.8 11.4-70.3-9.9 43.8-56.5z"/>
    <path d="m118.6 58 63.9 9-24.2-60.2zm66.8 11.4-70.3-9.9 43.8-56.5z" opacity=".1773"/>
    <path d="m215.6 134 63.9 9-24.1-60.3zm66.8 11.4-70.3-9.9 43.8-56.5z" opacity=".2969"/>
    <path d="m286.6 144 63.9 9-24.1-60.3zm66.8 11.4-70.3-9.9 43.8-56.5z" opacity=".4508"/>
    <path d="m144.6 125 63.9 9-24.1-60.3zm66.8 11.4-70.3-9.9 43.8-56.5z" opacity=".4508"/>
    <path d="m-31.4 351 63.9 9-24.2-60.2zm66.8 11.4-70.3-9.9 43.8-56.5z"/>
    <path d="m38.6 360 63.9 9-24.1-60.3zm66.8 11.4-70.3-9.9 43.8-56.5z"/>
    <path d="m56.6 237 63.9 9-24.1-60.3zm66.8 11.4-70.3-9.9 43.8-56.5z" opacity=".2969"/>
    <path d="m12.6 295 63.9 9-24.1-60.3zm66.8 11.4-70.3-9.9 43.8-56.5z"/>
    <path d="m83.6 304 63.9 9-24.1-60.3zm66.8 11.4-70.3-9.9 43.8-56.5z"/>
    <path d="m-58.4 284 63.9 9-24.1-60.3zm66.8 11.4-70.3-9.9 43.8-56.5z"/>
    <path d="m180.6 380 63.9 9-24.1-60.3zm66.8 11.4-70.3-9.9 43.8-56.5z" opacity=".1147"/>
    <path d="m127.6 248 63.9 9-24.1-60.3zm66.8 11.4-70.3-9.9 43.8-56.5z" opacity=".1773"/>
    <path d="m154.6 315 63.9 9-24.1-60.3zm66.8 11.4-70.3-9.9 43.8-56.5z" opacity=".333"/>
    <path d="m-48.4 474 63.9 9-24.1-60.3zm66.8 11.4-70.3-9.9 43.8-56.5z" opacity=".3908"/>
    <path d="m-4.4 417 63.9 9-24.1-60.3zm66.8 11.4-70.3-9.9 43.8-56.5z"/>
    <path d="m93.6 494 63.9 9-24.1-60.3zm66.8 11.4-70.3-9.9 43.8-56.5z" opacity=".2969"/>
    <path d="m21.6 484 63.9 9-24.1-60.3zm66.8 11.4-70.3-9.9 43.8-56.5z"/>
    <path d="m539.9 115 63.9 9-24.1-60.3zm66.8 11.3-70.3-9.9 43.8-56.5z"/>
    <path d="m681.9 135 63.9 9-24.1-60.3zm66.8 11.3-70.3-9.9 43.8-56.5z"/>
    <path d="m750.4 145.4 70.3 9.9-26.5-66.3zm43.2-52.7 24.1 60.3-63.9-9z" opacity=".057065"/>
    <path d="m611.9 125 63.9 9-24.1-60.3zm66.8 11.3-70.3-9.9 43.8-56.5z" opacity=".1773"/>
    <path d="m583.9 58 63.9 9-24.2-60.3zm66.8 11.3-70.3-9.9 43.8-56.5z" opacity=".2969"/>
    <path d="m302.9 521 63.9 9-24.1-60.3zm66.8 11.3-70.3-9.9 43.8-56.5z"/>
    <path d="m372.9 530 63.9 9-24.1-60.3zm66.8 11.3-70.3-9.9 43.8-56.5z"/>
    <path d="m346.9 465 63.9 9-24.1-60.3zm66.8 11.3-70.3-9.9 43.8-56.5z"/>
    <path d="m417.9 474 63.9 9-24.1-60.3zm66.8 11.3-70.3-9.9 43.8-56.5z"/>
    <path d="m275.9 454 63.9 9-24.1-60.3zm66.8 11.3-70.3-9.9 43.8-56.5z"/>
    <path d="m514.9 550 63.9 9-24.1-60.3zm66.8 11.3-70.3-9.9 43.8-56.5z" opacity=".1147"/>
    <path d="m461.9 418 63.9 9-24.1-60.3zm66.8 11.3-70.3-9.9 43.8-56.5z" opacity=".1773"/>
    <path d="m559.9 494 63.9 9-24.1-60.3zm66.8 11.3-70.3-9.9 43.8-56.5z" opacity=".057065"/>
    <path d="m488.9 485 63.9 9-24.1-60.3zm66.8 11.3-70.3-9.9 43.8-56.5z" opacity=".333"/>
    <path d="m796.2 88.1 63.9 9-24.1-60.3zm66.8 11.3-70.3-9.9 43.8-56.5z"/>
    <path d="m867.2 99.1 63.9 9-24.1-60.3zm66.8 11.3-70.3-9.9 43.8-56.5z"/>
    <path d="m884.2-24.9 63.9 9-24.1-60.3zm66.8 11.3-70.3-9.9 43.8-56.5z" opacity=".057065"/>
    <path d="m840.2 32.1 63.9 9-24.1-60.3zm66.8 11.3-70.3-9.9 43.8-56.5z" opacity=".2077"/>
    <path d="m911.2 41.1 63.9 9-24.1-60.3zm66.8 11.3-70.3-9.9 43.8-56.5z"/>
    <path d="m770.2 21.1 63.9 9-24.1-60.3zm66.8 11.3-70.3-9.9 43.8-56.5z" opacity=".3622"/>
    <path d="m806.2 278.1 63.9 9-24.1-60.3m.5-3.8 26.5 66.3-70.3-9.9"/>
    <path d="m876.2 287.1 63.9 9-24.1-60.3zm66.8 11.3-70.3-9.9 43.8-56.5z"/>
    <path d="m894.2 164.1 63.9 9-24.1-60.3zm66.8 11.3-70.3-9.9 43.8-56.5z" opacity=".2969"/>
    <path d="m850.2 222.1 63.9 9-24.1-60.3zm66.8 11.3-70.3-9.9 43.8-56.5z"/>
    <path d="m921.2 231.1 63.9 9-24.1-60.3zm66.8 11.3-70.3-9.9 43.8-56.5z"/>
    <path d="m779.2 211.1 63.9 9-24.1-60.3zm66.8 11.3-70.3-9.9 43.8-56.5z"/>
    <path d="m965.2 175.1 63.9 9-24.1-60.3zm66.8 11.3-70.3-9.9 43.8-56.5z" opacity=".1773"/>
    <path d="m740.7 458.5 70.3 9.9-26.5-66.4zm43.2-52.7 24.1 60.2-63.9-9z"/>
    <path d="m762.2 334.1 63.9 9-24.1-60.3zm66.8 11.3-70.3-9.9 43.8-56.5z"/>
    <path d="m717.2 391.1 63.9 9-24.1-60.3zm66.8 11.3-70.3-9.9 43.8-56.5z"/>
    <path d="m789.2 401.1 63.9 9-24.1-60.3zm66.8 11.3-70.3-9.9 43.8-56.5z" opacity=".3908"/>
    <path d="m882.7 478.5 70.3 9.9-26.5-66.4zm43.2-52.7 24.1 60.2-63.9-9z"/>
    <path d="m957.2 487.1 63.9 9-24.1-60.3zm66.8 11.3-70.3-9.9 43.8-56.5z" opacity=".2969"/>
    <path d="m833.2 344.1 63.9 9-24.1-60.3zm66.8 11.3-70.3-9.9 43.8-56.5z"/>
    <path d="m931.2 421.1 63.9 9-24.1-60.3zm66.8 11.3-70.3-9.9 43.8-56.5z" opacity=".2969"/>
    <path d="m859.2 411.1 63.9 9-24.1-60.3zm66.8 11.3-70.3-9.9 43.8-56.5z"/>
  </g>
</svg>
