<svg width="1920" height="1080" xmlns="http://www.w3.org/2000/svg" xmlns:svg="http://www.w3.org/2000/svg" opacity="0.25">
 <g>
  <title>Layer 1</title>
  <path id="svg_1" stroke-width="1.51" stroke="#e2e2e2" fill="#e2e2e2" d="m-156,-405l690,4l441,-32l-1131,28z"/>
  <path id="svg_2" stroke-width="1.51" stroke="#aeaeae" fill="#aeaeae" d="m975,-433l513,106l305,-56l-818,-50z"/>
  <path id="svg_3" stroke-width="1.51" stroke="#303030" fill="#303030" d="m1699,1434l-252,22l482,-6l-230,-16z"/>
  <path id="svg_4" stroke-width="1.51" stroke="#a6a6a6" fill="#a6a6a6" d="m975,-433l818,50l242,-40l-1060,-10z"/>
  <path id="svg_5" stroke-width="1.51" stroke="#9b9b9b" fill="#9b9b9b" d="m975,-433l1060,10l223,-21l-1283,11z"/>
  <path id="svg_6" stroke-width="1.51" stroke="#6e6e6e" fill="#6e6e6e" d="m2071,143l118,48l82,-313l-200,265z"/>
  <path id="svg_7" stroke-width="1.51" stroke="#747474" fill="#747474" d="m1999,-41l72,184l200,-265l-272,81z"/>
  <path id="svg_8" stroke-width="1.51" stroke="#7c7c7c" fill="#7c7c7c" d="m2258,-444l-223,21l236,301l-13,-322z"/>
  <path id="svg_9" stroke-width="1.51" stroke="#7d7d7d" fill="#7d7d7d" d="m2035,-423l-36,382l272,-81l-236,-301z"/>
  <path id="svg_10" stroke-width="1.51" stroke="#232323" fill="#232323" d="m2037,1257l126,85l116,-194l-242,109z"/>
  <path id="svg_11" stroke-width="1.51" stroke="#343434" fill="#343434" d="m1950,836l87,421l242,-109l-329,-312z"/>
  <path id="svg_12" stroke-width="1.51" stroke="#3a3a3a" fill="#3a3a3a" d="m1950,836l329,312l1,-318l-330,6z"/>
  <path id="svg_13" stroke-width="1.51" stroke="#626262" fill="#626262" d="m2189,191l-225,163l316,87l-91,-250z"/>
  <path id="svg_14" stroke-width="1.51" stroke="#666666" fill="#666666" d="m2271,-122l-82,313l91,250l-9,-563z"/>
  <path id="svg_15" stroke-width="1.51" stroke="#464646" fill="#464646" d="m1950,836l330,-6l1,-254l-331,260z"/>
  <path id="svg_16" stroke-width="1.51" stroke="#4f4f4f" fill="#4f4f4f" d="m1902,692l48,144l331,-260l-379,116z"/>
  <path id="svg_17" stroke-width="1.51" stroke="#585858" fill="#585858" d="m2280,441l-316,-87l317,222l-1,-135z"/>
  <path id="svg_18" stroke-width="1.51" stroke="#595959" fill="#595959" d="m1964,354l-62,338l379,-116l-317,-222z"/>
  <path id="svg_19" stroke-width="1.51" stroke="#7d7d7d" fill="#7d7d7d" d="m-65,1374l-268,-24l521,72l-253,-48z"/>
  <path id="svg_20" stroke-width="1.51" stroke="#6c6c6c" fill="#6c6c6c" d="m2071,143l-107,211l225,-163l-118,-48z"/>
  <path id="svg_21" stroke-width="1.51" stroke="#3f3f3f" fill="#3f3f3f" d="m1950,836l-188,304l275,117l-87,-421z"/>
  <path id="svg_22" stroke-width="1.51" stroke="#212121" fill="#212121" d="m2037,1257l-108,193l234,-108l-126,-85z"/>
  <path id="svg_23" stroke-width="1.51" stroke="#4b4b4b" fill="#4b4b4b" d="m1728,1011l34,129l188,-304l-222,175z"/>
  <path id="svg_24" stroke-width="1.51" stroke="#8d8d8d" fill="#8d8d8d" d="m1793,-383l-28,269l234,73l-206,-342z"/>
  <path id="svg_25" stroke-width="1.51" stroke="#898989" fill="#898989" d="m1793,-383l206,342l36,-382l-242,40z"/>
  <path id="svg_26" stroke-width="1.51" stroke="#7e7e7e" fill="#7e7e7e" d="m1999,-41l-334,162l406,22l-72,-184z"/>
  <path id="svg_27" stroke-width="1.51" stroke="#787878" fill="#787878" d="m1665,121l299,233l107,-211l-406,-22z"/>
  <path id="svg_28" stroke-width="1.51" stroke="#646464" fill="#646464" d="m1698,621l204,71l62,-338l-266,267z"/>
  <path id="svg_29" stroke-width="1.51" stroke="#2d2d2d" fill="#2d2d2d" d="m1762,1140l167,310l108,-193l-275,-117z"/>
  <path id="svg_30" stroke-width="1.51" stroke="#303030" fill="#303030" d="m1762,1140l-63,294l230,16l-167,-310z"/>
  <path id="svg_31" stroke-width="1.51" stroke="#707070" fill="#707070" d="m1647,436l51,185l266,-267l-317,82z"/>
  <path id="svg_32" stroke-width="1.51" stroke="#898989" fill="#898989" d="m1765,-114l-100,235l334,-162l-234,-73z"/>
  <path id="svg_33" stroke-width="1.51" stroke="#7d7d7d" fill="#7d7d7d" d="m1665,121l-18,315l317,-82l-299,-233z"/>
  <path id="svg_34" stroke-width="1.51" stroke="#515151" fill="#515151" d="m1902,692l-174,319l222,-175l-48,-144z"/>
  <path id="svg_35" stroke-width="1.51" stroke="#5c5c5c" fill="#5c5c5c" d="m1698,621l30,390l174,-319l-204,-71z"/>
  <path id="svg_36" stroke-width="1.51" stroke="#8a8a8a" fill="#8a8a8a" d="m1504,215l143,221l18,-315l-161,94z"/>
  <path id="svg_37" stroke-width="1.51" stroke="#656565" fill="#656565" d="m1698,621l-197,43l227,347l-30,-390z"/>
  <path id="svg_38" stroke-width="1.51" stroke="#5f5f5f" fill="#5f5f5f" d="m1501,664l37,342l190,5l-227,-347z"/>
  <path id="svg_39" stroke-width="1.51" stroke="#414141" fill="#414141" d="m1554,1106l145,328l63,-294l-208,-34z"/>
  <path id="svg_40" stroke-width="1.51" stroke="#9a9a9a" fill="#9a9a9a" d="m1556,-170l209,56l28,-269l-237,213z"/>
  <path id="svg_41" stroke-width="1.51" stroke="#a1a1a1" fill="#a1a1a1" d="m1488,-327l68,157l237,-213l-305,56z"/>
  <path id="svg_42" stroke-width="1.51" stroke="#4d4d4d" fill="#4d4d4d" d="m1728,1011l-174,95l208,34l-34,-129z"/>
  <path id="svg_43" stroke-width="1.51" stroke="#969696" fill="#969696" d="m1556,-170l109,291l100,-235l-209,-56z"/>
  <path id="svg_44" stroke-width="1.51" stroke="#696969" fill="#696969" d="m447,1403l-259,19l541,18l-282,-37z"/>
  <path id="svg_45" stroke-width="1.51" stroke="#3d3d3d" fill="#3d3d3d" d="m1554,1106l-107,350l252,-22l-145,-328z"/>
  <path id="svg_46" stroke-width="1.51" stroke="#555555" fill="#555555" d="m1538,1006l16,100l174,-95l-190,-5z"/>
  <path id="svg_47" stroke-width="1.51" stroke="#7a7a7a" fill="#7a7a7a" d="m1448,490l53,174l146,-228l-199,54z"/>
  <path id="svg_48" stroke-width="1.51" stroke="#737373" fill="#737373" d="m1647,436l-146,228l197,-43l-51,-185z"/>
  <path id="svg_49" stroke-width="1.51" stroke="#b6b6b6" fill="#b6b6b6" d="m975,-433l279,160l234,-54l-513,-106z"/>
  <path id="svg_50" stroke-width="1.51" stroke="#858585" fill="#858585" d="m1504,215l-56,275l199,-54l-143,-221z"/>
  <path id="svg_51" stroke-width="1.51" stroke="#969696" fill="#969696" d="m1556,-170l-52,385l161,-94l-109,-291z"/>
  <path id="svg_52" stroke-width="1.51" stroke="#484848" fill="#484848" d="m1280,1249l167,207l107,-350l-274,143z"/>
  <path id="svg_53" stroke-width="1.51" stroke="#696969" fill="#696969" d="m1501,664l-219,208l256,134l-37,-342z"/>
  <path id="svg_54" stroke-width="1.51" stroke="#aaaaaa" fill="#aaaaaa" d="m1488,-327l-234,54l302,103l-68,-157z"/>
  <path id="svg_55" stroke-width="1.51" stroke="#acacac" fill="#acacac" d="m1254,-273l-119,257l421,-154l-302,-103z"/>
  <path id="svg_56" stroke-width="1.51" stroke="#9e9e9e" fill="#9e9e9e" d="m1188,137l316,78l52,-385l-368,307z"/>
  <path id="svg_57" stroke-width="1.51" stroke="#a7a7a7" fill="#a7a7a7" d="m1135,-16l53,153l368,-307l-421,154z"/>
  <path id="svg_58" stroke-width="1.51" stroke="#555555" fill="#555555" d="m1538,1006l-258,243l274,-143l-16,-100z"/>
  <path id="svg_59" stroke-width="1.51" stroke="#8b8b8b" fill="#8b8b8b" d="m1233,459l215,31l56,-275l-271,244z"/>
  <path id="svg_60" stroke-width="1.51" stroke="#606060" fill="#606060" d="m1282,872l-2,377l258,-243l-256,-134z"/>
  <path id="svg_61" stroke-width="1.51" stroke="#7f7f7f" fill="#7f7f7f" d="m1448,490l-288,86l341,88l-53,-174z"/>
  <path id="svg_62" stroke-width="1.51" stroke="#989898" fill="#989898" d="m1188,137l45,322l271,-244l-316,-78z"/>
  <path id="svg_63" stroke-width="1.51" stroke="#797979" fill="#797979" d="m1160,576l122,296l219,-208l-341,-88z"/>
  <path id="svg_64" stroke-width="1.51" stroke="#454545" fill="#454545" d="m1221,1359l-169,92l395,5l-226,-97z"/>
  <path id="svg_65" stroke-width="1.51" stroke="#464646" fill="#464646" d="m1280,1249l-59,110l226,97l-167,-207z"/>
  <path id="svg_66" stroke-width="1.51" stroke="#888888" fill="#888888" d="m1233,459l-73,117l288,-86l-215,-31z"/>
  <path id="svg_67" stroke-width="1.51" stroke="#858585" fill="#858585" d="m1003,627l25,259l132,-310l-157,51z"/>
  <path id="svg_68" stroke-width="1.51" stroke="#a1a1a1" fill="#a1a1a1" d="m1188,137l-239,87l284,235l-45,-322z"/>
  <path id="svg_69" stroke-width="1.51" stroke="#555555" fill="#555555" d="m884,1243l337,116l59,-110l-396,-6z"/>
  <path id="svg_70" stroke-width="1.51" stroke="#666666" fill="#666666" d="m1028,886l-144,357l396,6l-252,-363z"/>
  <path id="svg_71" stroke-width="1.51" stroke="#6b6b6b" fill="#6b6b6b" d="m1028,886l252,363l2,-377l-254,14z"/>
  <path id="svg_72" stroke-width="1.51" stroke="#7b7b7b" fill="#7b7b7b" d="m1160,576l-132,310l254,-14l-122,-296z"/>
  <path id="svg_73" stroke-width="1.51" stroke="#a0a0a0" fill="#a0a0a0" d="m949,224l-42,188l326,47l-284,-235z"/>
  <path id="svg_74" stroke-width="1.51" stroke="#b6b6b6" fill="#b6b6b6" d="m919,-46l216,30l119,-257l-335,227z"/>
  <path id="svg_75" stroke-width="1.51" stroke="#bebebe" fill="#bebebe" d="m975,-433l-56,387l335,-227l-279,-160z"/>
  <path id="svg_76" stroke-width="1.51" stroke="#535353" fill="#535353" d="m884,1243l168,208l169,-92l-337,-116z"/>
  <path id="svg_77" stroke-width="1.51" stroke="#939393" fill="#939393" d="m907,412l253,164l73,-117l-326,-47z"/>
  <path id="svg_78" stroke-width="1.51" stroke="#939393" fill="#939393" d="m907,412l96,215l157,-51l-253,-164z"/>
  <path id="svg_79" stroke-width="1.51" stroke="#acacac" fill="#acacac" d="m1135,-16l-186,240l239,-87l-53,-153z"/>
  <path id="svg_80" stroke-width="1.51" stroke="#b3b3b3" fill="#b3b3b3" d="m919,-46l30,270l186,-240l-216,-30z"/>
  <path id="svg_81" stroke-width="1.51" stroke="#c5c5c5" fill="#c5c5c5" d="m754,-142l165,96l56,-387l-221,291z"/>
  <path id="svg_82" stroke-width="1.51" stroke="#cccccc" fill="#cccccc" d="m713,-293l41,151l221,-291l-262,140z"/>
  <path id="svg_83" stroke-width="1.51" stroke="#7c7c7c" fill="#7c7c7c" d="m632,888l252,355l144,-357l-396,2z"/>
  <path id="svg_84" stroke-width="1.51" stroke="#8a8a8a" fill="#8a8a8a" d="m1003,627l-247,71l272,188l-25,-259z"/>
  <path id="svg_85" stroke-width="1.51" stroke="#595959" fill="#595959" d="m884,1243l-155,197l323,11l-168,-208z"/>
  <path id="svg_86" stroke-width="1.51" stroke="#8a8a8a" fill="#8a8a8a" d="m756,698l-124,190l396,-2l-272,-188z"/>
  <path id="svg_87" stroke-width="1.51" stroke="#979797" fill="#979797" d="m907,412l-151,286l247,-71l-96,-215z"/>
  <path id="svg_88" stroke-width="1.51" stroke="#797979" fill="#797979" d="m632,888l4,333l248,22l-252,-355z"/>
  <path id="svg_89" stroke-width="1.51" stroke="#a1a1a1" fill="#a1a1a1" d="m689,451l67,247l151,-286l-218,39z"/>
  <path id="svg_90" stroke-width="1.51" stroke="#bbbbbb" fill="#bbbbbb" d="m919,-46l-270,110l300,160l-30,-270z"/>
  <path id="svg_91" stroke-width="1.51" stroke="#d3d3d3" fill="#d3d3d3" d="m534,-401l179,108l262,-140l-441,32z"/>
  <path id="svg_92" stroke-width="1.51" stroke="#a9a9a9" fill="#a9a9a9" d="m689,451l218,-39l42,-188l-260,227z"/>
  <path id="svg_93" stroke-width="1.51" stroke="#b6b6b6" fill="#b6b6b6" d="m649,64l40,387l260,-227l-300,-160z"/>
  <path id="svg_94" stroke-width="1.51" stroke="#c4c4c4" fill="#c4c4c4" d="m754,-142l-105,206l270,-110l-165,-96z"/>
  <path id="svg_95" stroke-width="1.51" stroke="#656565" fill="#656565" d="m636,1221l93,219l155,-197l-248,-22z"/>
  <path id="svg_96" stroke-width="1.51" stroke="#eaeaea" fill="#eaeaea" d="m-156,-405l390,111l300,-107l-690,-4z"/>
  <path id="svg_97" stroke-width="1.51" stroke="#c7c7c7" fill="#c7c7c7" d="m428,71l-27,350l248,-357l-221,7z"/>
  <path id="svg_98" stroke-width="1.51" stroke="#bcbcbc" fill="#bcbcbc" d="m649,64l-248,357l288,30l-40,-387z"/>
  <path id="svg_99" stroke-width="1.51" stroke="#d4d4d4" fill="#d4d4d4" d="m713,-293l-321,178l362,-27l-41,-151z"/>
  <path id="svg_100" stroke-width="1.51" stroke="#cfcfcf" fill="#cfcfcf" d="m392,-115l257,179l105,-206l-362,27z"/>
  <path id="svg_101" stroke-width="1.51" stroke="#a2a2a2" fill="#a2a2a2" d="m689,451l-266,287l333,-40l-67,-247z"/>
  <path id="svg_102" stroke-width="1.51" stroke="#999999" fill="#999999" d="m423,738l209,150l124,-190l-333,40z"/>
  <path id="svg_103" stroke-width="1.51" stroke="#adadad" fill="#adadad" d="m401,421l22,317l266,-287l-288,-30z"/>
  <path id="svg_104" stroke-width="1.51" stroke="#dadada" fill="#dadada" d="m534,-401l-142,286l321,-178l-179,-108z"/>
  <path id="svg_105" stroke-width="1.51" stroke="#686868" fill="#686868" d="m636,1221l-189,182l282,37l-93,-219z"/>
  <path id="svg_106" stroke-width="1.51" stroke="#848484" fill="#848484" d="m632,888l-267,260l271,73l-4,-333z"/>
  <path id="svg_107" stroke-width="1.51" stroke="#909090" fill="#909090" d="m410,867l-45,281l267,-260l-222,-21z"/>
  <path id="svg_108" stroke-width="1.51" stroke="#d0d0d0" fill="#d0d0d0" d="m392,-115l36,186l221,-7l-257,-179z"/>
  <path id="svg_109" stroke-width="1.51" stroke="#999999" fill="#999999" d="m423,738l-13,129l222,21l-209,-150z"/>
  <path id="svg_110" stroke-width="1.51" stroke="#757575" fill="#757575" d="m365,1148l82,255l189,-182l-271,-73z"/>
  <path id="svg_111" stroke-width="1.51" stroke="#adadad" fill="#adadad" d="m401,421l-122,268l144,49l-22,-317z"/>
  <path id="svg_112" stroke-width="1.51" stroke="#cacaca" fill="#cacaca" d="m158,242l243,179l27,-350l-270,171z"/>
  <path id="svg_113" stroke-width="1.51" stroke="#e1e1e1" fill="#e1e1e1" d="m234,-294l158,179l142,-286l-300,107z"/>
  <path id="svg_114" stroke-width="1.51" stroke="#e1e1e1" fill="#e1e1e1" d="m234,-294l21,163l137,16l-158,-179z"/>
  <path id="svg_115" stroke-width="1.51" stroke="#959595" fill="#959595" d="m104,965l261,183l45,-281l-306,98z"/>
  <path id="svg_116" stroke-width="1.51" stroke="#d9d9d9" fill="#d9d9d9" d="m392,-115l-137,-16l173,202l-36,-186z"/>
  <path id="svg_117" stroke-width="1.51" stroke="#757575" fill="#757575" d="m365,1148l-177,274l259,-19l-82,-255z"/>
  <path id="svg_118" stroke-width="1.51" stroke="#b9b9b9" fill="#b9b9b9" d="m163,417l116,272l122,-268l-238,-4z"/>
  <path id="svg_119" stroke-width="1.51" stroke="#c5c5c5" fill="#c5c5c5" d="m158,242l5,175l238,4l-243,-179z"/>
  <path id="svg_120" stroke-width="1.51" stroke="#a2a2a2" fill="#a2a2a2" d="m279,689l131,178l13,-129l-144,-49z"/>
  <path id="svg_121" stroke-width="1.51" stroke="#d6d6d6" fill="#d6d6d6" d="m255,-131l-97,373l270,-171l-173,-202z"/>
  <path id="svg_122" stroke-width="1.51" stroke="#909090" fill="#909090" d="m104,965l47,179l214,4l-261,-183z"/>
  <path id="svg_123" stroke-width="1.51" stroke="#808080" fill="#808080" d="m151,1144l37,278l177,-274l-214,-4z"/>
  <path id="svg_124" stroke-width="1.51" stroke="#a1a1a1" fill="#a1a1a1" d="m279,689l-175,276l306,-98l-131,-178z"/>
  <path id="svg_125" stroke-width="1.51" stroke="#dcdcdc" fill="#dcdcdc" d="m-109,86l267,156l97,-373l-364,217z"/>
  <path id="svg_126" stroke-width="1.51" stroke="#e5e5e5" fill="#e5e5e5" d="m-68,-192l-41,278l364,-217l-323,-61z"/>
  <path id="svg_127" stroke-width="1.51" stroke="#b8b8b8" fill="#b8b8b8" d="m163,417l-179,200l295,72l-116,-272z"/>
  <path id="svg_128" stroke-width="1.51" stroke="#ababab" fill="#ababab" d="m-16,617l120,348l175,-276l-295,-72z"/>
  <path id="svg_129" stroke-width="1.51" stroke="#c1c1c1" fill="#c1c1c1" d="m20,455l-36,162l179,-200l-143,38z"/>
  <path id="svg_130" stroke-width="1.51" stroke="#e7e7e7" fill="#e7e7e7" d="m234,-294l-302,102l323,61l-21,-163z"/>
  <path id="svg_131" stroke-width="1.51" stroke="#7d7d7d" fill="#7d7d7d" d="m151,1144l-216,230l253,48l-37,-278z"/>
  <path id="svg_132" stroke-width="1.51" stroke="#efefef" fill="#efefef" d="m-156,-405l88,213l302,-102l-390,-111z"/>
  <path id="svg_133" stroke-width="1.51" stroke="#c9c9c9" fill="#c9c9c9" d="m158,242l-138,213l143,-38l-5,-175z"/>
  <path id="svg_134" stroke-width="1.51" stroke="#a9a9a9" fill="#a9a9a9" d="m-16,617l-134,365l254,-17l-120,-348z"/>
  <path id="svg_135" stroke-width="1.51" stroke="#868686" fill="#868686" d="m-141,1249l76,125l216,-230l-292,105z"/>
  <path id="svg_136" stroke-width="1.51" stroke="#9b9b9b" fill="#9b9b9b" d="m104,965l-254,17l301,162l-47,-179z"/>
  <path id="svg_137" stroke-width="1.51" stroke="#d1d1d1" fill="#d1d1d1" d="m-229,246l249,209l138,-213l-387,4z"/>
  <path id="svg_138" stroke-width="1.51" stroke="#dadada" fill="#dadada" d="m-109,86l-120,160l387,-4l-267,-156z"/>
  <path id="svg_139" stroke-width="1.51" stroke="#949494" fill="#949494" d="m-150,982l9,267l292,-105l-301,-162z"/>
  <path id="svg_140" stroke-width="1.51" stroke="#aeaeae" fill="#aeaeae" d="m-257,898l107,84l134,-365l-241,281z"/>
  <path id="svg_141" stroke-width="1.51" stroke="#b6b6b6" fill="#b6b6b6" d="m-304,688l47,210l241,-281l-288,71z"/>
  <path id="svg_142" stroke-width="1.51" stroke="#c5c5c5" fill="#c5c5c5" d="m-282,433l266,184l36,-162l-302,-22z"/>
  <path id="svg_143" stroke-width="1.51" stroke="#d0d0d0" fill="#d0d0d0" d="m-229,246l-53,187l302,22l-249,-209z"/>
  <path id="svg_144" stroke-width="1.51" stroke="#eaeaea" fill="#eaeaea" d="m-290,-63l181,149l41,-278l-222,129z"/>
  <path id="svg_145" stroke-width="1.51" stroke="#c1c1c1" fill="#c1c1c1" d="m-282,433l-22,255l288,-71l-266,-184z"/>
  <path id="svg_146" stroke-width="1.51" stroke="#f4f4f4" fill="#f4f4f4" d="m-156,-405l-167,59l255,154l-88,-213z"/>
  <path id="svg_147" stroke-width="1.51" stroke="#838383" fill="#838383" d="m-141,1249l-192,101l268,24l-76,-125z"/>
  <path id="svg_148" stroke-width="1.51" stroke="#f2f2f2" fill="#f2f2f2" d="m-323,-346l33,283l222,-129l-255,-154z"/>
  <path id="svg_149" stroke-width="1.51" stroke="#969696" fill="#969696" d="m-150,982l-256,219l265,48l-9,-267z"/>
  <path id="svg_150" stroke-width="1.51" stroke="#e3e3e3" fill="#e3e3e3" d="m-290,-63l61,309l120,-160l-181,-149z"/>
  <path id="svg_151" stroke-width="1.51" stroke="#a3a3a3" fill="#a3a3a3" d="m-257,898l-149,303l256,-219l-107,-84z"/>
  <path id="svg_152" stroke-width="1.51" stroke="#8b8b8b" fill="#8b8b8b" d="m-406,1201l73,149l192,-101l-265,-48z"/>
  <path id="svg_153" stroke-width="1.51" stroke="#dedede" fill="#dedede" d="m-290,-63l8,496l53,-187l-61,-309z"/>
  <path id="svg_154" stroke-width="1.51" stroke="#aaaaaa" fill="#aaaaaa" d="m-304,688l-102,513l149,-303l-47,-210z"/>
  <path id="svg_155" stroke-width="1.51" stroke="#dddddd" fill="#dddddd" d="m-323,-346l-83,1547l116,-1264l-33,-283z"/>
  <path id="svg_156" stroke-width="1.51" stroke="#c8c8c8" fill="#c8c8c8" d="m-290,-63l-116,1264l124,-768l-8,-496z"/>
  <path id="svg_157" stroke-width="1.51" stroke="#b6b6b6" fill="#b6b6b6" d="m-406,1201l102,-513l22,-255l-124,768z"/>
 </g>
</svg>
