<svg id="Layer_1" data-name="Layer 1" xmlns="http://www.w3.org/2000/svg" viewBox="0 0 501.07 323.12" opacity="0.25"><defs><style>.cls-1{fill:#dcdfdf;}.cls-1,.cls-10,.cls-100,.cls-101,.cls-102,.cls-103,.cls-104,.cls-105,.cls-106,.cls-107,.cls-108,.cls-109,.cls-11,.cls-110,.cls-111,.cls-112,.cls-113,.cls-114,.cls-115,.cls-116,.cls-117,.cls-118,.cls-119,.cls-12,.cls-120,.cls-121,.cls-122,.cls-123,.cls-124,.cls-125,.cls-126,.cls-127,.cls-128,.cls-129,.cls-13,.cls-130,.cls-131,.cls-132,.cls-133,.cls-134,.cls-135,.cls-136,.cls-137,.cls-138,.cls-139,.cls-14,.cls-140,.cls-141,.cls-142,.cls-143,.cls-144,.cls-145,.cls-146,.cls-147,.cls-148,.cls-149,.cls-15,.cls-150,.cls-151,.cls-152,.cls-153,.cls-154,.cls-155,.cls-156,.cls-157,.cls-158,.cls-159,.cls-16,.cls-160,.cls-161,.cls-162,.cls-163,.cls-164,.cls-165,.cls-166,.cls-167,.cls-168,.cls-169,.cls-17,.cls-18,.cls-19,.cls-2,.cls-20,.cls-21,.cls-22,.cls-23,.cls-24,.cls-25,.cls-26,.cls-27,.cls-28,.cls-29,.cls-3,.cls-30,.cls-31,.cls-32,.cls-33,.cls-34,.cls-35,.cls-36,.cls-37,.cls-38,.cls-39,.cls-4,.cls-40,.cls-41,.cls-42,.cls-43,.cls-44,.cls-45,.cls-46,.cls-47,.cls-48,.cls-49,.cls-5,.cls-50,.cls-51,.cls-52,.cls-53,.cls-54,.cls-55,.cls-56,.cls-57,.cls-58,.cls-59,.cls-6,.cls-60,.cls-61,.cls-62,.cls-63,.cls-64,.cls-65,.cls-66,.cls-67,.cls-68,.cls-69,.cls-7,.cls-70,.cls-71,.cls-72,.cls-73,.cls-74,.cls-75,.cls-76,.cls-77,.cls-78,.cls-79,.cls-8,.cls-80,.cls-81,.cls-82,.cls-83,.cls-84,.cls-85,.cls-86,.cls-87,.cls-88,.cls-89,.cls-9,.cls-90,.cls-91,.cls-92,.cls-93,.cls-94,.cls-95,.cls-96,.cls-97,.cls-98,.cls-99{fill-rule:evenodd;}.cls-2{fill:#d0d3d3;}.cls-3{fill:#cfd1d1;}.cls-4{fill:#bdc0c0;}.cls-5{fill:#dadcdc;}.cls-6{fill:#f2f2f2;}.cls-7{fill:#efefef;}.cls-8{fill:#d4d6d7;}.cls-9{fill:#c3c5c6;}.cls-10{fill:#bfc2c2;}.cls-11{fill:#cacdcd;}.cls-12{fill:#d8dada;}.cls-13{fill:#dbdddd;}.cls-14{fill:#cccece;}.cls-15{fill:#c6c8c8;}.cls-16{fill:#cbcece;}.cls-17{fill:#d1d4d4;}.cls-18{fill:#c1c3c3;}.cls-19{fill:#c9cbcb;}.cls-20{fill:#ced0d0;}.cls-21{fill:#e9eaea;}.cls-22{fill:#dcdddd;}.cls-23{fill:#cdd0d0;}.cls-24{fill:#bcbebe;}.cls-25{fill:#bbbebe;}.cls-26{fill:#bcbfbf;}.cls-27{fill:#bdbfc0;}.cls-28{fill:#e9ebeb;}.cls-29{fill:#e8e9e9;}.cls-30{fill:#d3d5d6;}.cls-31{fill:#ced1d2;}.cls-32{fill:#cfd2d2;}.cls-33{fill:#d2d4d4;}.cls-34{fill:#dfe1e1;}.cls-35{fill:#dfe0e0;}.cls-36{fill:#e4e5e5;}.cls-37{fill:#ececec;}.cls-38{fill:#d4d6d6;}.cls-39{fill:#e0e3e3;}.cls-40{fill:#dcdede;}.cls-41{fill:#d4d5d6;}.cls-42{fill:#dfe0e1;}.cls-43{fill:#f3f4f4;}.cls-44{fill:#eaecec;}.cls-45{fill:#e2e4e4;}.cls-46{fill:#cfd1d2;}.cls-47{fill:#c0c1c2;}.cls-48{fill:#cbcccd;}.cls-49{fill:#d7d8d8;}.cls-50{fill:#d0d2d2;}.cls-51{fill:#d2d5d5;}.cls-52{fill:#d7dada;}.cls-53{fill:#dfe2e2;}.cls-54{fill:#dee0e0;}.cls-55{fill:#e3e5e5;}.cls-56{fill:#e6e8e8;}.cls-57{fill:#e4e6e6;}.cls-58{fill:#eaebeb;}.cls-59{fill:#edeeee;}.cls-60{fill:#e0e2e2;}.cls-61{fill:#e5e7e7;}.cls-62{fill:#e7eaea;}.cls-63{fill:#f5f6f6;}.cls-64{fill:#f2f3f3;}.cls-65{fill:#f6f7f7;}.cls-66{fill:#d9dbdb;}.cls-67{fill:#cccecf;}.cls-68{fill:#e2e3e3;}.cls-69{fill:#e1e2e2;}.cls-70{fill:#d5d6d7;}.cls-71{fill:#dadbdc;}.cls-72{fill:#cccfcf;}.cls-73{fill:#dedfdf;}.cls-74{fill:#dddfdf;}.cls-75{fill:#eff0f0;}.cls-76{fill:#eceded;}.cls-77{fill:#f5f5f5;}.cls-78{fill:#f0f0f0;}.cls-79{fill:#ecedee;}.cls-80{fill:#e7e9e9;}.cls-81{fill:#ced1d1;}.cls-82{fill:#c9cccc;}.cls-83{fill:#e4e5e6;}.cls-84{fill:#d8d8d9;}.cls-85{fill:#e4e4e5;}.cls-86{fill:#d5d7d7;}.cls-87{fill:#ced0d1;}.cls-88{fill:#d3d6d6;}.cls-89{fill:#e8eaea;}.cls-90{fill:#efeff0;}.cls-91{fill:#f4f4f4;}.cls-92{fill:#f8f8f8;}.cls-93{fill:#f4f5f5;}.cls-94{fill:#dee1e1;}.cls-95{fill:#e5e6e6;}.cls-96{fill:#e8e9ea;}.cls-97{fill:#ededee;}.cls-98{fill:#eaebec;}.cls-99{fill:#e6e7e7;}.cls-100{fill:#d8dbdb;}.cls-101{fill:#dcddde;}.cls-102{fill:#ecebed;}.cls-103{fill:#e8e7e8;}.cls-104{fill:#ebeaec;}.cls-105{fill:#f7f7f7;}.cls-106{fill:#f5f5f6;}.cls-107{fill:#f3f3f3;}.cls-108{fill:#ebecec;}.cls-109{fill:#ebeded;}.cls-110{fill:#e1e3e3;}.cls-111{fill:#e7e8e9;}.cls-112{fill:#e6e7e8;}.cls-113{fill:#eeefef;}.cls-114{fill:#f9f9f9;}.cls-115{fill:#eee;}.cls-116{fill:#e1e1e2;}.cls-117{fill:#e5e5e5;}.cls-118{fill:#cacccc;}.cls-119{fill:#f2f2f3;}.cls-120{fill:#f0f1f1;}.cls-121{fill:#f1f2f2;}.cls-122{fill:#f6f6f7;}.cls-123{fill:#e4e6e7;}.cls-124{fill:#cbcdcd;}.cls-125{fill:#cacbcc;}.cls-126{fill:#bebfc1;}.cls-127{fill:#c6c8c9;}.cls-128{fill:#cacccd;}.cls-129{fill:#dadddd;}.cls-130{fill:#dbdede;}.cls-131{fill:#e9eaeb;}.cls-132{fill:#dcdedf;}.cls-133{fill:#d4d7d7;}.cls-134{fill:#dbdcdd;}.cls-135{fill:#cfd0d1;}.cls-136{fill:#c7c8c9;}.cls-137{fill:#c8cacb;}.cls-138{fill:#f6f6f6;}.cls-139{fill:#e0e1e1;}.cls-140{fill:#fafafa;}.cls-141{fill:#edeeef;}.cls-142{fill:#f0f0f1;}.cls-143{fill:#d5d8d8;}.cls-144{fill:#d7d9da;}.cls-145{fill:#c6c9c9;}.cls-146{fill:#cdcfcf;}.cls-147{fill:#c7caca;}.cls-148{fill:#c8c9cb;}.cls-149{fill:#cccdcf;}.cls-150{fill:#bec0c1;}.cls-151{fill:#c1c3c4;}.cls-152{fill:#bfc1c2;}.cls-153{fill:#c8cbcb;}.cls-154{fill:#e9e9ea;}.cls-155{fill:#d8d9d9;}.cls-156{fill:#bec1c2;}.cls-157{fill:#c2c5c5;}.cls-158{fill:#c2c5c4;}.cls-159{fill:#c4c7c7;}.cls-160{fill:#c3c6c6;}.cls-161{fill:#c5c8c8;}.cls-162{fill:#cbcdcf;}.cls-163{fill:#d6d7da;}.cls-164{fill:#cfd1d3;}.cls-165{fill:#d6d9d9;}.cls-166{fill:#e3e3e4;}.cls-167{fill:#c5c7c8;}.cls-168{fill:#c1c4c4;}.cls-169{fill:#d1d3d4;}</style></defs><title>Artboard 1</title><polygon class="cls-1" points="0 7.09 11.12 7.09 7.54 0.78 0 0.78 0 7.09 0 7.09"/><polygon class="cls-2" points="14.43 0.78 10.73 7.32 7.03 0.78 14.43 0.78 14.43 0.78"/><polygon class="cls-3" points="13.91 0.78 10.34 7.09 46.24 7.09 42.66 0.78 13.91 0.78 13.91 0.78"/><polygon class="cls-4" points="49.55 0.78 45.85 7.32 42.14 0.78 49.55 0.78 49.55 0.78"/><polygon class="cls-5" points="49.03 0.78 45.46 7.09 81.36 7.09 77.78 0.78 49.03 0.78 49.03 0.78"/><polygon class="cls-6" points="84.67 0.78 80.97 7.32 77.26 0.78 84.67 0.78 84.67 0.78"/><polygon class="cls-7" points="84.15 0.78 80.58 7.09 116.48 7.09 112.9 0.78 84.15 0.78 84.15 0.78"/><polygon class="cls-8" points="119.79 0.78 116.09 7.32 112.38 0.78 119.79 0.78 119.79 0.78"/><polygon class="cls-9" points="119.27 0.78 115.7 7.09 151.6 7.09 148.02 0.78 119.27 0.78 119.27 0.78"/><polygon class="cls-10" points="154.91 0.78 151.21 7.32 147.5 0.78 154.91 0.78 154.91 0.78"/><polygon class="cls-11" points="154.39 0.78 150.82 7.09 186.72 7.09 183.14 0.78 154.39 0.78 154.39 0.78"/><polygon class="cls-12" points="190.03 0.78 186.32 7.32 182.62 0.78 190.03 0.78 190.03 0.78"/><polygon class="cls-13" points="189.51 0.78 185.94 7.09 221.83 7.09 218.26 0.78 189.51 0.78 189.51 0.78"/><polygon class="cls-14" points="225.15 0.78 221.44 7.32 217.74 0.78 225.15 0.78 225.15 0.78"/><polygon class="cls-12" points="224.63 0.78 221.05 7.09 256.95 7.09 253.38 0.78 224.63 0.78 224.63 0.78"/><polygon class="cls-15" points="260.27 0.78 256.56 7.32 252.86 0.78 260.27 0.78 260.27 0.78"/><polygon class="cls-16" points="259.75 0.78 256.17 7.09 292.07 7.09 288.5 0.78 259.75 0.78 259.75 0.78"/><polygon class="cls-2" points="295.39 0.78 291.68 7.32 287.98 0.78 295.39 0.78 295.39 0.78"/><polygon class="cls-17" points="294.87 0.78 291.29 7.09 327.19 7.09 323.62 0.78 294.87 0.78 294.87 0.78"/><polygon class="cls-18" points="330.51 0.78 326.8 7.32 323.1 0.78 330.51 0.78 330.51 0.78"/><polygon class="cls-19" points="329.99 0.78 326.41 7.09 362.31 7.09 358.74 0.78 329.99 0.78 329.99 0.78"/><polygon class="cls-20" points="365.63 0.78 361.92 7.32 358.22 0.78 365.63 0.78 365.63 0.78"/><polygon class="cls-21" points="365.11 0.78 361.53 7.09 397.43 7.09 393.86 0.78 365.11 0.78 365.11 0.78"/><polygon class="cls-22" points="400.74 0.78 397.04 7.32 393.33 0.78 400.74 0.78 400.74 0.78"/><polygon class="cls-23" points="400.22 0.78 396.65 7.09 432.55 7.09 428.98 0.78 400.22 0.78 400.22 0.78"/><polygon class="cls-24" points="435.86 0.78 432.16 7.32 428.45 0.78 435.86 0.78 435.86 0.78"/><polygon class="cls-25" points="435.34 0.78 431.77 7.09 467.67 7.09 464.09 0.78 435.34 0.78 435.34 0.78"/><polygon class="cls-26" points="470.98 0.78 467.28 7.32 463.57 0.78 470.98 0.78 470.98 0.78"/><polygon class="cls-27" points="470.46 0.78 466.89 7.09 501.07 7.09 501.07 4.06 499.21 0.78 470.46 0.78 470.46 0.78"/><polygon class="cls-27" points="501.07 4.98 498.69 0.78 501.07 0.78 501.07 4.98 501.07 4.98"/><polygon class="cls-28" points="0 6.63 11.12 6.63 0 26.25 0 6.63 0 6.63"/><polygon class="cls-29" points="10.73 6.4 0 25.33 0 38.07 28.68 38.07 10.73 6.4 10.73 6.4"/><polygon class="cls-29" points="10.34 6.63 46.24 6.63 28.29 38.3 10.34 6.63 10.34 6.63"/><polygon class="cls-30" points="45.85 6.4 27.9 38.07 63.8 38.07 45.85 6.4 45.85 6.4"/><polygon class="cls-31" points="45.46 6.63 81.36 6.63 63.41 38.3 45.46 6.63 45.46 6.63"/><polygon class="cls-32" points="80.97 6.4 63.02 38.07 98.92 38.07 80.97 6.4 80.97 6.4"/><polygon class="cls-13" points="80.58 6.63 116.48 6.63 98.53 38.3 80.58 6.63 80.58 6.63"/><polygon class="cls-33" points="116.09 6.4 98.14 38.07 134.04 38.07 116.09 6.4 116.09 6.4"/><polygon class="cls-12" points="115.7 6.63 151.6 6.63 133.65 38.3 115.7 6.63 115.7 6.63"/><polygon class="cls-6" points="151.21 6.4 133.26 38.07 169.16 38.07 151.21 6.4 151.21 6.4"/><polygon class="cls-34" points="150.82 6.63 186.72 6.63 168.76 38.3 150.82 6.63 150.82 6.63"/><polygon class="cls-12" points="186.32 6.4 168.38 38.07 204.28 38.07 186.32 6.4 186.32 6.4"/><polygon class="cls-35" points="185.94 6.63 221.83 6.63 203.88 38.3 185.94 6.63 185.94 6.63"/><polygon class="cls-36" points="221.44 6.4 203.49 38.07 239.39 38.07 221.44 6.4 221.44 6.4"/><polygon class="cls-37" points="221.05 6.63 256.95 6.63 239 38.3 221.05 6.63 221.05 6.63"/><polygon class="cls-5" points="256.56 6.4 238.61 38.07 274.51 38.07 256.56 6.4 256.56 6.4"/><polygon class="cls-38" points="256.17 6.63 292.07 6.63 274.12 38.3 256.17 6.63 256.17 6.63"/><polygon class="cls-39" points="291.68 6.4 273.73 38.07 309.63 38.07 291.68 6.4 291.68 6.4"/><polygon class="cls-40" points="291.29 6.63 327.19 6.63 309.24 38.3 291.29 6.63 291.29 6.63"/><polygon class="cls-41" points="326.8 6.4 308.85 38.07 344.75 38.07 326.8 6.4 326.8 6.4"/><polygon class="cls-33" points="326.41 6.63 362.31 6.63 344.36 38.3 326.41 6.63 326.41 6.63"/><polygon class="cls-42" points="361.92 6.4 343.97 38.07 379.87 38.07 361.92 6.4 361.92 6.4"/><polygon class="cls-43" points="361.53 6.63 397.43 6.63 379.48 38.3 361.53 6.63 361.53 6.63"/><polygon class="cls-44" points="397.04 6.4 379.09 38.07 414.99 38.07 397.04 6.4 397.04 6.4"/><polygon class="cls-45" points="396.65 6.63 432.55 6.63 414.6 38.3 396.65 6.63 396.65 6.63"/><polygon class="cls-45" points="432.16 6.4 414.21 38.07 450.11 38.07 432.16 6.4 432.16 6.4"/><polygon class="cls-11" points="431.77 6.63 467.67 6.63 449.72 38.3 431.77 6.63 431.77 6.63"/><polygon class="cls-46" points="467.28 6.4 449.33 38.07 485.23 38.07 467.28 6.4 467.28 6.4"/><polygon class="cls-47" points="466.89 6.63 501.07 6.63 501.07 9.66 484.84 38.3 466.89 6.63 466.89 6.63"/><polygon class="cls-48" points="501.07 8.74 484.45 38.07 501.07 38.07 501.07 8.74 501.07 8.74"/><polygon class="cls-12" points="0 69.06 11.12 69.06 0 49.44 0 69.06 0 69.06"/><polygon class="cls-49" points="0 37.62 28.68 37.62 10.73 69.29 0 50.35 0 37.62 0 37.62"/><polygon class="cls-50" points="28.29 37.38 10.34 69.06 46.24 69.06 28.29 37.38 28.29 37.38"/><polygon class="cls-32" points="27.9 37.62 63.8 37.62 45.85 69.29 27.9 37.62 27.9 37.62"/><polygon class="cls-51" points="63.41 37.38 45.46 69.06 81.36 69.06 63.41 37.38 63.41 37.38"/><polygon class="cls-52" points="63.02 37.62 98.92 37.62 80.97 69.29 63.02 37.62 63.02 37.62"/><polygon class="cls-53" points="98.53 37.38 80.58 69.06 116.48 69.06 98.53 37.38 98.53 37.38"/><polygon class="cls-54" points="98.14 37.62 134.04 37.62 116.09 69.29 98.14 37.62 98.14 37.62"/><polygon class="cls-55" points="133.65 37.38 115.7 69.06 151.6 69.06 133.65 37.38 133.65 37.38"/><polygon class="cls-56" points="133.26 37.62 169.16 37.62 151.21 69.29 133.26 37.62 133.26 37.62"/><polygon class="cls-57" points="168.76 37.38 150.82 69.06 186.72 69.06 168.76 37.38 168.76 37.38"/><polygon class="cls-1" points="168.38 37.62 204.28 37.62 186.32 69.29 168.38 37.62 168.38 37.62"/><polygon class="cls-58" points="203.88 37.38 185.94 69.06 221.83 69.06 203.88 37.38 203.88 37.38"/><polygon class="cls-56" points="203.49 37.62 239.39 37.62 221.44 69.29 203.49 37.62 203.49 37.62"/><polygon class="cls-59" points="239 37.38 221.05 69.06 256.95 69.06 239 37.38 239 37.38"/><polygon class="cls-60" points="238.61 37.62 274.51 37.62 256.56 69.29 238.61 37.62 238.61 37.62"/><polygon class="cls-61" points="274.12 37.38 256.17 69.06 292.07 69.06 274.12 37.38 274.12 37.38"/><polygon class="cls-62" points="273.73 37.62 309.63 37.62 291.68 69.29 273.73 37.62 273.73 37.62"/><polygon class="cls-63" points="309.24 37.38 291.29 69.06 327.19 69.06 309.24 37.38 309.24 37.38"/><polygon class="cls-64" points="308.85 37.62 344.75 37.62 326.8 69.29 308.85 37.62 308.85 37.62"/><polygon class="cls-65" points="344.36 37.38 326.41 69.06 362.31 69.06 344.36 37.38 344.36 37.38"/><polygon class="cls-34" points="343.97 37.62 379.87 37.62 361.92 69.29 343.97 37.62 343.97 37.62"/><polygon class="cls-66" points="379.48 37.38 361.53 69.06 397.43 69.06 379.48 37.38 379.48 37.38"/><polygon class="cls-52" points="379.09 37.62 414.99 37.62 397.04 69.29 379.09 37.62 379.09 37.62"/><polygon class="cls-67" points="414.6 37.38 396.65 69.06 432.55 69.06 414.6 37.38 414.6 37.38"/><polygon class="cls-68" points="414.21 37.62 450.11 37.62 432.16 69.29 414.21 37.62 414.21 37.62"/><polygon class="cls-69" points="449.72 37.38 431.77 69.06 467.67 69.06 449.72 37.38 449.72 37.38"/><polygon class="cls-42" points="449.33 37.62 485.23 37.62 467.28 69.29 449.33 37.62 449.33 37.62"/><polygon class="cls-70" points="484.84 37.38 466.89 69.06 501.07 69.06 501.07 66.03 484.84 37.38 484.84 37.38"/><polygon class="cls-71" points="484.45 37.62 501.07 37.62 501.07 66.95 484.45 37.62 484.45 37.62"/><polygon class="cls-33" points="0 68.6 11.12 68.6 0 88.22 0 68.6 0 68.6"/><polygon class="cls-72" points="10.73 68.37 0 87.3 0 100.04 28.68 100.04 10.73 68.37 10.73 68.37"/><polygon class="cls-2" points="10.34 68.6 46.24 68.6 28.29 100.27 10.34 68.6 10.34 68.6"/><polygon class="cls-60" points="45.85 68.37 27.9 100.04 63.8 100.04 45.85 68.37 45.85 68.37"/><polygon class="cls-73" points="45.46 68.6 81.36 68.6 63.41 100.27 45.46 68.6 45.46 68.6"/><polygon class="cls-61" points="80.97 68.37 63.02 100.04 98.92 100.04 80.97 68.37 80.97 68.37"/><polygon class="cls-74" points="80.58 68.6 116.48 68.6 98.53 100.27 80.58 68.6 80.58 68.6"/><polygon class="cls-21" points="116.09 68.37 98.14 100.04 134.04 100.04 116.09 68.37 116.09 68.37"/><polygon class="cls-21" points="115.7 68.6 151.6 68.6 133.65 100.27 115.7 68.6 115.7 68.6"/><polygon class="cls-75" points="151.21 68.37 133.26 100.04 169.16 100.04 151.21 68.37 151.21 68.37"/><polygon class="cls-59" points="150.82 68.6 186.72 68.6 168.76 100.27 150.82 68.6 150.82 68.6"/><polygon class="cls-56" points="186.32 68.37 168.38 100.04 204.28 100.04 186.32 68.37 186.32 68.37"/><polygon class="cls-59" points="185.94 68.6 221.83 68.6 203.88 100.27 185.94 68.6 185.94 68.6"/><polygon class="cls-76" points="221.44 68.37 203.49 100.04 239.39 100.04 221.44 68.37 221.44 68.37"/><polygon class="cls-77" points="221.05 68.6 256.95 68.6 239 100.27 221.05 68.6 221.05 68.6"/><polygon class="cls-78" points="256.56 68.37 238.61 100.04 274.51 100.04 256.56 68.37 256.56 68.37"/><polygon class="cls-79" points="256.17 68.6 292.07 68.6 274.12 100.27 256.17 68.6 256.17 68.6"/><polygon class="cls-21" points="291.68 68.37 273.73 100.04 309.63 100.04 291.68 68.37 291.68 68.37"/><polygon class="cls-76" points="291.29 68.6 327.19 68.6 309.24 100.27 291.29 68.6 291.29 68.6"/><polygon class="cls-61" points="326.8 68.37 308.85 100.04 344.75 100.04 326.8 68.37 326.8 68.37"/><polygon class="cls-80" points="326.41 68.6 362.31 68.6 344.36 100.27 326.41 68.6 326.41 68.6"/><polygon class="cls-5" points="361.92 68.37 343.97 100.04 379.87 100.04 361.92 68.37 361.92 68.37"/><polygon class="cls-52" points="361.53 68.6 397.43 68.6 379.48 100.27 361.53 68.6 361.53 68.6"/><polygon class="cls-81" points="397.04 68.37 379.09 100.04 414.99 100.04 397.04 68.37 397.04 68.37"/><polygon class="cls-82" points="396.65 68.6 432.55 68.6 414.6 100.27 396.65 68.6 396.65 68.6"/><polygon class="cls-23" points="432.16 68.37 414.21 100.04 450.11 100.04 432.16 68.37 432.16 68.37"/><polygon class="cls-33" points="431.77 68.6 467.67 68.6 449.72 100.27 431.77 68.6 431.77 68.6"/><polygon class="cls-83" points="467.28 68.37 449.33 100.04 485.23 100.04 467.28 68.37 467.28 68.37"/><polygon class="cls-84" points="466.89 68.6 501.07 68.6 501.07 71.63 484.84 100.27 466.89 68.6 466.89 68.6"/><polygon class="cls-85" points="501.07 70.71 484.45 100.04 501.07 100.04 501.07 70.71 501.07 70.71"/><polygon class="cls-86" points="0 131.03 11.12 131.03 0 111.41 0 131.03 0 131.03"/><polygon class="cls-87" points="0 99.58 28.68 99.58 10.73 131.26 0 112.32 0 99.58 0 99.58"/><polygon class="cls-88" points="28.29 99.35 10.34 131.03 46.24 131.03 28.29 99.35 28.29 99.35"/><polygon class="cls-61" points="27.9 99.58 63.8 99.58 45.85 131.26 27.9 99.58 27.9 99.58"/><polygon class="cls-89" points="63.41 99.35 45.46 131.03 81.36 131.03 63.41 99.35 63.41 99.35"/><polygon class="cls-80" points="63.02 99.58 98.92 99.58 80.97 131.26 63.02 99.58 63.02 99.58"/><polygon class="cls-58" points="98.53 99.35 80.58 131.03 116.48 131.03 98.53 99.35 98.53 99.35"/><polygon class="cls-90" points="98.14 99.58 134.04 99.58 116.09 131.26 98.14 99.58 98.14 99.58"/><polygon class="cls-91" points="133.65 99.35 115.7 131.03 151.6 131.03 133.65 99.35 133.65 99.35"/><polygon class="cls-92" points="133.26 99.58 169.16 99.58 151.21 131.26 133.26 99.58 133.26 99.58"/><polygon class="cls-93" points="168.76 99.35 150.82 131.03 186.72 131.03 168.76 99.35 168.76 99.35"/><polygon class="cls-55" points="168.38 99.58 204.28 99.58 186.32 131.26 168.38 99.58 168.38 99.58"/><polygon class="cls-94" points="203.88 99.35 185.94 131.03 221.83 131.03 203.88 99.35 203.88 99.35"/><polygon class="cls-45" points="203.49 99.58 239.39 99.58 221.44 131.26 203.49 99.58 203.49 99.58"/><polygon class="cls-94" points="239 99.35 221.05 131.03 256.95 131.03 239 99.35 239 99.35"/><polygon class="cls-95" points="238.61 99.58 274.51 99.58 256.56 131.26 238.61 99.58 238.61 99.58"/><polygon class="cls-96" points="274.12 99.35 256.17 131.03 292.07 131.03 274.12 99.35 274.12 99.35"/><polygon class="cls-58" points="273.73 99.58 309.63 99.58 291.68 131.26 273.73 99.58 273.73 99.58"/><polygon class="cls-97" points="309.24 99.35 291.29 131.03 327.19 131.03 309.24 99.35 309.24 99.35"/><polygon class="cls-21" points="308.85 99.58 344.75 99.58 326.8 131.26 308.85 99.58 308.85 99.58"/><polygon class="cls-77" points="344.36 99.35 326.41 131.03 362.31 131.03 344.36 99.35 344.36 99.35"/><polygon class="cls-98" points="343.97 99.58 379.87 99.58 361.92 131.26 343.97 99.58 343.97 99.58"/><polygon class="cls-99" points="379.48 99.35 361.53 131.03 397.43 131.03 379.48 99.35 379.48 99.35"/><polygon class="cls-17" points="379.09 99.58 414.99 99.58 397.04 131.26 379.09 99.58 379.09 99.58"/><polygon class="cls-100" points="414.6 99.35 396.65 131.03 432.55 131.03 414.6 99.35 414.6 99.35"/><polygon class="cls-101" points="414.21 99.58 450.11 99.58 432.16 131.26 414.21 99.58 414.21 99.58"/><polygon class="cls-58" points="449.72 99.35 431.77 131.03 467.67 131.03 449.72 99.35 449.72 99.35"/><polygon class="cls-102" points="449.33 99.58 485.23 99.58 467.28 131.26 449.33 99.58 449.33 99.58"/><polygon class="cls-103" points="484.84 99.35 466.89 131.03 501.07 131.03 501.07 128 484.84 99.35 484.84 99.35"/><polygon class="cls-104" points="484.45 99.58 501.07 99.58 501.07 128.92 484.45 99.58 484.45 99.58"/><polygon class="cls-29" points="0 130.57 11.12 130.57 0 150.19 0 130.57 0 130.57"/><polygon class="cls-105" points="10.73 130.34 0 149.27 0 162.01 28.68 162.01 10.73 130.34 10.73 130.34"/><polygon class="cls-99" points="10.34 130.57 46.24 130.57 28.29 162.24 10.34 130.57 10.34 130.57"/><polygon class="cls-7" points="45.85 130.34 27.9 162.01 63.8 162.01 45.85 130.34 45.85 130.34"/><polygon class="cls-58" points="45.46 130.57 81.36 130.57 63.41 162.24 45.46 130.57 45.46 130.57"/><polygon class="cls-106" points="80.97 130.34 63.02 162.01 98.92 162.01 80.97 130.34 80.97 130.34"/><polygon class="cls-107" points="80.58 130.57 116.48 130.57 98.53 162.24 80.58 130.57 80.58 130.57"/><polygon class="cls-108" points="116.09 130.34 98.14 162.01 134.04 162.01 116.09 130.34 116.09 130.34"/><polygon class="cls-29" points="115.7 130.57 151.6 130.57 133.65 162.24 115.7 130.57 115.7 130.57"/><polygon class="cls-21" points="151.21 130.34 133.26 162.01 169.16 162.01 151.21 130.34 151.21 130.34"/><polygon class="cls-109" points="150.82 130.57 186.72 130.57 168.76 162.24 150.82 130.57 150.82 130.57"/><polygon class="cls-110" points="186.32 130.34 168.38 162.01 204.28 162.01 186.32 130.34 186.32 130.34"/><polygon class="cls-55" points="185.94 130.57 221.83 130.57 203.88 162.24 185.94 130.57 185.94 130.57"/><polygon class="cls-95" points="221.44 130.34 203.49 162.01 239.39 162.01 221.44 130.34 221.44 130.34"/><polygon class="cls-45" points="221.05 130.57 256.95 130.57 239 162.24 221.05 130.57 221.05 130.57"/><polygon class="cls-1" points="256.56 130.34 238.61 162.01 274.51 162.01 256.56 130.34 256.56 130.34"/><polygon class="cls-45" points="256.17 130.57 292.07 130.57 274.12 162.24 256.17 130.57 256.17 130.57"/><polygon class="cls-111" points="291.68 130.34 273.73 162.01 309.63 162.01 291.68 130.34 291.68 130.34"/><polygon class="cls-79" points="291.29 130.57 327.19 130.57 309.24 162.24 291.29 130.57 291.29 130.57"/><polygon class="cls-112" points="326.8 130.34 308.85 162.01 344.75 162.01 326.8 130.34 326.8 130.34"/><polygon class="cls-113" points="326.41 130.57 362.31 130.57 344.36 162.24 326.41 130.57 326.41 130.57"/><polygon class="cls-21" points="361.92 130.34 343.97 162.01 379.87 162.01 361.92 130.34 361.92 130.34"/><polygon class="cls-108" points="361.53 130.57 397.43 130.57 379.48 162.24 361.53 130.57 361.53 130.57"/><polygon class="cls-113" points="397.04 130.34 379.09 162.01 414.99 162.01 397.04 130.34 397.04 130.34"/><polygon class="cls-59" points="396.65 130.57 432.55 130.57 414.6 162.24 396.65 130.57 396.65 130.57"/><polygon class="cls-114" points="432.16 130.34 414.21 162.01 450.11 162.01 432.16 130.34 432.16 130.34"/><polygon class="cls-115" points="431.77 130.57 467.67 130.57 449.72 162.24 431.77 130.57 431.77 130.57"/><polygon class="cls-116" points="467.28 130.34 449.33 162.01 485.23 162.01 467.28 130.34 467.28 130.34"/><polygon class="cls-117" points="466.89 130.57 501.07 130.57 501.07 133.59 484.84 162.24 466.89 130.57 466.89 130.57"/><polygon class="cls-22" points="501.07 132.68 484.45 162.01 501.07 162.01 501.07 132.68 501.07 132.68"/><polygon class="cls-118" points="0 193 11.12 193 0 173.38 0 193 0 193"/><polygon class="cls-21" points="0 161.55 28.68 161.55 10.73 193.22 0 174.29 0 161.55 0 161.55"/><polygon class="cls-99" points="28.29 161.32 10.34 193 46.24 193 28.29 161.32 28.29 161.32"/><polygon class="cls-107" points="27.9 161.55 63.8 161.55 45.85 193.22 27.9 161.55 27.9 161.55"/><polygon class="cls-109" points="63.41 161.32 45.46 193 81.36 193 63.41 161.32 63.41 161.32"/><polygon class="cls-119" points="63.02 161.55 98.92 161.55 80.97 193.22 63.02 161.55 63.02 161.55"/><polygon class="cls-120" points="98.53 161.32 80.58 193 116.48 193 98.53 161.32 98.53 161.32"/><polygon class="cls-6" points="98.14 161.55 134.04 161.55 116.09 193.22 98.14 161.55 98.14 161.55"/><polygon class="cls-97" points="133.65 161.32 115.7 193 151.6 193 133.65 161.32 133.65 161.32"/><polygon class="cls-80" points="133.26 161.55 169.16 161.55 151.21 193.22 133.26 161.55 133.26 161.55"/><polygon class="cls-61" points="168.76 161.32 150.82 193 186.72 193 168.76 161.32 168.76 161.32"/><polygon class="cls-55" points="168.38 161.55 204.28 161.55 186.32 193.22 168.38 161.55 168.38 161.55"/><polygon class="cls-36" points="203.88 161.32 185.94 193 221.83 193 203.88 161.32 203.88 161.32"/><polygon class="cls-40" points="203.49 161.55 239.39 161.55 221.44 193.22 203.49 161.55 203.49 161.55"/><polygon class="cls-74" points="239 161.32 221.05 193 256.95 193 239 161.32 239 161.32"/><polygon class="cls-60" points="238.61 161.55 274.51 161.55 256.56 193.22 238.61 161.55 238.61 161.55"/><polygon class="cls-121" points="274.12 161.32 256.17 193 292.07 193 274.12 161.32 274.12 161.32"/><polygon class="cls-120" points="273.73 161.55 309.63 161.55 291.68 193.22 273.73 161.55 273.73 161.55"/><polygon class="cls-122" points="309.24 161.32 291.29 193 327.19 193 309.24 161.32 309.24 161.32"/><polygon class="cls-58" points="308.85 161.55 344.75 161.55 326.8 193.22 308.85 161.55 308.85 161.55"/><polygon class="cls-123" points="344.36 161.32 326.41 193 362.31 193 344.36 161.32 344.36 161.32"/><polygon class="cls-96" points="343.97 161.55 379.87 161.55 361.92 193.22 343.97 161.55 343.97 161.55"/><polygon class="cls-94" points="379.48 161.32 361.53 193 397.43 193 379.48 161.32 379.48 161.32"/><polygon class="cls-45" points="379.09 161.55 414.99 161.55 397.04 193.22 379.09 161.55 379.09 161.55"/><polygon class="cls-40" points="414.6 161.32 396.65 193 432.55 193 414.6 161.32 414.6 161.32"/><polygon class="cls-21" points="414.21 161.55 450.11 161.55 432.16 193.22 414.21 161.55 414.21 161.55"/><polygon class="cls-124" points="449.72 161.32 431.77 193 467.67 193 449.72 161.32 449.72 161.32"/><polygon class="cls-125" points="449.33 161.55 485.23 161.55 467.28 193.22 449.33 161.55 449.33 161.55"/><polygon class="cls-126" points="484.84 161.32 466.89 193 501.07 193 501.07 189.97 484.84 161.32 484.84 161.32"/><polygon class="cls-127" points="484.45 161.55 501.07 161.55 501.07 190.89 484.45 161.55 484.45 161.55"/><polygon class="cls-4" points="0 192.54 11.12 192.54 0 212.16 0 192.54 0 192.54"/><polygon class="cls-128" points="10.73 192.31 0 211.24 0 223.98 28.68 223.98 10.73 192.31 10.73 192.31"/><polygon class="cls-33" points="10.34 192.54 46.24 192.54 28.29 224.21 10.34 192.54 10.34 192.54"/><polygon class="cls-32" points="45.85 192.31 27.9 223.98 63.8 223.98 45.85 192.31 45.85 192.31"/><polygon class="cls-129" points="45.46 192.54 81.36 192.54 63.41 224.21 45.46 192.54 45.46 192.54"/><polygon class="cls-45" points="80.97 192.31 63.02 223.98 98.92 223.98 80.97 192.31 80.97 192.31"/><polygon class="cls-53" points="80.58 192.54 116.48 192.54 98.53 224.21 80.58 192.54 80.58 192.54"/><polygon class="cls-130" points="116.09 192.31 98.14 223.98 134.04 223.98 116.09 192.31 116.09 192.31"/><polygon class="cls-95" points="115.7 192.54 151.6 192.54 133.65 224.21 115.7 192.54 115.7 192.54"/><polygon class="cls-76" points="151.21 192.31 133.26 223.98 169.16 223.98 151.21 192.31 151.21 192.31"/><polygon class="cls-58" points="150.82 192.54 186.72 192.54 168.76 224.21 150.82 192.54 150.82 192.54"/><polygon class="cls-58" points="186.32 192.31 168.38 223.98 204.28 223.98 186.32 192.31 186.32 192.31"/><polygon class="cls-29" points="185.94 192.54 221.83 192.54 203.88 224.21 185.94 192.54 185.94 192.54"/><polygon class="cls-95" points="221.44 192.31 203.49 223.98 239.39 223.98 221.44 192.31 221.44 192.31"/><polygon class="cls-83" points="221.05 192.54 256.95 192.54 239 224.21 221.05 192.54 221.05 192.54"/><polygon class="cls-131" points="256.56 192.31 238.61 223.98 274.51 223.98 256.56 192.31 256.56 192.31"/><polygon class="cls-107" points="256.17 192.54 292.07 192.54 274.12 224.21 256.17 192.54 256.17 192.54"/><polygon class="cls-121" points="291.68 192.31 273.73 223.98 309.63 223.98 291.68 192.31 291.68 192.31"/><polygon class="cls-121" points="291.29 192.54 327.19 192.54 309.24 224.21 291.29 192.54 291.29 192.54"/><polygon class="cls-53" points="326.8 192.31 308.85 223.98 344.75 223.98 326.8 192.31 326.8 192.31"/><polygon class="cls-132" points="326.41 192.54 362.31 192.54 344.36 224.21 326.41 192.54 326.41 192.54"/><polygon class="cls-1" points="361.92 192.31 343.97 223.98 379.87 223.98 361.92 192.31 361.92 192.31"/><polygon class="cls-133" points="361.53 192.54 397.43 192.54 379.48 224.21 361.53 192.54 361.53 192.54"/><polygon class="cls-5" points="397.04 192.31 379.09 223.98 414.99 223.98 397.04 192.31 397.04 192.31"/><polygon class="cls-68" points="396.65 192.54 432.55 192.54 414.6 224.21 396.65 192.54 396.65 192.54"/><polygon class="cls-91" points="432.16 192.31 414.21 223.98 450.11 223.98 432.16 192.31 432.16 192.31"/><polygon class="cls-134" points="431.77 192.54 467.67 192.54 449.72 224.21 431.77 192.54 431.77 192.54"/><polygon class="cls-135" points="467.28 192.31 449.33 223.98 485.23 223.98 467.28 192.31 467.28 192.31"/><polygon class="cls-136" points="466.89 192.54 501.07 192.54 501.07 195.56 484.84 224.21 466.89 192.54 466.89 192.54"/><polygon class="cls-137" points="501.07 194.65 484.45 223.98 501.07 223.98 501.07 194.65 501.07 194.65"/><polygon class="cls-138" points="0 254.97 11.12 254.97 0 235.34 0 254.97 0 254.97"/><polygon class="cls-139" points="0 223.52 28.68 223.52 10.73 255.19 0 236.26 0 223.52 0 223.52"/><polygon class="cls-40" points="28.29 223.29 10.34 254.97 46.24 254.97 28.29 223.29 28.29 223.29"/><polygon class="cls-40" points="27.9 223.52 63.8 223.52 45.85 255.19 27.9 223.52 27.9 223.52"/><polygon class="cls-114" points="63.41 223.29 45.46 254.97 81.36 254.97 63.41 223.29 63.41 223.29"/><polygon class="cls-92" points="63.02 223.52 98.92 223.52 80.97 255.19 63.02 223.52 63.02 223.52"/><polygon class="cls-140" points="98.53 223.29 80.58 254.97 116.48 254.97 98.53 223.29 98.53 223.29"/><polygon class="cls-61" points="98.14 223.52 134.04 223.52 116.09 255.19 98.14 223.52 98.14 223.52"/><polygon class="cls-54" points="133.65 223.29 115.7 254.97 151.6 254.97 133.65 223.29 133.65 223.29"/><polygon class="cls-75" points="133.26 223.52 169.16 223.52 151.21 255.19 133.26 223.52 133.26 223.52"/><polygon class="cls-113" points="168.76 223.29 150.82 254.97 186.72 254.97 168.76 223.29 168.76 223.29"/><polygon class="cls-141" points="168.38 223.52 204.28 223.52 186.32 255.19 168.38 223.52 168.38 223.52"/><polygon class="cls-121" points="203.88 223.29 185.94 254.97 221.83 254.97 203.88 223.29 203.88 223.29"/><polygon class="cls-142" points="203.49 223.52 239.39 223.52 221.44 255.19 203.49 223.52 203.49 223.52"/><polygon class="cls-121" points="239 223.29 221.05 254.97 256.95 254.97 239 223.29 239 223.29"/><polygon class="cls-89" points="238.61 223.52 274.51 223.52 256.56 255.19 238.61 223.52 238.61 223.52"/><polygon class="cls-40" points="274.12 223.29 256.17 254.97 292.07 254.97 274.12 223.29 274.12 223.29"/><polygon class="cls-110" points="273.73 223.52 309.63 223.52 291.68 255.19 273.73 223.52 273.73 223.52"/><polygon class="cls-143" points="309.24 223.29 291.29 254.97 327.19 254.97 309.24 223.29 309.24 223.29"/><polygon class="cls-143" points="308.85 223.52 344.75 223.52 326.8 255.19 308.85 223.52 308.85 223.52"/><polygon class="cls-81" points="344.36 223.29 326.41 254.97 362.31 254.97 344.36 223.29 344.36 223.29"/><polygon class="cls-144" points="343.97 223.52 379.87 223.52 361.92 255.19 343.97 223.52 343.97 223.52"/><polygon class="cls-145" points="379.48 223.29 361.53 254.97 397.43 254.97 379.48 223.29 379.48 223.29"/><polygon class="cls-81" points="379.09 223.52 414.99 223.52 397.04 255.19 379.09 223.52 379.09 223.52"/><polygon class="cls-146" points="414.6 223.29 396.65 254.97 432.55 254.97 414.6 223.29 414.6 223.29"/><polygon class="cls-60" points="414.21 223.52 450.11 223.52 432.16 255.19 414.21 223.52 414.21 223.52"/><polygon class="cls-147" points="449.72 223.29 431.77 254.97 467.67 254.97 449.72 223.29 449.72 223.29"/><polygon class="cls-20" points="449.33 223.52 485.23 223.52 467.28 255.19 449.33 223.52 449.33 223.52"/><polygon class="cls-148" points="484.84 223.29 466.89 254.97 501.07 254.97 501.07 251.94 484.84 223.29 484.84 223.29"/><polygon class="cls-149" points="484.45 223.52 501.07 223.52 501.07 252.85 484.45 223.52 484.45 223.52"/><polygon class="cls-12" points="0 254.5 11.12 254.5 0 274.13 0 254.5 0 254.5"/><polygon class="cls-147" points="10.73 254.28 0 273.21 0 285.95 28.68 285.95 10.73 254.28 10.73 254.28"/><polygon class="cls-23" points="10.34 254.5 46.24 254.5 28.29 286.18 10.34 254.5 10.34 254.5"/><polygon class="cls-38" points="45.85 254.28 27.9 285.95 63.8 285.95 45.85 254.28 45.85 254.28"/><polygon class="cls-113" points="45.46 254.5 81.36 254.5 63.41 286.18 45.46 254.5 45.46 254.5"/><polygon class="cls-77" points="80.97 254.28 63.02 285.95 98.92 285.95 80.97 254.28 80.97 254.28"/><polygon class="cls-78" points="80.58 254.5 116.48 254.5 98.53 286.18 80.58 254.5 80.58 254.5"/><polygon class="cls-33" points="116.09 254.28 98.14 285.95 134.04 285.95 116.09 254.28 116.09 254.28"/><polygon class="cls-81" points="115.7 254.5 151.6 254.5 133.65 286.18 115.7 254.5 115.7 254.5"/><polygon class="cls-3" points="151.21 254.28 133.26 285.95 169.16 285.95 151.21 254.28 151.21 254.28"/><polygon class="cls-1" points="150.82 254.5 186.72 254.5 168.76 286.18 150.82 254.5 150.82 254.5"/><polygon class="cls-3" points="186.32 254.28 168.38 285.95 204.28 285.95 186.32 254.28 186.32 254.28"/><polygon class="cls-68" points="185.94 254.5 221.83 254.5 203.88 286.18 185.94 254.5 185.94 254.5"/><polygon class="cls-5" points="221.44 254.28 203.49 285.95 239.39 285.95 221.44 254.28 221.44 254.28"/><polygon class="cls-108" points="221.05 254.5 256.95 254.5 239 286.18 221.05 254.5 221.05 254.5"/><polygon class="cls-54" points="256.56 254.28 238.61 285.95 274.51 285.95 256.56 254.28 256.56 254.28"/><polygon class="cls-38" points="256.17 254.5 292.07 254.5 274.12 286.18 256.17 254.5 256.17 254.5"/><polygon class="cls-143" points="291.68 254.28 273.73 285.95 309.63 285.95 291.68 254.28 291.68 254.28"/><polygon class="cls-139" points="291.29 254.5 327.19 254.5 309.24 286.18 291.29 254.5 291.29 254.5"/><polygon class="cls-121" points="326.8 254.28 308.85 285.95 344.75 285.95 326.8 254.28 326.8 254.28"/><polygon class="cls-12" points="326.41 254.5 362.31 254.5 344.36 286.18 326.41 254.5 326.41 254.5"/><polygon class="cls-82" points="361.92 254.28 343.97 285.95 379.87 285.95 361.92 254.28 361.92 254.28"/><polygon class="cls-147" points="361.53 254.5 397.43 254.5 379.48 286.18 361.53 254.5 361.53 254.5"/><polygon class="cls-86" points="397.04 254.28 379.09 285.95 414.99 285.95 397.04 254.28 397.04 254.28"/><polygon class="cls-66" points="396.65 254.5 432.55 254.5 414.6 286.18 396.65 254.5 396.65 254.5"/><polygon class="cls-33" points="432.16 254.28 414.21 285.95 450.11 285.95 432.16 254.28 432.16 254.28"/><polygon class="cls-10" points="431.77 254.5 467.67 254.5 449.72 286.18 431.77 254.5 431.77 254.5"/><polygon class="cls-150" points="467.28 254.28 449.33 285.95 485.23 285.95 467.28 254.28 467.28 254.28"/><polygon class="cls-151" points="466.89 254.5 501.07 254.5 501.07 257.53 484.84 286.18 466.89 254.5 466.89 254.5"/><polygon class="cls-152" points="501.07 256.62 484.45 285.95 501.07 285.95 501.07 256.62 501.07 256.62"/><polygon class="cls-153" points="0 316.93 11.12 316.93 0 297.31 0 316.93 0 316.93"/><polygon class="cls-2" points="0 285.49 28.68 285.49 10.73 317.16 0 298.23 0 285.49 0 285.49"/><polygon class="cls-74" points="28.29 285.26 10.34 316.93 46.24 316.93 28.29 285.26 28.29 285.26"/><polygon class="cls-60" points="27.9 285.49 63.8 285.49 45.85 317.16 27.9 285.49 27.9 285.49"/><polygon class="cls-83" points="63.41 285.26 45.46 316.93 81.36 316.93 63.41 285.26 63.41 285.26"/><polygon class="cls-154" points="63.02 285.49 98.92 285.49 80.97 317.16 63.02 285.49 63.02 285.49"/><polygon class="cls-155" points="98.53 285.26 80.58 316.93 116.48 316.93 98.53 285.26 98.53 285.26"/><polygon class="cls-137" points="98.14 285.49 134.04 285.49 116.09 317.16 98.14 285.49 98.14 285.49"/><polygon class="cls-26" points="133.65 285.26 115.7 316.93 151.6 316.93 133.65 285.26 133.65 285.26"/><polygon class="cls-156" points="133.26 285.49 169.16 285.49 151.21 317.16 133.26 285.49 133.26 285.49"/><polygon class="cls-10" points="168.76 285.26 150.82 316.93 186.72 316.93 168.76 285.26 168.76 285.26"/><polygon class="cls-157" points="168.38 285.49 204.28 285.49 186.32 317.16 168.38 285.49 168.38 285.49"/><polygon class="cls-158" points="203.88 285.26 185.94 316.93 221.83 316.93 203.88 285.26 203.88 285.26"/><polygon class="cls-159" points="203.49 285.49 239.39 285.49 221.44 317.16 203.49 285.49 203.49 285.49"/><polygon class="cls-160" points="239 285.26 221.05 316.93 256.95 316.93 239 285.26 239 285.26"/><polygon class="cls-16" points="238.61 285.49 274.51 285.49 256.56 317.16 238.61 285.49 238.61 285.49"/><polygon class="cls-153" points="274.12 285.26 256.17 316.93 292.07 316.93 274.12 285.26 274.12 285.26"/><polygon class="cls-12" points="273.73 285.49 309.63 285.49 291.68 317.16 273.73 285.49 273.73 285.49"/><polygon class="cls-39" points="309.24 285.26 291.29 316.93 327.19 316.93 309.24 285.26 309.24 285.26"/><polygon class="cls-61" points="308.85 285.49 344.75 285.49 326.8 317.16 308.85 285.49 308.85 285.49"/><polygon class="cls-11" points="344.36 285.26 326.41 316.93 362.31 316.93 344.36 285.26 344.36 285.26"/><polygon class="cls-159" points="343.97 285.49 379.87 285.49 361.92 317.16 343.97 285.49 343.97 285.49"/><polygon class="cls-161" points="379.48 285.26 361.53 316.93 397.43 316.93 379.48 285.26 379.48 285.26"/><polygon class="cls-145" points="379.09 285.49 414.99 285.49 397.04 317.16 379.09 285.49 379.09 285.49"/><polygon class="cls-10" points="414.6 285.26 396.65 316.93 432.55 316.93 414.6 285.26 414.6 285.26"/><polygon class="cls-160" points="414.21 285.49 450.11 285.49 432.16 317.16 414.21 285.49 414.21 285.49"/><polygon class="cls-160" points="449.72 285.26 431.77 316.93 467.67 316.93 449.72 285.26 449.72 285.26"/><polygon class="cls-162" points="449.33 285.49 485.23 285.49 467.28 317.16 449.33 285.49 449.33 285.49"/><polygon class="cls-163" points="484.84 285.26 466.89 316.93 501.07 316.93 501.07 313.91 484.84 285.26 484.84 285.26"/><polygon class="cls-164" points="484.45 285.49 501.07 285.49 501.07 314.82 484.45 285.49 484.45 285.49"/><polygon class="cls-153" points="0 316.47 11.12 316.47 7.8 322.33 0 322.33 0 316.47 0 316.47"/><polygon class="cls-165" points="10.73 316.25 7.28 322.33 14.18 322.33 10.73 316.25 10.73 316.25"/><polygon class="cls-74" points="10.34 316.47 46.24 316.47 42.92 322.33 13.66 322.33 10.34 316.47 10.34 316.47"/><polygon class="cls-45" points="45.85 316.25 42.4 322.33 49.3 322.33 45.85 316.25 45.85 316.25"/><polygon class="cls-83" points="45.46 316.47 81.36 316.47 78.04 322.33 48.78 322.33 45.46 316.47 45.46 316.47"/><polygon class="cls-166" points="80.97 316.25 77.52 322.33 84.42 322.33 80.97 316.25 80.97 316.25"/><polygon class="cls-155" points="80.58 316.47 116.48 316.47 113.16 322.33 83.9 322.33 80.58 316.47 80.58 316.47"/><polygon class="cls-167" points="116.09 316.25 112.64 322.33 119.54 322.33 116.09 316.25 116.09 316.25"/><polygon class="cls-26" points="115.7 316.47 151.6 316.47 148.28 322.33 119.02 322.33 115.7 316.47 115.7 316.47"/><polygon class="cls-26" points="151.21 316.25 147.75 322.33 154.66 322.33 151.21 316.25 151.21 316.25"/><polygon class="cls-10" points="150.82 316.47 186.72 316.47 183.39 322.33 154.14 322.33 150.82 316.47 150.82 316.47"/><polygon class="cls-168" points="186.32 316.25 182.87 322.33 189.78 322.33 186.32 316.25 186.32 316.25"/><polygon class="cls-158" points="185.94 316.47 221.83 316.47 218.51 322.33 189.26 322.33 185.94 316.47 185.94 316.47"/><polygon class="cls-157" points="221.44 316.25 217.99 322.33 224.9 322.33 221.44 316.25 221.44 316.25"/><polygon class="cls-160" points="221.05 316.47 256.95 316.47 253.63 322.33 224.38 322.33 221.05 316.47 221.05 316.47"/><polygon class="cls-160" points="256.56 316.25 253.11 322.33 260.01 322.33 256.56 316.25 256.56 316.25"/><polygon class="cls-153" points="256.17 316.47 292.07 316.47 288.75 322.33 259.49 322.33 256.17 316.47 256.17 316.47"/><polygon class="cls-52" points="291.68 316.25 288.23 322.33 295.13 322.33 291.68 316.25 291.68 316.25"/><polygon class="cls-39" points="291.29 316.47 327.19 316.47 323.87 322.33 294.61 322.33 291.29 316.47 291.29 316.47"/><polygon class="cls-1" points="326.8 316.25 323.35 322.33 330.25 322.33 326.8 316.25 326.8 316.25"/><polygon class="cls-11" points="326.41 316.47 362.31 316.47 358.99 322.33 329.73 322.33 326.41 316.47 326.41 316.47"/><polygon class="cls-157" points="361.92 316.25 358.47 322.33 365.37 322.33 361.92 316.25 361.92 316.25"/><polygon class="cls-161" points="361.53 316.47 397.43 316.47 394.11 322.33 364.85 322.33 361.53 316.47 361.53 316.47"/><polygon class="cls-157" points="397.04 316.25 393.59 322.33 400.49 322.33 397.04 316.25 397.04 316.25"/><polygon class="cls-10" points="396.65 316.47 432.55 316.47 429.23 322.33 399.97 322.33 396.65 316.47 396.65 316.47"/><polygon class="cls-4" points="432.16 316.25 428.71 322.33 435.61 322.33 432.16 316.25 432.16 316.25"/><polygon class="cls-160" points="431.77 316.47 467.67 316.47 464.35 322.33 435.09 322.33 431.77 316.47 431.77 316.47"/><polygon class="cls-169" points="467.28 316.25 463.83 322.33 470.73 322.33 467.28 316.25 467.28 316.25"/><polygon class="cls-163" points="466.89 316.47 501.07 316.47 501.07 319.5 499.47 322.33 470.21 322.33 466.89 316.47 466.89 316.47"/><polygon class="cls-163" points="501.07 318.58 498.95 322.33 501.07 322.33 501.07 318.58 501.07 318.58"/></svg>
