<svg xmlns="http://www.w3.org/2000/svg" fill="none" viewBox="0 0 24 24" width="1em" height="1em"><path stroke="currentColor" stroke-linecap="round" stroke-linejoin="round" d="M2.5 4.42c0-.483.421-.92 1-.92h17c.579 0 1 .437 1 .92v12.233c0 .45-.386.847-1 .847H7.485a2.5 2.5 0 0 0-1.982.977l-1.353 1.76a1.12 1.12 0 0 1-1.08.202c-.313-.116-.57-.4-.57-.9z"/><path stroke="currentColor" stroke-linejoin="round" d="M6.097 9.404a.368.368 0 0 1 .034-.702l5.682-1.495a.74.74 0 0 1 .374 0l5.682 1.495a.368.368 0 0 1 .034.702l-5.648 2.081a.74.74 0 0 1-.51 0z"/><path stroke="currentColor" stroke-linecap="round" d="M17.445 9.26v2.474"/><path stroke="currentColor" stroke-linecap="round" stroke-linejoin="round" d="M9.052 10.842v2.947c0 .407.33.737.737.737h4.421c.407 0 .737-.33.737-.737v-2.947"/></svg>
