<svg xmlns="http://www.w3.org/2000/svg" fill="none" viewBox="0 0 32 32" width="1em" height="1em"><path stroke="currentColor" stroke-linecap="round" stroke-linejoin="round" d="M2.5 4.5c0-1.08.838-1.923 1.833-1.923h23.334c.994 0 1.833.843 1.833 1.923v18.887c0 1.08-.838 1.924-1.833 1.924h-17.23A2.5 2.5 0 0 0 8.711 26l-3.147 2.996c-1.15 1.095-3.065.285-3.065-1.424V4.5Z"/><path stroke="currentColor" stroke-linejoin="round" d="M7.158 12.34c-.338-.1-.338-.58 0-.68l8.643-2.53a.707.707 0 0 1 .398 0l8.643 2.53c.338.1.338.58 0 .68l-8.643 2.53a.708.708 0 0 1-.398 0l-8.643-2.53Z"/><path stroke="currentColor" stroke-linecap="round" d="M23.677 12.707v3.536"/><path stroke="currentColor" stroke-linecap="round" stroke-linejoin="round" d="M10.95 15.536v2.828c0 .39.317.707.707.707h8.485c.39 0 .707-.317.707-.707v-2.829"/></svg>
