<svg viewBox="0 0 24 24" fill="none" xmlns="http://www.w3.org/2000/svg" width="1em" height="1em"><path d="M8.46154 5.5H4.5C3.39543 5.5 2.5 6.39543 2.5 7.5V16.5C2.5 17.6046 3.39543 18.5 4.5 18.5H17.5C18.6046 18.5 19.5 17.6046 19.5 16.5V16.5" stroke="currentColor" stroke-linecap="round"/><path d="M11 18.5L11 21.5" stroke="currentColor"/><path d="M5.5 21.5H16.5" stroke="currentColor" stroke-linecap="round"/><path d="M21.5 9.78572V7.55556C21.5 4.76345 19.077 2.5 16 2.5C12.923 2.5 10.5 4.76345 10.5 7.55556V9.78572" stroke="currentColor"/><path d="M20.7143 11.5V12.5C20.7143 13.0523 20.2666 13.5 19.7143 13.5H17.5" stroke="currentColor" stroke-linecap="round"/><circle cx="16.5" cy="13.5" r="1" stroke="currentColor"/><path d="M10.5 9.21436C10.5 8.38593 11.1716 7.71436 12 7.71436C12.2761 7.71436 12.5 7.93821 12.5 8.21436V10.9286C12.5 11.2048 12.2761 11.4286 12 11.4286C11.1716 11.4286 10.5 10.7571 10.5 9.92864V9.21436Z" stroke="currentColor"/><path d="M21.5 9.21436C21.5 8.38593 20.8284 7.71436 20 7.71436C19.7239 7.71436 19.5 7.93821 19.5 8.21436V10.9286C19.5 11.2048 19.7239 11.4286 20 11.4286C20.8284 11.4286 21.5 10.7571 21.5 9.92864V9.21436Z" stroke="currentColor"/></svg>
