<svg viewBox="0 0 26 29" fill="none" xmlns="http://www.w3.org/2000/svg" width="1em" height="1em"><path d="M12.5 10.5L6.5 10.5C5.39543 10.5 4.5 11.3954 4.5 12.5L4.5 20.5C4.5 21.6046 5.39543 22.5 6.5 22.5L21.5 22.5C22.6046 22.5 23.5 21.6046 23.5 20.5V17.5" stroke="currentColor" stroke-linecap="round"/><path d="M14 22.5L14 25.5" stroke="currentColor"/><path d="M8.5 25.5H19.5" stroke="currentColor" stroke-linecap="round"/><path d="M21.5 9.78572V7.55556C21.5 4.76345 19.077 2.5 16 2.5C12.923 2.5 10.5 4.76345 10.5 7.55556L10.5 9.78572" stroke="currentColor"/><path d="M20.7143 11.5V12.5C20.7143 13.0523 20.2666 13.5 19.7143 13.5H17.5" stroke="currentColor" stroke-linecap="round"/><circle cx="16.5" cy="13.5" r="1" stroke="currentColor"/><path d="M10.5 9.21436C10.5 8.38593 11.1716 7.71436 12 7.71436C12.2761 7.71436 12.5 7.93821 12.5 8.21436V10.9286C12.5 11.2048 12.2761 11.4286 12 11.4286C11.1716 11.4286 10.5 10.7571 10.5 9.92864V9.21436Z" stroke="currentColor"/><path d="M21.5 9.21436C21.5 8.38593 20.8284 7.71436 20 7.71436C19.7239 7.71436 19.5 7.93821 19.5 8.21436V10.9286C19.5 11.2048 19.7239 11.4286 20 11.4286C20.8284 11.4286 21.5 10.7571 21.5 9.92864V9.21436Z" stroke="currentColor"/></svg>
