<svg viewBox="0 0 16 16" fill="none" xmlns="http://www.w3.org/2000/svg" width="1em" height="1em"><path d="M6.34606 2.49996L2.49996 2.49996C1.94768 2.49996 1.49998 2.94767 1.49998 3.49995L1.49998 9.49986C1.49998 10.0521 1.94769 10.4998 2.49996 10.4998L13.4998 10.4998C14.0521 10.4998 14.4998 10.0521 14.4998 9.49986V9.49986" stroke="currentColor" stroke-linecap="round"/><path d="M7.99988 10.4998V13.4998" stroke="currentColor"/><path d="M3.99994 13.4998L11.9998 13.4998" stroke="currentColor" stroke-linecap="round"/><path d="M7.49989 6.44132V4.79429C7.49989 2.97503 9.06686 1.50022 10.9998 1.50022C12.9328 1.50022 14.4998 2.97503 14.4998 4.79429V7.50013C14.4998 8.05241 14.0521 8.50011 13.4998 8.50011H11.4373" stroke="currentColor"/><rect x="7.49989" y="5.50017" width="0.999969" height="1.99995" rx="0.5" stroke="currentColor"/><rect x="13.4998" y="5.50017" width="0.999969" height="1.99995" rx="0.5" stroke="currentColor"/><circle cx="10.9998" cy="8.50011" r="0.499992" stroke="currentColor"/></svg>
