<svg xmlns="http://www.w3.org/2000/svg" fill="none" viewBox="0 0 32 32" width="1em" height="1em"><path stroke="currentColor" stroke-linecap="round" d="M13.923 6.5H4.5a2 2 0 0 0-2 2V21a2 2 0 0 0 2 2h23a2 2 0 0 0 2-2v-3.5"/><path stroke="currentColor" d="M16 22.5v5"/><path stroke="currentColor" stroke-linecap="round" d="M8.5 27.5h15"/><path stroke="currentColor" d="M29.5 11.5V8.898C29.5 5.64 26.59 3 23 3s-6.5 2.64-6.5 5.898V11.5"/><path stroke="currentColor" stroke-linecap="round" d="M28.5 13.5V15a1 1 0 0 1-1 1h-3"/><circle cx="23.5" cy="16" r="1" stroke="currentColor"/><path stroke="currentColor" d="M16.5 11.166C16.5 9.97 17.47 9 18.667 9c.46 0 .833.373.833.833v2.833c0 .46-.373.834-.833.834a2.167 2.167 0 0 1-2.167-2.167v-.167Zm13 0C29.5 9.97 28.53 9 27.333 9a.833.833 0 0 0-.833.833v2.833c0 .46.373.834.833.834 1.197 0 2.167-.97 2.167-2.167v-.167Z"/></svg>
