<svg viewBox="0 0 32 32" fill="none" xmlns="http://www.w3.org/2000/svg" width="1em" height="1em"><path d="M15.9231 8.5L4.5 8.5C3.39543 8.5 2.5 9.39543 2.5 10.5L2.5 23C2.5 24.1046 3.39543 25 4.5 25L27.5 25C28.6046 25 29.5 24.1046 29.5 23L29.5 18.5" stroke="currentColor" stroke-linecap="round"/><path d="M16 24.5L16 29.5" stroke="currentColor"/><path d="M8.5 29.5L23.5 29.5" stroke="currentColor" stroke-linecap="round"/><path d="M29.5 15V12.3981C29.5 9.14069 26.5899 6.5 23 6.5C19.4101 6.5 16.5 9.14069 16.5 12.3981V15" stroke="currentColor"/><path d="M28.5 17V18.5C28.5 19.0523 28.0523 19.5 27.5 19.5H24.5" stroke="currentColor" stroke-linecap="round"/><circle cx="23.5" cy="19.5" r="1" stroke="currentColor"/><path d="M16.5 14.6667C16.5 13.47 17.47 12.5 18.6667 12.5C19.1269 12.5 19.5 12.8731 19.5 13.3333V16.1667C19.5 16.6269 19.1269 17 18.6667 17C17.47 17 16.5 16.03 16.5 14.8333V14.6667Z" stroke="currentColor"/><path d="M29.5 14.6667C29.5 13.47 28.53 12.5 27.3333 12.5C26.8731 12.5 26.5 12.8731 26.5 13.3333V16.1667C26.5 16.6269 26.8731 17 27.3333 17C28.53 17 29.5 16.03 29.5 14.8333V14.6667Z" stroke="currentColor"/></svg>
