<svg viewBox="0 0 17 18" fill="none" xmlns="http://www.w3.org/2000/svg" width="1em" height="1em"><path d="M7.34615 4.5L3.5 4.5C2.94771 4.5 2.5 4.94772 2.5 5.5L2.5 11.5C2.5 12.0523 2.94772 12.5 3.5 12.5L14.5 12.5C15.0523 12.5 15.5 12.0523 15.5 11.5V11.5" stroke="currentColor" stroke-linecap="round"/><path d="M9 12.5V15.5" stroke="currentColor"/><path d="M5 15.5L13 15.5" stroke="currentColor" stroke-linecap="round"/><path d="M7.5 6.44118V4.79412C7.5 2.97483 9.067 1.5 11 1.5C12.933 1.5 14.5 2.97483 14.5 4.79412V7.5C14.5 8.05228 14.0523 8.5 13.5 8.5H11.4375" stroke="currentColor"/><rect x="7.5" y="5.5" width="1" height="2" rx="0.5" stroke="currentColor"/><rect x="13.5" y="5.5" width="1" height="2" rx="0.5" stroke="currentColor"/><circle cx="11" cy="8.5" r="0.5" stroke="currentColor"/></svg>
