<svg xmlns="http://www.w3.org/2000/svg" fill="none" viewBox="0 0 32 32" width="1em" height="1em"><path stroke="currentColor" stroke-linecap="round" d="M15.923 6.5H4.5a2 2 0 0 0-2 2V21a2 2 0 0 0 2 2h23a2 2 0 0 0 2-2v-4.5"/><path stroke="currentColor" d="M16 22.5v5"/><path stroke="currentColor" stroke-linecap="round" d="M8.5 27.5h15"/><path stroke="currentColor" d="M29.5 13v-2.602C29.5 7.141 26.59 4.5 23 4.5s-6.5 2.64-6.5 5.898V13"/><path stroke="currentColor" stroke-linecap="round" d="M28.5 15v1.5a1 1 0 0 1-1 1h-3"/><circle cx="23.5" cy="17.5" r="1" stroke="currentColor"/><path stroke="currentColor" d="M16.5 12.667c0-1.197.97-2.167 2.167-2.167.46 0 .833.373.833.833v2.834c0 .46-.373.833-.833.833a2.167 2.167 0 0 1-2.167-2.167v-.166Zm13 0c0-1.197-.97-2.167-2.167-2.167a.833.833 0 0 0-.833.833v2.834c0 .46.373.833.833.833 1.197 0 2.167-.97 2.167-2.167v-.166Z"/></svg>
