<svg xmlns="http://www.w3.org/2000/svg" fill="none" viewBox="0 0 24 24" width="1em" height="1em"><path stroke="currentColor" d="M21.5 9.786v-2.23C21.5 4.764 19.077 2.5 16 2.5s-5.5 2.264-5.5 5.056v2.23"/><path stroke="currentColor" stroke-linecap="round" d="M20.714 11.5v1a1 1 0 0 1-1 1H17.5"/><circle cx="16.5" cy="13.5" r="1" stroke="currentColor"/><path stroke="currentColor" d="M10.5 9.215a1.5 1.5 0 0 1 1.5-1.5.5.5 0 0 1 .5.5v2.714a.5.5 0 0 1-.5.5 1.5 1.5 0 0 1-1.5-1.5v-.714Zm11 0a1.5 1.5 0 0 0-1.5-1.5.5.5 0 0 0-.5.5v2.714a.5.5 0 0 0 .5.5 1.5 1.5 0 0 0 1.5-1.5v-.714Z"/><path stroke="currentColor" stroke-linecap="round" d="M8.5 5.5h-4a2 2 0 0 0-2 2v8a2 2 0 0 0 2 2h15a2 2 0 0 0 2-2v-1"/><path stroke="currentColor" d="M12 17.5v3"/><path stroke="currentColor" stroke-linecap="round" d="M6.5 20.5h11"/></svg>
