<svg viewBox="0 0 32 32" fill="none" xmlns="http://www.w3.org/2000/svg" width="1em" height="1em"><path d="M15.9231 6.5L4.5 6.5C3.39543 6.5 2.5 7.39543 2.5 8.5L2.5 21C2.5 22.1046 3.39543 23 4.5 23L27.5 23C28.6046 23 29.5 22.1046 29.5 21L29.5 16.5" stroke="currentColor" stroke-linecap="round"/><path d="M16 22.5L16 27.5" stroke="currentColor"/><path d="M8.5 27.5L23.5 27.5" stroke="currentColor" stroke-linecap="round"/><path d="M29.5 13V10.3981C29.5 7.14069 26.5899 4.5 23 4.5C19.4101 4.5 16.5 7.14069 16.5 10.3981V13" stroke="currentColor"/><path d="M28.5 15V16.5C28.5 17.0523 28.0523 17.5 27.5 17.5H24.5" stroke="currentColor" stroke-linecap="round"/><circle cx="23.5" cy="17.5" r="1" stroke="currentColor"/><path d="M16.5 12.6667C16.5 11.47 17.47 10.5 18.6667 10.5C19.1269 10.5 19.5 10.8731 19.5 11.3333V14.1667C19.5 14.6269 19.1269 15 18.6667 15C17.47 15 16.5 14.03 16.5 12.8333V12.6667Z" stroke="currentColor"/><path d="M29.5 12.6667C29.5 11.47 28.53 10.5 27.3333 10.5C26.8731 10.5 26.5 10.8731 26.5 11.3333V14.1667C26.5 14.6269 26.8731 15 27.3333 15C28.53 15 29.5 14.03 29.5 12.8333V12.6667Z" stroke="currentColor"/></svg>
