<svg xmlns="http://www.w3.org/2000/svg" fill="none" viewBox="0 0 16 16" width="1em" height="1em"><path stroke="currentColor" stroke-linecap="round" d="M6.346 2.5H2.5a1 1 0 0 0-1 1v6a1 1 0 0 0 1 1h11a1 1 0 0 0 1-1v0"/><path stroke="currentColor" d="M8 10.5v3"/><path stroke="currentColor" stroke-linecap="round" d="M4 13.5h8"/><path stroke="currentColor" d="M7.5 6.441V4.794C7.5 2.975 9.067 1.5 11 1.5s3.5 1.475 3.5 3.294V7.5a1 1 0 0 1-1 1h-2.063"/><rect width="1" height="2" x="7.5" y="5.5" stroke="currentColor" rx=".5"/><rect width="1" height="2" x="13.5" y="5.5" stroke="currentColor" rx=".5"/><circle cx="11" cy="8.5" r=".5" stroke="currentColor"/></svg>
