<svg viewBox="0 0 16 16" fill="none" xmlns="http://www.w3.org/2000/svg" stroke="currentColor" width="1em" height="1em"><path d="M6.34615 2.5H3.5C2.39543 2.5 1.5 3.39543 1.5 4.5V9.5C1.5 10.6046 2.39543 11.5 3.5 11.5H13C13.8284 11.5 14.5 10.8284 14.5 10V10" stroke-linecap="round"/><line x1="8.46155" y1="12" x2="8.46155" y2="14"/><path d="M4.5 14.5H12.5" stroke-linecap="round"/><path d="M7.5 6.44118V4.79412C7.5 2.97483 9.067 1.5 11 1.5C12.933 1.5 14.5 2.97483 14.5 4.79412V7.5C14.5 8.05228 14.0523 8.5 13.5 8.5H11.4375"/><rect x="7.5" y="5.5" width="1" height="2" rx="0.5"/><rect x="13.5" y="5.5" width="1" height="2" rx="0.5"/><circle cx="11" cy="8.5" r="0.5"/></svg>
