<svg xmlns="http://www.w3.org/2000/svg" fill="none" viewBox="0 0 32 32" width="1em" height="1em"><path stroke="currentColor" stroke-linecap="round" d="M8.5 26.5v-4a6 6 0 0 1 6-6h1m-6-8h6m-6-4h6m-3 22v-4a2 2 0 0 1 2-2h1m2-4h1a2 2 0 0 0 2-2v-4a2 2 0 0 0-2-2h-1m0 12h1a6 6 0 0 0 6-6v-4a6 6 0 0 0-6-6h-1M7.5 27a.5.5 0 0 1 .5-.5h5a.5.5 0 0 1 .5.5v1a.5.5 0 0 1-.5.5H8a.5.5 0 0 1-.5-.5v-1Zm8-11a.5.5 0 0 1 .5-.5h1a.5.5 0 0 1 .5.5v5a.5.5 0 0 1-.5.5h-1a.5.5 0 0 1-.5-.5v-5Zm0-12a.5.5 0 0 1 .5-.5h1a.5.5 0 0 1 .5.5v5a.5.5 0 0 1-.5.5h-1a.5.5 0 0 1-.5-.5V4ZM9 3.5a.5.5 0 0 1 .5.5v5a.5.5 0 0 1-.5.5H8a.5.5 0 0 1-.5-.5V4a.5.5 0 0 1 .5-.5h1Z"/></svg>
