<svg xmlns="http://www.w3.org/2000/svg" fill="none" viewBox="0 0 24 24" width="1em" height="1em"><path stroke="currentColor" stroke-linecap="round" d="M6.5 19.5v-3a4 4 0 0 1 4-4h1M8 6.5h3.5M8 3.5h3.5m-2 16v-3a1 1 0 0 1 1-1h1m2-3h2a1 1 0 0 0 1-1v-4a1 1 0 0 0-1-1h-2m0 9h2a4 4 0 0 0 4-4v-4a4 4 0 0 0-4-4h-2M5.5 20a.5.5 0 0 1 .5-.5h4a.5.5 0 0 1 .5.5v1a.5.5 0 0 1-.5.5H6a.5.5 0 0 1-.5-.5v-1Zm6-8a.5.5 0 0 1 .5-.5h1a.5.5 0 0 1 .5.5v4a.5.5 0 0 1-.5.5h-1a.5.5 0 0 1-.5-.5v-4Zm0-9a.5.5 0 0 1 .5-.5h1a.5.5 0 0 1 .5.5v4a.5.5 0 0 1-.5.5h-1a.5.5 0 0 1-.5-.5V3ZM7 2.5a.5.5 0 0 1 .5.5v4a.5.5 0 0 1-.5.5H6a.5.5 0 0 1-.5-.5V3a.5.5 0 0 1 .5-.5h1Z"/></svg>
