<svg viewBox="0 0 18 18" fill="none" xmlns="http://www.w3.org/2000/svg" stroke="currentColor"><mask id="path-1-inside-1_2_59746" fill="white"><path d="M5.00001 16H13C14.1046 16 15 15.1046 15 14V11.7938V4C15 2.89543 14.1046 2 13 2H5C3.89543 2 3 2.89543 3 4L3.00001 14C3.00001 15.1046 3.89544 16 5.00001 16Z"/></mask><path d="M3.00001 14L4.00001 14L3.00001 14ZM3 4H2V4L3 4ZM13 15H5.00001V17H13V15ZM4.00001 14L4 4L2 4L2.00001 14L4.00001 14ZM5 3H13V1H5V3ZM14 11.7938V14H16V11.7938H14ZM14 4V11.7938H16V4H14ZM13 3C13.5523 3 14 3.44772 14 4H16C16 2.34315 14.6569 1 13 1V3ZM5.00001 15C4.44773 15 4.00001 14.5523 4.00001 14L2.00001 14C2.00001 15.6569 3.34315 17 5.00001 17V15ZM13 17C14.6569 17 16 15.6569 16 14H14C14 14.5523 13.5523 15 13 15V17ZM4 4C4 3.44772 4.44772 3 5 3V1C3.34315 1 2 2.34315 2 4H4Z" fill="#282829" mask="url(#path-1-inside-1_2_59746)"/><path d="M6.5 8.5H11.5M6.5 5.5H11.5M6.50001 11.5C8.0621 11.5 7.93794 11.5 9.50003 11.5" stroke-linecap="round"/></svg>