<svg viewBox="0 0 26 26" fill="none" xmlns="http://www.w3.org/2000/svg" stroke="currentColor"><path d="M18.875 8.03846C19.1511 8.03846 19.375 7.8146 19.375 7.53846C19.375 7.26232 19.1511 7.03846 18.875 7.03846V8.03846ZM18.9142 6.91421L18.5607 7.26777L18.9142 6.91421ZM16.0858 4.08579L16.4393 3.73223L16.0858 4.08579ZM17.5 22H6.5V23H17.5V22ZM5 20.5V5.5H4V20.5H5ZM6.5 4H14.6716V3H6.5V4ZM19 8.32843V20.5H20V8.32843H19ZM15 3.90385V6.53846H16V3.90385H15ZM16.5 8.03846H18.875V7.03846H16.5V8.03846ZM15.7322 4.43934L18.5607 7.26777L19.2678 6.56066L16.4393 3.73223L15.7322 4.43934ZM15 6.53846C15 7.36689 15.6716 8.03846 16.5 8.03846V7.03846C16.2239 7.03846 16 6.8146 16 6.53846H15ZM20 8.32843C20 7.66539 19.7366 7.0295 19.2678 6.56066L18.5607 7.26777C18.842 7.54907 19 7.9306 19 8.32843H20ZM14.6716 4C15.0694 4 15.4509 4.15804 15.7322 4.43934L16.4393 3.73223C15.9705 3.26339 15.3346 3 14.6716 3V4ZM6.5 22C5.67157 22 5 21.3284 5 20.5H4C4 21.8807 5.11929 23 6.5 23V22ZM17.5 23C18.8807 23 20 21.8807 20 20.5H19C19 21.3284 18.3284 22 17.5 22V23ZM5 5.5C5 4.67157 5.67157 4 6.5 4V3C5.11929 3 4 4.11929 4 5.5H5Z" fill="#282829"/><line x1="7.5" y1="9.5" x2="15.5" y2="9.5" stroke-linecap="round"/><line x1="7.5" y1="13.5" x2="15.5" y2="13.5" stroke-linecap="round"/><path d="M7.5 17.5L13.5 17.5" stroke-linecap="round"/></svg>
