<svg viewBox="0 0 34 34" fill="none" xmlns="http://www.w3.org/2000/svg" stroke="currentColor"><path d="M26 10C26.2761 10 26.5 9.77614 26.5 9.5C26.5 9.22386 26.2761 9 26 9V10ZM22.0858 5.08579L21.7322 5.43934L22.0858 5.08579ZM24.5 29H9.5V30H24.5V29ZM8 27.5V6.5H7V27.5H8ZM9.5 5H20.6716V4H9.5V5ZM26 10.3284V27.5H27V10.3284H26ZM21 4.98077V7.5H22V4.98077H21ZM23.5 10H26V9H23.5V10ZM21.7322 5.43934L25.5607 9.26777L26.2678 8.56066L22.4393 4.73223L21.7322 5.43934ZM21 7.5C21 8.88071 22.1193 10 23.5 10V9C22.6716 9 22 8.32843 22 7.5H21ZM27 10.3284C27 9.66539 26.7366 9.0295 26.2678 8.56066L25.5607 9.26777C25.842 9.54907 26 9.9306 26 10.3284H27ZM20.6716 5C21.0694 5 21.4509 5.15804 21.7322 5.43934L22.4393 4.73223C21.9705 4.26339 21.3346 4 20.6716 4V5ZM9.5 29C8.67157 29 8 28.3284 8 27.5H7C7 28.8807 8.11929 30 9.5 30V29ZM24.5 30C25.8807 30 27 28.8807 27 27.5H26C26 28.3284 25.3284 29 24.5 29V30ZM8 6.5C8 5.67157 8.67157 5 9.5 5V4C8.11929 4 7 5.11929 7 6.5H8Z" fill="#282829"/><line x1="10.5" y1="11.5" x2="18.5" y2="11.5" stroke-linecap="round"/><path d="M10.5 15.5H23.5" stroke-linecap="round"/><path d="M10.5 19.5H23.5" stroke-linecap="round"/><path d="M10.5 24H23.5" stroke-linecap="round"/></svg>
