<svg viewBox="0 0 16 16" fill="none" xmlns="http://www.w3.org/2000/svg" stroke="currentColor"><circle cx="8" cy="8" r="6.5"/><path d="M5 7.5C4.72386 7.5 4.5 7.72386 4.5 8C4.5 8.27614 4.72386 8.5 5 8.5V7.5ZM11 8.5C11.2761 8.5 11.5 8.27614 11.5 8C11.5 7.72386 11.2761 7.5 11 7.5V8.5ZM5 8.5C5.00641 8.5 5.0128 8.5 5.01918 8.5C5.02556 8.5 5.03192 8.5 5.03827 8.5C5.04462 8.5 5.05095 8.5 5.05727 8.5C5.06359 8.5 5.06989 8.5 5.07618 8.5C5.08248 8.5 5.08875 8.5 5.09501 8.5C5.10128 8.5 5.10752 8.5 5.11376 8.5C5.11999 8.5 5.12621 8.5 5.13241 8.5C5.13862 8.5 5.14481 8.5 5.15098 8.5C5.15716 8.5 5.16332 8.5 5.16947 8.5C5.17562 8.5 5.18175 8.5 5.18787 8.5C5.19399 8.5 5.2001 8.5 5.20619 8.5C5.21228 8.5 5.21836 8.5 5.22442 8.5C5.23049 8.5 5.23654 8.5 5.24257 8.5C5.24861 8.5 5.25463 8.5 5.26064 8.5C5.26664 8.5 5.27264 8.5 5.27862 8.5C5.2846 8.5 5.29057 8.5 5.29652 8.5C5.30247 8.5 5.30841 8.5 5.31434 8.5C5.32026 8.5 5.32617 8.5 5.33207 8.5C5.33797 8.5 5.34385 8.5 5.34972 8.5C5.3556 8.5 5.36145 8.5 5.3673 8.5C5.37314 8.5 5.37897 8.5 5.38479 8.5C5.3906 8.5 5.39641 8.5 5.4022 8.5C5.40799 8.5 5.41376 8.5 5.41953 8.5C5.42529 8.5 5.43104 8.5 5.43678 8.5C5.44251 8.5 5.44824 8.5 5.45395 8.5C5.45966 8.5 5.46535 8.5 5.47104 8.5C5.47672 8.5 5.48239 8.5 5.48805 8.5C5.49371 8.5 5.49935 8.5 5.50498 8.5C5.51062 8.5 5.51623 8.5 5.52184 8.5C5.52744 8.5 5.53304 8.5 5.53862 8.5C5.5442 8.5 5.54976 8.5 5.55532 8.5C5.56087 8.5 5.56641 8.5 5.57194 8.5C5.57746 8.5 5.58298 8.5 5.58848 8.5C5.59398 8.5 5.59947 8.5 5.60495 8.5C5.61043 8.5 5.61589 8.5 5.62134 8.5C5.62679 8.5 5.63223 8.5 5.63766 8.5C5.64309 8.5 5.6485 8.5 5.6539 8.5C5.6593 8.5 5.66469 8.5 5.67007 8.5C5.67544 8.5 5.68081 8.5 5.68616 8.5C5.69151 8.5 5.69685 8.5 5.70217 8.5C5.7075 8.5 5.71281 8.5 5.71812 8.5C5.72342 8.5 5.72871 8.5 5.73398 8.5C5.73926 8.5 5.74453 8.5 5.74978 8.5C5.75503 8.5 5.76027 8.5 5.7655 8.5C5.77073 8.5 5.77594 8.5 5.78115 8.5C5.78635 8.5 5.79155 8.5 5.79673 8.5C5.80191 8.5 5.80707 8.5 5.81223 8.5C5.81739 8.5 5.82253 8.5 5.82766 8.5C5.83279 8.5 5.83791 8.5 5.84302 8.5C5.84813 8.5 5.85323 8.5 5.85831 8.5C5.8634 8.5 5.86847 8.5 5.87353 8.5C5.87859 8.5 5.88364 8.5 5.88868 8.5C5.89372 8.5 5.89874 8.5 5.90376 8.5C5.90877 8.5 5.91378 8.5 5.91877 8.5C5.92376 8.5 5.92874 8.5 5.93371 8.5C5.93868 8.5 5.94363 8.5 5.94858 8.5C5.95352 8.5 5.95846 8.5 5.96338 8.5C5.9683 8.5 5.97321 8.5 5.97811 8.5C5.98301 8.5 5.9879 8.5 5.99278 8.5C5.99766 8.5 6.00252 8.5 6.00738 8.5C6.01223 8.5 6.01708 8.5 6.02191 8.5C6.02674 8.5 6.03156 8.5 6.03637 8.5C6.04118 8.5 6.04598 8.5 6.05077 8.5C6.05556 8.5 6.06033 8.5 6.0651 8.5C6.06987 8.5 6.07462 8.5 6.07936 8.5C6.08411 8.5 6.08884 8.5 6.09356 8.5C6.09829 8.5 6.103 8.5 6.1077 8.5C6.1124 8.5 6.11709 8.5 6.12177 8.5C6.12645 8.5 6.13111 8.5 6.13577 8.5C6.14043 8.5 6.14507 8.5 6.14971 8.5C6.15435 8.5 6.15897 8.5 6.16359 8.5C6.1682 8.5 6.17281 8.5 6.1774 8.5C6.18199 8.5 6.18658 8.5 6.19115 8.5C6.19572 8.5 6.20028 8.5 6.20484 8.5C6.20939 8.5 6.21393 8.5 6.21846 8.5C6.22299 8.5 6.22751 8.5 6.23202 8.5C6.23653 8.5 6.24103 8.5 6.24552 8.5C6.25001 8.5 6.25449 8.5 6.25896 8.5C6.26343 8.5 6.26789 8.5 6.27234 8.5C6.27679 8.5 6.28123 8.5 6.28566 8.5C6.29009 8.5 6.2945 8.5 6.29891 8.5C6.30332 8.5 6.30772 8.5 6.31211 8.5C6.3165 8.5 6.32088 8.5 6.32525 8.5C6.32962 8.5 6.33397 8.5 6.33832 8.5C6.34267 8.5 6.34701 8.5 6.35134 8.5C6.35567 8.5 6.35999 8.5 6.3643 8.5C6.36861 8.5 6.37291 8.5 6.3772 8.5C6.38149 8.5 6.38577 8.5 6.39004 8.5C6.39432 8.5 6.39858 8.5 6.40283 8.5C6.40708 8.5 6.41132 8.5 6.41556 8.5C6.41979 8.5 6.42401 8.5 6.42823 8.5C6.43244 8.5 6.43665 8.5 6.44084 8.5C6.44504 8.5 6.44922 8.5 6.4534 8.5C6.45758 8.5 6.46175 8.5 6.4659 8.5C6.47006 8.5 6.47421 8.5 6.47835 8.5C6.48249 8.5 6.48662 8.5 6.49074 8.5C6.49486 8.5 6.49897 8.5 6.50308 8.5C6.50718 8.5 6.51127 8.5 6.51536 8.5C6.51944 8.5 6.52352 8.5 6.52759 8.5C6.53165 8.5 6.53571 8.5 6.53976 8.5C6.54381 8.5 6.54785 8.5 6.55188 8.5C6.55591 8.5 6.55993 8.5 6.56394 8.5C6.56796 8.5 6.57196 8.5 6.57596 8.5C6.57995 8.5 6.58394 8.5 6.58792 8.5C6.5919 8.5 6.59587 8.5 6.59983 8.5C6.60379 8.5 6.60774 8.5 6.61169 8.5C6.61563 8.5 6.61956 8.5 6.62349 8.5C6.62742 8.5 6.63134 8.5 6.63524 8.5C6.63915 8.5 6.64306 8.5 6.64695 8.5C6.65084 8.5 6.65473 8.5 6.6586 8.5C6.66248 8.5 6.66634 8.5 6.6702 8.5C6.67406 8.5 6.67791 8.5 6.68176 8.5C6.6856 8.5 6.68943 8.5 6.69326 8.5C6.69709 8.5 6.70091 8.5 6.70472 8.5C6.70853 8.5 6.71233 8.5 6.71612 8.5C6.71991 8.5 6.7237 8.5 6.72748 8.5C6.73126 8.5 6.73503 8.5 6.73879 8.5C6.74255 8.5 6.7463 8.5 6.75005 8.5C6.75379 8.5 6.75753 8.5 6.76126 8.5C6.76499 8.5 6.76872 8.5 6.77243 8.5C6.77614 8.5 6.77985 8.5 6.78355 8.5C6.78725 8.5 6.79094 8.5 6.79462 8.5C6.79831 8.5 6.80198 8.5 6.80565 8.5C6.80932 8.5 6.81298 8.5 6.81663 8.5C6.82029 8.5 6.82393 8.5 6.82757 8.5C6.83121 8.5 6.83484 8.5 6.83846 8.5C6.84209 8.5 6.8457 8.5 6.84931 8.5C6.85292 8.5 6.85652 8.5 6.86011 8.5C6.86371 8.5 6.86729 8.5 6.87087 8.5C6.87445 8.5 6.87802 8.5 6.88159 8.5C6.88515 8.5 6.88871 8.5 6.89226 8.5C6.89581 8.5 6.89935 8.5 6.90289 8.5C6.90643 8.5 6.90995 8.5 6.91348 8.5C6.917 8.5 6.92051 8.5 6.92402 8.5C6.92753 8.5 6.93103 8.5 6.93452 8.5C6.93802 8.5 6.9415 8.5 6.94498 8.5C6.94846 8.5 6.95194 8.5 6.9554 8.5C6.95887 8.5 6.96233 8.5 6.96578 8.5C6.96924 8.5 6.97268 8.5 6.97612 8.5C6.97956 8.5 6.98299 8.5 6.98642 8.5C6.98985 8.5 6.99326 8.5 6.99668 8.5C7.00009 8.5 7.0035 8.5 7.0069 8.5C7.0103 8.5 7.01369 8.5 7.01708 8.5C7.02046 8.5 7.02384 8.5 7.02722 8.5C7.03059 8.5 7.03396 8.5 7.03732 8.5C7.04068 8.5 7.04403 8.5 7.04738 8.5C7.05073 8.5 7.05407 8.5 7.05741 8.5C7.06075 8.5 7.06408 8.5 7.0674 8.5C7.07072 8.5 7.07404 8.5 7.07735 8.5C7.08066 8.5 7.08397 8.5 7.08727 8.5C7.09056 8.5 7.09386 8.5 7.09714 8.5C7.10043 8.5 7.10371 8.5 7.10699 8.5C7.11026 8.5 7.11353 8.5 7.11679 8.5C7.12006 8.5 7.12331 8.5 7.12657 8.5C7.12982 8.5 7.13306 8.5 7.1363 8.5C7.13954 8.5 7.14278 8.5 7.146 8.5C7.14923 8.5 7.15246 8.5 7.15567 8.5C7.15889 8.5 7.1621 8.5 7.16531 8.5C7.16851 8.5 7.17171 8.5 7.17491 8.5C7.1781 8.5 7.18129 8.5 7.18447 8.5C7.18766 8.5 7.19083 8.5 7.19401 8.5C7.19718 8.5 7.20035 8.5 7.20351 8.5C7.20667 8.5 7.20983 8.5 7.21298 8.5C7.21613 8.5 7.21927 8.5 7.22241 8.5C7.22555 8.5 7.22869 8.5 7.23182 8.5C7.23495 8.5 7.23807 8.5 7.24119 8.5C7.24431 8.5 7.24743 8.5 7.25054 8.5C7.25364 8.5 7.25675 8.5 7.25985 8.5C7.26295 8.5 7.26604 8.5 7.26913 8.5C7.27222 8.5 7.2753 8.5 7.27838 8.5C7.28146 8.5 7.28454 8.5 7.28761 8.5C7.29067 8.5 7.29374 8.5 7.2968 8.5C7.29986 8.5 7.30291 8.5 7.30596 8.5C7.30901 8.5 7.31206 8.5 7.3151 8.5C7.31814 8.5 7.32118 8.5 7.32421 8.5C7.32724 8.5 7.33027 8.5 7.33329 8.5C7.33631 8.5 7.33933 8.5 7.34234 8.5C7.34535 8.5 7.34836 8.5 7.35137 8.5C7.35437 8.5 7.35737 8.5 7.36037 8.5C7.36336 8.5 7.36635 8.5 7.36934 8.5C7.37233 8.5 7.37531 8.5 7.37829 8.5C7.38126 8.5 7.38424 8.5 7.38721 8.5C7.39018 8.5 7.39314 8.5 7.3961 8.5C7.39906 8.5 7.40202 8.5 7.40497 8.5C7.40792 8.5 7.41087 8.5 7.41382 8.5C7.41676 8.5 7.4197 8.5 7.42264 8.5C7.42557 8.5 7.42851 8.5 7.43143 8.5C7.43436 8.5 7.43729 8.5 7.44021 8.5C7.44313 8.5 7.44605 8.5 7.44896 8.5C7.45187 8.5 7.45478 8.5 7.45768 8.5C7.46059 8.5 7.46349 8.5 7.46639 8.5C7.46929 8.5 7.47218 8.5 7.47507 8.5C7.47796 8.5 7.48085 8.5 7.48373 8.5C7.48661 8.5 7.48949 8.5 7.49237 8.5C7.49525 8.5 7.49812 8.5 7.50099 8.5C7.50386 8.5 7.50672 8.5 7.50958 8.5C7.51244 8.5 7.5153 8.5 7.51816 8.5C7.52101 8.5 7.52386 8.5 7.52671 8.5C7.52956 8.5 7.53241 8.5 7.53525 8.5C7.53809 8.5 7.54093 8.5 7.54376 8.5C7.5466 8.5 7.54943 8.5 7.55226 8.5C7.55509 8.5 7.55792 8.5 7.56074 8.5C7.56356 8.5 7.56638 8.5 7.5692 8.5C7.57201 8.5 7.57483 8.5 7.57764 8.5C7.58045 8.5 7.58326 8.5 7.58606 8.5C7.58887 8.5 7.59167 8.5 7.59447 8.5C7.59727 8.5 7.60006 8.5 7.60286 8.5C7.60565 8.5 7.60844 8.5 7.61123 8.5C7.61401 8.5 7.6168 8.5 7.61958 8.5C7.62236 8.5 7.62514 8.5 7.62792 8.5C7.6307 8.5 7.63347 8.5 7.63624 8.5C7.63902 8.5 7.64178 8.5 7.64455 8.5C7.64732 8.5 7.65008 8.5 7.65284 8.5C7.65561 8.5 7.65836 8.5 7.66112 8.5C7.66388 8.5 7.66663 8.5 7.66938 8.5C7.67214 8.5 7.67489 8.5 7.67763 8.5C7.68038 8.5 7.68313 8.5 7.68587 8.5C7.68861 8.5 7.69135 8.5 7.69409 8.5C7.69683 8.5 7.69957 8.5 7.7023 8.5C7.70503 8.5 7.70777 8.5 7.7105 8.5C7.71323 8.5 7.71596 8.5 7.71868 8.5C7.72141 8.5 7.72413 8.5 7.72685 8.5C7.72958 8.5 7.7323 8.5 7.73501 8.5C7.73773 8.5 7.74045 8.5 7.74316 8.5C7.74588 8.5 7.74859 8.5 7.7513 8.5C7.75401 8.5 7.75672 8.5 7.75943 8.5C7.76214 8.5 7.76484 8.5 7.76754 8.5C7.77025 8.5 7.77295 8.5 7.77565 8.5C7.77835 8.5 7.78105 8.5 7.78375 8.5C7.78645 8.5 7.78914 8.5 7.79184 8.5C7.79453 8.5 7.79722 8.5 7.79992 8.5C7.80261 8.5 7.8053 8.5 7.80799 8.5C7.81068 8.5 7.81336 8.5 7.81605 8.5C7.81874 8.5 7.82142 8.5 7.8241 8.5C7.82679 8.5 7.82947 8.5 7.83215 8.5C7.83483 8.5 7.83751 8.5 7.84019 8.5C7.84287 8.5 7.84555 8.5 7.84822 8.5C7.8509 8.5 7.85358 8.5 7.85625 8.5C7.85892 8.5 7.8616 8.5 7.86427 8.5C7.86694 8.5 7.86961 8.5 7.87228 8.5C7.87496 8.5 7.87762 8.5 7.88029 8.5C7.88296 8.5 7.88563 8.5 7.8883 8.5C7.89096 8.5 7.89363 8.5 7.8963 8.5C7.89896 8.5 7.90163 8.5 7.90429 8.5C7.90695 8.5 7.90962 8.5 7.91228 8.5C7.91494 8.5 7.91761 8.5 7.92027 8.5C7.92293 8.5 7.92559 8.5 7.92825 8.5C7.93091 8.5 7.93357 8.5 7.93623 8.5C7.93889 8.5 7.94155 8.5 7.94421 8.5C7.94687 8.5 7.94952 8.5 7.95218 8.5C7.95484 8.5 7.9575 8.5 7.96016 8.5C7.96281 8.5 7.96547 8.5 7.96813 8.5C7.97078 8.5 7.97344 8.5 7.9761 8.5C7.97875 8.5 7.98141 8.5 7.98406 8.5C7.98672 8.5 7.98938 8.5 7.99203 8.5C7.99469 8.5 7.99734 8.5 8 8.5C8.00266 8.5 8.00531 8.5 8.00797 8.5C8.01062 8.5 8.01328 8.5 8.01594 8.5C8.01859 8.5 8.02125 8.5 8.0239 8.5C8.02656 8.5 8.02922 8.5 8.03187 8.5C8.03453 8.5 8.03719 8.5 8.03984 8.5C8.0425 8.5 8.04516 8.5 8.04782 8.5C8.05048 8.5 8.05313 8.5 8.05579 8.5C8.05845 8.5 8.06111 8.5 8.06377 8.5C8.06643 8.5 8.06909 8.5 8.07175 8.5C8.07441 8.5 8.07707 8.5 8.07973 8.5C8.08239 8.5 8.08506 8.5 8.08772 8.5C8.09038 8.5 8.09305 8.5 8.09571 8.5C8.09837 8.5 8.10104 8.5 8.1037 8.5C8.10637 8.5 8.10904 8.5 8.1117 8.5C8.11437 8.5 8.11704 8.5 8.11971 8.5C8.12238 8.5 8.12505 8.5 8.12772 8.5C8.13039 8.5 8.13306 8.5 8.13573 8.5C8.1384 8.5 8.14108 8.5 8.14375 8.5C8.14642 8.5 8.1491 8.5 8.15178 8.5C8.15445 8.5 8.15713 8.5 8.15981 8.5C8.16249 8.5 8.16517 8.5 8.16785 8.5C8.17053 8.5 8.17321 8.5 8.1759 8.5C8.17858 8.5 8.18126 8.5 8.18395 8.5C8.18664 8.5 8.18932 8.5 8.19201 8.5C8.1947 8.5 8.19739 8.5 8.20008 8.5C8.20278 8.5 8.20547 8.5 8.20816 8.5C8.21086 8.5 8.21355 8.5 8.21625 8.5C8.21895 8.5 8.22165 8.5 8.22435 8.5C8.22705 8.5 8.22975 8.5 8.23246 8.5C8.23516 8.5 8.23787 8.5 8.24057 8.5C8.24328 8.5 8.24599 8.5 8.2487 8.5C8.25141 8.5 8.25412 8.5 8.25684 8.5C8.25955 8.5 8.26227 8.5 8.26499 8.5C8.2677 8.5 8.27043 8.5 8.27315 8.5C8.27587 8.5 8.27859 8.5 8.28132 8.5C8.28404 8.5 8.28677 8.5 8.2895 8.5C8.29223 8.5 8.29497 8.5 8.2977 8.5C8.30043 8.5 8.30317 8.5 8.30591 8.5C8.30865 8.5 8.31139 8.5 8.31413 8.5C8.31687 8.5 8.31962 8.5 8.32237 8.5C8.32511 8.5 8.32786 8.5 8.33062 8.5C8.33337 8.5 8.33612 8.5 8.33888 8.5C8.34164 8.5 8.34439 8.5 8.34716 8.5C8.34992 8.5 8.35268 8.5 8.35545 8.5C8.35822 8.5 8.36098 8.5 8.36376 8.5C8.36653 8.5 8.3693 8.5 8.37208 8.5C8.37486 8.5 8.37764 8.5 8.38042 8.5C8.3832 8.5 8.38599 8.5 8.38877 8.5C8.39156 8.5 8.39435 8.5 8.39715 8.5C8.39994 8.5 8.40273 8.5 8.40553 8.5C8.40833 8.5 8.41113 8.5 8.41394 8.5C8.41674 8.5 8.41955 8.5 8.42236 8.5C8.42517 8.5 8.42799 8.5 8.4308 8.5C8.43362 8.5 8.43644 8.5 8.43926 8.5C8.44208 8.5 8.44491 8.5 8.44774 8.5C8.45057 8.5 8.4534 8.5 8.45624 8.5C8.45907 8.5 8.46191 8.5 8.46475 8.5C8.46759 8.5 8.47044 8.5 8.47329 8.5C8.47614 8.5 8.47899 8.5 8.48184 8.5C8.4847 8.5 8.48756 8.5 8.49042 8.5C8.49328 8.5 8.49615 8.5 8.49901 8.5C8.50188 8.5 8.50476 8.5 8.50763 8.5C8.51051 8.5 8.51339 8.5 8.51627 8.5C8.51915 8.5 8.52204 8.5 8.52493 8.5C8.52782 8.5 8.53071 8.5 8.53361 8.5C8.53651 8.5 8.53941 8.5 8.54232 8.5C8.54522 8.5 8.54813 8.5 8.55104 8.5C8.55396 8.5 8.55687 8.5 8.55979 8.5C8.56271 8.5 8.56564 8.5 8.56857 8.5C8.57149 8.5 8.57443 8.5 8.57736 8.5C8.5803 8.5 8.58324 8.5 8.58618 8.5C8.58913 8.5 8.59208 8.5 8.59503 8.5C8.59798 8.5 8.60094 8.5 8.6039 8.5C8.60686 8.5 8.60983 8.5 8.61279 8.5C8.61576 8.5 8.61874 8.5 8.62172 8.5C8.62469 8.5 8.62768 8.5 8.63066 8.5C8.63365 8.5 8.63664 8.5 8.63963 8.5C8.64263 8.5 8.64563 8.5 8.64863 8.5C8.65164 8.5 8.65465 8.5 8.65766 8.5C8.66067 8.5 8.66369 8.5 8.66671 8.5C8.66973 8.5 8.67276 8.5 8.67579 8.5C8.67882 8.5 8.68186 8.5 8.6849 8.5C8.68794 8.5 8.69099 8.5 8.69404 8.5C8.69709 8.5 8.70014 8.5 8.7032 8.5C8.70626 8.5 8.70933 8.5 8.71239 8.5C8.71546 8.5 8.71854 8.5 8.72162 8.5C8.7247 8.5 8.72778 8.5 8.73087 8.5C8.73396 8.5 8.73705 8.5 8.74015 8.5C8.74325 8.5 8.74636 8.5 8.74946 8.5C8.75257 8.5 8.75569 8.5 8.75881 8.5C8.76193 8.5 8.76505 8.5 8.76818 8.5C8.77131 8.5 8.77445 8.5 8.77759 8.5C8.78073 8.5 8.78387 8.5 8.78702 8.5C8.79017 8.5 8.79333 8.5 8.79649 8.5C8.79965 8.5 8.80282 8.5 8.80599 8.5C8.80917 8.5 8.81234 8.5 8.81553 8.5C8.81871 8.5 8.8219 8.5 8.82509 8.5C8.82829 8.5 8.83149 8.5 8.83469 8.5C8.8379 8.5 8.84111 8.5 8.84433 8.5C8.84754 8.5 8.85077 8.5 8.854 8.5C8.85722 8.5 8.86046 8.5 8.8637 8.5C8.86694 8.5 8.87018 8.5 8.87343 8.5C8.87669 8.5 8.87994 8.5 8.88321 8.5C8.88647 8.5 8.88974 8.5 8.89301 8.5C8.89629 8.5 8.89957 8.5 8.90286 8.5C8.90614 8.5 8.90944 8.5 8.91273 8.5C8.91603 8.5 8.91934 8.5 8.92265 8.5C8.92596 8.5 8.92928 8.5 8.9326 8.5C8.93592 8.5 8.93925 8.5 8.94259 8.5C8.94593 8.5 8.94927 8.5 8.95262 8.5C8.95597 8.5 8.95932 8.5 8.96268 8.5C8.96604 8.5 8.96941 8.5 8.97278 8.5C8.97616 8.5 8.97954 8.5 8.98292 8.5C8.98631 8.5 8.9897 8.5 8.9931 8.5C8.9965 8.5 8.99991 8.5 9.00332 8.5C9.00674 8.5 9.01016 8.5 9.01358 8.5C9.01701 8.5 9.02044 8.5 9.02388 8.5C9.02732 8.5 9.03077 8.5 9.03422 8.5C9.03767 8.5 9.04113 8.5 9.0446 8.5C9.04806 8.5 9.05154 8.5 9.05502 8.5C9.0585 8.5 9.06198 8.5 9.06548 8.5C9.06897 8.5 9.07247 8.5 9.07598 8.5C9.07949 8.5 9.083 8.5 9.08652 8.5C9.09005 8.5 9.09358 8.5 9.09711 8.5C9.10065 8.5 9.10419 8.5 9.10774 8.5C9.11129 8.5 9.11485 8.5 9.11841 8.5C9.12198 8.5 9.12555 8.5 9.12913 8.5C9.13271 8.5 9.13629 8.5 9.13989 8.5C9.14348 8.5 9.14708 8.5 9.15069 8.5C9.1543 8.5 9.15791 8.5 9.16154 8.5C9.16516 8.5 9.16879 8.5 9.17243 8.5C9.17607 8.5 9.17971 8.5 9.18337 8.5C9.18702 8.5 9.19068 8.5 9.19435 8.5C9.19802 8.5 9.20169 8.5 9.20538 8.5C9.20906 8.5 9.21275 8.5 9.21645 8.5C9.22015 8.5 9.22386 8.5 9.22757 8.5C9.23128 8.5 9.23501 8.5 9.23874 8.5C9.24247 8.5 9.24621 8.5 9.24995 8.5C9.2537 8.5 9.25745 8.5 9.26121 8.5C9.26497 8.5 9.26874 8.5 9.27252 8.5C9.2763 8.5 9.28009 8.5 9.28388 8.5C9.28767 8.5 9.29147 8.5 9.29528 8.5C9.2991 8.5 9.30291 8.5 9.30674 8.5C9.31057 8.5 9.3144 8.5 9.31824 8.5C9.32209 8.5 9.32594 8.5 9.3298 8.5C9.33366 8.5 9.33752 8.5 9.3414 8.5C9.34527 8.5 9.34916 8.5 9.35305 8.5C9.35694 8.5 9.36085 8.5 9.36476 8.5C9.36867 8.5 9.37258 8.5 9.37651 8.5C9.38044 8.5 9.38437 8.5 9.38832 8.5C9.39226 8.5 9.39621 8.5 9.40017 8.5C9.40413 8.5 9.4081 8.5 9.41208 8.5C9.41606 8.5 9.42005 8.5 9.42404 8.5C9.42804 8.5 9.43204 8.5 9.43606 8.5C9.44007 8.5 9.44409 8.5 9.44812 8.5C9.45215 8.5 9.45619 8.5 9.46024 8.5C9.46429 8.5 9.46835 8.5 9.47241 8.5C9.47648 8.5 9.48056 8.5 9.48464 8.5C9.48873 8.5 9.49282 8.5 9.49692 8.5C9.50103 8.5 9.50514 8.5 9.50926 8.5C9.51338 8.5 9.51751 8.5 9.52165 8.5C9.52579 8.5 9.52994 8.5 9.5341 8.5C9.53826 8.5 9.54242 8.5 9.5466 8.5C9.55078 8.5 9.55496 8.5 9.55916 8.5C9.56335 8.5 9.56756 8.5 9.57177 8.5C9.57599 8.5 9.58021 8.5 9.58444 8.5C9.58868 8.5 9.59292 8.5 9.59717 8.5C9.60142 8.5 9.60568 8.5 9.60996 8.5C9.61423 8.5 9.61851 8.5 9.6228 8.5C9.62709 8.5 9.63139 8.5 9.6357 8.5C9.64001 8.5 9.64433 8.5 9.64866 8.5C9.65299 8.5 9.65733 8.5 9.66168 8.5C9.66603 8.5 9.67038 8.5 9.67475 8.5C9.67912 8.5 9.6835 8.5 9.68789 8.5C9.69228 8.5 9.69668 8.5 9.70109 8.5C9.7055 8.5 9.70991 8.5 9.71434 8.5C9.71877 8.5 9.72321 8.5 9.72766 8.5C9.73211 8.5 9.73657 8.5 9.74104 8.5C9.74551 8.5 9.74999 8.5 9.75448 8.5C9.75897 8.5 9.76347 8.5 9.76798 8.5C9.77249 8.5 9.77701 8.5 9.78154 8.5C9.78607 8.5 9.79061 8.5 9.79516 8.5C9.79972 8.5 9.80428 8.5 9.80885 8.5C9.81342 8.5 9.81801 8.5 9.8226 8.5C9.82719 8.5 9.8318 8.5 9.83641 8.5C9.84103 8.5 9.84565 8.5 9.85029 8.5C9.85493 8.5 9.85957 8.5 9.86423 8.5C9.86889 8.5 9.87356 8.5 9.87823 8.5C9.88291 8.5 9.8876 8.5 9.8923 8.5C9.897 8.5 9.90171 8.5 9.90644 8.5C9.91116 8.5 9.91589 8.5 9.92064 8.5C9.92538 8.5 9.93013 8.5 9.9349 8.5C9.93967 8.5 9.94444 8.5 9.94923 8.5C9.95402 8.5 9.95882 8.5 9.96363 8.5C9.96844 8.5 9.97326 8.5 9.97809 8.5C9.98292 8.5 9.98777 8.5 9.99262 8.5C9.99748 8.5 10.0023 8.5 10.0072 8.5C10.0121 8.5 10.017 8.5 10.0219 8.5C10.0268 8.5 10.0317 8.5 10.0366 8.5C10.0415 8.5 10.0465 8.5 10.0514 8.5C10.0564 8.5 10.0613 8.5 10.0663 8.5C10.0713 8.5 10.0762 8.5 10.0812 8.5C10.0862 8.5 10.0912 8.5 10.0962 8.5C10.1013 8.5 10.1063 8.5 10.1113 8.5C10.1164 8.5 10.1214 8.5 10.1265 8.5C10.1315 8.5 10.1366 8.5 10.1417 8.5C10.1468 8.5 10.1519 8.5 10.157 8.5C10.1621 8.5 10.1672 8.5 10.1723 8.5C10.1775 8.5 10.1826 8.5 10.1878 8.5C10.1929 8.5 10.1981 8.5 10.2033 8.5C10.2085 8.5 10.2136 8.5 10.2189 8.5C10.2241 8.5 10.2293 8.5 10.2345 8.5C10.2397 8.5 10.245 8.5 10.2502 8.5C10.2555 8.5 10.2607 8.5 10.266 8.5C10.2713 8.5 10.2766 8.5 10.2819 8.5C10.2872 8.5 10.2925 8.5 10.2978 8.5C10.3032 8.5 10.3085 8.5 10.3138 8.5C10.3192 8.5 10.3246 8.5 10.3299 8.5C10.3353 8.5 10.3407 8.5 10.3461 8.5C10.3515 8.5 10.3569 8.5 10.3623 8.5C10.3678 8.5 10.3732 8.5 10.3787 8.5C10.3841 8.5 10.3896 8.5 10.395 8.5C10.4005 8.5 10.406 8.5 10.4115 8.5C10.417 8.5 10.4225 8.5 10.4281 8.5C10.4336 8.5 10.4391 8.5 10.4447 8.5C10.4502 8.5 10.4558 8.5 10.4614 8.5C10.467 8.5 10.4726 8.5 10.4782 8.5C10.4838 8.5 10.4894 8.5 10.495 8.5C10.5006 8.5 10.5063 8.5 10.5119 8.5C10.5176 8.5 10.5233 8.5 10.529 8.5C10.5346 8.5 10.5403 8.5 10.5461 8.5C10.5518 8.5 10.5575 8.5 10.5632 8.5C10.569 8.5 10.5747 8.5 10.5805 8.5C10.5862 8.5 10.592 8.5 10.5978 8.5C10.6036 8.5 10.6094 8.5 10.6152 8.5C10.621 8.5 10.6269 8.5 10.6327 8.5C10.6385 8.5 10.6444 8.5 10.6503 8.5C10.6561 8.5 10.662 8.5 10.6679 8.5C10.6738 8.5 10.6797 8.5 10.6857 8.5C10.6916 8.5 10.6975 8.5 10.7035 8.5C10.7094 8.5 10.7154 8.5 10.7214 8.5C10.7274 8.5 10.7334 8.5 10.7394 8.5C10.7454 8.5 10.7514 8.5 10.7574 8.5C10.7635 8.5 10.7695 8.5 10.7756 8.5C10.7816 8.5 10.7877 8.5 10.7938 8.5C10.7999 8.5 10.806 8.5 10.8121 8.5C10.8182 8.5 10.8244 8.5 10.8305 8.5C10.8367 8.5 10.8428 8.5 10.849 8.5C10.8552 8.5 10.8614 8.5 10.8676 8.5C10.8738 8.5 10.88 8.5 10.8862 8.5C10.8925 8.5 10.8987 8.5 10.905 8.5C10.9112 8.5 10.9175 8.5 10.9238 8.5C10.9301 8.5 10.9364 8.5 10.9427 8.5C10.9491 8.5 10.9554 8.5 10.9617 8.5C10.9681 8.5 10.9744 8.5 10.9808 8.5C10.9872 8.5 10.9936 8.5 11 8.5V7.5C10.9936 7.5 10.9872 7.5 10.9808 7.5C10.9744 7.5 10.9681 7.5 10.9617 7.5C10.9554 7.5 10.9491 7.5 10.9427 7.5C10.9364 7.5 10.9301 7.5 10.9238 7.5C10.9175 7.5 10.9112 7.5 10.905 7.5C10.8987 7.5 10.8925 7.5 10.8862 7.5C10.88 7.5 10.8738 7.5 10.8676 7.5C10.8614 7.5 10.8552 7.5 10.849 7.5C10.8428 7.5 10.8367 7.5 10.8305 7.5C10.8244 7.5 10.8182 7.5 10.8121 7.5C10.806 7.5 10.7999 7.5 10.7938 7.5C10.7877 7.5 10.7816 7.5 10.7756 7.5C10.7695 7.5 10.7635 7.5 10.7574 7.5C10.7514 7.5 10.7454 7.5 10.7394 7.5C10.7334 7.5 10.7274 7.5 10.7214 7.5C10.7154 7.5 10.7094 7.5 10.7035 7.5C10.6975 7.5 10.6916 7.5 10.6857 7.5C10.6797 7.5 10.6738 7.5 10.6679 7.5C10.662 7.5 10.6561 7.5 10.6503 7.5C10.6444 7.5 10.6385 7.5 10.6327 7.5C10.6269 7.5 10.621 7.5 10.6152 7.5C10.6094 7.5 10.6036 7.5 10.5978 7.5C10.592 7.5 10.5862 7.5 10.5805 7.5C10.5747 7.5 10.569 7.5 10.5632 7.5C10.5575 7.5 10.5518 7.5 10.5461 7.5C10.5403 7.5 10.5346 7.5 10.529 7.5C10.5233 7.5 10.5176 7.5 10.5119 7.5C10.5063 7.5 10.5006 7.5 10.495 7.5C10.4894 7.5 10.4838 7.5 10.4782 7.5C10.4726 7.5 10.467 7.5 10.4614 7.5C10.4558 7.5 10.4502 7.5 10.4447 7.5C10.4391 7.5 10.4336 7.5 10.4281 7.5C10.4225 7.5 10.417 7.5 10.4115 7.5C10.406 7.5 10.4005 7.5 10.395 7.5C10.3896 7.5 10.3841 7.5 10.3787 7.5C10.3732 7.5 10.3678 7.5 10.3623 7.5C10.3569 7.5 10.3515 7.5 10.3461 7.5C10.3407 7.5 10.3353 7.5 10.3299 7.5C10.3246 7.5 10.3192 7.5 10.3138 7.5C10.3085 7.5 10.3032 7.5 10.2978 7.5C10.2925 7.5 10.2872 7.5 10.2819 7.5C10.2766 7.5 10.2713 7.5 10.266 7.5C10.2607 7.5 10.2555 7.5 10.2502 7.5C10.245 7.5 10.2397 7.5 10.2345 7.5C10.2293 7.5 10.2241 7.5 10.2189 7.5C10.2136 7.5 10.2085 7.5 10.2033 7.5C10.1981 7.5 10.1929 7.5 10.1878 7.5C10.1826 7.5 10.1775 7.5 10.1723 7.5C10.1672 7.5 10.1621 7.5 10.157 7.5C10.1519 7.5 10.1468 7.5 10.1417 7.5C10.1366 7.5 10.1315 7.5 10.1265 7.5C10.1214 7.5 10.1164 7.5 10.1113 7.5C10.1063 7.5 10.1013 7.5 10.0962 7.5C10.0912 7.5 10.0862 7.5 10.0812 7.5C10.0762 7.5 10.0713 7.5 10.0663 7.5C10.0613 7.5 10.0564 7.5 10.0514 7.5C10.0465 7.5 10.0415 7.5 10.0366 7.5C10.0317 7.5 10.0268 7.5 10.0219 7.5C10.017 7.5 10.0121 7.5 10.0072 7.5C10.0023 7.5 9.99748 7.5 9.99262 7.5C9.98777 7.5 9.98292 7.5 9.97809 7.5C9.97326 7.5 9.96844 7.5 9.96363 7.5C9.95882 7.5 9.95402 7.5 9.94923 7.5C9.94444 7.5 9.93967 7.5 9.9349 7.5C9.93013 7.5 9.92538 7.5 9.92064 7.5C9.91589 7.5 9.91116 7.5 9.90644 7.5C9.90171 7.5 9.897 7.5 9.8923 7.5C9.8876 7.5 9.88291 7.5 9.87823 7.5C9.87356 7.5 9.86889 7.5 9.86423 7.5C9.85957 7.5 9.85493 7.5 9.85029 7.5C9.84565 7.5 9.84103 7.5 9.83641 7.5C9.8318 7.5 9.82719 7.5 9.8226 7.5C9.81801 7.5 9.81342 7.5 9.80885 7.5C9.80428 7.5 9.79972 7.5 9.79516 7.5C9.79061 7.5 9.78607 7.5 9.78154 7.5C9.77701 7.5 9.77249 7.5 9.76798 7.5C9.76347 7.5 9.75897 7.5 9.75448 7.5C9.74999 7.5 9.74551 7.5 9.74104 7.5C9.73657 7.5 9.73211 7.5 9.72766 7.5C9.72321 7.5 9.71877 7.5 9.71434 7.5C9.70991 7.5 9.7055 7.5 9.70109 7.5C9.69668 7.5 9.69228 7.5 9.68789 7.5C9.6835 7.5 9.67912 7.5 9.67475 7.5C9.67038 7.5 9.66603 7.5 9.66168 7.5C9.65733 7.5 9.65299 7.5 9.64866 7.5C9.64433 7.5 9.64001 7.5 9.6357 7.5C9.63139 7.5 9.62709 7.5 9.6228 7.5C9.61851 7.5 9.61423 7.5 9.60996 7.5C9.60568 7.5 9.60142 7.5 9.59717 7.5C9.59292 7.5 9.58868 7.5 9.58444 7.5C9.58021 7.5 9.57599 7.5 9.57177 7.5C9.56756 7.5 9.56335 7.5 9.55916 7.5C9.55496 7.5 9.55078 7.5 9.5466 7.5C9.54242 7.5 9.53826 7.5 9.5341 7.5C9.52994 7.5 9.52579 7.5 9.52165 7.5C9.51751 7.5 9.51338 7.5 9.50926 7.5C9.50514 7.5 9.50103 7.5 9.49692 7.5C9.49282 7.5 9.48873 7.5 9.48464 7.5C9.48056 7.5 9.47648 7.5 9.47241 7.5C9.46835 7.5 9.46429 7.5 9.46024 7.5C9.45619 7.5 9.45215 7.5 9.44812 7.5C9.44409 7.5 9.44007 7.5 9.43606 7.5C9.43204 7.5 9.42804 7.5 9.42404 7.5C9.42005 7.5 9.41606 7.5 9.41208 7.5C9.4081 7.5 9.40413 7.5 9.40017 7.5C9.39621 7.5 9.39226 7.5 9.38832 7.5C9.38437 7.5 9.38044 7.5 9.37651 7.5C9.37258 7.5 9.36867 7.5 9.36476 7.5C9.36085 7.5 9.35694 7.5 9.35305 7.5C9.34916 7.5 9.34527 7.5 9.3414 7.5C9.33752 7.5 9.33366 7.5 9.3298 7.5C9.32594 7.5 9.32209 7.5 9.31824 7.5C9.3144 7.5 9.31057 7.5 9.30674 7.5C9.30291 7.5 9.2991 7.5 9.29528 7.5C9.29147 7.5 9.28767 7.5 9.28388 7.5C9.28009 7.5 9.2763 7.5 9.27252 7.5C9.26874 7.5 9.26497 7.5 9.26121 7.5C9.25745 7.5 9.2537 7.5 9.24995 7.5C9.24621 7.5 9.24247 7.5 9.23874 7.5C9.23501 7.5 9.23128 7.5 9.22757 7.5C9.22386 7.5 9.22015 7.5 9.21645 7.5C9.21275 7.5 9.20906 7.5 9.20538 7.5C9.20169 7.5 9.19802 7.5 9.19435 7.5C9.19068 7.5 9.18702 7.5 9.18337 7.5C9.17971 7.5 9.17607 7.5 9.17243 7.5C9.16879 7.5 9.16516 7.5 9.16154 7.5C9.15791 7.5 9.1543 7.5 9.15069 7.5C9.14708 7.5 9.14348 7.5 9.13989 7.5C9.13629 7.5 9.13271 7.5 9.12913 7.5C9.12555 7.5 9.12198 7.5 9.11841 7.5C9.11485 7.5 9.11129 7.5 9.10774 7.5C9.10419 7.5 9.10065 7.5 9.09711 7.5C9.09358 7.5 9.09005 7.5 9.08652 7.5C9.083 7.5 9.07949 7.5 9.07598 7.5C9.07247 7.5 9.06897 7.5 9.06548 7.5C9.06198 7.5 9.0585 7.5 9.05502 7.5C9.05154 7.5 9.04806 7.5 9.0446 7.5C9.04113 7.5 9.03767 7.5 9.03422 7.5C9.03077 7.5 9.02732 7.5 9.02388 7.5C9.02044 7.5 9.01701 7.5 9.01358 7.5C9.01016 7.5 9.00674 7.5 9.00332 7.5C8.99991 7.5 8.9965 7.5 8.9931 7.5C8.9897 7.5 8.98631 7.5 8.98292 7.5C8.97954 7.5 8.97616 7.5 8.97278 7.5C8.96941 7.5 8.96604 7.5 8.96268 7.5C8.95932 7.5 8.95597 7.5 8.95262 7.5C8.94927 7.5 8.94593 7.5 8.94259 7.5C8.93925 7.5 8.93592 7.5 8.9326 7.5C8.92928 7.5 8.92596 7.5 8.92265 7.5C8.91934 7.5 8.91603 7.5 8.91273 7.5C8.90944 7.5 8.90614 7.5 8.90286 7.5C8.89957 7.5 8.89629 7.5 8.89301 7.5C8.88974 7.5 8.88647 7.5 8.88321 7.5C8.87994 7.5 8.87669 7.5 8.87343 7.5C8.87018 7.5 8.86694 7.5 8.8637 7.5C8.86046 7.5 8.85722 7.5 8.854 7.5C8.85077 7.5 8.84754 7.5 8.84433 7.5C8.84111 7.5 8.8379 7.5 8.83469 7.5C8.83149 7.5 8.82829 7.5 8.82509 7.5C8.8219 7.5 8.81871 7.5 8.81553 7.5C8.81234 7.5 8.80917 7.5 8.80599 7.5C8.80282 7.5 8.79965 7.5 8.79649 7.5C8.79333 7.5 8.79017 7.5 8.78702 7.5C8.78387 7.5 8.78073 7.5 8.77759 7.5C8.77445 7.5 8.77131 7.5 8.76818 7.5C8.76505 7.5 8.76193 7.5 8.75881 7.5C8.75569 7.5 8.75257 7.5 8.74946 7.5C8.74636 7.5 8.74325 7.5 8.74015 7.5C8.73705 7.5 8.73396 7.5 8.73087 7.5C8.72778 7.5 8.7247 7.5 8.72162 7.5C8.71854 7.5 8.71546 7.5 8.71239 7.5C8.70933 7.5 8.70626 7.5 8.7032 7.5C8.70014 7.5 8.69709 7.5 8.69404 7.5C8.69099 7.5 8.68794 7.5 8.6849 7.5C8.68186 7.5 8.67882 7.5 8.67579 7.5C8.67276 7.5 8.66973 7.5 8.66671 7.5C8.66369 7.5 8.66067 7.5 8.65766 7.5C8.65465 7.5 8.65164 7.5 8.64863 7.5C8.64563 7.5 8.64263 7.5 8.63963 7.5C8.63664 7.5 8.63365 7.5 8.63066 7.5C8.62768 7.5 8.62469 7.5 8.62172 7.5C8.61874 7.5 8.61576 7.5 8.61279 7.5C8.60983 7.5 8.60686 7.5 8.6039 7.5C8.60094 7.5 8.59798 7.5 8.59503 7.5C8.59208 7.5 8.58913 7.5 8.58618 7.5C8.58324 7.5 8.5803 7.5 8.57736 7.5C8.57443 7.5 8.57149 7.5 8.56857 7.5C8.56564 7.5 8.56271 7.5 8.55979 7.5C8.55687 7.5 8.55396 7.5 8.55104 7.5C8.54813 7.5 8.54522 7.5 8.54232 7.5C8.53941 7.5 8.53651 7.5 8.53361 7.5C8.53071 7.5 8.52782 7.5 8.52493 7.5C8.52204 7.5 8.51915 7.5 8.51627 7.5C8.51339 7.5 8.51051 7.5 8.50763 7.5C8.50476 7.5 8.50188 7.5 8.49901 7.5C8.49615 7.5 8.49328 7.5 8.49042 7.5C8.48756 7.5 8.4847 7.5 8.48184 7.5C8.47899 7.5 8.47614 7.5 8.47329 7.5C8.47044 7.5 8.46759 7.5 8.46475 7.5C8.46191 7.5 8.45907 7.5 8.45624 7.5C8.4534 7.5 8.45057 7.5 8.44774 7.5C8.44491 7.5 8.44208 7.5 8.43926 7.5C8.43644 7.5 8.43362 7.5 8.4308 7.5C8.42799 7.5 8.42517 7.5 8.42236 7.5C8.41955 7.5 8.41674 7.5 8.41394 7.5C8.41113 7.5 8.40833 7.5 8.40553 7.5C8.40273 7.5 8.39994 7.5 8.39715 7.5C8.39435 7.5 8.39156 7.5 8.38877 7.5C8.38599 7.5 8.3832 7.5 8.38042 7.5C8.37764 7.5 8.37486 7.5 8.37208 7.5C8.3693 7.5 8.36653 7.5 8.36376 7.5C8.36098 7.5 8.35822 7.5 8.35545 7.5C8.35268 7.5 8.34992 7.5 8.34716 7.5C8.34439 7.5 8.34164 7.5 8.33888 7.5C8.33612 7.5 8.33337 7.5 8.33062 7.5C8.32786 7.5 8.32511 7.5 8.32237 7.5C8.31962 7.5 8.31687 7.5 8.31413 7.5C8.31139 7.5 8.30865 7.5 8.30591 7.5C8.30317 7.5 8.30043 7.5 8.2977 7.5C8.29497 7.5 8.29223 7.5 8.2895 7.5C8.28677 7.5 8.28404 7.5 8.28132 7.5C8.27859 7.5 8.27587 7.5 8.27315 7.5C8.27043 7.5 8.2677 7.5 8.26499 7.5C8.26227 7.5 8.25955 7.5 8.25684 7.5C8.25412 7.5 8.25141 7.5 8.2487 7.5C8.24599 7.5 8.24328 7.5 8.24057 7.5C8.23787 7.5 8.23516 7.5 8.23246 7.5C8.22975 7.5 8.22705 7.5 8.22435 7.5C8.22165 7.5 8.21895 7.5 8.21625 7.5C8.21355 7.5 8.21086 7.5 8.20816 7.5C8.20547 7.5 8.20278 7.5 8.20008 7.5C8.19739 7.5 8.1947 7.5 8.19201 7.5C8.18932 7.5 8.18664 7.5 8.18395 7.5C8.18126 7.5 8.17858 7.5 8.1759 7.5C8.17321 7.5 8.17053 7.5 8.16785 7.5C8.16517 7.5 8.16249 7.5 8.15981 7.5C8.15713 7.5 8.15445 7.5 8.15178 7.5C8.1491 7.5 8.14642 7.5 8.14375 7.5C8.14108 7.5 8.1384 7.5 8.13573 7.5C8.13306 7.5 8.13039 7.5 8.12772 7.5C8.12505 7.5 8.12238 7.5 8.11971 7.5C8.11704 7.5 8.11437 7.5 8.1117 7.5C8.10904 7.5 8.10637 7.5 8.1037 7.5C8.10104 7.5 8.09837 7.5 8.09571 7.5C8.09305 7.5 8.09038 7.5 8.08772 7.5C8.08506 7.5 8.08239 7.5 8.07973 7.5C8.07707 7.5 8.07441 7.5 8.07175 7.5C8.06909 7.5 8.06643 7.5 8.06377 7.5C8.06111 7.5 8.05845 7.5 8.05579 7.5C8.05313 7.5 8.05048 7.5 8.04782 7.5C8.04516 7.5 8.0425 7.5 8.03984 7.5C8.03719 7.5 8.03453 7.5 8.03187 7.5C8.02922 7.5 8.02656 7.5 8.0239 7.5C8.02125 7.5 8.01859 7.5 8.01594 7.5C8.01328 7.5 8.01062 7.5 8.00797 7.5C8.00531 7.5 8.00266 7.5 8 7.5C7.99734 7.5 7.99469 7.5 7.99203 7.5C7.98938 7.5 7.98672 7.5 7.98406 7.5C7.98141 7.5 7.97875 7.5 7.9761 7.5C7.97344 7.5 7.97078 7.5 7.96813 7.5C7.96547 7.5 7.96281 7.5 7.96016 7.5C7.9575 7.5 7.95484 7.5 7.95218 7.5C7.94952 7.5 7.94687 7.5 7.94421 7.5C7.94155 7.5 7.93889 7.5 7.93623 7.5C7.93357 7.5 7.93091 7.5 7.92825 7.5C7.92559 7.5 7.92293 7.5 7.92027 7.5C7.91761 7.5 7.91494 7.5 7.91228 7.5C7.90962 7.5 7.90695 7.5 7.90429 7.5C7.90163 7.5 7.89896 7.5 7.8963 7.5C7.89363 7.5 7.89096 7.5 7.8883 7.5C7.88563 7.5 7.88296 7.5 7.88029 7.5C7.87762 7.5 7.87496 7.5 7.87228 7.5C7.86961 7.5 7.86694 7.5 7.86427 7.5C7.8616 7.5 7.85892 7.5 7.85625 7.5C7.85358 7.5 7.8509 7.5 7.84822 7.5C7.84555 7.5 7.84287 7.5 7.84019 7.5C7.83751 7.5 7.83483 7.5 7.83215 7.5C7.82947 7.5 7.82679 7.5 7.8241 7.5C7.82142 7.5 7.81874 7.5 7.81605 7.5C7.81336 7.5 7.81068 7.5 7.80799 7.5C7.8053 7.5 7.80261 7.5 7.79992 7.5C7.79722 7.5 7.79453 7.5 7.79184 7.5C7.78914 7.5 7.78645 7.5 7.78375 7.5C7.78105 7.5 7.77835 7.5 7.77565 7.5C7.77295 7.5 7.77025 7.5 7.76754 7.5C7.76484 7.5 7.76214 7.5 7.75943 7.5C7.75672 7.5 7.75401 7.5 7.7513 7.5C7.74859 7.5 7.74588 7.5 7.74316 7.5C7.74045 7.5 7.73773 7.5 7.73501 7.5C7.7323 7.5 7.72958 7.5 7.72685 7.5C7.72413 7.5 7.72141 7.5 7.71868 7.5C7.71596 7.5 7.71323 7.5 7.7105 7.5C7.70777 7.5 7.70503 7.5 7.7023 7.5C7.69957 7.5 7.69683 7.5 7.69409 7.5C7.69135 7.5 7.68861 7.5 7.68587 7.5C7.68313 7.5 7.68038 7.5 7.67763 7.5C7.67489 7.5 7.67214 7.5 7.66938 7.5C7.66663 7.5 7.66388 7.5 7.66112 7.5C7.65836 7.5 7.65561 7.5 7.65284 7.5C7.65008 7.5 7.64732 7.5 7.64455 7.5C7.64178 7.5 7.63902 7.5 7.63624 7.5C7.63347 7.5 7.6307 7.5 7.62792 7.5C7.62514 7.5 7.62236 7.5 7.61958 7.5C7.6168 7.5 7.61401 7.5 7.61123 7.5C7.60844 7.5 7.60565 7.5 7.60286 7.5C7.60006 7.5 7.59727 7.5 7.59447 7.5C7.59167 7.5 7.58887 7.5 7.58606 7.5C7.58326 7.5 7.58045 7.5 7.57764 7.5C7.57483 7.5 7.57201 7.5 7.5692 7.5C7.56638 7.5 7.56356 7.5 7.56074 7.5C7.55792 7.5 7.55509 7.5 7.55226 7.5C7.54943 7.5 7.5466 7.5 7.54376 7.5C7.54093 7.5 7.53809 7.5 7.53525 7.5C7.53241 7.5 7.52956 7.5 7.52671 7.5C7.52386 7.5 7.52101 7.5 7.51816 7.5C7.5153 7.5 7.51244 7.5 7.50958 7.5C7.50672 7.5 7.50386 7.5 7.50099 7.5C7.49812 7.5 7.49525 7.5 7.49237 7.5C7.48949 7.5 7.48661 7.5 7.48373 7.5C7.48085 7.5 7.47796 7.5 7.47507 7.5C7.47218 7.5 7.46929 7.5 7.46639 7.5C7.46349 7.5 7.46059 7.5 7.45768 7.5C7.45478 7.5 7.45187 7.5 7.44896 7.5C7.44605 7.5 7.44313 7.5 7.44021 7.5C7.43729 7.5 7.43436 7.5 7.43143 7.5C7.42851 7.5 7.42557 7.5 7.42264 7.5C7.4197 7.5 7.41676 7.5 7.41382 7.5C7.41087 7.5 7.40792 7.5 7.40497 7.5C7.40202 7.5 7.39906 7.5 7.3961 7.5C7.39314 7.5 7.39018 7.5 7.38721 7.5C7.38424 7.5 7.38126 7.5 7.37829 7.5C7.37531 7.5 7.37233 7.5 7.36934 7.5C7.36635 7.5 7.36336 7.5 7.36037 7.5C7.35737 7.5 7.35437 7.5 7.35137 7.5C7.34836 7.5 7.34535 7.5 7.34234 7.5C7.33933 7.5 7.33631 7.5 7.33329 7.5C7.33027 7.5 7.32724 7.5 7.32421 7.5C7.32118 7.5 7.31814 7.5 7.3151 7.5C7.31206 7.5 7.30901 7.5 7.30596 7.5C7.30291 7.5 7.29986 7.5 7.2968 7.5C7.29374 7.5 7.29067 7.5 7.28761 7.5C7.28454 7.5 7.28146 7.5 7.27838 7.5C7.2753 7.5 7.27222 7.5 7.26913 7.5C7.26604 7.5 7.26295 7.5 7.25985 7.5C7.25675 7.5 7.25364 7.5 7.25054 7.5C7.24743 7.5 7.24431 7.5 7.24119 7.5C7.23807 7.5 7.23495 7.5 7.23182 7.5C7.22869 7.5 7.22555 7.5 7.22241 7.5C7.21927 7.5 7.21613 7.5 7.21298 7.5C7.20983 7.5 7.20667 7.5 7.20351 7.5C7.20035 7.5 7.19718 7.5 7.19401 7.5C7.19083 7.5 7.18766 7.5 7.18447 7.5C7.18129 7.5 7.1781 7.5 7.17491 7.5C7.17171 7.5 7.16851 7.5 7.16531 7.5C7.1621 7.5 7.15889 7.5 7.15567 7.5C7.15246 7.5 7.14923 7.5 7.146 7.5C7.14278 7.5 7.13954 7.5 7.1363 7.5C7.13306 7.5 7.12982 7.5 7.12657 7.5C7.12331 7.5 7.12006 7.5 7.11679 7.5C7.11353 7.5 7.11026 7.5 7.10699 7.5C7.10371 7.5 7.10043 7.5 7.09714 7.5C7.09386 7.5 7.09056 7.5 7.08727 7.5C7.08397 7.5 7.08066 7.5 7.07735 7.5C7.07404 7.5 7.07072 7.5 7.0674 7.5C7.06408 7.5 7.06075 7.5 7.05741 7.5C7.05407 7.5 7.05073 7.5 7.04738 7.5C7.04403 7.5 7.04068 7.5 7.03732 7.5C7.03396 7.5 7.03059 7.5 7.02722 7.5C7.02384 7.5 7.02046 7.5 7.01708 7.5C7.01369 7.5 7.0103 7.5 7.0069 7.5C7.0035 7.5 7.00009 7.5 6.99668 7.5C6.99326 7.5 6.98985 7.5 6.98642 7.5C6.98299 7.5 6.97956 7.5 6.97612 7.5C6.97268 7.5 6.96924 7.5 6.96578 7.5C6.96233 7.5 6.95887 7.5 6.9554 7.5C6.95194 7.5 6.94846 7.5 6.94498 7.5C6.9415 7.5 6.93802 7.5 6.93452 7.5C6.93103 7.5 6.92753 7.5 6.92402 7.5C6.92051 7.5 6.917 7.5 6.91348 7.5C6.90995 7.5 6.90643 7.5 6.90289 7.5C6.89935 7.5 6.89581 7.5 6.89226 7.5C6.88871 7.5 6.88515 7.5 6.88159 7.5C6.87802 7.5 6.87445 7.5 6.87087 7.5C6.86729 7.5 6.86371 7.5 6.86011 7.5C6.85652 7.5 6.85292 7.5 6.84931 7.5C6.8457 7.5 6.84209 7.5 6.83846 7.5C6.83484 7.5 6.83121 7.5 6.82757 7.5C6.82393 7.5 6.82029 7.5 6.81663 7.5C6.81298 7.5 6.80932 7.5 6.80565 7.5C6.80198 7.5 6.79831 7.5 6.79462 7.5C6.79094 7.5 6.78725 7.5 6.78355 7.5C6.77985 7.5 6.77614 7.5 6.77243 7.5C6.76872 7.5 6.76499 7.5 6.76126 7.5C6.75753 7.5 6.75379 7.5 6.75005 7.5C6.7463 7.5 6.74255 7.5 6.73879 7.5C6.73503 7.5 6.73126 7.5 6.72748 7.5C6.7237 7.5 6.71991 7.5 6.71612 7.5C6.71233 7.5 6.70853 7.5 6.70472 7.5C6.70091 7.5 6.69709 7.5 6.69326 7.5C6.68943 7.5 6.6856 7.5 6.68176 7.5C6.67791 7.5 6.67406 7.5 6.6702 7.5C6.66634 7.5 6.66248 7.5 6.6586 7.5C6.65473 7.5 6.65084 7.5 6.64695 7.5C6.64306 7.5 6.63915 7.5 6.63524 7.5C6.63134 7.5 6.62742 7.5 6.62349 7.5C6.61956 7.5 6.61563 7.5 6.61169 7.5C6.60774 7.5 6.60379 7.5 6.59983 7.5C6.59587 7.5 6.5919 7.5 6.58792 7.5C6.58394 7.5 6.57995 7.5 6.57596 7.5C6.57196 7.5 6.56796 7.5 6.56394 7.5C6.55993 7.5 6.55591 7.5 6.55188 7.5C6.54785 7.5 6.54381 7.5 6.53976 7.5C6.53571 7.5 6.53165 7.5 6.52759 7.5C6.52352 7.5 6.51944 7.5 6.51536 7.5C6.51127 7.5 6.50718 7.5 6.50308 7.5C6.49897 7.5 6.49486 7.5 6.49074 7.5C6.48662 7.5 6.48249 7.5 6.47835 7.5C6.47421 7.5 6.47006 7.5 6.4659 7.5C6.46175 7.5 6.45758 7.5 6.4534 7.5C6.44922 7.5 6.44504 7.5 6.44084 7.5C6.43665 7.5 6.43244 7.5 6.42823 7.5C6.42401 7.5 6.41979 7.5 6.41556 7.5C6.41132 7.5 6.40708 7.5 6.40283 7.5C6.39858 7.5 6.39432 7.5 6.39004 7.5C6.38577 7.5 6.38149 7.5 6.3772 7.5C6.37291 7.5 6.36861 7.5 6.3643 7.5C6.35999 7.5 6.35567 7.5 6.35134 7.5C6.34701 7.5 6.34267 7.5 6.33832 7.5C6.33397 7.5 6.32962 7.5 6.32525 7.5C6.32088 7.5 6.3165 7.5 6.31211 7.5C6.30772 7.5 6.30332 7.5 6.29891 7.5C6.2945 7.5 6.29009 7.5 6.28566 7.5C6.28123 7.5 6.27679 7.5 6.27234 7.5C6.26789 7.5 6.26343 7.5 6.25896 7.5C6.25449 7.5 6.25001 7.5 6.24552 7.5C6.24103 7.5 6.23653 7.5 6.23202 7.5C6.22751 7.5 6.22299 7.5 6.21846 7.5C6.21393 7.5 6.20939 7.5 6.20484 7.5C6.20028 7.5 6.19572 7.5 6.19115 7.5C6.18658 7.5 6.18199 7.5 6.1774 7.5C6.17281 7.5 6.1682 7.5 6.16359 7.5C6.15897 7.5 6.15435 7.5 6.14971 7.5C6.14507 7.5 6.14043 7.5 6.13577 7.5C6.13111 7.5 6.12645 7.5 6.12177 7.5C6.11709 7.5 6.1124 7.5 6.1077 7.5C6.103 7.5 6.09829 7.5 6.09356 7.5C6.08884 7.5 6.08411 7.5 6.07936 7.5C6.07462 7.5 6.06987 7.5 6.0651 7.5C6.06033 7.5 6.05556 7.5 6.05077 7.5C6.04598 7.5 6.04118 7.5 6.03637 7.5C6.03156 7.5 6.02674 7.5 6.02191 7.5C6.01708 7.5 6.01223 7.5 6.00738 7.5C6.00252 7.5 5.99766 7.5 5.99278 7.5C5.9879 7.5 5.98301 7.5 5.97811 7.5C5.97321 7.5 5.9683 7.5 5.96338 7.5C5.95846 7.5 5.95352 7.5 5.94858 7.5C5.94363 7.5 5.93868 7.5 5.93371 7.5C5.92874 7.5 5.92376 7.5 5.91877 7.5C5.91378 7.5 5.90877 7.5 5.90376 7.5C5.89874 7.5 5.89372 7.5 5.88868 7.5C5.88364 7.5 5.87859 7.5 5.87353 7.5C5.86847 7.5 5.8634 7.5 5.85831 7.5C5.85323 7.5 5.84813 7.5 5.84302 7.5C5.83791 7.5 5.83279 7.5 5.82766 7.5C5.82253 7.5 5.81739 7.5 5.81223 7.5C5.80707 7.5 5.80191 7.5 5.79673 7.5C5.79155 7.5 5.78635 7.5 5.78115 7.5C5.77594 7.5 5.77073 7.5 5.7655 7.5C5.76027 7.5 5.75503 7.5 5.74978 7.5C5.74453 7.5 5.73926 7.5 5.73398 7.5C5.72871 7.5 5.72342 7.5 5.71812 7.5C5.71281 7.5 5.7075 7.5 5.70217 7.5C5.69685 7.5 5.69151 7.5 5.68616 7.5C5.68081 7.5 5.67544 7.5 5.67007 7.5C5.66469 7.5 5.6593 7.5 5.6539 7.5C5.6485 7.5 5.64309 7.5 5.63766 7.5C5.63223 7.5 5.62679 7.5 5.62134 7.5C5.61589 7.5 5.61043 7.5 5.60495 7.5C5.59947 7.5 5.59398 7.5 5.58848 7.5C5.58298 7.5 5.57746 7.5 5.57194 7.5C5.56641 7.5 5.56087 7.5 5.55532 7.5C5.54976 7.5 5.5442 7.5 5.53862 7.5C5.53304 7.5 5.52744 7.5 5.52184 7.5C5.51623 7.5 5.51062 7.5 5.50498 7.5C5.49935 7.5 5.49371 7.5 5.48805 7.5C5.48239 7.5 5.47672 7.5 5.47104 7.5C5.46535 7.5 5.45966 7.5 5.45395 7.5C5.44824 7.5 5.44251 7.5 5.43678 7.5C5.43104 7.5 5.42529 7.5 5.41953 7.5C5.41376 7.5 5.40799 7.5 5.4022 7.5C5.39641 7.5 5.3906 7.5 5.38479 7.5C5.37897 7.5 5.37314 7.5 5.3673 7.5C5.36145 7.5 5.3556 7.5 5.34972 7.5C5.34385 7.5 5.33797 7.5 5.33207 7.5C5.32617 7.5 5.32026 7.5 5.31434 7.5C5.30841 7.5 5.30247 7.5 5.29652 7.5C5.29057 7.5 5.2846 7.5 5.27862 7.5C5.27264 7.5 5.26664 7.5 5.26064 7.5C5.25463 7.5 5.24861 7.5 5.24257 7.5C5.23654 7.5 5.23049 7.5 5.22442 7.5C5.21836 7.5 5.21228 7.5 5.20619 7.5C5.2001 7.5 5.19399 7.5 5.18787 7.5C5.18175 7.5 5.17562 7.5 5.16947 7.5C5.16332 7.5 5.15716 7.5 5.15098 7.5C5.14481 7.5 5.13862 7.5 5.13241 7.5C5.12621 7.5 5.11999 7.5 5.11376 7.5C5.10752 7.5 5.10128 7.5 5.09501 7.5C5.08875 7.5 5.08248 7.5 5.07618 7.5C5.06989 7.5 5.06359 7.5 5.05727 7.5C5.05095 7.5 5.04462 7.5 5.03827 7.5C5.03192 7.5 5.02556 7.5 5.01918 7.5C5.0128 7.5 5.00641 7.5 5 7.5V8.5Z" fill="#282829"/></svg>