<svg viewBox="0 0 32 32" fill="none" xmlns="http://www.w3.org/2000/svg" width="1em" height="1em"><path d="M26.9999 13.5C26.9999 13.5 26.4031 13.5 25.6667 13.5C25.1144 13.5 24.6665 13.9477 24.6665 14.5L24.6665 15.4167C24.6665 15.969 25.1142 16.4167 25.6665 16.4167H28.4582" stroke="currentColor" stroke-linecap="round"/><path d="M20.5 10.5H24.6871C25.4412 10.5 26.1312 10.9242 26.4717 11.5971L29.2429 17.0742C29.3845 17.3542 29.4583 17.6635 29.4583 17.9772V21.5C29.4583 22.0523 29.0106 22.5 28.4583 22.5H27.5" stroke="currentColor"/><path d="M20.4998 18.5H2.99976" stroke="currentColor" stroke-linecap="round"/><path d="M10.5 22.5H22.5" stroke="currentColor" stroke-linecap="round" stroke-linejoin="round"/><path d="M20.4999 22.5L20.536 9.50555C20.539 8.39882 19.6427 7.5 18.536 7.5H4.5415C3.43693 7.5 2.5415 8.39543 2.5415 9.5V21.5C2.5415 22.0523 2.98922 22.5 3.5415 22.5H5.49988" stroke="currentColor"/><path d="M7.35355 13.1464C7.15829 12.9512 6.84171 12.9512 6.64645 13.1464C6.45118 13.3417 6.45118 13.6583 6.64645 13.8536L7.35355 13.1464ZM9.5 16L9.14645 16.3536C9.33574 16.5428 9.64053 16.5495 9.83786 16.3686L9.5 16ZM15.8379 10.8686C16.0414 10.682 16.0552 10.3657 15.8686 10.1621C15.682 9.95858 15.3657 9.94483 15.1621 10.1314L15.8379 10.8686ZM6.64645 13.8536L9.14645 16.3536L9.85355 15.6464L7.35355 13.1464L6.64645 13.8536ZM9.83786 16.3686L15.8379 10.8686L15.1621 10.1314L9.16214 15.6314L9.83786 16.3686Z" fill="currentColor"/><circle cx="25" cy="23" r="2.5" stroke="currentColor" stroke-linecap="round"/><circle cx="8" cy="23" r="2.5" stroke="currentColor" stroke-linecap="round"/></svg>
