<svg viewBox="0 0 16 16" fill="none" xmlns="http://www.w3.org/2000/svg" width="1em" height="1em"><path d="M5.5 11.5C5.5 12.0523 5.05228 12.5 4.5 12.5C3.94772 12.5 3.5 12.0523 3.5 11.5C3.5 10.9477 3.94772 10.5 4.5 10.5C5.05228 10.5 5.5 10.9477 5.5 11.5ZM13.5 11.5C13.5 12.0523 13.0523 12.5 12.5 12.5C11.9477 12.5 11.5 12.0523 11.5 11.5C11.5 10.9477 11.9477 10.5 12.5 10.5C13.0523 10.5 13.5 10.9477 13.5 11.5Z" stroke="currentColor" stroke-linecap="round"/><path d="M9 11.5H11.5" stroke="currentColor" stroke-linecap="round"/><path d="M14 8.5L12.5 8.5" stroke="currentColor" stroke-linecap="round"/><path d="M14.5 11.5526V12.0526C14.7761 12.0526 15 11.8288 15 11.5526H14.5ZM14.3 8.23333L13.9 8.53333L14.3 8.23333ZM10 7H12.5V6H10V7ZM12.9 7.2L13.9 8.53333L14.7 7.93332L13.7 6.6L12.9 7.2ZM14 8.83333V11.5526H15V8.83333H14ZM14.5 11.0526H13.5V12.0526H14.5V11.0526ZM13.9 8.53333C13.9649 8.61987 14 8.72514 14 8.83333H15C15 8.50877 14.8947 8.19297 14.7 7.93332L13.9 8.53333ZM12.5 7C12.6574 7 12.8056 7.0741 12.9 7.2L13.7 6.6C13.4167 6.22229 12.9721 6 12.5 6V7Z" fill="currentColor"/><path d="M10.4999 8.5H1.97363" stroke="currentColor" stroke-linecap="round"/><path d="M3.5 11.5H2.5C1.94772 11.5 1.5 11.0523 1.5 10.5V5.5C1.5 4.94772 1.94772 4.5 2.5 4.5H9.5C10.0523 4.5 10.5 4.94772 10.5 5.5V10.5C10.5 11.0523 10.0523 11.5 9.5 11.5L5.5 11.5" stroke="currentColor"/></svg>
