<svg xmlns="http://www.w3.org/2000/svg" fill="none" viewBox="0 0 16 16" width="1em" height="1em"><path stroke="currentColor" stroke-linecap="round" d="M5.5 11.5a1 1 0 1 1-2 0 1 1 0 0 1 2 0Zm8 0a1 1 0 1 1-2 0 1 1 0 0 1 2 0Zm.5-3h-1.5"/><path stroke="currentColor" stroke-linejoin="round" d="M10 6.5h2.5a1 1 0 0 1 .8.4l1 1.333a1 1 0 0 1 .2.6v2.72h-1"/><path stroke="currentColor" stroke-linecap="round" d="M10.5 8.5H1.974"/><path stroke="currentColor" d="M3.5 11.5h-1a1 1 0 0 1-1-1v-5a1 1 0 0 1 1-1h7a1 1 0 0 1 1 1v5a1 1 0 0 1-1 1h-4"/><path stroke="currentColor" stroke-linecap="round" d="M9 11.5h2.5"/></svg>
