<svg xmlns="http://www.w3.org/2000/svg" fill="none" viewBox="0 0 24 24" width="1em" height="1em"><path stroke="currentColor" stroke-linecap="round" stroke-linejoin="round" d="M6 18.5a1.5 1.5 0 1 0 0-3 1.5 1.5 0 0 0 0 3Zm11.5 0a1.5 1.5 0 1 0 0-3 1.5 1.5 0 0 0 0 3Zm-10-2H16"/><path stroke="currentColor" stroke-linecap="round" d="M14 13.5H3"/><path stroke="currentColor" d="M14.5 16.5v-9a2 2 0 0 0-2-2h-8a2 2 0 0 0-2 2v8a1 1 0 0 0 1 1h1"/><path stroke="currentColor" stroke-linecap="round" stroke-linejoin="round" d="m6 10 1.5 1.5 3-3"/><path stroke="currentColor" stroke-linecap="round" d="M20.5 11.5h-2"/><path stroke="currentColor" d="M14.5 8.5h3.264a2 2 0 0 1 1.789 1.106l1.736 3.472a2 2 0 0 1 .211.894V15.5a1 1 0 0 1-1 1H19"/></svg>
