<svg xmlns="http://www.w3.org/2000/svg" fill="none" viewBox="0 0 32 32" width="1em" height="1em"><circle cx="25" cy="23" r="2.5" stroke="currentColor" stroke-linecap="round"/><circle cx="8" cy="23" r="2.5" stroke="currentColor" stroke-linecap="round"/><path stroke="currentColor" stroke-linecap="round" d="M27 13.5h-1.333a1 1 0 0 0-1 1v.917a1 1 0 0 0 1 1h2.791"/><path stroke="currentColor" d="M20.5 10.5h4.187a2 2 0 0 1 1.785 1.097l2.77 5.477a2 2 0 0 1 .216.903V21.5a1 1 0 0 1-1 1H27.5"/><path stroke="currentColor" stroke-linecap="round" d="M20.5 18.5H3"/><path stroke="currentColor" stroke-linecap="round" stroke-linejoin="round" d="M10.5 22.5h12"/><path stroke="currentColor" d="m20.5 22.5.036-12.994a2 2 0 0 0-2-2.006H4.541a2 2 0 0 0-2 2v12a1 1 0 0 0 1 1H5.5"/><path stroke="currentColor" stroke-linecap="round" stroke-linejoin="round" d="M7 13.5 9.5 16l6-5.5"/></svg>
