<svg viewBox="0 0 24 24" fill="none" xmlns="http://www.w3.org/2000/svg" width="1em" height="1em"><path d="M6 18.5C6.82843 18.5 7.5 17.8284 7.5 17C7.5 16.1716 6.82843 15.5 6 15.5C5.17157 15.5 4.5 16.1716 4.5 17C4.5 17.8284 5.17157 18.5 6 18.5Z" stroke="currentColor" stroke-linecap="round" stroke-linejoin="round"/><path d="M17.5 18.5C18.3284 18.5 19 17.8284 19 17C19 16.1716 18.3284 15.5 17.5 15.5C16.6716 15.5 16 16.1716 16 17C16 17.8284 16.6716 18.5 17.5 18.5Z" stroke="currentColor" stroke-linecap="round" stroke-linejoin="round"/><path d="M20.5 11.5H18.5" stroke="currentColor" stroke-linecap="round"/><path d="M14 13.5H3" stroke="currentColor" stroke-linecap="round"/><path d="M6.35355 9.64645C6.15829 9.45118 5.84171 9.45118 5.64645 9.64645C5.45118 9.84171 5.45118 10.1583 5.64645 10.3536L6.35355 9.64645ZM7.5 11.5L7.14645 11.8536C7.34171 12.0488 7.65829 12.0488 7.85355 11.8536L7.5 11.5ZM10.8536 8.85355C11.0488 8.65829 11.0488 8.34171 10.8536 8.14645C10.6583 7.95118 10.3417 7.95118 10.1464 8.14645L10.8536 8.85355ZM5.64645 10.3536L7.14645 11.8536L7.85355 11.1464L6.35355 9.64645L5.64645 10.3536ZM7.85355 11.8536L10.8536 8.85355L10.1464 8.14645L7.14645 11.1464L7.85355 11.8536Z" fill="currentColor"/><path d="M7.5 16.5H16" stroke="currentColor" stroke-linecap="round" stroke-linejoin="round"/><path d="M14.5 16.5V7.5C14.5 6.39543 13.6046 5.5 12.5 5.5L4.5 5.5C3.39543 5.5 2.5 6.39543 2.5 7.5V15.5C2.5 16.0523 2.94772 16.5 3.5 16.5H4.5" stroke="currentColor"/><path d="M14.5 8.5H17.7639C18.5215 8.5 19.214 8.928 19.5528 9.60557L21.2889 13.0777C21.4277 13.3554 21.5 13.6616 21.5 13.9721V15.5C21.5 16.0523 21.0523 16.5 20.5 16.5H19" stroke="currentColor"/></svg>
