<svg xmlns="http://www.w3.org/2000/svg" fill="none" viewBox="0 0 32 32" width="1em" height="1em"><path stroke="currentColor" stroke-linecap="round" stroke-linejoin="round" d="M7.5 5a.5.5 0 0 1 .5-.5h16a.5.5 0 0 1 .5.5v22.523a.5.5 0 0 1-.686.464l-3.211-1.284a1.5 1.5 0 0 0-1.228.05l-3.151 1.576a.5.5 0 0 1-.448 0l-3.15-1.575a1.5 1.5 0 0 0-1.229-.052l-3.211 1.285.185.464-.185-.464a.5.5 0 0 1-.686-.464V5Z"/><path stroke="currentColor" stroke-linecap="round" d="M10.5 9.5h2m3 0h6m-11 3h2m3 0h6m-11 3h2m3 0h6m-11 3h2m3 0h6m-11 3h2m3 0h6"/></svg>
