<svg xmlns="http://www.w3.org/2000/svg" fill="none" viewBox="0 0 24 24" width="1em" height="1em"><rect width="5" height="5" x="2.5" y="3.5" stroke="currentColor" rx="1.5"/><rect width="5" height="5" x="9.5" y="3.5" stroke="currentColor" rx="1.5"/><rect width="5" height="5" x="16.5" y="3.5" stroke="currentColor" rx="1.5"/><circle cx="8.5" cy="18.5" r="2" stroke="currentColor"/><circle cx="16.5" cy="18.5" r="2" stroke="currentColor"/><path stroke="currentColor" d="M8.5 16.5v-1.25a1.75 1.75 0 0 0-1.75-1.75A1.75 1.75 0 0 1 5 11.75V8.5m11.5 8v-3H14a2 2 0 0 1-2-2v-3"/><path stroke="currentColor" d="M14 13.5h3a2 2 0 0 0 2-2V9"/></svg>
