<svg viewBox="0 0 32 32" fill="none" xmlns="http://www.w3.org/2000/svg" width="1em" height="1em"><circle cx="23" cy="25" r="2.5" stroke="currentColor"/><circle cx="11" cy="25" r="2.5" stroke="currentColor"/><path d="M11 22.5L11 19.5C11 18.3954 10.1046 17.5 9 17.5H8C6.89543 17.5 6 16.6046 6 15.5L6 11.5" stroke="currentColor"/><rect x="2.5" y="4.5" width="7" height="7" rx="1.5" stroke="currentColor"/><rect x="12.5" y="4.5" width="7" height="7" rx="1.5" stroke="currentColor"/><rect x="22.5" y="4.5" width="7" height="7" rx="1.5" stroke="currentColor"/><path d="M26 11.5V15.5C26 16.6046 25.1046 17.5 24 17.5H18C16.8954 17.5 16 16.6046 16 15.5V11.5" stroke="currentColor"/><path d="M23 22.5V17" stroke="currentColor"/></svg>
