<svg xmlns="http://www.w3.org/2000/svg" fill="none" viewBox="0 0 16 16" width="1em" height="1em"><rect width="3" height="3" x="1.5" y="1.5" stroke="currentColor" rx=".5"/><rect width="3" height="3" x="6.5" y="1.5" stroke="currentColor" rx=".5"/><rect width="3" height="3" x="11.5" y="1.5" stroke="currentColor" rx=".5"/><circle cx="4.5" cy="12.5" r="2" stroke="currentColor"/><path stroke="currentColor" d="M11.5 7.5v3"/><circle cx="11.5" cy="12.5" r="2" stroke="currentColor"/><path stroke="currentColor" d="M3 4.5v2.25c0 .414.336.75.75.75a.75.75 0 0 1 .75.75v2.25m4-5.5v1.5a1 1 0 0 0 1 1H12a1 1 0 0 0 1-1v-2"/></svg>
