<svg viewBox="0 0 24 24" fill="none" xmlns="http://www.w3.org/2000/svg" width="1em" height="1em"><rect x="2.5" y="3.5" width="5" height="5" rx="1.5" stroke="currentColor"/><rect x="9.5" y="3.5" width="5" height="5" rx="1.5" stroke="currentColor"/><rect x="16.5" y="3.5" width="5" height="5" rx="1.5" stroke="currentColor"/><circle cx="8.5" cy="18.5" r="2" stroke="currentColor"/><circle cx="16.5" cy="18.5" r="2" stroke="currentColor"/><path d="M8.5 16.5L8.5 15.25C8.5 14.2835 7.7165 13.5 6.75 13.5V13.5C5.7835 13.5 5 12.7165 5 11.75L5 8.5" stroke="currentColor"/><path d="M16.5 16.5V13.5H14C12.8954 13.5 12 12.6046 12 11.5V8.5" stroke="currentColor"/><path d="M14 13.5H17C18.1046 13.5 19 12.6046 19 11.5V9" stroke="currentColor"/></svg>
