<svg viewBox="0 0 32 32" fill="none" xmlns="http://www.w3.org/2000/svg" width="1em" height="1em"><circle cx="9.5" cy="9.5" r="5" stroke="currentColor"/><path d="M23.0682 4.7327C23.2611 4.40195 23.739 4.40195 23.932 4.7327L29.1909 13.7481C29.3853 14.0814 29.1449 14.5 28.759 14.5L18.241 14.5C17.8552 14.5 17.6147 14.0814 17.8092 13.7481L23.0682 4.7327Z" stroke="currentColor"/><path d="M23.0682 17.7327C23.2611 17.4019 23.739 17.4019 23.932 17.7327L29.1909 26.7481C29.3853 27.0814 29.1449 27.5 28.759 27.5H18.241C17.8552 27.5 17.6147 27.0814 17.8092 26.7481L23.0682 17.7327Z" stroke="currentColor"/><path d="M8.56819 17.7327C8.76113 17.4019 9.23903 17.4019 9.43197 17.7327L14.6909 26.7481C14.8853 27.0814 14.6449 27.5 14.259 27.5H3.74105C3.35515 27.5 3.11472 27.0814 3.30916 26.7481L8.56819 17.7327Z" stroke="currentColor"/></svg>
