<svg xmlns="http://www.w3.org/2000/svg" fill="none" viewBox="0 0 32 32" width="1em" height="1em"><path stroke="currentColor" d="M3 13.5h22"/><circle cx="4.5" cy="11.5" r=".25" stroke="currentColor" stroke-width=".5"/><circle cx="6.5" cy="11.5" r=".25" stroke="currentColor" stroke-width=".5"/><circle cx="8.5" cy="11.5" r=".25" stroke="currentColor" stroke-width=".5"/><path stroke="currentColor" d="M2.5 11A1.5 1.5 0 0 1 4 9.5h20a1.5 1.5 0 0 1 1.5 1.5v13a1.5 1.5 0 0 1-1.5 1.5H4A1.5 1.5 0 0 1 2.5 24z"/><circle cx="9.5" cy="6.5" r=".25" stroke="currentColor" stroke-width=".5"/><circle cx="11.5" cy="6.5" r=".25" stroke="currentColor" stroke-width=".5"/><circle cx="13.5" cy="6.5" r=".25" stroke="currentColor" stroke-width=".5"/><path stroke="currentColor" stroke-linecap="round" d="M7.5 7v-.5a2 2 0 0 1 2-2h18a2 2 0 0 1 2 2v13a1 1 0 0 1-1 1v0"/></svg>
