<svg xmlns="http://www.w3.org/2000/svg" fill="none" viewBox="0 0 24 24" width="1em" height="1em"><path stroke="currentColor" d="M2.5 11A1.5 1.5 0 0 1 4 9.5h11a1.5 1.5 0 0 1 1.5 1.5v7a1.5 1.5 0 0 1-1.5 1.5H4A1.5 1.5 0 0 1 2.5 18v-7Z"/><circle cx="4.5" cy="11.5" r=".25" stroke="currentColor" stroke-width=".5"/><circle cx="6.5" cy="11.5" r=".25" stroke="currentColor" stroke-width=".5"/><circle cx="8.5" cy="11.5" r=".25" stroke="currentColor" stroke-width=".5"/><path stroke="currentColor" stroke-linecap="round" d="M7.5 6.5v0a2 2 0 0 1 2-2h10a2 2 0 0 1 2 2v6a2 2 0 0 1-2 2v0"/><path stroke="currentColor" stroke-width=".5" d="M9.75 6.5a.25.25 0 1 1-.5 0 .25.25 0 0 1 .5 0Zm2 0a.25.25 0 1 1-.5 0 .25.25 0 0 1 .5 0Zm2 0a.25.25 0 1 1-.5 0 .25.25 0 0 1 .5 0Z"/></svg>
