<svg xmlns="http://www.w3.org/2000/svg" fill="none" viewBox="0 0 32 32" width="1em" height="1em"><path stroke="currentColor" stroke-linecap="round" d="M23.845 5.012A13.44 13.44 0 0 0 16 2.5C8.544 2.5 2.5 8.544 2.5 16S8.544 29.5 16 29.5 29.5 23.456 29.5 16c0-2.576-.722-4.984-1.974-7.033"/><path stroke="currentColor" stroke-linecap="round" stroke-linejoin="round" d="m23.5 1.5 1.035 3.864-3.863 1.035M12.5 11.5l.756-.756a.83.83 0 0 0 .244-.59V8"/><path stroke="currentColor" stroke-linecap="round" d="M8 16.5h3.5"/><path stroke="currentColor" stroke-linecap="round" stroke-linejoin="round" d="m12.5 21.5.848 1.2a.84.84 0 0 1 .152.481V25M13 12.5a1 1 0 1 1-2 0 1 1 0 0 1 2 0m.5 4a1 1 0 1 1-2 0 1 1 0 0 1 2 0m-.5 4a1 1 0 1 0-2 0 1 1 0 0 0 2 0m6.5-9-.756-.756a.83.83 0 0 1-.244-.59V8"/><path stroke="currentColor" stroke-linecap="round" d="M24 16.5h-3.5"/><path stroke="currentColor" stroke-linecap="round" stroke-linejoin="round" d="m19.5 21.5-.848 1.2a.83.83 0 0 0-.152.481V25m.5-12.5a1 1 0 1 0 2 0 1 1 0 0 0-2 0m-.5 4a1 1 0 1 0 2 0 1 1 0 0 0-2 0m.5 4a1 1 0 1 1 2 0 1 1 0 0 1-2 0"/><path stroke="currentColor" stroke-linecap="round" stroke-linejoin="round" d="M8 16.028C8 6.51 16 6.315 16 9c0-2.685 8-2.49 8 7.028 0 6.651-5.04 9.524-7.81 9.946q-.19.03-.38 0C13.04 25.552 8 22.68 8 16.028"/><path stroke="currentColor" stroke-linecap="round" d="M16 9v17"/></svg>
