<svg xmlns="http://www.w3.org/2000/svg" fill="none" viewBox="0 0 24 24" width="1em" height="1em"><path stroke="currentColor" stroke-linecap="round" stroke-linejoin="round" d="M12 6.51s-5.5-.462-5.5 5.072C6.5 16.655 9.5 19 12 19"/><path stroke="currentColor" stroke-linecap="round" d="M9.5 12.5a.5.5 0 0 1-.5.5v0a.5.5 0 0 1-.5-.5v0A.5.5 0 0 1 9 12v0a.5.5 0 0 1 .5.5zm.5-3a.5.5 0 0 1-.5.5v0a.5.5 0 0 1-.5-.5v0a.5.5 0 0 1 .5-.5v0a.5.5 0 0 1 .5.5z"/><rect width=".875" height=".875" x="10.25" y="16" stroke="currentColor" stroke-linecap="round" rx=".438" transform="rotate(180 10.25 16)"/><path stroke="currentColor" stroke-linecap="round" d="M9 9 8 8m2 7.5L8.5 17M12 6.5V19m0-6.5H9.375"/><path stroke="currentColor" stroke-linecap="round" stroke-linejoin="round" d="M12 6.51s5.5-.462 5.5 5.072c0 5.073-3 7.418-5.5 7.418"/><path stroke="currentColor" stroke-linecap="round" d="M14.5 12.5a.5.5 0 0 0 .5.5v0a.5.5 0 0 0 .5-.5v0a.5.5 0 0 0-.5-.5v0a.5.5 0 0 0-.5.5zm-.5-3a.5.5 0 0 0 .5.5v0a.5.5 0 0 0 .5-.5v0a.5.5 0 0 0-.5-.5v0a.5.5 0 0 0-.5.5z"/><rect width=".875" height=".875" stroke="currentColor" stroke-linecap="round" rx=".438" transform="matrix(1 0 0 -1 13.75 16)"/><path stroke="currentColor" stroke-linecap="round" d="m15 9 1-1m-2 7.5 1.5 1.5M12 12.5h2.625"/><path fill="currentColor" d="M20.964 7.03a.5.5 0 0 0-.853.522zM12 3c2.06 0 3.964.655 5.52 1.767l.582-.813A10.46 10.46 0 0 0 12 2zm-9.5 9.5A9.5 9.5 0 0 1 12 3V2C6.201 2 1.5 6.701 1.5 12.5zM12 22a9.5 9.5 0 0 1-9.5-9.5h-1C1.5 18.299 6.201 23 12 23zm9.5-9.5A9.5 9.5 0 0 1 12 22v1c5.799 0 10.5-4.701 10.5-10.5zm-1.389-4.948A9.45 9.45 0 0 1 21.5 12.5h1c0-2.003-.561-3.877-1.536-5.47z"/><path stroke="currentColor" stroke-linecap="round" stroke-linejoin="round" d="m17.56 1.663.777 2.898-2.898.776"/></svg>
