<svg xmlns="http://www.w3.org/2000/svg" fill="none" viewBox="0 0 16 16" width="1em" height="1em"><path stroke="currentColor" d="M8.5 2a.5.5 0 1 1-1 0 .5.5 0 0 1 1 0ZM8 2v2"/><circle cx="10.5" cy="8.5" r=".25" stroke="currentColor" stroke-width=".5"/><circle cx="5.5" cy="8.5" r=".25" stroke="currentColor" stroke-width=".5"/><path stroke="currentColor" stroke-linecap="round" stroke-linejoin="round" d="M6.5 9.5c0 .333.375 1 1.5 1s1.5-.667 1.5-1"/><path stroke="currentColor" d="M2.5 5.5V12a1 1 0 0 0 1 1h9a1 1 0 0 0 1-1V5.5a1 1 0 0 0-1-1h-9a1 1 0 0 0-1 1Z"/><rect width="1" height="2" x="13.5" y="7.5" stroke="currentColor" rx=".5"/><rect width="1" height="2" x="1.5" y="7.5" stroke="currentColor" rx=".5"/></svg>
