<svg xmlns="http://www.w3.org/2000/svg" fill="none" viewBox="0 0 24 24" width="1em" height="1em"><circle cx="8" cy="12" r=".5" stroke="currentColor"/><circle cx="16" cy="12" r=".5" stroke="currentColor"/><path stroke="currentColor" stroke-linecap="round" stroke-linejoin="round" d="M10 13.5s.5 1 2 1 2-1 2-1"/><path stroke="currentColor" d="M4.5 10.5h-1a1 1 0 0 0-1 1v2.364a1 1 0 0 0 1 1h1M20 10.5h.5a1 1 0 0 1 1 1v2.364a1 1 0 0 1-1 1H20"/><circle cx="12" cy="3.5" r="1" stroke="currentColor"/><path stroke="currentColor" d="M12 4v2M4.5 8.5v8a2 2 0 0 0 2 2h11a2 2 0 0 0 2-2v-8a2 2 0 0 0-2-2h-11a2 2 0 0 0-2 2Z"/></svg>
