<svg viewBox="0 0 32 32" fill="none" xmlns="http://www.w3.org/2000/svg" width="1em" height="1em"><rect x="2.5" y="2.5" width="27" height="27" rx="1.5" stroke="currentColor"/><path d="M11 22.5C11 23.3284 10.3284 24 9.5 24C8.67157 24 8 23.3284 8 22.5C8 21.6716 8.67157 21 9.5 21C10.3284 21 11 21.6716 11 22.5Z" stroke="currentColor"/><path d="M8 14.5C7.72386 14.5 7.5 14.7239 7.5 15C7.5 15.2761 7.72386 15.5 8 15.5V14.5ZM16.5 24C16.5 24.2761 16.7239 24.5 17 24.5C17.2761 24.5 17.5 24.2761 17.5 24H16.5ZM8 7.5C7.72386 7.5 7.5 7.72386 7.5 8C7.5 8.27614 7.72386 8.5 8 8.5V7.5ZM23.5 24C23.5 24.2761 23.7239 24.5 24 24.5C24.2761 24.5 24.5 24.2761 24.5 24H23.5ZM8 15.5C12.6944 15.5 16.5 19.3056 16.5 24H17.5C17.5 18.7533 13.2467 14.5 8 14.5V15.5ZM8 8.5C16.5604 8.5 23.5 15.4396 23.5 24H24.5C24.5 14.8873 17.1127 7.5 8 7.5V8.5Z" fill="currentColor"/></svg>
