<svg viewBox="0 0 16 16" fill="none" xmlns="http://www.w3.org/2000/svg" width="1em" height="1em"><rect x="1.5" y="1.5" width="13" height="13" rx="1.5" stroke="currentColor"/><circle cx="5" cy="11" r="0.5" stroke="currentColor"/><path d="M4.5 7C4.22386 7 4 7.22386 4 7.5C4 7.77614 4.22386 8 4.5 8V7ZM8 11.5C8 11.7761 8.22386 12 8.5 12C8.77614 12 9 11.7761 9 11.5H8ZM4 3.5C3.72386 3.5 3.5 3.72386 3.5 4C3.5 4.27614 3.72386 4.5 4 4.5V3.5ZM11.5 12C11.5 12.2761 11.7239 12.5 12 12.5C12.2761 12.5 12.5 12.2761 12.5 12H11.5ZM4.5 8C6.433 8 8 9.567 8 11.5H9C9 9.01472 6.98528 7 4.5 7V8ZM4 4.5C8.14214 4.5 11.5 7.85786 11.5 12H12.5C12.5 7.30558 8.69442 3.5 4 3.5V4.5Z" fill="currentColor"/></svg>
