<svg viewBox="0 0 24 24" fill="none" xmlns="http://www.w3.org/2000/svg" width="1em" height="1em"><rect x="2.5" y="2.5" width="19" height="19" rx="1.5" stroke="currentColor"/><path d="M8.5 16.5C8.5 17.0523 8.05228 17.5 7.5 17.5C6.94772 17.5 6.5 17.0523 6.5 16.5C6.5 15.9477 6.94772 15.5 7.5 15.5C8.05228 15.5 8.5 15.9477 8.5 16.5Z" stroke="currentColor"/><path d="M6 10.5C5.72386 10.5 5.5 10.7239 5.5 11C5.5 11.2761 5.72386 11.5 6 11.5V10.5ZM12.5 18C12.5 18.2761 12.7239 18.5 13 18.5C13.2761 18.5 13.5 18.2761 13.5 18H12.5ZM6 5.5C5.72386 5.5 5.5 5.72386 5.5 6C5.5 6.27614 5.72386 6.5 6 6.5V5.5ZM17.5 18C17.5 18.2761 17.7239 18.5 18 18.5C18.2761 18.5 18.5 18.2761 18.5 18H17.5ZM6 11.5C9.58985 11.5 12.5 14.4101 12.5 18H13.5C13.5 13.8579 10.1421 10.5 6 10.5V11.5ZM6 6.5C12.3513 6.5 17.5 11.6487 17.5 18H18.5C18.5 11.0964 12.9036 5.5 6 5.5V6.5Z" fill="currentColor"/></svg>
