<svg xmlns="http://www.w3.org/2000/svg" fill="none" viewBox="0 0 24 24" width="1em" height="1em"><path stroke="currentColor" d="M20.625 16.5h-5.25a.875.875 0 0 1-.875-.875v-7.25c0-.483.392-.875.875-.875h3.782c.264 0 .514.12.68.324l1.468 1.812c.126.156.195.35.195.551v5.438a.875.875 0 0 1-.875.875Z"/><path stroke="currentColor" d="M19.5 7.531v2.302c0 .384.314.693.698.687l1.27-.02"/><path stroke="currentColor" stroke-linecap="round" d="M16.5 11.5h2m-2 2h3"/><path stroke="currentColor" stroke-linecap="round" stroke-linejoin="round" d="M11.5 10.5 13 12l-1.5 1.5"/><path stroke="currentColor" d="M8.625 16.5h-5.25a.875.875 0 0 1-.875-.875v-7.25c0-.483.392-.875.875-.875h3.782c.264 0 .514.12.68.324l1.468 1.812c.126.156.195.35.195.551v5.438a.875.875 0 0 1-.875.875Z"/><path stroke="currentColor" d="M7.5 7.531v2.302c0 .384.314.693.698.687l1.27-.02"/><path stroke="currentColor" stroke-linecap="round" d="M4.5 11.5h2m-2 2h3"/></svg>
