<svg xmlns="http://www.w3.org/2000/svg" fill="none" viewBox="0 0 16 16" width="1em" height="1em"><path stroke="currentColor" d="M6.5 6A1.5 1.5 0 0 1 8 4.5h5A1.5 1.5 0 0 1 14.5 6v7a1.5 1.5 0 0 1-1.5 1.5H8A1.5 1.5 0 0 1 6.5 13V6Z"/><path fill="currentColor" fill-rule="evenodd" d="M8 7.5a.5.5 0 0 1 .5-.5h4a.5.5 0 0 1 0 1h-4a.5.5 0 0 1-.5-.5Zm0 2a.5.5 0 0 1 .5-.5h4a.5.5 0 0 1 0 1h-4a.5.5 0 0 1-.5-.5Zm.5 1.5a.5.5 0 0 0 0 1h4a.5.5 0 0 0 0-1h-4Z" clip-rule="evenodd"/><path stroke="currentColor" d="M9.5 4.5v-1a1 1 0 0 0-1-1h-6a1 1 0 0 0-1 1v8a1 1 0 0 0 1 1h4"/><path fill="currentColor" fill-rule="evenodd" d="M3 5.5a.5.5 0 0 1 .5-.5h3a.5.5 0 0 1 0 1h-3a.5.5 0 0 1-.5-.5Zm0 2a.5.5 0 0 1 .5-.5h3a.5.5 0 0 1 0 1h-3a.5.5 0 0 1-.5-.5ZM3.5 9a.5.5 0 0 0 0 1h3a.5.5 0 0 0 0-1h-3Z" clip-rule="evenodd"/></svg>
