<svg viewBox="0 0 32 32" fill="none" xmlns="http://www.w3.org/2000/svg" width="1em" height="1em"><path d="M13 16L18.5 16" stroke="currentColor" stroke-linecap="round" stroke-linejoin="round"/><path d="M16.5 14L18.5 16L16.5 18" stroke="currentColor" stroke-linecap="round" stroke-linejoin="round"/><path d="M18.5 12.5L24.5665 12.5C25.1319 12.5 25.6709 12.7393 26.0501 13.1587L28.9835 16.4032C29.316 16.7709 29.5 17.2489 29.5 17.7445V23.5V25.5C29.5 26.6046 28.6046 27.5 27.5 27.5H19.5C18.3954 27.5 17.5 26.6046 17.5 25.5L17.5 20.5" stroke="currentColor" stroke-linecap="round"/><path d="M25.4545 12.5L25.4545 16.5C25.4545 17.0523 25.9022 17.5 26.4545 17.5H29.4999" stroke="currentColor"/><path d="M20.5 17.5H22.5" stroke="currentColor" stroke-linecap="round"/><path d="M20.5002 20.5H25.4997" stroke="currentColor" stroke-linecap="round"/><path d="M20.5002 23.5H25.5002" stroke="currentColor" stroke-linecap="round"/><path d="M14.5 12.5L14.5 11.7445C14.5 11.2489 14.316 10.7709 13.9835 10.4032L11.0501 7.15869C10.6709 6.7393 10.1319 6.5 9.56654 6.5L4.5 6.5C3.39543 6.5 2.5 7.39543 2.5 8.5L2.5 19.5C2.5 20.6046 3.39543 21.5 4.5 21.5H12.5C13.6046 21.5 14.5 20.6046 14.5 19.5V19.5" stroke="currentColor" stroke-linecap="round"/><path d="M10.4545 6.5L10.4545 10.5C10.4545 11.0523 10.9022 11.5 11.4545 11.5H14.4999" stroke="currentColor"/><path d="M5.5 11.5H7.5" stroke="currentColor" stroke-linecap="round"/><path d="M5.50023 14.5H10.4997" stroke="currentColor" stroke-linecap="round"/><path d="M5.50018 17.5H10.5002" stroke="currentColor" stroke-linecap="round"/></svg>
