<svg xmlns="http://www.w3.org/2000/svg" fill="none" viewBox="0 0 32 32" width="1em" height="1em"><path stroke="currentColor" stroke-linecap="round" stroke-linejoin="round" d="M13 16h5.5m-2-2 2 2-2 2"/><path stroke="currentColor" stroke-linecap="round" d="M18.5 12.5h6.067a2 2 0 0 1 1.483.659l2.933 3.244a2 2 0 0 1 .517 1.341V25.5a2 2 0 0 1-2 2h-8a2 2 0 0 1-2-2v-5"/><path stroke="currentColor" d="M25.454 12.5v4a1 1 0 0 0 1 1H29.5"/><path stroke="currentColor" stroke-linecap="round" d="M20.5 17.5h2m-2 3h5m-5 3h5m-11-11v-.755a2 2 0 0 0-.517-1.342L11.05 7.16a2 2 0 0 0-1.483-.66H4.5a2 2 0 0 0-2 2v11a2 2 0 0 0 2 2h8a2 2 0 0 0 2-2v0"/><path stroke="currentColor" d="M10.454 6.5v4a1 1 0 0 0 1 1H14.5"/><path stroke="currentColor" stroke-linecap="round" d="M5.5 11.5h2m-2 3h5m-5 3h5"/></svg>
