<svg xmlns="http://www.w3.org/2000/svg" fill="none" viewBox="0 0 32 32" width="1em" height="1em"><rect width="19" height="25" x="6.5" y="3.5" stroke="currentColor" rx="1.5"/><path fill="currentColor" fill-rule="evenodd" d="M14.5 11a.5.5 0 0 0 0 1h7a.5.5 0 0 0 0-1zm0 2a.5.5 0 0 0 0 1h4a.5.5 0 0 0 0-1zm0 4a.5.5 0 0 0 0 1h7a.5.5 0 0 0 0-1zm0 2a.5.5 0 0 0 0 1h4a.5.5 0 0 0 0-1zm0 4a.5.5 0 0 0 0 1h7a.5.5 0 0 0 0-1zm0 2a.5.5 0 0 0 0 1h4a.5.5 0 0 0 0-1z" clip-rule="evenodd"/><rect width="3" height="3" x="9.5" y="11.5" stroke="currentColor" rx=".5"/><rect width="3" height="3" x="9.5" y="17.5" stroke="currentColor" rx=".5"/><rect width="3" height="3" x="9.5" y="23.5" stroke="currentColor" rx=".5"/><circle cx="20" cy="7" r="1.5" stroke="currentColor"/><path fill="currentColor" d="m21.854 8.146-.354-.353-.707.707.353.354zm.292 1.708a.5.5 0 0 0 .708-.708zm-1-1 1 1 .708-.708-1-1z"/><path stroke="currentColor" stroke-linecap="round" d="M9.5 7.5h7"/></svg>
