<svg xmlns="http://www.w3.org/2000/svg" fill="none" viewBox="0 0 24 24" width="1em" height="1em"><rect width="15" height="19" x="4.5" y="2.5" stroke="currentColor" rx="1.5"/><path fill="currentColor" fill-rule="evenodd" d="M11.5 10a.5.5 0 0 0 0 1h5a.5.5 0 0 0 0-1h-5Zm0 2a.5.5 0 0 0 0 1h3a.5.5 0 0 0 0-1h-3Z" clip-rule="evenodd"/><rect width="2" height="2" x="7.5" y="10.5" stroke="currentColor" rx=".5"/><path fill="currentColor" fill-rule="evenodd" d="M11.5 15a.5.5 0 0 0 0 1h5a.5.5 0 0 0 0-1h-5Zm0 2a.5.5 0 0 0 0 1h3a.5.5 0 0 0 0-1h-3Z" clip-rule="evenodd"/><rect width="2" height="2" x="7.5" y="15.5" stroke="currentColor" rx=".5"/><circle cx="15" cy="6" r="1.5" stroke="currentColor"/><path fill="currentColor" d="m16.854 7.146-.354-.353-.707.707.353.354.708-.708Zm.292 1.708a.5.5 0 0 0 .708-.708l-.708.708Zm-1-1 1 1 .708-.708-1-1-.708.708Z"/><path stroke="currentColor" stroke-linecap="round" d="M7.5 6.5h6"/></svg>
