<svg viewBox="0 0 24 24" fill="none" xmlns="http://www.w3.org/2000/svg" width="1em" height="1em"><path d="M8.49988 19.5391V18.5C8.49988 16.2909 10.2907 14.5 12.4999 14.5L17.4999 14.5C19.709 14.5 21.4999 16.2909 21.4999 18.5V19.5391" stroke="currentColor" stroke-linecap="round"/><path d="M15 11.5C16.3807 11.5 17.5 10.3807 17.5 9C17.5 7.61929 16.3807 6.5 15 6.5C13.6193 6.5 12.5 7.61929 12.5 9C12.5 10.3807 13.6193 11.5 15 11.5Z" stroke="currentColor" stroke-linecap="round" stroke-linejoin="round"/><path d="M2.5 16.5L2.5 15.5C2.5 13.2909 4.29086 11.5 6.5 11.5L8.5 11.5" stroke="currentColor" stroke-linecap="round"/><path d="M6.5 8.5C7.60457 8.5 8.5 7.60457 8.5 6.5C8.5 5.39543 7.60457 4.5 6.5 4.5C5.39543 4.5 4.5 5.39543 4.5 6.5C4.5 7.60457 5.39543 8.5 6.5 8.5Z" stroke="currentColor" stroke-linecap="round" stroke-linejoin="round"/></svg>
