<svg viewBox="0 0 16 16" fill="none" xmlns="http://www.w3.org/2000/svg" width="1em" height="1em"><path d="M5.49988 12.5V11.5C5.49988 9.84315 6.84302 8.5 8.49988 8.5L11.4999 8.5C13.1567 8.5 14.4999 9.84315 14.4999 11.5V12.5" stroke="currentColor" stroke-linecap="round"/><path d="M10 6.5C10.8284 6.5 11.5 5.82843 11.5 5C11.5 4.17157 10.8284 3.5 10 3.5C9.17157 3.5 8.5 4.17157 8.5 5C8.5 5.82843 9.17157 6.5 10 6.5Z" stroke="currentColor" stroke-linecap="round" stroke-linejoin="round"/><path d="M1.5 10.5L1.5 9.5C1.5 7.84315 2.84315 6.5 4.5 6.5H5.5" stroke="currentColor" stroke-linecap="round"/><path d="M4.5 4.5C5.05228 4.5 5.5 4.05228 5.5 3.5C5.5 2.94772 5.05228 2.5 4.5 2.5C3.94772 2.5 3.5 2.94772 3.5 3.5C3.5 4.05228 3.94772 4.5 4.5 4.5Z" stroke="currentColor" stroke-linecap="round" stroke-linejoin="round"/></svg>
