<svg xmlns="http://www.w3.org/2000/svg" fill="none" viewBox="0 0 32 32" width="1em" height="1em"><path stroke="currentColor" stroke-linecap="round" d="M12.5 25.5v-1a5 5 0 0 1 5-5h7a5 5 0 0 1 5 5v1"/><path stroke="currentColor" stroke-linecap="round" stroke-linejoin="round" d="M21 16.5a3.5 3.5 0 1 0 0-7 3.5 3.5 0 0 0 0 7"/><path stroke="currentColor" stroke-linecap="round" d="M2.5 20.5v-1a5 5 0 0 1 5-5h4"/><path stroke="currentColor" stroke-linecap="round" stroke-linejoin="round" d="M9 11.5a2.5 2.5 0 1 0 0-5 2.5 2.5 0 0 0 0 5"/></svg>
