<svg xmlns="http://www.w3.org/2000/svg" fill="none" viewBox="0 0 24 24" width="1em" height="1em"><path stroke="currentColor" stroke-linecap="round" d="M8.5 19.54V18.5a4 4 0 0 1 4-4h5a4 4 0 0 1 4 4v1.04"/><path stroke="currentColor" stroke-linecap="round" stroke-linejoin="round" d="M15 11.5a2.5 2.5 0 1 0 0-5 2.5 2.5 0 0 0 0 5Z"/><path stroke="currentColor" stroke-linecap="round" d="M2.5 16.5v-1a4 4 0 0 1 4-4h2"/><path stroke="currentColor" stroke-linecap="round" stroke-linejoin="round" d="M6.5 8.5a2 2 0 1 0 0-4 2 2 0 0 0 0 4Z"/></svg>
