<svg xmlns="http://www.w3.org/2000/svg" fill="none" viewBox="0 0 16 16" width="1em" height="1em"><path stroke="currentColor" stroke-linecap="round" d="M5.5 12.5v-1a3 3 0 0 1 3-3h3a3 3 0 0 1 3 3v1"/><path stroke="currentColor" stroke-linecap="round" stroke-linejoin="round" d="M10 6.5a1.5 1.5 0 1 0 0-3 1.5 1.5 0 0 0 0 3"/><path stroke="currentColor" stroke-linecap="round" d="M1.5 10.5v-1a3 3 0 0 1 3-3h1"/><path stroke="currentColor" stroke-linecap="round" stroke-linejoin="round" d="M4.5 4.5a1 1 0 1 0 0-2 1 1 0 0 0 0 2"/></svg>
