<svg xmlns="http://www.w3.org/2000/svg" fill="none" viewBox="0 0 16 16" width="1em" height="1em"><path stroke="currentColor" stroke-linecap="round" d="M5 14.5h6m-3-13v13"/><path stroke="currentColor" stroke-linejoin="round" d="M14.363 7.818a2.501 2.501 0 0 1-4.726 0c-.025-.07-.012-.128.042-.188.063-.07.18-.13.321-.13h4c.142 0 .258.06.321.13.054.06.067.118.042.188Zm-8 2a2.501 2.501 0 0 1-4.726 0c-.025-.07-.012-.128.042-.188.063-.07.18-.13.321-.13h4c.142 0 .258.06.321.13.054.06.067.118.042.188Z"/><path fill="currentColor" d="m4 5 .464-.186a.5.5 0 0 0-.928 0L4 5Zm1.536 5.186a.5.5 0 1 0 .928-.372l-.928.372Zm-3.072 0 2-5-.928-.372-2 5 .928.372Zm1.072-5 2 5 .928-.372-2-5-.928.372ZM12 3l.464-.186a.5.5 0 0 0-.928 0L12 3Zm1.536 5.186a.5.5 0 1 0 .928-.372l-.928.372Zm-3.072 0 2-5-.928-.372-2 5 .928.372Zm1.072-5 2 5 .928-.372-2-5-.928.372Z"/><path stroke="currentColor" stroke-linecap="round" d="m2 5 11.591-3.105"/></svg>
