<svg xmlns="http://www.w3.org/2000/svg" fill="none" viewBox="0 0 24 24" width="1em" height="1em"><path stroke="currentColor" stroke-linecap="round" d="M8.5 21.5h7M12 8.5v13"/><path stroke="currentColor" stroke-linejoin="round" d="M21.675 10.903a3.11 3.11 0 0 1-5.982 0 .22.22 0 0 1 .056-.218.45.45 0 0 1 .326-.133h5.218c.141 0 .26.06.327.133.06.066.078.136.055.218Z"/><path fill="currentColor" d="m18.684 5 .453-.211a.5.5 0 0 0-.906 0zm2.073 5.624a.5.5 0 0 0 .906-.422zm-4.146 0 2.526-5.413-.906-.422-2.526 5.413zm1.62-5.413 2.526 5.413.906-.422-2.526-5.413z"/><path stroke="currentColor" stroke-linejoin="round" d="M8.684 14.511a3.11 3.11 0 0 1-5.982 0 .22.22 0 0 1 .055-.218.45.45 0 0 1 .327-.133h5.217c.142 0 .26.06.327.133q.09.096.056.218Z"/><path fill="currentColor" d="m5.693 8.608.453-.211a.5.5 0 0 0-.907 0zm2.073 5.625a.5.5 0 0 0 .906-.423zm-4.146 0L6.146 8.82l-.907-.423-2.526 5.413zM5.24 8.82l2.526 5.413.906-.423-2.526-5.413z"/><circle cx="12" cy="7" r="1.5" stroke="currentColor"/><path stroke="currentColor" stroke-linecap="round" d="m13.449 6.112 7.727-2.07M2.824 8.958l7.244-1.941"/></svg>
