<svg viewBox="0 0 24 24" fill="none" xmlns="http://www.w3.org/2000/svg" width="1em" height="1em"><path d="M8.5 21C8.22386 21 8 21.2239 8 21.5C8 21.7761 8.22386 22 8.5 22V21ZM15.5 22C15.7761 22 16 21.7761 16 21.5C16 21.2239 15.7761 21 15.5 21V22ZM12.5 8.5C12.5 8.22386 12.2761 8 12 8C11.7239 8 11.5 8.22386 11.5 8.5L12.5 8.5ZM11.5 21.5C11.5 21.7761 11.7239 22 12 22C12.2761 22 12.5 21.7761 12.5 21.5H11.5ZM8.5 22H15.5V21H8.5V22ZM11.5 8.5L11.5 21.5H12.5L12.5 8.5L11.5 8.5Z" fill="currentColor"/><path d="M21.6748 10.9033C21.3047 12.2069 20.1051 13.1609 18.6839 13.1609C17.2627 13.1609 16.0631 12.2069 15.693 10.9033C15.6696 10.821 15.6881 10.7505 15.7483 10.6849C15.8156 10.6116 15.9336 10.5522 16.0752 10.5522H21.2926C21.4342 10.5522 21.5522 10.6116 21.6195 10.6849C21.6797 10.7505 21.6982 10.821 21.6748 10.9033Z" stroke="currentColor" stroke-linejoin="round"/><path d="M18.6838 5L19.1369 4.78856C19.0547 4.61252 18.8781 4.5 18.6838 4.5C18.4895 4.5 18.3129 4.61252 18.2307 4.78856L18.6838 5ZM20.7568 10.6245C20.8736 10.8747 21.1711 10.9829 21.4213 10.8661C21.6716 10.7494 21.7798 10.4518 21.663 10.2016L20.7568 10.6245ZM16.6108 10.6245L19.1369 5.21144L18.2307 4.78856L15.7046 10.2016L16.6108 10.6245ZM18.2307 5.21144L20.7568 10.6245L21.663 10.2016L19.1369 4.78856L18.2307 5.21144Z" fill="currentColor"/><path d="M8.68358 14.5112C8.31349 15.8148 7.11386 16.7689 5.69268 16.7689C4.27151 16.7689 3.07188 15.8148 2.70179 14.5112C2.67843 14.4289 2.69692 14.3584 2.75713 14.2928C2.8244 14.2195 2.94242 14.1602 3.08398 14.1602H8.30138C8.44295 14.1602 8.56097 14.2195 8.62824 14.2928C8.68844 14.3584 8.70694 14.4289 8.68358 14.5112Z" stroke="currentColor" stroke-linejoin="round"/><path d="M5.69259 8.6084L6.14569 8.39696C6.06353 8.22092 5.88686 8.1084 5.69259 8.1084C5.49833 8.1084 5.32165 8.22092 5.2395 8.39696L5.69259 8.6084ZM7.76559 14.2329C7.88237 14.4831 8.17989 14.5913 8.43013 14.4745C8.68036 14.3578 8.78855 14.0602 8.67178 13.81L7.76559 14.2329ZM3.6196 14.2329L6.14569 8.81984L5.2395 8.39696L2.71341 13.81L3.6196 14.2329ZM5.2395 8.81984L7.76559 14.2329L8.67178 13.81L6.14569 8.39696L5.2395 8.81984Z" fill="currentColor"/><circle cx="12" cy="7" r="1.5" stroke="currentColor"/><path d="M13.4489 6.11197L21.1763 4.04142M2.82373 8.95898L10.0682 7.01784" stroke="currentColor" stroke-linecap="round"/></svg>
