<svg xmlns="http://www.w3.org/2000/svg" fill="none" viewBox="0 0 32 32" width="1em" height="1em"><path stroke="currentColor" stroke-linecap="round" d="M11 27.5h10m-5-18v18"/><path stroke="currentColor" stroke-linejoin="round" d="M29.411 13.895a4.502 4.502 0 0 1-8.822 0 .28.28 0 0 1 .077-.259A.46.46 0 0 1 21 13.5h8a.46.46 0 0 1 .334.136.28.28 0 0 1 .077.259Z"/><path fill="currentColor" d="m25 6 .453-.211a.5.5 0 0 0-.906 0zm3.047 7.711a.5.5 0 1 0 .906-.422zm-6.094 0 3.5-7.5-.906-.422-3.5 7.5zm2.594-7.5 3.5 7.5.906-.422-3.5-7.5z"/><path stroke="currentColor" stroke-linejoin="round" d="M11.411 18.895a4.502 4.502 0 0 1-8.822 0 .28.28 0 0 1 .077-.259A.46.46 0 0 1 3 18.5h8a.46.46 0 0 1 .334.136.28.28 0 0 1 .077.259Z"/><path fill="currentColor" d="m7 11 .453-.211a.5.5 0 0 0-.906 0zm3.047 7.711a.5.5 0 1 0 .906-.422zm-6.094 0 3.5-7.5-.906-.422-3.5 7.5zm2.594-7.5 3.5 7.5.906-.422-3.5-7.5z"/><circle cx="16" cy="8" r="1.5" stroke="currentColor"/><path stroke="currentColor" stroke-linecap="round" d="M17.933 7.728 29.08 4.741M3 11.73l11.553-3.096"/></svg>
