<svg viewBox="0 0 16 16" fill="none" xmlns="http://www.w3.org/2000/svg" width="1em" height="1em"><rect x="1.5" y="2.5" width="13" height="11" rx="1.5" stroke="currentColor"/><path d="M1.5 4.5H14.5" stroke="currentColor"/><path d="M3.5 11C3.22386 11 3 11.2239 3 11.5C3 11.7761 3.22386 12 3.5 12L3.5 11ZM12.5 12C12.7761 12 13 11.7761 13 11.5C13 11.2239 12.7761 11 12.5 11L12.5 12ZM3.5 12L12.5 12L12.5 11L3.5 11L3.5 12Z" fill="currentColor"/><rect x="3.5" y="6.5" width="9" height="3" rx="0.5" stroke="currentColor"/><path d="M3.7 8.6C3.47909 8.76569 3.43431 9.07909 3.6 9.3C3.76569 9.52091 4.07909 9.56569 4.3 9.4L3.7 8.6ZM6 7.5L6.31235 7.10957C6.13429 6.96712 5.88242 6.96319 5.7 7.1L6 7.5ZM8.18765 9.89043C8.40328 10.0629 8.71793 10.028 8.89043 9.81235C9.06294 9.59672 9.02798 9.28207 8.81235 9.10957L8.18765 9.89043ZM7.22265 8.08397C6.99289 8.23715 6.9308 8.54759 7.08397 8.77735C7.23715 9.00711 7.54759 9.0692 7.77735 8.91603L7.22265 8.08397ZM9 7.5L9.31235 7.10957C9.14232 6.97355 8.90382 6.9632 8.72265 7.08397L9 7.5ZM11.1877 9.89043C11.4033 10.0629 11.7179 10.028 11.8904 9.81235C12.0629 9.59672 12.028 9.28207 11.8123 9.10957L11.1877 9.89043ZM4.3 9.4L6.3 7.9L5.7 7.1L3.7 8.6L4.3 9.4ZM5.68765 7.89043L8.18765 9.89043L8.81235 9.10957L6.31235 7.10957L5.68765 7.89043ZM7.77735 8.91603L9.27735 7.91603L8.72265 7.08397L7.22265 8.08397L7.77735 8.91603ZM8.68765 7.89043L11.1877 9.89043L11.8123 9.10957L9.31235 7.10957L8.68765 7.89043Z" fill="currentColor"/></svg>
