<svg viewBox="0 0 24 24" fill="none" xmlns="http://www.w3.org/2000/svg" width="1em" height="1em"><path d="M14.4545 10C14.1784 10 13.9545 10.2239 13.9545 10.5C13.9545 10.7761 14.1784 11 14.4545 11V10ZM19.5 11C19.7761 11 20 10.7761 20 10.5C20 10.2239 19.7761 10 19.5 10V11ZM14.4545 12.0001C14.1784 12.0001 13.9545 12.224 13.9545 12.5001C13.9545 12.7763 14.1784 13.0001 14.4545 13.0001V12.0001ZM19.5 13.0001C19.7761 13.0001 20 12.7763 20 12.5001C20 12.224 19.7761 12.0001 19.5 12.0001V13.0001ZM14.5 14.0001C14.2239 14.0001 14 14.224 14 14.5001C14 14.7763 14.2239 15.0001 14.5 15.0001V14.0001ZM18.1039 15.0001C18.38 15.0001 18.6039 14.7763 18.6039 14.5001C18.6039 14.224 18.38 14.0001 18.1039 14.0001V15.0001ZM4.5 17.1137C4.22386 17.1137 4 17.3376 4 17.6137C4 17.8898 4.22386 18.1137 4.5 18.1137V17.1137ZM11.5 18.1137C11.7761 18.1137 12 17.8898 12 17.6137C12 17.3376 11.7761 17.1137 11.5 17.1137V18.1137ZM13.5 17.1137C13.2239 17.1137 13 17.3376 13 17.6137C13 17.8898 13.2239 18.1137 13.5 18.1137V17.1137ZM19.5 18.1137C19.7761 18.1137 20 17.8898 20 17.6137C20 17.3376 19.7761 17.1137 19.5 17.1137V18.1137ZM14.4545 11H19.5V10H14.4545V11ZM14.4545 13.0001H19.5V12.0001H14.4545V13.0001ZM14.5 15.0001H18.1039V14.0001H14.5V15.0001ZM4.5 18.1137H11.5V17.1137H4.5V18.1137ZM13.5 18.1137H19.5V17.1137H13.5V18.1137Z" fill="currentColor"/><rect x="4.5" y="9.5" width="8" height="6" rx="1.5" stroke="currentColor"/><path d="M4.83326 14.5L7.33325 12L11.9999 15" stroke="currentColor" stroke-linejoin="round"/><path d="M10.5 11.5C10.5 11.7761 10.2761 12 10 12C9.72386 12 9.5 11.7761 9.5 11.5C9.5 11.2239 9.72386 11 10 11C10.2761 11 10.5 11.2239 10.5 11.5Z" stroke="currentColor"/><rect x="2.5" y="4.5" width="19" height="15" rx="1.5" stroke="currentColor"/><line x1="2.10522" y1="7.5" x2="21.2631" y2="7.5" stroke="currentColor"/><circle cx="4.5" cy="5.97363" r="0.5" fill="currentColor"/><circle cx="6.5" cy="5.97363" r="0.5" fill="currentColor"/><circle cx="8.5" cy="5.97363" r="0.5" fill="currentColor"/></svg>
