<svg viewBox="0 0 32 32" fill="none" xmlns="http://www.w3.org/2000/svg" width="1em" height="1em"><rect x="2.5" y="5.5" width="27" height="21" rx="1.5" stroke="currentColor"/><line x1="3" y1="9.5" x2="29" y2="9.5" stroke="currentColor"/><circle cx="4.5" cy="7.5" r="0.5" fill="currentColor"/><circle cx="6.5" cy="7.5" r="0.5" fill="currentColor"/><circle cx="8.5" cy="7.5" r="0.5" fill="currentColor"/><path d="M18.5 13C18.2239 13 18 13.2239 18 13.5C18 13.7761 18.2239 14 18.5 14V13ZM25.5 14C25.7761 14 26 13.7761 26 13.5C26 13.2239 25.7761 13 25.5 13V14ZM18.5 16C18.2239 16 18 16.2239 18 16.5C18 16.7761 18.2239 17 18.5 17V16ZM25.5 17C25.7761 17 26 16.7761 26 16.5C26 16.2239 25.7761 16 25.5 16V17ZM18.5 19C18.2239 19 18 19.2239 18 19.5C18 19.7761 18.2239 20 18.5 20V19ZM23.5 20C23.7761 20 24 19.7761 24 19.5C24 19.2239 23.7761 19 23.5 19V20ZM4.5 23C4.22386 23 4 23.2239 4 23.5C4 23.7761 4.22386 24 4.5 24V23ZM14 24C14.2761 24 14.5 23.7761 14.5 23.5C14.5 23.2239 14.2761 23 14 23V24ZM16 23C15.7239 23 15.5 23.2239 15.5 23.5C15.5 23.7761 15.7239 24 16 24V23ZM25.5 24C25.7761 24 26 23.7761 26 23.5C26 23.2239 25.7761 23 25.5 23V24ZM18.5 14H25.5V13H18.5V14ZM18.5 17H25.5V16H18.5V17ZM18.5 20H23.5V19H18.5V20ZM4.5 24H14V23H4.5V24ZM16 24H25.5V23H16V24Z" fill="currentColor"/><rect x="4.5" y="12.5" width="11" height="8" rx="1.5" stroke="currentColor"/><path d="M4.5 19L8 16L15 20" stroke="currentColor" stroke-linejoin="round"/><circle cx="12.5" cy="15.5" r="1" stroke="currentColor"/></svg>
