<svg xmlns="http://www.w3.org/2000/svg" fill="none" viewBox="0 0 24 24" width="1em" height="1em"><path stroke="currentColor" stroke-linecap="round" d="M14.455 10.5H19.5m-5.046 2H19.5m-5 2h3.604M4.5 17.614h7m2 0h6"/><rect width="8" height="6" x="4.5" y="9.5" stroke="currentColor" rx="1.5"/><path stroke="currentColor" stroke-linejoin="round" d="m4.833 14.5 2.5-2.5L12 15"/><path stroke="currentColor" d="M10.5 11.5a.5.5 0 1 1-1 0 .5.5 0 0 1 1 0Z"/><rect width="19" height="15" x="2.5" y="4.5" stroke="currentColor" rx="1.5"/><path stroke="currentColor" d="M2.105 7.5h19.158"/><circle cx="4.5" cy="5.974" r=".5" fill="currentColor"/><circle cx="6.5" cy="5.974" r=".5" fill="currentColor"/><circle cx="8.5" cy="5.974" r=".5" fill="currentColor"/></svg>
