<svg viewBox="0 0 24 24" fill="none" xmlns="http://www.w3.org/2000/svg" width="1em" height="1em"><path d="M14.4545 10.5L19.5 10.5M14.4545 12.5001H19.5M14.5 14.5001H18.1039M4.5 17.6137H11.5M13.5 17.6137H19.5" stroke="currentColor" stroke-linecap="round"/><rect x="4.5" y="9.5" width="8" height="6" rx="1.5" stroke="currentColor"/><path d="M4.83338 14.5L7.33337 12L12 15" stroke="currentColor" stroke-linejoin="round"/><path d="M10.5 11.5C10.5 11.7761 10.2761 12 10 12C9.72386 12 9.5 11.7761 9.5 11.5C9.5 11.2239 9.72386 11 10 11C10.2761 11 10.5 11.2239 10.5 11.5Z" stroke="currentColor"/><rect x="2.5" y="4.5" width="19" height="15" rx="1.5" stroke="currentColor"/><line x1="2.10522" y1="7.5" x2="21.2631" y2="7.5" stroke="currentColor"/><circle cx="4.5" cy="5.97363" r="0.5" fill="currentColor"/><circle cx="6.5" cy="5.97363" r="0.5" fill="currentColor"/><circle cx="8.5" cy="5.97363" r="0.5" fill="currentColor"/></svg>
