<svg viewBox="0 0 16 16" fill="none" xmlns="http://www.w3.org/2000/svg" stroke="currentColor"><path d="M10.6374 13.5192C10.5308 13.4888 10.4172 13.4946 10.3143 13.5358L8 14.4615L5.6857 13.5358C5.58282 13.4946 5.46918 13.4888 5.36264 13.5192L2.5 14.3371L2.5 2C2.5 1.72386 2.72386 1.5 3 1.5H13C13.2761 1.5 13.5 1.72386 13.5 2L13.5 14.3371L10.6374 13.5192Z" stroke-linecap="round" stroke-linejoin="round"/><path d="M10 6.24C10 6.51614 10.2239 6.74 10.5 6.74C10.7761 6.74 11 6.51614 11 6.24H10ZM6 8.62C6 8.34386 5.77614 8.12 5.5 8.12C5.22386 8.12 5 8.34386 5 8.62H6ZM8.5 3.5C8.5 3.22386 8.27614 3 8 3C7.72386 3 7.5 3.22386 7.5 3.5H8.5ZM7.5 11.5C7.5 11.7761 7.72386 12 8 12C8.27614 12 8.5 11.7761 8.5 11.5H7.5ZM9.04167 4.2H6.95833V5.2H9.04167V4.2ZM6.95833 8H9.04167V7H6.95833V8ZM9.04167 9.8H6.95833V10.8H9.04167V9.8ZM10 6.1V6.24H11V6.1H10ZM6 8.9V8.62H5V8.9H6ZM6.95833 9.8C6.40963 9.8 6 9.37802 6 8.9H5C5 9.96838 5.89621 10.8 6.95833 10.8V9.8ZM10 8.9C10 9.37802 9.59037 9.8 9.04167 9.8V10.8C10.1038 10.8 11 9.96838 11 8.9H10ZM9.04167 8C9.59037 8 10 8.42198 10 8.9H11C11 7.83162 10.1038 7 9.04167 7V8ZM5 6.1C5 7.16838 5.89621 8 6.95833 8V7C6.40963 7 6 6.57802 6 6.1H5ZM6.95833 4.2C5.89621 4.2 5 5.03162 5 6.1H6C6 5.62198 6.40963 5.2 6.95833 5.2V4.2ZM9.04167 5.2C9.59037 5.2 10 5.62198 10 6.1H11C11 5.03162 10.1038 4.2 9.04167 4.2V5.2ZM7.5 3.5V11.5H8.5V3.5H7.5Z" fill="#282829"/></svg>