<svg xmlns="http://www.w3.org/2000/svg" fill="none" viewBox="0 0 24 24" width="1em" height="1em"><path stroke="currentColor" stroke-linecap="round" stroke-linejoin="round" d="M5.5 4a.5.5 0 0 1 .5-.5h12a.5.5 0 0 1 .5.5v15.557a.5.5 0 0 1-.79.407l-1.338-.956a1.5 1.5 0 0 0-1.744 0l-2.337 1.67a.5.5 0 0 1-.582 0l-2.337-1.67a1.5 1.5 0 0 0-1.744 0l-1.337.956a.5.5 0 0 1-.791-.407V4Z"/><path stroke="currentColor" stroke-linecap="round" d="M15 10.425v-.175a1.75 1.75 0 0 0-1.75-1.75h-2.5a1.75 1.75 0 1 0 0 3.5h2.5a1.75 1.75 0 1 1 0 3.5h-2.5A1.75 1.75 0 0 1 9 13.75v-.35M12 7v10"/></svg>
