<svg viewBox="0 0 32 32" fill="none" xmlns="http://www.w3.org/2000/svg" width="1em" height="1em"><path d="M7.5 3C7.5 2.72386 7.72386 2.5 8 2.5H24C24.2761 2.5 24.5 2.72386 24.5 3V27.9194C24.5 28.3386 24.015 28.5717 23.6877 28.3098L21.0113 26.1687C20.4144 25.6912 19.554 25.7389 19.0136 26.2793L16.3536 28.9393C16.1583 29.1346 15.8417 29.1346 15.6464 28.9393L12.9864 26.2793C12.446 25.7389 11.5856 25.6912 10.9887 26.1687L8.31235 28.3098C7.98497 28.5717 7.5 28.3386 7.5 27.9194V3Z" stroke="currentColor" stroke-linecap="round" stroke-linejoin="round"/><path d="M20.5 12.2083C20.5 12.4845 20.7239 12.7083 21 12.7083C21.2761 12.7083 21.5 12.4845 21.5 12.2083H20.5ZM11.5 17.1667C11.5 16.8905 11.2761 16.6667 11 16.6667C10.7239 16.6667 10.5 16.8905 10.5 17.1667H11.5ZM16.5 6C16.5 5.72386 16.2761 5.5 16 5.5C15.7238 5.5 15.5 5.72386 15.5 6H16.5ZM15.5 23C15.5 23.2761 15.7238 23.5 16 23.5C16.2761 23.5 16.5 23.2761 16.5 23H15.5ZM18.0833 8.5H13.9167V9.5H18.0833V8.5ZM13.9167 15.3333H18.0833V14.3333H13.9167V15.3333ZM18.0833 20.1667H13.9167V21.1667H18.0833V20.1667ZM20.5 11.9167V12.2083H21.5V11.9167H20.5ZM11.5 17.75V17.1667H10.5V17.75H11.5ZM13.9167 20.1667C12.582 20.1667 11.5 19.0847 11.5 17.75H10.5C10.5 19.637 12.0297 21.1667 13.9167 21.1667V20.1667ZM20.5 17.75C20.5 19.0847 19.418 20.1667 18.0833 20.1667V21.1667C19.9703 21.1667 21.5 19.637 21.5 17.75H20.5ZM18.0833 15.3333C19.418 15.3333 20.5 16.4153 20.5 17.75H21.5C21.5 15.863 19.9703 14.3333 18.0833 14.3333V15.3333ZM10.5 11.9167C10.5 13.8036 12.0297 15.3333 13.9167 15.3333V14.3333C12.582 14.3333 11.5 13.2514 11.5 11.9167H10.5ZM13.9167 8.5C12.0297 8.5 10.5 10.0297 10.5 11.9167H11.5C11.5 10.582 12.582 9.5 13.9167 9.5V8.5ZM18.0833 9.5C19.418 9.5 20.5 10.582 20.5 11.9167H21.5C21.5 10.0297 19.9703 8.5 18.0833 8.5V9.5ZM15.5 6V23H16.5V6H15.5Z" fill="currentColor"/></svg>
