<svg viewBox="0 0 24 24" fill="none" xmlns="http://www.w3.org/2000/svg" stroke="currentColor"><path d="M5.5 4C5.5 3.72386 5.72386 3.5 6 3.5H18C18.2761 3.5 18.5 3.72386 18.5 4V19.5568C18.5 19.9635 18.0403 20.2001 17.7094 19.9637L16.3719 19.0083C15.8503 18.6358 15.1497 18.6358 14.6281 19.0083L12.2906 20.678C12.1168 20.8021 11.8832 20.8021 11.7094 20.678L9.37186 19.0083C8.85031 18.6358 8.14969 18.6358 7.62814 19.0083L6.29062 19.9637C5.95968 20.2001 5.5 19.9635 5.5 19.5568V4Z" stroke-linecap="round" stroke-linejoin="round"/><path d="M14.5 10.425C14.5 10.7011 14.7239 10.925 15 10.925C15.2761 10.925 15.5 10.7011 15.5 10.425H14.5ZM9.5 13.4C9.5 13.1239 9.27614 12.9 9 12.9C8.72386 12.9 8.5 13.1239 8.5 13.4H9.5ZM12.5 7C12.5 6.72386 12.2761 6.5 12 6.5C11.7239 6.5 11.5 6.72386 11.5 7H12.5ZM11.5 17C11.5 17.2761 11.7239 17.5 12 17.5C12.2761 17.5 12.5 17.2761 12.5 17H11.5ZM13.25 8H10.75V9H13.25V8ZM10.75 12.5H13.25V11.5H10.75V12.5ZM13.25 15H10.75V16H13.25V15ZM14.5 10.25V10.425H15.5V10.25H14.5ZM9.5 13.75V13.4H8.5V13.75H9.5ZM10.75 15C10.0596 15 9.5 14.4404 9.5 13.75H8.5C8.5 14.9926 9.50736 16 10.75 16V15ZM14.5 13.75C14.5 14.4404 13.9404 15 13.25 15V16C14.4926 16 15.5 14.9926 15.5 13.75H14.5ZM13.25 12.5C13.9404 12.5 14.5 13.0596 14.5 13.75H15.5C15.5 12.5074 14.4926 11.5 13.25 11.5V12.5ZM8.5 10.25C8.5 11.4926 9.50736 12.5 10.75 12.5V11.5C10.0596 11.5 9.5 10.9404 9.5 10.25H8.5ZM10.75 8C9.50736 8 8.5 9.00736 8.5 10.25H9.5C9.5 9.55964 10.0596 9 10.75 9V8ZM13.25 9C13.9404 9 14.5 9.55964 14.5 10.25H15.5C15.5 9.00736 14.4926 8 13.25 8V9ZM11.5 7V17H12.5V7H11.5Z" fill="#282829"/></svg>
