<svg xmlns="http://www.w3.org/2000/svg" fill="none" viewBox="0 0 32 32" width="1em" height="1em"><path stroke="currentColor" stroke-linecap="round" stroke-linejoin="round" d="M7.5 3a.5.5 0 0 1 .5-.5h16a.5.5 0 0 1 .5.5v24.92a.5.5 0 0 1-.812.39l-2.677-2.141a1.5 1.5 0 0 0-1.997.11l-2.66 2.66a.5.5 0 0 1-.708 0l-2.66-2.66a1.5 1.5 0 0 0-1.997-.11l-2.677 2.14a.5.5 0 0 1-.812-.39z"/><path stroke="currentColor" stroke-linecap="round" d="M21 12.208v-.291A2.917 2.917 0 0 0 18.083 9h-4.166a2.917 2.917 0 1 0 0 5.833h4.166a2.917 2.917 0 1 1 0 5.834h-4.166A2.917 2.917 0 0 1 11 17.75v-.583M16 6v17"/></svg>
