<svg xmlns="http://www.w3.org/2000/svg" fill="none" viewBox="0 0 16 16" width="1em" height="1em"><path stroke="currentColor" stroke-linecap="round" stroke-linejoin="round" d="M10.637 13.52a.5.5 0 0 0-.323.016L8 14.46l-2.314-.925a.5.5 0 0 0-.323-.017l-2.863.818V2a.5.5 0 0 1 .5-.5h10a.5.5 0 0 1 .5.5v12.337z"/><path stroke="currentColor" stroke-linecap="round" d="M10.5 6.24V6.1c0-.773-.653-1.4-1.458-1.4H6.958c-.805 0-1.458.627-1.458 1.4s.653 1.4 1.458 1.4h2.084c.805 0 1.458.627 1.458 1.4s-.653 1.4-1.458 1.4H6.958c-.805 0-1.458-.627-1.458-1.4v-.28M8 3.5v8"/></svg>
