<svg xmlns="http://www.w3.org/2000/svg" fill="none" viewBox="0 0 24 24" width="1em" height="1em"><path stroke="currentColor" d="M9.546 3.182a3.5 3.5 0 0 1 4.95 0l6.364 6.364a3.5 3.5 0 0 1 0 4.95l-6.364 6.364a3.5 3.5 0 0 1-4.95 0l-6.364-6.364a3.5 3.5 0 0 1 0-4.95l6.364-6.364Z"/><path fill="currentColor" fill-rule="evenodd" d="M6.5 11h11a.5.5 0 0 0 0-1h-11a.5.5 0 0 0 0 1Zm0 4h11a.5.5 0 0 0 0-1h-11a.5.5 0 0 0 0 1Z" clip-rule="evenodd"/><path stroke="currentColor" stroke-linecap="round" d="m14.5 8.5-5 8"/></svg>
