<svg viewBox="0 0 32 32" fill="none" xmlns="http://www.w3.org/2000/svg" width="1em" height="1em"><rect x="16" y="0.707107" width="21.6274" height="21.6274" rx="4.5" transform="rotate(45 16 0.707107)" stroke="currentColor"/><path fill-rule="evenodd" clip-rule="evenodd" d="M9 12.5C8.72386 12.5 8.5 12.7239 8.5 13C8.5 13.2761 8.72386 13.5 9 13.5H23C23.2761 13.5 23.5 13.2761 23.5 13C23.5 12.7239 23.2761 12.5 23 12.5H9ZM9 18.5C8.72386 18.5 8.5 18.7239 8.5 19C8.5 19.2761 8.72386 19.5 9 19.5H23C23.2761 19.5 23.5 19.2761 23.5 19C23.5 18.7239 23.2761 18.5 23 18.5H9Z" fill="currentColor"/><path d="M20 8L11.1267 23.6616" stroke="currentColor" stroke-linecap="round"/></svg>
