<svg viewBox="0 0 24 24" fill="none" xmlns="http://www.w3.org/2000/svg" width="1em" height="1em"><path d="M9.546 3.18198C10.9128 1.81515 13.1289 1.81515 14.4957 3.18198L20.8597 9.54594C22.2265 10.9128 22.2265 13.1289 20.8597 14.4957L14.4957 20.8597C13.1289 22.2265 10.9128 22.2265 9.546 20.8597L3.18204 14.4957C1.8152 13.1289 1.8152 10.9128 3.18204 9.54594L9.546 3.18198Z" stroke="currentColor"/><path fill-rule="evenodd" clip-rule="evenodd" d="M6.5 11L17.5 11C17.7761 11 18 10.7761 18 10.5C18 10.2239 17.7761 10 17.5 10H6.5C6.22386 10 6 10.2239 6 10.5C6 10.7761 6.22386 11 6.5 11ZM6.5 15H17.5C17.7761 15 18 14.7761 18 14.5C18 14.2239 17.7761 14 17.5 14H6.5C6.22386 14 6 14.2239 6 14.5C6 14.7761 6.22386 15 6.5 15Z" fill="currentColor"/><path d="M14.5001 8.50006L9.50006 16.5" stroke="currentColor" stroke-linecap="round"/></svg>
