<svg viewBox="0 0 32 32" fill="none" xmlns="http://www.w3.org/2000/svg" width="1em" height="1em"><path d="M26 8C26.2761 8 26.5 7.77614 26.5 7.5C26.5 7.22386 26.2761 7 26 7V8ZM25.9142 6.91421L26.2678 6.56066L25.9142 6.91421ZM22.0858 3.08579L21.7322 3.43934L22.0858 3.08579ZM24.5 29H7.5V30H24.5V29ZM6 27.5V4.5H5V27.5H6ZM7.5 3H20.6716V2H7.5V3ZM26 8.32843V27.5H27V8.32843H26ZM21 2.98077V5.5H22V2.98077H21ZM23.5 8H26V7H23.5V8ZM21.7322 3.43934L25.5607 7.26777L26.2678 6.56066L22.4393 2.73223L21.7322 3.43934ZM21 5.5C21 6.88071 22.1193 8 23.5 8V7C22.6716 7 22 6.32843 22 5.5H21ZM27 8.32843C27 7.66539 26.7366 7.0295 26.2678 6.56066L25.5607 7.26777C25.842 7.54907 26 7.9306 26 8.32843H27ZM20.6716 3C21.0694 3 21.4509 3.15804 21.7322 3.43934L22.4393 2.73223C21.9705 2.26339 21.3346 2 20.6716 2V3ZM7.5 29C6.67157 29 6 28.3284 6 27.5H5C5 28.8807 6.11929 30 7.5 30V29ZM24.5 30C25.8807 30 27 28.8807 27 27.5H26C26 28.3284 25.3284 29 24.5 29V30ZM6 4.5C6 3.67157 6.67157 3 7.5 3V2C6.11929 2 5 3.11929 5 4.5H6Z" fill="currentColor"/><path d="M8.5 19.5H19.5M8.5 22.5H23.5M8.5 25.5H19.5" stroke="currentColor" stroke-linecap="round"/><path d="M9.5 7C9.5 6.72386 9.72386 6.5 10 6.5H12C12.2761 6.5 12.5 6.72386 12.5 7V15C12.5 15.2761 12.2761 15.5 12 15.5H10C9.72386 15.5 9.5 15.2761 9.5 15V7ZM14.5 9C14.5 8.72386 14.7239 8.5 15 8.5H17C17.2761 8.5 17.5 8.72386 17.5 9V15C17.5 15.2761 17.2761 15.5 17 15.5H15C14.7239 15.5 14.5 15.2761 14.5 15V9ZM19.5 11C19.5 10.7239 19.7239 10.5 20 10.5H22C22.2761 10.5 22.5 10.7239 22.5 11V15C22.5 15.2761 22.2761 15.5 22 15.5H20C19.7239 15.5 19.5 15.2761 19.5 15V11Z" stroke="currentColor" stroke-linejoin="round"/><line x1="8.5" y1="15.5" x2="23.5" y2="15.5" stroke="currentColor" stroke-linecap="round"/></svg>
