<svg xmlns="http://www.w3.org/2000/svg" fill="none" viewBox="0 0 24 24" width="1em" height="1em"><path fill="currentColor" d="M20.125 7a.5.5 0 0 0 0-1v1Zm-.287-1.096-.335.372.335-.372Zm-3.768-3.39-.334.371.334-.372Zm2.43 19.111h-13v1h13v-1ZM4 20.125V4H3v16.125h1ZM5.5 2.5h9.232v-1H5.5v1ZM20 7.39v12.735h1V7.391h-1ZM15 2.5v2h1v-2h-1ZM17.5 7h2.625V6H17.5v1Zm-1.764-4.115 3.767 3.39.67-.743-3.768-3.39-.669.743ZM15 4.5A2.5 2.5 0 0 0 17.5 7V6A1.5 1.5 0 0 1 16 4.5h-1Zm6 2.89a2.5 2.5 0 0 0-.828-1.858l-.669.744A1.5 1.5 0 0 1 20 7.39h1ZM14.732 2.5a1.5 1.5 0 0 1 1.004.385l.669-.743a2.5 2.5 0 0 0-1.673-.642v1ZM5.5 21.625a1.5 1.5 0 0 1-1.5-1.5H3a2.5 2.5 0 0 0 2.5 2.5v-1Zm13 1a2.5 2.5 0 0 0 2.5-2.5h-1a1.5 1.5 0 0 1-1.5 1.5v1ZM4 4a1.5 1.5 0 0 1 1.5-1.5v-1A2.5 2.5 0 0 0 3 4h1Z"/><path stroke="currentColor" stroke-linecap="round" d="M6.5 11.5h11m-11 3h8.25m-8.25 2h11.125M6.5 18.5h8.25"/><path stroke="currentColor" stroke-linejoin="round" d="M7 6a.5.5 0 0 1 .5-.5h1A.5.5 0 0 1 9 6v5.5H7V6Zm4 2a.5.5 0 0 1 .5-.5h1a.5.5 0 0 1 .5.5v3.5h-2V8Zm4 1a.5.5 0 0 1 .5-.5h1a.5.5 0 0 1 .5.5v2.5h-2V9Z"/></svg>
