<svg viewBox="0 0 24 24" fill="none" xmlns="http://www.w3.org/2000/svg" width="1em" height="1em"><path d="M20.125 7C20.4011 7 20.625 6.77614 20.625 6.5C20.625 6.22386 20.4011 6 20.125 6V7ZM19.8379 5.90414L19.5034 6.27578L19.8379 5.90414ZM16.0705 2.51341L15.736 2.88506L16.0705 2.51341ZM18.5 21.625H5.5V22.625H18.5V21.625ZM4 20.125V4H3V20.125H4ZM5.5 2.5H14.7325V1.5H5.5V2.5ZM20 7.39072V20.125H21V7.39072H20ZM15 2.5V4.5H16V2.5H15ZM17.5 7H20.125V6H17.5V7ZM15.736 2.88506L19.5034 6.27578L20.1724 5.53249L16.4049 2.14176L15.736 2.88506ZM15 4.5C15 5.88071 16.1193 7 17.5 7V6C16.6716 6 16 5.32843 16 4.5H15ZM21 7.39072C21 6.68201 20.6992 6.0066 20.1724 5.53249L19.5034 6.27578C19.8195 6.56025 20 6.9655 20 7.39072H21ZM14.7325 2.5C15.1031 2.5 15.4605 2.63717 15.736 2.88506L16.4049 2.14176C15.9459 1.72861 15.3501 1.5 14.7325 1.5V2.5ZM5.5 21.625C4.67157 21.625 4 20.9534 4 20.125H3C3 21.5057 4.11929 22.625 5.5 22.625V21.625ZM18.5 22.625C19.8807 22.625 21 21.5057 21 20.125H20C20 20.9534 19.3284 21.625 18.5 21.625V22.625ZM4 4C4 3.17157 4.67157 2.5 5.5 2.5V1.5C4.11929 1.5 3 2.61929 3 4H4Z" fill="currentColor"/><path d="M6.5 11.5H17.5M6.5 14.5H14.75M6.5 16.5H17.625M6.5 18.5H14.75" stroke="currentColor" stroke-linecap="round"/><path d="M7 6C7 5.72386 7.22386 5.5 7.5 5.5H8.5C8.77614 5.5 9 5.72386 9 6V11.5H7V6ZM11 8C11 7.72386 11.2239 7.5 11.5 7.5H12.5C12.7761 7.5 13 7.72386 13 8V11.5H11V8ZM15 9C15 8.72386 15.2239 8.5 15.5 8.5H16.5C16.7761 8.5 17 8.72386 17 9V11.5H15V9Z" stroke="currentColor" stroke-linejoin="round"/></svg>
