<svg xmlns="http://www.w3.org/2000/svg" fill="none" viewBox="0 0 16 16" width="1em" height="1em"><path fill="currentColor" d="M13.25 4a.5.5 0 0 0 0-1zm-.75-.5V4zm.414-.586.354-.353zm-.828-.828-.354.354zM11.5 14h-7v1h7zM3 12.5v-9H2v9zM4.5 2h6.172V1H4.5zM13 4.33v8.17h1V4.33zm-2-2.84V2.5h1V1.49zM12.5 4h.75V3h-.75zm-.768-1.561.829.828.707-.707-.829-.828zM11 2.5A1.5 1.5 0 0 0 12.5 4V3a.5.5 0 0 1-.5-.5zm3 1.829a2.5 2.5 0 0 0-.732-1.768l-.707.707A1.5 1.5 0 0 1 13 4.328zM10.672 2a1.5 1.5 0 0 1 1.06.44l.707-.707A2.5 2.5 0 0 0 10.672 1zM4.5 14A1.5 1.5 0 0 1 3 12.5H2A2.5 2.5 0 0 0 4.5 15zm7 1a2.5 2.5 0 0 0 2.5-2.5h-1a1.5 1.5 0 0 1-1.5 1.5zM3 3.5A1.5 1.5 0 0 1 4.5 2V1A2.5 2.5 0 0 0 2 3.5z"/><path stroke="currentColor" stroke-linecap="round" d="M5.5 8v3.5m2.5-6v6m2.5-7v7"/></svg>
