<svg viewBox="0 0 24 24" fill="none" xmlns="http://www.w3.org/2000/svg" width="1em" height="1em"><path d="M20.125 7C20.4011 7 20.625 6.77614 20.625 6.5C20.625 6.22386 20.4011 6 20.125 6V7ZM19.8379 5.90414L19.5034 6.27578L19.8379 5.90414ZM16.0705 2.51341L15.736 2.88506L16.0705 2.51341ZM18.5 21.625H5.5V22.625H18.5V21.625ZM4 20.125V4H3V20.125H4ZM5.5 2.5H14.7325V1.5H5.5V2.5ZM20 7.39072V20.125H21V7.39072H20ZM15 2.5V4.5H16V2.5H15ZM17.5 7H20.125V6H17.5V7ZM15.736 2.88506L19.5034 6.27578L20.1724 5.53249L16.4049 2.14176L15.736 2.88506ZM15 4.5C15 5.88071 16.1193 7 17.5 7V6C16.6716 6 16 5.32843 16 4.5H15ZM21 7.39072C21 6.68201 20.6992 6.0066 20.1724 5.53249L19.5034 6.27578C19.8195 6.56025 20 6.9655 20 7.39072H21ZM14.7325 2.5C15.1031 2.5 15.4605 2.63717 15.736 2.88506L16.4049 2.14176C15.9459 1.72861 15.3501 1.5 14.7325 1.5V2.5ZM5.5 21.625C4.67157 21.625 4 20.9534 4 20.125H3C3 21.5057 4.11929 22.625 5.5 22.625V21.625ZM18.5 22.625C19.8807 22.625 21 21.5057 21 20.125H20C20 20.9534 19.3284 21.625 18.5 21.625V22.625ZM4 4C4 3.17157 4.67157 2.5 5.5 2.5V1.5C4.11929 1.5 3 2.61929 3 4H4Z" fill="currentColor"/><path d="M6.5 11C6.22386 11 6 11.2239 6 11.5C6 11.7761 6.22386 12 6.5 12V11ZM17.5 12C17.7761 12 18 11.7761 18 11.5C18 11.2239 17.7761 11 17.5 11V12ZM6.5 14C6.22386 14 6 14.2239 6 14.5C6 14.7761 6.22386 15 6.5 15V14ZM14.75 15C15.0261 15 15.25 14.7761 15.25 14.5C15.25 14.2239 15.0261 14 14.75 14V15ZM6.5 16C6.22386 16 6 16.2239 6 16.5C6 16.7761 6.22386 17 6.5 17V16ZM17.625 17C17.9011 17 18.125 16.7761 18.125 16.5C18.125 16.2239 17.9011 16 17.625 16V17ZM6.5 18C6.22386 18 6 18.2239 6 18.5C6 18.7761 6.22386 19 6.5 19V18ZM14.75 19C15.0261 19 15.25 18.7761 15.25 18.5C15.25 18.2239 15.0261 18 14.75 18V19ZM6.5 12H17.5V11H6.5V12ZM6.5 15H14.75V14H6.5V15ZM6.5 17H17.625V16H6.5V17ZM6.5 19H14.75V18H6.5V19Z" fill="currentColor"/><mask id="path-3-inside-1_2_62479" fill="currentColor"><path d="M6.5 6C6.5 5.44772 6.94772 5 7.5 5H8.5C9.05228 5 9.5 5.44772 9.5 6V12H6.5V6Z"/><path d="M10.5 8C10.5 7.44772 10.9477 7 11.5 7H12.5C13.0523 7 13.5 7.44772 13.5 8V12H10.5V8Z"/><path d="M14.5 9C14.5 8.44772 14.9477 8 15.5 8H16.5C17.0523 8 17.5 8.44772 17.5 9V12H14.5V9Z"/></mask><path d="M9.5 12V13C10.0523 13 10.5 12.5523 10.5 12H9.5ZM6.5 12H5.5C5.5 12.5523 5.94772 13 6.5 13V12ZM13.5 12V13C14.0523 13 14.5 12.5523 14.5 12H13.5ZM10.5 12H9.5C9.5 12.5523 9.94772 13 10.5 13V12ZM17.5 12V13C18.0523 13 18.5 12.5523 18.5 12H17.5ZM14.5 12H13.5C13.5 12.5523 13.9477 13 14.5 13V12ZM7.5 6H8.5V4H7.5V6ZM8.5 6V12H10.5V6H8.5ZM9.5 11H6.5V13H9.5V11ZM7.5 12V6H5.5V12H7.5ZM8.5 6H10.5C10.5 4.89543 9.60457 4 8.5 4V6ZM7.5 4C6.39543 4 5.5 4.89543 5.5 6H7.5V6V4ZM11.5 8H12.5V6H11.5V8ZM12.5 8V12H14.5V8H12.5ZM13.5 11H10.5V13H13.5V11ZM11.5 12V8H9.5V12H11.5ZM12.5 8H14.5C14.5 6.89543 13.6046 6 12.5 6V8ZM11.5 6C10.3954 6 9.5 6.89543 9.5 8H11.5V6ZM15.5 9H16.5V7H15.5V9ZM16.5 9V12H18.5V9H16.5ZM17.5 11H14.5V13H17.5V11ZM15.5 12V9H13.5V12H15.5ZM16.5 9H18.5C18.5 7.89543 17.6046 7 16.5 7V9ZM15.5 7C14.3954 7 13.5 7.89543 13.5 9H15.5V7Z" fill="currentColor" mask="url(#path-3-inside-1_2_62479)"/></svg>
