<svg viewBox="0 0 16 16" fill="none" xmlns="http://www.w3.org/2000/svg" width="1em" height="1em"><path d="M13.25 4.00034C13.5261 4.00035 13.75 3.7765 13.75 3.50036C13.75 3.22422 13.5262 3.00035 13.25 3.00034L13.25 4.00034ZM12.5 3.50031L12.4999 4.00031L12.5 3.50031ZM12.9142 2.91448L13.2678 2.56092L12.9142 2.91448ZM12.0858 2.08605L11.7322 2.4396L12.0858 2.08605ZM11.5 14.0003H4.5V15.0003H11.5V14.0003ZM3 12.5003V3.50026H2V12.5003H3ZM4.5 2.00026H10.6716V1.00026H4.5V2.00026ZM13 4.32869V12.5003H14V4.32869H13ZM11 1.49072V2.50031H12V1.49072H11ZM12.4999 4.00031L13.25 4.00034L13.25 3.00034L12.5 3.00031L12.4999 4.00031ZM11.7322 2.4396L12.5607 3.26803L13.2678 2.56092L12.4393 1.7325L11.7322 2.4396ZM11 2.50031C11 3.32871 11.6715 4.00027 12.4999 4.00031L12.5 3.00031C12.2238 3.00029 12 2.77644 12 2.50031H11ZM14 4.32869C14 3.66565 13.7366 3.02977 13.2678 2.56092L12.5607 3.26803C12.842 3.54934 13 3.93087 13 4.32869H14ZM10.6716 2.00026C11.0694 2.00026 11.4509 2.1583 11.7322 2.4396L12.4393 1.7325C11.9705 1.26366 11.3346 1.00026 10.6716 1.00026V2.00026ZM4.5 14.0003C3.67157 14.0003 3 13.3287 3 12.5003H2C2 13.881 3.11929 15.0003 4.5 15.0003V14.0003ZM11.5 15.0003C12.8807 15.0003 14 13.881 14 12.5003H13C13 13.3287 12.3284 14.0003 11.5 14.0003V15.0003ZM3 3.50026C3 2.67184 3.67157 2.00026 4.5 2.00026V1.00026C3.11929 1.00026 2 2.11955 2 3.50026H3Z" fill="currentColor"/><path d="M6 8C6 7.72386 5.77614 7.5 5.5 7.5C5.22386 7.5 5 7.72386 5 8H6ZM5 11.5C5 11.7761 5.22386 12 5.5 12C5.77614 12 6 11.7761 6 11.5H5ZM8.5 5.5C8.5 5.22386 8.27614 5 8 5C7.72386 5 7.5 5.22386 7.5 5.5H8.5ZM7.5 11.5C7.5 11.7761 7.72386 12 8 12C8.27614 12 8.5 11.7761 8.5 11.5H7.5ZM11 4.5C11 4.22386 10.7761 4 10.5 4C10.2239 4 10 4.22386 10 4.5H11ZM10 11.5C10 11.7761 10.2239 12 10.5 12C10.7761 12 11 11.7761 11 11.5H10ZM5 8L5 11.5H6L6 8H5ZM7.5 5.5L7.5 11.5H8.5L8.5 5.5H7.5ZM10 4.5V11.5H11V4.5H10Z" fill="currentColor"/></svg>
