<svg xmlns="http://www.w3.org/2000/svg" fill="none" viewBox="0 0 32 32" width="1em" height="1em"><path fill="currentColor" d="M26 8a.5.5 0 0 0 0-1v1Zm-.086-1.086.354-.353-.354.353Zm-3.828-3.828-.354.353.354-.353ZM24.5 29h-17v1h17v-1ZM6 27.5v-23H5v23h1ZM7.5 3h13.172V2H7.5v1ZM26 8.328V27.5h1V8.328h-1Zm-5-5.347V5.5h1V2.98h-1ZM23.5 8H26V7h-2.5v1Zm-1.768-4.56 3.829 3.828.707-.707-3.829-3.829-.707.707ZM21 5.5A2.5 2.5 0 0 0 23.5 8V7A1.5 1.5 0 0 1 22 5.5h-1Zm6 2.828a2.5 2.5 0 0 0-.732-1.767l-.707.707A1.5 1.5 0 0 1 26 8.328h1ZM20.672 3a1.5 1.5 0 0 1 1.06.44l.707-.708A2.5 2.5 0 0 0 20.672 2v1ZM7.5 29A1.5 1.5 0 0 1 6 27.5H5A2.5 2.5 0 0 0 7.5 30v-1Zm17 1a2.5 2.5 0 0 0 2.5-2.5h-1a1.5 1.5 0 0 1-1.5 1.5v1ZM6 4.5A1.5 1.5 0 0 1 7.5 3V2A2.5 2.5 0 0 0 5 4.5h1Z"/><path stroke="currentColor" stroke-linecap="round" d="M8.5 19.5h11m-11 3h15m-15 3h11"/><path stroke="currentColor" stroke-linejoin="round" d="M9.5 7a.5.5 0 0 1 .5-.5h2a.5.5 0 0 1 .5.5v8a.5.5 0 0 1-.5.5h-2a.5.5 0 0 1-.5-.5V7Zm5 2a.5.5 0 0 1 .5-.5h2a.5.5 0 0 1 .5.5v6a.5.5 0 0 1-.5.5h-2a.5.5 0 0 1-.5-.5V9Zm5 2a.5.5 0 0 1 .5-.5h2a.5.5 0 0 1 .5.5v4a.5.5 0 0 1-.5.5h-2a.5.5 0 0 1-.5-.5v-4Z"/><path stroke="currentColor" stroke-linecap="round" d="M8.5 15.5h15"/></svg>
