<svg viewBox="0 0 32 32" fill="none" xmlns="http://www.w3.org/2000/svg" width="1em" height="1em"><path d="M26 8C26.2761 8 26.5 7.77614 26.5 7.5C26.5 7.22386 26.2761 7 26 7V8ZM25.9142 6.91421L26.2678 6.56066L25.9142 6.91421ZM22.0858 3.08579L21.7322 3.43934L22.0858 3.08579ZM24.5 29H7.5V30H24.5V29ZM6 27.5V4.5H5V27.5H6ZM7.5 3H20.6716V2H7.5V3ZM26 8.32843V27.5H27V8.32843H26ZM21 2.98077V5.5H22V2.98077H21ZM23.5 8H26V7H23.5V8ZM21.7322 3.43934L25.5607 7.26777L26.2678 6.56066L22.4393 2.73223L21.7322 3.43934ZM21 5.5C21 6.88071 22.1193 8 23.5 8V7C22.6716 7 22 6.32843 22 5.5H21ZM27 8.32843C27 7.66539 26.7366 7.0295 26.2678 6.56066L25.5607 7.26777C25.842 7.54907 26 7.9306 26 8.32843H27ZM20.6716 3C21.0694 3 21.4509 3.15804 21.7322 3.43934L22.4393 2.73223C21.9705 2.26339 21.3346 2 20.6716 2V3ZM7.5 29C6.67157 29 6 28.3284 6 27.5H5C5 28.8807 6.11929 30 7.5 30V29ZM24.5 30C25.8807 30 27 28.8807 27 27.5H26C26 28.3284 25.3284 29 24.5 29V30ZM6 4.5C6 3.67157 6.67157 3 7.5 3V2C6.11929 2 5 3.11929 5 4.5H6Z" fill="currentColor"/><path d="M8.5 19C8.22386 19 8 19.2239 8 19.5C8 19.7761 8.22386 20 8.5 20V19ZM19.5 20C19.7761 20 20 19.7761 20 19.5C20 19.2239 19.7761 19 19.5 19V20ZM8.5 22C8.22386 22 8 22.2239 8 22.5C8 22.7761 8.22386 23 8.5 23V22ZM23.5 23C23.7761 23 24 22.7761 24 22.5C24 22.2239 23.7761 22 23.5 22V23ZM8.5 25C8.22386 25 8 25.2239 8 25.5C8 25.7761 8.22386 26 8.5 26V25ZM19.5 26C19.7761 26 20 25.7761 20 25.5C20 25.2239 19.7761 25 19.5 25V26ZM8.5 20H19.5V19H8.5V20ZM8.5 23H23.5V22H8.5V23ZM8.5 26H19.5V25H8.5V26Z" fill="currentColor"/><mask id="path-3-inside-1_2_62485" fill="currentColor"><path d="M9 7C9 6.44772 9.44772 6 10 6H12C12.5523 6 13 6.44772 13 7V15C13 15.5523 12.5523 16 12 16H10C9.44772 16 9 15.5523 9 15V7Z"/><path d="M14 9C14 8.44772 14.4477 8 15 8H17C17.5523 8 18 8.44772 18 9V15C18 15.5523 17.5523 16 17 16H15C14.4477 16 14 15.5523 14 15V9Z"/><path d="M19 11C19 10.4477 19.4477 10 20 10H22C22.5523 10 23 10.4477 23 11V15C23 15.5523 22.5523 16 22 16H20C19.4477 16 19 15.5523 19 15V11Z"/></mask><path d="M10 7V7V5C8.89543 5 8 5.89543 8 7H10ZM10 7H12V5H10V7ZM12 7H14C14 5.89543 13.1046 5 12 5V7ZM12 7V15H14V7H12ZM12 15H10V17H12V15ZM10 15V7H8V15H10ZM15 9V7C13.8954 7 13 7.89543 13 9H15ZM15 9H17V7H15V9ZM17 9H19C19 7.89543 18.1046 7 17 7V9ZM17 9V15H19V9H17ZM17 15H15V17H17V15ZM15 15V9H13V15H15ZM20 11V9C18.8954 9 18 9.89543 18 11H20ZM20 11H22V9H20V11ZM22 11H24C24 9.89543 23.1046 9 22 9V11ZM22 11V15H24V11H22ZM22 15H20V17H22V15ZM20 15V11H18V15H20ZM20 15H18C18 16.1046 18.8954 17 20 17V15ZM10 15H8C8 16.1046 8.89543 17 10 17V15ZM22 15V17C23.1046 17 24 16.1046 24 15H22ZM15 15H13C13 16.1046 13.8954 17 15 17V15ZM17 15V17C18.1046 17 19 16.1046 19 15H17ZM12 15V17C13.1046 17 14 16.1046 14 15H12Z" fill="currentColor" mask="url(#path-3-inside-1_2_62485)"/><line x1="8.5" y1="15.5" x2="23.5" y2="15.5" stroke="currentColor" stroke-linecap="round"/></svg>
