<svg viewBox="0 0 16 16" fill="none" xmlns="http://www.w3.org/2000/svg" width="1em" height="1em"><path d="M1.14645 10.6464C0.951184 10.8417 0.951184 11.1583 1.14645 11.3536C1.34171 11.5488 1.65829 11.5488 1.85355 11.3536L1.14645 10.6464ZM5.5 7L5.85355 6.64645C5.65829 6.45118 5.34171 6.45118 5.14645 6.64645L5.5 7ZM8.5 10L8.14645 10.3536C8.24288 10.45 8.37452 10.5028 8.51086 10.4999C8.64721 10.4969 8.77642 10.4384 8.86858 10.3379L8.5 10ZM14.3686 4.33786C14.5552 4.1343 14.5414 3.81802 14.3379 3.63142C14.1343 3.44483 13.818 3.45858 13.6314 3.66214L14.3686 4.33786ZM1.85355 11.3536L5.85355 7.35355L5.14645 6.64645L1.14645 10.6464L1.85355 11.3536ZM5.14645 7.35355L8.14645 10.3536L8.85355 9.64645L5.85355 6.64645L5.14645 7.35355ZM8.86858 10.3379L14.3686 4.33786L13.6314 3.66214L8.13142 9.66214L8.86858 10.3379Z" fill="currentColor"/><path d="M10.5 3C10.2239 3 10 3.22386 10 3.5C10 3.77614 10.2239 4 10.5 4V3ZM14.5 3.5H15C15 3.22386 14.7761 3 14.5 3V3.5ZM14 7.5C14 7.77614 14.2239 8 14.5 8C14.7761 8 15 7.77614 15 7.5H14ZM10.5 4H14.5V3H10.5V4ZM14 3.5V7.5H15V3.5H14Z" fill="currentColor"/></svg>
