<svg viewBox="0 0 24 24" fill="none" xmlns="http://www.w3.org/2000/svg" width="1em" height="1em"><path d="M2.14645 17.1464C1.95118 17.3417 1.95118 17.6583 2.14645 17.8536C2.34171 18.0488 2.65829 18.0488 2.85355 17.8536L2.14645 17.1464ZM9 11L9.35355 10.6464C9.15829 10.4512 8.84171 10.4512 8.64645 10.6464L9 11ZM13 15L12.6464 15.3536C12.8417 15.5488 13.1583 15.5488 13.3536 15.3536L13 15ZM21.8536 6.85355C22.0488 6.65829 22.0488 6.34171 21.8536 6.14645C21.6583 5.95118 21.3417 5.95118 21.1464 6.14645L21.8536 6.85355ZM2.85355 17.8536L9.35355 11.3536L8.64645 10.6464L2.14645 17.1464L2.85355 17.8536ZM8.64645 11.3536L12.6464 15.3536L13.3536 14.6464L9.35355 10.6464L8.64645 11.3536ZM13.3536 15.3536L21.8536 6.85355L21.1464 6.14645L12.6464 14.6464L13.3536 15.3536Z" fill="currentColor"/><path d="M16.5 6C16.2239 6 16 6.22386 16 6.5C16 6.77614 16.2239 7 16.5 7V6ZM21.5 6.5H22C22 6.22386 21.7761 6 21.5 6V6.5ZM21 11.5C21 11.7761 21.2239 12 21.5 12C21.7761 12 22 11.7761 22 11.5H21ZM16.5 7H21.5V6H16.5V7ZM21 6.5V11.5H22V6.5H21Z" fill="currentColor"/></svg>
