<svg viewBox="0 0 24 24" fill="none" xmlns="http://www.w3.org/2000/svg" width="1em" height="1em"><path d="M5.14645 14.6464C4.95118 14.8417 4.95118 15.1583 5.14645 15.3536C5.34171 15.5488 5.65829 15.5488 5.85355 15.3536L5.14645 14.6464ZM9.5 11L9.85355 10.6464C9.65829 10.4512 9.34171 10.4512 9.14645 10.6464L9.5 11ZM12.5 14L12.1464 14.3536C12.2429 14.45 12.3745 14.5028 12.5109 14.4999C12.6472 14.4969 12.7764 14.4384 12.8686 14.3379L12.5 14ZM18.3686 8.33786C18.5552 8.1343 18.5414 7.81802 18.3379 7.63142C18.1343 7.44483 17.818 7.45858 17.6314 7.66214L18.3686 8.33786ZM5.85355 15.3536L9.85355 11.3536L9.14645 10.6464L5.14645 14.6464L5.85355 15.3536ZM9.14645 11.3536L12.1464 14.3536L12.8536 13.6464L9.85355 10.6464L9.14645 11.3536ZM12.8686 14.3379L18.3686 8.33786L17.6314 7.66214L12.1314 13.6621L12.8686 14.3379Z" fill="currentColor"/><path d="M14.5 7C14.2239 7 14 7.22386 14 7.5C14 7.77614 14.2239 8 14.5 8V7ZM18.5 7.5H19C19 7.22386 18.7761 7 18.5 7V7.5ZM18 11.5C18 11.7761 18.2239 12 18.5 12C18.7761 12 19 11.7761 19 11.5H18ZM14.5 8H18.5V7H14.5V8ZM18 7.5V11.5H19V7.5H18Z" fill="currentColor"/></svg>
