<svg viewBox="0 0 32 32" fill="none" xmlns="http://www.w3.org/2000/svg" width="1em" height="1em"><path d="M2.14645 23.1464C1.95118 23.3417 1.95118 23.6583 2.14645 23.8536C2.34171 24.0488 2.65829 24.0488 2.85355 23.8536L2.14645 23.1464ZM11.5 14.5L11.8536 14.1464C11.6583 13.9512 11.3417 13.9512 11.1464 14.1464L11.5 14.5ZM18 21L17.6464 21.3536C17.7428 21.4499 17.8742 21.5027 18.0104 21.4999C18.1466 21.4971 18.2757 21.4388 18.368 21.3385L18 21ZM29.868 8.83853C30.0549 8.63531 30.0417 8.319 29.8385 8.13203C29.6353 7.94507 29.319 7.95825 29.132 8.16147L29.868 8.83853ZM2.85355 23.8536L11.8536 14.8536L11.1464 14.1464L2.14645 23.1464L2.85355 23.8536ZM11.1464 14.8536L17.6464 21.3536L18.3536 20.6464L11.8536 14.1464L11.1464 14.8536ZM18.368 21.3385L29.868 8.83853L29.132 8.16147L17.632 20.6615L18.368 21.3385Z" fill="currentColor"/><path d="M21.5 8C21.2239 8 21 8.22386 21 8.5C21 8.77614 21.2239 9 21.5 9V8ZM29.5 8.5H30C30 8.22386 29.7761 8 29.5 8V8.5ZM29 16.5C29 16.7761 29.2239 17 29.5 17C29.7761 17 30 16.7761 30 16.5H29ZM21.5 9H29.5V8H21.5V9ZM29 8.5V16.5H30V8.5H29Z" fill="currentColor"/></svg>
