<svg fill="none" viewBox="18.9 20.3 191 69.5" xmlns="http://www.w3.org/2000/svg"
    xmlns:xlink="http://www.w3.org/1999/xlink">
    <linearGradient id="a" gradientUnits="userSpaceOnUse" x1="57.1" x2="63.5" y1="26" y2="86.5">
        <stop offset="0" stop-color="#f05245" />
        <stop offset="1" stop-color="#f05245" stop-opacity=".1" />
    </linearGradient>
    <linearGradient id="b">
        <stop offset="0" stop-color="#ffe300" />
        <stop offset="1" stop-color="#ffe300" stop-opacity="0" />
    </linearGradient>
    <linearGradient id="c" gradientUnits="userSpaceOnUse" x1="45.9" x2="60" xlink:href="#b" y1="29.9" y2="77" />
    <linearGradient id="d" gradientUnits="userSpaceOnUse" x1="35.5" x2="38" y1="35.7" y2="77">
        <stop offset="0" stop-color="#16dcc1" />
        <stop offset="1" stop-color="#16dcc1" stop-opacity="0" />
    </linearGradient>
    <linearGradient id="e">
        <stop offset="0" stop-color="#00adff" />
        <stop offset="1" stop-color="#00adff" stop-opacity="0" />
    </linearGradient>
    <linearGradient id="f" gradientUnits="userSpaceOnUse" x1="27.1" x2="26" xlink:href="#e" y1="40.1" y2="72" />
    <linearGradient id="g" gradientUnits="userSpaceOnUse" x1="57.1" x2="52.1" y1="26" y2="100.5">
        <stop offset="0" stop-color="#f05245" />
        <stop offset="1" stop-color="#f05245" stop-opacity="0" />
    </linearGradient>
    <linearGradient id="h" gradientUnits="userSpaceOnUse" x1="45.1" x2="43.1" xlink:href="#b" y1="27.5" y2="98.5" />
    <linearGradient id="i" gradientUnits="userSpaceOnUse" x1="29.5" x2="27.5" y1="35.5" y2="87">
        <stop offset="0" stop-color="#1cebcf" />
        <stop offset="1" stop-color="#1cebcf" stop-opacity="0" />
    </linearGradient>
    <linearGradient id="j" gradientUnits="userSpaceOnUse" x1="26" x2="33" xlink:href="#e" y1="39" y2="74" />
    <filter id="k" color-interpolation-filters="sRGB" filterUnits="userSpaceOnUse" height="109.5" width="57.9" x="21.2"
        y=".3">
        <feFlood flood-opacity="0" result="BackgroundImageFix" />
        <feBlend in="SourceGraphic" in2="BackgroundImageFix" result="shape" />
        <feGaussianBlur result="effect1_foregroundBlur_86_22143" stdDeviation="10" />
    </filter>
    <filter id="l" color-interpolation-filters="sRGB" filterUnits="userSpaceOnUse" height="69.6" width="21.4" x="30.8"
        y="20.2">
        <feFlood flood-opacity="0" result="BackgroundImageFix" />
        <feBlend in="SourceGraphic" in2="BackgroundImageFix" result="shape" />
        <feGaussianBlur result="effect1_foregroundBlur_86_22143" stdDeviation="1.5" />
    </filter>
    <filter id="m" color-interpolation-filters="sRGB" filterUnits="userSpaceOnUse" height="65" width="27.9" x="17.9"
        y="22.5">
        <feFlood flood-opacity="0" result="BackgroundImageFix" />
        <feBlend in="SourceGraphic" in2="BackgroundImageFix" result="shape" />
        <feGaussianBlur result="effect1_foregroundBlur_86_22143" stdDeviation="4" />
    </filter>
    <filter id="n" color-interpolation-filters="sRGB" filterUnits="userSpaceOnUse" height="67.7" width="43.2" x="8.9"
        y="21.2">
        <feFlood flood-opacity="0" result="BackgroundImageFix" />
        <feBlend in="SourceGraphic" in2="BackgroundImageFix" result="shape" />
        <feGaussianBlur result="effect1_foregroundBlur_86_22143" stdDeviation="8.5" />
    </filter>
    <clipPath id="o">
        <path d="m0 0h40v10.1h-40z" transform="translate(170 77)" />
    </clipPath>
    <path d="m59 55.1c0-17.7-9.8-29.5-14.9-34.3-1.2-1.2-3-.3-3 1.3v65.9c0 1.6 1.8 2.5 3 1.4 5-4.8 15-16.4 15-34.2z"
        fill="url(#a)" />
    <path d="m47.6 55c0-14.8-8-24.8-12.5-29.2-1.1-1.2-3-.3-3 1.3v55.8c0 1.7 1.9 2.5 3 1.4a40.9 40.9 0 0 0 12.5-29.3z"
        fill="url(#c)" />
    <path d="m36.8 55c0-10.7-5.5-18.2-9-21.9-1.1-1.2-2.9-.3-2.9 1.3v41.2c0 1.7 1.8 2.5 2.9 1.3 3.5-3.6 9-11 9-21.8z"
        fill="url(#d)" />
    <path d="m28.1 55c0-7.7-3.6-13.2-6.3-16.2-1.1-1.2-2.9-.4-2.9 1.2v30c0 1.7 1.8 2.5 2.9 1.3 2.7-3 6.3-8.5 6.3-16.2z"
        fill="url(#f)" />
    <g filter="url(#k)">
        <path d="m59 55.1c0-17.7-9.8-29.5-14.9-34.3-1.2-1.2-3-.3-3 1.3v65.9c0 1.6 1.8 2.5 3 1.4 5-4.8 15-16.4 15-34.2z"
            fill="url(#g)" />
    </g>
    <g filter="url(#l)" opacity=".7">
        <path d="m49.3 55c0-20.6-15.5-31.8-15.5-31.8v63.6s15.5-11 15.5-31.7z" fill="url(#h)" />
    </g>
    <g filter="url(#m)" opacity=".7">
        <path d="m37.8 55c0-15.8-11.8-24.4-11.8-24.4v49s12-8.6 12-24.5z" fill="url(#i)" />
    </g>
    <g filter="url(#n)" opacity=".7">
        <path
            d="m35.1 55c0-7.7-3.6-13.2-6.3-16.2-1.1-1.2-2.9-.4-2.9 1.2v30c0 1.7 1.8 2.5 2.9 1.3 2.7-3 6.3-8.5 6.3-16.2z"
            fill="url(#j)" />
    </g>
    <path
        d="m76.4 69h1.6v-12.8h4.1c4.3 0 8.5-2.3 8.5-7 0-4.5-3.2-7.1-8.5-7.1h-5.8v26.9zm6-14.4h-4.3v-11h4.2c3.8 0 6.7 1.7 6.7 5.5 0 3.7-3.3 5.5-6.6 5.5zm13.2 14.4h11.3v-1.6h-9.6v-25.3h-1.7zm17.9-8.4h12.5l3.5 8.4h2l-11.3-27h-1l-11.1 27h1.8l3.5-8.4zm6.3-15.5 5.7 14h-11.4zm14.9 18.4-1.6 1a9 9 0 0 0 8 5c5.2 0 8.7-3.5 8.7-7.4 0-3.8-2.2-5.3-5.4-6.8l-3.5-1.6c-3-1.4-4.8-2.5-4.8-5.4 0-3 2.8-5 5.9-5 2.8 0 4.5 1.3 5.8 3l1.3-1.2c-1.1-1.4-3-3.4-7-3.4-4.5 0-7.7 3-7.7 6.7 0 3 1.9 5.1 4.6 6.3l3.3 1.5c4.2 2 5.7 3.1 5.7 6 0 3-2.5 5.7-6.8 5.7-3.5 0-5.6-2.6-6.5-4.4zm20.7 5.5 2.4-23.8 9.8 24h.4l10-24 2.5 23.8h1.7l-2.8-27h-2l-9.4 23.7-9.6-23.5h-2l-2.7 26.8h1.8zm34.6-8.4h12.7l3.3 8.4h2l-11.3-27h-1l-11.1 27h1.8l3.5-8.4zm6.3-15.5 5.7 14h-11.4z"
        fill="#2b073f" />
    <g clip-path="url(#o)">
        <path
            d="m186 80.5-.4.5c-.3-.3-.7-.5-1.2-.5-.8 0-1.4.7-1.4 1.6 0 1 .6 1.6 1.4 1.6.5 0 1-.2 1.2-.5l.5.5a2 2 0 0 1 -1.6.7c-1.4 0-2.3-1-2.3-2.3s.9-2.3 2.3-2.3a2 2 0 0 1 1.6.7zm5.4 1.6c0 1.3-1 2.3-2.3 2.3s-2.3-1-2.3-2.3 1-2.3 2.3-2.3 2.3 1 2.3 2.3zm-3.8 0c0 1 .6 1.6 1.5 1.6s1.5-.7 1.5-1.6-.6-1.6-1.5-1.6-1.5.7-1.5 1.6zm7 2.2h-.9l-1.8-4.4h.8l1.5 3.6 1.4-3.6h.8zm6.5-2.2v.3h-3.4c0 .9.7 1.3 1.4 1.3.5 0 1-.2 1.4-.5l.4.5c-.5.5-1.1.7-1.8.7-1.3 0-2.2-1-2.2-2.3s.9-2.3 2.2-2.3c1.1 0 2 1 2 2.3zm-3.4-.4h2.7c-.1-.7-.6-1.2-1.3-1.2-.8 0-1.3.5-1.4 1.2zm9 .4c0 1.3-1 2.3-2.3 2.3s-2.3-1-2.3-2.3 1-2.3 2.3-2.3 2.3 1 2.3 2.3zm-3.8 0c0 1 .6 1.6 1.5 1.6s1.5-.7 1.5-1.6-.6-1.6-1.5-1.6-1.5.7-1.5 1.6z"
            fill="#2b073f" />
        <path
            d="m178.6 78.5c-.8-.9-2-1.4-3.1-1.5-.1 0-.2 0-.2.2l1.9 1.9c-.5-.4-1.1-.6-1.7-.6h-.2v.1l1.3 1.3c-.4-.2-.7-.4-1.1-.4l-.1.1 2.1 2.1h.1c0-.4-.1-.8-.4-1.2l1.2 1.2h.2c0-.7-.3-1.3-.6-1.8l1.8 1.8h.2v-.1a5 5 0 0 0 -1.4-3.1z"
            fill="#00adff" />
        <path
            d="m171.5 78.5c.8-.9 1.9-1.4 3-1.5l.2.1v.2l-1.8 1.8c.5-.4 1.1-.6 1.7-.6.1 0 .2 0 .1.1l-1.2 1.3c.3-.2.7-.4 1.1-.4 0 0 .1 0 0 .1l-2 2.1h-.2c0-.4.2-.8.4-1.2l-1.2 1.2h-.1c0-.7.2-1.3.6-1.8l-1.8 1.8c-.2.1-.3 0-.3-.1.1-1.2.6-2.3 1.5-3.1z"
            fill="#f05245" />
        <path
            d="m171.5 85.7a5 5 0 0 0 3 1.4l.2-.1v-.1l-1.8-1.9c.5.4 1.1.6 1.7.7.1 0 .2-.1.1-.2l-1.2-1.2c.3.2.7.3 1.1.3 0 0 .1 0 0 0l-2-2.2h-.2c0 .5.2.9.4 1.2l-1.2-1.2s-.2 0-.1.1c0 .6.2 1.2.6 1.7l-1.8-1.8h-.3v.2a5 5 0 0 0 1.5 3z"
            fill="#1cebcf" />
        <path
            d="m178.6 85.7c-.8.8-2 1.3-3.1 1.4-.1 0-.2-.1-.1-.2l1.8-1.9c-.5.4-1.1.6-1.7.7l-.2-.1 1.3-1.3c-.3.2-.7.3-1.1.3h-.1l2.1-2.2h.1a2.4 2.4 0 0 1 -.4 1.2l1.3-1.2h.1v.1c0 .6-.3 1.2-.6 1.7l1.8-1.8c.1 0 .3 0 .2.1a5 5 0 0 1 -1.4 3.2z"
            fill="#ffe300" />
        <path d="m208.1 80.1v1.1h-.2v-1h-.3v-.3h.9v.2zm1.7 1.1v-.8l-.3.6h-.2l-.2-.6v.8h-.2v-1.3h.2l.3.8.4-.8h.2v1.3z"
            fill="#2b073f" />
    </g>
    <path
        d="m108.8 78.8h1.8c.4 0 .9 0 1.3.2l1 .6.7 1 .2 1.3c0 .5 0 .9-.2 1.3l-.7 1-1 .6-1.3.2h-1.8zm1.8 5.6c.3 0 .7 0 1-.2.3 0 .6-.3.8-.5l.5-.8c.2-.3.2-.6.2-1s0-.7-.2-1a2.1 2.1 0 0 0 -1.3-1.3c-.3-.2-.7-.2-1-.2h-1.1v5h1zm7.8 0c-.4.5-1 .7-1.8.7-.3 0-.6 0-.9-.2a1.9 1.9 0 0 1 -1-1.1 2.8 2.8 0 0 1 0-1.8l.4-.7.6-.4.9-.2a2 2 0 0 1 1.4.6c.2.1.3.3.4.6a2.2 2.2 0 0 1 .2 1v.1h-3.4l.1.6c0 .2.2.4.3.5a1.5 1.5 0 0 0 1.1.4h.6a2.5 2.5 0 0 0 .8-.5zm-.5-1.9a1.3 1.3 0 0 0 -.3-.8l-.4-.3-.6-.1h-.6a1.3 1.3 0 0 0 -.7.8v.4zm1.5 1.4.6.5a1.5 1.5 0 0 0 1 .1l.3-.1.2-.2v-.7l-.3-.2-.4-.1a4.3 4.3 0 0 0 -.6-.2 2 2 0 0 1 -.4-.2l-.3-.4a1 1 0 0 1 -.2-.5l.1-.5.3-.4.5-.2.5-.1.8.1.6.4-.4.4a1.6 1.6 0 0 0 -1-.4c-.2 0-.4 0-.6.2l-.2.4.1.3.2.2a2.1 2.1 0 0 0 .6.2 17.6 17.6 0 0 1 .9.4l.3.3.2.6-.1.6-.4.4-.5.2a2 2 0 0 1 -.6 0 2 2 0 0 1 -.9-.1c-.3-.1-.5-.3-.6-.6zm4.5-4.6v.4h-.8l-.1-.4.1-.3.4-.1.3.1zm-.8 1.5h.7v4.2h-.7zm5.3 3.4-.6.6-1 .2c-.2 0-.5 0-.7-.2a1.8 1.8 0 0 1 -1.1-1l-.2-1c0-.3 0-.6.2-.9 0-.2.2-.4.4-.6s.4-.4.7-.4c.2-.2.5-.2.7-.2a1.8 1.8 0 0 1 1.6.8v-.7h.7v3.2l-.1 1.1-.3.7-.3.3-.4.3-.5.2h-1.4a3.1 3.1 0 0 1 -1.1-.6l.3-.4a2.8 2.8 0 0 0 1.6.5l.7-.1.5-.4.2-.6.1-.7v-.2zm-1.4.2.6-.1c.2 0 .3-.2.5-.3l.2-.5.1-.7c0-.5-.1-.8-.4-1.1-.2-.3-.6-.4-1-.4h-.7l-.4.4-.3.5-.1.6v.7l.4.5.4.3zm5.4-3.7.7.1.5.4.2.6v3.2h-.6v-2.5c0-.4 0-.7-.2-1l-.9-.2a1 1 0 0 0 -.9.4l-.1.4v2.9h-.8v-4.2h.7v.7c.1-.3.3-.4.5-.6zm4.7 2.9a2.3 2.3 0 0 0 1 .8l.6.1c.3 0 .6 0 .9-.3.2-.1.3-.4.3-.8v-.4l-.3-.3-.3-.3-.5-.2-.9-.4a1.5 1.5 0 0 1 -1-1.5 1.4 1.4 0 0 1 .6-1.2l.6-.3a2.3 2.3 0 0 1 1.4 0 2.4 2.4 0 0 1 .8.5l.2.2-.4.5-.5-.5-.8-.2c-.4 0-.7 0-.9.2s-.3.5-.3.8v.4l.2.3a1.6 1.6 0 0 0 .6.3l.9.4a3.4 3.4 0 0 1 1 .6l.2.4.1.6-.1.8-.4.5a2 2 0 0 1 -.7.4l-.8.1a2 2 0 0 1 -.7-.1 2.5 2.5 0 0 1 -1.3-1zm3.8-2.8h.7l1.4 3.5 1.3-3.5h.7l-2 5-.3.4c0 .2-.1.3-.2.3l-.3.2h-.5a1.5 1.5 0 0 1 -.4-.1v-.6h.2l.2.1h.4l.2-.2.1-.4.3-.5zm4.6 3.1.6.5a1.5 1.5 0 0 0 1 .1l.2-.1.2-.2.1-.3-.1-.4-.3-.2-.3-.1a4.3 4.3 0 0 0 -.7-.2 2 2 0 0 1 -.4-.2l-.3-.4a1 1 0 0 1 -.1-.5v-.5l.4-.4.4-.2.5-.1.9.1.5.4-.3.4a1.6 1.6 0 0 0 -1-.4c-.3 0-.5 0-.6.2-.2 0-.2.2-.2.4v.3l.2.2a2.1 2.1 0 0 0 .7.2 17.6 17.6 0 0 1 .8.4c.2 0 .3.2.4.3l.1.6v.6l-.4.4-.5.2a2 2 0 0 1 -.6 0 2 2 0 0 1 -1-.1l-.6-.6zm5.5 1-.7.2a1 1 0 0 1 -.6-.2 1 1 0 0 1 -.3-.4 2 2 0 0 1 0-.5l-.1-.6v-2h-.6v-.6h.6v-1.3h.7v1.3h1v.5h-1v2.7l.1.4h.2l.2.1h.5v.5zm4.4-.5c-.4.5-1 .7-1.8.7-.3 0-.6 0-.9-.2a1.9 1.9 0 0 1 -1-1.1 2.8 2.8 0 0 1 0-1.8l.4-.7c.1-.2.4-.3.6-.4l.9-.2a2 2 0 0 1 1.4.6c.2.1.3.3.4.6a2.2 2.2 0 0 1 .1 1v.1h-3.3l.1.6c0 .2.2.4.3.5a1.5 1.5 0 0 0 1.1.4h.6a2.5 2.5 0 0 0 .8-.5zm-.5-1.9a1.3 1.3 0 0 0 -.3-.8l-.5-.3-.5-.1h-.6a1.3 1.3 0 0 0 -.7.8l-.1.4zm4.8-.9c0-.3.2-.5.4-.6.3-.2.5-.3.8-.3.4 0 .6 0 .8.2.2 0 .3.2.4.3l.3.6v3.2h-.7v-2.9l-.1-.4-.3-.3a.8.8 0 0 0 -.4-.1 1 1 0 0 0 -.5 0 1 1 0 0 0 -.3.4l-.2.5-.1.6v2.2h-.7v-2.9l-.1-.4-.3-.3a.8.8 0 0 0 -.5-.1 1 1 0 0 0 -.8.4l-.2.5v2.8h-.7v-4.2h.6v.7l.5-.6.7-.2c.4 0 .7 0 1 .3z"
        fill="#2b073f" />
</svg>