<svg xmlns="http://www.w3.org/2000/svg" fill="none" viewBox="0 0 32 32" width="1em" height="1em"><rect width="11" height="11" x="8.207" y="16" stroke="currentColor" rx="1.5" transform="rotate(-45 8.207 16)"/><path stroke="currentColor" d="M8.5 6.5a2 2 0 1 1-4 0 2 2 0 0 1 4 0Zm0 19a2 2 0 1 1-4 0 2 2 0 0 1 4 0Zm19-19a2 2 0 1 1-4 0 2 2 0 0 1 4 0ZM17.5 4a1.5 1.5 0 1 1-3 0 1.5 1.5 0 0 1 3 0Zm-12 12a1.5 1.5 0 1 1-3 0 1.5 1.5 0 0 1 3 0Zm24 0a1.5 1.5 0 1 1-3 0 1.5 1.5 0 0 1 3 0Zm-12 12a1.5 1.5 0 1 1-3 0 1.5 1.5 0 0 1 3 0Zm10-2.5a2 2 0 1 1-4 0 2 2 0 0 1 4 0Z"/><path fill="currentColor" d="M20.354 19.646a.5.5 0 0 0-.707.708l.707-.707Zm-8.707-7.292a.5.5 0 1 0 .707-.707l-.707.707ZM16.5 26.5V23h-1v3.5h1Zm0-18v-3h-1v3h1Zm-8 7h-3v1h3v-1Zm18 0h-3v1h3v-1Zm-6.854 4.854 4 4 .708-.707-4-4-.707.707Zm-12-12 4 4 .708-.707-4-4-.708.707Zm4 11.293-4 4 .708.707 4-4-.708-.707Zm12-12-4 4 .707.707 4-4-.707-.707Z"/></svg>
