<svg xmlns="http://www.w3.org/2000/svg" fill="none" viewBox="0 0 16 16" width="1em" height="1em"><rect width="5" height="5" x="4.464" y="8" stroke="currentColor" rx=".5" transform="rotate(-45 4.464 8)"/><path stroke="currentColor" d="M8 14v-3m0-6V2m6 6h-3M5 8H2m1-5 3 3m4 4 3 3m0-10-3 3m-4 4-3 3m.5-10.5a1 1 0 1 1-2 0 1 1 0 0 1 2 0Zm0 11a1 1 0 1 1-2 0 1 1 0 0 1 2 0Zm11-11a1 1 0 1 1-2 0 1 1 0 0 1 2 0Zm-6-.5a.5.5 0 1 1-1 0 .5.5 0 0 1 1 0Zm-6 6a.5.5 0 1 1-1 0 .5.5 0 0 1 1 0Zm12 0a.5.5 0 1 1-1 0 .5.5 0 0 1 1 0Zm-6 6a.5.5 0 1 1-1 0 .5.5 0 0 1 1 0Zm6-.5a1 1 0 1 1-2 0 1 1 0 0 1 2 0Z"/></svg>
