<svg xmlns="http://www.w3.org/2000/svg" fill="none" viewBox="0 0 24 24" width="1em" height="1em"><rect width="7" height="7" x="7.05" y="12" stroke="currentColor" rx=".5" transform="rotate(-45 7.05 12)"/><path stroke="currentColor" d="M6.5 5a1.5 1.5 0 1 1-3 0 1.5 1.5 0 0 1 3 0Zm0 14a1.5 1.5 0 1 1-3 0 1.5 1.5 0 0 1 3 0Zm14-14a1.5 1.5 0 1 1-3 0 1.5 1.5 0 0 1 3 0ZM13 3.5a1 1 0 1 1-2 0 1 1 0 0 1 2 0ZM4.5 12a1 1 0 1 1-2 0 1 1 0 0 1 2 0Zm17 0a1 1 0 1 1-2 0 1 1 0 0 1 2 0ZM13 20.5a1 1 0 1 1-2 0 1 1 0 0 1 2 0Zm7.5-1.5a1.5 1.5 0 1 1-3 0 1.5 1.5 0 0 1 3 0Z"/><path fill="currentColor" d="M14.854 14.146a.5.5 0 0 0-.708.708zM9.146 9.854a.5.5 0 0 0 .708-.708zM12.5 20v-3.5h-1V20zm0-12.5V4h-1v3.5zm-5.5 4H4v1h3zm13 0h-3v1h3zm-5.854 3.354 3.5 3.5.708-.708-3.5-3.5zm-8.5-8.5 3.5 3.5.708-.708-3.5-3.5zm3.5 7.792-3.5 3.5.708.708 3.5-3.5zm8.5-8.5-3.5 3.5.708.708 3.5-3.5z"/></svg>
