<svg xmlns="http://www.w3.org/2000/svg" fill="none" viewBox="0 0 32 32" width="1em" height="1em"><rect width="11" height="11" x="8.207" y="16" stroke="currentColor" rx="1.5" transform="rotate(-45 8.207 16)"/><path stroke="currentColor" d="M8.5 6.5a2 2 0 1 1-4 0 2 2 0 0 1 4 0Zm0 19a2 2 0 1 1-4 0 2 2 0 0 1 4 0Zm19-19a2 2 0 1 1-4 0 2 2 0 0 1 4 0ZM17.5 4a1.5 1.5 0 1 1-3 0 1.5 1.5 0 0 1 3 0Zm-12 12a1.5 1.5 0 1 1-3 0 1.5 1.5 0 0 1 3 0Zm24 0a1.5 1.5 0 1 1-3 0 1.5 1.5 0 0 1 3 0Zm-12 12a1.5 1.5 0 1 1-3 0 1.5 1.5 0 0 1 3 0Zm10-2.5a2 2 0 1 1-4 0 2 2 0 0 1 4 0Z"/><path fill="currentColor" d="M20.354 19.647a.5.5 0 0 0-.707.707zm-8.707-7.293a.5.5 0 1 0 .707-.707zM16.5 26.5V23h-1v3.5zm0-18v-3h-1v3zm-8 7h-3v1h3zm18 0h-3v1h3zm-6.853 4.854 4 4 .707-.707-4-4zm-12-12 4 4 .707-.707-4-4zm4 11.293-4 4 .707.707 4-4zm12-12-4 4 .707.707 4-4z"/></svg>
