<svg xmlns="http://www.w3.org/2000/svg" fill="none" viewBox="0 0 32 33" width="1em" height="1em"><path fill="currentColor" d="m12.672 21.317-.407.29.407-.29Zm1.51 2.974a.5.5 0 0 0 .814-.581l-.814.58Zm-.74 3.17-.436.245.436-.245Zm-2.748-4.887.435-.245-.435.245Zm6.235 6.926v.5-.5Zm1.571 0V29v.5Zm4-4h.5-.5Zm-11.308-4.55.223.447-.223-.447Zm1.073.658 1.917 2.684.814-.581-1.917-2.684-.814.581Zm1.613 5.61-2.749-4.888-.871.49 2.748 4.887.872-.49ZM16.928 30H18.5v-1h-1.571v1ZM23 25.5v-1h-1v1h1ZM18.5 30a4.5 4.5 0 0 0 4.5-4.5h-1a3.5 3.5 0 0 1-3.5 3.5v1Zm-5.494-2.294A4.5 4.5 0 0 0 16.93 30v-1a3.5 3.5 0 0 1-3.051-1.784l-.872.49Zm-1.59-6.31a.674.674 0 0 1 .85.211l.813-.581a1.674 1.674 0 0 0-2.111-.524l.447.894Zm-.448-.894a1.674 1.674 0 0 0-.71 2.318l.871-.49a.674.674 0 0 1 .286-.934l-.447-.894Z"/><path fill="currentColor" d="M20 23.5a.5.5 0 0 0 1 0h-1Zm2-2.5v4h1v-4h-1Zm-1 2.5V21h-1v2.5h1Zm.5-3a.5.5 0 0 1 .5.5h1a1.5 1.5 0 0 0-1.5-1.5v1Zm0-1A1.5 1.5 0 0 0 20 21h1a.5.5 0 0 1 .5-.5v-1Z"/><path stroke="currentColor" stroke-linecap="round" d="M20.5 23.5v-4a1 1 0 0 0-1-1v0a1 1 0 0 0-1 1V22m0 0v-3a1 1 0 0 0-1-1v0a1 1 0 0 0-1 1v2.5m0-1v-5.044a.956.956 0 0 0-.956-.956v0a.956.956 0 0 0-.955.956V24"/><path stroke="currentColor" stroke-linecap="round" stroke-linejoin="round" d="M19.5 13.5v-1a2 2 0 0 0-2-2h-3a2 2 0 0 0-2 2v1m3.5-5a1.5 1.5 0 1 0 0-3 1.5 1.5 0 0 0 0 3Z"/><path stroke="currentColor" stroke-linecap="round" d="M24.5 14.5a4 4 0 0 0 0-8"/><path stroke="currentColor" stroke-linecap="round" d="M20.5 16a7.5 7.5 0 1 0-9 0m-4-1.5a4 4 0 0 1 0-8"/></svg>
