<svg viewBox="0 0 24 24" fill="none" xmlns="http://www.w3.org/2000/svg" width="1em" height="1em"><path d="M17.3128 11.4238C18.0989 8.4897 16.3577 5.47384 13.4237 4.68766C10.4896 3.90148 7.47376 5.64269 6.68758 8.57675C5.9014 11.5108 7.6426 14.5267 10.5767 15.3128" stroke="currentColor" stroke-linecap="round"/><path d="M5 12.5C3.61929 12.5 2.5 11.3807 2.5 10C2.5 8.61929 3.61929 7.5 5 7.5" stroke="currentColor" stroke-linecap="round"/><path d="M19 12.5C20.3807 12.5 21.5 11.3807 21.5 10C21.5 8.61929 20.3807 7.5 19 7.5" stroke="currentColor" stroke-linecap="round"/><path d="M9.5 12.5V12C9.5 10.8954 10.3954 10 11.5 10H12.5C13.6046 10 14.5 10.8954 14.5 12V12.5" stroke="currentColor" stroke-linecap="round" stroke-linejoin="round"/><circle cx="12" cy="8" r="1.5" stroke="currentColor"/><path d="M15.3021 14.2794L20.7579 16.0115L18.714 17.147C18.5508 17.2377 18.4162 17.3723 18.3255 17.5355L17.1684 19.6183L15.3021 14.2794Z" stroke="currentColor" stroke-linejoin="round"/></svg>
