<svg xmlns="http://www.w3.org/2000/svg" fill="none" viewBox="0 0 16 16" width="1em" height="1em"><path stroke="currentColor" stroke-linecap="round" d="M3.5 8.5a2 2 0 1 1 0-4m9 4a2 2 0 1 0 0-4"/><path stroke="currentColor" stroke-linecap="round" d="M10.85 9.813c1.154-.843 1.9-2.184 1.9-3.695C12.75 3.568 10.623 1.5 8 1.5S3.25 3.567 3.25 6.118c0 1.51.746 2.852 1.9 3.694"/><path stroke="currentColor" stroke-linecap="round" stroke-linejoin="round" d="M9.5 8.5V8A1.5 1.5 0 0 0 8 6.5v0A1.5 1.5 0 0 0 6.5 8v.5M8 6a1 1 0 1 0 0-2 1 1 0 0 0 0 2Zm.418 8.358L8.5 9.5l4.248 2.358"/></svg>
