<svg viewBox="0 0 16 16" fill="none" xmlns="http://www.w3.org/2000/svg" width="1em" height="1em"><path d="M3.5 8.5C2.39543 8.5 1.5 7.60457 1.5 6.5C1.5 5.39543 2.39543 4.5 3.5 4.5" stroke="currentColor" stroke-linecap="round"/><path d="M12.5 8.5C13.6046 8.5 14.5 7.60457 14.5 6.5C14.5 5.39543 13.6046 4.5 12.5 4.5" stroke="currentColor" stroke-linecap="round"/><path d="M10.85 9.8125C12.0037 8.97001 12.75 7.62867 12.75 6.11787C12.75 3.56749 10.6234 1.5 8 1.5C5.37665 1.5 3.25 3.56749 3.25 6.11787C3.25 7.62867 3.99628 8.97001 5.15 9.8125" stroke="currentColor" stroke-linecap="round"/><path d="M9.5 8.5V8C9.5 7.17157 8.82843 6.5 8 6.5V6.5C7.17157 6.5 6.5 7.17157 6.5 8V8.5" stroke="currentColor" stroke-linecap="round" stroke-linejoin="round"/><path d="M8 6C8.55228 6 9 5.55228 9 5C9 4.44772 8.55228 4 8 4C7.44772 4 7 4.44772 7 5C7 5.55228 7.44772 6 8 6Z" stroke="currentColor" stroke-linecap="round" stroke-linejoin="round"/><path d="M8.41827 14.3584L8.5 9.5L12.7484 11.8584" stroke="currentColor" stroke-linecap="round" stroke-linejoin="round"/></svg>
