<svg xmlns="http://www.w3.org/2000/svg" fill="none" viewBox="0 0 32 33" width="1em" height="1em"><path fill="currentColor" d="m12.672 21.317-.407.29zm1.51 2.974a.5.5 0 0 0 .814-.581zm-.74 3.17-.436.245zm-2.748-4.887.435-.245zm6.235 6.926v.5zm1.571 0V29zm4-4h.5zm-11.308-4.55.223.447zm1.073.658 1.917 2.684.814-.581-1.917-2.684zm1.613 5.61-2.749-4.888-.871.49 2.748 4.887zM16.928 30H18.5v-1h-1.571zM23 25.5v-1h-1v1zM18.5 30a4.5 4.5 0 0 0 4.5-4.5h-1a3.5 3.5 0 0 1-3.5 3.5zm-5.494-2.294A4.5 4.5 0 0 0 16.93 30v-1a3.5 3.5 0 0 1-3.051-1.784zm-1.59-6.31a.674.674 0 0 1 .85.211l.813-.581a1.674 1.674 0 0 0-2.111-.524zm-.448-.894a1.674 1.674 0 0 0-.71 2.318l.871-.49a.674.674 0 0 1 .286-.934z"/><path fill="currentColor" d="M20 23.5a.5.5 0 0 0 1 0zm2-2.5v4h1v-4zm-1 2.5V21h-1v2.5zm.5-3a.5.5 0 0 1 .5.5h1a1.5 1.5 0 0 0-1.5-1.5zm0-1A1.5 1.5 0 0 0 20 21h1a.5.5 0 0 1 .5-.5z"/><path stroke="currentColor" stroke-linecap="round" d="M20.5 23.5v-4a1 1 0 0 0-1-1v0a1 1 0 0 0-1 1V22m0 0v-3a1 1 0 0 0-1-1v0a1 1 0 0 0-1 1v2.5m0-1v-5.044a.956.956 0 0 0-.956-.956v0a.956.956 0 0 0-.955.956V24"/><path stroke="currentColor" stroke-linecap="round" stroke-linejoin="round" d="M19.5 13.5v-1a2 2 0 0 0-2-2h-3a2 2 0 0 0-2 2v1m3.5-5a1.5 1.5 0 1 0 0-3 1.5 1.5 0 0 0 0 3"/><path stroke="currentColor" stroke-linecap="round" d="M24.5 14.5a4 4 0 0 0 0-8"/><path stroke="currentColor" stroke-linecap="round" d="M20.5 16a7.5 7.5 0 1 0-9 0m-4-1.5a4 4 0 0 1 0-8"/></svg>
