<svg xmlns="http://www.w3.org/2000/svg" fill="none" viewBox="0 0 24 24" width="1em" height="1em"><path stroke="currentColor" stroke-linecap="round" d="M17.313 11.424a5.5 5.5 0 1 0-6.736 3.889M5 12.5a2.5 2.5 0 0 1 0-5m14 5a2.5 2.5 0 0 0 0-5"/><path stroke="currentColor" stroke-linecap="round" stroke-linejoin="round" d="M9.5 12.5V12a2 2 0 0 1 2-2h1a2 2 0 0 1 2 2v.5"/><circle cx="12" cy="8" r="1.5" stroke="currentColor"/><path stroke="currentColor" stroke-linejoin="round" d="m15.302 14.28 5.456 1.732-2.044 1.135a1 1 0 0 0-.388.389l-1.158 2.082z"/></svg>
