<svg xmlns="http://www.w3.org/2000/svg" fill="none" viewBox="0 0 16 16" width="1em" height="1em"><path fill="currentColor" d="M10.5 5a.5.5 0 0 0 0 1V5Zm3 .5V6a.5.5 0 0 0 .5-.5h-.5Zm1 2.694a.5.5 0 1 0-1 0h1Zm-5.91-5.78-.048.497.047-.498ZM14 2.5a.5.5 0 0 0-1 0h1ZM10.5 6h3V5h-3v1Zm3 2.194a5.194 5.194 0 0 1-1.244 3.36l.762.647A6.194 6.194 0 0 0 14.5 8.194h-1Zm-1.244 3.36a5.539 5.539 0 0 1-3.181 1.844l.189.982a6.539 6.539 0 0 0 3.754-2.179l-.762-.647Zm-3.181 1.844A5.675 5.675 0 0 1 5.4 12.87l-.46.888a6.675 6.675 0 0 0 4.324.622l-.19-.982ZM5.4 12.87a5.38 5.38 0 0 1-2.484-2.653l-.92.393a6.38 6.38 0 0 0 2.945 3.148l.46-.888Zm-2.484-2.653a5.133 5.133 0 0 1-.18-3.562l-.954-.299a6.133 6.133 0 0 0 .215 4.255l.919-.394Zm-.18-3.562a5.327 5.327 0 0 1 2.203-2.872l-.543-.84a6.327 6.327 0 0 0-2.614 3.413l.954.3Zm2.203-2.872a5.654 5.654 0 0 1 3.603-.872l.095-.995a6.654 6.654 0 0 0-4.24 1.027l.542.84ZM13 2.5v3h1v-3h-1Zm-4.458.411c2.011.192 3.602 1.456 4.542 2.866l.832-.554c-1.06-1.59-2.893-3.08-5.28-3.307l-.094.995Z"/></svg>
