<svg xmlns="http://www.w3.org/2000/svg" fill="none" viewBox="0 0 24 24" width="1em" height="1em"><path stroke="currentColor" stroke-linecap="round" stroke-miterlimit="10" d="M19 6c-1.85-1.95-3.31-3.063-6.116-3.346A8.85 8.85 0 0 0 7 4.16a9.18 9.18 0 0 0-3.613 4.975 9.38 9.38 0 0 0 .296 6.188 9.13 9.13 0 0 0 4.072 4.591 8.83 8.83 0 0 0 5.998.91 8.97 8.97 0 0 0 5.202-3.183A9.32 9.32 0 0 0 21 11.807"/><path stroke="currentColor" stroke-linecap="round" stroke-linejoin="round" stroke-miterlimit="10" d="M19.5 2.5v4h-4"/></svg>
