<svg xmlns="http://www.w3.org/2000/svg" fill="none" viewBox="0 0 32 32" width="1em" height="1em"><path fill="currentColor" d="M29 16a.5.5 0 1 0-1 0h1ZM8.78 5.19l-.278-.416.278.415ZM26.5 8.5V9a.5.5 0 0 0 .5-.505l-.5.005Zm.453-4.505a.5.5 0 1 0-1 .01l1-.01ZM22 8a.5.5 0 0 0 0 1V8Zm-6 21v.5-.5Zm0-26v-.5.5ZM3 16h-.5.5Zm24-7.505-.047-4.5-1 .01.047 4.5 1-.01ZM26.5 8H22v1h4.5V8ZM9.057 5.605A12.5 12.5 0 0 1 16 3.5v-1a13.5 13.5 0 0 0-7.498 2.274l.555.831ZM16 3.5c3.856 0 7.914 2.098 10.087 5.282l.826-.564C24.55 4.755 20.179 2.5 16 2.5v1ZM3.5 16c0-4.128 2.117-8.097 5.557-10.395l-.555-.831C4.784 7.257 2.5 11.539 2.5 16h1ZM16 28.5C9.253 28.5 3.5 22.806 3.5 16h-1c0 7.361 6.204 13.5 13.5 13.5v-1ZM28 16c-.002 6.861-5.12 12.5-12 12.5v1c7.487 0 12.998-6.142 13-13.5h-1Z"/></svg>
