<svg viewBox="0 0 16 16" fill="none" xmlns="http://www.w3.org/2000/svg" stroke="currentColor"><path d="M10.5 5C10.2239 5 10 5.22386 10 5.5C10 5.77614 10.2239 6 10.5 6V5ZM13.5 5.5V6C13.7761 6 14 5.77614 14 5.5H13.5ZM14.5 8.19422C14.5001 7.91807 14.2763 7.69416 14.0001 7.69409C13.724 7.69401 13.5001 7.91781 13.5 8.19396L14.5 8.19422ZM8.58922 2.41332L8.54168 2.91105L8.58922 2.41332ZM14 2.5C14 2.22386 13.7761 2 13.5 2C13.2239 2 13 2.22386 13 2.5H14ZM10.5 6H13.5V5H10.5V6ZM13.5 8.19396C13.4997 9.41733 13.0612 10.605 12.2559 11.5544L13.0184 12.2013C13.9748 11.074 14.4996 9.65794 14.5 8.19422L13.5 8.19396ZM12.2559 11.5544C11.4502 12.5042 10.3265 13.157 9.07475 13.3977L9.26358 14.3797C10.7348 14.0968 12.0624 13.3283 13.0184 12.2013L12.2559 11.5544ZM9.07475 13.3977C7.82283 13.6384 6.52396 13.4513 5.40028 12.8696L4.94058 13.7577C6.26502 14.4433 7.79249 14.6626 9.26358 14.3797L9.07475 13.3977ZM5.40028 12.8696C4.27688 12.2881 3.40024 11.3496 2.91595 10.2172L1.99651 10.6105C2.57408 11.9609 3.61587 13.072 4.94058 13.7577L5.40028 12.8696ZM2.91595 10.2172C2.43181 9.08525 2.36835 7.82688 2.7358 6.65532L1.78163 6.35605C1.34264 7.75572 1.41879 9.25968 1.99651 10.6105L2.91595 10.2172ZM2.7358 6.65532C3.10335 5.48345 3.88051 4.4675 4.93901 3.78323L4.39612 2.94343C3.14597 3.75159 2.22053 4.95669 1.78163 6.35605L2.7358 6.65532ZM4.93901 3.78323C5.99782 3.09876 7.27117 2.7897 8.54168 2.91105L8.63677 1.91558C7.14447 1.77305 5.64596 2.13547 4.39612 2.94343L4.93901 3.78323ZM13 2.5V5.5H14V2.5H13ZM8.54168 2.91105C10.5534 3.1032 12.144 4.36745 13.084 5.77735L13.916 5.22265C12.856 3.63255 11.0228 2.14348 8.63677 1.91558L8.54168 2.91105Z" fill="#282829"/></svg>