<svg xmlns="http://www.w3.org/2000/svg" fill="none" viewBox="0 0 16 16" width="1em" height="1em"><path fill="currentColor" d="M10.5 5a.5.5 0 0 0 0 1zm3 .5V6a.5.5 0 0 0 .5-.5zm1 2.694a.5.5 0 1 0-1 0zm-5.91-5.78-.048.497zM14 2.5a.5.5 0 0 0-1 0zM10.5 6h3V5h-3zm3 2.194a5.2 5.2 0 0 1-1.244 3.36l.762.647A6.2 6.2 0 0 0 14.5 8.194zm-1.244 3.36a5.54 5.54 0 0 1-3.181 1.844l.189.982a6.54 6.54 0 0 0 3.754-2.179zm-3.181 1.844A5.68 5.68 0 0 1 5.4 12.87l-.46.888a6.68 6.68 0 0 0 4.324.622zM5.4 12.87a5.38 5.38 0 0 1-2.484-2.653l-.92.393a6.38 6.38 0 0 0 2.945 3.148zm-2.484-2.653a5.13 5.13 0 0 1-.18-3.562l-.954-.299a6.13 6.13 0 0 0 .215 4.255zm-.18-3.562a5.33 5.33 0 0 1 2.203-2.872l-.543-.84a6.33 6.33 0 0 0-2.614 3.413zm2.203-2.872a5.65 5.65 0 0 1 3.603-.872l.095-.995a6.65 6.65 0 0 0-4.24 1.027zM13 2.5v3h1v-3zm-4.458.411c2.011.192 3.602 1.456 4.542 2.866l.832-.554c-1.06-1.59-2.893-3.08-5.28-3.307z"/></svg>
