<svg viewBox="0 0 16 16" fill="none" xmlns="http://www.w3.org/2000/svg" stroke="currentColor"><path d="M6.33333 3C4.39135 3.70649 3 5.6128 3 7.85358C3 8.07252 3.01328 8.28826 3.03906 8.5M9.66667 3C11.6087 3.70649 13 5.6128 13 7.85358C13 8.07252 12.9867 8.28826 12.9609 8.5M5 11.9711C5.83566 12.6172 6.87439 13 8 13C9.19011 13 10.2831 12.572 11.1416 11.8575"/><circle cx="3.5" cy="10.5" r="2"/><circle cx="12.5" cy="10.5" r="2"/><path d="M10 3.5C10 4.60457 9.10457 5.5 8 5.5C6.89543 5.5 6 4.60457 6 3.5C6 2.39543 6.89543 1.5 8 1.5C9.10457 1.5 10 2.39543 10 3.5Z"/></svg>
