<svg viewBox="0 0 24 24" fill="none" xmlns="http://www.w3.org/2000/svg" width="1em" height="1em"><path d="M15 5.67383C17.3649 6.79729 19 9.2078 19 12.0002C19 12.1683 18.9941 12.335 18.9824 12.5002M9 5.67383C6.63505 6.79729 5 9.2078 5 12.0002C5 12.1683 5.00593 12.335 5.01758 12.5002M7.80475 17.6043C8.97386 18.4809 10.4263 19.0002 12 19.0002C13.6299 19.0002 15.1297 18.4431 16.3194 17.509" stroke="currentColor"/><circle cx="5.5" cy="15.5" r="3" stroke="currentColor"/><circle cx="18.5" cy="15.5" r="3" stroke="currentColor"/><path d="M15 5.5C15 7.15685 13.6569 8.5 12 8.5C10.3431 8.5 9 7.15685 9 5.5C9 3.84315 10.3431 2.5 12 2.5C13.6569 2.5 15 3.84315 15 5.5Z" stroke="currentColor"/></svg>
