<svg xmlns="http://www.w3.org/2000/svg" fill="none" viewBox="0 0 32 32" width="1em" height="1em"><path stroke="currentColor" d="M26.915 17.293S27 16.4 27 15.943c0-4.394-2.669-8.176-6.5-9.865M5.085 17.293A11 11 0 0 1 5 15.943c0-4.394 2.669-8.176 6.5-9.865m11 18.584A11.1 11.1 0 0 1 16 26.75c-2.432 0-4.679-.775-6.5-2.088"/><circle cx="7" cy="21" r="4.5" stroke="currentColor"/><circle cx="25" cy="21" r="4.5" stroke="currentColor"/><path stroke="currentColor" d="M20.5 7a4.5 4.5 0 1 1-9 0 4.5 4.5 0 0 1 9 0Z"/></svg>
