<svg viewBox="0 0 32 32" fill="none" xmlns="http://www.w3.org/2000/svg" width="1em" height="1em"><path d="M26.5 15.9423C26.5 16.1501 26.4802 16.4707 26.4589 16.7516C26.4484 16.8894 26.438 17.0133 26.4301 17.1028C26.4262 17.1475 26.4229 17.1835 26.4207 17.2082C26.4195 17.2206 26.4186 17.2301 26.418 17.2365C26.4177 17.2397 26.4175 17.2421 26.4174 17.2437C26.4173 17.2444 26.4172 17.245 26.4172 17.2454C26.4172 17.2456 26.4172 17.2457 26.4172 17.2458C26.4172 17.2458 26.4172 17.2458 26.4171 17.2459C26.4171 17.2459 26.4171 17.2459 26.4171 17.2459C26.4171 17.2459 26.4171 17.2459 26.9149 17.2933C27.4126 17.3407 27.4126 17.3407 27.4126 17.3406C27.4126 17.3406 27.4126 17.3406 27.4127 17.3406C27.4127 17.3405 27.4127 17.3405 27.4127 17.3404C27.4127 17.3403 27.4127 17.3401 27.4127 17.3398C27.4128 17.3393 27.4128 17.3386 27.4129 17.3377C27.4131 17.3359 27.4133 17.3332 27.4137 17.3297C27.4143 17.3228 27.4153 17.3127 27.4165 17.2997C27.4188 17.2738 27.4222 17.2364 27.4263 17.1902C27.4344 17.0979 27.4452 16.9699 27.456 16.8272C27.4773 16.5469 27.5 16.1921 27.5 15.9423H26.5ZM5.58112 17.2303C5.5276 16.8086 5.5 16.3787 5.5 15.9423H4.5C4.5 16.4209 4.53027 16.8928 4.58908 17.3562L5.58112 17.2303ZM5.5 15.9423C5.5 11.7577 8.04131 8.14946 11.7018 6.53512L11.2982 5.62015C7.29569 7.38537 4.5 11.3396 4.5 15.9423H5.5ZM20.2982 6.53512C23.9587 8.14946 26.5 11.7577 26.5 15.9423H27.5C27.5 11.3396 24.7043 7.38537 20.7018 5.62015L20.2982 6.53512ZM22.2076 24.2564C20.4694 25.5093 18.3239 26.2498 16 26.2498V27.2498C18.5394 27.2498 20.8885 26.4399 22.7924 25.0677L22.2076 24.2564ZM16 26.2498C13.6761 26.2498 11.5306 25.5093 9.79237 24.2564L9.20764 25.0677C11.1115 26.4399 13.4606 27.2498 16 27.2498V26.2498Z" fill="currentColor"/><circle cx="7" cy="21" r="4.5" stroke="currentColor"/><circle cx="25" cy="21" r="4.5" stroke="currentColor"/><path d="M20.5 7C20.5 9.48528 18.4853 11.5 16 11.5C13.5147 11.5 11.5 9.48528 11.5 7C11.5 4.51472 13.5147 2.5 16 2.5C18.4853 2.5 20.5 4.51472 20.5 7Z" stroke="currentColor"/></svg>
