<svg viewBox="0 0 32 32" fill="none" xmlns="http://www.w3.org/2000/svg" width="1em" height="1em"><path d="M26.9149 17.2933C26.9149 17.2933 27 16.3998 27 15.9423C27 11.5487 24.3315 7.76741 20.5 6.07764M5.0851 17.2933C5.02893 16.8507 5 16.3998 5 15.9423C5 11.5487 7.6685 7.76741 11.5 6.07764M22.5 24.662C20.679 25.9746 18.4316 26.7498 16 26.7498C13.5684 26.7498 11.321 25.9746 9.5 24.662" stroke="currentColor"/><circle cx="7" cy="21" r="4.5" stroke="currentColor"/><circle cx="25" cy="21" r="4.5" stroke="currentColor"/><path d="M20.5 7C20.5 9.48528 18.4853 11.5 16 11.5C13.5147 11.5 11.5 9.48528 11.5 7C11.5 4.51472 13.5147 2.5 16 2.5C18.4853 2.5 20.5 4.51472 20.5 7Z" stroke="currentColor"/></svg>
