<svg xmlns="http://www.w3.org/2000/svg" fill="none" viewBox="0 0 18 18" width="1em" height="1em"><path stroke="currentColor" stroke-width=".087" d="M1 1h16M1 1v16M1 1l16 16m0-16v16m0-16L1 17m16 0H1"/><circle cx="9" cy="9" r="6.667" stroke="currentColor" stroke-width=".087"/><rect width="13.333" height="10.667" x="2.333" y="3.667" stroke="currentColor" stroke-width=".087" rx="1.333"/><rect width="10.667" height="13.333" x="3.667" y="2.333" stroke="currentColor" stroke-width=".087" rx="1.333"/><rect width="12" height="12" x="3" y="3" stroke="currentColor" stroke-width=".087" rx="1.333"/><circle cx="9" cy="9" r="2.667" stroke="currentColor" stroke-width=".087"/><path stroke="currentColor" stroke-linecap="round" stroke-linejoin="round" d="M2.042 11.708 2.5 10l1.707.457M15.665 5.25l-.457 1.708L13.5 6.5"/><path stroke="currentColor" stroke-linecap="round" stroke-linejoin="round" d="M2.81 10.446a6.378 6.378 0 0 0 12.222 0M2.81 6.804a6.378 6.378 0 0 1 12.222 0"/><path fill="currentColor" d="M8.598 10.175c-.21.215-.648.563-1.494.563-1.218 0-2.172-.803-2.172-2.136 0-1.338.966-2.136 2.172-2.136.852 0 1.314.354 1.422.468l-.3.805c-.078-.103-.522-.433-1.068-.433-.702 0-1.242.468-1.242 1.279s.564 1.271 1.242 1.271c.516 0 .888-.203 1.116-.437zm4.029.491h-1.158l-.852-1.542-.858 1.542H8.6l1.374-2.148L8.69 6.526h1.152l.774 1.362.774-1.361h1.152l-1.29 1.991z"/></svg>
