<svg xmlns="http://www.w3.org/2000/svg" fill="none" viewBox="0 0 33 32" width="1em" height="1em"><path stroke="currentColor" stroke-linecap="round" d="M30.19 14c-.98-6.785-6.874-12-14-12-7.124 0-13.019 5.215-14 12m0 4c.981 6.785 6.876 12 14 12 7.126 0 13.02-5.215 14-12"/><path stroke="currentColor" stroke-linecap="round" stroke-linejoin="round" d="m26.727 12.5 3.464 2 2-3.464M.5 21.125 2.19 17.5l3.626 1.69"/><path fill="currentColor" d="M15.83 18.92c-.516.576-1.464 1.224-3.036 1.224-2.412 0-4.224-1.692-4.224-4.272s1.86-4.272 4.236-4.272c1.548 0 2.484.648 2.94 1.092l-.492.936c-.324-.408-1.248-1.008-2.4-1.008-1.788 0-3.084 1.284-3.084 3.228s1.308 3.228 3.084 3.228c1.092 0 1.932-.42 2.472-1.008zM24.278 20h-1.404l-2.1-3.516L18.686 20h-1.392l2.736-4.272-2.544-4.008h1.368l1.92 3.228 1.932-3.228h1.368l-2.544 4.008z"/></svg>
