<svg xmlns="http://www.w3.org/2000/svg" fill="none" viewBox="0 0 38 38" width="1em" height="1em"><path stroke="currentColor" stroke-linecap="round" d="M30.384 19.372c.172-5.519-3.774-10.48-9.426-11.476-5.651-.997-11.056 2.316-12.783 7.56m-.559 3.173c-.171 5.518 3.775 10.48 9.426 11.476 5.652.996 11.057-2.316 12.783-7.56"/><path stroke="currentColor" stroke-linecap="round" stroke-linejoin="round" d="m27.23 16.808 3.142 2.636 2.635-3.141M5.109 21.48l2.352-3.36 3.358 2.353"/><path fill="currentColor" d="M18.542 21.758c-.36.388-1.052.904-2.307.904-1.863 0-3.302-1.264-3.302-3.284s1.457-3.284 3.302-3.284c1.246 0 1.966.525 2.224.784l-.424.978c-.185-.24-.905-.73-1.809-.73-1.107 0-2.057.73-2.057 2.233 0 1.375.858 2.27 2.131 2.27a2.4 2.4 0 0 0 1.817-.775zm3.923-1.743-1.476 2.537h-1.421l2.113-3.294-1.975-3.072h1.412l1.338 2.297 1.337-2.297h1.412l-1.974 3.081 2.112 3.285h-1.43z"/></svg>
