<svg viewBox="0 0 33 33" fill="none" xmlns="http://www.w3.org/2000/svg" stroke="currentColor"><path d="M25.0372 27.4999H8.99553C8.16494 27.4999 7.49162 26.8266 7.49162 25.996V5.9439C7.49162 5.11332 8.16494 4.44 8.99553 4.44H19.1783C19.5962 4.44 19.9952 4.61388 20.2797 4.91994L26.1387 11.2223C26.3973 11.5006 26.5411 11.8664 26.5411 12.2463V25.996C26.5411 26.8266 25.8678 27.4999 25.0372 27.4999Z"/><path d="M18.5122 3.93869V9.45301C18.5122 10.5605 19.4099 11.4582 20.5174 11.4582H26.0263"/><path d="M9.84035 16.2363C9.59634 16.1649 9.59909 15.8384 9.84427 15.7707L16.8993 13.8224C16.9939 13.7962 17.0946 13.7962 17.1893 13.8224L24.2442 15.7707C24.4894 15.8384 24.4922 16.1649 24.2482 16.2363L17.1971 18.2987C17.0975 18.3278 16.991 18.3278 16.8914 18.2987L9.84035 16.2363Z" stroke-linejoin="round"/><path d="M23.5612 17.5458V21.0814" stroke-linecap="round"/><path d="M12.6417 19.5424V22.282C12.6417 22.5589 12.8662 22.7834 13.143 22.7834H21.0529C21.3298 22.7834 21.5542 22.5589 21.5542 22.282V19.5424" stroke-linecap="round" stroke-linejoin="round"/></svg>
