<svg xmlns="http://www.w3.org/2000/svg" fill="none" viewBox="0 0 32 32" width="1em" height="1em"><path stroke="currentColor" d="M24.972 27.429h-16a1.5 1.5 0 0 1-1.5-1.5v-20a1.5 1.5 0 0 1 1.5-1.5H19.13a1.5 1.5 0 0 1 1.098.478l5.844 6.286a1.5 1.5 0 0 1 .401 1.022v13.714a1.5 1.5 0 0 1-1.5 1.5Z"/><path stroke="currentColor" d="M18.464 3.929v5.5a2 2 0 0 0 2 2h5.495"/><path stroke="currentColor" stroke-linejoin="round" d="M9.56 15.954a.241.241 0 0 1 .004-.467l6.82-1.908a.53.53 0 0 1 .288 0l6.82 1.908a.241.241 0 0 1 .004.467l-6.817 2.02a.54.54 0 0 1-.303 0z"/><path stroke="currentColor" stroke-linecap="round" d="M23.5 17.5v3.527"/><path stroke="currentColor" stroke-linecap="round" stroke-linejoin="round" d="M12.609 19.492v2.732a.5.5 0 0 0 .5.5h7.89a.5.5 0 0 0 .5-.5v-2.732"/></svg>
