<svg xmlns="http://www.w3.org/2000/svg" fill="none" viewBox="0 0 16 16" width="1em" height="1em"><path stroke="currentColor" d="M13 14.5H4A1.5 1.5 0 0 1 2.5 13V3A1.5 1.5 0 0 1 4 1.5h6.249a1.5 1.5 0 0 1 .987.371l2.752 2.408a1.5 1.5 0 0 1 .512 1.129V13a1.5 1.5 0 0 1-1.5 1.5Z"/><path stroke="currentColor" d="M10.5 1.5v2a1 1 0 0 0 1 1H14"/><path stroke="currentColor" stroke-linejoin="round" d="M4.745 8.024a.25.25 0 0 1 .023-.476l3.855-1.015a.5.5 0 0 1 .254 0l3.855 1.015a.25.25 0 0 1 .023.476L8.923 9.436a.5.5 0 0 1-.346 0z"/><path stroke="currentColor" stroke-linecap="round" d="M12.5 7.836V10"/><path stroke="currentColor" stroke-linecap="round" stroke-linejoin="round" d="M6.5 9v2a.5.5 0 0 0 .5.5h3a.5.5 0 0 0 .5-.5V9"/></svg>
