<svg viewBox="0 0 24 24" fill="none" xmlns="http://www.w3.org/2000/svg" width="1em" height="1em"><path d="M18 20.5L6 20.5C5.17157 20.5 4.5 19.8284 4.5 19L4.5 5C4.5 4.17157 5.17157 3.5 6 3.5L13.569 3.5C13.9679 3.5 14.3505 3.65895 14.632 3.94171L19.063 8.39252C19.3429 8.67363 19.5 9.05415 19.5 9.45082V19C19.5 19.8284 18.8284 20.5 18 20.5Z" stroke="currentColor"/><path d="M13.4778 3.5L13.4778 6.50921C13.4778 7.61378 14.3733 8.50921 15.4778 8.50921H19.3083" stroke="currentColor"/><path d="M6.83441 12.2082C6.59162 12.1476 6.57858 11.8075 6.81601 11.7285L11.8523 10.0526C11.9549 10.0185 12.0659 10.0185 12.1685 10.0528L17.1871 11.7286C17.4242 11.8077 17.4111 12.1475 17.1686 12.2082L12.1317 13.4696C12.0521 13.4896 11.9688 13.4896 11.8891 13.4697L6.83441 12.2082Z" stroke="currentColor" stroke-linejoin="round"/><path d="M16.5 12.3179V14.5" stroke="currentColor" stroke-linecap="round"/><path d="M9 14.1211V15.9998C9 16.2759 9.22386 16.4998 9.5 16.4998H14.5C14.7761 16.4998 15 16.2759 15 15.9998V14.1211" stroke="currentColor" stroke-linecap="round" stroke-linejoin="round"/></svg>
