<svg xmlns="http://www.w3.org/2000/svg" fill="none" viewBox="0 0 33 33" width="1em" height="1em"><path stroke="currentColor" d="M25.037 27.5H8.996a1.504 1.504 0 0 1-1.504-1.504V5.944c0-.83.673-1.504 1.504-1.504h10.182c.418 0 .817.174 1.102.48l5.859 6.302c.258.278.402.644.402 1.024v13.75c0 .83-.673 1.504-1.504 1.504Z"/><path stroke="currentColor" d="M18.512 3.938v5.515c0 1.107.898 2.005 2.005 2.005h5.51"/><path stroke="currentColor" stroke-linejoin="round" d="M9.84 16.236a.24.24 0 0 1 .004-.466l7.055-1.948a.547.547 0 0 1 .29 0l7.055 1.948a.24.24 0 0 1 .004.466l-7.05 2.063a.553.553 0 0 1-.307 0l-7.05-2.063Z"/><path stroke="currentColor" stroke-linecap="round" d="M23.561 17.546v3.535"/><path stroke="currentColor" stroke-linecap="round" stroke-linejoin="round" d="M12.642 19.542v2.74a.5.5 0 0 0 .5.5h7.91a.501.501 0 0 0 .502-.5v-2.74"/></svg>
