<svg viewBox="0 0 33 33" fill="none" xmlns="http://www.w3.org/2000/svg" width="1em" height="1em"><path d="M25.0373 27.4999H8.99565C8.16507 27.4999 7.49174 26.8266 7.49174 25.996V5.9439C7.49174 5.11332 8.16507 4.44 8.99565 4.44H19.1784C19.5963 4.44 19.9953 4.61388 20.2799 4.91994L26.1388 11.2223C26.3974 11.5006 26.5412 11.8664 26.5412 12.2463V25.996C26.5412 26.8266 25.8679 27.4999 25.0373 27.4999Z" stroke="currentColor"/><path d="M18.5122 3.93869V9.45301C18.5122 10.5605 19.4099 11.4582 20.5174 11.4582H26.0263" stroke="currentColor"/><path d="M9.84035 16.2364C9.59634 16.165 9.59909 15.8384 9.84427 15.7707L16.8993 13.8224C16.9939 13.7963 17.0946 13.7963 17.1893 13.8224L24.2442 15.7707C24.4894 15.8384 24.4922 16.165 24.2482 16.2364L17.1971 18.2988C17.0975 18.3279 16.991 18.3279 16.8914 18.2988L9.84035 16.2364Z" stroke="currentColor" stroke-linejoin="round"/><path d="M23.5612 17.5458V21.0814" stroke="currentColor" stroke-linecap="round"/><path d="M12.6416 19.5424V22.282C12.6416 22.5589 12.866 22.7834 13.1429 22.7834H21.0528C21.3296 22.7834 21.5541 22.5589 21.5541 22.282V19.5424" stroke="currentColor" stroke-linecap="round" stroke-linejoin="round"/></svg>
