<svg xmlns="http://www.w3.org/2000/svg" fill="none" viewBox="0 0 24 24" width="1em" height="1em"><path stroke="currentColor" d="M18 20.5H6A1.5 1.5 0 0 1 4.5 19V5A1.5 1.5 0 0 1 6 3.5h7.569a1.5 1.5 0 0 1 1.063.442l4.431 4.45a1.5 1.5 0 0 1 .437 1.059V19a1.5 1.5 0 0 1-1.5 1.5Z"/><path stroke="currentColor" d="M13.478 3.5v3.01a2 2 0 0 0 2 2h3.83"/><path stroke="currentColor" stroke-linejoin="round" d="M6.834 12.208c-.242-.06-.255-.4-.018-.48l5.036-1.675a.5.5 0 0 1 .316 0l5.02 1.676c.236.079.223.419-.02.48l-5.036 1.26a.5.5 0 0 1-.243 0z"/><path stroke="currentColor" stroke-linecap="round" d="M16.5 12.318V14.5"/><path stroke="currentColor" stroke-linecap="round" stroke-linejoin="round" d="M9 14.121V16a.5.5 0 0 0 .5.5h5a.5.5 0 0 0 .5-.5v-1.88"/></svg>
