<svg viewBox="0 0 16 16" fill="none" xmlns="http://www.w3.org/2000/svg" width="1em" height="1em"><path d="M13 14.5L4 14.5C3.17157 14.5 2.5 13.8284 2.5 13L2.5 3C2.5 2.17157 3.17157 1.5 4 1.5L10.2485 1.5C10.6119 1.5 10.9628 1.63188 11.2363 1.87113L13.9878 4.27867C14.3133 4.5635 14.5 4.97499 14.5 5.40754L14.5 13C14.5 13.8284 13.8284 14.5 13 14.5Z" stroke="currentColor"/><path d="M10.5 1.5V3.5C10.5 4.05228 10.9477 4.5 11.5 4.5H14" stroke="currentColor"/><path d="M4.74473 8.02437C4.51532 7.93985 4.5311 7.61024 4.76753 7.54802L8.62275 6.53349C8.70617 6.51154 8.79384 6.51154 8.87725 6.53349L12.7325 7.54802C12.9689 7.61024 12.9847 7.93985 12.7553 8.02437L8.92285 9.43632C8.81128 9.47742 8.68872 9.47742 8.57715 9.43632L4.74473 8.02437Z" stroke="currentColor" stroke-linejoin="round"/><path d="M12.5 7.83594V10.0002" stroke="currentColor" stroke-linecap="round"/><path d="M6.5 9V11C6.5 11.2761 6.72386 11.5 7 11.5H10C10.2761 11.5 10.5 11.2761 10.5 11V9" stroke="currentColor" stroke-linecap="round" stroke-linejoin="round"/></svg>
