<svg xmlns="http://www.w3.org/2000/svg" fill="none" viewBox="0 0 32 32" width="1em" height="1em"><circle cx="11.5" cy="27.5" r="2" stroke="currentColor"/><circle cx="22.5" cy="27.5" r="2" stroke="currentColor"/><path stroke="currentColor" stroke-linecap="round" d="M25.5 23.5H9.513a2 2 0 0 1-2-2v-15a2 2 0 0 0-2-2H4"/><path stroke="currentColor" d="M12.079 8.367A1.5 1.5 0 0 1 13.572 7h6.854a1.5 1.5 0 0 1 1.495 1.367l.933 10.5A1.5 1.5 0 0 1 21.36 20.5h-8.722a1.5 1.5 0 0 1-1.494-1.633l.934-10.5Z"/><path stroke="currentColor" stroke-linecap="round" d="M19.5 8.5c0-1.73 0-5-2.5-5s-2.5 3.27-2.5 5"/></svg>
