<svg viewBox="0 0 32 32" fill="none" xmlns="http://www.w3.org/2000/svg" width="1em" height="1em"><circle cx="11.5" cy="27.5" r="2" stroke="currentColor"/><circle cx="22.5" cy="27.5" r="2" stroke="currentColor"/><path d="M25.5 23.5L9.51314 23.5C8.40857 23.5 7.51314 22.6046 7.51314 21.5L7.51314 6.5C7.51314 5.39543 6.61771 4.5 5.51314 4.5H4" stroke="currentColor" stroke-linecap="round"/><path d="M12.0785 8.36719C12.1473 7.59328 12.7956 7 13.5726 7L20.4274 7C21.2044 7 21.8527 7.59328 21.9215 8.36719L22.8549 18.8672C22.9329 19.7446 22.2416 20.5 21.3608 20.5H12.6392C11.7584 20.5 11.0671 19.7446 11.1451 18.8672L12.0785 8.36719Z" stroke="currentColor"/><path d="M19.5 8.5C19.5 6.76966 19.5 3.5 17 3.5C14.5 3.5 14.5 6.76966 14.5 8.5" stroke="currentColor" stroke-linecap="round"/></svg>
