<svg xmlns="http://www.w3.org/2000/svg" fill="none" viewBox="0 0 16 16" width="1em" height="1em"><path stroke="currentColor" stroke-linecap="round" d="M12.5 11.5h-7a2 2 0 0 1-2-2v-5a1 1 0 0 0-1-1H2m8.5 2v-1c0-.571-.5-2-2-2s-2 1.429-2 2v1"/><path stroke="currentColor" d="M5.73 8.902 6.41 5.5h4.18l.68 3.402a.5.5 0 0 1-.49.598H6.22a.5.5 0 0 1-.49-.598Z"/><circle cx="5" cy="14" r=".5" stroke="currentColor" stroke-linecap="round"/><circle cx="11" cy="14" r=".5" stroke="currentColor" stroke-linecap="round"/></svg>
