<svg xmlns="http://www.w3.org/2000/svg" fill="none" viewBox="0 0 24 24" width="1em" height="1em"><circle cx="9" cy="20" r="1.5" stroke="currentColor"/><circle cx="16" cy="20" r="1.5" stroke="currentColor"/><path stroke="currentColor" stroke-linecap="round" d="M18.5 16.5h-11a2 2 0 0 1-2-2v-9a1 1 0 0 0-1-1h-1"/><path stroke="currentColor" d="M8.564 6.89A1.5 1.5 0 0 1 10.06 5.5h4.88a1.5 1.5 0 0 1 1.496 1.39l.445 6a1.5 1.5 0 0 1-1.496 1.61h-5.77a1.5 1.5 0 0 1-1.496-1.61l.445-6Z"/><path stroke="currentColor" stroke-linecap="round" d="M14.5 5.5c0-1 0-3-2-3s-2 2-2 3"/></svg>
