<svg viewBox="0 0 24 24" fill="none" xmlns="http://www.w3.org/2000/svg" width="1em" height="1em"><circle cx="9" cy="20" r="1.5" stroke="currentColor"/><circle cx="16" cy="20" r="1.5" stroke="currentColor"/><path d="M18.5 16.5H7.5C6.39543 16.5 5.5 15.6046 5.5 14.5L5.5 5.5C5.5 4.94772 5.05228 4.5 4.5 4.5H3.5" stroke="currentColor" stroke-linecap="round"/><path d="M8.56376 6.88919C8.62178 6.1059 9.27422 5.5 10.0597 5.5L14.9403 5.5C15.7258 5.5 16.3782 6.1059 16.4362 6.88919L16.8807 12.8892C16.9451 13.7589 16.2569 14.5 15.3848 14.5L9.61522 14.5C8.74314 14.5 8.0549 13.7589 8.11932 12.8892L8.56376 6.88919Z" stroke="currentColor"/><path d="M14.5 5.5C14.5 4.5 14.5 2.5 12.5 2.5C10.5 2.5 10.5 4.5 10.5 5.5" stroke="currentColor" stroke-linecap="round"/></svg>
