<svg xmlns="http://www.w3.org/2000/svg" fill="none" viewBox="0 0 24 24" width="1em" height="1em"><path stroke="currentColor" stroke-linecap="round" d="M21 12a9 9 0 1 1-9-9"/><path stroke="currentColor" d="m5.957 9.732-.003-.034-.008-.033a4.353 4.353 0 0 0-1.368-2.267 5.826 5.826 0 0 1 .919-1.616c.762-.948 2.07-1.97 4.29-2.252.018.113.03.26.035.434.012.338 0 .666-.008.937-.005.123-.008.233-.01.328a2.61 2.61 0 0 0 .244 1.672l.012.024.015.022c.344.524.893.604 1.285.62.11.006.249.006.372.006l.195.001c.174.004.31.016.422.046l.015.004.016.003a.181.181 0 0 1 .084.042.161.161 0 0 1 .036.045l-.001.003-.013.052v.054a2.622 2.622 0 0 1-.506 1.485 2.746 2.746 0 0 1-1.238.944 1.6 1.6 0 0 0-.865.456l-.048.05-.033.06a1.82 1.82 0 0 0-.17 1.308 2.35 2.35 0 0 1-.077 1.04.468.468 0 0 1-.167.233.507.507 0 0 1-.248.098c-.072-.017-.168-.08-.325-.275a6.25 6.25 0 0 1-.181-.24l-.095-.13a3.756 3.756 0 0 0-.358-.426c-.286-.285-.626-.452-.887-.581l-.01-.005c-.27-.133-.463-.23-.617-.369a3.317 3.317 0 0 1-.704-1.74Zm7.49 6.361-.008-.064-.023-.06a2.04 2.04 0 0 0-.62-.848 1.78 1.78 0 0 1-.56-1.428.9.9 0 0 1 .945-.694c.574.047.894.207 1.186.408.075.052.161.117.256.19.25.189.563.427.935.611l.02.01.022.009c.16.061.307.152.434.266a.798.798 0 0 1 .161.585 2.67 2.67 0 0 1-.74 1.44 11.64 11.64 0 0 0-1.307 1.578l-.012.018-.01.02a7.685 7.685 0 0 0-.301.603l-.004.009a7.221 7.221 0 0 1-.266.537l-.005.01-.005.01a1.18 1.18 0 0 1-.647.57.37.37 0 0 1-.414-.17c-.01-.095-.008-.19.008-.284.142-.76.384-1.497.72-2.193.197-.342.28-.74.235-1.133ZM20.5 5.25c0 .568-.325 1.42-.829 2.362-.49.917-1.1 1.834-1.575 2.504a.417.417 0 0 1-.692 0c-.475-.67-1.085-1.587-1.575-2.504C15.325 6.67 15 5.818 15 5.25c0-.901.316-1.578.795-2.03.484-.458 1.168-.72 1.955-.72.787 0 1.471.262 1.955.72.479.452.795 1.129.795 2.03Z"/><circle cx="17.75" cy="5.25" r=".8" stroke="currentColor"/></svg>
