<svg viewBox="0 0 32 32" fill="none" xmlns="http://www.w3.org/2000/svg" stroke="currentColor" width="1em" height="1em"><path d="M16 4C9.37258 4 4 9.37258 4 16C4 22.6274 9.37258 28 16 28C22.6274 28 28 22.6274 28 16C28 13.6046 27.2981 11.3731 26.0888 9.5" stroke-linecap="round"/><path d="M27.1429 19.8972C26.2858 19.8972 25.1761 19.9357 24.1029 19.8972C22.7657 19.7601 22.2972 17.8401 23.2343 16.5486C24.1714 15.2572 24.9714 15.9201 25.0286 15.4058C25.0857 14.8915 24.3144 14.4343 24.1429 13.7143C23.9715 12.9943 27.1429 11.5 27.1429 11.5"/><path d="M6.57129 9.07626C7.41772 9.72262 8.01191 10.6442 8.25129 11.682C8.33374 12.5577 8.66707 13.391 9.21129 14.082C9.72557 14.5848 10.457 14.6991 10.9713 15.2248C11.4856 15.7505 11.7941 16.5963 12.457 16.6648C12.6949 16.656 12.9242 16.573 13.1127 16.4275C13.3012 16.282 13.4395 16.0813 13.5084 15.8534C13.6563 15.3609 13.6914 14.8414 13.6113 14.3334C13.5136 13.9486 13.5625 13.5413 13.7484 13.1905C13.943 12.9863 14.2006 12.8535 14.4799 12.8134C15.1819 12.5508 15.7891 12.0837 16.223 11.4726C16.6569 10.8614 16.8977 10.1342 16.9141 9.38483C16.937 9.2871 16.937 9.18541 16.9141 9.08769C16.8724 8.95622 16.7964 8.83823 16.694 8.74584C16.5915 8.65345 16.4664 8.58999 16.3313 8.56197C15.5427 8.34483 14.5141 8.74483 14.0456 8.0134C13.7916 7.50443 13.7437 7.12914 13.857 6.57171C13.8856 5.49001 12.3156 4.92857 11.9999 4.5"/><path d="M17.5824 20.6851L17.5751 20.6213L17.5518 20.5615C17.4085 20.1928 17.1711 19.8683 16.8633 19.6203C16.631 19.4039 16.4506 19.1377 16.3357 18.8417C16.2222 18.5496 16.1755 18.2359 16.1986 17.9237C16.2558 17.6708 16.4006 17.446 16.6077 17.2893C16.8217 17.1274 17.0874 17.0492 17.3549 17.0696C18.0257 17.1244 18.4031 17.3134 18.7452 17.5488C18.8365 17.6116 18.9372 17.6881 19.0477 17.772C19.3315 17.9876 19.6797 18.2522 20.0983 18.4593L20.1187 18.4694L20.1399 18.4776C20.3326 18.552 20.5098 18.6612 20.6628 18.7997C20.7405 18.8987 20.7984 19.0119 20.8335 19.1329C20.8706 19.2609 20.8814 19.395 20.8652 19.5272C20.7583 20.1651 20.4559 20.7541 19.9998 21.2129L19.9987 21.2139C19.4521 21.7669 18.9552 22.3671 18.514 23.0074L18.5017 23.0254L18.4909 23.0443C18.3605 23.2741 18.2503 23.513 18.15 23.7302L18.1461 23.7387C18.0417 23.9649 17.9474 24.1685 17.8395 24.3586L17.8342 24.368L17.8293 24.3776C17.6652 24.698 17.3857 24.944 17.0475 25.0661C16.9336 25.0971 16.8123 25.0862 16.7055 25.0354C16.6108 24.9903 16.5332 24.9164 16.4836 24.8249C16.4688 24.7054 16.4716 24.5843 16.4921 24.4655C16.6555 23.5901 16.9343 22.7404 17.3213 21.9385C17.5411 21.5599 17.6328 21.1203 17.5824 20.6851Z"/><path d="M25 6C25 6.37017 24.8919 6.84462 24.6876 7.39685C24.4856 7.94297 24.201 8.53464 23.8753 9.13009C23.2238 10.321 22.4266 11.4928 21.8521 12.2917C21.674 12.5394 21.326 12.5394 21.1479 12.2917C20.5734 11.4928 19.7762 10.321 19.1247 9.13009C18.799 8.53464 18.5144 7.94297 18.3124 7.39685C18.1081 6.84462 18 6.37017 18 6C18 4.86225 18.4001 3.99802 19.0151 3.41654C19.6344 2.83094 20.5062 2.5 21.5 2.5C22.4938 2.5 23.3656 2.83094 23.9849 3.41654C24.5999 3.99802 25 4.86224 25 6Z"/><circle cx="21.4999" cy="5.9999" r="1.1"/></svg>
