<svg xmlns="http://www.w3.org/2000/svg" fill="none" viewBox="0 0 16 16" width="1em" height="1em"><circle cx="8" cy="8" r="6.5" stroke="currentColor"/><path stroke="currentColor" d="M3.287 4.127c.493.377.84.914.98 1.52.048.51.242.997.56 1.4.3.293.726.36 1.026.666.3.307.48.8.867.84a.667.667 0 0 0 .613-.473 2 2 0 0 0 .06-.887.933.933 0 0 1 .08-.666.733.733 0 0 1 .427-.22 2.187 2.187 0 0 0 1.42-2 .38.38 0 0 0 0-.174.453.453 0 0 0-.34-.306C8.52 3.7 7.773 3.427 7.5 3c-.273-.427-.093-1.175-.027-1.5m1.657 9.21-.007-.065-.024-.06a1.526 1.526 0 0 0-.458-.63 1.02 1.02 0 0 1-.318-.801.433.433 0 0 1 .451-.322c.35.028.535.123.71.243.04.028.09.066.148.11.168.128.402.306.666.436l.02.01.022.009a.798.798 0 0 1 .226.135.367.367 0 0 1 .066.253 1.61 1.61 0 0 1-.447.866v.001a7.92 7.92 0 0 0-.89 1.075l-.012.018-.011.019c-.08.141-.148.287-.206.412l-.003.008a4.652 4.652 0 0 1-.171.346l-.006.01-.004.01a.62.62 0 0 1-.332.296.08.08 0 0 1-.065-.016c0-.033.002-.066.007-.098.092-.49.247-.965.463-1.413.148-.258.21-.557.175-.853Z"/></svg>
