<svg xmlns="http://www.w3.org/2000/svg" fill="none" viewBox="0 0 32 32" width="1em" height="1em"><path stroke="currentColor" stroke-linecap="round" d="M16 4C9.373 4 4 9.373 4 16s5.373 12 12 12 12-5.373 12-12c0-2.395-.702-4.627-1.911-6.5"/><path stroke="currentColor" d="M27.143 19.897c-.857 0-1.967.039-3.04 0-1.337-.137-1.806-2.057-.869-3.348.937-1.292 1.737-.629 1.794-1.143.058-.514-.714-.972-.885-1.692s3-2.214 3-2.214M6.571 9.076a4.57 4.57 0 0 1 1.68 2.606c.083.876.416 1.709.96 2.4.515.503 1.246.617 1.76 1.143.515.526.823 1.371 1.486 1.44a1.14 1.14 0 0 0 1.052-.812 3.4 3.4 0 0 0 .102-1.52 1.6 1.6 0 0 1 .138-1.142c.194-.205.452-.338.731-.378a3.75 3.75 0 0 0 2.434-3.428.65.65 0 0 0 0-.297.78.78 0 0 0-.583-.526c-.788-.217-1.817.183-2.285-.549-.254-.509-.302-.884-.189-1.441C13.886 5.49 12.316 4.929 12 4.5m5.582 16.185-.007-.064-.023-.06a2.26 2.26 0 0 0-.689-.94 2.1 2.1 0 0 1-.665-1.697 1.1 1.1 0 0 1 1.157-.854c.67.054 1.048.243 1.39.479.091.063.192.14.303.223.283.216.632.48 1.05.687l.02.01.022.009c.192.074.37.183.523.322a1 1 0 0 1 .202.727A3.1 3.1 0 0 1 20 21.213h-.001a13 13 0 0 0-1.485 1.794l-.012.018-.011.02c-.13.23-.24.468-.341.685l-.004.009c-.105.226-.199.43-.307.62l-.005.009-.005.01a1.42 1.42 0 0 1-.782.688.494.494 0 0 1-.564-.241q-.022-.18.009-.36a10 10 0 0 1 .83-2.526c.219-.38.31-.819.26-1.254ZM25 6c0 .37-.108.845-.312 1.397a13.4 13.4 0 0 1-.813 1.733c-.651 1.191-1.448 2.363-2.023 3.162a.427.427 0 0 1-.704 0c-.575-.8-1.372-1.971-2.023-3.162a13.4 13.4 0 0 1-.813-1.733C18.108 6.845 18 6.37 18 6c0-1.138.4-2.002 1.015-2.583.62-.586 1.491-.917 2.485-.917s1.866.33 2.485.917C24.6 3.998 25 4.862 25 6Z"/><circle cx="21.5" cy="6" r="1.1" stroke="currentColor"/></svg>
