<svg viewBox="0 0 18 17" fill="none" xmlns="http://www.w3.org/2000/svg" width="1em" height="1em"><path d="M1.5 3.4375L1.5 10.4375C1.5 11.5421 2.39543 12.4375 3.5 12.4375H12.882C13.2607 12.4375 13.607 12.6515 13.7764 12.9903L14.1584 13.7542C14.3677 14.173 14.7957 14.4375 15.2639 14.4375C15.9466 14.4375 16.5 13.8841 16.5 13.2014V3.4375C16.5 2.33293 15.6046 1.4375 14.5 1.4375L3.5 1.4375C2.39543 1.4375 1.5 2.33293 1.5 3.4375Z" stroke="currentColor"/><path d="M8.50065 8.14062V7.60877C8.50721 7.46268 8.52689 7.33789 8.55969 7.23441C8.59249 7.13093 8.63841 7.03658 8.69745 6.95136C8.75648 6.86006 8.82864 6.77484 8.91392 6.69571C8.9992 6.61658 9.09759 6.52527 9.20911 6.42179C9.32062 6.31831 9.42886 6.21787 9.53382 6.12048C9.63877 6.017 9.73061 5.90743 9.80933 5.79178C9.88804 5.67004 9.95036 5.53917 9.99628 5.39916C10.0488 5.25916 10.075 5.09785 10.075 4.91524C10.075 4.73263 10.0356 4.55611 9.95692 4.38567C9.88476 4.21523 9.77653 4.0661 9.63221 3.93827C9.4879 3.80435 9.3075 3.69783 9.09103 3.6187C8.88112 3.53957 8.64169 3.5 8.37274 3.5C8.10379 3.5 7.87092 3.53652 7.67412 3.60957C7.48389 3.67652 7.31989 3.76174 7.18214 3.86522C7.05094 3.96262 6.94599 4.0661 6.86727 4.17566C6.79511 4.28523 6.73936 4.37958 6.7 4.45871" stroke="currentColor" stroke-linecap="round" stroke-linejoin="round"/><rect x="8.25" y="10.1875" width="0.5" height="0.5" rx="0.25" stroke="currentColor" stroke-width="0.5"/></svg>
