<svg xmlns="http://www.w3.org/2000/svg" fill="none" viewBox="0 0 18 17" width="1em" height="1em"><path stroke="currentColor" d="M1.5 3.438v7a2 2 0 0 0 2 2h9.382a1 1 0 0 1 .894.552l.382.764a1.236 1.236 0 0 0 2.342-.553V3.438a2 2 0 0 0-2-2h-11a2 2 0 0 0-2 2Z"/><path stroke="currentColor" stroke-linecap="round" stroke-linejoin="round" d="M8.5 8.14v-.53q.01-.219.06-.375.048-.154.137-.283.09-.136.217-.255l.295-.274.325-.302q.158-.155.275-.328a1.7 1.7 0 0 0 .187-.393 1.37 1.37 0 0 0-.04-1.013q-.107-.256-.324-.448a1.6 1.6 0 0 0-.541-.32Q8.775 3.5 8.373 3.5q-.404 0-.699.11-.285.1-.492.255-.196.147-.315.31-.108.165-.167.284"/><rect width=".5" height=".5" x="8.25" y="10.188" stroke="currentColor" stroke-width=".5" rx=".25"/></svg>
