<svg xmlns="http://www.w3.org/2000/svg" fill="none" viewBox="0 0 18 17" width="1em" height="1em"><path stroke="currentColor" d="M1.5 3.438v7a2 2 0 0 0 2 2h9.382a1 1 0 0 1 .894.552l.382.764a1.236 1.236 0 0 0 2.342-.553V3.437a2 2 0 0 0-2-2h-11a2 2 0 0 0-2 2Z"/><path stroke="currentColor" stroke-linecap="round" stroke-linejoin="round" d="M8.5 8.14v-.53c.007-.146.027-.271.06-.375.032-.103.078-.197.137-.283.06-.09.132-.176.217-.255l.295-.274.325-.302a1.69 1.69 0 0 0 .462-.721 1.373 1.373 0 0 0-.04-1.013c-.071-.17-.18-.32-.324-.448a1.583 1.583 0 0 0-.541-.32 2.055 2.055 0 0 0-.718-.118c-.27 0-.502.037-.699.11a1.84 1.84 0 0 0-.492.255 1.474 1.474 0 0 0-.315.31c-.072.11-.128.205-.167.284"/><rect width=".5" height=".5" x="8.25" y="10.188" stroke="currentColor" stroke-width=".5" rx=".25"/></svg>
