<svg xmlns="http://www.w3.org/2000/svg" fill="none" viewBox="0 0 16 16" width="1em" height="1em"><path stroke="currentColor" d="M7.778 11.326v2.462"/><path stroke="currentColor" stroke-linecap="round" d="M5.347 14.28h4.861M2.458 3.447h10.64a1 1 0 0 1 1 1v5.879a1 1 0 0 1-1 1H2.457a1 1 0 0 1-1-1V4.447a1 1 0 0 1 1-1Z"/><path fill="currentColor" d="M4.49 5.545h.63L6.477 9h-.71l-.3-.795H4.11L3.81 9h-.675zm.816 2.14L4.79 6.29l-.52 1.395zM8.99 5.04l.395.175L7.31 9.48l-.39-.18zM10.172 9V5.55h1.105q.22 0 .435.035.22.035.39.13.175.095.28.265t.105.44a.8.8 0 0 1-.185.5.8.8 0 0 1-.17.16q-.095.06-.18.095v.01q.335.075.535.29a.74.74 0 0 1 .205.54.93.93 0 0 1-.41.795 1.1 1.1 0 0 1-.38.145q-.22.045-.47.045zm1.21-.51q.135 0 .25-.02a.5.5 0 0 0 .205-.075.37.37 0 0 0 .14-.155.5.5 0 0 0 .055-.255.44.44 0 0 0-.06-.24.53.53 0 0 0-.365-.26 1.4 1.4 0 0 0-.255-.02h-.53V8.49zm-.56-2.43v.93h.405q.13 0 .235-.02a.5.5 0 0 0 .19-.075.36.36 0 0 0 .13-.15.6.6 0 0 0 .045-.24q0-.225-.16-.335a.7.7 0 0 0-.41-.11z"/></svg>
