<svg xmlns="http://www.w3.org/2000/svg" fill="none" viewBox="0 0 24 24" width="1em" height="1em"><path stroke="currentColor" stroke-linecap="round" d="M4.43 4.432h14.473a2 2 0 0 1 2 2v7.818a2 2 0 0 1-2 2H4.43a2 2 0 0 1-2-2V6.432a2 2 0 0 1 2-2Z"/><path stroke="currentColor" d="M11.667 16.25v3.465"/><path stroke="currentColor" stroke-linecap="round" d="M7.292 20.19h8.75"/><path fill="currentColor" d="M7.087 8.163h.882L9.866 13h-.994l-.42-1.113H6.555L6.135 13H5.19zm1.14 2.996-.72-1.953-.728 1.953zm5.16-3.703.553.245-2.905 5.971-.546-.252zM15.041 13V8.17h1.547q.307 0 .609.049.307.049.546.182.245.133.392.371t.147.616a1 1 0 0 1-.077.392q-.07.176-.182.308a1.1 1.1 0 0 1-.238.224q-.133.084-.252.133v.014q.469.105.749.406.287.294.287.756 0 .399-.168.679a1.3 1.3 0 0 1-.406.434q-.225.14-.532.203a3.3 3.3 0 0 1-.658.063zm1.694-.714q.189 0 .35-.028a.75.75 0 0 0 .287-.105.5.5 0 0 0 .196-.217.74.74 0 0 0 .077-.357.6.6 0 0 0-.084-.336.7.7 0 0 0-.217-.238.74.74 0 0 0-.294-.126 2 2 0 0 0-.357-.028h-.742v1.435zm-.784-3.402v1.302h.567q.181 0 .329-.028a.7.7 0 0 0 .266-.105.5.5 0 0 0 .182-.21.8.8 0 0 0 .063-.336q0-.315-.224-.469-.217-.154-.574-.154z"/></svg>
