<svg xmlns="http://www.w3.org/2000/svg" fill="none" viewBox="0 0 32 32" width="1em" height="1em"><path stroke="currentColor" stroke-linecap="round" d="M2.43 20.802v-12.4a2 2 0 0 1 2-2h22.25a2 2 0 0 1 2 2v12.4a2 2 0 0 1-2 2H4.43a2 2 0 0 1-2-2Z"/><path stroke="currentColor" d="M15.5 22.802v4.32"/><path stroke="currentColor" stroke-linecap="round" d="M8.423 27.121H22.5"/><path fill="currentColor" d="M8.481 11.09h1.26l2.71 6.91h-1.42l-.6-1.59h-2.71l-.6 1.59h-1.35zm1.63 4.28-1.03-2.79-1.04 2.79zm7.37-5.29.79.35-4.15 8.53-.78-.36zM19.845 18v-6.9h2.21q.44 0 .87.07.44.07.78.26.35.19.56.53t.21.88q0 .31-.11.56a1.6 1.6 0 0 1-.26.44 1.5 1.5 0 0 1-.34.32 2.4 2.4 0 0 1-.36.19v.02q.67.15 1.07.58.41.42.41 1.08 0 .57-.24.97-.23.39-.58.62-.32.2-.76.29t-.94.09zm2.42-1.02q.27 0 .5-.04.24-.04.41-.15a.74.74 0 0 0 .28-.31q.11-.2.11-.51a.9.9 0 0 0-.12-.48 1 1 0 0 0-.31-.34 1.1 1.1 0 0 0-.42-.18q-.21-.04-.51-.04h-1.06v2.05zm-1.12-4.86v1.86h.81q.26 0 .47-.04a1 1 0 0 0 .38-.15.7.7 0 0 0 .26-.3q.09-.19.09-.48 0-.45-.32-.67-.31-.22-.82-.22z"/></svg>
