<svg xmlns="http://www.w3.org/2000/svg" fill="none" viewBox="0 0 16 16" width="1em" height="1em"><path stroke="currentColor" d="M8 11.5V14"/><path stroke="currentColor" stroke-linecap="round" d="M5.5 14.5h5m-8-11h11a1 1 0 0 1 1 1v6a1 1 0 0 1-1 1h-11a1 1 0 0 1-1-1v-6a1 1 0 0 1 1-1Z"/><path fill="currentColor" d="M4.49 5.545h.63L6.477 9h-.71l-.3-.795H4.11L3.81 9h-.675L4.49 5.545Zm.816 2.14L4.79 6.29l-.52 1.395h1.035ZM8.99 5.04l.395.175L7.31 9.48l-.39-.18 2.07-4.26ZM10.172 9V5.55h1.105c.147 0 .292.012.435.035.147.023.277.067.39.13.117.063.21.152.28.265.07.113.105.26.105.44a.802.802 0 0 1-.185.5.772.772 0 0 1-.17.16c-.063.04-.123.072-.18.095v.01c.223.05.402.147.535.29a.74.74 0 0 1 .205.54.926.926 0 0 1-.41.795 1.144 1.144 0 0 1-.38.145c-.147.03-.303.045-.47.045h-1.26Zm1.21-.51c.09 0 .173-.007.25-.02a.535.535 0 0 0 .205-.075.372.372 0 0 0 .14-.155.526.526 0 0 0 .055-.255.442.442 0 0 0-.06-.24.53.53 0 0 0-.365-.26 1.388 1.388 0 0 0-.255-.02h-.53V8.49h.56Zm-.56-2.43v.93h.405c.087 0 .165-.007.235-.02a.484.484 0 0 0 .19-.075.357.357 0 0 0 .13-.15.56.56 0 0 0 .045-.24c0-.15-.053-.262-.16-.335a.694.694 0 0 0-.41-.11h-.435Z"/></svg>
