<svg xmlns="http://www.w3.org/2000/svg" fill="none" viewBox="0 0 24 24" width="1em" height="1em"><path stroke="currentColor" stroke-linecap="round" d="M4.5 4.5h15a2 2 0 0 1 2 2v8a2 2 0 0 1-2 2h-15a2 2 0 0 1-2-2v-8a2 2 0 0 1 2-2Z"/><path stroke="currentColor" d="M12 16.5v3.518"/><path stroke="currentColor" stroke-linecap="round" d="M7.5 20.5h9"/><path fill="currentColor" d="M7.087 8.163h.882L9.866 13h-.994l-.42-1.113H6.555L6.135 13H5.19l1.897-4.837Zm1.14 2.996-.72-1.953-.728 1.953h1.449Zm5.16-3.703.553.245-2.905 5.971-.546-.252 2.898-5.964ZM15.041 13V8.17h1.547c.205 0 .408.016.609.049.205.033.387.093.546.182.163.089.294.212.392.371.098.159.147.364.147.616a.964.964 0 0 1-.077.392c-.047.117-.107.22-.182.308a1.08 1.08 0 0 1-.238.224c-.089.056-.173.1-.252.133v.014c.313.07.562.205.749.406.191.196.287.448.287.756 0 .266-.056.492-.168.679a1.298 1.298 0 0 1-.406.434c-.15.093-.327.161-.532.203a3.281 3.281 0 0 1-.658.063H15.04Zm1.694-.714c.126 0 .242-.01.35-.028a.75.75 0 0 0 .287-.105.52.52 0 0 0 .196-.217.736.736 0 0 0 .077-.357.619.619 0 0 0-.084-.336.703.703 0 0 0-.217-.238.742.742 0 0 0-.294-.126 1.94 1.94 0 0 0-.357-.028h-.742v1.435h.784Zm-.784-3.402v1.302h.567c.121 0 .23-.01.329-.028a.679.679 0 0 0 .266-.105.499.499 0 0 0 .182-.21.785.785 0 0 0 .063-.336c0-.21-.075-.366-.224-.469-.145-.103-.336-.154-.574-.154h-.61Z"/></svg>
