<svg xmlns="http://www.w3.org/2000/svg" fill="none" viewBox="0 0 32 32" width="1em" height="1em"><path stroke="currentColor" stroke-linecap="round" d="M2.5 21.153V8.5a2 2 0 0 1 2-2h23a2 2 0 0 1 2 2v12.653a2 2 0 0 1-2 2h-23a2 2 0 0 1-2-2Z"/><path stroke="currentColor" d="M15.943 23.153v4.385"/><path stroke="currentColor" stroke-linecap="round" d="M8.664 27.538h14.48"/><path fill="currentColor" d="M8.481 11.09h1.26l2.71 6.91h-1.42l-.6-1.59h-2.71l-.6 1.59h-1.35l2.71-6.91Zm1.63 4.28-1.03-2.79-1.04 2.79h2.07Zm7.37-5.29.79.35-4.15 8.53-.78-.36 4.14-8.52ZM19.845 18v-6.9h2.21c.293 0 .583.023.87.07.293.047.553.133.78.26.233.127.42.303.56.53.14.227.21.52.21.88 0 .207-.037.393-.11.56a1.599 1.599 0 0 1-.26.44 1.54 1.54 0 0 1-.34.32 2.38 2.38 0 0 1-.36.19v.02c.447.1.803.293 1.07.58.273.28.41.64.41 1.08 0 .38-.08.703-.24.97a1.85 1.85 0 0 1-.58.62c-.213.133-.467.23-.76.29-.293.06-.607.09-.94.09h-2.52Zm2.42-1.02c.18 0 .347-.013.5-.04a1.08 1.08 0 0 0 .41-.15.744.744 0 0 0 .28-.31c.073-.133.11-.303.11-.51a.884.884 0 0 0-.12-.48 1.003 1.003 0 0 0-.31-.34 1.059 1.059 0 0 0-.42-.18c-.14-.027-.31-.04-.51-.04h-1.06v2.05h1.12Zm-1.12-4.86v1.86h.81c.173 0 .33-.013.47-.04a.968.968 0 0 0 .38-.15.712.712 0 0 0 .26-.3c.06-.127.09-.287.09-.48 0-.3-.107-.523-.32-.67-.207-.147-.48-.22-.82-.22h-.87Z"/></svg>
