<svg width="229" height="102" viewBox="0 0 229 102" fill="none" xmlns="http://www.w3.org/2000/svg">
<path d="M54.9377 51.0834C54.9379 34.5673 45.7967 23.6583 41.0732 19.1238C39.9758 18.0704 38.3184 18.8711 38.3184 20.3923L38.3184 81.6215C38.3184 83.1365 39.9648 83.9388 41.0641 82.8964C45.7848 78.4201 54.9375 67.6102 54.9377 51.0834Z" fill="url(#paint0_linear_1045_19274)"/>
<path d="M44.341 51.0725C44.3412 37.1943 36.8784 27.8938 32.7075 23.7796C31.6245 22.7113 29.9676 23.5013 29.9676 25.0226L29.9676 76.9945C29.9676 78.5095 31.613 79.3018 32.6979 78.2445C36.8669 74.1817 44.3409 64.9612 44.341 51.0725Z" fill="url(#paint1_linear_1045_19274)"/>
<path d="M34.2677 51.0554C34.2678 40.9873 29.1696 34.0465 25.8918 30.6244C24.8395 29.5258 23.1945 30.3046 23.1945 31.8258L23.1945 70.194C23.1945 71.709 24.8287 72.4896 25.883 71.4017C29.1604 68.0195 34.2676 61.1324 34.2677 51.0554Z" fill="url(#paint2_linear_1045_19274)"/>
<path d="M26.1723 51.0388C26.1724 43.8419 22.7923 38.7182 20.2865 35.9087C19.274 34.7734 17.638 35.5347 17.638 37.0559L17.6379 65.0229C17.6379 66.5442 19.2742 67.3055 20.2867 66.1699C22.7924 63.3598 26.1722 58.2355 26.1723 51.0388Z" fill="url(#paint3_linear_1045_19274)"/>
<g filter="url(#filter0_f_1045_19274)">
<path d="M54.9372 51.0834C54.9374 34.5673 45.7962 23.6583 41.0727 19.1238C39.9753 18.0704 38.3179 18.8711 38.3179 20.3923L38.3179 81.6215C38.3179 83.1365 39.9643 83.9388 41.0636 82.8964C45.7843 78.4201 54.9371 67.6102 54.9372 51.0834Z" fill="url(#paint4_linear_1045_19274)"/>
</g>
<g style="mix-blend-mode:overlay" opacity="0.7" filter="url(#filter1_f_1045_19274)">
<path d="M45.8586 51.0725C45.8588 31.8121 31.4851 21.3685 31.4851 21.3685L31.4851 80.6156C31.4851 80.6156 45.8584 70.3328 45.8586 51.0725Z" fill="url(#paint5_linear_1045_19274)"/>
</g>
<g style="mix-blend-mode:hard-light" opacity="0.7" filter="url(#filter2_f_1045_19274)">
<path d="M35.1984 51.0554C35.1985 36.2174 24.1252 28.1717 24.1252 28.1717L24.1252 73.8152C24.1252 73.8152 35.1982 65.8934 35.1984 51.0554Z" fill="url(#paint6_linear_1045_19274)"/>
</g>
<g style="mix-blend-mode:screen" opacity="0.7" filter="url(#filter3_f_1045_19274)">
<path d="M32.6884 51.0388C32.6885 43.8419 29.3085 38.7182 26.8027 35.9087C25.7901 34.7734 24.1541 35.5347 24.1541 37.0559L24.154 65.0229C24.154 66.5442 25.7903 67.3055 26.8028 66.1699C29.3085 63.3598 32.6883 58.2355 32.6884 51.0388Z" fill="url(#paint7_linear_1045_19274)"/>
</g>
<path d="M84.8371 45.555C84.8371 46.6442 84.6314 47.5881 84.2199 48.3868C83.8327 49.1613 83.276 49.8632 82.5499 50.4925C81.8238 51.1218 80.9767 51.5695 80.0085 51.8358C79.0404 52.102 77.9634 52.2351 76.7774 52.2351H73.0017V63.9253H71.0412V38.8749H76.7774C77.9634 38.8749 79.0404 39.008 80.0085 39.2743C80.9767 39.5405 81.8238 39.9883 82.5499 40.6176C83.276 41.2468 83.8327 41.9608 84.2199 42.7595C84.6314 43.5341 84.8371 44.4659 84.8371 45.555ZM82.7677 45.555C82.7677 44.6595 82.6104 43.9092 82.2957 43.3041C81.9811 42.6748 81.5454 42.1666 80.9888 41.7793C80.4563 41.3921 79.827 41.1137 79.1009 40.9443C78.399 40.7507 77.6487 40.6539 76.85 40.6539H73.0017V50.4562H76.85C77.6487 50.4562 78.399 50.3715 79.1009 50.202C79.827 50.0084 80.4563 49.718 80.9888 49.3307C81.5454 48.9435 81.9811 48.4473 82.2957 47.8422C82.6104 47.2129 82.7677 46.4505 82.7677 45.555ZM89.1937 63.9253V38.8749H91.1541V62.1464H100.085V63.9253H89.1937ZM121.189 63.9253L118.103 56.4102H106.159L103.037 63.9253H100.967L111.677 38.8023H112.766L123.476 63.9253H121.189ZM112.113 41.7793L106.885 54.5949H117.341L112.113 41.7793ZM140.262 57.3904C140.262 58.3343 140.068 59.2299 139.681 60.077C139.318 60.9241 138.785 61.6744 138.084 62.3279C137.382 62.9572 136.535 63.4533 135.542 63.8164C134.55 64.1794 133.449 64.361 132.238 64.361C131.028 64.361 129.963 64.1794 129.044 63.8164C128.148 63.4291 127.386 62.9935 126.756 62.5094C126.151 62.0011 125.667 61.4929 125.304 60.9846C124.965 60.4763 124.723 60.1012 124.578 59.8591L126.103 58.77C126.321 59.1815 126.623 59.6171 127.011 60.077C127.398 60.5368 127.858 60.9604 128.39 61.3476C128.923 61.7107 129.528 62.0253 130.205 62.2916C130.883 62.5336 131.621 62.6546 132.42 62.6546C133.219 62.6546 133.969 62.5336 134.671 62.2916C135.397 62.0495 136.026 61.6986 136.559 61.2387C137.091 60.7789 137.503 60.2343 137.793 59.605C138.108 58.9515 138.265 58.2133 138.265 57.3904C138.265 56.5675 138.084 55.8777 137.721 55.321C137.357 54.7402 136.922 54.2561 136.414 53.8688C135.905 53.4574 135.373 53.1306 134.816 52.8886C134.284 52.6466 133.836 52.453 133.473 52.3077C132.747 52.0173 132.009 51.7148 131.258 51.4001C130.508 51.0613 129.879 50.7587 129.37 50.4925C129.128 50.3473 128.802 50.1415 128.39 49.8753C127.979 49.5849 127.579 49.2097 127.192 48.7499C126.805 48.29 126.466 47.7212 126.176 47.0435C125.885 46.3658 125.74 45.5792 125.74 44.6837C125.74 43.764 125.921 42.929 126.284 42.1787C126.672 41.4284 127.192 40.787 127.846 40.2545C128.499 39.6978 129.274 39.2743 130.169 38.9838C131.089 38.6692 132.069 38.5119 133.11 38.5119C134.175 38.5119 135.094 38.6692 135.869 38.9838C136.668 39.2743 137.333 39.6131 137.866 40.0004C138.422 40.3876 138.846 40.7628 139.136 41.1258C139.427 41.4647 139.596 41.6825 139.645 41.7793L138.265 42.9774C138.023 42.6869 137.745 42.3844 137.43 42.0698C137.14 41.7309 136.777 41.4284 136.341 41.1621C135.929 40.8959 135.445 40.6781 134.889 40.5086C134.332 40.3392 133.691 40.2545 132.965 40.2545C132.238 40.2545 131.561 40.3513 130.932 40.5449C130.302 40.7386 129.746 41.0169 129.261 41.38C128.802 41.743 128.426 42.2029 128.136 42.7595C127.87 43.292 127.737 43.9092 127.737 44.6111C127.737 45.313 127.846 45.9181 128.063 46.4263C128.281 46.9346 128.572 47.3703 128.935 47.7333C129.298 48.0964 129.697 48.411 130.133 48.6772C130.593 48.9193 131.04 49.1371 131.476 49.3307C131.912 49.5244 132.396 49.7422 132.928 49.9842C133.485 50.202 134.005 50.4199 134.489 50.6377C134.998 50.8313 135.445 51.025 135.833 51.2186C136.22 51.388 136.486 51.509 136.631 51.5816C136.777 51.6542 137.043 51.8237 137.43 52.0899C137.842 52.3561 138.253 52.7192 138.664 53.179C139.076 53.6389 139.439 54.2198 139.754 54.9217C140.092 55.6236 140.262 56.4465 140.262 57.3904ZM168.633 63.9253L166.491 42.1787L157.233 64.361H157.051L147.757 42.1424L145.688 63.9253H143.728L146.269 38.8749H148.52L157.124 60.2585L165.765 38.8749H168.052L170.593 63.9253H168.633ZM192.806 63.9253L189.72 56.4102H177.776L174.654 63.9253H172.584L183.294 38.8023H184.383L195.093 63.9253H192.806ZM183.73 41.7793L178.502 54.5949H188.958L183.73 41.7793Z" fill="white"/>
<g clip-path="url(#clip0_1045_19274)">
<path d="M173.21 74.7579L172.765 75.2302C172.456 74.9305 172.129 74.7579 171.684 74.7579C170.912 74.7579 170.331 75.3664 170.331 76.2201C170.331 77.0738 170.912 77.6823 171.684 77.6823C172.102 77.6823 172.502 77.5098 172.792 77.2101L173.21 77.6823C172.847 78.1001 172.329 78.3181 171.72 78.3181C170.449 78.3181 169.623 77.4099 169.623 76.2201C169.623 75.0032 170.449 74.095 171.72 74.095C172.293 74.0859 172.838 74.3311 173.21 74.7579Z" fill="white"/>
<path d="M178.178 76.2199C178.178 77.4096 177.27 78.3178 176.053 78.3178C174.808 78.3178 173.9 77.4096 173.9 76.2199C173.9 75.0029 174.808 74.0947 176.053 74.0947C177.27 74.0947 178.178 75.0029 178.178 76.2199ZM174.618 76.2199C174.618 77.0736 175.226 77.6821 176.053 77.6821C176.852 77.6821 177.46 77.0736 177.46 76.2199C177.46 75.3662 176.852 74.7577 176.053 74.7577C175.226 74.7577 174.618 75.3662 174.618 76.2199Z" fill="white"/>
<path d="M181.165 78.236H180.33L178.623 74.2036H179.395L180.748 77.5458L182.101 74.2036H182.846L181.165 78.236Z" fill="white"/>
<path d="M187.205 76.1924V76.4649H184.026C184.108 77.2913 184.689 77.7091 185.38 77.7091C185.843 77.7182 186.297 77.5456 186.651 77.2368L187.014 77.7091C186.515 78.1814 185.961 78.3267 185.352 78.3267C184.135 78.3267 183.282 77.5002 183.282 76.2287C183.282 74.9845 184.135 74.1036 185.298 74.1036C186.406 74.0945 187.205 74.9754 187.205 76.1924ZM184.036 75.8836H186.524C186.442 75.1934 185.97 74.7212 185.307 74.7212C184.59 74.7302 184.145 75.1934 184.036 75.8836Z" fill="white"/>
<path d="M192.4 76.2199C192.4 77.4096 191.492 78.3178 190.275 78.3178C189.031 78.3178 188.122 77.4096 188.122 76.2199C188.122 75.0029 189.031 74.0947 190.275 74.0947C191.483 74.0947 192.4 75.0029 192.4 76.2199ZM188.84 76.2199C188.84 77.0736 189.448 77.6821 190.275 77.6821C191.074 77.6821 191.682 77.0736 191.682 76.2199C191.682 75.3662 191.074 74.7577 190.275 74.7577C189.439 74.7577 188.84 75.3662 188.84 76.2199Z" fill="white"/>
<path d="M166.253 72.8234C165.472 72.0515 164.455 71.5792 163.356 71.4702C163.275 71.4702 163.211 71.5429 163.211 71.6337C163.211 71.67 163.22 71.6973 163.247 71.7245L164.955 73.4047C164.955 73.4319 164.955 73.4319 164.927 73.4319C164.455 73.0868 163.901 72.8779 163.329 72.8234C163.275 72.8143 163.229 72.8507 163.22 72.9052C163.22 72.9324 163.229 72.9596 163.247 72.9869L164.41 74.1494C164.41 74.1494 164.41 74.1766 164.383 74.1494C164.065 73.9496 163.71 73.8224 163.329 73.7861C163.275 73.7861 163.247 73.8406 163.275 73.8951L165.236 75.8568C165.291 75.9113 165.372 75.8568 165.345 75.8023C165.318 75.4299 165.191 75.0666 164.982 74.7488C164.955 74.7488 164.982 74.7215 164.982 74.7488L166.117 75.8568C166.172 75.9113 166.281 75.8568 166.281 75.775C166.217 75.1938 166.008 74.6307 165.672 74.1494C165.645 74.1494 165.672 74.1221 165.672 74.1494L167.389 75.8295C167.434 75.884 167.507 75.8931 167.561 75.8568C167.607 75.8295 167.625 75.775 167.607 75.7205C167.507 74.6216 167.025 73.5954 166.253 72.8234Z" fill="#00ADFF"/>
<path d="M159.605 72.8234C160.395 72.0605 161.412 71.5792 162.502 71.4702C162.584 71.4702 162.648 71.5247 162.657 71.6064C162.657 71.6428 162.648 71.6882 162.611 71.7154L160.931 73.4047C160.904 73.4319 160.931 73.4319 160.931 73.4319C161.412 73.0868 161.976 72.8779 162.557 72.8234C162.639 72.8234 162.693 72.9324 162.639 72.9869L161.485 74.1494C161.458 74.1494 161.485 74.1766 161.485 74.1494C161.803 73.9496 162.157 73.8315 162.539 73.7861C162.593 73.7861 162.648 73.8406 162.593 73.8951L160.622 75.8568C160.568 75.9113 160.513 75.8568 160.513 75.8023C160.55 75.4299 160.686 75.0666 160.904 74.7488C160.904 74.7488 160.877 74.7215 160.877 74.7488L159.769 75.8568C159.687 75.9113 159.578 75.8568 159.605 75.775C159.66 75.1847 159.869 74.6216 160.214 74.1494C160.214 74.1494 160.186 74.1221 160.186 74.1494L158.497 75.8295C158.388 75.9385 158.252 75.8568 158.252 75.7205C158.361 74.6307 158.842 73.6135 159.605 72.8234Z" fill="#F05245"/>
<path d="M159.605 79.5348C160.377 80.3158 161.403 80.7971 162.502 80.888C162.575 80.897 162.639 80.8516 162.648 80.779C162.657 80.7336 162.639 80.6972 162.611 80.6609L160.931 78.9535C160.904 78.9535 160.931 78.9263 160.931 78.9535C161.412 79.2986 161.976 79.5075 162.557 79.5529C162.639 79.5529 162.693 79.4439 162.639 79.3894L161.485 78.236C161.458 78.2088 161.485 78.2088 161.485 78.2088C161.794 78.4177 162.157 78.5539 162.53 78.5902C162.584 78.5902 162.639 78.5085 162.584 78.4813L160.622 76.5196C160.568 76.4651 160.513 76.4923 160.513 76.5741C160.55 76.9464 160.686 77.3097 160.904 77.6276C160.904 77.6276 160.877 77.6548 160.877 77.6276L159.769 76.5196C159.687 76.4651 159.578 76.4923 159.605 76.6013C159.66 77.1825 159.869 77.7365 160.214 78.1997C160.214 78.2179 160.205 78.227 160.186 78.227L158.497 76.5196C158.434 76.4651 158.334 76.4832 158.288 76.5468C158.27 76.5741 158.261 76.6013 158.252 76.6376C158.352 77.7275 158.833 78.7537 159.605 79.5348Z" fill="#1CEBCF"/>
<path d="M166.253 79.5347C165.481 80.3248 164.455 80.8062 163.356 80.8879C163.247 80.9152 163.165 80.7517 163.247 80.67L164.954 78.9626C164.954 78.9626 164.954 78.9353 164.927 78.9626C164.455 79.3077 163.901 79.5166 163.329 79.5711C163.274 79.5801 163.229 79.5347 163.22 79.4802C163.22 79.453 163.229 79.4257 163.247 79.3985L164.41 78.236C164.41 78.2088 164.41 78.2088 164.382 78.2088C164.074 78.4267 163.71 78.563 163.338 78.5902C163.292 78.5811 163.265 78.5448 163.274 78.5085C163.274 78.4994 163.274 78.4903 163.283 78.4812L165.245 76.5195C165.3 76.465 165.381 76.4923 165.354 76.574C165.327 76.9464 165.2 77.3097 164.991 77.6275C164.964 77.6275 164.991 77.6548 164.991 77.6275L166.126 76.5195C166.162 76.4832 166.226 76.4832 166.262 76.5195C166.28 76.5377 166.29 76.574 166.29 76.6013C166.226 77.1734 166.017 77.7274 165.681 78.1997C165.654 78.2269 165.681 78.2269 165.681 78.2269L167.388 76.5195C167.47 76.4378 167.634 76.5195 167.606 76.6285C167.516 77.7274 167.034 78.7537 166.253 79.5347Z" fill="#FFE300"/>
<path opacity="0.87" d="M193.744 74.3671V75.3752H193.572V74.3671H193.254V74.2036H194.071V74.3671H193.744Z" fill="white"/>
<path opacity="0.87" d="M195.279 75.3754V74.5943L195.007 75.1574H194.879L194.607 74.5943V75.3754H194.425V74.2129H194.607L194.943 74.9394L195.279 74.2129H195.452V75.3754H195.279Z" fill="white"/>
</g>
<path d="M101.262 73.7582H102.93C103.365 73.7582 103.767 73.8252 104.136 73.9593C104.51 74.0933 104.831 74.286 105.1 74.5374C105.368 74.7887 105.577 75.0931 105.728 75.4506C105.884 75.808 105.962 76.2102 105.962 76.657C105.962 77.0927 105.884 77.4892 105.728 77.8467C105.571 78.1986 105.356 78.5002 105.083 78.7515C104.809 79.0029 104.488 79.1984 104.119 79.338C103.751 79.472 103.354 79.5391 102.93 79.5391H101.262V73.7582ZM102.913 78.9861C103.259 78.9861 103.577 78.9303 103.868 78.8186C104.164 78.7068 104.418 78.5505 104.63 78.3494C104.843 78.1427 105.007 77.897 105.125 77.6121C105.248 77.3217 105.309 77.0005 105.309 76.6486C105.309 76.2856 105.25 75.9588 105.133 75.6684C105.021 75.378 104.859 75.1322 104.647 74.9311C104.44 74.7301 104.189 74.5765 103.893 74.4703C103.597 74.3642 103.27 74.3112 102.913 74.3112H101.891V78.9861H102.913ZM110.241 78.9777C109.878 79.4078 109.311 79.6228 108.54 79.6228C108.25 79.6228 107.984 79.5754 107.744 79.4804C107.51 79.3855 107.306 79.2486 107.133 79.0699C106.965 78.8912 106.834 78.6761 106.739 78.4248C106.649 78.1679 106.605 77.8802 106.605 77.5618C106.605 77.2826 106.649 77.0201 106.739 76.7743C106.834 76.5286 106.965 76.3135 107.133 76.1292C107.3 75.9449 107.504 75.7997 107.744 75.6935C107.984 75.5874 108.25 75.5344 108.54 75.5344C108.808 75.5344 109.054 75.5818 109.277 75.6768C109.506 75.7661 109.699 75.8946 109.855 76.0622C110.017 76.2241 110.143 76.4196 110.232 76.6486C110.322 76.8776 110.366 77.1262 110.366 77.3943C110.366 77.4278 110.364 77.4641 110.358 77.5032C110.358 77.5423 110.358 77.5786 110.358 77.6121C110.353 77.6512 110.347 77.6875 110.341 77.721H107.241C107.241 77.9221 107.275 78.1092 107.342 78.2824C107.415 78.4499 107.512 78.5951 107.635 78.718C107.758 78.8409 107.906 78.9358 108.079 79.0029C108.252 79.0699 108.442 79.1034 108.649 79.1034C108.844 79.1034 109.02 79.0783 109.177 79.028C109.339 78.9777 109.481 78.9191 109.604 78.8521C109.738 78.785 109.861 78.7041 109.973 78.6091L110.241 78.9777ZM109.738 77.2519C109.738 77.1122 109.713 76.9726 109.663 76.833C109.618 76.6933 109.545 76.5676 109.445 76.4559C109.35 76.3386 109.224 76.2437 109.068 76.1711C108.917 76.0929 108.733 76.0538 108.515 76.0538C108.319 76.0538 108.144 76.0873 107.987 76.1543C107.836 76.2214 107.708 76.3107 107.602 76.4224C107.501 76.5341 107.42 76.6626 107.359 76.8078C107.297 76.953 107.261 77.1011 107.25 77.2519H109.738ZM111.175 78.5337C111.365 78.7459 111.555 78.8995 111.745 78.9945C111.941 79.0839 112.133 79.1285 112.323 79.1285C112.429 79.1285 112.533 79.1174 112.633 79.095C112.734 79.0671 112.823 79.028 112.901 78.9777C112.98 78.9275 113.041 78.8604 113.086 78.7767C113.136 78.6929 113.161 78.5923 113.161 78.4751C113.161 78.3578 113.125 78.26 113.052 78.1818C112.98 78.098 112.893 78.0282 112.792 77.9724C112.692 77.9165 112.586 77.8718 112.474 77.8383C112.368 77.7992 112.276 77.7685 112.198 77.7462C112.125 77.7238 112.024 77.6931 111.896 77.654C111.773 77.6093 111.65 77.5479 111.527 77.4697C111.404 77.3859 111.298 77.277 111.209 77.1429C111.12 77.0089 111.075 76.8385 111.075 76.6319C111.075 76.4531 111.111 76.2968 111.184 76.1627C111.256 76.0231 111.351 75.9086 111.469 75.8192C111.586 75.7243 111.72 75.6544 111.871 75.6098C112.027 75.5595 112.184 75.5344 112.34 75.5344C112.658 75.5344 112.918 75.579 113.119 75.6684C113.32 75.7578 113.491 75.8667 113.63 75.9951L113.329 76.3722C113.189 76.2549 113.033 76.1655 112.859 76.1041C112.692 76.0426 112.519 76.0119 112.34 76.0119C112.133 76.0119 111.966 76.0594 111.837 76.1543C111.709 76.2493 111.645 76.3889 111.645 76.5732C111.645 76.6626 111.667 76.7408 111.712 76.8078C111.762 76.8748 111.823 76.9363 111.896 76.9921C111.974 77.0424 112.064 77.0899 112.164 77.1346C112.27 77.1737 112.376 77.21 112.482 77.2435C112.583 77.277 112.703 77.3189 112.843 77.3691C112.988 77.4138 113.128 77.4809 113.262 77.5702C113.396 77.654 113.51 77.7657 113.605 77.9053C113.7 78.0394 113.747 78.2125 113.747 78.4248C113.747 78.6147 113.711 78.785 113.639 78.9358C113.566 79.0811 113.463 79.2067 113.329 79.3129C113.2 79.4134 113.047 79.4888 112.868 79.5391C112.695 79.5949 112.508 79.6228 112.306 79.6228C111.983 79.6228 111.695 79.5614 111.444 79.4385C111.192 79.3101 110.994 79.1397 110.849 78.9275L111.175 78.5337ZM115.384 74.2609C115.379 74.3838 115.337 74.4871 115.258 74.5709C115.18 74.6491 115.077 74.6882 114.948 74.6882C114.82 74.6882 114.714 74.6491 114.63 74.5709C114.546 74.4871 114.504 74.3838 114.504 74.2609C114.504 74.138 114.546 74.0375 114.63 73.9593C114.714 73.8755 114.82 73.8336 114.948 73.8336C115.077 73.8336 115.18 73.8755 115.258 73.9593C115.342 74.0375 115.384 74.138 115.384 74.2609ZM114.638 75.6098H115.258V79.5391H114.638V75.6098ZM119.52 78.7683C119.375 79.0029 119.182 79.1872 118.942 79.3212C118.707 79.4497 118.422 79.5139 118.087 79.5139C117.83 79.5139 117.584 79.472 117.35 79.3883C117.121 79.3045 116.92 79.1788 116.747 79.0112C116.579 78.8437 116.445 78.637 116.344 78.3913C116.244 78.1399 116.194 77.8523 116.194 77.5283C116.194 77.2211 116.244 76.9447 116.344 76.6989C116.445 76.4531 116.579 76.2437 116.747 76.0705C116.92 75.8974 117.118 75.7661 117.341 75.6768C117.57 75.5818 117.813 75.5344 118.07 75.5344C118.433 75.5344 118.735 75.6098 118.975 75.7606C119.221 75.9058 119.405 76.0817 119.528 76.2884H119.545L119.537 75.6098H120.157V78.7013C120.157 79.1425 120.126 79.4916 120.064 79.7485C120.003 80.0054 119.908 80.2205 119.779 80.3936C119.718 80.483 119.64 80.5751 119.545 80.6701C119.45 80.7651 119.333 80.8516 119.193 80.9298C119.059 81.008 118.897 81.0722 118.707 81.1225C118.523 81.1728 118.305 81.1979 118.054 81.1979C117.808 81.1979 117.582 81.1672 117.375 81.1058C117.174 81.0499 117.001 80.9857 116.856 80.9131C116.71 80.846 116.593 80.779 116.504 80.712C116.42 80.6506 116.37 80.6142 116.353 80.6031L116.663 80.159C116.73 80.2093 116.811 80.2624 116.906 80.3182C117.006 80.3797 117.118 80.4355 117.241 80.4858C117.364 80.5416 117.498 80.5863 117.643 80.6198C117.788 80.6533 117.936 80.6701 118.087 80.6701C118.355 80.6701 118.581 80.6282 118.766 80.5444C118.956 80.4606 119.106 80.3434 119.218 80.1926C119.33 80.0473 119.411 79.8714 119.461 79.6647C119.511 79.4581 119.537 79.2319 119.537 78.9861V78.7683H119.52ZM118.196 78.9945C118.419 78.9945 118.615 78.9582 118.783 78.8856C118.956 78.8074 119.098 78.7013 119.21 78.5672C119.327 78.4332 119.414 78.2768 119.47 78.098C119.531 77.9193 119.562 77.7266 119.562 77.52C119.562 77.0675 119.436 76.7129 119.185 76.4559C118.939 76.1934 118.604 76.0622 118.179 76.0622C117.956 76.0622 117.76 76.1013 117.593 76.1795C117.425 76.2521 117.286 76.3554 117.174 76.4895C117.062 76.6179 116.976 76.7715 116.914 76.9502C116.858 77.129 116.83 77.3189 116.83 77.52C116.83 77.7266 116.858 77.9193 116.914 78.098C116.976 78.2768 117.062 78.4332 117.174 78.5672C117.291 78.7013 117.434 78.8074 117.601 78.8856C117.774 78.9582 117.973 78.9945 118.196 78.9945ZM123.207 75.5344C123.486 75.5344 123.715 75.5762 123.894 75.66C124.078 75.7382 124.22 75.8499 124.321 75.9951C124.427 76.1404 124.5 76.3135 124.539 76.5146C124.578 76.7101 124.597 76.9251 124.597 77.1597V79.5391H123.977V77.2016C123.977 76.833 123.908 76.5537 123.768 76.3638C123.634 76.1683 123.383 76.0705 123.014 76.0705C122.841 76.0705 122.687 76.1041 122.553 76.1711C122.419 76.2381 122.307 76.3303 122.218 76.4476C122.134 76.5593 122.07 76.6933 122.025 76.8497C121.981 77.0005 121.958 77.1597 121.958 77.3273V79.5391H121.338V75.6098H121.958V76.2465H121.983C122.073 76.0342 122.226 75.8639 122.444 75.7354C122.668 75.6014 122.922 75.5344 123.207 75.5344ZM127.627 78.1986C127.688 78.2935 127.769 78.3941 127.87 78.5002C127.97 78.6063 128.085 78.7041 128.213 78.7934C128.342 78.8772 128.478 78.9498 128.624 79.0112C128.769 79.0671 128.92 79.095 129.076 79.095C129.428 79.095 129.716 79.0085 129.939 78.8353C130.162 78.6566 130.274 78.4024 130.274 78.0729C130.274 77.9221 130.246 77.7908 130.19 77.6791C130.135 77.5618 130.059 77.4585 129.964 77.3691C129.869 77.2798 129.76 77.2016 129.637 77.1346C129.515 77.062 129.386 76.9977 129.252 76.9419L128.397 76.5732C128.074 76.4336 127.831 76.2521 127.669 76.0287C127.507 75.8052 127.426 75.5176 127.426 75.1657C127.426 74.92 127.476 74.7049 127.576 74.5206C127.677 74.3363 127.811 74.1827 127.979 74.0598C128.146 73.9369 128.336 73.8448 128.548 73.7833C128.761 73.7163 128.978 73.6828 129.202 73.6828C129.442 73.6828 129.654 73.7163 129.839 73.7833C130.028 73.8504 130.188 73.9258 130.316 74.0096C130.45 74.0933 130.556 74.1771 130.634 74.2609C130.713 74.3391 130.763 74.3949 130.785 74.4285L130.417 74.8474C130.294 74.7021 130.132 74.5625 129.931 74.4285C129.73 74.2944 129.475 74.2274 129.168 74.2274C128.855 74.2274 128.593 74.3056 128.381 74.462C128.168 74.6184 128.062 74.839 128.062 75.1238C128.062 75.2746 128.085 75.4031 128.129 75.5092C128.18 75.6153 128.241 75.7075 128.314 75.7857C128.392 75.8583 128.478 75.9225 128.573 75.9784C128.674 76.0287 128.772 76.0733 128.867 76.1124L129.654 76.4476C129.833 76.5202 129.998 76.604 130.149 76.6989C130.305 76.7883 130.439 76.8944 130.551 77.0173C130.662 77.1401 130.752 77.2798 130.819 77.4362C130.886 77.5926 130.919 77.7741 130.919 77.9807C130.919 78.2377 130.872 78.4695 130.777 78.6761C130.682 78.8772 130.548 79.0503 130.375 79.1956C130.207 79.3352 130.006 79.4441 129.771 79.5223C129.537 79.6005 129.28 79.6396 129.001 79.6396C128.783 79.6396 128.579 79.6061 128.389 79.5391C128.199 79.472 128.029 79.3883 127.878 79.2877C127.727 79.1872 127.593 79.0783 127.476 78.961C127.364 78.8381 127.272 78.7208 127.199 78.6091L127.627 78.1986ZM131.2 75.6014L131.846 75.6098L133.119 78.8437L134.367 75.6014L135.012 75.6098L133.094 80.2512C133.021 80.4299 132.946 80.5779 132.868 80.6952C132.795 80.8125 132.72 80.9047 132.641 80.9717C132.563 81.0443 132.479 81.0946 132.39 81.1225C132.306 81.1504 132.211 81.1644 132.105 81.1644C132.016 81.1644 131.935 81.156 131.862 81.1393C131.79 81.1281 131.725 81.1141 131.67 81.0974C131.603 81.075 131.544 81.0527 131.494 81.0304L131.619 80.5025C131.664 80.5193 131.709 80.5361 131.753 80.5528C131.792 80.564 131.834 80.5724 131.879 80.5779C131.924 80.5891 131.968 80.5947 132.013 80.5947C132.063 80.5947 132.111 80.5919 132.156 80.5863C132.2 80.5807 132.245 80.5584 132.29 80.5193C132.334 80.4858 132.379 80.4327 132.424 80.3601C132.474 80.2875 132.527 80.1842 132.583 80.0501L132.801 79.5391L131.2 75.6014ZM135.418 78.5337C135.608 78.7459 135.798 78.8995 135.987 78.9945C136.183 79.0839 136.376 79.1285 136.566 79.1285C136.672 79.1285 136.775 79.1174 136.876 79.095C136.976 79.0671 137.065 79.028 137.144 78.9777C137.222 78.9275 137.283 78.8604 137.328 78.7767C137.378 78.6929 137.403 78.5923 137.403 78.4751C137.403 78.3578 137.367 78.26 137.294 78.1818C137.222 78.098 137.135 78.0282 137.035 77.9724C136.934 77.9165 136.828 77.8718 136.716 77.8383C136.61 77.7992 136.518 77.7685 136.44 77.7462C136.367 77.7238 136.267 77.6931 136.138 77.654C136.015 77.6093 135.893 77.5479 135.77 77.4697C135.647 77.3859 135.541 77.277 135.451 77.1429C135.362 77.0089 135.317 76.8385 135.317 76.6319C135.317 76.4531 135.354 76.2968 135.426 76.1627C135.499 76.0231 135.594 75.9086 135.711 75.8192C135.828 75.7243 135.962 75.6544 136.113 75.6098C136.27 75.5595 136.426 75.5344 136.582 75.5344C136.901 75.5344 137.16 75.579 137.361 75.6684C137.563 75.7578 137.733 75.8667 137.873 75.9951L137.571 76.3722C137.431 76.2549 137.275 76.1655 137.102 76.1041C136.934 76.0426 136.761 76.0119 136.582 76.0119C136.376 76.0119 136.208 76.0594 136.08 76.1543C135.951 76.2493 135.887 76.3889 135.887 76.5732C135.887 76.6626 135.909 76.7408 135.954 76.8078C136.004 76.8748 136.066 76.9363 136.138 76.9921C136.216 77.0424 136.306 77.0899 136.406 77.1346C136.513 77.1737 136.619 77.21 136.725 77.2435C136.825 77.277 136.945 77.3189 137.085 77.3691C137.23 77.4138 137.37 77.4809 137.504 77.5702C137.638 77.654 137.752 77.7657 137.847 77.9053C137.942 78.0394 137.99 78.2125 137.99 78.4248C137.99 78.6147 137.954 78.785 137.881 78.9358C137.808 79.0811 137.705 79.2067 137.571 79.3129C137.442 79.4134 137.289 79.4888 137.11 79.5391C136.937 79.5949 136.75 79.6228 136.549 79.6228C136.225 79.6228 135.937 79.5614 135.686 79.4385C135.435 79.3101 135.236 79.1397 135.091 78.9275L135.418 78.5337ZM140.598 79.4972C140.414 79.581 140.188 79.6228 139.92 79.6228C139.685 79.6228 139.504 79.5754 139.375 79.4804C139.252 79.3799 139.16 79.2514 139.099 79.095C139.043 78.9386 139.009 78.7683 138.998 78.584C138.987 78.3941 138.981 78.2097 138.981 78.031V76.1376H138.395V75.6181H138.981V74.4033H139.61V75.6181H140.573V76.1376H139.601V78.1567C139.601 78.3187 139.607 78.4667 139.618 78.6007C139.629 78.7292 139.666 78.8409 139.727 78.9358C139.76 78.9861 139.811 79.0252 139.878 79.0531C139.95 79.0755 140.034 79.0866 140.129 79.0866C140.191 79.0866 140.246 79.0839 140.297 79.0783C140.353 79.0671 140.4 79.0531 140.439 79.0364C140.484 79.0252 140.526 79.0112 140.565 78.9945L140.598 79.4972ZM144.669 78.9777C144.306 79.4078 143.739 79.6228 142.969 79.6228C142.678 79.6228 142.413 79.5754 142.173 79.4804C141.938 79.3855 141.734 79.2486 141.561 79.0699C141.394 78.8912 141.262 78.6761 141.167 78.4248C141.078 78.1679 141.033 77.8802 141.033 77.5618C141.033 77.2826 141.078 77.0201 141.167 76.7743C141.262 76.5286 141.394 76.3135 141.561 76.1292C141.729 75.9449 141.933 75.7997 142.173 75.6935C142.413 75.5874 142.678 75.5344 142.969 75.5344C143.237 75.5344 143.482 75.5818 143.706 75.6768C143.935 75.7661 144.128 75.8946 144.284 76.0622C144.446 76.2241 144.572 76.4196 144.661 76.6486C144.75 76.8776 144.795 77.1262 144.795 77.3943C144.795 77.4278 144.792 77.4641 144.787 77.5032C144.787 77.5423 144.787 77.5786 144.787 77.6121C144.781 77.6512 144.775 77.6875 144.77 77.721H141.67C141.67 77.9221 141.704 78.1092 141.771 78.2824C141.843 78.4499 141.941 78.5951 142.064 78.718C142.187 78.8409 142.335 78.9358 142.508 79.0029C142.681 79.0699 142.871 79.1034 143.078 79.1034C143.273 79.1034 143.449 79.0783 143.605 79.028C143.767 78.9777 143.91 78.9191 144.033 78.8521C144.167 78.785 144.29 78.7041 144.401 78.6091L144.669 78.9777ZM144.167 77.2519C144.167 77.1122 144.142 76.9726 144.091 76.833C144.047 76.6933 143.974 76.5676 143.873 76.4559C143.778 76.3386 143.653 76.2437 143.496 76.1711C143.346 76.0929 143.161 76.0538 142.943 76.0538C142.748 76.0538 142.572 76.0873 142.416 76.1543C142.265 76.2214 142.136 76.3107 142.03 76.4224C141.93 76.5341 141.849 76.6626 141.787 76.8078C141.726 76.953 141.69 77.1011 141.678 77.2519H144.167ZM148.637 76.3805C148.721 76.1348 148.869 75.9337 149.081 75.7773C149.299 75.6153 149.547 75.5344 149.827 75.5344C150.111 75.5344 150.343 75.5818 150.522 75.6768C150.701 75.7661 150.84 75.889 150.941 76.0454C151.041 76.1962 151.108 76.3694 151.142 76.5649C151.175 76.7603 151.192 76.9614 151.192 77.1681V79.5391H150.572V77.2016C150.572 77.0843 150.561 76.9586 150.539 76.8246C150.522 76.6905 150.483 76.5676 150.421 76.4559C150.36 76.3442 150.276 76.2521 150.17 76.1795C150.064 76.1069 149.921 76.0705 149.743 76.0705C149.581 76.0705 149.436 76.1069 149.307 76.1795C149.184 76.2521 149.081 76.3526 148.997 76.4811C148.913 76.6095 148.849 76.7576 148.804 76.9251C148.76 77.0927 148.737 77.2742 148.737 77.4697V79.5391H148.117V77.2016C148.117 77.0843 148.106 76.9586 148.084 76.8246C148.067 76.6905 148.028 76.5676 147.967 76.4559C147.905 76.3442 147.821 76.2521 147.715 76.1795C147.609 76.1069 147.467 76.0705 147.288 76.0705C147.126 76.0705 146.981 76.1069 146.852 76.1795C146.729 76.2521 146.623 76.3526 146.534 76.4811C146.45 76.6095 146.386 76.7576 146.341 76.9251C146.297 77.0927 146.274 77.2742 146.274 77.4697V79.5391H145.654V75.6098H146.274L146.266 76.2381H146.291C146.386 76.037 146.528 75.8695 146.718 75.7354C146.914 75.6014 147.132 75.5344 147.372 75.5344C147.757 75.5344 148.045 75.6153 148.235 75.7773C148.43 75.9337 148.564 76.1348 148.637 76.3805Z" fill="#6B6BBD"/>
<defs>
<filter id="filter0_f_1045_19274" x="19.7" y="0.0271339" width="53.8552" height="101.958" filterUnits="userSpaceOnUse" color-interpolation-filters="sRGB">
<feFlood flood-opacity="0" result="BackgroundImageFix"/>
<feBlend mode="normal" in="SourceGraphic" in2="BackgroundImageFix" result="shape"/>
<feGaussianBlur stdDeviation="9.30894" result="effect1_foregroundBlur_1045_19274"/>
</filter>
<filter id="filter1_f_1045_19274" x="28.6924" y="18.576" width="19.9589" height="64.8324" filterUnits="userSpaceOnUse" color-interpolation-filters="sRGB">
<feFlood flood-opacity="0" result="BackgroundImageFix"/>
<feBlend mode="normal" in="SourceGraphic" in2="BackgroundImageFix" result="shape"/>
<feGaussianBlur stdDeviation="1.39634" result="effect1_foregroundBlur_1045_19274"/>
</filter>
<filter id="filter2_f_1045_19274" x="16.6781" y="20.7247" width="25.9676" height="60.5374" filterUnits="userSpaceOnUse" color-interpolation-filters="sRGB">
<feFlood flood-opacity="0" result="BackgroundImageFix"/>
<feBlend mode="normal" in="SourceGraphic" in2="BackgroundImageFix" result="shape"/>
<feGaussianBlur stdDeviation="3.72358" result="effect1_foregroundBlur_1045_19274"/>
</filter>
<filter id="filter3_f_1045_19274" x="8.32885" y="19.5381" width="40.1848" height="63.0025" filterUnits="userSpaceOnUse" color-interpolation-filters="sRGB">
<feFlood flood-opacity="0" result="BackgroundImageFix"/>
<feBlend mode="normal" in="SourceGraphic" in2="BackgroundImageFix" result="shape"/>
<feGaussianBlur stdDeviation="7.9126" result="effect1_foregroundBlur_1045_19274"/>
</filter>
<linearGradient id="paint0_linear_1045_19274" x1="53.1097" y1="23.9945" x2="59.112" y2="80.3136" gradientUnits="userSpaceOnUse">
<stop stop-color="#F05245"/>
<stop offset="1" stop-color="#F05245" stop-opacity="0.08"/>
</linearGradient>
<linearGradient id="paint1_linear_1045_19274" x1="42.76" y1="27.6442" x2="55.8537" y2="71.4703" gradientUnits="userSpaceOnUse">
<stop stop-color="#FFE300"/>
<stop offset="1" stop-color="#FFE300" stop-opacity="0"/>
</linearGradient>
<linearGradient id="paint2_linear_1045_19274" x1="33.0497" y1="33.0065" x2="35.374" y2="71.4699" gradientUnits="userSpaceOnUse">
<stop stop-color="#16DCC1"/>
<stop offset="1" stop-color="#16DCC1" stop-opacity="0"/>
</linearGradient>
<linearGradient id="paint3_linear_1045_19274" x1="25.2335" y1="37.128" x2="24.2032" y2="66.8159" gradientUnits="userSpaceOnUse">
<stop stop-color="#00ADFF"/>
<stop offset="1" stop-color="#00ADFF" stop-opacity="0"/>
</linearGradient>
<linearGradient id="paint4_linear_1045_19274" x1="53.1092" y1="23.9945" x2="48.4548" y2="93.3461" gradientUnits="userSpaceOnUse">
<stop stop-color="#F05245"/>
<stop offset="1" stop-color="#F05245" stop-opacity="0"/>
</linearGradient>
<linearGradient id="paint5_linear_1045_19274" x1="42.0116" y1="25.391" x2="40.1498" y2="91.4845" gradientUnits="userSpaceOnUse">
<stop stop-color="#FFE300"/>
<stop offset="1" stop-color="#FFE300" stop-opacity="0"/>
</linearGradient>
<linearGradient id="paint6_linear_1045_19274" x1="27.4611" y1="32.8378" x2="25.5993" y2="80.7788" gradientUnits="userSpaceOnUse">
<stop stop-color="#1CEBCF"/>
<stop offset="1" stop-color="#1CEBCF" stop-opacity="0"/>
</linearGradient>
<linearGradient id="paint7_linear_1045_19274" x1="24.2031" y1="36.0964" x2="30.7193" y2="68.6777" gradientUnits="userSpaceOnUse">
<stop stop-color="#00ADFF"/>
<stop offset="1" stop-color="#00ADFF" stop-opacity="0"/>
</linearGradient>
<clipPath id="clip0_1045_19274">
<rect width="37.2358" height="9.44517" fill="white" transform="translate(158.252 71.4702)"/>
</clipPath>
</defs>
</svg>
