<svg xmlns="http://www.w3.org/2000/svg" viewBox="0 0 149 27">
  <path fill="#5D7289" fill-rule="nonzero" d="M137.67623 1l.404423.00358759c2.798287.05022633 4.910405.62782905 6.336355 1.73280817 1.493853 1.15759717 2.240779 2.85724382 2.240779 5.09893993 0 .99222615-.172131 1.89870436-.516394 2.71943461-.344262.8207303-.839139 1.5404005-1.484631 2.1590106-.645492.6186101-1.426229 1.1239105-2.342213 1.5159011-.915983.3919906-1.945697.6553592-3.089139.790106.236065.1469965.452459.333192.64918.5585866l.143853.1763957L149 27h-1.622951l-.150422-.0063163c-.144083-.0126325-.269147-.0442137-.375193-.0947438-.113114-.0538987-.220327-.1450365-.321639-.2734134l-.074877-.103265-8.372951-10.5469965-.099385-.1286219c-.06694-.0816647-.135246-.1551629-.204918-.2204947-.104508-.0979976-.221312-.1745583-.35041-.229682-.129098-.0551236-.282787-.0949352-.461065-.1194346-.133709-.0183746-.289895-.0298587-.468558-.0344523l-.186156-.0022968h-3.411885V27H131V1h6.67623zm-31.185496-1c1.853224 0 3.548925.32053942 5.087101.96161826 1.538177.64107884 2.857055 1.55290456 3.956635 2.73547718 1.09958 1.18257261 1.952063 2.60477178 2.55745 4.26659751C118.697307 9.62551867 119 11.4709544 119 13.5c0 2.0414938-.302693 3.8931535-.90808 5.5549793-.605387 1.6618257-1.45787 3.0809128-2.55745 4.2572614-1.09958 1.1763485-2.418458 2.0850622-3.956635 2.726141C110.039659 26.6794606 108.343958 27 106.490734 27c-1.853225 0-3.545837-.3205394-5.077836-.9616183-1.5319986-.6410788-2.847788-1.5497925-3.947368-2.726141-1.0995799-1.1763486-1.9520632-2.5954357-2.5574499-4.2572614C94.3026934 17.3931535 94 15.5414938 94 13.5c0-2.0290456.3026934-3.87448133.9080801-5.53630705.6053867-1.66182573 1.45787-3.08091287 2.5574499-4.25726141 1.09958-1.17634855 2.4153694-2.08817428 3.947368-2.73547718C102.944897.32365146 104.637509 0 106.490734 0zM74.7465438 1l.3948498.00378606c2.864263.05552891 5.039866.72187584 6.5268092 1.9990408C83.2227343 4.33804476 84 6.24287397 84 8.71731449c0 1.13922261-.2150538 2.18657241-.6451613 3.14204951-.4301075.955477-1.0445468 1.7792697-1.843318 2.471378-.7987711.6921084-1.7695852 1.2310955-2.9124424 1.6169612-1.015873.3429917-2.1434071.5335427-3.3826022.5716529l-.4699323.0071457h-4.8479263V27H68V1h6.7465438zM44.4225576 1L55 27h-1.4432089l-.0986497-.0055124c-.1266614-.0146996-.2338364-.0587986-.321525-.1322968-.0822081-.0689046-.1507149-.1533127-.2055203-.2532244l-.0502383-.1050795-3.0325655-7.5519434H37.1517077l-3.0325655 7.5519434-.0433876.0976149c-.0502383.0941696-.1210286.1780035-.212371.2515017-.0974318.0783981-.2104527.125437-.3390627.1411166L33.4249404 27H32L42.5774424 1h1.8451152zM1.47974583 1l.09864972.00551237c.12666137.01469964.23383638.05879858.32152502.13229682.1096108.09187279.19486365.21130742.25575854.35830388L10.9610802 23.0678445l.0974318.2756184c.0649546.1878288.1299091.3838241.1948637.5879859.0974318.3062426.1887742.6186101.274027.9371024.0730739-.3184923.1522372-.6308598.2374901-.9371024.0852528-.3062427.1826846-.5941108.2922954-.8636043l8.7871327-21.57173143.0433876-.09761484c.0502383-.09416961.1210286-.17800353.2123709-.25150176C21.2218692 1.04899882 21.3680169 1 21.5385226 1H23L12.3312153 27h-1.6624306L0 1h1.47974583zm105.01098817.64315353c-1.556709 0-2.983692.27074688-4.280949.81224066-1.297257.54149378-2.4122807 1.32261411-3.3450704 2.343361-.9327897 1.02074688-1.6555473 2.26556016-2.1682728 3.73443983-.5127255 1.46887968-.7690882 3.12448128-.7690882 4.96680498 0 1.8547718.2563627 3.5134855.7690882 4.9761411.5127255 1.4626556 1.2354831 2.7043568 2.1682728 3.7251037.9327897 1.0207469 2.0478134 1.7987552 3.3450704 2.3340249 1.297257.5352697 2.72424.8029046 4.280949.8029046 1.569063 0 3.002224-.2676349 4.299481-.8029046s2.409192-1.313278 3.335804-2.3340249c.926613-1.0207469 1.643193-2.2624481 2.149741-3.7251037.506548-1.4626556.759822-3.1213693.759822-4.9761411 0-1.8423237-.253274-3.4979253-.759822-4.96680498-.506548-1.46887967-1.223128-2.71369295-2.149741-3.73443983-.926612-1.02074689-2.038547-1.80186722-3.335804-2.343361-1.297257-.54149378-2.730418-.81224066-4.299481-.81224066zM43.4908658 2.87420495c-.0730739.29399293-.1522373.57267373-.2374901.8360424-.0568352.17557911-.1163769.34163068-.178625.49815469l-.095402.22764036-5.2613185 13.1194346h11.5639396L44.0206513 4.41766784l-.1088801-.26753356c-.1441991-.3704311-.2845009-.79574088-.4209054-1.27592933zm31.255678-.38586573h-4.8479263V15.019788h4.8479263c1.1428571 0 2.1689708-.1592462 3.078341-.4777385.9093702-.3184924 1.6804915-.7594818 2.313364-1.3229682.6328726-.5634865 1.1182796-1.228033 1.4562212-1.9936396.3379417-.7656066.5069125-1.601649.5069125-2.50812721 0-1.996702-.6144393-3.53404005-1.843318-4.61201414-1.2288786-1.07797408-3.0660522-1.61696113-5.5115207-1.61696113zm62.9296862 0h-4.77664V13.8438163h4.518443c1.155737 0 2.191598-.1378092 3.107582-.4134276.915983-.2756184 1.690574-.6706714 2.32377-1.185159.633197-.5144877 1.115779-1.1330978 1.447746-1.8558304.331967-.72273263.497951-1.53733805.497951-2.44381626 0-1.84970554-.605533-3.22167256-1.816598-4.11590106C141.767418 2.93545347 140 2.48833922 137.67623 2.48833922z"/>
</svg>