<svg xmlns="http://www.w3.org/2000/svg" fill="none" viewBox="0 0 24 24" width="1em" height="1em"><path stroke="currentColor" stroke-dasharray="1.5 1.5" stroke-linecap="round" stroke-linejoin="round" d="m4 20 6.5-6.5"/><path stroke="currentColor" stroke-linecap="round" stroke-linejoin="round" d="M12 16v-4H8"/><path stroke="currentColor" stroke-width=".875" d="m17.833 2.779-.398.18.398-.18a.915.915 0 0 0-1.666 0l-.87 1.919a.04.04 0 0 1-.029.022l-2.447.47a.915.915 0 0 0-.463 1.557l1.658 1.6a.04.04 0 0 1 .012.036l-.425 2.575a.915.915 0 0 0 1.345.95l2.033-1.122a.04.04 0 0 1 .038 0l2.033 1.122a.915.915 0 0 0 1.345-.95l-.425-2.575a.04.04 0 0 1 .012-.035l1.658-1.601a.915.915 0 0 0-.463-1.557l-2.447-.47a.04.04 0 0 1-.03-.022l-.869-1.92Z"/></svg>
