<svg xmlns="http://www.w3.org/2000/svg" fill="none" viewBox="0 0 32 32" width="1em" height="1em"><path stroke="currentColor" stroke-dasharray="2 2" stroke-linecap="round" stroke-linejoin="round" d="m5 27 9.5-9.5"/><path stroke="currentColor" stroke-linecap="round" stroke-linejoin="round" d="M10 16h6v6"/><path stroke="currentColor" d="m25.3 5.572-.45.219.45-.22-1.371-2.808a1.033 1.033 0 0 0-1.858 0l-1.37 2.809a.03.03 0 0 1-.024.018l-3.688.657a1.033 1.033 0 0 0-.508 1.787l2.464 2.21q.014.011.01.03l-.635 3.581a1.033 1.033 0 0 0 1.489 1.1l3.176-1.627a.03.03 0 0 1 .03 0l3.176 1.627c.76.39 1.638-.259 1.489-1.1l-.636-3.581a.03.03 0 0 1 .01-.03l2.465-2.21a1.033 1.033 0 0 0-.508-1.787l-3.688-.657a.03.03 0 0 1-.024-.018Z"/></svg>
