<svg xmlns="http://www.w3.org/2000/svg" fill="none" viewBox="0 0 16 16" width="1em" height="1em"><path stroke="currentColor" stroke-dasharray="1.85 1.85" stroke-linecap="round" stroke-linejoin="round" d="m3 13 4.5-4.5"/><path stroke="currentColor" stroke-linecap="round" stroke-linejoin="round" d="M5 8h3v3"/><path stroke="currentColor" d="m9.615 5.215-1.12-1.082a.357.357 0 0 1 .18-.608l1.659-.318a.357.357 0 0 0 .258-.203l.583-1.286a.357.357 0 0 1 .65 0l.583 1.286a.357.357 0 0 0 .258.203l1.658.318a.357.357 0 0 1 .18.608l-1.12 1.082a.357.357 0 0 0-.104.315l.288 1.744a.357.357 0 0 1-.525.37l-1.37-.756a.357.357 0 0 0-.345 0l-1.37.756a.357.357 0 0 1-.526-.37L9.72 5.53a.357.357 0 0 0-.105-.315Z"/></svg>
