<svg viewBox="0 0 32 32" fill="none" xmlns="http://www.w3.org/2000/svg" width="1em" height="1em"><path d="M8.5 12.5V10.9449C8.5 6.83317 11.8579 3.5 16 3.5C20.1421 3.5 23.5 6.83317 23.5 10.9449V12.5" stroke="currentColor" stroke-linecap="round"/><path d="M25 12.5C25 17.4706 20.9706 21.5 16 21.5C11.0294 21.5 7 17.4706 7 12.5" stroke="currentColor"/><path d="M17 18.5C17 19.0523 16.5523 19.5 16 19.5C15.4477 19.5 15 19.0523 15 18.5C15 17.9477 15.4477 17.5 16 17.5C16.5523 17.5 17 17.9477 17 18.5Z" stroke="currentColor"/><path d="M6.18554 13.7236C6.31857 13.0141 6.93803 12.5 7.65985 12.5L24.3401 12.5C25.062 12.5 25.6814 13.0141 25.8145 13.7236L28.0645 25.7236C28.2375 26.6467 27.5294 27.5 26.5901 27.5L5.40985 27.5C4.47065 27.5 3.76246 26.6467 3.93554 25.7236L6.18554 13.7236Z" stroke="currentColor"/></svg>
