<svg viewBox="0 0 24 24" fill="none" xmlns="http://www.w3.org/2000/svg" width="1em" height="1em"><path d="M6.5 9.5V8.05882C6.5 4.98877 8.96243 2.5 12 2.5C15.0376 2.5 17.5 4.98877 17.5 8.05882V9.5" stroke="currentColor" stroke-linecap="round"/><path d="M19 10C19 13.866 15.866 17 12 17C8.13401 17 5 13.866 5 10" stroke="currentColor"/><circle cx="12" cy="14" r="1" fill="currentColor"/><path d="M4.23328 10.7719C4.34586 10.0402 4.97548 9.5 5.71584 9.5L18.2842 9.5C19.0245 9.5 19.6541 10.0402 19.7667 10.7719L21.1513 19.7719C21.2911 20.6806 20.5881 21.5 19.6688 21.5L4.33122 21.5C3.41189 21.5 2.70887 20.6806 2.84866 19.7719L4.23328 10.7719Z" stroke="currentColor"/></svg>
