<svg viewBox="0 0 16 16" fill="none" xmlns="http://www.w3.org/2000/svg" width="1em" height="1em"><path d="M5 6.5V5.67647C5 3.92215 6.34315 2.5 8 2.5C9.65685 2.5 11 3.92215 11 5.67647V6.5" stroke="currentColor" stroke-linecap="round"/><path d="M12 7C12 9.20914 10.2091 11 8 11C5.79086 11 4 9.20914 4 7" stroke="currentColor"/><path d="M3.43897 7.77749C3.54911 7.04321 4.17988 6.5 4.92237 6.5L11.0776 6.5C11.8201 6.5 12.4509 7.04321 12.561 7.77749L13.161 11.7775C13.2971 12.6844 12.5947 13.5 11.6776 13.5L4.32237 13.5C3.40532 13.5 2.70293 12.6844 2.83897 11.7775L3.43897 7.77749Z" stroke="currentColor"/></svg>
