<svg xmlns="http://www.w3.org/2000/svg" fill="none" viewBox="0 0 32 32" width="1em" height="1em"><path stroke="currentColor" stroke-linecap="round" d="M8.5 12.5v-1.555C8.5 6.833 11.858 3.5 16 3.5s7.5 3.333 7.5 7.445V12.5"/><path stroke="currentColor" d="M25 12.5a9 9 0 1 1-18 0"/><path stroke="currentColor" d="M17 18.5a1 1 0 1 1-2 0 1 1 0 0 1 2 0Z"/><path stroke="currentColor" d="M6.186 13.724A1.5 1.5 0 0 1 7.66 12.5h16.68a1.5 1.5 0 0 1 1.474 1.224l2.25 12A1.5 1.5 0 0 1 26.59 27.5H5.41a1.5 1.5 0 0 1-1.474-1.776z"/></svg>
