<svg xmlns="http://www.w3.org/2000/svg" fill="none" viewBox="0 0 16 16" width="1em" height="1em"><path stroke="currentColor" d="M3.5 3.5a1 1 0 1 1-2 0 1 1 0 0 1 2 0Zm0 4.5a1 1 0 1 1-2 0 1 1 0 0 1 2 0Zm0 4.5a1 1 0 1 1-2 0 1 1 0 0 1 2 0Zm0-4.5h5m-5-4.5h1a1 1 0 0 1 1 1v3m-2 5h1a1 1 0 0 0 1-1V8m3-.667c0-.46.373-.833.833-.833h4.334c.46 0 .833.373.833.833v4.334c0 .46-.373.833-.833.833H9.333a.833.833 0 0 1-.833-.833z"/><path stroke="currentColor" d="M13.5 7V4.5a2 2 0 1 0-4 0V7M12 9a.5.5 0 1 1-1 0 .5.5 0 0 1 1 0Z"/><path stroke="currentColor" stroke-linecap="round" d="M11.5 9.5v1"/></svg>
