<svg xmlns="http://www.w3.org/2000/svg" fill="none" viewBox="0 0 24 24" width="1em" height="1em"><path stroke="currentColor" d="M5.5 5a1.5 1.5 0 1 1-3 0 1.5 1.5 0 0 1 3 0Zm0 7a1.5 1.5 0 1 1-3 0 1.5 1.5 0 0 1 3 0Zm0 7a1.5 1.5 0 1 1-3 0 1.5 1.5 0 0 1 3 0Zm0-7h8m-8-7h2.692a1 1 0 0 1 .977.79L10.5 12m-5 7h2.692a1 1 0 0 0 .977-.79L10.5 12m3-1A1.5 1.5 0 0 1 15 9.5h5a1.5 1.5 0 0 1 1.5 1.5v4a1.5 1.5 0 0 1-1.5 1.5h-5a1.5 1.5 0 0 1-1.5-1.5zm7-1.5v-3a3 3 0 1 0-6 0v3"/><path stroke="currentColor" d="M18 12.5a.5.5 0 1 1-1 0 .5.5 0 0 1 1 0Z"/><path stroke="currentColor" stroke-linecap="round" d="M17.5 12v2.5"/></svg>
