<svg viewBox="0 0 32 32" fill="none" xmlns="http://www.w3.org/2000/svg" stroke="currentColor"><path d="M22.9866 10.9295L23.3582 10.5951L22.9866 10.9295ZM19.5959 7.16207L19.2242 7.49655L19.5959 7.16207ZM21.5 25H10.5V26H21.5V25ZM9 23.5V8.5H8V23.5H9ZM10.5 7H18.1093V6H10.5V7ZM23 12.2675V23.5H24V12.2675H23ZM19.2242 7.49655L22.6149 11.264L23.3582 10.5951L19.9675 6.82759L19.2242 7.49655ZM18.5 7V9.5H19.5V7H18.5ZM21 12H23V11H21V12ZM18.5 9.5C18.5 10.8807 19.6193 12 21 12V11C20.1716 11 19.5 10.3284 19.5 9.5H18.5ZM24 12.2675C24 11.6499 23.7714 11.0541 23.3582 10.5951L22.6149 11.264C22.8628 11.5395 23 11.8969 23 12.2675H24ZM18.1093 7C18.5345 7 18.9398 7.18048 19.2242 7.49655L19.9675 6.82759C19.4934 6.3008 18.818 6 18.1093 6V7ZM10.5 25C9.67157 25 9 24.3284 9 23.5H8C8 24.8807 9.11929 26 10.5 26V25ZM21.5 26C22.8807 26 24 24.8807 24 23.5H23C23 24.3284 22.3284 25 21.5 25V26ZM9 8.5C9 7.67157 9.67157 7 10.5 7V6C9.11929 6 8 7.11929 8 8.5H9Z" fill="#282829"/><path d="M27 5L5 27" stroke-linecap="round"/></svg>
