<svg viewBox="0 0 16 16" fill="none" xmlns="http://www.w3.org/2000/svg" stroke="currentColor"><mask id="path-1-inside-1_2_61502" fill="white"><path d="M4.85719 14H11.1429C12.2475 14 13.1429 13.1046 13.1429 12V10.3947V4C13.1429 2.89543 12.2475 2 11.1429 2H4.85718C3.75261 2 2.85718 2.89543 2.85718 4L2.85719 12C2.85719 13.1046 3.75262 14 4.85719 14Z"/></mask><path d="M2.85719 12L3.85719 12L2.85719 12ZM2.85718 4H1.85718V4L2.85718 4ZM11.1429 13H4.85719V15H11.1429V13ZM3.85719 12L3.85718 4L1.85718 4L1.85719 12L3.85719 12ZM4.85718 3H11.1429V1H4.85718V3ZM12.1429 10.3947V12H14.1429V10.3947H12.1429ZM12.1429 4V10.3947H14.1429V4H12.1429ZM11.1429 3C11.6952 3 12.1429 3.44772 12.1429 4H14.1429C14.1429 2.34314 12.7997 1 11.1429 1V3ZM4.85719 13C4.3049 13 3.85719 12.5523 3.85719 12L1.85719 12C1.85719 13.6569 3.20033 15 4.85719 15V13ZM11.1429 15C12.7997 15 14.1429 13.6569 14.1429 12H12.1429C12.1429 12.5523 11.6952 13 11.1429 13V15ZM3.85718 4C3.85718 3.44772 4.30489 3 4.85718 3V1C3.20032 1 1.85718 2.34315 1.85718 4H3.85718Z" fill="#282829" mask="url(#path-1-inside-1_2_61502)"/><path d="M14.5 1.5L1.5 14.5" stroke-linecap="round"/></svg>
