<svg xmlns="http://www.w3.org/2000/svg" fill="none" viewBox="0 0 24 24" width="1em" height="1em"><path fill="currentColor" d="M17.875 7.538a.5.5 0 0 0 0-1v1ZM16.5 20h-9v1h9v-1ZM6 18.5v-13H5v13h1ZM7.5 4h6.248V3H7.5v1ZM18 7.908V18.5h1V7.908h-1Zm-4-4.004v2.134h1V3.904h-1Zm1.5 3.634h2.375v-1H15.5v1Zm-.764-3.167 2.752 2.408.658-.753-2.751-2.407-.659.752ZM14 6.038a1.5 1.5 0 0 0 1.5 1.5v-1a.5.5 0 0 1-.5-.5h-1Zm5 1.87a2.5 2.5 0 0 0-.854-1.882l-.658.753A1.5 1.5 0 0 1 18 7.908h1ZM13.748 4a1.5 1.5 0 0 1 .988.371l.659-.752A2.5 2.5 0 0 0 13.749 3v1ZM7.5 20A1.5 1.5 0 0 1 6 18.5H5A2.5 2.5 0 0 0 7.5 21v-1Zm9 1a2.5 2.5 0 0 0 2.5-2.5h-1a1.5 1.5 0 0 1-1.5 1.5v1ZM6 5.5A1.5 1.5 0 0 1 7.5 4V3A2.5 2.5 0 0 0 5 5.5h1Z"/><path stroke="currentColor" stroke-linecap="round" d="m20.5 3.5-17 17"/></svg>
