<svg viewBox="0 0 16 16" fill="none" xmlns="http://www.w3.org/2000/svg" width="1em" height="1em"><mask id="path-1-outside-1_2_61502" maskUnits="userSpaceOnUse" x="3" y="2" width="10" height="12" fill="currentColor"><rect fill="currentColor" x="3" y="2" width="10" height="12"/><path d="M6.00001 13H10C11.1046 13 12 12.1046 12 11V9.99561V5C12 3.89543 11.1046 3 10 3H6C4.89543 3 4 3.89543 4 5L4.00001 11C4.00001 12.1046 4.89544 13 6.00001 13Z"/></mask><path d="M4.00001 11L5.00001 11L4.00001 11ZM4 5H3V5L4 5ZM10 12H6.00001V14H10V12ZM5.00001 11L5 5L3 5L3.00001 11L5.00001 11ZM6 4H10V2H6V4ZM11 9.99561V11H13V9.99561H11ZM11 5V9.99561H13V5H11ZM10 4C10.5523 4 11 4.44772 11 5H13C13 3.34315 11.6569 2 10 2V4ZM6.00001 12C5.44772 12 5.00001 11.5523 5.00001 11L3.00001 11C3.00001 12.6569 4.34316 14 6.00001 14V12ZM10 14C11.6569 14 13 12.6569 13 11H11C11 11.5523 10.5523 12 10 12V14ZM5 5C5 4.44772 5.44772 4 6 4V2C4.34315 2 3 3.34315 3 5H5Z" fill="currentColor" mask="url(#path-1-outside-1_2_61502)"/><path d="M14.5 1.5L1.5 14.5" stroke="currentColor" stroke-linecap="round"/></svg>
