<svg xmlns="http://www.w3.org/2000/svg" fill="none" viewBox="0 0 32 32" width="1em" height="1em"><circle cx="16" cy="16" r="13.5" stroke="currentColor"/><path stroke="currentColor" d="M29 18.213c-1 0-2.295.045-3.547 0-1.56-.16-2.106-2.4-1.013-3.906s2.027-.734 2.093-1.334c.067-.6-.833-1.133-1.033-1.973s2-2 2-2M5 7.922a5.33 5.33 0 0 1 1.96 3.04 5.33 5.33 0 0 0 1.12 2.8c.6.587 1.453.72 2.053 1.333.6.614.96 1.6 1.734 1.68a1.33 1.33 0 0 0 1.226-.946 4 4 0 0 0 .12-1.774 1.87 1.87 0 0 1 .16-1.333 1.47 1.47 0 0 1 .854-.44 4.37 4.37 0 0 0 2.84-4 .76.76 0 0 0 0-.347.91.91 0 0 0-.68-.613c-.92-.253-2.12.213-2.667-.64-.296-.594-.352-1.032-.22-1.682.033-1.262-.5-1.5-.868-2m5.131 18.476-.007-.064-.023-.06a2.55 2.55 0 0 0-.78-1.065 2.54 2.54 0 0 1-.804-2.055 1.366 1.366 0 0 1 1.438-1.067c.8.065 1.254.292 1.663.574q.168.116.364.268c.33.25.723.55 1.204.788l.02.01.022.008c.236.091.454.226.641.397a1.23 1.23 0 0 1 .258.917 3.73 3.73 0 0 1-1.034 2.014 15.3 15.3 0 0 0-1.723 2.082l-.013.018-.01.019c-.15.265-.278.54-.396.795l-.004.009a10 10 0 0 1-.36.73l-.006.008-.005.01a1.74 1.74 0 0 1-.96.845.66.66 0 0 1-.765-.335 1.5 1.5 0 0 1 .01-.46c.191-1.03.52-2.03.975-2.973.248-.426.352-.922.295-1.413Z"/></svg>
