<svg xmlns="http://www.w3.org/2000/svg" fill="none" viewBox="0 0 16 16" width="1em" height="1em"><circle cx="8" cy="8" r="6.5" stroke="currentColor"/><path stroke="currentColor" d="M3.287 4.127c.493.377.84.914.98 1.52.048.51.242.997.56 1.4.3.293.726.36 1.026.666s.48.8.867.84a.67.67 0 0 0 .613-.473 2 2 0 0 0 .06-.887.93.93 0 0 1 .08-.666.73.73 0 0 1 .427-.22 2.19 2.19 0 0 0 1.42-2 .4.4 0 0 0 0-.174.45.45 0 0 0-.34-.306C8.52 3.7 7.773 3.427 7.5 3s-.093-1.175-.027-1.5m1.657 9.21-.007-.065-.024-.06a1.5 1.5 0 0 0-.458-.63 1.02 1.02 0 0 1-.318-.801.43.43 0 0 1 .451-.322c.35.028.535.123.71.243q.06.043.148.11c.168.128.402.306.666.436l.02.01.022.009q.124.049.226.135a.37.37 0 0 1 .066.253 1.6 1.6 0 0 1-.447.866v.001a8 8 0 0 0-.89 1.075l-.012.018-.011.019c-.08.141-.148.287-.206.412l-.003.008a5 5 0 0 1-.171.346l-.006.01-.004.01a.62.62 0 0 1-.332.296.08.08 0 0 1-.065-.016q0-.05.007-.098c.092-.49.247-.965.463-1.413.148-.258.21-.557.175-.853Z"/></svg>
