<svg xmlns="http://www.w3.org/2000/svg" fill="none" viewBox="0 0 24 24" width="1em" height="1em"><circle cx="12" cy="12" r="9.5" stroke="currentColor"/><path stroke="currentColor" d="m6.898 8.423-.003-.033-.008-.033a4.5 4.5 0 0 0-1.364-2.324q.026-.057.06-.123c.135-.268.368-.639.75-1.028.735-.75 2.056-1.602 4.395-1.866l.008.04c.04.204.044.472.044.716a2.73 2.73 0 0 0 .243 1.711l.011.024.015.023c.344.536.895.62 1.293.638.112.005.252.005.376.005.075 0 .143 0 .196.002.175.003.311.016.423.047l.016.004.015.003a.18.18 0 0 1 .127.1q0 .009-.002.017l-.012.05-.001.053a2.78 2.78 0 0 1-1.762 2.526 1.6 1.6 0 0 0-.87.47l-.048.05-.032.06a1.9 1.9 0 0 0-.169 1.333 2.5 2.5 0 0 1-.078 1.088.5.5 0 0 1-.42.351c-.07-.018-.167-.083-.327-.286a7 7 0 0 1-.183-.25l-.095-.132c-.1-.139-.22-.296-.359-.439-.288-.294-.63-.466-.893-.6l-.009-.004c-.273-.138-.467-.238-.623-.383a3.5 3.5 0 0 1-.714-1.81Zm6.549 7.67-.008-.064-.023-.06a2.04 2.04 0 0 0-.62-.848 1.78 1.78 0 0 1-.56-1.428.9.9 0 0 1 .945-.694c.574.047.894.207 1.186.408q.113.08.256.19c.25.189.563.427.935.611l.02.01.022.009q.242.093.434.266a.8.8 0 0 1 .161.585 2.67 2.67 0 0 1-.74 1.44 11.6 11.6 0 0 0-1.307 1.578l-.012.018-.01.02a8 8 0 0 0-.301.603l-.004.009a7 7 0 0 1-.266.537l-.005.01-.005.01a1.18 1.18 0 0 1-.647.57.37.37 0 0 1-.414-.17q-.015-.143.008-.284c.142-.76.384-1.497.72-2.193.197-.342.28-.74.235-1.133Z"/></svg>
