<svg viewBox="0 0 32 32" fill="none" xmlns="http://www.w3.org/2000/svg" width="1em" height="1em"><path d="M21.5 2.98077V5.5C21.5 6.60457 22.3954 7.5 23.5 7.5H26M26.5 23V8.32843C26.5 7.79799 26.2893 7.28929 25.9142 6.91421L22.0858 3.08579C21.7107 2.71071 21.202 2.5 20.6716 2.5H7.5C6.39543 2.5 5.5 3.39543 5.5 4.5V27.5C5.5 28.6046 6.39543 29.5 7.5 29.5H25.5" stroke="currentColor" stroke-linecap="round"/><path d="M8.5 7.5H16.5M8.5 10.5H23.5M8.5 13.5H11.5" stroke="currentColor" stroke-linecap="round"/><circle cx="18" cy="19" r="6.5" stroke="currentColor"/><path d="M29 29L23.3333 23.3333" stroke="currentColor" stroke-linecap="round" stroke-linejoin="round"/><path d="M22 24V23C22 21.8954 21.1046 21 20 21H16C14.8954 21 14 21.8954 14 23V24" stroke="currentColor"/><circle cx="18" cy="17" r="2.5" stroke="currentColor"/></svg>
