<svg xmlns="http://www.w3.org/2000/svg" fill="none" viewBox="0 0 24 24" width="1em" height="1em"><path stroke="currentColor" stroke-linecap="round" d="M15.5 2.984v1.389a2 2 0 0 0 2 2H19m.5 9.681V7.22a2 2 0 0 0-.609-1.437l-2.81-2.72a2 2 0 0 0-1.39-.563H6.5a2 2 0 0 0-2 2v15a2 2 0 0 0 2 2H17M7 6.5h6.5M7 9.5h6m-6 3h1.5m-1.5 3h1.5"/><circle cx="13" cy="14" r="4.5" stroke="currentColor"/><path stroke="currentColor" stroke-linecap="round" stroke-linejoin="round" d="M20.5 20.5 17 17"/><path stroke="currentColor" d="M15 18v-1a1.5 1.5 0 0 0-1.5-1.5h-1A1.5 1.5 0 0 0 11 17v1m3-5a1 1 0 1 1-2 0 1 1 0 0 1 2 0Z"/></svg>
