<svg xmlns="http://www.w3.org/2000/svg" fill="none" viewBox="0 0 16 16" width="1em" height="1em"><path stroke="currentColor" stroke-linecap="round" d="M11.5 2v.5a1 1 0 0 0 1 1h.75M13.5 9V4.328a2 2 0 0 0-.586-1.414l-.828-.828a2 2 0 0 0-1.414-.586H4.5a2 2 0 0 0-2 2v9a2 2 0 0 0 2 2H10"/><circle cx="8" cy="8" r="3.5" stroke="currentColor"/><path stroke="currentColor" stroke-linecap="round" stroke-linejoin="round" d="M13.087 13.087 10.5 10.5"/><path stroke="currentColor" d="M9.5 11v-.5a1.5 1.5 0 1 0-3 0v.5m2-4a.5.5 0 1 1-1 0 .5.5 0 0 1 1 0Z"/></svg>
