<svg viewBox="0 0 32 32" fill="none" xmlns="http://www.w3.org/2000/svg" stroke="currentColor" width="1em" height="1em"><path d="M22 2.98077C22 2.70463 21.7761 2.48077 21.5 2.48077C21.2239 2.48077 21 2.70463 21 2.98077H22ZM26 8C26.2761 8 26.5 7.77614 26.5 7.5C26.5 7.22386 26.2761 7 26 7V8ZM26 23C26 23.2761 26.2239 23.5 26.5 23.5C26.7761 23.5 27 23.2761 27 23H26ZM25.5 30C25.7761 30 26 29.7761 26 29.5C26 29.2239 25.7761 29 25.5 29V30ZM25.9142 6.91421L26.2678 6.56066L25.9142 6.91421ZM22.0858 3.08579L21.7322 3.43934L22.0858 3.08579ZM6 27.5V4.5H5V27.5H6ZM7.5 3H20.6716V2H7.5V3ZM21 2.98077V5.5H22V2.98077H21ZM23.5 8H26V7H23.5V8ZM21.7322 3.43934L25.5607 7.26777L26.2678 6.56066L22.4393 2.73223L21.7322 3.43934ZM26 8.32843V23H27V8.32843H26ZM25.5 29H7.5V30H25.5V29ZM25.5607 7.26777C25.842 7.54907 26 7.9306 26 8.32843H27C27 7.66539 26.7366 7.0295 26.2678 6.56066L25.5607 7.26777ZM20.6716 3C21.0694 3 21.4509 3.15804 21.7322 3.43934L22.4393 2.73223C21.9705 2.26339 21.3346 2 20.6716 2V3ZM5 27.5C5 28.8807 6.11929 30 7.5 30V29C6.67157 29 6 28.3284 6 27.5H5ZM21 5.5C21 6.88071 22.1193 8 23.5 8V7C22.6716 7 22 6.32843 22 5.5H21ZM6 4.5C6 3.67157 6.67157 3 7.5 3V2C6.11929 2 5 3.11929 5 4.5H6Z" fill="#282829"/><path d="M8.5 7.5H16.5M8.5 10.5H23.5M8.5 13.5H11.5" stroke-linecap="round"/><circle cx="18" cy="19" r="6.5"/><path d="M29 29L23.3333 23.3333" stroke-linecap="round" stroke-linejoin="round"/><path d="M22 24V23C22 21.8954 21.1046 21 20 21H16C14.8954 21 14 21.8954 14 23V24"/><circle cx="18" cy="17" r="2.5"/></svg>
