<svg viewBox="0 0 16 16" fill="none" xmlns="http://www.w3.org/2000/svg" width="1em" height="1em"><path d="M11.5 1.99976V2.4998C11.5 3.05207 11.9477 3.49978 12.5 3.4998L13.25 3.49983M13.5 8.99975L13.5 4.32818C13.5 3.79775 13.2893 3.28904 12.9142 2.91397L12.0858 2.08554C11.7107 1.71047 11.202 1.49976 10.6716 1.49976L4.5 1.49976C3.39543 1.49976 2.5 2.39519 2.5 3.49976L2.5 12.4998C2.5 13.6044 3.39539 14.4998 4.49994 14.4998L10 14.5" stroke="currentColor" stroke-linecap="round"/><circle cx="8" cy="8" r="3.5" stroke="currentColor"/><path d="M13.0869 13.087L10.5 10.5" stroke="currentColor" stroke-linecap="round" stroke-linejoin="round"/><path d="M9.5 11V10.5C9.5 9.67157 8.82843 9 8 9V9C7.17157 9 6.5 9.67157 6.5 10.5V11" stroke="currentColor"/><path d="M8.5 7C8.5 7.27614 8.27614 7.5 8 7.5C7.72386 7.5 7.5 7.27614 7.5 7C7.5 6.72386 7.72386 6.5 8 6.5C8.27614 6.5 8.5 6.72386 8.5 7Z" stroke="currentColor"/></svg>
