<svg xmlns="http://www.w3.org/2000/svg" fill="none" viewBox="0 0 32 32" width="1em" height="1em"><path stroke="currentColor" stroke-linecap="round" d="M21.5 2.98V5.5a2 2 0 0 0 2 2H26m.5 15.5V8.328a2 2 0 0 0-.586-1.414l-3.828-3.828a2 2 0 0 0-1.414-.586H7.5a2 2 0 0 0-2 2v23a2 2 0 0 0 2 2h18m-17-22h8m-8 3h15m-15 3h3"/><circle cx="18" cy="19" r="6.5" stroke="currentColor"/><path stroke="currentColor" stroke-linecap="round" stroke-linejoin="round" d="m29 29-5.667-5.666"/><path stroke="currentColor" d="M22 24v-1a2 2 0 0 0-2-2h-4a2 2 0 0 0-2 2v1"/><circle cx="18" cy="17" r="2.5" stroke="currentColor"/></svg>
