<svg viewBox="0 0 16 16" fill="none" xmlns="http://www.w3.org/2000/svg" stroke="currentColor"><path d="M12 2C12 1.72386 11.7761 1.5 11.5 1.5C11.2239 1.5 11 1.72386 11 2H12ZM13.25 4.00008C13.5261 4.00009 13.75 3.77624 13.75 3.5001C13.75 3.22395 13.5262 3.00009 13.25 3.00008L13.25 4.00008ZM13 9C13 9.27614 13.2239 9.5 13.5 9.5C13.7761 9.5 14 9.27614 14 9H13ZM9.99998 15.0002C10.2761 15.0002 10.5 14.7764 10.5 14.5002C10.5 14.2241 10.2762 14.0002 10 14.0002L9.99998 15.0002ZM12.9142 2.91421L13.2678 2.56066L12.9142 2.91421ZM12.0858 2.08579L11.7322 2.43934L12.0858 2.08579ZM12.5 3.50004L12.4999 4.00004L12.5 3.50004ZM3 12.5001V3.5H2V12.5001H3ZM4.5 2H10.6716V1H4.5V2ZM11 2V2.50004H12V2H11ZM12.4999 4.00004L13.25 4.00008L13.25 3.00008L12.5 3.00004L12.4999 4.00004ZM11.7322 2.43934L12.5607 3.26777L13.2678 2.56066L12.4393 1.73223L11.7322 2.43934ZM13 4.32843V9H14V4.32843H13ZM10 14.0002L4.49995 14.0001L4.49992 15.0001L9.99998 15.0002L10 14.0002ZM12.5607 3.26777C12.842 3.54907 13 3.9306 13 4.32843H14C14 3.66539 13.7366 3.0295 13.2678 2.56066L12.5607 3.26777ZM10.6716 2C11.0694 2 11.4509 2.15804 11.7322 2.43934L12.4393 1.73223C11.9705 1.26339 11.3346 1 10.6716 1V2ZM2 12.5001C2 13.8807 3.11924 15 4.49992 15.0001L4.49995 14.0001C3.67155 14 3 13.3285 3 12.5001H2ZM11 2.50004C11 3.32844 11.6715 4.00001 12.4999 4.00004L12.5 3.00004C12.2238 3.00003 12 2.77618 12 2.50004H11ZM3 3.5C3 2.67157 3.67157 2 4.5 2V1C3.11929 1 2 2.11929 2 3.5H3Z" fill="#282829"/><circle cx="8" cy="8" r="3.5"/><path d="M13.0869 13.087L10.5 10.5" stroke-linecap="round" stroke-linejoin="round"/><path d="M9.5 11V10.5C9.5 9.67157 8.82843 9 8 9V9C7.17157 9 6.5 9.67157 6.5 10.5V11"/><path d="M8.5 7C8.5 7.27614 8.27614 7.5 8 7.5C7.72386 7.5 7.5 7.27614 7.5 7C7.5 6.72386 7.72386 6.5 8 6.5C8.27614 6.5 8.5 6.72386 8.5 7Z"/></svg>