<svg viewBox="0 0 24 24" fill="none" xmlns="http://www.w3.org/2000/svg" width="1em" height="1em"><path d="M16 2.98408C16 2.70793 15.7761 2.48408 15.5 2.48408C15.2239 2.48408 15 2.70793 15 2.98408H16ZM19 6.87261C19.2761 6.87261 19.5 6.64875 19.5 6.37261C19.5 6.09647 19.2761 5.87261 19 5.87261V6.87261ZM19 16.0541C19 16.3303 19.2239 16.5541 19.5 16.5541C19.7761 16.5541 20 16.3303 20 16.0541H19ZM17 22C17.2761 22 17.5 21.7761 17.5 21.5C17.5 21.2239 17.2761 21 17 21V22ZM16.0816 3.06309L16.4294 2.70386L16.0816 3.06309ZM5 19.5V4.5H4V19.5H5ZM6.5 3H14.6905V2H6.5V3ZM15 2.98408V4.37261H16V2.98408H15ZM17.5 6.87261H19V5.87261H17.5V6.87261ZM15.7338 3.42232L18.5434 6.14238L19.2389 5.42392L16.4294 2.70386L15.7338 3.42232ZM19 7.22006V16.0541H20V7.22006H19ZM17 21H6.5V22H17V21ZM18.5434 6.14238C18.8352 6.42495 19 6.81382 19 7.22006H20C20 6.54299 19.7254 5.89487 19.2389 5.42392L18.5434 6.14238ZM14.6905 3C15.0799 3 15.454 3.15145 15.7338 3.42232L16.4294 2.70386C15.9631 2.25241 15.3395 2 14.6905 2V3ZM4 19.5C4 20.8807 5.11929 22 6.5 22V21C5.67157 21 5 20.3284 5 19.5H4ZM15 4.37261C15 5.75332 16.1193 6.87261 17.5 6.87261V5.87261C16.6716 5.87261 16 5.20104 16 4.37261H15ZM5 4.5C5 3.67157 5.67157 3 6.5 3V2C5.11929 2 4 3.11929 4 4.5H5Z" fill="currentColor"/><path d="M7 6.5H13.5M7 9.5H13M7 12.5H8.5M7 15.5H8.5" stroke="currentColor" stroke-linecap="round"/><circle cx="13" cy="14" r="4.5" stroke="currentColor"/><path d="M20.5 20.5L17 17" stroke="currentColor" stroke-linecap="round" stroke-linejoin="round"/><path d="M15 18V17C15 16.1716 14.3284 15.5 13.5 15.5L12.5 15.5C11.6716 15.5 11 16.1716 11 17V18" stroke="currentColor"/><path d="M14 13C14 13.5523 13.5523 14 13 14C12.4477 14 12 13.5523 12 13C12 12.4477 12.4477 12 13 12C13.5523 12 14 12.4477 14 13Z" stroke="currentColor"/></svg>
