<svg xmlns="http://www.w3.org/2000/svg" fill="none" viewBox="0 0 32 32" width="1em" height="1em"><path stroke="currentColor" stroke-miterlimit="10" d="M23.608 14.355h-.802a6.81 6.81 0 0 0-.823-1.995l.555-.555a.398.398 0 0 0 0-.576L20.791 9.48a.398.398 0 0 0-.576 0l-.555.555a6.81 6.81 0 0 0-1.995-.823V8.41a.413.413 0 0 0-.411-.41h-2.468a.413.413 0 0 0-.411.411v.802a6.81 6.81 0 0 0-1.995.823l-.576-.555a.398.398 0 0 0-.575 0L9.48 11.229a.398.398 0 0 0 0 .576l.555.555a6.812 6.812 0 0 0-.823 1.995H8.41a.412.412 0 0 0-.411.411v2.468c0 .226.185.411.411.411h.802c.165.72.453 1.378.823 1.995l-.555.555a.398.398 0 0 0 0 .576l1.748 1.748a.398.398 0 0 0 .575 0l.556-.555c.616.37 1.274.658 1.994.823v.802c0 .226.185.411.411.411h2.468a.412.412 0 0 0 .411-.411v-.802a6.808 6.808 0 0 0 1.995-.823l.555.555a.398.398 0 0 0 .576 0l1.748-1.748a.398.398 0 0 0 0-.576l-.555-.555c.37-.617.658-1.275.822-1.995h.802a.412.412 0 0 0 .412-.411v-2.468a.383.383 0 0 0-.391-.411Z"/><circle cx="16" cy="16" r="3.5" stroke="currentColor"/><circle cx="25" cy="8" r="1.5" stroke="currentColor" stroke-miterlimit="10"/><circle cx="25" cy="25" r="1.5" stroke="currentColor" stroke-miterlimit="10"/><circle cx="7" cy="8" r="1.5" stroke="currentColor" stroke-miterlimit="10"/><circle cx="7" cy="24" r="1.5" stroke="currentColor" stroke-miterlimit="10"/><path stroke="currentColor" stroke-linecap="round" stroke-miterlimit="10" d="M4.909 11.41A11.964 11.964 0 0 0 4 16c0 1.626.323 3.176.909 4.59"/><path stroke="currentColor" stroke-linecap="round" stroke-linejoin="round" d="M6.062 13.415 5.415 11 3 11.647"/><path stroke="currentColor" stroke-linecap="round" stroke-miterlimit="10" d="M10.142 26.476C11.875 27.446 13.872 28 16 28c1.938 0 3.77-.46 5.39-1.276"/><path stroke="currentColor" stroke-linecap="round" stroke-linejoin="round" d="m10.232 28.562-.647-2.415L12 25.5"/><path stroke="currentColor" stroke-linecap="round" stroke-miterlimit="10" d="M26.724 21.39A11.951 11.951 0 0 0 28 16c0-1.626-.323-3.175-.909-4.59"/><path stroke="currentColor" stroke-linecap="round" stroke-linejoin="round" d="M25.853 19.085 26.5 21.5l2.415-.647"/><path stroke="currentColor" stroke-linecap="round" stroke-miterlimit="10" d="M21.858 5.524A11.945 11.945 0 0 0 16 4c-2.127 0-4.125.554-5.858 1.524"/><path stroke="currentColor" stroke-linecap="round" stroke-linejoin="round" d="m19.732 6.562 2.415-.647L21.5 3.5"/></svg>
