<svg xmlns="http://www.w3.org/2000/svg" fill="none" viewBox="0 0 24 24" width="1em" height="1em"><path stroke="currentColor" stroke-miterlimit="10" d="M17.706 10.766h-.602a5.1 5.1 0 0 0-.617-1.496l.417-.417a.3.3 0 0 0 0-.431L15.593 7.11a.3.3 0 0 0-.432 0l-.416.416a5.1 5.1 0 0 0-1.496-.617v-.602A.31.31 0 0 0 12.94 6h-1.85a.31.31 0 0 0-.309.308v.602c-.54.123-1.033.34-1.496.617l-.432-.416a.3.3 0 0 0-.432 0l-1.31 1.31a.3.3 0 0 0 0 .432l.416.417a5.1 5.1 0 0 0-.617 1.496h-.602a.31.31 0 0 0-.308.309v1.85c0 .17.139.309.308.309h.602c.123.54.34 1.033.617 1.496l-.417.416a.3.3 0 0 0 0 .432l1.311 1.312a.3.3 0 0 0 .432 0l.417-.417c.462.278.956.494 1.496.617v.602c0 .17.138.308.308.308h1.85a.31.31 0 0 0 .31-.308v-.602a5.1 5.1 0 0 0 1.495-.617l.417.417a.3.3 0 0 0 .431 0l1.311-1.312a.3.3 0 0 0 0-.431l-.416-.417c.278-.463.493-.956.617-1.496h.601a.31.31 0 0 0 .309-.309v-1.85a.287.287 0 0 0-.293-.309Z"/><circle cx="12" cy="12" r="2.5" stroke="currentColor"/><circle cx="19.5" cy="5.5" r="1" stroke="currentColor" stroke-miterlimit="10"/><circle cx="18.5" cy="18.5" r="1" stroke="currentColor" stroke-miterlimit="10"/><circle cx="5.5" cy="5.5" r="1" stroke="currentColor" stroke-miterlimit="10"/><circle cx="5.5" cy="18.5" r="1" stroke="currentColor" stroke-miterlimit="10"/><path stroke="currentColor" stroke-linecap="round" stroke-miterlimit="10" d="M3.523 8.313a9.6 9.6 0 0 0-.725 3.662c0 1.298.258 2.535.725 3.663"/><path stroke="currentColor" stroke-linecap="round" stroke-linejoin="round" d="m4.443 9.912-.516-1.927L2 8.502"/><path stroke="currentColor" stroke-linecap="round" stroke-miterlimit="10" d="M7.7 20.335a9.53 9.53 0 0 0 4.674 1.217 9.54 9.54 0 0 0 4.301-1.018"/><path stroke="currentColor" stroke-linecap="round" stroke-linejoin="round" d="m7.772 22-.517-1.927 1.927-.516"/><path stroke="currentColor" stroke-linecap="round" stroke-miterlimit="10" d="M20.933 16.277a9.54 9.54 0 0 0 1.018-4.302 9.6 9.6 0 0 0-.726-3.662"/><path stroke="currentColor" stroke-linecap="round" stroke-linejoin="round" d="m20.237 14.438.517 1.927 1.926-.516"/><path stroke="currentColor" stroke-linecap="round" stroke-miterlimit="10" d="M17.049 3.615A9.53 9.53 0 0 0 12.374 2.4 9.53 9.53 0 0 0 7.7 3.615"/><path stroke="currentColor" stroke-linecap="round" stroke-linejoin="round" d="m15.353 4.444 1.927-.517L16.763 2"/></svg>
