<svg xmlns="http://www.w3.org/2000/svg" fill="none" viewBox="0 0 17 17" width="1em" height="1em"><path stroke="currentColor" stroke-miterlimit="10" d="M13.255 7.472h-.501a4.26 4.26 0 0 0-.514-1.247l.346-.347a.249.249 0 0 0 0-.36l-1.092-1.093a.248.248 0 0 0-.36 0l-.347.347a4.257 4.257 0 0 0-1.246-.514v-.501a.258.258 0 0 0-.257-.257H7.74a.258.258 0 0 0-.257.257v.501a4.27 4.27 0 0 0-1.246.514l-.36-.347a.248.248 0 0 0-.36 0L4.425 5.518a.249.249 0 0 0 0 .36l.347.347a4.257 4.257 0 0 0-.514 1.247h-.5a.258.258 0 0 0-.258.257V9.27c0 .141.116.257.257.257h.501c.103.45.283.861.514 1.247l-.347.347a.249.249 0 0 0 0 .36l1.093 1.092a.249.249 0 0 0 .36 0l.347-.347c.385.232.797.412 1.246.514v.502c0 .141.116.257.257.257h1.543a.258.258 0 0 0 .257-.257v-.502c.45-.102.86-.282 1.246-.514l.347.347a.249.249 0 0 0 .36 0l1.093-1.092a.249.249 0 0 0 0-.36l-.347-.347c.231-.386.41-.797.514-1.247h.5a.258.258 0 0 0 .258-.257V7.73a.24.24 0 0 0-.244-.257Z"/><circle cx="8.5" cy="8.5" r="1.5" stroke="currentColor"/><path stroke="currentColor" stroke-linecap="round" stroke-linejoin="round" stroke-miterlimit="10" d="M2.308 3.873c-2.327 3.07-2.117 7.512.632 10.334a7.48 7.48 0 0 0 10.067.65M.5 4.046l1.9-.709.691 1.95m11.6 7.838c2.329-3.07 2.118-7.511-.632-10.334a7.48 7.48 0 0 0-10.066-.649M16.5 12.952l-1.9.71-.691-1.95"/></svg>
