<svg xmlns="http://www.w3.org/2000/svg" fill="none" viewBox="0 0 16 16" width="1em" height="1em"><path stroke="currentColor" stroke-linejoin="round" d="M2.097 7.404a.368.368 0 0 1 .034-.702l5.681-1.495a.737.737 0 0 1 .376 0l5.68 1.495a.368.368 0 0 1 .034.702L8.255 9.485a.737.737 0 0 1-.51 0l-5.648-2.08Z"/><path stroke="currentColor" stroke-linecap="round" d="M13.444 7.26v2.474"/><path stroke="currentColor" stroke-linecap="round" stroke-linejoin="round" d="M5.052 8.842v2.948c0 .407.33.737.737.737h4.421c.407 0 .737-.33.737-.737V8.842"/></svg>
