<svg viewBox="0 0 32 32" fill="none" xmlns="http://www.w3.org/2000/svg" width="1em" height="1em"><path d="M16.6063 17.9895C16.6063 19.552 16.0857 21.1145 18.6885 23.7187C20.1265 25.1575 20.9852 26.6791 21.436 27.7688C21.6773 28.3518 21.2231 28.927 20.5921 28.927H4.67378C4.23581 28.927 3.84621 28.6427 3.73242 28.2198C3.47619 27.2674 3.29108 26.2858 3.18314 25.2812C3.10962 24.5968 3.0719 23.9017 3.0719 23.1978C3.0719 12.5548 11.6951 3.927 22.3324 3.927C22.6817 3.927 23.0288 3.9363 23.3735 3.95468L19.7296 7.60051L27.8246 15.6999C28.559 16.4346 28.7036 17.573 28.1764 18.4681L27.9783 18.8043C27.7042 19.2697 27.2104 19.5618 26.6705 19.5779V19.5779C26.2227 19.5912 25.7905 19.413 25.4824 19.0878L24.9351 18.5103L20.7707 17.4687" stroke="currentColor" stroke-linecap="round" stroke-linejoin="round"/><path d="M28.1548 3.25177C28.2583 3.1716 28.4043 3.18142 28.4963 3.27474C28.5884 3.36807 28.5981 3.51605 28.519 3.62089L23.178 10.6997L21.1705 8.66498L28.1548 3.25177Z" stroke="currentColor"/><path d="M14.3882 10.927C13.1089 13.1727 13.8681 16.0443 16.0838 17.3409C17.802 18.3463 19.8916 18.1094 21.3398 16.9052" stroke="currentColor" stroke-linecap="round"/></svg>
