<svg viewBox="0 0 16 16" fill="none" xmlns="http://www.w3.org/2000/svg" width="1em" height="1em"><path d="M8.5 8.5C8.5 9.24101 8.46089 10.4739 10 11.5C11.5 12.5 11 14.5 10.9769 14.5H3.2364C2.79843 14.5 2.41341 14.2141 2.32249 13.7857C2.20381 13.2265 2.09551 12.5675 2.05276 12.1696C2.01789 11.845 2 11.5154 2 11.1815C2 6.13411 5.95529 1.5 11 1.5C11.1656 1.5 11.3303 1.50441 11.4937 1.51312L10.5 3.5L14.1921 7.60238C14.645 8.10557 14.6241 8.87586 14.1454 9.35452V9.35452C14.0492 9.45072 13.938 9.5309 13.8163 9.59175V9.59175C13.3288 9.83548 12.7401 9.73995 12.3547 9.35457L12 8.99988L10.5 8" stroke="currentColor" stroke-linecap="round" stroke-linejoin="round"/><path d="M11.7717 4.06466L13.1777 3.06057L11.9938 4.28673L11.7717 4.06466Z" stroke="currentColor"/><path d="M7.3667 5.36182C6.79814 6.35992 7.13555 7.63619 8.12033 8.21244C8.88397 8.6593 9.81264 8.55401 10.4563 8.01879" stroke="currentColor" stroke-linecap="round"/></svg>
