<svg xmlns="http://www.w3.org/2000/svg" fill="none" viewBox="0 0 16 16" width="1em" height="1em"><path stroke="currentColor" stroke-linecap="round" stroke-linejoin="round" d="M8.5 8.5c0 .741-.04 1.974 1.5 3 1.5 1 1 3 .977 3h-7.74c-.439 0-.824-.286-.915-.714a18 18 0 0 1-.27-1.616A9 9 0 0 1 2 11.18C2 6.135 5.955 1.5 11 1.5q.249 0 .494.013L10.5 3.5l3.692 4.102a1.274 1.274 0 0 1-.047 1.753v0a1.3 1.3 0 0 1-.329.237v0a1.27 1.27 0 0 1-1.461-.237L12 9l-1.5-1"/><path stroke="currentColor" d="m11.772 4.065 1.406-1.004-1.184 1.226z"/><path stroke="currentColor" stroke-linecap="round" d="M7.367 5.362a2.1 2.1 0 0 0 .753 2.85 2.04 2.04 0 0 0 2.336-.193"/></svg>
