<svg viewBox="0 0 24 24" fill="none" xmlns="http://www.w3.org/2000/svg" width="1em" height="1em"><path d="M3.151 18.4078L2.65386 18.4612L3.151 18.4078ZM17.2403 3.51968L17.5932 3.8738C17.7331 3.73435 17.7778 3.52559 17.7073 3.34108C17.6367 3.15657 17.4641 3.0309 17.2669 3.02039L17.2403 3.51968ZM14.9159 5.83647L14.5629 5.48234C14.467 5.57793 14.414 5.70832 14.416 5.84371C14.4179 5.97909 14.4747 6.1079 14.5733 6.20067L14.9159 5.83647ZM20.8162 11.3864L21.1588 11.0222V11.0222L20.8162 11.3864ZM3.50679 20.7863L3.01761 20.8897H3.01761L3.50679 20.7863ZM16.1205 20.313L16.5995 20.1697L16.1205 20.313ZM14.5 17.5L14.1464 17.8535L14.5 17.5ZM13.1952 13.2233C13.1952 12.9471 12.9713 12.7233 12.6952 12.7233C12.419 12.7233 12.1952 12.9471 12.1952 13.2233H13.1952ZM21.0249 13.8L20.6249 13.5L20.6249 13.5L21.0249 13.8ZM20.8474 14.0366L20.4474 13.7366L20.8474 14.0366ZM19.0124 14.1423L19.3753 13.7984L19.3753 13.7984L19.0124 14.1423ZM18.6494 13.7593L19.0123 13.4153C18.9626 13.3629 18.9021 13.3218 18.835 13.295L18.6494 13.7593ZM15.6856 12.0357C15.4292 11.9332 15.1383 12.058 15.0357 12.3144C14.9332 12.5708 15.058 12.8617 15.3144 12.9643L15.6856 12.0357ZM19.9212 14.5172L19.9063 14.0174L19.9212 14.5172ZM3.5719 16.9265C3.5719 9.63543 9.21262 4 16.5 4V3C8.66069 3 2.5719 9.08279 2.5719 16.9265H3.5719ZM3.64814 18.3544C3.59776 17.8855 3.5719 17.4091 3.5719 16.9265H2.5719C2.5719 17.4449 2.59968 17.9569 2.65386 18.4612L3.64814 18.3544ZM16.5 4C16.7395 4 16.9774 4.00638 17.2136 4.01897L17.2669 3.02039C17.0129 3.00685 16.7572 3 16.5 3V4ZM16.8873 3.16555L14.5629 5.48234L15.2689 6.19059L17.5932 3.8738L16.8873 3.16555ZM14.5733 6.20067L20.4737 11.7506L21.1588 11.0222L15.2585 5.47227L14.5733 6.20067ZM3.99597 20.6828C3.837 19.9311 3.71935 19.0172 3.64814 18.3544L2.65386 18.4612C2.7262 19.1346 2.84809 20.0881 3.01761 20.8897L3.99597 20.6828ZM4.42367 21.9999H15.1767V20.9999H4.42367V21.9999ZM16.5995 20.1697C16.3367 19.2909 15.8428 18.1362 14.8536 17.1465L14.1464 17.8535C14.978 18.6855 15.4065 19.6705 15.6414 20.4562L16.5995 20.1697ZM14.8536 17.1465C13.9734 16.2658 13.5717 15.5415 13.3805 14.9338C13.1872 14.3192 13.1952 13.7885 13.1952 13.2233H12.1952C12.1952 13.769 12.1803 14.4509 12.4266 15.234C12.6752 16.024 13.176 16.8825 14.1464 17.8535L14.8536 17.1465ZM20.6249 13.5L20.4474 13.7366L21.2474 14.3366L21.4249 14.1L20.6249 13.5ZM19.3753 13.7984L19.0123 13.4153L18.2864 14.1032L18.6495 14.4862L19.3753 13.7984ZM18.835 13.295L15.6856 12.0357L15.3144 12.9643L18.4637 14.2235L18.835 13.295ZM15.1767 21.9999C16.0948 21.9999 16.8894 21.1393 16.5995 20.1697L15.6414 20.4562C15.7131 20.6958 15.5207 20.9999 15.1767 20.9999V21.9999ZM19.9063 14.0174C19.7062 14.0234 19.513 13.9437 19.3753 13.7984L18.6495 14.4862C18.9831 14.8384 19.4512 15.0314 19.9361 15.0169L19.9063 14.0174ZM3.01761 20.8897C3.16199 21.5725 3.77389 21.9999 4.42367 21.9999V20.9999C4.19754 20.9999 4.03281 20.857 3.99597 20.6828L3.01761 20.8897ZM20.4474 13.7366C20.3192 13.9077 20.12 14.011 19.9063 14.0174L19.9361 15.0169C20.4539 15.0015 20.9366 14.7511 21.2474 14.3366L20.4474 13.7366ZM20.4737 11.7506C20.9622 12.2102 21.0273 12.9635 20.6249 13.5L21.4249 14.1C22.1329 13.156 22.0183 11.8307 21.1588 11.0222L20.4737 11.7506Z" fill="currentColor"/><mask id="path-2-inside-1_2_62372" fill="currentColor"><path d="M20.7056 2.50928C20.9329 2.33566 21.2516 2.35826 21.4529 2.56224C21.6542 2.76623 21.6765 3.08931 21.5052 3.31971L17.5113 8.69146L15.4055 6.55721L20.7056 2.50928Z"/></mask><path d="M17.5113 8.69146L16.8089 9.4033L17.6169 10.2222L18.3045 9.29731L17.5113 8.69146ZM15.4055 6.55721L14.8077 5.75322L13.8952 6.45017L14.7032 7.26905L15.4055 6.55721ZM20.7056 2.50928L20.1078 1.7053L20.7056 2.50928ZM20.7119 2.71386L16.718 8.08561L18.3045 9.29731L22.2984 3.92555L20.7119 2.71386ZM18.2136 7.97962L16.1078 5.84536L14.7032 7.26905L16.8089 9.4033L18.2136 7.97962ZM16.0033 7.36119L21.3033 3.31326L20.1078 1.7053L14.8077 5.75322L16.0033 7.36119ZM20.7506 3.27409C20.6017 3.12321 20.5852 2.88426 20.7119 2.71386L22.2984 3.92555C22.7677 3.29436 22.7066 2.40926 22.1552 1.8504L20.7506 3.27409ZM22.1552 1.8504C21.6039 1.29155 20.7306 1.22966 20.1078 1.7053L21.3033 3.31326C21.1352 3.44167 20.8994 3.42496 20.7506 3.27409L22.1552 1.8504Z" fill="currentColor" mask="url(#path-2-inside-1_2_62372)"/><path d="M10.9888 8.50204C11.1255 8.26209 11.0431 7.95452 10.8047 7.81506C10.5664 7.67559 10.2624 7.75705 10.1257 7.99699L10.9888 8.50204ZM15.8175 12.8889C16.0291 12.713 16.0584 12.3964 15.883 12.1817C15.7077 11.967 15.3941 11.9355 15.1826 12.1114L15.8175 12.8889ZM12.0104 12.3755C10.676 11.5947 10.2143 9.86162 10.9888 8.50204L10.1257 7.99699C9.081 9.83094 9.6989 12.1815 11.5154 13.2444L12.0104 12.3755ZM15.1826 12.1114C14.306 12.8402 13.0448 12.9808 12.0104 12.3755L11.5154 13.2444C12.9244 14.0689 14.6345 13.8725 15.8175 12.8889L15.1826 12.1114Z" fill="currentColor"/></svg>
