<svg xmlns="http://www.w3.org/2000/svg" fill="none" viewBox="0 0 24 24" width="1em" height="1em"><path stroke="currentColor" stroke-linecap="round" stroke-linejoin="round" d="M12.695 13.223c0 1.111-.046 2.425 1.805 4.277.91.91 1.372 1.98 1.62 2.813.181.605-.312 1.187-.943 1.187H4.424c-.438 0-.827-.285-.917-.714a25.549 25.549 0 0 1-.356-2.378c-.052-.487-.08-.981-.08-1.482C3.072 9.36 8.938 3.5 16.5 3.5c.248 0 .495.007.74.02l-2.324 2.316 5.9 5.55c.674.634.764 1.674.209 2.414l-.178.237c-.22.292-.56.47-.926.48v0a1.203 1.203 0 0 1-.909-.375l-.363-.383L15.5 12.5"/><path stroke="currentColor" d="M21.005 2.911a.074.074 0 0 1 .097.007.077.077 0 0 1 .007.099l-3.65 4.91L16.16 6.61l4.843-3.7Z"/><path stroke="currentColor" stroke-linecap="round" d="M10.557 8.25c-.91 1.596-.37 3.638 1.206 4.56a3.26 3.26 0 0 0 3.737-.31"/></svg>
