<svg xmlns="http://www.w3.org/2000/svg" fill="none" viewBox="0 0 32 32" width="1em" height="1em"><path stroke="currentColor" stroke-linecap="round" stroke-linejoin="round" d="M16.606 17.99c0 1.562-.52 3.125 2.082 5.729 1.439 1.439 2.297 2.96 2.748 4.05.241.583-.213 1.158-.844 1.158H4.674a.967.967 0 0 1-.942-.707 19.202 19.202 0 0 1-.66-5.022c0-10.643 8.623-19.27 19.26-19.27.35 0 .697.009 1.041.027L19.73 7.6l8.095 8.1a2.28 2.28 0 0 1 .351 2.767l-.198.337a1.572 1.572 0 0 1-1.308.773v0a1.572 1.572 0 0 1-1.188-.49l-.547-.577-4.164-1.042"/><path stroke="currentColor" d="M28.155 3.252c.103-.08.25-.07.341.023a.266.266 0 0 1 .023.346l-5.34 7.079-2.008-2.035 6.984-5.413Z"/><path stroke="currentColor" stroke-linecap="round" d="M14.388 10.927c-1.28 2.246-.52 5.118 1.696 6.414a4.585 4.585 0 0 0 5.256-.436"/></svg>
