<svg viewBox="0 0 32 32" fill="none" xmlns="http://www.w3.org/2000/svg" width="1em" height="1em"><path d="M3.18314 25.2812L3.68028 25.2278L3.18314 25.2812ZM23.3735 3.95468L23.7271 4.30813C23.8666 4.16853 23.911 3.95992 23.8403 3.77564C23.7696 3.59135 23.5972 3.46589 23.4001 3.45538L23.3735 3.95468ZM19.7296 7.60051L19.376 7.24705C19.1808 7.44229 19.1808 7.75873 19.376 7.95397L19.7296 7.60051ZM27.8246 15.6999L27.471 16.0534L27.8246 15.6999ZM3.73242 28.2198L3.24959 28.3497H3.24959L3.73242 28.2198ZM21.436 27.7688L21.8981 27.5776L21.436 27.7688ZM18.6885 23.7187L19.0421 23.3652H19.0421L18.6885 23.7187ZM17.1063 17.9895C17.1063 17.7134 16.8824 17.4895 16.6063 17.4895C16.3301 17.4895 16.1063 17.7134 16.1063 17.9895H17.1063ZM28.1764 18.4681L28.6072 18.7218L28.1764 18.4681ZM27.9783 18.8043L27.5475 18.5505L27.9783 18.8043ZM25.4824 19.0878L25.1195 19.4317L25.4824 19.0878ZM24.9351 18.5103L25.2981 18.1664C25.2326 18.0973 25.1488 18.0484 25.0565 18.0253L24.9351 18.5103ZM20.892 16.9836C20.6241 16.9166 20.3527 17.0794 20.2857 17.3473C20.2186 17.6152 20.3815 17.8867 20.6494 17.9537L20.892 16.9836ZM26.6705 19.5779L26.6556 19.0781L26.6705 19.5779ZM3.5719 23.1978C3.5719 12.8307 11.9715 4.427 22.3324 4.427V3.427C11.4187 3.427 2.5719 12.279 2.5719 23.1978H3.5719ZM3.68028 25.2278C3.60866 24.5611 3.5719 23.8839 3.5719 23.1978H2.5719C2.5719 23.9196 2.61058 24.6325 2.68601 25.3346L3.68028 25.2278ZM22.3324 4.427C22.6728 4.427 23.011 4.43607 23.3469 4.45397L23.4001 3.45538C23.0465 3.43654 22.6905 3.427 22.3324 3.427V4.427ZM23.0198 3.60122L19.376 7.24705L20.0833 7.95397L23.7271 4.30813L23.0198 3.60122ZM19.376 7.95397L27.471 16.0534L28.1783 15.3464L20.0833 7.24705L19.376 7.95397ZM4.21525 28.0899C3.96573 27.1624 3.78543 26.2064 3.68028 25.2278L2.68601 25.3346C2.79674 26.3653 2.98666 27.3724 3.24959 28.3497L4.21525 28.0899ZM4.67378 29.427H20.5921V28.427H4.67378V29.427ZM21.8981 27.5776C21.426 26.4365 20.5332 24.8571 19.0421 23.3652L18.3348 24.0721C19.7198 25.4578 20.5445 26.9216 20.974 27.9599L21.8981 27.5776ZM19.0421 23.3652C17.7904 22.1128 17.3304 21.1534 17.1603 20.3587C17.0738 19.9549 17.0578 19.574 17.0655 19.1876C17.0694 18.9925 17.0792 18.8014 17.0885 18.6006C17.0976 18.403 17.1063 18.1975 17.1063 17.9895H16.1063C16.1063 18.1721 16.0987 18.3573 16.0895 18.5543C16.0805 18.7483 16.0699 18.9559 16.0657 19.1677C16.0572 19.5951 16.0737 20.0605 16.1824 20.5682C16.4027 21.5965 16.9838 22.7203 18.3348 24.0721L19.0421 23.3652ZM27.7456 18.2143L27.5475 18.5505L28.4091 19.0581L28.6072 18.7218L27.7456 18.2143ZM25.8453 18.7439L25.2981 18.1664L24.5722 18.8543L25.1195 19.4317L25.8453 18.7439ZM25.0565 18.0253L20.892 16.9836L20.6494 17.9537L24.8138 18.9954L25.0565 18.0253ZM20.5921 29.427C21.5141 29.427 22.2996 28.5481 21.8981 27.5776L20.974 27.9599C21.0242 28.0813 21.0021 28.1851 20.941 28.2668C20.8753 28.3545 20.7539 28.427 20.5921 28.427V29.427ZM26.6556 19.0781C26.3502 19.0872 26.0554 18.9656 25.8453 18.7439L25.1195 19.4317C25.5256 19.8603 26.0952 20.0953 26.6854 20.0777L26.6556 19.0781ZM3.24959 28.3497C3.42509 29.0019 4.02131 29.427 4.67378 29.427V28.427C4.45032 28.427 4.26733 28.2834 4.21525 28.0899L3.24959 28.3497ZM27.5475 18.5505C27.3606 18.8679 27.0238 19.0671 26.6556 19.0781L26.6854 20.0777C27.397 20.0564 28.0478 19.6714 28.4091 19.0581L27.5475 18.5505ZM27.471 16.0534C28.0443 16.6269 28.1572 17.5156 27.7456 18.2143L28.6072 18.7218C29.2501 17.6304 29.0737 16.2424 28.1783 15.3464L27.471 16.0534Z" fill="currentColor"/><mask id="path-2-inside-1_2_62379" fill="currentColor"><path d="M27.8531 2.85193C28.1543 2.61852 28.5794 2.64712 28.8475 2.91882C29.1156 3.19053 29.1438 3.62141 28.9135 3.92665L23.228 11.4622L20.4182 8.61438L27.8531 2.85193Z"/></mask><path d="M23.228 11.4622L22.5256 12.174L23.3278 12.9871L24.017 12.0737L23.228 11.4622ZM20.4182 8.61438L19.8149 7.8147L18.9137 8.51317L19.7159 9.32622L20.4182 8.61438ZM28.1245 3.31513L22.439 10.8506L24.017 12.0737L29.7025 4.53817L28.1245 3.31513ZM23.9303 10.7503L21.1206 7.90254L19.7159 9.32622L22.5256 12.174L23.9303 10.7503ZM21.0216 9.41406L28.4565 3.65161L27.2498 2.05225L19.8149 7.8147L21.0216 9.41406ZM28.1452 3.63067C28.0612 3.5456 28.0524 3.4107 28.1245 3.31513L29.7025 4.53817C30.2352 3.83213 30.1699 2.83547 29.5499 2.20698L28.1452 3.63067ZM29.5499 2.20698C28.9298 1.5785 27.9464 1.51234 27.2498 2.05225L28.4565 3.65161C28.3622 3.72469 28.2291 3.71573 28.1452 3.63067L29.5499 2.20698Z" fill="currentColor" mask="url(#path-2-inside-1_2_62379)"/><path d="M14.8197 11.1795C14.9564 10.9396 14.874 10.632 14.6357 10.4925C14.3973 10.3531 14.0933 10.4345 13.9566 10.6745L14.8197 11.1795ZM21.6573 17.2939C21.8689 17.118 21.8982 16.8014 21.7228 16.5867C21.5475 16.372 21.2339 16.3406 21.0224 16.5165L21.6573 17.2939ZM16.3313 16.9065C14.3566 15.7509 13.6756 13.1881 14.8197 11.1795L13.9566 10.6745C12.5423 13.1574 13.3795 16.3377 15.8364 17.7754L16.3313 16.9065ZM21.0224 16.5165C19.7273 17.5933 17.8623 17.8023 16.3313 16.9065L15.8364 17.7754C17.7418 18.8904 20.0558 18.6256 21.6573 17.2939L21.0224 16.5165Z" fill="currentColor"/></svg>
