<svg viewBox="0 0 16 16" fill="none" xmlns="http://www.w3.org/2000/svg" width="1em" height="1em"><path d="M2.05276 12.1696L2.5499 12.1161L2.05276 12.1696ZM11.4937 1.51312L11.9409 1.73679C12.0163 1.58602 12.0107 1.40741 11.9259 1.2617C11.8412 1.11599 11.6887 1.0228 11.5204 1.01383L11.4937 1.51312ZM10.5 3.5L10.0528 3.27634C9.96084 3.46022 9.99081 3.68166 10.1284 3.83448L10.5 3.5ZM14.1921 7.60238L13.8205 7.93686L14.1921 7.60238ZM2.32249 13.7857L2.81159 13.6819L2.32249 13.7857ZM10 11.5L9.72265 11.916L10 11.5ZM9 8.5C9 8.22386 8.77614 8 8.5 8C8.22386 8 8 8.22386 8 8.5H9ZM12.3547 9.35457L12.0011 9.70813L12.3547 9.35457ZM12 8.99988L12.3536 8.64633C12.3303 8.62304 12.3047 8.60211 12.2773 8.58384L12 8.99988ZM10.7773 7.58396C10.5476 7.4308 10.2371 7.4929 10.084 7.72267C9.9308 7.95245 9.9929 8.26288 10.2227 8.41604L10.7773 7.58396ZM13.8163 9.59175L13.5926 9.14454L13.8163 9.59175ZM14.1454 9.35452L14.4989 9.70809V9.70809L14.1454 9.35452ZM2.5 11.1815C2.5 6.36211 6.27723 2 11 2V1C5.63334 1 1.5 5.90611 1.5 11.1815H2.5ZM2.5499 12.1161C2.51693 11.8093 2.5 11.4975 2.5 11.1815H1.5C1.5 11.5332 1.51885 11.8807 1.55562 12.223L2.5499 12.1161ZM11 2C11.1568 2 11.3125 2.00418 11.4671 2.01242L11.5204 1.01383C11.348 1.00465 11.1745 1 11 1V2ZM11.0466 1.28946L10.0528 3.27634L10.9472 3.72366L11.9409 1.73679L11.0466 1.28946ZM10.1284 3.83448L13.8205 7.93686L14.5638 7.2679L10.8716 3.16552L10.1284 3.83448ZM2.81159 13.6819C2.69548 13.1348 2.5904 12.4931 2.5499 12.1161L1.55562 12.223C1.60063 12.6419 1.71214 13.3183 1.83338 13.8895L2.81159 13.6819ZM3.2364 15H10.9769V14H3.2364V15ZM10.9769 15C11.1904 15 11.3158 14.8689 11.3351 14.8491C11.374 14.8094 11.3972 14.7722 11.4062 14.7573C11.4263 14.724 11.4384 14.6952 11.4425 14.6852C11.4529 14.66 11.4602 14.637 11.4643 14.6238C11.4736 14.5936 11.4824 14.5591 11.4905 14.5235C11.5072 14.4507 11.5254 14.3532 11.5407 14.237C11.5711 14.0052 11.5915 13.6853 11.5574 13.3275C11.4892 12.6132 11.1955 11.6961 10.2774 11.084L9.72265 11.916C10.3045 12.3039 10.5108 12.8868 10.5619 13.4225C10.5874 13.6897 10.5721 13.9323 10.5492 14.1068C10.5378 14.1937 10.5249 14.2602 10.5157 14.3007C10.5109 14.3218 10.508 14.3312 10.5082 14.3308C10.5083 14.3303 10.5091 14.328 10.5103 14.3242C10.5114 14.321 10.5141 14.3134 10.5183 14.3032C10.5209 14.2971 10.5315 14.2712 10.5505 14.2398C10.5589 14.2259 10.5816 14.1894 10.62 14.1501C10.6389 14.1308 10.7638 14 10.9769 14V15ZM10.2774 11.084C9.59452 10.6288 9.29076 10.1509 9.14548 9.72998C8.99439 9.29221 9 8.88185 9 8.5H8C8 8.85916 7.98606 9.43577 8.20019 10.0562C8.42013 10.6935 8.86637 11.3452 9.72265 11.916L10.2774 11.084ZM12.7082 9.00102L12.3536 8.64633L11.6464 9.35343L12.0011 9.70813L12.7082 9.00102ZM12.2773 8.58384L10.7773 7.58396L10.2227 8.41604L11.7227 9.41592L12.2773 8.58384ZM13.5926 9.14454C13.2977 9.29202 12.9414 9.23421 12.7082 9.00102L12.0011 9.70813C12.5387 10.2457 13.3599 10.3789 14.0399 10.039L13.5926 9.14454ZM1.83338 13.8895C1.97766 14.5693 2.58378 15 3.2364 15V14C3.01309 14 2.84917 13.859 2.81159 13.6819L1.83338 13.8895ZM13.7918 9.00094C13.7336 9.0592 13.6662 9.10775 13.5926 9.14454L14.0399 10.039C14.2097 9.95406 14.3647 9.84225 14.4989 9.70809L13.7918 9.00094ZM13.8205 7.93686C14.0952 8.24203 14.0828 8.70999 13.7918 9.00094L14.4989 9.70809C15.1654 9.04172 15.1949 7.9691 14.5638 7.2679L13.8205 7.93686Z" fill="currentColor"/><mask id="path-2-inside-1_2_62365" fill="currentColor"><path d="M14.264 1.66899C14.4004 1.57156 14.5862 1.58776 14.7042 1.70736C14.8372 1.84212 14.8383 2.06025 14.7068 2.19646L12 5L11 4.00006L14.264 1.66899Z"/></mask><path d="M12 5L11.3024 5.71663L12.0124 6.42655L12.7099 5.70408L12 5ZM11 4.00006L10.4279 3.17715L9.45655 3.87086L10.3024 4.71669L11 4.00006ZM13.9969 1.49237L11.2901 4.29592L12.7099 5.70408L15.4167 2.90054L13.9969 1.49237ZM12.6976 4.28337L11.6976 3.28343L10.3024 4.71669L11.3024 5.71663L12.6976 4.28337ZM11.5721 4.82298L14.8361 2.49191L13.6918 0.846079L10.4279 3.17715L11.5721 4.82298ZM14.0019 2.4192C13.7499 2.16383 13.7477 1.7505 13.9969 1.49237L15.4167 2.90054C15.929 2.36999 15.9244 1.52041 15.4065 0.995521L14.0019 2.4192ZM15.4065 0.995521C14.9469 0.529666 14.2232 0.466591 13.6918 0.846079L14.8361 2.49191C14.5776 2.67654 14.2255 2.64585 14.0019 2.4192L15.4065 0.995521Z" fill="currentColor" mask="url(#path-2-inside-1_2_62365)"/><path d="M7.79824 5.61434C7.93493 5.3744 7.85252 5.06683 7.61418 4.92736C7.37585 4.7879 7.07184 4.86935 6.93515 5.10929L7.79824 5.61434ZM10.7738 8.40751C10.9853 8.23164 11.0147 7.91502 10.8393 7.70033C10.664 7.48565 10.3504 7.45418 10.1388 7.63006L10.7738 8.40751ZM8.36781 7.77799C7.6241 7.3428 7.36479 6.37526 7.79824 5.61434L6.93515 5.10929C6.23148 6.34458 6.647 7.92958 7.87284 8.6469L8.36781 7.77799ZM10.1388 7.63006C9.64838 8.03787 8.94418 8.11526 8.36781 7.77799L7.87284 8.6469C8.82376 9.20334 9.97691 9.07014 10.7738 8.40751L10.1388 7.63006Z" fill="currentColor"/></svg>
