<svg xmlns="http://www.w3.org/2000/svg" fill="none" viewBox="0 0 24 24" width="1em" height="1em"><path stroke="currentColor" d="M9 14.5h6M9 6h6M8.5 9.252a9.5 9.5 0 0 1 1.817-5.588l.47-.646a1.5 1.5 0 0 1 2.426 0l.47.646A9.5 9.5 0 0 1 15.5 9.252V16a.5.5 0 0 1-.5.5H9a.5.5 0 0 1-.5-.5z"/><path stroke="currentColor" d="M18.5 11.693a.5.5 0 0 0-.324-.468L15.5 10.222v5.432l2.324.871a.5.5 0 0 0 .676-.468zm-13 0a.5.5 0 0 1 .324-.468L8.5 10.222v5.432l-2.324.871a.5.5 0 0 1-.676-.468z"/><circle cx="12" cy="9.5" r="1.5" stroke="currentColor"/><path stroke="currentColor" stroke-linejoin="round" d="m8.5 18.5 1-2h5l1 2z"/><path stroke="currentColor" stroke-linecap="round" d="M9.5 20.5v1m5-1v1m-2.5-1v1"/></svg>
