<svg viewBox="0 0 16 16" fill="none" xmlns="http://www.w3.org/2000/svg" width="1em" height="1em"><path d="M5.85718 5.49994H10.1429" stroke="currentColor"/><path d="M5.5 7.39262C5.5 5.68808 6.10115 4.03815 7.19768 2.73313C7.6168 2.23433 8.38457 2.23443 8.80356 2.73337C9.8993 4.03821 10.5 5.68758 10.5 7.39147V12C10.5 12.2761 10.2761 12.5 10 12.5H6C5.72386 12.5 5.5 12.2761 5.5 12V7.39262Z" stroke="currentColor"/><path d="M12.5 8.96652C12.5 8.76787 12.3824 8.58806 12.2004 8.50844L10.5 7.76451V12.3605L11.7996 12.9291C12.1299 13.0736 12.5 12.8316 12.5 12.471V8.96652Z" stroke="currentColor"/><path d="M3.5 8.96652C3.5 8.76787 3.6176 8.58806 3.79959 8.50844L5.5 7.76451V12.3605L4.20041 12.9291C3.87007 13.0736 3.5 12.8316 3.5 12.471V8.96652Z" stroke="currentColor"/><circle cx="8" cy="8" r="0.5" stroke="currentColor"/><path d="M5.97263 12.5V12C5.78225 12 5.60839 12.1081 5.52419 12.2789L5.97263 12.5ZM4.98633 14.5L4.53789 14.2789C4.46146 14.4338 4.47048 14.6173 4.56173 14.764C4.65297 14.9108 4.81353 15 4.98633 15V14.5ZM10.9863 14.5V15C11.1591 15 11.3197 14.9108 11.4109 14.764C11.5022 14.6173 11.5112 14.4338 11.4348 14.2789L10.9863 14.5ZM10 12.5L10.4485 12.2789C10.3643 12.1081 10.1904 12 10 12V12.5ZM5.52419 12.2789L4.53789 14.2789L5.43476 14.7211L6.42106 12.7211L5.52419 12.2789ZM4.98633 15H10.9863V14H4.98633V15ZM11.4348 14.2789L10.4485 12.2789L9.5516 12.7211L10.5379 14.7211L11.4348 14.2789ZM10 12H5.97263V13H10V12Z" fill="currentColor"/></svg>
