<svg xmlns="http://www.w3.org/2000/svg" fill="none" viewBox="0 0 16 16" width="1em" height="1em"><path stroke="currentColor" d="M5.857 5.5h4.286M5.5 7.393c0-1.705.601-3.355 1.698-4.66a1.05 1.05 0 0 1 1.606 0A7.24 7.24 0 0 1 10.5 7.391V12a.5.5 0 0 1-.5.5H6a.5.5 0 0 1-.5-.5z"/><path stroke="currentColor" d="M12.5 8.967a.5.5 0 0 0-.3-.459l-1.7-.743v4.596l1.3.568a.5.5 0 0 0 .7-.458zm-9 0a.5.5 0 0 1 .3-.459l1.7-.743v4.596l-1.3.568a.5.5 0 0 1-.7-.458z"/><circle cx="8" cy="8" r=".5" stroke="currentColor"/><path stroke="currentColor" stroke-linejoin="round" d="m4.986 14.5.987-2H10l.986 2z"/></svg>
