<svg viewBox="0 0 32 32" fill="none" xmlns="http://www.w3.org/2000/svg" width="1em" height="1em"><path d="M11.5 17.5H21" stroke="currentColor"/><path d="M12.5 7H19.5" stroke="currentColor"/><path d="M11.5 10.6278C11.5 8.40112 12.2821 6.24523 13.7098 4.53653L14.858 3.16232C15.4586 2.44347 16.5639 2.4449 17.1627 3.16531L18.306 4.54088C19.7238 6.24676 20.5 8.39501 20.5 10.6132V20C20.5 20.2761 20.2761 20.5 20 20.5L12 20.4999C11.7239 20.4999 11.5 20.2761 11.5 19.9999V10.6278Z" stroke="currentColor"/><path d="M24.5 13.193C24.5 12.9846 24.3707 12.798 24.1756 12.7248L20.5 11.3465V19.2785L23.8244 20.5252C24.1513 20.6477 24.5 20.4061 24.5 20.057V13.193Z" stroke="currentColor"/><path d="M7.5 13.193C7.5 12.9846 7.62929 12.798 7.82444 12.7248L11.5 11.3465V19.2785L8.17556 20.5252C7.84869 20.6477 7.5 20.4061 7.5 20.057V13.193Z" stroke="currentColor"/><circle cx="16" cy="12" r="2.5" stroke="currentColor"/><path d="M11.0714 23.5L12.5 20.5H19.6428L21.0714 23.5H11.0714Z" stroke="currentColor" stroke-linejoin="round"/><path d="M13.5 26.5L13.5 29.5M18.5 26.5V29.5M16 26.5L16 29.5" stroke="currentColor" stroke-linecap="round"/></svg>
