<svg viewBox="0 0 32 32" fill="none" xmlns="http://www.w3.org/2000/svg" stroke="currentColor"><path d="M11.5 17.5H21"/><path d="M12.5 7H19.5"/><path d="M11.5 10.6278C11.5 8.40112 12.2821 6.24523 13.7098 4.53653L14.858 3.16232C15.4586 2.44347 16.5639 2.4449 17.1627 3.16531L18.306 4.54088C19.7238 6.24676 20.5 8.39501 20.5 10.6132V20C20.5 20.2761 20.2761 20.5 20 20.5L12 20.4999C11.7239 20.4999 11.5 20.2761 11.5 19.9999V10.6278Z"/><path d="M24.5 13.193C24.5 12.9846 24.3707 12.798 24.1756 12.7248L20.5 11.3465V19.2785L23.8244 20.5252C24.1513 20.6477 24.5 20.4061 24.5 20.057V13.193Z"/><path d="M7.5 13.193C7.5 12.9846 7.62929 12.798 7.82444 12.7248L11.5 11.3465V19.2785L8.17556 20.5252C7.84869 20.6477 7.5 20.4061 7.5 20.057V13.193Z"/><circle cx="16" cy="12" r="2.5"/><path d="M12.5 20.5V20C12.3071 20 12.1315 20.1109 12.0486 20.285L12.5 20.5ZM11.0714 23.5L10.62 23.285C10.5462 23.4399 10.557 23.6219 10.6486 23.7669C10.7402 23.912 10.8998 24 11.0714 24V23.5ZM21.0714 23.5V24C21.243 24 21.4026 23.912 21.4942 23.7669C21.5858 23.6219 21.5966 23.4399 21.5228 23.285L21.0714 23.5ZM19.6428 20.5L20.0943 20.285C20.0114 20.1109 19.8357 20 19.6428 20V20.5ZM12.0486 20.285L10.62 23.285L11.5228 23.715L12.9514 20.715L12.0486 20.285ZM11.0714 24H21.0714V23H11.0714V24ZM21.5228 23.285L20.0943 20.285L19.1914 20.715L20.62 23.715L21.5228 23.285ZM19.6428 20H12.5V21H19.6428V20Z" fill="#282829"/><path d="M13.5 26.5L13.5 29.5M18.5 26.5V29.5M16 26.5L16 29.5" stroke-linecap="round"/></svg>
