<svg viewBox="0 0 24 24" fill="none" xmlns="http://www.w3.org/2000/svg" width="1em" height="1em"><path d="M9 14.5L15 14.5" stroke="currentColor"/><path d="M9 6L15 6" stroke="currentColor"/><path d="M8.5 9.25184C8.5 7.24408 9.1361 5.28795 10.317 3.66421L10.7869 3.01811C11.3859 2.19445 12.6141 2.19445 13.2131 3.01811L13.683 3.66421C14.8639 5.28795 15.5 7.24408 15.5 9.25184L15.5 16C15.5 16.2761 15.2761 16.5 15 16.5H9C8.72386 16.5 8.5 16.2761 8.5 16V9.25184Z" stroke="currentColor"/><path d="M18.5 11.693C18.5 11.4846 18.3707 11.298 18.1756 11.2248L15.5 10.2215V15.6535L17.8244 16.5252C18.1513 16.6477 18.5 16.4061 18.5 16.057V11.693Z" stroke="currentColor"/><path d="M5.5 11.693C5.5 11.4846 5.62929 11.298 5.82444 11.2248L8.5 10.2215V15.6535L6.17556 16.5252C5.84869 16.6477 5.5 16.4061 5.5 16.057L5.5 11.693Z" stroke="currentColor"/><circle cx="12" cy="9.5" r="1.5" stroke="currentColor"/><path d="M8.5 18.5L9.5 16.5H14.5L15.5 18.5H8.5Z" stroke="currentColor" stroke-linejoin="round"/><path d="M9.5 20.5V21.5M14.5 20.5V21.5M12 20.5V21.5" stroke="currentColor" stroke-linecap="round"/></svg>
