<svg xmlns="http://www.w3.org/2000/svg" fill="none" viewBox="0 0 32 32" width="1em" height="1em"><path stroke="currentColor" d="M11.5 17.5H21M12.5 7h7m-8 3.628a9.5 9.5 0 0 1 2.21-6.091l1.148-1.375a1.5 1.5 0 0 1 2.305.003l1.143 1.376a9.5 9.5 0 0 1 2.194 6.072V20a.5.5 0 0 1-.5.5h-8a.5.5 0 0 1-.5-.5v-9.372Z"/><path stroke="currentColor" d="M24.5 13.193a.5.5 0 0 0-.324-.468L20.5 11.347v7.932l3.324 1.246a.5.5 0 0 0 .676-.468v-6.864Zm-17 0a.5.5 0 0 1 .324-.468l3.676-1.378v7.932l-3.324 1.246a.5.5 0 0 1-.676-.468v-6.864Z"/><circle cx="16" cy="12" r="2.5" stroke="currentColor"/><path stroke="currentColor" stroke-linejoin="round" d="m11.072 23.5 1.428-3h7.143l1.428 3h-10Z"/><path stroke="currentColor" stroke-linecap="round" d="M13.5 26.5v3m5-3v3m-2.5-3v3"/></svg>
