<svg viewBox="0 0 24 24" fill="none" xmlns="http://www.w3.org/2000/svg" stroke="currentColor"><path d="M9 14.5H15"/><path d="M9 6H15"/><path d="M8.5 9.25184C8.5 7.24408 9.1361 5.28795 10.317 3.66421L10.7869 3.01811C11.3859 2.19445 12.6141 2.19445 13.2131 3.01811L13.683 3.66421C14.8639 5.28795 15.5 7.24408 15.5 9.25184V16C15.5 16.2761 15.2761 16.5 15 16.5H9C8.72386 16.5 8.5 16.2761 8.5 16V9.25184Z"/><path d="M18.5 11.693C18.5 11.4846 18.3707 11.298 18.1756 11.2248L15.5 10.2215V15.6535L17.8244 16.5252C18.1513 16.6477 18.5 16.4061 18.5 16.057V11.693Z"/><path d="M5.5 11.693C5.5 11.4846 5.62929 11.298 5.82444 11.2248L8.5 10.2215V15.6535L6.17556 16.5252C5.84869 16.6477 5.5 16.4061 5.5 16.057V11.693Z"/><circle cx="12" cy="9.5" r="1.5"/><path d="M9.5 16.5V16C9.31061 16 9.13748 16.107 9.05279 16.2764L9.5 16.5ZM8.5 18.5L8.05279 18.2764C7.97529 18.4314 7.98357 18.6155 8.07467 18.7629C8.16578 18.9103 8.32671 19 8.5 19V18.5ZM15.5 18.5V19C15.6733 19 15.8342 18.9103 15.9253 18.7629C16.0164 18.6155 16.0247 18.4314 15.9472 18.2764L15.5 18.5ZM14.5 16.5L14.9472 16.2764C14.8625 16.107 14.6894 16 14.5 16V16.5ZM9.05279 16.2764L8.05279 18.2764L8.94721 18.7236L9.94721 16.7236L9.05279 16.2764ZM8.5 19H15.5V18H8.5V19ZM15.9472 18.2764L14.9472 16.2764L14.0528 16.7236L15.0528 18.7236L15.9472 18.2764ZM14.5 16H9.5V17H14.5V16Z" fill="#282829"/><path d="M9.5 20.5V21.5M14.5 20.5V21.5M12 20.5V21.5" stroke-linecap="round"/></svg>