<svg viewBox="0 0 24 24" fill="none" xmlns="http://www.w3.org/2000/svg" width="1em" height="1em"><path d="M19.9 12.9152L10.828 4.15002L2.48867 12.2074C1.67491 12.9936 1.67491 14.2978 2.48867 15.084L7.17031 19.6073C7.94543 20.3562 9.17457 20.3562 9.94969 19.6073L16.2947 13.4769C16.6676 13.1166 17.1658 12.9152 17.6843 12.9152H19.9Z" stroke="currentColor"/><path d="M9 11V2.53846C9 2.02564 8.7 1 7.5 1C6.3 1 6 2.02564 6 2.53846V8.5" stroke="currentColor" stroke-linecap="round"/><path d="M21.4751 16.75L21.475 16.75C20.2602 19 18.6407 22 21.475 22C24.3094 22 22.6898 19 21.4751 16.75Z" stroke="currentColor"/></svg>
