<svg xmlns="http://www.w3.org/2000/svg" fill="none" viewBox="0 0 16 16" width="1em" height="1em"><path stroke="currentColor" d="M13.183 8.113 7.1 2.028 1.224 7.903a1.014 1.014 0 0 0 0 1.434l3.636 3.636a1.014 1.014 0 0 0 1.435 0l4.563-4.563c.19-.19.448-.297.717-.297z"/><path stroke="currentColor" stroke-linecap="round" d="M5.577 7.099V1.52c0-.338-.202-1.014-1.014-1.014-.81 0-1.014.676-1.014 1.014v4.056"/><path stroke="currentColor" d="M14.479 11.155c-.782 1.521-1.825 3.55 0 3.55s.782-2.029 0-3.55Z"/></svg>
