<svg viewBox="0 0 24 24" fill="none" xmlns="http://www.w3.org/2000/svg" stroke="currentColor"><path d="M10.828 4.15002L11.1754 3.79044L10.828 3.45477L10.4806 3.79044L10.828 4.15002ZM19.9 12.9152V13.4152H21.1371L20.2474 12.5557L19.9 12.9152ZM16.2947 13.4769L15.9472 13.1173L16.2947 13.4769ZM10.4806 4.50961L19.5526 13.2748L20.2474 12.5557L11.1754 3.79044L10.4806 4.50961ZM19.9 12.4152H17.6843V13.4152H19.9V12.4152ZM15.9472 13.1173L9.60227 19.2478L10.2971 19.9669L16.6421 13.8365L15.9472 13.1173ZM7.51774 19.2478L2.83609 14.7244L2.14124 15.4436L6.82289 19.9669L7.51774 19.2478ZM2.83609 12.5669L11.1754 4.50961L10.4806 3.79044L2.14124 11.8478L2.83609 12.5669ZM2.83609 14.7244C2.22577 14.1347 2.22577 13.1566 2.83609 12.5669L2.14124 11.8478C1.12405 12.8306 1.12405 14.4608 2.14124 15.4436L2.83609 14.7244ZM9.60227 19.2478C9.02093 19.8094 8.09907 19.8094 7.51774 19.2478L6.82289 19.9669C7.79179 20.903 9.32822 20.903 10.2971 19.9669L9.60227 19.2478ZM17.6843 12.4152C17.0362 12.4152 16.4134 12.667 15.9472 13.1173L16.6421 13.8365C16.9218 13.5663 17.2955 13.4152 17.6843 13.4152V12.4152Z" fill="#282829"/><path d="M8.5 11C8.5 11.2761 8.72386 11.5 9 11.5C9.27614 11.5 9.5 11.2761 9.5 11H8.5ZM6 2.53846H6.5H6ZM5.5 8.5C5.5 8.77614 5.72386 9 6 9C6.27614 9 6.5 8.77614 6.5 8.5H5.5ZM9.5 11V2.53846H8.5V11H9.5ZM9.5 2.53846C9.5 2.20455 9.40635 1.71289 9.10923 1.28964C8.79379 0.840301 8.26836 0.5 7.5 0.5V1.5C7.93164 1.5 8.15621 1.67252 8.29077 1.8642C8.44365 2.08198 8.5 2.35955 8.5 2.53846H9.5ZM7.5 0.5C6.73164 0.5 6.20621 0.840301 5.89077 1.28964C5.59365 1.71289 5.5 2.20455 5.5 2.53846H6.5C6.5 2.35955 6.55635 2.08198 6.70923 1.8642C6.84379 1.67252 7.06836 1.5 7.5 1.5V0.5ZM5.5 2.53846V8.5H6.5V2.53846H5.5Z" fill="#282829"/><path d="M21.475 16.75L21.915 16.5125L21.4751 15.6976L21.0351 16.5124L21.475 16.75ZM21.0351 16.9875C21.6566 18.1388 22.3183 19.3754 22.5028 20.3151C22.5952 20.7855 22.5413 21.0574 22.4358 21.204C22.3435 21.3322 22.1103 21.5 21.475 21.5V22.5C22.2569 22.5 22.8841 22.2928 23.2474 21.7882C23.5974 21.302 23.5942 20.6832 23.4841 20.1224C23.2636 18.9996 22.5082 17.6112 21.915 16.5125L21.0351 16.9875ZM21.475 21.5C20.8397 21.5 20.6065 21.3322 20.5143 21.204C20.4087 21.0574 20.3549 20.7855 20.4472 20.3151C20.6317 19.3754 21.2934 18.1388 21.915 16.9876L21.0351 16.5124C20.4418 17.6112 19.6864 18.9996 19.466 20.1224C19.3559 20.6832 19.3527 21.302 19.7027 21.7882C20.0659 22.2928 20.6932 22.5 21.475 22.5V21.5Z" fill="#282829"/></svg>