<svg xmlns="http://www.w3.org/2000/svg" fill="none" viewBox="0 0 24 24" width="1em" height="1em"><path stroke="currentColor" d="m20.206 13.114-9.211-8.9-8.468 8.181a2.03 2.03 0 0 0 0 2.921l4.754 4.593a2.03 2.03 0 0 0 2.822 0l6.442-6.225c.38-.366.885-.57 1.411-.57z"/><path stroke="currentColor" stroke-linecap="round" d="M9.139 11.17V2.577c0-.521-.305-1.563-1.524-1.563-1.218 0-1.523 1.042-1.523 1.563V8.63"/><path stroke="currentColor" d="M21.806 17.008c-1.234 2.284-2.878 5.33 0 5.33 2.877 0 1.233-3.046 0-5.33Z"/></svg>
