<svg viewBox="0 0 16 16" fill="none" xmlns="http://www.w3.org/2000/svg" stroke="currentColor" width="1em" height="1em"><path d="M7 2L7.35355 1.64645L7 1.29289L6.64645 1.64645L7 2ZM13 8V8.5H14.2071L13.3536 7.64645L13 8ZM6.20711 12.7929L5.85355 12.4393L6.20711 12.7929ZM4.79289 12.7929L4.43934 13.1464L4.79289 12.7929ZM6.64645 2.35355L12.6464 8.35355L13.3536 7.64645L7.35355 1.64645L6.64645 2.35355ZM13 7.5H11.4142V8.5H13V7.5ZM10.3536 7.93934L5.85355 12.4393L6.56066 13.1464L11.0607 8.64645L10.3536 7.93934ZM5.14645 12.4393L1.56066 8.85355L0.853553 9.56066L4.43934 13.1464L5.14645 12.4393ZM1.56066 8.14645L7.35355 2.35355L6.64645 1.64645L0.853553 7.43934L1.56066 8.14645ZM1.56066 8.85355C1.3654 8.65829 1.3654 8.34171 1.56066 8.14645L0.853553 7.43934C0.267767 8.02513 0.267766 8.97487 0.853553 9.56066L1.56066 8.85355ZM5.85355 12.4393C5.65829 12.6346 5.34171 12.6346 5.14645 12.4393L4.43934 13.1464C5.02513 13.7322 5.97487 13.7322 6.56066 13.1464L5.85355 12.4393ZM11.4142 7.5C11.0164 7.5 10.6349 7.65804 10.3536 7.93934L11.0607 8.64645C11.1544 8.55268 11.2816 8.5 11.4142 8.5V7.5Z" fill="#282829"/><path d="M5 7C5 7.27614 5.22386 7.5 5.5 7.5C5.77614 7.5 6 7.27614 6 7H5ZM3.5 1.5H4H3.5ZM3 5.5C3 5.77614 3.22386 6 3.5 6C3.77614 6 4 5.77614 4 5.5H3ZM6 7V1.5H5V7H6ZM6 1.5C6 1.25332 5.93011 0.894434 5.70577 0.582848C5.46307 0.245766 5.06296 0 4.5 0V1C4.73704 1 4.83693 1.08757 4.89423 1.16715C4.96989 1.27223 5 1.41334 5 1.5H6ZM4.5 0C3.93704 0 3.53693 0.245766 3.29423 0.582848C3.06989 0.894434 3 1.25332 3 1.5H4C4 1.41334 4.03011 1.27223 4.10577 1.16715C4.16307 1.08757 4.26296 1 4.5 1V0ZM3 1.5V5.5H4V1.5H3Z" fill="#282829"/><path d="M14.2778 11L14.7225 10.7714L14.2779 9.90658L13.8332 10.7713L14.2778 11ZM13.8332 11.2286C14.2317 12.0037 14.6384 12.8051 14.7504 13.4044C14.8069 13.7063 14.7637 13.8367 14.7331 13.8813C14.7205 13.8997 14.6461 14 14.2778 14V15C14.8094 15 15.2812 14.8503 15.5579 14.4468C15.8165 14.0696 15.8055 13.6062 15.7334 13.2206C15.5884 12.4449 15.0952 11.4963 14.7225 10.7714L13.8332 11.2286ZM14.2778 14C13.9096 14 13.8351 13.8997 13.8226 13.8813C13.792 13.8367 13.7488 13.7063 13.8052 13.4044C13.9173 12.8051 14.3239 12.0037 14.7225 11.2287L13.8332 10.7713C13.4604 11.4963 12.9673 12.4449 12.8223 13.2206C12.7502 13.6062 12.7392 14.0696 12.9978 14.4468C13.2745 14.8503 13.7463 15 14.2778 15V14Z" fill="#282829"/></svg>
