<svg viewBox="0 0 32 32" fill="none" xmlns="http://www.w3.org/2000/svg" stroke="currentColor"><path d="M14.52 5L14.8666 4.63958L14.52 4.30636L14.1734 4.63958L14.52 5ZM27 17V17.5H28.2414L27.3466 16.6396L27 17ZM3.249 15.8375L2.90244 15.4771L3.249 15.8375ZM21.969 17.8375L21.6224 17.4771L21.969 17.8375ZM14.1734 5.36042L26.6534 17.3604L27.3466 16.6396L14.8666 4.63958L14.1734 5.36042ZM27 16.5H24.0483V17.5H27V16.5ZM21.6224 17.4771L13.1328 25.6402L13.8259 26.3611L22.3156 18.1979L21.6224 17.4771ZM9.66723 25.6402L3.59555 19.8021L2.90244 20.5229L8.97412 26.3611L9.66723 25.6402ZM3.59555 16.1979L14.8666 5.36042L14.1734 4.63958L2.90244 15.4771L3.59555 16.1979ZM3.59555 19.8021C2.57258 18.8185 2.57258 17.1815 3.59555 16.1979L2.90244 15.4771C1.47029 16.8542 1.47028 19.1458 2.90244 20.5229L3.59555 19.8021ZM13.1328 25.6402C12.165 26.5708 10.635 26.5708 9.66723 25.6402L8.97412 26.3611C10.329 27.6638 12.471 27.6638 13.8259 26.3611L13.1328 25.6402ZM24.0483 16.5C23.1438 16.5 22.2744 16.8502 21.6224 17.4771L22.3156 18.1979C22.7813 17.7501 23.4023 17.5 24.0483 17.5V16.5Z" fill="#282829"/><path d="M11.5 14C11.5 14.2761 11.7239 14.5 12 14.5C12.2761 14.5 12.5 14.2761 12.5 14H11.5ZM8 3H8.5H8ZM7.5 10.75C7.5 11.0261 7.72386 11.25 8 11.25C8.27614 11.25 8.5 11.0261 8.5 10.75H7.5ZM12.5 14V3H11.5V14H12.5ZM12.5 3C12.5 2.58666 12.3801 1.97777 12.0058 1.45785C11.6131 0.912433 10.963 0.5 10 0.5V1.5C10.637 1.5 10.9869 1.75423 11.1942 2.04215C11.4199 2.35557 11.5 2.74668 11.5 3H12.5ZM10 0.5C9.03704 0.5 8.38693 0.912433 7.99423 1.45785C7.61989 1.97777 7.5 2.58666 7.5 3H8.5C8.5 2.74668 8.58011 2.35557 8.80577 2.04215C9.01307 1.75423 9.36296 1.5 10 1.5V0.5ZM7.5 3V10.75H8.5V3H7.5Z" fill="#282829"/><path d="M28 23L28.4447 22.7714L28.0001 21.9066L27.5554 22.7713L28 23ZM27.5554 23.2286C28.3395 24.7537 29.1961 26.4301 29.4367 27.7169C29.5574 28.3626 29.4982 28.7898 29.3229 29.0454C29.1658 29.2747 28.8181 29.5 28 29.5V30.5C28.9815 30.5 29.7265 30.2253 30.1477 29.6108C30.5509 29.0227 30.556 28.2624 30.4196 27.5331C30.1461 26.0699 29.203 24.2463 28.4447 22.7714L27.5554 23.2286ZM28 29.5C27.1819 29.5 26.8343 29.2747 26.6771 29.0454C26.5019 28.7898 26.4426 28.3626 26.5633 27.7169C26.8039 26.4301 27.6604 24.7537 28.4447 23.2287L27.5554 22.7713C26.7969 24.2463 25.8539 26.0699 25.5804 27.5331C25.444 28.2624 25.4491 29.0227 25.8523 29.6109C26.2736 30.2253 27.0186 30.5 28 30.5V29.5Z" fill="#282829"/></svg>