<svg viewBox="0 0 24 24" fill="none" xmlns="http://www.w3.org/2000/svg" width="1em" height="1em"><path d="M19.9 12.9151L10.828 4.1499L2.48867 12.2072C1.67491 12.9935 1.67491 14.2976 2.48867 15.0839L7.17031 19.6072C7.94543 20.3561 9.17457 20.3561 9.94969 19.6072L16.2947 13.4768C16.6676 13.1165 17.1658 12.9151 17.6843 12.9151H19.9Z" stroke="currentColor"/><path d="M9 11L9 2.53846C9 2.02564 8.7 1 7.5 1C6.3 1 6 2.02564 6 2.53846L6 8.5" stroke="currentColor" stroke-linecap="round"/><path d="M21.475 16.75L21.475 16.75C20.2602 19 18.6407 22 21.475 22C24.3093 22 22.6897 19 21.475 16.75Z" stroke="currentColor"/></svg>
