<svg xmlns="http://www.w3.org/2000/svg" fill="none" viewBox="0 0 24 24" width="1em" height="1em"><path stroke="currentColor" stroke-linecap="round" stroke-linejoin="round" d="M18.333 15.5c2.111 0 3.167-2.182 3.167-3.818 0-1.933-1.39-3.53-3.192-3.783C18.061 5.427 16.04 3.5 13.583 3.5c-2.071 0-3.833 1.37-4.482 3.281a4.147 4.147 0 0 0-.268-.008c-1.978 0-3.639 1.406-4.097 3.304-1.266.2-2.236 1.33-2.236 2.696 0 1.506 1.181 2.727 2.639 2.727"/><path fill="currentColor" d="M15.549 12.443A5.04 5.04 0 0 0 12.454 11c-.135-.01-.212.154-.116.25l1.809 1.798c.01.01 0 .03-.02.02a3.498 3.498 0 0 0-1.72-.645c-.098-.01-.146.106-.078.173l1.238 1.231c.01.01 0 .029-.02.02a2.4 2.4 0 0 0-1.122-.404c-.067-.01-.106.076-.058.115l2.099 2.086c.048.048.126.01.116-.057a2.369 2.369 0 0 0-.406-1.116c-.01-.01.01-.029.02-.019l1.189 1.183c.067.067.183.01.174-.077a3.318 3.318 0 0 0-.639-1.702c-.01-.01.01-.029.02-.02l1.808 1.799c.097.096.261.019.252-.125a4.986 4.986 0 0 0-1.451-3.067Zm-7.098 0A5.04 5.04 0 0 1 11.546 11c.135-.01.212.154.116.25l-1.809 1.798c-.01.01 0 .03.02.02a3.498 3.498 0 0 1 1.72-.645c.098-.01.146.106.078.173l-1.238 1.231c-.01.01 0 .029.02.02a2.4 2.4 0 0 1 1.122-.404c.067-.01.106.076.058.115l-2.099 2.096a.068.068 0 0 1-.116-.058 2.37 2.37 0 0 1 .406-1.115c.01-.01-.01-.029-.02-.02l-1.189 1.183c-.067.067-.183.01-.174-.077a3.42 3.42 0 0 1 .648-1.711c.01-.01-.01-.029-.02-.02l-1.817 1.799c-.097.096-.261.019-.252-.125a4.986 4.986 0 0 1 1.451-3.067Zm0 7.114A5.04 5.04 0 0 0 11.546 21c.135.01.212-.154.116-.25l-1.809-1.798c-.01-.01 0-.03.02-.02a3.497 3.497 0 0 0 1.72.645c.098.01.146-.106.078-.174l-1.238-1.23c-.01-.01 0-.029.02-.02a2.4 2.4 0 0 0 1.122.405c.067.01.106-.077.058-.116l-2.099-2.096a.068.068 0 0 0-.116.058c.039.394.174.779.406 1.115.01.01-.01.029-.02.02l-1.189-1.183c-.067-.068-.183-.01-.174.077.058.605.271 1.201.648 1.711.01.01-.01.029-.02.02l-1.817-1.799c-.097-.096-.261-.019-.252.125a4.986 4.986 0 0 0 1.451 3.067Zm7.098 0A5.04 5.04 0 0 1 12.454 21c-.135.01-.212-.154-.116-.25l1.809-1.798c.01-.01 0-.03-.02-.02a3.497 3.497 0 0 1-1.72.645c-.098.01-.146-.106-.078-.174l1.238-1.23c.01-.01 0-.029-.02-.02a2.4 2.4 0 0 1-1.122.405c-.067.01-.106-.077-.058-.116l2.099-2.086a.068.068 0 0 1 .116.057 2.369 2.369 0 0 1-.406 1.116c-.01.01.01.029.02.019l1.189-1.183c.067-.067.183-.01.174.077a3.382 3.382 0 0 1-.639 1.712c-.01.01.01.029.02.019l1.808-1.798c.097-.096.261-.02.252.125a4.986 4.986 0 0 1-1.451 3.057Z"/></svg>
