<svg xmlns="http://www.w3.org/2000/svg" fill="none" viewBox="0 0 16 16" width="1em" height="1em"><path fill="currentColor" d="M10.13 8.866A3.02 3.02 0 0 0 8.272 8c-.082-.006-.128.093-.07.15l1.086 1.08c.006.006 0 .017-.012.012a2.1 2.1 0 0 0-1.032-.387c-.058-.006-.087.063-.047.104l.743.738c.006.006 0 .018-.012.012a1.44 1.44 0 0 0-.673-.242c-.04-.006-.064.046-.035.069l1.26 1.252a.04.04 0 0 0 .07-.035 1.4 1.4 0 0 0-.245-.67c-.005-.005.006-.017.012-.01l.714.709c.04.04.11.005.104-.046a2 2 0 0 0-.383-1.021c-.006-.006.006-.018.012-.012l1.085 1.079c.058.057.156.011.15-.075a3 3 0 0 0-.87-1.84m-4.26 0A3.02 3.02 0 0 1 7.728 8c.082-.006.128.093.07.15L6.712 9.23c-.006.006 0 .017.011.012a2.1 2.1 0 0 1 1.033-.387c.058-.006.087.063.047.104l-.743.738c-.006.006 0 .018.012.012a1.44 1.44 0 0 1 .673-.242c.04-.006.064.046.035.069l-1.26 1.257a.04.04 0 0 1-.07-.034c.024-.237.105-.468.244-.67.006-.005-.005-.017-.011-.011l-.714.71c-.04.04-.11.005-.104-.047.035-.363.162-.72.389-1.026.005-.006-.006-.018-.012-.012l-1.09 1.079c-.059.057-.158.011-.152-.075a3 3 0 0 1 .87-1.84m0 4.268A3.02 3.02 0 0 0 7.728 14c.082.005.128-.093.07-.15l-1.086-1.08c-.006-.006 0-.017.011-.012a2.1 2.1 0 0 0 1.033.387c.058.006.087-.064.047-.104l-.743-.738c-.006-.006 0-.018.012-.012.203.139.435.22.673.242.04.006.064-.046.035-.069l-1.26-1.257a.04.04 0 0 0-.07.034c.024.237.105.467.244.67.006.005-.005.017-.011.011l-.714-.71c-.04-.04-.11-.005-.104.047.035.363.162.72.389 1.026.005.006-.006.018-.012.012l-1.09-1.079c-.059-.057-.158-.011-.152.075a3 3 0 0 0 .87 1.84m4.26 0A3.02 3.02 0 0 1 8.272 14c-.082.005-.128-.093-.07-.15l1.085-1.079c.006-.006 0-.017-.012-.012a2.1 2.1 0 0 1-1.032.387c-.058.006-.087-.064-.047-.104l.743-.738c.006-.006 0-.018-.012-.012a1.44 1.44 0 0 1-.673.242c-.04.006-.064-.046-.035-.069l1.26-1.252a.04.04 0 0 1 .07.035 1.4 1.4 0 0 1-.245.67c-.005.005.006.017.012.01l.714-.709c.04-.04.11-.006.104.046a2.03 2.03 0 0 1-.383 1.027c-.006.006.006.018.012.012l1.085-1.079c.058-.058.156-.012.15.075a3 3 0 0 1-.87 1.834"/><path stroke="currentColor" stroke-linecap="round" stroke-linejoin="round" d="M13.403 10.196c.673-.57 1.097-1.4 1.097-2.299 0-1.527-1.224-2.788-2.812-2.987C11.161 3.491 9.71 2.472 8 2.472c-2.154 0-3.9 1.62-3.9 3.617-1.436 0-2.6 1.08-2.6 2.411 0 .815.436 1.536 1.104 1.972"/></svg>
