<svg xmlns="http://www.w3.org/2000/svg" fill="none" viewBox="0 0 32 32" width="1em" height="1em"><path stroke="currentColor" stroke-linecap="round" stroke-linejoin="round" d="M24.667 21C27.375 21 29 18.67 29 16.2s-1.896-4.505-4.333-4.77c.007-3.5-2.94-6.43-6.5-6.43-3.221 0-5.895 2.307-6.41 5.334-2.575-.041-4.887 1.78-5.399 4.268C4.548 14.543 3 16.015 3 17.8 3 19.567 4.455 21 6.25 21h1.083"/><path fill="currentColor" d="M20.969 16.02A7.06 7.06 0 0 0 16.636 14c-.19-.013-.298.216-.162.35l2.532 2.518c.013.013 0 .04-.027.027a4.9 4.9 0 0 0-2.41-.902c-.136-.014-.203.148-.109.242l1.733 1.723c.014.013 0 .04-.027.027a3.36 3.36 0 0 0-1.57-.566c-.095-.013-.15.108-.081.162l2.937 2.92a.095.095 0 0 0 .163-.08 3.3 3.3 0 0 0-.569-1.561c-.013-.014.014-.04.027-.027l1.665 1.656c.095.094.258.013.244-.108a4.65 4.65 0 0 0-.893-2.383c-.014-.013.013-.04.027-.027l2.531 2.517c.136.135.366.027.352-.174a6.98 6.98 0 0 0-2.03-4.294m-9.938 0A7.06 7.06 0 0 1 15.364 14c.19-.013.297.216.162.35l-2.532 2.518c-.013.013 0 .04.027.027a4.9 4.9 0 0 1 2.41-.902c.136-.014.203.148.109.242l-1.733 1.723c-.014.013 0 .04.027.027a3.36 3.36 0 0 1 1.57-.566c.095-.013.15.108.082.162l-2.938 2.934a.095.095 0 0 1-.163-.08 3.3 3.3 0 0 1 .569-1.562c.013-.013-.014-.04-.027-.027l-1.665 1.656c-.095.094-.258.013-.244-.108a4.8 4.8 0 0 1 .907-2.396c.013-.013-.014-.04-.027-.027l-2.545 2.517c-.136.135-.366.027-.352-.174a6.98 6.98 0 0 1 2.03-4.294m0 9.96A7.06 7.06 0 0 0 15.364 28c.19.013.297-.216.162-.35l-2.532-2.518c-.013-.013 0-.04.027-.027a4.9 4.9 0 0 0 2.41.902c.136.014.203-.148.109-.242l-1.733-1.723c-.014-.013 0-.04.027-.027a3.36 3.36 0 0 0 1.57.566c.095.013.15-.108.082-.162l-2.938-2.934a.095.095 0 0 0-.163.08 3.3 3.3 0 0 0 .569 1.562c.013.013-.014.04-.027.027l-1.665-1.656c-.095-.094-.258-.013-.244.108.081.848.379 1.682.907 2.396.013.013-.014.04-.027.027l-2.545-2.517c-.136-.135-.366-.027-.352.174a6.98 6.98 0 0 0 2.03 4.294m9.938 0A7.06 7.06 0 0 1 16.636 28c-.19.013-.298-.216-.162-.35l2.532-2.518c.013-.013 0-.04-.027-.027a4.9 4.9 0 0 1-2.41.902c-.136.014-.203-.148-.109-.242l1.733-1.723c.014-.013 0-.04-.027-.027a3.36 3.36 0 0 1-1.57.566c-.095.013-.15-.108-.081-.162l2.937-2.921a.095.095 0 0 1 .163.08 3.3 3.3 0 0 1-.569 1.562c-.013.014.014.04.027.027l1.665-1.655c.095-.095.258-.014.244.107a4.74 4.74 0 0 1-.893 2.396c-.014.014.013.04.027.027l2.531-2.517c.136-.135.366-.027.352.175a6.98 6.98 0 0 1-2.03 4.28"/></svg>
