<svg viewBox="0 0 16 16" fill="none" xmlns="http://www.w3.org/2000/svg" width="1em" height="1em"><path d="M4.81818 12.4053C4.68982 12.4053 4.56638 12.4547 4.47342 12.5432L2.61025 14.317C2.20905 14.699 1.5 14.4408 1.5 13.7859L1.5 3.2117C1.5 2.80062 1.81616 2.5 2.16667 2.5L13.8333 2.5C14.1838 2.5 14.5 2.80062 14.5 3.2117V11.6936C14.5 12.1047 14.1838 12.4053 13.8333 12.4053H4.81818Z" stroke="currentColor" stroke-linecap="round" stroke-linejoin="round"/><path d="M9.45935 7.5C9.45935 8.72482 8.69929 9.5 7.99971 9.5C7.30013 9.5 6.54006 8.72482 6.54006 7.5C6.54006 7.31355 6.53179 7.13413 6.52308 6.96971C6.52131 6.93638 6.51954 6.90392 6.51782 6.8722C6.51081 6.74341 6.50447 6.62688 6.50157 6.51405C6.49416 6.22575 6.51382 6.04497 6.56443 5.92031C6.60289 5.82559 6.66938 5.7355 6.85502 5.65684C7.064 5.56829 7.41532 5.5 7.99971 5.5C8.58501 5.5 8.93675 5.5683 9.14589 5.65688C9.3316 5.73552 9.39783 5.8255 9.43608 5.91995C9.48653 6.04448 9.50599 6.22516 9.49833 6.51361C9.49599 6.60165 9.48998 6.71439 9.48337 6.83858C9.47222 7.0477 9.45935 7.28927 9.45935 7.5Z" stroke="currentColor" stroke-linecap="round" stroke-linejoin="round"/><path d="M6.5 6.5L5.5 5.5" stroke="currentColor" stroke-linecap="round" stroke-linejoin="round"/><path d="M9.5 6.5L10.5 5.5" stroke="currentColor" stroke-linecap="round" stroke-linejoin="round"/><path d="M5.5 8H6.5" stroke="currentColor" stroke-linecap="round" stroke-linejoin="round"/><path d="M9.5 8H10.5" stroke="currentColor" stroke-linecap="round" stroke-linejoin="round"/><path d="M6.5 10.5L7 9.5" stroke="currentColor" stroke-linecap="round" stroke-linejoin="round"/><path d="M9.5 10.5L9 9.5" stroke="currentColor" stroke-linecap="round" stroke-linejoin="round"/><circle cx="0.5" cy="0.5" r="0.5" transform="matrix(1 0 0 -1 7.5 5.5)" stroke="currentColor" stroke-linecap="round" stroke-linejoin="round"/></svg>
