<svg xmlns="http://www.w3.org/2000/svg" fill="none" viewBox="0 0 16 16" width="1em" height="1em"><path stroke="currentColor" stroke-linecap="round" stroke-linejoin="round" d="M4.818 12.405a.5.5 0 0 0-.345.138L2.61 14.317c-.4.382-1.11.124-1.11-.531V3.212c0-.411.316-.712.667-.712h11.666c.35 0 .667.3.667.712v8.482c0 .41-.316.711-.667.711z"/><path stroke="currentColor" stroke-linecap="round" stroke-linejoin="round" d="M9.46 7.5c0 1.225-.76 2-1.46 2s-1.46-.775-1.46-2c0-.186-.008-.366-.017-.53l-.005-.098a13 13 0 0 1-.016-.358c-.008-.288.012-.469.062-.594.039-.094.105-.184.291-.263.209-.089.56-.157 1.145-.157s.937.068 1.146.157c.186.079.252.168.29.263.05.124.07.305.062.594-.002.088-.008.2-.015.325-.01.209-.024.45-.024.661M6.5 6.5l-1-1m4 1 1-1M5.5 8h1m3 0h1m-4 2.5.5-1m2.5 1-.5-1"/><circle cx=".5" cy=".5" r=".5" stroke="currentColor" stroke-linecap="round" stroke-linejoin="round" transform="matrix(1 0 0 -1 7.5 5.5)"/></svg>
