<svg xmlns="http://www.w3.org/2000/svg" fill="none" viewBox="0 0 24 24" width="1em" height="1em"><path stroke="currentColor" stroke-linecap="round" stroke-linejoin="round" d="m5.202 20.193-.016.014c-.345.3-.782.355-1.116.232-.313-.116-.57-.4-.57-.9V4.418c0-.482.421-.919 1-.919h15c.579 0 1 .437 1 .92v13.233c0 .45-.386.847-1 .847H8.2a2.5 2.5 0 0 0-1.559.546z"/><path stroke="currentColor" stroke-linecap="round" stroke-linejoin="round" d="M14 9.5h.086a1 1 0 0 0 .707-.293L15.5 8.5m-2 5h.586a1 1 0 0 1 .707.293l.707.707m-1.5-3h1.5m-5.5-2h-.086a1 1 0 0 1-.707-.293L8.5 8.5m2 5h-.586a1 1 0 0 0-.707.293L8.5 14.5m1.5-3H8.5m3.5 3c-1 0-1.248-1.713-1.5-3-.285-1.453-.356-3 1.5-3 1.591 0 1.712 1.547 1.5 3-.187 1.287-.56 3-1.5 3"/><circle cx="12" cy="8" r=".5" stroke="currentColor" stroke-linecap="round" stroke-linejoin="round"/></svg>
