<svg xmlns="http://www.w3.org/2000/svg" fill="none" viewBox="0 0 32 32" width="1em" height="1em"><path stroke="currentColor" stroke-linecap="round" stroke-linejoin="round" d="M5.568 28.993h0l-.003.003c-1.15 1.095-3.065.285-3.065-1.424V4.5c0-1.056.981-2 2-2h23c1.037 0 2 .893 2 1.932v18.955c0 .52-.238 1.055-.628 1.463-.391.41-.892.65-1.372.65H10.29a2.5 2.5 0 0 0-1.708.674l-3.014 2.82Z"/><path stroke="currentColor" stroke-linecap="round" stroke-linejoin="round" d="m18.5 12.5.707-.707a1 1 0 0 0 .293-.707V9.5m-1.5 7 1.055.703a1 1 0 0 1 .445.832V19.5m-1-5h2m-7-2-.707-.707a1 1 0 0 1-.293-.707V9.5m1.5 7-1.055.703a1 1 0 0 0-.445.832V19.5m1-5h-2"/><path stroke="currentColor" stroke-linecap="round" stroke-linejoin="round" d="M16 18c-2 0-4.5-6.5 0-6.5s2 6.5 0 6.5Z"/><circle cx="16" cy="10.5" r="1" stroke="currentColor" stroke-linecap="round" stroke-linejoin="round"/></svg>
