<svg xmlns="http://www.w3.org/2000/svg" fill="none" viewBox="0 0 32 32" width="1em" height="1em"><rect width="19" height="27" x="6.5" y="2.5" stroke="currentColor" rx="1.5"/><path stroke="currentColor" d="M12.5 2.5h7V3A1.5 1.5 0 0 1 18 4.5h-4A1.5 1.5 0 0 1 12.5 3v-.5Z"/><path stroke="currentColor" stroke-linecap="round" d="M15.5 8.5h7m-7 2h5m-5 5h7m-7 2h5m-5 6h7m-7 2h5"/><path stroke="currentColor" stroke-linecap="round" stroke-linejoin="round" d="m9.5 9 1.333 1.5 2.667-3m-4 8.5 1.333 1.5 2.667-3m-4 9.5 1.333 1.5 2.667-3"/></svg>
