<svg viewBox="0 0 32 32" fill="none" xmlns="http://www.w3.org/2000/svg" width="1em" height="1em"><rect x="6.5" y="2.5" width="19" height="27" rx="1.5" stroke="currentColor"/><mask id="path-2-inside-1_2_61925" fill="currentColor"><path d="M12 2H20V3C20 4.10457 19.1046 5 18 5H14C12.8954 5 12 4.10457 12 3V2Z"/></mask><path d="M12 2V1H11V2H12ZM20 2H21V1H20V2ZM12 3H20V1H12V3ZM19 2V3H21V2H19ZM18 4H14V6H18V4ZM13 3V2H11V3H13ZM14 4C13.4477 4 13 3.55228 13 3H11C11 4.65685 12.3431 6 14 6V4ZM19 3C19 3.55228 18.5523 4 18 4V6C19.6569 6 21 4.65685 21 3H19Z" fill="currentColor" mask="url(#path-2-inside-1_2_61925)"/><path d="M15.5 8C15.2239 8 15 8.22386 15 8.5C15 8.77614 15.2239 9 15.5 9V8ZM22.5 9C22.7761 9 23 8.77614 23 8.5C23 8.22386 22.7761 8 22.5 8V9ZM15.5 10C15.2239 10 15 10.2239 15 10.5C15 10.7761 15.2239 11 15.5 11V10ZM20.5 11C20.7761 11 21 10.7761 21 10.5C21 10.2239 20.7761 10 20.5 10V11ZM15.5 9H22.5V8H15.5V9ZM15.5 11H20.5V10H15.5V11Z" fill="currentColor"/><path d="M15.5 15C15.2239 15 15 15.2239 15 15.5C15 15.7761 15.2239 16 15.5 16V15ZM22.5 16C22.7761 16 23 15.7761 23 15.5C23 15.2239 22.7761 15 22.5 15V16ZM15.5 17C15.2239 17 15 17.2239 15 17.5C15 17.7761 15.2239 18 15.5 18V17ZM20.5 18C20.7761 18 21 17.7761 21 17.5C21 17.2239 20.7761 17 20.5 17V18ZM15.5 16H22.5V15H15.5V16ZM15.5 18H20.5V17H15.5V18Z" fill="currentColor"/><path d="M15.5 23C15.2239 23 15 23.2239 15 23.5C15 23.7761 15.2239 24 15.5 24V23ZM22.5 24C22.7761 24 23 23.7761 23 23.5C23 23.2239 22.7761 23 22.5 23V24ZM15.5 25C15.2239 25 15 25.2239 15 25.5C15 25.7761 15.2239 26 15.5 26V25ZM20.5 26C20.7761 26 21 25.7761 21 25.5C21 25.2239 20.7761 25 20.5 25V26ZM15.5 24H22.5V23H15.5V24ZM15.5 26H20.5V25H15.5V26Z" fill="currentColor"/><path d="M9.5 9L10.8333 10.5L13.5 7.5" stroke="currentColor" stroke-linecap="round" stroke-linejoin="round"/><path d="M9.5 16L10.8333 17.5L13.5 14.5" stroke="currentColor" stroke-linecap="round" stroke-linejoin="round"/><path d="M9.5 24L10.8333 25.5L13.5 22.5" stroke="currentColor" stroke-linecap="round" stroke-linejoin="round"/></svg>
