<svg viewBox="0 0 24 24" fill="none" xmlns="http://www.w3.org/2000/svg" stroke="currentColor"><path d="M11 4V3.5C11 2.94772 11.4477 2.5 12 2.5H12.5C13.0523 2.5 13.5 2.94772 13.5 3.5V4M11 12V10M11 18V20.5C11 21.0523 11.4477 21.5 12 21.5H12.5C13.0523 21.5 13.5 21.0523 13.5 20.5V18M13.5 12V10" stroke-linecap="round"/><mask id="path-2-inside-1_2_60996" fill="white"><path d="M3 6C3 4.89543 3.89543 4 5 4H18.3765C18.629 4 18.872 4.09545 19.057 4.26721L21.2108 6.26721C21.6369 6.66284 21.6369 7.33716 21.2108 7.73279L19.057 9.73279C18.872 9.90455 18.629 10 18.3765 10H5C3.89543 10 3 9.10457 3 8V6Z"/></mask><path d="M21.2108 6.26721L20.5304 7L21.2108 6.26721ZM21.2108 7.73279L20.5304 7L21.2108 7.73279ZM19.057 9.73279L18.3765 9L19.057 9.73279ZM19.057 4.26721L18.3765 5L19.057 4.26721ZM5 5H18.3765V3H5V5ZM18.3765 9H5V11H18.3765V9ZM4 8V6H2V8H4ZM18.3765 5L20.5304 7L21.8913 5.53441L19.7374 3.53441L18.3765 5ZM20.5304 7L18.3765 9L19.7374 10.4656L21.8913 8.46559L20.5304 7ZM20.5304 7L21.8913 8.46559C22.7434 7.67432 22.7434 6.32568 21.8913 5.53441L20.5304 7ZM5 9C4.44772 9 4 8.55228 4 8H2C2 9.65685 3.34315 11 5 11V9ZM18.3765 11C18.8814 11 19.3675 10.8091 19.7374 10.4656L18.3765 9V11ZM18.3765 5L19.7374 3.53441C19.3675 3.19091 18.8814 3 18.3765 3V5ZM5 3C3.34315 3 2 4.34315 2 6H4C4 5.44772 4.44772 5 5 5V3Z" fill="#282829" mask="url(#path-2-inside-1_2_60996)"/><mask id="path-4-inside-2_2_60996" fill="white"><path d="M21 14C21 12.8954 20.1046 12 19 12L5.62346 12C5.37105 12 5.12797 12.0955 4.94301 12.2672L2.78916 14.2672C2.3631 14.6628 2.3631 15.3372 2.78916 15.7328L4.94301 17.7328C5.12797 17.9045 5.37105 18 5.62346 18H19C20.1046 18 21 17.1046 21 16V14Z"/></mask><path d="M2.78916 14.2672L3.46961 15L2.78916 14.2672ZM2.78916 15.7328L3.46961 15L2.78916 15.7328ZM4.94301 17.7328L5.62346 17L4.94301 17.7328ZM5.62346 12V13V12ZM4.94301 12.2672L5.62346 13L4.94301 12.2672ZM19 12V11V12ZM19 13H5.62346V11H19V13ZM5.62346 17H19V19H5.62346V17ZM20 16V14H22V16H20ZM5.62346 13L3.46961 15L2.10871 13.5344L4.26256 11.5344L5.62346 13ZM3.46961 15L5.62346 17L4.26256 18.4656L2.10871 16.4656L3.46961 15ZM3.46961 15L2.10871 16.4656C1.25658 15.6743 1.25658 14.3257 2.10871 13.5344L3.46961 15ZM19 17C19.5523 17 20 16.5523 20 16H22C22 17.6569 20.6569 19 19 19V17ZM5.62346 19C5.11864 19 4.63249 18.8091 4.26256 18.4656L5.62346 17V19ZM5.62346 13L4.26256 11.5344C4.63249 11.1909 5.11864 11 5.62346 11V13ZM19 11C20.6569 11 22 12.3431 22 14H20C20 13.4477 19.5523 13 19 13V11Z" fill="#282829" mask="url(#path-4-inside-2_2_60996)"/></svg>