<svg xmlns="http://www.w3.org/2000/svg" fill="none" viewBox="0 0 32 32" width="1em" height="1em"><path stroke="currentColor" d="M4.5 8A1.5 1.5 0 0 1 6 6.5h17.62a.5.5 0 0 1 .332.126l.33-.372-.33.372 3.375 3a.5.5 0 0 1 0 .748l-3.375 3a.5.5 0 0 1-.332.126H6A1.5 1.5 0 0 1 4.5 12V8Z"/><path stroke="currentColor" stroke-linecap="round" d="M17.5 6V3.5a1 1 0 0 0-1-1h-1a1 1 0 0 0-1 1V6m0 7.5v4m3-4v4m-3 7v4a1 1 0 0 0 1 1h1a1 1 0 0 0 1-1v-4"/><path stroke="currentColor" d="M27.5 19a1.5 1.5 0 0 0-1.5-1.5H8.38a.5.5 0 0 0-.332.126l-.33-.372.33.372-3.375 3a.5.5 0 0 0 0 .748l3.375 3a.5.5 0 0 0 .332.126H26a1.5 1.5 0 0 0 1.5-1.5v-4Z"/></svg>
