<svg viewBox="0 0 32 32" fill="none" xmlns="http://www.w3.org/2000/svg" stroke="currentColor"><mask id="path-1-inside-1_2_61002" fill="white"><path d="M4 8C4 6.89543 4.89543 6 6 6H23.6198C23.8647 6 24.1011 6.08988 24.2842 6.25259L27.6592 9.25259C28.1067 9.65038 28.1067 10.3496 27.6592 10.7474L24.2842 13.7474C24.1011 13.9101 23.8647 14 23.6198 14H6C4.89543 14 4 13.1046 4 12V8Z"/></mask><path d="M27.6592 9.25259L28.3235 8.50518L27.6592 9.25259ZM27.6592 10.7474L28.3235 11.4948L27.6592 10.7474ZM24.2842 13.7474L23.6198 13L24.2842 13.7474ZM24.2842 6.25259L23.6198 7L24.2842 6.25259ZM6 7H23.6198V5H6V7ZM23.6198 13H6V15H23.6198V13ZM5 12V8H3V12H5ZM23.6198 7L26.9948 10L28.3235 8.50518L24.9485 5.50518L23.6198 7ZM26.9948 10L23.6198 13L24.9485 14.4948L28.3235 11.4948L26.9948 10ZM26.9948 10L28.3235 11.4948C29.2186 10.6992 29.2186 9.30076 28.3235 8.50518L26.9948 10ZM6 13C5.44772 13 5 12.5523 5 12H3C3 13.6569 4.34315 15 6 15V13ZM23.6198 15C24.1096 15 24.5824 14.8202 24.9485 14.4948L23.6198 13V15ZM23.6198 7L24.9485 5.50518C24.5824 5.17976 24.1096 5 23.6198 5V7ZM6 5C4.34315 5 3 6.34315 3 8H5C5 7.44772 5.44772 7 6 7V5Z" fill="#282829" mask="url(#path-1-inside-1_2_61002)"/><path d="M17.5 6V3.5C17.5 2.94772 17.0523 2.5 16.5 2.5H15.5C14.9477 2.5 14.5 2.94772 14.5 3.5V6M14.5 13.5V17.5M17.5 13.5V17.5M14.5 24.5V28.5C14.5 29.0523 14.9477 29.5 15.5 29.5H16.5C17.0523 29.5 17.5 29.0523 17.5 28.5V24.5" stroke-linecap="round"/><mask id="path-4-inside-2_2_61002" fill="white"><path d="M28 19C28 17.8954 27.1046 17 26 17H8.3802C8.13528 17 7.89889 17.0899 7.71584 17.2526L4.34084 20.2526C3.89332 20.6504 3.89332 21.3496 4.34084 21.7474L7.71584 24.7474C7.89889 24.9101 8.13528 25 8.3802 25H26C27.1046 25 28 24.1046 28 23V19Z"/></mask><path d="M4.34084 20.2526L3.67647 19.5052L4.34084 20.2526ZM4.34084 21.7474L3.67647 22.4948L4.34084 21.7474ZM7.71584 24.7474L8.3802 24L7.71584 24.7474ZM7.71584 17.2526L8.3802 18L7.71584 17.2526ZM26 18H8.3802V16H26V18ZM8.3802 24H26V26H8.3802V24ZM27 23V19H29V23H27ZM8.3802 18L5.0052 21L3.67647 19.5052L7.05147 16.5052L8.3802 18ZM5.0052 21L8.3802 24L7.05147 25.4948L3.67647 22.4948L5.0052 21ZM5.0052 21L3.67647 22.4948C2.78144 21.6992 2.78144 20.3008 3.67647 19.5052L5.0052 21ZM26 24C26.5523 24 27 23.5523 27 23H29C29 24.6569 27.6569 26 26 26V24ZM8.3802 26C7.89037 26 7.41757 25.8202 7.05147 25.4948L8.3802 24V26ZM8.3802 18L7.05147 16.5052C7.41757 16.1798 7.89037 16 8.3802 16V18ZM26 16C27.6569 16 29 17.3431 29 19H27C27 18.4477 26.5523 18 26 18V16Z" fill="#282829" mask="url(#path-4-inside-2_2_61002)"/></svg>