<svg xmlns="http://www.w3.org/2000/svg" fill="none" viewBox="0 0 24 24" width="1em" height="1em"><path stroke="currentColor" stroke-linecap="round" d="M11 4v-.5a1 1 0 0 1 1-1h.5a1 1 0 0 1 1 1V4M11 12v-2m0 8v2.5a1 1 0 0 0 1 1h.5a1 1 0 0 0 1-1V18m0-6v-2"/><path stroke="currentColor" d="M3.5 6A1.5 1.5 0 0 1 5 4.5h13.377a.5.5 0 0 1 .34.134l.337-.364-.337.364 2.154 2a.5.5 0 0 1 0 .732l-2.154 2a.5.5 0 0 1-.34.134H5A1.5 1.5 0 0 1 3.5 8zm17 8a1.5 1.5 0 0 0-1.5-1.5H5.623a.5.5 0 0 0-.34.134l-.337-.364.337.364-2.154 2a.5.5 0 0 0 0 .732l2.154 2a.5.5 0 0 0 .34.134H19a1.5 1.5 0 0 0 1.5-1.5z"/></svg>
