<svg viewBox="0 0 16 16" fill="none" xmlns="http://www.w3.org/2000/svg" width="1em" height="1em"><mask id="path-1-inside-1_2_60991" fill="currentColor"><path d="M3 4.00007C3 3.44779 3.44771 3.00007 3.99999 3.00007L11.679 3C11.8877 3 12.0913 3.06534 12.261 3.18685L13.4792 4.05876C14.0017 4.43277 14.0409 5.19543 13.5595 5.62106L12.2837 6.74915C12.1009 6.91078 11.8653 7 11.6213 7L4.00001 7.00007C3.44772 7.00007 3 6.55236 3 6.00007L3 4.00007Z"/></mask><path d="M13.4792 4.05876L12.8971 4.87192L13.4792 4.05876ZM13.5595 5.62106L12.8971 4.87192L13.5595 5.62106ZM4.00001 7.00007L4 6.00007L4.00001 7.00007ZM11.6213 7L11.6213 6L11.6213 7ZM12.2837 6.74915L11.6213 6L12.2837 6.74915ZM12.261 3.18685L11.679 4L12.261 3.18685ZM4 4.00007L11.679 4L11.679 2L3.99999 2.00007L4 4.00007ZM11.6213 6L4 6.00007L4.00002 8.00007L11.6213 8L11.6213 6ZM4 6.00007L4 4.00007L2 4.00007L2 6.00007L4 6.00007ZM11.679 4L12.8971 4.87192L14.0612 3.24561L12.8431 2.37369L11.679 4ZM12.8971 4.87192L11.6213 6L12.9461 7.4983L14.2219 6.37021L12.8971 4.87192ZM12.8971 4.87192V4.87192L14.2219 6.37021C15.1847 5.51894 15.1062 3.99361 14.0612 3.24561L12.8971 4.87192ZM4 6.00007L2 6.00007C2 7.10464 2.89544 8.00008 4.00002 8.00007L4 6.00007ZM11.6213 8C12.1093 8 12.5805 7.82156 12.9461 7.4983L11.6213 6V6L11.6213 8ZM11.679 4L12.8431 2.37369C12.5036 2.13067 12.0965 2 11.679 2L11.679 4ZM3.99999 2.00007C2.89542 2.00008 2 2.8955 2 4.00007L4 4.00007L3.99999 2.00007Z" fill="currentColor" mask="url(#path-1-inside-1_2_60991)"/><mask id="path-3-inside-2_2_60991" fill="currentColor"><path d="M13 10.0001C13 9.44779 12.5523 9.00007 12 9.00007L4.32102 9C4.11226 9 3.90872 9.06534 3.73897 9.18685L2.52085 10.0588C1.99835 10.4328 1.95912 11.1954 2.44049 11.6211L3.71631 12.7492C3.89911 12.9108 4.13469 13 4.3787 13L12 13.0001C12.5523 13.0001 13 12.5524 13 12.0001L13 10.0001Z"/></mask><path d="M2.52085 10.0588L3.1029 10.8719L2.52085 10.0588ZM2.44049 11.6211L3.1029 10.8719L2.44049 11.6211ZM12 13.0001L12 12.0001L12 13.0001ZM4.3787 13L4.37871 12L4.3787 13ZM3.71631 12.7492L4.37871 12L3.71631 12.7492ZM3.73897 9.18685L4.32101 10L3.73897 9.18685ZM12 10.0001L4.32101 10L4.32103 8L12 8.00007L12 10.0001ZM4.37871 12L12 12.0001L12 14.0001L4.37869 14L4.37871 12ZM12 12.0001L12 10.0001L14 10.0001L14 12.0001L12 12.0001ZM4.32101 10L3.1029 10.8719L1.9388 9.24561L3.15692 8.37369L4.32101 10ZM3.1029 10.8719L4.37871 12L3.0539 13.4983L1.77809 12.3702L3.1029 10.8719ZM3.1029 10.8719V10.8719L1.77809 12.3702C0.815342 11.5189 0.893793 9.99361 1.9388 9.24561L3.1029 10.8719ZM12 12.0001H12L14 12.0001C14 13.1046 13.1046 14.0001 12 14.0001L12 12.0001ZM4.37869 14C3.89068 14 3.4195 13.8216 3.0539 13.4983L4.37871 12V12L4.37869 14ZM4.32101 10L3.15692 8.37369C3.49643 8.13067 3.9035 8 4.32103 8L4.32101 10ZM12 8.00007C13.1046 8.00008 14 8.8955 14 10.0001L12 10.0001L12 8.00007Z" fill="currentColor" mask="url(#path-3-inside-2_2_60991)"/></svg>
