<svg viewBox="0 0 32 32" fill="none" xmlns="http://www.w3.org/2000/svg" width="1em" height="1em"><path d="M15.152 3.8568C15.5437 3.23013 16.4563 3.23013 16.848 3.8568L20.0438 8.97C20.46 9.63605 19.9812 10.5 19.1958 10.5L12.8042 10.5C12.0188 10.5 11.54 9.63605 11.9562 8.97L15.152 3.8568Z" fill="currentColor" stroke="currentColor"/><path d="M9.70313 13.9453C9.8886 13.6671 10.2008 13.5 10.5352 13.5L21.4648 13.5C21.7992 13.5 22.1114 13.6671 22.2969 13.9453L24.9635 17.9453C25.4066 18.6099 24.9302 19.5 24.1315 19.5L7.86852 19.5C7.06982 19.5 6.59343 18.6099 7.03647 17.9453L9.70313 13.9453Z" fill="currentColor" stroke="currentColor"/><path d="M5.70313 22.9453C5.8886 22.6671 6.20083 22.5 6.53518 22.5L25.4256 22.5C25.7813 22.5 26.1102 22.6889 26.2894 22.9961L28.6227 26.9961C29.0116 27.6628 28.5308 28.5 27.759 28.5L3.86852 28.5C3.06982 28.5 2.59343 27.6099 3.03647 26.9453L5.70313 22.9453Z" fill="currentColor" stroke="currentColor"/></svg>
