<svg xmlns="http://www.w3.org/2000/svg" fill="none" viewBox="0 0 24 24" width="1em" height="1em"><path fill="currentColor" stroke="currentColor" d="M11.395 3.908a.727.727 0 0 1 1.21 0l1.641 2.461a.727.727 0 0 1-.605 1.131H10.36a.727.727 0 0 1-.605-1.13l1.641-2.462ZM7.799 9.902a.727.727 0 0 1 .65-.402h7.101c.276 0 .528.156.651.402l1.273 2.546a.727.727 0 0 1-.65 1.052H7.176a.727.727 0 0 1-.65-1.053l1.272-2.545Zm-3.011 5.951a.727.727 0 0 1 .624-.353h13.176c.256 0 .492.134.624.353l2.127 3.545a.727.727 0 0 1-.623 1.102H3.284a.727.727 0 0 1-.624-1.102l2.127-3.545Z"/></svg>
