<svg viewBox="0 0 24 24" fill="none" xmlns="http://www.w3.org/2000/svg" stroke="currentColor" width="1em" height="1em"><path d="M2.5 12C2.5 11.1716 3.17157 10.5 4 10.5H14C14.8284 10.5 15.5 11.1716 15.5 12V20C15.5 20.8284 14.8284 21.5 14 21.5H4C3.17157 21.5 2.5 20.8284 2.5 20V12Z"/><path d="M8.99998 13.5C8.04603 13.5 7.27271 14.2733 7.27271 15.2273C7.27271 15.8666 7.62006 16.4248 8.13634 16.7235L7.49994 18.5H10.4999L9.86361 16.7235C10.3799 16.4248 10.7273 15.8666 10.7273 15.2273C10.7273 14.2733 9.95392 13.5 8.99998 13.5Z" stroke-linejoin="round"/><path d="M21.5 9.39394V7.03033C21.5 4.5283 19.4717 2.5 16.9697 2.5V2.5V2.5C14.5011 2.5 12.5 4.50114 12.5 6.96967V10" stroke-linecap="round"/></svg>
