<svg viewBox="0 0 32 32" fill="none" xmlns="http://www.w3.org/2000/svg" stroke="currentColor"><path d="M2.41113 16C2.41113 15.1716 3.08271 14.5 3.91113 14.5H19C19.8284 14.5 20.5 15.1716 20.5 16V28C20.5 28.8284 19.8284 29.5 19 29.5H3.91113C3.08271 29.5 2.41113 28.8284 2.41113 28V16Z"/><path d="M11.5001 18.5C10.1991 18.5 9.14451 19.5546 9.14451 20.8556C9.14451 21.7274 9.61821 22.4887 10.3223 22.896L9.50006 26.5H13.5001L12.6778 22.896C13.3819 22.4887 13.8556 21.7274 13.8556 20.8556C13.8556 19.5546 12.801 18.5 11.5001 18.5Z" stroke-linejoin="round"/><path d="M29.5889 12.6V8.54446C29.5889 4.93005 26.6589 2 23.0445 2V2C19.4301 2 16.5 4.93005 16.5 8.54446V14.5" stroke-linecap="round"/></svg>