<svg viewBox="0 0 32 32" fill="none" xmlns="http://www.w3.org/2000/svg" width="1em" height="1em"><path d="M2.41113 16C2.41113 15.1716 3.08271 14.5 3.91113 14.5L19 14.5C19.8284 14.5 20.5 15.1716 20.5 16L20.5 28C20.5 28.8284 19.8284 29.5 19 29.5L3.91113 29.5C3.08271 29.5 2.41113 28.8284 2.41113 28L2.41113 16Z" stroke="currentColor"/><path d="M11.5 18.5C10.1991 18.5 9.14444 19.5546 9.14444 20.8556C9.14444 21.7274 9.61815 22.4887 10.3222 22.896L9.5 26.5H13.5L12.6778 22.896C13.3819 22.4887 13.8556 21.7274 13.8556 20.8556C13.8556 19.5546 12.8009 18.5 11.5 18.5Z" stroke="currentColor" stroke-linejoin="round"/><path d="M29.5889 12.6V8.54446C29.5889 4.93005 26.6589 2 23.0445 2V2C19.4301 2 16.5 4.93005 16.5 8.54446L16.5 14.5" stroke="currentColor" stroke-linecap="round"/></svg>
