<svg xmlns="http://www.w3.org/2000/svg" fill="none" viewBox="0 0 16 16" width="1em" height="1em"><path stroke="currentColor" d="M2.5 9A1.5 1.5 0 0 1 4 7.5h5A1.5 1.5 0 0 1 10.5 9v4A1.5 1.5 0 0 1 9 14.5H4A1.5 1.5 0 0 1 2.5 13z"/><circle cx="6.5" cy="11" r=".5" stroke="currentColor"/><path stroke="currentColor" stroke-linecap="round" stroke-linejoin="round" d="M6.5 12.5v-1"/><path stroke="currentColor" stroke-linecap="round" d="M14 7V4.25a2.75 2.75 0 0 0-2.75-2.75v0A2.75 2.75 0 0 0 8.5 4.25V7"/></svg>
