<svg xmlns="http://www.w3.org/2000/svg" fill="none" viewBox="0 0 32 32" width="1em" height="1em"><path stroke="currentColor" d="M2.411 16a1.5 1.5 0 0 1 1.5-1.5H19a1.5 1.5 0 0 1 1.5 1.5v12a1.5 1.5 0 0 1-1.5 1.5H3.911a1.5 1.5 0 0 1-1.5-1.5V16Z"/><path stroke="currentColor" stroke-linejoin="round" d="M11.5 18.5a2.356 2.356 0 0 0-1.178 4.396L9.5 26.5h4l-.822-3.604A2.355 2.355 0 0 0 11.5 18.5Z"/><path stroke="currentColor" stroke-linecap="round" d="M29.589 12.6V8.544A6.544 6.544 0 0 0 23.045 2v0A6.544 6.544 0 0 0 16.5 8.544V14.5"/></svg>
