<svg xmlns="http://www.w3.org/2000/svg" fill="none" viewBox="0 0 24 24" width="1em" height="1em"><path stroke="currentColor" d="M2.5 12A1.5 1.5 0 0 1 4 10.5h10a1.5 1.5 0 0 1 1.5 1.5v8a1.5 1.5 0 0 1-1.5 1.5H4A1.5 1.5 0 0 1 2.5 20z"/><path stroke="currentColor" stroke-linejoin="round" d="M9 13.5a1.727 1.727 0 0 0-.864 3.224L7.5 18.5h3l-.636-1.776A1.727 1.727 0 0 0 9 13.5Z"/><path stroke="currentColor" stroke-linecap="round" d="M21.5 9.394V7.03a4.53 4.53 0 0 0-4.53-4.53v0a4.47 4.47 0 0 0-4.47 4.47V10"/></svg>
