<svg viewBox="0 0 32 32" fill="none" xmlns="http://www.w3.org/2000/svg" width="1em" height="1em"><path d="M3.5 6C3.5 5.17157 4.17157 4.5 5 4.5L27 4.5C27.8284 4.5 28.5 5.17157 28.5 6L28.5 27C28.5 27.8284 27.8284 28.5 27 28.5L5 28.5C4.17157 28.5 3.5 27.8284 3.5 27L3.5 6Z" stroke="currentColor" stroke-linejoin="round"/><path d="M9.5 2.5V6.5" stroke="currentColor" stroke-linecap="round" stroke-linejoin="round"/><path d="M22.5 2.5V6.5" stroke="currentColor" stroke-linecap="round" stroke-linejoin="round"/><path d="M3.5 10.5L28.5 10.5" stroke="currentColor" stroke-linecap="round" stroke-linejoin="round"/><circle cx="9.5" cy="22.5" r="1" stroke="currentColor"/><circle cx="9.5" cy="16.5" r="1" stroke="currentColor"/><circle cx="16" cy="22.5" r="1" stroke="currentColor"/><circle cx="16" cy="16.5" r="1" stroke="currentColor"/><circle cx="22.5" cy="22.5" r="1" stroke="currentColor"/><circle cx="22.5" cy="16.5" r="1" stroke="currentColor"/></svg>
