<svg xmlns="http://www.w3.org/2000/svg" fill="none" viewBox="0 0 32 32" width="1em" height="1em"><path stroke="currentColor" stroke-linejoin="round" d="M3.5 6A1.5 1.5 0 0 1 5 4.5h22A1.5 1.5 0 0 1 28.5 6v21a1.5 1.5 0 0 1-1.5 1.5H5A1.5 1.5 0 0 1 3.5 27z"/><path stroke="currentColor" stroke-linecap="round" stroke-linejoin="round" d="M9.5 2.5v4m13-4v4m-19 4h25"/><circle cx="9.5" cy="22.5" r="1" stroke="currentColor"/><circle cx="9.5" cy="16.5" r="1" stroke="currentColor"/><circle cx="16" cy="22.5" r="1" stroke="currentColor"/><circle cx="16" cy="16.5" r="1" stroke="currentColor"/><circle cx="22.5" cy="22.5" r="1" stroke="currentColor"/><circle cx="22.5" cy="16.5" r="1" stroke="currentColor"/></svg>
