<svg xmlns="http://www.w3.org/2000/svg" fill="none" viewBox="0 0 33 32" width="1em" height="1em"><path stroke="currentColor" stroke-linecap="round" d="M30.19 14c-.98-6.785-6.874-12-14-12-7.124 0-13.019 5.215-14 12m0 4c.981 6.785 6.876 12 14 12 7.126 0 13.02-5.215 14-12"/><path stroke="currentColor" stroke-linecap="round" stroke-linejoin="round" d="m26.727 12.5 3.464 2 2-3.464M.5 21.125 2.19 17.5l3.626 1.69"/><path fill="currentColor" d="M15.295 16.616c0 1.032-.096 1.848-.66 2.52-.564.648-1.392 1.008-2.484 1.008-1.104 0-1.932-.36-2.484-1.008-.576-.672-.672-1.488-.672-2.52V11.72h1.176v4.788c0 .696.012 1.368.384 1.86.336.456.876.732 1.596.732s1.248-.276 1.596-.732c.372-.492.384-1.176.384-1.86V11.72h1.164zM24.261 20h-1.404l-2.1-3.516L18.669 20h-1.392l2.736-4.272-2.544-4.008h1.368l1.92 3.228 1.932-3.228h1.368l-2.544 4.008z"/></svg>
