<svg xmlns="http://www.w3.org/2000/svg" fill="none" viewBox="0 0 18 18" width="1em" height="1em"><path stroke="currentColor" stroke-width=".087" d="M1 1h16M1 1v16M1 1l16 16m0-16v16m0-16L1 17m16 0H1"/><circle cx="9" cy="9" r="6.667" stroke="currentColor" stroke-width=".087"/><rect width="13.333" height="10.667" x="2.333" y="3.667" stroke="currentColor" stroke-width=".087" rx="1.333"/><rect width="10.667" height="13.333" x="3.667" y="2.333" stroke="currentColor" stroke-width=".087" rx="1.333"/><rect width="12" height="12" x="3" y="3" stroke="currentColor" stroke-width=".087" rx="1.333"/><circle cx="9" cy="9" r="2.667" stroke="currentColor" stroke-width=".087"/><path stroke="currentColor" stroke-linecap="round" stroke-linejoin="round" d="M2.042 11.708 2.5 10l1.707.457M15.665 5.25l-.457 1.708L13.5 6.5"/><path stroke="currentColor" stroke-linecap="round" stroke-linejoin="round" d="M2.81 10.446a6.378 6.378 0 0 0 12.222 0M2.81 6.804a6.378 6.378 0 0 1 12.222 0"/><path fill="currentColor" d="M8.463 8.939c0 .582-.102.983-.396 1.302-.288.312-.738.492-1.338.492-.606 0-1.05-.18-1.344-.492-.288-.319-.39-.72-.39-1.303v-2.41h.978v2.411c0 .294.024.522.162.69a.74.74 0 0 0 .594.258.74.74 0 0 0 .594-.257c.138-.168.162-.396.162-.69V6.526h.978zm4.28 1.727h-1.157l-.852-1.542-.858 1.542H8.718l1.374-2.148-1.284-1.992H9.96l.774 1.362.774-1.361h1.152l-1.29 1.991z"/></svg>
