<svg xmlns="http://www.w3.org/2000/svg" fill="none" viewBox="0 0 38 38" width="1em" height="1em"><path stroke="currentColor" stroke-linecap="round" d="M30.384 19.372c.172-5.519-3.774-10.48-9.426-11.476-5.651-.997-11.056 2.316-12.783 7.56m-.559 3.173c-.171 5.518 3.775 10.48 9.426 11.476 5.652.996 11.057-2.316 12.783-7.56"/><path stroke="currentColor" stroke-linecap="round" stroke-linejoin="round" d="m27.23 16.808 3.142 2.636 2.635-3.141M5.109 21.48l2.352-3.36 3.358 2.353"/><path fill="currentColor" d="M18.24 16.186v3.736c0 .849-.12 1.467-.563 1.974-.434.49-1.098.766-1.984.766s-1.55-.276-1.983-.765c-.443-.508-.563-1.126-.563-1.975v-3.736h1.208v3.7c0 .488.019.922.268 1.245.23.295.59.48 1.07.48.49 0 .84-.185 1.07-.48.25-.323.277-.757.277-1.246v-3.7zm4.306 3.829-1.476 2.537h-1.42l2.112-3.294-1.974-3.072h1.411l1.338 2.297 1.337-2.297h1.412l-1.974 3.081 2.112 3.285h-1.43z"/></svg>
