<svg viewBox="0 0 24 24" fill="none" xmlns="http://www.w3.org/2000/svg" width="1em" height="1em"><path d="M9.50007 5.99994L4.16409 14.8933C3.79873 15.5022 4.00028 16.2946 4.61219 16.6551L11.6052 20.775" stroke="currentColor" stroke-linecap="round"/><path d="M19.9183 9.54146L19.428 9.63952L19.9183 9.54146L19.1831 5.86544C19.0226 5.06316 18.2488 4.53745 17.4439 4.68382L13.3679 5.42493C12.933 5.504 12.5551 5.77087 12.3351 6.15428L7.87279 13.9322C7.46473 14.6435 7.70344 15.5506 8.40874 15.9689L13.3603 18.9054C14.0871 19.3364 15.0263 19.0823 15.4367 18.3436L19.7587 10.5641C19.9315 10.253 19.9881 9.89049 19.9183 9.54146Z" stroke="currentColor" stroke-linecap="round"/><circle r="1" transform="matrix(0.86486 0.502013 -0.497984 0.867186 16.5503 8.0538)" stroke="currentColor"/></svg>
