<svg xmlns="http://www.w3.org/2000/svg" fill="none" viewBox="0 0 32 32" width="1em" height="1em"><path stroke="currentColor" stroke-linecap="round" d="m13.888 7.574-7.73 13.72a1.618 1.618 0 0 0 .583 2.177l8.7 5.145"/><path stroke="currentColor" stroke-linecap="round" d="m10.695 8.4-7.73 13.72a1.618 1.618 0 0 0 .583 2.177l8.7 5.144"/><path stroke="currentColor" stroke-linecap="round" d="M17.93 6.684A2.5 2.5 0 0 0 16.384 7.9L9.965 19.638a2.5 2.5 0 0 0 .944 3.365l7.006 4.044a2.5 2.5 0 0 0 3.415-.915l6.49-11.24a2.5 2.5 0 0 0 .25-1.897l-1.61-6.008a2.5 2.5 0 0 0-3.062-1.768L17.93 6.684Z"/><circle cx="1.597" cy="1.597" r="1.097" stroke="currentColor" transform="matrix(.86074 .50904 -.4909 .87121 22.751 7.012)"/></svg>
