<svg viewBox="0 0 24 24" fill="none" xmlns="http://www.w3.org/2000/svg" stroke="currentColor" width="1em" height="1em"><path d="M9.49995 5.99994L4.16397 14.8933C3.79861 15.5022 4.00016 16.2946 4.61206 16.6551L11.6051 20.775" stroke-linecap="round"/><path d="M19.9182 9.54146L19.4279 9.63952L19.9182 9.54146L19.183 5.86544C19.0225 5.06316 18.2487 4.53745 17.4437 4.68382L13.3677 5.42493C12.9328 5.504 12.555 5.77087 12.335 6.15428L7.87267 13.9322C7.46461 14.6435 7.70332 15.5506 8.40861 15.9689L13.3602 18.9054C14.087 19.3364 15.0262 19.0823 15.4366 18.3436L19.7585 10.5641C19.9314 10.253 19.988 9.89049 19.9182 9.54146Z" stroke-linecap="round"/><circle r="1" transform="matrix(0.86486 0.502013 -0.497984 0.867186 16.5503 8.0538)"/></svg>
