<svg xmlns="http://www.w3.org/2000/svg" fill="none" viewBox="0 0 16 16" width="1em" height="1em"><path stroke="currentColor" stroke-linecap="round" d="m5.5 5.5-2.521 4.622a1 1 0 0 0 .399 1.357L8 14"/><path stroke="currentColor" stroke-linecap="round" d="M9.265 3.904a1.5 1.5 0 0 0-.904.724L6.036 8.89a1.5 1.5 0 0 0 .589 2.029l2.72 1.51a1.5 1.5 0 0 0 2.07-.64l2.347-4.695a1.5 1.5 0 0 0 .082-1.145l-.567-1.699a1.5 1.5 0 0 0-1.835-.968l-2.177.622Z"/><path stroke="currentColor" stroke-width=".5" d="M11.467 5.558a.25.25 0 1 1-.433-.25.25.25 0 0 1 .433.25Z"/></svg>
