<svg xmlns="http://www.w3.org/2000/svg" fill="none" viewBox="0 0 24 24" width="1em" height="1em"><path stroke="currentColor" stroke-linecap="round" d="m9.5 6-5.336 8.893a1.28 1.28 0 0 0 .448 1.762l6.993 4.12"/><path stroke="currentColor" stroke-linecap="round" d="m19.918 9.542-.49.098.49-.098-.735-3.676a1.5 1.5 0 0 0-1.74-1.182l-4.075.741a1.5 1.5 0 0 0-1.033.73l-4.462 7.777a1.5 1.5 0 0 0 .536 2.037l4.951 2.937a1.5 1.5 0 0 0 2.077-.562l4.322-7.78a1.5 1.5 0 0 0 .16-1.022Z"/><circle cx="1.5" cy="1.5" r="1" stroke="currentColor" transform="matrix(.86486 .50201 -.49798 .86719 16 6)"/></svg>
