<svg viewBox="0 0 32 32" fill="none" xmlns="http://www.w3.org/2000/svg" stroke="currentColor" width="1em" height="1em"><path d="M13.8884 7.57386L6.15777 21.2935C5.73007 22.0525 5.99128 23.0274 6.74119 23.4709L15.4407 28.6157" stroke-linecap="round"/><path d="M10.6948 8.39954L2.96417 22.1192C2.53647 22.8782 2.79768 23.853 3.54759 24.2965L12.2471 29.4414" stroke-linecap="round"/><path d="M17.93 6.68404C17.2701 6.86087 16.7113 7.30007 16.3835 7.89953L9.96545 19.6381C9.31395 20.8297 9.73288 22.3234 10.909 23.0025L17.915 27.0474C19.1107 27.7377 20.6397 27.3281 21.3301 26.1323L27.8197 14.892C28.1512 14.3178 28.241 13.6354 28.0694 12.995L26.4595 6.98676C26.1022 5.65309 24.7313 4.86163 23.3977 5.21899L17.93 6.68404Z" stroke-linecap="round"/><circle r="1.09681" transform="matrix(0.860742 0.509041 -0.490904 0.871214 23.3419 9.21572)"/></svg>
