<svg viewBox="0 0 32 32" fill="none" xmlns="http://www.w3.org/2000/svg" width="1em" height="1em"><path d="M13.8883 7.57386L6.15765 21.2935C5.72995 22.0525 5.99116 23.0274 6.74107 23.4709L15.4405 28.6157" stroke="currentColor" stroke-linecap="round"/><path d="M10.6947 8.39954L2.96404 22.1192C2.53635 22.8782 2.79756 23.853 3.54747 24.2965L12.2469 29.4414" stroke="currentColor" stroke-linecap="round"/><path d="M17.9299 6.68404C17.27 6.86087 16.7112 7.30007 16.3834 7.89953L9.96533 19.6381C9.31383 20.8297 9.73275 22.3234 10.9089 23.0025L17.9149 27.0474C19.1106 27.7377 20.6396 27.3281 21.33 26.1323L27.8195 14.892C28.1511 14.3178 28.2409 13.6354 28.0693 12.995L26.4594 6.98676C26.1021 5.65309 24.7312 4.86163 23.3975 5.21899L17.9299 6.68404Z" stroke="currentColor" stroke-linecap="round"/><circle r="1.09681" transform="matrix(0.860742 0.509041 -0.490904 0.871214 23.342 9.21572)" stroke="currentColor"/></svg>
