<svg viewBox="0 0 16 16" fill="none" xmlns="http://www.w3.org/2000/svg" stroke="currentColor"><path d="M5.50004 5.49998L2.9789 10.1221C2.71444 10.6069 2.89309 11.2144 3.37794 11.4788L8.00005 14" stroke-linecap="round"/><path d="M9.26541 3.90409C8.87901 4.01448 8.55306 4.27531 8.36063 4.6281L6.03631 8.88938C5.64179 9.61267 5.90448 10.5188 6.62469 10.9189L9.34429 12.4298C10.0908 12.8445 11.0325 12.5532 11.4144 11.7894L13.7621 7.09402C13.94 6.7382 13.9693 6.32627 13.8435 5.94886L13.2772 4.25014C13.0233 3.48827 12.2143 3.06158 11.4421 3.28219L9.26541 3.90409Z" stroke-linecap="round"/><path d="M11.4666 5.55801C11.3975 5.67759 11.2446 5.71855 11.1251 5.64952C11.0055 5.58048 10.9645 5.42759 11.0336 5.30801C11.1026 5.18844 11.2555 5.14747 11.3751 5.21651C11.4946 5.28554 11.5356 5.43844 11.4666 5.55801Z" stroke-width="0.5"/></svg>