<svg xmlns="http://www.w3.org/2000/svg" fill="none" viewBox="0 0 16 16" width="1em" height="1em"><path stroke="currentColor" stroke-linecap="round" d="M10.5 3.5h2a1 1 0 0 1 1 1v1"/><path stroke="currentColor" stroke-linecap="round" stroke-linejoin="round" d="M11 2 9.5 3.5 11 5"/><path stroke="currentColor" stroke-linecap="round" d="M6.5 12.5h-3a1 1 0 0 1-1-1v-1"/><path stroke="currentColor" stroke-linecap="round" stroke-linejoin="round" d="M5.086 14 6.5 12.5 5.086 11"/><path stroke="currentColor" stroke-linecap="round" d="M6 4v-.667C6 2.953 5.625 2 4.5 2S3 2.952 3 3.333V4"/><path stroke="currentColor" d="M2.33 4.902a.5.5 0 0 1 .49-.402h3.36a.5.5 0 0 1 .49.402l.6 3a.5.5 0 0 1-.49.598H2.22a.5.5 0 0 1-.49-.598l.6-3Z"/><path stroke="currentColor" stroke-linecap="round" d="M13 9v-.667C13 7.953 12.625 7 11.5 7S10 7.952 10 8.333V9"/><path stroke="currentColor" d="M9.33 9.902a.5.5 0 0 1 .49-.402h3.36a.5.5 0 0 1 .49.402l.6 3a.5.5 0 0 1-.49.598H9.22a.5.5 0 0 1-.49-.598l.6-3Z"/></svg>
