<svg xmlns="http://www.w3.org/2000/svg" fill="none" viewBox="0 0 32 32" width="1em" height="1em"><path stroke="currentColor" d="M4.573 8.9A1.5 1.5 0 0 1 6.07 7.5h5.86a1.5 1.5 0 0 1 1.497 1.4l.466 7a1.5 1.5 0 0 1-1.496 1.6H5.603a1.5 1.5 0 0 1-1.496-1.6z"/><path stroke="currentColor" stroke-linecap="round" d="M11 10V7.143C11 6 10.544 4.5 9 4.5S7 6 7 7.143V9.5"/><circle cx="7" cy="10" r=".5" stroke="currentColor"/><circle cx="11" cy="10" r=".5" stroke="currentColor"/><path stroke="currentColor" d="M18.573 18.9a1.5 1.5 0 0 1 1.497-1.4h5.86a1.5 1.5 0 0 1 1.497 1.4l.466 7a1.5 1.5 0 0 1-1.496 1.6h-6.794a1.5 1.5 0 0 1-1.496-1.6z"/><path stroke="currentColor" stroke-linecap="round" d="M25 20v-2.857C25 16 24.544 14.5 23 14.5s-2 1.5-2 2.643V19.5"/><circle cx="21" cy="20" r=".5" stroke="currentColor"/><circle cx="25" cy="20" r=".5" stroke="currentColor"/><path stroke="currentColor" stroke-linecap="round" stroke-linejoin="round" d="M16.5 6.5h7a2 2 0 0 1 2 2v4"/><path stroke="currentColor" stroke-linecap="round" stroke-linejoin="round" d="m18 8.5-2-2 2-2m-4.5 21h-7a2 2 0 0 1-2-2v-4"/><path stroke="currentColor" stroke-linecap="round" stroke-linejoin="round" d="m12 23.5 2 2-2 2"/></svg>
