<svg viewBox="0 0 32 32" fill="none" xmlns="http://www.w3.org/2000/svg" width="1em" height="1em"><path d="M4.57332 8.90022C4.62585 8.11228 5.2803 7.5 6.07 7.5L11.93 7.5C12.7197 7.5 13.3742 8.11227 13.4267 8.90022L13.8933 15.9002C13.9511 16.766 13.2644 17.5 12.3967 17.5H5.60333C4.73563 17.5 4.04893 16.766 4.10665 15.9002L4.57332 8.90022Z" stroke="currentColor"/><path d="M11 10V7.14286C11 6 10.5437 4.5 9 4.5C7.45627 4.5 7 6 7 7.14286V9.5" stroke="currentColor" stroke-linecap="round"/><circle cx="7" cy="10" r="0.5" stroke="currentColor"/><circle cx="11" cy="10" r="0.5" stroke="currentColor"/><path d="M18.5733 18.9002C18.6258 18.1123 19.2803 17.5 20.07 17.5H25.93C26.7197 17.5 27.3742 18.1123 27.4267 18.9002L27.8933 25.9002C27.9511 26.766 27.2644 27.5 26.3967 27.5H19.6033C18.7356 27.5 18.0489 26.766 18.1067 25.9002L18.5733 18.9002Z" stroke="currentColor"/><path d="M25 20V17.1429C25 16 24.5437 14.5 23 14.5C21.4563 14.5 21 16 21 17.1429V19.5" stroke="currentColor" stroke-linecap="round"/><circle cx="21" cy="20" r="0.5" stroke="currentColor"/><circle cx="25" cy="20" r="0.5" stroke="currentColor"/><path d="M16.5 6.5L23.5 6.5C24.6046 6.5 25.5 7.39543 25.5 8.5L25.5 12.5" stroke="currentColor" stroke-linecap="round" stroke-linejoin="round"/><path d="M18 8.5L16 6.5L18 4.5" stroke="currentColor" stroke-linecap="round" stroke-linejoin="round"/><path d="M13.5 25.5L6.5 25.5C5.39543 25.5 4.5 24.6046 4.5 23.5L4.5 19.5" stroke="currentColor" stroke-linecap="round" stroke-linejoin="round"/><path d="M12 23.5L14 25.5L12 27.5" stroke="currentColor" stroke-linecap="round" stroke-linejoin="round"/></svg>
