<svg xmlns="http://www.w3.org/2000/svg" fill="none" viewBox="0 0 24 24" width="1em" height="1em"><path stroke="currentColor" d="M3.316 6.788A1.5 1.5 0 0 1 4.801 5.5h3.398a1.5 1.5 0 0 1 1.485 1.288l.571 4A1.5 1.5 0 0 1 8.77 12.5H4.23a1.5 1.5 0 0 1-1.485-1.712z"/><path stroke="currentColor" stroke-linecap="round" d="M8 6.5v-1c0-1.022-.402-2-1.5-2S5 4.478 5 5.5v1"/><path stroke="currentColor" d="M14.316 14.788a1.5 1.5 0 0 1 1.485-1.288h3.398a1.5 1.5 0 0 1 1.485 1.288l.571 4A1.5 1.5 0 0 1 19.77 20.5h-4.54a1.5 1.5 0 0 1-1.485-1.712z"/><path stroke="currentColor" stroke-linecap="round" d="M19 14.5v-1c0-1.022-.402-2-1.5-2s-1.5.978-1.5 2v1m-2.5-9h4a2 2 0 0 1 2 2v2"/><path stroke="currentColor" stroke-linecap="round" stroke-linejoin="round" d="m14.5 3.5-2 2 2 2"/><path stroke="currentColor" stroke-linecap="round" d="M9.5 18.5h-4a2 2 0 0 1-2-2v-2"/><path stroke="currentColor" stroke-linecap="round" stroke-linejoin="round" d="m8.5 20.5 2-2-2-2"/></svg>
