<svg viewBox="0 0 16 16" fill="none" xmlns="http://www.w3.org/2000/svg" width="1em" height="1em"><path d="M10.5 3.5H12.5C13.0523 3.5 13.5 3.94772 13.5 4.5V5.5" stroke="currentColor" stroke-linecap="round"/><path d="M11 2L9.5 3.5L11 5" stroke="currentColor" stroke-linecap="round" stroke-linejoin="round"/><path d="M6.5 12.5H3.5C2.94772 12.5 2.5 12.0523 2.5 11.5V10.5" stroke="currentColor" stroke-linecap="round"/><path d="M5.08582 14L6.49997 12.5L5.08581 11" stroke="currentColor" stroke-linecap="round" stroke-linejoin="round"/><path d="M6 4V3.33333C6 2.95238 5.625 2 4.5 2C3.375 2 3 2.95238 3 3.33333V4" stroke="currentColor" stroke-linecap="round"/><path d="M2.32951 4.90194C2.37626 4.66823 2.58146 4.5 2.8198 4.5H6.1802C6.41854 4.5 6.62374 4.66823 6.67049 4.90194L7.27049 7.90194C7.33237 8.21134 7.09572 8.5 6.7802 8.5H2.2198C1.90428 8.5 1.66763 8.21134 1.72951 7.90194L2.32951 4.90194Z" stroke="currentColor"/><path d="M13 9V8.33333C13 7.95238 12.625 7 11.5 7C10.375 7 10 7.95238 10 8.33333V9" stroke="currentColor" stroke-linecap="round"/><path d="M9.32951 9.90194C9.37626 9.66823 9.58146 9.5 9.8198 9.5H13.1802C13.4185 9.5 13.6237 9.66823 13.6705 9.90194L14.2705 12.9019C14.3324 13.2113 14.0957 13.5 13.7802 13.5H9.2198C8.90428 13.5 8.66763 13.2113 8.72951 12.9019L9.32951 9.90194Z" stroke="currentColor"/></svg>
