<svg viewBox="0 0 32 32" fill="none" xmlns="http://www.w3.org/2000/svg" stroke="currentColor"><path d="M9.5 9.5H10C10 9.22386 9.77614 9 9.5 9V9.5ZM6.5 9.5L6.13447 9.15884C5.99862 9.30439 5.96208 9.51667 6.04143 9.69927C6.12078 9.88188 6.3009 10 6.5 10V9.5ZM12.7689 2.78327L12.4034 2.44212L12.4034 2.44212L12.7689 2.78327ZM14.231 2.78327L14.5966 2.44211V2.44211L14.231 2.78327ZM20.5 9.5V10C20.6991 10 20.8792 9.88188 20.9586 9.69927C21.0379 9.51667 21.0014 9.30439 20.8655 9.15884L20.5 9.5ZM17.5 9.5V9C17.2238 9 17 9.22386 17 9.5H17.5ZM17 13.5C17 13.7761 17.2238 14 17.5 14C17.7761 14 18 13.7761 18 13.5H17ZM18 27.5C18 27.2239 17.7761 27 17.5 27C17.2239 27 17 27.2239 17 27.5H18ZM16.5 29H10.5V30H16.5V29ZM10 28.5V9.5H9V28.5H10ZM9.5 9H6.5V10H9.5V9ZM6.86553 9.84116L13.1344 3.12443L12.4034 2.44212L6.13447 9.15884L6.86553 9.84116ZM13.8655 3.12443L20.1345 9.84116L20.8655 9.15884L14.5966 2.44211L13.8655 3.12443ZM20.5 9H17.5V10H20.5V9ZM17 9.5V13.5H18V9.5H17ZM18 28.5V27.5H17V28.5H18ZM13.1344 3.12443C13.3321 2.91264 13.6678 2.91264 13.8655 3.12443L14.5966 2.44211C14.0035 1.80675 12.9964 1.80675 12.4034 2.44212L13.1344 3.12443ZM10.5 29C10.2239 29 10 28.7761 10 28.5H9C9 29.3284 9.67157 30 10.5 30V29ZM16.5 30C17.3284 30 18 29.3284 18 28.5H17C17 28.7761 16.7761 29 16.5 29V30Z" fill="#282829"/><path d="M16.929 24.0708L24 16.9997" stroke-linecap="round"/><circle cx="18" cy="18" r="1.5"/><circle cx="23" cy="23" r="1.5"/></svg>
