<svg viewBox="0 0 17 16" fill="none" xmlns="http://www.w3.org/2000/svg" stroke="currentColor"><path d="M4.23536 13.5H4.73536H4.23536ZM4.23535 5.5L4.73535 5.5C4.73535 5.22386 4.51149 5 4.23535 5V5.5ZM3.02527 5.5L2.65191 5.16743C2.52088 5.31453 2.48844 5.52485 2.56904 5.70459C2.64965 5.88434 2.82828 6 3.02527 6V5.5ZM6.58826 1.5L6.96161 1.16743C6.86674 1.06092 6.73089 0.999999 6.58825 1C6.44562 1 6.30977 1.06092 6.2149 1.16743L6.58826 1.5ZM10.1513 5.5V6C10.3483 6 10.5269 5.88433 10.6076 5.70459C10.6882 5.52484 10.6557 5.31452 10.5247 5.16743L10.1513 5.5ZM8.94123 5.5V5C8.66508 5 8.44123 5.22386 8.44123 5.5H8.94123ZM8.44123 6.5C8.44123 6.77614 8.66508 7 8.94123 7C9.21737 7 9.44123 6.77614 9.44123 6.5H8.44123ZM9.64289 13.5C9.64289 13.2239 9.41903 13 9.14289 13C8.86675 13 8.64289 13.2239 8.64289 13.5H9.64289ZM8.14289 14H5.23536V15H8.14289V14ZM4.73536 13.5L4.73535 5.5L3.73535 5.5L3.73536 13.5H4.73536ZM4.23535 5H3.02527V6H4.23535V5ZM3.39863 5.83257L6.96162 1.83257L6.2149 1.16743L2.65191 5.16743L3.39863 5.83257ZM6.2149 1.83257L9.77797 5.83257L10.5247 5.16743L6.96161 1.16743L6.2149 1.83257ZM10.1513 5H8.94123V6H10.1513V5ZM8.44123 5.5V6.5H9.44123V5.5H8.44123ZM5.23536 14C4.95922 14 4.73536 13.7761 4.73536 13.5H3.73536C3.73536 14.3284 4.40693 15 5.23536 15V14ZM8.14289 15C8.97132 15 9.64289 14.3284 9.64289 13.5H8.64289C8.64289 13.7761 8.41903 14 8.14289 14V15Z" fill="#282829"/><path d="M7.52939 12.2426L11.5225 8" stroke-linecap="round"/><path d="M8.44119 8.5C8.44119 8.80513 8.21555 9 8.00001 9C7.78448 9 7.55884 8.80513 7.55884 8.5C7.55884 8.19487 7.78448 8 8.00001 8C8.21555 8 8.44119 8.19487 8.44119 8.5Z"/><mask id="path-4-inside-1_2_63030" fill="white"><ellipse cx="11.2941" cy="12" rx="0.941176" ry="1"/></mask><path d="M11.2353 12C11.2353 12.0195 11.2284 12.0249 11.2314 12.0217C11.233 12.02 11.2388 12.0146 11.2505 12.0093C11.2632 12.0036 11.2788 12 11.2941 12V14C12.4224 14 13.2353 13.0466 13.2353 12H11.2353ZM11.2941 12C11.3094 12 11.325 12.0036 11.3376 12.0093C11.3494 12.0146 11.3551 12.02 11.3568 12.0217C11.3598 12.0249 11.3529 12.0195 11.3529 12H9.35291C9.35291 13.0466 10.1658 14 11.2941 14V12ZM11.3529 12C11.3529 11.9805 11.3598 11.9751 11.3568 11.9783C11.3551 11.98 11.3494 11.9854 11.3376 11.9907C11.325 11.9964 11.3094 12 11.2941 12V10C10.1658 10 9.35291 10.9534 9.35291 12H11.3529ZM11.2941 12C11.2788 12 11.2632 11.9964 11.2505 11.9907C11.2388 11.9854 11.233 11.98 11.2314 11.9783C11.2284 11.9751 11.2353 11.9805 11.2353 12H13.2353C13.2353 10.9534 12.4224 10 11.2941 10V12Z" fill="#282829" mask="url(#path-4-inside-1_2_63030)"/></svg>