<svg viewBox="0 0 26 26" fill="none" xmlns="http://www.w3.org/2000/svg" width="1em" height="1em"><path d="M7.5 21.5H7H7.5ZM7.50002 8.5L8.00002 8.5C8.00002 8.36739 7.94734 8.24022 7.85358 8.14645C7.75981 8.05268 7.63263 8 7.50002 8V8.5ZM5.50002 8.5L5.13005 8.16367C4.99692 8.31011 4.9627 8.52129 5.04276 8.70228C5.12283 8.88327 5.30211 9 5.50002 9V8.5ZM9.76004 3.81394L9.39007 3.4776V3.4776L9.76004 3.81394ZM11.2399 3.81393L10.87 4.15027L10.87 4.15027L11.2399 3.81393ZM15.5 8.5V9C15.6979 9 15.8772 8.88327 15.9573 8.70228C16.0373 8.52129 16.0031 8.3101 15.87 8.16366L15.5 8.5ZM13.5 8.5V8C13.2239 8 13 8.22386 13 8.5H13.5ZM13 10.5C13 10.7761 13.2239 11 13.5 11C13.7761 11 14 10.7761 14 10.5H13ZM13.8571 21.5C13.8571 21.2239 13.6333 21 13.3571 21C13.081 21 12.8571 21.2239 12.8571 21.5H13.8571ZM12.3571 22H8.5V23H12.3571V22ZM8 21.5L8.00002 8.5L7.00002 8.5L7 21.5H8ZM7.50002 8H5.50002V9H7.50002V8ZM5.86999 8.83633L10.13 4.15027L9.39007 3.4776L5.13005 8.16367L5.86999 8.83633ZM10.87 4.15027L15.1301 8.83634L15.87 8.16366L11.6099 3.47759L10.87 4.15027ZM15.5 8H13.5V9H15.5V8ZM13 8.5V10.5H14V8.5H13ZM10.13 4.15027C10.3284 3.93205 10.6716 3.93205 10.87 4.15027L11.6099 3.47759C11.0147 2.82294 9.98521 2.82295 9.39007 3.4776L10.13 4.15027ZM8.5 22C8.22386 22 8 21.7761 8 21.5H7C7 22.3284 7.67157 23 8.5 23V22ZM12.3571 23C13.1856 23 13.8571 22.3284 13.8571 21.5H12.8571C12.8571 21.7761 12.6333 22 12.3571 22V23Z" fill="currentColor"/><path d="M13.8257 19.1738L20.1111 12.8884" stroke="currentColor" stroke-linecap="round"/><circle cx="14.7778" cy="13.7778" r="1.27778" stroke="currentColor"/><circle cx="19.2221" cy="18.2221" r="1.27778" stroke="currentColor"/></svg>
