<svg viewBox="0 0 17 16" fill="none" xmlns="http://www.w3.org/2000/svg" width="1em" height="1em"><path d="M8.94123 6.5V5.5H10.1513L6.58826 1.5L3.02527 5.5H4.23535L4.23536 13.5C4.23536 14.0523 4.68308 14.5 5.23536 14.5H8.14289C8.69518 14.5 9.14289 14.0523 9.14289 13.5V13.5" stroke="currentColor" stroke-linecap="round" stroke-linejoin="round"/><path d="M7.52939 12.2426L11.5225 8" stroke="currentColor" stroke-linecap="round"/><path d="M8.44119 8.5C8.44119 8.80513 8.21555 9 8.00001 9C7.78448 9 7.55884 8.80513 7.55884 8.5C7.55884 8.19487 7.78448 8 8.00001 8C8.21555 8 8.44119 8.19487 8.44119 8.5Z" stroke="currentColor"/><mask id="path-4-inside-1_2_63030" fill="currentColor"><ellipse cx="11.2941" cy="12" rx="0.941176" ry="1"/></mask><path d="M11.2353 12C11.2353 12.0195 11.2284 12.0249 11.2314 12.0217C11.233 12.02 11.2388 12.0146 11.2505 12.0093C11.2632 12.0036 11.2788 12 11.2941 12V14C12.4224 14 13.2353 13.0466 13.2353 12H11.2353ZM11.2941 12C11.3094 12 11.325 12.0036 11.3376 12.0093C11.3494 12.0146 11.3551 12.02 11.3568 12.0217C11.3598 12.0249 11.3529 12.0195 11.3529 12H9.35291C9.35291 13.0466 10.1658 14 11.2941 14V12ZM11.3529 12C11.3529 11.9805 11.3598 11.9751 11.3568 11.9783C11.3551 11.98 11.3494 11.9854 11.3376 11.9907C11.325 11.9964 11.3094 12 11.2941 12V10C10.1658 10 9.35291 10.9534 9.35291 12H11.3529ZM11.2941 12C11.2788 12 11.2632 11.9964 11.2505 11.9907C11.2388 11.9854 11.233 11.98 11.2314 11.9783C11.2284 11.9751 11.2353 11.9805 11.2353 12H13.2353C13.2353 10.9534 12.4224 10 11.2941 10V12Z" fill="currentColor" mask="url(#path-4-inside-1_2_63030)"/></svg>
