<svg xmlns="http://www.w3.org/2000/svg" fill="none" viewBox="0 0 17 16" width="1em" height="1em"><path stroke="currentColor" stroke-linecap="round" stroke-linejoin="round" d="M8.941 6.5v-1h1.21l-3.563-4-3.563 4h1.21v8a1 1 0 0 0 1 1h2.908a1 1 0 0 0 1-1v0"/><path stroke="currentColor" stroke-linecap="round" d="M7.53 12.243 11.522 8"/><path stroke="currentColor" d="M8.441 8.5c0 .305-.225.5-.441.5s-.441-.195-.441-.5S7.784 8 8 8s.441.195.441.5Z"/><mask id="iconsScalableBusinessModelSize16Px__a" fill="#fff"><ellipse cx="11.294" cy="12" rx=".941" ry="1"/></mask><path fill="currentColor" d="M11.235 12c0 .02-.006.025-.003.022a.06.06 0 0 1 .019-.013.109.109 0 0 1 .043-.009v2c1.128 0 1.941-.953 1.941-2h-2Zm.06 0c.014 0 .03.004.043.01a.06.06 0 0 1 .019.012c.003.003-.004-.002-.004-.022h-2c0 1.047.813 2 1.941 2v-2Zm.058 0c0-.02.007-.025.004-.022a.06.06 0 0 1-.02.013.109.109 0 0 1-.043.009v-2c-1.128 0-1.941.953-1.941 2h2Zm-.059 0a.109.109 0 0 1-.043-.01.06.06 0 0 1-.02-.012c-.002-.003.004.002.004.022h2c0-1.047-.813-2-1.94-2v2Z" mask="url(#iconsScalableBusinessModelSize16Px__a)"/></svg>
