<svg viewBox="0 0 24 24" fill="none" xmlns="http://www.w3.org/2000/svg" width="1em" height="1em"><path d="M2.5 8C2.5 7.17157 3.17157 6.5 4 6.5H20C20.8284 6.5 21.5 7.17157 21.5 8V16C21.5 16.8284 20.8284 17.5 20 17.5H4C3.17157 17.5 2.5 16.8284 2.5 16V8Z" stroke="currentColor"/><path d="M13.5 10.875C13.5 11.1511 13.7239 11.375 14 11.375C14.2761 11.375 14.5 11.1511 14.5 10.875H13.5ZM10.5 13C10.5 12.7239 10.2761 12.5 10 12.5C9.72386 12.5 9.5 12.7239 9.5 13H10.5ZM12.5 8.5C12.5 8.22386 12.2761 8 12 8C11.7239 8 11.5 8.22386 11.5 8.5H12.5ZM11.5 9C11.5 9.27614 11.7239 9.5 12 9.5C12.2761 9.5 12.5 9.27614 12.5 9H11.5ZM12.5 15C12.5 14.7239 12.2761 14.5 12 14.5C11.7239 14.5 11.5 14.7239 11.5 15H12.5ZM11.5 15.5C11.5 15.7761 11.7239 16 12 16C12.2761 16 12.5 15.7761 12.5 15.5H11.5ZM12.75 9H11.25V10H12.75V9ZM11.25 12.5H12.75V11.5H11.25V12.5ZM12.75 14H11.25V15H12.75V14ZM13.5 10.75V10.875H14.5V10.75H13.5ZM10.5 13.25V13H9.5V13.25H10.5ZM11.25 14C10.8358 14 10.5 13.6642 10.5 13.25H9.5C9.5 14.2165 10.2835 15 11.25 15V14ZM13.5 13.25C13.5 13.6642 13.1642 14 12.75 14V15C13.7165 15 14.5 14.2165 14.5 13.25H13.5ZM12.75 12.5C13.1642 12.5 13.5 12.8358 13.5 13.25H14.5C14.5 12.2835 13.7165 11.5 12.75 11.5V12.5ZM9.5 10.75C9.5 11.7165 10.2835 12.5 11.25 12.5V11.5C10.8358 11.5 10.5 11.1642 10.5 10.75H9.5ZM11.25 9C10.2835 9 9.5 9.7835 9.5 10.75H10.5C10.5 10.3358 10.8358 10 11.25 10V9ZM12.75 10C13.1642 10 13.5 10.3358 13.5 10.75H14.5C14.5 9.7835 13.7165 9 12.75 9V10ZM11.5 8.5V9H12.5V8.5H11.5ZM11.5 15V15.5H12.5V15H11.5Z" fill="currentColor"/><line x1="4.5" y1="8.5" x2="5.5" y2="8.5" stroke="currentColor" stroke-linecap="round"/><line x1="18.5" y1="15.5" x2="19.5" y2="15.5" stroke="currentColor" stroke-linecap="round"/></svg>
