<svg viewBox="0 0 16 16" fill="none" xmlns="http://www.w3.org/2000/svg" width="1em" height="1em"><path d="M11 5.975C11 6.25114 11.2239 6.475 11.5 6.475C11.7761 6.475 12 6.25114 12 5.975H11ZM5 9.8C5 9.52386 4.77614 9.3 4.5 9.3C4.22386 9.3 4 9.52386 4 9.8H5ZM8.5 1.5C8.5 1.22386 8.27614 1 8 1C7.72386 1 7.5 1.22386 7.5 1.5H8.5ZM7.5 14.5C7.5 14.7761 7.72386 15 8 15C8.27614 15 8.5 14.7761 8.5 14.5H7.5ZM9.25 3H6.75V4H9.25V3ZM6.75 8.5H9.25V7.5H6.75V8.5ZM9.25 12H6.75V13H9.25V12ZM11 5.75V5.975H12V5.75H11ZM5 10.25V9.8H4V10.25H5ZM6.75 12C5.7835 12 5 11.2165 5 10.25H4C4 11.7688 5.23122 13 6.75 13V12ZM11 10.25C11 11.2165 10.2165 12 9.25 12V13C10.7688 13 12 11.7688 12 10.25H11ZM9.25 8.5C10.2165 8.5 11 9.2835 11 10.25H12C12 8.73122 10.7688 7.5 9.25 7.5V8.5ZM4 5.75C4 7.26878 5.23122 8.5 6.75 8.5V7.5C5.7835 7.5 5 6.7165 5 5.75H4ZM6.75 3C5.23122 3 4 4.23122 4 5.75H5C5 4.7835 5.7835 4 6.75 4V3ZM9.25 4C10.2165 4 11 4.7835 11 5.75H12C12 4.23122 10.7688 3 9.25 3V4ZM7.5 1.5V14.5H8.5V1.5H7.5Z" fill="currentColor"/></svg>
