<svg viewBox="0 0 32 32" fill="none" xmlns="http://www.w3.org/2000/svg" stroke="currentColor"><path d="M2.5 10C2.5 9.17157 3.17157 8.5 4 8.5H28C28.8284 8.5 29.5 9.17157 29.5 10V23C29.5 23.8284 28.8284 24.5 28 24.5H4C3.17157 24.5 2.5 23.8284 2.5 23V10Z"/><line x1="5.5" y1="10.5" x2="7.5" y2="10.5" stroke-linecap="round"/><line x1="24.5" y1="22.5" x2="26.5" y2="22.5" stroke-linecap="round"/><path d="M19 14.7C19 14.9761 19.2239 15.2 19.5 15.2C19.7761 15.2 20 14.9761 20 14.7H19ZM13 18.1C13 17.8239 12.7761 17.6 12.5 17.6C12.2239 17.6 12 17.8239 12 18.1H13ZM16.5 11C16.5 10.7239 16.2761 10.5 16 10.5C15.7239 10.5 15.5 10.7239 15.5 11L16.5 11ZM15.5 22C15.5 22.2761 15.7239 22.5 16 22.5C16.2761 22.5 16.5 22.2761 16.5 22H15.5ZM17.5 12H14.5V13H17.5V12ZM14.5 17H17.5V16H14.5V17ZM17.5 20H14.5V21H17.5V20ZM19 14.5V14.7H20V14.5H19ZM13 18.5V18.1H12V18.5H13ZM14.5 20C13.6716 20 13 19.3284 13 18.5H12C12 19.8807 13.1193 21 14.5 21V20ZM19 18.5C19 19.3284 18.3284 20 17.5 20V21C18.8807 21 20 19.8807 20 18.5H19ZM17.5 17C18.3284 17 19 17.6716 19 18.5H20C20 17.1193 18.8807 16 17.5 16V17ZM12 14.5C12 15.8807 13.1193 17 14.5 17V16C13.6716 16 13 15.3284 13 14.5H12ZM14.5 12C13.1193 12 12 13.1193 12 14.5H13C13 13.6716 13.6716 13 14.5 13V12ZM17.5 13C18.3284 13 19 13.6716 19 14.5H20C20 13.1193 18.8807 12 17.5 12V13ZM15.5 11L15.5 22H16.5L16.5 11L15.5 11Z" fill="#282829"/></svg>
