<svg xmlns="http://www.w3.org/2000/svg" fill="none" viewBox="0 0 32 32" width="1em" height="1em"><path stroke="currentColor" stroke-linejoin="round" d="M17.959 3.54c5.586.46 10.04 4.914 10.501 10.5.019.232-.173.459-.461.459H18a.5.5 0 0 1-.5-.5V4c0-.288.227-.48.459-.46Z"/><path stroke="currentColor" stroke-linejoin="round" d="M28.464 16.962C27.973 23.416 22.58 28.5 16 28.5 9.096 28.5 3.5 22.904 3.5 16c0-6.58 5.084-11.973 11.538-12.464.236-.017.462.177.462.464v11a1.5 1.5 0 0 0 1.5 1.5h11c.287 0 .482.226.464.462Z"/></svg>
