<svg xmlns="http://www.w3.org/2000/svg" fill="none" viewBox="0 0 16 16" width="1em" height="1em"><path stroke="currentColor" stroke-linejoin="round" d="M10.307 1.58a5.105 5.105 0 0 1 4.113 4.113.3.3 0 0 1-.084.27A.46.46 0 0 1 14 6.1h-3.6a.5.5 0 0 1-.5-.5V2c0-.14.058-.261.137-.336a.3.3 0 0 1 .27-.084Z"/><path stroke="currentColor" stroke-linejoin="round" d="M14.435 8.926A6.501 6.501 0 0 1 1.5 8a6.5 6.5 0 0 1 5.574-6.435c.197-.028.426.136.426.435v5A1.5 1.5 0 0 0 9 8.5h5c.299 0 .463.229.434.426Z"/></svg>
