<svg xmlns="http://www.w3.org/2000/svg" fill="none" viewBox="0 0 32 32" width="1em" height="1em"><path stroke="currentColor" d="M3.5 5A1.5 1.5 0 0 1 5 3.5h18.172a1.5 1.5 0 0 1 1.06.44l3.829 3.828a1.5 1.5 0 0 1 .439 1.06V27a1.5 1.5 0 0 1-1.5 1.5H5A1.5 1.5 0 0 1 3.5 27z"/><path stroke="currentColor" d="M7.5 4a.5.5 0 0 1 .5-.5h10a.5.5 0 0 1 .5.5v4A1.5 1.5 0 0 1 17 9.5H9A1.5 1.5 0 0 1 7.5 8zm7-1v6m-7 19a.5.5 0 0 0 .5.5h16a.5.5 0 0 0 .5-.5V16a1.5 1.5 0 0 0-1.5-1.5H9A1.5 1.5 0 0 0 7.5 16z"/><path stroke="currentColor" stroke-linecap="round" d="M10.5 20.5h11m-11 3h11"/></svg>
