<svg xmlns="http://www.w3.org/2000/svg" fill="none" viewBox="0 0 24 24" width="1em" height="1em"><path stroke="currentColor" d="M3.5 5A1.5 1.5 0 0 1 5 3.5h11.71a1.5 1.5 0 0 1 1.06.44l2.29 2.29a1.5 1.5 0 0 1 .44 1.06V19a1.5 1.5 0 0 1-1.5 1.5H5A1.5 1.5 0 0 1 3.5 19V5Z"/><path stroke="currentColor" d="M6.5 4a.5.5 0 0 1 .5-.5h8a.5.5 0 0 1 .5.5v2A1.5 1.5 0 0 1 14 7.5H8A1.5 1.5 0 0 1 6.5 6V4Zm6-1v4.154M6.5 20a.5.5 0 0 0 .5.5h10a.5.5 0 0 0 .5-.5v-7a1.5 1.5 0 0 0-1.5-1.5H8A1.5 1.5 0 0 0 6.5 13v7Z"/><path stroke="currentColor" stroke-linecap="round" d="M9 14.5h6m-6 3h6"/></svg>
