<svg viewBox="0 0 16 16" fill="none" xmlns="http://www.w3.org/2000/svg" width="1em" height="1em"><path d="M2.5 4C2.5 3.17157 3.17157 2.5 4 2.5L10.8639 2.5C11.2617 2.5 11.6432 2.65804 11.9245 2.93934L13.0607 4.07546C13.342 4.35676 13.5 4.73829 13.5 5.13612L13.5 12C13.5 12.8284 12.8284 13.5 12 13.5L4 13.5C3.17157 13.5 2.5 12.8284 2.5 12L2.5 4Z" stroke="currentColor"/><path d="M4.5 3C4.5 2.72386 4.72386 2.5 5 2.5L10 2.5C10.2761 2.5 10.5 2.72386 10.5 3V5C10.5 5.27614 10.2761 5.5 10 5.5L5 5.5C4.72386 5.5 4.5 5.27614 4.5 5L4.5 3Z" stroke="currentColor"/><line x1="8.5" y1="2" x2="8.5" y2="5" stroke="currentColor"/><path d="M4.50003 13C4.50003 13.2761 4.72389 13.5 5.00003 13.5L11 13.5C11.2762 13.5 11.5 13.2761 11.5 13V9C11.5 8.72386 11.2762 8.5 11 8.5H5.00003C4.72389 8.5 4.50003 8.72386 4.50003 9L4.50003 13Z" stroke="currentColor"/></svg>
