<svg viewBox="0 0 32 32" fill="none" xmlns="http://www.w3.org/2000/svg" width="1em" height="1em"><path d="M3.5 5C3.5 4.17157 4.17157 3.5 5 3.5H23.1716C23.5694 3.5 23.9509 3.65804 24.2322 3.93934L28.0607 7.76777C28.342 8.04907 28.5 8.4306 28.5 8.82843V27C28.5 27.8284 27.8284 28.5 27 28.5H5C4.17157 28.5 3.5 27.8284 3.5 27V5Z" stroke="currentColor"/><path d="M7.5 4C7.5 3.72386 7.72386 3.5 8 3.5H18C18.2761 3.5 18.5 3.72386 18.5 4V8C18.5 8.82843 17.8284 9.5 17 9.5H9C8.17157 9.5 7.5 8.82843 7.5 8V4Z" stroke="currentColor"/><line x1="14.5" y1="3" x2="14.5" y2="9" stroke="currentColor"/><path d="M7.5 28C7.5 28.2761 7.72386 28.5 8 28.5H24C24.2761 28.5 24.5 28.2761 24.5 28V16C24.5 15.1716 23.8284 14.5 23 14.5H9C8.17157 14.5 7.5 15.1716 7.5 16V28Z" stroke="currentColor"/><line x1="10.5" y1="20.5" x2="21.5" y2="20.5" stroke="currentColor" stroke-linecap="round"/><line x1="10.5" y1="23.5" x2="21.5" y2="23.5" stroke="currentColor" stroke-linecap="round"/></svg>
