<svg viewBox="0 0 24 24" fill="none" xmlns="http://www.w3.org/2000/svg" stroke="currentColor" width="1em" height="1em"><path d="M3.5 5C3.5 4.17157 4.17157 3.5 5 3.5H16.71C17.1079 3.5 17.4894 3.65804 17.7707 3.93934L20.0607 6.22931C20.342 6.51061 20.5 6.89214 20.5 7.28997V19C20.5 19.8284 19.8284 20.5 19 20.5H5C4.17157 20.5 3.5 19.8284 3.5 19V5Z"/><path d="M6.5 4C6.5 3.72386 6.72386 3.5 7 3.5H15C15.2761 3.5 15.5 3.72386 15.5 4V6C15.5 6.82843 14.8284 7.5 14 7.5H8C7.17157 7.5 6.5 6.82843 6.5 6V4Z"/><path d="M12.5 3V7.15385"/><path d="M6.5 20C6.5 20.2761 6.72386 20.5 7 20.5H17C17.2761 20.5 17.5 20.2761 17.5 20V13C17.5 12.1716 16.8284 11.5 16 11.5H8C7.17157 11.5 6.5 12.1716 6.5 13V20Z"/><path d="M9 14.5L15 14.5" stroke-linecap="round"/><path d="M9 17.5L15 17.5" stroke-linecap="round"/></svg>
