<svg viewBox="0 0 16 16" fill="none" xmlns="http://www.w3.org/2000/svg" stroke="currentColor"><circle cx="8.5" cy="8" r="6.5" stroke-linecap="round"/><path d="M8.50061 9.5V8.98426C8.50644 8.8426 8.52393 8.72159 8.55309 8.62125C8.58224 8.5209 8.62306 8.42941 8.67553 8.34678C8.72801 8.25824 8.79215 8.1756 8.86795 8.09887C8.94376 8.02213 9.03122 7.9336 9.13035 7.83325C9.22947 7.73291 9.32568 7.63551 9.41897 7.54107C9.51227 7.44073 9.5939 7.33448 9.66387 7.22233C9.73384 7.10428 9.78924 6.97737 9.83005 6.84161C9.8767 6.70585 9.90002 6.54943 9.90002 6.37236C9.90002 6.19528 9.86504 6.0241 9.79507 5.85883C9.73093 5.69356 9.63472 5.54894 9.50644 5.42499C9.37816 5.29513 9.21781 5.19183 9.02539 5.1151C8.8388 5.03837 8.62597 5 8.38691 5C8.14784 5 7.94084 5.03542 7.76591 5.10625C7.59682 5.17118 7.45104 5.25381 7.3286 5.35416C7.21198 5.4486 7.11868 5.54894 7.04871 5.65519C6.98457 5.76144 6.93501 5.85293 6.90002 5.92966" stroke-linecap="round" stroke-linejoin="round"/><rect x="8.75" y="11.75" width="0.5" height="0.5" rx="0.25" transform="rotate(-180 8.75 11.75)" stroke-width="0.5"/></svg>
