<svg xmlns="http://www.w3.org/2000/svg" fill="none" viewBox="0 0 24 24" width="1em" height="1em"><circle cx="12" cy="12" r="9.5" stroke="currentColor" stroke-linecap="round"/><path stroke="currentColor" stroke-linecap="round" stroke-linejoin="round" d="M12.488 14.5v-.709c.01-.277.043-.513.098-.71.054-.196.13-.375.228-.536a2.5 2.5 0 0 1 .36-.485l.49-.52.538-.57a4.12 4.12 0 0 0 .457-.624c.13-.231.234-.48.31-.745.088-.265.131-.571.131-.917 0-.347-.065-.681-.196-1.005-.12-.323-.3-.606-.539-.848a2.581 2.581 0 0 0-.898-.606A2.986 2.986 0 0 0 12.275 6c-.446 0-.832.07-1.159.208a2.906 2.906 0 0 0-.816.485c-.218.184-.392.38-.522.588a5.53 5.53 0 0 0-.278.537"/><path stroke="currentColor" stroke-linecap="round" d="M12.5 18.5v-1"/></svg>
