<svg xmlns="http://www.w3.org/2000/svg" fill="none" viewBox="0 0 32 32" width="1em" height="1em"><circle cx="16" cy="16" r="13.5" stroke="currentColor" stroke-linecap="round"/><path stroke="currentColor" stroke-linecap="round" stroke-linejoin="round" d="M15.995 20v-1.26a4 4 0 0 1 .122-.888q.102-.368.286-.671.183-.324.449-.606l.612-.65.674-.714q.326-.368.571-.779a4.3 4.3 0 0 0 .388-.93q.163-.498.163-1.147a3.3 3.3 0 0 0-.245-1.256 2.95 2.95 0 0 0-.673-1.06q-.45-.476-1.123-.758-.653-.28-1.49-.281-.835 0-1.449.26-.591.237-1.02.606-.408.345-.653.736-.224.39-.347.67"/><path stroke="currentColor" stroke-linecap="round" d="M16 24v-1"/></svg>
