<svg xmlns="http://www.w3.org/2000/svg" fill="none" viewBox="0 0 24 24" width="1em" height="1em"><circle cx="12" cy="12" r="9.5" stroke="currentColor" stroke-linecap="round"/><path stroke="currentColor" stroke-linecap="round" stroke-linejoin="round" d="M12.488 14.5v-.709q.015-.415.098-.71.081-.294.228-.536a2.5 2.5 0 0 1 .36-.485l.49-.52.538-.57q.262-.295.457-.624.196-.347.31-.745.131-.398.131-.917 0-.52-.196-1.005-.18-.485-.539-.848a2.6 2.6 0 0 0-.898-.606A3 3 0 0 0 12.275 6q-.669 0-1.159.208a2.9 2.9 0 0 0-.816.485q-.327.276-.522.588a6 6 0 0 0-.278.537"/><path stroke="currentColor" stroke-linecap="round" d="M12.5 18.5v-1"/></svg>
