<svg xmlns="http://www.w3.org/2000/svg" fill="none" viewBox="0 0 16 16" width="1em" height="1em"><circle cx="8.5" cy="8" r="6.5" stroke="currentColor" stroke-linecap="round"/><path stroke="currentColor" stroke-linecap="round" stroke-linejoin="round" d="M8.5 9.5v-.516q.01-.211.053-.363.044-.15.122-.274.08-.133.193-.248l.262-.266.289-.292a2 2 0 0 0 .245-.319q.105-.177.166-.38a1.44 1.44 0 0 0-.035-.983 1.2 1.2 0 0 0-.289-.434 1.4 1.4 0 0 0-.48-.31A1.7 1.7 0 0 0 8.385 5a1.65 1.65 0 0 0-1.057.354 1.3 1.3 0 0 0-.28.301 3 3 0 0 0-.149.275"/><rect width=".5" height=".5" x="8.75" y="11.75" stroke="currentColor" stroke-width=".5" rx=".25" transform="rotate(180 8.75 11.75)"/></svg>
