<svg xmlns="http://www.w3.org/2000/svg" fill="none" viewBox="0 0 32 32" width="1em" height="1em"><circle cx="16" cy="16" r="13.5" stroke="currentColor" stroke-linecap="round"/><path stroke="currentColor" stroke-linecap="round" stroke-linejoin="round" d="M15.995 20v-1.26a3.94 3.94 0 0 1 .122-.888 2.64 2.64 0 0 1 .286-.671c.122-.216.272-.418.449-.606l.612-.65.674-.714c.217-.245.408-.505.571-.779a4.28 4.28 0 0 0 .388-.93 3.68 3.68 0 0 0 .163-1.147 3.32 3.32 0 0 0-.245-1.256 2.95 2.95 0 0 0-.673-1.06c-.3-.318-.674-.57-1.123-.758-.435-.187-.932-.281-1.49-.281-.557 0-1.04.087-1.449.26-.394.158-.734.36-1.02.606-.272.23-.49.476-.653.736-.15.26-.265.483-.347.67"/><path stroke="currentColor" stroke-linecap="round" d="M16 24v-1"/></svg>
