<svg xmlns="http://www.w3.org/2000/svg" fill="none" viewBox="0 0 32 32" width="1em" height="1em"><path stroke="currentColor" stroke-linejoin="round" d="m26.81 5.427-8.287 14.355a.999.999 0 0 0-.134.487l-.023 1.784 1.533-.912a1 1 0 0 0 .355-.36l8.288-14.354a1 1 0 0 0-1.732-1Z"/><path fill="currentColor" d="M26 15.5a.5.5 0 0 0-1 0h1Zm-2.875-6.692a.5.5 0 0 0 0-1v1Zm-1.788-4.714-.355.352.355-.352Zm1.907 2.642a.5.5 0 0 0 .712-.703l-.712.703ZM23.5 28h-15v1h15v-1ZM7 26.5v-21H6v21h1ZM8.5 4h11.415V3H8.5v1ZM25 15.5v11h1v-11h-1ZM20.25 3.98v2.328h1V3.98h-1Zm2.5 4.828h.375v-1h-.375v1Zm-1.768-4.362 2.262 2.29.712-.703-2.263-2.29-.712.703ZM19.915 4a1.5 1.5 0 0 1 1.067.446l.71-.703A2.5 2.5 0 0 0 19.916 3v1ZM8.5 28A1.5 1.5 0 0 1 7 26.5H6A2.5 2.5 0 0 0 8.5 29v-1ZM20.25 6.308a2.5 2.5 0 0 0 2.5 2.5v-1a1.5 1.5 0 0 1-1.5-1.5h-1ZM23.5 29a2.5 2.5 0 0 0 2.5-2.5h-1a1.5 1.5 0 0 1-1.5 1.5v1ZM7 5.5A1.5 1.5 0 0 1 8.5 4V3A2.5 2.5 0 0 0 6 5.5h1Z"/><path stroke="currentColor" stroke-linecap="round" d="M9.5 9.5h11m-11 3h10m-10 3H18m-8.5 3H17m-7.5 3H16"/></svg>
