<svg viewBox="0 0 16 16" fill="none" xmlns="http://www.w3.org/2000/svg" stroke="currentColor" width="1em" height="1em"><path d="M8.80545 12.547L8.34424 12.3539C8.25844 12.5589 8.31817 12.7958 8.49086 12.9356C8.66356 13.0754 8.90779 13.0845 9.09037 12.9579L8.80545 12.547ZM9.42464 12.1176L9.13972 11.7068L9.42464 12.1176ZM9.09303 11.8601L9.55424 12.0532L9.09303 11.8601ZM9.63243 11.9249L14.1736 6.51291L13.4076 5.87012L8.86639 11.2821L9.63243 11.9249ZM13.7906 6.1915L9.23783 11.6173L10.0039 12.2601L14.5566 6.83429L13.7906 6.1915ZM9.13972 11.7068L8.52054 12.1361L9.09037 12.9579L9.70955 12.5285L9.13972 11.7068ZM9.26666 12.7401L9.55424 12.0532L8.63182 11.667L8.34424 12.3539L9.26666 12.7401ZM9.23783 11.6173C9.20925 11.6513 9.17626 11.6814 9.13972 11.7068L9.70955 12.5285C9.81916 12.4525 9.91814 12.3622 10.0039 12.2601L9.23783 11.6173ZM13.8214 6.54372C13.7156 6.45497 13.7018 6.29728 13.7906 6.1915L14.5566 6.83429C14.8229 6.51699 14.7815 6.04393 14.4642 5.77768L13.8214 6.54372ZM14.1736 6.51291C14.0849 6.61868 13.9272 6.63248 13.8214 6.54372L14.4642 5.77768C14.1469 5.51143 13.6738 5.55282 13.4076 5.87012L14.1736 6.51291ZM8.86639 11.2821C8.76926 11.3978 8.69018 11.5276 8.63182 11.667L9.55424 12.0532C9.57369 12.0067 9.60006 11.9635 9.63243 11.9249L8.86639 11.2821Z" fill="#282829"/><path d="M2.50001 13.5H3.00001H2.50001ZM2.5 3.5H2V3.5L2.5 3.5ZM13 10.8947C13 10.6186 12.7762 10.3947 12.5 10.3947C12.2239 10.3947 12 10.6186 12 10.8947H13ZM12 5C12 5.27614 12.2239 5.5 12.5 5.5C12.7762 5.5 13 5.27614 13 5H12ZM11.5 14H3.50001V15H11.5V14ZM3.00001 13.5L3 3.5L2 3.5L2.00001 13.5H3.00001ZM3.5 3H11.5V2H3.5V3ZM12 10.8947V13.5H13V10.8947H12ZM12 3.5V5H13V3.5H12ZM11.5 3C11.7762 3 12 3.22386 12 3.5H13C13 2.67157 12.3284 2 11.5 2V3ZM3.50001 14C3.22387 14 3.00001 13.7761 3.00001 13.5H2.00001C2.00001 14.3284 2.67158 15 3.50001 15V14ZM11.5 15C12.3284 15 13 14.3284 13 13.5H12C12 13.7761 11.7762 14 11.5 14V15ZM3 3.5C3 3.22386 3.22386 3 3.5 3V2C2.67157 2 2 2.67157 2 3.5H3Z" fill="#282829"/><line x1="4.5" y1="8.5" x2="9.5" y2="8.5" stroke-linecap="round"/><line x1="4.5" y1="5.5" x2="10.5" y2="5.5" stroke-linecap="round"/><path d="M4.5 11.5L6.5 11.5" stroke-linecap="round"/></svg>
