<svg viewBox="0 0 32 32" fill="none" xmlns="http://www.w3.org/2000/svg" stroke="currentColor"><path d="M18.3661 22.0525L17.8661 22.0462C17.8639 22.2271 17.9595 22.3951 18.1161 22.4856C18.2728 22.576 18.4661 22.5748 18.6216 22.4824L18.3661 22.0525ZM20.2545 20.7816L20.6875 21.0316L20.2545 20.7816ZM28.5422 6.42709L28.1091 6.17709L28.5422 6.42709ZM18.3886 20.269L18.8885 20.2753L18.3886 20.269ZM18.9555 20.0316L27.2431 5.67709L26.3771 5.17708L18.0894 19.5316L18.9555 20.0316ZM28.1091 6.17709L19.8215 20.5316L20.6875 21.0316L28.9752 6.67709L28.1091 6.17709ZM19.6439 20.7115L18.1106 21.6227L18.6216 22.4824L20.1548 21.5711L19.6439 20.7115ZM18.8661 22.0588L18.8885 20.2753L17.8886 20.2627L17.8661 22.0462L18.8661 22.0588ZM19.8215 20.5316C19.7787 20.6058 19.7175 20.6677 19.6439 20.7115L20.1548 21.5711C20.3756 21.4399 20.5591 21.2541 20.6875 21.0316L19.8215 20.5316ZM27.9261 5.49407C28.1653 5.63215 28.2472 5.93794 28.1091 6.17709L28.9752 6.67709C29.3894 5.95965 29.1436 5.04226 28.4261 4.62805L27.9261 5.49407ZM27.2431 5.67709C27.3812 5.43794 27.687 5.356 27.9261 5.49407L28.4261 4.62805C27.7087 4.21384 26.7913 4.45965 26.3771 5.17708L27.2431 5.67709ZM18.0894 19.5316C17.961 19.7541 17.8918 20.0058 17.8886 20.2627L18.8885 20.2753C18.8896 20.1897 18.9126 20.1058 18.9555 20.0316L18.0894 19.5316Z" fill="#282829"/><path d="M26 15.5C26 15.2239 25.7761 15 25.5 15C25.2239 15 25 15.2239 25 15.5H26ZM23.125 8.80769C23.4011 8.80769 23.625 8.58383 23.625 8.30769C23.625 8.03155 23.4011 7.80769 23.125 7.80769V8.80769ZM21.3372 4.09435L20.9815 4.44576V4.44576L21.3372 4.09435ZM23.2443 6.73603C23.4384 6.93247 23.755 6.93438 23.9514 6.7403C24.1479 6.54622 24.1498 6.22964 23.9557 6.0332L23.2443 6.73603ZM23.5 28H8.5V29H23.5V28ZM7 26.5V5.5H6V26.5H7ZM8.5 4H19.9145V3H8.5V4ZM25 15.5V26.5H26V15.5H25ZM20.25 3.98077V6.30769H21.25V3.98077H20.25ZM22.75 8.80769H23.125V7.80769H22.75V8.80769ZM20.9815 4.44576L23.2443 6.73603L23.9557 6.0332L21.6929 3.74294L20.9815 4.44576ZM19.9145 4C20.3155 4 20.6997 4.16053 20.9815 4.44576L21.6929 3.74294C21.2232 3.26755 20.5828 3 19.9145 3V4ZM8.5 28C7.67157 28 7 27.3284 7 26.5H6C6 27.8807 7.11929 29 8.5 29V28ZM20.25 6.30769C20.25 7.6884 21.3693 8.80769 22.75 8.80769V7.80769C21.9216 7.80769 21.25 7.13612 21.25 6.30769H20.25ZM23.5 29C24.8807 29 26 27.8807 26 26.5H25C25 27.3284 24.3284 28 23.5 28V29ZM7 5.5C7 4.67157 7.67157 4 8.5 4V3C7.11929 3 6 4.11929 6 5.5H7Z" fill="#282829"/><path d="M9.5 9.5H20.5" stroke-linecap="round"/><path d="M9.5 12.5H19.5" stroke-linecap="round"/><path d="M9.5 15.5H18" stroke-linecap="round"/><path d="M9.5 18.5H17" stroke-linecap="round"/><path d="M9.5 21.5H16" stroke-linecap="round"/></svg>
