<svg viewBox="0 0 24 24" fill="none" xmlns="http://www.w3.org/2000/svg" stroke="currentColor" width="1em" height="1em"><path d="M12.5 17L12 17.0037C12.0011 17.1558 12.0714 17.2991 12.191 17.3931C12.3106 17.4871 12.4665 17.5215 12.6145 17.4867L12.5 17ZM14.2334 16.3879L14.6165 16.7093L14.2334 16.3879ZM13.6964 16.7185L13.8109 17.2052L13.6964 16.7185ZM13.1075 15.3962L19.2403 8.08747L18.4742 7.44468L12.3414 14.7534L13.1075 15.3962ZM20.0063 8.73026L13.8504 16.0665L14.6165 16.7093L20.7724 9.37305L20.0063 8.73026ZM13.5819 16.2318L12.3855 16.5133L12.6145 17.4867L13.8109 17.2052L13.5819 16.2318ZM13 16.9963L12.9905 15.7213L11.9905 15.7288L12 17.0037L13 16.9963ZM13.8504 16.0665C13.7811 16.1491 13.6869 16.2071 13.5819 16.2318L13.8109 17.2052C14.1259 17.1311 14.4085 16.9572 14.6165 16.7093L13.8504 16.0665ZM19.9447 8.02584C20.1562 8.20334 20.1838 8.51872 20.0063 8.73026L20.7724 9.37305C21.3049 8.73844 21.2221 7.7923 20.5875 7.2598L19.9447 8.02584ZM19.2403 8.08747C19.4178 7.87593 19.7332 7.84834 19.9447 8.02584L20.5875 7.2598C19.9529 6.7273 19.0067 6.81007 18.4742 7.44468L19.2403 8.08747ZM12.3414 14.7534C12.1123 15.0265 11.9879 15.3723 11.9905 15.7288L12.9905 15.7213C12.9896 15.6025 13.0311 15.4872 13.1075 15.3962L12.3414 14.7534Z" fill="#282829"/><path d="M19 15.5C19 15.2239 18.7761 15 18.5 15C18.2239 15 18 15.2239 18 15.5H19ZM17.875 7.03846C18.1511 7.03846 18.375 6.8146 18.375 6.53846C18.375 6.26232 18.1511 6.03846 17.875 6.03846V7.03846ZM16.329 3.05016L15.9846 3.41262V3.41262L16.329 3.05016ZM17.9556 5.28554C18.1558 5.47575 18.4722 5.46768 18.6625 5.26749C18.8527 5.06731 18.8446 4.75083 18.6444 4.56062L17.9556 5.28554ZM16.5 21H5.5V22H16.5V21ZM4 19.5V4.5H3V19.5H4ZM5.5 3H14.9513V2H5.5V3ZM18 15.5V19.5H19V15.5H18ZM15.25 2.90385V4.53846H16.25V2.90385H15.25ZM17.75 7.03846H17.875V6.03846H17.75V7.03846ZM15.9846 3.41262L17.9556 5.28554L18.6444 4.56062L16.6734 2.68771L15.9846 3.41262ZM14.9513 3C15.3359 3 15.7058 3.14771 15.9846 3.41262L16.6734 2.68771C16.2088 2.24619 15.5923 2 14.9513 2V3ZM5.5 21C4.67157 21 4 20.3284 4 19.5H3C3 20.8807 4.11929 22 5.5 22V21ZM15.25 4.53846C15.25 5.91917 16.3693 7.03846 17.75 7.03846V6.03846C16.9216 6.03846 16.25 5.36689 16.25 4.53846H15.25ZM16.5 22C17.8807 22 19 20.8807 19 19.5H18C18 20.3284 17.3284 21 16.5 21V22ZM4 4.5C4 3.67157 4.67157 3 5.5 3V2C4.11929 2 3 3.11929 3 4.5H4Z" fill="#282829"/><line x1="6.5" y1="7.5" x2="15.5" y2="7.5" stroke-linecap="round"/><line x1="6.5" y1="10.5" x2="12.5" y2="10.5" stroke-linecap="round"/><line x1="6.5" y1="13.5" x2="10.5" y2="13.5" stroke-linecap="round"/><line x1="6.5" y1="16.5" x2="10.5" y2="16.5" stroke-linecap="round"/></svg>
