<svg xmlns="http://www.w3.org/2000/svg" fill="none" viewBox="0 0 24 24" width="1em" height="1em"><path stroke="currentColor" stroke-linejoin="round" d="m18.857 7.766-6.133 7.309a1 1 0 0 0-.233.65L12.5 17l1.196-.282a1 1 0 0 0 .537-.33l6.156-7.336a1 1 0 1 0-1.532-1.286Z"/><path fill="currentColor" d="M19 15.5a.5.5 0 0 0-1 0zm-1.125-8.462a.5.5 0 0 0 0-1zM16.329 3.05l-.344.363zm1.627 2.236a.5.5 0 0 0 .688-.725zM16.5 21h-11v1h11zM4 19.5v-15H3v15zM5.5 3h9.451V2H5.5zM18 15.5v4h1v-4zM15.25 2.904v1.634h1V2.904zm2.5 4.134h.125v-1h-.125zm-1.765-3.625 1.97 1.873.69-.725-1.972-1.873zM14.95 3a1.5 1.5 0 0 1 1.034.413l.688-.725A2.5 2.5 0 0 0 14.951 2zM5.5 21A1.5 1.5 0 0 1 4 19.5H3A2.5 2.5 0 0 0 5.5 22zm9.75-16.462a2.5 2.5 0 0 0 2.5 2.5v-1a1.5 1.5 0 0 1-1.5-1.5zM16.5 22a2.5 2.5 0 0 0 2.5-2.5h-1a1.5 1.5 0 0 1-1.5 1.5zM4 4.5A1.5 1.5 0 0 1 5.5 3V2A2.5 2.5 0 0 0 3 4.5z"/><path stroke="currentColor" stroke-linecap="round" d="M6.5 7.5h9m-9 3h6m-6 3h4m-4 3h4"/></svg>
