<svg viewBox="0 0 16 16" fill="none" xmlns="http://www.w3.org/2000/svg" width="1em" height="1em"><path d="M13.7906 6.19151L9.24941 11.6035C9.18466 11.6807 9.13193 11.7672 9.09303 11.8601L8.80545 12.547L9.42464 12.1176C9.49771 12.067 9.56369 12.0068 9.62085 11.9387L14.1736 6.5129C14.2624 6.40713 14.2486 6.24945 14.1428 6.1607C14.037 6.07195 13.8794 6.08575 13.7906 6.19151Z" stroke="currentColor" stroke-linejoin="round"/><path d="M12.5 10.8947V13.5C12.5 14.0523 12.0523 14.5 11.5 14.5H3.50001C2.94772 14.5 2.50001 14.0523 2.50001 13.5L2.5 3.5C2.5 2.94772 2.94772 2.5 3.5 2.5H11.5C12.0523 2.5 12.5 2.94772 12.5 3.5V5" stroke="currentColor" stroke-linecap="round"/><line x1="4.5" y1="8.5" x2="9.5" y2="8.5" stroke="currentColor" stroke-linecap="round"/><line x1="4.5" y1="5.5" x2="10.5" y2="5.5" stroke="currentColor" stroke-linecap="round"/><path d="M4.5 11.5L6.5 11.5" stroke="currentColor" stroke-linecap="round"/></svg>
