<svg viewBox="0 0 16 16" fill="none" xmlns="http://www.w3.org/2000/svg" stroke="currentColor"><circle cx="8" cy="8" r="6.5"/><path d="M7.5 9.5C7.5 9.77614 7.72386 10 8 10C8.27614 10 8.5 9.77614 8.5 9.5H7.5ZM8.5 4.5C8.5 4.22386 8.27614 4 8 4C7.72386 4 7.5 4.22386 7.5 4.5H8.5ZM8.5 9.5C8.5 9.49466 8.5 9.48933 8.5 9.48402C8.5 9.4787 8.5 9.4734 8.5 9.46811C8.5 9.46282 8.5 9.45754 8.5 9.45228C8.5 9.44701 8.5 9.44175 8.5 9.43651C8.5 9.43127 8.5 9.42604 8.5 9.42082C8.5 9.4156 8.5 9.4104 8.5 9.4052C8.5 9.40001 8.5 9.39483 8.5 9.38966C8.5 9.38448 8.5 9.37933 8.5 9.37418C8.5 9.36903 8.5 9.3639 8.5 9.35877C8.5 9.35365 8.5 9.34854 8.5 9.34344C8.5 9.33834 8.5 9.33325 8.5 9.32818C8.5 9.3231 8.5 9.31803 8.5 9.31298C8.5 9.30793 8.5 9.30289 8.5 9.29786C8.5 9.29283 8.5 9.28781 8.5 9.2828C8.5 9.2778 8.5 9.2728 8.5 9.26782C8.5 9.26283 8.5 9.25786 8.5 9.2529C8.5 9.24794 8.5 9.24299 8.5 9.23805C8.5 9.23312 8.5 9.22819 8.5 9.22327C8.5 9.21836 8.5 9.21346 8.5 9.20856C8.5 9.20367 8.5 9.19879 8.5 9.19392C8.5 9.18905 8.5 9.18419 8.5 9.17934C8.5 9.1745 8.5 9.16966 8.5 9.16484C8.5 9.16001 8.5 9.1552 8.5 9.15039C8.5 9.14559 8.5 9.1408 8.5 9.13602C8.5 9.13124 8.5 9.12647 8.5 9.12171C8.5 9.11695 8.5 9.1122 8.5 9.10747C8.5 9.10273 8.5 9.09801 8.5 9.09329C8.5 9.08858 8.5 9.08387 8.5 9.07918C8.5 9.07449 8.5 9.06981 8.5 9.06513C8.5 9.06046 8.5 9.0558 8.5 9.05115C8.5 9.0465 8.5 9.04187 8.5 9.03724C8.5 9.03261 8.5 9.02799 8.5 9.02339C8.5 9.01878 8.5 9.01418 8.5 9.0096C8.5 9.00501 8.5 9.00044 8.5 8.99587C8.5 8.99131 8.5 8.98676 8.5 8.98221C8.5 8.97767 8.5 8.97314 8.5 8.96862C8.5 8.9641 8.5 8.95958 8.5 8.95508C8.5 8.95058 8.5 8.94609 8.5 8.94161C8.5 8.93713 8.5 8.93266 8.5 8.9282C8.5 8.92374 8.5 8.91929 8.5 8.91486C8.5 8.91042 8.5 8.90599 8.5 8.90157C8.5 8.89715 8.5 8.89274 8.5 8.88835C8.5 8.88395 8.5 8.87956 8.5 8.87518C8.5 8.87081 8.5 8.86644 8.5 8.86208C8.5 8.85773 8.5 8.85338 8.5 8.84904C8.5 8.84471 8.5 8.84038 8.5 8.83606C8.5 8.83175 8.5 8.82744 8.5 8.82314C8.5 8.81885 8.5 8.81456 8.5 8.81028C8.5 8.80601 8.5 8.80174 8.5 8.79748C8.5 8.79322 8.5 8.78898 8.5 8.78474C8.5 8.7805 8.5 8.77627 8.5 8.77206C8.5 8.76784 8.5 8.76363 8.5 8.75943C8.5 8.75523 8.5 8.75105 8.5 8.74687C8.5 8.74269 8.5 8.73852 8.5 8.73436C8.5 8.7302 8.5 8.72605 8.5 8.72191C8.5 8.71777 8.5 8.71364 8.5 8.70952C8.5 8.7054 8.5 8.70129 8.5 8.69718C8.5 8.69308 8.5 8.68899 8.5 8.6849C8.5 8.68082 8.5 8.67675 8.5 8.67268C8.5 8.66862 8.5 8.66456 8.5 8.66052C8.5 8.65647 8.5 8.65244 8.5 8.64841C8.5 8.64438 8.5 8.64037 8.5 8.63636C8.5 8.63235 8.5 8.62835 8.5 8.62436C8.5 8.62037 8.5 8.61639 8.5 8.61242C8.5 8.60845 8.5 8.60448 8.5 8.60053C8.5 8.59658 8.5 8.59263 8.5 8.5887C8.5 8.58476 8.5 8.58084 8.5 8.57692C8.5 8.573 8.5 8.56909 8.5 8.56519C8.5 8.5613 8.5 8.55741 8.5 8.55352C8.5 8.54964 8.5 8.54577 8.5 8.54191C8.5 8.53804 8.5 8.53419 8.5 8.53034C8.5 8.5265 8.5 8.52266 8.5 8.51883C8.5 8.51501 8.5 8.51119 8.5 8.50738C8.5 8.50356 8.5 8.49976 8.5 8.49597C8.5 8.49218 8.5 8.48839 8.5 8.48462C8.5 8.48084 8.5 8.47707 8.5 8.47331C8.5 8.46956 8.5 8.46581 8.5 8.46206C8.5 8.45832 8.5 8.45459 8.5 8.45086C8.5 8.44714 8.5 8.44342 8.5 8.43972C8.5 8.43601 8.5 8.43231 8.5 8.42862C8.5 8.42493 8.5 8.42125 8.5 8.41757C8.5 8.4139 8.5 8.41023 8.5 8.40658C8.5 8.40292 8.5 8.39927 8.5 8.39563C8.5 8.39199 8.5 8.38835 8.5 8.38473C8.5 8.38111 8.5 8.37749 8.5 8.37388C8.5 8.37027 8.5 8.36667 8.5 8.36308C8.5 8.35949 8.5 8.35591 8.5 8.35233C8.5 8.34876 8.5 8.34519 8.5 8.34163C8.5 8.33807 8.5 8.33452 8.5 8.33097C8.5 8.32743 8.5 8.3239 8.5 8.32037C8.5 8.31684 8.5 8.31332 8.5 8.30981C8.5 8.3063 8.5 8.30279 8.5 8.2993C8.5 8.2958 8.5 8.29231 8.5 8.28883C8.5 8.28535 8.5 8.28188 8.5 8.27841C8.5 8.27495 8.5 8.27149 8.5 8.26804C8.5 8.26459 8.5 8.26115 8.5 8.25772C8.5 8.25428 8.5 8.25086 8.5 8.24744C8.5 8.24402 8.5 8.24061 8.5 8.2372C8.5 8.2338 8.5 8.2304 8.5 8.22701C8.5 8.22362 8.5 8.22024 8.5 8.21687C8.5 8.21349 8.5 8.21013 8.5 8.20677C8.5 8.20341 8.5 8.20006 8.5 8.19671C8.5 8.19337 8.5 8.19003 8.5 8.1867C8.5 8.18337 8.5 8.18005 8.5 8.17673C8.5 8.17342 8.5 8.17011 8.5 8.16681C8.5 8.16351 8.5 8.16022 8.5 8.15693C8.5 8.15364 8.5 8.15036 8.5 8.14709C8.5 8.14382 8.5 8.14055 8.5 8.1373C8.5 8.13404 8.5 8.13079 8.5 8.12754C8.5 8.1243 8.5 8.12106 8.5 8.11783C8.5 8.1146 8.5 8.11138 8.5 8.10816C8.5 8.10495 8.5 8.10174 8.5 8.09854C8.5 8.09533 8.5 8.09214 8.5 8.08895C8.5 8.08576 8.5 8.08258 8.5 8.0794C8.5 8.07623 8.5 8.07306 8.5 8.0699C8.5 8.06674 8.5 8.06358 8.5 8.06043C8.5 8.05729 8.5 8.05415 8.5 8.05101C8.5 8.04788 8.5 8.04475 8.5 8.04163C8.5 8.0385 8.5 8.03539 8.5 8.03228C8.5 8.02917 8.5 8.02607 8.5 8.02297C8.5 8.01988 8.5 8.01679 8.5 8.01371C8.5 8.01063 8.5 8.00755 8.5 8.00448C8.5 8.00141 8.5 7.99835 8.5 7.99529C8.5 7.99223 8.5 7.98918 8.5 7.98614C8.5 7.98309 8.5 7.98006 8.5 7.97702C8.5 7.97399 8.5 7.97097 8.5 7.96795C8.5 7.96493 8.5 7.96191 8.5 7.95891C8.5 7.9559 8.5 7.9529 8.5 7.94991C8.5 7.94691 8.5 7.94392 8.5 7.94094C8.5 7.93796 8.5 7.93498 8.5 7.93201C8.5 7.92904 8.5 7.92607 8.5 7.92312C8.5 7.92016 8.5 7.91721 8.5 7.91426C8.5 7.91131 8.5 7.90837 8.5 7.90544C8.5 7.9025 8.5 7.89957 8.5 7.89665C8.5 7.89373 8.5 7.89081 8.5 7.8879C8.5 7.88499 8.5 7.88208 8.5 7.87918C8.5 7.87628 8.5 7.87339 8.5 7.8705C8.5 7.86761 8.5 7.86473 8.5 7.86185C8.5 7.85897 8.5 7.8561 8.5 7.85323C8.5 7.85037 8.5 7.84751 8.5 7.84465C8.5 7.8418 8.5 7.83895 8.5 7.8361C8.5 7.83326 8.5 7.83042 8.5 7.82759C8.5 7.82475 8.5 7.82193 8.5 7.8191C8.5 7.81628 8.5 7.81346 8.5 7.81065C8.5 7.80784 8.5 7.80504 8.5 7.80223C8.5 7.79943 8.5 7.79664 8.5 7.79385C8.5 7.79106 8.5 7.78827 8.5 7.78549C8.5 7.78271 8.5 7.77994 8.5 7.77717C8.5 7.7744 8.5 7.77163 8.5 7.76887C8.5 7.76612 8.5 7.76336 8.5 7.76061C8.5 7.75786 8.5 7.75512 8.5 7.75238C8.5 7.74964 8.5 7.74691 8.5 7.74418C8.5 7.74145 8.5 7.73872 8.5 7.736C8.5 7.73329 8.5 7.73057 8.5 7.72786C8.5 7.72515 8.5 7.72245 8.5 7.71975C8.5 7.71705 8.5 7.71435 8.5 7.71166C8.5 7.70897 8.5 7.70629 8.5 7.70361C8.5 7.70093 8.5 7.69825 8.5 7.69558C8.5 7.69291 8.5 7.69024 8.5 7.68758C8.5 7.68492 8.5 7.68226 8.5 7.67961C8.5 7.67695 8.5 7.67431 8.5 7.67166C8.5 7.66902 8.5 7.66638 8.5 7.66374C8.5 7.66111 8.5 7.65848 8.5 7.65585C8.5 7.65323 8.5 7.65061 8.5 7.64799C8.5 7.64537 8.5 7.64276 8.5 7.64015C8.5 7.63754 8.5 7.63494 8.5 7.63234C8.5 7.62974 8.5 7.62715 8.5 7.62455C8.5 7.62196 8.5 7.61938 8.5 7.61679C8.5 7.61421 8.5 7.61163 8.5 7.60906C8.5 7.60648 8.5 7.60391 8.5 7.60135C8.5 7.59878 8.5 7.59622 8.5 7.59366C8.5 7.5911 8.5 7.58855 8.5 7.586C8.5 7.58345 8.5 7.58091 8.5 7.57836C8.5 7.57582 8.5 7.57328 8.5 7.57075C8.5 7.56822 8.5 7.56569 8.5 7.56316C8.5 7.56063 8.5 7.55811 8.5 7.55559C8.5 7.55307 8.5 7.55056 8.5 7.54805C8.5 7.54554 8.5 7.54303 8.5 7.54053C8.5 7.53802 8.5 7.53552 8.5 7.53303C8.5 7.53053 8.5 7.52804 8.5 7.52555C8.5 7.52306 8.5 7.52058 8.5 7.5181C8.5 7.51561 8.5 7.51314 8.5 7.51066C8.5 7.50819 8.5 7.50572 8.5 7.50325C8.5 7.50078 8.5 7.49832 8.5 7.49586C8.5 7.4934 8.5 7.49094 8.5 7.48849C8.5 7.48603 8.5 7.48358 8.5 7.48114C8.5 7.47869 8.5 7.47624 8.5 7.4738C8.5 7.47136 8.5 7.46893 8.5 7.46649C8.5 7.46406 8.5 7.46163 8.5 7.4592C8.5 7.45677 8.5 7.45435 8.5 7.45193C8.5 7.44951 8.5 7.44709 8.5 7.44468C8.5 7.44226 8.5 7.43985 8.5 7.43744C8.5 7.43503 8.5 7.43263 8.5 7.43022C8.5 7.42782 8.5 7.42542 8.5 7.42303C8.5 7.42063 8.5 7.41824 8.5 7.41584C8.5 7.41345 8.5 7.41107 8.5 7.40868C8.5 7.4063 8.5 7.40391 8.5 7.40154C8.5 7.39916 8.5 7.39678 8.5 7.39441C8.5 7.39203 8.5 7.38966 8.5 7.38729C8.5 7.38492 8.5 7.38256 8.5 7.3802C8.5 7.37783 8.5 7.37547 8.5 7.37312C8.5 7.37076 8.5 7.3684 8.5 7.36605C8.5 7.3637 8.5 7.36135 8.5 7.359C8.5 7.35665 8.5 7.35431 8.5 7.35197C8.5 7.34963 8.5 7.34729 8.5 7.34495C8.5 7.34261 8.5 7.34028 8.5 7.33794C8.5 7.33561 8.5 7.33328 8.5 7.33095C8.5 7.32863 8.5 7.3263 8.5 7.32398C8.5 7.32165 8.5 7.31933 8.5 7.31702C8.5 7.3147 8.5 7.31238 8.5 7.31007C8.5 7.30775 8.5 7.30544 8.5 7.30313C8.5 7.30082 8.5 7.29851 8.5 7.29621C8.5 7.2939 8.5 7.2916 8.5 7.2893C8.5 7.287 8.5 7.2847 8.5 7.2824C8.5 7.2801 8.5 7.27781 8.5 7.27551C8.5 7.27322 8.5 7.27093 8.5 7.26864C8.5 7.26635 8.5 7.26406 8.5 7.26178C8.5 7.25949 8.5 7.25721 8.5 7.25492C8.5 7.25264 8.5 7.25036 8.5 7.24808C8.5 7.2458 8.5 7.24353 8.5 7.24125C8.5 7.23898 8.5 7.2367 8.5 7.23443C8.5 7.23216 8.5 7.22989 8.5 7.22762C8.5 7.22535 8.5 7.22309 8.5 7.22082C8.5 7.21856 8.5 7.21629 8.5 7.21403C8.5 7.21177 8.5 7.20951 8.5 7.20725C8.5 7.20499 8.5 7.20273 8.5 7.20048C8.5 7.19822 8.5 7.19597 8.5 7.19371C8.5 7.19146 8.5 7.18921 8.5 7.18696C8.5 7.18471 8.5 7.18246 8.5 7.18021C8.5 7.17796 8.5 7.17571 8.5 7.17347C8.5 7.17122 8.5 7.16898 8.5 7.16674C8.5 7.16449 8.5 7.16225 8.5 7.16001C8.5 7.15777 8.5 7.15553 8.5 7.15329C8.5 7.15105 8.5 7.14882 8.5 7.14658C8.5 7.14434 8.5 7.14211 8.5 7.13987C8.5 7.13764 8.5 7.13541 8.5 7.13317C8.5 7.13094 8.5 7.12871 8.5 7.12648C8.5 7.12425 8.5 7.12202 8.5 7.11979C8.5 7.11756 8.5 7.11534 8.5 7.11311C8.5 7.11088 8.5 7.10865 8.5 7.10643C8.5 7.1042 8.5 7.10198 8.5 7.09976C8.5 7.09753 8.5 7.09531 8.5 7.09309C8.5 7.09086 8.5 7.08864 8.5 7.08642C8.5 7.0842 8.5 7.08198 8.5 7.07976C8.5 7.07754 8.5 7.07532 8.5 7.0731C8.5 7.07088 8.5 7.06866 8.5 7.06644C8.5 7.06423 8.5 7.06201 8.5 7.05979C8.5 7.05757 8.5 7.05536 8.5 7.05314C8.5 7.05093 8.5 7.04871 8.5 7.04649C8.5 7.04428 8.5 7.04206 8.5 7.03985C8.5 7.03763 8.5 7.03542 8.5 7.0332C8.5 7.03099 8.5 7.02878 8.5 7.02656C8.5 7.02435 8.5 7.02213 8.5 7.01992C8.5 7.01771 8.5 7.01549 8.5 7.01328C8.5 7.01107 8.5 7.00885 8.5 7.00664C8.5 7.00443 8.5 7.00221 8.5 7C8.5 6.99779 8.5 6.99557 8.5 6.99336C8.5 6.99115 8.5 6.98893 8.5 6.98672C8.5 6.98451 8.5 6.98229 8.5 6.98008C8.5 6.97787 8.5 6.97565 8.5 6.97344C8.5 6.97122 8.5 6.96901 8.5 6.9668C8.5 6.96458 8.5 6.96237 8.5 6.96015C8.5 6.95794 8.5 6.95572 8.5 6.95351C8.5 6.95129 8.5 6.94907 8.5 6.94686C8.5 6.94464 8.5 6.94243 8.5 6.94021C8.5 6.93799 8.5 6.93577 8.5 6.93356C8.5 6.93134 8.5 6.92912 8.5 6.9269C8.5 6.92468 8.5 6.92246 8.5 6.92024C8.5 6.91802 8.5 6.9158 8.5 6.91358C8.5 6.91136 8.5 6.90914 8.5 6.90691C8.5 6.90469 8.5 6.90247 8.5 6.90024C8.5 6.89802 8.5 6.8958 8.5 6.89357C8.5 6.89135 8.5 6.88912 8.5 6.88689C8.5 6.88466 8.5 6.88244 8.5 6.88021C8.5 6.87798 8.5 6.87575 8.5 6.87352C8.5 6.87129 8.5 6.86906 8.5 6.86683C8.5 6.86459 8.5 6.86236 8.5 6.86013C8.5 6.85789 8.5 6.85566 8.5 6.85342C8.5 6.85118 8.5 6.84895 8.5 6.84671C8.5 6.84447 8.5 6.84223 8.5 6.83999C8.5 6.83775 8.5 6.83551 8.5 6.83326C8.5 6.83102 8.5 6.82878 8.5 6.82653C8.5 6.82429 8.5 6.82204 8.5 6.81979C8.5 6.81754 8.5 6.81529 8.5 6.81304C8.5 6.81079 8.5 6.80854 8.5 6.80629C8.5 6.80403 8.5 6.80178 8.5 6.79952C8.5 6.79727 8.5 6.79501 8.5 6.79275C8.5 6.79049 8.5 6.78823 8.5 6.78597C8.5 6.78371 8.5 6.78144 8.5 6.77918C8.5 6.77691 8.5 6.77465 8.5 6.77238C8.5 6.77011 8.5 6.76784 8.5 6.76557C8.5 6.7633 8.5 6.76102 8.5 6.75875C8.5 6.75647 8.5 6.7542 8.5 6.75192C8.5 6.74964 8.5 6.74736 8.5 6.74508C8.5 6.74279 8.5 6.74051 8.5 6.73822C8.5 6.73594 8.5 6.73365 8.5 6.73136C8.5 6.72907 8.5 6.72678 8.5 6.72449C8.5 6.72219 8.5 6.7199 8.5 6.7176C8.5 6.7153 8.5 6.713 8.5 6.7107C8.5 6.7084 8.5 6.7061 8.5 6.70379C8.5 6.70149 8.5 6.69918 8.5 6.69687C8.5 6.69456 8.5 6.69225 8.5 6.68993C8.5 6.68762 8.5 6.6853 8.5 6.68298C8.5 6.68067 8.5 6.67835 8.5 6.67602C8.5 6.6737 8.5 6.67137 8.5 6.66905C8.5 6.66672 8.5 6.66439 8.5 6.66206C8.5 6.65972 8.5 6.65739 8.5 6.65505C8.5 6.65271 8.5 6.65037 8.5 6.64803C8.5 6.64569 8.5 6.64335 8.5 6.641C8.5 6.63865 8.5 6.6363 8.5 6.63395C8.5 6.6316 8.5 6.62924 8.5 6.62688C8.5 6.62453 8.5 6.62217 8.5 6.6198C8.5 6.61744 8.5 6.61508 8.5 6.61271C8.5 6.61034 8.5 6.60797 8.5 6.60559C8.5 6.60322 8.5 6.60084 8.5 6.59846C8.5 6.59609 8.5 6.5937 8.5 6.59132C8.5 6.58893 8.5 6.58655 8.5 6.58416C8.5 6.58176 8.5 6.57937 8.5 6.57697C8.5 6.57458 8.5 6.57218 8.5 6.56978C8.5 6.56737 8.5 6.56497 8.5 6.56256C8.5 6.56015 8.5 6.55774 8.5 6.55532C8.5 6.55291 8.5 6.55049 8.5 6.54807C8.5 6.54565 8.5 6.54323 8.5 6.5408C8.5 6.53837 8.5 6.53594 8.5 6.53351C8.5 6.53107 8.5 6.52864 8.5 6.5262C8.5 6.52376 8.5 6.52131 8.5 6.51886C8.5 6.51642 8.5 6.51397 8.5 6.51151C8.5 6.50906 8.5 6.5066 8.5 6.50414C8.5 6.50168 8.5 6.49922 8.5 6.49675C8.5 6.49428 8.5 6.49181 8.5 6.48934C8.5 6.48686 8.5 6.48439 8.5 6.4819C8.5 6.47942 8.5 6.47694 8.5 6.47445C8.5 6.47196 8.5 6.46947 8.5 6.46697C8.5 6.46448 8.5 6.46198 8.5 6.45947C8.5 6.45697 8.5 6.45446 8.5 6.45195C8.5 6.44944 8.5 6.44693 8.5 6.44441C8.5 6.44189 8.5 6.43937 8.5 6.43684C8.5 6.43431 8.5 6.43178 8.5 6.42925C8.5 6.42672 8.5 6.42418 8.5 6.42164C8.5 6.41909 8.5 6.41655 8.5 6.414C8.5 6.41145 8.5 6.4089 8.5 6.40634C8.5 6.40378 8.5 6.40122 8.5 6.39865C8.5 6.39609 8.5 6.39352 8.5 6.39094C8.5 6.38837 8.5 6.38579 8.5 6.38321C8.5 6.38062 8.5 6.37804 8.5 6.37545C8.5 6.37285 8.5 6.37026 8.5 6.36766C8.5 6.36506 8.5 6.36246 8.5 6.35985C8.5 6.35724 8.5 6.35463 8.5 6.35201C8.5 6.34939 8.5 6.34677 8.5 6.34415C8.5 6.34152 8.5 6.33889 8.5 6.33626C8.5 6.33362 8.5 6.33098 8.5 6.32834C8.5 6.32569 8.5 6.32305 8.5 6.32039C8.5 6.31774 8.5 6.31508 8.5 6.31242C8.5 6.30976 8.5 6.30709 8.5 6.30442C8.5 6.30175 8.5 6.29907 8.5 6.29639C8.5 6.29371 8.5 6.29103 8.5 6.28834C8.5 6.28565 8.5 6.28295 8.5 6.28025C8.5 6.27755 8.5 6.27485 8.5 6.27214C8.5 6.26943 8.5 6.26671 8.5 6.264C8.5 6.26128 8.5 6.25855 8.5 6.25582C8.5 6.25309 8.5 6.25036 8.5 6.24762C8.5 6.24488 8.5 6.24214 8.5 6.23939C8.5 6.23664 8.5 6.23389 8.5 6.23113C8.5 6.22837 8.5 6.2256 8.5 6.22283C8.5 6.22006 8.5 6.21729 8.5 6.21451C8.5 6.21173 8.5 6.20894 8.5 6.20615C8.5 6.20336 8.5 6.20057 8.5 6.19777C8.5 6.19496 8.5 6.19216 8.5 6.18935C8.5 6.18654 8.5 6.18372 8.5 6.1809C8.5 6.17807 8.5 6.17525 8.5 6.17241C8.5 6.16958 8.5 6.16674 8.5 6.1639C8.5 6.16105 8.5 6.1582 8.5 6.15535C8.5 6.15249 8.5 6.14963 8.5 6.14677C8.5 6.1439 8.5 6.14103 8.5 6.13815C8.5 6.13527 8.5 6.13239 8.5 6.1295C8.5 6.12661 8.5 6.12372 8.5 6.12082C8.5 6.11792 8.5 6.11501 8.5 6.1121C8.5 6.10919 8.5 6.10627 8.5 6.10335C8.5 6.10043 8.5 6.0975 8.5 6.09456C8.5 6.09163 8.5 6.08869 8.5 6.08574C8.5 6.08279 8.5 6.07984 8.5 6.07688C8.5 6.07393 8.5 6.07096 8.5 6.06799C8.5 6.06502 8.5 6.06204 8.5 6.05906C8.5 6.05608 8.5 6.05309 8.5 6.05009C8.5 6.0471 8.5 6.0441 8.5 6.04109C8.5 6.03809 8.5 6.03507 8.5 6.03205C8.5 6.02903 8.5 6.02601 8.5 6.02298C8.5 6.01994 8.5 6.01691 8.5 6.01386C8.5 6.01082 8.5 6.00777 8.5 6.00471C8.5 6.00165 8.5 5.99859 8.5 5.99552C8.5 5.99245 8.5 5.98937 8.5 5.98629C8.5 5.98321 8.5 5.98012 8.5 5.97703C8.5 5.97393 8.5 5.97083 8.5 5.96772C8.5 5.96461 8.5 5.9615 8.5 5.95837C8.5 5.95525 8.5 5.95212 8.5 5.94899C8.5 5.94585 8.5 5.94271 8.5 5.93957C8.5 5.93642 8.5 5.93326 8.5 5.9301C8.5 5.92694 8.5 5.92377 8.5 5.9206C8.5 5.91742 8.5 5.91424 8.5 5.91105C8.5 5.90786 8.5 5.90467 8.5 5.90146C8.5 5.89826 8.5 5.89505 8.5 5.89184C8.5 5.88862 8.5 5.8854 8.5 5.88217C8.5 5.87894 8.5 5.8757 8.5 5.87246C8.5 5.86921 8.5 5.86596 8.5 5.8627C8.5 5.85945 8.5 5.85618 8.5 5.85291C8.5 5.84964 8.5 5.84636 8.5 5.84307C8.5 5.83978 8.5 5.83649 8.5 5.83319C8.5 5.82989 8.5 5.82658 8.5 5.82327C8.5 5.81995 8.5 5.81663 8.5 5.8133C8.5 5.80997 8.5 5.80663 8.5 5.80329C8.5 5.79994 8.5 5.79659 8.5 5.79323C8.5 5.78987 8.5 5.78651 8.5 5.78313C8.5 5.77976 8.5 5.77638 8.5 5.77299C8.5 5.7696 8.5 5.7662 8.5 5.7628C8.5 5.75939 8.5 5.75598 8.5 5.75256C8.5 5.74914 8.5 5.74572 8.5 5.74228C8.5 5.73885 8.5 5.73541 8.5 5.73196C8.5 5.72851 8.5 5.72505 8.5 5.72159C8.5 5.71812 8.5 5.71465 8.5 5.71117C8.5 5.70769 8.5 5.7042 8.5 5.7007C8.5 5.69721 8.5 5.6937 8.5 5.69019C8.5 5.68668 8.5 5.68316 8.5 5.67963C8.5 5.6761 8.5 5.67257 8.5 5.66903C8.5 5.66548 8.5 5.66193 8.5 5.65837C8.5 5.65481 8.5 5.65124 8.5 5.64767C8.5 5.64409 8.5 5.64051 8.5 5.63692C8.5 5.63333 8.5 5.62973 8.5 5.62612C8.5 5.62251 8.5 5.61889 8.5 5.61527C8.5 5.61165 8.5 5.60801 8.5 5.60437C8.5 5.60073 8.5 5.59708 8.5 5.59342C8.5 5.58977 8.5 5.5861 8.5 5.58243C8.5 5.57875 8.5 5.57507 8.5 5.57138C8.5 5.56769 8.5 5.56399 8.5 5.56028C8.5 5.55658 8.5 5.55286 8.5 5.54914C8.5 5.54541 8.5 5.54168 8.5 5.53794C8.5 5.53419 8.5 5.53044 8.5 5.52669C8.5 5.52293 8.5 5.51916 8.5 5.51538C8.5 5.51161 8.5 5.50782 8.5 5.50403C8.5 5.50024 8.5 5.49644 8.5 5.49262C8.5 5.48881 8.5 5.48499 8.5 5.48117C8.5 5.47734 8.5 5.4735 8.5 5.46966C8.5 5.46581 8.5 5.46196 8.5 5.45809C8.5 5.45423 8.5 5.45036 8.5 5.44648C8.5 5.44259 8.5 5.4387 8.5 5.43481C8.5 5.43091 8.5 5.427 8.5 5.42308C8.5 5.41916 8.5 5.41524 8.5 5.4113C8.5 5.40737 8.5 5.40342 8.5 5.39947C8.5 5.39552 8.5 5.39155 8.5 5.38758C8.5 5.38361 8.5 5.37963 8.5 5.37564C8.5 5.37165 8.5 5.36765 8.5 5.36364C8.5 5.35963 8.5 5.35562 8.5 5.35159C8.5 5.34756 8.5 5.34353 8.5 5.33948C8.5 5.33544 8.5 5.33138 8.5 5.32732C8.5 5.32325 8.5 5.31918 8.5 5.31509C8.5 5.31101 8.5 5.30692 8.5 5.30282C8.5 5.29872 8.5 5.2946 8.5 5.29048C8.5 5.28636 8.5 5.28223 8.5 5.27809C8.5 5.27395 8.5 5.2698 8.5 5.26564C8.5 5.26148 8.5 5.25731 8.5 5.25313C8.5 5.24895 8.5 5.24477 8.5 5.24057C8.5 5.23637 8.5 5.23216 8.5 5.22794C8.5 5.22373 8.5 5.2195 8.5 5.21526C8.5 5.21102 8.5 5.20678 8.5 5.20252C8.5 5.19826 8.5 5.19399 8.5 5.18972C8.5 5.18544 8.5 5.18115 8.5 5.17686C8.5 5.17256 8.5 5.16825 8.5 5.16394C8.5 5.15962 8.5 5.15529 8.5 5.15096C8.5 5.14662 8.5 5.14227 8.5 5.13792C8.5 5.13356 8.5 5.12919 8.5 5.12482C8.5 5.12044 8.5 5.11605 8.5 5.11165C8.5 5.10726 8.5 5.10285 8.5 5.09843C8.5 5.09401 8.5 5.08958 8.5 5.08514C8.5 5.08071 8.5 5.07626 8.5 5.0718C8.5 5.06734 8.5 5.06287 8.5 5.05839C8.5 5.05391 8.5 5.04942 8.5 5.04492C8.5 5.04042 8.5 5.0359 8.5 5.03138C8.5 5.02686 8.5 5.02233 8.5 5.01779C8.5 5.01324 8.5 5.00869 8.5 5.00413C8.5 4.99956 8.5 4.99499 8.5 4.9904C8.5 4.98582 8.5 4.98122 8.5 4.97661C8.5 4.97201 8.5 4.96739 8.5 4.96276C8.5 4.95813 8.5 4.9535 8.5 4.94885C8.5 4.9442 8.5 4.93954 8.5 4.93487C8.5 4.93019 8.5 4.92551 8.5 4.92082C8.5 4.91613 8.5 4.91142 8.5 4.90671C8.5 4.90199 8.5 4.89727 8.5 4.89253C8.5 4.8878 8.5 4.88305 8.5 4.87829C8.5 4.87353 8.5 4.86876 8.5 4.86398C8.5 4.8592 8.5 4.85441 8.5 4.84961C8.5 4.8448 8.5 4.83999 8.5 4.83517C8.5 4.83034 8.5 4.8255 8.5 4.82066C8.5 4.81581 8.5 4.81095 8.5 4.80608C8.5 4.80121 8.5 4.79633 8.5 4.79144C8.5 4.78654 8.5 4.78164 8.5 4.77673C8.5 4.77181 8.5 4.76688 8.5 4.76195C8.5 4.75701 8.5 4.75206 8.5 4.7471C8.5 4.74214 8.5 4.73717 8.5 4.73218C8.5 4.7272 8.5 4.7222 8.5 4.7172C8.5 4.71219 8.5 4.70717 8.5 4.70214C8.5 4.69711 8.5 4.69207 8.5 4.68702C8.5 4.68197 8.5 4.6769 8.5 4.67182C8.5 4.66675 8.5 4.66166 8.5 4.65656C8.5 4.65146 8.5 4.64635 8.5 4.64123C8.5 4.6361 8.5 4.63097 8.5 4.62582C8.5 4.62067 8.5 4.61552 8.5 4.61034C8.5 4.60517 8.5 4.59999 8.5 4.5948C8.5 4.5896 8.5 4.5844 8.5 4.57918C8.5 4.57396 8.5 4.56873 8.5 4.56349C8.5 4.55825 8.5 4.55299 8.5 4.54772C8.5 4.54246 8.5 4.53718 8.5 4.53189C8.5 4.5266 8.5 4.5213 8.5 4.51598C8.5 4.51067 8.5 4.50534 8.5 4.5H7.5C7.5 4.50534 7.5 4.51067 7.5 4.51598C7.5 4.5213 7.5 4.5266 7.5 4.53189C7.5 4.53718 7.5 4.54246 7.5 4.54772C7.5 4.55299 7.5 4.55825 7.5 4.56349C7.5 4.56873 7.5 4.57396 7.5 4.57918C7.5 4.5844 7.5 4.5896 7.5 4.5948C7.5 4.59999 7.5 4.60517 7.5 4.61034C7.5 4.61552 7.5 4.62067 7.5 4.62582C7.5 4.63097 7.5 4.6361 7.5 4.64123C7.5 4.64635 7.5 4.65146 7.5 4.65656C7.5 4.66166 7.5 4.66675 7.5 4.67182C7.5 4.6769 7.5 4.68197 7.5 4.68702C7.5 4.69207 7.5 4.69711 7.5 4.70214C7.5 4.70717 7.5 4.71219 7.5 4.7172C7.5 4.7222 7.5 4.7272 7.5 4.73218C7.5 4.73717 7.5 4.74214 7.5 4.7471C7.5 4.75206 7.5 4.75701 7.5 4.76195C7.5 4.76688 7.5 4.77181 7.5 4.77673C7.5 4.78164 7.5 4.78654 7.5 4.79144C7.5 4.79633 7.5 4.80121 7.5 4.80608C7.5 4.81095 7.5 4.81581 7.5 4.82066C7.5 4.8255 7.5 4.83034 7.5 4.83517C7.5 4.83999 7.5 4.8448 7.5 4.84961C7.5 4.85441 7.5 4.8592 7.5 4.86398C7.5 4.86876 7.5 4.87353 7.5 4.87829C7.5 4.88305 7.5 4.8878 7.5 4.89253C7.5 4.89727 7.5 4.90199 7.5 4.90671C7.5 4.91142 7.5 4.91613 7.5 4.92082C7.5 4.92551 7.5 4.93019 7.5 4.93487C7.5 4.93954 7.5 4.9442 7.5 4.94885C7.5 4.9535 7.5 4.95813 7.5 4.96276C7.5 4.96739 7.5 4.97201 7.5 4.97661C7.5 4.98122 7.5 4.98582 7.5 4.9904C7.5 4.99499 7.5 4.99956 7.5 5.00413C7.5 5.00869 7.5 5.01324 7.5 5.01779C7.5 5.02233 7.5 5.02686 7.5 5.03138C7.5 5.0359 7.5 5.04042 7.5 5.04492C7.5 5.04942 7.5 5.05391 7.5 5.05839C7.5 5.06287 7.5 5.06734 7.5 5.0718C7.5 5.07626 7.5 5.08071 7.5 5.08514C7.5 5.08958 7.5 5.09401 7.5 5.09843C7.5 5.10285 7.5 5.10726 7.5 5.11165C7.5 5.11605 7.5 5.12044 7.5 5.12482C7.5 5.12919 7.5 5.13356 7.5 5.13792C7.5 5.14227 7.5 5.14662 7.5 5.15096C7.5 5.15529 7.5 5.15962 7.5 5.16394C7.5 5.16825 7.5 5.17256 7.5 5.17686C7.5 5.18115 7.5 5.18544 7.5 5.18972C7.5 5.19399 7.5 5.19826 7.5 5.20252C7.5 5.20678 7.5 5.21102 7.5 5.21526C7.5 5.2195 7.5 5.22373 7.5 5.22794C7.5 5.23216 7.5 5.23637 7.5 5.24057C7.5 5.24477 7.5 5.24895 7.5 5.25313C7.5 5.25731 7.5 5.26148 7.5 5.26564C7.5 5.2698 7.5 5.27395 7.5 5.27809C7.5 5.28223 7.5 5.28636 7.5 5.29048C7.5 5.2946 7.5 5.29872 7.5 5.30282C7.5 5.30692 7.5 5.31101 7.5 5.31509C7.5 5.31918 7.5 5.32325 7.5 5.32732C7.5 5.33138 7.5 5.33544 7.5 5.33948C7.5 5.34353 7.5 5.34756 7.5 5.35159C7.5 5.35562 7.5 5.35963 7.5 5.36364C7.5 5.36765 7.5 5.37165 7.5 5.37564C7.5 5.37963 7.5 5.38361 7.5 5.38758C7.5 5.39155 7.5 5.39552 7.5 5.39947C7.5 5.40342 7.5 5.40737 7.5 5.4113C7.5 5.41524 7.5 5.41916 7.5 5.42308C7.5 5.427 7.5 5.43091 7.5 5.43481C7.5 5.4387 7.5 5.44259 7.5 5.44648C7.5 5.45036 7.5 5.45423 7.5 5.45809C7.5 5.46196 7.5 5.46581 7.5 5.46966C7.5 5.4735 7.5 5.47734 7.5 5.48117C7.5 5.48499 7.5 5.48881 7.5 5.49262C7.5 5.49644 7.5 5.50024 7.5 5.50403C7.5 5.50782 7.5 5.51161 7.5 5.51538C7.5 5.51916 7.5 5.52293 7.5 5.52669C7.5 5.53044 7.5 5.53419 7.5 5.53794C7.5 5.54168 7.5 5.54541 7.5 5.54914C7.5 5.55286 7.5 5.55658 7.5 5.56028C7.5 5.56399 7.5 5.56769 7.5 5.57138C7.5 5.57507 7.5 5.57875 7.5 5.58243C7.5 5.5861 7.5 5.58977 7.5 5.59342C7.5 5.59708 7.5 5.60073 7.5 5.60437C7.5 5.60801 7.5 5.61165 7.5 5.61527C7.5 5.61889 7.5 5.62251 7.5 5.62612C7.5 5.62973 7.5 5.63333 7.5 5.63692C7.5 5.64051 7.5 5.64409 7.5 5.64767C7.5 5.65124 7.5 5.65481 7.5 5.65837C7.5 5.66193 7.5 5.66548 7.5 5.66903C7.5 5.67257 7.5 5.6761 7.5 5.67963C7.5 5.68316 7.5 5.68668 7.5 5.69019C7.5 5.6937 7.5 5.69721 7.5 5.7007C7.5 5.7042 7.5 5.70769 7.5 5.71117C7.5 5.71465 7.5 5.71812 7.5 5.72159C7.5 5.72505 7.5 5.72851 7.5 5.73196C7.5 5.73541 7.5 5.73885 7.5 5.74228C7.5 5.74572 7.5 5.74914 7.5 5.75256C7.5 5.75598 7.5 5.75939 7.5 5.7628C7.5 5.7662 7.5 5.7696 7.5 5.77299C7.5 5.77638 7.5 5.77976 7.5 5.78313C7.5 5.78651 7.5 5.78987 7.5 5.79323C7.5 5.79659 7.5 5.79994 7.5 5.80329C7.5 5.80663 7.5 5.80997 7.5 5.8133C7.5 5.81663 7.5 5.81995 7.5 5.82327C7.5 5.82658 7.5 5.82989 7.5 5.83319C7.5 5.83649 7.5 5.83978 7.5 5.84307C7.5 5.84636 7.5 5.84964 7.5 5.85291C7.5 5.85618 7.5 5.85945 7.5 5.8627C7.5 5.86596 7.5 5.86921 7.5 5.87246C7.5 5.8757 7.5 5.87894 7.5 5.88217C7.5 5.8854 7.5 5.88862 7.5 5.89184C7.5 5.89505 7.5 5.89826 7.5 5.90146C7.5 5.90467 7.5 5.90786 7.5 5.91105C7.5 5.91424 7.5 5.91742 7.5 5.9206C7.5 5.92377 7.5 5.92694 7.5 5.9301C7.5 5.93326 7.5 5.93642 7.5 5.93957C7.5 5.94271 7.5 5.94585 7.5 5.94899C7.5 5.95212 7.5 5.95525 7.5 5.95837C7.5 5.9615 7.5 5.96461 7.5 5.96772C7.5 5.97083 7.5 5.97393 7.5 5.97703C7.5 5.98012 7.5 5.98321 7.5 5.98629C7.5 5.98937 7.5 5.99245 7.5 5.99552C7.5 5.99859 7.5 6.00165 7.5 6.00471C7.5 6.00777 7.5 6.01082 7.5 6.01386C7.5 6.01691 7.5 6.01994 7.5 6.02298C7.5 6.02601 7.5 6.02903 7.5 6.03205C7.5 6.03507 7.5 6.03809 7.5 6.04109C7.5 6.0441 7.5 6.0471 7.5 6.05009C7.5 6.05309 7.5 6.05608 7.5 6.05906C7.5 6.06204 7.5 6.06502 7.5 6.06799C7.5 6.07096 7.5 6.07393 7.5 6.07688C7.5 6.07984 7.5 6.08279 7.5 6.08574C7.5 6.08869 7.5 6.09163 7.5 6.09456C7.5 6.0975 7.5 6.10043 7.5 6.10335C7.5 6.10627 7.5 6.10919 7.5 6.1121C7.5 6.11501 7.5 6.11792 7.5 6.12082C7.5 6.12372 7.5 6.12661 7.5 6.1295C7.5 6.13239 7.5 6.13527 7.5 6.13815C7.5 6.14103 7.5 6.1439 7.5 6.14677C7.5 6.14963 7.5 6.15249 7.5 6.15535C7.5 6.1582 7.5 6.16105 7.5 6.1639C7.5 6.16674 7.5 6.16958 7.5 6.17241C7.5 6.17525 7.5 6.17807 7.5 6.1809C7.5 6.18372 7.5 6.18654 7.5 6.18935C7.5 6.19216 7.5 6.19496 7.5 6.19777C7.5 6.20057 7.5 6.20336 7.5 6.20615C7.5 6.20894 7.5 6.21173 7.5 6.21451C7.5 6.21729 7.5 6.22006 7.5 6.22283C7.5 6.2256 7.5 6.22837 7.5 6.23113C7.5 6.23389 7.5 6.23664 7.5 6.23939C7.5 6.24214 7.5 6.24488 7.5 6.24762C7.5 6.25036 7.5 6.25309 7.5 6.25582C7.5 6.25855 7.5 6.26128 7.5 6.264C7.5 6.26671 7.5 6.26943 7.5 6.27214C7.5 6.27485 7.5 6.27755 7.5 6.28025C7.5 6.28295 7.5 6.28565 7.5 6.28834C7.5 6.29103 7.5 6.29371 7.5 6.29639C7.5 6.29907 7.5 6.30175 7.5 6.30442C7.5 6.30709 7.5 6.30976 7.5 6.31242C7.5 6.31508 7.5 6.31774 7.5 6.32039C7.5 6.32305 7.5 6.32569 7.5 6.32834C7.5 6.33098 7.5 6.33362 7.5 6.33626C7.5 6.33889 7.5 6.34152 7.5 6.34415C7.5 6.34677 7.5 6.34939 7.5 6.35201C7.5 6.35463 7.5 6.35724 7.5 6.35985C7.5 6.36246 7.5 6.36506 7.5 6.36766C7.5 6.37026 7.5 6.37285 7.5 6.37545C7.5 6.37804 7.5 6.38062 7.5 6.38321C7.5 6.38579 7.5 6.38837 7.5 6.39094C7.5 6.39352 7.5 6.39609 7.5 6.39865C7.5 6.40122 7.5 6.40378 7.5 6.40634C7.5 6.4089 7.5 6.41145 7.5 6.414C7.5 6.41655 7.5 6.41909 7.5 6.42164C7.5 6.42418 7.5 6.42672 7.5 6.42925C7.5 6.43178 7.5 6.43431 7.5 6.43684C7.5 6.43937 7.5 6.44189 7.5 6.44441C7.5 6.44693 7.5 6.44944 7.5 6.45195C7.5 6.45446 7.5 6.45697 7.5 6.45947C7.5 6.46198 7.5 6.46448 7.5 6.46697C7.5 6.46947 7.5 6.47196 7.5 6.47445C7.5 6.47694 7.5 6.47942 7.5 6.4819C7.5 6.48439 7.5 6.48686 7.5 6.48934C7.5 6.49181 7.5 6.49428 7.5 6.49675C7.5 6.49922 7.5 6.50168 7.5 6.50414C7.5 6.5066 7.5 6.50906 7.5 6.51151C7.5 6.51397 7.5 6.51642 7.5 6.51886C7.5 6.52131 7.5 6.52376 7.5 6.5262C7.5 6.52864 7.5 6.53107 7.5 6.53351C7.5 6.53594 7.5 6.53837 7.5 6.5408C7.5 6.54323 7.5 6.54565 7.5 6.54807C7.5 6.55049 7.5 6.55291 7.5 6.55532C7.5 6.55774 7.5 6.56015 7.5 6.56256C7.5 6.56497 7.5 6.56737 7.5 6.56978C7.5 6.57218 7.5 6.57458 7.5 6.57697C7.5 6.57937 7.5 6.58176 7.5 6.58416C7.5 6.58655 7.5 6.58893 7.5 6.59132C7.5 6.5937 7.5 6.59609 7.5 6.59846C7.5 6.60084 7.5 6.60322 7.5 6.60559C7.5 6.60797 7.5 6.61034 7.5 6.61271C7.5 6.61508 7.5 6.61744 7.5 6.6198C7.5 6.62217 7.5 6.62453 7.5 6.62688C7.5 6.62924 7.5 6.6316 7.5 6.63395C7.5 6.6363 7.5 6.63865 7.5 6.641C7.5 6.64335 7.5 6.64569 7.5 6.64803C7.5 6.65037 7.5 6.65271 7.5 6.65505C7.5 6.65739 7.5 6.65972 7.5 6.66206C7.5 6.66439 7.5 6.66672 7.5 6.66905C7.5 6.67137 7.5 6.6737 7.5 6.67602C7.5 6.67835 7.5 6.68067 7.5 6.68298C7.5 6.6853 7.5 6.68762 7.5 6.68993C7.5 6.69225 7.5 6.69456 7.5 6.69687C7.5 6.69918 7.5 6.70149 7.5 6.70379C7.5 6.7061 7.5 6.7084 7.5 6.7107C7.5 6.713 7.5 6.7153 7.5 6.7176C7.5 6.7199 7.5 6.72219 7.5 6.72449C7.5 6.72678 7.5 6.72907 7.5 6.73136C7.5 6.73365 7.5 6.73594 7.5 6.73822C7.5 6.74051 7.5 6.74279 7.5 6.74508C7.5 6.74736 7.5 6.74964 7.5 6.75192C7.5 6.7542 7.5 6.75647 7.5 6.75875C7.5 6.76102 7.5 6.7633 7.5 6.76557C7.5 6.76784 7.5 6.77011 7.5 6.77238C7.5 6.77465 7.5 6.77691 7.5 6.77918C7.5 6.78144 7.5 6.78371 7.5 6.78597C7.5 6.78823 7.5 6.79049 7.5 6.79275C7.5 6.79501 7.5 6.79727 7.5 6.79952C7.5 6.80178 7.5 6.80403 7.5 6.80629C7.5 6.80854 7.5 6.81079 7.5 6.81304C7.5 6.81529 7.5 6.81754 7.5 6.81979C7.5 6.82204 7.5 6.82429 7.5 6.82653C7.5 6.82878 7.5 6.83102 7.5 6.83326C7.5 6.83551 7.5 6.83775 7.5 6.83999C7.5 6.84223 7.5 6.84447 7.5 6.84671C7.5 6.84895 7.5 6.85118 7.5 6.85342C7.5 6.85566 7.5 6.85789 7.5 6.86013C7.5 6.86236 7.5 6.86459 7.5 6.86683C7.5 6.86906 7.5 6.87129 7.5 6.87352C7.5 6.87575 7.5 6.87798 7.5 6.88021C7.5 6.88244 7.5 6.88466 7.5 6.88689C7.5 6.88912 7.5 6.89135 7.5 6.89357C7.5 6.8958 7.5 6.89802 7.5 6.90024C7.5 6.90247 7.5 6.90469 7.5 6.90691C7.5 6.90914 7.5 6.91136 7.5 6.91358C7.5 6.9158 7.5 6.91802 7.5 6.92024C7.5 6.92246 7.5 6.92468 7.5 6.9269C7.5 6.92912 7.5 6.93134 7.5 6.93356C7.5 6.93577 7.5 6.93799 7.5 6.94021C7.5 6.94243 7.5 6.94464 7.5 6.94686C7.5 6.94907 7.5 6.95129 7.5 6.95351C7.5 6.95572 7.5 6.95794 7.5 6.96015C7.5 6.96237 7.5 6.96458 7.5 6.9668C7.5 6.96901 7.5 6.97122 7.5 6.97344C7.5 6.97565 7.5 6.97787 7.5 6.98008C7.5 6.98229 7.5 6.98451 7.5 6.98672C7.5 6.98893 7.5 6.99115 7.5 6.99336C7.5 6.99557 7.5 6.99779 7.5 7C7.5 7.00221 7.5 7.00443 7.5 7.00664C7.5 7.00885 7.5 7.01107 7.5 7.01328C7.5 7.01549 7.5 7.01771 7.5 7.01992C7.5 7.02213 7.5 7.02435 7.5 7.02656C7.5 7.02878 7.5 7.03099 7.5 7.0332C7.5 7.03542 7.5 7.03763 7.5 7.03985C7.5 7.04206 7.5 7.04428 7.5 7.04649C7.5 7.04871 7.5 7.05093 7.5 7.05314C7.5 7.05536 7.5 7.05757 7.5 7.05979C7.5 7.06201 7.5 7.06423 7.5 7.06644C7.5 7.06866 7.5 7.07088 7.5 7.0731C7.5 7.07532 7.5 7.07754 7.5 7.07976C7.5 7.08198 7.5 7.0842 7.5 7.08642C7.5 7.08864 7.5 7.09086 7.5 7.09309C7.5 7.09531 7.5 7.09753 7.5 7.09976C7.5 7.10198 7.5 7.1042 7.5 7.10643C7.5 7.10865 7.5 7.11088 7.5 7.11311C7.5 7.11534 7.5 7.11756 7.5 7.11979C7.5 7.12202 7.5 7.12425 7.5 7.12648C7.5 7.12871 7.5 7.13094 7.5 7.13317C7.5 7.13541 7.5 7.13764 7.5 7.13987C7.5 7.14211 7.5 7.14434 7.5 7.14658C7.5 7.14882 7.5 7.15105 7.5 7.15329C7.5 7.15553 7.5 7.15777 7.5 7.16001C7.5 7.16225 7.5 7.16449 7.5 7.16674C7.5 7.16898 7.5 7.17122 7.5 7.17347C7.5 7.17571 7.5 7.17796 7.5 7.18021C7.5 7.18246 7.5 7.18471 7.5 7.18696C7.5 7.18921 7.5 7.19146 7.5 7.19371C7.5 7.19597 7.5 7.19822 7.5 7.20048C7.5 7.20273 7.5 7.20499 7.5 7.20725C7.5 7.20951 7.5 7.21177 7.5 7.21403C7.5 7.21629 7.5 7.21856 7.5 7.22082C7.5 7.22309 7.5 7.22535 7.5 7.22762C7.5 7.22989 7.5 7.23216 7.5 7.23443C7.5 7.2367 7.5 7.23898 7.5 7.24125C7.5 7.24353 7.5 7.2458 7.5 7.24808C7.5 7.25036 7.5 7.25264 7.5 7.25492C7.5 7.25721 7.5 7.25949 7.5 7.26178C7.5 7.26406 7.5 7.26635 7.5 7.26864C7.5 7.27093 7.5 7.27322 7.5 7.27551C7.5 7.27781 7.5 7.2801 7.5 7.2824C7.5 7.2847 7.5 7.287 7.5 7.2893C7.5 7.2916 7.5 7.2939 7.5 7.29621C7.5 7.29851 7.5 7.30082 7.5 7.30313C7.5 7.30544 7.5 7.30775 7.5 7.31007C7.5 7.31238 7.5 7.3147 7.5 7.31702C7.5 7.31933 7.5 7.32165 7.5 7.32398C7.5 7.3263 7.5 7.32863 7.5 7.33095C7.5 7.33328 7.5 7.33561 7.5 7.33794C7.5 7.34028 7.5 7.34261 7.5 7.34495C7.5 7.34729 7.5 7.34963 7.5 7.35197C7.5 7.35431 7.5 7.35665 7.5 7.359C7.5 7.36135 7.5 7.3637 7.5 7.36605C7.5 7.3684 7.5 7.37076 7.5 7.37312C7.5 7.37547 7.5 7.37783 7.5 7.3802C7.5 7.38256 7.5 7.38492 7.5 7.38729C7.5 7.38966 7.5 7.39203 7.5 7.39441C7.5 7.39678 7.5 7.39916 7.5 7.40154C7.5 7.40391 7.5 7.4063 7.5 7.40868C7.5 7.41107 7.5 7.41345 7.5 7.41584C7.5 7.41824 7.5 7.42063 7.5 7.42303C7.5 7.42542 7.5 7.42782 7.5 7.43022C7.5 7.43263 7.5 7.43503 7.5 7.43744C7.5 7.43985 7.5 7.44226 7.5 7.44468C7.5 7.44709 7.5 7.44951 7.5 7.45193C7.5 7.45435 7.5 7.45677 7.5 7.4592C7.5 7.46163 7.5 7.46406 7.5 7.46649C7.5 7.46893 7.5 7.47136 7.5 7.4738C7.5 7.47624 7.5 7.47869 7.5 7.48114C7.5 7.48358 7.5 7.48603 7.5 7.48849C7.5 7.49094 7.5 7.4934 7.5 7.49586C7.5 7.49832 7.5 7.50078 7.5 7.50325C7.5 7.50572 7.5 7.50819 7.5 7.51066C7.5 7.51314 7.5 7.51561 7.5 7.5181C7.5 7.52058 7.5 7.52306 7.5 7.52555C7.5 7.52804 7.5 7.53053 7.5 7.53303C7.5 7.53552 7.5 7.53802 7.5 7.54053C7.5 7.54303 7.5 7.54554 7.5 7.54805C7.5 7.55056 7.5 7.55307 7.5 7.55559C7.5 7.55811 7.5 7.56063 7.5 7.56316C7.5 7.56569 7.5 7.56822 7.5 7.57075C7.5 7.57328 7.5 7.57582 7.5 7.57836C7.5 7.58091 7.5 7.58345 7.5 7.586C7.5 7.58855 7.5 7.5911 7.5 7.59366C7.5 7.59622 7.5 7.59878 7.5 7.60135C7.5 7.60391 7.5 7.60648 7.5 7.60906C7.5 7.61163 7.5 7.61421 7.5 7.61679C7.5 7.61938 7.5 7.62196 7.5 7.62455C7.5 7.62715 7.5 7.62974 7.5 7.63234C7.5 7.63494 7.5 7.63754 7.5 7.64015C7.5 7.64276 7.5 7.64537 7.5 7.64799C7.5 7.65061 7.5 7.65323 7.5 7.65585C7.5 7.65848 7.5 7.66111 7.5 7.66374C7.5 7.66638 7.5 7.66902 7.5 7.67166C7.5 7.67431 7.5 7.67695 7.5 7.67961C7.5 7.68226 7.5 7.68492 7.5 7.68758C7.5 7.69024 7.5 7.69291 7.5 7.69558C7.5 7.69825 7.5 7.70093 7.5 7.70361C7.5 7.70629 7.5 7.70897 7.5 7.71166C7.5 7.71435 7.5 7.71705 7.5 7.71975C7.5 7.72245 7.5 7.72515 7.5 7.72786C7.5 7.73057 7.5 7.73329 7.5 7.736C7.5 7.73872 7.5 7.74145 7.5 7.74418C7.5 7.74691 7.5 7.74964 7.5 7.75238C7.5 7.75512 7.5 7.75786 7.5 7.76061C7.5 7.76336 7.5 7.76612 7.5 7.76887C7.5 7.77163 7.5 7.7744 7.5 7.77717C7.5 7.77994 7.5 7.78271 7.5 7.78549C7.5 7.78827 7.5 7.79106 7.5 7.79385C7.5 7.79664 7.5 7.79943 7.5 7.80223C7.5 7.80504 7.5 7.80784 7.5 7.81065C7.5 7.81346 7.5 7.81628 7.5 7.8191C7.5 7.82193 7.5 7.82475 7.5 7.82759C7.5 7.83042 7.5 7.83326 7.5 7.8361C7.5 7.83895 7.5 7.8418 7.5 7.84465C7.5 7.84751 7.5 7.85037 7.5 7.85323C7.5 7.8561 7.5 7.85897 7.5 7.86185C7.5 7.86473 7.5 7.86761 7.5 7.8705C7.5 7.87339 7.5 7.87628 7.5 7.87918C7.5 7.88208 7.5 7.88499 7.5 7.8879C7.5 7.89081 7.5 7.89373 7.5 7.89665C7.5 7.89957 7.5 7.9025 7.5 7.90544C7.5 7.90837 7.5 7.91131 7.5 7.91426C7.5 7.91721 7.5 7.92016 7.5 7.92312C7.5 7.92607 7.5 7.92904 7.5 7.93201C7.5 7.93498 7.5 7.93796 7.5 7.94094C7.5 7.94392 7.5 7.94691 7.5 7.94991C7.5 7.9529 7.5 7.9559 7.5 7.95891C7.5 7.96191 7.5 7.96493 7.5 7.96795C7.5 7.97097 7.5 7.97399 7.5 7.97702C7.5 7.98006 7.5 7.98309 7.5 7.98614C7.5 7.98918 7.5 7.99223 7.5 7.99529C7.5 7.99835 7.5 8.00141 7.5 8.00448C7.5 8.00755 7.5 8.01063 7.5 8.01371C7.5 8.01679 7.5 8.01988 7.5 8.02297C7.5 8.02607 7.5 8.02917 7.5 8.03228C7.5 8.03539 7.5 8.0385 7.5 8.04163C7.5 8.04475 7.5 8.04788 7.5 8.05101C7.5 8.05415 7.5 8.05729 7.5 8.06043C7.5 8.06358 7.5 8.06674 7.5 8.0699C7.5 8.07306 7.5 8.07623 7.5 8.0794C7.5 8.08258 7.5 8.08576 7.5 8.08895C7.5 8.09214 7.5 8.09533 7.5 8.09854C7.5 8.10174 7.5 8.10495 7.5 8.10816C7.5 8.11138 7.5 8.1146 7.5 8.11783C7.5 8.12106 7.5 8.1243 7.5 8.12754C7.5 8.13079 7.5 8.13404 7.5 8.1373C7.5 8.14055 7.5 8.14382 7.5 8.14709C7.5 8.15036 7.5 8.15364 7.5 8.15693C7.5 8.16022 7.5 8.16351 7.5 8.16681C7.5 8.17011 7.5 8.17342 7.5 8.17673C7.5 8.18005 7.5 8.18337 7.5 8.1867C7.5 8.19003 7.5 8.19337 7.5 8.19671C7.5 8.20006 7.5 8.20341 7.5 8.20677C7.5 8.21013 7.5 8.21349 7.5 8.21687C7.5 8.22024 7.5 8.22362 7.5 8.22701C7.5 8.2304 7.5 8.2338 7.5 8.2372C7.5 8.24061 7.5 8.24402 7.5 8.24744C7.5 8.25086 7.5 8.25428 7.5 8.25772C7.5 8.26115 7.5 8.26459 7.5 8.26804C7.5 8.27149 7.5 8.27495 7.5 8.27841C7.5 8.28188 7.5 8.28535 7.5 8.28883C7.5 8.29231 7.5 8.2958 7.5 8.2993C7.5 8.30279 7.5 8.3063 7.5 8.30981C7.5 8.31332 7.5 8.31684 7.5 8.32037C7.5 8.3239 7.5 8.32743 7.5 8.33097C7.5 8.33452 7.5 8.33807 7.5 8.34163C7.5 8.34519 7.5 8.34876 7.5 8.35233C7.5 8.35591 7.5 8.35949 7.5 8.36308C7.5 8.36667 7.5 8.37027 7.5 8.37388C7.5 8.37749 7.5 8.38111 7.5 8.38473C7.5 8.38835 7.5 8.39199 7.5 8.39563C7.5 8.39927 7.5 8.40292 7.5 8.40658C7.5 8.41023 7.5 8.4139 7.5 8.41757C7.5 8.42125 7.5 8.42493 7.5 8.42862C7.5 8.43231 7.5 8.43601 7.5 8.43972C7.5 8.44342 7.5 8.44714 7.5 8.45086C7.5 8.45459 7.5 8.45832 7.5 8.46206C7.5 8.46581 7.5 8.46956 7.5 8.47331C7.5 8.47707 7.5 8.48084 7.5 8.48462C7.5 8.48839 7.5 8.49218 7.5 8.49597C7.5 8.49976 7.5 8.50356 7.5 8.50738C7.5 8.51119 7.5 8.51501 7.5 8.51883C7.5 8.52266 7.5 8.5265 7.5 8.53034C7.5 8.53419 7.5 8.53804 7.5 8.54191C7.5 8.54577 7.5 8.54964 7.5 8.55352C7.5 8.55741 7.5 8.5613 7.5 8.56519C7.5 8.56909 7.5 8.573 7.5 8.57692C7.5 8.58084 7.5 8.58476 7.5 8.5887C7.5 8.59263 7.5 8.59658 7.5 8.60053C7.5 8.60448 7.5 8.60845 7.5 8.61242C7.5 8.61639 7.5 8.62037 7.5 8.62436C7.5 8.62835 7.5 8.63235 7.5 8.63636C7.5 8.64037 7.5 8.64438 7.5 8.64841C7.5 8.65244 7.5 8.65647 7.5 8.66052C7.5 8.66456 7.5 8.66862 7.5 8.67268C7.5 8.67675 7.5 8.68082 7.5 8.6849C7.5 8.68899 7.5 8.69308 7.5 8.69718C7.5 8.70129 7.5 8.7054 7.5 8.70952C7.5 8.71364 7.5 8.71777 7.5 8.72191C7.5 8.72605 7.5 8.7302 7.5 8.73436C7.5 8.73852 7.5 8.74269 7.5 8.74687C7.5 8.75105 7.5 8.75523 7.5 8.75943C7.5 8.76363 7.5 8.76784 7.5 8.77206C7.5 8.77627 7.5 8.7805 7.5 8.78474C7.5 8.78898 7.5 8.79322 7.5 8.79748C7.5 8.80174 7.5 8.80601 7.5 8.81028C7.5 8.81456 7.5 8.81885 7.5 8.82314C7.5 8.82744 7.5 8.83175 7.5 8.83606C7.5 8.84038 7.5 8.84471 7.5 8.84904C7.5 8.85338 7.5 8.85773 7.5 8.86208C7.5 8.86644 7.5 8.87081 7.5 8.87518C7.5 8.87956 7.5 8.88395 7.5 8.88835C7.5 8.89274 7.5 8.89715 7.5 8.90157C7.5 8.90599 7.5 8.91042 7.5 8.91486C7.5 8.91929 7.5 8.92374 7.5 8.9282C7.5 8.93266 7.5 8.93713 7.5 8.94161C7.5 8.94609 7.5 8.95058 7.5 8.95508C7.5 8.95958 7.5 8.9641 7.5 8.96862C7.5 8.97314 7.5 8.97767 7.5 8.98221C7.5 8.98676 7.5 8.99131 7.5 8.99587C7.5 9.00044 7.5 9.00501 7.5 9.0096C7.5 9.01418 7.5 9.01878 7.5 9.02339C7.5 9.02799 7.5 9.03261 7.5 9.03724C7.5 9.04187 7.5 9.0465 7.5 9.05115C7.5 9.0558 7.5 9.06046 7.5 9.06513C7.5 9.06981 7.5 9.07449 7.5 9.07918C7.5 9.08387 7.5 9.08858 7.5 9.09329C7.5 9.09801 7.5 9.10273 7.5 9.10747C7.5 9.1122 7.5 9.11695 7.5 9.12171C7.5 9.12647 7.5 9.13124 7.5 9.13602C7.5 9.1408 7.5 9.14559 7.5 9.15039C7.5 9.1552 7.5 9.16001 7.5 9.16484C7.5 9.16966 7.5 9.1745 7.5 9.17934C7.5 9.18419 7.5 9.18905 7.5 9.19392C7.5 9.19879 7.5 9.20367 7.5 9.20856C7.5 9.21346 7.5 9.21836 7.5 9.22327C7.5 9.22819 7.5 9.23312 7.5 9.23805C7.5 9.24299 7.5 9.24794 7.5 9.2529C7.5 9.25786 7.5 9.26283 7.5 9.26782C7.5 9.2728 7.5 9.2778 7.5 9.2828C7.5 9.28781 7.5 9.29283 7.5 9.29786C7.5 9.30289 7.5 9.30793 7.5 9.31298C7.5 9.31803 7.5 9.3231 7.5 9.32818C7.5 9.33325 7.5 9.33834 7.5 9.34344C7.5 9.34854 7.5 9.35365 7.5 9.35877C7.5 9.3639 7.5 9.36903 7.5 9.37418C7.5 9.37933 7.5 9.38448 7.5 9.38966C7.5 9.39483 7.5 9.40001 7.5 9.4052C7.5 9.4104 7.5 9.4156 7.5 9.42082C7.5 9.42604 7.5 9.43127 7.5 9.43651C7.5 9.44175 7.5 9.44701 7.5 9.45228C7.5 9.45754 7.5 9.46282 7.5 9.46811C7.5 9.4734 7.5 9.4787 7.5 9.48402C7.5 9.48933 7.5 9.49466 7.5 9.5H8.5Z" fill="#282829"/><path d="M8.25 11.5C8.25 11.6381 8.13807 11.75 8 11.75C7.86193 11.75 7.75 11.6381 7.75 11.5C7.75 11.3619 7.86193 11.25 8 11.25C8.13807 11.25 8.25 11.3619 8.25 11.5Z" stroke-width="0.5"/></svg>
