<svg xmlns="http://www.w3.org/2000/svg" fill="none" viewBox="0 0 24 24" width="1em" height="1em"><path stroke="currentColor" d="M2.5 9a.5.5 0 0 1 .5-.5h3A1.5 1.5 0 0 1 7.5 10v7A1.5 1.5 0 0 1 6 18.5H3a.5.5 0 0 1-.5-.5V9Z"/><circle cx="5.5" cy="16.5" r=".25" stroke="currentColor" stroke-width=".5"/><path stroke="currentColor" d="M16 18.5h-4.72a2 2 0 0 1-.55-.077L7.5 17.5"/><path fill="currentColor" d="M13.5 8a.5.5 0 0 0 0 1V8Zm0 1h6.75V8H13.5v1Zm6.75 1.5H18.4v1h1.85v-1Zm.75-.75a.75.75 0 0 1-.75.75v1A1.75 1.75 0 0 0 22 9.75h-1ZM20.25 9a.75.75 0 0 1 .75.75h1A1.75 1.75 0 0 0 20.25 8v1Z"/><path stroke="currentColor" stroke-linecap="round" d="M17 11h2.75c.69 0 1.25.56 1.25 1.25v0c0 .69-.56 1.25-1.25 1.25H16.5m.5 0h2.25c.69 0 1.25.56 1.25 1.25v0c0 .69-.56 1.25-1.25 1.25H17m-1 0h2.25c.69 0 1.25.56 1.25 1.25v0c0 .69-.56 1.25-1.25 1.25h-3.583"/><path stroke="currentColor" d="m13.5 8.5.84-3.175c.106-.4.16-.813.16-1.227V3.75c0-.69-.56-1.25-1.25-1.25s-1.245.563-1.369 1.242C11.38 6.496 9.371 9.5 7.5 9.5"/></svg>
