<svg xmlns="http://www.w3.org/2000/svg" fill="none" viewBox="0 0 16 16" width="1em" height="1em"><path stroke="currentColor" d="M1.5 6a.5.5 0 0 1 .5-.5h2a.5.5 0 0 1 .5.5v7a.5.5 0 0 1-.5.5H2a.5.5 0 0 1-.5-.5zM12 13.5H6.972a2 2 0 0 1-.894-.211L4.5 12.5"/><path fill="currentColor" d="M9.5 5a.5.5 0 0 0 0 1zm0 1h4V5h-4zm4 1H13v1h.5zm.5-.5a.5.5 0 0 1-.5.5v1A1.5 1.5 0 0 0 15 6.5zm-.5-.5a.5.5 0 0 1 .5.5h1A1.5 1.5 0 0 0 13.5 5z"/><path stroke="currentColor" stroke-linecap="round" d="M11 7.5h2a1 1 0 0 1 1 1v0a1 1 0 0 1-1 1h-2m1 0h.5a1 1 0 0 1 1 1v0a1 1 0 0 1-1 1H11m0 0h1a1 1 0 0 1 1 1v0a1 1 0 0 1-1 1h-1.5"/><path stroke="currentColor" d="M4.5 6c2.311 0 3-1.245 3-2.435V2.5a1 1 0 0 1 2 0v3"/></svg>
