<svg viewBox="0 0 16 16" fill="none" xmlns="http://www.w3.org/2000/svg" width="1em" height="1em"><path d="M1.5 6C1.5 5.72386 1.72386 5.5 2 5.5H4C4.27614 5.5 4.5 5.72386 4.5 6V13C4.5 13.2761 4.27614 13.5 4 13.5H2C1.72386 13.5 1.5 13.2761 1.5 13V6Z" stroke="currentColor"/><path d="M12 13.5H6.97214C6.66165 13.5 6.35542 13.4277 6.07771 13.2889L4.5 12.5" stroke="currentColor"/><path d="M9.5 5C9.22386 5 9 5.22386 9 5.5C9 5.77614 9.22386 6 9.5 6V5ZM9.5 6H13.5V5H9.5V6ZM13.5 7H13V8H13.5V7ZM14 6.5C14 6.77614 13.7761 7 13.5 7V8C14.3284 8 15 7.32843 15 6.5H14ZM13.5 6C13.7761 6 14 6.22386 14 6.5H15C15 5.67157 14.3284 5 13.5 5V6Z" fill="currentColor"/><path d="M11 7.5H13C13.5523 7.5 14 7.94772 14 8.5V8.5C14 9.05228 13.5523 9.5 13 9.5H11" stroke="currentColor" stroke-linecap="round"/><path d="M12 9.49976H12.5C13.0523 9.49976 13.5 9.94747 13.5 10.4998V10.4998C13.5 11.052 13.0523 11.4998 12.5 11.4998H11" stroke="currentColor" stroke-linecap="round"/><path d="M10.9999 11.5H11.9999C12.5522 11.5 12.9999 11.9477 12.9999 12.5V12.5C12.9999 13.0523 12.5522 13.5 11.9999 13.5H10.4999" stroke="currentColor" stroke-linecap="round"/><path d="M4.49989 5.99996C6.81096 5.99996 7.49995 4.75549 7.49995 3.56506C7.49995 3.16785 7.49994 2.8058 7.49994 2.49968C7.49994 1.94743 7.9476 1.50004 8.49986 1.49999V1.49999C9.05216 1.49995 9.49992 1.94767 9.49992 2.49997L9.49993 4.50001L9.49988 5.5" stroke="currentColor"/></svg>
