<svg viewBox="0 0 16 16" fill="none" xmlns="http://www.w3.org/2000/svg" width="1em" height="1em"><mask id="path-1-inside-1_2_62211" fill="currentColor"><path d="M1 6C1 5.44772 1.44772 5 2 5H4C4.55228 5 5 5.44772 5 6V13C5 13.5523 4.55228 14 4 14H2C1.44772 14 1 13.5523 1 13V6Z"/></mask><path d="M2 6H4V4H2V6ZM4 6V13H6V6H4ZM4 13H2V15H4V13ZM2 13V6H0V13H2ZM2 13H0C0 14.1046 0.895431 15 2 15V13ZM4 13V15C5.10457 15 6 14.1046 6 13H4ZM4 6H6C6 4.89543 5.10457 4 4 4V6ZM2 4C0.895431 4 0 4.89543 0 6H2V6V4Z" fill="currentColor" mask="url(#path-1-inside-1_2_62211)"/><path d="M12 13H6.97214V14H12V13ZM6.30132 12.8416L4.72361 12.0528L4.27639 12.9472L5.8541 13.7361L6.30132 12.8416ZM6.97214 13C6.73927 13 6.5096 12.9458 6.30132 12.8416L5.8541 13.7361C6.20124 13.9096 6.58402 14 6.97214 14V13Z" fill="currentColor"/><path d="M9.5 5C9.22386 5 9 5.22386 9 5.5C9 5.77614 9.22386 6 9.5 6V5ZM9.5 6H13.5V5H9.5V6ZM13.5 7H13V8H13.5V7ZM14 6.5C14 6.77614 13.7761 7 13.5 7V8C14.3284 8 15 7.32843 15 6.5H14ZM13.5 6C13.7761 6 14 6.22386 14 6.5H15C15 5.67157 14.3284 5 13.5 5V6Z" fill="currentColor"/><path d="M11 7C10.7239 7 10.5 7.22386 10.5 7.5C10.5 7.77614 10.7239 8 11 8V7ZM11 9C10.7239 9 10.5 9.22386 10.5 9.5C10.5 9.77614 10.7239 10 11 10V9ZM11 8H13V7H11V8ZM13 9H11V10H13V9ZM13.5 8.5C13.5 8.77614 13.2761 9 13 9V10C13.8284 10 14.5 9.32843 14.5 8.5H13.5ZM13 8C13.2761 8 13.5 8.22386 13.5 8.5H14.5C14.5 7.67157 13.8284 7 13 7V8Z" fill="currentColor"/><path d="M12 8.99976C11.7239 8.99976 11.5 9.22361 11.5 9.49976C11.5 9.7759 11.7239 9.99976 12 9.99976V8.99976ZM11 10.9998C10.7239 10.9998 10.5 11.2236 10.5 11.4998C10.5 11.7759 10.7239 11.9998 11 11.9998V10.9998ZM12 9.99976H12.5V8.99976H12V9.99976ZM12.5 10.9998H11V11.9998H12.5V10.9998ZM13 10.4998C13 10.7759 12.7761 10.9998 12.5 10.9998V11.9998C13.3284 11.9998 14 11.3282 14 10.4998H13ZM12.5 9.99976C12.7761 9.99976 13 10.2236 13 10.4998H14C14 9.67133 13.3284 8.99976 12.5 8.99976V9.99976Z" fill="currentColor"/><path d="M10.9999 11C10.7237 11 10.4999 11.2239 10.4999 11.5C10.4999 11.7761 10.7237 12 10.9999 12V11ZM10.4999 13C10.2237 13 9.99988 13.2239 9.99988 13.5C9.99988 13.7761 10.2237 14 10.4999 14V13ZM12.9999 12.5L13.4999 12.5L12.9999 12.5ZM10.9999 12H11.9999V11H10.9999V12ZM11.9999 13H10.4999V14H11.9999V13ZM12.4999 12.5C12.4999 12.7761 12.276 13 11.9999 13V14C12.8283 14 13.4999 13.3284 13.4999 12.5L12.4999 12.5ZM11.9999 12C12.276 12 12.4999 12.2239 12.4999 12.5L13.4999 12.5C13.4999 11.6716 12.8283 11 11.9999 11V12Z" fill="currentColor"/><path d="M9.49993 4.50001L9.99993 4.50003V4.5L9.49993 4.50001ZM7.49994 2.49968L6.99994 2.49969L7.49994 2.49968ZM4.49989 6.49996C5.74318 6.49996 6.63733 6.16374 7.21966 5.58294C7.80004 5.00408 7.99995 4.25269 7.99995 3.56506L6.99995 3.56506C6.99995 4.06786 6.85536 4.53393 6.51348 4.87491C6.17355 5.21395 5.56768 5.49996 4.49989 5.49996L4.49989 6.49996ZM7.99995 3.56506C7.99995 3.16785 7.99994 2.8058 7.99994 2.49968L6.99994 2.49969C6.99994 2.80581 6.99995 3.16785 6.99995 3.56506L7.99995 3.56506ZM8.99992 2.49998L8.99993 4.50001L9.99993 4.5L9.99992 2.49997L8.99992 2.49998ZM8.99993 4.49998L8.99988 5.49997L9.99988 5.50003L9.99993 4.50003L8.99993 4.49998ZM8.4999 1.99999C8.77604 1.99997 8.99992 2.22383 8.99992 2.49998L9.99992 2.49997C9.99992 1.67151 9.32828 0.999928 8.49982 0.999993L8.4999 1.99999ZM7.99994 2.49968C7.99994 2.22376 8.22356 2.00002 8.4999 1.99999L8.49982 0.999993C7.67164 1.00006 6.99993 1.6711 6.99994 2.49969L7.99994 2.49968Z" fill="currentColor"/></svg>
