<svg xmlns="http://www.w3.org/2000/svg" fill="none" viewBox="0 0 32 32" width="1em" height="1em"><path stroke="currentColor" d="M4.5 11a.5.5 0 0 1 .5-.5h4a1.5 1.5 0 0 1 1.5 1.5v10A1.5 1.5 0 0 1 9 23.5H5a.5.5 0 0 1-.5-.5V11Z"/><circle cx="8.5" cy="21.5" r=".25" stroke="currentColor" stroke-width=".5"/><path stroke="currentColor" d="M22 23.5h-6.207c-.194 0-.388-.028-.574-.084L10.5 22"/><path fill="currentColor" d="M19.5 11a.5.5 0 1 0 0 1v-1Zm0 1H26v-1h-6.5v1Zm6.5 2h-3v1h3v-1Zm1-1a1 1 0 0 1-1 1v1a2 2 0 0 0 2-2h-1Zm-1-1a1 1 0 0 1 1 1h1a2 2 0 0 0-2-2v1Z"/><path stroke="currentColor" stroke-linecap="round" d="M20.5 14.5h5A1.5 1.5 0 0 1 27 16v0a1.5 1.5 0 0 1-1.5 1.5h-5m.5 0h4a1.5 1.5 0 0 1 1.5 1.5v0a1.5 1.5 0 0 1-1.5 1.5h-4.5m0 0h3A1.5 1.5 0 0 1 25 22v0a1.5 1.5 0 0 1-1.5 1.5h-4"/><path stroke="currentColor" d="M10.5 12.5c3 0 7-3 7-5.56v-.943a1.5 1.5 0 0 1 3 .003v1.428a8.78 8.78 0 0 1-.927 3.927l-.073.146"/></svg>
