<svg viewBox="0 0 24 24" fill="none" xmlns="http://www.w3.org/2000/svg" width="1em" height="1em"><mask id="path-1-inside-1_2_62222" fill="currentColor"><path d="M2 9C2 8.44771 2.44772 8 3 8H6C7.10457 8 8 8.89543 8 10V17C8 18.1046 7.10457 19 6 19H3C2.44772 19 2 18.5523 2 18V9Z"/></mask><path d="M3 9H6V7H3V9ZM7 10V17H9V10H7ZM6 18H3V20H6V18ZM3 18V9H1V18H3ZM3 18H3H1C1 19.1046 1.89543 20 3 20V18ZM7 17C7 17.5523 6.55228 18 6 18V20C7.65685 20 9 18.6569 9 17H7ZM6 9C6.55228 9 7 9.44772 7 10H9C9 8.34315 7.65685 7 6 7V9ZM3 7C1.89543 7 1 7.89543 1 9H3V9V7Z" fill="currentColor" mask="url(#path-1-inside-1_2_62222)"/><circle cx="5.5" cy="16.5" r="0.25" stroke="currentColor" stroke-width="0.5"/><path d="M11.28 18.4998L11.28 17.9998L11.28 18.4998ZM10.7308 18.4229L10.8681 17.9421L10.8681 17.9421L10.7308 18.4229ZM16 18.0002L11.28 17.9998L11.2799 18.9998L15.9999 19.0002L16 18.0002ZM10.8681 17.9421L7.63733 17.0192L7.36267 17.9808L10.5935 18.9037L10.8681 17.9421ZM11.28 17.9998C11.1407 17.9998 11.0021 17.9804 10.8681 17.9421L10.5935 18.9037C10.8167 18.9674 11.0478 18.9998 11.2799 18.9998L11.28 17.9998Z" fill="currentColor"/><path d="M13.5 8.00049C13.2239 8.00049 13 8.22435 13 8.50049C13 8.77663 13.2239 9.00049 13.5 9.00049V8.00049ZM13.5 9.00049H20.25V8.00049H13.5V9.00049ZM20.25 10.5005H18.4V11.5005H20.25V10.5005ZM21 9.75049C21 10.1647 20.6642 10.5005 20.25 10.5005V11.5005C21.2165 11.5005 22 10.717 22 9.75049H21ZM20.25 9.00049C20.6642 9.00049 21 9.33627 21 9.75049H22C22 8.78399 21.2165 8.00049 20.25 8.00049V9.00049Z" fill="currentColor"/><path d="M17 10.5005C16.7239 10.5005 16.5 10.7243 16.5 11.0005C16.5 11.2766 16.7239 11.5005 17 11.5005V10.5005ZM16.5 13.0005C16.2239 13.0005 16 13.2243 16 13.5005C16 13.7766 16.2239 14.0005 16.5 14.0005V13.0005ZM17 11.5005H19.75V10.5005H17V11.5005ZM19.75 13.0005H16.5V14.0005H19.75V13.0005ZM20.5 12.2505C20.5 12.6647 20.1642 13.0005 19.75 13.0005V14.0005C20.7165 14.0005 21.5 13.217 21.5 12.2505H20.5ZM19.75 11.5005C20.1642 11.5005 20.5 11.8363 20.5 12.2505H21.5C21.5 11.284 20.7165 10.5005 19.75 10.5005V11.5005Z" fill="currentColor"/><path d="M17 13.0005C16.7239 13.0005 16.5 13.2243 16.5 13.5005C16.5 13.7766 16.7239 14.0005 17 14.0005V13.0005ZM17 15.5005C16.7239 15.5005 16.5 15.7243 16.5 16.0005C16.5 16.2766 16.7239 16.5005 17 16.5005V15.5005ZM17 14.0005H19.25V13.0005H17V14.0005ZM19.25 15.5005H17V16.5005H19.25V15.5005ZM20 14.7505C20 15.1647 19.6642 15.5005 19.25 15.5005V16.5005C20.2165 16.5005 21 15.717 21 14.7505H20ZM19.25 14.0005C19.6642 14.0005 20 14.3363 20 14.7505H21C21 13.784 20.2165 13.0005 19.25 13.0005V14.0005Z" fill="currentColor"/><path d="M16 15.5005C15.7239 15.5005 15.5 15.7243 15.5 16.0005C15.5 16.2766 15.7239 16.5005 16 16.5005V15.5005ZM14.6667 18.0005C14.3905 18.0005 14.1667 18.2243 14.1667 18.5005C14.1667 18.7766 14.3905 19.0005 14.6667 19.0005V18.0005ZM16 16.5005H18.25V15.5005H16V16.5005ZM18.25 18.0005H14.6667V19.0005H18.25V18.0005ZM19 17.2505C19 17.6647 18.6642 18.0005 18.25 18.0005V19.0005C19.2165 19.0005 20 18.217 20 17.2505H19ZM18.25 16.5005C18.6642 16.5005 19 16.8363 19 17.2505H20C20 16.284 19.2165 15.5005 18.25 15.5005V16.5005Z" fill="currentColor"/><path d="M14.3405 5.32473L13.8571 5.19681L14.3405 5.32473ZM14 3.7499L14 4.09808L15 4.09805L15 3.74987L14 3.7499ZM13.8571 5.19681L13.0167 8.37245L13.9835 8.62828L14.8239 5.45264L13.8571 5.19681ZM11.3893 3.65255C11.1518 4.95447 10.5549 6.32405 9.80006 7.35928C9.02288 8.42521 8.18342 9.00017 7.50003 9.00027L7.50018 10.0003C8.68824 10.0001 9.78818 9.07296 10.6081 7.94842C11.4504 6.79319 12.1082 5.2839 12.373 3.83197L11.3893 3.65255ZM14 4.09808C14.0001 4.46896 13.952 4.83828 13.8571 5.19681L14.8239 5.45264C14.9408 5.01061 15.0001 4.5553 15 4.09805L14 4.09808ZM13.25 2.99995C13.6642 2.99989 14 3.33566 14 3.7499L15 3.74987C15 2.7833 14.2164 1.9998 13.2498 1.99995L13.25 2.99995ZM13.2498 1.99995C12.269 2.0001 11.547 2.78758 11.3893 3.65255L12.373 3.83197C12.463 3.33881 12.8502 3.00001 13.25 2.99995L13.2498 1.99995Z" fill="currentColor"/></svg>
