<svg xmlns="http://www.w3.org/2000/svg" fill="none" viewBox="0 0 24 24" width="1em" height="1em"><path stroke="currentColor" stroke-linecap="round" d="M9 19.5h9.5a2 2 0 0 0 2-2v-6m-13 2h6m-6-3h7"/><path stroke="currentColor" stroke-linecap="round" stroke-linejoin="round" d="M11.433 3.566H6.167c-.92 0-1.667.747-1.667 1.667V14.9c0 .92.746 1.666 1.667 1.666h9.666c.92 0 1.667-.746 1.667-1.666v-4.4"/><path stroke="currentColor" d="m15.406 5.633-1.06-1.023a.25.25 0 0 1 .127-.425l1.556-.299a.25.25 0 0 0 .18-.142l.563-1.241a.25.25 0 0 1 .456 0l.562 1.241a.25.25 0 0 0 .18.142l1.557.3a.25.25 0 0 1 .127.424l-1.06 1.023a.25.25 0 0 0-.073.22l.27 1.639a.25.25 0 0 1-.367.26l-1.303-.72a.25.25 0 0 0-.242 0l-1.303.72a.25.25 0 0 1-.367-.26l.27-1.638a.25.25 0 0 0-.073-.221Z"/></svg>
