<svg xmlns="http://www.w3.org/2000/svg" fill="none" viewBox="0 0 16 16" width="1em" height="1em"><path stroke="currentColor" d="m9.406 4.857-1.06-1.022a.25.25 0 0 1 .127-.426l1.556-.298a.25.25 0 0 0 .18-.143l.563-1.241a.25.25 0 0 1 .456 0l.562 1.241a.25.25 0 0 0 .18.143l1.557.298a.25.25 0 0 1 .127.426l-1.06 1.022a.25.25 0 0 0-.073.22l.27 1.639a.25.25 0 0 1-.367.26l-1.303-.72a.25.25 0 0 0-.242 0l-1.303.72a.25.25 0 0 1-.367-.26l.27-1.638a.25.25 0 0 0-.073-.22Z"/><path stroke="currentColor" stroke-linecap="round" stroke-linejoin="round" d="M6.5 2.5H4.167c-.92 0-1.667.746-1.667 1.667v7.666c0 .92.746 1.667 1.667 1.667h7.666c.92 0 1.667-.746 1.667-1.667V9.5"/><path stroke="currentColor" stroke-linecap="round" d="M5.5 10.5h5"/></svg>
