<svg viewBox="0 0 32 32" fill="none" xmlns="http://www.w3.org/2000/svg" stroke="currentColor"><path d="M26 29.5H6C5.17157 29.5 4.5 28.8284 4.5 28V4C4.5 3.17157 5.17157 2.5 6 2.5H18.1716C18.5694 2.5 18.9509 2.65803 19.2322 2.93934L27.0607 10.7678C27.342 11.0491 27.5 11.4306 27.5 11.8284V28C27.5 28.8284 26.8284 29.5 26 29.5Z"/><path d="M18.5055 2.5V9.5216C18.5055 10.6262 19.4009 11.5216 20.5055 11.5216H27.5001"/><line x1="10.5" y1="11.5386" x2="14.5423" y2="11.5386" stroke-linecap="round"/><line x1="10.5" y1="16.5547" x2="19.5" y2="16.5547" stroke-linecap="round"/><line x1="10.5" y1="21.5039" x2="19.5" y2="21.5039" stroke-linecap="round"/></svg>
