<svg viewBox="0 0 16 16" fill="none" xmlns="http://www.w3.org/2000/svg" width="1em" height="1em"><mask id="path-1-inside-1_2_59746" fill="currentColor"><path d="M4.00001 15H12C13.1046 15 14 14.1046 14 13V10.7938V3C14 1.89543 13.1046 1 12 1H4C2.89543 1 2 1.89543 2 3L2.00001 13C2.00001 14.1046 2.89544 15 4.00001 15Z"/></mask><path d="M2.00001 13L3.00001 13L2.00001 13ZM2 3H1V3L2 3ZM12 14H4.00001V16H12V14ZM3.00001 13L3 3L1 3L1.00001 13L3.00001 13ZM4 2H12V0H4V2ZM13 10.7938V13H15V10.7938H13ZM13 3V10.7938H15V3H13ZM12 2C12.5523 2 13 2.44772 13 3H15C15 1.34315 13.6569 0 12 0V2ZM4.00001 14C3.44773 14 3.00001 13.5523 3.00001 13L1.00001 13C1.00001 14.6569 2.34315 16 4.00001 16V14ZM12 16C13.6569 16 15 14.6569 15 13H13C13 13.5523 12.5523 14 12 14V16ZM3 3C3 2.44772 3.44772 2 4 2V0C2.34315 0 1 1.34315 1 3H3Z" fill="currentColor" mask="url(#path-1-inside-1_2_59746)"/><path d="M5.5 7.5H10.5M5.5 4.5H10.5M5.50001 10.5C7.0621 10.5 6.93794 10.5 8.50003 10.5" stroke="currentColor" stroke-linecap="round"/></svg>
