<svg xmlns="http://www.w3.org/2000/svg" fill="none" viewBox="0 0 32 32" width="1em" height="1em"><path fill="currentColor" d="M25 9a.5.5 0 0 0 0-1zm-3.914-4.914-.354.353zM23.5 28h-15v1h15zM7 26.5v-21H6v21zM8.5 4h11.172V3H8.5zM25 9.328V26.5h1V9.328zm-5-5.347V6.5h1V3.98zM22.5 9H25V8h-2.5zm-1.768-4.56 3.829 3.828.707-.707-3.829-3.829zM20 6.5A2.5 2.5 0 0 0 22.5 9V8A1.5 1.5 0 0 1 21 6.5zm6 2.828a2.5 2.5 0 0 0-.732-1.767l-.707.707A1.5 1.5 0 0 1 25 9.328zM19.672 4a1.5 1.5 0 0 1 1.06.44l.707-.708A2.5 2.5 0 0 0 19.672 3zM8.5 28A1.5 1.5 0 0 1 7 26.5H6A2.5 2.5 0 0 0 8.5 29zm15 1a2.5 2.5 0 0 0 2.5-2.5h-1a1.5 1.5 0 0 1-1.5 1.5zM7 5.5A1.5 1.5 0 0 1 8.5 4V3A2.5 2.5 0 0 0 6 5.5z"/><path stroke="currentColor" stroke-linecap="round" d="M9.5 10.5h8m-8 4h13m-13 4h13M9.5 23h13"/></svg>
