<svg xmlns="http://www.w3.org/2000/svg" fill="none" viewBox="0 0 24 24" width="1em" height="1em"><path fill="currentColor" d="M18.875 7.038a.5.5 0 0 0 0-1v1Zm.04-1.124-.354.354.353-.354Zm-2.83-2.828.354-.354-.353.354ZM17.5 21h-11v1h11v-1ZM5 19.5v-15H4v15h1ZM6.5 3h8.172V2H6.5v1ZM19 7.328V19.5h1V7.328h-1Zm-4-4.424v2.634h1V2.904h-1Zm1.5 4.134h2.375v-1H16.5v1Zm-.768-3.599 2.829 2.829.707-.707-2.829-2.829-.707.707ZM15 5.54a1.5 1.5 0 0 0 1.5 1.5v-1a.5.5 0 0 1-.5-.5h-1Zm5 1.79a2.5 2.5 0 0 0-.732-1.768l-.707.707A1.5 1.5 0 0 1 19 7.328h1ZM14.672 3a1.5 1.5 0 0 1 1.06.44l.707-.708A2.5 2.5 0 0 0 14.672 2v1ZM6.5 21A1.5 1.5 0 0 1 5 19.5H4A2.5 2.5 0 0 0 6.5 22v-1Zm11 1a2.5 2.5 0 0 0 2.5-2.5h-1a1.5 1.5 0 0 1-1.5 1.5v1ZM5 4.5A1.5 1.5 0 0 1 6.5 3V2A2.5 2.5 0 0 0 4 4.5h1Z"/><path stroke="currentColor" stroke-linecap="round" d="M7.5 8.5h8m-8 4h8m-8 4h6"/></svg>
