<svg xmlns="http://www.w3.org/2000/svg" fill="none" viewBox="0 0 24 24" width="1em" height="1em"><path fill="currentColor" d="M20.964 7.03a.5.5 0 0 0-.853.522zM12 3c2.06 0 3.964.655 5.52 1.767l.582-.813A10.46 10.46 0 0 0 12 2zm-9.5 9.5A9.5 9.5 0 0 1 12 3V2C6.201 2 1.5 6.701 1.5 12.5zM12 22a9.5 9.5 0 0 1-9.5-9.5h-1C1.5 18.299 6.201 23 12 23zm9.5-9.5A9.5 9.5 0 0 1 12 22v1c5.799 0 10.5-4.701 10.5-10.5zm-1.389-4.948A9.45 9.45 0 0 1 21.5 12.5h1c0-2.003-.561-3.877-1.536-5.47z"/><path stroke="currentColor" stroke-linecap="round" stroke-linejoin="round" d="m17.56 1.663.777 2.898-2.898.776"/><path stroke="currentColor" d="M5.5 8a.5.5 0 0 1 .5-.5h4.5A1.5 1.5 0 0 1 12 9v7.5H6a.5.5 0 0 1-.5-.5z"/><path stroke="currentColor" stroke-linecap="round" d="M18.5 10.5V8a.5.5 0 0 0-.5-.5h-4.5A1.5 1.5 0 0 0 12 9v7.5h3.5m-8-6h2m-2 3h2"/><path stroke="currentColor" d="M17.5 12.5a2 2 0 1 1-4 0 2 2 0 0 1 4 0Z"/><path stroke="currentColor" stroke-linecap="round" d="M17.086 14.086 18.5 15.5"/></svg>
