<svg viewBox="0 0 32 32" fill="none" xmlns="http://www.w3.org/2000/svg" stroke="currentColor" width="1em" height="1em"><path d="M22.2957 3.5H9.84233C9.02848 3.5 8.28136 3.95009 7.90094 4.66956L2.53546 14.817C2.19994 15.4516 2.1957 16.21 2.52411 16.8483L7.90637 27.3087C8.28276 28.0402 9.03644 28.5 9.85911 28.5H22.279C23.1093 28.5 23.8685 28.0318 24.2413 27.2899L29.4977 16.8293C29.8133 16.2013 29.8092 15.4602 29.4867 14.8357L24.247 4.68849C23.8701 3.95853 23.1172 3.5 22.2957 3.5Z"/><path d="M13.5295 8.33313H12.3592C11.323 8.33313 10.483 9.17316 10.483 10.2094V14.0652C10.483 14.7605 10.0645 15.3875 9.42241 15.6542V15.6542C9.21552 15.7402 9.21552 16.0333 9.42241 16.1192V16.1192C10.0645 16.386 10.483 17.0129 10.483 17.7083V21.8632C10.483 22.8994 11.323 23.7395 12.3592 23.7395H13.5295" stroke-linecap="round" stroke-linejoin="round"/><path d="M18.4707 8.33325H19.6409C20.6771 8.33325 21.5172 9.17328 21.5172 10.2095V14.0653C21.5172 14.7606 21.9356 15.3876 22.5777 15.6544V15.6544C22.7846 15.7403 22.7846 16.0334 22.5777 16.1193V16.1193C21.9356 16.3861 21.5172 17.0131 21.5172 17.7084V21.8633C21.5172 22.8996 20.6771 23.7396 19.6409 23.7396H18.4707" stroke-linecap="round" stroke-linejoin="round"/></svg>
