<svg xmlns="http://www.w3.org/2000/svg" fill="none" viewBox="0 0 16 16" width="1em" height="1em"><path stroke="currentColor" d="M4.885 2.5h6.3c.195 0 .374.112.46.288l2.668 5.446a.513.513 0 0 1-.017.483l-2.62 4.527a.514.514 0 0 1-.444.256H4.837a.514.514 0 0 1-.442-.252L1.712 8.721a.514.514 0 0 1-.017-.492l2.731-5.446a.514.514 0 0 1 .46-.283Z"/><path stroke="currentColor" stroke-linecap="round" stroke-linejoin="round" d="M9.5 4.5h.134c.478 0 .866.388.866.866v1.66c0 .36.224.684.563.81l.073.028c.11.04.1.199-.014.226v0a.81.81 0 0 0-.622.787v1.757a.866.866 0 0 1-.866.866H9.5m-3-7h-.134a.866.866 0 0 0-.866.866v1.66a.866.866 0 0 1-.563.81l-.073.028c-.11.04-.1.199.014.226v0a.81.81 0 0 1 .622.787v1.757c0 .478.388.866.866.866H6.5"/></svg>
