<svg xmlns="http://www.w3.org/2000/svg" fill="none" viewBox="0 0 32 32" width="1em" height="1em"><path stroke="currentColor" d="M22.296 3.5H9.842c-.814 0-1.56.45-1.941 1.17L2.535 14.817a2.2 2.2 0 0 0-.01 2.031l5.381 10.46A2.2 2.2 0 0 0 9.86 28.5h12.42c.83 0 1.59-.468 1.962-1.21l5.257-10.46a2.2 2.2 0 0 0-.011-1.994l-5.24-10.148A2.2 2.2 0 0 0 22.296 3.5Z"/><path stroke="currentColor" stroke-linecap="round" stroke-linejoin="round" d="M13.53 8.333h-1.17c-1.037 0-1.877.84-1.877 1.876v3.856a1.72 1.72 0 0 1-1.06 1.59v0a.252.252 0 0 0 0 .464v0a1.72 1.72 0 0 1 1.06 1.59v4.154c0 1.036.84 1.876 1.876 1.876h1.17M18.47 8.333h1.171c1.036 0 1.876.84 1.876 1.876v3.856a1.72 1.72 0 0 0 1.06 1.59v0a.252.252 0 0 1 0 .464v0a1.72 1.72 0 0 0-1.06 1.59v4.154c0 1.036-.84 1.876-1.876 1.876h-1.17"/></svg>
