<svg xmlns="http://www.w3.org/2000/svg" fill="none" viewBox="0 0 16 16" width="1em" height="1em"><path stroke="currentColor" stroke-linejoin="round" d="M8.58 5.982 9 5.13l.42.852.449-.221-.448.22a.75.75 0 0 0 .564.411l.94.137-.68.663.35.358-.35-.358a.75.75 0 0 0-.216.664l.161.936-.841-.442a.75.75 0 0 0-.698 0l-.841.442.16-.936a.75.75 0 0 0-.215-.664l-.68-.663.94-.137a.75.75 0 0 0 .564-.41Zm2.847.62Zm-4.854 0-.036-.248z"/><circle cx="5" cy="5" r="4.5" stroke="currentColor" transform="matrix(-1 0 0 1 14 2)"/><path stroke="currentColor" stroke-linecap="round" stroke-linejoin="round" d="m3 13 2.83-2.826"/></svg>
