<svg xmlns="http://www.w3.org/2000/svg" fill="none" viewBox="0 0 32 32" width="1em" height="1em"><path stroke="currentColor" stroke-linejoin="round" d="m13.249 20.163 1.208-3.719a1 1 0 0 0-.363-1.118l-3.164-2.298h3.91a1 1 0 0 0 .952-.691L17 8.618l1.208 3.719a1 1 0 0 0 .951.69h3.91l-3.163 2.3a1 1 0 0 0-.363 1.117l1.208 3.72-3.163-2.3a1 1 0 0 0-1.176 0l-3.163 2.3Zm0 0-.476-.154.476.154.294.405-.294-.405Z"/><circle cx="10" cy="10" r="9.5" stroke="currentColor" transform="matrix(-1 0 0 1 27 5)"/><path stroke="currentColor" stroke-linecap="round" stroke-linejoin="round" d="m4 28.01 6-6"/></svg>
