<svg xmlns="http://www.w3.org/2000/svg" fill="none" viewBox="0 0 24 24" width="1em" height="1em"><circle cx="8.5" cy="8.5" r="8" stroke="currentColor" transform="matrix(-1 0 0 1 22 2)"/><path stroke="currentColor" stroke-linejoin="round" d="m13.5 6.194.712 2.303a1 1 0 0 0 .955.705h2.355l-1.948 1.487a1 1 0 0 0-.348 1.09l.734 2.374-1.853-1.415a1 1 0 0 0-1.214 0l-1.853 1.415.734-2.374a1 1 0 0 0-.348-1.09L9.478 9.202h2.355a1 1 0 0 0 .955-.705z"/><path stroke="currentColor" stroke-linecap="round" stroke-linejoin="round" d="m2.5 21.5 5-5"/></svg>
