<svg xmlns="http://www.w3.org/2000/svg" fill="none" viewBox="0 0 24 24" width="1em" height="1em"><path stroke="currentColor" stroke-linecap="round" stroke-linejoin="round" d="M18.333 14.5c2.111 0 3.167-2.182 3.167-3.818 0-1.933-1.39-3.53-3.192-3.783C18.061 4.427 16.04 2.5 13.583 2.5c-2.071 0-3.833 1.37-4.482 3.281a4 4 0 0 0-.268-.008c-1.978 0-3.639 1.406-4.097 3.304-1.266.2-2.236 1.33-2.236 2.696 0 1.506 1.181 2.727 2.639 2.727"/><path stroke="currentColor" stroke-linecap="round" d="M11.59 11.227a4.09 4.09 0 0 0-1.635 7.842"/><path stroke="currentColor" stroke-linecap="round" stroke-linejoin="round" d="m11.182 10 1.227 1.227-1.227 1.227"/><path stroke="currentColor" stroke-linecap="round" d="M12.41 19.222a4.09 4.09 0 0 0 1.636-7.842"/><path stroke="currentColor" stroke-linecap="round" stroke-linejoin="round" d="m12.818 20.45-1.227-1.228 1.227-1.227"/></svg>
