<svg viewBox="0 0 32 32" fill="none" xmlns="http://www.w3.org/2000/svg" stroke="currentColor"><path d="M24.6667 20C27.375 20 29 17.6707 29 15.2C29 12.7293 27.1041 10.6946 24.6666 10.4293C24.6745 6.93025 21.7268 4 18.1667 4C14.9457 4 12.2719 6.3068 11.7564 9.33405C9.182 9.29283 6.86993 11.1143 6.358 13.6017C4.54733 13.5435 3 15.0146 3 16.8C3 18.5673 4.45507 20 6.25 20H7.33333" stroke-linecap="round" stroke-linejoin="round"/><path d="M15.8636 14.9092C12.3491 14.9092 9.5 17.7583 9.5 21.2728C9.5 23.8823 11.0707 26.125 13.3182 27.1069" stroke-linecap="round"/><path d="M14.5909 13L16.5 14.9091L14.5909 16.8182" stroke-linecap="round" stroke-linejoin="round"/><path d="M16.1364 27.1978C19.6509 27.1978 22.5 24.3487 22.5 20.8341C22.5 18.2246 20.9293 15.982 18.6818 15" stroke-linecap="round"/><path d="M17.4091 29.1069L15.5 27.1978L17.4091 25.2888" stroke-linecap="round" stroke-linejoin="round"/></svg>
