<svg xmlns="http://www.w3.org/2000/svg" fill="none" viewBox="0 0 32 32" width="1em" height="1em"><path stroke="currentColor" stroke-linecap="round" stroke-linejoin="round" d="M24.667 20C27.375 20 29 17.67 29 15.2s-1.896-4.505-4.333-4.77c.007-3.5-2.94-6.43-6.5-6.43-3.221 0-5.895 2.307-6.41 5.334-2.575-.041-4.887 1.78-5.399 4.268C4.548 13.543 3 15.015 3 16.8 3 18.567 4.455 20 6.25 20h1.083"/><path stroke="currentColor" stroke-linecap="round" d="M15.864 14.91a6.364 6.364 0 0 0-2.546 12.197"/><path stroke="currentColor" stroke-linecap="round" stroke-linejoin="round" d="m14.59 13 1.91 1.91-1.91 1.908"/><path stroke="currentColor" stroke-linecap="round" d="M16.136 27.198A6.364 6.364 0 0 0 18.682 15"/><path stroke="currentColor" stroke-linecap="round" stroke-linejoin="round" d="m17.41 29.107-1.91-1.91 1.91-1.908"/></svg>
