<svg xmlns="http://www.w3.org/2000/svg" fill="none" viewBox="0 0 16 16" width="1em" height="1em"><path stroke="currentColor" stroke-linecap="round" stroke-linejoin="round" d="M13.403 9.224c.673-.57 1.097-1.4 1.097-2.299 0-1.527-1.224-2.788-2.812-2.987C11.161 2.52 9.71 1.5 8 1.5c-2.154 0-3.9 1.62-3.9 3.617-1.436 0-2.6 1.08-2.6 2.411 0 .815.436 1.536 1.104 1.972"/><path stroke="currentColor" stroke-linecap="round" d="M7.432 6.955a3.182 3.182 0 0 0-1.273 6.099"/><path stroke="currentColor" stroke-linecap="round" stroke-linejoin="round" d="m7.114 6 .954.955-.954.954"/><path stroke="currentColor" stroke-linecap="round" d="M8.568 13.172a3.182 3.182 0 0 0 1.273-6.099"/><path stroke="currentColor" stroke-linecap="round" stroke-linejoin="round" d="m8.886 14.127-.954-.955.954-.954"/></svg>
