<svg viewBox="0 0 16 16" fill="none" xmlns="http://www.w3.org/2000/svg" stroke="currentColor" width="1em" height="1em"><path d="M13.403 9.22351C14.0758 8.65373 14.5 7.82395 14.5 6.92519C14.5 5.39845 13.276 4.13686 11.6883 3.93837C11.1613 2.51944 9.70902 1.5 8 1.5C5.84609 1.5 4.1 3.11929 4.1 5.11679C2.66406 5.11679 1.5 6.19632 1.5 7.52799C1.5 8.34299 1.93602 9.06355 2.60353 9.5" stroke-linecap="round" stroke-linejoin="round"/><path d="M7.43182 6.95459C5.67455 6.95459 4.25 8.37914 4.25 10.1364C4.25 11.4412 5.03533 12.5625 6.15909 13.0535" stroke-linecap="round"/><path d="M7.11365 6L8.06819 6.95455L7.11365 7.90909" stroke-linecap="round" stroke-linejoin="round"/><path d="M8.56818 13.1724C10.3255 13.1724 11.75 11.7478 11.75 9.99055C11.75 8.6858 10.9647 7.56447 9.84091 7.07348" stroke-linecap="round"/><path d="M8.88635 14.127L7.93181 13.1724L8.88635 12.2179" stroke-linecap="round" stroke-linejoin="round"/></svg>
