<svg xmlns="http://www.w3.org/2000/svg" fill="none" viewBox="0 0 16 16" width="1em" height="1em"><path fill="currentColor" d="M6.131 7.274h-.567L5.26 8.377l-.333-1.103H4.47l-.333 1.103-.304-1.103h-.567L3.832 9h.528l.34-1.057L5.036 9h.528l.567-1.726Zm3.302 0h-.567L8.56 8.377l-.33-1.103h-.46l-.332 1.103-.305-1.103h-.567L7.133 9h.529l.34-1.057L8.336 9h.529l.567-1.726Zm3.301 0h-.567l-.304 1.103-.333-1.103h-.458l-.333 1.103-.304-1.103h-.567L10.435 9h.528l.34-1.057L11.639 9h.528l.567-1.726Z"/><rect width="13" height="11" x="1.5" y="2.5" stroke="currentColor" rx="1.5"/><path stroke="currentColor" d="M1.5 4.5h13"/></svg>
