<svg xmlns="http://www.w3.org/2000/svg" fill="none" viewBox="0 0 24 24" width="1em" height="1em"><path fill="currentColor" d="M9.365 11.028h-.648l-.348 1.26-.38-1.26h-.524l-.38 1.26-.348-1.26h-.648L6.737 13h.604l.388-1.208L8.113 13h.604zm3.772 0h-.648l-.348 1.26-.38-1.26h-.523l-.38 1.26-.349-1.26h-.647L10.509 13h.604l.389-1.208.383 1.208h.604zm3.773 0h-.648l-.348 1.26-.38-1.26h-.524l-.38 1.26-.348-1.26h-.648l.65 1.972h.604l.387-1.208L15.66 13h.603z"/><rect width="19" height="15" x="2.5" y="4.5" stroke="currentColor" rx="1.5"/><path stroke="currentColor" d="M2.105 7.5h19.158"/><circle cx="4.5" cy="5.974" r=".25" stroke="currentColor" stroke-width=".5"/><circle cx="6.5" cy="5.974" r=".25" stroke="currentColor" stroke-width=".5"/><circle cx="8.5" cy="5.974" r=".25" stroke="currentColor" stroke-width=".5"/></svg>
