<svg viewBox="0 0 16 16" fill="none" xmlns="http://www.w3.org/2000/svg" width="1em" height="1em"><path d="M6.13148 7.2745H5.56448L5.25998 8.377L4.92748 7.2745H4.46898L4.13648 8.377L3.83198 7.2745H3.26498L3.83198 9H4.36048L4.69998 7.943L5.03598 9H5.56448L6.13148 7.2745ZM9.43283 7.2745H8.86583L8.56133 8.377L8.22883 7.2745H7.77033L7.43783 8.377L7.13333 7.2745H6.56633L7.13333 9H7.66183L8.00133 7.943L8.33733 9H8.86583L9.43283 7.2745ZM12.7342 7.2745H12.1672L11.8627 8.377L11.5302 7.2745H11.0717L10.7392 8.377L10.4347 7.2745H9.86767L10.4347 9H10.9632L11.3027 7.943L11.6387 9H12.1672L12.7342 7.2745Z" fill="currentColor"/><rect x="1.5" y="2.5" width="13" height="11" rx="1.5" stroke="currentColor"/><path d="M1.5 4.5L14.5 4.5" stroke="currentColor"/></svg>
