<svg viewBox="0 0 32 32" fill="none" xmlns="http://www.w3.org/2000/svg" stroke="currentColor"><path d="M12.2968 17.042H11.3248L10.8028 18.932L10.2328 17.042H9.44682L8.87682 18.932L8.35482 17.042H7.38282L8.35482 20H9.26082L9.84282 18.188L10.4188 20H11.3248L12.2968 17.042ZM17.9563 17.042H16.9843L16.4623 18.932L15.8923 17.042H15.1063L14.5363 18.932L14.0143 17.042H13.0423L14.0143 20H14.9203L15.5023 18.188L16.0783 20H16.9843L17.9563 17.042ZM23.6157 17.042H22.6437L22.1217 18.932L21.5517 17.042H20.7657L20.1957 18.932L19.6737 17.042H18.7017L19.6737 20H20.5797L21.1617 18.188L21.7377 20H22.6437L23.6157 17.042Z" fill="#282829"/><rect x="2.5" y="6.5" width="27" height="21" rx="1.5"/><line x1="3" y1="10.5" x2="29" y2="10.5"/><circle cx="4.5" cy="8.5" r="0.25" stroke-width="0.5"/><circle cx="6.5" cy="8.5" r="0.25" stroke-width="0.5"/><circle cx="8.5" cy="8.5" r="0.25" stroke-width="0.5"/></svg>