<svg viewBox="0 0 24 24" fill="none" xmlns="http://www.w3.org/2000/svg" width="1em" height="1em"><path d="M9.36455 11.028H8.71655L8.36855 12.288L7.98855 11.028H7.46455L7.08455 12.288L6.73655 11.028H6.08855L6.73655 13H7.34055L7.72855 11.792L8.11255 13H8.71655L9.36455 11.028ZM13.1375 11.028H12.4895L12.1415 12.288L11.7615 11.028H11.2375L10.8575 12.288L10.5095 11.028H9.86152L10.5095 13H11.1135L11.5015 11.792L11.8855 13H12.4895L13.1375 11.028ZM16.9105 11.028H16.2625L15.9145 12.288L15.5345 11.028H15.0105L14.6305 12.288L14.2825 11.028H13.6345L14.2825 13H14.8865L15.2745 11.792L15.6585 13H16.2625L16.9105 11.028Z" fill="currentColor"/><rect x="2.5" y="4.5" width="19" height="15" rx="1.5" stroke="currentColor"/><line x1="2.10522" y1="7.5" x2="21.2631" y2="7.5" stroke="currentColor"/><circle cx="4.5" cy="5.97363" r="0.25" stroke="currentColor" stroke-width="0.5"/><circle cx="6.5" cy="5.97363" r="0.25" stroke="currentColor" stroke-width="0.5"/><circle cx="8.5" cy="5.97363" r="0.25" stroke="currentColor" stroke-width="0.5"/></svg>
