<svg viewBox="0 0 24 24" fill="none" xmlns="http://www.w3.org/2000/svg" stroke="currentColor"><path d="M9.86455 12.028H9.21655L8.86855 13.288L8.48855 12.028H7.96455L7.58455 13.288L7.23655 12.028H6.58855L7.23655 14H7.84055L8.22855 12.792L8.61255 14H9.21655L9.86455 12.028ZM13.6375 12.028H12.9895L12.6415 13.288L12.2615 12.028H11.7375L11.3575 13.288L11.0095 12.028H10.3615L11.0095 14H11.6135L12.0015 12.792L12.3855 14H12.9895L13.6375 12.028ZM17.4105 12.028H16.7625L16.4145 13.288L16.0345 12.028H15.5105L15.1305 13.288L14.7825 12.028H14.1345L14.7825 14H15.3865L15.7745 12.792L16.1585 14H16.7625L17.4105 12.028Z" fill="#282829"/><rect x="2.5" y="4.5" width="19" height="15" rx="1.5"/><line x1="2.10522" y1="7.5" x2="21.2631" y2="7.5"/><circle cx="4.5" cy="5.97363" r="0.25" stroke-width="0.5"/><circle cx="6.5" cy="5.97363" r="0.25" stroke-width="0.5"/><circle cx="8.5" cy="5.97363" r="0.25" stroke-width="0.5"/></svg>
