<svg xmlns="http://www.w3.org/2000/svg" fill="none" viewBox="0 0 32 32" width="1em" height="1em"><path fill="currentColor" d="M13.297 15.042h-.972l-.522 1.89-.57-1.89h-.786l-.57 1.89-.522-1.89h-.972L9.355 18h.906l.582-1.812.576 1.812h.906zm5.66 0h-.973l-.522 1.89-.57-1.89h-.786l-.57 1.89-.522-1.89h-.972L15.014 18h.906l.582-1.812.576 1.812h.906zm5.659 0h-.972l-.522 1.89-.57-1.89h-.786l-.57 1.89-.522-1.89h-.972L20.674 18h.906l.582-1.812.576 1.812h.906z"/><rect width="27" height="21" x="2.5" y="5.5" stroke="currentColor" rx="1.5"/><path stroke="currentColor" d="M3 9.5h26"/><circle cx="4.5" cy="7.5" r=".25" stroke="currentColor" stroke-width=".5"/><circle cx="6.5" cy="7.5" r=".25" stroke="currentColor" stroke-width=".5"/><circle cx="8.5" cy="7.5" r=".25" stroke="currentColor" stroke-width=".5"/></svg>
