<svg xmlns="http://www.w3.org/2000/svg" fill="none" viewBox="0 0 24 24" width="1em" height="1em"><path stroke="currentColor" d="m13 14.5 3.5 5.625a.5.5 0 0 0 .882-.063l.47-1.067a.5.5 0 0 1 .512-.295l1.12.122a.5.5 0 0 0 .487-.747L16.464 12m-9.181.375-3.12 5.843a.5.5 0 0 0 .495.733l1.159-.126a.5.5 0 0 1 .511.295l.455 1.031a.5.5 0 0 0 .89.049l3.508-6.075"/><circle cx="12" cy="9" r="5.5" stroke="currentColor"/><path stroke="currentColor" stroke-linejoin="round" d="m12 6.13.61 1.238a1 1 0 0 0 .754.547l1.366.198-.989.964a1 1 0 0 0-.287.885l.233 1.36-1.222-.642a1 1 0 0 0-.93 0l-1.222.642.233-1.36a1 1 0 0 0-.287-.885l-.989-.964 1.366-.198a1 1 0 0 0 .753-.547l-.448-.222.448.222L12 6.13Z"/></svg>
