<svg viewBox="0 0 24 24" fill="none" xmlns="http://www.w3.org/2000/svg" width="1em" height="1em"><path d="M12.9999 14.5L16.4998 20.1245C16.7121 20.4657 17.2197 20.4297 17.3819 20.0621L17.8523 18.9952C17.9402 18.7957 18.1472 18.6763 18.3638 18.6998L19.4841 18.8216C19.8911 18.8659 20.1759 18.4291 19.9712 18.0746L16.4641 12" stroke="currentColor"/><path d="M7.28349 12.375L4.16248 18.2182C3.97317 18.5727 4.25811 18.9943 4.65757 18.9509L5.81673 18.8248C6.03339 18.8013 6.24036 18.9207 6.32829 19.1202L6.78294 20.1513C6.94809 20.5259 7.46877 20.5541 7.67345 20.1996L11.1806 14.125" stroke="currentColor"/><circle cx="12" cy="9" r="5.5" stroke="currentColor"/><path d="M12 6.12978L12.6109 7.36753C12.7565 7.66267 13.0381 7.86724 13.3638 7.91457L14.7297 8.11305L13.7413 9.07651C13.5057 9.30625 13.3981 9.63725 13.4537 9.96164L13.6871 11.3221L12.4653 10.6798C12.174 10.5266 11.826 10.5266 11.5347 10.6798L10.3129 11.3221L10.5463 9.96164C10.6019 9.63724 10.4943 9.30624 10.2587 9.07651L9.27025 8.11305L10.6362 7.91457C10.9619 7.86724 11.2435 7.66267 11.3891 7.36753L10.9408 7.14625L11.3891 7.36753L12 6.12978Z" stroke="currentColor" stroke-linejoin="round"/></svg>
