<svg xmlns="http://www.w3.org/2000/svg" fill="none" viewBox="0 0 32 32" width="1em" height="1em"><path stroke="currentColor" stroke-linecap="round" stroke-linejoin="round" d="m15.475 19.793 5.638 9.766a.5.5 0 0 0 .87-.006l1.526-2.736a.5.5 0 0 1 .444-.256l3.133.045a.5.5 0 0 0 .44-.75l-5.638-9.766m-7.416 3.737-5.62 9.733a.5.5 0 0 1-.869-.005l-1.53-2.733a.5.5 0 0 0-.442-.256l-3.132.042a.5.5 0 0 1-.44-.75l5.62-9.733"/><circle cx="15" cy="11" r="8.5" stroke="currentColor"/><path stroke="currentColor" stroke-linecap="round" d="M17 5.341A6 6 0 1 0 20.659 9"/><path stroke="currentColor" stroke-linejoin="round" d="m15 6.993 1.073 1.843.433-.251-.433.251a1 1 0 0 0 .653.475l2.084.45-1.42 1.591a1 1 0 0 0-.25.767l.215 2.122-1.952-.86a1 1 0 0 0-.806 0l-1.952.86.215-2.122a1 1 0 0 0-.25-.767l-1.42-1.59 2.084-.451a1 1 0 0 0 .653-.475z"/></svg>
