<svg xmlns="http://www.w3.org/2000/svg" fill="none" viewBox="0 0 16 16" width="1em" height="1em"><path stroke="currentColor" d="m9 10.5 2.054 3.477a.5.5 0 0 0 .888-.052l.167-.379a.5.5 0 0 1 .512-.295l.408.044a.5.5 0 0 0 .488-.744L11.5 9M5 9l-2.29 3.612a.5.5 0 0 0 .476.765l.346-.038a.5.5 0 0 1 .512.296l.189.429a.5.5 0 0 0 .875.073L7.5 10.5"/><circle cx="8" cy="6" r="4.5" stroke="currentColor"/><path stroke="currentColor" stroke-linejoin="round" d="m8 3.618.31.955a1 1 0 0 0 .951.69h1.004l-.812.591a1 1 0 0 0-.363 1.118l.31.955-.812-.59a1 1 0 0 0-1.176 0l-.812.59.31-.955a1 1 0 0 0-.363-1.118l-.812-.59h1.004a1 1 0 0 0 .95-.691z"/></svg>
