<svg viewBox="0 0 24 24" fill="none" xmlns="http://www.w3.org/2000/svg" width="1em" height="1em"><path d="M3.50007 11L6.50007 14L9.50007 11" stroke="currentColor" stroke-linecap="round" stroke-linejoin="round"/><path d="M14 17C13.7239 17 13.5 17.2239 13.5 17.5C13.5 17.7761 13.7239 18 14 18V17ZM6 13.5C6 13.7761 6.22386 14 6.5 14C6.77614 14 7 13.7761 7 13.5H6ZM21 10C21 13.866 17.866 17 14 17V18C18.4183 18 22 14.4183 22 10H21ZM7 10C7 6.13401 10.134 3 14 3V2C9.58172 2 6 5.58172 6 10H7ZM14 3C17.866 3 21 6.13401 21 10H22C22 5.58172 18.4183 2 14 2V3ZM6 10V13.5H7V10H6Z" fill="currentColor"/><rect x="3.5" y="16.5" width="7" height="4" rx="0.5" stroke="currentColor" stroke-linecap="round"/></svg>
