<svg xmlns="http://www.w3.org/2000/svg" fill="none" viewBox="0 0 32 32" width="1em" height="1em"><g stroke="currentColor" stroke-linecap="round" clip-path="url(#iconsLeafSize32Px__a)"><path d="M25.626 21.05c2.426-2.426 2.92-6.646-.52-10.086-4.65-4.65-15.573-5.645-18.992-5.845a.933.933 0 0 0-.995.995c.2 3.42 1.195 14.342 5.845 18.992 3.44 3.44 7.66 2.946 10.086.52"/><path d="m10.374 10.375 16.5 16.499m-16.5-10.607c.954-.617 4.058-1.835 6.482.59-2.424-2.425-1.206-5.528-.589-6.482m-2.357 9.428c.954-.618 4.057-1.835 6.482.589-2.425-2.424-1.207-5.528-.59-6.482"/></g><defs><clipPath id="iconsLeafSize32Px__a"><path fill="currentColor" d="M0 0h32v32H0z"/></clipPath></defs></svg>
