<svg viewBox="0 0 16 16" fill="none" xmlns="http://www.w3.org/2000/svg" width="1em" height="1em"><path d="M13.2789 10.4411C14.4918 9.22818 14.7327 7.11207 13.0016 5.38091C10.8646 3.24398 6.10821 2.62778 3.99232 2.45623C3.4208 2.40989 2.95947 2.87121 3.00581 3.44274C3.17737 5.55863 3.79356 10.315 5.93049 12.452C7.66166 14.1831 9.77776 13.9422 10.9907 12.7293" stroke="currentColor" stroke-linecap="round"/><path d="M5.40686 4.98182L12.9069 12.4818M5.40687 7.92797C5.88389 7.61931 7.43559 7.01041 8.64778 8.2226C7.43559 7.01041 8.04449 5.45871 8.35315 4.98169M7.17457 9.69579C7.65159 9.38713 9.20329 8.77823 10.4155 9.99042C9.20329 8.77823 9.81219 7.22653 10.1208 6.74951" stroke="currentColor" stroke-linecap="round"/></svg>
