<svg xmlns="http://www.w3.org/2000/svg" fill="none" viewBox="0 0 24 24" width="1em" height="1em"><path stroke="currentColor" stroke-linecap="round" d="M18.28 15.076c1.697-1.698 2.05-4.646-.348-7.043C14.822 4.923 7.668 4.173 4.988 4A.921.921 0 0 0 4 4.988c.174 2.68.922 9.834 4.033 12.944 2.397 2.397 5.345 2.045 7.043.347"/><path stroke="currentColor" stroke-linecap="round" d="m7.662 7.662 11.55 11.55m-11.55-7.425c.668-.432 2.84-1.285 4.537.412-1.697-1.697-.844-3.87-.412-4.537m-1.65 6.6c.668-.432 2.84-1.285 4.537.412-1.697-1.697-.845-3.87-.412-4.537"/></svg>
