<svg viewBox="0 0 32 32" fill="none" xmlns="http://www.w3.org/2000/svg" stroke="currentColor" width="1em" height="1em"><g clip-path="url(#clip0_2_60901)"><path d="M25.6262 21.0497C28.052 18.6239 28.5459 14.4037 25.1058 10.9636C20.456 6.31385 9.5335 5.31914 6.1137 5.11881C5.54381 5.08542 5.08547 5.54376 5.11885 6.11365C5.31918 9.53345 6.31389 20.456 10.9636 25.1057C14.4038 28.5459 18.6239 28.052 21.0498 25.6262" stroke-linecap="round"/><path d="M10.3744 10.3745L26.8735 26.8736M10.3744 16.2668C11.3284 15.6495 14.4318 14.4317 16.8562 16.8561C14.4318 14.4317 15.6496 11.3283 16.2669 10.3743M13.91 19.8025C14.864 19.1852 17.9674 17.9674 20.3918 20.3917C17.9674 17.9674 19.1852 14.8639 19.8025 13.9099" stroke-linecap="round"/></g><defs><clipPath id="clip0_2_60901"><rect width="32" height="32" fill="white"/></clipPath></defs></svg>
