<svg viewBox="0 0 24 24" fill="none" xmlns="http://www.w3.org/2000/svg" width="1em" height="1em"><path d="M18.2794 15.0758C19.9775 13.3778 20.3292 10.4296 17.9322 8.03264C14.8217 4.92217 7.6678 4.1739 4.98827 4.00018C4.42042 3.96336 3.96344 4.42033 4.00026 4.98819C4.17398 7.66772 4.92225 14.8217 8.03272 17.9321C10.4297 20.3291 13.3778 19.9774 15.0759 18.2794" stroke="currentColor" stroke-linecap="round"/><path d="M7.66196 7.6622L19.2114 19.2116M7.66196 11.7869C8.32978 11.3548 10.5022 10.5023 12.1992 12.1994C10.5022 10.5023 11.3546 8.32993 11.7867 7.66211M10.1368 14.2618C10.8047 13.8297 12.977 12.9772 14.6741 14.6743C12.977 12.9772 13.8295 10.8048 14.2616 10.137" stroke="currentColor" stroke-linecap="round"/></svg>
