<svg viewBox="0 0 24 24" fill="none" xmlns="http://www.w3.org/2000/svg" width="1em" height="1em"><path d="M18.2794 15.0758C19.9775 13.3778 20.3292 10.4296 17.9322 8.03264C14.8217 4.92217 7.6678 4.1739 4.98827 4.00018C4.42042 3.96336 3.96344 4.42033 4.00026 4.98819C4.17398 7.66772 4.92225 14.8217 8.03272 17.9321C10.4297 20.3291 13.3778 19.9774 15.0759 18.2794" stroke="currentColor" stroke-linecap="round"/><path d="M7.66211 7.66208L19.2115 19.2115M7.66211 11.7868C8.32993 11.3547 10.5023 10.5022 12.1994 12.1993C10.5023 10.5022 11.3548 8.32981 11.7869 7.66199M10.137 14.2616C10.8048 13.8295 12.9772 12.9771 14.6743 14.6741C12.9772 12.9771 13.8297 10.8047 14.2618 10.1369" stroke="currentColor" stroke-linecap="round"/></svg>
