<svg xmlns="http://www.w3.org/2000/svg" fill="none" viewBox="0 0 16 16" width="1em" height="1em"><path stroke="currentColor" stroke-linecap="round" d="M13.279 10.441c1.213-1.213 1.454-3.33-.277-5.06-2.137-2.137-6.894-2.753-9.01-2.925a.906.906 0 0 0-.986.987c.171 2.116.788 6.872 2.924 9.009 1.732 1.731 3.848 1.49 5.06.277"/><path stroke="currentColor" stroke-linecap="round" d="m5.407 4.982 7.5 7.5m-7.5-4.554c.477-.308 2.029-.917 3.24.295-1.211-1.212-.603-2.764-.294-3.241M7.175 9.696c.477-.309 2.028-.918 3.24.295-1.212-1.213-.603-2.764-.294-3.241"/></svg>
