<svg viewBox="0 0 16 16" fill="none" xmlns="http://www.w3.org/2000/svg" width="1em" height="1em"><path d="M13.279 10.4411C14.4919 9.22818 14.7328 7.11207 13.0017 5.38091C10.8647 3.24398 6.10833 2.62778 3.99245 2.45623C3.42092 2.40989 2.9596 2.87121 3.00593 3.44274C3.17749 5.55863 3.79368 10.315 5.93061 12.452C7.66178 14.1831 9.77788 13.9422 10.9908 12.7293" stroke="currentColor" stroke-linecap="round"/><path d="M5.40698 4.98182L12.907 12.4818M5.40699 7.92797C5.88401 7.61931 7.43572 7.01041 8.6479 8.2226C7.43572 7.01041 8.04461 5.45871 8.35327 4.98169M7.17469 9.69579C7.65171 9.38713 9.20342 8.77823 10.4156 9.99042C9.20342 8.77823 9.81231 7.22653 10.121 6.74951" stroke="currentColor" stroke-linecap="round"/></svg>
