<svg viewBox="0 0 24 24" fill="none" xmlns="http://www.w3.org/2000/svg" stroke="currentColor"><path d="M18.2794 15.0758C19.9775 13.3778 20.3292 10.4296 17.9322 8.03264C14.8217 4.92217 7.6678 4.1739 4.98827 4.00018C4.42042 3.96336 3.96344 4.42033 4.00026 4.98819C4.17398 7.66772 4.92225 14.8217 8.03272 17.9321C10.4297 20.3291 13.3778 19.9774 15.0759 18.2794" stroke-linecap="round"/><path d="M7.66187 7.66208L19.2113 19.2115M7.66187 11.7868C8.32969 11.3547 10.5021 10.5022 12.1991 12.1993C10.5021 10.5022 11.3545 8.32981 11.7867 7.66199M10.1367 14.2616C10.8046 13.8295 12.9769 12.9771 14.674 14.6741C12.9769 12.9771 13.8294 10.8047 14.2615 10.1369" stroke-linecap="round"/></svg>
