<svg viewBox="0 0 16 16" fill="none" xmlns="http://www.w3.org/2000/svg" stroke="currentColor"><path d="M10.8388 3.83485C10.8878 4.03946 11.0597 4.19145 11.2688 4.2151C12.5038 4.35478 13.5 5.46332 13.5 6.85C13.5 8.33682 12.358 9.5 11 9.5H4.57143C3.45012 9.5 2.5 8.5383 2.5 7.3C2.5 6.0617 3.45012 5.1 4.57143 5.1C4.84757 5.1 5.07143 4.87614 5.07143 4.6C5.07143 2.86465 6.4053 1.5 8 1.5C9.35199 1.5 10.5132 2.47706 10.8388 3.83485Z" stroke-linecap="square" stroke-linejoin="round"/><path d="M3.5 12.5C3.5 12.7761 3.27614 13 3 13C2.72386 13 2.5 12.7761 2.5 12.5C2.5 12.2239 2.72386 12 3 12C3.27614 12 3.5 12.2239 3.5 12.5Z"/><path d="M5.5 9V11.5C5.5 12.0523 5.05228 12.5 4.5 12.5H3"/><path d="M12.5 12.5C12.5 12.7761 12.7239 13 13 13C13.2761 13 13.5 12.7761 13.5 12.5C13.5 12.2239 13.2761 12 13 12C12.7239 12 12.5 12.2239 12.5 12.5Z"/><path d="M10.5 9V11.5C10.5 12.0523 10.9477 12.5 11.5 12.5H13"/><path d="M8 9L8 13.5"/><path d="M8.5 14C8.5 14.2761 8.27614 14.5 8 14.5C7.72386 14.5 7.5 14.2761 7.5 14C7.5 13.7239 7.72386 13.5 8 13.5C8.27614 13.5 8.5 13.7239 8.5 14Z"/></svg>