<svg xmlns="http://www.w3.org/2000/svg" fill="none" viewBox="0 0 16 16" width="1em" height="1em"><path stroke="currentColor" stroke-linecap="square" stroke-linejoin="round" d="M10.839 3.835a.5.5 0 0 0 .43.38c1.235.14 2.231 1.248 2.231 2.635 0 1.487-1.142 2.65-2.5 2.65H4.571C3.451 9.5 2.5 8.538 2.5 7.3c0-1.238.95-2.2 2.071-2.2a.5.5 0 0 0 .5-.5c0-1.735 1.334-3.1 2.929-3.1 1.352 0 2.513.977 2.839 2.335Z"/><path stroke="currentColor" d="M3.5 12.5a.5.5 0 1 1-1 0 .5.5 0 0 1 1 0Z"/><path stroke="currentColor" d="M5.5 9v2.5a1 1 0 0 1-1 1H3m9.5 0a.5.5 0 1 0 1 0 .5.5 0 0 0-1 0Z"/><path stroke="currentColor" d="M10.5 9v2.5a1 1 0 0 0 1 1H13M8 9v4.5m.5.5a.5.5 0 1 1-1 0 .5.5 0 0 1 1 0Z"/></svg>
