<svg xmlns="http://www.w3.org/2000/svg" fill="none" viewBox="0 0 24 24" width="1em" height="1em"><path stroke="currentColor" d="M5.5 18.5a1 1 0 1 1-2 0 1 1 0 0 1 2 0Zm3-4v3a1 1 0 0 1-1 1h-2m13 0a1 1 0 1 0 2 0 1 1 0 0 0-2 0Zm-3-4v3a1 1 0 0 0 1 1h2M12 14v5.5m1 1a1 1 0 1 1-2 0 1 1 0 0 1 2 0Z"/><path stroke="currentColor" stroke-linejoin="round" d="M18.142 6.814a.5.5 0 0 0 .426.446c1.633.236 2.932 1.738 2.932 3.604 0 .795-.252 1.728-.746 2.45-.486.712-1.18 1.186-2.087 1.186H4.778c-1.23 0-2.278-1.07-2.278-2.454 0-1.253.862-2.253 1.934-2.427a.5.5 0 0 0 .407-.38c.435-1.855 2-3.194 3.826-3.194.083 0 .166.003.248.009a.5.5 0 0 0 .508-.342c.623-1.888 2.302-3.212 4.244-3.212 2.301 0 4.237 1.865 4.475 4.314Z"/></svg>
