<svg xmlns="http://www.w3.org/2000/svg" fill="none" viewBox="0 0 32 32" width="1em" height="1em"><path stroke="currentColor" stroke-linejoin="round" d="M24.833 8.83a.5.5 0 0 0 .447.498c2.385.256 4.22 2.217 4.22 4.572 0 2.43-1.6 4.6-4.167 4.6H5.5c-1.67 0-3-1.312-3-2.9 0-1.6 1.418-2.952 3.1-2.898a.5.5 0 0 0 .506-.398c.5-2.398 2.772-4.177 5.316-4.137a.5.5 0 0 0 .5-.415c.513-2.97 3.18-5.252 6.411-5.252 3.57 0 6.508 2.9 6.5 6.33Z"/><path stroke="currentColor" d="M8.5 26.5a1 1 0 1 1-2 0 1 1 0 0 1 2 0Zm4-7.5v6.5a1 1 0 0 1-1 1h-3m15 0a1 1 0 1 0 2 0 1 1 0 0 0-2 0Zm-4-7.5v6.5a1 1 0 0 0 1 1h3m-17-4a1 1 0 1 1-2 0 1 1 0 0 1 2 0Z"/><path stroke="currentColor" d="M9.5 18.5v3a1 1 0 0 1-1 1h-2m19 0a1 1 0 1 0 2 0 1 1 0 0 0-2 0Zm-3-4v3a1 1 0 0 0 1 1h2m-9.5-4v9m1 1a1 1 0 1 1-2 0 1 1 0 0 1 2 0Z"/></svg>
