<svg xmlns="http://www.w3.org/2000/svg" fill="none" viewBox="0 0 16 16" width="1em" height="1em"><path stroke="currentColor" stroke-linecap="round" d="M9.434 14.827a6.013 6.013 0 0 1-2.868 0M2 7.707a6.202 6.202 0 0 1 3-4.303m9 4.303a6.202 6.202 0 0 0-3-4.303M11 14.5V14a1.5 1.5 0 0 1 1.5-1.5v0A1.5 1.5 0 0 1 14 14v.5"/><path stroke="currentColor" stroke-linecap="round" stroke-linejoin="round" d="M13.5 10a1 1 0 1 1-2 0 1 1 0 0 1 2 0Z"/><path stroke="currentColor" stroke-linecap="round" d="M2 14.5V14a1.5 1.5 0 0 1 1.5-1.5v0A1.5 1.5 0 0 1 5 14v.5"/><path stroke="currentColor" stroke-linecap="round" stroke-linejoin="round" d="M4.5 10a1 1 0 1 1-2 0 1 1 0 0 1 2 0Z"/><path stroke="currentColor" stroke-linecap="round" d="M6.5 7v-.5A1.5 1.5 0 0 1 8 5v0a1.5 1.5 0 0 1 1.5 1.5V7"/><path stroke="currentColor" stroke-linecap="round" stroke-linejoin="round" d="M9 2.5a1 1 0 1 1-2 0 1 1 0 0 1 2 0Z"/></svg>
