<svg xmlns="http://www.w3.org/2000/svg" fill="none" viewBox="0 0 32 32" width="1em" height="1em"><path stroke="currentColor" stroke-linecap="round" d="M11.698 4C7.738 5.52 4.759 9.077 4 13.415M20.302 4c3.96 1.52 6.939 5.077 7.698 9.415m-9.132 14.24a12.057 12.057 0 0 1-5.736 0M21.5 26.5v-2a2 2 0 0 1 2-2h4a2 2 0 0 1 2 2v2"/><path stroke="currentColor" stroke-linecap="round" stroke-linejoin="round" d="M25.5 20.5a2.5 2.5 0 1 0 0-5 2.5 2.5 0 0 0 0 5Z"/><path stroke="currentColor" stroke-linecap="round" d="M2.5 26.5v-2a2 2 0 0 1 2-2h4a2 2 0 0 1 2 2v2"/><path stroke="currentColor" stroke-linecap="round" stroke-linejoin="round" d="M6.5 20.5a2.5 2.5 0 1 0 0-5 2.5 2.5 0 0 0 0 5Z"/><path stroke="currentColor" stroke-linecap="round" d="M12 13.5v-2a2 2 0 0 1 2-2h4a2 2 0 0 1 2 2v2"/><path stroke="currentColor" stroke-linecap="round" stroke-linejoin="round" d="M16 7.5a2.5 2.5 0 1 0 0-5 2.5 2.5 0 0 0 0 5Z"/></svg>
