<svg width="32" height="32" viewBox="0 0 32 32" fill="none" xmlns="http://www.w3.org/2000/svg">
    <path d="M15.9993 2.6665C23.3633 2.6665 29.3327 8.63584 29.3327 15.9998C29.3355 19.5005 27.9614 22.8618 25.5072 25.358C23.053 27.8543 19.7156 29.2853 16.2154 29.342C12.7152 29.3987 9.33313 28.0766 6.79935 25.6612C4.26556 23.2457 2.78333 19.9307 2.67268 16.4318L2.66602 15.9998L2.67135 15.6265C2.86868 8.43584 8.75935 2.6665 15.9993 2.6665ZM15.9993 14.6665H14.666L14.51 14.6758C14.186 14.7144 13.8873 14.8704 13.6706 15.1145C13.4539 15.3585 13.3342 15.6735 13.3342 15.9998C13.3342 16.3262 13.4539 16.6412 13.6706 16.8852C13.8873 17.1292 14.186 17.2853 14.51 17.3238L14.666 17.3332V21.3332L14.6753 21.4892C14.7104 21.7868 14.8448 22.0639 15.0567 22.2758C15.2686 22.4877 15.5457 22.6221 15.8433 22.6572L15.9993 22.6665H17.3327L17.4887 22.6572C17.7863 22.6221 18.0634 22.4877 18.2753 22.2758C18.4872 22.0639 18.6216 21.7868 18.6567 21.4892L18.666 21.3332L18.6567 21.1772C18.6248 20.9051 18.5099 20.6495 18.3277 20.4451C18.1454 20.2406 17.9046 20.0973 17.638 20.0345L17.4887 20.0078L17.3327 19.9998V15.9998L17.3233 15.8438C17.2883 15.5462 17.1539 15.2691 16.942 15.0572C16.7301 14.8453 16.453 14.7109 16.1553 14.6758L15.9993 14.6665ZM16.0127 10.6665L15.8433 10.6758C15.5193 10.7144 15.2206 10.8704 15.0039 11.1145C14.7872 11.3585 14.6675 11.6735 14.6675 11.9998C14.6675 12.3262 14.7872 12.6412 15.0039 12.8852C15.2206 13.1292 15.5193 13.2853 15.8433 13.3238L15.9993 13.3332L16.1687 13.3238C16.4927 13.2853 16.7914 13.1292 17.0081 12.8852C17.2248 12.6412 17.3445 12.3262 17.3445 11.9998C17.3445 11.6735 17.2248 11.3585 17.0081 11.1145C16.7914 10.8704 16.4927 10.7144 16.1687 10.6758L16.0127 10.6665Z"
          fill="#959CAB"/>
</svg>
