<svg width="32" height="32" viewBox="0 0 32 32" fill="none" xmlns="http://www.w3.org/2000/svg">
<path d="M22.666 4.45352C24.677 5.61466 26.3499 7.28088 27.5191 9.28725C28.6883 11.2936 29.3132 13.5705 29.3319 15.8926C29.3507 18.2147 28.7626 20.5015 27.626 22.5264C26.4894 24.5514 24.8437 26.2445 22.8517 27.4379C20.8597 28.6314 18.5905 29.2839 16.2688 29.3309C13.9471 29.3779 11.6534 28.8177 9.61475 27.7058C7.57609 26.5939 5.86318 24.9689 4.64557 22.9915C3.42797 21.0142 2.74789 18.7531 2.67268 16.4322L2.66602 16.0002L2.67268 15.5682C2.74735 13.2655 3.41741 11.0215 4.61753 9.05484C5.81766 7.08821 7.50689 5.46612 9.52054 4.34669C11.5342 3.22727 13.8035 2.64871 16.1074 2.66743C18.4112 2.68615 20.6708 3.30151 22.666 4.45352ZM20.942 12.3908C20.7124 12.1613 20.407 12.0234 20.0829 12.003C19.7589 11.9826 19.4386 12.0812 19.182 12.2802L19.0567 12.3908L14.666 16.7802L12.942 15.0575L12.8167 14.9468C12.5601 14.748 12.2398 14.6495 11.9159 14.67C11.5919 14.6904 11.2866 14.8283 11.057 15.0579C10.8275 15.2874 10.6896 15.5928 10.6692 15.9167C10.6487 16.2407 10.7472 16.561 10.946 16.8175L11.0567 16.9428L13.7233 19.6095L13.8487 19.7202C14.0825 19.9016 14.3701 20.0001 14.666 20.0001C14.962 20.0001 15.2495 19.9016 15.4833 19.7202L15.6087 19.6095L20.942 14.2762L21.0527 14.1508C21.2517 13.8943 21.3502 13.574 21.3299 13.2499C21.3095 12.9259 21.1716 12.6204 20.942 12.3908Z" fill="#15B43C"/>
</svg>
