<svg xmlns="http://www.w3.org/2000/svg" fill="none" viewBox="0 0 24 24" width="1em" height="1em"><path stroke="currentColor" stroke-linecap="round" d="M4 4.5h16A1.5 1.5 0 0 1 21.5 6v12a1.5 1.5 0 0 1-1.5 1.5H4A1.5 1.5 0 0 1 2.5 18V6A1.5 1.5 0 0 1 4 4.5Zm.5 12h15"/><path fill="currentColor" d="M19 16.5a1 1 0 1 1-2 0 1 1 0 0 1 2 0Z"/><path stroke="currentColor" stroke-linecap="round" stroke-linejoin="round" d="M12 10.5a1.5 1.5 0 1 0 0-3 1.5 1.5 0 0 0 0 3Z"/><path stroke="currentColor" stroke-linecap="round" d="M9 14.5V14a2 2 0 0 1 2-2h2a2 2 0 0 1 2 2v.5"/></svg>
