<svg viewBox="0 0 16 16" fill="none" xmlns="http://www.w3.org/2000/svg" width="1em" height="1em"><path d="M3 3.5L13 3.5C13.8284 3.5 14.5 4.17157 14.5 5V11C14.5 11.8284 13.8284 12.5 13 12.5H3C2.17157 12.5 1.5 11.8284 1.5 11L1.5 5C1.5 4.17157 2.17157 3.5 3 3.5Z" stroke="currentColor" stroke-linecap="round"/><path d="M8 7.5C8.69036 7.5 9.25 6.94036 9.25 6.25C9.25 5.55964 8.69036 5 8 5C7.30964 5 6.75 5.55964 6.75 6.25C6.75 6.94036 7.30964 7.5 8 7.5Z" stroke="currentColor" stroke-linecap="round" stroke-linejoin="round"/><path d="M6 12V10.5C6 9.67157 6.67157 9 7.5 9H8.5C9.32843 9 10 9.67157 10 10.5V12" stroke="currentColor" stroke-linecap="round"/></svg>
