<svg xmlns="http://www.w3.org/2000/svg" fill="none" viewBox="0 0 16 16" width="1em" height="1em"><path stroke="currentColor" stroke-linecap="round" d="M3 3.5h10A1.5 1.5 0 0 1 14.5 5v6a1.5 1.5 0 0 1-1.5 1.5H3A1.5 1.5 0 0 1 1.5 11V5A1.5 1.5 0 0 1 3 3.5Z"/><path stroke="currentColor" stroke-linecap="round" stroke-linejoin="round" d="M8 7.5A1.25 1.25 0 1 0 8 5a1.25 1.25 0 0 0 0 2.5"/><path stroke="currentColor" stroke-linecap="round" d="M6 12v-1.5A1.5 1.5 0 0 1 7.5 9h1a1.5 1.5 0 0 1 1.5 1.5V12"/></svg>
