<svg viewBox="0 0 32 32" fill="none" xmlns="http://www.w3.org/2000/svg" width="1em" height="1em"><path d="M4 6.50024H28C28.8284 6.50024 29.5 7.17182 29.5 8.00024V24.0002C29.5 24.8287 28.8284 25.5002 28 25.5002H4C3.17157 25.5002 2.5 24.8287 2.5 24.0002V8.00024C2.5 7.17182 3.17157 6.50024 4 6.50024Z" stroke="currentColor" stroke-linecap="round"/><path d="M6 21.5002C5.72386 21.5002 5.5 21.7241 5.5 22.0002C5.5 22.2764 5.72386 22.5002 6 22.5002V21.5002ZM26 22.5002C26.2761 22.5002 26.5 22.2764 26.5 22.0002C26.5 21.7241 26.2761 21.5002 26 21.5002V22.5002ZM6 22.5002H26V21.5002H6V22.5002Z" fill="currentColor"/><path d="M24.5 22.0002C24.5 22.2764 24.2761 22.5002 24 22.5002C23.7239 22.5002 23.5 22.2764 23.5 22.0002C23.5 21.7241 23.7239 21.5002 24 21.5002C24.2761 21.5002 24.5 21.7241 24.5 22.0002Z" stroke="currentColor"/><path d="M16 14.5002C17.3807 14.5002 18.5 13.381 18.5 12.0002C18.5 10.6195 17.3807 9.50024 16 9.50024C14.6193 9.50024 13.5 10.6195 13.5 12.0002C13.5 13.381 14.6193 14.5002 16 14.5002Z" stroke="currentColor" stroke-linecap="round" stroke-linejoin="round"/><path d="M11.5 19.5002C11.5 19.7764 11.7239 20.0002 12 20.0002C12.2761 20.0002 12.5 19.7764 12.5 19.5002H11.5ZM19.5 19.5002C19.5 19.7764 19.7239 20.0002 20 20.0002C20.2761 20.0002 20.5 19.7764 20.5 19.5002H19.5ZM12.5 19.5002V18.5002H11.5V19.5002H12.5ZM14 17.0002H18V16.0002H14V17.0002ZM19.5 18.5002V19.5002H20.5V18.5002H19.5ZM18 17.0002C18.8284 17.0002 19.5 17.6718 19.5 18.5002H20.5C20.5 17.1195 19.3807 16.0002 18 16.0002V17.0002ZM12.5 18.5002C12.5 17.6718 13.1716 17.0002 14 17.0002V16.0002C12.6193 16.0002 11.5 17.1195 11.5 18.5002H12.5Z" fill="currentColor"/></svg>
