<svg xmlns="http://www.w3.org/2000/svg" fill="none" viewBox="0 0 32 32" width="1em" height="1em"><path stroke="currentColor" stroke-linecap="round" d="M4 6.5h24A1.5 1.5 0 0 1 29.5 8v16a1.5 1.5 0 0 1-1.5 1.5H4A1.5 1.5 0 0 1 2.5 24V8A1.5 1.5 0 0 1 4 6.5ZM6 22h20"/><path stroke="currentColor" d="M24.5 22a.5.5 0 1 1-1 0 .5.5 0 0 1 1 0Z"/><path stroke="currentColor" stroke-linecap="round" stroke-linejoin="round" d="M16 14.5a2.5 2.5 0 1 0 0-5 2.5 2.5 0 0 0 0 5Z"/><path stroke="currentColor" stroke-linecap="round" d="M12 19.5v-1a2 2 0 0 1 2-2h4a2 2 0 0 1 2 2v1"/></svg>
