<svg viewBox="0 0 32 32" fill="none" xmlns="http://www.w3.org/2000/svg" width="1em" height="1em"><path d="M4 6.50024H28C28.8284 6.50024 29.5 7.17182 29.5 8.00024V24.0002C29.5 24.8287 28.8284 25.5002 28 25.5002H4C3.17157 25.5002 2.5 24.8287 2.5 24.0002V8.00024C2.5 7.17182 3.17157 6.50024 4 6.50024Z" stroke="currentColor" stroke-linecap="round"/><path d="M6 22.0002H26" stroke="currentColor" stroke-linecap="round"/><path d="M24.5 22.0002C24.5 22.2764 24.2761 22.5002 24 22.5002C23.7239 22.5002 23.5 22.2764 23.5 22.0002C23.5 21.7241 23.7239 21.5002 24 21.5002C24.2761 21.5002 24.5 21.7241 24.5 22.0002Z" stroke="currentColor"/><path d="M16 14.5002C17.3807 14.5002 18.5 13.381 18.5 12.0002C18.5 10.6195 17.3807 9.50024 16 9.50024C14.6193 9.50024 13.5 10.6195 13.5 12.0002C13.5 13.381 14.6193 14.5002 16 14.5002Z" stroke="currentColor" stroke-linecap="round" stroke-linejoin="round"/><path d="M12 19.5002V18.5002C12 17.3957 12.8954 16.5002 14 16.5002H18C19.1046 16.5002 20 17.3957 20 18.5002V19.5002" stroke="currentColor" stroke-linecap="round"/></svg>
