<svg viewBox="0 0 16 16" fill="none" xmlns="http://www.w3.org/2000/svg" width="1em" height="1em"><path d="M3 3.5H13C13.8284 3.5 14.5 4.17157 14.5 5V11C14.5 11.8284 13.8284 12.5 13 12.5H3C2.17157 12.5 1.5 11.8284 1.5 11V5C1.5 4.17157 2.17157 3.5 3 3.5Z" stroke="currentColor" stroke-linecap="round"/><path d="M8 7.5C8.69036 7.5 9.25 6.94036 9.25 6.25C9.25 5.55964 8.69036 5 8 5C7.30964 5 6.75 5.55964 6.75 6.25C6.75 6.94036 7.30964 7.5 8 7.5Z" stroke="currentColor" stroke-linecap="round" stroke-linejoin="round"/><path d="M5.5 12C5.5 12.2761 5.72386 12.5 6 12.5C6.27614 12.5 6.5 12.2761 6.5 12H5.5ZM9.5 12C9.5 12.2761 9.72386 12.5 10 12.5C10.2761 12.5 10.5 12.2761 10.5 12H9.5ZM6.5 12V10.5H5.5V12H6.5ZM7.5 9.5H8.5V8.5H7.5V9.5ZM9.5 10.5V12H10.5V10.5H9.5ZM8.5 9.5C9.05228 9.5 9.5 9.94772 9.5 10.5H10.5C10.5 9.39543 9.60457 8.5 8.5 8.5V9.5ZM6.5 10.5C6.5 9.94772 6.94772 9.5 7.5 9.5V8.5C6.39543 8.5 5.5 9.39543 5.5 10.5H6.5Z" fill="currentColor"/></svg>
