<svg viewBox="0 0 24 24" fill="none" xmlns="http://www.w3.org/2000/svg" width="1em" height="1em"><path d="M4 4.5H20C20.8284 4.5 21.5 5.17157 21.5 6V18C21.5 18.8284 20.8284 19.5 20 19.5H4C3.17157 19.5 2.5 18.8284 2.5 18V6C2.5 5.17157 3.17157 4.5 4 4.5Z" stroke="currentColor" stroke-linecap="round"/><line x1="4.5" y1="16.5" x2="19.5" y2="16.5" stroke="currentColor" stroke-linecap="round"/><path d="M19 16.5C19 17.0523 18.5523 17.5 18 17.5C17.4477 17.5 17 17.0523 17 16.5C17 15.9477 17.4477 15.5 18 15.5C18.5523 15.5 19 15.9477 19 16.5Z" fill="currentColor"/><path d="M12 10.5C12.8284 10.5 13.5 9.82843 13.5 9C13.5 8.17157 12.8284 7.5 12 7.5C11.1716 7.5 10.5 8.17157 10.5 9C10.5 9.82843 11.1716 10.5 12 10.5Z" stroke="currentColor" stroke-linecap="round" stroke-linejoin="round"/><path d="M9 14.5V14C9 12.8954 9.89543 12 11 12H13C14.1046 12 15 12.8954 15 14V14.5" stroke="currentColor" stroke-linecap="round"/></svg>
