<svg viewBox="0 0 32 32" fill="none" xmlns="http://www.w3.org/2000/svg" width="1em" height="1em"><path d="M2.94876 16.9685C2.66524 16.5907 2.65407 16.0985 2.92068 15.706C4.37057 13.5712 8.59725 8.50005 16 8.50006C23.4378 8.50006 27.5372 13.6204 28.9103 15.7316C29.1577 16.112 29.1475 16.5785 28.8845 16.9444C27.4834 18.8937 23.3911 23.5002 16 23.5002C8.6452 23.5002 4.42775 18.9395 2.94876 16.9685Z" stroke="currentColor"/><path d="M21.5 16C21.5 19.0376 19.0376 21.5 16 21.5C12.9624 21.5 10.5 19.0376 10.5 16C10.5 12.9624 12.9624 10.5 16 10.5C19.0376 10.5 21.5 12.9624 21.5 16Z" stroke="currentColor"/><path d="M25.5 6.5L6.5 25.5" stroke="currentColor" stroke-linecap="round"/></svg>
