<svg viewBox="0 0 16 16" fill="none" xmlns="http://www.w3.org/2000/svg" stroke="currentColor"><path d="M2.15316 8.58116C1.87391 8.23364 1.87391 7.76636 2.15316 7.41885C3.05625 6.29499 4.9725 4.5 8.00002 4.5C11.0326 4.5 12.9394 6.30113 13.8336 7.42375C14.1085 7.76899 14.1085 8.23101 13.8336 8.57625C12.9394 9.69887 11.0326 11.5 8.00001 11.5C4.97249 11.5 3.05625 9.70501 2.15316 8.58116Z"/><path d="M9.75 7.98651C9.75 8.95301 8.9665 9.73651 8 9.73651C7.0335 9.73651 6.25 8.95301 6.25 7.98651C6.25 7.02001 7.0335 6.23651 8 6.23651C8.9665 6.23651 9.75 7.02001 9.75 7.98651Z"/><path d="M13 3.00024L3 13.0002" stroke-linecap="round"/></svg>