<svg viewBox="0 0 32 32" fill="none" xmlns="http://www.w3.org/2000/svg" stroke="currentColor"><path d="M2.94882 16.9685C2.6653 16.5907 2.65414 16.0985 2.92074 15.706C4.37063 13.5712 8.59731 8.50005 16 8.50006C23.4379 8.50006 27.5373 13.6204 28.9104 15.7316C29.1578 16.112 29.1475 16.5785 28.8845 16.9444C27.4835 18.8937 23.3912 23.5002 16 23.5002C8.64527 23.5002 4.42781 18.9395 2.94882 16.9685Z"/><path d="M21.5 16C21.5 19.0376 19.0376 21.5 16 21.5C12.9624 21.5 10.5 19.0376 10.5 16C10.5 12.9624 12.9624 10.5 16 10.5C19.0376 10.5 21.5 12.9624 21.5 16Z"/><path d="M25.5 6.5L6.5 25.5" stroke-linecap="round"/></svg>
