<svg viewBox="0 0 32 32" fill="none" xmlns="http://www.w3.org/2000/svg" width="1em" height="1em"><path d="M2.9487 16.9685C2.66518 16.5907 2.65401 16.0985 2.92062 15.706C4.37051 13.5712 8.59719 8.50005 15.9999 8.50006C23.4378 8.50006 27.5371 13.6204 28.9103 15.7316C29.1576 16.112 29.1474 16.5785 28.8844 16.9444C27.4833 18.8937 23.391 23.5002 15.9999 23.5002C8.64514 23.5002 4.42769 18.9395 2.9487 16.9685Z" stroke="currentColor"/><path d="M21.5 16C21.5 19.0376 19.0376 21.5 16 21.5C12.9624 21.5 10.5 19.0376 10.5 16C10.5 12.9624 12.9624 10.5 16 10.5C19.0376 10.5 21.5 12.9624 21.5 16Z" stroke="currentColor"/><path d="M25.5 6.5L6.5 25.5" stroke="currentColor" stroke-linecap="round"/></svg>
