<svg xmlns="http://www.w3.org/2000/svg" fill="none" viewBox="0 0 24 24" width="1em" height="1em"><path fill="currentColor" d="M5.5 21.5H5v.5h.5zm10.19 0v.5zm1.392-.564-.348-.359zm4.516-4.375.348.36zM5.5 16.171l-.328-.377-.172.15v.228zm9.89 2.513.103.49zm-3.993.327a.5.5 0 0 0 .206.978zm-.315-2.81-.29.408zm-.387-.276.29-.407zm9.789-.815.257.429zm1.356.526-.48.143zM5.5 22h10.19v-1H5.5zm11.93-.704 4.516-4.376-.696-.718-4.516 4.375zM6 21.5v-5.328H5V21.5zm6.013-4.5h3.15v-1h-3.15zm3.275 1.195-3.89.816.205.978 3.89-.816zm-3.915-2.4-.388-.277-.58.814.387.277zm8.853-1.114-3.983 2.39.514.858 3.984-2.39zm2.093.811a1.42 1.42 0 0 0-2.093-.81l.515.857a.42.42 0 0 1 .62.24zm-11.334.026a4.7 4.7 0 0 0-5.813.276l.656.755a3.7 3.7 0 0 1 4.576-.217zM15.164 17c.333 0 .604.27.604.604h1c0-.886-.718-1.604-1.604-1.604zm-3.15-1a1.1 1.1 0 0 1-.64-.205l-.582.814c.356.254.783.391 1.221.391zm9.932.92a1.42 1.42 0 0 0 .373-1.428l-.958.287a.42.42 0 0 1-.11.423zm-6.178.684c0 .285-.2.532-.48.59l.205.98a1.604 1.604 0 0 0 1.275-1.57zM15.69 22a2.5 2.5 0 0 0 1.74-.704l-.696-.719A1.5 1.5 0 0 1 15.69 21z"/><path stroke="currentColor" d="M2.5 16a.5.5 0 0 1 .5-.5h2a.5.5 0 0 1 .5.5v5a.5.5 0 0 1-.5.5H3a.5.5 0 0 1-.5-.5z"/><path stroke="currentColor" stroke-linecap="round" d="M8 12.5v-1a2 2 0 0 1 2-2h4a2 2 0 0 1 2 2v1"/><circle cx="12.182" cy="4.909" r="2.409" stroke="currentColor"/></svg>
