<svg xmlns="http://www.w3.org/2000/svg" fill="none" viewBox="0 0 32 32" width="1em" height="1em"><path fill="currentColor" d="M6.5 28.5H6v.5h.5zm14.545-.43-.31-.393zm8.405-6.635-.31-.393zM6.5 21.11l-.258-.428-.242.146v.282zm13.894 3.073-.082-.493zm-4.976.323a.5.5 0 1 0 .164.986zm-.319-3.138.21-.453zm-1.392-.647.21-.453zm14.58-1.107-.226-.446zm1.543.705.485-.122zM6.5 29h13.306v-1H6.5zm14.855-.538 8.404-6.635-.62-.785-8.404 6.635zM7 28.5v-7.389H6V28.5zm8.942-6.444h4.235v-1h-4.235zm4.37 1.635-4.894.816.164.986 4.894-.816zm-5.002-2.775-1.392-.647-.422.907 1.393.647zm12.75-1.747-6.786 3.44.452.893 6.787-3.44zm2.255 1.03a1.585 1.585 0 0 0-2.254-1.03l.452.892a.585.585 0 0 1 .832.38zm-16.397.07a8.18 8.18 0 0 0-7.676.414l.516.856a7.18 7.18 0 0 1 6.738-.363zm6.259 1.787c.454 0 .823.368.823.823h1a1.823 1.823 0 0 0-1.823-1.823zm-4.235-1a1.5 1.5 0 0 1-.632-.14l-.421.907c.33.153.689.233 1.053.233zm13.817.77c.49-.385.707-1.023.556-1.628l-.97.243a.59.59 0 0 1-.205.601zM21 22.88a.82.82 0 0 1-.688.812l.164.986A1.82 1.82 0 0 0 22 22.88zM19.806 29a2.5 2.5 0 0 0 1.549-.538l-.62-.785a1.5 1.5 0 0 1-.93.323z"/><path stroke="currentColor" d="M2.5 21a.5.5 0 0 1 .5-.5h3a.5.5 0 0 1 .5.5v7a.5.5 0 0 1-.5.5H3a.5.5 0 0 1-.5-.5z"/><path stroke="currentColor" stroke-linecap="round" d="M10.5 17.5v-2a4 4 0 0 1 4-4h3a4 4 0 0 1 4 4v2"/><circle cx="16" cy="6" r="3.5" stroke="currentColor"/></svg>
