<svg xmlns="http://www.w3.org/2000/svg" fill="none" viewBox="0 0 16 16" width="1em" height="1em"><path fill="currentColor" d="M3.45 14.5h-.5v.5h.5zm7.013 0v.5zm1.23-.422.306.394zm2.85-2.221-.308-.395zM3.45 10.92l-.285-.41-.215.148v.262zm4.05 1.13a.5.5 0 1 0 0 1zm-3.643-1.412-.285-.41zm9.774-.141-.248-.434zm1.186.453-.475.158zm-7.558-.5.237-.44zm3.735 1.121.5.003zM3.45 15h7.013v-1H3.45zm8.55-.528 2.85-2.221-.615-.789-2.85 2.221zm-8.05.028v-3.58h-1v3.58zm3.824-3.42h2.234v-1H7.775zm2.234.97H7.5v1h2.508zm-6.436-1.823-.407.282.57.822.407-.282zm9.81-.165-2.63 1.504.496.868 2.63-1.503zm1.909.73a1.32 1.32 0 0 0-1.908-.73l.496.869a.32.32 0 0 1 .463.177zm-7.795-.783a3.76 3.76 0 0 0-3.924.218l.57.822a2.76 2.76 0 0 1 2.88-.16zm2.512 1.07c.27 0 .487.22.486.489l1 .006a1.485 1.485 0 0 0-1.485-1.494zm-2.234-1a.6.6 0 0 1-.278-.07l-.475.88c.232.125.49.19.753.19zm7.076 2.172a1.32 1.32 0 0 0 .44-1.46l-.948.317a.32.32 0 0 1-.107.354zm-4.356-.683a.485.485 0 0 1-.486.482v1c.817 0 1.48-.66 1.486-1.476zM10.463 15a2.5 2.5 0 0 0 1.536-.528l-.614-.789a1.5 1.5 0 0 1-.922.317z"/><path stroke="currentColor" d="M1.5 11a.5.5 0 0 1 .5-.5h1a.5.5 0 0 1 .5.5v3a.5.5 0 0 1-.5.5H2a.5.5 0 0 1-.5-.5z"/><path stroke="currentColor" stroke-linecap="round" d="M5.5 8.5v-1a1 1 0 0 1 1-1h3a1 1 0 0 1 1 1v1"/><circle cx="8" cy="3" r="1.5" stroke="currentColor"/></svg>
