<svg xmlns="http://www.w3.org/2000/svg" fill="none" viewBox="0 0 24 24" width="1em" height="1em"><path fill="currentColor" d="M5.5 21.5H5v.5h.5v-.5Zm10.19 0v.5-.5Zm1.392-.564-.348-.359.348.36Zm4.516-4.375.348.36-.348-.36ZM5.5 16.171l-.328-.377-.172.15v.228h.5Zm9.89 2.513.103.49-.103-.49Zm-3.993.327a.5.5 0 0 0 .206.978l-.206-.978Zm-.315-2.81-.29.408.29-.407Zm-.387-.276.29-.407-.29.407Zm9.788-.815.258.429-.258-.43Zm1.357.526-.48.143.48-.143ZM5.5 22h10.19v-1H5.5v1Zm11.93-.704 4.516-4.376-.696-.718-4.516 4.375.696.718ZM6 21.5v-5.328H5V21.5h1Zm6.013-4.5h3.15v-1h-3.15v1Zm3.275 1.195-3.89.816.205.978 3.89-.816-.205-.978Zm-3.915-2.4-.388-.277-.58.814.387.277.581-.814Zm8.853-1.114-3.983 2.39.514.858 3.984-2.39-.515-.858Zm2.093.811a1.42 1.42 0 0 0-2.093-.81l.515.857a.42.42 0 0 1 .62.24l.958-.287Zm-11.334.026a4.7 4.7 0 0 0-5.813.276l.656.755a3.7 3.7 0 0 1 4.576-.217l.581-.814ZM15.164 17c.333 0 .604.27.604.604h1c0-.886-.718-1.604-1.604-1.604v1Zm-3.15-1a1.1 1.1 0 0 1-.64-.205l-.582.814c.356.254.783.391 1.221.391v-1Zm9.932.92a1.42 1.42 0 0 0 .373-1.428l-.958.287a.42.42 0 0 1-.11.423l.695.718Zm-6.178.684c0 .285-.2.532-.48.59l.205.98a1.604 1.604 0 0 0 1.275-1.57h-1ZM15.69 22a2.5 2.5 0 0 0 1.74-.704l-.696-.719A1.5 1.5 0 0 1 15.69 21v1Z"/><path stroke="currentColor" d="M2.5 16a.5.5 0 0 1 .5-.5h2a.5.5 0 0 1 .5.5v5a.5.5 0 0 1-.5.5H3a.5.5 0 0 1-.5-.5v-5Z"/><path stroke="currentColor" stroke-linecap="round" d="M8 12.5v-1a2 2 0 0 1 2-2h4a2 2 0 0 1 2 2v1"/><circle cx="12.182" cy="4.909" r="2.409" stroke="currentColor"/></svg>
