<svg xmlns="http://www.w3.org/2000/svg" fill="none" viewBox="0 0 32 32" width="1em" height="1em"><path fill="currentColor" d="M6.5 28.5H6v.5h.5v-.5Zm14.545-.43-.31-.393.31.393Zm8.405-6.636-.31-.392.31.392ZM6.5 21.111l-.258-.428-.242.146v.282h.5Zm13.894 3.073-.082-.493.082.493Zm-4.976.323a.5.5 0 1 0 .164.986l-.164-.986Zm-.319-3.138.21-.453-.21.453Zm-1.392-.647.21-.453-.21.453Zm14.58-1.107-.226-.446.226.446Zm1.543.705.485-.122-.485.122ZM6.5 29h13.306v-1H6.5v1Zm14.855-.538 8.404-6.635-.62-.785-8.404 6.635.62.785ZM7 28.5v-7.389H6V28.5h1Zm8.942-6.444h4.235v-1h-4.235v1Zm4.37 1.635-4.894.816.164.986 4.894-.816-.164-.986Zm-5.002-2.775-1.393-.647-.42.907 1.392.647.42-.907Zm12.75-1.747-6.786 3.44.452.893 6.787-3.44-.452-.893Zm2.255 1.03a1.585 1.585 0 0 0-2.254-1.03l.452.892a.585.585 0 0 1 .832.38l.97-.242Zm-16.398.07a8.184 8.184 0 0 0-7.675.414l.516.856a7.184 7.184 0 0 1 6.738-.363l.421-.907Zm6.26 1.787c.454 0 .823.368.823.823h1a1.823 1.823 0 0 0-1.823-1.823v1Zm-4.235-1a1.5 1.5 0 0 1-.632-.14l-.421.907c.33.153.689.233 1.053.233v-1Zm13.817.77c.49-.385.707-1.023.556-1.628l-.97.243a.585.585 0 0 1-.205.601l.62.785ZM21 22.88a.823.823 0 0 1-.688.812l.164.986A1.823 1.823 0 0 0 22 22.88h-1ZM19.806 29a2.5 2.5 0 0 0 1.549-.538l-.62-.785a1.5 1.5 0 0 1-.93.323v1Z"/><path stroke="currentColor" d="M2.5 21a.5.5 0 0 1 .5-.5h3a.5.5 0 0 1 .5.5v7a.5.5 0 0 1-.5.5H3a.5.5 0 0 1-.5-.5v-7Z"/><path stroke="currentColor" stroke-linecap="round" d="M10.5 17.5v-2a4 4 0 0 1 4-4h3a4 4 0 0 1 4 4v2"/><circle cx="16" cy="6" r="3.5" stroke="currentColor"/></svg>
