<svg viewBox="0 0 32 32" fill="none" xmlns="http://www.w3.org/2000/svg" width="1em" height="1em"><path d="M29.5 11V25C29.5 25.8284 28.8284 26.5 28 26.5H4C3.17157 26.5 2.5 25.8284 2.5 25V11C2.5 10.1716 3.17157 9.5 4 9.5H28C28.8284 9.5 29.5 10.1716 29.5 11Z" stroke="currentColor" stroke-linecap="round"/><path d="M20.5 9.5V7.5C20.5 6.39543 19.6046 5.5 18.5 5.5H13.5C12.3954 5.5 11.5 6.39543 11.5 7.5L11.5 9.5" stroke="currentColor" stroke-linecap="round"/><path d="M2.5 14.5H13.5" stroke="currentColor" stroke-linecap="round"/><path d="M18.5 14.5H29.5" stroke="currentColor" stroke-linecap="round"/><rect x="13.5" y="13.5" width="5" height="2" rx="1" stroke="currentColor" stroke-linecap="round"/></svg>
