<svg viewBox="0 0 24 24" fill="none" xmlns="http://www.w3.org/2000/svg" width="1em" height="1em"><path d="M21.5 9V18C21.5 18.8284 20.8284 19.5 20 19.5H4C3.17157 19.5 2.5 18.8284 2.5 18V9C2.5 8.17157 3.17157 7.5 4 7.5H20C20.8284 7.5 21.5 8.17157 21.5 9Z" stroke="currentColor" stroke-linecap="round"/><path d="M15.5001 7.5V6.5C15.5001 5.39543 14.6047 4.5 13.5001 4.5H10.5C9.39543 4.5 8.5 5.39543 8.5 6.5V7.5" stroke="currentColor" stroke-linecap="round"/><path d="M2.5 11.5H10.5" stroke="currentColor" stroke-linecap="round"/><path d="M13.5 11.5H21.5" stroke="currentColor" stroke-linecap="round"/><rect x="10.5" y="10.5" width="3" height="2" rx="1" stroke="currentColor" stroke-linecap="round"/></svg>
