<svg viewBox="0 0 24 24" fill="none" xmlns="http://www.w3.org/2000/svg" width="1em" height="1em"><path d="M21.5 8.99994V17.9999C21.5 18.8284 20.8284 19.4999 20 19.4999H4C3.17157 19.4999 2.5 18.8284 2.5 17.9999V8.99994C2.5 8.17151 3.17157 7.49994 4 7.49994H20C20.8284 7.49994 21.5 8.17151 21.5 8.99994Z" stroke="currentColor" stroke-linecap="round"/><path d="M15.5 7.49976V6.49976C15.5 5.39519 14.6046 4.49976 13.5 4.49976H10.4999C9.39531 4.49976 8.49988 5.39519 8.49988 6.49976V7.49976" stroke="currentColor" stroke-linecap="round"/><path d="M2.5 11.4998H10.5" stroke="currentColor" stroke-linecap="round"/><path d="M13.5 11.4998H21.5" stroke="currentColor" stroke-linecap="round"/><rect x="10.5" y="10.4999" width="3" height="2" rx="1" stroke="currentColor" stroke-linecap="round"/></svg>
