<svg viewBox="0 0 32 32" fill="none" xmlns="http://www.w3.org/2000/svg" width="1em" height="1em"><path d="M7.5 25.5V24.5C7.5 21.7386 9.73858 19.5 12.5 19.5H19.5C22.2614 19.5 24.5 21.7386 24.5 24.5V25.5" stroke="currentColor" stroke-linecap="round"/><path d="M16 14.5C17.933 14.5 19.5 12.933 19.5 11C19.5 9.067 17.933 7.5 16 7.5C14.067 7.5 12.5 9.067 12.5 11C12.5 12.933 14.067 14.5 16 14.5Z" stroke="currentColor" stroke-linecap="round" stroke-linejoin="round"/><path d="M5 18.5C6.38071 18.5 7.5 17.3807 7.5 16C7.5 14.6193 6.38071 13.5 5 13.5C3.61929 13.5 2.5 14.6193 2.5 16C2.5 17.3807 3.61929 18.5 5 18.5Z" stroke="currentColor" stroke-linecap="round" stroke-linejoin="round"/><path d="M27 18.5C28.3807 18.5 29.5 17.3807 29.5 16C29.5 14.6193 28.3807 13.5 27 13.5C25.6193 13.5 24.5 14.6193 24.5 16C24.5 17.3807 25.6193 18.5 27 18.5Z" stroke="currentColor" stroke-linecap="round" stroke-linejoin="round"/></svg>
