<svg viewBox="0 0 24 24" fill="none" xmlns="http://www.w3.org/2000/svg" width="1em" height="1em"><path d="M5.5 19.5391V18.5C5.5 16.2909 7.29086 14.5 9.5 14.5L14.5 14.5C16.7091 14.5 18.5 16.2909 18.5 18.5V19.5391" stroke="currentColor" stroke-linecap="round"/><path d="M12 10.5C13.3807 10.5 14.5 9.38071 14.5 8C14.5 6.61929 13.3807 5.5 12 5.5C10.6193 5.5 9.5 6.61929 9.5 8C9.5 9.38071 10.6193 10.5 12 10.5Z" stroke="currentColor" stroke-linecap="round" stroke-linejoin="round"/><path d="M4.5 13.5C5.60457 13.5 6.5 12.6046 6.5 11.5C6.5 10.3954 5.60457 9.5 4.5 9.5C3.39543 9.5 2.5 10.3954 2.5 11.5C2.5 12.6046 3.39543 13.5 4.5 13.5Z" stroke="currentColor" stroke-linecap="round" stroke-linejoin="round"/><path d="M19.5 13.5C20.6046 13.5 21.5 12.6046 21.5 11.5C21.5 10.3954 20.6046 9.5 19.5 9.5C18.3954 9.5 17.5 10.3954 17.5 11.5C17.5 12.6046 18.3954 13.5 19.5 13.5Z" stroke="currentColor" stroke-linecap="round" stroke-linejoin="round"/></svg>
