<svg viewBox="0 0 16 16" fill="none" xmlns="http://www.w3.org/2000/svg" width="1em" height="1em"><path d="M3.5 12.5L3.5 11.5C3.5 9.84315 4.84315 8.5 6.5 8.5H9.5C11.1569 8.5 12.5 9.84315 12.5 11.5V12.5" stroke="currentColor" stroke-linecap="round"/><path d="M8 6.5C8.82843 6.5 9.5 5.82843 9.5 5C9.5 4.17157 8.82843 3.5 8 3.5C7.17157 3.5 6.5 4.17157 6.5 5C6.5 5.82843 7.17157 6.5 8 6.5Z" stroke="currentColor" stroke-linecap="round" stroke-linejoin="round"/><path d="M2.5 7.5C3.05228 7.5 3.5 7.05228 3.5 6.5C3.5 5.94772 3.05228 5.5 2.5 5.5C1.94772 5.5 1.5 5.94772 1.5 6.5C1.5 7.05228 1.94772 7.5 2.5 7.5Z" stroke="currentColor" stroke-linecap="round" stroke-linejoin="round"/><path d="M13.5 7.5C14.0523 7.5 14.5 7.05228 14.5 6.5C14.5 5.94772 14.0523 5.5 13.5 5.5C12.9477 5.5 12.5 5.94772 12.5 6.5C12.5 7.05228 12.9477 7.5 13.5 7.5Z" stroke="currentColor" stroke-linecap="round" stroke-linejoin="round"/></svg>
