<svg xmlns="http://www.w3.org/2000/svg" fill="none" viewBox="0 0 24 24" width="1em" height="1em"><path stroke="currentColor" stroke-linecap="round" d="M19.5 6.5v-2a2 2 0 0 0-2-2h-11a2 2 0 0 0-2 2v15a2 2 0 0 0 2 2h11a2 2 0 0 0 2-2v-1"/><circle cx="17" cy="12" r="2.5" stroke="currentColor"/><path stroke="currentColor" stroke-linecap="round" stroke-linejoin="round" d="M20.5 15.5 19 14"/><path stroke="currentColor" stroke-linecap="round" d="M11.5 17.5h5"/><circle cx="8.5" cy="17.5" r="1" stroke="currentColor"/><path stroke="currentColor" stroke-linecap="round" d="M11.5 12h3"/><path stroke="currentColor" d="M9.5 12a1 1 0 1 1-2 0 1 1 0 0 1 2 0Z"/><circle cx="8.5" cy="6.5" r="1" stroke="currentColor"/><path stroke="currentColor" stroke-linecap="round" d="M11.5 6.5h5"/></svg>
