<svg xmlns="http://www.w3.org/2000/svg" fill="none" viewBox="0 0 32 32" width="1em" height="1em"><path stroke="currentColor" stroke-linecap="round" d="M23.5 10.5v-3a2 2 0 0 0-2-2h-15a2 2 0 0 0-2 2v18a2 2 0 0 0 2 2h15a2 2 0 0 0 2-2v-2"/><circle cx="21.5" cy="16.5" r="5" stroke="currentColor"/><path stroke="currentColor" stroke-linecap="round" stroke-linejoin="round" d="m29.5 24.504-4.243-4.242"/><path stroke="currentColor" stroke-linecap="round" d="M11.5 23.5h9"/><circle cx="8.5" cy="23.5" r="1" stroke="currentColor"/><path stroke="currentColor" stroke-linecap="round" d="M11.5 18.5h3"/><circle cx="8.5" cy="18.5" r="1" stroke="currentColor"/><path stroke="currentColor" stroke-linecap="round" d="M11.5 13.5h4"/><circle cx="8.5" cy="13.5" r="1" stroke="currentColor"/><rect width="13" height="2" x="7.5" y="7.5" stroke="currentColor" rx="1"/></svg>
