<svg xmlns="http://www.w3.org/2000/svg" fill="none" viewBox="0 0 16 16" width="1em" height="1em"><path stroke="currentColor" stroke-linecap="round" d="M13.5 4.326V3.5a2 2 0 0 0-2-2h-6a2 2 0 0 0-2 2v9a2 2 0 0 0 2 2h6a2 2 0 0 0 2-2v-1"/><circle cx="11.5" cy="7.5" r="2" stroke="currentColor"/><path fill="currentColor" d="M14.146 10.852a.5.5 0 0 0 .708-.707l-.708.707Zm-.79-2.206-.354-.353-.707.707.353.354.707-.708Zm1.498 1.499-1.499-1.499-.707.708 1.498 1.498.708-.707Z"/><path stroke="currentColor" stroke-linecap="round" d="M5.5 11.5h5m-5-7h3M5.5 8h4"/></svg>
