<svg xmlns="http://www.w3.org/2000/svg" fill="none" viewBox="0 0 32 32" width="1em" height="1em"><rect width="27" height="21" x="2.5" y="5.5" stroke="currentColor" rx="1.5"/><path stroke="currentColor" d="M3 9.5h26"/><circle cx="4.5" cy="7.5" r=".5" fill="currentColor"/><circle cx="6.5" cy="7.5" r=".5" fill="currentColor"/><circle cx="8.5" cy="7.5" r=".5" fill="currentColor"/><rect width="7" height="5" x="5.5" y="15.5" stroke="currentColor" rx="1.5"/><rect width="9" height="3" x="17.5" y="11.5" stroke="currentColor" rx="1.5"/><rect width="9" height="3" x="17.5" y="16.5" stroke="currentColor" rx="1.5"/><rect width="9" height="3" x="17.5" y="21.5" stroke="currentColor" rx="1.5"/><path stroke="currentColor" d="M12 18h5.5m0-5h-2a1 1 0 0 0-1 1v8a1 1 0 0 0 1 1h2"/></svg>
