<svg xmlns="http://www.w3.org/2000/svg" fill="none" viewBox="0 0 24 24" width="1em" height="1em"><mask id="iconsPuzzleMissingSize24Px__a" fill="#fff"><path fill-rule="evenodd" d="M7 22a1 1 0 0 1-1-1v-2h-.5a1.5 1.5 0 0 1 0-3H6v-2a1 1 0 0 1 1-1h7v4h-1.5a.5.5 0 0 0 0 1H14v4z" clip-rule="evenodd"/></mask><path fill="currentColor" d="M6 19h1a1 1 0 0 0-1-1zm-.5-3v-1zm.5 0v1a1 1 0 0 0 1-1zm0-2h1zm8-1h1a1 1 0 0 0-1-1zm0 4v1a1 1 0 0 0 1-1zm-1 1v1zm1 0h1a1 1 0 0 0-1-1zm0 4v1a1 1 0 0 0 1-1zm-9-1a2 2 0 0 0 2 2v-2zm0-2v2h2v-2zm1-1h-.5v2H6zm-.5 0a.5.5 0 0 1-.5-.5H3A2.5 2.5 0 0 0 5.5 20zm-.5-.5a.5.5 0 0 1 .5-.5v-2A2.5 2.5 0 0 0 3 17.5zm.5-.5H6v-2h-.5zM5 14v2h2v-2zm2-2a2 2 0 0 0-2 2h2zm7 0H7v2h7zm1 5v-4h-2v4zm-2 1h1v-2h-1zm-.5 0h.5v-2h-.5zm.5-.5a.5.5 0 0 1-.5.5v-2a1.5 1.5 0 0 0-1.5 1.5zm-.5-.5a.5.5 0 0 1 .5.5h-2a1.5 1.5 0 0 0 1.5 1.5zm0 0v2zm.5 0h-.5v2h.5zm1 0h-1v2h1zm1 5v-4h-2v4zm-8 1h7v-2H7z" mask="url(#iconsPuzzleMissingSize24Px__a)"/><mask id="iconsPuzzleMissingSize24Px__b" fill="#fff"><path fill-rule="evenodd" d="M13 7a1 1 0 0 1 1-1h1.5a.5.5 0 0 0 .5-.5v-1a1.5 1.5 0 0 1 3 0v1a.5.5 0 0 0 .5.5H21a1 1 0 0 1 1 1v6.5a.5.5 0 0 1-.5.5h-3a.5.5 0 0 1-.5-.5v-1a.5.5 0 0 0-1 0v1a.5.5 0 0 1-.5.5H14a1 1 0 0 1-1-1z" clip-rule="evenodd"/></mask><path fill="currentColor" d="M16 4.5h-1zm3 0h1zM21 6v1zm1 1h-1zm-4 6h-1zm-1-.5h-1zm0 0h1zm0 .5h-1zm2-7.5h1zm-2 8h1zm-1-8h1zM14 5a2 2 0 0 0-2 2h2zm1.5 0H14v2h1.5zm1.5.5v-1h-2v1zm0-1a.5.5 0 0 1 .5-.5V2A2.5 2.5 0 0 0 15 4.5zm.5-.5a.5.5 0 0 1 .5.5h2A2.5 2.5 0 0 0 17.5 2zm.5.5v1h2v-1zm3 .5h-1.5v2H21zm2 2a2 2 0 0 0-2-2v2zm0 6.5V7h-2v6.5zM18.5 15h3v-2h-3zM17 13v.5h2V13zm0-.5v.5h2v-.5zm.5.5a.5.5 0 0 1-.5-.5h2a1.5 1.5 0 0 0-1.5-1.5zm.5-.5a.5.5 0 0 1-.5.5v-2a1.5 1.5 0 0 0-1.5 1.5zm0 0h-2zm0 .5v-.5h-2v.5zm0 .5V13h-2v.5zM14 15h2.5v-2H14zm-2-2a2 2 0 0 0 2 2v-2zm0-6v6h2V7zm6.5 6a.5.5 0 0 1 .5.5h-2a1.5 1.5 0 0 0 1.5 1.5zm2.5.5a.5.5 0 0 1 .5-.5v2a1.5 1.5 0 0 0 1.5-1.5zm-3-8A1.5 1.5 0 0 0 19.5 7V5a.5.5 0 0 1 .5.5zm-2 8a.5.5 0 0 1 .5-.5v2a1.5 1.5 0 0 0 1.5-1.5zM15.5 7A1.5 1.5 0 0 0 17 5.5h-2a.5.5 0 0 1 .5-.5z" mask="url(#iconsPuzzleMissingSize24Px__b)"/><mask id="iconsPuzzleMissingSize24Px__c" fill="#fff"/><path fill="currentColor" d="M21 21.5V21zm-7.25 0v.5zM21 13.75V21h1v-7.25zM21 21h-7.25v1H21zm-7 .25V19h-1v2.25zM14 16v-2.25h-1V16zm5.893-2h1.357v-1h-1.357zm-6.143 0h1.857v-1H13.75zM21 21v1a1 1 0 0 0 1-1zm-7-7.25a.25.25 0 0 1-.25.25v-1a.75.75 0 0 0-.75.75zM13.75 21a.25.25 0 0 1 .25.25h-1c0 .414.336.75.75.75zM22 13.75a.75.75 0 0 0-.75-.75v1a.25.25 0 0 1-.25-.25z" mask="url(#iconsPuzzleMissingSize24Px__c)"/><mask id="iconsPuzzleMissingSize24Px__d" fill="#fff"><path fill-rule="evenodd" d="M2 3a1 1 0 0 1 1-1h6a1 1 0 0 1 1 1v1.5h.5a1.5 1.5 0 0 1 0 3H10V9a1 1 0 0 1-1 1H7.5v.5a1.5 1.5 0 0 1-3 0V10H3a1 1 0 0 1-1-1z" clip-rule="evenodd"/></mask><path fill="currentColor" d="M10 4.5H9a1 1 0 0 0 1 1zm.5 0v1zm-.5 3v-1a1 1 0 0 0-1 1zM7.5 10V9a1 1 0 0 0-1 1zm-3 0h1a1 1 0 0 0-1-1zM3 1a2 2 0 0 0-2 2h2zm6 0H3v2h6zm2 2a2 2 0 0 0-2-2v2zm0 1.5V3H9v1.5zm-1 1h.5v-2H10zm.5 0a.5.5 0 0 1 .5.5h2a2.5 2.5 0 0 0-2.5-2.5zm.5.5a.5.5 0 0 1-.5.5v2A2.5 2.5 0 0 0 13 6zm-.5.5H10v2h.5zM11 9V7.5H9V9zm-2 2a2 2 0 0 0 2-2H9zm-1.5 0H9V9H7.5zm1-.5V10h-2v.5zM6 13a2.5 2.5 0 0 0 2.5-2.5h-2a.5.5 0 0 1-.5.5zm-2.5-2.5A2.5 2.5 0 0 0 6 13v-2a.5.5 0 0 1-.5-.5zm0-.5v.5h2V10zM3 11h1.5V9H3zM1 9a2 2 0 0 0 2 2V9zm0-6v6h2V3z" mask="url(#iconsPuzzleMissingSize24Px__d)"/></svg>
