<svg xmlns="http://www.w3.org/2000/svg" fill="none" viewBox="0 0 32 32" width="1em" height="1em"><mask id="iconsPuzzleMissingSize32Px__a" fill="#fff"><path fill-rule="evenodd" d="M9 29a1 1 0 0 1-1-1v-2.5a.5.5 0 0 0-.5-.5H7a2 2 0 1 1 0-4h.5a.5.5 0 0 0 .5-.5V18a1 1 0 0 1 1-1h9a1 1 0 0 1 1 1v3a1 1 0 0 1-1 1h-1a1 1 0 1 0 0 2h1a1 1 0 0 1 1 1v3a1 1 0 0 1-1 1H9Z" clip-rule="evenodd"/></mask><path fill="currentColor" d="M8 28h1-1Zm-1-7v-1 1Zm1-3H7h1Zm11 0h1-1Zm0 3h-1 1Zm-1 3v1-1Zm1 1h-1 1Zm0 3h1-1ZM7 28a2 2 0 0 0 2 2v-2H7Zm0-2.5V28h2v-2.5H7Zm.5-1.5H7v2h.5v-2ZM7 24a1 1 0 0 1-1-1H4a3 3 0 0 0 3 3v-2Zm-1-1a1 1 0 0 1 1-1v-2a3 3 0 0 0-3 3h2Zm1-1h.5v-2H7v2Zm0-4v2.5h2V18H7Zm2-2a2 2 0 0 0-2 2h2v-2Zm9 0H9v2h9v-2Zm2 2a2 2 0 0 0-2-2v2h2Zm0 3v-3h-2v3h2Zm-2 2a2 2 0 0 0 2-2h-2v2Zm-1 0h1v-2h-1v2Zm0 0v-2a2 2 0 0 0-2 2h2Zm0 0h-2a2 2 0 0 0 2 2v-2Zm1 0h-1v2h1v-2Zm2 2a2 2 0 0 0-2-2v2h2Zm0 3v-3h-2v3h2Zm-2 2a2 2 0 0 0 2-2h-2v2Zm-9 0h9v-2H9v2Zm-1.5-8A1.5 1.5 0 0 0 9 20.5H7a.5.5 0 0 1 .5-.5v2ZM9 25.5A1.5 1.5 0 0 0 7.5 24v2a.5.5 0 0 1-.5-.5h2Z" mask="url(#iconsPuzzleMissingSize32Px__a)"/><mask id="iconsPuzzleMissingSize32Px__b" fill="#fff"><path fill-rule="evenodd" d="M18 7a1 1 0 0 1 1-1h3V5a2 2 0 1 1 4 0v1h3a1 1 0 0 1 1 1v10a1 1 0 0 1-1 1h-3a1 1 0 0 1-1-1v-1a1 1 0 1 0-2 0v1a1 1 0 0 1-1 1h-3a1 1 0 0 1-1-1V7Z" clip-rule="evenodd"/></mask><path fill="currentColor" d="M19 6v1-1Zm-1 1h-1 1Zm4-1v1a1 1 0 0 0 1-1h-1Zm0-1h1-1Zm4 1h-1a1 1 0 0 0 1 1V6Zm3 0V5v1Zm1 1h1-1Zm0 10h-1 1Zm-1 1v1-1Zm-3 0v-1 1Zm-1-1h-1 1Zm0-1h1-1Zm-2 0h-1 1Zm0 1h1-1Zm-1 1v-1 1Zm-3 0v1-1Zm-1-1h1-1Zm1-12a2 2 0 0 0-2 2h2V5Zm3 0h-3v2h3V5Zm1 1V5h-2v1h2Zm0-1a1 1 0 0 1 1-1V2a3 3 0 0 0-3 3h2Zm1-1a1 1 0 0 1 1 1h2a3 3 0 0 0-3-3v2Zm1 1v1h2V5h-2Zm4 0h-3v2h3V5Zm2 2a2 2 0 0 0-2-2v2h2Zm0 10V7h-2v10h2Zm-2 2a2 2 0 0 0 2-2h-2v2Zm-3 0h3v-2h-3v2Zm-2-2a2 2 0 0 0 2 2v-2h-2Zm0-1v1h2v-1h-2Zm0 0h2a2 2 0 0 0-2-2v2Zm0 0v-2a2 2 0 0 0-2 2h2Zm0 1v-1h-2v1h2Zm-2 2a2 2 0 0 0 2-2h-2v2Zm-3 0h3v-2h-3v2Zm-2-2a2 2 0 0 0 2 2v-2h-2Zm0-10v10h2V7h-2Z" mask="url(#iconsPuzzleMissingSize32Px__b)"/><mask id="iconsPuzzleMissingSize32Px__c" fill="#fff"/><path fill="currentColor" d="M29.5 17.5h.5V17h-.5v.5Zm0 10H29h.5Zm-11 1H18v.5h.5v-.5Zm0-11V17H18v.5h.5Zm10.5 0v10h1v-10h-1ZM28.5 28h-10v1h10v-1Zm-9.5.5V25h-1v3.5h1Zm0-7.5v-3.5h-1V21h1Zm8.496-3H29.5v-1h-2.004v1ZM18.5 18h3.652v-1H18.5v1ZM29 27.5a.5.5 0 0 1-.5.5v1a1.5 1.5 0 0 0 1.5-1.5h-1Z" mask="url(#iconsPuzzleMissingSize32Px__c)"/><mask id="iconsPuzzleMissingSize32Px__d" fill="#fff"><path fill-rule="evenodd" d="M2 3a1 1 0 0 1 1-1h9a1 1 0 0 1 1 1v2.5h1a2 2 0 1 1 0 4h-1V12a1 1 0 0 1-1 1H9.5v1a2 2 0 1 1-4 0v-1H3a1 1 0 0 1-1-1V3Z" clip-rule="evenodd"/></mask><path fill="currentColor" d="M13 5.5h-1a1 1 0 0 0 1 1v-1Zm0 4v-1a1 1 0 0 0-1 1h1ZM9.5 13v-1a1 1 0 0 0-1 1h1Zm-4 0h1a1 1 0 0 0-1-1v1ZM3 1a2 2 0 0 0-2 2h2V1Zm9 0H3v2h9V1Zm2 2a2 2 0 0 0-2-2v2h2Zm0 2.5V3h-2v2.5h2Zm-1 1h1v-2h-1v2Zm1 0a1 1 0 0 1 1 1h2a3 3 0 0 0-3-3v2Zm1 1a1 1 0 0 1-1 1v2a3 3 0 0 0 3-3h-2Zm-1 1h-1v2h1v-2Zm0 3.5V9.5h-2V12h2Zm-2 2a2 2 0 0 0 2-2h-2v2Zm-2.5 0H12v-2H9.5v2Zm1 0v-1h-2v1h2Zm-3 3a3 3 0 0 0 3-3h-2a1 1 0 0 1-1 1v2Zm-3-3a3 3 0 0 0 3 3v-2a1 1 0 0 1-1-1h-2Zm0-1v1h2v-1h-2ZM3 14h2.5v-2H3v2Zm-2-2a2 2 0 0 0 2 2v-2H1Zm0-9v9h2V3H1Z" mask="url(#iconsPuzzleMissingSize32Px__d)"/></svg>
