<svg xmlns="http://www.w3.org/2000/svg" fill="none" viewBox="0 0 32 32" width="1em" height="1em"><mask id="iconsPuzzleMissingSize32Px__a" fill="#fff"><path fill-rule="evenodd" d="M9 29a1 1 0 0 1-1-1v-2.5a.5.5 0 0 0-.5-.5H7a2 2 0 1 1 0-4h.5a.5.5 0 0 0 .5-.5V18a1 1 0 0 1 1-1h9a1 1 0 0 1 1 1v3a1 1 0 0 1-1 1h-1a1 1 0 1 0 0 2h1a1 1 0 0 1 1 1v3a1 1 0 0 1-1 1z" clip-rule="evenodd"/></mask><path fill="currentColor" d="M8 28h1zm-1-7v-1zm1-3H7zm11 0h1zm0 3h-1zm-1 3v1zm1 1h-1zm0 3h1zM7 28a2 2 0 0 0 2 2v-2zm0-2.5V28h2v-2.5zm.5-1.5H7v2h.5zM7 24a1 1 0 0 1-1-1H4a3 3 0 0 0 3 3zm-1-1a1 1 0 0 1 1-1v-2a3 3 0 0 0-3 3zm1-1h.5v-2H7zm0-4v2.5h2V18zm2-2a2 2 0 0 0-2 2h2zm9 0H9v2h9zm2 2a2 2 0 0 0-2-2v2zm0 3v-3h-2v3zm-2 2a2 2 0 0 0 2-2h-2zm-1 0h1v-2h-1zm0 0v-2a2 2 0 0 0-2 2zm0 0h-2a2 2 0 0 0 2 2zm1 0h-1v2h1zm2 2a2 2 0 0 0-2-2v2zm0 3v-3h-2v3zm-2 2a2 2 0 0 0 2-2h-2zm-9 0h9v-2H9zm-1.5-8A1.5 1.5 0 0 0 9 20.5H7a.5.5 0 0 1 .5-.5zM9 25.5A1.5 1.5 0 0 0 7.5 24v2a.5.5 0 0 1-.5-.5z" mask="url(#iconsPuzzleMissingSize32Px__a)"/><mask id="iconsPuzzleMissingSize32Px__b" fill="#fff"><path fill-rule="evenodd" d="M18 7a1 1 0 0 1 1-1h3V5a2 2 0 1 1 4 0v1h3a1 1 0 0 1 1 1v10a1 1 0 0 1-1 1h-3a1 1 0 0 1-1-1v-1a1 1 0 1 0-2 0v1a1 1 0 0 1-1 1h-3a1 1 0 0 1-1-1z" clip-rule="evenodd"/></mask><path fill="currentColor" d="M19 6v1zm-1 1h-1zm4-1v1a1 1 0 0 0 1-1zm0-1h1zm4 1h-1a1 1 0 0 0 1 1zm3 0V5zm1 1h1zm0 10h-1zm-1 1v1zm-3 0v-1zm-1-1h-1zm0-1h1zm-2 0h-1zm0 1h1zm-1 1v-1zm-3 0v1zm-1-1h1zm1-12a2 2 0 0 0-2 2h2zm3 0h-3v2h3zm1 1V5h-2v1zm0-1a1 1 0 0 1 1-1V2a3 3 0 0 0-3 3zm1-1a1 1 0 0 1 1 1h2a3 3 0 0 0-3-3zm1 1v1h2V5zm4 0h-3v2h3zm2 2a2 2 0 0 0-2-2v2zm0 10V7h-2v10zm-2 2a2 2 0 0 0 2-2h-2zm-3 0h3v-2h-3zm-2-2a2 2 0 0 0 2 2v-2zm0-1v1h2v-1zm0 0h2a2 2 0 0 0-2-2zm0 0v-2a2 2 0 0 0-2 2zm0 1v-1h-2v1zm-2 2a2 2 0 0 0 2-2h-2zm-3 0h3v-2h-3zm-2-2a2 2 0 0 0 2 2v-2zm0-10v10h2V7z" mask="url(#iconsPuzzleMissingSize32Px__b)"/><mask id="iconsPuzzleMissingSize32Px__c" fill="#fff"/><path fill="currentColor" d="M29.5 17.5h.5V17h-.5zm0 10H29zm-11 1H18v.5h.5zm0-11V17H18v.5zm10.5 0v10h1v-10zM28.5 28h-10v1h10zm-9.5.5V25h-1v3.5zm0-7.5v-3.5h-1V21zm8.496-3H29.5v-1h-2.004zM18.5 18h3.652v-1H18.5zM29 27.5a.5.5 0 0 1-.5.5v1a1.5 1.5 0 0 0 1.5-1.5z" mask="url(#iconsPuzzleMissingSize32Px__c)"/><mask id="iconsPuzzleMissingSize32Px__d" fill="#fff"><path fill-rule="evenodd" d="M2 3a1 1 0 0 1 1-1h9a1 1 0 0 1 1 1v2.5h1a2 2 0 1 1 0 4h-1V12a1 1 0 0 1-1 1H9.5v1a2 2 0 1 1-4 0v-1H3a1 1 0 0 1-1-1z" clip-rule="evenodd"/></mask><path fill="currentColor" d="M13 5.5h-1a1 1 0 0 0 1 1zm0 4v-1a1 1 0 0 0-1 1zM9.5 13v-1a1 1 0 0 0-1 1zm-4 0h1a1 1 0 0 0-1-1zM3 1a2 2 0 0 0-2 2h2zm9 0H3v2h9zm2 2a2 2 0 0 0-2-2v2zm0 2.5V3h-2v2.5zm-1 1h1v-2h-1zm1 0a1 1 0 0 1 1 1h2a3 3 0 0 0-3-3zm1 1a1 1 0 0 1-1 1v2a3 3 0 0 0 3-3zm-1 1h-1v2h1zm0 3.5V9.5h-2V12zm-2 2a2 2 0 0 0 2-2h-2zm-2.5 0H12v-2H9.5zm1 0v-1h-2v1zm-3 3a3 3 0 0 0 3-3h-2a1 1 0 0 1-1 1zm-3-3a3 3 0 0 0 3 3v-2a1 1 0 0 1-1-1zm0-1v1h2v-1zM3 14h2.5v-2H3zm-2-2a2 2 0 0 0 2 2v-2zm0-9v9h2V3z" mask="url(#iconsPuzzleMissingSize32Px__d)"/></svg>
