<svg xmlns="http://www.w3.org/2000/svg" fill="none" viewBox="0 0 16 16" width="1em" height="1em"><mask id="iconsPuzzleMissingSize16Px__a" fill="#fff"><path fill-rule="evenodd" d="M11 3a1 1 0 0 0-1 1v3h-.5a1.5 1.5 0 1 0 0 3h.5v3a1 1 0 0 0 1 1h3a1 1 0 0 0 1-1V4a1 1 0 0 0-1-1h-3Z" clip-rule="evenodd"/></mask><path fill="currentColor" d="M10 7v1a1 1 0 0 0 1-1h-1Zm0 3h1a1 1 0 0 0-1-1v1Zm1-6V2a2 2 0 0 0-2 2h2Zm0 3V4H9v3h2ZM9.5 8h.5V6h-.5v2Zm-.5.5a.5.5 0 0 1 .5-.5V6A2.5 2.5 0 0 0 7 8.5h2Zm.5.5a.5.5 0 0 1-.5-.5H7A2.5 2.5 0 0 0 9.5 11V9Zm.5 0h-.5v2h.5V9Zm1 4v-3H9v3h2Zm0 0H9a2 2 0 0 0 2 2v-2Zm3 0h-3v2h3v-2Zm0 0v2a2 2 0 0 0 2-2h-2Zm0-9v9h2V4h-2Zm0 0h2a2 2 0 0 0-2-2v2Zm-3 0h3V2h-3v2Z" mask="url(#iconsPuzzleMissingSize16Px__a)"/><mask id="iconsPuzzleMissingSize16Px__b" fill="#fff"><path fill-rule="evenodd" d="M5 3a1 1 0 0 1 1 1v3h.5a1.5 1.5 0 1 1 0 3H6v3a1 1 0 0 1-1 1H2a1 1 0 0 1-1-1V4a1 1 0 0 1 1-1h3Z" clip-rule="evenodd"/></mask><path fill="currentColor" d="M6 7v1a1 1 0 0 1-1-1h1Zm0 3H5a1 1 0 0 1 1-1v1ZM5 4V2a2 2 0 0 1 2 2H5Zm0 3V4h2v3H5Zm1.5 1H6V6h.5v2Zm.5.5a.5.5 0 0 0-.5-.5V6A2.5 2.5 0 0 1 9 8.5H7Zm-.5.5a.5.5 0 0 0 .5-.5h2A2.5 2.5 0 0 1 6.5 11V9ZM6 9h.5v2H6V9Zm-1 4v-3h2v3H5Zm0 0h2a2 2 0 0 1-2 2v-2Zm-3 0h3v2H2v-2Zm0 0v2a2 2 0 0 1-2-2h2Zm0-9v9H0V4h2Zm0 0H0a2 2 0 0 1 2-2v2Zm3 0H2V2h3v2Z" mask="url(#iconsPuzzleMissingSize16Px__b)"/></svg>
