<svg xmlns="http://www.w3.org/2000/svg" fill="none" viewBox="0 0 24 24" width="1em" height="1em"><mask id="iconsPuzzleMissingSize24Px__a" fill="#fff"><path fill-rule="evenodd" d="M7 22a1 1 0 0 1-1-1v-2h-.5a1.5 1.5 0 0 1 0-3H6v-2a1 1 0 0 1 1-1h7v4h-1.5a.5.5 0 0 0 0 1H14v4H7Z" clip-rule="evenodd"/></mask><path fill="currentColor" d="M6 19h1a1 1 0 0 0-1-1v1Zm-.5-3v-1 1Zm.5 0v1a1 1 0 0 0 1-1H6Zm0-2h1-1Zm8-1h1a1 1 0 0 0-1-1v1Zm0 4v1a1 1 0 0 0 1-1h-1Zm-1 1v1-1Zm1 0h1a1 1 0 0 0-1-1v1Zm0 4v1a1 1 0 0 0 1-1h-1Zm-9-1a2 2 0 0 0 2 2v-2H5Zm0-2v2h2v-2H5Zm1-1h-.5v2H6v-2Zm-.5 0a.5.5 0 0 1-.5-.5H3A2.5 2.5 0 0 0 5.5 20v-2Zm-.5-.5a.5.5 0 0 1 .5-.5v-2A2.5 2.5 0 0 0 3 17.5h2Zm.5-.5H6v-2h-.5v2ZM5 14v2h2v-2H5Zm2-2a2 2 0 0 0-2 2h2v-2Zm7 0H7v2h7v-2Zm1 5v-4h-2v4h2Zm-2 1h1v-2h-1v2Zm-.5 0h.5v-2h-.5v2Zm.5-.5a.5.5 0 0 1-.5.5v-2a1.5 1.5 0 0 0-1.5 1.5h2Zm-.5-.5a.5.5 0 0 1 .5.5h-2a1.5 1.5 0 0 0 1.5 1.5v-2Zm0 0v2-2Zm.5 0h-.5v2h.5v-2Zm1 0h-1v2h1v-2Zm1 5v-4h-2v4h2Zm-8 1h7v-2H7v2Z" mask="url(#iconsPuzzleMissingSize24Px__a)"/><mask id="iconsPuzzleMissingSize24Px__b" fill="#fff"><path fill-rule="evenodd" d="M13 7a1 1 0 0 1 1-1h1.5a.5.5 0 0 0 .5-.5v-1a1.5 1.5 0 0 1 3 0v1a.5.5 0 0 0 .5.5H21a1 1 0 0 1 1 1v6.5a.5.5 0 0 1-.5.5h-3a.5.5 0 0 1-.5-.5v-1a.5.5 0 0 0-1 0v1a.5.5 0 0 1-.5.5H14a1 1 0 0 1-1-1V7Z" clip-rule="evenodd"/></mask><path fill="currentColor" d="M16 4.5h-1 1Zm3 0h1-1ZM21 6v1-1Zm1 1h-1 1Zm-4 6h-1 1Zm-1-.5h-1 1Zm0 0h1-1Zm0 .5h-1 1Zm2-7.5h1-1Zm-2 8h1-1Zm-1-8h1-1ZM14 5a2 2 0 0 0-2 2h2V5Zm1.5 0H14v2h1.5V5Zm1.5.5v-1h-2v1h2Zm0-1a.5.5 0 0 1 .5-.5V2A2.5 2.5 0 0 0 15 4.5h2Zm.5-.5a.5.5 0 0 1 .5.5h2A2.5 2.5 0 0 0 17.5 2v2Zm.5.5v1h2v-1h-2Zm3 .5h-1.5v2H21V5Zm2 2a2 2 0 0 0-2-2v2h2Zm0 6.5V7h-2v6.5h2ZM18.5 15h3v-2h-3v2ZM17 13v.5h2V13h-2Zm0-.5v.5h2v-.5h-2Zm.5.5a.5.5 0 0 1-.5-.5h2a1.5 1.5 0 0 0-1.5-1.5v2Zm.5-.5a.5.5 0 0 1-.5.5v-2a1.5 1.5 0 0 0-1.5 1.5h2Zm0 0h-2 2Zm0 .5v-.5h-2v.5h2Zm0 .5V13h-2v.5h2ZM14 15h2.5v-2H14v2Zm-2-2a2 2 0 0 0 2 2v-2h-2Zm0-6v6h2V7h-2Zm6.5 6a.5.5 0 0 1 .5.5h-2a1.5 1.5 0 0 0 1.5 1.5v-2Zm2.5.5a.5.5 0 0 1 .5-.5v2a1.5 1.5 0 0 0 1.5-1.5h-2Zm-3-8A1.5 1.5 0 0 0 19.5 7V5a.5.5 0 0 1 .5.5h-2Zm-2 8a.5.5 0 0 1 .5-.5v2a1.5 1.5 0 0 0 1.5-1.5h-2ZM15.5 7A1.5 1.5 0 0 0 17 5.5h-2a.5.5 0 0 1 .5-.5v2Z" mask="url(#iconsPuzzleMissingSize24Px__b)"/><mask id="iconsPuzzleMissingSize24Px__c" fill="#fff"/><path fill="currentColor" d="M21 21.5V21v.5Zm-7.25 0v.5-.5ZM21 13.75V21h1v-7.25h-1ZM21 21h-7.25v1H21v-1Zm-7 .25V19h-1v2.25h1ZM14 16v-2.25h-1V16h1Zm5.893-2h1.357v-1h-1.357v1Zm-6.143 0h1.857v-1H13.75v1ZM21 21v1a1 1 0 0 0 1-1h-1Zm-7-7.25a.25.25 0 0 1-.25.25v-1a.75.75 0 0 0-.75.75h1ZM13.75 21a.25.25 0 0 1 .25.25h-1c0 .414.336.75.75.75v-1ZM22 13.75a.75.75 0 0 0-.75-.75v1a.25.25 0 0 1-.25-.25h1Z" mask="url(#iconsPuzzleMissingSize24Px__c)"/><mask id="iconsPuzzleMissingSize24Px__d" fill="#fff"><path fill-rule="evenodd" d="M2 3a1 1 0 0 1 1-1h6a1 1 0 0 1 1 1v1.5h.5a1.5 1.5 0 0 1 0 3H10V9a1 1 0 0 1-1 1H7.5v.5a1.5 1.5 0 0 1-3 0V10H3a1 1 0 0 1-1-1V3Z" clip-rule="evenodd"/></mask><path fill="currentColor" d="M10 4.5H9a1 1 0 0 0 1 1v-1Zm.5 0v1-1Zm-.5 3v-1a1 1 0 0 0-1 1h1ZM7.5 10V9a1 1 0 0 0-1 1h1Zm-3 0h1a1 1 0 0 0-1-1v1ZM3 1a2 2 0 0 0-2 2h2V1Zm6 0H3v2h6V1Zm2 2a2 2 0 0 0-2-2v2h2Zm0 1.5V3H9v1.5h2Zm-1 1h.5v-2H10v2Zm.5 0a.5.5 0 0 1 .5.5h2a2.5 2.5 0 0 0-2.5-2.5v2Zm.5.5a.5.5 0 0 1-.5.5v2A2.5 2.5 0 0 0 13 6h-2Zm-.5.5H10v2h.5v-2ZM11 9V7.5H9V9h2Zm-2 2a2 2 0 0 0 2-2H9v2Zm-1.5 0H9V9H7.5v2Zm1-.5V10h-2v.5h2ZM6 13a2.5 2.5 0 0 0 2.5-2.5h-2a.5.5 0 0 1-.5.5v2Zm-2.5-2.5A2.5 2.5 0 0 0 6 13v-2a.5.5 0 0 1-.5-.5h-2Zm0-.5v.5h2V10h-2ZM3 11h1.5V9H3v2ZM1 9a2 2 0 0 0 2 2V9H1Zm0-6v6h2V3H1Z" mask="url(#iconsPuzzleMissingSize24Px__d)"/></svg>
