<svg xmlns="http://www.w3.org/2000/svg" fill="none" viewBox="0 0 16 16" width="1em" height="1em"><mask id="iconsPuzzleMissingSize16Px__a" fill="#fff"><path fill-rule="evenodd" d="M11 3a1 1 0 0 0-1 1v3h-.5a1.5 1.5 0 1 0 0 3h.5v3a1 1 0 0 0 1 1h3a1 1 0 0 0 1-1V4a1 1 0 0 0-1-1z" clip-rule="evenodd"/></mask><path fill="currentColor" d="M10 7v1a1 1 0 0 0 1-1zm0 3h1a1 1 0 0 0-1-1zm1-6V2a2 2 0 0 0-2 2zm0 3V4H9v3zM9.5 8h.5V6h-.5zm-.5.5a.5.5 0 0 1 .5-.5V6A2.5 2.5 0 0 0 7 8.5zm.5.5a.5.5 0 0 1-.5-.5H7A2.5 2.5 0 0 0 9.5 11zm.5 0h-.5v2h.5zm1 4v-3H9v3zm0 0H9a2 2 0 0 0 2 2zm3 0h-3v2h3zm0 0v2a2 2 0 0 0 2-2zm0-9v9h2V4zm0 0h2a2 2 0 0 0-2-2zm-3 0h3V2h-3z" mask="url(#iconsPuzzleMissingSize16Px__a)"/><mask id="iconsPuzzleMissingSize16Px__b" fill="#fff"><path fill-rule="evenodd" d="M5 3a1 1 0 0 1 1 1v3h.5a1.5 1.5 0 1 1 0 3H6v3a1 1 0 0 1-1 1H2a1 1 0 0 1-1-1V4a1 1 0 0 1 1-1z" clip-rule="evenodd"/></mask><path fill="currentColor" d="M6 7v1a1 1 0 0 1-1-1zm0 3H5a1 1 0 0 1 1-1zM5 4V2a2 2 0 0 1 2 2zm0 3V4h2v3zm1.5 1H6V6h.5zm.5.5a.5.5 0 0 0-.5-.5V6A2.5 2.5 0 0 1 9 8.5zm-.5.5a.5.5 0 0 0 .5-.5h2A2.5 2.5 0 0 1 6.5 11zM6 9h.5v2H6zm-1 4v-3h2v3zm0 0h2a2 2 0 0 1-2 2zm-3 0h3v2H2zm0 0v2a2 2 0 0 1-2-2zm0-9v9H0V4zm0 0H0a2 2 0 0 1 2-2zm3 0H2V2h3z" mask="url(#iconsPuzzleMissingSize16Px__b)"/></svg>
