<svg viewBox="0 0 32 32" fill="none" xmlns="http://www.w3.org/2000/svg" stroke="currentColor"><path d="M2.5 6.99976C2.5 6.17133 3.17157 5.49976 4 5.49976H28C28.8284 5.49976 29.5 6.17133 29.5 6.99976V24.9998C29.5 25.8282 28.8284 26.4998 28 26.4998H4C3.17157 26.4998 2.5 25.8282 2.5 24.9998V6.99976Z"/><path d="M6 22.9998C5.72386 22.9998 5.5 23.2236 5.5 23.4998C5.5 23.7759 5.72386 23.9998 6 23.9998V22.9998ZM26 23.9998C26.2761 23.9998 26.5 23.7759 26.5 23.4998C26.5 23.2236 26.2761 22.9998 26 22.9998V23.9998ZM6 23.9998H26V22.9998H6V23.9998Z" fill="#282829"/><path d="M24.5 23.4998C24.5 23.7759 24.2761 23.9998 24 23.9998C23.7239 23.9998 23.5 23.7759 23.5 23.4998C23.5 23.2236 23.7239 22.9998 24 22.9998C24.2761 22.9998 24.5 23.2236 24.5 23.4998Z"/><path d="M6.79186 12.5738C6.55533 12.5004 6.558 12.1647 6.79566 12.0951L15.759 9.46979C15.8507 9.44291 15.9483 9.44292 16.04 9.46979L25.0033 12.0951C25.241 12.1647 25.2437 12.5004 25.0071 12.5738L16.0476 15.3532C15.9511 15.3831 15.8478 15.3831 15.7513 15.3532L6.79186 12.5738Z" stroke-linejoin="round"/><path d="M23.5 13.0354V17.3992" stroke-linecap="round"/><path d="M10.5 15.4998V18.9998C10.5 19.2759 10.7239 19.4998 11 19.4998H21C21.2761 19.4998 21.5 19.2759 21.5 18.9998V15.4998" stroke-linecap="round" stroke-linejoin="round"/></svg>