<svg xmlns="http://www.w3.org/2000/svg" fill="none" viewBox="0 0 32 32" width="1em" height="1em"><path stroke="currentColor" d="M2.5 7A1.5 1.5 0 0 1 4 5.5h24A1.5 1.5 0 0 1 29.5 7v18a1.5 1.5 0 0 1-1.5 1.5H4A1.5 1.5 0 0 1 2.5 25V7Z"/><path stroke="currentColor" stroke-linecap="round" d="M6 23.5h20"/><path stroke="currentColor" d="M24.5 23.5a.5.5 0 1 1-1 0 .5.5 0 0 1 1 0Z"/><path stroke="currentColor" stroke-linejoin="round" d="M6.792 12.574a.25.25 0 0 1 .004-.479l8.963-2.625a.5.5 0 0 1 .281 0l8.963 2.625a.25.25 0 0 1 .004.479l-8.96 2.78a.5.5 0 0 1-.296 0l-8.96-2.78Z"/><path stroke="currentColor" stroke-linecap="round" d="M23.5 13.035V17.4"/><path stroke="currentColor" stroke-linecap="round" stroke-linejoin="round" d="M10.5 15.5V19a.5.5 0 0 0 .5.5h10a.5.5 0 0 0 .5-.5v-3.5"/></svg>
