<svg viewBox="0 0 24 24" fill="none" xmlns="http://www.w3.org/2000/svg" width="1em" height="1em"><path d="M2.5 5.99976C2.5 5.17133 3.17157 4.49976 4 4.49976H20C20.8284 4.49976 21.5 5.17133 21.5 5.99976V17.9998C21.5 18.8282 20.8284 19.4998 20 19.4998H4C3.17157 19.4998 2.5 18.8282 2.5 17.9998V5.99976Z" stroke="currentColor"/><path d="M5.5 16.071C5.22386 16.071 5 16.2949 5 16.571C5 16.8472 5.22386 17.071 5.5 17.071V16.071ZM17.5 17.071C17.7761 17.071 18 16.8472 18 16.571C18 16.2949 17.7761 16.071 17.5 16.071V17.071ZM5.5 17.071H17.5V16.071H5.5V17.071Z" fill="currentColor"/><path d="M16 16.571C16 16.8472 15.7761 17.071 15.5 17.071C15.2239 17.071 15 16.8472 15 16.571C15 16.2949 15.2239 16.071 15.5 16.071C15.7761 16.071 16 16.2949 16 16.571Z" stroke="currentColor"/><path d="M5.81914 9.81097C5.5795 9.74078 5.5795 9.40131 5.81914 9.33112L11.9305 7.54114C12.0223 7.51426 12.1198 7.51426 12.2116 7.54114L18.323 9.33112C18.5626 9.40131 18.5626 9.74078 18.323 9.81097L12.2116 11.6009C12.1198 11.6278 12.0223 11.6278 11.9305 11.6009L5.81914 9.81097Z" stroke="currentColor" stroke-linejoin="round"/><path d="M17.5 10.071V12.571" stroke="currentColor" stroke-linecap="round"/><path d="M8.5 12.071V14.071C8.5 14.3472 8.72386 14.571 9 14.571H15C15.2761 14.571 15.5 14.3472 15.5 14.071V12.071" stroke="currentColor" stroke-linecap="round" stroke-linejoin="round"/></svg>
