<svg xmlns="http://www.w3.org/2000/svg" fill="none" viewBox="0 0 32 32" width="1em" height="1em"><path stroke="currentColor" d="M2.482 7.03c0-.84.682-1.522 1.523-1.522h23.58c.84 0 1.523.682 1.523 1.523v17.938c0 .841-.682 1.523-1.523 1.523H4.005a1.523 1.523 0 0 1-1.523-1.523z"/><path stroke="currentColor" stroke-linecap="round" d="M5.923 23.5h19.744"/><path stroke="currentColor" d="M24.172 23.5a.486.486 0 0 1-.48.492.486.486 0 0 1-.48-.492c0-.278.222-.492.48-.492.259 0 .48.214.48.492Z"/><path stroke="currentColor" stroke-linejoin="round" d="M6.722 12.58c-.239-.075-.236-.419.004-.49l8.828-2.619a.5.5 0 0 1 .284 0l8.828 2.62c.24.07.242.414.003.488l-8.824 2.773a.5.5 0 0 1-.299 0z"/><path stroke="currentColor" stroke-linecap="round" d="M23.862 13.236v4.431"/><path stroke="currentColor" stroke-linecap="round" stroke-linejoin="round" d="M10.662 15.739v3.553c0 .28.227.508.507.508h10.154c.28 0 .508-.227.508-.508v-3.554"/></svg>
