<svg viewBox="0 0 32 32" fill="none" xmlns="http://www.w3.org/2000/svg" width="1em" height="1em"><path d="M2.5 7C2.5 6.17157 3.17157 5.5 4 5.5L28 5.5C28.8284 5.5 29.5 6.17157 29.5 7V25C29.5 25.8284 28.8284 26.5 28 26.5H4C3.17157 26.5 2.5 25.8284 2.5 25L2.5 7Z" stroke="currentColor"/><path d="M6 23.5H26" stroke="currentColor" stroke-linecap="round"/><path d="M24.5 23.5C24.5 23.7761 24.2761 24 24 24C23.7239 24 23.5 23.7761 23.5 23.5C23.5 23.2239 23.7239 23 24 23C24.2761 23 24.5 23.2239 24.5 23.5Z" stroke="currentColor"/><path d="M6.79186 12.5738C6.55533 12.5004 6.558 12.1647 6.79566 12.0951L15.759 9.46979C15.8507 9.44291 15.9483 9.44292 16.04 9.46979L25.0033 12.0951C25.241 12.1647 25.2437 12.5004 25.0071 12.5738L16.0476 15.3532C15.9511 15.3831 15.8478 15.3831 15.7513 15.3532L6.79186 12.5738Z" stroke="currentColor" stroke-linejoin="round"/><path d="M23.5 13.0352V17.3989" stroke="currentColor" stroke-linecap="round"/><path d="M10.5 15.5V19C10.5 19.2761 10.7239 19.5 11 19.5H21C21.2761 19.5 21.5 19.2761 21.5 19V15.5" stroke="currentColor" stroke-linecap="round" stroke-linejoin="round"/></svg>
