<svg viewBox="0 0 16 16" fill="none" xmlns="http://www.w3.org/2000/svg" stroke="currentColor" width="1em" height="1em"><rect x="1.5" y="2.49976" width="13" height="11" rx="1.5"/><path d="M3.5 11.4998H12.5" stroke-linecap="round"/><path d="M11.75 11.4998C11.75 11.914 11.4142 12.2498 11 12.2498C10.5858 12.2498 10.25 11.914 10.25 11.4998C10.25 11.0855 10.5858 10.7498 11 10.7498C11.4142 10.7498 11.75 11.0855 11.75 11.4998Z" stroke-width="0.5"/><path d="M3.99473 6.02413C3.76532 5.93961 3.7811 5.60999 4.01753 5.54777L7.87275 4.53324C7.95617 4.51129 8.04384 4.51129 8.12725 4.53324L11.9825 5.54777C12.2189 5.60999 12.2347 5.93961 12.0053 6.02413L8.17285 7.43607C8.06128 7.47718 7.93872 7.47718 7.82715 7.43607L3.99473 6.02413Z" stroke-linejoin="round"/><path d="M11.5 6.08545V7.76483" stroke-linecap="round"/><path d="M6 6.99976V8.99976C6 9.2759 6.22386 9.49976 6.5 9.49976H9.5C9.77614 9.49976 10 9.2759 10 8.99976V6.99976" stroke-linecap="round" stroke-linejoin="round"/></svg>
