<svg xmlns="http://www.w3.org/2000/svg" fill="none" viewBox="0 0 24 24" width="1em" height="1em"><path stroke="currentColor" d="M2.482 6.03c0-.84.682-1.523 1.523-1.523h15.682c.841 0 1.523.682 1.523 1.523v11.94c0 .841-.681 1.523-1.523 1.523H4.005a1.523 1.523 0 0 1-1.523-1.523z"/><path stroke="currentColor" stroke-linecap="round" d="M5.43 16.571h11.846"/><path stroke="currentColor" d="M15.78 16.571c0 .278-.22.492-.479.492a.486.486 0 0 1-.48-.492c0-.278.222-.492.48-.492.259 0 .48.214.48.492Z"/><path stroke="currentColor" stroke-linejoin="round" d="M5.762 9.816c-.241-.072-.241-.419 0-.49l6.013-1.784a.5.5 0 0 1 .283 0l6.012 1.784c.242.071.242.418 0 .49L12.058 11.6a.5.5 0 0 1-.283 0z"/><path stroke="currentColor" stroke-linecap="round" d="M17.77 10.226v2.538"/><path stroke="currentColor" stroke-linecap="round" stroke-linejoin="round" d="M8.63 12.257v2.03c0 .28.228.508.509.508h6.092c.28 0 .508-.227.508-.508v-2.03"/></svg>
