<svg xmlns="http://www.w3.org/2000/svg" fill="none" viewBox="0 0 24 24" width="1em" height="1em"><path stroke="currentColor" d="M2.5 6A1.5 1.5 0 0 1 4 4.5h16A1.5 1.5 0 0 1 21.5 6v12a1.5 1.5 0 0 1-1.5 1.5H4A1.5 1.5 0 0 1 2.5 18V6Z"/><path stroke="currentColor" stroke-linecap="round" d="M5.5 16.571h12"/><path stroke="currentColor" d="M16 16.571a.5.5 0 1 1-1 0 .5.5 0 0 1 1 0Z"/><path stroke="currentColor" stroke-linejoin="round" d="M5.82 9.811c-.24-.07-.24-.41 0-.48l6.11-1.79a.5.5 0 0 1 .282 0l6.111 1.79c.24.07.24.41 0 .48l-6.111 1.79a.5.5 0 0 1-.281 0l-6.112-1.79Z"/><path stroke="currentColor" stroke-linecap="round" d="M17.5 10.071v2.5"/><path stroke="currentColor" stroke-linecap="round" stroke-linejoin="round" d="M8.5 12.071v2a.5.5 0 0 0 .5.5h6a.5.5 0 0 0 .5-.5v-2"/></svg>
