<svg xmlns="http://www.w3.org/2000/svg" fill="none" viewBox="0 0 16 16" width="1em" height="1em"><rect width="13.215" height="11.184" x="1.515" y="2.531" stroke="currentColor" rx="1.5"/><path stroke="currentColor" stroke-linecap="round" d="M3.554 11.677h9.138"/><path stroke="currentColor" stroke-width=".5" d="M11.93 11.677a.762.762 0 1 1-1.523 0 .762.762 0 0 1 1.524 0Z"/><path stroke="currentColor" stroke-linejoin="round" d="M3.96 6.03c-.232-.087-.216-.424.023-.487l3.786-1.01a.5.5 0 0 1 .257 0l3.786 1.01c.239.063.255.4.023.487L8.072 7.434a.5.5 0 0 1-.349 0z"/><path stroke="currentColor" stroke-linecap="round" d="M11.677 6.178v1.706"/><path stroke="currentColor" stroke-linecap="round" stroke-linejoin="round" d="M6.092 7.108v2.03c0 .28.228.508.508.508h3.046c.28 0 .508-.227.508-.508v-2.03"/></svg>
