<svg xmlns="http://www.w3.org/2000/svg" fill="none" viewBox="0 0 16 16" width="1em" height="1em"><rect width="13" height="11" x="1.5" y="2.5" stroke="currentColor" rx="1.5"/><path stroke="currentColor" stroke-linecap="round" d="M3.5 11.5h9"/><path stroke="currentColor" stroke-width=".5" d="M11.75 11.5a.75.75 0 1 1-1.5 0 .75.75 0 0 1 1.5 0Z"/><path stroke="currentColor" stroke-linejoin="round" d="M3.995 6.024a.25.25 0 0 1 .023-.476l3.855-1.015a.5.5 0 0 1 .254 0l3.855 1.015a.25.25 0 0 1 .023.476L8.173 7.436a.5.5 0 0 1-.346 0L3.995 6.024Z"/><path stroke="currentColor" stroke-linecap="round" d="M11.5 6.086v1.68"/><path stroke="currentColor" stroke-linecap="round" stroke-linejoin="round" d="M6 7v2a.5.5 0 0 0 .5.5h3A.5.5 0 0 0 10 9V7"/></svg>
