<svg viewBox="0 0 16 16" fill="none" xmlns="http://www.w3.org/2000/svg" width="1em" height="1em"><path d="M12.5 11.5L5.5 11.5C4.39543 11.5 3.5 10.6046 3.5 9.5L3.5 4.5C3.5 3.94772 3.05228 3.5 2.5 3.5H1.5" stroke="currentColor" stroke-linecap="round"/><circle cx="5" cy="14" r="0.5" stroke="currentColor" stroke-linecap="round"/><circle cx="11" cy="14" r="0.5" stroke="currentColor" stroke-linecap="round"/><path d="M8.30673 3.63549C7.92246 3.73846 7.59483 3.98986 7.39592 4.33438L6.33526 6.1715C5.92105 6.88894 6.16686 7.80632 6.8843 8.22054L8.21411 8.98831C8.93155 9.40252 9.84893 9.15671 10.2631 8.43927L11.3238 6.60215C11.5227 6.25762 11.5766 5.84819 11.4737 5.46392L11.1926 4.41513C10.9782 3.61493 10.1557 3.14006 9.35552 3.35447L8.30673 3.63549Z" stroke="currentColor" stroke-linecap="round"/><circle cx="9.68301" cy="4.68301" r="0.25" transform="rotate(30 9.68301 4.68301)" stroke="currentColor" stroke-width="0.5"/></svg>
