<svg viewBox="0 0 24 24" fill="none" xmlns="http://www.w3.org/2000/svg" width="1em" height="1em"><circle cx="9" cy="20" r="1.5" stroke="currentColor"/><circle cx="16" cy="20" r="1.5" stroke="currentColor"/><path d="M18.5 16.5H7.5C6.39543 16.5 5.5 15.6046 5.5 14.5V5.5C5.5 4.94772 5.05228 4.5 4.5 4.5H3.5" stroke="currentColor" stroke-linecap="round"/><path d="M16.5987 9.44139L16.5987 9.44137C16.6064 9.42811 16.6141 9.41489 16.6217 9.40169C16.7828 9.12368 16.9376 8.85662 16.8965 8.44008C16.8716 8.18803 16.7225 7.45627 16.581 6.79537C16.4374 6.12441 16.2851 5.45097 16.2424 5.29562C16.1772 5.05917 16.0351 4.83018 15.7986 4.68079C15.5594 4.52966 15.2758 4.49293 14.9913 4.54682C14.7663 4.58942 14.0685 4.8098 13.4322 5.02032C12.7902 5.23272 12.1085 5.4692 11.908 5.55996C11.5267 5.73262 11.3728 6.00023 11.2126 6.2788C11.205 6.29201 11.1974 6.30525 11.1897 6.3185L8.61474 10.7785C8.34058 11.2534 8.43321 11.9197 8.96252 12.2253L12.5969 14.3236C13.1262 14.6292 13.7496 14.3763 14.0237 13.9014L16.5987 9.44139Z" stroke="currentColor"/><circle cx="14.683" cy="6.68301" r="0.25" transform="rotate(30 14.683 6.68301)" stroke="currentColor" stroke-width="0.5"/></svg>
