<svg viewBox="0 0 32 32" fill="none" xmlns="http://www.w3.org/2000/svg" stroke="currentColor"><circle cx="11.5" cy="26.5" r="2"/><circle cx="22.5" cy="26.5" r="2"/><path d="M25.5 22.5H9.51314C8.40857 22.5 7.51314 21.6046 7.51314 20.5V5.5C7.51314 4.39543 6.61771 3.5 5.51314 3.5H4" stroke-linecap="round"/><path d="M22.2088 11.2834L22.2089 11.2834C22.2182 11.2672 22.2274 11.2512 22.2366 11.2353C22.4766 10.8205 22.6672 10.491 22.6245 9.9633C22.5961 9.61268 22.4032 8.5651 22.2147 7.5971C22.0243 6.61923 21.8233 5.64787 21.7677 5.42999C21.6913 5.13111 21.5198 4.8459 21.231 4.66287C20.9392 4.47792 20.5868 4.43471 20.2224 4.51073C19.9174 4.57435 18.9312 4.90524 18.0075 5.22991C17.0778 5.55666 16.1104 5.91291 15.8351 6.04342C15.3566 6.27025 15.1666 6.60005 14.9273 7.01539C14.9182 7.03128 14.9089 7.0473 14.8996 7.06343L11.1088 13.6294C10.7683 14.219 10.8614 15.0483 11.5099 15.4227L16.6644 18.3986C17.3129 18.773 18.0776 18.439 18.418 17.8494L22.2088 11.2834Z"/><circle cx="19.4575" cy="7.70753" r="0.75" transform="rotate(30 19.4575 7.70753)"/></svg>