<svg viewBox="0 0 16 16" fill="none" xmlns="http://www.w3.org/2000/svg" width="1em" height="1em"><path d="M12.5 11.5H5.5C4.39543 11.5 3.5 10.6046 3.5 9.5V4.5C3.5 3.94772 3.05228 3.5 2.5 3.5H1.5" stroke="currentColor" stroke-linecap="round"/><circle cx="5" cy="14" r="0.5" stroke="currentColor" stroke-linecap="round"/><circle cx="11" cy="14" r="0.5" stroke="currentColor" stroke-linecap="round"/><path d="M8.30673 3.63559C7.92246 3.73855 7.59483 3.98995 7.39592 4.33447L6.33526 6.17159C5.92105 6.88903 6.16686 7.80642 6.8843 8.22063L8.21411 8.9884C8.93155 9.40261 9.84893 9.1568 10.2631 8.43936L11.3238 6.60224C11.5227 6.25772 11.5766 5.84828 11.4737 5.46401L11.1926 4.41522C10.9782 3.61502 10.1557 3.14015 9.35552 3.35456L8.30673 3.63559Z" stroke="currentColor" stroke-linecap="round"/><circle cx="9.68301" cy="4.68301" r="0.25" transform="rotate(30 9.68301 4.68301)" stroke="currentColor" stroke-width="0.5"/></svg>
