<svg xmlns="http://www.w3.org/2000/svg" fill="none" viewBox="0 0 24 24" width="1em" height="1em"><circle cx="9" cy="20" r="1.5" stroke="currentColor"/><circle cx="16" cy="20" r="1.5" stroke="currentColor"/><path stroke="currentColor" stroke-linecap="round" d="M18.5 16.5h-11a2 2 0 0 1-2-2v-9a1 1 0 0 0-1-1h-1"/><path stroke="currentColor" d="m16.599 9.441.023-.04c.16-.277.316-.544.274-.961-.024-.252-.174-.984-.315-1.645a48.246 48.246 0 0 0-.339-1.5 1.044 1.044 0 0 0-.444-.614 1.104 1.104 0 0 0-.807-.134c-.225.042-.923.263-1.559.473-.642.213-1.324.45-1.524.54-.381.173-.535.44-.695.719l-.023.04-2.575 4.46c-.275.474-.182 1.14.347 1.446l3.635 2.098c.53.306 1.152.053 1.427-.422l2.575-4.46Z"/><circle cx="14.683" cy="6.683" r=".25" stroke="currentColor" stroke-width=".5" transform="rotate(30 14.683 6.683)"/></svg>
