<svg xmlns="http://www.w3.org/2000/svg" fill="none" viewBox="0 0 16 16" width="1em" height="1em"><path stroke="currentColor" stroke-linecap="round" d="M12.5 11.5h-7a2 2 0 0 1-2-2v-5a1 1 0 0 0-1-1h-1"/><circle cx="5" cy="14" r=".5" stroke="currentColor" stroke-linecap="round"/><circle cx="11" cy="14" r=".5" stroke="currentColor" stroke-linecap="round"/><path stroke="currentColor" stroke-linecap="round" d="M8.307 3.635a1.5 1.5 0 0 0-.911.7l-1.06 1.837a1.5 1.5 0 0 0 .548 2.049l1.33.767a1.5 1.5 0 0 0 2.05-.549l1.06-1.837a1.5 1.5 0 0 0 .15-1.138l-.281-1.049a1.5 1.5 0 0 0-1.837-1.06z"/><circle cx="9.683" cy="4.683" r=".25" stroke="currentColor" stroke-width=".5" transform="rotate(30 9.683 4.683)"/></svg>
