<svg xmlns="http://www.w3.org/2000/svg" fill="none" viewBox="0 0 32 32" width="1em" height="1em"><circle cx="11.5" cy="26.5" r="2" stroke="currentColor"/><circle cx="22.5" cy="26.5" r="2" stroke="currentColor"/><path stroke="currentColor" stroke-linecap="round" d="M25.5 22.5H9.513a2 2 0 0 1-2-2v-15a2 2 0 0 0-2-2H4"/><path stroke="currentColor" d="m22.209 11.283.027-.048c.24-.415.431-.744.388-1.272-.028-.35-.22-1.398-.41-2.366-.19-.978-.39-1.95-.446-2.167a1.26 1.26 0 0 0-.537-.767c-.292-.185-.644-.229-1.009-.152-.305.063-1.29.394-2.215.719-.93.326-1.897.683-2.172.813-.479.227-.669.557-.908.972l-.027.048-3.791 6.566c-.34.59-.248 1.42.4 1.793l5.155 2.976c.649.375 1.413.04 1.754-.549z"/><circle cx="19.457" cy="7.708" r=".75" stroke="currentColor" transform="rotate(30 19.457 7.708)"/></svg>
