<svg xmlns="http://www.w3.org/2000/svg" fill="none" viewBox="0 0 16 16" width="1em" height="1em"><path stroke="currentColor" stroke-linecap="round" stroke-linejoin="round" d="M12.59 5.987 14 6.5l.513-1.41M3.41 10.013 2 9.5l-.513 1.41m8.763 1.791L9.5 14l1.299.75M6.612 2.949 7 1.5l-1.449-.388"/><path stroke="currentColor" stroke-linecap="round" stroke-linejoin="round" d="M2 6.451A6.2 6.2 0 0 1 6.451 2M2 9.549A6.2 6.2 0 0 0 6.451 14m3.098 0A6.2 6.2 0 0 0 14 9.549M9.549 2A6.2 6.2 0 0 1 14 6.451"/></svg>
