<svg xmlns="http://www.w3.org/2000/svg" fill="none" viewBox="0 0 24 24" width="1em" height="1em"><path stroke="currentColor" stroke-linecap="round" stroke-linejoin="round" d="M10.336 3A9.16 9.16 0 0 0 3 10.336m0 3.328A9.16 9.16 0 0 0 10.336 21m3.328 0A9.16 9.16 0 0 0 21 13.664m0-3.328A9.16 9.16 0 0 0 13.664 3"/><path stroke="currentColor" stroke-linecap="round" stroke-linejoin="round" d="M8.118 1.625 10.5 3 9.125 5.382m5.973 17.216-2.382-1.375 1.375-2.381m8.284-10.724L21 10.5l-2.382-1.375M1.402 15.098l1.375-2.382 2.381 1.376"/></svg>
