<svg xmlns="http://www.w3.org/2000/svg" fill="none" viewBox="0 0 32 32" width="1em" height="1em"><path stroke="currentColor" d="M22.67 21.728q.581.117 1.19.118c3.324 0 6.021-2.718 6.021-6.072s-2.697-6.071-6.02-6.071c-.838 0-1.666.176-2.431.518zm0 0a4.41 4.41 0 0 1-3.835 2.257zm-5.763 1.814q.201.098.412.175zm0 0-.22.449h.001q.12-.218.219-.45Zm-3.72-14.05.353.466.405-.422a4.4 4.4 0 0 1 3.177-1.37c1.654 0 3.093.918 3.872 2.3l.224.397.416-.186a5.45 5.45 0 0 1 2.226-.474c3.044 0 5.521 2.49 5.521 5.571 0 3.082-2.477 5.572-5.52 5.572q-.559 0-1.093-.108l-.356-.071-.177.317a3.91 3.91 0 0 1-3.4 2h-.001a3.9 3.9 0 0 1-1.708-.392l-.473-.23-.206.484a4.52 4.52 0 0 1-4.156 2.752 4.51 4.51 0 0 1-4.238-2.955l-.15-.405-.423.089q-.422.089-.854.089c-2.293 0-4.157-1.884-4.157-4.208a4.23 4.23 0 0 1 2.083-3.651l.38-.225-.176-.405a4.9 4.9 0 0 1-.405-1.954v-.001a4.92 4.92 0 0 1 4.926-4.915c1.592 0 3.016.758 3.91 1.935Z"/><path fill="currentColor" d="M11.16 14.3q.307 0 .547.06.24.054.42.132t.3.168q.12.084.18.15l-.276.636a.7.7 0 0 0-.15-.138 1.4 1.4 0 0 0-.264-.156 1.5 1.5 0 0 0-.348-.126 1.5 1.5 0 0 0-.414-.054q-.27 0-.516.09-.24.09-.426.27a1.3 1.3 0 0 0-.288.456q-.108.27-.108.636 0 .336.096.612.102.27.282.462.186.192.438.3.258.102.57.102.414 0 .702-.15.294-.156.48-.354l.276.588a1.9 1.9 0 0 1-.534.39q-.18.084-.42.138-.24.06-.546.06-.456 0-.852-.15-.39-.15-.678-.426a2 2 0 0 1-.456-.672 2.3 2.3 0 0 1-.162-.888q0-.492.168-.888t.456-.672.678-.426q.396-.15.846-.15m2.378.06h1.332q.66 0 1.044.294.192.15.318.384.126.228.126.528 0 .27-.072.462a1 1 0 0 1-.186.33 1.1 1.1 0 0 1-.282.222 2 2 0 0 1-.354.144L16.58 18.5h-.912l-.978-1.68h-.372v1.68h-.78zm1.182 1.848q.192 0 .336-.024a.6.6 0 0 0 .258-.108.56.56 0 0 0 .18-.198.6.6 0 0 0 .06-.288.57.57 0 0 0-.24-.486.6.6 0 0 0-.258-.108 2 2 0 0 0-.336-.024h-.408v1.236zm2.473 2.292.342-4.14h1.026l1.002 2.97h.012l1.014-2.97h.99l.354 4.14h-.768l-.24-3.126h-.012l-1.104 3.144h-.546l-1.08-3.144h-.018l-.222 3.126z"/></svg>
