<svg xmlns="http://www.w3.org/2000/svg" fill="none" viewBox="0 0 16 16" width="1em" height="1em"><path stroke="currentColor" d="m6.425 4.39.356.479.41-.435a1.93 1.93 0 0 1 1.41-.622c.728 0 1.37.412 1.722 1.049l.224.405.422-.192c.318-.145.663-.22 1.011-.22 1.378 0 2.52 1.154 2.52 2.607s-1.142 2.607-2.52 2.607q-.253 0-.497-.05l-.36-.073-.178.322a1.7 1.7 0 0 1-1.486.896c-.258 0-.512-.06-.744-.175l-.478-.238-.206.493A2.02 2.02 0 0 1 6.177 12.5a2.02 2.02 0 0 1-1.89-1.35l-.15-.41-.426.092q-.187.04-.375.04c-1 0-1.836-.843-1.836-1.91 0-.713.375-1.329.926-1.66l.372-.224-.17-.4a2.3 2.3 0 0 1-.184-.906c0-1.265 1.004-2.272 2.221-2.272.714 0 1.356.347 1.76.89Z"/><path fill="currentColor" d="m6.104 8.504-.162-.378a.76.76 0 0 1-.558.219c-.34 0-.621-.231-.621-.636s.27-.639.62-.639c.274 0 .496.165.535.216l.15-.402c-.054-.057-.285-.234-.711-.234-.603 0-1.086.399-1.086 1.068 0 .666.477 1.068 1.086 1.068.423 0 .642-.174.747-.282m1.98.246-.524-.855c.153-.048.405-.201.405-.594a.57.57 0 0 0-.228-.474q-.201-.148-.546-.147h-.744v2.07h.486v-.792h.153l.435.792zm-.608-1.431a.23.23 0 0 1-.105.21c-.06.045-.138.057-.25.057H6.93v-.531h.192c.11 0 .189.009.249.054a.24.24 0 0 1 .105.21m3.226 1.431-.153-2.07h-.615l-.426 1.362h-.006L9.07 6.68h-.612l-.156 2.07h.477l.075-1.41h.01l.446 1.41h.384l.444-1.41h.006l.081 1.41z"/></svg>
