<svg xmlns="http://www.w3.org/2000/svg" fill="none" viewBox="0 0 32 32" width="1em" height="1em"><path stroke="currentColor" d="M22.67 21.728c.388.077.784.118 1.19.118 3.324 0 6.021-2.718 6.021-6.072 0-3.353-2.697-6.071-6.02-6.071-.838 0-1.666.176-2.431.518l1.24 11.507Zm0 0a4.407 4.407 0 0 1-3.835 2.257l3.836-2.257Zm-5.763 1.814c.134.065.272.124.412.175l-.412-.175Zm0 0-.22.449h.001c.08-.145.153-.296.219-.45Zm-3.72-14.05.353.466.405-.422a4.395 4.395 0 0 1 3.177-1.37c1.654 0 3.093.918 3.872 2.3l.224.397.416-.186a5.45 5.45 0 0 1 2.226-.474c3.044 0 5.521 2.49 5.521 5.571 0 3.082-2.477 5.572-5.52 5.572a5.58 5.58 0 0 1-1.093-.108l-.356-.071-.177.317a3.907 3.907 0 0 1-3.4 2h-.001a3.878 3.878 0 0 1-1.708-.392l-.473-.23-.206.484a4.52 4.52 0 0 1-4.156 2.752 4.513 4.513 0 0 1-4.238-2.955l-.15-.405-.423.089c-.28.059-.567.089-.854.089-2.293 0-4.157-1.884-4.157-4.208a4.23 4.23 0 0 1 2.083-3.651l.38-.225-.176-.405a4.895 4.895 0 0 1-.405-1.954v-.001a4.919 4.919 0 0 1 4.926-4.915c1.592 0 3.016.758 3.91 1.935Z"/><path fill="currentColor" d="M11.16 14.3c.205 0 .387.02.547.06.16.036.3.08.42.132.12.052.22.108.3.168.08.056.14.106.18.15l-.276.636a.65.65 0 0 0-.15-.138 1.353 1.353 0 0 0-.264-.156 1.54 1.54 0 0 0-.348-.126 1.524 1.524 0 0 0-.414-.054c-.18 0-.352.03-.516.09-.16.06-.302.15-.426.27a1.31 1.31 0 0 0-.288.456c-.072.18-.108.392-.108.636 0 .224.032.428.096.612.068.18.162.334.282.462.124.128.27.228.438.3.172.068.362.102.57.102.276 0 .51-.05.702-.15.196-.104.356-.222.48-.354l.276.588a1.88 1.88 0 0 1-.534.39c-.12.056-.26.102-.42.138-.16.04-.342.06-.546.06-.304 0-.588-.05-.852-.15-.26-.1-.486-.242-.678-.426a1.999 1.999 0 0 1-.456-.672 2.326 2.326 0 0 1-.162-.888c0-.328.056-.624.168-.888.112-.264.264-.488.456-.672.192-.184.418-.326.678-.426.264-.1.546-.15.846-.15Zm2.378.06h1.332c.44 0 .788.098 1.044.294.128.1.234.228.318.384.084.152.126.328.126.528 0 .18-.024.334-.072.462a.984.984 0 0 1-.186.33 1.1 1.1 0 0 1-.282.222 2.18 2.18 0 0 1-.354.144L16.58 18.5h-.912l-.978-1.68h-.372v1.68h-.78v-4.14Zm1.182 1.848c.128 0 .24-.008.336-.024a.593.593 0 0 0 .258-.108.562.562 0 0 0 .18-.198.615.615 0 0 0 .06-.288.568.568 0 0 0-.24-.486.593.593 0 0 0-.258-.108 2.067 2.067 0 0 0-.336-.024h-.408v1.236h.408Zm2.473 2.292.342-4.14h1.026l1.002 2.97h.012l1.014-2.97h.99l.354 4.14h-.768l-.24-3.126h-.012l-1.104 3.144h-.546l-1.08-3.144h-.018l-.222 3.126h-.75Z"/></svg>
