<svg xmlns="http://www.w3.org/2000/svg" fill="none" viewBox="0 0 24 24" width="1em" height="1em"><path stroke="currentColor" d="m9.925 6.83.353.467.405-.422a3.007 3.007 0 0 1 2.175-.938c1.13 0 2.116.627 2.65 1.575l.225.397.415-.186a3.763 3.763 0 0 1 1.538-.327c2.101 0 3.814 1.72 3.814 3.85s-1.713 3.85-3.814 3.85c-.257 0-.508-.026-.755-.075l-.356-.071-.177.317a2.658 2.658 0 0 1-2.313 1.36h-.001a2.63 2.63 0 0 1-1.162-.266l-.473-.23-.206.483a3.092 3.092 0 0 1-5.751-.139l-.15-.405-.422.09c-.192.04-.387.06-.583.06-1.563 0-2.837-1.284-2.837-2.873a2.89 2.89 0 0 1 1.422-2.493l.38-.225-.175-.405A3.383 3.383 0 0 1 7.237 5.5a3.37 3.37 0 0 1 2.688 1.33Z"/><path fill="currentColor" d="M9.06 10.2c.136 0 .257.013.364.04.107.024.2.053.28.088a.99.99 0 0 1 .32.212l-.184.424a.433.433 0 0 0-.1-.092.904.904 0 0 0-.176-.104 1.023 1.023 0 0 0-.232-.084 1.016 1.016 0 0 0-.276-.036c-.12 0-.235.02-.344.06a.817.817 0 0 0-.284.18.872.872 0 0 0-.192.304c-.048.12-.072.261-.072.424 0 .15.021.285.064.408a.91.91 0 0 0 .188.308.89.89 0 0 0 .292.2c.115.045.241.068.38.068a1 1 0 0 0 .468-.1c.13-.07.237-.148.32-.236l.184.392a1.248 1.248 0 0 1-.356.26c-.08.037-.173.068-.28.092-.107.027-.228.04-.364.04a1.59 1.59 0 0 1-.568-.1 1.341 1.341 0 0 1-.452-.284 1.333 1.333 0 0 1-.304-.448 1.55 1.55 0 0 1-.108-.592c0-.219.037-.416.112-.592.075-.176.176-.325.304-.448s.279-.217.452-.284c.176-.067.364-.1.564-.1Zm1.505.04h.888c.293 0 .525.065.696.196a.803.803 0 0 1 .212.256.716.716 0 0 1 .084.352c0 .12-.016.223-.048.308a.656.656 0 0 1-.124.22.732.732 0 0 1-.188.148 1.46 1.46 0 0 1-.236.096L12.593 13h-.608l-.652-1.12h-.248V13h-.52v-2.76Zm.788 1.232c.085 0 .16-.005.224-.016a.396.396 0 0 0 .172-.072.375.375 0 0 0 .12-.132.41.41 0 0 0 .04-.192.38.38 0 0 0-.16-.324.396.396 0 0 0-.172-.072 1.375 1.375 0 0 0-.224-.016h-.272v.824h.272ZM12.922 13l.228-2.76h.684l.668 1.98h.008l.676-1.98h.66l.236 2.76h-.512l-.16-2.084h-.008l-.736 2.096h-.364l-.72-2.096h-.012L13.422 13h-.5Z"/></svg>
