<svg xmlns="http://www.w3.org/2000/svg" fill="none" viewBox="0 0 24 24" width="1em" height="1em"><path stroke="currentColor" d="m9.925 6.83.353.467.406-.422a3 3 0 0 1 2.174-.938c1.13 0 2.116.627 2.65 1.575l.225.397.415-.186a3.8 3.8 0 0 1 1.538-.327c2.101 0 3.814 1.72 3.814 3.85s-1.713 3.85-3.814 3.85q-.385 0-.755-.075l-.356-.071-.177.317a2.66 2.66 0 0 1-2.313 1.36h-.001a2.6 2.6 0 0 1-1.162-.266l-.473-.23-.206.483a3.092 3.092 0 0 1-5.751-.139l-.15-.405-.422.09q-.288.06-.583.06c-1.563 0-2.837-1.284-2.837-2.873a2.89 2.89 0 0 1 1.422-2.493l.38-.225-.175-.405A3.383 3.383 0 0 1 7.237 5.5a3.37 3.37 0 0 1 2.688 1.33Z"/><path fill="currentColor" d="M9.06 10.2q.204 0 .364.04.16.036.28.088a1 1 0 0 1 .32.212l-.184.424a.4.4 0 0 0-.1-.092 1 1 0 0 0-.176-.104 1 1 0 0 0-.232-.084 1 1 0 0 0-.276-.036q-.18 0-.344.06a.8.8 0 0 0-.284.18.9.9 0 0 0-.192.304q-.072.18-.072.424 0 .224.064.408.068.18.188.308a.9.9 0 0 0 .292.2q.172.068.38.068.276 0 .468-.1.195-.105.32-.236l.184.392a1.3 1.3 0 0 1-.356.26q-.12.056-.28.092-.16.04-.364.04a1.6 1.6 0 0 1-.568-.1 1.3 1.3 0 0 1-.452-.284 1.3 1.3 0 0 1-.304-.448 1.6 1.6 0 0 1-.108-.592q0-.328.112-.592t.304-.448.452-.284q.264-.1.564-.1m1.505.04h.888q.44 0 .696.196a.8.8 0 0 1 .212.256.7.7 0 0 1 .084.352q0 .18-.048.308a.7.7 0 0 1-.124.22.7.7 0 0 1-.188.148 1.5 1.5 0 0 1-.236.096L12.593 13h-.608l-.652-1.12h-.248V13h-.52zm.788 1.232q.128 0 .224-.016a.4.4 0 0 0 .172-.072.4.4 0 0 0 .12-.132.4.4 0 0 0 .04-.192.38.38 0 0 0-.16-.324.4.4 0 0 0-.172-.072 1.4 1.4 0 0 0-.224-.016h-.272v.824zM12.922 13l.228-2.76h.684l.668 1.98h.008l.676-1.98h.66l.236 2.76h-.512l-.16-2.084h-.008l-.736 2.096h-.364l-.72-2.096h-.012L13.422 13z"/></svg>
