<svg xmlns="http://www.w3.org/2000/svg" fill="none" viewBox="0 0 24 24" width="1em" height="1em"><path stroke="currentColor" stroke-linecap="round" d="M19.5 12h.5a1.5 1.5 0 0 1 1.5 1.5V20a1.5 1.5 0 0 1-1.5 1.5H9A1.5 1.5 0 0 1 7.5 20v-4.5m6-1h5m-8 0h1m2 2h5m-8 0h1m2 2h5m-8 0h1"/><path stroke="currentColor" d="M2.5 4A1.5 1.5 0 0 1 4 2.5h11A1.5 1.5 0 0 1 16.5 4v7a1.5 1.5 0 0 1-1.5 1.5H4A1.5 1.5 0 0 1 2.5 11z"/><path stroke="currentColor" stroke-linecap="round" stroke-linejoin="round" d="M11.314 7.071a.5.5 0 0 1 0 .858L9.257 9.163a.5.5 0 0 1-.757-.43V6.267a.5.5 0 0 1 .757-.429z"/></svg>
