<svg viewBox="0 0 24 24" fill="none" xmlns="http://www.w3.org/2000/svg" width="1em" height="1em"><path d="M19.5 11.5C19.2239 11.5 19 11.7239 19 12C19 12.2761 19.2239 12.5 19.5 12.5V11.5ZM8 15.5C8 15.2239 7.77614 15 7.5 15C7.22386 15 7 15.2239 7 15.5H8ZM21 13.5V20H22V13.5H21ZM20 21H9V22H20V21ZM19.5 12.5H20V11.5H19.5V12.5ZM8 20V15.5H7V20H8ZM9 21C8.44772 21 8 20.5523 8 20H7C7 21.1046 7.89543 22 9 22V21ZM21 20C21 20.5523 20.5523 21 20 21V22C21.1046 22 22 21.1046 22 20H21ZM22 13.5C22 12.3954 21.1046 11.5 20 11.5V12.5C20.5523 12.5 21 12.9477 21 13.5H22Z" fill="currentColor"/><path d="M13.5 14C13.2239 14 13 14.2239 13 14.5C13 14.7761 13.2239 15 13.5 15V14ZM18.5 15C18.7761 15 19 14.7761 19 14.5C19 14.2239 18.7761 14 18.5 14V15ZM10.5 14C10.2239 14 10 14.2239 10 14.5C10 14.7761 10.2239 15 10.5 15V14ZM11.5 15C11.7761 15 12 14.7761 12 14.5C12 14.2239 11.7761 14 11.5 14V15ZM13.5 16C13.2239 16 13 16.2239 13 16.5C13 16.7761 13.2239 17 13.5 17V16ZM18.5 17C18.7761 17 19 16.7761 19 16.5C19 16.2239 18.7761 16 18.5 16V17ZM10.5 16C10.2239 16 10 16.2239 10 16.5C10 16.7761 10.2239 17 10.5 17V16ZM11.5 17C11.7761 17 12 16.7761 12 16.5C12 16.2239 11.7761 16 11.5 16V17ZM13.5 18C13.2239 18 13 18.2239 13 18.5C13 18.7761 13.2239 19 13.5 19V18ZM18.5 19C18.7761 19 19 18.7761 19 18.5C19 18.2239 18.7761 18 18.5 18V19ZM10.5 18C10.2239 18 10 18.2239 10 18.5C10 18.7761 10.2239 19 10.5 19V18ZM11.5 19C11.7761 19 12 18.7761 12 18.5C12 18.2239 11.7761 18 11.5 18V19ZM13.5 15H18.5V14H13.5V15ZM10.5 15H11.5V14H10.5V15ZM13.5 17H18.5V16H13.5V17ZM10.5 17H11.5V16H10.5V17ZM13.5 19H18.5V18H13.5V19ZM10.5 19H11.5V18H10.5V19Z" fill="currentColor"/><path d="M2.5 4C2.5 3.17157 3.17157 2.5 4 2.5H15C15.8284 2.5 16.5 3.17157 16.5 4V11C16.5 11.8284 15.8284 12.5 15 12.5H4C3.17157 12.5 2.5 11.8284 2.5 11V4Z" stroke="currentColor"/><path d="M11.3136 7.07125C11.6373 7.26546 11.6373 7.73455 11.3136 7.92875L9.25725 9.16256C8.92399 9.36251 8.5 9.12246 8.5 8.73381L8.5 6.26619C8.5 5.87754 8.92399 5.63749 9.25725 5.83744L11.3136 7.07125Z" stroke="currentColor" stroke-linecap="round" stroke-linejoin="round"/></svg>
