<svg viewBox="0 0 16 16" fill="none" xmlns="http://www.w3.org/2000/svg" width="1em" height="1em"><path d="M13.0714 7.5V7.5C13.8604 7.5 14.5 8.13959 14.5 8.92857V13C14.5 13.8284 13.8284 14.5 13 14.5H6C5.17157 14.5 4.5 13.8284 4.5 13V10.0789" stroke="currentColor" stroke-linecap="round"/><path d="M9.49993 10.5H12.4999M6.80762 10.5H7.49993M9.49993 12.3462H12.5384M6.80762 12.3462H7.49993" stroke="currentColor" stroke-linecap="round"/><path d="M1.5 3C1.5 2.17157 2.17157 1.5 3 1.5H10C10.8284 1.5 11.5 2.17157 11.5 3V7C11.5 7.82843 10.8284 8.5 10 8.5H3C2.17157 8.5 1.5 7.82843 1.5 7V3Z" stroke="currentColor"/><path d="M8 5L5.5 3.5V6.5L8 5Z" stroke="currentColor" stroke-linecap="round" stroke-linejoin="round"/></svg>
