<svg xmlns="http://www.w3.org/2000/svg" fill="none" viewBox="0 0 16 16" width="1em" height="1em"><path stroke="currentColor" stroke-linecap="round" d="M13.071 7.5v0c.79 0 1.429.64 1.429 1.428V13a1.5 1.5 0 0 1-1.5 1.5H6A1.5 1.5 0 0 1 4.5 13v-2.921m5 .421h3m-5.692 0H7.5m2 1.846h3.038m-5.73 0H7.5"/><path stroke="currentColor" d="M1.5 3A1.5 1.5 0 0 1 3 1.5h7A1.5 1.5 0 0 1 11.5 3v4A1.5 1.5 0 0 1 10 8.5H3A1.5 1.5 0 0 1 1.5 7V3Z"/><path stroke="currentColor" stroke-linecap="round" stroke-linejoin="round" d="M8 5 5.5 3.5v3L8 5Z"/></svg>
