<svg viewBox="0 0 16 16" fill="none" xmlns="http://www.w3.org/2000/svg" width="1em" height="1em"><path d="M13.0714 7.49988V7.49988C13.8604 7.49988 14.5 8.13947 14.5 8.92845V12.9999C14.5 13.8283 13.8284 14.4999 13 14.4999H6C5.17157 14.4999 4.5 13.8283 4.5 12.9999V10.0788" stroke="currentColor" stroke-linecap="round"/><path d="M9.49999 10.4999H12.5M6.80768 10.4999H7.49999M9.49999 12.3461H12.5384M6.80768 12.3461H7.49999" stroke="currentColor" stroke-linecap="round"/><path d="M1.5 3C1.5 2.17157 2.17157 1.5 3 1.5L10 1.5C10.8284 1.5 11.5 2.17157 11.5 3V7C11.5 7.82843 10.8284 8.5 10 8.5H3C2.17157 8.5 1.5 7.82843 1.5 7L1.5 3Z" stroke="currentColor"/><path d="M8 5L5.5 3.5V6.5L8 5Z" stroke="currentColor" stroke-linecap="round" stroke-linejoin="round"/></svg>
