<svg viewBox="0 0 24 24" fill="none" xmlns="http://www.w3.org/2000/svg" width="1em" height="1em"><path d="M19.5 12H20C20.8284 12 21.5 12.6716 21.5 13.5V20C21.5 20.8284 20.8284 21.5 20 21.5H9C8.17157 21.5 7.5 20.8284 7.5 20V15.5" stroke="currentColor" stroke-linecap="round"/><path d="M13.5 14.5H18.5M10.5 14.5H11.5M13.5 16.5H18.5M10.5 16.5H11.5M13.5 18.5H18.5M10.5 18.5H11.5" stroke="currentColor" stroke-linecap="round"/><path d="M2.5 4C2.5 3.17157 3.17157 2.5 4 2.5H15C15.8284 2.5 16.5 3.17157 16.5 4V11C16.5 11.8284 15.8284 12.5 15 12.5H4C3.17157 12.5 2.5 11.8284 2.5 11V4Z" stroke="currentColor"/><path d="M11.3136 7.07125C11.6373 7.26546 11.6373 7.73455 11.3136 7.92875L9.25725 9.16256C8.92399 9.36251 8.5 9.12246 8.5 8.73381L8.5 6.26619C8.5 5.87754 8.92399 5.63749 9.25725 5.83744L11.3136 7.07125Z" stroke="currentColor" stroke-linecap="round" stroke-linejoin="round"/></svg>
