<svg viewBox="0 0 32 32" fill="none" xmlns="http://www.w3.org/2000/svg" width="1em" height="1em"><path d="M24.5 14C24.2239 14 24 14.2239 24 14.5C24 14.7761 24.2239 15 24.5 15V14ZM11 20.5C11 20.2239 10.7761 20 10.5 20C10.2239 20 10 20.2239 10 20.5H11ZM29 16.5V27.5H30V16.5H29ZM27.5 29H12.5V30H27.5V29ZM24.5 15H27.5V14H24.5V15ZM11 27.5V20.5H10V27.5H11ZM12.5 29C11.6716 29 11 28.3284 11 27.5H10C10 28.8807 11.1193 30 12.5 30V29ZM29 27.5C29 28.3284 28.3284 29 27.5 29V30C28.8807 30 30 28.8807 30 27.5H29ZM30 16.5C30 15.1193 28.8807 14 27.5 14V15C28.3284 15 29 15.6716 29 16.5H30Z" fill="currentColor"/><path d="M19.5 19C19.2239 19 19 19.2239 19 19.5C19 19.7761 19.2239 20 19.5 20V19ZM26.5 20C26.7761 20 27 19.7761 27 19.5C27 19.2239 26.7761 19 26.5 19V20ZM19.5 21C19.2239 21 19 21.2239 19 21.5C19 21.7761 19.2239 22 19.5 22V21ZM23 22C23.2761 22 23.5 21.7761 23.5 21.5C23.5 21.2239 23.2761 21 23 21V22ZM19.5 20H26.5V19H19.5V20ZM19.5 22H23V21H19.5V22Z" fill="currentColor"/><rect x="13.5" y="19.5" width="4" height="3" rx="0.5" stroke="currentColor"/><path d="M19.5 24C19.2239 24 19 24.2239 19 24.5C19 24.7761 19.2239 25 19.5 25V24ZM26.5 25C26.7761 25 27 24.7761 27 24.5C27 24.2239 26.7761 24 26.5 24V25ZM19.5 26C19.2239 26 19 26.2239 19 26.5C19 26.7761 19.2239 27 19.5 27V26ZM23 27C23.2761 27 23.5 26.7761 23.5 26.5C23.5 26.2239 23.2761 26 23 26V27ZM19.5 25H26.5V24H19.5V25ZM19.5 27H23V26H19.5V27Z" fill="currentColor"/><rect x="13.5" y="24.5" width="4" height="3" rx="0.5" stroke="currentColor"/><path d="M2.5 4C2.5 3.17157 3.17157 2.5 4 2.5H20C20.8284 2.5 21.5 3.17157 21.5 4V16C21.5 16.8284 20.8284 17.5 20 17.5H4C3.17157 17.5 2.5 16.8284 2.5 16V4Z" stroke="currentColor"/><path d="M14.67 8.81588C15.0059 9.00783 15.0059 9.49217 14.67 9.68412L10.2481 12.2109C9.91474 12.4014 9.5 12.1607 9.5 11.7768L9.5 6.72318C9.5 6.33927 9.91474 6.09858 10.2481 6.28906L14.67 8.81588Z" stroke="currentColor" stroke-linecap="round" stroke-linejoin="round"/><path d="M5.5 14.5H17.5" stroke="currentColor" stroke-linecap="round"/><path d="M16.25 14.5C16.25 14.9142 15.9142 15.25 15.5 15.25C15.0858 15.25 14.75 14.9142 14.75 14.5C14.75 14.0858 15.0858 13.75 15.5 13.75C15.9142 13.75 16.25 14.0858 16.25 14.5Z" stroke="currentColor" stroke-width="0.5"/></svg>
