<svg viewBox="0 0 16 16" fill="none" xmlns="http://www.w3.org/2000/svg" width="1em" height="1em"><path d="M5 10.0789C5 9.8028 4.77614 9.57895 4.5 9.57895C4.22386 9.57895 4 9.8028 4 10.0789H5ZM13.0714 7C12.7953 7 12.5714 7.22386 12.5714 7.5C12.5714 7.77614 12.7953 8 13.0714 8V7ZM14 8.92857V13H15V8.92857H14ZM13 14H6V15H13V14ZM5 13V10.0789H4V13H5ZM6 14C5.44772 14 5 13.5523 5 13H4C4 14.1046 4.89543 15 6 15V14ZM14 13C14 13.5523 13.5523 14 13 14V15C14.1046 15 15 14.1046 15 13H14ZM15 8.92857C15 7.86345 14.1365 7 13.0714 7V8C13.5843 8 14 8.41574 14 8.92857H15Z" fill="currentColor"/><path d="M9.49993 10C9.22378 10 8.99993 10.2239 8.99993 10.5C8.99993 10.7761 9.22378 11 9.49993 11V10ZM12.4999 11C12.7761 11 12.9999 10.7761 12.9999 10.5C12.9999 10.2239 12.7761 10 12.4999 10V11ZM6.80762 10C6.53148 10 6.30762 10.2239 6.30762 10.5C6.30762 10.7761 6.53148 11 6.80762 11V10ZM7.49993 11C7.77607 11 7.99993 10.7761 7.99993 10.5C7.99993 10.2239 7.77607 10 7.49993 10V11ZM9.49993 11.8462C9.22378 11.8462 8.99993 12.07 8.99993 12.3462C8.99993 12.6223 9.22378 12.8462 9.49993 12.8462V11.8462ZM12.5384 12.8462C12.8145 12.8462 13.0384 12.6223 13.0384 12.3462C13.0384 12.07 12.8145 11.8462 12.5384 11.8462V12.8462ZM6.80762 11.8462C6.53148 11.8462 6.30762 12.07 6.30762 12.3462C6.30762 12.6223 6.53148 12.8462 6.80762 12.8462V11.8462ZM7.49993 12.8462C7.77607 12.8462 7.99993 12.6223 7.99993 12.3462C7.99993 12.07 7.77607 11.8462 7.49993 11.8462V12.8462ZM9.49993 11H12.4999V10H9.49993V11ZM6.80762 11H7.49993V10H6.80762V11ZM9.49993 12.8462H12.5384V11.8462H9.49993V12.8462ZM6.80762 12.8462H7.49993V11.8462H6.80762V12.8462Z" fill="currentColor"/><path d="M1.5 3C1.5 2.17157 2.17157 1.5 3 1.5H10C10.8284 1.5 11.5 2.17157 11.5 3V7C11.5 7.82843 10.8284 8.5 10 8.5H3C2.17157 8.5 1.5 7.82843 1.5 7V3Z" stroke="currentColor"/><path d="M8 5L5.5 3.5V6.5L8 5Z" stroke="currentColor" stroke-linecap="round" stroke-linejoin="round"/></svg>
