<svg xmlns="http://www.w3.org/2000/svg" fill="none" viewBox="0 0 24 24" width="1em" height="1em"><circle cx="10" cy="10" r="7.5" stroke="currentColor"/><path stroke="currentColor" stroke-linecap="round" stroke-linejoin="round" d="m21.5 21-5.657-5.657"/><path fill="currentColor" fill-rule="evenodd" d="M16.354 6.854a.5.5 0 0 0-.707-.708L14 7.793l-1.146-1.147a.5.5 0 0 0-.688-.018L10.15 8.443 7.854 6.146a.5.5 0 1 0-.708.708l2.26 2.258-2.24 2.016a.5.5 0 1 0 .668.744l4.648-4.183 1.165 1.165a.5.5 0 0 0 .707 0l2-2Z" clip-rule="evenodd"/></svg>
