<svg xmlns="http://www.w3.org/2000/svg" fill="none" viewBox="0 0 32 32" width="1em" height="1em"><circle cx="12.784" cy="12.784" r="10.284" stroke="currentColor"/><path stroke="currentColor" stroke-linecap="round" stroke-linejoin="round" d="m29.5 29.51-9.17-9.17"/><path fill="currentColor" fill-rule="evenodd" d="M9.854 8.146a.5.5 0 1 0-.708.708l2.897 2.896-2.397 2.396a.5.5 0 0 0 .708.708L15 10.207l2.646 2.647a.5.5 0 0 0 .708 0l4-4a.5.5 0 0 0-.708-.708L18 11.793l-2.646-2.647a.5.5 0 0 0-.708 0l-1.896 1.897z" clip-rule="evenodd"/></svg>
