<svg viewBox="0 0 16 16" fill="none" xmlns="http://www.w3.org/2000/svg" width="1em" height="1em"><circle cx="6.5" cy="6.5" r="5" stroke="currentColor"/><path d="M14.5 14.5044L10.2573 10.2618" stroke="currentColor" stroke-linecap="round" stroke-linejoin="round"/><path fill-rule="evenodd" clip-rule="evenodd" d="M8.4 4.2C8.31303 4.08404 8.18003 4.01153 8.03544 4.00126C7.89086 3.99098 7.74894 4.04396 7.64645 4.14645L6.25 5.54289L5.35355 4.64645C5.15829 4.45119 4.84171 4.45119 4.64645 4.64645C4.45118 4.84171 4.45118 5.15829 4.64645 5.35355L5.54289 6.25L4.64645 7.14645C4.45118 7.34171 4.45118 7.65829 4.64645 7.85355C4.84171 8.04882 5.15829 8.04882 5.35355 7.85355L7.9459 5.26121L9.1 6.8C9.18697 6.91596 9.31997 6.98847 9.46456 6.99874C9.60914 7.00902 9.75106 6.95605 9.85355 6.85355L11.3536 5.35355C11.5488 5.15829 11.5488 4.84171 11.3536 4.64645C11.1583 4.45119 10.8417 4.45119 10.6464 4.64645L9.5541 5.7388L8.4 4.2Z" fill="currentColor"/></svg>
