<svg xmlns="http://www.w3.org/2000/svg" fill="none" viewBox="0 0 24 24" width="1em" height="1em"><path stroke="currentColor" stroke-linecap="round" d="M19.5 7.5v-2a2 2 0 0 0-2-2h-12a2 2 0 0 0-2 2v13a2 2 0 0 0 2 2h12a2 2 0 0 0 2-2v-2m-13-10h10m-10 3h5m-5 3h5"/><path stroke="currentColor" d="M6.5 16.5a1 1 0 0 1 1-1h5a1 1 0 1 1 0 2h-5a1 1 0 0 1-1-1Zm9.912-.721-2.654-6.633a.1.1 0 0 1 .13-.13l6.634 2.653a.1.1 0 0 1 .003.184l-2.693 1.185a.1.1 0 0 0-.051.051l-1.185 2.693a.1.1 0 0 1-.184-.003Z"/></svg>
