<svg xmlns="http://www.w3.org/2000/svg" fill="none" viewBox="0 0 32 32" width="1em" height="1em"><path stroke="currentColor" stroke-linecap="round" d="M23.5 9.333V6.5a2 2 0 0 0-2-2h-15a2 2 0 0 0-2 2v19a2 2 0 0 0 2 2h15a2 2 0 0 0 2-2v-1.944"/><path stroke="currentColor" d="M13.5 23.5a1 1 0 0 1 1-1h5a1 1 0 1 1 0 2h-5a1 1 0 0 1-1-1Z"/><path stroke="currentColor" stroke-linecap="round" d="M7.5 9.5h13m-13 4H17m-9.5 4H17"/><path stroke="currentColor" d="m22.278 20.798-3.369-8.76a.1.1 0 0 1 .13-.129l8.76 3.37a.1.1 0 0 1 .005.184l-3.638 1.653a.1.1 0 0 0-.05.05l-1.653 3.637a.1.1 0 0 1-.185-.005Z"/></svg>
