<svg viewBox="0 0 24 24" fill="none" xmlns="http://www.w3.org/2000/svg" width="1em" height="1em"><path fill-rule="evenodd" clip-rule="evenodd" d="M7.73257 14.9998C7.3868 15.5977 6.74038 16 6 16H3C2.44772 16 2 15.5523 2 15V6.00003C2 5.44775 2.44772 5.00003 3 5.00003H6C6.70947 5.00003 7.33266 5.36944 7.68771 5.92641L10.5935 5.09638C10.8167 5.0326 11.0478 5.00024 11.2799 5.00023L14.6457 4.99998C14.6494 4.99982 14.653 4.99971 14.6567 4.99964C14.66 4.99957 14.6634 4.99954 14.6667 4.99954H18.25C19.2165 4.99954 20 5.78304 20 6.74954C20 7.05169 19.9234 7.33596 19.7886 7.584C20.4916 7.81116 21 8.47097 21 9.24954C21 9.62783 20.88 9.97807 20.6759 10.2643C21.1708 10.5734 21.5 11.123 21.5 11.7495C21.5 12.1278 21.38 12.4781 21.1759 12.7643C21.6708 13.0734 22 13.623 22 14.2495C22 15.216 21.2165 15.9995 20.25 15.9995H14.1937L14.5023 16.9257C14.8465 17.9585 14.7663 19.0857 14.2794 20.0593L14.2303 20.1575C13.9721 20.6737 13.4444 20.9998 12.8673 20.9998C12.1224 20.9997 11.4868 20.4612 11.3643 19.7265L11.2228 18.8777C11.0921 18.0936 10.7965 17.3461 10.3555 16.6847L9.23239 15L7.73257 14.9998Z" fill="currentColor"/></svg>
