<svg xmlns="http://www.w3.org/2000/svg" fill="none" viewBox="0 0 32 32" width="1em" height="1em"><path fill="currentColor" fill-rule="evenodd" d="m15.075 8.106-4.18 1.254A2 2 0 0 0 9 8H5a1 1 0 0 0-1 1v12a1 1 0 0 0 1 1h4a2 2 0 0 0 1.733-1h2.008a.5.5 0 0 1 .243.062l3.245 1.804a1.5 1.5 0 0 1 .77 1.31v.754c0 .782.397 1.76 1.388 1.96.574.117 1.342.089 1.967-.536.532-.532.703-1.329.753-1.985a8.014 8.014 0 0 0-.069-1.677 2.147 2.147 0 0 0-.21-.656L20.308 21H26a2 2 0 0 0 1.032-3.714 1.999 1.999 0 0 0-.5-3 2 2 0 0 0-1.306-3.274A2 2 0 0 0 23.5 8h-7.708a2.5 2.5 0 0 0-.718.106Z" clip-rule="evenodd"/></svg>
