<svg xmlns="http://www.w3.org/2000/svg" fill="none" viewBox="0 0 16 16" width="1em" height="1em"><path fill="currentColor" fill-rule="evenodd" d="M13.5 3.5c0 .267-.07.518-.193.736a1.5 1.5 0 0 1 .5 2 1.5 1.5 0 0 1 .5 2A1.499 1.499 0 0 1 13.5 11h-3.39l.13.654a3.58 3.58 0 0 1-.533 2.687A1.477 1.477 0 0 1 7 13.523v-.946l-1.133-1.84a.5.5 0 0 0-.425-.237h-.576A1 1 0 0 1 4 11H2a1 1 0 0 1-1-1V3a1 1 0 0 1 1-1h2a1 1 0 0 1 .958.712l.896-.448A2.5 2.5 0 0 1 6.972 2H12a1.5 1.5 0 0 1 1.5 1.5M5 9.5h.5v.001z" clip-rule="evenodd"/></svg>
