<svg xmlns="http://www.w3.org/2000/svg" fill="none" viewBox="0 0 24 24" width="1em" height="1em"><path fill="currentColor" fill-rule="evenodd" d="M7.733 15A2 2 0 0 1 6 16H3a1 1 0 0 1-1-1V6a1 1 0 0 1 1-1h3a2 2 0 0 1 1.688.926l2.906-.83A2.5 2.5 0 0 1 11.28 5h3.366a.505.505 0 0 1 .02 0h3.584a1.75 1.75 0 0 1 1.539 2.584 1.75 1.75 0 0 1 .887 2.68 1.749 1.749 0 0 1 .5 2.5 1.749 1.749 0 0 1-.926 3.235h-6.056l.308.926a4.104 4.104 0 0 1-.223 3.134l-.049.098a1.524 1.524 0 0 1-2.866-.43l-.141-.85a5.619 5.619 0 0 0-.868-2.193L9.232 15h-1.5Z" clip-rule="evenodd"/></svg>
