<svg xmlns="http://www.w3.org/2000/svg" fill="none" viewBox="0 0 16 16" width="1em" height="1em"><path stroke="currentColor" d="M2.5 6.5v5a2 2 0 0 0 2 2h7a2 2 0 0 0 2-2v-5"/><mask id="iconsShopSize16Px__a" fill="#fff"><path fill-rule="evenodd" d="M14.043 1.72a1 1 0 0 0-.96-.72H2.917a1 1 0 0 0-.96.72L1.04 4.863a.8.8 0 0 0-.035.28 2 2 0 0 0 3.933.352C5.006 5.227 5.224 5 5.5 5s.494.227.562.495a2 2 0 0 0 3.876 0c.068-.268.286-.495.562-.495s.493.227.562.495a2 2 0 0 0 3.933-.352.8.8 0 0 0-.035-.28z" clip-rule="evenodd"/></mask><path fill="currentColor" d="m14.995 5.143.998.07zm-.035-.28.96-.28zm-3.898.632.969-.247zm-1.124 0-.969-.247zm-5 0-.969-.247zM1.04 4.863l-.96-.28zm-.035.28-.998.07zM14.043 1.72l-.96.28zM6.062 5.495l-.97.247zM2.917 2h10.166V0H2.917zM2 5.143 2.917 2l-1.92-.56L.08 4.583zM3 6a1 1 0 0 1-.997-.928l-1.996.141A3 3 0 0 0 3 8zm.97-.752A1 1 0 0 1 3 6v2a3 3 0 0 0 2.907-2.258zM8 6a1 1 0 0 1-.97-.752l-1.937.494A3 3 0 0 0 8 8zm.97-.752A1 1 0 0 1 8 6v2a3 3 0 0 0 2.907-2.258zM13 6a1 1 0 0 1-.97-.752l-1.937.494A3 3 0 0 0 13 8zm.997-.928A1 1 0 0 1 13 6v2a3 3 0 0 0 2.992-2.787zM13.083 2 14 5.143l1.92-.56-.917-3.143zm2.91 3.213a1.8 1.8 0 0 0-.073-.63l-1.92.56q.002.008-.001-.009a.3.3 0 0 1-.002-.062zM10.5 6a.48.48 0 0 1-.321-.12.3.3 0 0 1-.086-.138l1.938-.494C11.888 4.688 11.37 4 10.5 4zm.407-.258a.3.3 0 0 1-.086.138.48.48 0 0 1-.321.12V4c-.872 0-1.388.687-1.53 1.248zm-5 0a.3.3 0 0 1-.086.138A.48.48 0 0 1 5.5 6V4c-.872 0-1.388.687-1.53 1.248zM.08 4.582c-.049.169-.09.386-.073.631l1.996-.14q.002.043-.002.061-.003.016-.001.009zM13.083 2l1.92-.56A2 2 0 0 0 13.083 0zM5.5 6a.48.48 0 0 1-.321-.12.3.3 0 0 1-.086-.138l1.938-.494C6.888 4.688 6.37 4 5.5 4zM2.917 0a2 2 0 0 0-1.92 1.44l1.92.56z" mask="url(#iconsShopSize16Px__a)"/><path stroke="currentColor" d="M5.5 10a.5.5 0 0 1 .5-.5h4a.5.5 0 0 1 .5.5v3.5h-5z"/></svg>
