<svg xmlns="http://www.w3.org/2000/svg" fill="none" viewBox="0 0 32 32" width="1em" height="1em"><path stroke="currentColor" d="M5.5 12.5v13a2 2 0 0 0 2 2h17a2 2 0 0 0 2-2v-13"/><mask id="iconsShopSize32Px__a" fill="#fff"><path fill-rule="evenodd" d="M26.414 5.45A2 2 0 0 0 24.491 4H7.51a2 2 0 0 0-1.923 1.45l-1.51 5.28a2 2 0 0 0-.076.55v.22a1.5 1.5 0 0 0 3 0 1.5 1.5 0 0 0 3 0 1.5 1.5 0 0 0 3 0 1.5 1.5 0 0 0 3 0 1.5 1.5 0 0 0 3 0 1.5 1.5 0 0 0 3 0 1.5 1.5 0 0 0 3 0 1.5 1.5 0 0 0 3 0v-.22c0-.186-.026-.37-.077-.55l-1.509-5.28Z" clip-rule="evenodd"/></mask><path fill="currentColor" d="M8 11.5a1 1 0 1 0-2 0h2Zm3 0a1 1 0 1 0-2 0h2Zm3 0a1 1 0 1 0-2 0h2Zm3 0a1 1 0 1 0-2 0h2Zm3 0a1 1 0 1 0-2 0h2Zm3 0a1 1 0 1 0-2 0h2Zm3 0a1 1 0 1 0-2 0h2Zm-21.923-.77-.962-.274.962.275Zm22.337-5.28.962-.274-.962.275Zm1.509 5.28.962-.274-.962.275ZM7.509 5H24.49V3H7.51v2Zm-2.47 6.005 1.508-5.28-1.923-.55-1.509 5.28 1.923.55ZM3 11.28v.22h2v-.22H3Zm0 .22A2.5 2.5 0 0 0 5.5 14v-2a.5.5 0 0 1-.5-.5H3ZM5.5 14A2.5 2.5 0 0 0 8 11.5H6a.5.5 0 0 1-.5.5v2Zm.5-2.5A2.5 2.5 0 0 0 8.5 14v-2a.5.5 0 0 1-.5-.5H6ZM8.5 14a2.5 2.5 0 0 0 2.5-2.5H9a.5.5 0 0 1-.5.5v2Zm.5-2.5a2.5 2.5 0 0 0 2.5 2.5v-2a.5.5 0 0 1-.5-.5H9Zm2.5 2.5a2.5 2.5 0 0 0 2.5-2.5h-2a.5.5 0 0 1-.5.5v2Zm.5-2.5a2.5 2.5 0 0 0 2.5 2.5v-2a.5.5 0 0 1-.5-.5h-2Zm2.5 2.5a2.5 2.5 0 0 0 2.5-2.5h-2a.5.5 0 0 1-.5.5v2Zm.5-2.5a2.5 2.5 0 0 0 2.5 2.5v-2a.5.5 0 0 1-.5-.5h-2Zm2.5 2.5a2.5 2.5 0 0 0 2.5-2.5h-2a.5.5 0 0 1-.5.5v2Zm.5-2.5a2.5 2.5 0 0 0 2.5 2.5v-2a.5.5 0 0 1-.5-.5h-2Zm2.5 2.5a2.5 2.5 0 0 0 2.5-2.5h-2a.5.5 0 0 1-.5.5v2Zm.5-2.5a2.5 2.5 0 0 0 2.5 2.5v-2a.5.5 0 0 1-.5-.5h-2Zm2.5 2.5a2.5 2.5 0 0 0 2.5-2.5h-2a.5.5 0 0 1-.5.5v2Zm.5-2.5a2.5 2.5 0 0 0 2.5 2.5v-2a.5.5 0 0 1-.5-.5h-2Zm2.5 2.5a2.5 2.5 0 0 0 2.5-2.5h-2a.5.5 0 0 1-.5.5v2Zm2.5-2.5v-.22h-2v.22h2Zm-3.547-5.775 1.509 5.28 1.923-.55-1.509-5.28-1.923.55Zm-22.338 4.73A3 3 0 0 0 3 11.28h2a1 1 0 0 1 .038-.275l-1.923-.55ZM24.491 5a1 1 0 0 1 .962.725l1.923-.55A3 3 0 0 0 24.491 3v2ZM29 11.28a3 3 0 0 0-.115-.824l-1.924.55a.976.976 0 0 1 .039.274h2ZM7.509 3a3 3 0 0 0-2.885 2.176l1.923.55A1 1 0 0 1 7.51 5V3Z" mask="url(#iconsShopSize32Px__a)"/><path stroke="currentColor" d="M9.5 15a.5.5 0 0 1 .5-.5h12a.5.5 0 0 1 .5.5v4a.5.5 0 0 1-.5.5H10a.5.5 0 0 1-.5-.5v-4Zm0 7a.5.5 0 0 1 .5-.5h4a.5.5 0 0 1 .5.5v5.5h-5V22Zm8 0a.5.5 0 0 1 .5-.5h4a.5.5 0 0 1 .5.5v5.5h-5V22Z"/></svg>
