<svg xmlns="http://www.w3.org/2000/svg" fill="none" viewBox="0 0 24 24" width="1em" height="1em"><path stroke="currentColor" d="M3.5 8v10.5a2 2 0 0 0 2 2h13a2 2 0 0 0 2-2V8"/><mask id="iconsShopSize24Px__a" fill="#fff"><path fill-rule="evenodd" d="M20.79 3.368A2 2 0 0 0 18.891 2H5.108a2 2 0 0 0-1.897 1.368L2.103 6.692c-.068.204-.111.42-.077.631a2.002 2.002 0 0 0 3.977-.319 2.001 2.001 0 0 0 4 .102A2.001 2.001 0 0 0 14 7.076a2.001 2.001 0 0 0 4 0 2 2 0 0 0 3.973.247c.035-.212-.009-.427-.076-.63l-1.109-3.325Z" clip-rule="evenodd"/></mask><path fill="currentColor" d="m6.003 7.004 1-.002a1 1 0 0 0-2 0l1 .002Zm4 .102L11 7.054a1 1 0 0 0-1.997 0l.999.052ZM14 7.076l1-.038a1 1 0 0 0-1.999 0l1 .037Zm4 0 1-.038a1 1 0 0 0-1.999 0l1 .037Zm3.973.247.987.16-.987-.16Zm-.076-.63-.95.315.95-.316Zm-19.795 0-.949-.317.949.316ZM5.108 3h13.784V1H5.108v2ZM3.051 7.008 4.16 3.684 2.262 3.05 1.154 6.376l1.897.632Zm.95.992c-.497 0-.91-.363-.988-.837l-1.974.32A3.002 3.002 0 0 0 4.001 10V8Zm1.002-.998C5.002 7.552 4.553 8 4 8v2a3.001 3.001 0 0 0 3.002-2.993l-2-.005ZM8.004 8a1 1 0 0 1-1.001-.998l-2 .005A3.001 3.001 0 0 0 8.004 10V8Zm1-.946a1.001 1.001 0 0 1-1 .946v2a3.001 3.001 0 0 0 2.998-2.842l-1.998-.104ZM12.002 8a1 1 0 0 1-1-.946l-1.998.104A3.001 3.001 0 0 0 12.002 10V8Zm1-.962a1 1 0 0 1-1 .962v2A3.001 3.001 0 0 0 15 7.112l-1.999-.074Zm3 .962c-.54 0-.981-.428-1.001-.962l-1.999.074a3.001 3.001 0 0 0 3 2.888V8Zm1-.962a1 1 0 0 1-1 .962v2A3.001 3.001 0 0 0 19 7.112l-1.999-.074ZM20 8a1 1 0 0 1-1-.962l-1.998.074A3 3 0 0 0 20 10V8Zm.987-.837A1 1 0 0 1 20 8v2a3 3 0 0 0 2.961-2.516l-1.974-.321Zm-1.146-3.48 1.108 3.325 1.897-.632-1.108-3.325-1.897.633Zm3.12 3.8c.072-.443-.025-.838-.115-1.107l-1.897.632a.813.813 0 0 1 .035.137c.004.027.001.03.003.018l1.974.32ZM1.154 6.377c-.09.27-.187.664-.115 1.108l1.974-.321c.002.012 0 .009.003-.018a.806.806 0 0 1 .035-.137l-1.897-.632ZM18.892 3a1 1 0 0 1 .949.684l1.897-.633A3 3 0 0 0 18.892 1v2ZM5.108 1a3 3 0 0 0-2.846 2.051l1.898.633A1 1 0 0 1 5.108 3V1Z" mask="url(#iconsShopSize24Px__a)"/><path stroke="currentColor" d="M6.5 11a.5.5 0 0 1 .5-.5h10a.5.5 0 0 1 .5.5v2a.5.5 0 0 1-.5.5H7a.5.5 0 0 1-.5-.5v-2Zm0 5a.5.5 0 0 1 .5-.5h3a.5.5 0 0 1 .5.5v4.5h-4V16Zm7 0a.5.5 0 0 1 .5-.5h3a.5.5 0 0 1 .5.5v4.5h-4V16Z"/></svg>
