<svg xmlns="http://www.w3.org/2000/svg" fill="none" viewBox="0 0 24 24" width="1em" height="1em"><path stroke="currentColor" d="M3.5 8v10.5a2 2 0 0 0 2 2h13a2 2 0 0 0 2-2V8"/><mask id="iconsShopSize24Px__a" fill="#fff"><path fill-rule="evenodd" d="M20.79 3.368A2 2 0 0 0 18.891 2H5.108a2 2 0 0 0-1.897 1.368L2.103 6.692c-.068.204-.111.42-.077.631a2.002 2.002 0 0 0 3.977-.319 2.001 2.001 0 0 0 4 .102 2.001 2.001 0 0 0 3.999-.03 2.001 2.001 0 0 0 4 0 2 2 0 0 0 3.972.247c.035-.212-.009-.427-.076-.63z" clip-rule="evenodd"/></mask><path fill="currentColor" d="m6.003 7.004 1-.002a1 1 0 0 0-2 0zm4 .102.999-.052a1 1 0 0 0-1.998 0zm3.999-.03L15 7.037a1 1 0 0 0-1.999 0zm4 0L19 7.037a1 1 0 0 0-1.999 0zm3.972.247.987.16zm-.076-.63-.95.315zm-19.795 0-.949-.317zM5.108 3h13.784V1H5.108zM3.051 7.008 4.16 3.684 2.262 3.05 1.154 6.376zm.95.992c-.497 0-.91-.363-.988-.837l-1.974.32A3 3 0 0 0 4.001 10zm1.002-.998C5.002 7.552 4.553 8 4 8v2a3 3 0 0 0 3.002-2.993zM8.004 8a1 1 0 0 1-1.001-.998l-2 .005A3 3 0 0 0 8.004 10zm1-.946a1 1 0 0 1-1 .946v2a3 3 0 0 0 2.998-2.842zM12.002 8a1 1 0 0 1-1-.946l-1.998.104A3 3 0 0 0 12.002 10zm1-.962a1 1 0 0 1-1 .962v2A3 3 0 0 0 15 7.112zm3 .962c-.54 0-.981-.428-1.001-.962l-1.999.074a3 3 0 0 0 3 2.888zm1-.962a1 1 0 0 1-1 .962v2A3 3 0 0 0 19 7.112zM20 8a1 1 0 0 1-1-.962l-1.998.074A3 3 0 0 0 20 10zm.987-.837A1 1 0 0 1 20 8v2a3 3 0 0 0 2.961-2.516zm-1.146-3.48 1.108 3.325 1.897-.632-1.108-3.325zm3.12 3.8c.072-.443-.025-.838-.115-1.107l-1.897.632a1 1 0 0 1 .035.137c.004.027.001.03.003.018zM1.154 6.377c-.09.27-.187.664-.115 1.108l1.974-.321c.002.012 0 .009.003-.018a1 1 0 0 1 .035-.137zM18.892 3a1 1 0 0 1 .949.684l1.897-.633A3 3 0 0 0 18.892 1zM5.108 1a3 3 0 0 0-2.846 2.051l1.898.633A1 1 0 0 1 5.108 3z" mask="url(#iconsShopSize24Px__a)"/><path stroke="currentColor" d="M6.5 11a.5.5 0 0 1 .5-.5h10a.5.5 0 0 1 .5.5v2a.5.5 0 0 1-.5.5H7a.5.5 0 0 1-.5-.5zm0 5a.5.5 0 0 1 .5-.5h3a.5.5 0 0 1 .5.5v4.5h-4zm7 0a.5.5 0 0 1 .5-.5h3a.5.5 0 0 1 .5.5v4.5h-4z"/></svg>
