<svg xmlns="http://www.w3.org/2000/svg" fill="none" viewBox="0 0 24 24" width="1em" height="1em"><circle cx="12.25" cy="17" r="4.5" stroke="currentColor"/><path stroke="currentColor" d="m12.25 14.618.31.955a1 1 0 0 0 .951.69h1.004l-.812.591a1 1 0 0 0-.363 1.118l.31.955-.812-.59a1 1 0 0 0-1.176 0l-.812.59.31-.955a1 1 0 0 0-.363-1.118l-.812-.59h1.004a1 1 0 0 0 .95-.691l.311-.955Z"/><rect width="3.889" height="11.667" x="4" y="4.75" stroke="currentColor" rx="1.5" transform="rotate(-45 4 4.75)"/><rect width="3.889" height="11.667" stroke="currentColor" rx="1.5" transform="scale(-1 1) rotate(-45 -4.516 27.12)"/></svg>
