<svg xmlns="http://www.w3.org/2000/svg" fill="none" viewBox="0 0 32 32" width="1em" height="1em"><circle cx="16.5" cy="23" r="5.5" stroke="currentColor"/><path stroke="currentColor" stroke-linejoin="round" d="M13.284 21.955h1.73a1 1 0 0 0 .951-.691l.535-1.646.535 1.646a1 1 0 0 0 .95.69h1.731l-1.4 1.018a1 1 0 0 0-.363 1.118l.535 1.646-1.4-1.017a1 1 0 0 0-1.176 0l-1.4 1.017.535-1.646a1 1 0 0 0-.363-1.118l-1.4-1.017Zm0 0v-.5.5l-.294.404.294-.404Z"/><rect width="5" height="16" x="5" y="6.536" stroke="currentColor" rx="2" transform="rotate(-45 5 6.536)"/><rect width="5" height="16" stroke="currentColor" rx="2" transform="scale(-1 1) rotate(-45 -6.035 36.885)"/></svg>
