<svg xmlns="http://www.w3.org/2000/svg" fill="none" viewBox="0 0 16 16" width="1em" height="1em"><rect width="2.828" height="8.485" x="2" y="3" stroke="currentColor" rx="1.414" transform="rotate(-45 2 3)"/><rect width="2.828" height="8.485" stroke="currentColor" rx="1.414" transform="scale(-1 1)rotate(-45 -3.379 18.4)"/><path stroke="currentColor" stroke-linejoin="round" d="m8 10.63.081.164a.75.75 0 0 0 .565.41l.182.027-.132.128a.75.75 0 0 0-.216.664l.493-.084-.493.084.032.181-.163-.085a.75.75 0 0 0-.698 0l-.162.085.03-.18a.75.75 0 0 0-.215-.665l-.132-.128.182-.026a.75.75 0 0 0 .565-.41z"/><circle cx="8" cy="11.5" r="3" stroke="currentColor"/></svg>
