<svg xmlns="http://www.w3.org/2000/svg" fill="none" viewBox="0 0 32 32" width="1em" height="1em"><circle cx="16" cy="16" r="1.5" stroke="currentColor" stroke-linecap="round"/><path stroke="currentColor" stroke-linecap="round" d="M20 16a4 4 0 1 1-4-4m0 4 2.5-2.5m2.103-2.103-.059-.353-.198-1.192a.23.23 0 0 0-.132-.104c-.06-.018-.085.001-.093.01m.482 1.639-.482-1.64m.482 1.64.352.058 1.193.199m-1.545-.257.434-.435 1.256.209M20.12 9.758l-.354-.354zm0 0h0m0 0h0m-2.05 4.171 1.613.57c.25.135.542.103.724-.08l2.188-2.187c.315-.315.151-.888-.303-1.061m-4.222 2.758.47-.167-.079-.225m-.392.392.167-.471.225.08m-.392.391-.133-1.856m.525 1.464 1.388.491.037.013.034.019c.082.044.128.012.134.006l2.187-2.187c.008-.008.027-.033.01-.094a.22.22 0 0 0-.104-.131m-3.686 1.883-.49-1.388-.014-.036-.018-.034-.003-.006m4.21-.42.064.011.082-.493m-.145.483-.033-.016.178-.467m-4.356.902.007-.022c.032-.082.137-.253.441-.558zm0 0-.002.008v-.007l-.001-.009zm2.184-2.315-1.736 1.735z"/><path fill="currentColor" fill-rule="evenodd" d="M19 21.196c-3.49 2.015-6.99 3.153-9.798 3.398-2.897.252-4.67-.456-5.326-1.594-.657-1.138-.385-3.027 1.283-5.41C6.775 15.28 9.51 12.819 13 10.804s6.99-3.153 9.798-3.398c2.897-.252 4.67.456 5.326 1.594.657 1.138.385 3.027-1.283 5.41-1.616 2.31-4.351 4.771-7.84 6.786m.5.866C12.326 26.204 4.943 26.848 3.01 23.5s2.316-9.42 9.49-13.562S27.057 5.152 28.99 8.5s-2.315 9.42-9.49 13.562" clip-rule="evenodd"/><path fill="currentColor" fill-rule="evenodd" d="M13 21.196c3.49 2.015 6.99 3.153 9.798 3.398 2.897.252 4.67-.456 5.326-1.594.657-1.138.385-3.027-1.283-5.41-.887-1.267-2.11-2.58-3.61-3.84a.507.507 0 0 1-.037-.746.494.494 0 0 1 .666-.031c4.413 3.7 6.629 7.932 5.13 10.527-1.933 3.348-9.315 2.704-16.49-1.438S1.077 11.848 3.01 8.5c1.784-3.09 8.21-2.78 14.831.543a.495.495 0 0 1 .124.793.51.51 0 0 1-.587.094c-2.937-1.473-5.803-2.317-8.176-2.524-2.897-.252-4.67.456-5.326 1.594-.657 1.138-.385 3.027 1.283 5.41C6.775 16.72 9.51 19.18 13 21.196" clip-rule="evenodd"/><path fill="currentColor" fill-rule="evenodd" d="M22 16c0 3.744-.761 7.085-1.945 9.452C18.842 27.88 17.35 29 16 29s-2.842-1.12-4.055-3.548C10.76 23.085 10 19.744 10 16s.761-7.085 1.945-9.452C13.158 4.12 14.65 3 16 3s2.842 1.12 4.055 3.548c.342.683.648 1.447.912 2.28.067.212.263.36.486.36a.492.492 0 0 0 .475-.637C20.688 4.615 18.498 2 16 2c-3.866 0-7 6.268-7 14s3.134 14 7 14 7-6.268 7-14q0-.195-.003-.39a.493.493 0 0 0-.495-.485.507.507 0 0 0-.504.516z" clip-rule="evenodd"/></svg>
