<svg xmlns="http://www.w3.org/2000/svg" fill="none" viewBox="0 0 24 24" width="1em" height="1em"><circle cx="12" cy="12" r=".5" stroke="currentColor" stroke-linecap="round"/><path stroke="currentColor" stroke-linecap="round" d="M15 12a3 3 0 1 1-3-3m0 3 1.414-1.414m1.696-2.004.051.378.378.051.868.117-1.715 1.716-.03-.016-.04-.013-.993-.323-.323-.993-.008-.024c.033-.062.118-.184.327-.393q0 0 0 0l1.368-1.368z"/><path fill="currentColor" fill-rule="evenodd" d="M14 15.464c-2.411 1.392-4.822 2.16-6.741 2.313-2.002.159-3.1-.358-3.486-1.027s-.285-1.879.853-3.533C5.718 11.631 7.589 9.928 10 8.536s4.822-2.161 6.741-2.313c2.002-.16 3.1.358 3.486 1.027s.285 1.878-.853 3.533c-1.092 1.586-2.963 3.289-5.374 4.681m.5.866c-5.022 2.9-10.213 3.311-11.593.92s1.57-6.68 6.593-9.58 10.212-3.312 11.593-.92c1.38 2.391-1.571 6.68-6.593 9.58" clip-rule="evenodd"/><path fill="currentColor" fill-rule="evenodd" d="M10 15.464c2.411 1.392 4.822 2.16 6.741 2.313 2.002.159 3.1-.358 3.486-1.027s.285-1.879-.853-3.533c-.517-.752-1.21-1.53-2.052-2.289a.51.51 0 0 1-.025-.74.49.49 0 0 1 .673-.022c2.798 2.514 4.143 5.317 3.123 7.084-1.38 2.391-6.571 1.98-11.593-.92S1.526 9.141 2.907 6.75c1.228-2.129 5.475-2.036 9.935.054.31.145.375.553.133.796a.51.51 0 0 1-.58.099C10.54 6.832 8.752 6.34 7.26 6.223c-2.002-.16-3.1.358-3.486 1.027s-.285 1.878.853 3.533c1.092 1.586 2.963 3.289 5.374 4.681" clip-rule="evenodd"/><path fill="currentColor" fill-rule="evenodd" d="M16 12c0 2.64-.537 4.98-1.359 6.624C13.79 20.327 12.798 21 12 21s-1.79-.673-2.641-2.376C8.537 16.98 8 14.64 8 12s.537-4.98 1.359-6.624C10.21 3.673 11.202 3 12 3s1.79.673 2.641 2.376q.075.153.149.312c.085.188.27.312.475.312a.486.486 0 0 0 .456-.68C14.806 3.282 13.478 2 12 2 9.239 2 7 6.477 7 12s2.239 10 5 10 5-4.477 5-10q0-.264-.007-.525A.49.49 0 0 0 16.5 11a.51.51 0 0 0-.506.526Q16 11.762 16 12" clip-rule="evenodd"/></svg>
