<svg xmlns="http://www.w3.org/2000/svg" fill="none" viewBox="0 0 64 64" width="1em" height="1em"><path fill="currentColor" d="M27.466 46.001a.5.5 0 0 0 .068.998zm6.117-3.6-.038.5zm8.7 1.721-.4-.3zm-22.735-1.06-.312-.39zm1.338-1.07.312.39zm1.4-.433.037-.499zm21.405 7.137.268.422zm.529-.489.4.3zm3.813-8.831.248-.434zM37.099 52.878l-.268-.422zM16.5 54h18.456v-1H16.5zm20.866-.7 6.593-4.182-.536-.844-6.592 4.182zM20.574 41.6l-1.339 1.071.625.781 1.338-1.07zm20.78 2.664L37.5 46.19l.447.895 3.855-1.928zM22.25 42.057l11.296.843.075-.997-11.297-.843zm11.289 3.532L27.466 46l.068.998 6.072-.413zM18.298 43H16.5v1h1.798zm26.322 5.507 4.42-5.895-.8-.6-4.42 5.895zm.42-8.894-3.157 4.21.8.6 3.158-4.21zm-8.66 6.667-2.23-.7-.299.955 2.23.7zm12.662-3.669a2.5 2.5 0 0 0-.76-3.67l-.496.868a1.5 1.5 0 0 1 .456 2.203zm-14.247 1.632c0 .709-.549 1.297-1.256 1.345l.068.997a2.347 2.347 0 0 0 2.188-2.342zM33.546 42.9a1.35 1.35 0 0 1 1.248 1.344h1c0-1.229-.95-2.25-2.174-2.34zm8.255 2.258a2.5 2.5 0 0 0 .882-.736l-.8-.6a1.5 1.5 0 0 1-.529.442zm-22.566-2.487a1.5 1.5 0 0 1-.937.329v1a2.5 2.5 0 0 0 1.562-.548zm1.963-.29a1.5 1.5 0 0 1 1.05-.324l.075-.997a2.5 2.5 0 0 0-1.75.54zm16.3 3.81a1.5 1.5 0 0 1-1.119.09l-.3.954a2.5 2.5 0 0 0 1.867-.15zm6.46 2.927a2.5 2.5 0 0 0 .662-.61l-.8-.6c-.11.144-.244.269-.397.366zm4.323-10.176a2.5 2.5 0 0 0-3.24.67l.8.6a1.5 1.5 0 0 1 1.944-.402zM34.956 54a4.5 4.5 0 0 0 2.41-.7l-.535-.844a3.5 3.5 0 0 1-1.875.544z"/><path stroke="currentColor" d="m35 44.5 3.97-1.764a2 2 0 0 0 .852-.719l1.874-2.81a1.643 1.643 0 1 1 2.712 1.853L42 44.5M16.5 54a1.5 1.5 0 0 1-1.5 1.5H9a.5.5 0 0 1-.5-.5V42a.5.5 0 0 1 .5-.5h6a1.5 1.5 0 0 1 1.5 1.5z"/><path stroke="currentColor" d="M16.5 53v-3.5a4 4 0 0 0-4-4H9"/><circle cx="12" cy="48" r=".5" stroke="currentColor" transform="rotate(180 12 48)"/><path stroke="currentColor" d="M47.5 10A1.5 1.5 0 0 1 49 8.5h6a.5.5 0 0 1 .5.5v13a.5.5 0 0 1-.5.5h-6a1.5 1.5 0 0 1-1.5-1.5z"/><path stroke="currentColor" d="M47.5 11v3.5a4 4 0 0 0 4 4H55"/><circle cx="52" cy="16" r=".5" stroke="currentColor"/><path fill="currentColor" d="M47.5 10.5h.5V10h-.5zm-20 7V17a.5.5 0 0 0-.416.223zm3.5 0 .224-.447A.5.5 0 0 0 31 17zm3 1.5.382.323a.5.5 0 0 0-.158-.77zm13.5 1.5v.5h.5v-.5zm-3.048.438.313.39zm-7.206 1.793-.336-.37zm-4.122 3.747.336.37zm-3.001-2.896.381.323zm.558 3.165.248-.435zM22.81 14.839l-.436-.246zm20.238 7.223-.312-.39zM47.5 10H28.702v1H47.5zm-20.36.548-4.149 3.319.625.78 4.149-3.318zm-4.766 4.045-4.31 7.662.872.49 4.31-7.661zm4.542 4.684 1-1.5-.832-.554-1 1.5zM27.5 18H31v-1h-3.5zm3.276-.053 3 1.5.448-.894-3-1.5zm2.842.73-3.877 4.582.764.646 3.877-4.582zm-.158 8.171 4.123-3.747-.673-.74-4.122 3.747zM37.843 23h3.955v-1h-3.955zm5.517-.548 1.404-1.123-.624-.781-1.404 1.123zM45.702 21H47.5v-1h-1.798zM48 20.5v-10h-1v10zm-3.236.829a1.5 1.5 0 0 1 .938-.329v-1a2.5 2.5 0 0 0-1.562.548zm-7.18 1.771a.4.4 0 0 1 .26-.101v-1c-.345 0-.678.129-.933.36zm-7.15 4.08a2.59 2.59 0 0 0 3.027-.333l-.672-.74a1.59 1.59 0 0 1-1.859.204zm-.692-3.922a2.59 2.59 0 0 0 .692 3.922l.496-.869a1.59 1.59 0 0 1-.424-2.407zm-6.75-9.392a2.5 2.5 0 0 0-.617.726l.871.49a1.5 1.5 0 0 1 .37-.435zM41.798 23a2.5 2.5 0 0 0 1.562-.548l-.624-.78a1.5 1.5 0 0 1-.938.328zM28.702 10a2.5 2.5 0 0 0-1.562.548l.625.78a1.5 1.5 0 0 1 .937-.328z"/><path stroke="currentColor" d="m32 22.03-.89-.815c-3.388-3.105-8.697-2.923-11.856.407a8.146 8.146 0 0 0 .414 11.653l.032.029L29.5 42m5 .5 9.8-9.196.032-.029a8.146 8.146 0 0 0 .414-11.653 8 8 0 0 0-.615-.586"/></svg>
