<svg viewBox="0 0 24 24" fill="none" xmlns="http://www.w3.org/2000/svg" width="1em" height="1em"><path d="M6.5 21.5H6V22H6.5V21.5ZM13.7227 18.584C13.4929 18.7372 13.4308 19.0476 13.584 19.2774C13.7372 19.5071 14.0476 19.5692 14.2773 19.416L13.7227 18.584ZM6.5 16.5L6.34189 16.0257L6 16.1396V16.5H6.5ZM9.07071 18.005C8.79734 17.966 8.54408 18.1559 8.50502 18.4293C8.46597 18.7027 8.65592 18.9559 8.92929 18.995L9.07071 18.005ZM7.47446 16.1752L7.31635 15.7008L7.47446 16.1752ZM8.54078 16.1202L8.64924 15.6321L8.54078 16.1202ZM17.7347 16.5102L18.0121 16.9262L17.7347 16.5102ZM6.5 22H13.6748V21H6.5V22ZM14.5571 21.7131L19.08 18.4237L18.4918 17.615L13.9689 20.9044L14.5571 21.7131ZM7.31635 15.7008L6.34189 16.0257L6.65811 16.9743L7.63257 16.6495L7.31635 15.7008ZM7 21.5V16.5H6V21.5H7ZM17.4574 16.0942L13.7227 18.584L14.2773 19.416L18.0121 16.9262L17.4574 16.0942ZM8.43231 16.6083L11.5905 17.3101L11.8074 16.3339L8.64924 15.6321L8.43231 16.6083ZM11.4031 18.3382L9.07071 18.005L8.92929 18.995L11.2617 19.3282L11.4031 18.3382ZM12 17.8206C12 18.1388 11.7182 18.3832 11.4031 18.3382L11.2617 19.3282C12.1792 19.4592 13 18.7473 13 17.8206H12ZM7.63257 16.6495C7.89049 16.5635 8.16692 16.5493 8.43231 16.6083L8.64924 15.6321C8.20692 15.5338 7.7462 15.5576 7.31635 15.7008L7.63257 16.6495ZM11.5905 17.3101C11.8298 17.3633 12 17.5755 12 17.8206H13C13 17.1068 12.5042 16.4887 11.8074 16.3339L11.5905 17.3101ZM19.08 18.4237C19.6959 17.9758 19.8487 17.1216 19.4262 16.4879L18.5942 17.0426C18.7191 17.23 18.6739 17.4825 18.4918 17.615L19.08 18.4237ZM19.4262 16.4879C18.9913 15.8355 18.1098 15.6592 17.4574 16.0942L18.0121 16.9262C18.2049 16.7976 18.4656 16.8498 18.5942 17.0426L19.4262 16.4879ZM13.6748 22C13.9918 22 14.3007 21.8996 14.5571 21.7131L13.9689 20.9044C13.8834 20.9665 13.7805 21 13.6748 21V22Z" fill="currentColor"/><path d="M12.235 17.076C12.0008 17.2224 11.9296 17.5308 12.076 17.765C12.2224 17.9992 12.5308 18.0704 12.765 17.924L12.235 17.076ZM17.3079 16.2119L16.8919 16.4893L17.3079 16.2119ZM17.916 16.2226L17.724 15.9346L16.8919 16.4893L17.084 16.7774L17.916 16.2226ZM14.9999 15.348L12.235 17.076L12.765 17.924L15.5299 16.196L14.9999 15.348ZM17.724 15.9346C17.124 15.0345 15.9171 14.7747 14.9999 15.348L15.5299 16.196C15.9885 15.9093 16.5919 16.0393 16.8919 16.4893L17.724 15.9346Z" fill="currentColor"/><mask id="path-3-inside-1_1254_7816" fill="currentColor"><path d="M3 17C3 16.4477 3.44772 16 4 16H6C6.55228 16 7 16.4477 7 17V21C7 21.5523 6.55228 22 6 22H4C3.44772 22 3 21.5523 3 21V17Z"/></mask><path d="M4 17H6V15H4V17ZM6 17V21H8V17H6ZM6 21H4V23H6V21ZM4 21V17H2V21H4ZM4 21H2C2 22.1046 2.89543 23 4 23V21ZM6 21V23C7.10457 23 8 22.1046 8 21H6ZM6 17H8C8 15.8954 7.10457 15 6 15V17ZM4 15C2.89543 15 2 15.8954 2 17H4V17V15Z" fill="currentColor" mask="url(#path-3-inside-1_1254_7816)"/><mask id="path-5-inside-2_1254_7816" fill="currentColor"><path d="M18 4C18 3.44772 18.4477 3 19 3H21C21.5523 3 22 3.44772 22 4V8C22 8.55228 21.5523 9 21 9H19C18.4477 9 18 8.55228 18 8V4Z"/></mask><path d="M19 4H21V2H19V4ZM21 4V8H23V4H21ZM21 8H19V10H21V8ZM19 8V4H17V8H19ZM19 8H17C17 9.10457 17.8954 10 19 10V8ZM21 8V10C22.1046 10 23 9.10457 23 8H21ZM21 4H23C23 2.89543 22.1046 2 21 2V4ZM19 2C17.8954 2 17 2.89543 17 4H19V4V2Z" fill="currentColor" mask="url(#path-5-inside-2_1254_7816)"/><path d="M18.5 3.5H19V3H18.5V3.5ZM11.5 6L11.6581 5.52566C11.4784 5.46577 11.2804 5.51253 11.1464 5.64645L11.5 6ZM13 6.5L13.4472 6.27639C13.3879 6.15778 13.2839 6.06759 13.1581 6.02566L13 6.5ZM13.5 7.5L13.8536 7.85355C14.0057 7.70137 14.0435 7.46889 13.9472 7.27639L13.5 7.5ZM16 8.5V8C15.8806 8 15.7652 8.0427 15.6746 8.12037L16 8.5ZM18.5 8.5V9H19V8.5H18.5ZM8.348 5.8603L7.88732 5.66595L8.348 5.8603ZM18.5 3H11.3284V4H18.5V3ZM9.56066 3.73223L8.42296 4.86993L9.13007 5.57704L10.2678 4.43934L9.56066 3.73223ZM7.88732 5.66595L7.19557 7.30565L8.11693 7.69435L8.80868 6.05465L7.88732 5.66595ZM10.8536 7.35355L11.8536 6.35355L11.1464 5.64645L10.1464 6.64645L10.8536 7.35355ZM11.3419 6.47434L12.8419 6.97434L13.1581 6.02566L11.6581 5.52566L11.3419 6.47434ZM12.5528 6.72361L13.0528 7.72361L13.9472 7.27639L13.4472 6.27639L12.5528 6.72361ZM13.1464 7.14645L11.4252 8.86764L12.1324 9.57475L13.8536 7.85355L13.1464 7.14645ZM13.5998 11.2159L16.3254 8.87963L15.6746 8.12037L12.949 10.4566L13.5998 11.2159ZM16 9H18.5V8H16V9ZM18 3.5V8.5H19V3.5H18ZM11.4253 11.1324C12.0169 11.7241 12.9644 11.7604 13.5998 11.2159L12.949 10.4566C12.7104 10.6611 12.3546 10.6475 12.1324 10.4253L11.4253 11.1324ZM11.4252 8.86764C10.7999 9.49303 10.7999 10.507 11.4253 11.1324L12.1324 10.4253C11.8975 10.1904 11.8975 9.80961 12.1324 9.57475L11.4252 8.86764ZM8.42296 4.86993C8.19469 5.0982 8.0128 5.36852 7.88732 5.66595L8.80868 6.05465C8.88397 5.87619 8.99311 5.714 9.13007 5.57704L8.42296 4.86993ZM11.3284 3C10.6654 3 10.0295 3.26339 9.56066 3.73223L10.2678 4.43934C10.5491 4.15804 10.9306 4 11.3284 4V3Z" fill="currentColor"/><path d="M12.3559 7.95258L12 8.30309L11.6441 7.95258C10.2888 6.61702 8.16535 6.69539 6.90145 8.12757C5.63755 9.55975 5.71171 11.8041 7.06722 13.1391L7.0798 13.1515L10.5 16.5M12.5222 17.5L13.5222 16.5L16.9203 13.1515L16.9329 13.1391C18.1236 11.9663 18.3255 10.0916 17.5 8.68237" stroke="currentColor"/></svg>
