<svg viewBox="0 0 32 32" fill="none" xmlns="http://www.w3.org/2000/svg" width="1em" height="1em"><path d="M8.5 27.5H8V28H8.5V27.5ZM20.1781 24.0881C19.9506 24.2447 19.8931 24.556 20.0497 24.7835C20.2062 25.0109 20.5175 25.0684 20.745 24.9119L20.1781 24.0881ZM8.5 20.5939L8.30677 20.1328L8 20.2613V20.5939H8.5ZM12.537 22.5014C12.2616 22.4809 12.0218 22.6876 12.0014 22.963C11.9809 23.2384 12.1876 23.4782 12.463 23.4986L12.537 22.5014ZM10.5435 19.7377L10.7367 20.1989L10.5435 19.7377ZM11.5708 19.5986L11.6344 19.1026L11.5708 19.5986ZM18.157 20.4433L18.0934 20.9393L18.157 20.4433ZM27.4661 22.7582L27.7617 23.1614L27.4661 22.7582ZM25.9968 20.6904L26.2803 21.1023L25.9968 20.6904ZM21.264 27.3064L21.5597 27.7096L21.264 27.3064ZM8.5 28H20.6726V27H8.5V28ZM21.5597 27.7096L27.7617 23.1614L27.1704 22.355L20.9683 26.9032L21.5597 27.7096ZM10.3502 19.2766L8.30677 20.1328L8.69323 21.0551L10.7367 20.1989L10.3502 19.2766ZM9 27.5V20.5939H8V27.5H9ZM25.7133 20.2786L20.1781 24.0881L20.745 24.9119L26.2803 21.1023L25.7133 20.2786ZM11.5072 20.0945L18.0934 20.9393L18.2206 19.9474L11.6344 19.1026L11.5072 20.0945ZM17.8952 22.8987L12.537 22.5014L12.463 23.4986L17.8212 23.896L17.8952 22.8987ZM18.9531 21.9163C18.9531 22.4891 18.4664 22.9411 17.8952 22.8987L17.8212 23.896C18.9722 23.9813 19.9531 23.0705 19.9531 21.9163H18.9531ZM10.7367 20.1989C10.9799 20.097 11.2456 20.061 11.5072 20.0945L11.6344 19.1026C11.1985 19.0467 10.7556 19.1067 10.3502 19.2766L10.7367 20.1989ZM18.0934 20.9393C18.5849 21.0023 18.9531 21.4207 18.9531 21.9163H19.9531C19.9531 20.9176 19.2112 20.0744 18.2206 19.9474L18.0934 20.9393ZM27.7617 23.1614C28.5553 22.5795 28.7212 21.4616 28.1307 20.6743L27.3307 21.2743C27.5873 21.6164 27.5152 22.1021 27.1704 22.355L27.7617 23.1614ZM28.1307 20.6743C27.5615 19.9153 26.4948 19.7407 25.7133 20.2786L26.2803 21.1023C26.6199 20.8686 27.0834 20.9445 27.3307 21.2743L28.1307 20.6743ZM20.6726 28C20.9917 28 21.3024 27.8983 21.5597 27.7096L20.9683 26.9032C20.8826 26.9661 20.779 27 20.6726 27V28Z" fill="currentColor"/><path d="M21.2606 20.3611C21.0181 20.4933 20.9288 20.797 21.0611 21.0394C21.1933 21.2819 21.497 21.3712 21.7394 21.2389L21.2606 20.3611ZM25.5614 20.1421L25.1453 20.4194L25.5614 20.1421ZM26.416 20.5227L25.9774 19.8647L25.1453 20.4194L25.584 21.0774L26.416 20.5227ZM23.3556 19.2183L21.2606 20.3611L21.7394 21.2389L23.8344 20.0962L23.3556 19.2183ZM25.9774 19.8647C25.4028 19.0027 24.265 18.7223 23.3556 19.2183L23.8344 20.0962C24.2892 19.8482 24.858 19.9884 25.1453 20.4194L25.9774 19.8647Z" fill="currentColor"/><mask id="path-3-inside-1_1254_7827" fill="currentColor"><path d="M4 21C4 20.4477 4.44772 20 5 20H8C8.55228 20 9 20.4477 9 21V27C9 27.5523 8.55228 28 8 28H5C4.44772 28 4 27.5523 4 27V21Z"/></mask><path d="M5 21H8V19H5V21ZM8 21V27H10V21H8ZM8 27H5V29H8V27ZM5 27V21H3V27H5ZM5 27H5H3C3 28.1046 3.89543 29 5 29V27ZM8 27V29C9.10457 29 10 28.1046 10 27H8ZM8 21H10C10 19.8954 9.10457 19 8 19V21ZM5 19C3.89543 19 3 19.8954 3 21H5V19Z" fill="currentColor" mask="url(#path-3-inside-1_1254_7827)"/><mask id="path-5-inside-2_1254_7827" fill="currentColor"><path d="M23 5C23 4.44772 23.4477 4 24 4H27C27.5523 4 28 4.44772 28 5V11C28 11.5523 27.5523 12 27 12H24C23.4477 12 23 11.5523 23 11V5Z"/></mask><path d="M24 5H27V3H24V5ZM27 5V11H29V5H27ZM27 11H24V13H27V11ZM24 11V5H22V11H24ZM24 11H24H22C22 12.1046 22.8954 13 24 13V11ZM27 11V13C28.1046 13 29 12.1046 29 11H27ZM27 5H29C29 3.89543 28.1046 3 27 3V5ZM24 3C22.8954 3 22 3.89543 22 5H24V3Z" fill="currentColor" mask="url(#path-5-inside-2_1254_7827)"/><path d="M23.5 4.5H24V4H23.5V4.5ZM7.77118 11.545C7.63209 11.7836 7.71272 12.0897 7.95128 12.2288C8.18983 12.3679 8.49597 12.2873 8.63507 12.0487L7.77118 11.545ZM14 8.5V8C13.8328 8 13.6767 8.08355 13.584 8.22265L14 8.5ZM16.5 8.5L16.7774 8.08397C16.6952 8.02922 16.5987 8 16.5 8V8.5ZM18 9.5L18.3536 9.85355C18.4595 9.74763 18.5123 9.5998 18.4976 9.45073C18.4828 9.30166 18.402 9.16707 18.2774 9.08397L18 9.5ZM20.5 11.5V11C20.3726 11 20.2499 11.0487 20.1572 11.136L20.5 11.5ZM23.5 11.5V12H24V11.5H23.5ZM11.2702 6.77482L11.5903 7.15893L11.2702 6.77482ZM10.8228 7.30387L10.3909 7.05202L10.8228 7.30387ZM23.5 4H14.7241V5H23.5V4ZM13.1236 4.57945L10.9501 6.39071L11.5903 7.15893L13.7638 5.34767L13.1236 4.57945ZM10.3909 7.05202L7.77118 11.545L8.63507 12.0487L11.2548 7.55572L10.3909 7.05202ZM13.416 10.2773L14.416 8.77735L13.584 8.22265L12.584 9.72265L13.416 10.2773ZM14 9H16.5V8H14V9ZM16.2226 8.91603L17.7226 9.91603L18.2774 9.08397L16.7774 8.08397L16.2226 8.91603ZM17.6464 9.14645L14.791 12.0019L15.4981 12.709L18.3536 9.85355L17.6464 9.14645ZM17.6115 14.9078L20.8428 11.864L20.1572 11.136L16.9258 14.1799L17.6115 14.9078ZM20.5 12H23.5V11H20.5V12ZM23 4.5V11.5H24V4.5H23ZM14.8788 14.9484C15.6629 15.6442 16.8484 15.6266 17.6115 14.9078L16.9258 14.1799C16.5395 14.5438 15.9394 14.5527 15.5425 14.2005L14.8788 14.9484ZM14.791 12.0019C13.9667 12.8262 14.0068 14.1746 14.8788 14.9484L15.5425 14.2005C15.1012 13.8088 15.0809 13.1262 15.4981 12.709L14.791 12.0019ZM10.9501 6.39071C10.7267 6.57693 10.5374 6.80072 10.3909 7.05202L11.2548 7.55572C11.3427 7.40494 11.4562 7.27066 11.5903 7.15893L10.9501 6.39071ZM14.7241 4C14.1393 4 13.5729 4.20504 13.1236 4.57945L13.7638 5.34767C14.0334 5.12302 14.3732 5 14.7241 5V4Z" fill="currentColor"/><path d="M23.6478 11.6401C23.9369 11.9578 24.1794 12.3029 24.3754 12.6667C25.465 14.6882 25.223 17.3543 23.5 19L23.4811 19.0181L19 23M15.4662 11.3856C13.4332 9.44295 10.248 9.55693 8.35218 11.6401C6.45633 13.7233 6.56757 16.9878 8.60083 18.9297L8.6197 18.9477L9.72094 20" stroke="currentColor"/></svg>
