<svg xmlns="http://www.w3.org/2000/svg" fill="none" viewBox="0 0 24 24" width="1em" height="1em"><path stroke="currentColor" stroke-linecap="round" d="m14 19 3.735-2.49a.92.92 0 0 1 1.275.255v0a.92.92 0 0 1-.224 1.254l-4.523 3.29a1 1 0 0 1-.588.191H6.5v-5l.974-.325a2 2 0 0 1 1.067-.055l3.158.702c.468.104.801.52.801.999v0c0 .622-.551 1.1-1.168 1.012L9 18.5"/><path fill="currentColor" d="M12.235 17.076a.5.5 0 1 0 .53.848zm5.073-.864-.416.277zm.608.01-.192-.287-.832.554.192.288zM15 15.349l-2.765 1.728.53.848 2.765-1.728zm2.724.587A2 2 0 0 0 15 15.348l.53.848a1 1 0 0 1 1.362.293z"/><path stroke="currentColor" d="M3.5 17a.5.5 0 0 1 .5-.5h2a.5.5 0 0 1 .5.5v4a.5.5 0 0 1-.5.5H4a.5.5 0 0 1-.5-.5zm15-13a.5.5 0 0 1 .5-.5h2a.5.5 0 0 1 .5.5v4a.5.5 0 0 1-.5.5h-2a.5.5 0 0 1-.5-.5z"/><path fill="currentColor" d="M18.5 3.5h.5V3h-.5zm-7 2.5.158-.474a.5.5 0 0 0-.512.12zm1.5.5.447-.224a.5.5 0 0 0-.289-.25zm.5 1 .354.354a.5.5 0 0 0 .093-.578zm2.5 1V8a.5.5 0 0 0-.325.12zm2.5 0V9h.5v-.5zM8.348 5.86l-.46-.194zM18.5 3h-7.172v1H18.5zm-8.94.732L8.424 4.87l.707.707 1.138-1.138zM7.888 5.666l-.691 1.64.92.388.693-1.64zm2.967 1.688 1-1-.708-.708-1 1zm.488-.88 1.5.5.316-.948-1.5-.5zm1.21.25.5 1 .895-.448-.5-1zm.594.422-1.72 1.722.706.707 1.722-1.721zm.454 4.07 2.725-2.336-.65-.76-2.726 2.337zM16 9h2.5V8H16zm2-5.5v5h1v-5zm-6.575 7.632c.592.592 1.54.628 2.175.084l-.651-.76a.6.6 0 0 1-.817-.03zm0-2.264a1.6 1.6 0 0 0 0 2.264l.707-.707a.6.6 0 0 1 0-.85zM8.423 4.87a2.5 2.5 0 0 0-.536.796l.922.389a1.5 1.5 0 0 1 .321-.478zM11.328 3a2.5 2.5 0 0 0-1.767.732l.707.707A1.5 1.5 0 0 1 11.328 4z"/><path stroke="currentColor" d="m12.356 7.953-.356.35-.356-.35c-1.355-1.336-3.479-1.258-4.743.175-1.263 1.432-1.19 3.676.166 5.011l.013.013L10.5 16.5m2.022 1 1-1 3.398-3.348.013-.013c1.19-1.173 1.393-3.047.567-4.457"/></svg>
