<svg xmlns="http://www.w3.org/2000/svg" fill="none" viewBox="0 0 32 32" width="1em" height="1em"><path stroke="currentColor" stroke-linecap="round" d="m20.462 24.5 5.535-3.81a1.27 1.27 0 0 1 1.734.284v0a1.27 1.27 0 0 1-.265 1.784l-6.202 4.548a1 1 0 0 1-.591.194H8.5v-6.906l2.043-.856a2 2 0 0 1 1.028-.14l6.586.845a1.485 1.485 0 0 1 1.296 1.473v0c0 .864-.734 1.545-1.595 1.481L12.5 23"/><path fill="currentColor" d="M21.26 20.361a.5.5 0 1 0 .48.878zm4.301-.219-.416.277zm.855.38-.439-.657-.832.554.439.658zm-3.06-1.304-2.095 1.143.478.878 2.095-1.143zm2.621.647a2 2 0 0 0-2.621-.647l.478.878a1 1 0 0 1 1.311.323z"/><path stroke="currentColor" d="M4.5 21a.5.5 0 0 1 .5-.5h3a.5.5 0 0 1 .5.5v6a.5.5 0 0 1-.5.5H5a.5.5 0 0 1-.5-.5zm19-16a.5.5 0 0 1 .5-.5h3a.5.5 0 0 1 .5.5v6a.5.5 0 0 1-.5.5h-3a.5.5 0 0 1-.5-.5z"/><path fill="currentColor" d="M23.5 4.5h.5V4h-.5zM7.771 11.545a.5.5 0 1 0 .864.504zM14 8.5V8a.5.5 0 0 0-.416.223zm2.5 0 .277-.416A.5.5 0 0 0 16.5 8zm1.5 1 .354.354a.5.5 0 0 0-.077-.77zm2.5 2V11a.5.5 0 0 0-.343.136zm3 0v.5h.5v-.5zm-8.29 3.074-.331.374zm-3.94-7.8.32.385zm-.447.53-.432-.252zM23.5 4h-8.776v1H23.5zm-10.376.58L10.95 6.39l.64.769 2.174-1.811zM10.39 7.051l-2.62 4.493.864.504 2.62-4.493zm3.025 3.225 1-1.5-.832-.554-1 1.5zM14 9h2.5V8H14zm2.223-.084 1.5 1 .554-.832-1.5-1zm1.423.23-2.855 2.856.707.707 2.856-2.855zm-.035 5.762 3.232-3.044-.686-.728-3.231 3.044zM20.5 12h3v-1h-3zM23 4.5v7h1v-7zm-8.121 10.448c.784.696 1.97.679 2.732-.04l-.685-.728a1.025 1.025 0 0 1-1.383.02zm-.088-2.946a2.025 2.025 0 0 0 .088 2.946l.664-.748a1.025 1.025 0 0 1-.045-1.491zm-3.84-5.611c-.224.186-.414.41-.56.661l.864.504a1.5 1.5 0 0 1 .335-.397zM14.723 4a2.5 2.5 0 0 0-1.6.58l.64.768a1.5 1.5 0 0 1 .96-.348z"/><path stroke="currentColor" d="M23.648 11.64c.289.318.531.663.727 1.027 1.09 2.021.848 4.687-.875 6.333l-.019.018L19 23m-3.534-11.614a4.95 4.95 0 0 0-7.114.254c-1.896 2.083-1.784 5.348.249 7.29l.019.018L9.72 20"/></svg>
