<svg viewBox="0 0 24 24" fill="none" xmlns="http://www.w3.org/2000/svg" width="1em" height="1em"><path fill-rule="evenodd" clip-rule="evenodd" d="M4.50006 9C4.22392 9 4.00006 9.22386 4.00006 9.5C4.00006 9.77614 4.22392 10 4.50006 10L19.5001 10C19.7762 10 20.0001 9.77614 20.0001 9.5C20.0001 9.22386 19.7762 9 19.5001 9L4.50006 9ZM4.50006 15C4.22392 15 4.00006 15.2239 4.00006 15.5C4.00006 15.7761 4.22392 16 4.50006 16L19.5001 16C19.7762 16 20.0001 15.7761 20.0001 15.5C20.0001 15.2239 19.7762 15 19.5001 15L4.50006 15Z" fill="currentColor"/><path d="M18.5001 3.5L5.50012 20.5" stroke="currentColor" stroke-linecap="round"/></svg>
