<svg viewBox="0 0 32 32" fill="none" xmlns="http://www.w3.org/2000/svg" width="1em" height="1em"><path fill-rule="evenodd" clip-rule="evenodd" d="M4 11C3.72386 11 3.5 11.2239 3.5 11.5C3.5 11.7761 3.72386 12 4 12L27 12C27.2761 12 27.5 11.7761 27.5 11.5C27.5 11.2239 27.2761 11 27 11L4 11ZM4.5 20C4.22386 20 4 20.2239 4 20.5C4 20.7761 4.22386 21 4.5 21H27.5C27.7761 21 28 20.7761 28 20.5C28 20.2239 27.7761 20 27.5 20H4.5Z" fill="currentColor"/><path d="M24.5 4.5L7.5 27.5" stroke="currentColor" stroke-linecap="round"/></svg>
