<svg viewBox="0 0 32 32" fill="none" xmlns="http://www.w3.org/2000/svg" width="1em" height="1em"><path d="M6.12201 5.42927C10.3507 6.74246 13.5754 4.29697 15.2848 2.69722C15.688 2.31984 16.3119 2.31984 16.7151 2.69722C18.4245 4.29697 21.6493 6.74246 25.8779 5.42927C26.4744 5.24402 27.1409 5.55854 27.2601 6.17169C28.4321 12.2001 27.7448 21.7132 16.5643 29.6089C16.2291 29.8457 15.7708 29.8457 15.4356 29.6089C4.25502 21.7132 3.56786 12.2001 4.73983 6.1717C4.85903 5.55854 5.52547 5.24402 6.12201 5.42927Z" stroke="currentColor" stroke-linecap="round"/><path d="M16 2.5L16 29.6506" stroke="currentColor" stroke-linecap="round" stroke-linejoin="round"/><path d="M5 15.5L27 15.5" stroke="currentColor" stroke-linecap="round" stroke-linejoin="round"/></svg>
