<svg xmlns="http://www.w3.org/2000/svg" fill="none" viewBox="0 0 32 32" width="1em" height="1em"><path fill="currentColor" d="M23 8a.5.5 0 0 0 0-1zm-3.914-4.914-.354.353zM21.5 25h-15v1h15zM5 23.5v-19H4v19zM6.5 3h11.172V2H6.5zM23 8.328V23.5h1V8.328zm-5-5.347V5.5h1V2.98zM20.5 8H23V7h-2.5zm-1.768-4.56 3.829 3.828.707-.707-3.829-3.829zM18 5.5A2.5 2.5 0 0 0 20.5 8V7A1.5 1.5 0 0 1 19 5.5zm6 2.828a2.5 2.5 0 0 0-.732-1.767l-.707.707A1.5 1.5 0 0 1 23 8.328zM17.672 3a1.5 1.5 0 0 1 1.06.44l.707-.708A2.5 2.5 0 0 0 17.672 2zM6.5 25A1.5 1.5 0 0 1 5 23.5H4A2.5 2.5 0 0 0 6.5 26zm15 1a2.5 2.5 0 0 0 2.5-2.5h-1a1.5 1.5 0 0 1-1.5 1.5zM5 4.5A1.5 1.5 0 0 1 6.5 3V2A2.5 2.5 0 0 0 4 4.5z"/><path stroke="currentColor" stroke-linecap="round" d="M9 29.5h16.5a2 2 0 0 0 2-2v-19m-20 0h8m-8 4h13m-13 4h13m-13 4h13"/></svg>
