<svg xmlns="http://www.w3.org/2000/svg" fill="none" viewBox="0 0 24 24" width="1em" height="1em"><path fill="currentColor" d="M13.5 4a.5.5 0 0 0 0-1v1ZM5 4h8.5V3H5v1Zm11.5 5H4.998v1H16.5V9ZM4 8V5H3v3h1Zm.998 1A.998.998 0 0 1 4 8H3c0 1.104.892 2 1.998 2V9ZM5 3a2 2 0 0 0-2 2h1a1 1 0 0 1 1-1V3Z"/><path stroke="currentColor" stroke-linecap="round" stroke-linejoin="round" d="M12.5 6.5h-6"/><path stroke="currentColor" d="M3.5 11A1.5 1.5 0 0 1 5 9.5h14a1.5 1.5 0 0 1 1.5 1.5v3a1.5 1.5 0 0 1-1.5 1.5H5A1.5 1.5 0 0 1 3.5 14v-3Z"/><path stroke="currentColor" stroke-linecap="round" stroke-linejoin="round" d="M12.5 12.5h-6"/><path stroke="currentColor" d="M15.5 12a.5.5 0 0 1 .5-.5h1a.5.5 0 0 1 .5.5v1a.5.5 0 0 1-.5.5h-1a.5.5 0 0 1-.5-.5v-1Zm-12 5A1.5 1.5 0 0 1 5 15.5h14a1.5 1.5 0 0 1 1.5 1.5v3a1.5 1.5 0 0 1-1.5 1.5H5A1.5 1.5 0 0 1 3.5 20v-3Z"/><path stroke="currentColor" stroke-linecap="round" stroke-linejoin="round" d="M12.5 18.5h-6"/><path stroke="currentColor" d="M15.5 18a.5.5 0 0 1 .5-.5h1a.5.5 0 0 1 .5.5v1a.5.5 0 0 1-.5.5h-1a.5.5 0 0 1-.5-.5v-1Zm1-13.5A.5.5 0 0 1 17 4h3a.5.5 0 0 1 .5.5V7a.5.5 0 0 1-.5.5h-3a.5.5 0 0 1-.5-.5V4.5ZM20 4V2.5a1.5 1.5 0 0 0-3 0V4"/></svg>
