<svg xmlns="http://www.w3.org/2000/svg" fill="none" viewBox="0 0 16 19" width="1em" height="1em"><path fill="currentColor" d="M8.5 5.5a.5.5 0 0 0 0-1zm-3.75 0H8.5v-1H4.75zm6.25 3H4.748v1H11zm-7-.75v-1.5H3v1.5zm.748.75A.75.75 0 0 1 4 7.75H3c0 .966.78 1.75 1.748 1.75zm.002-4A1.75 1.75 0 0 0 3 6.25h1a.75.75 0 0 1 .75-.75z"/><path stroke="currentColor" stroke-linecap="round" stroke-linejoin="round" d="M8.5 7h-3"/><path stroke="currentColor" d="M3.5 10a1 1 0 0 1 1-1h8a1 1 0 0 1 1 1v2a1 1 0 0 1-1 1h-8a1 1 0 0 1-1-1z"/><path stroke="currentColor" stroke-linecap="round" stroke-linejoin="round" d="M11.5 11h-6"/><path stroke="currentColor" d="M3.5 14a1 1 0 0 1 1-1h8a1 1 0 0 1 1 1v2a1 1 0 0 1-1 1h-8a1 1 0 0 1-1-1z"/><path stroke="currentColor" stroke-linecap="round" stroke-linejoin="round" d="M11.5 15h-6"/><path stroke="currentColor" d="M10.5 4a.5.5 0 0 1 .5-.5h3a.5.5 0 0 1 .5.5v2.5a.5.5 0 0 1-.5.5h-3a.5.5 0 0 1-.5-.5zm3.5-.5V2a1.5 1.5 0 1 0-3 0v1.5"/></svg>
