<svg xmlns="http://www.w3.org/2000/svg" fill="none" viewBox="0 0 32 32" width="1em" height="1em"><path fill="currentColor" d="M18.5 7a.5.5 0 0 0 0-1zm-12 0h12V6h-12zM25 14H6.497v1H25zM5 12.5v-4H4v4zM6.497 14C5.669 14 5 13.33 5 12.5H4C4 13.88 5.115 15 6.497 15zM6.5 6A2.5 2.5 0 0 0 4 8.5h1A1.5 1.5 0 0 1 6.5 7z"/><path stroke="currentColor" stroke-linecap="round" stroke-linejoin="round" d="M17.5 10.5H8"/><path stroke="currentColor" d="M4.5 16A1.5 1.5 0 0 1 6 14.5h20a1.5 1.5 0 0 1 1.5 1.5v4a1.5 1.5 0 0 1-1.5 1.5H6A1.5 1.5 0 0 1 4.5 20z"/><path stroke="currentColor" stroke-linecap="round" stroke-linejoin="round" d="M20 18H8"/><path stroke="currentColor" d="M22.5 17.5a.5.5 0 0 1 .5-.5h1a.5.5 0 0 1 .5.5v1a.5.5 0 0 1-.5.5h-1a.5.5 0 0 1-.5-.5zM4.5 23A1.5 1.5 0 0 1 6 21.5h20a1.5 1.5 0 0 1 1.5 1.5v4a1.5 1.5 0 0 1-1.5 1.5H6A1.5 1.5 0 0 1 4.5 27z"/><path stroke="currentColor" stroke-linecap="round" stroke-linejoin="round" d="M20 25H8"/><path stroke="currentColor" d="M22.5 24.5a.5.5 0 0 1 .5-.5h1a.5.5 0 0 1 .5.5v1a.5.5 0 0 1-.5.5h-1a.5.5 0 0 1-.5-.5zM20.5 8A1.5 1.5 0 0 1 22 6.5h4A1.5 1.5 0 0 1 27.5 8v3a1.5 1.5 0 0 1-1.5 1.5h-4a1.5 1.5 0 0 1-1.5-1.5zm6-1.5v-2a2.5 2.5 0 0 0-5 0v2"/><path fill="currentColor" d="M25 9a1 1 0 1 1-2 0 1 1 0 0 1 2 0"/><path fill="currentColor" d="M23.5 9.5a.5.5 0 0 1 1 0v1a.5.5 0 0 1-1 0z"/></svg>
