<svg xmlns="http://www.w3.org/2000/svg" fill="none" viewBox="0 0 32 32" width="1em" height="1em"><path fill="currentColor" d="M18.5 7a.5.5 0 0 0 0-1v1Zm-12 0h12V6h-12v1ZM25 14H6.497v1H25v-1ZM5 12.5v-4H4v4h1ZM6.497 14C5.669 14 5 13.33 5 12.5H4C4 13.88 5.115 15 6.497 15v-1ZM6.5 6A2.5 2.5 0 0 0 4 8.5h1A1.5 1.5 0 0 1 6.5 7V6Z"/><path stroke="currentColor" stroke-linecap="round" stroke-linejoin="round" d="M17.5 10.5H8"/><path stroke="currentColor" d="M4.5 16A1.5 1.5 0 0 1 6 14.5h20a1.5 1.5 0 0 1 1.5 1.5v4a1.5 1.5 0 0 1-1.5 1.5H6A1.5 1.5 0 0 1 4.5 20v-4Z"/><path stroke="currentColor" stroke-linecap="round" stroke-linejoin="round" d="M20 18H8"/><path stroke="currentColor" d="M22.5 17.5a.5.5 0 0 1 .5-.5h1a.5.5 0 0 1 .5.5v1a.5.5 0 0 1-.5.5h-1a.5.5 0 0 1-.5-.5v-1ZM4.5 23A1.5 1.5 0 0 1 6 21.5h20a1.5 1.5 0 0 1 1.5 1.5v4a1.5 1.5 0 0 1-1.5 1.5H6A1.5 1.5 0 0 1 4.5 27v-4Z"/><path stroke="currentColor" stroke-linecap="round" stroke-linejoin="round" d="M20 25H8"/><path stroke="currentColor" d="M22.5 24.5a.5.5 0 0 1 .5-.5h1a.5.5 0 0 1 .5.5v1a.5.5 0 0 1-.5.5h-1a.5.5 0 0 1-.5-.5v-1ZM20.5 8A1.5 1.5 0 0 1 22 6.5h4A1.5 1.5 0 0 1 27.5 8v3a1.5 1.5 0 0 1-1.5 1.5h-4a1.5 1.5 0 0 1-1.5-1.5V8Zm6-1.5v-2a2.5 2.5 0 0 0-5 0v2"/><path fill="currentColor" d="M25 9a1 1 0 1 1-2 0 1 1 0 0 1 2 0Z"/><path fill="currentColor" d="M23.5 9.5a.5.5 0 0 1 1 0v1a.5.5 0 0 1-1 0v-1Z"/></svg>
