<svg xmlns="http://www.w3.org/2000/svg" fill="none" viewBox="0 0 32 32" width="1em" height="1em"><rect width="27" height="21" x="2.5" y="5.5" stroke="currentColor" rx="1.5"/><path stroke="currentColor" d="M3 9.5h26"/><circle cx="4.5" cy="7.5" r=".5" fill="currentColor"/><circle cx="6.5" cy="7.5" r=".5" fill="currentColor"/><circle cx="8.5" cy="7.5" r=".5" fill="currentColor"/><path stroke="currentColor" stroke-linecap="round" d="m15.5 20.5 1.293 1.293a1 1 0 0 0 1.414 0L26.5 13.5"/><path stroke="currentColor" stroke-linecap="round" stroke-linejoin="round" d="M22.5 13.5h4v4"/><path stroke="currentColor" stroke-linejoin="round" d="M7.092 19.123 6.04 18.107a.75.75 0 0 1 .38-1.276l1.613-.31a.75.75 0 0 0 .541-.427l.493-1.086a.75.75 0 0 1 1.366 0l.493 1.087a.75.75 0 0 0 .541.427l1.614.31a.75.75 0 0 1 .38 1.275l-1.053 1.016a.75.75 0 0 0-.219.662l.278 1.69a.75.75 0 0 1-1.102.778l-1.253-.691a.75.75 0 0 0-.724 0l-1.253.691a.75.75 0 0 1-1.102-.779l.278-1.69a.75.75 0 0 0-.219-.66Z"/></svg>
