<svg viewBox="0 0 16 16" fill="none" xmlns="http://www.w3.org/2000/svg" width="1em" height="1em"><path d="M3.06131 9.40402L1.69307 8.08297C1.40164 7.80158 1.54829 7.30857 1.94614 7.23223L3.98006 6.84191C4.13954 6.8113 4.27423 6.70515 4.34125 6.55723L5.04457 5.00508C5.22198 4.61357 5.77802 4.61357 5.95543 5.00508L6.65875 6.55723C6.72577 6.70515 6.86046 6.8113 7.01994 6.84191L9.05386 7.23223C9.45171 7.30857 9.59836 7.80158 9.30693 8.08297L7.93869 9.40402C7.82053 9.51811 7.76594 9.68295 7.79264 9.84501L8.14493 11.983C8.21282 12.395 7.77565 12.7038 7.41004 12.5021L5.74154 11.5815C5.5912 11.4986 5.40881 11.4986 5.25846 11.5815L3.58996 12.5021C3.22435 12.7038 2.78718 12.395 2.85507 11.983L3.20736 9.84501C3.23406 9.68295 3.17947 9.51811 3.06131 9.40402Z" stroke="currentColor"/><path d="M12.5 12.5V4" stroke="currentColor" stroke-linecap="round"/><path d="M10.1464 5.14645C9.95118 5.34171 9.95118 5.65829 10.1464 5.85355C10.3417 6.04882 10.6583 6.04882 10.8536 5.85355L10.1464 5.14645ZM12.5 3.5L12.8536 3.14645C12.6583 2.95118 12.3417 2.95118 12.1464 3.14645L12.5 3.5ZM14.1464 5.85355C14.3417 6.04882 14.6583 6.04882 14.8536 5.85355C15.0488 5.65829 15.0488 5.34171 14.8536 5.14645L14.1464 5.85355ZM10.8536 5.85355L12.8536 3.85355L12.1464 3.14645L10.1464 5.14645L10.8536 5.85355ZM12.1464 3.85355L14.1464 5.85355L14.8536 5.14645L12.8536 3.14645L12.1464 3.85355Z" fill="currentColor"/></svg>
