<svg xmlns="http://www.w3.org/2000/svg" fill="none" viewBox="0 0 16 16" width="1em" height="1em"><path stroke="currentColor" stroke-linecap="round" d="M12.5 12.5V4"/><path stroke="currentColor" stroke-linecap="round" stroke-linejoin="round" d="m10.5 5.5 2-2 2 2"/><path stroke="currentColor" d="M3.061 9.404 1.693 8.083a.5.5 0 0 1 .253-.85l2.034-.391a.5.5 0 0 0 .361-.285l.704-1.552a.5.5 0 0 1 .91 0l.704 1.552a.5.5 0 0 0 .36.285l2.035.39a.5.5 0 0 1 .253.851L7.939 9.404a.5.5 0 0 0-.146.441l.352 2.138a.5.5 0 0 1-.735.52l-1.668-.921a.5.5 0 0 0-.484 0l-1.668.92a.5.5 0 0 1-.735-.519l.352-2.138a.5.5 0 0 0-.146-.441Z"/></svg>
