<svg xmlns="http://www.w3.org/2000/svg" fill="none" viewBox="0 0 24 24" width="1em" height="1em"><rect width="19" height="15" x="2.5" y="4.5" stroke="currentColor" rx="1.5"/><path stroke="currentColor" d="M2.105 7.5h19.158"/><circle cx="4.5" cy="5.974" r=".5" fill="currentColor"/><circle cx="6.5" cy="5.974" r=".5" fill="currentColor"/><circle cx="8.5" cy="5.974" r=".5" fill="currentColor"/><path stroke="currentColor" stroke-linecap="round" d="M16.5 16.5v-6"/><path stroke="currentColor" stroke-linecap="round" stroke-linejoin="round" d="m14.5 12 2-2 2 2"/><path stroke="currentColor" stroke-linejoin="round" d="m6.811 13.783-1.118-1.08a.5.5 0 0 1 .253-.85l1.675-.321a.5.5 0 0 0 .36-.285l.564-1.242a.5.5 0 0 1 .91 0l.563 1.242a.5.5 0 0 0 .361.285l1.675.32a.5.5 0 0 1 .253.852l-1.118 1.08a.5.5 0 0 0-.146.44l.29 1.759a.5.5 0 0 1-.735.52l-1.356-.749a.5.5 0 0 0-.484 0l-1.356.748a.5.5 0 0 1-.734-.519l.29-1.759a.5.5 0 0 0-.147-.44Z"/></svg>
