<svg viewBox="0 0 16 16" fill="none" xmlns="http://www.w3.org/2000/svg" width="1em" height="1em"><circle cx="8" cy="8" r="6.5" stroke="currentColor" stroke-linecap="round"/><rect x="8.75" y="4.75" width="0.5" height="0.5" rx="0.25" transform="rotate(-180 8.75 4.75)" stroke="currentColor" stroke-width="0.5"/><path d="M8.5 6.5L9 6.5L9 6L8.5 6L8.5 6.5ZM7.375 6C7.09886 6 6.875 6.22386 6.875 6.5C6.875 6.77614 7.09886 7 7.375 7L7.375 6ZM7 11C6.72386 11 6.5 11.2239 6.5 11.5C6.5 11.7761 6.72386 12 7 12L7 11ZM10 12C10.2761 12 10.5 11.7761 10.5 11.5C10.5 11.2239 10.2761 11 10 11L10 12ZM8 6.5L8 11.5L9 11.5L9 6.5L8 6.5ZM8.5 6L7.375 6L7.375 7L8.5 7L8.5 6ZM7 12L8.5 12L8.5 11L7 11L7 12ZM8.5 12L10 12L10 11L8.5 11L8.5 12Z" fill="currentColor"/></svg>
