<svg xmlns="http://www.w3.org/2000/svg" fill="none" viewBox="0 0 32 32" width="1em" height="1em"><circle cx="10" cy="17" r=".5" stroke="currentColor"/><circle cx="22" cy="17" r=".5" stroke="currentColor"/><path stroke="currentColor" stroke-linecap="round" stroke-linejoin="round" d="M13 17.5c0 .667.75 2 3 2s3-1.333 3-2"/><path stroke="currentColor" d="M4.5 14.5h-1a1 1 0 0 0-1 1v4a1 1 0 0 0 1 1h1m23-6h1a1 1 0 0 1 1 1v4a1 1 0 0 1-1 1h-1"/><circle cx="16" cy="4" r="1.5" stroke="currentColor"/><path stroke="currentColor" d="M16 5v3M4.5 10.5v17.355a1.645 1.645 0 0 0 2.906 1.056l2.255-2.695a2 2 0 0 1 1.534-.716H25.5a2 2 0 0 0 2-2v-13a2 2 0 0 0-2-2h-19a2 2 0 0 0-2 2Z"/></svg>
