<svg viewBox="0 0 16 16" fill="none" xmlns="http://www.w3.org/2000/svg" width="1em" height="1em"><path d="M2.5 11.5V12C2.5 12.8284 3.17157 13.5 4 13.5L12 13.5C12.8284 13.5 13.5 12.8284 13.5 12L13.5 4C13.5 3.17157 12.8284 2.5 12 2.5L4 2.5C3.17157 2.5 2.5 3.17157 2.5 4L2.5 7.5" stroke="currentColor" stroke-linecap="round" stroke-linejoin="round"/><path d="M5.5 1.5V3.5" stroke="currentColor" stroke-linecap="round" stroke-linejoin="round"/><path d="M10.5 1.5V3.5" stroke="currentColor" stroke-linecap="round" stroke-linejoin="round"/><path d="M2.5 5.5L13.5 5.5" stroke="currentColor" stroke-linecap="round" stroke-linejoin="round"/><path d="M1.5 9.5H7.5M7.5 9.5L6.5 8.5M7.5 9.5L6.5 10.5" stroke="currentColor" stroke-linecap="round" stroke-linejoin="round"/><path d="M9.5 8.5H11.5V10.5H9.5V8.5Z" stroke="currentColor" stroke-linecap="round" stroke-linejoin="round"/></svg>
