<svg viewBox="0 0 32 32" fill="none" xmlns="http://www.w3.org/2000/svg" width="1em" height="1em"><path d="M3 14.5C3 14.7761 3.22386 15 3.5 15C3.77614 15 4 14.7761 4 14.5H3ZM4 24.5C4 24.2239 3.77614 24 3.5 24C3.22386 24 3 24.2239 3 24.5H4ZM5.5 5H26.5V4H5.5V5ZM28 6.5V26.5H29V6.5H28ZM26.5 28H5.5V29H26.5V28ZM4 14.5V6.5H3V14.5H4ZM4 26.5V24.5H3V26.5H4ZM5.5 28C4.67157 28 4 27.3284 4 26.5H3C3 27.8807 4.11929 29 5.5 29V28ZM28 26.5C28 27.3284 27.3284 28 26.5 28V29C27.8807 29 29 27.8807 29 26.5H28ZM26.5 5C27.3284 5 28 5.67157 28 6.5H29C29 5.11929 27.8807 4 26.5 4V5ZM5.5 4C4.11929 4 3 5.11929 3 6.5H4C4 5.67157 4.67157 5 5.5 5V4Z" fill="currentColor"/><path d="M9.5 2.5V6.5" stroke="currentColor" stroke-linecap="round" stroke-linejoin="round"/><path d="M22.5 2.5V6.5" stroke="currentColor" stroke-linecap="round" stroke-linejoin="round"/><path d="M3.5 10.5H28.5" stroke="currentColor" stroke-linecap="round" stroke-linejoin="round"/><path d="M2.5 19.5H16.5M16.5 19.5L13.5 16.5M16.5 19.5L13.5 22.5" stroke="currentColor" stroke-linecap="round" stroke-linejoin="round"/><path d="M20.5 17.5H24.5V21.5H20.5V17.5Z" stroke="currentColor" stroke-linecap="round" stroke-linejoin="round"/></svg>
