<svg viewBox="0 0 24 24" fill="none" xmlns="http://www.w3.org/2000/svg" width="1em" height="1em"><path d="M3 10.5C3 10.7761 3.22386 11 3.5 11C3.77614 11 4 10.7761 4 10.5H3ZM4 16.5C4 16.2239 3.77614 16 3.5 16C3.22386 16 3 16.2239 3 16.5H4ZM5.5 5H18.5V4H5.5V5ZM20 6.5V18.5H21V6.5H20ZM18.5 20H5.5V21H18.5V20ZM4 10.5V6.5H3V10.5H4ZM4 18.5V16.5H3V18.5H4ZM5.5 20C4.67157 20 4 19.3284 4 18.5H3C3 19.8807 4.11929 21 5.5 21V20ZM20 18.5C20 19.3284 19.3284 20 18.5 20V21C19.8807 21 21 19.8807 21 18.5H20ZM18.5 5C19.3284 5 20 5.67157 20 6.5H21C21 5.11929 19.8807 4 18.5 4V5ZM5.5 4C4.11929 4 3 5.11929 3 6.5H4C4 5.67157 4.67157 5 5.5 5V4Z" fill="currentColor"/><line x1="8.5" y1="3.5" x2="8.5" y2="5.5" stroke="currentColor" stroke-linecap="round" stroke-linejoin="round"/><line x1="15.5" y1="3.5" x2="15.5" y2="5.5" stroke="currentColor" stroke-linecap="round" stroke-linejoin="round"/><path d="M3.5 8.5H20" stroke="currentColor" stroke-linecap="round" stroke-linejoin="round"/><path d="M2.5 13.5H10.5M10.5 13.5L8.5 11.5M10.5 13.5L8.5 15.5" stroke="currentColor" stroke-linecap="round" stroke-linejoin="round"/><path d="M13.5 11.5H17.5V15.5H13.5V11.5Z" stroke="currentColor" stroke-linecap="round" stroke-linejoin="round"/></svg>
