<svg viewBox="0 0 32 32" fill="none" xmlns="http://www.w3.org/2000/svg" width="1em" height="1em"><path d="M3.5 14.5L3.5 6.5C3.5 5.39543 4.39543 4.5 5.5 4.5L26.5 4.5C27.6046 4.5 28.5 5.39543 28.5 6.5L28.5 26.5C28.5 27.6046 27.6046 28.5 26.5 28.5L5.5 28.5C4.39543 28.5 3.5 27.6046 3.5 26.5L3.5 24.5" stroke="currentColor" stroke-linecap="round" stroke-linejoin="round"/><path d="M9.5 2.5V6.5" stroke="currentColor" stroke-linecap="round" stroke-linejoin="round"/><path d="M22.5 2.5V6.5" stroke="currentColor" stroke-linecap="round" stroke-linejoin="round"/><path d="M3.5 10.5L28.5 10.5" stroke="currentColor" stroke-linecap="round" stroke-linejoin="round"/><path d="M2.5 19.5L16.5 19.5M16.5 19.5L13.5 16.5M16.5 19.5L13.5 22.5" stroke="currentColor" stroke-linecap="round" stroke-linejoin="round"/><path d="M20.5 17.5H24.5V21.5H20.5V17.5Z" stroke="currentColor" stroke-linecap="round" stroke-linejoin="round"/></svg>
