<svg viewBox="0 0 16 16" fill="none" xmlns="http://www.w3.org/2000/svg" width="1em" height="1em"><path d="M3 11.5C3 11.2239 2.77614 11 2.5 11C2.22386 11 2 11.2239 2 11.5H3ZM2 7.5C2 7.77614 2.22386 8 2.5 8C2.77614 8 3 7.77614 3 7.5H2ZM4 3H12V2H4V3ZM13 4V12H14V4H13ZM12 13H4V14H12V13ZM3 12V11.5H2V12H3ZM3 7.5V4H2V7.5H3ZM4 13C3.44772 13 3 12.5523 3 12H2C2 13.1046 2.89543 14 4 14V13ZM13 12C13 12.5523 12.5523 13 12 13V14C13.1046 14 14 13.1046 14 12H13ZM12 3C12.5523 3 13 3.44772 13 4H14C14 2.89543 13.1046 2 12 2V3ZM4 2C2.89543 2 2 2.89543 2 4H3C3 3.44772 3.44772 3 4 3V2Z" fill="currentColor"/><path d="M5.5 1.5V3.5" stroke="currentColor" stroke-linecap="round" stroke-linejoin="round"/><path d="M10.5 1.5V3.5" stroke="currentColor" stroke-linecap="round" stroke-linejoin="round"/><path d="M2.5 5.5H13.5" stroke="currentColor" stroke-linecap="round" stroke-linejoin="round"/><path d="M1.5 9.5H7.5M7.5 9.5L6.5 8.5M7.5 9.5L6.5 10.5" stroke="currentColor" stroke-linecap="round" stroke-linejoin="round"/><path d="M9.5 8.5H11.5V10.5H9.5V8.5Z" stroke="currentColor" stroke-linecap="round" stroke-linejoin="round"/></svg>
