<svg viewBox="0 0 16 16" fill="none" xmlns="http://www.w3.org/2000/svg" width="1em" height="1em"><path d="M11 4.5L5.5 7.5M11 11.5L5.5 8.5" stroke="currentColor" stroke-linejoin="round"/><path d="M5.5 8C5.5 8.82843 4.82843 9.5 4 9.5C3.17157 9.5 2.5 8.82843 2.5 8C2.5 7.17157 3.17157 6.5 4 6.5C4.82843 6.5 5.5 7.17157 5.5 8Z" stroke="currentColor" stroke-linecap="round" stroke-linejoin="round"/><path d="M13.5 12C13.5 12.8284 12.8284 13.5 12 13.5C11.1716 13.5 10.5 12.8284 10.5 12C10.5 11.1716 11.1716 10.5 12 10.5C12.8284 10.5 13.5 11.1716 13.5 12Z" stroke="currentColor" stroke-linecap="round" stroke-linejoin="round"/><path d="M13.5 4C13.5 4.82843 12.8284 5.5 12 5.5C11.1716 5.5 10.5 4.82843 10.5 4C10.5 3.17157 11.1716 2.5 12 2.5C12.8284 2.5 13.5 3.17157 13.5 4Z" stroke="currentColor" stroke-linecap="round" stroke-linejoin="round"/></svg>
