<svg viewBox="0 0 32 32" fill="none" xmlns="http://www.w3.org/2000/svg" width="1em" height="1em"><path d="M22.5 8L9 15M22.5 24L9 17.5" stroke="currentColor" stroke-linejoin="round"/><path d="M9.5 16C9.5 17.3807 8.38071 18.5 7 18.5C5.61929 18.5 4.5 17.3807 4.5 16C4.5 14.6193 5.61929 13.5 7 13.5C8.38071 13.5 9.5 14.6193 9.5 16Z" stroke="currentColor" stroke-linecap="round" stroke-linejoin="round"/><path d="M27.5 25C27.5 26.3807 26.3807 27.5 25 27.5C23.6193 27.5 22.5 26.3807 22.5 25C22.5 23.6193 23.6193 22.5 25 22.5C26.3807 22.5 27.5 23.6193 27.5 25Z" stroke="currentColor" stroke-linecap="round" stroke-linejoin="round"/><path d="M27.5 7C27.5 8.38071 26.3807 9.5 25 9.5C23.6193 9.5 22.5 8.38071 22.5 7C22.5 5.61929 23.6193 4.5 25 4.5C26.3807 4.5 27.5 5.61929 27.5 7Z" stroke="currentColor" stroke-linecap="round" stroke-linejoin="round"/></svg>
