<svg viewBox="0 0 24 24" fill="none" xmlns="http://www.w3.org/2000/svg" width="1em" height="1em"><path d="M7.5 12.5C7.5 13.6046 6.60457 14.5 5.5 14.5C4.39543 14.5 3.5 13.6046 3.5 12.5C3.5 11.3954 4.39543 10.5 5.5 10.5C6.60457 10.5 7.5 11.3954 7.5 12.5Z" stroke="currentColor" stroke-linecap="round" stroke-linejoin="round"/><path d="M16.5 6.5L7 11.5" stroke="currentColor" stroke-linejoin="round"/><path d="M16.5 18L7 13.5" stroke="currentColor" stroke-linejoin="round"/><path d="M20.5 18.5C20.5 19.6046 19.6046 20.5 18.5 20.5C17.3954 20.5 16.5 19.6046 16.5 18.5C16.5 17.3954 17.3954 16.5 18.5 16.5C19.6046 16.5 20.5 17.3954 20.5 18.5Z" stroke="currentColor" stroke-linecap="round" stroke-linejoin="round"/><path d="M20.5 5.5C20.5 6.60457 19.6046 7.5 18.5 7.5C17.3954 7.5 16.5 6.60457 16.5 5.5C16.5 4.39543 17.3954 3.5 18.5 3.5C19.6046 3.5 20.5 4.39543 20.5 5.5Z" stroke="currentColor" stroke-linecap="round" stroke-linejoin="round"/><rect x="-20.5" y="-60.5" width="71" height="131" rx="4.5" stroke="currentColor" stroke-dasharray="10 5"/></svg>
