<svg xmlns="http://www.w3.org/2000/svg" fill="none" viewBox="0 0 24 24" width="1em" height="1em"><rect width="71" height="131" x="-20.5" y="-60.5" stroke="currentColor" stroke-dasharray="10 5" rx="4.5"/><path stroke="currentColor" stroke-linecap="round" stroke-linejoin="round" d="M7.5 12.5a2 2 0 1 1-4 0 2 2 0 0 1 4 0Z"/><path stroke="currentColor" stroke-linejoin="round" d="m16.5 6.5-9.5 5m9.5 6.5L7 13.5"/><path stroke="currentColor" stroke-linecap="round" stroke-linejoin="round" d="M20.5 18.5a2 2 0 1 1-4 0 2 2 0 0 1 4 0Zm0-13a2 2 0 1 1-4 0 2 2 0 0 1 4 0Z"/></svg>
