<svg xmlns="http://www.w3.org/2000/svg" fill="none" viewBox="0 0 32 32" width="1em" height="1em"><path fill="currentColor" fill-rule="evenodd" d="M9 4.5a2.5 2.5 0 0 1 5 0v4a2.5 2.5 0 0 1 3.843 1.128A2.5 2.5 0 0 1 22 11.5a2.5 2.5 0 0 1 4 2v8a8.5 8.5 0 0 1-8.5 8.5H16a9.5 9.5 0 0 1-8.77-5.846l-3.993-9.586a2.577 2.577 0 1 1 4.757-1.982L9 15V4.5Zm16 15.506V13.5a1.5 1.5 0 0 0-3-.006V17.5a.5.5 0 0 1-1 0v-6a1.5 1.5 0 0 0-3-.002V16.5a.5.5 0 0 1-1 0v-6a1.5 1.5 0 0 0-3 0v5a.5.5 0 0 1-1 0v-11a1.5 1.5 0 0 0-3 0v12.987a.496.496 0 0 1-.077.28.5.5 0 0 1-.89-.086l-1.962-4.71a1.577 1.577 0 0 0-2.911 1.213l3.994 9.585A8.5 8.5 0 0 0 16 29h1.5a7.5 7.5 0 0 0 7.5-7.5v-1.494Z" clip-rule="evenodd"/></svg>
