<svg xmlns="http://www.w3.org/2000/svg" fill="none" viewBox="0 0 24 24" width="1em" height="1em"><path fill="currentColor" fill-rule="evenodd" d="M9.75 3A1.75 1.75 0 0 0 8 4.75v5.632l-.17-.342a1.882 1.882 0 0 0-3.397 1.62l2.866 6.307A5.174 5.174 0 0 0 12.01 21h1.69a5.3 5.3 0 0 0 5.3-5.3v-4.45a1.75 1.75 0 0 0-2.502-1.58 1.75 1.75 0 0 0-2.582-1.459A1.75 1.75 0 0 0 11.5 7.168V4.75A1.75 1.75 0 0 0 9.75 3Zm1.75 5.75v2.75a.5.5 0 0 1-1 0V4.75a.75.75 0 0 0-1.5 0v7.737a.5.5 0 0 1-.953.225l-1.112-2.224a.882.882 0 0 0-1.592.759l2.867 6.306A4.174 4.174 0 0 0 12.01 20h1.69a4.3 4.3 0 0 0 4.3-4.3v-4.45a.75.75 0 0 0-1.5-.01v1.26a.5.5 0 1 1-1 0V9.75a.75.75 0 0 0-1.5-.003V12a.5.5 0 0 1-1 0V8.75a.75.75 0 0 0-1.5 0Z" clip-rule="evenodd"/></svg>
