<svg xmlns="http://www.w3.org/2000/svg" fill="none" viewBox="0 0 16 16" width="1em" height="1em"><path fill="currentColor" fill-rule="evenodd" d="M5 2.75a1.75 1.75 0 0 1 3.5 0V6h2A2.5 2.5 0 0 1 13 8.5v1.285A4.215 4.215 0 0 1 8.785 14H6.82a3.72 3.72 0 0 1-3.53-2.544l-1.316-3.95A1.524 1.524 0 0 1 4.727 6.24L5 6.695zM6.75 2a.75.75 0 0 0-.75.75V8.5a.5.5 0 0 1-.929.257L3.869 6.754a.524.524 0 0 0-.945.435L4.24 11.14A2.72 2.72 0 0 0 6.821 13h1.964A3.215 3.215 0 0 0 12 9.785V8.5A1.5 1.5 0 0 0 10.5 7h-2a1 1 0 0 1-1-1V2.75A.75.75 0 0 0 6.75 2" clip-rule="evenodd"/></svg>
