<svg xmlns="http://www.w3.org/2000/svg" fill="none" viewBox="0 0 32 32" width="1em" height="1em"><path stroke="currentColor" stroke-linecap="round" d="M20.5 3.98V6.5a2 2 0 0 0 2 2H25m.5 2V9.328a2 2 0 0 0-.586-1.414l-3.828-3.828a2 2 0 0 0-1.414-.586H8.5a2 2 0 0 0-2 2v21a2 2 0 0 0 2 2h15a2 2 0 0 0 2-2v-1"/><circle cx="25" cy="18" r="4.5" stroke="currentColor"/><path stroke="currentColor" stroke-linecap="round" d="M25 16.333v3.334M26.667 18h-3.334M9.5 8.5v17"/><rect width="3" height="11" x="20.5" y="10.5" stroke="currentColor" rx=".5" transform="rotate(90 20.5 10.5)"/><rect width="3" height="8" x="17.5" y="20.5" stroke="currentColor" rx=".5" transform="rotate(90 17.5 20.5)"/><rect width="3" height="7" x="16.5" y="15.5" stroke="currentColor" rx=".5" transform="rotate(90 16.5 15.5)"/></svg>
