<svg xmlns="http://www.w3.org/2000/svg" fill="none" viewBox="0 0 24 24" width="1em" height="1em"><path stroke="currentColor" stroke-linecap="round" d="M15.5 2.904v2.634a1 1 0 0 0 1 1h2.375m.625.962v-.172a2 2 0 0 0-.586-1.414l-2.828-2.828a2 2 0 0 0-1.414-.586H6.5a2 2 0 0 0-2 2v15a2 2 0 0 0 2 2h11a2 2 0 0 0 2-2v-1"/><path stroke="currentColor" d="M7.5 6.5H13a.5.5 0 0 1 .5.5v1a.5.5 0 0 1-.5.5H7.5zm0 8H11a.5.5 0 0 1 .5.5v1a.5.5 0 0 1-.5.5H7.5zm0-4H10a.5.5 0 0 1 .5.5v1a.5.5 0 0 1-.5.5H7.5z"/><path stroke="currentColor" stroke-linecap="round" d="M7.5 5.5v13"/><circle cx="18" cy="13" r="3.5" stroke="currentColor"/><path stroke="currentColor" stroke-linecap="round" d="M16.5 13h3M18 11.5v3"/></svg>
