<svg viewBox="0 0 16 16" fill="none" xmlns="http://www.w3.org/2000/svg" width="1em" height="1em"><path d="M14.5 8C14.5 11.5899 11.5899 14.5 8 14.5C4.41015 14.5 1.5 11.5899 1.5 8C1.5 7.65994 1.52611 7.32597 1.57645 7M9 7.06428L12.6282 3.43606C11.4495 2.24085 9.81127 1.5 8 1.5C6.72592 1.5 5.53745 1.86657 4.53431 2.5" stroke="currentColor" stroke-linecap="round" stroke-linejoin="round"/><circle cx="8" cy="8" r="1" stroke="currentColor" stroke-linecap="round"/><path d="M3.5 4.5C3.5 5.05228 3.05228 5.5 2.5 5.5C1.94772 5.5 1.5 5.05228 1.5 4.5C1.5 3.94772 1.94772 3.5 2.5 3.5C3.05228 3.5 3.5 3.94772 3.5 4.5Z" stroke="currentColor"/></svg>
