<svg xmlns="http://www.w3.org/2000/svg" fill="none" viewBox="0 0 24 24" width="1em" height="1em"><path stroke="currentColor" stroke-linecap="round" stroke-linejoin="round" d="M21.5 12a9.5 9.5 0 0 1-19 0c0-1.048.17-2.057.483-3M14 10.094l4.764-4.764A9.471 9.471 0 0 0 12 2.5a9.46 9.46 0 0 0-6 2.134"/><circle cx="12" cy="12" r="2.5" stroke="currentColor" stroke-linecap="round"/><path stroke="currentColor" stroke-linecap="round" d="M15.565 7.756a5.5 5.5 0 1 0-.289 8.604"/><circle cx="4" cy="6.5" r="1" stroke="currentColor"/><path stroke="currentColor" d="M17.5 15.5a1 1 0 1 1-2 0 1 1 0 0 1 2 0Z"/></svg>
