<svg viewBox="0 0 24 24" fill="none" xmlns="http://www.w3.org/2000/svg" width="1em" height="1em"><path d="M21.5 12C21.5 17.2467 17.2467 21.5 12 21.5C6.75329 21.5 2.5 17.2467 2.5 12C2.5 10.9517 2.6698 9.943 2.98341 9M14 10.0939L18.7643 5.32962C17.0416 3.58278 14.6472 2.5 12 2.5C9.7245 2.5 7.63585 3.30003 6 4.63416" stroke="currentColor" stroke-linecap="round" stroke-linejoin="round"/><circle cx="12" cy="12" r="2.5" stroke="currentColor" stroke-linecap="round"/><path d="M15.5646 7.756C14.5072 6.85504 13.1097 6.35162 11.6143 6.45618C8.58418 6.66807 6.29952 9.29628 6.51141 12.3264C6.7233 15.3566 9.3515 17.6413 12.3817 17.4294C13.4694 17.3533 14.4611 16.9659 15.2757 16.3603" stroke="currentColor" stroke-linecap="round"/><circle cx="4" cy="6.5" r="1" stroke="currentColor"/><path d="M17.5 15.5C17.5 16.0523 17.0523 16.5 16.5 16.5C15.9477 16.5 15.5 16.0523 15.5 15.5C15.5 14.9477 15.9477 14.5 16.5 14.5C17.0523 14.5 17.5 14.9477 17.5 15.5Z" stroke="currentColor"/></svg>
