<svg viewBox="0 0 32 32" fill="none" xmlns="http://www.w3.org/2000/svg" width="1em" height="1em"><path d="M28.5 16C28.5 22.9036 22.9036 28.5 16 28.5C9.09644 28.5 3.5 22.9036 3.5 16C3.5 14.6206 3.72343 13.2934 4.13606 12.0526M18.6316 13.492L24.9004 7.22319C22.6337 4.92471 19.4832 3.5 16 3.5C13.0059 3.5 10.2577 4.55267 8.10526 6.3081" stroke="currentColor" stroke-linecap="round" stroke-linejoin="round"/><circle cx="16" cy="16" r="3.5" stroke="currentColor" stroke-linecap="round"/><path d="M21.2354 10.5941C19.856 9.24189 17.9666 8.40811 15.8824 8.40811C11.6591 8.40811 8.23535 11.8318 8.23535 16.0552C8.23535 20.2785 11.6591 23.7022 15.8824 23.7022C17.3985 23.7022 18.8115 23.2611 20.0001 22.5001" stroke="currentColor" stroke-linecap="round"/><path d="M7.5 9C7.5 9.82843 6.82843 10.5 6 10.5C5.17157 10.5 4.5 9.82843 4.5 9C4.5 8.17157 5.17157 7.5 6 7.5C6.82843 7.5 7.5 8.17157 7.5 9Z" stroke="currentColor"/><path d="M22.5 21C22.5 21.8284 21.8284 22.5 21 22.5C20.1716 22.5 19.5 21.8284 19.5 21C19.5 20.1716 20.1716 19.5 21 19.5C21.8284 19.5 22.5 20.1716 22.5 21Z" stroke="currentColor"/></svg>
