<svg viewBox="0 0 24 24" fill="none" xmlns="http://www.w3.org/2000/svg" stroke="currentColor"><path d="M21.5 12C21.5 17.2467 17.2467 21.5 12 21.5C6.75329 21.5 2.5 17.2467 2.5 12C2.5 10.9517 2.6698 9.943 2.98341 9M14 10.0939L18.7643 5.32962C17.0416 3.58278 14.6472 2.5 12 2.5C9.7245 2.5 7.63585 3.30003 6 4.63416" stroke-linecap="round" stroke-linejoin="round"/><circle cx="12" cy="12" r="2.5" stroke-linecap="round"/><path d="M15.5646 7.75576C14.5071 6.85479 13.1096 6.35137 11.6143 6.45594C8.58412 6.66783 6.29946 9.29604 6.51135 12.3262C6.72324 15.3564 9.35144 17.641 12.3816 17.4291C13.4693 17.3531 14.461 16.9657 15.2756 16.36" stroke-linecap="round"/><circle cx="4" cy="6.5" r="1"/><path d="M17.5 15.5C17.5 16.0523 17.0523 16.5 16.5 16.5C15.9477 16.5 15.5 16.0523 15.5 15.5C15.5 14.9477 15.9477 14.5 16.5 14.5C17.0523 14.5 17.5 14.9477 17.5 15.5Z"/></svg>