<svg xmlns="http://www.w3.org/2000/svg" fill="none" viewBox="0 0 32 32" width="1em" height="1em"><path stroke="currentColor" stroke-linecap="round" stroke-linejoin="round" d="M28.5 16c0 6.904-5.596 12.5-12.5 12.5S3.5 22.904 3.5 16c0-1.38.223-2.707.636-3.947m14.496 1.439L24.9 7.223A12.46 12.46 0 0 0 16 3.5a12.45 12.45 0 0 0-7.895 2.808"/><circle cx="16" cy="16" r="3.5" stroke="currentColor" stroke-linecap="round"/><path stroke="currentColor" stroke-linecap="round" d="M21.235 10.594A7.647 7.647 0 1 0 20 22.5"/><path stroke="currentColor" d="M7.5 9a1.5 1.5 0 1 1-3 0 1.5 1.5 0 0 1 3 0Zm15 12a1.5 1.5 0 1 1-3 0 1.5 1.5 0 0 1 3 0Z"/></svg>
