<svg xmlns="http://www.w3.org/2000/svg" fill="none" viewBox="0 0 32 32" width="1em" height="1em"><path stroke="currentColor" d="M4.5 7.442a1.5 1.5 0 0 1 1.026-1.424l10-3.333a1.5 1.5 0 0 1 .948 0l10 3.333A1.5 1.5 0 0 1 27.5 7.442v9.23a11.5 11.5 0 0 1-6.496 10.354l-4.351 2.103a1.5 1.5 0 0 1-1.306 0l-4.351-2.103A11.5 11.5 0 0 1 4.5 16.672z"/><path stroke="currentColor" d="M10.5 15a1.5 1.5 0 0 1 1.5-1.5h8a1.5 1.5 0 0 1 1.5 1.5v7a1.5 1.5 0 0 1-1.5 1.5h-8a1.5 1.5 0 0 1-1.5-1.5zm9-2v-3a3.5 3.5 0 1 0-7 0v3"/><path stroke="currentColor" stroke-linejoin="round" d="M16 16.5c-.828 0-1.5.652-1.5 1.457 0 .54.302 1.01.75 1.262l-.375 1.281h2.25l-.375-1.28a1.45 1.45 0 0 0 .75-1.263c0-.805-.672-1.457-1.5-1.457Z"/></svg>
