<svg xmlns="http://www.w3.org/2000/svg" fill="none" viewBox="0 0 24 24" width="1em" height="1em"><path stroke="currentColor" d="M3.5 5.72a.5.5 0 0 1 .342-.474l8-2.666a.5.5 0 0 1 .316 0l8 2.666a.5.5 0 0 1 .342.475v6.257a9.5 9.5 0 0 1-7.44 9.274l-1.06.236-1.06-.236a9.5 9.5 0 0 1-7.44-9.274z"/><path stroke="currentColor" d="M8.5 12a1.5 1.5 0 0 1 1.5-1.5h4a1.5 1.5 0 0 1 1.5 1.5v3a1.5 1.5 0 0 1-1.5 1.5h-4A1.5 1.5 0 0 1 8.5 15zm6-1.5V8a2.5 2.5 0 0 0-5 0v2.5"/><path fill="currentColor" d="M13 13a1 1 0 1 1-2 0 1 1 0 0 1 2 0"/><path fill="currentColor" d="M11.5 13.5a.5.5 0 0 1 1 0v1a.5.5 0 0 1-1 0z"/></svg>
