<svg viewBox="0 0 24 24" fill="none" xmlns="http://www.w3.org/2000/svg" width="1em" height="1em"><path d="M13.5001 17.5218V16.5C13.5001 14.8431 12.1569 13.5 10.5001 13.5L6.50006 13.5C4.84321 13.5 3.50006 14.8431 3.50006 16.5L3.50006 17.5218" stroke="currentColor" stroke-linecap="round" stroke-linejoin="round"/><path d="M20.5001 17.5218V16.5C20.5001 14.8431 19.1569 13.5 17.5001 13.5H14.5001" stroke="currentColor" stroke-linecap="round" stroke-linejoin="round"/><path d="M8.50006 11C9.60463 11 10.5001 10.1046 10.5001 9C10.5001 7.89543 9.60463 7 8.50006 7C7.39549 7 6.50006 7.89543 6.50006 9C6.50006 10.1046 7.39549 11 8.50006 11Z" stroke="currentColor" stroke-linecap="round" stroke-linejoin="round"/><path d="M16.5001 11C17.6046 11 18.5001 10.1046 18.5001 9C18.5001 7.89543 17.6046 7 16.5001 7C15.3955 7 14.5001 7.89543 14.5001 9C14.5001 10.1046 15.3955 11 16.5001 11Z" stroke="currentColor" stroke-linecap="round" stroke-linejoin="round"/></svg>
