<svg viewBox="0 0 16 16" fill="none" xmlns="http://www.w3.org/2000/svg" width="1em" height="1em"><path d="M9.5 12.5217V11.5C9.5 10.3954 8.60456 9.49995 7.49998 9.49996L4.49998 9.49998C3.39542 9.49999 2.5 10.3954 2.5 11.5V12.5218" stroke="currentColor" stroke-linecap="round" stroke-linejoin="round"/><path d="M13.4999 12.5218V11.5C13.4999 10.3954 12.6045 9.5 11.4999 9.5H10.4999" stroke="currentColor" stroke-linecap="round" stroke-linejoin="round"/><path d="M6 7.5C6.82843 7.5 7.5 6.82843 7.5 6C7.5 5.17157 6.82843 4.5 6 4.5C5.17157 4.5 4.5 5.17157 4.5 6C4.5 6.82843 5.17157 7.5 6 7.5Z" stroke="currentColor" stroke-linecap="round" stroke-linejoin="round"/><path d="M11 7.5C11.8284 7.5 12.5 6.82843 12.5 6C12.5 5.17157 11.8284 4.5 11 4.5C10.1716 4.5 9.5 5.17157 9.5 6C9.5 6.82843 10.1716 7.5 11 7.5Z" stroke="currentColor" stroke-linecap="round" stroke-linejoin="round"/></svg>
