<svg viewBox="0 0 32 32" fill="none" xmlns="http://www.w3.org/2000/svg" stroke="currentColor"><path d="M17.5 24.5V22.5C17.5 20.2909 15.7091 18.5 13.5 18.5H8.5C6.29086 18.5 4.5 20.2909 4.5 22.5V24.5" stroke-linecap="round" stroke-linejoin="round"/><path d="M27.5 24.5V22.5C27.5 20.2909 25.7091 18.5 23.5 18.5H19.5" stroke-linecap="round" stroke-linejoin="round"/><path d="M11 14.5C12.6569 14.5 14 13.1569 14 11.5C14 9.84315 12.6569 8.5 11 8.5C9.34315 8.5 8 9.84315 8 11.5C8 13.1569 9.34315 14.5 11 14.5Z" stroke-linecap="round" stroke-linejoin="round"/><path d="M22 14.5C23.6569 14.5 25 13.1569 25 11.5C25 9.84315 23.6569 8.5 22 8.5C20.3431 8.5 19 9.84315 19 11.5C19 13.1569 20.3431 14.5 22 14.5Z" stroke-linecap="round" stroke-linejoin="round"/></svg>
