<svg viewBox="0 0 24 24" fill="none" xmlns="http://www.w3.org/2000/svg" stroke="currentColor" width="1em" height="1em"><path d="M13.5 17.5218V16.5C13.5 14.8431 12.1569 13.5 10.5 13.5L6.5 13.5C4.84315 13.5 3.5 14.8431 3.5 16.5V17.5218" stroke-linecap="round" stroke-linejoin="round"/><path d="M20.5 17.5218V16.5C20.5 14.8431 19.1569 13.5 17.5 13.5H14.5" stroke-linecap="round" stroke-linejoin="round"/><path d="M8.5 11C9.60457 11 10.5 10.1046 10.5 9C10.5 7.89543 9.60457 7 8.5 7C7.39543 7 6.5 7.89543 6.5 9C6.5 10.1046 7.39543 11 8.5 11Z" stroke-linecap="round" stroke-linejoin="round"/><path d="M16.5 11C17.6046 11 18.5 10.1046 18.5 9C18.5 7.89543 17.6046 7 16.5 7C15.3954 7 14.5 7.89543 14.5 9C14.5 10.1046 15.3954 11 16.5 11Z" stroke-linecap="round" stroke-linejoin="round"/></svg>
