<svg xmlns="http://www.w3.org/2000/svg" fill="none" viewBox="0 0 32 32" width="1em" height="1em"><path stroke="currentColor" d="M26.5 25v1.5a2 2 0 0 1-2 2h-6"/><rect width="5" height="2" x="13.5" y="27.5" stroke="currentColor" rx="1"/><path stroke="currentColor" d="M2.5 19.6a5.1 5.1 0 0 1 5.1-5.1.9.9 0 0 1 .9.9v9.2a.9.9 0 0 1-.9.9 5.1 5.1 0 0 1-5.1-5.1zm27 0a5.1 5.1 0 0 0-5.1-5.1.9.9 0 0 0-.9.9v9.2a.9.9 0 0 0 .9.9 5.1 5.1 0 0 0 5.1-5.1z"/><path stroke="currentColor" d="M29.5 20v-4c0-7.18-6.32-13-13.5-13S2.5 8.82 2.5 16v3.5"/></svg>
