<svg xmlns="http://www.w3.org/2000/svg" fill="none" viewBox="0 0 24 24" width="1em" height="1em"><path stroke="currentColor" d="M19.5 17.5v2a1 1 0 0 1-1 1h-4m-12-6.23V11.5c0-4.97 4.53-9 9.5-9s9.5 4.03 9.5 9v2.77"/><rect width="3" height="2" x="11.457" y="19.568" stroke="currentColor" rx="1" transform="rotate(-2.546 11.457 19.568)"/><path stroke="currentColor" d="M2.5 13.333A2.833 2.833 0 0 1 5.333 10.5c.645 0 1.167.522 1.167 1.167v4.666c0 .645-.522 1.167-1.167 1.167A2.833 2.833 0 0 1 2.5 14.667zm19 0a2.833 2.833 0 0 0-2.833-2.833c-.645 0-1.167.522-1.167 1.167v4.666c0 .645.522 1.167 1.167 1.167a2.833 2.833 0 0 0 2.833-2.833z"/></svg>
