<svg viewBox="0 0 24 24" fill="none" xmlns="http://www.w3.org/2000/svg" width="1em" height="1em"><path d="M19.5 17.5V19.5C19.5 20.0523 19.0523 20.5 18.5 20.5H14.5" stroke="currentColor"/><path d="M2.5 14.2692L2.5 11.5C2.5 6.52944 7.02944 2.5 12 2.5C16.9706 2.5 21.5 6.52944 21.5 11.5V14.2692" stroke="currentColor"/><rect x="11.4571" y="19.5676" width="3" height="2" rx="1" transform="rotate(-2.5456 11.4571 19.5676)" stroke="currentColor"/><path d="M2.5 13.3333C2.5 11.7685 3.76853 10.5 5.33333 10.5C5.97767 10.5 6.5 11.0223 6.5 11.6667V16.3333C6.5 16.9777 5.97767 17.5 5.33333 17.5C3.76853 17.5 2.5 16.2315 2.5 14.6667L2.5 13.3333Z" stroke="currentColor"/><path d="M21.5 13.3333C21.5 11.7685 20.2315 10.5 18.6667 10.5C18.0223 10.5 17.5 11.0223 17.5 11.6667V16.3333C17.5 16.9777 18.0223 17.5 18.6667 17.5C20.2315 17.5 21.5 16.2315 21.5 14.6667V13.3333Z" stroke="currentColor"/></svg>
