<svg viewBox="0 0 16 16" fill="none" xmlns="http://www.w3.org/2000/svg" width="1em" height="1em"><path d="M14.5 10V7.39815C14.5 4.14069 11.5899 1.5 8 1.5C4.41015 1.5 1.5 4.14069 1.5 7.39815V10" stroke="currentColor"/><path d="M13.5 12V12.5C13.5 13.0523 13.0523 13.5 12.5 13.5H10" stroke="currentColor" stroke-linecap="round"/><circle cx="8.5" cy="13.5" r="1" stroke="currentColor"/><path d="M1.5 9.66667C1.5 8.47005 2.47005 7.5 3.66667 7.5C4.1269 7.5 4.5 7.8731 4.5 8.33333V11.1667C4.5 11.6269 4.1269 12 3.66667 12C2.47005 12 1.5 11.03 1.5 9.83333L1.5 9.66667Z" stroke="currentColor"/><path d="M14.5 9.66667C14.5 8.47005 13.53 7.5 12.3333 7.5C11.8731 7.5 11.5 7.8731 11.5 8.33333V11.1667C11.5 11.6269 11.8731 12 12.3333 12C13.53 12 14.5 11.03 14.5 9.83333V9.66667Z" stroke="currentColor"/></svg>
