<svg xmlns="http://www.w3.org/2000/svg" fill="none" viewBox="0 0 16 16" width="1em" height="1em"><path stroke="currentColor" d="M14.5 10V7.398C14.5 4.141 11.59 1.5 8 1.5S1.5 4.14 1.5 7.398V10"/><path stroke="currentColor" stroke-linecap="round" d="M13.5 12v.5a1 1 0 0 1-1 1H10"/><circle cx="8.5" cy="13.5" r="1" stroke="currentColor"/><path stroke="currentColor" d="M1.5 9.667C1.5 8.47 2.47 7.5 3.667 7.5c.46 0 .833.373.833.833v2.834c0 .46-.373.833-.833.833A2.167 2.167 0 0 1 1.5 9.833v-.166Zm13 0c0-1.197-.97-2.167-2.167-2.167a.833.833 0 0 0-.833.833v2.834c0 .46.373.833.833.833 1.197 0 2.167-.97 2.167-2.167v-.166Z"/></svg>
