<svg xmlns="http://www.w3.org/2000/svg" fill="none" viewBox="0 0 24 24" width="1em" height="1em"><path fill="currentColor" d="m5.5 7 .038-.499L5.52 6.5H5.5V7Zm13 0v-.5h-.02l-.018.001L18.5 7Zm0 1.5V8h-.05l-.048.01.098.49Zm-5 1-.098-.49-.402.08v.41h.5Zm0 3.5H13v.087l.03.081.47-.168Zm2.5 7 .48-.14-.004-.014-.005-.014L16 20Zm-1.5.5-.461.192.006.016.008.016.447-.224Zm-2.5-6 .461-.192a.5.5 0 0 0-.922 0L12 14.5Zm-2.5 6 .447.224.008-.016.007-.016L9.5 20.5ZM8 20.059l-.471-.167-.005.014-.004.014.48.139ZM10.5 13l.471.167.029-.081V13h-.5Zm0-3.5h.5v-.41l-.402-.08-.098.49Zm-5-1 .098-.49L5.55 8H5.5v.5Zm6.5-1-.038.499L12 8h.038L12 7.5Zm1.598 2.49 5-1-.196-.98-5 1 .196.98ZM14 13V9.5h-1V13h1Zm-.97.168 2.5 7 .94-.336-2.5-7-.94.336Zm1.931 7.14-2.5-6-.922.384 2.5 6 .922-.384Zm-4.932-7.475-2.5 7.059.942.334 2.5-7.06-.942-.333ZM10 9.5V13h1V9.5h-1Zm-4.598-.51 5 1 .196-.98-5-1-.196.98Zm4.56 11.702 2.5-6-.923-.384-2.5 6 .923.384Zm8.5-14.19-6.5.5.076.997 6.5-.5-.076-.998Zm-6.424.5-6.5-.5-.076.997 6.5.5.076-.998ZM18.5 9c.387 0 .715-.148.942-.4.219-.242.319-.553.32-.85 0-.295-.1-.607-.32-.85a1.24 1.24 0 0 0-.942-.4v1c.121 0 .174.04.2.07a.27.27 0 0 1 .061.18.273.273 0 0 1-.062.18c-.027.03-.08.07-.199.07v1Zm-13-2.5c-.387 0-.715.148-.941.4a1.27 1.27 0 0 0-.319.85c0 .296.1.607.319.85.226.252.554.4.941.4V8c-.12 0-.172-.04-.198-.069a.272.272 0 0 1-.062-.181c0-.08.028-.143.062-.181.026-.03.078-.069.198-.069v-1Zm10.02 13.64c.034.116.015.194-.011.244a.276.276 0 0 1-.147.127.265.265 0 0 1-.194 0c-.057-.023-.144-.08-.22-.235l-.895.448c.362.724 1.073.947 1.665.721.572-.218.977-.845.762-1.585l-.96.28Zm-8-.22c-.215.741.194 1.362.78 1.56.594.203 1.29-.043 1.647-.756l-.894-.448c-.078.156-.168.222-.233.25a.277.277 0 0 1-.199.008.234.234 0 0 1-.132-.107c-.022-.04-.043-.111-.009-.23l-.96-.277Z"/><path stroke="currentColor" stroke-linecap="round" stroke-linejoin="round" d="M12 5.5a1.5 1.5 0 1 0 0-3 1.5 1.5 0 0 0 0 3Z"/></svg>
