<svg xmlns="http://www.w3.org/2000/svg" fill="none" viewBox="0 0 16 16" width="1em" height="1em"><path fill="currentColor" d="m4 3 .265-.424-.02-.013-.021-.01zm8 0-.224-.447-.02.01-.021.013zM9.5 6.5l-.277-.416L9 6.232V6.5zm0 2H9v.073l.021.07zm1.5 5-.479.144.012.041.02.039zm-1.5.5-.474.158.01.034.017.032zM8 9.5l.474-.158a.5.5 0 0 0-.948 0zM6.5 14l.447.224.016-.032.011-.034zM5 13.5l.447.224.02-.039.012-.041zm1.5-5 .479.144.021-.07V8.5zm0-2H7v-.268l-.223-.148zm1.5-1-.265.424L8 6.09l.265-.166zM4.224 2.553c-.325-.162-.652-.224-.958-.17-.309.053-.56.218-.729.442a1.17 1.17 0 0 0 .11 1.529l.707-.708a.17.17 0 0 1-.017-.221.15.15 0 0 1 .1-.057c.053-.01.164-.009.34.08zm9.13 1.8a1.17 1.17 0 0 0 .109-1.528 1.15 1.15 0 0 0-.729-.443c-.306-.053-.633.009-.958.17l.448.895c.175-.088.286-.089.339-.08.05.01.08.032.1.058a.17.17 0 0 1-.017.221zM10 8.5v-2H9v2zm-.979.144 1.5 5 .958-.288-1.5-5zm.953 5.198-1.5-4.5-.948.316 1.5 4.5zM6.021 8.356l-1.5 5 .958.288 1.5-5zM6 6.5v2h1v-2zm.974 7.658 1.5-4.5-.948-.316-1.5 4.5zm4.761-11.582-4 2.5.53.848 4-2.5zm-3.47 2.5-4-2.5-.53.848 4 2.5zm-5.619-.722c.158.157.472.398.816.65.357.262.783.562 1.19.845a119 119 0 0 0 1.536 1.044l.026.017.006.005h.002v.001L6.5 6.5l.277-.416-.002-.001-.006-.005-.12-.08a119 119 0 0 1-1.427-.972c-.405-.28-.822-.574-1.169-.828-.358-.263-.607-.459-.7-.552zM9.5 6.5l.277.416h.001l.002-.002.006-.004.026-.017.445-.299c.29-.196.682-.463 1.09-.745.408-.283.834-.583 1.19-.844.345-.253.66-.494.816-.651l-.707-.708c-.092.093-.34.29-.7.552-.346.254-.763.548-1.168.828a118 118 0 0 1-1.522 1.036l-.025.016-.006.005h-.002v.001zm-4.947 6.776c-.18.36-.206.739-.055 1.072.146.32.425.528.719.626a1.423 1.423 0 0 0 1.73-.75l-.894-.448c-.129.258-.36.303-.52.25-.081-.027-.114-.07-.125-.092-.005-.011-.03-.07.04-.21zm6 .448c.07.14.044.198.039.21-.01.022-.044.065-.125.092-.16.053-.391.008-.52-.25l-.894.448c.371.742 1.14.947 1.73.75.294-.098.573-.305.72-.626.15-.333.124-.711-.056-1.072z"/><path stroke="currentColor" stroke-linecap="round" stroke-linejoin="round" d="M8 3.5a1 1 0 1 0 0-2 1 1 0 0 0 0 2"/></svg>
