<svg xmlns="http://www.w3.org/2000/svg" fill="none" viewBox="0 0 32 32" width="1em" height="1em"><path fill="currentColor" d="m7.5 7.5.058-.497L7.53 7H7.5zm17 0V7h-.03l-.028.003zm0 2V9h-.041l-.041.007zm-6 1-.082-.493-.418.07v.423zm0 5.5H18v.098l.037.091zM23 27l.474-.158-.005-.016-.006-.015zm-2 .5.474-.158-.01-.034-.017-.032zm-5-10 .447-.224a.5.5 0 0 0-.894 0zm-5 10-.447-.224-.016.032-.011.034zM9 27l-.463-.19-.006.016-.005.016zm4.5-11 .463.19.037-.092V16zm0-5.5h.5v-.424l-.418-.07zm-6-1 .082-.493L7.542 9H7.5zm8.5-1-.058.497.058.006.058-.006zm2.582 2.493 6-1-.164-.986-6 1zM19 16v-5.5h-1V16zm-.963.19 4.5 11 .926-.38-4.5-11zm3.41 11.086-5-10-.894.448 5 10zm-8.41-11.465-4.5 11 .926.378 4.5-11zM13 10.5V16h1v-5.5zm-5.582-.507 6 1 .164-.986-6-1zm4.03 17.73 5-10-.895-.447-5 10zm12.994-20.72-8.5 1 .116.994 8.5-1zm-8.384 1-8.5-1-.116.994 8.5 1zM24.5 10c.491 0 .905-.167 1.198-.459a1.47 1.47 0 0 0 .43-1.04c0-.374-.14-.755-.429-1.042C25.407 7.166 24.992 7 24.5 7v1c.26 0 .41.084.493.166a.47.47 0 0 1 .134.333.47.47 0 0 1-.136.335c-.083.083-.232.166-.491.166zm-17-3c-.491 0-.905.167-1.197.459A1.47 1.47 0 0 0 5.875 8.5c0 .374.14.754.428 1.041.292.292.706.459 1.197.459V9c-.259 0-.407-.083-.49-.166a.47.47 0 0 1-.135-.334.47.47 0 0 1 .135-.334C7.093 8.083 7.24 8 7.5 8zm15.026 20.158c.09.269.051.436.002.529a.42.42 0 0 1-.274.203c-.238.06-.61-.037-.78-.548l-.948.316c.33.989 1.208 1.393 1.97 1.202.373-.093.716-.331.914-.703.2-.376.225-.834.064-1.315zm-14-.316c-.16.481-.136.94.064 1.315.198.372.54.61.914.703.762.19 1.64-.213 1.97-1.202l-.948-.316c-.17.511-.542.607-.78.548a.42.42 0 0 1-.274-.203c-.049-.093-.087-.26.002-.529z"/><path stroke="currentColor" stroke-linecap="round" stroke-linejoin="round" d="M16 6a1.5 1.5 0 1 0 0-3 1.5 1.5 0 0 0 0 3"/></svg>
