<svg xmlns="http://www.w3.org/2000/svg" fill="none" viewBox="0 0 32 32" width="1em" height="1em"><path fill="currentColor" d="m7.5 7.5.058-.497L7.53 7H7.5v.5Zm17 0V7h-.03l-.028.003.058.497Zm0 2V9h-.041l-.041.007.082.493Zm-6 1-.082-.493-.418.07v.423h.5Zm0 5.5H18v.098l.037.091L18.5 16ZM23 27l.474-.158-.005-.016-.006-.015L23 27Zm-2 .5.474-.158-.01-.034-.017-.032L21 27.5Zm-5-10 .447-.224a.5.5 0 0 0-.894 0L16 17.5Zm-5 10-.447-.224-.016.032-.011.034.474.158ZM9 27l-.463-.19-.006.016-.005.016L9 27Zm4.5-11 .463.19.037-.092V16h-.5Zm0-5.5h.5v-.424l-.418-.07-.082.494Zm-6-1 .082-.493L7.542 9H7.5v.5Zm8.5-1-.058.497.058.006.058-.006L16 8.5Zm2.582 2.493 6-1-.164-.986-6 1 .164.986ZM19 16v-5.5h-1V16h1Zm-.963.19 4.5 11 .926-.38-4.5-11-.926.38Zm3.41 11.086-5-10-.894.448 5 10 .894-.448Zm-8.41-11.465-4.5 11 .926.378 4.5-11-.926-.378ZM13 10.5V16h1v-5.5h-1Zm-5.582-.507 6 1 .164-.986-6-1-.164.986Zm4.03 17.73 5-10-.895-.447-5 10 .894.448Zm12.994-20.72-8.5 1 .116.994 8.5-1-.116-.994Zm-8.384 1-8.5-1-.116.994 8.5 1 .116-.994ZM24.5 10c.491 0 .905-.167 1.198-.459a1.47 1.47 0 0 0 .43-1.04c0-.374-.14-.755-.429-1.042C25.407 7.166 24.992 7 24.5 7v1c.26 0 .41.084.493.166a.466.466 0 0 1 .134.333.47.47 0 0 1-.136.335c-.083.083-.232.166-.491.166v1Zm-17-3c-.491 0-.905.167-1.197.459A1.47 1.47 0 0 0 5.875 8.5c0 .374.14.754.428 1.041.292.292.706.459 1.197.459V9c-.259 0-.407-.083-.49-.166a.47.47 0 0 1-.135-.334.47.47 0 0 1 .135-.334C7.093 8.083 7.24 8 7.5 8V7Zm15.026 20.158c.09.269.051.436.002.529a.416.416 0 0 1-.274.203c-.238.06-.61-.037-.78-.548l-.948.316c.33.989 1.208 1.393 1.97 1.202.373-.093.716-.331.914-.703.2-.376.225-.834.064-1.315l-.948.316Zm-14-.316c-.16.481-.136.94.064 1.315.198.372.54.61.914.703.762.19 1.64-.213 1.97-1.202l-.948-.316c-.17.511-.542.607-.78.548a.416.416 0 0 1-.274-.203c-.049-.093-.087-.26.002-.529l-.948-.316Z"/><path stroke="currentColor" stroke-linecap="round" stroke-linejoin="round" d="M16 6a1.5 1.5 0 1 0 0-3 1.5 1.5 0 0 0 0 3Z"/></svg>
