<svg xmlns="http://www.w3.org/2000/svg" fill="none" viewBox="0 0 32 32" width="1em" height="1em"><path fill="currentColor" fill-rule="evenodd" d="M15 16.667v4.666a.667.667 0 0 1-.667.667A2.333 2.333 0 0 1 12 19.667v-1.334A2.333 2.333 0 0 1 14.333 16c.368 0 .667.299.667.667m-4 1.666A3.333 3.333 0 0 1 14.333 15c.92 0 1.667.746 1.667 1.667v4.666c0 .92-.746 1.667-1.667 1.667A3.333 3.333 0 0 1 11 19.667zm15-1.666v4.666c0 .369.299.667.667.667A2.333 2.333 0 0 0 29 19.667v-1.334A2.333 2.333 0 0 0 26.667 16a.667.667 0 0 0-.667.667m4 1.666A3.333 3.333 0 0 0 26.667 15c-.92 0-1.667.746-1.667 1.667v4.666c0 .92.746 1.667 1.667 1.667A3.333 3.333 0 0 0 30 19.667z" clip-rule="evenodd"/><path fill="currentColor" fill-rule="evenodd" d="M28 22.5a.5.5 0 0 0-1 0v2a.5.5 0 0 1-.5.5H21a.5.5 0 0 0-.235.059A2 2 0 0 0 19 24h-1a2 2 0 1 0 0 4h1a2 2 0 0 0 2-2h5.5a1.5 1.5 0 0 0 1.5-1.5zM19 27a1 1 0 1 0 0-2h-1a1 1 0 1 0 0 2z" clip-rule="evenodd"/><path stroke="currentColor" stroke-linecap="round" d="M29.5 19.5V15a9 9 0 0 0-9-9v0a9 9 0 0 0-9 9v4.5m-9-3H8"/><path stroke="currentColor" stroke-linecap="round" stroke-linejoin="round" d="M6.379 18.621 8.5 16.5l-2.121-2.121"/></svg>
