<svg xmlns="http://www.w3.org/2000/svg" fill="none" viewBox="0 0 16 16" width="1em" height="1em"><path fill="currentColor" fill-rule="evenodd" d="M14 11.5a.5.5 0 1 0-1 0v1a.5.5 0 0 1-.5.5h-1.634a1 1 0 1 0 0 1H12.5a1.5 1.5 0 0 0 1.5-1.5v-1Z" clip-rule="evenodd"/><path fill="currentColor" fill-rule="evenodd" d="M8 11a1 1 0 1 1 0-2v2Zm-2-1a2 2 0 0 1 2-2 1 1 0 0 1 1 1v2a1 1 0 0 1-1 1 2 2 0 0 1-2-2Zm7 1a1 1 0 1 0 0-2v2Zm2-1a2 2 0 0 0-2-2 1 1 0 0 0-1 1v2a1 1 0 0 0 1 1 2 2 0 0 0 2-2Z" clip-rule="evenodd"/><path stroke="currentColor" stroke-linecap="round" d="M14.5 10V7.5a4 4 0 0 0-4-4v0a4 4 0 0 0-4 4V10m-3-2h-2"/><path stroke="currentColor" stroke-linecap="round" stroke-linejoin="round" d="M3 9.414 4.414 8 3 6.586"/></svg>
