<svg xmlns="http://www.w3.org/2000/svg" fill="none" viewBox="0 0 24 24" width="1em" height="1em"><path fill="currentColor" fill-rule="evenodd" d="M21 15.5a.5.5 0 0 0-1 0v2a.5.5 0 0 1-.5.5h-2.585a1.5 1.5 0 0 0-1.415-1h-1a1.5 1.5 0 0 0 0 3h1a1.497 1.497 0 0 0 1.415-1H19.5a1.5 1.5 0 0 0 1.5-1.5v-2Zm-5 3a.5.5 0 0 0-.5-.5h-1a.5.5 0 0 0 0 1h1a.5.5 0 0 0 .5-.5Z" clip-rule="evenodd"/><path fill="currentColor" fill-rule="evenodd" d="M11.5 12h.167c.184 0 .333.15.333.333v2.334c0 .184-.15.333-.333.333H11.5a1.5 1.5 0 0 1 0-3ZM9 13.5a2.5 2.5 0 0 1 2.5-2.5h.167c.736 0 1.333.597 1.333 1.333v2.334c0 .736-.597 1.333-1.333 1.333H11.5A2.5 2.5 0 0 1 9 13.5ZM19.5 12h-.167a.333.333 0 0 0-.333.333v2.334c0 .184.15.333.333.333h.167a1.5 1.5 0 0 0 0-3Zm2.5 1.5a2.5 2.5 0 0 0-2.5-2.5h-.167c-.736 0-1.333.597-1.333 1.333v2.334c0 .736.597 1.333 1.333 1.333h.167a2.5 2.5 0 0 0 2.5-2.5Z" clip-rule="evenodd"/><path stroke="currentColor" stroke-linecap="round" d="M21.5 13.5v-3a6 6 0 0 0-6-6v0a6 6 0 0 0-6 6v3m-3-1.5h-4"/><path stroke="currentColor" stroke-linecap="round" stroke-linejoin="round" d="m4.5 14.243 2.121-2.122L4.5 10"/></svg>
