<svg viewBox="0 0 16 16" fill="none" xmlns="http://www.w3.org/2000/svg" width="1em" height="1em"><path d="M3 4.5H10C12.4853 4.5 14.5 6.51472 14.5 9V9C14.5 11.4853 12.4853 13.5 10 13.5H8.5" stroke="currentColor" stroke-linecap="round"/><path d="M2.5 4.5L2.14645 4.85355C2.05268 4.75979 2 4.63261 2 4.5C2 4.36739 2.05268 4.24021 2.14645 4.14645L2.5 4.5ZM4.14645 2.14645C4.34171 1.95118 4.65829 1.95118 4.85355 2.14645C5.04882 2.34171 5.04882 2.65829 4.85355 2.85355L4.14645 2.14645ZM4.85355 6.14645C5.04882 6.34171 5.04882 6.65829 4.85355 6.85355C4.65829 7.04881 4.34171 7.04881 4.14645 6.85355L4.85355 6.14645ZM4.85355 2.85355L2.85355 4.85355L2.14645 4.14645L4.14645 2.14645L4.85355 2.85355ZM2.85355 4.14645L4.85355 6.14645L4.14645 6.85355L2.14645 4.85355L2.85355 4.14645Z" fill="currentColor"/></svg>
