<svg xmlns="http://www.w3.org/2000/svg" fill="none" viewBox="0 0 56 56" width="1em" height="1em"><path stroke="currentColor" stroke-linecap="round" stroke-linejoin="round" d="M49 40.779h.5a.5.5 0 0 0-.154-.362zm0 0h.5v6.49c0 .596-.293 1.149-.687 1.544-.395.394-.949.687-1.544.687h-6.485 0-.002 0-.002 0-.001V49M49 40.779l.345-.362h0l-.002-.002-.006-.005-.024-.024-.097-.092-.372-.356a2838 2838 0 0 1-5.9-5.666c-3.55-3.42-7.792-7.527-10.57-10.29-1.102-1.095-1.054-2.45-1-3.566l.007-.264.001-.036c.002-.09.004-.163.009-.228.368-4.568-.798-8.666-3.241-11.629C25.7 5.29 22 3.5 17.397 3.5 8.777 3.5 3.5 10.66 3.5 16.991c0 3.101.659 7.008 2.98 10.104 2.344 3.124 6.323 5.343 12.786 5.153.302 0 .615-.015.923-.03h.007c.293-.013.598-.045.891-.075l.152-.016c.346-.035.678-.065 1.002-.067.645-.003 1.208.105 1.692.466q-.002-.003.012.01l.037.034q.046.045.118.123.144.156.359.407.238.277.535.63l.526.622c.82.963 1.838 2.127 2.801 3.03.253.238.586.305.913.287.323-.017.697-.118 1.117-.283.425-.168.816-.32 1.133-.405.128-.034.225-.05.294-.056v.08c-.01.163-.07.417-.22.782l-.008.02c-.156.382-.328.803-.428 1.16-.05.18-.093.375-.095.559-.002.171.028.44.24.64.517.491 1.042.99 1.565 1.49.242.23.555.199.709.17.183-.033.379-.108.56-.19.365-.164.8-.415 1.203-.649l.016-.009c.386-.223.638-.305.787-.324a.4.4 0 0 1 .096-.004 1 1 0 0 1-.004.098c-.019.173-.098.453-.289.893a7 7 0 0 1-.284.57l-.03.056c-.087.16-.179.329-.25.49-.08.182-.154.396-.161.629-.009.248.06.49.217.711.12.169.51.592.98 1.088a198 198 0 0 0 1.695 1.765 482 482 0 0 0 2.147 2.199l.147.15.038.038.01.01.003.003h0l.357-.35m0 0v.5a.5.5 0 0 1-.356-.15zm-4.549-8.342-.005-.003q.006.002.005.003m-.03-.032q-.004-.006-.003-.007zm-4.338-3.7-.004-.001zm-.094-.063-.002-.004zM16.898 13.52a3.25 3.25 0 0 1-3.262 3.24 3.25 3.25 0 0 1-3.261-3.24 3.25 3.25 0 0 1 3.26-3.24c1.805 0 3.262 1.453 3.262 3.24"/></svg>
