<svg xmlns="http://www.w3.org/2000/svg" fill="none" viewBox="0 0 32 32" width="1em" height="1em"><path stroke="currentColor" stroke-linecap="round" stroke-linejoin="round" d="M28 23.25h.5a.5.5 0 0 0-.154-.361L28 23.25Zm0 0h.5V27c0 .413-.201.783-.459 1.041-.258.258-.628.459-1.041.459h-3.739 0-.007 0-.002 0-.001 0-.001V28M28 23.25l.345-.361h0v-.002l-.004-.003-.015-.014-.055-.053-.215-.205-.79-.758c-.67-.64-1.594-1.528-2.619-2.516-2.05-1.975-4.5-4.348-6.105-5.943-.563-.56-.546-1.25-.515-1.9a5.407 5.407 0 0 0 .005-.18c0-.052.002-.088.004-.118.216-2.685-.468-5.109-1.92-6.87C14.658 2.558 12.459 1.5 9.74 1.5 4.63 1.5 1.5 5.747 1.5 9.506c0 1.815.385 4.125 1.765 5.964 1.4 1.868 3.769 3.173 7.559 3.062.178 0 .362-.009.537-.017h.006a8.9 8.9 0 0 0 .529-.045l.085-.009c.2-.02.383-.036.56-.037.349-.002.622.057.85.227.09.067.396.356.857.798l.253.244c.391.376.841.81 1.288 1.228.203.19.46.234.682.223.22-.012.46-.08.712-.179.22-.086.369-.119.473-.118.082 0 .133.02.188.07a.224.224 0 0 1 .006.074c-.004.1-.04.249-.123.45a2.607 2.607 0 0 0-.208.834c-.015.291.048.64.327.905h0c.138.132.388.37.788.43.393.058.827-.066 1.335-.36a.516.516 0 0 1 .316-.084.245.245 0 0 1 .07.017.218.218 0 0 1 .004.042c.002.075-.02.216-.116.439a4.047 4.047 0 0 1-.174.345 4.193 4.193 0 0 0-.151.3c-.05.114-.105.267-.111.44a.869.869 0 0 0 .165.54c.08.113.32.372.584.652.281.298.635.665.981 1.022a273.78 273.78 0 0 0 1.242 1.271l.085.086.022.023.006.006.001.001h0l.357-.35m0 0v.5a.5.5 0 0 1-.356-.15l.356-.35Zm-2.9-4.83.002.004-.002-.003ZM9.24 7.5c0 .915-.746 1.661-1.673 1.661A1.667 1.667 0 0 1 5.894 7.5c0-.915.747-1.661 1.673-1.661.927 0 1.674.746 1.674 1.661Z"/></svg>
