<svg xmlns="http://www.w3.org/2000/svg" fill="none" viewBox="0 0 64 64" width="1em" height="1em"><path stroke="currentColor" stroke-linecap="round" stroke-linejoin="round" d="M57 46.5h.5a.5.5 0 0 0-.154-.361zm0 0h.5V54c0 .663-.326 1.283-.771 1.729-.446.445-1.066.771-1.729.771h-7.494 0-.004 0-.001 0L47.5 56m9.5-9.5c.346-.361.345-.361.345-.362h0l-.002-.002-.007-.007-.029-.027-.111-.106-.43-.412a2554 2554 0 0 1-6.819-6.547c-4.101-3.951-9.004-8.699-12.215-11.891-1.3-1.293-1.24-2.894-1.178-4.18q.007-.162.009-.302v-.042q.003-.156.011-.268c.424-5.263-.92-9.977-3.728-13.383C30.032 5.558 25.78 3.5 20.481 3.5 10.57 3.5 4.5 11.734 4.5 19.012c0 3.575.76 8.07 3.429 11.629 2.69 3.586 7.263 6.143 14.71 5.923.348 0 .709-.017 1.066-.033h.006c.337-.016.687-.053 1.026-.088l.175-.018c.4-.04.788-.075 1.166-.077.754-.005 1.424.121 2.003.553l.005.004.013.011.01.01.035.033q.056.054.14.144.167.183.417.473.275.321.618.729.282.335.608.717c.948 1.114 2.122 2.456 3.23 3.497.272.255.633.33.998.31.362-.02.785-.132 1.267-.322.49-.193.946-.372 1.317-.47a1.8 1.8 0 0 1 .427-.07.6.6 0 0 1 .01.177c-.011.2-.085.503-.259.929l-.008.019c-.182.444-.38.927-.493 1.334a2.5 2.5 0 0 0-.107.627c-.003.19.032.473.253.683.598.567 1.204 1.144 1.809 1.72.25.239.579.21.751.178.203-.037.422-.12.63-.214.417-.189.916-.477 1.385-.748l.016-.009c.45-.26.752-.36.938-.384a.4.4 0 0 1 .164.002q.02.005.024.01a.4.4 0 0 1 .006.182c-.023.211-.118.543-.34 1.054a9 9 0 0 1-.33.664q-.02.032-.036.066c-.1.184-.205.377-.286.56-.09.207-.171.444-.18.698-.009.27.065.532.238.775.134.189.58.673 1.124 1.249a229 229 0 0 0 1.958 2.038 563 563 0 0 0 2.481 2.54l.17.173.044.045.012.012.003.003h0L47.5 56m0 0v.5a.5.5 0 0 1-.356-.15zm-5.226-9.718.005.007zm-5.062-4.31-.003-.001zm-.059-.039-.002-.002zM19.981 15c0 2.108-1.72 3.822-3.846 3.822S12.288 17.108 12.288 15s1.72-3.822 3.847-3.822S19.98 12.892 19.98 15"/></svg>
