<svg xmlns="http://www.w3.org/2000/svg" fill="none" viewBox="0 0 48 48" width="1em" height="1em"><path stroke="currentColor" stroke-linecap="round" stroke-linejoin="round" d="m37.327 45-.356.35a.5.5 0 0 0 .356.15V45Zm0 0v.5h6.058c.566 0 1.09-.278 1.464-.651.373-.373.651-.898.651-1.464v-6.052 0-.003 0-.002 0-.001H45M37.327 45l-.356.35h0-.001l-.002-.002-.01-.01-.036-.036-.137-.14-.49-.5c-.408-.416-.956-.976-1.514-1.552a185.344 185.344 0 0 1-1.582-1.647c-.437-.462-.804-.86-.917-1.02a1.097 1.097 0 0 1-.21-.684c.008-.224.079-.428.154-.599.067-.152.153-.311.234-.46a10.011 10.011 0 0 0 .292-.582c.178-.41.25-.667.267-.823a.628.628 0 0 0 .004-.056.459.459 0 0 0-.052.004c-.133.018-.364.092-.722.299l-.017.01c-.376.217-.782.451-1.123.605a2.388 2.388 0 0 1-.532.18c-.145.027-.452.058-.69-.168l-1.46-1.39c-.208-.197-.237-.459-.235-.622a2.13 2.13 0 0 1 .09-.531c.093-.335.255-.729.4-1.085l.008-.019c.14-.34.194-.572.203-.72a.72.72 0 0 0 .001-.035 1.783 1.783 0 0 0-.234.048c-.293.077-.656.22-1.053.376-.394.155-.747.25-1.054.267-.31.017-.63-.046-.876-.276-.9-.845-1.851-1.933-2.617-2.832-.175-.206-.34-.4-.491-.58a97.369 97.369 0 0 0-.5-.588 14.48 14.48 0 0 0-.334-.38 3.184 3.184 0 0 0-.109-.113.384.384 0 0 0-.041-.038c-.444-.331-.962-.431-1.56-.428-.3.002-.61.03-.932.062l-.141.015c-.274.028-.56.058-.835.07h-.006c-.287.014-.58.028-.862.028-6.04.178-9.765-1.897-11.96-4.823-2.174-2.897-2.789-6.552-2.789-9.45C2.5 9.201 7.439 2.5 15.504 2.5c4.306 0 7.769 1.674 10.061 4.454 2.287 2.774 3.377 6.607 3.033 10.878a3.636 3.636 0 0 0-.009.244c-.001.074-.003.16-.007.247-.05 1.042-.093 2.293.923 3.303 2.593 2.578 6.552 6.413 9.865 9.604a2452.218 2452.218 0 0 0 5.508 5.288l.347.332.09.086.023.022.005.006.002.001h0l-.345.362m0 0 .346-.361a.5.5 0 0 1 .154.36H45Zm-16.001-3.564h-.005H29Zm-.112-.076-.002-.004.002.004Zm4.182 3.557-.006-.002.006.002Zm-.048-.05a.018.018 0 0 1-.002-.005l.002.005Zm-18.017-25.31a3 3 0 0 1-3.01 2.992 3 3 0 0 1-3.011-2.991 3 3 0 0 1 3.01-2.991 3 3 0 0 1 3.011 2.99Z"/></svg>
