<svg viewBox="0 0 16 16" fill="none" xmlns="http://www.w3.org/2000/svg" stroke="currentColor"><path d="M13.5396 11.9167H14.0396C14.0396 11.7802 13.9837 11.6496 13.885 11.5552L13.5396 11.9167ZM13.5396 11.9167L14.0396 11.9167V11.9168V11.9169V11.917V11.9172V11.9174V11.9176V11.9179V11.9182V11.9185V11.9189V11.9193V11.9197V11.9202V11.9207V11.9213V11.9219V11.9225V11.9232V11.9238V11.9246V11.9253V11.9261V11.9269V11.9278V11.9287V11.9296V11.9305V11.9315V11.9326V11.9336V11.9347V11.9358V11.937V11.9381V11.9394V11.9406V11.9419V11.9432V11.9445V11.9459V11.9473V11.9487V11.9502V11.9517V11.9532V11.9548V11.9563V11.958V11.9596V11.9613V11.963V11.9647V11.9665V11.9683V11.9701V11.9719V11.9738V11.9757V11.9776V11.9796V11.9816V11.9836V11.9857V11.9877V11.9898V11.992V11.9941V11.9963V11.9985V12.0008V12.003V12.0053V12.0077V12.01V12.0124V12.0148V12.0172V12.0196V12.0221V12.0246V12.0272V12.0297V12.0323V12.0349V12.0375V12.0402V12.0428V12.0455V12.0483V12.051V12.0538V12.0566V12.0594V12.0623V12.0651V12.068V12.0709V12.0739V12.0769V12.0798V12.0828V12.0859V12.0889V12.092V12.0951V12.0982V12.1014V12.1045V12.1077V12.1109V12.1142V12.1174V12.1207V12.124V12.1273V12.1306V12.134V12.1373V12.1407V12.1442V12.1476V12.151V12.1545V12.158V12.1615V12.1651V12.1686V12.1722V12.1758V12.1794V12.183V12.1867V12.1903V12.194V12.1977V12.2014V12.2052V12.2089V12.2127V12.2165V12.2203V12.2241V12.2279V12.2318V12.2357V12.2396V12.2435V12.2474V12.2513V12.2553V12.2593V12.2633V12.2673V12.2713V12.2753V12.2794V12.2834V12.2875V12.2916V12.2957V12.2998V12.304V12.3081V12.3123V12.3165V12.3207V12.3249V12.3291V12.3333V12.3376V12.3418V12.3461V12.3504V12.3547V12.359V12.3633V12.3677V12.372V12.3764V12.3807V12.3851V12.3895V12.3939V12.3983V12.4028V12.4072V12.4117V12.4161V12.4206V12.4251V12.4296V12.4341V12.4386V12.4431V12.4477V12.4522V12.4568V12.4613V12.4659V12.4705V12.4751V12.4797V12.4843V12.4889V12.4935V12.4982V12.5028V12.5075V12.5121V12.5168V12.5215V12.5262V12.5308V12.5355V12.5402V12.545V12.5497V12.5544V12.5591V12.5639V12.5686V12.5734V12.5781V12.5829V12.5877V12.5924V12.5972V12.602V12.6068V12.6116V12.6164V12.6212V12.626V12.6308V12.6356V12.6404V12.6453V12.6501V12.6549V12.6598V12.6646V12.6695V12.6743V12.6792V12.684V12.6889V12.6937V12.6986V12.7035V12.7083V12.7132V12.7181V12.7229V12.7278V12.7327V12.7376V12.7424V12.7473V12.7522V12.7571V12.762V12.7669V12.7717V12.7766V12.7815V12.7864V12.7913V12.7962V12.8011V12.8059V12.8108V12.8157V12.8206V12.8255V12.8304V12.8352V12.8401V12.845V12.8499V12.8547V12.8596V12.8645V12.8693V12.8742V12.8791V12.8839V12.8888V12.8936V12.8985V12.9033V12.9082V12.913V12.9179V12.9227V12.9275V12.9324V12.9372V12.942V12.9468V12.9516V12.9564V12.9612V12.966V12.9708V12.9756V12.9804V12.9851V12.9899V12.9947V12.9994V13.0042V13.0089V13.0137V13.0184V13.0231V13.0278V13.0326V13.0373V13.042V13.0466V13.0513V13.056V13.0607V13.0653V13.07V13.0746V13.0793V13.0839V13.0885V13.0931V13.0977V13.1023V13.1069V13.1115V13.116V13.1206V13.1251V13.1297V13.1342V13.1387V13.1432V13.1477V13.1522V13.1567V13.1611V13.1656V13.17V13.1744V13.1789V13.1833V13.1877V13.1921V13.1964V13.2008V13.2051V13.2095V13.2138V13.2181V13.2224V13.2267V13.231V13.2352V13.2395V13.2437V13.2479V13.2521V13.2563V13.2605V13.2647V13.2688V13.273V13.2771V13.2812V13.2853V13.2894V13.2934V13.2975V13.3015V13.3055V13.3095V13.3135V13.3175V13.3215V13.3254V13.3293V13.3332V13.3371V13.341V13.3449V13.3487V13.3525V13.3563V13.3601V13.3639V13.3676V13.3714V13.3751V13.3788V13.3825V13.3861V13.3898V13.3934V13.397V13.4006V13.4042V13.4077V13.4113V13.4148V13.4183V13.4218V13.4252V13.4286V13.4321V13.4355V13.4388V13.4422V13.4455V13.4488V13.4521V13.4554V13.4586V13.4619V13.4651V13.4683V13.4714V13.4746V13.4777V13.4808V13.4839V13.4869V13.4899V13.493V13.4959V13.4989V13.5018V13.5048V13.5077V13.5105V13.5134V13.5162V13.519V13.5218V13.5245V13.5272V13.5299V13.5326V13.5353V13.5379V13.5405V13.5431V13.5456V13.5482V13.5507V13.5531V13.5556V13.558V13.5604V13.5628V13.5651V13.5675V13.5698V13.572V13.5743V13.5765V13.5787V13.5808V13.5829V13.585V13.5871V13.5892V13.5912V13.5932V13.5951V13.5971V13.599V13.6009V13.6027V13.6045V13.6063V13.6081V13.6098V13.6115V13.6132V13.6148V13.6165V13.618V13.6196V13.6211V13.6226V13.6241V13.6255V13.6269V13.6283V13.6296V13.6309V13.6322V13.6334V13.6346V13.6358V13.637V13.6381V13.6392V13.6402V13.6413V13.6422V13.6432V13.6441V13.645V13.6459V13.6467V13.6475C14.0396 13.9255 13.9056 14.1616 13.7489 14.3183C13.5922 14.475 13.356 14.609 13.078 14.609H13.0774H13.0768H13.0761H13.0754H13.0746H13.0739H13.073H13.0722H13.0713H13.0704H13.0695H13.0685H13.0675H13.0664H13.0653H13.0642H13.0631H13.0619H13.0607H13.0594H13.0582H13.0569H13.0555H13.0541H13.0527H13.0513H13.0498H13.0483H13.0468H13.0453H13.0437H13.042H13.0404H13.0387H13.037H13.0353H13.0335H13.0317H13.0299H13.028H13.0261H13.0242H13.0222H13.0203H13.0183H13.0162H13.0142H13.0121H13.0099H13.0078H13.0056H13.0034H13.0012H12.9989H12.9966H12.9943H12.992H12.9896H12.9872H12.9848H12.9823H12.9799H12.9774H12.9748H12.9723H12.9697H12.9671H12.9645H12.9618H12.9591H12.9564H12.9537H12.951H12.9482H12.9454H12.9425H12.9397H12.9368H12.9339H12.931H12.928H12.9251H12.9221H12.919H12.916H12.9129H12.9098H12.9067H12.9036H12.9004H12.8973H12.8941H12.8908H12.8876H12.8843H12.881H12.8777H12.8744H12.8711H12.8677H12.8643H12.8609H12.8574H12.854H12.8505H12.847H12.8435H12.84H12.8364H12.8328H12.8292H12.8256H12.822H12.8183H12.8147H12.811H12.8073H12.8035H12.7998H12.796H12.7922H12.7884H12.7846H12.7808H12.7769H12.7731H12.7692H12.7653H12.7613H12.7574H12.7535H12.7495H12.7455H12.7415H12.7375H12.7334H12.7294H12.7253H12.7212H12.7171H12.713H12.7089H12.7047H12.7006H12.6964H12.6922H12.688H12.6838H12.6796H12.6753H12.6711H12.6668H12.6625H12.6582H12.6539H12.6496H12.6452H12.6409H12.6365H12.6321H12.6278H12.6234H12.6189H12.6145H12.6101H12.6056H12.6012H12.5967H12.5922H12.5877H12.5832H12.5787H12.5742H12.5696H12.5651H12.5605H12.556H12.5514H12.5468H12.5422H12.5376H12.533H12.5283H12.5237H12.5191H12.5144H12.5097H12.5051H12.5004H12.4957H12.491H12.4863H12.4816H12.4769H12.4722H12.4674H12.4627H12.4579H12.4532H12.4484H12.4436H12.4389H12.4341H12.4293H12.4245H12.4197H12.4149H12.4101H12.4053H12.4004H12.3956H12.3908H12.3859H12.3811H12.3762H12.3714H12.3665H12.3617H12.3568H12.3519H12.347H12.3422H12.3373H12.3324H12.3275H12.3226H12.3177H12.3128H12.3079H12.303H12.2981H12.2932H12.2883H12.2834H12.2784H12.2735H12.2686H12.2637H12.2588H12.2538H12.2489H12.244H12.2391H12.2341H12.2292H12.2243H12.2194H12.2144H12.2095H12.2046H12.1996H12.1947H12.1898H12.1849H12.1799H12.175H12.1701H12.1652H12.1603H12.1553H12.1504H12.1455H12.1406H12.1357H12.1308H12.1259H12.121H12.1161H12.1112H12.1063H12.1014H12.0965H12.0916H12.0867H12.0818H12.077H12.0721H12.0672H12.0624H12.0575H12.0527H12.0478H12.043H12.0381H12.0333H12.0285H12.0236H12.0188H12.014H12.0092H12.0044H11.9996H11.9948H11.99H11.9853H11.9805H11.9757H11.971H11.9662H11.9615H11.9568H11.952H11.9473H11.9426H11.9379H11.9332H11.9285H11.9238H11.9192H11.9145H11.9099H11.9052H11.9006H11.896H11.8914H11.8867H11.8822H11.8776H11.873H11.8684H11.8639H11.8593H11.8548H11.8503H11.8457H11.8412H11.8368H11.8323H11.8278H11.8233H11.8189H11.8145H11.81H11.8056H11.8012H11.7969H11.7925H11.7881H11.7838H11.7794H11.7751H11.7708H11.7665H11.7622H11.758H11.7537H11.7495H11.7452H11.741H11.7368H11.7326H11.7285H11.7243H11.7202H11.716H11.7119H11.7078H11.7038H11.6997H11.6956H11.6916H11.6876H11.6836H11.6796H11.6756H11.6717H11.6678H11.6638H11.6599H11.6561H11.6522H11.6483H11.6445H11.6407H11.6369H11.6331H11.6294H11.6256H11.6219H11.6182H11.6145H11.6108H11.6072H11.6036H11.6H11.5964H11.5928H11.5893H11.5857H11.5822H11.5787H11.5752H11.5718H11.5684H11.565H11.5616H11.5582H11.5549H11.5515H11.5482H11.5449H11.5417H11.5384H11.5352H11.532H11.5289H11.5257H11.5226H11.5195H11.5164H11.5133H11.5103H11.5073H11.5043H11.5013H11.4984H11.4955H11.4926H11.4897H11.4868H11.484H11.4812H11.4784H11.4757H11.473H11.4703H11.4676H11.4649H11.4623H11.4597H11.4572H11.4546H11.4521H11.4496H11.4471H11.4447H11.4423H11.4399H11.4375H11.4352H11.4329H11.4306H11.4283H11.4261H11.4239H11.4218H11.4196H11.4175H11.4154H11.4134H11.4113H11.4093H11.4074H11.4054H11.4035H11.4016H11.3998H11.3979H11.3962H11.3944H11.3927H11.3909H11.3893H11.3876H11.386H11.3844H11.3829H11.3814H11.3799H11.3784H11.377H11.3756H11.3742H11.3729H11.3716H11.3703H11.3691H11.3679H11.3667H11.3656H11.3645H11.3634H11.3624H11.3614H11.3604H11.3594H11.3585H11.3577H11.3568H11.356H11.3553H11.3545H11.3538H11.3532H11.3525H11.3519H11.3514H11.3508H11.3503H11.3499H11.3495H11.3491H11.3487H11.3484H11.3482H11.3479H11.3477H11.3475H11.3474H11.3473H11.3473L11.3472 14.109M13.5396 11.9167L13.885 11.5552L13.8849 11.5551L13.8845 11.5547L13.8828 11.5531L13.8763 11.5469L13.8506 11.5223L13.7515 11.4276L13.3867 11.0781C13.0783 10.7825 12.6517 10.373 12.1788 9.91746C11.2322 9.00561 10.1029 7.91197 9.36435 7.17754C9.198 7.01212 9.19071 6.81192 9.20545 6.5042C9.20693 6.47329 9.20748 6.44306 9.20785 6.4223C9.20791 6.41923 9.20796 6.41638 9.20801 6.41375C9.20848 6.38912 9.20891 6.38001 9.20928 6.37536C9.31365 5.07915 8.98468 3.8875 8.26232 3.01149C7.53443 2.12879 6.44099 1.60901 5.11213 1.60901C2.58628 1.60901 1.03955 3.70851 1.03955 5.57338C1.03955 6.44125 1.22213 7.57361 1.90782 8.48764C2.61462 9.42981 3.79611 10.0609 5.61616 10.0084C5.70325 10.0081 5.79183 10.0041 5.86991 10.0005L5.87527 10.0002C5.96508 9.99608 6.05852 9.98636 6.13603 9.9783C6.14907 9.97695 6.16165 9.97564 6.1737 9.97441C6.26517 9.96509 6.33857 9.95883 6.40589 9.95845C6.53727 9.9577 6.59628 9.98023 6.63595 10.0098C6.63519 10.0093 6.63479 10.0089 6.63478 10.009C6.63475 10.009 6.64294 10.0156 6.6629 10.0333C6.6843 10.0523 6.71216 10.0778 6.7466 10.11C6.81542 10.1742 6.90338 10.2583 7.00589 10.3568C7.04298 10.3924 7.08185 10.4298 7.12216 10.4685C7.30266 10.6422 7.51198 10.8435 7.71919 11.0381C7.88536 11.1941 8.08796 11.221 8.23294 11.2133C8.3174 11.2088 8.40154 11.1921 8.48297 11.1687C8.45749 11.2574 8.43815 11.354 8.4332 11.4535C8.42429 11.6328 8.46153 11.8842 8.66751 12.0798C8.66892 12.0812 8.67038 12.0826 8.67189 12.084C8.74069 12.1494 8.90787 12.3085 9.17693 12.3488C9.30212 12.3675 9.42652 12.358 9.54991 12.3273C9.52299 12.3937 9.4927 12.4882 9.48898 12.5996C9.48412 12.7456 9.52573 12.8891 9.61474 13.0142C9.66553 13.0856 9.79374 13.2226 9.90815 13.3437C10.0393 13.4825 10.2036 13.653 10.3635 13.8177C10.5236 13.9828 10.6804 14.1433 10.7972 14.2624L10.9378 14.4057L10.977 14.4457L10.9874 14.4562L10.9901 14.4589L10.9908 14.4596L10.9909 14.4598L10.991 14.4598L11.3472 14.109M11.3472 14.109V14.609C11.2133 14.609 11.085 14.5553 10.991 14.4599L11.3472 14.109ZM4.61213 4.64747C4.61213 4.91952 4.38958 5.14485 4.10912 5.14485C3.82867 5.14485 3.60612 4.91952 3.60612 4.64747C3.60612 4.37542 3.82867 4.15009 4.10912 4.15009C4.38958 4.15009 4.61213 4.37542 4.61213 4.64747Z" stroke-linecap="round" stroke-linejoin="round"/></svg>