<svg xmlns="http://www.w3.org/2000/svg" fill="none" viewBox="0 0 24 24" width="1em" height="1em"><path stroke="currentColor" stroke-linecap="round" stroke-linejoin="round" d="M21.04 16.82a.5.5 0 0 0-.155-.361l-.345.361.345-.361h0l-.003-.003-.01-.01-.039-.037-.148-.142a630 630 0 0 1-2.36-2.265 428 428 0 0 1-4.224-4.113c-.337-.334-.334-.745-.312-1.2l.003-.128.003-.073c.152-1.89-.329-3.61-1.364-4.866-1.041-1.263-2.608-2.013-4.533-2.013-3.633 0-5.858 3.02-5.858 5.696 0 1.274.269 2.911 1.252 4.222 1.004 1.339 2.694 2.259 5.359 2.18.126 0 .255-.005.375-.01l.006-.001c.126-.006.258-.02.375-.032l.058-.006a4 4 0 0 1 .373-.025c.224-.001.375.037.496.127l.015.013.042.035.13.12a41 41 0 0 1 .566.54c.271.26.584.562.893.852l.342-.364-.342.364a.78.78 0 0 0 .586.196c.176-.01.36-.062.541-.134a1 1 0 0 1 .243-.07l-.008.035q-.018.069-.057.163a2 2 0 0 0-.155.628c-.012.227.036.52.274.746l.003.003c.098.093.3.286.626.334.321.049.658-.056 1.024-.267l.009-.005q-.014.042-.038.097a3 3 0 0 1-.102.204l-.012.023a3 3 0 0 0-.11.218 1 1 0 0 0-.09.362.76.76 0 0 0 .142.469c.063.089.24.278.418.467.196.207.441.462.68.709l.65.666.211.215.059.06.016.015.003.004.002.001h0l.356-.35-.356.35a.5.5 0 0 0 .356.15h2.596c.336 0 .63-.163.83-.363s.363-.494.363-.83v0-.005 0-2.577 0-.002 0-.002 0-.002 0-.002 0-.001 0-.001 0-.001 0-.001 0zM7.398 5.917a1 1 0 0 1-1.004.996 1 1 0 0 1-1.005-.996 1 1 0 0 1 1.005-.996 1 1 0 0 1 1.004.996"/></svg>
