<svg viewBox="0 0 32 32" fill="none" xmlns="http://www.w3.org/2000/svg" width="1em" height="1em"><path d="M16.5556 17.5023C16.5568 17.2262 16.334 17.0013 16.0579 17C15.7817 16.9987 15.5569 17.2215 15.5556 17.4977L16.5556 17.5023ZM10.9444 25.5C10.9444 25.2239 10.7206 25 10.4444 25C10.1683 25 9.94444 25.2239 9.94444 25.5H10.9444ZM15.5556 17.4977L15.5128 26.7264L16.5128 26.731L16.5556 17.5023L15.5556 17.4977ZM10.9444 26.7158V25.5H9.94444V26.7158H10.9444ZM13.2287 29C11.9671 29 10.9444 27.9773 10.9444 26.7158H9.94444C9.94444 28.5296 11.4148 30 13.2287 30V29ZM15.5128 26.7264C15.507 27.9838 14.4861 29 13.2287 29V30C15.0365 30 16.5045 28.5389 16.5128 26.731L15.5128 26.7264Z" fill="currentColor"/><path d="M2.53912 17.041C3.06536 10.6161 8.86137 5.5 16 5.5C23.1386 5.5 28.9346 10.6161 29.4609 17.041C29.4799 17.2735 29.2875 17.5 29 17.5H3C2.71246 17.5 2.52008 17.2735 2.53912 17.041Z" stroke="currentColor" stroke-linejoin="round"/><path d="M16 5V2.49993" stroke="currentColor" stroke-linecap="round"/></svg>
