<svg viewBox="0 0 16 16" fill="none" xmlns="http://www.w3.org/2000/svg" width="1em" height="1em"><path d="M9 6.38462C9 6.66076 9.22386 6.88462 9.5 6.88462C9.77614 6.88462 10 6.66076 10 6.38462H9ZM6.5 9.15385C6.5 8.8777 6.27614 8.65385 6 8.65385C5.72386 8.65385 5.5 8.8777 5.5 9.15385H6.5ZM8.74725 5H7.13462V6H8.74725V5ZM7.13462 8.26923H8.63462V7.26923H7.13462V8.26923ZM8.63462 10H7.08242V11H8.63462V10ZM9 6.25275V6.38462H10V6.25275H9ZM6.5 9.41758V9.15385H5.5V9.41758H6.5ZM7.08242 10C6.76076 10 6.5 9.73924 6.5 9.41758H5.5C5.5 10.2915 6.20847 11 7.08242 11V10ZM9.5 9.13462C9.5 9.61255 9.11255 10 8.63462 10V11C9.66484 11 10.5 10.1648 10.5 9.13462H9.5ZM8.63462 8.26923C9.11255 8.26923 9.5 8.65668 9.5 9.13462H10.5C10.5 8.10439 9.66484 7.26923 8.63462 7.26923V8.26923ZM5.5 6.63462C5.5 7.53739 6.23184 8.26923 7.13462 8.26923V7.26923C6.78413 7.26923 6.5 6.9851 6.5 6.63462H5.5ZM7.13462 5C6.23184 5 5.5 5.73184 5.5 6.63462H6.5C6.5 6.28413 6.78413 6 7.13462 6V5ZM8.74725 6C8.88684 6 9 6.11316 9 6.25275H10C10 5.56087 9.43913 5 8.74725 5V6Z" fill="currentColor"/><path d="M8 4L8 5" stroke="currentColor" stroke-linecap="round"/><path d="M8 11V12" stroke="currentColor" stroke-linecap="round"/><circle cx="8" cy="8" r="6.5" stroke="currentColor"/></svg>
