<svg viewBox="0 0 24 24" fill="none" xmlns="http://www.w3.org/2000/svg" width="1em" height="1em"><path d="M10.2499 13.8461V13.7497V13.7497C10.2499 13.1976 9.80233 12.75 9.2502 12.75L7.69986 12.75C7.03715 12.75 6.49993 13.2873 6.49993 13.95V13.95C6.49993 14.6127 7.03714 15.1499 7.69983 15.1499L9.19991 15.15C9.91789 15.15 10.4999 15.732 10.4999 16.45V16.45C10.4998 17.168 9.91776 17.75 9.19979 17.7499L7.69951 17.7498C7.03694 17.7498 6.49987 17.2126 6.49994 16.55V16.55V16.25" stroke="currentColor" stroke-linecap="round"/><path d="M8.49988 11.75V18.75" stroke="currentColor" stroke-linecap="round"/><circle cx="8.5" cy="15.5" r="5" stroke="currentColor"/><path d="M21.0001 19C21.0001 18.7239 20.7762 18.5 20.5001 18.5C20.2239 18.5 20.0001 18.7239 20.0001 19H21.0001ZM14.2858 20C14.0096 20 13.7858 20.2239 13.7858 20.5C13.7858 20.7761 14.0096 21 14.2858 21V20ZM20.0001 19C20.0001 19.0018 20 19.0036 19.9983 19.0081C19.9964 19.0134 19.9907 19.0261 19.9753 19.046C19.9424 19.0886 19.8749 19.1514 19.7494 19.225C19.4958 19.3738 19.0934 19.5163 18.5475 19.6367C17.4643 19.8758 15.9509 20 14.2858 20V21C15.987 21 17.5807 20.8742 18.763 20.6133C19.3499 20.4837 19.8699 20.3137 20.2555 20.0875C20.6264 19.8699 21.0001 19.52 21.0001 19H20.0001Z" fill="currentColor"/><path d="M8.5 4.62598V8" stroke="currentColor" stroke-linecap="round" stroke-linejoin="round"/><path d="M20 19C20 19.2761 20.2239 19.5 20.5 19.5C20.7761 19.5 21 19.2761 21 19H20ZM21 4.5C21 4.22386 20.7761 4 20.5 4C20.2239 4 20 4.22386 20 4.5H21ZM21 19V4.5H20V19H21Z" fill="currentColor"/><path d="M20.2497 4.35505C20.3552 4.41258 20.4232 4.46242 20.4645 4.5C20.4232 4.53758 20.3552 4.58742 20.2497 4.64495C19.9783 4.79301 19.5526 4.9422 18.9838 5.07346C17.8541 5.33415 16.2687 5.5 14.5 5.5C12.7313 5.5 11.1459 5.33415 10.0162 5.07346C9.44742 4.9422 9.02166 4.79301 8.75028 4.64495C8.64483 4.58742 8.57681 4.53758 8.53553 4.5C8.57681 4.46242 8.64483 4.41258 8.75028 4.35505C9.02166 4.20699 9.44742 4.0578 10.0162 3.92654C11.1459 3.66585 12.7313 3.5 14.5 3.5C16.2687 3.5 17.8541 3.66585 18.9838 3.92654C19.5526 4.0578 19.9783 4.20699 20.2497 4.35505Z" stroke="currentColor"/><path d="M21 8C21 7.72386 20.7761 7.5 20.5 7.5C20.2239 7.5 20 7.72386 20 8H21ZM9 8C9 7.72386 8.77614 7.5 8.5 7.5C8.22386 7.5 8 7.72386 8 8H9ZM21 11.5789C21 11.3028 20.7761 11.0789 20.5 11.0789C20.2239 11.0789 20 11.3028 20 11.5789H21ZM15.9696 12.4562C15.6939 12.473 15.4841 12.71 15.5009 12.9857C15.5177 13.2613 15.7548 13.4711 16.0304 13.4543L15.9696 12.4562ZM21 15.5789C21 15.3028 20.7761 15.0789 20.5 15.0789C20.2239 15.0789 20 15.3028 20 15.5789H21ZM15.9696 16.4562C15.6939 16.473 15.4841 16.71 15.5009 16.9857C15.5177 17.2613 15.7548 17.4711 16.0304 17.4543L15.9696 16.4562ZM20 8C20 7.89693 20.0713 7.95612 19.7842 8.11688C19.5387 8.25432 19.1504 8.39443 18.6274 8.5183C17.5894 8.76415 16.1299 8.92105 14.5 8.92105V9.92105C16.1839 9.92105 17.7243 9.75984 18.8579 9.49138C19.4207 9.35808 19.911 9.19198 20.2728 8.9894C20.5929 8.81013 21 8.49548 21 8H20ZM14.5 8.92105C12.8701 8.92105 11.4106 8.76415 10.3726 8.5183C9.84961 8.39443 9.46126 8.25432 9.2158 8.11688C8.92872 7.95612 9 7.89693 9 8H8C8 8.49548 8.40707 8.81013 8.72722 8.9894C9.089 9.19198 9.57933 9.35808 10.1421 9.49138C11.2757 9.75984 12.8161 9.92105 14.5 9.92105V8.92105ZM20 11.5789C20 11.487 20.0616 11.5153 19.8818 11.6362C19.7215 11.744 19.4554 11.8632 19.0761 11.9775C18.3245 12.204 17.2411 12.3786 15.9696 12.4562L16.0304 13.4543C17.3467 13.3741 18.5133 13.1916 19.3647 12.935C19.787 12.8077 20.1607 12.6537 20.4398 12.4661C20.6994 12.2915 21 12.002 21 11.5789H20ZM20 15.5789C20 15.487 20.0616 15.5153 19.8818 15.6362C19.7215 15.744 19.4554 15.8632 19.0761 15.9775C18.3245 16.204 17.2411 16.3786 15.9696 16.4562L16.0304 17.4543C17.3467 17.3741 18.5133 17.1916 19.3647 16.935C19.787 16.8077 20.1607 16.6537 20.4398 16.4661C20.6994 16.2915 21 16.002 21 15.5789H20Z" fill="currentColor"/></svg>
