<svg viewBox="0 0 32 32" fill="none" xmlns="http://www.w3.org/2000/svg" stroke="currentColor"><path d="M13.6785 17.625C13.6785 17.9011 13.9023 18.125 14.1785 18.125C14.4546 18.125 14.6785 17.9011 14.6785 17.625H13.6785ZM9.05347 20.8393C9.05347 20.5631 8.82961 20.3393 8.55347 20.3393C8.27732 20.3393 8.05347 20.5631 8.05347 20.8393H9.05347ZM10.1607 19.2321L10.1607 19.7321L10.1607 19.2321ZM12.7226 15.5176H10.1607V16.5176H12.7226V15.5176ZM10.1607 19.7321L12.7053 19.7321L12.7053 18.7321L10.1607 18.7321L10.1607 19.7321ZM12.7052 22.2143H10.1254V23.2143H12.7052V22.2143ZM13.6785 17.4735V17.625H14.6785V17.4735H13.6785ZM9.05347 21.1423V20.8393H8.05347V21.1423H9.05347ZM10.1254 22.2143C9.53339 22.2143 9.05347 21.7343 9.05347 21.1423H8.05347C8.05347 22.2866 8.98111 23.2143 10.1254 23.2143V22.2143ZM13.9463 20.9732C13.9463 21.6586 13.3907 22.2143 12.7052 22.2143V23.2143C13.943 23.2143 14.9463 22.2109 14.9463 20.9732H13.9463ZM12.7053 19.7321C13.3907 19.7321 13.9463 20.2878 13.9463 20.9732H14.9463C14.9463 19.7355 13.943 18.7321 12.7053 18.7321L12.7053 19.7321ZM8.05347 17.6248C8.05347 18.7886 8.99689 19.732 10.1607 19.7321L10.1607 18.7321C9.54919 18.7321 9.05347 18.2363 9.05347 17.6248H8.05347ZM10.1607 15.5176C8.99691 15.5176 8.05347 16.461 8.05347 17.6248H9.05347C9.05347 17.0133 9.5492 16.5176 10.1607 16.5176V15.5176ZM12.7226 16.5176C13.2505 16.5176 13.6785 16.9455 13.6785 17.4735H14.6785C14.6785 16.3933 13.8028 15.5176 12.7226 15.5176V16.5176Z" fill="#282829"/><path d="M11.4999 15.2139V23.7853" stroke-linecap="round"/><circle cx="11.5" cy="19.5" r="7"/><path d="M27.5 25.5C27.5 26.6046 24.4183 27.5 20 27.5C18.9099 27.5 17.9012 27.4455 17 27.3468" stroke-linecap="round"/><path d="M27.5 10C27.5 11.0257 24.1421 11.8571 20 11.8571C15.8579 11.8571 12.5 11.0257 12.5 10M27.5 15.5714C27.5 16.5131 24.6694 17.2911 21 17.4122M27.5 21.1429C27.5 22.0846 24.6694 22.8626 21 22.9836" stroke-linecap="round"/><path d="M12.5 6V10" stroke-linecap="round" stroke-linejoin="round"/><path d="M27.5 25.5V6" stroke-linecap="round"/><path d="M27.5 6C27.5 6.0005 27.5 6.00154 27.4996 6.00356C27.4991 6.00566 27.4981 6.00984 27.4955 6.01631C27.4901 6.02952 27.4778 6.05314 27.4506 6.08637C27.3937 6.1558 27.2894 6.24612 27.1169 6.34806C26.7714 6.55225 26.2383 6.75347 25.5356 6.92914C24.1379 7.27856 22.1806 7.5 20 7.5C17.8194 7.5 15.8621 7.27856 14.4644 6.92914C13.7617 6.75347 13.2286 6.55225 12.8831 6.34806C12.7106 6.24612 12.6063 6.1558 12.5494 6.08637C12.5222 6.05314 12.5099 6.02952 12.5045 6.01631C12.5019 6.00984 12.5009 6.00566 12.5004 6.00356C12.5 6.00154 12.5 6.0005 12.5 6C12.5 5.9995 12.5 5.99846 12.5004 5.99644C12.5009 5.99434 12.5019 5.99016 12.5045 5.98369C12.5099 5.97048 12.5222 5.94686 12.5494 5.91363C12.6063 5.8442 12.7106 5.75388 12.8831 5.65194C13.2286 5.44775 13.7617 5.24653 14.4644 5.07086C15.8621 4.72144 17.8194 4.5 20 4.5C22.1806 4.5 24.1379 4.72144 25.5356 5.07086C26.2383 5.24653 26.7714 5.44775 27.1169 5.65194C27.2894 5.75388 27.3937 5.8442 27.4506 5.91363C27.4778 5.94686 27.4901 5.97048 27.4955 5.98369C27.4981 5.99016 27.4991 5.99434 27.4996 5.99644C27.5 5.99846 27.5 5.9995 27.5 6Z"/></svg>