<svg xmlns="http://www.w3.org/2000/svg" fill="none" viewBox="0 0 32 32" width="1em" height="1em"><path stroke="currentColor" stroke-linecap="round" d="M14.179 17.625v-.151 0c0-.805-.652-1.456-1.456-1.456H10.16c-.888 0-1.608.72-1.608 1.607v0c0 .888.72 1.607 1.608 1.607h2.544c.962 0 1.741.78 1.741 1.741v0a1.74 1.74 0 0 1-1.74 1.741h-2.58a1.57 1.57 0 0 1-1.573-1.572v0-.303m2.948-5.625v8.571"/><circle cx="11.5" cy="19.5" r="7" stroke="currentColor"/><path stroke="currentColor" stroke-linecap="round" d="M27.5 25.5c0 1.105-3.082 2-7.5 2a28 28 0 0 1-3-.153M27.5 10c0 1.026-3.358 1.857-7.5 1.857s-7.5-.831-7.5-1.857m15 5.571c0 .942-2.83 1.72-6.5 1.841m6.5 3.73c0 .943-2.83 1.72-6.5 1.842"/><path stroke="currentColor" stroke-linecap="round" stroke-linejoin="round" d="M12.5 6v4"/><path stroke="currentColor" stroke-linecap="round" d="M27.5 25.5V6"/><path stroke="currentColor" d="M27.5 6v.004l-.005.012a.3.3 0 0 1-.044.07c-.057.07-.162.16-.334.262-.346.204-.879.405-1.581.581-1.398.35-3.355.571-5.536.571s-4.138-.221-5.536-.57c-.702-.177-1.235-.378-1.58-.582a1.3 1.3 0 0 1-.335-.262.3.3 0 0 1-.049-.082v-.008l.005-.012a.3.3 0 0 1 .044-.07c.057-.07.162-.16.334-.262.346-.204.879-.405 1.581-.581C15.862 4.72 17.82 4.5 20 4.5s4.138.221 5.536.57c.702.177 1.235.378 1.58.582.173.102.278.192.335.262a.3.3 0 0 1 .049.082z"/></svg>
