<svg viewBox="0 0 32 32" fill="none" xmlns="http://www.w3.org/2000/svg" width="1em" height="1em"><path d="M14.1785 17.625V17.4735V17.4735C14.1785 16.6694 13.5266 16.0176 12.7226 16.0176H10.1607C9.27305 16.0176 8.55347 16.7372 8.55347 17.6248V17.6248C8.55347 18.5125 9.27304 19.2321 10.1607 19.2321L12.7053 19.2321C13.6668 19.2321 14.4463 20.0116 14.4463 20.9732V20.9732C14.4463 21.9348 13.6668 22.7143 12.7052 22.7143H10.1254C9.25725 22.7143 8.55347 22.0105 8.55347 21.1423V21.1423V20.8393" stroke="currentColor" stroke-linecap="round"/><path d="M11.4999 15.2139V23.7853" stroke="currentColor" stroke-linecap="round"/><circle cx="11.5" cy="19.5" r="7" stroke="currentColor"/><path d="M28 25.5C28 25.2239 27.7761 25 27.5 25C27.2239 25 27 25.2239 27 25.5H28ZM17.0544 26.8498C16.7799 26.8197 16.533 27.0178 16.503 27.2923C16.4729 27.5668 16.6711 27.8137 16.9456 27.8438L17.0544 26.8498ZM27 25.5C27 25.5237 26.9813 25.6558 26.6716 25.8628C26.3769 26.0598 25.9115 26.2578 25.2749 26.4319C24.0087 26.7784 22.1812 27 20 27V28C22.2371 28 24.1596 27.7739 25.5388 27.3965C26.225 27.2087 26.8061 26.9758 27.2273 26.6942C27.6335 26.4227 28 26.0286 28 25.5H27ZM20 27C18.9262 27 17.9357 26.9463 17.0544 26.8498L16.9456 27.8438C17.8666 27.9447 18.8936 28 20 28V27Z" fill="currentColor"/><path d="M28 10C28 9.72386 27.7761 9.5 27.5 9.5C27.2239 9.5 27 9.72386 27 10H28ZM13 10C13 9.72386 12.7761 9.5 12.5 9.5C12.2239 9.5 12 9.72386 12 10H13ZM28 15.5714C28 15.2953 27.7761 15.0714 27.5 15.0714C27.2239 15.0714 27 15.2953 27 15.5714H28ZM20.9835 16.9125C20.7075 16.9216 20.4912 17.1527 20.5003 17.4287C20.5094 17.7047 20.7405 17.921 21.0165 17.9119L20.9835 16.9125ZM28 21.1429C28 20.8667 27.7761 20.6429 27.5 20.6429C27.2239 20.6429 27 20.8667 27 21.1429H28ZM20.9835 22.4839C20.7075 22.493 20.4912 22.7241 20.5003 23.0001C20.5094 23.2761 20.7405 23.4925 21.0165 23.4834L20.9835 22.4839ZM27 10C27 9.96815 27.0132 10.0834 26.658 10.2914C26.3376 10.4789 25.8408 10.665 25.1831 10.8279C23.8755 11.1516 22.0428 11.3571 20 11.3571V12.3571C22.0993 12.3571 24.0166 12.1469 25.4235 11.7985C26.123 11.6253 26.7245 11.4112 27.1632 11.1544C27.5671 10.918 28 10.5447 28 10H27ZM20 11.3571C17.9572 11.3571 16.1245 11.1516 14.8169 10.8279C14.1592 10.665 13.6624 10.4789 13.342 10.2914C12.9868 10.0834 13 9.96815 13 10H12C12 10.5447 12.4329 10.918 12.8368 11.1544C13.2755 11.4112 13.877 11.6253 14.5765 11.7985C15.9834 12.1469 17.9007 12.3571 20 12.3571V11.3571ZM27 15.5714C27 15.5396 27.017 15.6344 26.7302 15.8186C26.4672 15.9875 26.0524 16.1606 25.4909 16.3182C24.3752 16.6313 22.7927 16.8528 20.9835 16.9125L21.0165 17.9119C22.8767 17.8506 24.5442 17.6225 25.7611 17.281C26.3659 17.1112 26.8882 16.9056 27.2706 16.66C27.6292 16.4297 28 16.0741 28 15.5714H27ZM27 21.1429C27 21.1111 27.017 21.2058 26.7302 21.39C26.4672 21.5589 26.0524 21.732 25.4909 21.8896C24.3752 22.2027 22.7927 22.4242 20.9835 22.4839L21.0165 23.4834C22.8767 23.422 24.5442 23.1939 25.7611 22.8524C26.3659 22.6826 26.8882 22.4771 27.2706 22.2314C27.6292 22.0011 28 21.6455 28 21.1429H27Z" fill="currentColor"/><path d="M12.5 6V10" stroke="currentColor" stroke-linecap="round" stroke-linejoin="round"/><path d="M27 25.5C27 25.7761 27.2239 26 27.5 26C27.7761 26 28 25.7761 28 25.5H27ZM28 6C28 5.72386 27.7761 5.5 27.5 5.5C27.2239 5.5 27 5.72386 27 6H28ZM28 25.5V6H27V25.5H28Z" fill="currentColor"/><path d="M27.5 6C27.5 6.0005 27.5 6.00154 27.4996 6.00356C27.4991 6.00566 27.4981 6.00984 27.4955 6.01631C27.4901 6.02952 27.4778 6.05314 27.4506 6.08637C27.3937 6.1558 27.2894 6.24612 27.1169 6.34806C26.7714 6.55225 26.2383 6.75347 25.5356 6.92914C24.1379 7.27856 22.1806 7.5 20 7.5C17.8194 7.5 15.8621 7.27856 14.4644 6.92914C13.7617 6.75347 13.2286 6.55225 12.8831 6.34806C12.7106 6.24612 12.6063 6.1558 12.5494 6.08637C12.5222 6.05314 12.5099 6.02952 12.5045 6.01631C12.5019 6.00984 12.5009 6.00566 12.5004 6.00356C12.5 6.00154 12.5 6.0005 12.5 6C12.5 5.9995 12.5 5.99846 12.5004 5.99644C12.5009 5.99434 12.5019 5.99016 12.5045 5.98369C12.5099 5.97048 12.5222 5.94686 12.5494 5.91363C12.6063 5.8442 12.7106 5.75388 12.8831 5.65194C13.2286 5.44775 13.7617 5.24653 14.4644 5.07086C15.8621 4.72144 17.8194 4.5 20 4.5C22.1806 4.5 24.1379 4.72144 25.5356 5.07086C26.2383 5.24653 26.7714 5.44775 27.1169 5.65194C27.2894 5.75388 27.3937 5.8442 27.4506 5.91363C27.4778 5.94686 27.4901 5.97048 27.4955 5.98369C27.4981 5.99016 27.4991 5.99434 27.4996 5.99644C27.5 5.99846 27.5 5.9995 27.5 6Z" stroke="currentColor"/></svg>
