<svg xmlns="http://www.w3.org/2000/svg" fill="none" viewBox="0 0 24 24" width="1em" height="1em"><path stroke="currentColor" stroke-linecap="round" d="M10.25 13.846v-.096 0a1 1 0 0 0-1-1H7.7a1.2 1.2 0 0 0-1.2 1.2v0a1.2 1.2 0 0 0 1.2 1.2h1.5a1.3 1.3 0 0 1 1.3 1.3v0a1.3 1.3 0 0 1-1.3 1.3H7.7a1.2 1.2 0 0 1-1.2-1.2v0-.3m2-4.5v7"/><circle cx="8.5" cy="15.5" r="5" stroke="currentColor"/><path stroke="currentColor" stroke-linecap="round" d="M20.5 19c0 1-2.848 1.5-6.214 1.5"/><path stroke="currentColor" stroke-linecap="round" stroke-linejoin="round" d="M8.5 4.626V8"/><path stroke="currentColor" stroke-linecap="round" d="M20.5 19V4.5"/><path stroke="currentColor" d="M20.25 4.355c.105.058.173.107.215.145a1 1 0 0 1-.215.145c-.272.148-.697.297-1.266.428-1.13.261-2.715.427-4.484.427s-3.354-.166-4.484-.427c-.569-.13-.994-.28-1.266-.428a1 1 0 0 1-.214-.145 1 1 0 0 1 .214-.145c.272-.148.697-.297 1.266-.428 1.13-.261 2.715-.427 4.484-.427s3.354.166 4.484.427c.569.13.994.28 1.266.428Z"/><path stroke="currentColor" stroke-linecap="round" d="M20.5 8c0 .785-2.686 1.421-6 1.421s-6-.636-6-1.421m12 3.579c0 .662-1.912 1.218-4.5 1.376m4.5 2.624c0 .662-1.912 1.218-4.5 1.376"/></svg>
