<svg viewBox="0 0 24 24" fill="none" xmlns="http://www.w3.org/2000/svg" width="1em" height="1em"><path d="M9.74993 13.8461C9.74993 14.1223 9.97378 14.3461 10.2499 14.3461C10.5261 14.3461 10.7499 14.1223 10.7499 13.8461H9.74993ZM6.99994 16.25C6.99994 15.9739 6.77608 15.75 6.49994 15.75C6.2238 15.75 5.99994 15.9739 5.99994 16.25H6.99994ZM9.19991 15.15L9.1999 15.65L9.19991 15.15ZM9.2502 12.25L7.69985 12.25L7.69986 13.25L9.25021 13.25L9.2502 12.25ZM7.69982 15.6499L9.1999 15.65L9.19993 14.65L7.69985 14.6499L7.69982 15.6499ZM9.19983 17.2499L7.69955 17.2498L7.69948 18.2498L9.19976 18.2499L9.19983 17.2499ZM9.74993 13.7497V13.8461H10.7499V13.7497H9.74993ZM6.99994 16.55V16.25H5.99994V16.55H6.99994ZM7.69955 17.2498C7.31313 17.2498 6.9999 16.9365 6.99994 16.5501L5.99994 16.55C5.99983 17.4887 6.76076 18.2498 7.69948 18.2498L7.69955 17.2498ZM9.99986 16.45C9.99984 16.8918 9.64165 17.2499 9.19983 17.2499L9.19976 18.2499C10.1939 18.25 10.9998 17.4441 10.9999 16.45L9.99986 16.45ZM9.1999 15.65C9.64173 15.65 9.99988 16.0082 9.99986 16.45L10.9999 16.45C10.9999 15.4559 10.194 14.65 9.19993 14.65L9.1999 15.65ZM5.99993 13.95C5.99993 14.8888 6.76099 15.6499 7.69982 15.6499L7.69985 14.6499C7.31329 14.6499 6.99993 14.3365 6.99993 13.95H5.99993ZM7.69985 12.25C6.76101 12.25 5.99993 13.0111 5.99993 13.95H6.99993C6.99993 13.5634 7.3133 13.25 7.69986 13.25L7.69985 12.25ZM9.25021 13.25C9.52619 13.25 9.74993 13.4737 9.74993 13.7497H10.7499C10.7499 12.9214 10.0785 12.25 9.2502 12.25L9.25021 13.25Z" fill="currentColor"/><path d="M8.49988 11.75V18.75" stroke="currentColor" stroke-linecap="round"/><circle cx="8.5" cy="15.5" r="5" stroke="currentColor"/><path d="M20.5001 19C20.5001 20 17.6521 20.5 14.2858 20.5" stroke="currentColor" stroke-linecap="round"/><path d="M8.5 4.62598V8" stroke="currentColor" stroke-linecap="round" stroke-linejoin="round"/><path d="M20.5 19V4.5" stroke="currentColor" stroke-linecap="round"/><path d="M20.2497 4.35505C20.3552 4.41258 20.4232 4.46242 20.4645 4.5C20.4232 4.53758 20.3552 4.58742 20.2497 4.64495C19.9783 4.79301 19.5526 4.9422 18.9838 5.07346C17.8541 5.33415 16.2687 5.5 14.5 5.5C12.7313 5.5 11.1459 5.33415 10.0162 5.07346C9.44742 4.9422 9.02166 4.79301 8.75028 4.64495C8.64483 4.58742 8.57681 4.53758 8.53553 4.5C8.57681 4.46242 8.64483 4.41258 8.75028 4.35505C9.02166 4.20699 9.44742 4.0578 10.0162 3.92654C11.1459 3.66585 12.7313 3.5 14.5 3.5C16.2687 3.5 17.8541 3.66585 18.9838 3.92654C19.5526 4.0578 19.9783 4.20699 20.2497 4.35505Z" stroke="currentColor"/><path d="M20.5 8C20.5 8.78483 17.8137 9.42105 14.5 9.42105C11.1863 9.42105 8.5 8.78483 8.5 8M20.5 11.5789C20.5 12.2411 18.5878 12.7975 16 12.9552M20.5 15.5789C20.5 16.2411 18.5878 16.7975 16 16.9552" stroke="currentColor" stroke-linecap="round"/></svg>
