<svg viewBox="0 0 24 24" fill="none" xmlns="http://www.w3.org/2000/svg" stroke="currentColor" width="1em" height="1em"><path d="M12 21.5L12 12" stroke-linecap="round" stroke-linejoin="round"/><path d="M8 15.5L12 11.5L16 15.5" stroke-linecap="round" stroke-linejoin="round"/><path d="M17.5 14C18.0214 14 18.0273 14 18.1818 14C20.2727 14 21.3182 11.9091 21.3182 10.3409C21.3182 8.48883 19.9422 6.95813 18.1567 6.71537C17.912 4.34699 15.9103 2.5 13.4773 2.5C11.4258 2.5 9.68102 3.81307 9.03752 5.64461C8.94996 5.63914 8.86167 5.63636 8.77273 5.63636C6.81331 5.63636 5.16864 6.98398 4.715 8.80293C3.46073 8.99488 2.5 10.0784 2.5 11.3864C2.5 12.8298 3.67016 14 5.11364 14C5.32865 14 5.71443 14 6.5 14" stroke-linecap="round" stroke-linejoin="round"/></svg>
