<svg xmlns="http://www.w3.org/2000/svg" fill="none" viewBox="0 0 32 32" width="1em" height="1em"><path stroke="currentColor" stroke-linecap="round" d="M12.5 5.5h-4a2 2 0 0 0-2 2v20a2 2 0 0 0 2 2h15a2 2 0 0 0 2-2v-20a2 2 0 0 0-2-2h-4"/><path stroke="currentColor" d="M12 7.5H9.5a1 1 0 0 0-1 1v18a1 1 0 0 0 1 1h13a1 1 0 0 0 1-1v-18a1 1 0 0 0-1-1H20"/><path stroke="currentColor" d="M11.5 6a.5.5 0 0 1 .5-.5h8a.5.5 0 0 1 .5.5v2a.5.5 0 0 1-.5.5h-8a.5.5 0 0 1-.5-.5zm2-2a.5.5 0 0 1 .5-.5h4a.5.5 0 0 1 .5.5v1.5h-5z"/><circle cx="16" cy="16" r="4.5" stroke="currentColor"/><path stroke="currentColor" stroke-linecap="round" stroke-linejoin="round" d="m14 16 1.5 1.5L18 15"/><path stroke="currentColor" stroke-linecap="round" d="M11.5 23.5h9m-9 2h9"/></svg>
