<svg xmlns="http://www.w3.org/2000/svg" fill="none" viewBox="0 0 24 24" width="1em" height="1em"><path stroke="currentColor" d="M19.5 6v14a1.5 1.5 0 0 1-1.5 1.5H6A1.5 1.5 0 0 1 4.5 20V6A1.5 1.5 0 0 1 6 4.5h12A1.5 1.5 0 0 1 19.5 6Z"/><path stroke="currentColor" d="M17.5 7v12a.5.5 0 0 1-.5.5H7a.5.5 0 0 1-.5-.5V7a.5.5 0 0 1 .5-.5h10a.5.5 0 0 1 .5.5Zm-9-2a.5.5 0 0 1 .5-.5h6a.5.5 0 0 1 .5.5v1a.5.5 0 0 1-.5.5H9a.5.5 0 0 1-.5-.5zm2-1.5a1 1 0 0 1 1-1h1a1 1 0 1 1 0 2h-1a1 1 0 0 1-1-1Z"/><circle cx="12" cy="12" r="3.5" stroke="currentColor"/><path stroke="currentColor" stroke-linecap="round" stroke-linejoin="round" d="m10.5 12 1.125 1.04 1.875-2"/><path stroke="currentColor" stroke-linecap="round" d="M9.5 17.5h5"/></svg>
