<svg xmlns="http://www.w3.org/2000/svg" fill="none" viewBox="0 0 16 16" width="1em" height="1em"><path stroke="currentColor" d="M10 2.5h2.5a1 1 0 0 1 1 1v10a1 1 0 0 1-1 1h-9a1 1 0 0 1-1-1v-10a1 1 0 0 1 1-1H5"/><path stroke="currentColor" d="M5.5 2a.5.5 0 0 1 .5-.5h4a.5.5 0 0 1 .5.5v1a.5.5 0 0 1-.5.5H6a.5.5 0 0 1-.5-.5z"/><path stroke="currentColor" stroke-linecap="round" stroke-linejoin="round" d="m6.5 6.5 1 1 2-2"/><path stroke="currentColor" stroke-linecap="round" d="M5.5 9.5h5m-5 2h5"/></svg>
