<svg viewBox="0 0 24 24" fill="none" xmlns="http://www.w3.org/2000/svg" stroke="currentColor"><rect x="2.5" y="3.5" width="19" height="17" rx="1.5"/><path d="M13.5 9.00024C13.2239 9.00024 13 9.2241 13 9.50024C13 9.77639 13.2239 10.0002 13.5 10.0002V9.00024ZM16.5 9.50024H17C17 9.2241 16.7761 9.00024 16.5 9.00024V9.50024ZM16 12.5002C16 12.7764 16.2239 13.0002 16.5 13.0002C16.7761 13.0002 17 12.7764 17 12.5002H16ZM13.1464 12.1467C12.9512 12.342 12.9512 12.6585 13.1464 12.8538C13.3417 13.0491 13.6583 13.0491 13.8536 12.8538L13.1464 12.1467ZM13.5 10.0002H16.5V9.00024H13.5V10.0002ZM16 9.50024V12.5002H17V9.50024H16ZM16.1464 9.14669L13.1464 12.1467L13.8536 12.8538L16.8536 9.8538L16.1464 9.14669Z" fill="#282829"/><path d="M11.5 18.0002C11.7761 18.0002 12 17.7764 12 17.5002C12 17.2241 11.7761 17.0002 11.5 17.0002V18.0002ZM8.5 17.5002H8C8 17.7764 8.22386 18.0002 8.5 18.0002V17.5002ZM9 14.5002C9 14.2241 8.77614 14.0002 8.5 14.0002C8.22386 14.0002 8 14.2241 8 14.5002H9ZM11.8536 14.8538C12.0488 14.6585 12.0488 14.342 11.8536 14.1467C11.6583 13.9514 11.3417 13.9514 11.1464 14.1467L11.8536 14.8538ZM11.5 17.0002H8.5V18.0002H11.5V17.0002ZM9 17.5002V14.5002H8V17.5002H9ZM8.85355 17.8538L11.8536 14.8538L11.1464 14.1467L8.14645 17.1467L8.85355 17.8538Z" fill="#282829"/><path d="M2.71997 6.5H21.44"/></svg>
