<svg viewBox="0 0 32 32" fill="none" xmlns="http://www.w3.org/2000/svg" stroke="currentColor"><rect x="2.5" y="4.5" width="27" height="23" rx="1.5"/><path d="M3 8.5H29"/><circle cx="4.5" cy="6.5" r="0.25" stroke-width="0.5"/><circle cx="6.5" cy="6.5" r="0.25" stroke-width="0.5"/><circle cx="8.5" cy="6.5" r="0.25" stroke-width="0.5"/><path d="M17.5 11C17.2239 11 17 11.2239 17 11.5C17 11.7761 17.2239 12 17.5 12V11ZM21.5 11.5H22C22 11.2239 21.7761 11 21.5 11V11.5ZM21 15.5C21 15.7761 21.2239 16 21.5 16C21.7761 16 22 15.7761 22 15.5H21ZM17.1464 15.1464C16.9512 15.3417 16.9512 15.6583 17.1464 15.8536C17.3417 16.0488 17.6583 16.0488 17.8536 15.8536L17.1464 15.1464ZM17.5 12H21.5V11H17.5V12ZM21 11.5V15.5H22V11.5H21ZM21.1464 11.1464L17.1464 15.1464L17.8536 15.8536L21.8536 11.8536L21.1464 11.1464Z" fill="#282829"/><path d="M14.5 23C14.7761 23 15 22.7761 15 22.5C15 22.2239 14.7761 22 14.5 22V23ZM10.5 22.5H10C10 22.7761 10.2239 23 10.5 23V22.5ZM11 18.5C11 18.2239 10.7761 18 10.5 18C10.2239 18 10 18.2239 10 18.5H11ZM14.8536 18.8536C15.0488 18.6583 15.0488 18.3417 14.8536 18.1464C14.6583 17.9512 14.3417 17.9512 14.1464 18.1464L14.8536 18.8536ZM14.5 22H10.5V23H14.5V22ZM11 22.5V18.5H10V22.5H11ZM10.8536 22.8536L14.8536 18.8536L14.1464 18.1464L10.1464 22.1464L10.8536 22.8536Z" fill="#282829"/></svg>
