<svg viewBox="0 0 16 16" fill="none" xmlns="http://www.w3.org/2000/svg" stroke="currentColor" width="1em" height="1em"><rect x="1.5" y="1.5" width="13" height="13" rx="1.5"/><path d="M7 12C7.27614 12 7.5 11.7761 7.5 11.5C7.5 11.2239 7.27614 11 7 11V12ZM4.5 11.5H4C4 11.7761 4.22386 12 4.5 12V11.5ZM5 9C5 8.72386 4.77614 8.5 4.5 8.5C4.22386 8.5 4 8.72386 4 9H5ZM7.35355 9.35355C7.54882 9.15829 7.54882 8.84171 7.35355 8.64645C7.15829 8.45118 6.84171 8.45118 6.64645 8.64645L7.35355 9.35355ZM7 11H4.5V12H7V11ZM5 11.5V9H4V11.5H5ZM4.85355 11.8536L7.35355 9.35355L6.64645 8.64645L4.14645 11.1464L4.85355 11.8536Z" fill="#282829"/><path d="M9 4C8.72386 4 8.5 4.22386 8.5 4.5C8.5 4.77614 8.72386 5 9 5V4ZM11.5 4.5H12C12 4.22386 11.7761 4 11.5 4V4.5ZM11 7C11 7.27614 11.2239 7.5 11.5 7.5C11.7761 7.5 12 7.27614 12 7H11ZM8.64645 6.64645C8.45118 6.84171 8.45118 7.15829 8.64645 7.35355C8.84171 7.54882 9.15829 7.54882 9.35355 7.35355L8.64645 6.64645ZM9 5H11.5V4H9V5ZM11 4.5V7H12V4.5H11ZM11.1464 4.14645L8.64645 6.64645L9.35355 7.35355L11.8536 4.85355L11.1464 4.14645Z" fill="#282829"/></svg>
