<svg viewBox="0 0 24 24" fill="none" xmlns="http://www.w3.org/2000/svg" width="1em" height="1em"><path d="M16.5 17L17.625 18L19.5 16" stroke="currentColor" stroke-linecap="round" stroke-linejoin="round"/><rect x="14.5" y="13.5" width="7" height="7" rx="1.5" stroke="currentColor"/><path d="M17 8L19 6" stroke="currentColor" stroke-linecap="round" stroke-linejoin="round"/><path d="M19 8L17 6" stroke="currentColor" stroke-linecap="round" stroke-linejoin="round"/><rect x="14.5" y="3.5" width="7" height="7" rx="1.5" stroke="currentColor"/><path d="M3.5 20.5001V20.1667C3.5 17.8655 5.24111 16.5 7.38889 16.5L11.5 16.5" stroke="currentColor" stroke-linecap="round" stroke-linejoin="round"/><path d="M8.5 13.5C10.433 13.5 12 11.933 12 10C12 8.067 10.433 6.5 8.5 6.5C6.567 6.5 5 8.067 5 10C5 11.933 6.567 13.5 8.5 13.5Z" stroke="currentColor" stroke-linecap="round" stroke-linejoin="round"/></svg>
