<svg viewBox="0 0 32 32" fill="none" xmlns="http://www.w3.org/2000/svg" width="1em" height="1em"><path d="M15 19.5H8.5C6.29086 19.5 4.5 21.2909 4.5 23.5V27.5" stroke="currentColor" stroke-linecap="round"/><path d="M11 16.5C13.4853 16.5 15.5 14.4853 15.5 12C15.5 9.51472 13.4853 7.5 11 7.5C8.51472 7.5 6.5 9.51472 6.5 12C6.5 14.4853 8.51472 16.5 11 16.5Z" stroke="currentColor" stroke-linecap="round" stroke-linejoin="round"/><rect x="18.5" y="18.5" width="9" height="9" rx="1.5" stroke="currentColor"/><path d="M21 23.5L22.5 25L25.5 21.5" stroke="currentColor" stroke-linecap="round" stroke-linejoin="round"/><path d="M21.5 10.5L24.5 7.5M24.5 10.5L21.5 7.5" stroke="currentColor" stroke-linecap="round" stroke-linejoin="round"/><rect x="18.5" y="4.5" width="9" height="9" rx="1.5" stroke="currentColor"/></svg>
