<svg xmlns="http://www.w3.org/2000/svg" fill="none" viewBox="0 0 24 24" width="1em" height="1em"><circle cx="8" cy="21" r=".5" stroke="currentColor"/><circle cx="16" cy="21" r=".5" stroke="currentColor"/><path stroke="currentColor" stroke-linecap="round" stroke-linejoin="round" d="M4.722 8.5H6.5l2 8"/><path stroke="currentColor" stroke-linecap="round" d="M7 10.5h10.202a1 1 0 0 1 .967 1.255l-.863 3.275a2 2 0 0 1-1.938 1.49L8 16.502a.999.999 0 0 0-1.001 1v0a1 1 0 0 0 .999.998H17.5"/><path stroke="currentColor" stroke-linecap="round" stroke-linejoin="round" d="m16 7-1.414 1.414L13.17 7"/><path stroke="currentColor" stroke-linecap="round" stroke-linejoin="round" d="M14.5 8V6.22a1 1 0 0 0-.684-.948L9.184 3.728a1 1 0 0 1-.684-.949V2.5m-.414 4.586L9.5 8.5l1.414-1.414"/><path stroke="currentColor" stroke-linecap="round" stroke-linejoin="round" d="M9.5 8V6.22a1 1 0 0 1 .684-.948l4.632-1.544a1 1 0 0 0 .684-.949V2.5"/></svg>
