<svg viewBox="0 0 24 24" fill="none" xmlns="http://www.w3.org/2000/svg" width="1em" height="1em"><circle cx="8" cy="21" r="0.5" stroke="currentColor"/><circle cx="16" cy="21" r="0.5" stroke="currentColor"/><path d="M4.72217 8.5H6.49995L8.5 16.5" stroke="currentColor" stroke-linecap="round" stroke-linejoin="round"/><path d="M7 10.5H17.2024C17.8582 10.5 18.3365 11.1206 18.1694 11.7548L17.3064 15.0298C17.0746 15.9099 16.2777 16.5224 15.3676 16.5202L8.00121 16.5024C7.44865 16.5011 7 16.9486 7 17.5012V17.5012C7 18.0528 7.44717 18.5 7.99879 18.5H17.5" stroke="currentColor" stroke-linecap="round"/><path d="M15.9999 7.00015L14.5857 8.41436L13.1715 7.00015" stroke="currentColor" stroke-linecap="round" stroke-linejoin="round"/><path d="M14 8C14 8.27614 14.2239 8.5 14.5 8.5C14.7761 8.5 15 8.27614 15 8H14ZM9 2.5C9 2.22386 8.77614 2 8.5 2C8.22386 2 8 2.22386 8 2.5H9ZM9.18377 3.72792L9.02566 4.20227L9.18377 3.72792ZM13.8162 5.27208L13.6581 5.74642L13.8162 5.27208ZM15 8V6.22076H14V8H15ZM13.9743 4.79773L9.34189 3.25358L9.02566 4.20227L13.6581 5.74642L13.9743 4.79773ZM9 2.77924V2.5H8V2.77924H9ZM9.34189 3.25358C9.13772 3.18553 9 2.99446 9 2.77924H8C8 3.42489 8.41315 3.99809 9.02566 4.20227L9.34189 3.25358ZM15 6.22076C15 5.57511 14.5869 5.00191 13.9743 4.79773L13.6581 5.74642C13.8623 5.81447 14 6.00554 14 6.22076H15Z" fill="currentColor"/><path d="M8.08603 7.0856L9.50024 8.49981L10.9145 7.0856" stroke="currentColor" stroke-linecap="round" stroke-linejoin="round"/><path d="M10.0002 8.00012C10.0002 8.27626 9.77639 8.50012 9.50024 8.50012C9.2241 8.50012 9.00024 8.27626 9.00024 8.00012H10.0002ZM15.0002 2.5C15.0002 2.22386 15.2241 2 15.5002 2C15.7764 2 16.0002 2.22386 16.0002 2.5H15.0002ZM14.8165 3.72792L14.9746 4.20227L14.8165 3.72792ZM10.184 5.27208L10.3421 5.74642L10.184 5.27208ZM9.00024 8.00012V6.22076H10.0002V8.00012H9.00024ZM10.0259 4.79773L14.6584 3.25358L14.9746 4.20227L10.3421 5.74642L10.0259 4.79773ZM15.0002 2.77924V2.5H16.0002V2.77924H15.0002ZM14.6584 3.25358C14.8625 3.18553 15.0002 2.99446 15.0002 2.77924H16.0002C16.0002 3.42489 15.5871 3.99809 14.9746 4.20227L14.6584 3.25358ZM9.00024 6.22076C9.00024 5.57511 9.41339 5.00191 10.0259 4.79773L10.3421 5.74642C10.138 5.81447 10.0002 6.00554 10.0002 6.22076H9.00024Z" fill="currentColor"/></svg>
