<svg viewBox="0 0 24 24" fill="none" xmlns="http://www.w3.org/2000/svg" stroke="currentColor"><circle cx="8" cy="21" r="0.5"/><circle cx="16" cy="21" r="0.5"/><path d="M4.72217 8.5H6.49995L8.5 16.5" stroke-linecap="round" stroke-linejoin="round"/><path d="M7 10C6.72386 10 6.5 10.2239 6.5 10.5C6.5 10.7761 6.72386 11 7 11V10ZM17.5 19C17.7761 19 18 18.7761 18 18.5C18 18.2239 17.7761 18 17.5 18V19ZM15.3676 16.5202L15.3664 17.0202L15.3676 16.5202ZM18.1694 11.7548L17.6859 11.6274L18.1694 11.7548ZM7 11H17.2024V10H7V11ZM17.6859 11.6274L16.8229 14.9024L17.7899 15.1572L18.6529 11.8822L17.6859 11.6274ZM15.3688 16.0202L8.00242 16.0024L8 17.0024L15.3664 17.0202L15.3688 16.0202ZM7.99879 19H17.5V18H7.99879V19ZM6.5 17.5012C6.5 18.329 7.17103 19 7.99879 19V18C7.72332 18 7.5 17.7767 7.5 17.5012H6.5ZM8.00242 16.0024C7.17324 16.0004 6.5 16.672 6.5 17.5012H7.5C7.5 17.2253 7.72405 17.0018 8 17.0024L8.00242 16.0024ZM16.8229 14.9024C16.649 15.5625 16.0514 16.0219 15.3688 16.0202L15.3664 17.0202C16.504 17.023 17.5001 16.2573 17.7899 15.1572L16.8229 14.9024ZM17.2024 11C17.5303 11 17.7694 11.3103 17.6859 11.6274L18.6529 11.8822C18.9035 10.931 18.1861 10 17.2024 10V11Z" fill="#282829"/><path d="M15.9999 7.00015L14.5857 8.41436L13.1715 7.00015" stroke-linecap="round" stroke-linejoin="round"/><path d="M14.5 8V6.22076C14.5 5.79033 14.2246 5.40819 13.8162 5.27208L9.18377 3.72792C8.77543 3.59181 8.5 3.20967 8.5 2.77924V2.5" stroke-linecap="round" stroke-linejoin="round"/><path d="M8.08603 7.0856L9.50024 8.49981L10.9145 7.0856" stroke-linecap="round" stroke-linejoin="round"/><path d="M9.50024 8.00012V6.22076C9.50024 5.79033 9.77567 5.40819 10.184 5.27208L14.8165 3.72792C15.2248 3.59181 15.5002 3.20967 15.5002 2.77924V2.5" stroke-linecap="round" stroke-linejoin="round"/></svg>
