<svg xmlns="http://www.w3.org/2000/svg" fill="none" viewBox="0 0 32 32" width="1em" height="1em"><circle cx="11.5" cy="28.5" r="1" stroke="currentColor"/><circle cx="20.894" cy="28.5" r="1" stroke="currentColor"/><path stroke="currentColor" stroke-linecap="round" d="M9.464 15.5h13.548a1 1 0 0 1 .976 1.217l-1.14 5.111a2 2 0 0 1-1.951 1.565h-10.38c-.582 0-1.053.472-1.053 1.054v0c0 .582.471 1.053 1.053 1.053H22.5"/><path stroke="currentColor" stroke-linecap="round" stroke-linejoin="round" d="M6.5 13.5h2.33L11 23m11.268-12.232L20.5 12.536l-1.768-1.768"/><path stroke="currentColor" stroke-linecap="round" stroke-linejoin="round" d="M20.5 11.553V9.22a1 1 0 0 0-.684-.949l-7.632-2.544a1 1 0 0 1-.684-.949v-2.33m-1.768 8.285L11.5 12.5l1.768-1.768"/><path stroke="currentColor" stroke-linecap="round" stroke-linejoin="round" d="M11.5 11.553V9.22a1 1 0 0 1 .684-.949l7.632-2.544a1 1 0 0 0 .684-.949v-2.33"/></svg>
