<svg viewBox="0 0 32 32" fill="none" xmlns="http://www.w3.org/2000/svg" width="1em" height="1em"><circle cx="11.5" cy="28.5" r="1" stroke="currentColor"/><circle cx="20.894" cy="28.5" r="1" stroke="currentColor"/><path d="M9.46362 15.4998L23.0123 15.4995C23.6523 15.4995 24.1276 16.0924 23.9883 16.7171L22.8488 21.8284C22.645 22.7428 21.8337 23.3932 20.8968 23.3932L10.5169 23.3934C9.93517 23.3934 9.46362 23.865 9.46362 24.4467V24.4467C9.46362 25.0284 9.93518 25.4999 10.5169 25.4999H22.5" stroke="currentColor" stroke-linecap="round"/><path d="M6.5 13.5H8.83007L11 23" stroke="currentColor" stroke-linecap="round" stroke-linejoin="round"/><path d="M22.2678 10.7679L20.5 12.5356L18.7322 10.7679" stroke="currentColor" stroke-linecap="round" stroke-linejoin="round"/><path d="M20.5 11.5525V9.22083C20.5 8.79039 20.2246 8.40825 19.8162 8.27214L12.1838 5.7281C11.7754 5.59199 11.5 5.20985 11.5 4.77941V2.44775" stroke="currentColor" stroke-linecap="round" stroke-linejoin="round"/><path d="M9.73223 10.7327L11.5 12.5005L13.2678 10.7327" stroke="currentColor" stroke-linecap="round" stroke-linejoin="round"/><path d="M11.5 11.5525V9.22083C11.5 8.79039 11.7754 8.40825 12.1838 8.27214L19.8162 5.7281C20.2246 5.59199 20.5 5.20985 20.5 4.77941V2.44775" stroke="currentColor" stroke-linecap="round" stroke-linejoin="round"/></svg>
