<svg viewBox="0 0 32 32" fill="none" xmlns="http://www.w3.org/2000/svg" stroke="currentColor"><circle cx="11.5" cy="28.5" r="1"/><circle cx="20.894" cy="28.5" r="1"/><path d="M9.46361 14.9998C9.18747 14.9998 8.96362 15.2236 8.96362 15.4998C8.96363 15.7759 9.18749 15.9998 9.46363 15.9998L9.46361 14.9998ZM22.5 25.9999C22.7761 25.9999 23 25.7761 23 25.4999C23 25.2238 22.7761 24.9999 22.5 24.9999V25.9999ZM22.8488 21.8284L22.3608 21.7196L22.8488 21.8284ZM23.9883 16.7171L23.5003 16.6083L23.9883 16.7171ZM9.46363 15.9998L23.0123 15.9995L23.0123 14.9995L9.46361 14.9998L9.46363 15.9998ZM23.5003 16.6083L22.3608 21.7196L23.3369 21.9372L24.4763 16.8259L23.5003 16.6083ZM20.8968 22.8932L10.5168 22.8934L10.5169 23.8934L20.8968 23.8932L20.8968 22.8932ZM10.5169 25.9999H22.5V24.9999H10.5169V25.9999ZM8.96362 24.4467C8.96362 25.3045 9.65904 25.9999 10.5169 25.9999V24.9999C10.2113 24.9999 9.96362 24.7522 9.96362 24.4467H8.96362ZM10.5168 22.8934C9.65902 22.8934 8.96362 23.5888 8.96362 24.4467H9.96362C9.96362 24.1411 10.2113 23.8934 10.5169 23.8934L10.5168 22.8934ZM22.3608 21.7196C22.2079 22.4054 21.5995 22.8932 20.8968 22.8932L20.8968 23.8932C22.0679 23.8932 23.082 23.0802 23.3369 21.9372L22.3608 21.7196ZM23.0123 15.9995C23.3323 15.9995 23.5699 16.296 23.5003 16.6083L24.4763 16.8259C24.6852 15.8889 23.9723 14.9995 23.0123 14.9995L23.0123 15.9995Z" fill="#282829"/><path d="M6.5 13.5H8.83007L11 23" stroke-linecap="round" stroke-linejoin="round"/><path d="M22.2678 10.7679L20.5 12.5356L18.7322 10.7679" stroke-linecap="round" stroke-linejoin="round"/><path d="M20.5 11.5525V9.22083C20.5 8.79039 20.2246 8.40825 19.8162 8.27214L12.1838 5.7281C11.7754 5.59199 11.5 5.20985 11.5 4.77941V2.44775" stroke-linecap="round" stroke-linejoin="round"/><path d="M9.73223 10.7327L11.5 12.5005L13.2678 10.7327" stroke-linecap="round" stroke-linejoin="round"/><path d="M11.5 11.5525V9.22083C11.5 8.79039 11.7754 8.40825 12.1838 8.27214L19.8162 5.7281C20.2246 5.59199 20.5 5.20985 20.5 4.77941V2.44775" stroke-linecap="round" stroke-linejoin="round"/></svg>