<svg viewBox="0 0 16 16" fill="none" xmlns="http://www.w3.org/2000/svg" stroke="currentColor" width="1em" height="1em"><path d="M1.5 1.5H3.5L4.5 8.5" stroke-linecap="round" stroke-linejoin="round"/><path d="M4 3C3.72386 3 3.5 3.22386 3.5 3.5C3.5 3.77614 3.72386 4 4 4V3ZM11.8571 11C12.1333 11 12.3571 10.7761 12.3571 10.5C12.3571 10.2239 12.1333 10 11.8571 10V11ZM12.6608 7.69612L12.1705 7.59806L12.6608 7.69612ZM13.2608 4.69612L12.7705 4.59806L13.2608 4.69612ZM4 4H12.2802V3H4V4ZM12.7705 4.59806L12.1705 7.59806L13.1511 7.79417L13.7511 4.79417L12.7705 4.59806ZM11.6802 8H4.5V9H11.6802V8ZM4.5 11H11.8571V10H4.5V11ZM3 9.5C3 10.3284 3.67157 11 4.5 11V10C4.22386 10 4 9.77614 4 9.5H3ZM4.5 8C3.67157 8 3 8.67157 3 9.5H4C4 9.22386 4.22386 9 4.5 9V8ZM12.1705 7.59806C12.1237 7.83177 11.9185 8 11.6802 8V9C12.3952 9 13.0108 8.49531 13.1511 7.79417L12.1705 7.59806ZM12.2802 4C12.5957 4 12.8324 4.28866 12.7705 4.59806L13.7511 4.79417C13.9367 3.86599 13.2268 3 12.2802 3V4Z" fill="#282829"/><circle cx="11" cy="13" r="0.5"/><circle cx="5" cy="13" r="0.5"/></svg>
