<svg viewBox="0 0 32 32" fill="none" xmlns="http://www.w3.org/2000/svg" width="1em" height="1em"><circle cx="11.5" cy="28.5" r="1" stroke="currentColor"/><circle cx="20.894" cy="28.5" r="1" stroke="currentColor"/><path d="M9.46362 15.4998L23.0123 15.4995C23.6523 15.4995 24.1276 16.0924 23.9883 16.7171L22.8488 21.8284C22.645 22.7428 21.8337 23.3932 20.8968 23.3932L10.5169 23.3934C9.93517 23.3934 9.46362 23.865 9.46362 24.4467V24.4467C9.46362 25.0284 9.93518 25.4999 10.5169 25.4999H22.5" stroke="currentColor" stroke-linecap="round"/><path d="M6.5 13.5H8.83007L11 23" stroke="currentColor" stroke-linecap="round" stroke-linejoin="round"/><path d="M22.2678 10.7679L20.5 12.5356L18.7322 10.7679" stroke="currentColor" stroke-linecap="round" stroke-linejoin="round"/><path d="M21 11.5525C21 11.8286 20.7761 12.0525 20.5 12.0525C20.2239 12.0525 20 11.8286 20 11.5525H21ZM11 2.44775C11 2.17161 11.2239 1.94775 11.5 1.94775C11.7761 1.94775 12 2.17161 12 2.44775H11ZM19.8162 8.27214L19.9743 7.7978L19.8162 8.27214ZM20 11.5525V9.22083H21V11.5525H20ZM19.6581 8.74648L12.0257 6.20244L12.3419 5.25376L19.9743 7.7978L19.6581 8.74648ZM11 4.77941V2.44775H12V4.77941H11ZM12.0257 6.20244C11.4132 5.99828 11 5.42507 11 4.77941H12C12 4.99463 12.1377 5.1857 12.3419 5.25376L12.0257 6.20244ZM20 9.22083C20 9.00561 19.8623 8.81454 19.6581 8.74648L19.9743 7.7978C20.5868 8.00196 21 8.57517 21 9.22083H20Z" fill="currentColor"/><path d="M9.73223 10.7327L11.5 12.5005L13.2678 10.7327" stroke="currentColor" stroke-linecap="round" stroke-linejoin="round"/><path d="M11 11.5525C11 11.8286 11.2239 12.0525 11.5 12.0525C11.7761 12.0525 12 11.8286 12 11.5525H11ZM21 2.44775C21 2.17161 20.7761 1.94775 20.5 1.94775C20.2239 1.94775 20 2.17161 20 2.44775H21ZM12 11.5525V9.22083H11V11.5525H12ZM12.3419 8.74648L19.9743 6.20244L19.6581 5.25376L12.0257 7.7978L12.3419 8.74648ZM21 4.77941V2.44775H20V4.77941H21ZM19.9743 6.20244C20.5868 5.99828 21 5.42507 21 4.77941H20C20 4.99463 19.8623 5.1857 19.6581 5.25376L19.9743 6.20244ZM12 9.22083C12 9.00561 12.1377 8.81454 12.3419 8.74648L12.0257 7.7978C11.4132 8.00196 11 8.57517 11 9.22083H12Z" fill="currentColor"/></svg>
