<svg viewBox="0 0 32 32" fill="none" xmlns="http://www.w3.org/2000/svg" stroke="currentColor"><rect x="2.5" y="4.5" width="27" height="21" rx="1.5"/><path d="M6 21C5.72386 21 5.5 21.2239 5.5 21.5C5.5 21.7761 5.72386 22 6 22V21ZM26 22C26.2761 22 26.5 21.7761 26.5 21.5C26.5 21.2239 26.2761 21 26 21V22ZM6 22H26V21H6V22Z" fill="#282829"/><circle cx="24" cy="21.5" r="0.75" stroke-width="0.5"/><path d="M20.3136 12.5713C20.6373 12.7655 20.6373 13.2345 20.3136 13.4287L13.2572 17.6626C12.924 17.8625 12.5 17.6225 12.5 17.2338L12.5 8.76619C12.5 8.37754 12.924 8.13749 13.2572 8.33744L20.3136 12.5713Z" stroke-linecap="round" stroke-linejoin="round"/></svg>
