<svg viewBox="0 0 24 24" fill="none" xmlns="http://www.w3.org/2000/svg" width="1em" height="1em"><path d="M2.5 6C2.5 5.17157 3.17157 4.5 4 4.5L20 4.5C20.8284 4.5 21.5 5.17157 21.5 6V18C21.5 18.8284 20.8284 19.5 20 19.5H4C3.17157 19.5 2.5 18.8284 2.5 18L2.5 6Z" stroke="currentColor"/><path d="M5.49998 16.5H17.5" stroke="currentColor" stroke-linecap="round"/><path d="M16.25 16.5C16.25 16.9142 15.9142 17.25 15.5 17.25C15.0858 17.25 14.75 16.9142 14.75 16.5C14.75 16.0858 15.0858 15.75 15.5 15.75C15.9142 15.75 16.25 16.0858 16.25 16.5Z" stroke="currentColor" stroke-width="0.5"/><path d="M14.67 10.8159C15.0059 11.0078 15.0059 11.4922 14.67 11.6841L10.2481 14.2109C9.91474 14.4014 9.5 14.1607 9.5 13.7768L9.5 8.72318C9.5 8.33927 9.91474 8.09858 10.2481 8.28906L14.67 10.8159Z" stroke="currentColor" stroke-linecap="round" stroke-linejoin="round"/></svg>
