<svg xmlns="http://www.w3.org/2000/svg" fill="none" viewBox="0 0 24 24" width="1em" height="1em"><path stroke="currentColor" d="M2.5 6A1.5 1.5 0 0 1 4 4.5h16A1.5 1.5 0 0 1 21.5 6v12a1.5 1.5 0 0 1-1.5 1.5H4A1.5 1.5 0 0 1 2.5 18z"/><path stroke="currentColor" stroke-linecap="round" d="M5.5 16.5h12"/><path stroke="currentColor" stroke-width=".5" d="M16.25 16.5a.75.75 0 1 1-1.5 0 .75.75 0 0 1 1.5 0Z"/><path stroke="currentColor" stroke-linecap="round" stroke-linejoin="round" d="M14.67 10.816a.5.5 0 0 1 0 .868l-4.422 2.527a.5.5 0 0 1-.748-.434V8.723a.5.5 0 0 1 .748-.434z"/></svg>
