<svg viewBox="0 0 24 24" fill="none" xmlns="http://www.w3.org/2000/svg" width="1em" height="1em"><path d="M21.5 8V18.5C21.5 19.3284 20.8284 20 20 20H4C3.17157 20 2.5 19.3284 2.5 18.5V6C2.5 5.17157 3.17157 4.5 4 4.5H14.5" stroke="currentColor" stroke-linecap="round"/><path d="M12.5 8C12.7761 8 13 7.77614 13 7.5C13 7.22386 12.7761 7 12.5 7V8ZM2 8H12.5V7H2V8Z" fill="currentColor"/><circle cx="4.5" cy="5.97363" r="0.5" fill="currentColor"/><circle cx="6.5" cy="5.97363" r="0.5" fill="currentColor"/><circle cx="8.5" cy="5.97363" r="0.5" fill="currentColor"/><path d="M5.5 12C5.5 11.7239 5.72386 11.5 6 11.5H8C8.27614 11.5 8.5 11.7239 8.5 12V13C8.5 13.2761 8.27614 13.5 8 13.5H6C5.72386 13.5 5.5 13.2761 5.5 13V12Z" stroke="currentColor"/><path d="M10.5 12.5H18.5" stroke="currentColor" stroke-linecap="round"/><path d="M5.5 16C5.5 15.7239 5.72386 15.5 6 15.5H8C8.27614 15.5 8.5 15.7239 8.5 16V17C8.5 17.2761 8.27614 17.5 8 17.5H6C5.72386 17.5 5.5 17.2761 5.5 17V16Z" stroke="currentColor"/><path d="M10.5 16.5H18.5" stroke="currentColor" stroke-linecap="round"/><mask id="path-10-inside-1_1254_7752" fill="currentColor"><path d="M18.9883 2.0117C19.2356 1.76443 19.6538 1.84087 19.7976 2.15962L20.4571 3.62132L21.8225 4.20861C22.1472 4.34826 22.2285 4.77155 21.9785 5.02148L19.4687 7.53126C19.1846 7.81538 18.7581 7.90185 18.3857 7.75081L17.3034 7.31173C17.0588 7.21252 16.8634 7.02067 16.7597 6.77799L16.2657 5.62185C16.1052 5.2462 16.1893 4.81069 16.4782 4.52183L18.9883 2.0117Z"/></mask><path d="M20.4571 3.62132L19.5456 4.03258C19.6483 4.26026 19.8325 4.44126 20.062 4.53995L20.4571 3.62132ZM17.3034 7.31173L17.6793 6.38507L17.3034 7.31173ZM16.7597 6.77799L15.8401 7.1709L16.7597 6.77799ZM18.3857 7.75081L18.7616 6.82415L18.3857 7.75081ZM21.2714 4.31437L18.7616 6.82415L20.1758 8.23837L22.6856 5.72858L21.2714 4.31437ZM17.1853 5.22894L19.6954 2.71881L18.2812 1.30459L15.7711 3.81472L17.1853 5.22894ZM18.7616 6.82415L17.6793 6.38507L16.9274 8.23839L18.0098 8.67746L18.7616 6.82415ZM17.6793 6.38507L17.1853 5.22894L15.3461 6.01476L15.8401 7.1709L17.6793 6.38507ZM18.8861 2.57089L19.5456 4.03258L21.3686 3.21006L20.7091 1.74836L18.8861 2.57089ZM20.062 4.53995L21.4274 5.12724L22.2176 3.28998L20.8522 2.70269L20.062 4.53995ZM17.6793 6.38507L17.6793 6.38507L15.8401 7.1709C16.0475 7.65627 16.4383 8.03997 16.9274 8.23839L17.6793 6.38507ZM15.7711 3.81472C15.1934 4.39244 15.0251 5.26346 15.3461 6.01476L17.1853 5.22894V5.22894L15.7711 3.81472ZM18.7616 6.82415L18.7616 6.82415L18.0098 8.67746C18.7545 8.97955 19.6076 8.8066 20.1758 8.23837L18.7616 6.82415ZM22.6856 5.72858C23.4354 4.9788 23.1917 3.70894 22.2176 3.28998L21.4274 5.12724C21.1027 4.98758 21.0215 4.5643 21.2714 4.31437L22.6856 5.72858ZM19.6954 2.71881C19.4481 2.96608 19.0299 2.88964 18.8861 2.57089L20.7091 1.74836C20.2777 0.792102 19.023 0.562775 18.2812 1.30459L19.6954 2.71881Z" fill="currentColor" mask="url(#path-10-inside-1_1254_7752)"/><path d="M20.0785 4L14.5785 9.50001" stroke="currentColor" stroke-linecap="round"/></svg>
