<svg xmlns="http://www.w3.org/2000/svg" fill="none" viewBox="0 0 32 32" width="1em" height="1em"><path stroke="currentColor" stroke-linecap="round" d="M20.5 5.5h-16a2 2 0 0 0-2 2v17a2 2 0 0 0 2 2h23a2 2 0 0 0 2-2v-16M3 9.5h14.719"/><circle cx="4.5" cy="7.5" r=".5" fill="currentColor"/><circle cx="6.5" cy="7.5" r=".5" fill="currentColor"/><circle cx="8.5" cy="7.5" r=".5" fill="currentColor"/><rect width="5" height="4" x="5.5" y="20.5" stroke="currentColor" rx=".5"/><path stroke="currentColor" stroke-linecap="round" d="M13.5 23.5h8m-8-2h12"/><rect width="5" height="4" x="5.5" y="13.5" stroke="currentColor" rx=".5"/><path stroke="currentColor" stroke-linecap="round" d="M13.5 16.5h8m-8-2h12"/><path stroke="currentColor" d="m26.733 4.672.079.184.183.078 1.796.77-3.241 3.242a.5.5 0 0 1-.55.106l-1.486-.636a.5.5 0 0 1-.262-.263l-.637-1.485a.5.5 0 0 1 .106-.55l3.242-3.242z"/><path stroke="currentColor" stroke-linecap="round" d="m26.839 4.829-7.071 7.07"/></svg>
