<svg viewBox="0 0 32 32" fill="none" xmlns="http://www.w3.org/2000/svg" width="1em" height="1em"><path d="M20.5 5.5H4.5C3.39543 5.5 2.5 6.39543 2.5 7.5V24.5C2.5 25.6046 3.39543 26.5 4.5 26.5H27.5C28.6046 26.5 29.5 25.6046 29.5 24.5V8.5" stroke="currentColor" stroke-linecap="round"/><path d="M3 9.5H17.7188" stroke="currentColor" stroke-linecap="round"/><circle cx="4.5" cy="7.5" r="0.5" fill="currentColor"/><circle cx="6.5" cy="7.5" r="0.5" fill="currentColor"/><circle cx="8.5" cy="7.5" r="0.5" fill="currentColor"/><rect x="5.5" y="20.5" width="5" height="4" rx="0.5" stroke="currentColor"/><path d="M13.5 23.5H21.5M13.5 21.5H25.5" stroke="currentColor" stroke-linecap="round"/><rect x="5.5" y="13.5" width="5" height="4" rx="0.5" stroke="currentColor"/><path d="M13.5 16.5H21.5M13.5 14.5H25.5" stroke="currentColor" stroke-linecap="round"/><path d="M26.7328 4.67183L26.8116 4.85566L26.9954 4.93445L28.7915 5.70419L25.5498 8.94589C25.4052 9.09046 25.1872 9.13244 24.9993 9.05191L23.5144 8.41551C23.3963 8.36493 23.3023 8.2709 23.2517 8.1529L22.6153 6.66797C22.5348 6.48005 22.5768 6.26203 22.7214 6.11746L25.9631 2.87576L26.7328 4.67183Z" stroke="currentColor"/><path d="M26.8389 4.82843L19.7678 11.8995" stroke="currentColor" stroke-linecap="round"/></svg>
