<svg xmlns="http://www.w3.org/2000/svg" fill="none" viewBox="0 0 16 16" width="1em" height="1em"><path fill="currentColor" d="M8.5 3a.5.5 0 0 0 0-1zM15 7.5a.5.5 0 0 0-1 0zM6.5 5a.5.5 0 0 0 0-1zm6.5 8.5H3v1h10zm-11-1V4H1v8.5zM3 3h5.5V2H3zm11 4.5v5h1v-5zm-11 6a1 1 0 0 1-1-1H1a2 2 0 0 0 2 2zm10 1a2 2 0 0 0 2-2h-1a1 1 0 0 1-1 1zM2 4a1 1 0 0 1 1-1V2a2 2 0 0 0-2 2zm-.5 1h5V4h-5z"/><path stroke="currentColor" stroke-linecap="round" d="M8.5 10.5h3M4 10a1 1 0 0 1 1-1h1a1 1 0 0 1 1 1v1a1 1 0 0 1-1 1H5a1 1 0 0 1-1-1z"/><path stroke="currentColor" stroke-linejoin="round" d="m12.919 3.099.073.143.144.074 1.26.645-2.363 2.362a.5.5 0 0 1-.511.12L10.46 6.09a.5.5 0 0 1-.316-.316l-.475.158.475-.158-.354-1.06a.5.5 0 0 1 .12-.512l2.363-2.363z"/><path stroke="currentColor" stroke-linecap="round" d="M10.182 6.053 8.394 7.8"/></svg>
