<svg viewBox="0 0 24 24" fill="none" xmlns="http://www.w3.org/2000/svg" width="1em" height="1em"><path d="M21.5 8L21.5 18.5C21.5 19.3284 20.8284 20 20 20L4 20C3.17157 20 2.5 19.3284 2.5 18.5L2.5 6C2.5 5.17157 3.17157 4.5 4 4.5L14.5 4.5" stroke="currentColor" stroke-linecap="round"/><path d="M12.5 8C12.7761 8 13 7.77614 13 7.5C13 7.22386 12.7761 7 12.5 7V8ZM2 8L12.5 8V7L2 7V8Z" fill="currentColor"/><circle cx="4.5" cy="5.97363" r="0.5" fill="currentColor"/><circle cx="6.5" cy="5.97363" r="0.5" fill="currentColor"/><circle cx="8.5" cy="5.97363" r="0.5" fill="currentColor"/><path d="M5.5 12C5.5 11.7239 5.72386 11.5 6 11.5H8C8.27614 11.5 8.5 11.7239 8.5 12V13C8.5 13.2761 8.27614 13.5 8 13.5H6C5.72386 13.5 5.5 13.2761 5.5 13V12Z" stroke="currentColor"/><path d="M10.5 12.5L18.5 12.5" stroke="currentColor" stroke-linecap="round"/><path d="M5.5 16C5.5 15.7239 5.72386 15.5 6 15.5H8C8.27614 15.5 8.5 15.7239 8.5 16V17C8.5 17.2761 8.27614 17.5 8 17.5H6C5.72386 17.5 5.5 17.2761 5.5 17V16Z" stroke="currentColor"/><path d="M10.5 16.5H18.5" stroke="currentColor" stroke-linecap="round"/><path d="M20.0013 3.82695L20.0812 4.00392L20.2595 4.08064L21.625 4.66792L19.1152 7.17771C18.9731 7.31976 18.7598 7.363 18.5737 7.28748L17.4913 6.8484C17.369 6.7988 17.2713 6.70287 17.2195 6.58153L16.7597 6.77799L17.2195 6.58153L16.7255 5.42539C16.6452 5.23757 16.6873 5.01981 16.8317 4.87538L19.3419 2.36525L20.0013 3.82695Z" stroke="currentColor" stroke-linejoin="round"/><path d="M20.0785 4L14.5785 9.50001" stroke="currentColor" stroke-linecap="round"/></svg>
