<svg xmlns="http://www.w3.org/2000/svg" fill="none" viewBox="0 0 24 24" width="1em" height="1em"><path stroke="currentColor" stroke-linecap="round" d="M21.5 8v10.5A1.5 1.5 0 0 1 20 20H4a1.5 1.5 0 0 1-1.5-1.5V6A1.5 1.5 0 0 1 4 4.5h10.5"/><path fill="currentColor" d="M12.5 8a.5.5 0 0 0 0-1zM2 8h10.5V7H2z"/><circle cx="4.5" cy="5.974" r=".5" fill="currentColor"/><circle cx="6.5" cy="5.974" r=".5" fill="currentColor"/><circle cx="8.5" cy="5.974" r=".5" fill="currentColor"/><path stroke="currentColor" d="M5.5 12a.5.5 0 0 1 .5-.5h2a.5.5 0 0 1 .5.5v1a.5.5 0 0 1-.5.5H6a.5.5 0 0 1-.5-.5z"/><path stroke="currentColor" stroke-linecap="round" d="M10.5 12.5h8"/><path stroke="currentColor" d="M5.5 16a.5.5 0 0 1 .5-.5h2a.5.5 0 0 1 .5.5v1a.5.5 0 0 1-.5.5H6a.5.5 0 0 1-.5-.5z"/><path stroke="currentColor" stroke-linecap="round" d="M10.5 16.5h8"/><path stroke="currentColor" stroke-linejoin="round" d="m20.001 3.827.08.177.178.077 1.366.587-2.51 2.51a.5.5 0 0 1-.541.11l-1.083-.44a.5.5 0 0 1-.271-.266l-.46.196.46-.196-.494-1.157a.5.5 0 0 1 .106-.55l2.51-2.51z"/><path stroke="currentColor" stroke-linecap="round" d="m20.079 4-5.5 5.5"/></svg>
