<svg viewBox="0 0 16 16" fill="none" xmlns="http://www.w3.org/2000/svg" width="1em" height="1em"><path d="M8.5 2.5H3C2.17157 2.5 1.5 3.17157 1.5 4V12.5C1.5 13.3284 2.17157 14 3 14H13C13.8284 14 14.5 13.3284 14.5 12.5V7.5" stroke="currentColor" stroke-linecap="round"/><path d="M6.5 5C6.77614 5 7 4.77614 7 4.5C7 4.22386 6.77614 4 6.5 4V5ZM1.5 5H6.5V4H1.5V5Z" fill="currentColor"/><path d="M12.9188 3.09862L12.9924 3.24231L13.1361 3.31586L14.3955 3.96057L12.0331 6.32286C11.8992 6.45678 11.7011 6.50354 11.5215 6.44365L10.4608 6.09009C10.3115 6.04032 10.1944 5.92317 10.1446 5.77386L9.67024 5.93198L10.1446 5.77386L9.79103 4.7132C9.73114 4.53354 9.7779 4.33545 9.91182 4.20154L12.2741 1.83922L12.9188 3.09862Z" stroke="currentColor" stroke-linejoin="round"/><path d="M10.1819 6.05278L8.39447 7.80092" stroke="currentColor" stroke-linecap="round"/><rect x="4.5" y="9.5" width="2" height="2" rx="0.5" stroke="currentColor"/><path d="M8.5 10.5H11.5" stroke="currentColor" stroke-linecap="round"/></svg>
