<svg viewBox="0 0 32 32" fill="none" xmlns="http://www.w3.org/2000/svg" width="1em" height="1em"><path d="M20.5 5.5H4.5C3.39543 5.5 2.5 6.39543 2.5 7.5V24.5C2.5 25.6046 3.39543 26.5 4.5 26.5H27.5C28.6046 26.5 29.5 25.6046 29.5 24.5V8.5" stroke="currentColor" stroke-linecap="round"/><path d="M3 9.5H17.7188" stroke="currentColor" stroke-linecap="round"/><circle cx="4.5" cy="7.5" r="0.5" fill="currentColor"/><circle cx="6.5" cy="7.5" r="0.5" fill="currentColor"/><circle cx="8.5" cy="7.5" r="0.5" fill="currentColor"/><rect x="5.5" y="20.5" width="5" height="4" rx="0.5" stroke="currentColor"/><path d="M13.5 23.5H21.5M13.5 21.5H25.5" stroke="currentColor" stroke-linecap="round"/><rect x="5.5" y="13.5" width="5" height="4" rx="0.5" stroke="currentColor"/><path d="M13.5 16.5H21.5M13.5 14.5H25.5" stroke="currentColor" stroke-linecap="round"/><mask id="path-10-inside-1_1254_7771" fill="currentColor"><path d="M25.6095 2.52221C25.8596 2.27208 26.2833 2.35367 26.4226 2.6788L27.1924 4.47487L28.9884 5.24462C29.3136 5.38396 29.3952 5.80762 29.145 6.05774L25.9033 9.29944C25.6142 9.58858 25.1782 9.67255 24.8023 9.51148L23.3174 8.87508C23.0814 8.77393 22.8933 8.58587 22.7922 8.34986L22.1558 6.86493C21.9947 6.48909 22.0787 6.05305 22.3678 5.76391L25.6095 2.52221Z"/></mask><path d="M27.1924 4.47487L26.2732 4.86879L26.4308 5.23645L26.7985 5.39402L27.1924 4.47487ZM23.3174 8.87508L22.9235 9.79423L23.3174 8.87508ZM22.7922 8.34986L21.873 8.74378L22.7922 8.34986ZM22.1558 6.86493L23.0749 6.47101L22.1558 6.86493ZM28.4379 5.35064L25.1962 8.59233L26.6104 10.0065L29.8521 6.76485L28.4379 5.35064ZM23.0749 6.47101L26.3166 3.22932L24.9024 1.8151L21.6607 5.0568L23.0749 6.47101ZM25.1962 8.59233L23.7113 7.95594L22.9235 9.79423L24.4084 10.4306L25.1962 8.59233ZM23.7113 7.95594L23.0749 6.47101L21.2366 7.25885L21.873 8.74378L23.7113 7.95594ZM25.5035 3.07272L26.2732 4.86879L28.1115 4.08095L27.3418 2.28488L25.5035 3.07272ZM26.7985 5.39402L28.5945 6.16376L29.3824 4.32547L27.5863 3.55573L26.7985 5.39402ZM23.7113 7.95594L23.7113 7.95594L21.873 8.74378C22.0753 9.21581 22.4514 9.59193 22.9235 9.79423L23.7113 7.95594ZM21.6607 5.0568C21.0824 5.63508 20.9145 6.50717 21.2366 7.25885L23.0749 6.47101L23.0749 6.47101L21.6607 5.0568ZM25.1962 8.59233L24.4084 10.4306C25.1601 10.7528 26.0322 10.5848 26.6104 10.0065L25.1962 8.59233ZM29.8521 6.76485C30.6025 6.01447 30.3578 4.7435 29.3824 4.32547L28.5945 6.16376C28.2694 6.02442 28.1878 5.60076 28.4379 5.35064L29.8521 6.76485ZM26.3166 3.22932C26.0665 3.47944 25.6428 3.39785 25.5035 3.07272L27.3418 2.28488C26.9237 1.30949 25.6528 1.06472 24.9024 1.8151L26.3166 3.22932Z" fill="currentColor" mask="url(#path-10-inside-1_1254_7771)"/><path d="M26.8389 4.82843L19.7678 11.8995" stroke="currentColor" stroke-linecap="round"/></svg>
