<svg viewBox="0 0 16 16" fill="none" xmlns="http://www.w3.org/2000/svg" width="1em" height="1em"><path d="M8.5 2.5H3C2.17157 2.5 1.5 3.17157 1.5 4V12.5C1.5 13.3284 2.17157 14 3 14H13C13.8284 14 14.5 13.3284 14.5 12.5V7.5" stroke="currentColor" stroke-linecap="round"/><path d="M6.5 5C6.77614 5 7 4.77614 7 4.5C7 4.22386 6.77614 4 6.5 4V5ZM1.5 5H6.5V4H1.5V5Z" fill="currentColor"/><mask id="path-3-inside-1_1254_7740" fill="currentColor"><path d="M11.9206 1.48567C12.1605 1.24576 12.5646 1.30937 12.7192 1.61139L13.3639 2.87079L14.6233 3.51549C14.9253 3.6701 14.989 4.07421 14.749 4.31412L12.3867 6.67642C12.1189 6.94425 11.7227 7.03777 11.3634 6.91799L10.3027 6.56443C10.0041 6.4649 9.76978 6.23058 9.67024 5.93198L9.31669 4.87132C9.19691 4.51198 9.29043 4.11582 9.55827 3.84798L11.9206 1.48567Z"/></mask><path d="M13.3639 2.87079L12.4737 3.32645C12.5694 3.51329 12.7214 3.66529 12.9082 3.76094L13.3639 2.87079ZM10.3027 6.56443L9.98647 7.51312L10.3027 6.56443ZM9.31669 4.87132L8.36801 5.18755L9.31669 4.87132ZM12.3867 6.67642L11.6796 5.96931L12.3867 6.67642ZM11.3634 6.91799L11.6796 5.96931L11.3634 6.91799ZM14.749 4.31412L15.4561 5.02124L14.749 4.31412ZM14.0419 3.60701L11.6796 5.96931L13.0938 7.38354L15.4561 5.02124L14.0419 3.60701ZM10.2654 4.55509L12.6277 2.19278L11.2135 0.778564L8.85116 3.14088L10.2654 4.55509ZM11.6796 5.96931L10.6189 5.61575L9.98647 7.51312L11.0471 7.86667L11.6796 5.96931ZM10.6189 5.61575L10.2654 4.55509L8.36801 5.18755L8.72156 6.24821L10.6189 5.61575ZM11.8291 2.06706L12.4737 3.32645L14.254 2.41512L13.6094 1.15572L11.8291 2.06706ZM12.9082 3.76094L14.1677 4.40564L15.079 2.62534L13.8196 1.98064L12.9082 3.76094ZM10.6189 5.61575L10.6189 5.61575L8.72156 6.24821C8.92063 6.84542 9.38926 7.31405 9.98647 7.51312L10.6189 5.61575ZM8.85116 3.14088C8.3155 3.67654 8.12845 4.46888 8.36801 5.18755L10.2654 4.55509L10.2654 4.55509L8.85116 3.14088ZM11.6796 5.96931L11.0471 7.86667C11.7658 8.10623 12.5581 7.91919 13.0938 7.38354L11.6796 5.96931ZM15.4561 5.02124C16.1759 4.3015 15.9851 3.08916 15.079 2.62534L14.1677 4.40564C13.8656 4.25104 13.802 3.84692 14.0419 3.60701L15.4561 5.02124ZM12.6277 2.19278C12.3878 2.43269 11.9837 2.36908 11.8291 2.06706L13.6094 1.15572C13.1456 0.249668 11.9332 0.0588249 11.2135 0.778564L12.6277 2.19278Z" fill="currentColor" mask="url(#path-3-inside-1_1254_7740)"/><path d="M10.1819 6.05278L8.39447 7.80092" stroke="currentColor" stroke-linecap="round"/><rect x="4.5" y="9.5" width="2" height="2" rx="0.5" stroke="currentColor"/><path d="M8.5 10.5H11.5" stroke="currentColor" stroke-linecap="round"/></svg>
