<svg xmlns="http://www.w3.org/2000/svg" fill="none" viewBox="0 0 24 24" width="1em" height="1em"><path fill="currentColor" fill-rule="evenodd" d="M9.8 7.36c-.695.953-1.44 1.513-2.079 1.621A2 2 0 0 0 6 8H3a1 1 0 0 0-1 1v9a1 1 0 0 0 1 1h3a2 2 0 0 0 1.688-.926l2.906.83q.336.096.686.096h6.97a1.75 1.75 0 0 0 1.539-2.584 1.75 1.75 0 0 0 .887-2.68 1.75 1.75 0 0 0 .5-2.5A1.749 1.749 0 0 0 20.25 8h-6.1l.674-2.548c.117-.442.176-.898.176-1.355V3.75A1.75 1.75 0 0 0 13.25 2c-.981 0-1.703.788-1.86 1.653A9.45 9.45 0 0 1 9.8 7.359" clip-rule="evenodd"/></svg>
