<svg viewBox="0 0 16 16" fill="none" xmlns="http://www.w3.org/2000/svg" width="1em" height="1em"><path d="M12.5 9.5H11.5M10.5 13.5H11.5M11.5 13.5H12.5C13.0523 13.5 13.5 13.0523 13.5 12.5V12.5C13.5 11.9477 13.0523 11.5 12.5 11.5H10.5C9.94772 11.5 9.5 11.0523 9.5 10.5V10.5C9.5 9.94772 9.94772 9.5 10.5 9.5H11.5M11.5 13.5V14.5M11.5 9.5V8.5" stroke="currentColor" stroke-linecap="round" stroke-linejoin="round"/><path d="M7.5 9.5H6.5C4.84315 9.5 3.5 10.8431 3.5 12.5L3.5 14.5" stroke="currentColor" stroke-linecap="round" stroke-linejoin="round"/><path d="M8 6.5C9.38071 6.5 10.5 5.38071 10.5 4C10.5 2.61929 9.38071 1.5 8 1.5C6.61929 1.5 5.5 2.61929 5.5 4C5.5 5.38071 6.61929 6.5 8 6.5Z" stroke="currentColor" stroke-linecap="round" stroke-linejoin="round"/></svg>
