<svg viewBox="0 0 24 24" fill="none" xmlns="http://www.w3.org/2000/svg" width="1em" height="1em"><path d="M20.5 14.5C20.5 12.5 20.5 12.5 17.5 12.5M14.5 18.58C14.5 20.5 14.5 20.5 17.5 20.5M17.5 12.5C14.5 12.5 14.5 12.5 14.5 14.5C14.5 16.5 14.5 16.5001 17.5 16.5001M17.5 12.5V11.5M17.5 12.5V16.5001M17.5 16.5001C20.5 16.5001 20.5 16.5001 20.5 18.5C20.5 20.4999 20.5 20.5 17.5 20.5M17.5 16.5001V20.5M17.5 20.5V21.5" stroke="currentColor" stroke-linecap="round"/><path d="M4.49998 21.5V17.5C4.49998 15.2909 6.29054 13.5 8.49968 13.5C9.05715 13.5 9.70547 13.5 10.5 13.5" stroke="currentColor" stroke-linecap="round" stroke-linejoin="round"/><path d="M12 9.5C13.933 9.5 15.5 7.933 15.5 6C15.5 4.067 13.933 2.5 12 2.5C10.067 2.5 8.5 4.067 8.5 6C8.5 7.933 10.067 9.5 12 9.5Z" stroke="currentColor" stroke-linecap="round" stroke-linejoin="round"/></svg>
