<svg viewBox="0 0 16 16" fill="none" xmlns="http://www.w3.org/2000/svg" width="1em" height="1em"><path d="M3.50003 8.5L1.50003 10.5L3.50003 12.5" stroke="currentColor" stroke-linecap="round" stroke-linejoin="round"/><path d="M2.00012 10.5L13.5 10.5" stroke="currentColor" stroke-linecap="round"/><path fill-rule="evenodd" clip-rule="evenodd" d="M9.1 8.20003C9.26569 7.97912 9.57909 7.93434 9.8 8.10003C10.0209 8.26571 10.0657 8.57912 9.9 8.80003L8.625 10.5L9.9 12.2C10.0657 12.4209 10.0209 12.7343 9.8 12.9C9.57909 13.0657 9.26569 13.0209 9.1 12.8L8 11.3334L6.9 12.8C6.73432 13.0209 6.42092 13.0657 6.2 12.9C5.97909 12.7343 5.93432 12.4209 6.1 12.2L7.375 10.5L6.1 8.80003C5.93432 8.57912 5.97909 8.26571 6.2 8.10003C6.42091 7.93434 6.73432 7.97912 6.9 8.20003L8 9.6667L9.1 8.20003Z" fill="currentColor"/><path d="M12.5 3.5L14.5 5.5L12.5 7.5" stroke="currentColor" stroke-linecap="round" stroke-linejoin="round"/><path d="M13.9999 5.5H2.50006" stroke="currentColor" stroke-linecap="round"/></svg>
