<svg xmlns="http://www.w3.org/2000/svg" fill="none" viewBox="0 0 16 16" width="1em" height="1em"><path stroke="currentColor" stroke-linejoin="round" d="m8.832 7.179-.018.018a1.17 1.17 0 0 0-.314.801v5.34c0 .104-.078.162-.143.162H5.643c-.065 0-.143-.058-.143-.163v-5.34a1.17 1.17 0 0 0-.332-.818L1.539 3.677a.18.18 0 0 1-.039-.112v-.902c0-.105.078-.163.143-.163h10.714c.065 0 .143.058.143.163v.902a.18.18 0 0 1-.04.112z"/><path stroke="currentColor" stroke-linecap="round" d="M12.5 7.5v4m-2-2h4"/></svg>
