<svg xmlns="http://www.w3.org/2000/svg" fill="none" viewBox="0 0 32 32" width="1em" height="1em"><path stroke="currentColor" stroke-linecap="round" d="M26.204 7.46h0l-.006.007-9.124 9.793a2.052 2.052 0 0 0-.574 1.423v9.761a1.06 1.06 0 0 1-1.063 1.056h-1.874a1.06 1.06 0 0 1-1.063-1.056v-9.761c0-.53-.206-1.04-.574-1.423L2.802 7.467h0l-.006-.007a1.052 1.052 0 0 1-.296-.731V5.556v0A1.06 1.06 0 0 1 3.563 4.5h21.875A1.06 1.06 0 0 1 26.5 5.556v1.173c0 .272-.106.534-.296.731ZM25.5 15.5v8m-4-4h8"/></svg>
