<svg viewBox="0 0 32 32" fill="none" xmlns="http://www.w3.org/2000/svg" stroke="currentColor" width="1em" height="1em"><mask id="path-1-inside-1_2_61333" fill="white"><path d="M27 5.55563L27 6.72893C27 7.13111 26.8435 7.51766 26.5634 7.80747L17.4366 17.6042C17.1565 17.894 17 18.2805 17 18.6827L17 28.4444C17 29.3036 16.3005 30 15.4375 30L13.5625 30C12.6996 30 12 29.3035 12 28.4444V18.6827C12 18.2805 11.8436 17.894 11.5635 17.6041L2.43656 7.80741C2.15646 7.5176 2 7.13104 2 6.72886L2.00002 5.55554C2.00002 4.69644 2.69958 4 3.56252 4L25.4375 4.00006C26.3005 4.00006 27 4.69651 27 5.55563Z"/></mask><path d="M2.43656 8H26.5V7H2.43656V8ZM27 6.72893L26 6.72892V6.72892L27 6.72893ZM27 5.55563L28 5.55564V5.55563L27 5.55563ZM25.4375 4.00006L25.4375 5.00006L25.4375 4.00006ZM3.56252 4L3.56252 3H3.56252L3.56252 4ZM2.00002 5.55554L3.00002 5.55556V5.55555L2.00002 5.55554ZM2 6.72886L1 6.72884V6.72885L2 6.72886ZM26.5634 7.80747L25.8444 7.11251C25.8401 7.11691 25.8359 7.12134 25.8317 7.12582L26.5634 7.80747ZM17.4366 17.6042L18.1556 18.2991C18.1599 18.2947 18.1641 18.2903 18.1683 18.2858L17.4366 17.6042ZM11.5635 17.6041L10.8318 18.2858C10.8359 18.2903 10.8401 18.2947 10.8444 18.2991L11.5635 17.6041ZM2.43656 7.80741L3.16824 7.12576C3.16407 7.12129 3.15987 7.11686 3.15562 7.11246L2.43656 7.80741ZM17 18.6827L16 18.6827V18.6827H17ZM17 28.4444H16H17ZM15.4375 30L15.4375 31H15.4375L15.4375 30ZM13.5625 30L13.5625 29H13.5625L13.5625 30ZM12 28.4444L13 28.4444V28.4444H12ZM28 6.72895L28 5.55564L26 5.55561L26 6.72892L28 6.72895ZM25.4375 3.00006L3.56252 3L3.56252 5L25.4375 5.00006L25.4375 3.00006ZM1.00002 5.55553L1 6.72884L3 6.72887L3.00002 5.55556L1.00002 5.55553ZM25.8317 7.12582L16.7049 16.9225L18.1683 18.2858L27.2951 8.48912L25.8317 7.12582ZM12.2951 16.9225L3.16824 7.12576L1.70488 8.48907L10.8318 18.2858L12.2951 16.9225ZM16 18.6827L16 28.4444H18V18.6827H16ZM15.4375 29L13.5625 29L13.5625 31L15.4375 31L15.4375 29ZM13 28.4444V18.6827H11V28.4444H13ZM13.5625 29C13.2476 29 13 28.7471 13 28.4444L11 28.4444C11 29.86 12.1515 31 13.5625 31L13.5625 29ZM16 28.4444C16 28.7471 15.7524 29 15.4375 29L15.4375 31C16.8485 31 18 29.86 18 28.4444H16ZM10.8444 18.2991C10.9447 18.4029 11 18.5404 11 18.6827H13C13 18.0206 12.7424 17.385 12.2825 16.9092L10.8444 18.2991ZM16.7175 16.9092C16.2576 17.385 16 18.0206 16 18.6827L18 18.6827C18 18.5405 18.0553 18.4029 18.1556 18.2991L16.7175 16.9092ZM3.56252 3C2.1515 3 1.00003 4.13995 1.00002 5.55554L3.00002 5.55555C3.00002 5.25292 3.24765 5 3.56252 5L3.56252 3ZM28 5.55563C28 4.14004 26.8485 3.00006 25.4375 3.00006L25.4375 5.00006C25.7524 5.00006 26 5.25298 26 5.55562L28 5.55563ZM26 6.72892C26 6.87117 25.9447 7.00872 25.8444 7.11251L27.2825 8.50242C27.7424 8.0266 28 7.39105 28 6.72894L26 6.72892ZM1 6.72885C0.999995 7.39098 1.25763 8.02654 1.7175 8.50237L3.15562 7.11246C3.0553 7.00866 3 6.87111 3 6.72886L1 6.72885Z" fill="#282829" mask="url(#path-1-inside-1_2_61333)"/><path d="M25.5 15.5V23.5M21.5 19.5H29.5" stroke-linecap="round"/></svg>
