<svg viewBox="0 0 16 16" fill="none" xmlns="http://www.w3.org/2000/svg" stroke="currentColor" width="1em" height="1em"><circle cx="5.5" cy="2.5" r="1"/><path d="M6.5 8C6.5 8.55228 6.05228 9 5.5 9C4.94772 9 4.5 8.55228 4.5 8C4.5 7.44772 4.94772 7 5.5 7C6.05228 7 6.5 7.44772 6.5 8Z"/><circle cx="5.5" cy="13.5" r="1"/><circle cx="10.5" cy="2.5" r="1"/><path d="M11.5 8C11.5 8.55228 11.0523 9 10.5 9C9.94772 9 9.5 8.55228 9.5 8C9.5 7.44772 9.94772 7 10.5 7C11.0523 7 11.5 7.44772 11.5 8Z"/><circle cx="10.5" cy="13.5" r="1"/></svg>
