<svg fill="none" height="173" viewBox="0 0 264 173" width="264" xmlns="http://www.w3.org/2000/svg" xmlns:xlink="http://www.w3.org/1999/xlink"><filter id="a" color-interpolation-filters="sRGB" filterUnits="userSpaceOnUse" height="80" width="136" x="64" y="49"><feFlood flood-opacity="0" result="BackgroundImageFix"/><feGaussianBlur in="BackgroundImage" stdDeviation="1"/><feComposite in2="SourceAlpha" operator="in" result="effect1_backgroundBlur_1803_73659"/><feColorMatrix in="SourceAlpha" result="hardAlpha" type="matrix" values="0 0 0 0 0 0 0 0 0 0 0 0 0 0 0 0 0 0 127 0"/><feOffset dy="8"/><feGaussianBlur stdDeviation="12"/><feColorMatrix type="matrix" values="0 0 0 0 0.246597 0 0 0 0 0.246597 0 0 0 0 0.441667 0 0 0 0.53 0"/><feBlend in2="effect1_backgroundBlur_1803_73659" mode="normal" result="effect2_dropShadow_1803_73659"/><feBlend in="SourceGraphic" in2="effect2_dropShadow_1803_73659" mode="normal" result="shape"/></filter><rect fill="#fff" height="173" rx="8" width="264"/><g filter="url(#a)"><g fill="#3f3f71" fill-opacity=".94"><path d="m88 81 4-4v8z"/><path d="m92 73c0-4.4183 3.5817-8 8-8v32c-4.4183 0-8-3.5817-8-8z"/><path d="m100 65h68c4.418 0 8 3.5817 8 8v16c0 4.4183-3.582 8-8 8h-68z"/></g><path d="m100.96 76.72h.9v8.28h-.9zm8.419 7.536c-.056.056-.136.136-.24.24-.096.096-.22.192-.372.288-.144.088-.32.164-.528.228-.208.072-.444.108-.708.108s-.516-.04-.756-.12c-.232-.088-.436-.204-.612-.348-.176-.152-.316-.332-.42-.54-.096-.216-.144-.452-.144-.708 0-.48.18-.872.54-1.176.36-.312.928-.488 1.704-.528l1.524-.072v-.252c0-.48-.14-.828-.42-1.044s-.636-.324-1.068-.324c-.208 0-.408.02-.6.06-.184.032-.348.072-.492.12s-.268.1-.372.156c-.096.048-.164.084-.204.108l-.3-.636c.184-.112.452-.232.804-.36s.752-.192 1.2-.192c.824 0 1.42.208 1.788.624.376.408.564 1.012.564 1.812v3.3h-.876zm-1.464-1.908c-.528.024-.892.132-1.092.324s-.3.432-.3.72c0 .28.108.52.324.72s.504.3.864.3c.192 0 .372-.024.54-.072.176-.056.336-.12.48-.192.144-.08.272-.168.384-.264s.2-.188.264-.276v-1.332zm8.227-1.872c.12-.352.332-.64.636-.864.312-.232.668-.348 1.068-.348.408 0 .74.068.996.204.256.128.456.304.6.528.144.216.24.464.288.744s.072.568.072.864v3.396h-.888v-3.348c0-.168-.016-.348-.048-.54-.024-.192-.08-.368-.168-.528s-.208-.292-.36-.396-.356-.156-.612-.156c-.232 0-.44.052-.624.156-.176.104-.324.248-.444.432s-.212.396-.276.636-.096.5-.096.78v2.964h-.888v-3.348c0-.168-.016-.348-.048-.54-.024-.192-.08-.368-.168-.528s-.208-.292-.36-.396-.356-.156-.612-.156c-.232 0-.44.052-.624.156-.176.104-.328.248-.456.432-.12.184-.212.396-.276.636s-.096.5-.096.78v2.964h-.888v-5.628h.888l-.012.9h.036c.136-.288.34-.528.612-.72.28-.192.592-.288.936-.288.552 0 .964.116 1.236.348.28.224.472.512.576.864zm10.993 3.78c-.056.056-.136.136-.24.24-.096.096-.22.192-.372.288-.144.088-.32.164-.528.228-.208.072-.444.108-.708.108s-.516-.04-.756-.12c-.232-.088-.436-.204-.612-.348-.176-.152-.316-.332-.42-.54-.096-.216-.144-.452-.144-.708 0-.48.18-.872.54-1.176.36-.312.928-.488 1.704-.528l1.524-.072v-.252c0-.48-.14-.828-.42-1.044s-.636-.324-1.068-.324c-.208 0-.408.02-.6.06-.184.032-.348.072-.492.12s-.268.1-.372.156c-.096.048-.164.084-.204.108l-.3-.636c.184-.112.452-.232.804-.36s.752-.192 1.2-.192c.824 0 1.42.208 1.788.624.376.408.564 1.012.564 1.812v3.3h-.876zm-1.464-1.908c-.528.024-.892.132-1.092.324s-.3.432-.3.72c0 .28.108.52.324.72s.504.3.864.3c.192 0 .372-.024.54-.072.176-.056.336-.12.48-.192.144-.08.272-.168.384-.264s.2-.188.264-.276v-1.332zm8.902 2.592c-.264.12-.588.18-.972.18-.336 0-.596-.068-.78-.204-.176-.144-.308-.328-.396-.552-.08-.224-.128-.468-.144-.732-.016-.272-.024-.536-.024-.792v-2.712h-.84v-.744h.84v-1.74h.9v1.74h1.38v.744h-1.392v2.892c0 .232.008.444.024.636.016.184.068.344.156.48.048.072.12.128.216.168.104.032.224.048.36.048.088 0 .168-.004.24-.012.08-.016.148-.036.204-.06.064-.016.124-.036.18-.06zm3.587.18c-.408 0-.792-.068-1.152-.204-.352-.144-.66-.344-.924-.6-.264-.264-.472-.572-.624-.924-.152-.36-.228-.756-.228-1.188s.076-.828.228-1.188.36-.668.624-.924c.264-.264.572-.468.924-.612.36-.144.744-.216 1.152-.216s.792.072 1.152.216.672.348.936.612c.264.256.472.564.624.924s.228.756.228 1.188-.076.828-.228 1.188c-.152.352-.36.66-.624.924-.264.256-.576.456-.936.6-.36.136-.744.204-1.152.204zm0-.78c.312 0 .592-.056.84-.168.256-.112.468-.264.636-.456.176-.2.312-.432.408-.696s.144-.544.144-.84c0-.304-.048-.584-.144-.84-.096-.264-.232-.492-.408-.684-.168-.192-.38-.344-.636-.456-.248-.112-.528-.168-.84-.168s-.592.056-.84.168-.46.264-.636.456-.312.42-.408.684c-.088.256-.132.536-.132.84 0 .296.044.576.132.84.096.264.232.496.408.696.176.192.388.344.636.456s.528.168.84.168zm6.798.78c-.408 0-.792-.068-1.152-.204-.352-.144-.66-.344-.924-.6-.264-.264-.472-.572-.624-.924-.152-.36-.228-.756-.228-1.188s.076-.828.228-1.188.36-.668.624-.924c.264-.264.572-.468.924-.612.36-.144.744-.216 1.152-.216s.792.072 1.152.216.672.348.936.612c.264.256.472.564.624.924s.228.756.228 1.188-.076.828-.228 1.188c-.152.352-.36.66-.624.924-.264.256-.576.456-.936.6-.36.136-.744.204-1.152.204zm0-.78c.312 0 .592-.056.84-.168.256-.112.468-.264.636-.456.176-.2.312-.432.408-.696s.144-.544.144-.84c0-.304-.048-.584-.144-.84-.096-.264-.232-.492-.408-.684-.168-.192-.38-.344-.636-.456-.248-.112-.528-.168-.84-.168s-.592.056-.84.168-.46.264-.636.456-.312.42-.408.684c-.088.256-.132.536-.132.84 0 .296.044.576.132.84.096.264.232.496.408.696.176.192.388.344.636.456s.528.168.84.168zm4.325-7.62h.888v8.28h-.888zm5.18 8.22c-.264.12-.588.18-.972.18-.336 0-.596-.068-.78-.204-.176-.144-.308-.328-.396-.552-.08-.224-.128-.468-.144-.732-.016-.272-.024-.536-.024-.792v-2.712h-.84v-.744h.84v-1.74h.9v1.74h1.38v.744h-1.392v2.892c0 .232.008.444.024.636.016.184.068.344.156.48.048.072.12.128.216.168.104.032.224.048.36.048.088 0 .168-.004.24-.012.08-.016.148-.036.204-.06.064-.016.124-.036.18-.06zm2.183-7.5c-.008.176-.068.324-.18.444-.112.112-.26.168-.444.168s-.336-.056-.456-.168c-.12-.12-.18-.268-.18-.444s.06-.32.18-.432c.12-.12.272-.18.456-.18s.332.06.444.18c.12.112.18.256.18.432zm-1.068 1.932h.888v5.628h-.888zm2.72-.012h.888v.996h.012c.08-.136.184-.268.312-.396s.28-.244.456-.348.372-.188.588-.252.448-.096.696-.096c.432 0 .816.076 1.152.228.344.144.632.348.864.612.232.256.408.564.528.924.128.352.192.736.192 1.152s-.068.804-.204 1.164-.324.672-.564.936-.528.472-.864.624c-.328.144-.688.216-1.08.216-.416 0-.812-.084-1.188-.252s-.672-.444-.888-.828l-.012-.012v3.228h-.888zm2.784 4.98c.312 0 .588-.056.828-.168.248-.112.456-.264.624-.456.176-.192.308-.42.396-.684s.132-.548.132-.852-.044-.588-.132-.852-.216-.492-.384-.684c-.16-.2-.364-.356-.612-.468-.24-.112-.516-.168-.828-.168-.28 0-.54.056-.78.168s-.448.268-.624.468c-.168.192-.304.42-.408.684-.096.264-.144.548-.144.852s.04.588.12.852c.088.264.212.492.372.684s.36.344.6.456c.248.112.528.168.84.168zm4.667-7.62h.924l-.084 6.192h-.768zm1.14 7.752c0 .192-.064.348-.192.468s-.292.18-.492.18-.364-.06-.492-.18-.192-.276-.192-.468c0-.208.064-.372.192-.492s.292-.18.492-.18.364.06.492.18.192.284.192.492z" fill="#fff"/></g></svg>