<svg viewBox="0 0 24 24" fill="none" xmlns="http://www.w3.org/2000/svg" width="1em" height="1em"><path d="M9.00002 19.5H18.5C19.6046 19.5 20.5 18.6046 20.5 17.5V11.5" stroke="currentColor" stroke-linecap="round"/><path d="M7.50002 13.5H13.5M7.50002 10.5H14.5" stroke="currentColor" stroke-linecap="round"/><path d="M11.4333 3.56665L6.16668 3.56665C5.24621 3.56665 4.50002 4.31284 4.50002 5.23332L4.50002 14.9C4.50002 15.8205 5.24621 16.5666 6.16668 16.5666H15.8333C16.7538 16.5666 17.5 15.8205 17.5 14.9V10.5" stroke="currentColor" stroke-linecap="round" stroke-linejoin="round"/><path d="M15.4057 5.63304L14.3466 4.61045C14.2008 4.46976 14.2742 4.22325 14.4731 4.18508L16.0291 3.88647C16.1088 3.87117 16.1762 3.81809 16.2097 3.74413L16.7723 2.50254C16.861 2.30678 17.139 2.30678 17.2277 2.50254L17.7903 3.74413C17.8238 3.81809 17.8912 3.87117 17.9709 3.88647L19.5269 4.18508C19.7259 4.22325 19.7992 4.46976 19.6535 4.61045L18.5944 5.63304C18.5353 5.69009 18.508 5.77251 18.5213 5.85354L18.7912 7.49151C18.8252 7.69751 18.6066 7.8519 18.4238 7.75105L17.1208 7.03215C17.0456 6.99067 16.9544 6.99067 16.8792 7.03215L15.5762 7.75105C15.3934 7.8519 15.1749 7.69751 15.2088 7.49151L15.4787 5.85354C15.492 5.77251 15.4647 5.69009 15.4057 5.63304Z" stroke="currentColor"/></svg>
