<svg viewBox="0 0 16 16" fill="none" xmlns="http://www.w3.org/2000/svg" width="1em" height="1em"><path d="M9.40565 4.85718L8.34654 3.83459C8.20082 3.69389 8.27414 3.44739 8.47307 3.40922L10.0291 3.11061C10.1088 3.09531 10.1762 3.04223 10.2097 2.96827L10.7723 1.72668C10.861 1.53092 11.139 1.53092 11.2277 1.72668L11.7903 2.96827C11.8238 3.04223 11.8912 3.09531 11.9709 3.11061L13.5269 3.40922C13.7259 3.44739 13.7992 3.69389 13.6535 3.83459L12.5943 4.85718C12.5353 4.91423 12.508 4.99665 12.5213 5.07768L12.7912 6.71564C12.8252 6.92165 12.6066 7.07604 12.4238 6.97518L11.1208 6.25629C11.0456 6.21481 10.9544 6.21481 10.8792 6.25629L9.57623 6.97518C9.39342 7.07604 9.17484 6.92165 9.20879 6.71564L9.47868 5.07768C9.49203 4.99665 9.46473 4.91423 9.40565 4.85718Z" stroke="currentColor"/><path d="M6.5 2.5L4.16667 2.5C3.24619 2.5 2.5 3.24619 2.5 4.16667L2.5 11.8333C2.5 12.7538 3.24619 13.5 4.16667 13.5H11.8333C12.7538 13.5 13.5 12.7538 13.5 11.8333V9.5" stroke="currentColor" stroke-linecap="round" stroke-linejoin="round"/><path d="M5.5 10.5H10.5" stroke="currentColor" stroke-linecap="round"/></svg>
