<svg xmlns="http://www.w3.org/2000/svg" fill="none" viewBox="0 0 32 32" width="1em" height="1em"><path stroke="currentColor" stroke-linecap="round" d="M7.5 21.5h9m-9-3h12"/><path stroke="currentColor" stroke-linecap="round" stroke-linejoin="round" d="M17.5 6.5H6.167c-.92 0-1.667.746-1.667 1.667v14.666c0 .92.746 1.667 1.667 1.667h14.666c.92 0 1.667-.746 1.667-1.667V18.5"/><path stroke="currentColor" stroke-linecap="round" stroke-linejoin="round" d="M10.5 27.5h13.333c.92 0 1.667-.746 1.667-1.667V18.5"/><path stroke="currentColor" d="m18.373 11.705-1.487-1.436a1 1 0 0 1 .506-1.701l2.271-.436a1 1 0 0 0 .723-.57l.703-1.552c.355-.783 1.467-.783 1.822 0l.703 1.553a1 1 0 0 0 .723.57l2.27.435a1 1 0 0 1 .507 1.701l-1.487 1.436a1 1 0 0 0-.292.882l.392 2.379a1 1 0 0 1-1.47 1.038l-1.774-.979a1 1 0 0 0-.966 0l-1.775.98a1 1 0 0 1-1.47-1.039l.393-2.38a1 1 0 0 0-.292-.881Z"/></svg>
