<svg xmlns="http://www.w3.org/2000/svg" fill="none" viewBox="0 0 32 32" width="1em" height="1em"><path stroke="currentColor" d="M12.5 18.5v7a2 2 0 0 0 2 2h10.382a1 1 0 0 1 .894.553l.382.764a1.236 1.236 0 0 0 2.342-.553V18.5a2 2 0 0 0-2-2h-12a2 2 0 0 0-2 2Z"/><path stroke="currentColor" stroke-linecap="round" d="M23.5 13.5v-9a2 2 0 0 0-2-2h-16a2 2 0 0 0-2 2v12.697c0 .72.583 1.303 1.303 1.303v0c.435 0 .842-.218 1.084-.58l1.316-1.975a1 1 0 0 1 .832-.445H10.5"/><path fill="currentColor" d="M16.104 6.496c0 1.134-.56 1.68-1.148 2.254-.49.476-.91.77-1.078 1.176-.07.154-.098.294-.112.518l-.028.98h-1.134l-.028-.994c-.028-1.106.504-1.582.98-2.03l.812-.742c.266-.252.448-.588.448-1.022 0-.826-.63-1.316-1.568-1.316-.924 0-1.54.532-1.834 1.036l-.588-.84c.238-.42.98-1.316 2.618-1.316 1.652 0 2.66 1.092 2.66 2.296m-2.002 6.776c0 .532-.378.868-.924.868s-.924-.336-.924-.868c0-.546.378-.882.924-.882s.924.336.924.882"/><path stroke="currentColor" stroke-linecap="round" d="M15 20.5h1m2 0h7m-10 3h1m2 0h7"/></svg>
