<svg xmlns="http://www.w3.org/2000/svg" fill="none" viewBox="0 0 16 16" width="1em" height="1em"><path stroke="currentColor" stroke-linecap="round" stroke-linejoin="round" d="M13.5 5V2.5a1 1 0 0 0-1-1h-10a1 1 0 0 0-1 1v7.293c0 .39.317.707.707.707v0a.7.7 0 0 0 .5-.207l.5-.5a1 1 0 0 1 .707-.293H4.5"/><path stroke="currentColor" stroke-linecap="round" stroke-linejoin="round" d="M14.5 8.5v5.382a.618.618 0 0 1-1.17.276L13.25 14a.9.9 0 0 0-.809-.5H7.5a1 1 0 0 1-1-1v-4a1 1 0 0 1 1-1h6a1 1 0 0 1 1 1"/><circle cx="8.5" cy="9.5" r=".25" stroke="currentColor" stroke-width=".5"/><circle cx="8.5" cy="11.5" r=".25" stroke="currentColor" stroke-width=".5"/><path stroke="currentColor" stroke-linecap="round" d="M10 9.5h2.5m-2.5 2h2.5"/></svg>
