<svg xmlns="http://www.w3.org/2000/svg" fill="none" viewBox="0 0 24 24" width="1em" height="1em"><path stroke="currentColor" d="M10.957 14.5v4a2 2 0 0 0 2 2h6.989a1 1 0 0 1 .692.278l.537.515a.744.744 0 0 0 1.26-.537V14.5a2 2 0 0 0-2-2h-7.478a2 2 0 0 0-2 2Z"/><path stroke="currentColor" stroke-linecap="round" d="M17.217 9V4.5a2 2 0 0 0-2-2H4.5a2 2 0 0 0-2 2v7.715c0 .71.575 1.285 1.285 1.285v0c.444 0 .858-.23 1.092-.608l.569-.919a1 1 0 0 1 .85-.473H7.5"/><path stroke="currentColor" stroke-linecap="round" stroke-linejoin="round" d="M8.25 6.18c0-.928.784-1.68 1.75-1.68s1.75.752 1.75 1.68c0 .592-.319 1.112-.8 1.411-.47.292-.95.717-.95 1.269V9"/><circle cx="10" cy="10.5" r=".25" stroke="currentColor" stroke-width=".5"/><path stroke="currentColor" stroke-linecap="round" d="M15.5 15.5h3m-3 2h3m-6-2h1m-1 2h1"/></svg>
