<svg xmlns="http://www.w3.org/2000/svg" fill="none" viewBox="0 0 32 32" width="1em" height="1em"><path stroke="currentColor" d="M12.5 18.5v7a2 2 0 0 0 2 2h10.382a1 1 0 0 1 .894.553l.382.764a1.236 1.236 0 0 0 2.342-.553V18.5a2 2 0 0 0-2-2h-12a2 2 0 0 0-2 2Z"/><path stroke="currentColor" stroke-linecap="round" d="M23.5 13.5v-9a2 2 0 0 0-2-2h-16a2 2 0 0 0-2 2v12.697c0 .72.583 1.303 1.303 1.303v0c.435 0 .842-.218 1.084-.58l1.316-1.975a1 1 0 0 1 .832-.445H10.5"/><path stroke="currentColor" stroke-linecap="round" stroke-linejoin="round" d="M11 6.9c0-1.325 1.12-2.4 2.5-2.4S16 5.575 16 6.9c0 1.116-.709 1.841-1.828 2.341-.393.176-.672.55-.672.98V11.5"/><circle cx="13.5" cy="13.5" r=".25" stroke="currentColor" stroke-width=".5"/><path stroke="currentColor" stroke-linecap="round" d="M15 19h1m2 0h7m-10 3h1m2 0h7m-10 3h1m2 0h7"/></svg>
