<svg viewBox="0 0 24 24" fill="none" xmlns="http://www.w3.org/2000/svg" width="1em" height="1em"><path d="M3.5 18V18.5C3.5 19.0523 3.94772 19.5 4.5 19.5H19.5C20.0523 19.5 20.5 19.0523 20.5 18.5V18" stroke="currentColor" stroke-linecap="round"/><mask id="path-2-inside-1_492_5450" fill="currentColor"><path d="M2 6C2 5.44772 2.44772 5 3 5L9.5 5C11.1569 5 12.5 6.34315 12.5 8V18H3C2.44772 18 2 17.5523 2 17V6Z"/></mask><path d="M12.5 18V19H13.5V18H12.5ZM3 6L9.5 6V4L3 4L3 6ZM11.5 8V18H13.5V8H11.5ZM12.5 17H3V19H12.5V17ZM3 17V6H1V17H3ZM3 17H3H1C1 18.1046 1.89543 19 3 19V17ZM9.5 6C10.6046 6 11.5 6.89543 11.5 8H13.5C13.5 5.79086 11.7091 4 9.5 4V6ZM3 4C1.89543 4 1 4.89543 1 6H3V6L3 4Z" fill="currentColor" mask="url(#path-2-inside-1_492_5450)"/><path d="M21 5.50001L21 5.00001L21 5.50001ZM14.5 5.5L14.5 6H14.5L14.5 5.5ZM12 17.5V18H11.5V17.5H12ZM22 13.5C22 13.7761 21.7761 14 21.5 14C21.2239 14 21 13.7761 21 13.5H22ZM18.5 17C18.7761 17 19 17.2239 19 17.5C19 17.7761 18.7761 18 18.5 18V17ZM21 6.00001L14.5 6L14.5 5L21 5.00001L21 6.00001ZM12.5 8V17.5H11.5V8H12.5ZM21 13.5V6.00001H22V13.5H21ZM12 17H18.5V18H12V17ZM14.5 6C13.3954 6 12.5 6.89543 12.5 8H11.5C11.5 6.34315 12.8431 5 14.5 5L14.5 6ZM21 5.00001C21.5523 5.00001 22 5.44772 22 6.00001H21V6.00001L21 5.00001Z" fill="currentColor"/><path d="M5.5 8.5H9" stroke="currentColor" stroke-linecap="round"/><path d="M15 8.5H18.5" stroke="currentColor" stroke-linecap="round"/><path d="M5.5 11.5H9" stroke="currentColor" stroke-linecap="round"/><path d="M5.5 14.5H7.5" stroke="currentColor" stroke-linecap="round"/><path d="M19.5 13C19.5 14.3807 18.3807 15.5 17 15.5C15.6193 15.5 14.5 14.3807 14.5 13C14.5 11.6193 15.6193 10.5 17 10.5C18.3807 10.5 19.5 11.6193 19.5 13Z" stroke="currentColor"/><path d="M21.2678 16.7678L19.1464 14.6465" stroke="currentColor" stroke-linecap="round" stroke-linejoin="round"/></svg>
