<svg viewBox="0 0 32 32" fill="none" xmlns="http://www.w3.org/2000/svg" width="1em" height="1em"><path d="M3.5 23.5V24.5C3.5 25.0523 3.94772 25.5 4.5 25.5H27.5C28.0523 25.5 28.5 25.0523 28.5 24.5V24" stroke="currentColor" stroke-linecap="round"/><path d="M2.5 7C2.5 6.72386 2.72386 6.5 3 6.5L13.5 6.5C14.8807 6.5 16 7.61929 16 9V23.5H3C2.72386 23.5 2.5 23.2761 2.5 23V7Z" stroke="currentColor"/><path d="M29.5 18.5V7.5C29.5 6.94772 29.0523 6.5 28.5 6.5H19C17.3432 6.5 16 7.84315 16 9.5V23.5H25.5" stroke="currentColor" stroke-linecap="round"/><path d="M5.5 10.5H12.5M5.5 13.5H10.5M5.5 16.5H13M5.5 19.5H9" stroke="currentColor" stroke-linecap="round"/><path d="M26.5 15.5C26.5 17.7091 24.7091 19.5 22.5 19.5C20.2909 19.5 18.5 17.7091 18.5 15.5C18.5 13.2909 20.2909 11.5 22.5 11.5C24.7091 11.5 26.5 13.2909 26.5 15.5Z" stroke="currentColor"/><path d="M29.5 22.5L25.8205 18.8155" stroke="currentColor" stroke-linecap="round" stroke-linejoin="round"/></svg>
