<svg viewBox="0 0 32 32" fill="none" xmlns="http://www.w3.org/2000/svg" width="1em" height="1em"><path d="M4 23.5C4 23.2239 3.77614 23 3.5 23C3.22386 23 3 23.2239 3 23.5H4ZM29 24C29 23.7239 28.7761 23.5 28.5 23.5C28.2239 23.5 28 23.7239 28 24H29ZM3 23.5V24.5H4V23.5H3ZM4.5 26H27.5V25H4.5V26ZM29 24.5V24H28V24.5H29ZM27.5 26C28.3284 26 29 25.3284 29 24.5H28C28 24.7761 27.7761 25 27.5 25V26ZM3 24.5C3 25.3284 3.67157 26 4.5 26V25C4.22386 25 4 24.7761 4 24.5H3Z" fill="currentColor"/><mask id="path-2-inside-1_492_5464" fill="currentColor"><path d="M2 7C2 6.44772 2.44772 6 3 6L13.5 6C15.1569 6 16.5 7.34315 16.5 9V24H3C2.44771 24 2 23.5523 2 23V7Z"/></mask><path d="M16.5 24V25H17.5V24H16.5ZM13.5 6V5V6ZM3 7L13.5 7V5L3 5L3 7ZM15.5 9V24H17.5V9H15.5ZM16.5 23H3V25H16.5V23ZM3 23V7H1V23H3ZM3 23H3H1C1 24.1046 1.89543 25 3 25V23ZM13.5 7C14.6046 7 15.5 7.89543 15.5 9H17.5C17.5 6.79086 15.7091 5 13.5 5V7ZM3 5C1.89543 5 1 5.89543 1 7H3L3 7L3 5Z" fill="currentColor" mask="url(#path-2-inside-1_492_5464)"/><path d="M16 23.5V24H15.5V23.5H16ZM30 18.5C30 18.7761 29.7761 19 29.5 19C29.2239 19 29 18.7761 29 18.5H30ZM25.5 23C25.7761 23 26 23.2239 26 23.5C26 23.7761 25.7761 24 25.5 24V23ZM28.5 7H19V6H28.5V7ZM16.5 9.5V23.5H15.5V9.5H16.5ZM29 18.5V7.5H30V18.5H29ZM16 23H25.5V24H16V23ZM19 7C17.6193 7 16.5 8.11929 16.5 9.5H15.5C15.5 7.567 17.067 6 19 6V7ZM28.5 6C29.3284 6 30 6.67157 30 7.5H29C29 7.22386 28.7761 7 28.5 7V6Z" fill="currentColor"/><path d="M5.5 10.5H12.5M5.5 13.5H10.5M5.5 16.5H13M5.5 19.5H9" stroke="currentColor" stroke-linecap="round"/><path d="M26.5 15.5C26.5 17.7091 24.7091 19.5 22.5 19.5C20.2909 19.5 18.5 17.7091 18.5 15.5C18.5 13.2909 20.2909 11.5 22.5 11.5C24.7091 11.5 26.5 13.2909 26.5 15.5Z" stroke="currentColor"/><path d="M29.5 22.5L25.8205 18.8155" stroke="currentColor" stroke-linecap="round" stroke-linejoin="round"/></svg>
