<svg xmlns="http://www.w3.org/2000/svg" fill="none" viewBox="0 0 32 32" width="1em" height="1em"><path stroke="currentColor" stroke-linecap="round" d="M3.5 23.5v1a1 1 0 0 0 1 1h23a1 1 0 0 0 1-1V24"/><path stroke="currentColor" d="M2.5 7a.5.5 0 0 1 .5-.5h10.5A2.5 2.5 0 0 1 16 9v14.5H3a.5.5 0 0 1-.5-.5V7Z"/><path stroke="currentColor" stroke-linecap="round" d="M29.5 18.5v-11a1 1 0 0 0-1-1H19a3 3 0 0 0-3 3v14h9.5m-20-13h7m-7 3h5m-5 3H13m-7.5 3H9"/><path stroke="currentColor" d="M26.5 15.5a4 4 0 1 1-8 0 4 4 0 0 1 8 0Z"/><path stroke="currentColor" stroke-linecap="round" stroke-linejoin="round" d="m29.5 22.5-3.68-3.684"/></svg>
