<svg xmlns="http://www.w3.org/2000/svg" fill="none" viewBox="0 0 24 24" width="1em" height="1em"><path stroke="currentColor" stroke-linecap="round" d="M3.5 18v.5a1 1 0 0 0 1 1h15a1 1 0 0 0 1-1V18"/><path stroke="currentColor" d="M2.5 6a.5.5 0 0 1 .5-.5h6.5A2.5 2.5 0 0 1 12 8v9.5H3a.5.5 0 0 1-.5-.5z"/><path stroke="currentColor" stroke-linecap="round" d="M21.5 13.5V6a.5.5 0 0 0-.5-.5h-6.5A2.5 2.5 0 0 0 12 8v9.5h6.5m-13-9H9m6 0h3.5m-13 3H9m-3.5 3h2"/><path stroke="currentColor" d="M19.5 13a2.5 2.5 0 1 1-5 0 2.5 2.5 0 0 1 5 0Z"/><path stroke="currentColor" stroke-linecap="round" stroke-linejoin="round" d="m21.268 16.768-2.122-2.122"/></svg>
