<svg viewBox="0 0 16 16" fill="none" xmlns="http://www.w3.org/2000/svg" width="1em" height="1em"><mask id="path-1-inside-1_492_5439" fill="currentColor"><path d="M1 4C1 3.44772 1.44772 3 2 3L6.5 3C7.60457 3 8.5 3.89543 8.5 5V13H2C1.44772 13 1 12.5523 1 12V4Z"/></mask><path d="M8.5 13V14H9.5V13H8.5ZM2 4L6.5 4V2L2 2L2 4ZM7.5 5V13H9.5V5H7.5ZM8.5 12H2V14H8.5V12ZM2 12V4H0V12H2ZM2 12H2H0C0 13.1046 0.89543 14 2 14V12ZM6.5 4C7.05228 4 7.5 4.44772 7.5 5H9.5C9.5 3.34315 8.15685 2 6.5 2V4ZM2 2C0.89543 2 0 2.89543 0 4H2V4L2 2Z" fill="currentColor" mask="url(#path-1-inside-1_492_5439)"/><path d="M8 12.5V13H7.5V12.5H8ZM15 6.5C15 6.77614 14.7761 7 14.5 7C14.2239 7 14 6.77614 14 6.5H15ZM11.5 12C11.7761 12 12 12.2239 12 12.5C12 12.7761 11.7761 13 11.5 13V12ZM14 4H9.5V3H14V4ZM8.5 5V12.5H7.5V5H8.5ZM14 6.5V4H15V6.5H14ZM8 12H11.5V13H8V12ZM9.5 4C8.94772 4 8.5 4.44772 8.5 5H7.5C7.5 3.89543 8.39543 3 9.5 3V4ZM14 3C14.5523 3 15 3.44772 15 4H14V4V3Z" fill="currentColor"/><path d="M3.5 6.5H5.5" stroke="currentColor" stroke-linecap="round"/><path d="M3.5 9.5H5.5" stroke="currentColor" stroke-linecap="round"/><path d="M13.5 8.5C13.5 9.60457 12.6046 10.5 11.5 10.5C10.3954 10.5 9.5 9.60457 9.5 8.5C9.5 7.39543 10.3954 6.5 11.5 6.5C12.6046 6.5 13.5 7.39543 13.5 8.5Z" stroke="currentColor"/><path d="M13.0857 10.0858L14.4999 11.5" stroke="currentColor" stroke-linecap="round"/></svg>
