<svg viewBox="0 0 16 16" fill="none" xmlns="http://www.w3.org/2000/svg" width="1em" height="1em"><path d="M1.5 4C1.5 3.72386 1.72386 3.5 2 3.5L6.5 3.5C7.32843 3.5 8 4.17157 8 5V12.5H2C1.72386 12.5 1.5 12.2761 1.5 12V4Z" stroke="currentColor"/><path d="M14.5 6.5V4C14.5 3.72386 14.2761 3.5 14 3.5H9.5C8.67157 3.5 8 4.17157 8 5V12.5H11.5" stroke="currentColor" stroke-linecap="round"/><path d="M3.5 6.5H5.5" stroke="currentColor" stroke-linecap="round"/><path d="M3.5 9.5H5.5" stroke="currentColor" stroke-linecap="round"/><path d="M13.5 8.5C13.5 9.60457 12.6046 10.5 11.5 10.5C10.3954 10.5 9.5 9.60457 9.5 8.5C9.5 7.39543 10.3954 6.5 11.5 6.5C12.6046 6.5 13.5 7.39543 13.5 8.5Z" stroke="currentColor"/><path d="M13.0858 10.0859L14.5 11.5002" stroke="currentColor" stroke-linecap="round"/></svg>
