<svg xmlns="http://www.w3.org/2000/svg" fill="none" viewBox="0 0 24 24" width="1em" height="1em"><path stroke="currentColor" d="M4.5 13A1.5 1.5 0 0 1 6 11.5h1.5v9H5a.5.5 0 0 1-.5-.5v-7Zm12-4.5H18a1.5 1.5 0 0 1 1.5 1.5v10a.5.5 0 0 1-.5.5h-2.5v-12ZM7.5 5A1.5 1.5 0 0 1 9 3.5h6A1.5 1.5 0 0 1 16.5 5v15.5h-9V5Z"/><rect width="1" height="1" x="9.5" y="13.5" stroke="currentColor" rx=".5"/><rect width="1" height="1" x="9.5" y="17.5" stroke="currentColor" rx=".5"/><rect width="1" height="1" x="9.5" y="9.5" stroke="currentColor" rx=".5"/><rect width="1" height="1" x="9.5" y="5.5" stroke="currentColor" rx=".5"/><rect width="1" height="1" x="13.5" y="13.5" stroke="currentColor" rx=".5"/><rect width="1" height="1" x="13.5" y="17.5" stroke="currentColor" rx=".5"/><rect width="1" height="1" x="13.5" y="9.5" stroke="currentColor" rx=".5"/><rect width="1" height="1" x="13.5" y="5.5" stroke="currentColor" rx=".5"/></svg>
