<svg viewBox="0 0 24 24" fill="none" xmlns="http://www.w3.org/2000/svg" width="1em" height="1em"><path d="M4.5 13C4.5 12.1716 5.17157 11.5 6 11.5H7.5V20.5H5C4.72386 20.5 4.5 20.2761 4.5 20L4.5 13Z" stroke="currentColor"/><path d="M16.5 8.5H18C18.8284 8.5 19.5 9.17157 19.5 10V20C19.5 20.2761 19.2761 20.5 19 20.5H16.5V8.5Z" stroke="currentColor"/><path d="M7.5 5C7.5 4.17157 8.17157 3.5 9 3.5L15 3.5C15.8284 3.5 16.5 4.17157 16.5 5V20.5H7.5L7.5 5Z" stroke="currentColor"/><rect x="9.5" y="13.5" width="1" height="1" rx="0.5" stroke="currentColor"/><rect x="9.5" y="17.5" width="1" height="1" rx="0.5" stroke="currentColor"/><rect x="9.5" y="9.5" width="1" height="1" rx="0.5" stroke="currentColor"/><rect x="9.5" y="5.5" width="1" height="1" rx="0.5" stroke="currentColor"/><rect x="13.5" y="13.5" width="1" height="1" rx="0.5" stroke="currentColor"/><rect x="13.5" y="17.5" width="1" height="1" rx="0.5" stroke="currentColor"/><rect x="13.5" y="9.5" width="1" height="1" rx="0.5" stroke="currentColor"/><rect x="13.5" y="5.5" width="1" height="1" rx="0.5" stroke="currentColor"/></svg>
