<svg xmlns="http://www.w3.org/2000/svg" fill="none" viewBox="0 0 32 32" width="1em" height="1em"><path stroke="currentColor" d="M5.5 16A1.5 1.5 0 0 1 7 14.5h3.5v14H6a.5.5 0 0 1-.5-.5V16Zm17-4.5H26a1.5 1.5 0 0 1 1.5 1.5v15a.5.5 0 0 1-.5.5h-4.5v-17ZM10.5 5A1.5 1.5 0 0 1 12 3.5h9A1.5 1.5 0 0 1 22.5 5v23.5h-12V5Z"/><rect width="2" height="2" x="13.5" y="21.5" stroke="currentColor" rx=".5"/><rect width="2" height="2" x="13.5" y="16.5" stroke="currentColor" rx=".5"/><rect width="2" height="2" x="13.5" y="11.5" stroke="currentColor" rx=".5"/><rect width="2" height="2" x="13.5" y="6.5" stroke="currentColor" rx=".5"/><rect width="2" height="2" x="17.5" y="21.5" stroke="currentColor" rx=".5"/><rect width="2" height="2" x="17.5" y="16.5" stroke="currentColor" rx=".5"/><rect width="2" height="2" x="17.5" y="11.5" stroke="currentColor" rx=".5"/><rect width="2" height="2" x="17.5" y="6.5" stroke="currentColor" rx=".5"/></svg>
