<svg xmlns="http://www.w3.org/2000/svg" fill="none" viewBox="0 0 16 16" width="1em" height="1em"><path stroke="currentColor" d="M3.5 8A1.5 1.5 0 0 1 5 6.5h.5v7H4a.5.5 0 0 1-.5-.5zm7-3.5h.5A1.5 1.5 0 0 1 12.5 6v7a.5.5 0 0 1-.5.5h-1.5zm-5-.5A1.5 1.5 0 0 1 7 2.5h2A1.5 1.5 0 0 1 10.5 4v9.5h-5z"/><rect width="1" height="1" x="7.5" y="7.5" stroke="currentColor" rx=".5"/><rect width="1" height="1" x="7.5" y="4.5" stroke="currentColor" rx=".5"/><rect width="1" height="1" x="7.5" y="10.5" stroke="currentColor" rx=".5"/></svg>
