<svg viewBox="0 0 16 16" fill="none" xmlns="http://www.w3.org/2000/svg" width="1em" height="1em"><path d="M3.5 8C3.5 7.17157 4.17157 6.5 5 6.5H5.5V13.5H4C3.72386 13.5 3.5 13.2761 3.5 13L3.5 8Z" stroke="currentColor"/><path d="M10.5 4.5H11C11.8284 4.5 12.5 5.17157 12.5 6V13C12.5 13.2761 12.2761 13.5 12 13.5H10.5V4.5Z" stroke="currentColor"/><path d="M5.5 4C5.5 3.17157 6.17157 2.5 7 2.5H9C9.82843 2.5 10.5 3.17157 10.5 4V13.5H5.5L5.5 4Z" stroke="currentColor"/><rect x="7.5" y="7.5" width="1" height="1" rx="0.5" stroke="currentColor"/><rect x="7.5" y="4.5" width="1" height="1" rx="0.5" stroke="currentColor"/><rect x="7.5" y="10.5" width="1" height="1" rx="0.5" stroke="currentColor"/></svg>
