<svg xmlns="http://www.w3.org/2000/svg" fill="none" viewBox="0 0 24 24" width="1em" height="1em"><rect width="19" height="15" x="2.5" y="4.5" stroke="currentColor" rx="1.5"/><path stroke="currentColor" d="M2.105 7.5h19.158"/><circle cx="4.5" cy="5.974" r=".5" fill="currentColor"/><circle cx="6.5" cy="5.974" r=".5" fill="currentColor"/><circle cx="8.5" cy="5.974" r=".5" fill="currentColor"/><path stroke="currentColor" stroke-miterlimit="10" d="M15.804 12.677h-.401a3.407 3.407 0 0 0-.411-.997l.277-.278a.199.199 0 0 0 0-.288l-.874-.874a.199.199 0 0 0-.288 0l-.277.278a3.403 3.403 0 0 0-.998-.411v-.401a.206.206 0 0 0-.205-.206h-1.234a.206.206 0 0 0-.206.206v.4c-.36.083-.688.227-.997.412l-.288-.278a.199.199 0 0 0-.288 0l-.874.874a.199.199 0 0 0 0 .288l.278.278a3.406 3.406 0 0 0-.411.997h-.401a.206.206 0 0 0-.206.206v1.234c0 .113.093.206.206.206h.4c.083.36.227.689.412.997l-.278.278a.199.199 0 0 0 0 .288l.874.874a.199.199 0 0 0 .288 0l.278-.278c.308.185.637.33.997.411v.401c0 .113.093.206.206.206h1.234a.206.206 0 0 0 .205-.206v-.4c.36-.083.689-.227.998-.412l.277.278a.199.199 0 0 0 .288 0l.874-.874a.199.199 0 0 0 0-.288l-.278-.278c.185-.308.33-.638.412-.997h.4a.206.206 0 0 0 .206-.206v-1.234a.192.192 0 0 0-.195-.206Z"/><path stroke="currentColor" d="M13.278 13.5a1.278 1.278 0 1 1-2.556 0 1.278 1.278 0 0 1 2.556 0Z"/></svg>
