<svg xmlns="http://www.w3.org/2000/svg" fill="none" viewBox="0 0 32 32" width="1em" height="1em"><rect width="27" height="21" x="2.5" y="5.5" stroke="currentColor" rx="1.5"/><path stroke="currentColor" d="M3 9.5h26"/><circle cx="4.5" cy="7.5" r=".5" fill="currentColor"/><circle cx="6.5" cy="7.5" r=".5" fill="currentColor"/><circle cx="8.5" cy="7.5" r=".5" fill="currentColor"/><path stroke="currentColor" stroke-miterlimit="10" d="M21.706 16.766h-.602a5.1 5.1 0 0 0-.617-1.496l.417-.416a.3.3 0 0 0 0-.432l-1.311-1.312a.3.3 0 0 0-.432 0l-.416.417a5.1 5.1 0 0 0-1.496-.617v-.601A.31.31 0 0 0 16.94 12h-1.85a.31.31 0 0 0-.309.309v.601c-.54.123-1.033.34-1.496.617l-.432-.416a.3.3 0 0 0-.432 0l-1.31 1.31a.3.3 0 0 0 0 .433l.416.416a5.1 5.1 0 0 0-.617 1.496h-.601a.31.31 0 0 0-.309.309v1.85c0 .17.139.309.309.309h.6c.124.54.34 1.033.618 1.496l-.417.416a.3.3 0 0 0 0 .432l1.311 1.312a.3.3 0 0 0 .432 0l.417-.417c.462.278.956.494 1.496.617v.602c0 .17.138.308.308.308h1.85a.31.31 0 0 0 .31-.308v-.602a5.1 5.1 0 0 0 1.495-.617l.417.417a.3.3 0 0 0 .431 0l1.311-1.312a.3.3 0 0 0 0-.431l-.416-.417c.278-.463.493-.956.617-1.496h.601a.31.31 0 0 0 .309-.309v-1.85a.287.287 0 0 0-.293-.309Z"/><circle cx="16" cy="18" r="3" stroke="currentColor"/></svg>
