<svg xmlns="http://www.w3.org/2000/svg" fill="none" viewBox="0 0 16 16" width="1em" height="1em"><rect width="13" height="11" x="1.5" y="2.5" stroke="currentColor" rx="1.5"/><path stroke="currentColor" d="M1.5 4.5h13"/><mask id="iconsSupportSize16Px__a" fill="#fff"><path d="M11.012 8.837a.43.43 0 0 1 .417.44l-.009.328a.43.43 0 0 1-.44.417.48.48 0 0 0-.446.312l-.056.126a.48.48 0 0 0 .067.54.43.43 0 0 1-.015.606l-.238.226a.43.43 0 0 1-.606-.016.48.48 0 0 0-.537-.095l-.128.05a.48.48 0 0 0-.335.43.43.43 0 0 1-.44.416l-.327-.008a.43.43 0 0 1-.418-.44.48.48 0 0 0-.311-.446l-.126-.056a.48.48 0 0 0-.541.067.43.43 0 0 1-.606-.016l-.226-.238a.43.43 0 0 1 .016-.605.48.48 0 0 0 .095-.537l-.05-.128a.48.48 0 0 0-.43-.335.43.43 0 0 1-.416-.44l.008-.328a.43.43 0 0 1 .44-.417.48.48 0 0 0 .446-.312l.056-.126a.48.48 0 0 0-.067-.54.43.43 0 0 1 .016-.606l.238-.226a.43.43 0 0 1 .605.016.48.48 0 0 0 .537.095q.063-.026.129-.05a.48.48 0 0 0 .334-.43.43.43 0 0 1 .44-.417l.328.009a.43.43 0 0 1 .417.44.48.48 0 0 0 .312.446l.126.056a.48.48 0 0 0 .54-.067.43.43 0 0 1 .606.015l.226.238a.43.43 0 0 1-.016.606.48.48 0 0 0-.095.537q.027.063.05.129a.48.48 0 0 0 .43.334"/></mask><path fill="currentColor" d="m10.582 8.503.942-.334zm.43.334.026-1zm-.385-1 .689.725zm-.095.537-.923.384zm.111-1.143.725-.688zm-.831-.253.688.725zm.605.015-.725.689zm-1.146.052.431-.902zm-.438-.503-1-.026zm.312.447-.382.924zm-.73-.886.027-1zm-.767.408 1 .026zm.44-.417-.026 1zm-.774.847L6.98 6zm-.666-.045.726-.689zm.537.095-.384-.923zM6.043 6.88l-.689-.725zm-.254.831.725-.688zm.016-.605.688.725zm.051 1.146-.902-.431zm-.503.438-.026 1zm.447-.312.924.382zm-.886.73 1 .025zm.409.767-.026 1zm-.417-.44-1-.025zm.847.775-.943.333zm-.046.665-.689-.726zm.095-.537-.923.384zm-.11 1.143-.726.688zm.83.253.69.725zm-.605-.016.725-.688zm1.147-.051.431-.902zm.437.503-1-.026zm-.311-.447.381-.924zm.729.886.026-1zm.767-.409-1-.026zm-.44.418-.025 1zm.775-.848.333.943zm.665.046.725-.689zm-.537-.095-.384-.923zm1.143.11-.689-.724zm.253-.83-.725.688zm-.015.605.688.725zm-.052-1.146.902.431zm.503-.438.026-1zm-.447.312.924.382zm.895-1.057 1 .025zm-.009.328-1-.026zm1 .026.008-.329-1.999-.051-.008.328zm-1.04 1.26q.042-.087.078-.175L9.61 9.952l-.034.076zm-.4 1.666.238-.226-1.377-1.45-.238.226zm-1.626.156q.09-.032.18-.069l-.769-1.846-.078.03zm-1.461.896.328.008.052-2-.328-.008zm-1.261-1.04q.086.04.176.078l.763-1.848-.076-.034zm-1.666-.4.226.238 1.45-1.377-.226-.238zm-.156-1.626q.032.09.069.179l1.846-.768-.03-.078zm-.896-1.461-.008.328 2 .051.008-.328zm1.04-1.261a4 4 0 0 0-.078.176l1.848.763.034-.076zm.4-1.666-.238.225 1.377 1.45.238-.225zm1.626-.156q-.09.031-.179.069l.768 1.846.078-.03zm1.462-.896-.328-.008-.052 2 .328.008zm1.26 1.04a4 4 0 0 0-.175-.078l-.764 1.848q.039.016.076.034zm-.01 1.539.226.238 1.45-1.377-.226-.238zm1.832.487a4 4 0 0 0-.069-.18l-1.846.769.03.078zm-1.885.667c.178.503.66.983 1.347 1l.052-1.998a.52.52 0 0 1 .486.331zm.3-1.724c-.498.473-.535 1.152-.33 1.646l1.846-.768a.52.52 0 0 1-.14.572zm-.021.808a.57.57 0 0 1 .02-.808l1.378 1.45a1.43 1.43 0 0 0 .052-2.02zm.582-.217a.57.57 0 0 1-.808-.021l1.45-1.377a1.43 1.43 0 0 0-2.019-.052zm-1.66.244c.481.23 1.162.229 1.66-.244l-1.377-1.45a.52.52 0 0 1 .58-.11zm-1.007-1.43c-.018.686.437 1.192.93 1.396l.764-1.848a.52.52 0 0 1 .306.503zm.557.586a.57.57 0 0 1-.557-.587l2 .052a1.43 1.43 0 0 0-1.391-1.465zm.258-.566a.57.57 0 0 1-.586.557l.052-2a1.43 1.43 0 0 0-1.465 1.392zm-1 1.347c.502-.178.982-.66 1-1.347l-2-.051a.52.52 0 0 1 .332-.487zm-1.725-.3c.473.498 1.153.535 1.646.33l-.768-1.846a.52.52 0 0 1 .573.14zm.808.021a.57.57 0 0 1-.808-.02l1.45-1.378a1.43 1.43 0 0 0-2.019-.052zm-.217-.582a.57.57 0 0 1-.02.808L5.115 6.38a1.43 1.43 0 0 0-.051 2.02zm.244 1.66c.231-.481.229-1.162-.244-1.66L5.064 8.4a.52.52 0 0 1-.11-.58zM5.328 9.69c.686.018 1.193-.436 1.396-.93l-1.848-.763a.52.52 0 0 1 .503-.306zm.586-.557a.57.57 0 0 1-.587.557l.052-2a1.43 1.43 0 0 0-1.465 1.392zm-.565-.258c.315.008.564.27.556.586l-2-.051a1.43 1.43 0 0 0 1.392 1.464zm1.347 1.001c-.178-.503-.661-.983-1.347-1l-.052 1.999a.52.52 0 0 1-.487-.332zm-.3 1.724c.497-.473.535-1.153.33-1.646l-1.847.768a.52.52 0 0 1 .14-.573zm.02-.808a.57.57 0 0 1-.02.808l-1.378-1.45a1.43 1.43 0 0 0-.052 2.019zm-.582.217a.57.57 0 0 1 .808.02l-1.45 1.378a1.43 1.43 0 0 0 2.02.052zm1.661-.244c-.482-.231-1.163-.23-1.66.244l1.376 1.45a.52.52 0 0 1-.579.11zm1.006 1.43c.018-.686-.436-1.193-.93-1.396l-.763 1.848a.52.52 0 0 1-.306-.503zm-.556-.586a.57.57 0 0 1 .556.586l-2-.051a1.43 1.43 0 0 0 1.392 1.465zm-.259.565a.57.57 0 0 1 .587-.556l-.052 2a1.43 1.43 0 0 0 1.465-1.392zm1.001-1.346c-.503.178-.983.66-1 1.346l1.999.052a.52.52 0 0 1-.332.487zm1.724.3c-.473-.498-1.152-.536-1.646-.33l.769 1.846a.52.52 0 0 1-.573-.14zm-.808-.021a.57.57 0 0 1 .808.02l-1.45 1.378a1.43 1.43 0 0 0 2.02.052zm.217.582a.57.57 0 0 1 .021-.808l1.377 1.45a1.43 1.43 0 0 0 .053-2.02zm-.244-1.661c-.23.482-.229 1.163.244 1.66l1.45-1.376c.2.21.17.455.11.579zm1.43-1.006c-.686-.018-1.192.436-1.396.93l1.848.764a.52.52 0 0 1-.503.305zm1.422.28a1.43 1.43 0 0 0-1.39-1.464l-.052 1.999a.57.57 0 0 1-.557-.586zm-2.007.277a.57.57 0 0 1 .586-.557l-.052 2A1.43 1.43 0 0 0 12.42 9.63z" mask="url(#iconsSupportSize16Px__a)"/></svg>
