<svg xmlns="http://www.w3.org/2000/svg" fill="none" viewBox="0 0 16 16" width="1em" height="1em"><rect width="13" height="11" x="1.5" y="2.5" stroke="currentColor" rx="1.5"/><path stroke="currentColor" d="M1.5 4.5h13"/><mask id="iconsSupportSize16Px__a" fill="#fff"><path d="M11.012 8.837a.428.428 0 0 1 .417.44l-.009.328a.428.428 0 0 1-.44.417.482.482 0 0 0-.446.312 2.495 2.495 0 0 1-.056.126.482.482 0 0 0 .067.54.428.428 0 0 1-.015.606l-.238.226a.428.428 0 0 1-.606-.016.482.482 0 0 0-.537-.095 2.497 2.497 0 0 1-.128.05.482.482 0 0 0-.335.43.428.428 0 0 1-.44.416l-.327-.008a.428.428 0 0 1-.418-.44.482.482 0 0 0-.311-.446 2.531 2.531 0 0 1-.126-.056.482.482 0 0 0-.541.067.428.428 0 0 1-.606-.016l-.226-.238a.429.429 0 0 1 .016-.605.482.482 0 0 0 .095-.537 2.53 2.53 0 0 1-.05-.128.482.482 0 0 0-.43-.335.428.428 0 0 1-.416-.44l.008-.328a.428.428 0 0 1 .44-.417.482.482 0 0 0 .446-.312l.056-.126a.482.482 0 0 0-.067-.54.429.429 0 0 1 .016-.606l.238-.226a.429.429 0 0 1 .605.016.482.482 0 0 0 .537.095c.042-.018.085-.034.129-.05a.482.482 0 0 0 .334-.43.428.428 0 0 1 .44-.417l.328.009a.428.428 0 0 1 .417.44.482.482 0 0 0 .312.446c.042.018.084.036.126.056a.48.48 0 0 0 .54-.067.429.429 0 0 1 .606.015l.226.238a.428.428 0 0 1-.016.606.482.482 0 0 0-.095.537c.018.042.034.085.05.129a.48.48 0 0 0 .43.334Z"/></mask><path fill="currentColor" d="m10.582 8.503.942-.334-.942.334Zm.43.334.026-1-.026 1Zm-.385-1 .689.725-.689-.725Zm-.095.537-.923.384.923-.384Zm.111-1.143.725-.688-.725.688Zm-.831-.253.688.725-.688-.725Zm.605.015-.725.689.725-.689Zm-1.146.052.431-.902-.431.902Zm-.438-.503-1-.026 1 .026Zm.312.447-.382.924.382-.924Zm-.73-.886.027-1-.026 1Zm-.767.408 1 .026-1-.026Zm.44-.417-.026 1 .026-1Zm-.774.847L6.98 6l.334.942Zm-.666-.045.726-.689-.726.689Zm.537.095-.384-.923.384.923ZM6.043 6.88l-.689-.725.689.725Zm-.254.831.725-.688-.725.688Zm.016-.605.688.725-.688-.725Zm.051 1.146-.902-.431.902.431Zm-.503.438-.026 1 .026-1Zm.447-.312.924.382-.924-.382Zm-.886.73 1 .025-1-.026Zm.409.767-.026 1 .026-1Zm-.417-.44-1-.025 1 .025Zm.847.775-.943.333.943-.333Zm-.046.665-.689-.726.689.726Zm.095-.537-.923.384.923-.384Zm-.11 1.143-.726.688.725-.689Zm.83.253.69.725-.69-.725Zm-.605-.016.725-.688-.725.688Zm1.147-.051.431-.902-.431.902Zm.437.503-1-.026 1 .026Zm-.311-.447.381-.924-.381.924Zm.729.886.026-1-.026 1Zm.767-.409-1-.026 1 .026Zm-.44.418-.025 1 .026-1Zm.775-.848.333.943-.333-.943Zm.665.046.725-.689-.725.69Zm-.537-.095-.384-.923.384.923Zm1.143.11-.689-.724.689.725Zm.253-.83-.725.688.725-.689Zm-.015.605.688.725-.688-.725Zm-.052-1.146.902.431-.902-.431Zm.503-.438.026-1-.026 1Zm-.447.312.924.382-.924-.382Zm.895-1.057 1 .025-1-.025Zm-.009.328-1-.026 1 .026Zm1 .026.008-.329-1.999-.051-.008.328 1.999.052Zm-1.04 1.26c.028-.058.054-.116.078-.175L9.61 9.952c-.01.025-.022.05-.034.076l1.804.863Zm-.4 1.666.238-.226-1.377-1.45-.238.226 1.377 1.45Zm-1.626.156c.06-.021.12-.044.18-.069l-.769-1.846-.078.03.667 1.885Zm-1.461.896.328.008.052-2-.328-.008-.052 2Zm-1.261-1.04c.058.027.116.053.176.078l.763-1.848a1.582 1.582 0 0 1-.076-.034l-.863 1.804Zm-1.666-.4.226.238 1.45-1.377-.226-.238-1.45 1.377Zm-.156-1.626c.021.06.044.12.069.179l1.846-.768a1.54 1.54 0 0 1-.03-.078l-1.885.667Zm-.896-1.461-.008.328 2 .051.008-.328-2-.051Zm1.04-1.261a3.541 3.541 0 0 0-.078.176l1.848.763.034-.076-1.804-.863Zm.4-1.666-.238.225 1.377 1.45.238-.225-1.377-1.45Zm1.626-.156c-.06.021-.12.044-.179.069l.768 1.846.078-.03L6.98 6Zm1.462-.896-.328-.008-.052 2 .328.008.052-2Zm1.26 1.04a3.542 3.542 0 0 0-.175-.078l-.764 1.848c.026.01.051.022.076.034l.863-1.804Zm-.01 1.539.226.238 1.45-1.377-.226-.238-1.45 1.377Zm1.832.487a3.578 3.578 0 0 0-.069-.18l-1.846.769.03.078 1.886-.667Zm-1.885.667c.178.503.66.983 1.347 1l.052-1.998a.52.52 0 0 1 .486.331l-1.885.667Zm.3-1.724c-.498.473-.535 1.152-.33 1.646l1.846-.768a.52.52 0 0 1-.14.572L9.94 7.112Zm-.021.808a.572.572 0 0 1 .02-.808l1.378 1.45a1.428 1.428 0 0 0 .052-2.02L9.918 7.92Zm.582-.217a.571.571 0 0 1-.808-.021l1.45-1.377a1.428 1.428 0 0 0-2.019-.052l1.377 1.45Zm-1.66.244c.481.23 1.162.229 1.66-.244l-1.377-1.45a.52.52 0 0 1 .58-.11l-.864 1.804Zm-1.007-1.43c-.018.686.437 1.192.93 1.396l.764-1.848a.52.52 0 0 1 .306.503l-2-.052Zm.557.586a.572.572 0 0 1-.557-.587l2 .052a1.428 1.428 0 0 0-1.391-1.465l-.052 2Zm.258-.566a.572.572 0 0 1-.586.557l.052-2a1.428 1.428 0 0 0-1.465 1.392l2 .051Zm-1 1.347c.502-.178.982-.66 1-1.347l-2-.051a.52.52 0 0 1 .332-.487l.667 1.885Zm-1.725-.3c.473.498 1.153.535 1.646.33l-.768-1.846a.52.52 0 0 1 .573.14l-1.45 1.376Zm.808.021a.571.571 0 0 1-.808-.02l1.45-1.378a1.429 1.429 0 0 0-2.019-.052l1.377 1.45Zm-.217-.582a.571.571 0 0 1-.02.808L5.115 6.38a1.429 1.429 0 0 0-.051 2.02l1.45-1.377Zm.244 1.66c.231-.481.229-1.162-.244-1.66L5.064 8.4a.52.52 0 0 1-.11-.58l1.804.864ZM5.328 9.69c.686.018 1.193-.436 1.396-.93l-1.848-.763a.52.52 0 0 1 .503-.306L5.327 9.69Zm.586-.557a.572.572 0 0 1-.587.557l.052-2a1.428 1.428 0 0 0-1.465 1.392l2 .051Zm-.565-.258c.315.008.564.27.556.586l-2-.051a1.428 1.428 0 0 0 1.392 1.464l.052-1.999Zm1.347 1.001c-.178-.503-.661-.983-1.347-1l-.052 1.998a.52.52 0 0 1-.487-.33l1.886-.668Zm-.3 1.724c.497-.473.535-1.153.33-1.646l-1.847.768a.52.52 0 0 1 .14-.573l1.376 1.45Zm.02-.808a.571.571 0 0 1-.02.808l-1.378-1.45a1.429 1.429 0 0 0-.052 2.019l1.45-1.377Zm-.582.217a.572.572 0 0 1 .808.02l-1.45 1.378a1.428 1.428 0 0 0 2.02.052l-1.378-1.45Zm1.661-.244c-.482-.231-1.163-.23-1.66.244l1.376 1.45a.52.52 0 0 1-.579.11l.863-1.804Zm1.006 1.43c.018-.686-.436-1.193-.93-1.396l-.763 1.848a.52.52 0 0 1-.306-.503l2 .051Zm-.556-.586a.572.572 0 0 1 .556.586l-2-.051a1.428 1.428 0 0 0 1.392 1.465l.052-2Zm-.259.565a.572.572 0 0 1 .587-.556l-.052 2a1.428 1.428 0 0 0 1.465-1.392l-2-.052Zm1.001-1.346c-.503.178-.983.66-1 1.346l1.999.052a.52.52 0 0 1-.332.487l-.667-1.885Zm1.724.3c-.473-.498-1.152-.536-1.646-.33l.769 1.846a.52.52 0 0 1-.573-.14l1.45-1.377Zm-.808-.021a.572.572 0 0 1 .808.02l-1.45 1.378a1.428 1.428 0 0 0 2.02.052l-1.378-1.45Zm.217.582a.572.572 0 0 1 .021-.808l1.377 1.45a1.428 1.428 0 0 0 .053-2.02L9.82 11.69Zm-.244-1.661c-.23.482-.229 1.163.244 1.66l1.45-1.376c.2.21.17.455.11.579l-1.804-.863Zm1.43-1.006c-.686-.018-1.192.436-1.396.93l1.848.764a.52.52 0 0 1-.503.305l.052-1.999Zm1.422.28a1.428 1.428 0 0 0-1.39-1.464l-.052 1.999a.572.572 0 0 1-.557-.586l2 .051Zm-2.007.277a.572.572 0 0 1 .586-.557l-.052 2A1.429 1.429 0 0 0 12.42 9.63l-2-.052Z" mask="url(#iconsSupportSize16Px__a)"/></svg>
