<svg viewBox="0 0 32 32" fill="none" xmlns="http://www.w3.org/2000/svg" stroke="currentColor"><rect x="2.5" y="5.5" width="27" height="21" rx="1.5"/><line x1="3" y1="9.5" x2="29" y2="9.5"/><circle cx="4.5" cy="7.5" r="0.5" fill="#282829"/><circle cx="6.5" cy="7.5" r="0.5" fill="#282829"/><circle cx="8.5" cy="7.5" r="0.5" fill="#282829"/><path d="M21.7058 16.2661H21.1043C20.9809 15.7262 20.765 15.2326 20.4874 14.7699L20.9038 14.3535C21.0272 14.2301 21.0272 14.045 20.9038 13.9216L19.5929 12.6105C19.4695 12.4871 19.2844 12.4871 19.1611 12.6105L18.7446 13.027C18.282 12.7494 17.7884 12.5334 17.2486 12.41V11.8085C17.2486 11.6388 17.1098 11.5 16.9402 11.5H15.0895C14.9198 11.5 14.781 11.6388 14.781 11.8085V12.41C14.2412 12.5334 13.7477 12.7494 13.285 13.027L12.8532 12.6105C12.7298 12.4871 12.5447 12.4871 12.4214 12.6105L11.1104 13.9216C10.987 14.045 10.987 14.2301 11.1104 14.3535L11.5268 14.7699C11.2492 15.2326 11.0333 15.7262 10.9099 16.2661H10.3085C10.1388 16.2661 10 16.4049 10 16.5746V18.4254C10 18.5951 10.1388 18.7339 10.3085 18.7339H10.9099C11.0333 19.2738 11.2492 19.7674 11.5268 20.2301L11.1104 20.6465C10.987 20.7699 10.987 20.955 11.1104 21.0784L12.4214 22.3895C12.5447 22.5129 12.7298 22.5129 12.8532 22.3895L13.2696 21.973C13.7323 22.2506 14.2258 22.4666 14.7656 22.59V23.1915C14.7656 23.3612 14.9044 23.5 15.0741 23.5H16.9248C17.0944 23.5 17.2332 23.3612 17.2332 23.1915V22.59C17.773 22.4666 18.2665 22.2506 18.7292 21.973L19.1456 22.3895C19.269 22.5129 19.4541 22.5129 19.5775 22.3895L20.8884 21.0784C21.0118 20.955 21.0118 20.7699 20.8884 20.6465L20.472 20.2301C20.7496 19.7674 20.9655 19.2738 21.0889 18.7339H21.6904C21.86 18.7339 21.9988 18.5951 21.9988 18.4254V16.5746C22.0142 16.4049 21.8754 16.2661 21.7058 16.2661Z" stroke-miterlimit="10"/><circle cx="16" cy="17.5" r="3"/></svg>