<svg xmlns="http://www.w3.org/2000/svg" fill="none" viewBox="0 0 24 24" width="1em" height="1em"><path stroke="currentColor" d="M11.395 3.908a.727.727 0 0 1 1.21 0l1.641 2.461a.727.727 0 0 1-.605 1.131H10.36a.727.727 0 0 1-.605-1.13zM7.799 9.902a.73.73 0 0 1 .65-.402h7.102c.275 0 .527.156.65.402l1.273 2.546a.727.727 0 0 1-.65 1.052H7.176a.727.727 0 0 1-.65-1.053zm-3.011 5.951a.73.73 0 0 1 .624-.353h13.176c.256 0 .492.134.624.353l2.127 3.545a.727.727 0 0 1-.623 1.102H3.284a.727.727 0 0 1-.624-1.102z"/></svg>
