<svg xmlns="http://www.w3.org/2000/svg" fill="none" viewBox="0 0 32 32" width="1em" height="1em"><path fill="currentColor" d="M25.937 6.04A14.113 14.113 0 0 0 17.273 2c-.38-.027-.596.43-.325.7l5.063 5.034c.027.027 0 .081-.054.054a9.792 9.792 0 0 0-4.82-1.804c-.27-.027-.406.297-.216.485l3.466 3.446c.026.027 0 .08-.055.054a6.719 6.719 0 0 0-3.14-1.131c-.19-.027-.299.215-.163.323l5.876 5.842a.19.19 0 0 0 .325-.162 6.632 6.632 0 0 0-1.138-3.122c-.027-.027.027-.081.055-.054l3.33 3.311c.19.188.514.027.487-.215a9.29 9.29 0 0 0-1.787-4.765c-.027-.027.027-.081.054-.054l5.064 5.034c.27.27.73.054.704-.35a13.964 13.964 0 0 0-4.062-8.588Zm-19.874 0A14.113 14.113 0 0 1 14.727 2c.38-.027.596.43.325.7L9.99 7.735c-.027.027 0 .081.054.054a9.793 9.793 0 0 1 4.82-1.804c.27-.027.406.297.216.485l-3.466 3.446c-.027.027 0 .08.055.054a6.718 6.718 0 0 1 3.14-1.131c.19-.027.298.215.163.323l-5.876 5.869a.19.19 0 0 1-.325-.162 6.632 6.632 0 0 1 1.138-3.123c.027-.026-.027-.08-.055-.053l-3.33 3.31c-.19.19-.514.028-.487-.214A9.574 9.574 0 0 1 7.85 9.997c.027-.027-.027-.081-.054-.054l-5.09 5.034c-.272.27-.732.054-.705-.35a13.962 13.962 0 0 1 4.062-8.588Zm0 19.92A14.114 14.114 0 0 0 14.727 30c.38.027.596-.43.325-.7L9.99 24.265c-.027-.027 0-.081.054-.054a9.793 9.793 0 0 0 4.82 1.804c.27.026.406-.297.216-.485l-3.466-3.446c-.027-.027 0-.08.055-.054a6.719 6.719 0 0 0 3.14 1.13c.19.028.298-.215.163-.322l-5.876-5.869a.19.19 0 0 0-.325.162 6.632 6.632 0 0 0 1.138 3.122c.027.027-.027.081-.055.054l-3.33-3.311c-.19-.188-.514-.027-.487.215a9.574 9.574 0 0 0 1.814 4.792c.027.027-.027.081-.054.054l-5.09-5.034c-.272-.27-.732-.054-.705.35a13.962 13.962 0 0 0 4.062 8.588Zm19.874 0A14.114 14.114 0 0 1 17.273 30c-.38.027-.596-.43-.325-.7l5.063-5.034c.027-.027 0-.081-.054-.054a9.792 9.792 0 0 1-4.82 1.804c-.27.026-.406-.297-.216-.485l3.466-3.446c.026-.027 0-.08-.055-.054a6.72 6.72 0 0 1-3.14 1.13c-.19.028-.299-.215-.163-.322l5.876-5.842a.19.19 0 0 1 .325.162 6.633 6.633 0 0 1-1.138 3.122c-.027.027.027.081.055.054l3.33-3.311c.19-.189.514-.027.487.215a9.469 9.469 0 0 1-1.787 4.792c-.027.027.027.081.054.054l5.064-5.034c.27-.27.73-.054.704.35a13.963 13.963 0 0 1-4.062 8.56ZM13.43 12.75c.335 0 .625.037.87.113.244.075.452.165.622.27.17.1.305.2.405.3l.217.217-.652.577a2.007 2.007 0 0 0-.547-.434 1.846 1.846 0 0 0-.915-.218c-.236 0-.455.043-.66.128-.2.08-.375.2-.525.36a1.63 1.63 0 0 0-.353.577 2.176 2.176 0 0 0-.127.772c0 .29.042.55.127.78.09.226.21.418.36.578.155.155.335.275.54.36.21.08.435.12.675.12.24 0 .44-.02.6-.06.16-.04.29-.085.39-.135a.913.913 0 0 0 .277-.195v-.952H13.49v-.758h2.19v2.077a4.87 4.87 0 0 1-.232.21c-.105.095-.25.193-.435.293-.18.095-.4.18-.66.255a3.51 3.51 0 0 1-.908.105c-.365 0-.712-.058-1.042-.172a2.464 2.464 0 0 1-.855-.51 2.506 2.506 0 0 1-.578-.833c-.14-.335-.21-.72-.21-1.155 0-.415.07-.787.21-1.117.146-.33.338-.61.578-.84.245-.23.527-.405.848-.525.325-.126.67-.188 1.035-.188Zm2.895 3.45c0-.285.05-.545.15-.78.1-.235.238-.435.413-.6.18-.165.39-.293.63-.383.24-.09.5-.134.78-.134s.537.044.772.134c.24.09.448.218.623.383.18.165.32.365.42.6.1.235.15.495.15.78 0 .285-.05.545-.15.78-.1.23-.24.427-.42.593a1.835 1.835 0 0 1-.623.382 2.256 2.256 0 0 1-.772.128c-.28 0-.54-.043-.78-.128-.24-.09-.45-.217-.63-.382a1.779 1.779 0 0 1-.413-.593c-.1-.235-.15-.495-.15-.78Zm1.973 1.088c.31 0 .55-.105.72-.316.17-.215.255-.48.255-.795 0-.314-.085-.577-.255-.787-.17-.21-.41-.315-.72-.315-.315 0-.558.105-.728.315-.165.21-.247.473-.247.787 0 .316.082.58.247.796.17.21.413.315.728.315Z"/></svg>
