<svg viewBox="0 0 16 16" fill="none" xmlns="http://www.w3.org/2000/svg" width="1em" height="1em"><path d="M6.39163 8.326H7.38763V9.088C7.38763 9.088 7.13563 9.4 6.37363 9.4C5.60563 9.4 5.01163 8.86 5.01163 7.93C5.01163 7 5.58763 6.46 6.34363 6.46C6.94963 6.46 7.30363 6.742 7.51363 6.982L8.03563 6.52C7.89163 6.37 7.41163 5.8 6.34363 5.8C5.17963 5.8 4.20763 6.604 4.20763 7.936C4.20763 9.328 5.17963 10.072 6.35563 10.072C7.46563 10.072 7.99963 9.52 8.14363 9.382V7.72H6.39163V8.326ZM10.2383 10.066C11.1263 10.066 11.8103 9.478 11.8103 8.56C11.8103 7.642 11.1263 7.042 10.2383 7.042C9.34433 7.042 8.66033 7.642 8.66033 8.56C8.66033 9.478 9.34433 10.066 10.2383 10.066ZM11.0183 8.542C11.0183 9.04 10.7303 9.43 10.2383 9.43C9.73433 9.43 9.45833 9.04 9.45833 8.542C9.45833 8.044 9.73433 7.66 10.2383 7.66C10.7303 7.66 11.0183 8.044 11.0183 8.542Z" fill="currentColor"/><path d="M1.61786 9.1925C1.03208 8.60671 1.03208 7.65696 1.61786 7.07118L6.92117 1.76788C7.50695 1.18209 8.4567 1.18209 9.04249 1.76788L14.3458 7.07118C14.9316 7.65696 14.9316 8.60671 14.3458 9.1925L9.04249 14.4958C8.4567 15.0816 7.50695 15.0816 6.92117 14.4958L1.61786 9.1925Z" stroke="currentColor"/></svg>
