<svg xmlns="http://www.w3.org/2000/svg" fill="none" viewBox="0 0 32 32" width="1em" height="1em"><path fill="currentColor" d="M25.937 6.04A14.1 14.1 0 0 0 17.273 2c-.38-.027-.596.43-.325.7l5.063 5.034c.027.027 0 .081-.054.054a9.8 9.8 0 0 0-4.82-1.804c-.27-.027-.406.297-.216.485l3.466 3.446c.026.027 0 .08-.055.054a6.7 6.7 0 0 0-3.14-1.131c-.19-.027-.299.215-.163.323l5.876 5.842a.19.19 0 0 0 .325-.162 6.6 6.6 0 0 0-1.138-3.122c-.027-.027.027-.081.055-.054l3.33 3.311c.19.188.514.027.487-.215a9.3 9.3 0 0 0-1.787-4.765c-.027-.027.027-.081.054-.054l5.064 5.034c.27.27.73.054.704-.35a13.96 13.96 0 0 0-4.062-8.588m-19.874 0A14.1 14.1 0 0 1 14.727 2c.38-.027.596.43.325.7L9.99 7.735c-.027.027 0 .081.054.054a9.8 9.8 0 0 1 4.82-1.804c.27-.027.406.297.216.485l-3.466 3.446c-.027.027 0 .08.055.054a6.7 6.7 0 0 1 3.14-1.131c.19-.027.298.215.163.323l-5.876 5.869a.19.19 0 0 1-.325-.162 6.6 6.6 0 0 1 1.138-3.123c.027-.026-.027-.08-.055-.053l-3.33 3.31c-.19.19-.514.028-.487-.214A9.6 9.6 0 0 1 7.85 9.997c.027-.027-.027-.081-.054-.054l-5.09 5.034c-.272.27-.732.054-.705-.35a13.96 13.96 0 0 1 4.062-8.588m0 19.92A14.1 14.1 0 0 0 14.727 30c.38.027.596-.43.325-.7L9.99 24.265c-.027-.027 0-.081.054-.054a9.8 9.8 0 0 0 4.82 1.804c.27.026.406-.297.216-.485l-3.466-3.446c-.027-.027 0-.08.055-.054a6.7 6.7 0 0 0 3.14 1.13c.19.028.298-.215.163-.322l-5.876-5.869a.19.19 0 0 0-.325.162 6.6 6.6 0 0 0 1.138 3.122c.027.027-.027.081-.055.054l-3.33-3.311c-.19-.188-.514-.027-.487.215a9.6 9.6 0 0 0 1.814 4.792c.027.027-.027.081-.054.054l-5.09-5.034c-.272-.27-.732-.054-.705.35a13.96 13.96 0 0 0 4.062 8.588m19.874 0A14.1 14.1 0 0 1 17.273 30c-.38.027-.596-.43-.325-.7l5.063-5.034c.027-.027 0-.081-.054-.054a9.8 9.8 0 0 1-4.82 1.804c-.27.026-.406-.297-.216-.485l3.466-3.446c.026-.027 0-.08-.055-.054a6.7 6.7 0 0 1-3.14 1.13c-.19.028-.299-.215-.163-.322l5.876-5.842a.19.19 0 0 1 .325.162 6.6 6.6 0 0 1-1.138 3.122c-.027.027.027.081.055.054l3.33-3.311c.19-.189.514-.027.487.215a9.47 9.47 0 0 1-1.787 4.792c-.027.027.027.081.054.054l5.064-5.034c.27-.27.73-.054.704.35a13.96 13.96 0 0 1-4.062 8.56M13.43 12.75q.503 0 .87.113.366.112.622.27.255.15.405.3l.217.217-.652.577a2 2 0 0 0-.547-.434 1.85 1.85 0 0 0-.915-.218q-.353 0-.66.128-.3.12-.525.36a1.6 1.6 0 0 0-.353.577 2.2 2.2 0 0 0-.127.772q0 .435.127.78.135.338.36.578.232.233.54.36.315.12.675.12t.6-.06.39-.135a.9.9 0 0 0 .277-.195v-.952H13.49v-.758h2.19v2.077a5 5 0 0 1-.232.21q-.158.143-.435.293-.27.142-.66.255a3.5 3.5 0 0 1-.908.105q-.547 0-1.042-.172a2.5 2.5 0 0 1-.855-.51 2.5 2.5 0 0 1-.578-.833q-.21-.503-.21-1.155 0-.622.21-1.117.219-.495.578-.84.367-.345.848-.525.488-.188 1.035-.188m2.895 3.45q0-.428.15-.78t.413-.6q.27-.248.63-.383.36-.134.78-.134t.772.134q.36.135.623.383.27.247.42.6.15.352.15.78 0 .427-.15.78-.15.345-.42.593a1.8 1.8 0 0 1-.623.382 2.3 2.3 0 0 1-.772.128q-.42 0-.78-.128-.36-.135-.63-.382a1.8 1.8 0 0 1-.413-.593q-.15-.353-.15-.78m1.973 1.088q.465 0 .72-.316.255-.323.255-.795 0-.471-.255-.787-.255-.315-.72-.315-.473 0-.728.315-.247.316-.247.787 0 .473.247.796.255.315.728.315"/></svg>
