<svg xmlns="http://www.w3.org/2000/svg" fill="none" viewBox="0 0 24 24" width="1em" height="1em"><path fill="currentColor" d="M19.098 4.885a10.08 10.08 0 0 0-6.189-2.884c-.27-.02-.426.307-.232.5l3.617 3.596c.019.019 0 .057-.039.038a6.995 6.995 0 0 0-3.443-1.288c-.193-.02-.29.211-.154.346l2.475 2.461c.02.02 0 .058-.038.039a4.8 4.8 0 0 0-2.244-.808c-.135-.02-.213.154-.116.23l4.197 4.174a.135.135 0 0 0 .232-.116 4.737 4.737 0 0 0-.812-2.23c-.02-.02.019-.058.038-.039l2.38 2.365c.135.135.367.02.347-.154a6.637 6.637 0 0 0-1.276-3.403c-.02-.02.02-.058.039-.039l3.616 3.596c.194.193.522.039.503-.25a9.973 9.973 0 0 0-2.901-6.134Zm-14.196 0a10.08 10.08 0 0 1 6.189-2.884c.27-.02.426.307.232.5L7.706 6.097c-.019.019 0 .057.039.038a6.995 6.995 0 0 1 3.443-1.288c.193-.02.29.211.154.346L8.867 7.654c-.02.02 0 .058.038.039a4.8 4.8 0 0 1 2.244-.808c.135-.02.213.154.116.23l-4.197 4.193a.135.135 0 0 1-.232-.116 4.737 4.737 0 0 1 .812-2.23c.02-.02-.019-.058-.038-.039L5.23 11.29c-.135.134-.367.019-.347-.154a6.839 6.839 0 0 1 1.295-3.423c.02-.02-.019-.058-.038-.039L2.504 11.27c-.194.193-.523.039-.503-.25a9.973 9.973 0 0 1 2.9-6.134Zm0 14.23a10.08 10.08 0 0 0 6.189 2.884c.27.02.426-.307.232-.5l-3.617-3.596c-.019-.019 0-.057.039-.038a6.994 6.994 0 0 0 3.443 1.288c.193.02.29-.211.154-.346l-2.475-2.461c-.02-.02 0-.058.038-.039a4.8 4.8 0 0 0 2.244.808c.135.02.213-.154.116-.23l-4.197-4.193a.135.135 0 0 0-.232.116c.077.788.348 1.557.812 2.23.02.02-.019.058-.038.039L5.23 12.71c-.135-.134-.367-.019-.347.154a6.839 6.839 0 0 0 1.295 3.423c.02.02-.019.058-.038.039L2.504 12.73c-.194-.193-.523-.039-.503.25a9.973 9.973 0 0 0 2.9 6.134Zm14.196 0a10.08 10.08 0 0 1-6.189 2.884c-.27.02-.426-.307-.232-.5l3.617-3.596c.019-.019 0-.057-.039-.038a6.994 6.994 0 0 1-3.443 1.288c-.193.02-.29-.211-.154-.346l2.475-2.461c.02-.02 0-.058-.038-.039a4.8 4.8 0 0 1-2.244.808c-.135.02-.213-.154-.116-.23l4.197-4.174a.135.135 0 0 1 .232.116 4.737 4.737 0 0 1-.812 2.23c-.02.02.019.058.038.039l2.38-2.365c.135-.135.367-.02.347.153a6.764 6.764 0 0 1-1.276 3.423c-.02.02.02.058.039.039l3.616-3.596c.194-.192.522-.039.503.25a9.973 9.973 0 0 1-2.901 6.115Zm-8.616-8.965c.245 0 .458.027.638.082a1.98 1.98 0 0 1 .753.419l.16.159-.479.423a1.474 1.474 0 0 0-.401-.319 1.35 1.35 0 0 0-.671-.159c-.173 0-.334.031-.484.093a1.065 1.065 0 0 0-.385.264c-.11.114-.197.255-.259.424a1.596 1.596 0 0 0-.093.566c0 .213.03.404.093.572.066.165.154.307.264.424.114.114.246.202.396.264.154.059.32.088.495.088.176 0 .323-.015.44-.044a1.42 1.42 0 0 0 .286-.099.67.67 0 0 0 .204-.143v-.698h-.913v-.556h1.606v1.524c-.033.033-.09.084-.17.154-.078.07-.184.14-.32.214a2.57 2.57 0 0 1-.484.187 2.58 2.58 0 0 1-.665.077c-.268 0-.523-.042-.765-.127a1.806 1.806 0 0 1-.627-.373 1.838 1.838 0 0 1-.423-.611 2.181 2.181 0 0 1-.154-.847c0-.304.051-.578.154-.82a1.9 1.9 0 0 1 .423-.616c.18-.168.387-.296.622-.385.238-.091.491-.137.759-.137Zm2.123 2.53c0-.209.037-.4.11-.572a1.31 1.31 0 0 1 .303-.44c.132-.121.286-.214.462-.28.176-.066.367-.1.572-.1.205 0 .394.034.566.1.176.066.329.159.457.28.132.121.235.268.308.44.073.172.11.363.11.572 0 .209-.037.4-.11.572a1.345 1.345 0 0 1-.764.715 1.655 1.655 0 0 1-.567.093c-.205 0-.396-.03-.572-.093a1.407 1.407 0 0 1-.462-.28 1.304 1.304 0 0 1-.303-.435 1.447 1.447 0 0 1-.11-.572Zm1.447.797c.227 0 .403-.077.528-.23a.91.91 0 0 0 .187-.583.888.888 0 0 0-.187-.578c-.125-.154-.3-.231-.528-.231-.231 0-.409.077-.534.231a.906.906 0 0 0-.181.578c0 .23.06.425.181.582.125.154.303.231.534.231Z"/></svg>
