<svg xmlns="http://www.w3.org/2000/svg" fill="none" viewBox="0 0 16 16" width="1em" height="1em"><path fill="currentColor" d="M6.344 5.8c.268 0 .5.03.696.09.196.06.362.132.498.216.136.08.244.16.324.24l.174.174-.522.462a1.605 1.605 0 0 0-.438-.348 1.477 1.477 0 0 0-.732-.174c-.188 0-.364.034-.528.102-.16.064-.3.16-.42.288-.12.124-.214.278-.282.462-.068.18-.102.386-.102.618 0 .232.034.44.102.624.072.18.168.334.288.462.124.124.268.22.432.288.168.064.348.096.54.096.192 0 .352-.016.48-.048s.232-.068.312-.108a.73.73 0 0 0 .222-.156v-.762h-.996V7.72h1.752v1.662a3.896 3.896 0 0 1-.186.168c-.084.076-.2.154-.348.234-.144.076-.32.144-.528.204-.208.056-.45.084-.726.084-.292 0-.57-.046-.834-.138a1.971 1.971 0 0 1-.684-.408 2.005 2.005 0 0 1-.462-.666 2.38 2.38 0 0 1-.168-.924c0-.332.056-.63.168-.894.116-.264.27-.488.462-.672.196-.184.422-.324.678-.42.26-.1.536-.15.828-.15ZM8.66 8.56c0-.228.04-.436.12-.624.08-.188.19-.348.33-.48.144-.132.312-.234.504-.306.192-.072.4-.108.624-.108.224 0 .43.036.618.108.192.072.358.174.498.306.144.132.256.292.336.48.08.188.12.396.12.624 0 .228-.04.436-.12.624a1.468 1.468 0 0 1-.834.78 1.805 1.805 0 0 1-.618.102c-.224 0-.432-.034-.624-.102a1.535 1.535 0 0 1-.504-.306c-.14-.132-.25-.29-.33-.474a1.578 1.578 0 0 1-.12-.624Zm1.578.87c.248 0 .44-.084.576-.252a.994.994 0 0 0 .204-.636.969.969 0 0 0-.204-.63c-.136-.168-.328-.252-.576-.252-.252 0-.446.084-.582.252a.988.988 0 0 0-.198.63c0 .252.066.464.198.636.136.168.33.252.582.252Z"/><path stroke="currentColor" d="M1.618 9.193a1.5 1.5 0 0 1 0-2.122L6.92 1.768a1.5 1.5 0 0 1 2.121 0l5.304 5.303a1.5 1.5 0 0 1 0 2.122l-5.304 5.303a1.5 1.5 0 0 1-2.12 0L1.617 9.193Z"/></svg>
