<svg xmlns="http://www.w3.org/2000/svg" fill="none" viewBox="0 0 24 24" width="1em" height="1em"><path fill="currentColor" d="M19.098 4.885a10.08 10.08 0 0 0-6.189-2.884c-.27-.02-.426.307-.232.5l3.617 3.596c.019.019 0 .057-.039.038a7 7 0 0 0-3.443-1.288c-.193-.02-.29.211-.154.346l2.475 2.461c.02.02 0 .058-.038.039a4.8 4.8 0 0 0-2.244-.808c-.135-.02-.213.154-.116.23l4.197 4.174a.135.135 0 0 0 .232-.116 4.74 4.74 0 0 0-.812-2.23c-.02-.02.019-.058.038-.039l2.38 2.365c.135.135.367.02.347-.154a6.64 6.64 0 0 0-1.276-3.403c-.02-.02.02-.058.039-.039l3.616 3.596c.194.193.522.039.503-.25a9.97 9.97 0 0 0-2.901-6.134m-14.196 0a10.08 10.08 0 0 1 6.189-2.884c.27-.02.426.307.232.5L7.706 6.097c-.019.019 0 .057.039.038a7 7 0 0 1 3.443-1.288c.193-.02.29.211.154.346L8.867 7.654c-.02.02 0 .058.038.039a4.8 4.8 0 0 1 2.244-.808c.135-.02.213.154.116.23l-4.197 4.193a.135.135 0 0 1-.232-.116 4.74 4.74 0 0 1 .812-2.23c.02-.02-.019-.058-.038-.039L5.23 11.29c-.135.134-.367.019-.347-.154a6.84 6.84 0 0 1 1.295-3.423c.02-.02-.019-.058-.038-.039L2.504 11.27c-.194.193-.523.039-.503-.25a9.97 9.97 0 0 1 2.9-6.134m0 14.23A10.08 10.08 0 0 0 11.09 22c.27.02.426-.307.232-.5l-3.617-3.596c-.019-.019 0-.057.039-.038a7 7 0 0 0 3.443 1.288c.193.02.29-.211.154-.346l-2.475-2.461c-.02-.02 0-.058.038-.039a4.8 4.8 0 0 0 2.244.808c.135.02.213-.154.116-.23l-4.197-4.193a.135.135 0 0 0-.232.116c.077.788.348 1.557.812 2.23.02.02-.019.058-.038.039L5.23 12.71c-.135-.134-.367-.019-.347.154a6.84 6.84 0 0 0 1.295 3.423c.02.02-.019.058-.038.039L2.504 12.73c-.194-.193-.523-.039-.503.25a9.97 9.97 0 0 0 2.9 6.134m14.196 0a10.08 10.08 0 0 1-6.189 2.884c-.27.02-.426-.307-.232-.5l3.617-3.596c.019-.019 0-.057-.039-.038a7 7 0 0 1-3.443 1.288c-.193.02-.29-.211-.154-.346l2.475-2.461c.02-.02 0-.058-.038-.039a4.8 4.8 0 0 1-2.244.808c-.135.02-.213-.154-.116-.23l4.197-4.174a.135.135 0 0 1 .232.116 4.74 4.74 0 0 1-.812 2.23c-.02.02.019.058.038.039l2.38-2.365c.135-.135.367-.02.347.153a6.76 6.76 0 0 1-1.276 3.423c-.02.02.02.058.039.039l3.616-3.596c.194-.192.522-.039.503.25a9.97 9.97 0 0 1-2.901 6.115m-8.615-8.964q.368 0 .638.082.27.084.456.199.188.11.297.22l.16.159-.479.423a1.5 1.5 0 0 0-.401-.319 1.35 1.35 0 0 0-.671-.159q-.26 0-.484.093a1.1 1.1 0 0 0-.385.264q-.165.17-.259.424a1.6 1.6 0 0 0-.093.566q0 .32.093.572.099.248.264.424.171.171.396.264.232.088.495.088.264 0 .44-.044a1.4 1.4 0 0 0 .286-.099.7.7 0 0 0 .204-.143v-.698h-.913v-.556h1.606v1.524q-.05.05-.17.154-.116.104-.32.214a2.6 2.6 0 0 1-.484.187q-.285.077-.665.077-.402 0-.765-.127a1.8 1.8 0 0 1-.627-.373 1.8 1.8 0 0 1-.423-.611 2.2 2.2 0 0 1-.154-.847q0-.457.154-.82a1.9 1.9 0 0 1 .423-.616q.27-.252.622-.385.357-.137.759-.137m2.123 2.53q0-.314.11-.572.111-.258.303-.44.198-.181.462-.28t.572-.1.566.1q.265.099.457.28.198.182.308.44t.11.572-.11.572a1.35 1.35 0 0 1-.764.715 1.7 1.7 0 0 1-.567.093q-.308 0-.572-.093a1.4 1.4 0 0 1-.462-.28 1.3 1.3 0 0 1-.303-.435 1.45 1.45 0 0 1-.11-.572m1.447.797q.34 0 .528-.23a.9.9 0 0 0 .187-.583.9.9 0 0 0-.187-.578q-.187-.231-.528-.231-.347 0-.534.231a.9.9 0 0 0-.181.578q0 .346.181.582.188.231.534.231"/></svg>
