<svg xmlns="http://www.w3.org/2000/svg" fill="none" viewBox="0 0 16 16" width="1em" height="1em"><path fill="currentColor" d="M6.344 5.8q.402 0 .696.09t.498.216q.204.12.324.24l.174.174-.522.462a1.6 1.6 0 0 0-.438-.348 1.5 1.5 0 0 0-.732-.174q-.282 0-.528.102-.24.096-.42.288-.18.186-.282.462-.102.27-.102.618t.102.624q.108.27.288.462.186.186.432.288.252.096.54.096t.48-.048.312-.108a.7.7 0 0 0 .222-.156v-.762h-.996V7.72h1.752v1.662a4 4 0 0 1-.186.168q-.126.114-.348.234-.216.114-.528.204-.312.084-.726.084-.438 0-.834-.138a2 2 0 0 1-.684-.408 2 2 0 0 1-.462-.666 2.4 2.4 0 0 1-.168-.924q0-.498.168-.894.174-.396.462-.672.294-.276.678-.42.39-.15.828-.15M8.66 8.56q0-.342.12-.624t.33-.48q.216-.198.504-.306t.624-.108.618.108q.288.108.498.306.216.198.336.48t.12.624-.12.624q-.12.276-.336.474-.21.198-.498.306a1.8 1.8 0 0 1-.618.102q-.336 0-.624-.102a1.5 1.5 0 0 1-.504-.306q-.21-.198-.33-.474a1.6 1.6 0 0 1-.12-.624m1.578.87q.372 0 .576-.252a1 1 0 0 0 .204-.636.97.97 0 0 0-.204-.63q-.204-.252-.576-.252-.378 0-.582.252a1 1 0 0 0-.198.63q0 .378.198.636.204.252.582.252"/><path stroke="currentColor" d="M1.618 9.193a1.5 1.5 0 0 1 0-2.122L6.92 1.768a1.5 1.5 0 0 1 2.121 0l5.304 5.303a1.5 1.5 0 0 1 0 2.122l-5.304 5.303a1.5 1.5 0 0 1-2.12 0z"/></svg>
