<svg xmlns="http://www.w3.org/2000/svg" fill="none" viewBox="0 0 24 24" width="1em" height="1em"><path fill="currentColor" d="m14 3 .53-.53a.75.75 0 0 0-.53-.22zm5 5h.75a.75.75 0 0 0-.22-.53zm-7 13.75a.75.75 0 0 0 0-1.5zM5 19h-.75zM7 3v-.75zm11.25 9.5a.75.75 0 0 0 1.5 0zm.78 6.47a.75.75 0 1 0-1.06 1.06zm1.44 3.56a.75.75 0 1 0 1.06-1.06zM13.25 3v4h1.5V3zm0 4c0 .464.184.91.513 1.237l1.06-1.06A.25.25 0 0 1 14.75 7zm.513 1.237A1.75 1.75 0 0 0 15 8.75v-1.5a.25.25 0 0 1-.177-.073zM15 8.75h4v-1.5h-4zm-3 11.5H7v1.5h5zm-5 0a1.25 1.25 0 0 1-.884-.366l-1.06 1.06A2.75 2.75 0 0 0 7 21.75zm-.884-.366A1.25 1.25 0 0 1 5.75 19h-1.5c0 .73.29 1.429.805 1.945zM5.75 19V5h-1.5v14zm0-14c0-.332.132-.65.366-.884l-1.06-1.06A2.75 2.75 0 0 0 4.25 5zm.366-.884A1.25 1.25 0 0 1 7 3.75v-1.5c-.73 0-1.429.29-1.945.805zM7 3.75h7v-1.5H7zm6.47-.22 5 5 1.06-1.06-5-5zM18.25 8v4.5h1.5V8zm-5 9.5c0 .862.342 1.689.952 2.298l1.06-1.06a1.75 1.75 0 0 1-.512-1.238zm.952 2.298a3.25 3.25 0 0 0 2.298.952v-1.5a1.75 1.75 0 0 1-1.237-.513zm2.298.952a3.25 3.25 0 0 0 2.298-.952l-1.06-1.06a1.75 1.75 0 0 1-1.238.512zm2.298-.952a3.25 3.25 0 0 0 .952-2.298h-1.5c0 .464-.184.91-.513 1.237zm.952-2.298a3.25 3.25 0 0 0-.952-2.298l-1.06 1.06c.328.329.512.774.512 1.238zm-.952-2.298a3.25 3.25 0 0 0-2.298-.952v1.5c.464 0 .91.184 1.237.513zM16.5 14.25a3.25 3.25 0 0 0-2.298.952l1.06 1.06a1.75 1.75 0 0 1 1.238-.512zm-2.298.952a3.25 3.25 0 0 0-.952 2.298h1.5c0-.464.184-.91.513-1.237zm3.768 4.828 2.5 2.5 1.06-1.06-2.5-2.5z"/></svg>
