<svg xmlns="http://www.w3.org/2000/svg" fill="none" viewBox="0 0 16 16" width="1em" height="1em"><path fill="currentColor" d="m9.333 2 .354-.354a.5.5 0 0 0-.354-.146zm3.334 3.333h.5a.5.5 0 0 0-.147-.353zM8 14.5a.5.5 0 0 0 0-1zm-4.667-1.833h-.5zM4.667 2v-.5zm7.5 6.333a.5.5 0 1 0 1 0zm.52 4.313a.5.5 0 0 0-.707.708zm.96 2.374a.5.5 0 0 0 .707-.707zM8.832 2v2.667h1V2zm0 2.667c0 .31.123.606.342.825l.707-.707a.17.17 0 0 1-.049-.118zm.342.825c.219.218.516.341.825.341v-1a.17.17 0 0 1-.118-.048zm.825.341h2.667v-1H10zM8 13.5H4.667v1H8zm-3.333 0a.83.83 0 0 1-.59-.244l-.707.707c.344.344.81.537 1.297.537zm-.59-.244a.83.83 0 0 1-.244-.59h-1c0 .487.193.953.537 1.297zm-.244-.59V3.334h-1v9.334zm0-9.333c0-.22.088-.433.244-.589l-.707-.707c-.344.344-.537.81-.537 1.296zm.244-.589a.83.83 0 0 1 .59-.244v-1c-.487 0-.953.193-1.297.537zm.59-.244h4.666v-1H4.667zm4.313-.146 3.333 3.333.707-.707-3.333-3.334zm3.187 2.98v3h1v-3zm-3.334 6.333c0 .574.229 1.125.635 1.532l.707-.707a1.17 1.17 0 0 1-.342-.825zm.635 1.532c.406.406.957.634 1.532.634v-1c-.31 0-.606-.123-.825-.341zm1.532.634c.575 0 1.126-.228 1.532-.634l-.707-.707a1.17 1.17 0 0 1-.825.341zm1.532-.634a2.17 2.17 0 0 0 .635-1.532h-1c0 .31-.123.606-.342.825zm.635-1.532c0-.575-.229-1.126-.635-1.532l-.707.707c.219.218.342.515.342.825zm-.635-1.532A2.17 2.17 0 0 0 11 9.5v1c.31 0 .606.123.825.342zM11 9.5c-.575 0-1.126.228-1.532.635l.707.707c.219-.22.516-.342.825-.342zm-1.532.635a2.17 2.17 0 0 0-.635 1.532h1c0-.31.123-.607.342-.825zm2.512 3.219 1.666 1.666.708-.707-1.667-1.667z"/></svg>
