<svg xmlns="http://www.w3.org/2000/svg" fill="none" viewBox="0 0 20 20" width="1em" height="1em"><path fill="currentColor" d="m11.667 2.5.442-.442a.63.63 0 0 0-.442-.183zm4.166 4.167h.625a.63.63 0 0 0-.183-.442zM10 18.125a.625.625 0 1 0 0-1.25zm-5.833-2.292h-.625zM5.833 2.5v-.625zm9.375 7.917a.625.625 0 0 0 1.25 0zm.65 5.391a.625.625 0 0 0-.883.884zm1.2 2.967a.625.625 0 1 0 .884-.884zM11.042 2.5v3.333h1.25V2.5zm0 3.333c0 .387.153.758.427 1.032l.884-.884a.2.2 0 0 1-.061-.148zm.427 1.032c.273.273.644.427 1.031.427v-1.25a.2.2 0 0 1-.147-.061zm1.031.427h3.333v-1.25H12.5zM10 16.875H5.833v1.25H10zm-4.167 0c-.276 0-.54-.11-.736-.305l-.884.884c.43.43 1.013.671 1.62.671zm-.736-.305a1.04 1.04 0 0 1-.305-.737h-1.25c0 .608.241 1.191.67 1.62zm-.305-.737V4.167h-1.25v11.666zm0-11.666c0-.277.11-.542.305-.737l-.884-.884a2.3 2.3 0 0 0-.671 1.62zm.305-.737c.195-.195.46-.305.736-.305v-1.25c-.607 0-1.19.241-1.62.671zm.736-.305h5.834v-1.25H5.833zm5.392-.183 4.166 4.167.884-.884-4.166-4.167zm3.983 3.725v3.75h1.25v-3.75zm-4.166 7.916c0 .719.285 1.408.793 1.915l.884-.884a1.46 1.46 0 0 1-.427-1.03zm.793 1.915a2.7 2.7 0 0 0 1.915.794v-1.25c-.387 0-.758-.154-1.031-.428zm1.915.794a2.7 2.7 0 0 0 1.915-.794l-.884-.884a1.46 1.46 0 0 1-1.031.428zm1.915-.794a2.7 2.7 0 0 0 .793-1.915h-1.25c0 .387-.153.758-.427 1.031zm.793-1.915c0-.718-.285-1.407-.793-1.915l-.884.884c.274.274.427.645.427 1.031zm-.793-1.915a2.7 2.7 0 0 0-1.915-.793v1.25c.387 0 .758.154 1.031.427zm-1.915-.793c-.718 0-1.407.285-1.915.793l.884.884a1.46 1.46 0 0 1 1.031-.427zm-1.915.793a2.7 2.7 0 0 0-.793 1.915h1.25c0-.386.153-.757.427-1.03zm3.14 4.024 2.083 2.083.884-.884-2.083-2.083z"/></svg>
