<svg xmlns="http://www.w3.org/2000/svg" fill="none" viewBox="0 0 32 32" width="1em" height="1em"><path fill="currentColor" d="m18.667 4 .707-.707A1 1 0 0 0 18.667 3zm6.666 6.667h1a1 1 0 0 0-.293-.707zM16 29a1 1 0 1 0 0-2zm-9.333-3.667h-1zM9.333 4V3zm15 12.667a1 1 0 1 0 2 0zm1.04 8.626a1 1 0 0 0-1.413 1.414zm1.92 4.747a1 1 0 1 0 1.414-1.414zM17.667 4v5.333h2V4zm0 5.333c0 .62.245 1.213.683 1.65l1.414-1.414a.33.33 0 0 1-.097-.236zm.683 1.65a2.33 2.33 0 0 0 1.65.684v-2a.33.33 0 0 1-.236-.098zm1.65.684h5.333v-2H20zM16 27H9.333v2H16zm-6.667 0c-.442 0-.866-.176-1.178-.488L6.74 27.926A3.67 3.67 0 0 0 9.333 29zm-1.178-.488a1.67 1.67 0 0 1-.488-1.179h-2c0 .973.386 1.905 1.074 2.593zm-.488-1.179V6.667h-2v18.666zm0-18.666c0-.442.175-.866.488-1.179L6.74 4.074a3.67 3.67 0 0 0-1.074 2.593zm.488-1.179A1.67 1.67 0 0 1 9.333 5V3c-.972 0-1.905.386-2.592 1.074zM9.333 5h9.334V3H9.333zm8.627-.293 6.666 6.667L26.04 9.96l-6.666-6.667zm6.373 5.96v6h2v-6zm-6.666 12.666c0 1.15.456 2.252 1.269 3.065l1.414-1.415a2.33 2.33 0 0 1-.683-1.65zm1.269 3.065A4.33 4.33 0 0 0 22 27.667v-2a2.33 2.33 0 0 1-1.65-.684zM22 27.667a4.33 4.33 0 0 0 3.064-1.27l-1.414-1.414a2.33 2.33 0 0 1-1.65.684zm3.064-1.27a4.33 4.33 0 0 0 1.27-3.064h-2c0 .62-.247 1.213-.684 1.65zm1.27-3.064a4.33 4.33 0 0 0-1.27-3.064l-1.414 1.414c.438.438.683 1.032.683 1.65zm-1.27-3.064A4.33 4.33 0 0 0 22 19v2c.619 0 1.212.246 1.65.683zM22 19c-1.15 0-2.251.456-3.064 1.27l1.414 1.413A2.33 2.33 0 0 1 22 21zm-3.064 1.27a4.33 4.33 0 0 0-1.27 3.063h2c0-.618.247-1.212.684-1.65zm5.024 6.437 3.333 3.333 1.414-1.414-3.333-3.333z"/></svg>
