<svg xmlns="http://www.w3.org/2000/svg" fill="none" viewBox="0 0 16 16" width="1em" height="1em"><path stroke="currentColor" stroke-linecap="round" stroke-linejoin="round" d="m12.5 4.5 2 2-2 2"/><path stroke="currentColor" stroke-linecap="round" d="M4 8.5h.5a1 1 0 0 0 1-1V4A2.5 2.5 0 0 1 8 1.5v0A2.5 2.5 0 0 1 10.5 4v4.5a2 2 0 0 1-2 2h-2a2 2 0 0 0-2 2v0a2 2 0 0 0 2 2h.214c1.694 0 2.76-1.824 1.93-3.3l-.967-1.72C6.927 8.148 7.89 6.5 9.42 6.5h5.08"/><path stroke="currentColor" d="M3.5 8.5a1 1 0 1 1-2 0 1 1 0 0 1 2 0Z"/></svg>
