<svg xmlns="http://www.w3.org/2000/svg" fill="none" viewBox="0 0 24 24" width="1em" height="1em"><path stroke="currentColor" stroke-linecap="round" stroke-linejoin="round" d="m18.5 6.5 3 3-3 3"/><path stroke="currentColor" stroke-linecap="round" d="M5.5 12v0a2 2 0 0 0 2-2V7.5a4 4 0 0 1 4-4v0a4 4 0 0 1 4 4v7.858c0 1.824-2.242 2.696-3.474 1.352l-1.097-1.197A3.126 3.126 0 0 0 8.625 14.5H8.5a3 3 0 0 0-3 3v0a3 3 0 0 0 3 3v0a3 3 0 0 0 3-3v-5a3 3 0 0 1 3-3H21"/><path stroke="currentColor" d="M5.5 12a1.5 1.5 0 1 1-3 0 1.5 1.5 0 0 1 3 0Z"/></svg>
