<svg xmlns="http://www.w3.org/2000/svg" fill="none" viewBox="0 0 32 32" width="1em" height="1em"><path stroke="currentColor" stroke-linecap="round" stroke-linejoin="round" d="m26 7.5 4 4-4 4"/><path stroke="currentColor" stroke-linecap="round" d="M8.5 12.5h1.333c.92 0 1.667-.746 1.667-1.667V8.5a6 6 0 0 1 6-6v0a6 6 0 0 1 6 6v12.838c0 2.2-2.834 3.088-4.09 1.282l-2.215-3.183A5.68 5.68 0 0 0 12.532 17v0A5.03 5.03 0 0 0 7.5 22.032v2.386a5.08 5.08 0 0 0 5.082 5.082v0a4.92 4.92 0 0 0 4.918-4.918V14.5a3 3 0 0 1 3-3h9"/><path stroke="currentColor" d="M8.5 12.5a3 3 0 1 1-6 0 3 3 0 0 1 6 0Z"/></svg>
