<svg xmlns="http://www.w3.org/2000/svg" fill="none" viewBox="0 0 24 24" width="1em" height="1em"><path stroke="currentColor" stroke-linecap="round" stroke-linejoin="round" d="M19.236 15.267c0 .843-.666 1.508-1.467 1.508-.8 0-1.466-.665-1.466-1.508 0-.842.666-1.508 1.466-1.508s1.467.666 1.467 1.508"/><path stroke="currentColor" stroke-linecap="round" d="M17.276 18.5h1.918c1.121 0 2.03.91 2.03 2.03v.97"/><path stroke="currentColor" stroke-linecap="round" stroke-linejoin="round" d="M4.456 15.267c0 .843.667 1.508 1.467 1.508s1.467-.665 1.467-1.508c0-.842-.667-1.508-1.467-1.508s-1.467.666-1.467 1.508"/><path stroke="currentColor" stroke-linecap="round" d="M6.417 18.5H4.499a2.03 2.03 0 0 0-2.031 2.03v.97"/><path stroke="currentColor" stroke-linecap="round" stroke-linejoin="round" d="M8.391 21.5v-.97c0-1.12.91-2.03 2.03-2.03h2.85c1.121 0 2.03.91 2.03 2.03v.97m-1.495-6.737c0 1.121-.887 2.012-1.96 2.012s-1.96-.89-1.96-2.012c0-1.12.887-2.011 1.96-2.011s1.96.89 1.96 2.011"/><path stroke="currentColor" d="M21.224 6.802v5.343a.695.695 0 0 1-1.191.486l-.485-.494a1 1 0 0 0-.725-.305h-4.48a1.015 1.015 0 0 1-1.016-1.015V6.802c0-.561.454-1.016 1.015-1.016h5.867c.56 0 1.015.455 1.015 1.016Z"/><path stroke="currentColor" stroke-linecap="round" d="M16.288 4.275v-.496c0-.561-.454-1.016-1.015-1.016H4.47c-.56 0-1.015.455-1.015 1.016v7.038c0 .56.455 1.015 1.015 1.015h.04c.272 0 .533-.11.724-.305l.39-.398c.191-.195.453-.305.726-.305h5.002"/><circle cx="1" cy="1" r=".5" stroke="currentColor" transform="matrix(-1.01539 0 0 1.01539 9.138 5.325)"/><path stroke="currentColor" stroke-linecap="round" d="m7.625 6.462 1.016 1.759"/><circle cx="1" cy="1" r=".5" stroke="currentColor" transform="matrix(-1.01539 0 0 1.01539 12.184 5.325)"/><path stroke="currentColor" stroke-linecap="round" d="m10.672 6.462 1.015 1.759"/></svg>
