<svg viewBox="0 0 24 24" fill="none" xmlns="http://www.w3.org/2000/svg" width="1em" height="1em"><path d="M19.5 15.267C19.5 16.1074 18.8248 16.7822 18 16.7822C17.1752 16.7822 16.5 16.1074 16.5 15.267C16.5 14.4265 17.1752 13.7517 18 13.7517C18.8248 13.7517 19.5 14.4265 19.5 15.267Z" stroke="currentColor" stroke-linecap="round" stroke-linejoin="round"/><path d="M17.5 18.4998H19.5C20.6046 18.4998 21.5 19.3952 21.5 20.4998C21.5 20.8694 21.5 21.2249 21.5 21.4998" stroke="currentColor" stroke-linecap="round"/><path d="M4.5 15.267C4.5 16.1074 5.17515 16.7822 6 16.7822C6.82485 16.7822 7.5 16.1074 7.5 15.267C7.5 14.4265 6.82485 13.7517 6 13.7517C5.17515 13.7517 4.5 14.4265 4.5 15.267Z" stroke="currentColor" stroke-linecap="round" stroke-linejoin="round"/><path d="M6.5 18.4998H4.5C3.39543 18.4998 2.5 19.3952 2.5 20.4998C2.5 20.8694 2.5 21.2249 2.5 21.4998" stroke="currentColor" stroke-linecap="round"/><path d="M8.5 21.5V20.5C8.5 19.3954 9.39543 18.5 10.5 18.5H13.5C14.6046 18.5 15.5 19.3954 15.5 20.5V21.5" stroke="currentColor" stroke-linecap="round" stroke-linejoin="round"/><path d="M14 14.7632C14 15.8819 13.101 16.7823 12 16.7823C10.899 16.7823 10 15.8819 10 14.7632C10 13.6445 10.899 12.7441 12 12.7441C13.101 12.7441 14 13.6445 14 14.7632Z" stroke="currentColor" stroke-linecap="round" stroke-linejoin="round"/><path d="M21.5 6.78613V12.1336C21.5 12.5235 21.1839 12.8396 20.794 12.8396C20.6058 12.8396 20.4254 12.7644 20.2929 12.6309L19.7933 12.1275C19.6056 11.9383 19.3501 11.8319 19.0836 11.8319H14.5C13.9477 11.8319 13.5 11.3842 13.5 10.8319V6.78613C13.5 6.23385 13.9477 5.78613 14.5 5.78613H20.5C21.0523 5.78613 21.5 6.23385 21.5 6.78613Z" stroke="currentColor"/><path d="M16.5 4.27463V3.76318C16.5 3.2109 16.0523 2.76318 15.5 2.76318H4.5C3.94772 2.76318 3.5 3.2109 3.5 3.76318L3.5 10.8319C3.5 11.3842 3.94772 11.8319 4.5 11.8319H4.58356C4.85009 11.8319 5.1056 11.7255 5.29335 11.5363L5.70665 11.1198C5.8944 10.9307 6.14991 10.8243 6.41644 10.8243H11.5" stroke="currentColor" stroke-linecap="round"/><circle r="0.5" transform="matrix(-1 0 0 1 8 6.24414)" stroke="currentColor"/><path d="M7.51001 6.36426L8.51001 8.09631" stroke="currentColor" stroke-linecap="round"/><circle r="0.5" transform="matrix(-1 0 0 1 11 6.24414)" stroke="currentColor"/><path d="M10.51 6.36426L11.51 8.09631" stroke="currentColor" stroke-linecap="round"/></svg>
