<svg xmlns="http://www.w3.org/2000/svg" fill="none" viewBox="0 0 24 24" width="1em" height="1em"><path stroke="currentColor" stroke-linecap="round" stroke-linejoin="round" d="M19.5 15.267c0 .84-.675 1.515-1.5 1.515s-1.5-.674-1.5-1.515c0-.84.675-1.515 1.5-1.515s1.5.675 1.5 1.515Z"/><path stroke="currentColor" stroke-linecap="round" d="M17.5 18.5h2a2 2 0 0 1 2 2v1"/><path stroke="currentColor" stroke-linecap="round" stroke-linejoin="round" d="M4.5 15.267c0 .84.675 1.515 1.5 1.515s1.5-.674 1.5-1.515c0-.84-.675-1.515-1.5-1.515s-1.5.675-1.5 1.515Z"/><path stroke="currentColor" stroke-linecap="round" d="M6.5 18.5h-2a2 2 0 0 0-2 2v1"/><path stroke="currentColor" stroke-linecap="round" stroke-linejoin="round" d="M8.5 21.5v-1a2 2 0 0 1 2-2h3a2 2 0 0 1 2 2v1M14 14.763a2.01 2.01 0 0 1-2 2.02c-1.101 0-2-.901-2-2.02a2.01 2.01 0 0 1 2-2.019c1.101 0 2 .9 2 2.02Z"/><path stroke="currentColor" d="M21.5 6.786v5.348a.706.706 0 0 1-1.207.497l-.5-.503a1 1 0 0 0-.71-.296H14.5a1 1 0 0 1-1-1V6.786a1 1 0 0 1 1-1h6a1 1 0 0 1 1 1Z"/><path stroke="currentColor" stroke-linecap="round" d="M16.5 4.275v-.512a1 1 0 0 0-1-1h-11a1 1 0 0 0-1 1v7.069a1 1 0 0 0 1 1h.084a1 1 0 0 0 .71-.296l.413-.416a1 1 0 0 1 .71-.296H11.5"/><circle cx="1" cy="1" r=".5" stroke="currentColor" transform="matrix(-1 0 0 1 9 5.244)"/><path stroke="currentColor" stroke-linecap="round" d="m7.51 6.364 1 1.732"/><circle cx="1" cy="1" r=".5" stroke="currentColor" transform="matrix(-1 0 0 1 12 5.244)"/><path stroke="currentColor" stroke-linecap="round" d="m10.51 6.364 1 1.732"/></svg>
