<svg xmlns="http://www.w3.org/2000/svg" fill="none" viewBox="0 0 16 16" width="1em" height="1em"><path stroke="currentColor" stroke-linecap="round" stroke-linejoin="round" d="M13.5 8.927a1 1 0 1 1-2 0 1 1 0 0 1 2 0Z"/><path stroke="currentColor" stroke-linecap="round" d="M12.5 11.5h1a1 1 0 0 1 1 1v.928"/><path stroke="currentColor" stroke-linecap="round" stroke-linejoin="round" d="M2 8.927a1 1 0 1 0 2 0 1 1 0 0 0-2 0Z"/><path stroke="currentColor" stroke-linecap="round" d="M3.5 11.5h-1a1 1 0 0 0-1 1v.928"/><path stroke="currentColor" stroke-linecap="round" stroke-linejoin="round" d="M9.5 9a1.5 1.5 0 1 1-3 0 1.5 1.5 0 0 1 3 0Z"/><path stroke="currentColor" stroke-linecap="round" d="M5.5 15v-.5a2 2 0 0 1 2-2H9a2 2 0 0 1 2 2v.5"/><path stroke="currentColor" stroke-linecap="round" stroke-linejoin="round" d="M4.5 6.242V2c0-.278.224-.504.5-.504h6c.276 0 .5.226.5.504v3a.502.502 0 0 1-.5.504H6.651a.995.995 0 0 0-.554.17l-1.181.792a.266.266 0 0 1-.416-.224Z"/></svg>
