<svg viewBox="0 0 32 32" fill="none" xmlns="http://www.w3.org/2000/svg" stroke="currentColor" width="1em" height="1em"><path d="M4.5 20C4.5 21.3807 5.61929 22.5 7 22.5C8.38071 22.5 9.5 21.3807 9.5 20C9.5 18.6193 8.38071 17.5 7 17.5C5.61929 17.5 4.5 18.6193 4.5 20Z" stroke-linecap="round" stroke-linejoin="round"/><path d="M8.5 24.5H4.5C3.39543 24.5 2.5 25.3954 2.5 26.5V28.5" stroke-linecap="round"/><path d="M27.5 20C27.5 21.3807 26.3807 22.5 25 22.5C23.6193 22.5 22.5 21.3807 22.5 20C22.5 18.6193 23.6193 17.5 25 17.5C26.3807 17.5 27.5 18.6193 27.5 20Z" stroke-linecap="round" stroke-linejoin="round"/><path d="M23.5 24.5H27.5C28.6046 24.5 29.5 25.3954 29.5 26.5V28.5" stroke-linecap="round"/><path d="M10.5 29.5V27.7857C10.5 26.5233 11.3954 25.5 12.5 25.5H19.5C20.6046 25.5 21.5 26.5233 21.5 27.7857V29.5" stroke-linecap="round" stroke-linejoin="round"/><path d="M19.5 20C19.5 21.933 17.933 23.5 16 23.5C14.067 23.5 12.5 21.933 12.5 20C12.5 18.067 14.067 16.5 16 16.5C17.933 16.5 19.5 18.067 19.5 20Z" stroke-linecap="round" stroke-linejoin="round"/><path d="M22 5.03813C22 5.31427 22.2239 5.53813 22.5 5.53813C22.7761 5.53813 23 5.31427 23 5.03813H22ZM15.5 15.1106C15.7761 15.1106 16 14.8868 16 14.6106C16 14.3345 15.7761 14.1106 15.5 14.1106V15.1106ZM3 15.6274V4.51904H2V15.6274H3ZM4.5 3.01904H20.5V2.01904H4.5V3.01904ZM22 4.51904V5.03813H23V4.51904H22ZM4.70054 16.5221L5.60119 15.3121L4.79901 14.715L3.89835 15.9251L4.70054 16.5221ZM6.00228 15.1106H15.5V14.1106H6.00228V15.1106ZM3.49848 17.1259C3.97206 17.1259 4.41777 16.902 4.70054 16.5221L3.89835 15.9251C3.80429 16.0514 3.65602 16.1259 3.49848 16.1259V17.1259ZM20.5 3.01904C21.3284 3.01904 22 3.69062 22 4.51904H23C23 3.13833 21.8807 2.01904 20.5 2.01904V3.01904ZM3 4.51904C3 3.69062 3.67157 3.01904 4.5 3.01904V2.01904C3.11929 2.01904 2 3.13833 2 4.51904H3ZM5.60119 15.3121C5.69554 15.1853 5.84426 15.1106 6.00228 15.1106V14.1106C5.52822 14.1106 5.08206 14.3347 4.79901 14.715L5.60119 15.3121ZM2 15.6274C2 16.455 2.67089 17.1259 3.49848 17.1259V16.1259C3.22318 16.1259 3 15.9027 3 15.6274H2Z" fill="#282829"/><path d="M17.5 8.54956V12.6106C17.5 13.7152 18.3954 14.6106 19.5 14.6106H26.5217C26.8242 14.6106 27.1104 14.7475 27.3002 14.9829L28.4473 16.4055C28.5597 16.5449 28.7291 16.6259 28.9081 16.6259C29.235 16.6259 29.5 16.3609 29.5 16.034V8.54956C29.5 7.44499 28.6046 6.54956 27.5 6.54956H19.5C18.3954 6.54956 17.5 7.44499 17.5 8.54956Z" stroke-linejoin="round"/><path d="M22.5 10.0762C22.5 10.3602 22.2726 10.5839 22 10.5839C21.7274 10.5839 21.5 10.3602 21.5 10.0762C21.5 9.79229 21.7274 9.5686 22 9.5686C22.2726 9.5686 22.5 9.79229 22.5 10.0762Z"/><path d="M22.49 10.1973L21.49 11.9425" stroke-linecap="round"/><path d="M25.5 10.0762C25.5 10.3602 25.2726 10.5839 25 10.5839C24.7274 10.5839 24.5 10.3602 24.5 10.0762C24.5 9.79229 24.7274 9.5686 25 9.5686C25.2726 9.5686 25.5 9.79229 25.5 10.0762Z"/><path d="M25.49 10.1973L24.49 11.9425" stroke-linecap="round"/><path d="M10.5 8.06092C10.5 8.90137 9.82485 9.57619 9 9.57619C8.17515 9.57619 7.5 8.90137 7.5 8.06092C7.5 7.22047 8.17515 6.54565 9 6.54565C9.82485 6.54565 10.5 7.22047 10.5 8.06092Z"/><line x1="0.5" y1="-0.5" x2="3.52292" y2="-0.5" transform="matrix(-0.497151 -0.867664 0.864371 -0.502854 10 11.8215)" stroke-linecap="round"/><path d="M15.5 8.06092C15.5 8.90137 14.8248 9.57619 14 9.57619C13.1752 9.57619 12.5 8.90137 12.5 8.06092C12.5 7.22047 13.1752 6.54565 14 6.54565C14.8248 6.54565 15.5 7.22047 15.5 8.06092Z"/><line x1="0.5" y1="-0.5" x2="3.52292" y2="-0.5" transform="matrix(-0.497151 -0.867664 0.864371 -0.502854 15 11.8215)" stroke-linecap="round"/></svg>
