<svg xmlns="http://www.w3.org/2000/svg" fill="none" viewBox="0 0 16 16" width="1em" height="1em"><path stroke="currentColor" stroke-linecap="round" stroke-linejoin="round" d="M13.313 8.927a.983.983 0 0 1-.973.993.983.983 0 0 1-.973-.993c0-.554.441-.992.973-.992.531 0 .973.438.973.992"/><path stroke="currentColor" stroke-linecap="round" d="M12.34 11.5h.959c.56 0 1.015.455 1.015 1.015v.912"/><path stroke="currentColor" stroke-linecap="round" stroke-linejoin="round" d="M1.988 8.927c0 .555.442.993.974.993a.983.983 0 0 0 .973-.993.983.983 0 0 0-.973-.992.983.983 0 0 0-.974.992"/><path stroke="currentColor" stroke-linecap="round" d="M3.455 11.5h-.959c-.56 0-1.015.455-1.015 1.015v.912"/><path stroke="currentColor" stroke-linecap="round" stroke-linejoin="round" d="M9.364 9a1.48 1.48 0 0 1-1.467 1.492A1.48 1.48 0 0 1 6.431 9c0-.83.663-1.492 1.466-1.492A1.48 1.48 0 0 1 9.364 9"/><path stroke="currentColor" stroke-linecap="round" d="M5.43 15v-.47c0-1.12.909-2.03 2.03-2.03h1.368c1.122 0 2.031.91 2.031 2.03V15"/><path stroke="currentColor" stroke-linecap="round" stroke-linejoin="round" d="M4.442 6.242V2a.5.5 0 0 1 .494-.504h5.923a.5.5 0 0 1 .494.504v3a.5.5 0 0 1-.494.504H6.566a.97.97 0 0 0-.547.169l-1.166.793a.26.26 0 0 1-.147.045.267.267 0 0 1-.264-.27"/></svg>
