<svg viewBox="0 0 16 16" fill="none" xmlns="http://www.w3.org/2000/svg" stroke="currentColor"><path d="M13.5 8.92773C13.5 9.48002 13.0523 9.92773 12.5 9.92773C11.9477 9.92773 11.5 9.48002 11.5 8.92773C11.5 8.37545 11.9477 7.92773 12.5 7.92773C13.0523 7.92773 13.5 8.37545 13.5 8.92773Z" stroke-linecap="round" stroke-linejoin="round"/><path d="M12.5 11.5002H13.5C14.0523 11.5002 14.5 11.948 14.5 12.5002V13.4277" stroke-linecap="round"/><path d="M2 8.92773C2 9.48002 2.44772 9.92773 3 9.92773C3.55228 9.92773 4 9.48002 4 8.92773C4 8.37545 3.55228 7.92773 3 7.92773C2.44772 7.92773 2 8.37545 2 8.92773Z" stroke-linecap="round" stroke-linejoin="round"/><path d="M3.5 11.5002H2.5C1.94772 11.5002 1.5 11.948 1.5 12.5002V13.4277" stroke-linecap="round"/><path d="M9.5 9.00024C9.5 9.82867 8.82843 10.5002 8 10.5002C7.17157 10.5002 6.5 9.82867 6.5 9.00024C6.5 8.17182 7.17157 7.50024 8 7.50024C8.82843 7.50024 9.5 8.17182 9.5 9.00024Z" stroke-linecap="round" stroke-linejoin="round"/><path d="M5.5 15.0002L5.5 14.5002C5.5 13.3957 6.39543 12.5002 7.5 12.5002H9C10.1046 12.5002 11 13.3957 11 14.5002V15.0002" stroke-linecap="round"/><path d="M4.5 6.24194V2.00015C4.5 1.7219 4.72386 1.49634 5 1.49634H11C11.2761 1.49634 11.5 1.7219 11.5 2.00015V5.00012C11.5 5.27837 11.2761 5.50394 11 5.50394H6.65139C6.45396 5.50394 6.26096 5.56283 6.09669 5.67317L4.91603 6.46629C4.87207 6.49581 4.82042 6.51157 4.76759 6.51157C4.61981 6.51157 4.5 6.39086 4.5 6.24194Z" stroke-linecap="round" stroke-linejoin="round"/></svg>
