<svg xmlns="http://www.w3.org/2000/svg" fill="none" viewBox="0 0 32 32" width="1em" height="1em"><path stroke="currentColor" stroke-linecap="round" stroke-linejoin="round" d="M4.5 20a2.5 2.5 0 1 0 5 0 2.5 2.5 0 0 0-5 0Z"/><path stroke="currentColor" stroke-linecap="round" d="M8.5 24.5h-4a2 2 0 0 0-2 2v2"/><path stroke="currentColor" stroke-linecap="round" stroke-linejoin="round" d="M27.5 20a2.5 2.5 0 1 1-5 0 2.5 2.5 0 0 1 5 0Z"/><path stroke="currentColor" stroke-linecap="round" d="M23.5 24.5h4a2 2 0 0 1 2 2v2"/><path stroke="currentColor" stroke-linecap="round" stroke-linejoin="round" d="M10.5 29.5v-1.714c0-1.263.895-2.286 2-2.286h7c1.105 0 2 1.023 2 2.286V29.5m-2-9.5a3.5 3.5 0 1 1-7 0 3.5 3.5 0 0 1 7 0Z"/><path stroke="currentColor" stroke-linecap="round" d="M22.5 5.038V4.52a2 2 0 0 0-2-2h-16a2 2 0 0 0-2 2v11.108c0 .552.447.999.998.999v0a1 1 0 0 0 .801-.402l.901-1.21a1 1 0 0 1 .802-.403H15.5"/><path stroke="currentColor" stroke-linejoin="round" d="M17.5 8.55v4.06a2 2 0 0 0 2 2h7.022a1 1 0 0 1 .778.373l1.147 1.422a.592.592 0 0 0 1.053-.371V8.55a2 2 0 0 0-2-2h-8a2 2 0 0 0-2 2Z"/><path stroke="currentColor" d="M22.5 10.076a.504.504 0 0 1-.5.508.504.504 0 0 1-.5-.508c0-.284.227-.507.5-.507s.5.223.5.507Z"/><path stroke="currentColor" stroke-linecap="round" d="m22.49 10.197-1 1.745"/><path stroke="currentColor" d="M25.5 10.076a.504.504 0 0 1-.5.508.504.504 0 0 1-.5-.508c0-.284.227-.507.5-.507s.5.223.5.507Z"/><path stroke="currentColor" stroke-linecap="round" d="m25.49 10.197-1 1.745"/><path stroke="currentColor" d="M10.5 8.061c0 .84-.675 1.515-1.5 1.515s-1.5-.675-1.5-1.515c0-.84.675-1.515 1.5-1.515s1.5.675 1.5 1.515Z"/><path stroke="currentColor" stroke-linecap="round" d="M.5-.5h3.023" transform="matrix(-.49715 -.86766 .86437 -.50285 10 11.822)"/><path stroke="currentColor" d="M15.5 8.061c0 .84-.675 1.515-1.5 1.515s-1.5-.675-1.5-1.515c0-.84.675-1.515 1.5-1.515s1.5.675 1.5 1.515Z"/><path stroke="currentColor" stroke-linecap="round" d="M.5-.5h3.023" transform="matrix(-.49715 -.86766 .86437 -.50285 15 11.822)"/></svg>
