<svg xmlns="http://www.w3.org/2000/svg" fill="none" viewBox="0 0 32 32" width="1em" height="1em"><path stroke="currentColor" stroke-linecap="round" stroke-linejoin="round" d="M4.57 20.308a2.538 2.538 0 1 0 5.076 0 2.538 2.538 0 0 0-5.077 0"/><path stroke="currentColor" stroke-linecap="round" d="M8.63 24.877H4.57a2.03 2.03 0 0 0-2.032 2.03v2.032"/><path stroke="currentColor" stroke-linecap="round" stroke-linejoin="round" d="M27.923 20.308a2.538 2.538 0 1 1-5.077 0 2.538 2.538 0 0 1 5.077 0"/><path stroke="currentColor" stroke-linecap="round" d="M23.862 24.877h4.061c1.122 0 2.03.91 2.03 2.03v2.032"/><path stroke="currentColor" stroke-linecap="round" stroke-linejoin="round" d="M10.662 29.954v-1.74c0-1.283.909-2.322 2.03-2.322H19.8c1.122 0 2.03 1.04 2.03 2.321v1.74m-2.03-9.645a3.554 3.554 0 1 1-7.108 0 3.554 3.554 0 0 1 7.108 0"/><path stroke="currentColor" stroke-linecap="round" d="M22.212 5.038V4.55a2.03 2.03 0 0 0-2.031-2.03H4.499a2.03 2.03 0 0 0-2.031 2.03v11.093c0 .543.44.983.983.983v0a.98.98 0 0 0 .792-.401l.882-1.2c.191-.26.495-.414.818-.414h9.358"/><path stroke="currentColor" stroke-linejoin="round" d="M17.276 8.58v4a2.03 2.03 0 0 0 2.03 2.03h6.858c.31 0 .602.142.795.384l1.124 1.412a.583.583 0 0 0 1.039-.363V8.58a2.03 2.03 0 0 0-2.03-2.03h-7.786a2.03 2.03 0 0 0-2.03 2.03Z"/><mask id="iconsCommunitySize32Px__a" fill="#fff"><ellipse cx="21.718" cy="10.076" rx=".987" ry="1.008"/></mask><path fill="currentColor" d="M21.69 10.076v.004-.002l.01-.005.018-.004v2.03c1.125 0 2.003-.925 2.003-2.023zm.028-.007q.008 0 .018.004l.01.005v.002-.004h-2.03c0 1.098.876 2.024 2.002 2.024zm.028.007v-.003zl-.01.005-.018.004v-2.03c-1.126 0-2.003.925-2.003 2.022zm-.028.008-.018-.004-.01-.005v-.002.003h2.03c0-1.097-.877-2.023-2.002-2.023z" mask="url(#iconsCommunitySize32Px__a)"/><path stroke="currentColor" stroke-linecap="round" d="m22.202 10.197-.988 1.746"/><mask id="iconsCommunitySize32Px__b" fill="#fff"><ellipse cx="24.68" cy="10.076" rx=".987" ry="1.008"/></mask><path fill="currentColor" d="M24.651 10.076v.004l.001-.002.01-.005.018-.004v2.03c1.125 0 2.002-.925 2.002-2.023zm.029-.007q.008 0 .018.004l.009.005.001.002v-.004h-2.031c0 1.098.877 2.024 2.003 2.024zm.028.007v-.003l-.001.002-.01.005-.017.004v-2.03c-1.126 0-2.003.925-2.003 2.022zm-.028.008-.019-.004-.009-.005v-.002.003h2.03c0-1.097-.877-2.023-2.002-2.023z" mask="url(#iconsCommunitySize32Px__b)"/><path stroke="currentColor" stroke-linecap="round" d="m25.163 10.197-.987 1.746"/><path stroke="currentColor" d="M10.351 8.061c0 .843-.666 1.508-1.466 1.508S7.418 8.904 7.418 8.06c0-.842.666-1.507 1.467-1.507.8 0 1.466.665 1.466 1.507Z"/><path stroke="currentColor" stroke-linecap="round" d="M.5-.5h2.949" transform="matrix(-.4999 -.8838 .87478 -.51552 9.872 11.822)"/><path stroke="currentColor" d="M15.287 8.061c0 .843-.666 1.508-1.467 1.508-.8 0-1.466-.665-1.466-1.508 0-.842.666-1.507 1.467-1.507.8 0 1.466.665 1.466 1.507Z"/><path stroke="currentColor" stroke-linecap="round" d="M.5-.5h2.949" transform="matrix(-.4999 -.8838 .87478 -.51552 14.808 11.822)"/></svg>
