<svg xmlns="http://www.w3.org/2000/svg" fill="none" viewBox="0 0 24 24" width="1em" height="1em"><path stroke="currentColor" stroke-linecap="round" d="M5.5 7.5h4.079m-4.079 3h6m-6 3h6"/><path stroke="currentColor" d="M2.5 5.5a2 2 0 0 1 2-2h6.172a2 2 0 0 1 1.414.586l1.828 1.828a2 2 0 0 1 .586 1.414V15.5a2 2 0 0 1-2 2h-8a2 2 0 0 1-2-2v-10Z"/><path stroke="currentColor" d="M11.5 3.5v2a1 1 0 0 0 1 1h2"/><path stroke="currentColor" stroke-linecap="round" d="M8.5 19.5v.5a1.5 1.5 0 0 0 1.5 1.5h9a1.5 1.5 0 0 0 1.5-1.5V9.5a2 2 0 0 0-2-2h-1"/></svg>
