<svg viewBox="0 0 24 24" fill="none" xmlns="http://www.w3.org/2000/svg" width="1em" height="1em"><path d="M5.5 7.5H9.57892" stroke="currentColor" stroke-linecap="round"/><path d="M5.5 10.5H11.5" stroke="currentColor" stroke-linecap="round"/><path d="M5.5 13.5H11.5" stroke="currentColor" stroke-linecap="round"/><path d="M2.5 5.5C2.5 4.39543 3.39543 3.5 4.5 3.5L10.6716 3.5C11.202 3.5 11.7107 3.71071 12.0858 4.08579L13.9142 5.91421C14.2893 6.28929 14.5 6.79799 14.5 7.32843V15.5C14.5 16.6046 13.6046 17.5 12.5 17.5H4.5C3.39543 17.5 2.5 16.6046 2.5 15.5V5.5Z" stroke="currentColor"/><path d="M11.5 3.5V5.5C11.5 6.05228 11.9477 6.5 12.5 6.5H14.5" stroke="currentColor"/><path d="M8.5 19.5V20C8.5 20.8284 9.17157 21.5 10 21.5H19C19.8284 21.5 20.5 20.8284 20.5 20V9.5C20.5 8.39543 19.6046 7.5 18.5 7.5H17.5" stroke="currentColor" stroke-linecap="round"/></svg>
