<svg viewBox="0 0 24 24" fill="none" xmlns="http://www.w3.org/2000/svg" width="1em" height="1em"><path d="M5.5 7.5H9.57892" stroke="currentColor" stroke-linecap="round"/><path d="M5.5 10.5H11.5" stroke="currentColor" stroke-linecap="round"/><path d="M5.5 13.5H11.5" stroke="currentColor" stroke-linecap="round"/><path d="M12.0858 4.08579L12.4393 3.73223L12.0858 4.08579ZM13.9142 5.91421L14.2678 5.56066L13.9142 5.91421ZM14 7.32843V15.5H15V7.32843H14ZM12.5 17H4.5V18H12.5V17ZM3 15.5V5.5H2V15.5H3ZM4.5 4H10.6716V3H4.5V4ZM11.7322 4.43934L13.5607 6.26777L14.2678 5.56066L12.4393 3.73223L11.7322 4.43934ZM10.6716 4C11.0694 4 11.4509 4.15804 11.7322 4.43934L12.4393 3.73223C11.9705 3.26339 11.3346 3 10.6716 3V4ZM4.5 17C3.67157 17 3 16.3284 3 15.5H2C2 16.8807 3.11929 18 4.5 18V17ZM14 15.5C14 16.3284 13.3284 17 12.5 17V18C13.8807 18 15 16.8807 15 15.5H14ZM15 7.32843C15 6.66539 14.7366 6.0295 14.2678 5.56066L13.5607 6.26777C13.842 6.54907 14 6.9306 14 7.32843H15ZM3 5.5C3 4.67157 3.67157 4 4.5 4V3C3.11929 3 2 4.11929 2 5.5H3Z" fill="currentColor"/><path d="M11.5 3.5V5.5C11.5 6.05228 11.9477 6.5 12.5 6.5H14.5" stroke="currentColor"/><path d="M9 19.5C9 19.2239 8.77614 19 8.5 19C8.22386 19 8 19.2239 8 19.5H9ZM17.5 7C17.2239 7 17 7.22386 17 7.5C17 7.77614 17.2239 8 17.5 8V7ZM20 9.5V20H21V9.5H20ZM19 21H10V22H19V21ZM9 20V19.5H8V20H9ZM18.5 7H17.5V8H18.5V7ZM10 21C9.44772 21 9 20.5523 9 20H8C8 21.1046 8.89543 22 10 22V21ZM20 20C20 20.5523 19.5523 21 19 21V22C20.1046 22 21 21.1046 21 20H20ZM21 9.5C21 8.11929 19.8807 7 18.5 7V8C19.3284 8 20 8.67157 20 9.5H21Z" fill="currentColor"/></svg>
