<svg viewBox="0 0 24 24" fill="none" xmlns="http://www.w3.org/2000/svg" width="1em" height="1em"><path d="M5.5 7.5H9.57892" stroke="currentColor" stroke-linecap="round"/><path d="M5.5 10.5H11.5" stroke="currentColor" stroke-linecap="round"/><path d="M5.5 13.5H11.5" stroke="currentColor" stroke-linecap="round"/><mask id="path-4-inside-1_2_57205" fill="currentColor"><path d="M2 5C2 3.89543 2.89543 3 4 3H11.1716C11.702 3 12.2107 3.21071 12.5858 3.58579L14.4142 5.41421C14.7893 5.78929 15 6.29799 15 6.82843V16C15 17.1046 14.1046 18 13 18H4C2.89543 18 2 17.1046 2 16V5Z"/></mask><path d="M12.5858 3.58579L13.2929 2.87868L12.5858 3.58579ZM14.4142 5.41421L13.7071 6.12132L14.4142 5.41421ZM14 6.82843V16H16V6.82843H14ZM13 17H4V19H13V17ZM3 16V5H1V16H3ZM4 4H11.1716V2H4V4ZM11.8787 4.29289L13.7071 6.12132L15.1213 4.70711L13.2929 2.87868L11.8787 4.29289ZM11.1716 4C11.4368 4 11.6911 4.10536 11.8787 4.29289L13.2929 2.87868C12.7303 2.31607 11.9672 2 11.1716 2V4ZM4 17C3.44772 17 3 16.5523 3 16H1C1 17.6569 2.34315 19 4 19V17ZM14 16C14 16.5523 13.5523 17 13 17V19C14.6569 19 16 17.6569 16 16H14ZM16 6.82843C16 6.03278 15.6839 5.26972 15.1213 4.70711L13.7071 6.12132C13.8946 6.30886 14 6.56321 14 6.82843H16ZM3 5C3 4.44772 3.44772 4 4 4V2C2.34315 2 1 3.34315 1 5H3Z" fill="currentColor" mask="url(#path-4-inside-1_2_57205)"/><path d="M11.5 3.5V5.5C11.5 6.05228 11.9477 6.5 12.5 6.5H14.5" stroke="currentColor"/><path d="M9 19.5C9 19.2239 8.77614 19 8.5 19C8.22386 19 8 19.2239 8 19.5H9ZM17.5 7C17.2239 7 17 7.22386 17 7.5C17 7.77614 17.2239 8 17.5 8V7ZM20 9.5V20H21V9.5H20ZM19 21H10V22H19V21ZM9 20V19.5H8V20H9ZM18.5 7H17.5V8H18.5V7ZM10 21C9.44772 21 9 20.5523 9 20H8C8 21.1046 8.89543 22 10 22V21ZM20 20C20 20.5523 19.5523 21 19 21V22C20.1046 22 21 21.1046 21 20H20ZM21 9.5C21 8.11929 19.8807 7 18.5 7V8C19.3284 8 20 8.67157 20 9.5H21Z" fill="currentColor"/></svg>
