<svg viewBox="0 0 16 16" fill="none" xmlns="http://www.w3.org/2000/svg" width="1em" height="1em"><rect x="1.5" y="1.5" width="9" height="10" rx="1.5" stroke="currentColor"/><path d="M3.5 8.5H8.5" stroke="currentColor" stroke-linecap="round"/><path d="M3.5 4.5H8.5" stroke="currentColor" stroke-linecap="round"/><path d="M3.5 6.5H8.5" stroke="currentColor" stroke-linecap="round"/><path d="M4.5 14C4.22386 14 4 14.2239 4 14.5C4 14.7761 4.22386 15 4.5 15V14ZM14 5.5C14 5.22386 13.7761 5 13.5 5C13.2239 5 13 5.22386 13 5.5H14ZM11.5 14H4.5V15H11.5V14ZM13 5.5V12.5H14V5.5H13ZM11.5 15C12.8807 15 14 13.8807 14 12.5H13C13 13.3284 12.3284 14 11.5 14V15Z" fill="currentColor"/></svg>
