<svg viewBox="0 0 24 24" fill="none" xmlns="http://www.w3.org/2000/svg" width="1em" height="1em"><path d="M19.5 5.5V4.5C19.5 3.39543 18.6046 2.5 17.5 2.5L6.5 2.5C5.39543 2.5 4.5 3.39543 4.5 4.5L4.5 19.5C4.5 20.6046 5.39543 21.5 6.5 21.5H17.5C18.6046 21.5 19.5 20.6046 19.5 19.5V18.5" stroke="currentColor" stroke-linecap="round"/><rect x="10.5" y="10.5" width="2" height="6" rx="1" stroke="currentColor"/><rect x="14.5" y="9.5" width="2" height="7" rx="1" stroke="currentColor"/><rect x="18.5" y="8.5" width="2" height="8" rx="1" stroke="currentColor"/><path d="M10.5 12.5L7.5 12.5" stroke="currentColor" stroke-linecap="round"/><path d="M16.5 18.5L7.5 18.5" stroke="currentColor" stroke-linecap="round"/><path d="M10 15.5L7.5 15.5" stroke="currentColor" stroke-linecap="round"/><rect x="7.5" y="5.5" width="9" height="2" rx="1" stroke="currentColor"/></svg>
