<svg viewBox="0 0 16 16" fill="none" xmlns="http://www.w3.org/2000/svg" width="1em" height="1em"><path d="M4 2.5L12 2.5C12.8284 2.5 13.5 3.17157 13.5 4V11.5V12C13.5 12.8284 12.8284 13.5 12 13.5H4C3.17157 13.5 2.5 12.8284 2.5 12L2.5 4C2.5 3.17157 3.17157 2.5 4 2.5Z" stroke="currentColor" stroke-linecap="round"/><rect x="5.75" y="8.25" width="3.5" height="0.5" rx="0.25" transform="rotate(90 5.75 8.25)" stroke="currentColor" stroke-width="0.5"/><mask id="path-3-inside-1_1767_10837" fill="currentColor"><path d="M8 6C8.27614 6 8.5 6.22386 8.5 6.5L8.5 11.5C8.5 11.7761 8.27614 12 8 12C7.72386 12 7.5 11.7761 7.5 11.5L7.5 6.5C7.5 6.22386 7.72386 6 8 6Z"/></mask><path d="M7.5 6.5L7.5 11.5L9.5 11.5L9.5 6.5L7.5 6.5ZM8.5 11.5L8.5 6.5L6.5 6.5L6.5 11.5L8.5 11.5ZM8.5 6.5C8.5 6.77614 8.27614 7 8 7L8 5C7.17157 5 6.5 5.67157 6.5 6.5L8.5 6.5ZM8 11C8.27614 11 8.5 11.2239 8.5 11.5L6.5 11.5C6.5 12.3284 7.17157 13 8 13L8 11ZM7.5 11.5C7.5 11.2239 7.72386 11 8 11L8 13C8.82843 13 9.5 12.3284 9.5 11.5L7.5 11.5ZM9.5 6.5C9.5 5.67157 8.82843 5 8 5L8 7C7.72386 7 7.5 6.77614 7.5 6.5L9.5 6.5Z" fill="currentColor" mask="url(#path-3-inside-1_1767_10837)"/><rect x="10.75" y="4.25" width="7.5" height="0.5" rx="0.25" transform="rotate(90 10.75 4.25)" stroke="currentColor" stroke-width="0.5"/></svg>
