<svg xmlns="http://www.w3.org/2000/svg" fill="none" viewBox="0 0 32 32" width="1em" height="1em"><path stroke="currentColor" stroke-linecap="round" d="M23.5 7v-.5a2 2 0 0 0-2-2h-15a2 2 0 0 0-2 2v19a2 2 0 0 0 2 2h15a2 2 0 0 0 2-2v-2m-12-5h3"/><circle cx="8.5" cy="18.5" r="1" stroke="currentColor"/><path stroke="currentColor" stroke-linecap="round" d="M11.5 23.5h9"/><circle cx="8.5" cy="23.5" r="1" stroke="currentColor"/><path stroke="currentColor" stroke-linecap="round" d="M11.5 13.5h4"/><circle cx="8.5" cy="13.5" r="1" stroke="currentColor"/><rect width="3" height="6" x="14.5" y="15.5" stroke="currentColor" rx="1.5"/><rect width="3" height="9" x="19.5" y="12.5" stroke="currentColor" rx="1.5"/><rect width="3" height="13" x="24.5" y="8.5" stroke="currentColor" rx="1.5"/><rect width="13" height="2" x="7.5" y="7.5" stroke="currentColor" rx="1"/></svg>
