<svg xmlns="http://www.w3.org/2000/svg" fill="none" viewBox="0 0 24 24" width="1em" height="1em"><path stroke="currentColor" stroke-linecap="round" d="M19.5 5.5v-1a2 2 0 0 0-2-2h-11a2 2 0 0 0-2 2v15a2 2 0 0 0 2 2h11a2 2 0 0 0 2-2v-1"/><rect width="2" height="6" x="10.5" y="10.5" stroke="currentColor" rx="1"/><rect width="2" height="7" x="14.5" y="9.5" stroke="currentColor" rx="1"/><rect width="2" height="8" x="18.5" y="8.5" stroke="currentColor" rx="1"/><path stroke="currentColor" stroke-linecap="round" d="M10.5 12.5h-3m9 6h-9m2.5-3H7.5"/><rect width="9" height="2" x="7.5" y="5.5" stroke="currentColor" rx="1"/></svg>
