<svg xmlns="http://www.w3.org/2000/svg" fill="none" viewBox="0 0 16 16" width="1em" height="1em"><path stroke="currentColor" stroke-linecap="round" d="M4 2.5h8A1.5 1.5 0 0 1 13.5 4v8a1.5 1.5 0 0 1-1.5 1.5H4A1.5 1.5 0 0 1 2.5 12V4A1.5 1.5 0 0 1 4 2.5Z"/><rect width="3.5" height=".5" x="5.75" y="8.25" stroke="currentColor" stroke-width=".5" rx=".25" transform="rotate(90 5.75 8.25)"/><mask id="iconsInsightPanel4Size16Px__a" fill="#fff"><path d="M8 6a.5.5 0 0 1 .5.5v5a.5.5 0 0 1-1 0v-5A.5.5 0 0 1 8 6"/></mask><path fill="currentColor" d="M7.5 6.5v5h2v-5zm1 5v-5h-2v5zm0-5A.5.5 0 0 1 8 7V5a1.5 1.5 0 0 0-1.5 1.5zM8 11a.5.5 0 0 1 .5.5h-2A1.5 1.5 0 0 0 8 13zm-.5.5A.5.5 0 0 1 8 11v2a1.5 1.5 0 0 0 1.5-1.5zm2-5A1.5 1.5 0 0 0 8 5v2a.5.5 0 0 1-.5-.5z" mask="url(#iconsInsightPanel4Size16Px__a)"/><rect width="7.5" height=".5" x="10.75" y="4.25" stroke="currentColor" stroke-width=".5" rx=".25" transform="rotate(90 10.75 4.25)"/></svg>
