<svg xmlns="http://www.w3.org/2000/svg" fill="none" viewBox="0 0 24 24" width="1em" height="1em"><path fill="currentColor" d="M20 7a.5.5 0 0 0 0-1zm-1.4-2.78.384-.32zM18.5 15h-6v1h6zM11 13.5v-8h-1v8zM12.5 4h4.563V3H12.5zM20 7.224V13.5h1V7.224zM17 4v1.5h1V4zm1.5 3H20V6h-1.5zm-.284-2.46 1.436 1.724.769-.64L18.984 3.9zM17 5.5A1.5 1.5 0 0 0 18.5 7V6a.5.5 0 0 1-.5-.5zm4 1.724a2.5 2.5 0 0 0-.58-1.6l-.768.64c.225.27.348.61.348.96zM17.063 4a1.5 1.5 0 0 1 1.153.54l.768-.64a2.5 2.5 0 0 0-1.92-.9zM12.5 15a1.5 1.5 0 0 1-1.5-1.5h-1a2.5 2.5 0 0 0 2.5 2.5zm6 1a2.5 2.5 0 0 0 2.5-2.5h-1a1.5 1.5 0 0 1-1.5 1.5zM11 5.5A1.5 1.5 0 0 1 12.5 4V3A2.5 2.5 0 0 0 10 5.5z"/><path stroke="currentColor" stroke-linecap="round" d="M7.5 8.5h-1a2 2 0 0 0-2 2v8a2 2 0 0 0 2 2h6a2 2 0 0 0 2-2v-1m-2-8h6m-6-3h3m-3 6h6"/></svg>
