<svg viewBox="0 0 16 16" fill="none" xmlns="http://www.w3.org/2000/svg" width="1em" height="1em"><mask id="path-1-inside-1_2_61844" fill="currentColor"><path d="M8.00001 10H12C13.1046 10 14 9.10457 14 8V7.29605V3C14 1.89543 13.1046 1 12 1H8C6.89543 1 6 1.89543 6 3L6.00001 8C6.00001 9.10457 6.89544 10 8.00001 10Z"/></mask><path d="M6.00001 8L7.00001 8V8L6.00001 8ZM6 3H5V3L6 3ZM12 9H8.00001V11H12V9ZM7.00001 8L7 3L5 3L5.00001 8L7.00001 8ZM8 2H12V0H8V2ZM13 7.29605V8H15V7.29605H13ZM13 3V7.29605H15V3H13ZM12 2C12.5523 2 13 2.44772 13 3H15C15 1.34315 13.6569 0 12 0V2ZM8.00001 9C7.44772 9 7.00001 8.55228 7.00001 8L5.00001 8C5.00001 9.65686 6.34316 11 8.00001 11V9ZM12 11C13.6569 11 15 9.65685 15 8H13C13 8.55228 12.5523 9 12 9V11ZM7 3C7 2.44772 7.44772 2 8 2V0C6.34315 0 5 1.34315 5 3H7Z" fill="currentColor" mask="url(#path-1-inside-1_2_61844)"/><path d="M8.00001 13.5V13V13.5ZM4.00001 13.5V14H4.00001L4.00001 13.5ZM2.5 7L3 7V7L2.5 7ZM10 11.4956C10 11.2195 9.77615 10.9956 9.50001 10.9956C9.22387 10.9956 9.00001 11.2195 9.00001 11.4956H10ZM4.5 6C4.77614 6 5 5.77614 5 5.5C5 5.22386 4.77614 5 4.5 5V6ZM8.00001 13L4.00001 13L4.00001 14L8.00001 14V13ZM3.00001 12L3 7L2 7L2.00001 12L3.00001 12ZM9.00001 11.4956V12H10V11.4956H9.00001ZM4 6H4.5V5H4V6ZM4.00001 13C3.44773 13 3.00001 12.5523 3.00001 12L2.00001 12C2.00001 13.1046 2.89544 14 4.00001 14V13ZM8.00001 14C9.10458 14 10 13.1046 10 12H9.00001C9.00001 12.5523 8.55229 13 8.00001 13V14ZM3 7C3 6.44772 3.44772 6 4 6V5C2.89543 5 2 5.89543 2 7L3 7Z" fill="currentColor"/><line x1="8.5" y1="4.5" x2="11.5" y2="4.5" stroke="currentColor" stroke-linecap="round"/><line x1="8.5" y1="6.5" x2="11.5" y2="6.5" stroke="currentColor" stroke-linecap="round"/></svg>
