<svg viewBox="0 0 32 32" fill="none" xmlns="http://www.w3.org/2000/svg" stroke="currentColor" width="1em" height="1em"><path d="M28.0625 7C28.3386 7 28.5625 6.77614 28.5625 6.5C28.5625 6.22386 28.3386 6 28.0625 6V7ZM27.9142 5.91421L27.5607 6.26777L27.9142 5.91421ZM24.7929 2.79289L24.4393 3.14645L24.7929 2.79289ZM26.5 19H16.5V20H26.5V19ZM15 17.5V4.5H14V17.5H15ZM16.5 3H24.0858V2H16.5V3ZM28 7.32843V17.5H29V7.32843H28ZM24 3V5.5H25V3H24ZM25.5 7H28.0625V6H25.5V7ZM24.4393 3.14645L27.5607 6.26777L28.2678 5.56066L25.1464 2.43934L24.4393 3.14645ZM24 5.5C24 6.32843 24.6716 7 25.5 7V6C25.2239 6 25 5.77614 25 5.5H24ZM29 7.32843C29 6.66539 28.7366 6.0295 28.2678 5.56066L27.5607 6.26777C27.842 6.54907 28 6.9306 28 7.32843H29ZM24.0858 3C24.2184 3 24.3456 3.05268 24.4393 3.14645L25.1464 2.43934C24.8651 2.15804 24.4836 2 24.0858 2V3ZM16.5 19C15.6716 19 15 18.3284 15 17.5H14C14 18.8807 15.1193 20 16.5 20V19ZM26.5 20C27.8807 20 29 18.8807 29 17.5H28C28 18.3284 27.3284 19 26.5 19V20ZM15 4.5C15 3.67157 15.6716 3 16.5 3V2C15.1193 2 14 3.11929 14 4.5H15Z" fill="#282829"/><path d="M12.5 8C12.7761 8 13 7.77614 13 7.5C13 7.22386 12.7761 7 12.5 7V8ZM24 21.5C24 21.2239 23.7761 21 23.5 21C23.2239 21 23 21.2239 23 21.5H24ZM21.5 24H11.5V25H21.5V24ZM10 22.5V9.5H9V22.5H10ZM11.5 8H12.5V7H11.5V8ZM23 21.5V22.5H24V21.5H23ZM11.5 24C10.6716 24 10 23.3284 10 22.5H9C9 23.8807 10.1193 25 11.5 25V24ZM21.5 25C22.8807 25 24 23.8807 24 22.5H23C23 23.3284 22.3284 24 21.5 24V25ZM10 9.5C10 8.67157 10.6716 8 11.5 8V7C10.1193 7 9 8.11929 9 9.5H10Z" fill="#282829"/><path d="M7.5 13C7.77614 13 8 12.7761 8 12.5C8 12.2239 7.77614 12 7.5 12V13ZM19 26.5C19 26.2239 18.7761 26 18.5 26C18.2239 26 18 26.2239 18 26.5H19ZM16.5 29H6.5V30H16.5V29ZM5 27.5V14.5H4V27.5H5ZM6.5 13H7.5V12H6.5V13ZM18 26.5V27.5H19V26.5H18ZM6.5 29C5.67157 29 5 28.3284 5 27.5H4C4 28.8807 5.11929 30 6.5 30V29ZM16.5 30C17.8807 30 19 28.8807 19 27.5H18C18 28.3284 17.3284 29 16.5 29V30ZM5 14.5C5 13.6716 5.67157 13 6.5 13V12C5.11929 12 4 13.1193 4 14.5H5Z" fill="#282829"/><path d="M17.5 6.5H21.5" stroke-linecap="round"/><path d="M17.5 9.49976H25.5" stroke-linecap="round"/><path d="M17.5 12.5H25.5M17.5 15.5H22.5" stroke-linecap="round"/></svg>
