<svg viewBox="0 0 16 16" fill="none" xmlns="http://www.w3.org/2000/svg" width="1em" height="1em"><path d="M12 9.5L8.00001 9.5C7.17158 9.5 6.50001 8.82843 6.50001 8L6.5 3C6.5 2.17157 7.17157 1.5 8 1.5L12 1.5C12.8284 1.5 13.5 2.17157 13.5 3V7.29605V8C13.5 8.82843 12.8284 9.5 12 9.5Z" stroke="currentColor" stroke-linecap="round"/><path d="M9.50001 11.4956V12C9.50001 12.8284 8.82843 13.5 8.00001 13.5L4.00001 13.5C3.17159 13.5 2.50001 12.8284 2.50001 12L2.5 7C2.5 6.17157 3.17157 5.5 4 5.5H4.5" stroke="currentColor" stroke-linecap="round"/><line x1="8.5" y1="4.5" x2="11.5" y2="4.5" stroke="currentColor" stroke-linecap="round"/><line x1="8.5" y1="6.5" x2="11.5" y2="6.5" stroke="currentColor" stroke-linecap="round"/></svg>
