<svg viewBox="0 0 32 32" fill="none" xmlns="http://www.w3.org/2000/svg" width="1em" height="1em"><path d="M28.0625 7C28.3386 7 28.5625 6.77614 28.5625 6.5C28.5625 6.22386 28.3386 6 28.0625 6V7ZM27.9142 5.91421L27.5607 6.26777L27.9142 5.91421ZM24.7929 2.79289L24.4393 3.14645L24.7929 2.79289ZM26.5 19H16.5V20H26.5V19ZM15 17.5V4.5H14V17.5H15ZM16.5 3H24.0858V2H16.5V3ZM28 7.32843V17.5H29V7.32843H28ZM24 3V5.5H25V3H24ZM25.5 7H28.0625V6H25.5V7ZM24.4393 3.14645L27.5607 6.26777L28.2678 5.56066L25.1464 2.43934L24.4393 3.14645ZM24 5.5C24 6.32843 24.6716 7 25.5 7V6C25.2239 6 25 5.77614 25 5.5H24ZM29 7.32843C29 6.66539 28.7366 6.0295 28.2678 5.56066L27.5607 6.26777C27.842 6.54907 28 6.9306 28 7.32843H29ZM24.0858 3C24.2184 3 24.3456 3.05268 24.4393 3.14645L25.1464 2.43934C24.8651 2.15804 24.4836 2 24.0858 2V3ZM16.5 19C15.6716 19 15 18.3284 15 17.5H14C14 18.8807 15.1193 20 16.5 20V19ZM26.5 20C27.8807 20 29 18.8807 29 17.5H28C28 18.3284 27.3284 19 26.5 19V20ZM15 4.5C15 3.67157 15.6716 3 16.5 3V2C15.1193 2 14 3.11929 14 4.5H15Z" fill="currentColor"/><path d="M12.5 7.5H11.5C10.3954 7.5 9.5 8.39543 9.5 9.5V22.5C9.5 23.6046 10.3954 24.5 11.5 24.5H21.5C22.6046 24.5 23.5 23.6046 23.5 22.5V21.5" stroke="currentColor" stroke-linecap="round"/><path d="M7.5 12.5H6.5C5.39543 12.5 4.5 13.3954 4.5 14.5V27.5C4.5 28.6046 5.39543 29.5 6.5 29.5H16.5C17.6046 29.5 18.5 28.6046 18.5 27.5V26.5" stroke="currentColor" stroke-linecap="round"/><path d="M17.5 6.5H21.5" stroke="currentColor" stroke-linecap="round"/><path d="M17.5 9.49976H25.5" stroke="currentColor" stroke-linecap="round"/><path d="M17.5 12.5H25.5M17.5 15.5H22.5" stroke="currentColor" stroke-linecap="round"/></svg>
