<svg xmlns="http://www.w3.org/2000/svg" fill="none" viewBox="0 0 32 32" width="1em" height="1em"><path fill="currentColor" d="M28.063 7a.5.5 0 0 0 0-1zm-.149-1.086-.353.354zm-3.121-3.121-.354.353zM26.5 19h-10v1h10zM15 17.5v-13h-1v13zM16.5 3h7.586V2H16.5zM28 7.328V17.5h1V7.328zM24 3v2.5h1V3zm1.5 4h2.563V6H25.5zm-1.06-3.854 3.12 3.122.708-.707-3.122-3.122zM24 5.5A1.5 1.5 0 0 0 25.5 7V6a.5.5 0 0 1-.5-.5zm5 1.828a2.5 2.5 0 0 0-.732-1.767l-.707.707A1.5 1.5 0 0 1 28 7.328zM24.086 3a.5.5 0 0 1 .353.146l.707-.707A1.5 1.5 0 0 0 24.086 2zM16.5 19a1.5 1.5 0 0 1-1.5-1.5h-1a2.5 2.5 0 0 0 2.5 2.5zm10 1a2.5 2.5 0 0 0 2.5-2.5h-1a1.5 1.5 0 0 1-1.5 1.5zM15 4.5A1.5 1.5 0 0 1 16.5 3V2A2.5 2.5 0 0 0 14 4.5z"/><path stroke="currentColor" stroke-linecap="round" d="M12.5 7.5h-1a2 2 0 0 0-2 2v13a2 2 0 0 0 2 2h10a2 2 0 0 0 2-2v-1"/><path stroke="currentColor" stroke-linecap="round" d="M7.5 12.5h-1a2 2 0 0 0-2 2v13a2 2 0 0 0 2 2h10a2 2 0 0 0 2-2v-1m-1-20h4m-4 3h8m-8 3h8m-8 3h5"/></svg>
