<svg viewBox="0 0 24 24" fill="none" xmlns="http://www.w3.org/2000/svg" width="1em" height="1em"><path d="M20 7C20.2761 7 20.5 6.77614 20.5 6.5C20.5 6.22386 20.2761 6 20 6V7ZM18.5997 4.21963L18.9838 3.89954L18.5997 4.21963ZM18.5 15H12.5V16H18.5V15ZM11 13.5V5.5H10V13.5H11ZM12.5 4H17.0633V3H12.5V4ZM20 7.2241V13.5H21V7.2241H20ZM17 4V5.5H18V4H17ZM18.5 7H20V6H18.5V7ZM18.2156 4.53972L19.6523 6.26382L20.4206 5.62364L18.9838 3.89954L18.2156 4.53972ZM17 5.5C17 6.32843 17.6716 7 18.5 7V6C18.2239 6 18 5.77614 18 5.5H17ZM21 7.2241C21 6.63926 20.795 6.07293 20.4206 5.62364L19.6523 6.26382C19.877 6.5334 20 6.87319 20 7.2241H21ZM17.0633 4C17.5084 4 17.9306 4.19773 18.2156 4.53972L18.9838 3.89954C18.5088 3.32956 17.8052 3 17.0633 3V4ZM12.5 15C11.6716 15 11 14.3284 11 13.5H10C10 14.8807 11.1193 16 12.5 16V15ZM18.5 16C19.8807 16 21 14.8807 21 13.5H20C20 14.3284 19.3284 15 18.5 15V16ZM11 5.5C11 4.67157 11.6716 4 12.5 4V3C11.1193 3 10 4.11929 10 5.5H11Z" fill="currentColor"/><path d="M7.5 8.5H6.5C5.39543 8.5 4.5 9.39543 4.5 10.5V18.5C4.5 19.6046 5.39543 20.5 6.5 20.5H12.5C13.6046 20.5 14.5 19.6046 14.5 18.5V17.5" stroke="currentColor" stroke-linecap="round"/><path d="M12.5 9.5H18.5" stroke="currentColor" stroke-linecap="round"/><path d="M12.5 6.5H15.5" stroke="currentColor" stroke-linecap="round"/><path d="M12.5 12.5H18.5" stroke="currentColor" stroke-linecap="round"/></svg>
