<svg viewBox="0 0 24 24" fill="none" xmlns="http://www.w3.org/2000/svg" stroke="currentColor" width="1em" height="1em"><path d="M3.5 21.5V20.5C3.5 18.8431 4.84315 17.5 6.5 17.5H9.5C11.1569 17.5 12.5 18.8431 12.5 20.5V21.5" stroke-linecap="round"/><path d="M8 14C9.10457 14 10 13.1046 10 12C10 10.8954 9.10457 10 8 10C6.89543 10 6 10.8954 6 12C6 13.1046 6.89543 14 8 14Z" stroke-linecap="round" stroke-linejoin="round"/><path d="M14 4.71464L16.1515 2.81099C16.6201 2.39634 17.3799 2.39634 17.8485 2.81099L20 4.71464M14 8.10731L16.1515 6.20365C16.6201 5.789 17.3799 5.789 17.8485 6.20365L20 8.10731M14 11.5L16.1515 9.59634C16.6201 9.18169 17.3799 9.18169 17.8485 9.59634L20 11.5" stroke-linecap="round"/></svg>
