<svg xmlns="http://www.w3.org/2000/svg" fill="none" viewBox="0 0 64 64" width="1em" height="1em"><path stroke="currentColor" stroke-linecap="round" d="M4.5 55.5v-2c0-5.523 4.477-10 10-10h15c5.523 0 10 4.477 10 10v2"/><path stroke="currentColor" stroke-linecap="round" stroke-linejoin="round" d="M22 38.5c5.523 0 10-4.477 10-10s-4.477-10-10-10-10 4.477-10 10 4.477 10 10 10"/><path stroke="currentColor" stroke-linecap="round" d="m39.5 18 8.586-8.586a2 2 0 0 1 2.828 0L59.5 18m-20 9 8.586-8.586a2 2 0 0 1 2.828 0L59.5 27m-20 9 8.586-8.586a2 2 0 0 1 2.828 0L59.5 36"/></svg>
