<svg xmlns="http://www.w3.org/2000/svg" fill="none" viewBox="0 0 24 24" width="1em" height="1em"><path stroke="currentColor" stroke-linecap="round" d="M3.5 21.5v-1a3 3 0 0 1 3-3h3a3 3 0 0 1 3 3v1"/><path stroke="currentColor" stroke-linecap="round" stroke-linejoin="round" d="M8 14a2 2 0 1 0 0-4 2 2 0 0 0 0 4"/><path stroke="currentColor" stroke-linecap="round" d="m14 4.715 2.151-1.904a1.31 1.31 0 0 1 1.698 0L20 4.715m-6 3.392 2.151-1.903a1.31 1.31 0 0 1 1.698 0L20 8.107M14 11.5l2.151-1.904a1.31 1.31 0 0 1 1.698 0L20 11.5"/></svg>
