<svg viewBox="0 0 16 16" fill="none" xmlns="http://www.w3.org/2000/svg" width="1em" height="1em"><path d="M1.5 13.5L1.5 12.5C1.5 11.3954 2.39543 10.5 3.5 10.5H6.5C7.60457 10.5 8.5 11.3954 8.5 12.5V13.5" stroke="currentColor" stroke-linecap="round"/><path d="M5 8.5C5.82843 8.5 6.5 7.82843 6.5 7C6.5 6.17157 5.82843 5.5 5 5.5C4.17157 5.5 3.5 6.17157 3.5 7C3.5 7.82843 4.17157 8.5 5 8.5Z" stroke="currentColor" stroke-linecap="round" stroke-linejoin="round"/><path d="M9.5 3.49985L11.2929 1.70696C11.6834 1.31643 12.3166 1.31643 12.7071 1.70696L14.5 3.49985M9.5 6.49985L11.2929 4.70696C11.6834 4.31643 12.3166 4.31643 12.7071 4.70696L14.5 6.49985" stroke="currentColor" stroke-linecap="round"/></svg>
