<svg viewBox="0 0 64 64" fill="none" xmlns="http://www.w3.org/2000/svg" width="1em" height="1em"><path d="M4.5 55.5L4.5 53.5C4.5 47.9772 8.97715 43.5 14.5 43.5H29.5C35.0228 43.5 39.5 47.9772 39.5 53.5V55.5" stroke="currentColor" stroke-linecap="round"/><path d="M22 38.5C27.5228 38.5 32 34.0228 32 28.5C32 22.9772 27.5228 18.5 22 18.5C16.4772 18.5 12 22.9772 12 28.5C12 34.0228 16.4772 38.5 22 38.5Z" stroke="currentColor" stroke-linecap="round" stroke-linejoin="round"/><path d="M39.5 17.9999L48.0858 9.41415C48.8668 8.63311 50.1332 8.63311 50.9142 9.41416L59.5 17.9999M39.5 26.9999L48.0858 18.4142C48.8668 17.6331 50.1332 17.6331 50.9142 18.4142L59.5 26.9999M39.5 35.9999L48.0858 27.4142C48.8668 26.6331 50.1332 26.6331 50.9142 27.4142L59.5 35.9999" stroke="currentColor" stroke-linecap="round"/></svg>
