<svg viewBox="0 0 64 64" fill="none" xmlns="http://www.w3.org/2000/svg" width="1em" height="1em"><path d="M4.5 55.5L4.5 53.5C4.5 47.9772 8.97715 43.5 14.5 43.5H29.5C35.0228 43.5 39.5 47.9772 39.5 53.5V55.5" stroke="currentColor" stroke-linecap="round"/><path d="M22 38.5C27.5228 38.5 32 34.0228 32 28.5C32 22.9772 27.5228 18.5 22 18.5C16.4772 18.5 12 22.9772 12 28.5C12 34.0228 16.4772 38.5 22 38.5Z" stroke="currentColor" stroke-linecap="round" stroke-linejoin="round"/><path d="M39.1464 17.6464C38.9512 17.8417 38.9512 18.1582 39.1464 18.3535C39.3417 18.5488 39.6583 18.5488 39.8536 18.3535L39.1464 17.6464ZM48.0858 9.41415L47.7322 9.0606V9.0606L48.0858 9.41415ZM50.9142 9.41416L50.5607 9.76771V9.76771L50.9142 9.41416ZM59.1464 18.3535C59.3417 18.5488 59.6583 18.5488 59.8536 18.3535C60.0488 18.1582 60.0488 17.8417 59.8536 17.6464L59.1464 18.3535ZM39.1464 26.6464C38.9512 26.8417 38.9512 27.1582 39.1464 27.3535C39.3417 27.5488 39.6583 27.5488 39.8536 27.3535L39.1464 26.6464ZM48.0858 18.4142L47.7322 18.0606L48.0858 18.4142ZM50.9142 18.4142L50.5607 18.7677V18.7677L50.9142 18.4142ZM59.1464 27.3535C59.3417 27.5488 59.6583 27.5488 59.8536 27.3535C60.0488 27.1582 60.0488 26.8417 59.8536 26.6464L59.1464 27.3535ZM39.1464 35.6464C38.9512 35.8417 38.9512 36.1582 39.1464 36.3535C39.3417 36.5488 39.6583 36.5488 39.8536 36.3535L39.1464 35.6464ZM48.0858 27.4142L47.7322 27.0606L48.0858 27.4142ZM50.9142 27.4142L50.5607 27.7677L50.9142 27.4142ZM59.1464 36.3535C59.3417 36.5488 59.6583 36.5488 59.8536 36.3535C60.0488 36.1582 60.0488 35.8417 59.8536 35.6464L59.1464 36.3535ZM39.8536 18.3535L48.4393 9.76771L47.7322 9.0606L39.1464 17.6464L39.8536 18.3535ZM50.5607 9.76771L59.1464 18.3535L59.8536 17.6464L51.2678 9.0606L50.5607 9.76771ZM48.4393 9.76771C49.0251 9.18192 49.9749 9.18192 50.5607 9.76771L51.2678 9.0606C50.2915 8.08429 48.7085 8.08429 47.7322 9.0606L48.4393 9.76771ZM39.8536 27.3535L48.4393 18.7677L47.7322 18.0606L39.1464 26.6464L39.8536 27.3535ZM50.5607 18.7677L59.1464 27.3535L59.8536 26.6464L51.2678 18.0606L50.5607 18.7677ZM48.4393 18.7677C49.0251 18.1819 49.9749 18.1819 50.5607 18.7677L51.2678 18.0606C50.2915 17.0843 48.7085 17.0843 47.7322 18.0606L48.4393 18.7677ZM39.8536 36.3535L48.4393 27.7677L47.7322 27.0606L39.1464 35.6464L39.8536 36.3535ZM50.5607 27.7677L59.1464 36.3535L59.8536 35.6464L51.2678 27.0606L50.5607 27.7677ZM48.4393 27.7677C49.0251 27.1819 49.9749 27.1819 50.5607 27.7677L51.2678 27.0606C50.2915 26.0843 48.7085 26.0843 47.7322 27.0606L48.4393 27.7677Z" fill="currentColor"/></svg>
