<svg xmlns="http://www.w3.org/2000/svg" fill="none" viewBox="0 0 24 24" width="1em" height="1em"><path stroke="currentColor" d="M3.178 13.664a.96.96 0 0 1 0-1.328 11.94 11.94 0 0 1 8.88-3.836c4.697 0 7.557 2.46 8.803 3.853a.95.95 0 0 1 0 1.294c-1.246 1.394-4.107 3.853-8.803 3.853a11.94 11.94 0 0 1-8.88-3.836Z"/><circle cx="12" cy="13" r="2.5" stroke="currentColor"/><circle cx="12" cy="13" r=".5" stroke="currentColor"/><path stroke="currentColor" stroke-linecap="round" d="M17.5 7.5 19 6M6.5 7.484 5 5.984M12.5 7V5"/></svg>
