<svg xmlns="http://www.w3.org/2000/svg" fill="none" viewBox="0 0 32 32" width="1em" height="1em"><path stroke="currentColor" stroke-linecap="round" stroke-linejoin="round" d="M15 28.5a1 1 0 1 0 2 0"/><path stroke="currentColor" stroke-linecap="round" d="M14.5 26.5h3"/><path stroke="currentColor" d="M23.5 14.1a7.62 7.62 0 0 1-3.254 6.266 2.8 2.8 0 0 0-.963 1.116l-.98 2.142a1.5 1.5 0 0 1-1.365.876h-1.876a1.5 1.5 0 0 1-1.364-.876l-.98-2.142a2.8 2.8 0 0 0-.964-1.116A7.62 7.62 0 0 1 8.5 14.1c0-4.203 3.364-7.6 7.5-7.6s7.5 3.397 7.5 7.6Z"/><path stroke="currentColor" stroke-linecap="round" d="M6 13.5H4.5m3-6L6 6m21.5 7.5H26M26 6l-1.5 1.5M16 2v2"/></svg>
