<svg xmlns="http://www.w3.org/2000/svg" fill="none" viewBox="0 0 16 16" width="1em" height="1em"><path stroke="currentColor" stroke-linecap="round" stroke-linejoin="round" d="M7 13.5a1 1 0 1 0 2 0"/><path stroke="currentColor" d="M11.5 7.05a3.56 3.56 0 0 1-1.391 2.833c-.28.215-.578.483-.796.837l-.044.072a1.49 1.49 0 0 1-2.538 0l-.044-.072c-.218-.354-.516-.622-.796-.837A3.56 3.56 0 0 1 4.5 7.05C4.5 5.084 6.073 3.5 8 3.5s3.5 1.584 3.5 3.55Z"/><path stroke="currentColor" stroke-linecap="round" d="M2.5 7.5H2m1.5-4L3 3m11 4.5h-.5M13 3l-.5.5M8 2v-.5"/></svg>
