<svg xmlns="http://www.w3.org/2000/svg" fill="none" viewBox="0 0 24 24" width="1em" height="1em"><path stroke="currentColor" stroke-linecap="round" stroke-linejoin="round" d="M11 21a1 1 0 1 0 2 0"/><path stroke="currentColor" stroke-linecap="round" d="M10.5 19.5h3"/><path stroke="currentColor" d="M17.5 10.85c0 1.814-.928 3.422-2.358 4.392a2.9 2.9 0 0 0-.831.825l-.475.742a1.5 1.5 0 0 1-1.264.691h-1.144a1.5 1.5 0 0 1-1.264-.691l-.475-.742a2.9 2.9 0 0 0-.831-.825c-1.43-.97-2.358-2.578-2.358-4.392C6.5 7.907 8.95 5.5 12 5.5s5.5 2.407 5.5 5.35Z"/><path stroke="currentColor" stroke-linecap="round" d="M3.5 11.5h-1m2-7L4 4m17.5 7.5h-1M20 4l-.5.5m-7.5-2v1"/></svg>
