<svg viewBox="0 0 16 16" fill="none" xmlns="http://www.w3.org/2000/svg" width="1em" height="1em"><path d="M2.62302 14.2806C2.61408 14.2885 2.60542 14.2968 2.59707 14.3053C2.38176 14.5261 2.12894 14.5423 1.91763 14.4383C1.69775 14.3301 1.5 14.0746 1.5 13.6925V2.30491C1.5 1.80625 1.84966 1.5 2.16667 1.5L13.8333 1.5C14.1503 1.5 14.5 1.80625 14.5 2.30491V11.6951C14.5 12.1938 14.1503 12.5 13.8333 12.5H4.81818C4.69581 12.5 4.57769 12.5449 4.48619 12.6261L2.62302 14.2806Z" stroke="currentColor" stroke-linecap="round" stroke-linejoin="round"/><path d="M4.5 6.74074C4.5 6.60778 4.60778 6.5 4.74074 6.5H6.25926C6.39222 6.5 6.5 6.60778 6.5 6.74074V10.2593C6.5 10.3922 6.39222 10.5 6.25926 10.5H4.74074C4.60778 10.5 4.5 10.3922 4.5 10.2593V6.74074Z" stroke="currentColor"/><path d="M10.5 10.5H7.5H5" stroke="currentColor"/><path d="M9.5 5C9.22386 5 9 5.22386 9 5.5C9 5.77614 9.22386 6 9.5 6V5ZM9.5 6H10.5V5H9.5V6ZM11 6.5V9.5H12V6.5H11ZM10.5 11C11.3284 11 12 10.3284 12 9.5H11C11 9.77614 10.7761 10 10.5 10V11ZM10.5 6C10.7761 6 11 6.22386 11 6.5H12C12 5.67157 11.3284 5 10.5 5V6Z" fill="currentColor"/><path d="M5.00009 6.50004C7.50007 6.50004 7.50004 5.38159 7.50004 4.4998V4.4998C7.50004 3.94759 7.94779 3.49994 8.5 3.49996V3.49996C9.05227 3.49998 9.50004 3.94769 9.50005 4.49995L9.50006 5.49996" stroke="currentColor"/></svg>
