<svg xmlns="http://www.w3.org/2000/svg" fill="none" viewBox="0 0 24 24" width="1em" height="1em"><path stroke="currentColor" stroke-linecap="round" stroke-linejoin="round" d="M6 19.5a.5.5 0 0 0-.393.191L4.43 21.19c-.393.32-.882.38-1.262.24-.37-.137-.669-.473-.669-1.053v-16.8c0-.57.496-1.077 1.167-1.077h16.666c.671 0 1.167.508 1.167 1.077v14.926c0 .537-.46.997-1.167.997z"/><path stroke="currentColor" d="M5.5 9.74a.24.24 0 0 1 .24-.24h2.52a.24.24 0 0 1 .24.24v6.52a.24.24 0 0 1-.24.24H5.74a.24.24 0 0 1-.24-.24z"/><path fill="currentColor" d="M15.5 17a.5.5 0 0 0 0-1zm0-1h-4.65v1h4.65zm-5.09-.104-1.686-.843-.448.894 1.688.844zm.44.104a1 1 0 0 1-.44-.104l-.446.895c.275.137.578.209.886.209zm2.65-8a.5.5 0 0 0 0 1zm0 1h4V8h-4zm4 1h-2v1h2zm.5-.5a.5.5 0 0 1-.5.5v1A1.5 1.5 0 0 0 19 9.5zm-.5-.5a.5.5 0 0 1 .5.5h1A1.5 1.5 0 0 0 17.5 8z"/><path stroke="currentColor" stroke-linecap="round" d="M14.5 10.5h3a1 1 0 0 1 1 1v0a1 1 0 0 1-1 1h-3m0 0h3a1 1 0 0 1 1 1v0a1 1 0 0 1-1 1h-3m0 0h2a1 1 0 0 1 1 1v0a1 1 0 0 1-1 1h-2"/><path stroke="currentColor" d="M8 10.5c1.769 0 3.147-1.565 3.441-4.002.067-.548.507-.998 1.059-.998a1 1 0 0 1 1 1v2"/></svg>
