<svg viewBox="0 0 32 32" fill="none" xmlns="http://www.w3.org/2000/svg" width="1em" height="1em"><path d="M5.57539 28.985L5.56477 28.9948C4.41718 30.0904 2.5 29.2828 2.5 27.5652V4.43005C2.5 3.34478 3.33976 2.5 4.33333 2.5L27.6667 2.5C28.6602 2.5 29.5 3.34478 29.5 4.43005V23.57C29.5 24.6552 28.6602 25.5 27.6667 25.5H10.4043C9.78635 25.5 9.19029 25.7289 8.73113 26.1425L5.57539 28.985Z" stroke="currentColor" stroke-linecap="round" stroke-linejoin="round"/><mask id="path-2-inside-1_2_67721" fill="currentColor"><path d="M6 12C6 11.4477 6.44772 11 7 11H10C11.1046 11 12 11.8954 12 13V20C12 21.1046 11.1046 22 10 22H7C6.44772 22 6 21.5523 6 21V12Z"/></mask><path d="M7 12H10V10H7V12ZM11 13V20H13V13H11ZM10 21H7V23H10V21ZM7 21V12H5V21H7ZM7 21H7H5C5 22.1046 5.89543 23 7 23V21ZM11 20C11 20.5523 10.5523 21 10 21V23C11.6569 23 13 21.6569 13 20H11ZM10 12C10.5523 12 11 12.4477 11 13H13C13 11.3431 11.6569 10 10 10V12ZM7 10C5.89543 10 5 10.8954 5 12H7V12V10Z" fill="currentColor" mask="url(#path-2-inside-1_2_67721)"/><circle cx="9.5" cy="19.5" r="0.25" stroke="currentColor" stroke-width="0.5"/><path d="M15.28 21.4998L15.28 20.9998L15.28 21.4998ZM14.7308 21.4229L14.8681 20.9421L14.8681 20.9421L14.7308 21.4229ZM20 21.0002L15.28 20.9998L15.2799 21.9998L19.9999 22.0002L20 21.0002ZM14.8681 20.9421L11.6373 20.0192L11.3627 20.9808L14.5935 21.9037L14.8681 20.9421ZM15.28 20.9998C15.1407 20.9998 15.0021 20.9804 14.8681 20.9421L14.5935 21.9037C14.8167 21.9674 15.0478 21.9998 15.2799 21.9998L15.28 20.9998Z" fill="currentColor"/><path d="M17.5 11.0005C17.2239 11.0005 17 11.2243 17 11.5005C17 11.7766 17.2239 12.0005 17.5 12.0005V11.0005ZM17.5 12.0005H24.25V11.0005H17.5V12.0005ZM24.25 13.5005H22.4V14.5005H24.25V13.5005ZM25 12.7505C25 13.1647 24.6642 13.5005 24.25 13.5005V14.5005C25.2165 14.5005 26 13.717 26 12.7505H25ZM24.25 12.0005C24.6642 12.0005 25 12.3363 25 12.7505H26C26 11.784 25.2165 11.0005 24.25 11.0005V12.0005Z" fill="currentColor"/><path d="M21 13.5005C20.7239 13.5005 20.5 13.7243 20.5 14.0005C20.5 14.2766 20.7239 14.5005 21 14.5005V13.5005ZM20.5 16.0005C20.2239 16.0005 20 16.2243 20 16.5005C20 16.7766 20.2239 17.0005 20.5 17.0005V16.0005ZM21 14.5005H23.75V13.5005H21V14.5005ZM23.75 16.0005H20.5V17.0005H23.75V16.0005ZM24.5 15.2505C24.5 15.6647 24.1642 16.0005 23.75 16.0005V17.0005C24.7165 17.0005 25.5 16.217 25.5 15.2505H24.5ZM23.75 14.5005C24.1642 14.5005 24.5 14.8363 24.5 15.2505H25.5C25.5 14.284 24.7165 13.5005 23.75 13.5005V14.5005Z" fill="currentColor"/><path d="M21 16.0005C20.7239 16.0005 20.5 16.2243 20.5 16.5005C20.5 16.7766 20.7239 17.0005 21 17.0005V16.0005ZM21 18.5005C20.7239 18.5005 20.5 18.7243 20.5 19.0005C20.5 19.2766 20.7239 19.5005 21 19.5005V18.5005ZM21 17.0005H23.25V16.0005H21V17.0005ZM23.25 18.5005H21V19.5005H23.25V18.5005ZM24 17.7505C24 18.1647 23.6642 18.5005 23.25 18.5005V19.5005C24.2165 19.5005 25 18.717 25 17.7505H24ZM23.25 17.0005C23.6642 17.0005 24 17.3363 24 17.7505H25C25 16.784 24.2165 16.0005 23.25 16.0005V17.0005Z" fill="currentColor"/><path d="M20 18.5005C19.7239 18.5005 19.5 18.7243 19.5 19.0005C19.5 19.2766 19.7239 19.5005 20 19.5005V18.5005ZM18.6667 21.0005C18.3905 21.0005 18.1667 21.2243 18.1667 21.5005C18.1667 21.7766 18.3905 22.0005 18.6667 22.0005V21.0005ZM20 19.5005H22.25V18.5005H20V19.5005ZM22.25 21.0005H18.6667V22.0005H22.25V21.0005ZM23 20.2505C23 20.6647 22.6642 21.0005 22.25 21.0005V22.0005C23.2165 22.0005 24 21.217 24 20.2505H23ZM22.25 19.5005C22.6642 19.5005 23 19.8363 23 20.2505H24C24 19.284 23.2165 18.5005 22.25 18.5005V19.5005Z" fill="currentColor"/><path d="M18.3405 8.32473L17.8571 8.19681L18.3405 8.32473ZM18 6.7499L18 7.09808L19 7.09805L19 6.74987L18 6.7499ZM17.8571 8.19681L17.0167 11.3725L17.9835 11.6283L18.8239 8.45264L17.8571 8.19681ZM15.3893 6.65255C15.1518 7.95447 14.5549 9.32405 13.8001 10.3593C13.0229 11.4252 12.1834 12.0002 11.5 12.0003L11.5002 13.0003C12.6882 13.0001 13.7882 12.073 14.6081 10.9484C15.4504 9.79319 16.1082 8.2839 16.373 6.83197L15.3893 6.65255ZM18 7.09808C18.0001 7.46896 17.952 7.83828 17.8571 8.19681L18.8239 8.45264C18.9408 8.01061 19.0001 7.5553 19 7.09805L18 7.09808ZM17.25 5.99995C17.6642 5.99989 18 6.33566 18 6.7499L19 6.74987C19 5.7833 18.2164 4.9998 17.2498 4.99995L17.25 5.99995ZM17.2498 4.99995C16.269 5.0001 15.547 5.78758 15.3893 6.65255L16.373 6.83197C16.463 6.33881 16.8502 6.00001 17.25 5.99995L17.2498 4.99995Z" fill="currentColor"/></svg>
