<svg xmlns="http://www.w3.org/2000/svg" fill="none" viewBox="0 0 32 32" width="1em" height="1em"><path stroke="currentColor" stroke-linecap="round" stroke-linejoin="round" d="m5.575 28.985-.01.01c-1.148 1.095-3.065.288-3.065-1.43V4.43c0-1.085.84-1.93 1.833-1.93h23.334c.993 0 1.833.845 1.833 1.93v19.14c0 1.085-.84 1.93-1.833 1.93H10.404a2.5 2.5 0 0 0-1.673.642z"/><path stroke="currentColor" d="M6.5 12a.5.5 0 0 1 .5-.5h3a1.5 1.5 0 0 1 1.5 1.5v7a1.5 1.5 0 0 1-1.5 1.5H7a.5.5 0 0 1-.5-.5z"/><circle cx="9.5" cy="19.5" r=".25" stroke="currentColor" stroke-width=".5"/><path stroke="currentColor" d="M20 21.5h-4.72a2 2 0 0 1-.55-.077L11.5 20.5"/><path fill="currentColor" d="M17.5 11a.5.5 0 1 0 0 1zm0 1h6.75v-1H17.5zm6.75 1.5H22.4v1h1.85zm.75-.75a.75.75 0 0 1-.75.75v1A1.75 1.75 0 0 0 26 12.75zm-.75-.75a.75.75 0 0 1 .75.75h1A1.75 1.75 0 0 0 24.25 11z"/><path stroke="currentColor" stroke-linecap="round" d="M21 14h2.75c.69 0 1.25.56 1.25 1.25v0c0 .69-.56 1.25-1.25 1.25H20.5m.5 0h2.25c.69 0 1.25.56 1.25 1.25v0c0 .69-.56 1.25-1.25 1.25H21m-1 0h2.25c.69 0 1.25.56 1.25 1.25v0c0 .69-.56 1.25-1.25 1.25h-3.583"/><path stroke="currentColor" d="m17.5 11.5.84-3.175c.106-.4.16-.813.16-1.227V6.75c0-.69-.56-1.25-1.25-1.25s-1.245.563-1.369 1.242C15.38 9.496 13.371 12.5 11.5 12.5"/></svg>
