<svg viewBox="0 0 24 24" fill="none" xmlns="http://www.w3.org/2000/svg" width="1em" height="1em"><path d="M6 19.5C5.84647 19.5 5.70145 19.5705 5.60667 19.6913L4.43127 21.189C4.03804 21.5098 3.5489 21.5688 3.16914 21.4282C2.7998 21.2915 2.5 20.9555 2.5 20.3756L2.5 3.57698C2.5 3.00788 2.99592 2.5 3.66667 2.5L20.3333 2.5C21.0041 2.5 21.5 3.00788 21.5 3.57698V18.5032C21.5 19.0397 21.0398 19.5 20.3333 19.5H6Z" stroke="currentColor" stroke-linecap="round" stroke-linejoin="round"/><mask id="path-2-inside-1_2_67709" fill="currentColor"><path d="M5 9.74074C5 9.33164 5.33164 9 5.74074 9H8.25926C8.66836 9 9 9.33164 9 9.74074V16.2593C9 16.6684 8.66836 17 8.25926 17H5.74074C5.33164 17 5 16.6684 5 16.2593V9.74074Z"/></mask><path d="M5.74074 10H8.25926V8H5.74074V10ZM8 9.74074V16.2593H10V9.74074H8ZM8.25926 16H5.74074V18H8.25926V16ZM6 16.2593V9.74074H4V16.2593H6ZM5.74074 16C5.88393 16 6 16.1161 6 16.2593H4C4 17.2206 4.77936 18 5.74074 18V16ZM8 16.2593C8 16.1161 8.11607 16 8.25926 16V18C9.22064 18 10 17.2206 10 16.2593H8ZM8.25926 10C8.11607 10 8 9.88393 8 9.74074H10C10 8.77936 9.22064 8 8.25926 8V10ZM5.74074 8C4.77936 8 4 8.77936 4 9.74074H6C6 9.88393 5.88393 10 5.74074 10V8Z" fill="currentColor" mask="url(#path-2-inside-1_2_67709)"/><path d="M15.5 17C15.7761 17 16 16.7761 16 16.5C16 16.2239 15.7761 16 15.5 16V17ZM15.5 16H10.8497V17H15.5V16ZM10.4108 15.8964L8.72361 15.0528L8.27639 15.9472L9.96358 16.7908L10.4108 15.8964ZM10.8497 16C10.6974 16 10.5471 15.9645 10.4108 15.8964L9.96358 16.7908C10.2387 16.9284 10.5421 17 10.8497 17V16Z" fill="currentColor"/><path d="M13.5 8C13.2239 8 13 8.22386 13 8.5C13 8.77614 13.2239 9 13.5 9V8ZM13.5 9H17.5V8H13.5V9ZM17.5 10H15.5V11H17.5V10ZM18 9.5C18 9.77614 17.7761 10 17.5 10V11C18.3284 11 19 10.3284 19 9.5H18ZM17.5 9C17.7761 9 18 9.22386 18 9.5H19C19 8.67157 18.3284 8 17.5 8V9Z" fill="currentColor"/><path d="M14.5 10C14.2239 10 14 10.2239 14 10.5C14 10.7761 14.2239 11 14.5 11V10ZM14.5 12C14.2239 12 14 12.2239 14 12.5C14 12.7761 14.2239 13 14.5 13V12ZM14.5 11H17.5V10H14.5V11ZM17.5 12H14.5V13H17.5V12ZM18 11.5C18 11.7761 17.7761 12 17.5 12V13C18.3284 13 19 12.3284 19 11.5H18ZM17.5 11C17.7761 11 18 11.2239 18 11.5H19C19 10.6716 18.3284 10 17.5 10V11Z" fill="currentColor"/><path d="M14.5 12C14.2239 12 14 12.2239 14 12.5C14 12.7761 14.2239 13 14.5 13V12ZM14.5 14C14.2239 14 14 14.2239 14 14.5C14 14.7761 14.2239 15 14.5 15V14ZM14.5 13H17.5V12H14.5V13ZM17.5 14H14.5V15H17.5V14ZM18 13.5C18 13.7761 17.7761 14 17.5 14V15C18.3284 15 19 14.3284 19 13.5H18ZM17.5 13C17.7761 13 18 13.2239 18 13.5H19C19 12.6716 18.3284 12 17.5 12V13Z" fill="currentColor"/><path d="M14.5 14C14.2239 14 14 14.2239 14 14.5C14 14.7761 14.2239 15 14.5 15V14ZM14.5 16C14.2239 16 14 16.2239 14 16.5C14 16.7761 14.2239 17 14.5 17V16ZM14.5 15H16.5V14H14.5V15ZM16.5 16H14.5V17H16.5V16ZM17 15.5C17 15.7761 16.7761 16 16.5 16V17C17.3284 17 18 16.3284 18 15.5H17ZM16.5 15C16.7761 15 17 15.2239 17 15.5H18C18 14.6716 17.3284 14 16.5 14V15Z" fill="currentColor"/><path d="M11.4415 6.49829L10.9451 6.43825L11.4415 6.49829ZM13 6.49998L13 8.49991L14 8.49992L14 6.5L13 6.49998ZM7.99999 11C10.1303 11 11.6279 9.12147 11.9379 6.55833L10.9451 6.43825C10.6656 8.74934 9.40752 9.99996 7.99999 9.99996L7.99999 11ZM12.5 6C12.7762 6 13 6.22385 13 6.49998L14 6.5C14 5.67157 13.3284 5 12.5 5L12.5 6ZM12.5 5C11.6573 5 11.0371 5.67798 10.9451 6.43825L11.9379 6.55833C11.9786 6.22204 12.2382 6 12.5 6L12.5 5Z" fill="currentColor"/></svg>
