<svg xmlns="http://www.w3.org/2000/svg" fill="none" viewBox="0 0 16 16" width="1em" height="1em"><path stroke="currentColor" stroke-linecap="round" stroke-linejoin="round" d="M2.623 14.28a.509.509 0 0 0-.026.025c-.215.221-.468.237-.68.133-.22-.108-.417-.363-.417-.745V2.305c0-.499.35-.805.667-.805h11.666c.317 0 .667.306.667.805v9.39c0 .499-.35.805-.667.805H4.818a.5.5 0 0 0-.332.126l-1.863 1.655Z"/><circle cx="8" cy="7" r=".5" stroke="currentColor"/><circle cx="5" cy="7" r=".5" stroke="currentColor"/><circle cx="11" cy="7" r=".5" stroke="currentColor"/></svg>
