<svg viewBox="0 0 32 32" fill="none" xmlns="http://www.w3.org/2000/svg" stroke="currentColor" width="1em" height="1em"><path d="M4.5 21C4.5 21.2761 4.72386 21.5 5 21.5H9C9.82843 21.5 10.5 20.8284 10.5 20V10C10.5 9.17157 9.82843 8.5 9 8.5H5C4.72386 8.5 4.5 8.72386 4.5 9V21Z"/><circle r="0.25" transform="matrix(1 0 0 -1 8.5 10.5)" stroke-width="0.5"/><path d="M22 8.5H15.7935C15.5989 8.5 15.4053 8.52842 15.2188 8.58435L10.5 10"/><path d="M19.5 20.9995C19.2239 20.9995 19 20.7757 19 20.4995C19 20.2234 19.2239 19.9995 19.5 19.9995V20.9995ZM19.5 19.9995H26V20.9995H19.5V19.9995ZM26 17.9995H23V16.9995H26V17.9995ZM27 18.9995C27 18.4472 26.5523 17.9995 26 17.9995V16.9995C27.1046 16.9995 28 17.8949 28 18.9995H27ZM26 19.9995C26.5523 19.9995 27 19.5518 27 18.9995H28C28 20.1041 27.1046 20.9995 26 20.9995V19.9995Z" fill="#282829"/><path d="M20.5 17.4995H25.5C26.3284 17.4995 27 16.8279 27 15.9995V15.9995C27 15.1711 26.3284 14.4995 25.5 14.4995H20.5" stroke-linecap="round"/><path d="M21 14.4995H25C25.8284 14.4995 26.5 13.8279 26.5 12.9995V12.9995C26.5 12.1711 25.8284 11.4995 25 11.4995H20.5" stroke-linecap="round"/><path d="M20.5 11.4995H23.5C24.3284 11.4995 25 10.8279 25 9.99951V9.99951C25 9.17108 24.3284 8.49951 23.5 8.49951H19.5" stroke-linecap="round"/><path d="M19.5 20.4994L20.3802 22.2598C20.4597 22.4188 20.518 22.5866 20.5433 22.7626C20.6392 23.4312 20.8019 25.1983 20 26.0002C19.5366 26.4637 18.9658 26.4976 18.4866 26.4005C17.8312 26.2678 17.4999 25.5986 17.4999 24.9298L17.4999 24.1768C17.4999 23.4505 17.1062 22.7813 16.4714 22.4286L13.2266 20.6253C13.078 20.5427 12.9108 20.4994 12.7408 20.4994L10 20.4994"/></svg>
