<svg viewBox="0 0 16 16" fill="none" xmlns="http://www.w3.org/2000/svg" width="1em" height="1em"><mask id="path-1-inside-1_2_62268" fill="currentColor"><path d="M1 10C1 10.5523 1.44772 11 2 11H4C4.55228 11 5 10.5523 5 10V3C5 2.44771 4.55228 2 4 2H2C1.44772 2 1 2.44771 1 3V10Z"/></mask><path d="M2 10H4V12H2V10ZM4 10V3H6V10H4ZM4 3H2V1H4V3ZM2 3V10H0V3H2ZM2 3H0C0 1.89543 0.895431 1 2 1V3ZM4 3V1C5.10457 1 6 1.89543 6 3H4ZM4 10H6C6 11.1046 5.10457 12 4 12V10ZM2 12C0.895431 12 0 11.1046 0 10H2V10V12Z" fill="currentColor" mask="url(#path-1-inside-1_2_62268)"/><path d="M12 3H6.97214V2H12V3ZM6.30132 3.15836L4.72361 3.94721L4.27639 3.05279L5.8541 2.26393L6.30132 3.15836ZM6.97214 3C6.73927 3 6.5096 3.05422 6.30132 3.15836L5.8541 2.26393C6.20124 2.09036 6.58402 2 6.97214 2V3Z" fill="currentColor"/><path d="M9.50012 11C9.22398 11 9.00012 10.7761 9.00012 10.5C9.00012 10.2239 9.22398 10 9.50012 10V11ZM9.50012 10H13.5001V11H9.50012V10ZM13.5001 9H13.0001V8H13.5001V9ZM14.0001 9.5C14.0001 9.22386 13.7763 9 13.5001 9V8C14.3285 8 15.0001 8.67157 15.0001 9.5H14.0001ZM13.5001 10C13.7763 10 14.0001 9.77614 14.0001 9.5H15.0001C15.0001 10.3284 14.3285 11 13.5001 11V10Z" fill="currentColor"/><path d="M11 9C10.7239 9 10.5 8.77614 10.5 8.5C10.5 8.22386 10.7239 8 11 8V9ZM11 7C10.7239 7 10.5 6.77614 10.5 6.5C10.5 6.22386 10.7239 6 11 6V7ZM11 8H13V9H11V8ZM13 7H11V6H13V7ZM13.5 7.5C13.5 7.22386 13.2761 7 13 7V6C13.8284 6 14.5 6.67157 14.5 7.5H13.5ZM13 8C13.2761 8 13.5 7.77614 13.5 7.5H14.5C14.5 8.32843 13.8284 9 13 9V8Z" fill="currentColor"/><path d="M12.0001 7.00024C11.724 7.00024 11.5001 6.77639 11.5001 6.50024C11.5001 6.2241 11.724 6.00024 12.0001 6.00024V7.00024ZM11.0001 5.00024C10.724 5.00024 10.5001 4.77639 10.5001 4.50024C10.5001 4.2241 10.724 4.00024 11.0001 4.00024V5.00024ZM12.0001 6.00024H12.5001V7.00024H12.0001V6.00024ZM12.5001 5.00024H11.0001V4.00024H12.5001V5.00024ZM13.0001 5.50024C13.0001 5.2241 12.7763 5.00024 12.5001 5.00024V4.00024C13.3285 4.00024 14.0001 4.67182 14.0001 5.50024H13.0001ZM12.5001 6.00024C12.7763 6.00024 13.0001 5.77639 13.0001 5.50024H14.0001C14.0001 6.32867 13.3285 7.00024 12.5001 7.00024V6.00024Z" fill="currentColor"/><path d="M11 5C10.7239 5 10.5 4.77614 10.5 4.5C10.5 4.22386 10.7239 4 11 4V5ZM10.5 3C10.2239 3 10 2.77614 10 2.5C10 2.22386 10.2239 2 10.5 2V3ZM13 3.5L13.5 3.50001L13 3.5ZM11 4H12V5H11V4ZM12 3H10.5V2H12V3ZM12.5 3.5C12.5 3.22386 12.2761 3 12 3V2C12.8284 2 13.5 2.67158 13.5 3.50001L12.5 3.5ZM12 4C12.2761 4 12.5 3.77614 12.5 3.5L13.5 3.50001C13.5 4.32843 12.8284 5 12 5V4Z" fill="currentColor"/><path d="M9.75053 11.7523L9.26024 11.8504L9.75053 11.7523ZM7.5001 13.5229L7.0001 13.5229L7.5001 13.5229ZM5.44158 10.0001L5.44159 10.5001L5.44158 10.0001ZM6.29301 10.4756L5.86731 10.7378L6.29301 10.4756ZM7.50011 12.4638L8.00011 12.4638L7.50011 12.4638ZM7.48499 12.4104L7.05928 12.6727L7.48499 12.4104ZM8.00011 12.4638L8.0001 13.5229L7.0001 13.5229L7.00011 12.4638L8.00011 12.4638ZM9.26024 11.8504L9.00979 10.5981L9.99037 10.402L10.2408 11.6543L9.26024 11.8504ZM4.50005 9.50009L5.44157 9.50006L5.44159 10.5001L4.50007 10.5001L4.50005 9.50009ZM6.71872 10.2133L7.91069 12.1482L7.05928 12.6727L5.86731 10.7378L6.71872 10.2133ZM8.87531 13.7858C9.25419 13.2175 9.39384 12.5184 9.26024 11.8504L10.2408 11.6543C10.4268 12.5841 10.2323 13.553 9.70734 14.3405L8.87531 13.7858ZM8.47716 14C8.63546 14 8.78615 13.9195 8.87531 13.7858L9.70734 14.3405C9.43406 14.7504 8.97221 15 8.47714 15L8.47716 14ZM8.0001 13.5229C8.0001 13.7864 8.21369 14 8.47716 14L8.47714 15C7.66139 15 7.0001 14.3387 7.0001 13.5229L8.0001 13.5229ZM5.44157 9.50006C5.96221 9.50005 6.44563 9.77002 6.71872 10.2133L5.86731 10.7378C5.77628 10.59 5.61514 10.5001 5.44159 10.5001L5.44157 9.50006ZM7.00011 12.4638C7.00011 12.5376 7.0206 12.6099 7.05928 12.6727L7.91069 12.1482C7.96916 12.2431 8.00012 12.3524 8.00011 12.4638L7.00011 12.4638Z" fill="currentColor"/></svg>
