<svg xmlns="http://www.w3.org/2000/svg" fill="none" viewBox="0 0 24 24" width="1em" height="1em"><path stroke="currentColor" d="M2.5 15a.5.5 0 0 0 .5.5h3A1.5 1.5 0 0 0 7.5 14V7A1.5 1.5 0 0 0 6 5.5H3a.5.5 0 0 0-.5.5z"/><circle cx=".5" cy=".5" r=".25" stroke="currentColor" stroke-width=".5" transform="matrix(1 0 0 -1 5 8)"/><path stroke="currentColor" d="M16 5.5h-4.72a2 2 0 0 0-.55.077L7.5 6.5"/><path fill="currentColor" d="M13.5 16a.5.5 0 1 1 0-1zm0-1h6.75v1H13.5zm6.75-1.5H18.4v-1h1.85zm.75.75a.75.75 0 0 0-.75-.75v-1c.966 0 1.75.783 1.75 1.75zm-.75.75a.75.75 0 0 0 .75-.75h1A1.75 1.75 0 0 1 20.25 16z"/><path stroke="currentColor" stroke-linecap="round" d="M17 13h2.75c.69 0 1.25-.56 1.25-1.25v0c0-.69-.56-1.25-1.25-1.25H16.5m.5 0h2.25c.69 0 1.25-.56 1.25-1.25v0c0-.69-.56-1.25-1.25-1.25H17m-1 0h2.25c.69 0 1.25-.56 1.25-1.25v0c0-.69-.56-1.25-1.25-1.25h-3.583"/><path stroke="currentColor" d="m13.5 15.5.528 1.584a3.6 3.6 0 0 1-.196 2.751l-.049.099a1.024 1.024 0 0 1-1.926-.29l-.141-.849a6.1 6.1 0 0 0-.944-2.388L9.58 14.62a.27.27 0 0 0-.224-.12H7.5"/></svg>
