<svg viewBox="0 0 24 24" fill="none" xmlns="http://www.w3.org/2000/svg" width="1em" height="1em"><path d="M2.5 15C2.5 15.2761 2.72386 15.5 3 15.5H6C6.82843 15.5 7.5 14.8284 7.5 14V7C7.5 6.17157 6.82843 5.5 6 5.5H3C2.72386 5.5 2.5 5.72386 2.5 6V15Z" stroke="currentColor"/><circle r="0.25" transform="matrix(1 0 0 -1 5.5 7.5)" stroke="currentColor" stroke-width="0.5"/><path d="M16 5.49984L11.28 5.5002C11.0942 5.50021 10.9094 5.5261 10.7308 5.57712L7.5 6.5" stroke="currentColor"/><path d="M13.5 15.9995C13.2239 15.9995 13 15.7757 13 15.4995C13 15.2234 13.2239 14.9995 13.5 14.9995V15.9995ZM13.5 14.9995H20.25V15.9995H13.5V14.9995ZM20.25 13.4995H18.4V12.4995H20.25V13.4995ZM21 14.2495C21 13.8353 20.6642 13.4995 20.25 13.4995V12.4995C21.2165 12.4995 22 13.283 22 14.2495H21ZM20.25 14.9995C20.6642 14.9995 21 14.6637 21 14.2495H22C22 15.216 21.2165 15.9995 20.25 15.9995V14.9995Z" fill="currentColor"/><path d="M17 12.9995H19.75C20.4404 12.9995 21 12.4399 21 11.7495V11.7495C21 11.0592 20.4404 10.4995 19.75 10.4995H16.5" stroke="currentColor" stroke-linecap="round"/><path d="M17 10.4995H19.25C19.9404 10.4995 20.5 9.93987 20.5 9.24951V9.24951C20.5 8.55916 19.9404 7.99951 19.25 7.99951H17" stroke="currentColor" stroke-linecap="round"/><path d="M16 7.99951H18.25C18.9404 7.99951 19.5 7.43987 19.5 6.74951V6.74951C19.5 6.05916 18.9404 5.49951 18.25 5.49951H14.6667" stroke="currentColor" stroke-linecap="round"/><path d="M13.5001 15.4996L14.0281 17.0838C14.3303 17.9907 14.2599 18.9806 13.8323 19.8356L13.7832 19.9338C13.6097 20.2807 13.2552 20.4998 12.8674 20.4997V20.4997C12.3669 20.4997 11.9398 20.1379 11.8575 19.6442L11.716 18.7954C11.5737 17.9416 11.2518 17.1276 10.7716 16.4073L9.57988 14.6197C9.53003 14.5449 9.44611 14.5 9.35624 14.5L7.50013 14.4997" stroke="currentColor"/></svg>
