<svg viewBox="0 0 24 24" fill="none" xmlns="http://www.w3.org/2000/svg" width="1em" height="1em"><mask id="path-1-inside-1_2_62279" fill="currentColor"><path d="M2 15C2 15.5523 2.44772 16 3 16H6C7.10457 16 8 15.1046 8 14V7C8 5.89543 7.10457 5 6 5H3C2.44772 5 2 5.44772 2 6V15Z"/></mask><path d="M3 15H6V17H3V15ZM7 14V7H9V14H7ZM6 6H3V4H6V6ZM3 6V15H1V6H3ZM3 6H3H1C1 4.89543 1.89543 4 3 4V6ZM7 7C7 6.44772 6.55228 6 6 6V4C7.65685 4 9 5.34315 9 7H7ZM6 15C6.55228 15 7 14.5523 7 14H9C9 15.6569 7.65685 17 6 17V15ZM3 17C1.89543 17 1 16.1046 1 15H3V15V17Z" fill="currentColor" mask="url(#path-1-inside-1_2_62279)"/><circle r="0.25" transform="matrix(1 0 0 -1 5.5 7.5)" stroke="currentColor" stroke-width="0.5"/><path d="M11.28 5.5002L11.28 6.0002L11.28 5.5002ZM10.7308 5.57712L10.8681 6.05789L10.8681 6.05789L10.7308 5.57712ZM16 5.99984L11.28 6.0002L11.2799 5.0002L15.9999 4.99984L16 5.99984ZM10.8681 6.05789L7.63733 6.98077L7.36267 6.01923L10.5935 5.09635L10.8681 6.05789ZM11.28 6.0002C11.1407 6.00021 11.0021 6.01962 10.8681 6.05789L10.5935 5.09635C10.8167 5.03258 11.0478 5.00021 11.2799 5.0002L11.28 6.0002Z" fill="currentColor"/><path d="M13.5 15.9995C13.2239 15.9995 13 15.7757 13 15.4995C13 15.2234 13.2239 14.9995 13.5 14.9995V15.9995ZM13.5 14.9995H20.25V15.9995H13.5V14.9995ZM20.25 13.4995H18.4V12.4995H20.25V13.4995ZM21 14.2495C21 13.8353 20.6642 13.4995 20.25 13.4995V12.4995C21.2165 12.4995 22 13.283 22 14.2495H21ZM20.25 14.9995C20.6642 14.9995 21 14.6637 21 14.2495H22C22 15.216 21.2165 15.9995 20.25 15.9995V14.9995Z" fill="currentColor"/><path d="M17 13.4995C16.7239 13.4995 16.5 13.2757 16.5 12.9995C16.5 12.7234 16.7239 12.4995 17 12.4995V13.4995ZM16.5 10.9995C16.2239 10.9995 16 10.7757 16 10.4995C16 10.2234 16.2239 9.99951 16.5 9.99951V10.9995ZM17 12.4995H19.75V13.4995H17V12.4995ZM19.75 10.9995H16.5V9.99951H19.75V10.9995ZM20.5 11.7495C20.5 11.3353 20.1642 10.9995 19.75 10.9995V9.99951C20.7165 9.99951 21.5 10.783 21.5 11.7495H20.5ZM19.75 12.4995C20.1642 12.4995 20.5 12.1637 20.5 11.7495H21.5C21.5 12.716 20.7165 13.4995 19.75 13.4995V12.4995Z" fill="currentColor"/><path d="M17 10.9995C16.7239 10.9995 16.5 10.7757 16.5 10.4995C16.5 10.2234 16.7239 9.99951 17 9.99951V10.9995ZM17 8.49951C16.7239 8.49951 16.5 8.27565 16.5 7.99951C16.5 7.72337 16.7239 7.49951 17 7.49951V8.49951ZM17 9.99951H19.25V10.9995H17V9.99951ZM19.25 8.49951H17V7.49951H19.25V8.49951ZM20 9.24951C20 8.8353 19.6642 8.49951 19.25 8.49951V7.49951C20.2165 7.49951 21 8.28301 21 9.24951H20ZM19.25 9.99951C19.6642 9.99951 20 9.66373 20 9.24951H21C21 10.216 20.2165 10.9995 19.25 10.9995V9.99951Z" fill="currentColor"/><path d="M16 8.49951C15.7239 8.49951 15.5 8.27565 15.5 7.99951C15.5 7.72337 15.7239 7.49951 16 7.49951V8.49951ZM14.6667 5.99951C14.3905 5.99951 14.1667 5.77565 14.1667 5.49951C14.1667 5.22337 14.3905 4.99951 14.6667 4.99951V5.99951ZM16 7.49951H18.25V8.49951H16V7.49951ZM18.25 5.99951H14.6667V4.99951H18.25V5.99951ZM19 6.74951C19 6.3353 18.6642 5.99951 18.25 5.99951V4.99951C19.2165 4.99951 20 5.78301 20 6.74951H19ZM18.25 7.49951C18.6642 7.49951 19 7.16373 19 6.74951H20C20 7.71601 19.2165 8.49951 18.25 8.49951V7.49951Z" fill="currentColor"/><path d="M9.35624 14.5L9.35617 15L9.35624 14.5ZM11.8575 19.6442L11.3644 19.7265L11.8575 19.6442ZM13.336 19.7102L13.3851 19.612L14.2795 20.0593L14.2304 20.1575L13.336 19.7102ZM13.5537 17.2419L13.0258 15.6577L13.9745 15.3416L14.5024 16.9257L13.5537 17.2419ZM9.35617 15L7.50005 14.9997L7.5002 13.9997L9.35632 14L9.35617 15ZM11.3644 19.7265L11.2229 18.8777L12.2092 18.7132L12.3507 19.562L11.3644 19.7265ZM10.3556 16.6847L9.16386 14.8971L9.99591 14.3424L11.1876 16.13L10.3556 16.6847ZM13.3851 19.612C13.7534 18.8756 13.814 18.023 13.5537 17.2419L14.5024 16.9257C14.8466 17.9585 14.7664 19.0856 14.2795 20.0593L13.3851 19.612ZM11.2229 18.8777C11.0921 18.0935 10.7965 17.3461 10.3556 16.6847L11.1876 16.13C11.7071 16.9091 12.0553 17.7896 12.2092 18.7132L11.2229 18.8777ZM12.8674 19.9997C13.0658 19.9997 13.2472 19.8877 13.336 19.7102L14.2304 20.1575C13.9722 20.6737 13.4445 20.9998 12.8673 20.9997L12.8674 19.9997ZM9.35632 14C9.61334 14 9.85334 14.1285 9.99591 14.3424L9.16386 14.8971C9.20673 14.9614 9.27889 15 9.35617 15L9.35632 14ZM12.8673 20.9997C12.1225 20.9997 11.4868 20.4612 11.3644 19.7265L12.3507 19.562C12.3928 19.8146 12.6114 19.9997 12.8674 19.9997L12.8673 20.9997Z" fill="currentColor"/></svg>
