<svg viewBox="0 0 16 16" fill="none" xmlns="http://www.w3.org/2000/svg" width="1em" height="1em"><path d="M1.5 10C1.5 10.2761 1.72386 10.5 2 10.5H4C4.27614 10.5 4.5 10.2761 4.5 10V3C4.5 2.72386 4.27614 2.5 4 2.5H2C1.72386 2.5 1.5 2.72386 1.5 3V10Z" stroke="currentColor"/><path d="M12 2.5H6.97214C6.66165 2.5 6.35542 2.57229 6.07771 2.71115L4.5 3.5" stroke="currentColor"/><path d="M9.50012 11C9.22398 11 9.00012 10.7761 9.00012 10.5C9.00012 10.2239 9.22398 10 9.50012 10V11ZM9.50012 10H13.5001V11H9.50012V10ZM13.5001 9H13.0001V8H13.5001V9ZM14.0001 9.5C14.0001 9.22386 13.7763 9 13.5001 9V8C14.3285 8 15.0001 8.67157 15.0001 9.5H14.0001ZM13.5001 10C13.7763 10 14.0001 9.77614 14.0001 9.5H15.0001C15.0001 10.3284 14.3285 11 13.5001 11V10Z" fill="currentColor"/><path d="M11 8.5H13C13.5523 8.5 14 8.05228 14 7.5V7.5C14 6.94772 13.5523 6.5 13 6.5H11" stroke="currentColor" stroke-linecap="round"/><path d="M12.0001 6.50024H12.5001C13.0524 6.50024 13.5001 6.05253 13.5001 5.50024V5.50024C13.5001 4.94796 13.0524 4.50024 12.5001 4.50024H11.0001" stroke="currentColor" stroke-linecap="round"/><path d="M11 4.5H12C12.5523 4.5 13 4.05229 13 3.5V3.5C13 2.94772 12.5523 2.5 12 2.5H10.5" stroke="currentColor" stroke-linecap="round"/><path d="M4.50006 10.0001L5.44158 10.0001C5.78868 10.0001 6.11096 10.18 6.29301 10.4756L7.48499 12.4104C7.49488 12.4265 7.50011 12.445 7.50011 12.4638L7.5001 13.5229C7.5001 14.0625 7.93754 14.5 8.47715 14.5V14.5C8.80384 14.5 9.11011 14.3349 9.29132 14.0631V14.0631C9.74326 13.3852 9.91031 12.5512 9.75053 11.7523L9.50008 10.5" stroke="currentColor"/></svg>
