<svg xmlns="http://www.w3.org/2000/svg" fill="none" viewBox="0 0 32 32" width="1em" height="1em"><path stroke="currentColor" d="M4.5 21a.5.5 0 0 0 .5.5h4a1.5 1.5 0 0 0 1.5-1.5V10A1.5 1.5 0 0 0 9 8.5H5a.5.5 0 0 0-.5.5v12Z"/><circle cx=".5" cy=".5" r=".25" stroke="currentColor" stroke-width=".5" transform="matrix(1 0 0 -1 8 11)"/><path stroke="currentColor" d="M22 8.5h-6.207a2 2 0 0 0-.574.084L10.5 10"/><path fill="currentColor" d="M19.5 21a.5.5 0 1 1 0-1v1Zm0-1H26v1h-6.5v-1Zm6.5-2h-3v-1h3v1Zm1 1a1 1 0 0 0-1-1v-1a2 2 0 0 1 2 2h-1Zm-1 1a1 1 0 0 0 1-1h1a2 2 0 0 1-2 2v-1Z"/><path stroke="currentColor" stroke-linecap="round" d="M20.5 17.5h5A1.5 1.5 0 0 0 27 16v0a1.5 1.5 0 0 0-1.5-1.5h-5m.5 0h4a1.5 1.5 0 0 0 1.5-1.5v0a1.5 1.5 0 0 0-1.5-1.5h-4.5m0 0h3A1.5 1.5 0 0 0 25 10v0a1.5 1.5 0 0 0-1.5-1.5h-4"/><path stroke="currentColor" d="m19.5 20.5.88 1.76c.08.159.138.326.163.502.096.669.259 2.436-.543 3.238-.463.463-1.034.497-1.513.4-.656-.133-.987-.802-.987-1.47v-.753a2 2 0 0 0-1.029-1.749l-3.244-1.803a1 1 0 0 0-.486-.126H10"/></svg>
