<svg xmlns="http://www.w3.org/2000/svg" fill="none" viewBox="0 0 16 16" width="1em" height="1em"><path stroke="currentColor" d="M1.5 10a.5.5 0 0 0 .5.5h2a.5.5 0 0 0 .5-.5V3a.5.5 0 0 0-.5-.5H2a.5.5 0 0 0-.5.5v7ZM12 2.5H6.972a2 2 0 0 0-.894.211L4.5 3.5"/><path fill="currentColor" d="M9.5 11a.5.5 0 0 1 0-1v1Zm0-1h4v1h-4v-1Zm4-1H13V8h.5v1Zm.5.5a.5.5 0 0 0-.5-.5V8A1.5 1.5 0 0 1 15 9.5h-1Zm-.5.5a.5.5 0 0 0 .5-.5h1a1.5 1.5 0 0 1-1.5 1.5v-1Z"/><path stroke="currentColor" stroke-linecap="round" d="M11 8.5h2a1 1 0 0 0 1-1v0a1 1 0 0 0-1-1h-2m1 0h.5a1 1 0 0 0 1-1v0a1 1 0 0 0-1-1H11m0 0h1a1 1 0 0 0 1-1v0a1 1 0 0 0-1-1h-1.5"/><path stroke="currentColor" d="M4.5 10h.942a1 1 0 0 1 .851.476l1.192 1.934c.01.017.015.035.015.054v1.059c0 .54.437.977.977.977a.98.98 0 0 0 .814-.437 3.084 3.084 0 0 0 .46-2.31L9.5 10.5"/></svg>
