<svg xmlns="http://www.w3.org/2000/svg" fill="none" viewBox="0 0 16 16" width="1em" height="1em"><g stroke="currentColor" stroke-linecap="round" stroke-linejoin="round" clip-path="url(#iconsProcessUserSize16Px__a)"><path d="M12.59 5.987 14 6.5l.513-1.41M3.41 10.013 2 9.5l-.513 1.41m8.763 1.791-.75 1.3 1.3.75M6.612 2.949 7 1.499l-1.449-.387"/><path d="M2 6.451A6.2 6.2 0 0 1 6.451 2M2 9.549A6.2 6.2 0 0 0 6.451 14m3.098 0A6.2 6.2 0 0 0 14 9.549M9.549 2A6.2 6.2 0 0 1 14 6.451M5.5 11.5v-1a1 1 0 0 1 1-1h3a1 1 0 0 1 1 1v1"/><circle cx="8" cy="6" r="1.5"/></g><defs><clipPath id="iconsProcessUserSize16Px__a"><path fill="currentColor" d="M0 0h16v16H0z"/></clipPath></defs></svg>
