<svg xmlns="http://www.w3.org/2000/svg" fill="none" viewBox="0 0 32 32" width="1em" height="1em"><circle cx="25" cy="7.5" r="1.5" stroke="currentColor" stroke-miterlimit="10"/><circle cx="25" cy="24.5" r="1.5" stroke="currentColor" stroke-miterlimit="10"/><circle cx="7" cy="7.5" r="1.5" stroke="currentColor" stroke-miterlimit="10"/><circle cx="7" cy="23.5" r="1.5" stroke="currentColor" stroke-miterlimit="10"/><path stroke="currentColor" stroke-linecap="round" stroke-miterlimit="10" d="M4.909 10.91A12 12 0 0 0 4 15.5c0 1.626.323 3.176.909 4.59"/><path stroke="currentColor" stroke-linecap="round" stroke-linejoin="round" d="M6.062 12.915 5.415 10.5 3 11.147"/><path stroke="currentColor" stroke-linecap="round" stroke-miterlimit="10" d="M10.142 25.976c1.733.97 3.73 1.524 5.858 1.524 1.938 0 3.77-.46 5.39-1.276"/><path stroke="currentColor" stroke-linecap="round" stroke-linejoin="round" d="m10.232 28.062-.647-2.415L12 25"/><path stroke="currentColor" stroke-linecap="round" stroke-miterlimit="10" d="M26.725 20.89A11.95 11.95 0 0 0 28 15.5c0-1.626-.323-3.175-.909-4.59"/><path stroke="currentColor" stroke-linecap="round" stroke-linejoin="round" d="M25.853 18.586 26.5 21l2.415-.647"/><path stroke="currentColor" stroke-linecap="round" stroke-miterlimit="10" d="M21.858 5.024A11.95 11.95 0 0 0 16 3.5c-2.127 0-4.125.554-5.858 1.524"/><path stroke="currentColor" stroke-linecap="round" stroke-linejoin="round" d="m19.732 6.062 2.415-.647L21.5 3"/><path stroke="currentColor" stroke-linecap="round" d="M10.5 21.5v-3a2 2 0 0 1 2-2h7a2 2 0 0 1 2 2v3"/><path stroke="currentColor" stroke-linecap="round" stroke-linejoin="round" d="M16 14a3 3 0 1 0 0-6 3 3 0 0 0 0 6"/></svg>
