<svg xmlns="http://www.w3.org/2000/svg" fill="none" viewBox="0 0 24 24" width="1em" height="1em"><circle cx="19.5" cy="5.5" r="1" stroke="currentColor" stroke-miterlimit="10"/><circle cx="18.5" cy="18.5" r="1" stroke="currentColor" stroke-miterlimit="10"/><circle cx="5.5" cy="5.5" r="1" stroke="currentColor" stroke-miterlimit="10"/><circle cx="5.5" cy="18.5" r="1" stroke="currentColor" stroke-miterlimit="10"/><path stroke="currentColor" stroke-linecap="round" stroke-miterlimit="10" d="M3.523 8.313a9.6 9.6 0 0 0-.725 3.662c0 1.298.258 2.535.725 3.663"/><path stroke="currentColor" stroke-linecap="round" stroke-linejoin="round" d="m4.443 9.912-.516-1.927L2 8.502"/><path stroke="currentColor" stroke-linecap="round" stroke-miterlimit="10" d="M7.7 20.335a9.53 9.53 0 0 0 4.674 1.217 9.54 9.54 0 0 0 4.301-1.018"/><path stroke="currentColor" stroke-linecap="round" stroke-linejoin="round" d="m7.771 22-.516-1.927 1.927-.516"/><path stroke="currentColor" stroke-linecap="round" stroke-miterlimit="10" d="M20.933 16.277a9.54 9.54 0 0 0 1.018-4.302 9.6 9.6 0 0 0-.726-3.662"/><path stroke="currentColor" stroke-linecap="round" stroke-linejoin="round" d="m20.237 14.438.517 1.927 1.927-.516"/><path stroke="currentColor" stroke-linecap="round" stroke-miterlimit="10" d="M17.049 3.615A9.53 9.53 0 0 0 12.374 2.4 9.53 9.53 0 0 0 7.7 3.615"/><path stroke="currentColor" stroke-linecap="round" stroke-linejoin="round" d="m15.353 4.444 1.927-.517L16.763 2"/><path stroke="currentColor" stroke-linecap="round" d="M8.5 16.5v-2a2 2 0 0 1 2-2h3a2 2 0 0 1 2 2v2"/><path stroke="currentColor" stroke-linecap="round" stroke-linejoin="round" d="M12 10a2 2 0 1 0 0-4 2 2 0 0 0 0 4"/></svg>
