<svg viewBox="0 0 32 32" fill="none" xmlns="http://www.w3.org/2000/svg" width="1em" height="1em"><path d="M15.4746 19.7926L21.1133 29.5591C21.3074 29.8953 21.7938 29.8917 21.9829 29.5527L23.5095 26.8169C23.5991 26.6564 23.7696 26.5579 23.9534 26.5606L27.0859 26.6065C27.4741 26.6122 27.7204 26.1927 27.5263 25.8566L21.8876 16.0901" stroke="currentColor" stroke-linecap="round" stroke-linejoin="round"/><path d="M14.472 19.8273L8.85265 29.5604C8.65873 29.8963 8.17283 29.8931 7.98336 29.5547L6.45348 26.8222C6.36391 26.6622 6.19395 26.5641 6.01061 26.5665L2.87928 26.6078C2.49148 26.6129 2.24575 26.1938 2.43967 25.8579L8.05907 16.1248" stroke="currentColor" stroke-linecap="round" stroke-linejoin="round"/><circle cx="15" cy="11" r="8.5" stroke="currentColor"/><path d="M17 5.34141C16.3744 5.12031 15.7013 5 15 5C11.6863 5 9 7.68629 9 11C9 14.3137 11.6863 17 15 17C18.3137 17 21 14.3137 21 11C21 10.2987 20.8797 9.62556 20.6586 9" stroke="currentColor" stroke-linecap="round"/><path d="M15 6.99344L16.0735 8.83646L16.5055 8.58481L16.0735 8.83646C16.2148 9.07906 16.4515 9.25109 16.7259 9.31051L18.8105 9.76191L17.3894 11.3524C17.2023 11.5617 17.1119 11.8401 17.1401 12.1194L17.355 14.2414L15.4032 13.3813C15.1463 13.2681 14.8537 13.2681 14.5968 13.3813L12.645 14.2414L12.8599 12.1194C12.8881 11.8401 12.7977 11.5617 12.6106 11.3524L11.1895 9.76191L13.2741 9.31051C13.5485 9.25109 13.7852 9.07906 13.9265 8.83646L15 6.99344Z" stroke="currentColor" stroke-linejoin="round"/></svg>
