<svg viewBox="0 0 16 16" fill="none" xmlns="http://www.w3.org/2000/svg" stroke="currentColor" width="1em" height="1em"><path d="M9 10.5L11.0544 13.9774C11.2614 14.3278 11.7781 14.2972 11.9424 13.9248L12.1093 13.5462C12.1972 13.3468 12.4042 13.2273 12.6208 13.2508L13.0285 13.2952C13.4339 13.3393 13.7187 12.9057 13.5173 12.5511L11.5 8.99999"/><path d="M5.00012 9L2.70946 12.6122C2.48509 12.966 2.76927 13.4223 3.18577 13.377L3.5324 13.3393C3.74906 13.3158 3.95603 13.4352 4.04395 13.6347L4.2331 14.0636C4.39292 14.4261 4.89068 14.4676 5.10835 14.1367L7.5001 10.5"/><circle cx="8" cy="6" r="4.5"/><path d="M8 3.61803L8.31027 4.57295C8.44415 4.98497 8.8281 5.26393 9.26133 5.26393H10.2654L9.45308 5.8541C9.1026 6.10875 8.95594 6.56011 9.08981 6.97214L9.40008 7.92705L8.58778 7.33688C8.2373 7.08224 7.7627 7.08224 7.41221 7.33688L6.59992 7.92705L6.91019 6.97214C7.04406 6.56011 6.8974 6.10875 6.54691 5.8541L5.73461 5.26393L6.73867 5.26393C7.1719 5.26393 7.55586 4.98497 7.68973 4.57295L8 3.61803Z" stroke-linejoin="round"/></svg>
