<svg xmlns="http://www.w3.org/2000/svg" fill="none" viewBox="0 0 32 32" width="1em" height="1em"><path stroke="currentColor" stroke-linejoin="round" d="M3.5 6A1.5 1.5 0 0 1 5 4.5h22A1.5 1.5 0 0 1 28.5 6v21a1.5 1.5 0 0 1-1.5 1.5H5A1.5 1.5 0 0 1 3.5 27V6Z"/><path stroke="currentColor" stroke-linecap="round" stroke-linejoin="round" d="M9.5 2.5v4m13-4v4m-19 4h25"/><path stroke="currentColor" d="m12.123 19.325-1.737-1.676a1 1 0 0 1 .506-1.702l2.63-.505a1 1 0 0 0 .723-.569l.844-1.863c.355-.783 1.467-.783 1.822 0l.844 1.863a1 1 0 0 0 .722.57l2.63.504a1 1 0 0 1 .507 1.702l-1.737 1.676a1 1 0 0 0-.292.882l.455 2.759a1 1 0 0 1-1.47 1.038l-2.087-1.151a1 1 0 0 0-.966 0l-2.087 1.151a1 1 0 0 1-1.47-1.038l.455-2.759a1 1 0 0 0-.292-.882Z"/></svg>
