<svg xmlns="http://www.w3.org/2000/svg" fill="none" viewBox="0 0 24 24" width="1em" height="1em"><path stroke="currentColor" stroke-linecap="round" d="M19.5 7.5V6.065a1.5 1.5 0 0 0-1.5-1.5H4a1.5 1.5 0 0 0-1.5 1.5V19A1.5 1.5 0 0 0 4 20.5h14a1.5 1.5 0 0 0 1.5-1.5v-2.5"/><path stroke="currentColor" d="M3 7.5h16.5"/><ellipse cx="4.286" cy="5.913" fill="currentColor" rx=".335" ry=".351"/><ellipse cx="5.627" cy="5.913" fill="currentColor" rx=".335" ry=".351"/><ellipse cx="6.969" cy="5.913" fill="currentColor" rx=".335" ry=".351"/><path stroke="currentColor" stroke-linecap="round" d="M5.5 10.5h10m-10 3h7m-7 3h3"/><path stroke="currentColor" d="M19.854 10.06a.5.5 0 0 1 .707 0l.707.708a.5.5 0 0 1 0 .707l-5.683 5.683a.5.5 0 0 1-.216.127l-.99.284a.5.5 0 0 1-.62-.618l.285-.991-.478-.137.478.137a.5.5 0 0 1 .127-.216l5.683-5.683Z"/></svg>
