<svg xmlns="http://www.w3.org/2000/svg" fill="none" viewBox="0 0 32 32" width="1em" height="1em"><path stroke="currentColor" stroke-linecap="round" d="M25.5 11V8A1.5 1.5 0 0 0 24 6.5H4A1.5 1.5 0 0 0 2.5 8v16A1.5 1.5 0 0 0 4 25.5h20a1.5 1.5 0 0 0 1.5-1.5v-5"/><path stroke="currentColor" d="M2.857 9.5h22.286"/><ellipse cx="4.143" cy="8.159" fill="currentColor" rx=".429" ry=".432"/><ellipse cx="5.857" cy="8.159" fill="currentColor" rx=".429" ry=".432"/><ellipse cx="7.571" cy="8.159" fill="currentColor" rx=".429" ry=".432"/><path stroke="currentColor" stroke-linecap="round" d="M5.5 13.5h14m-14 3h10m-10 3h5"/><path stroke="currentColor" d="M27.896 11.06a.5.5 0 0 1 .708 0l.707.708a.5.5 0 0 1 0 .707l-10.25 10.25a.5.5 0 0 1-.262.138l-.87.164a.5.5 0 0 1-.584-.584l.164-.871a.5.5 0 0 1 .137-.261z"/></svg>
