<svg xmlns="http://www.w3.org/2000/svg" fill="none" viewBox="0 0 16 16" width="1em" height="1em"><path stroke="currentColor" stroke-linecap="round" d="M13.5 3.5V3A1.5 1.5 0 0 0 12 1.5H4A1.5 1.5 0 0 0 2.5 3v10A1.5 1.5 0 0 0 4 14.5h8a1.5 1.5 0 0 0 1.5-1.5v-2.012M4.5 4.5h6m-6 3h3m-3 3h2"/><path stroke="currentColor" d="M13.136 6.06a.5.5 0 0 1 .708 0l.424.425a.5.5 0 0 1 0 .707l-4.915 4.915a.5.5 0 0 1-.212.127l-.602.177a.5.5 0 0 1-.621-.621l.177-.602-.478-.14.478.14a.5.5 0 0 1 .126-.212l4.915-4.915Z"/></svg>
