<svg xmlns="http://www.w3.org/2000/svg" fill="none" viewBox="0 0 32 32" width="1em" height="1em"><rect width="4" height="4" x="4.5" y="4.5" stroke="currentColor" stroke-linecap="round" stroke-linejoin="round" rx=".5"/><rect width="4" height="4" x="4.5" y="23.5" stroke="currentColor" stroke-linecap="round" stroke-linejoin="round" rx=".5"/><rect width="4" height="4" x="23.5" y="4.5" stroke="currentColor" stroke-linecap="round" stroke-linejoin="round" rx=".5"/><path stroke="currentColor" stroke-linecap="round" stroke-linejoin="round" d="M10.5 6.5h-2m5 0h-1m4 0h-1m4 0h-1m5 0h-2m-11 19h-2m5 0h-1m-6-15v-2m0 5v-1m0 4v-1m0 4v-1m0 5v-2m19-11v-2m0 5v-1M16 16l4.667 14 2.916-6.417L30 20.667 16 16Z"/></svg>
