<svg xmlns="http://www.w3.org/2000/svg" fill="none" viewBox="0 0 32 32" width="1em" height="1em"><path stroke="currentColor" stroke-linecap="round" d="m4 25.5.724 1.447a1 1 0 0 0 .894.553h20.764a1 1 0 0 0 .894-.553L28 25.5m-25.5 0h27"/><path stroke="currentColor" d="M26.992 25.46H5.007c.093-2.733.945-5.52 2.634-7.655C9.422 15.555 12.152 14 16 14s6.578 1.555 8.358 3.805c1.689 2.135 2.541 4.922 2.633 7.655Zm-9.583-13.564c-.12.607-.35 1.163-.632 1.555-.291.405-.57.549-.777.549s-.486-.144-.777-.549c-.281-.392-.511-.948-.632-1.555a.28.28 0 0 1 .077-.26A.46.46 0 0 1 15 11.5h2c.141 0 .26.058.332.136q.105.109.077.26Z"/><path stroke="currentColor" stroke-linecap="round" d="M16 8.5q-1-1 0-2t0-2 0-2m4.5 9q-1-1 0-2t0-2 0-2m-9.5 6q-1-1 0-2t0-2 0-2"/></svg>
