<svg xmlns="http://www.w3.org/2000/svg" fill="none" viewBox="0 0 16 16" width="1em" height="1em"><path stroke="currentColor" stroke-linecap="round" d="m3 13 .272.816a1 1 0 0 0 .949.684h7.411a1 1 0 0 0 .894-.553L13 13m-11.5-.5h13"/><path stroke="currentColor" d="M13 12c0-3.08-2.505-4.5-5-4.5S3 8.92 3 12m5.5-5.333c0 .16-.072.396-.205.591-.142.207-.26.242-.295.242-.034 0-.153-.035-.295-.242a1.152 1.152 0 0 1-.205-.591.314.314 0 0 1 .012-.089.087.087 0 0 1 .018-.012.527.527 0 0 1 .16-.046c.084-.013.187-.02.31-.02s.226.007.31.02a.527.527 0 0 1 .16.046.087.087 0 0 1 .018.012l.001.004a.314.314 0 0 1 .01.085Z"/><path stroke="currentColor" stroke-linecap="round" d="M8 4.5c-.667-.5-.667-1 0-1.5s.667-1 0-1.5m3.5 4c-.667-.5-.667-1 0-1.5s.667-1 0-1.5m-7 3c-.667-.5-.667-1 0-1.5s.667-1 0-1.5"/></svg>
