<svg viewBox="0 0 24 24" fill="none" xmlns="http://www.w3.org/2000/svg" width="1em" height="1em"><path d="M4 18.5L4.72361 19.9472C4.893 20.286 5.23926 20.5 5.61803 20.5H18.382C18.7607 20.5 19.107 20.286 19.2764 19.9472L20 18.5" stroke="currentColor" stroke-linecap="round"/><path d="M2.5 18.5L21.5 18.5" stroke="currentColor" stroke-linecap="round"/><path d="M5 18C5 14.032 8.46017 11.5 12 11.5V10.5C8.05401 10.5 4 13.3441 4 18H5ZM12 11.5C15.5398 11.5 19 14.032 19 18H20C20 13.3441 15.946 10.5 12 10.5V11.5Z" fill="currentColor"/><mask id="path-4-inside-1_492_5488" fill="currentColor"><path d="M13.5 9C13.5 9.82843 12.8284 11 12 11C11.1716 11 10.5 9.82843 10.5 9C10.5 8.17157 11.1716 8 12 8C12.8284 8 13.5 8.17157 13.5 9Z"/></mask><path d="M12.5 9C12.5 9.18116 12.4122 9.48769 12.2355 9.7457C12.0423 10.0279 11.9304 10 12 10V12C12.898 12 13.5361 11.3863 13.8858 10.8756C14.252 10.3407 14.5 9.64726 14.5 9H12.5ZM12 10C12.0696 10 11.9577 10.0279 11.7645 9.7457C11.5878 9.48769 11.5 9.18116 11.5 9H9.5C9.5 9.64726 9.74799 10.3407 10.1142 10.8756C10.4639 11.3863 11.102 12 12 12V10ZM11.5 9C11.5 8.929 11.5136 8.9424 11.4857 8.9911C11.4728 9.01366 11.4565 9.03376 11.4398 9.04934C11.4239 9.06424 11.4132 9.06994 11.4142 9.06943C11.4206 9.06593 11.4656 9.04475 11.5758 9.02692C11.6838 9.00945 11.8234 9 12 9V7C11.5601 7 10.9689 7.03714 10.4645 7.30925C10.1899 7.45741 9.93195 7.67967 9.75004 7.99741C9.57035 8.31128 9.5 8.65678 9.5 9H11.5ZM12 9C12.1766 9 12.3162 9.00945 12.4242 9.02692C12.5344 9.04475 12.5794 9.06593 12.5858 9.06943C12.5868 9.06994 12.5761 9.06424 12.5602 9.04934C12.5435 9.03376 12.5272 9.01366 12.5143 8.9911C12.4864 8.9424 12.5 8.929 12.5 9H14.5C14.5 8.65678 14.4297 8.31128 14.25 7.99741C14.0681 7.67967 13.8101 7.45741 13.5355 7.30925C13.0311 7.03714 12.4399 7 12 7V9Z" fill="currentColor" mask="url(#path-4-inside-1_492_5488)"/><path d="M11.7227 6.91603C11.9524 7.0692 12.2628 7.00711 12.416 6.77735C12.5692 6.54759 12.5071 6.23715 12.2774 6.08397L11.7227 6.91603ZM12.2773 2.91603C12.5071 2.76285 12.5692 2.45241 12.416 2.22265C12.2628 1.99289 11.9524 1.9308 11.7226 2.08397L12.2773 2.91603ZM12.2774 6.08397C12.1388 5.99162 12.0629 5.91717 12.025 5.86667C11.9901 5.82014 12 5.81169 12 5.83333C12 5.85497 11.9901 5.84653 12.025 5.8C12.0629 5.74949 12.1388 5.67504 12.2774 5.58269L11.7226 4.75064C11.3591 4.993 11 5.34568 11 5.83333C11 6.32099 11.3591 6.67367 11.7227 6.91603L12.2774 6.08397ZM12.2774 5.58269C12.6409 5.34034 13 4.98766 13 4.5C13 4.01235 12.6409 3.65966 12.2773 3.41731L11.7226 4.24936C11.8612 4.34171 11.9371 4.41616 11.975 4.46667C12.0099 4.51319 12 4.52164 12 4.5C12 4.47836 12.0099 4.48681 11.975 4.53333C11.9371 4.58384 11.8612 4.65829 11.7226 4.75064L12.2774 5.58269ZM12.2773 3.41731C12.1388 3.32496 12.0629 3.25051 12.025 3.2C11.9901 3.15347 12 3.14503 12 3.16667C12 3.18831 11.9901 3.17986 12.025 3.13333C12.0629 3.08283 12.1388 3.00838 12.2773 2.91603L11.7226 2.08397C11.3591 2.32633 11 2.67901 11 3.16667C11 3.65432 11.3591 4.007 11.7226 4.24936L12.2773 3.41731Z" fill="currentColor"/><path d="M15.7226 8.91603C15.9524 9.0692 16.2628 9.00711 16.416 8.77735C16.5692 8.54759 16.5071 8.23715 16.2774 8.08397L15.7226 8.91603ZM16.2773 4.91603C16.5071 4.76285 16.5692 4.45241 16.416 4.22265C16.2628 3.99289 15.9524 3.9308 15.7226 4.08397L16.2773 4.91603ZM16.2774 8.08397C16.1388 7.99162 16.0629 7.91717 16.025 7.86667C15.9901 7.82014 16 7.81169 16 7.83333C16 7.85497 15.9901 7.84653 16.025 7.8C16.0629 7.74949 16.1388 7.67504 16.2774 7.58269L15.7226 6.75064C15.3591 6.993 15 7.34568 15 7.83333C15 8.32099 15.3591 8.67367 15.7226 8.91603L16.2774 8.08397ZM16.2774 7.58269C16.6409 7.34034 17 6.98766 17 6.5C17 6.01235 16.6409 5.65966 16.2773 5.41731L15.7226 6.24936C15.8612 6.34171 15.9371 6.41616 15.975 6.46667C16.0099 6.51319 16 6.52164 16 6.5C16 6.47836 16.0099 6.48681 15.975 6.53333C15.9371 6.58384 15.8612 6.65829 15.7226 6.75064L16.2774 7.58269ZM16.2773 5.41731C16.1388 5.32496 16.0629 5.25051 16.025 5.2C15.9901 5.15347 16 5.14503 16 5.16667C16 5.18831 15.9901 5.17986 16.025 5.13333C16.0629 5.08283 16.1388 5.00838 16.2773 4.91603L15.7226 4.08397C15.3591 4.32633 15 4.67901 15 5.16667C15 5.65432 15.3591 6.007 15.7226 6.24936L16.2773 5.41731Z" fill="currentColor"/><path d="M8.22265 8.74953C8.45241 8.9027 8.76285 8.84062 8.91603 8.61085C9.0692 8.38109 9.00711 8.07065 8.77735 7.91748L8.22265 8.74953ZM8.77735 4.74953C9.00711 4.59635 9.0692 4.28592 8.91603 4.05615C8.76285 3.82639 8.45241 3.7643 8.22265 3.91748L8.77735 4.74953ZM8.77735 7.91748C8.63882 7.82512 8.56288 7.75067 8.525 7.70017C8.49011 7.65364 8.5 7.6452 8.5 7.66683C8.5 7.68847 8.49011 7.68003 8.525 7.6335C8.56288 7.58299 8.63882 7.50855 8.77735 7.41619L8.22265 6.58414C7.85912 6.8265 7.5 7.17918 7.5 7.66683C7.5 8.15449 7.85912 8.50717 8.22265 8.74953L8.77735 7.91748ZM8.77735 7.41619C9.14088 7.17384 9.5 6.82116 9.5 6.3335C9.5 5.84585 9.14088 5.49316 8.77735 5.25081L8.22265 6.08286C8.36118 6.17521 8.43712 6.24966 8.475 6.30017C8.50989 6.34669 8.5 6.35514 8.5 6.3335C8.5 6.31186 8.50989 6.32031 8.475 6.36683C8.43712 6.41734 8.36118 6.49179 8.22265 6.58414L8.77735 7.41619ZM8.77735 5.25081C8.63882 5.15846 8.56288 5.08401 8.525 5.0335C8.49011 4.98698 8.5 4.97853 8.5 5.00017C8.5 5.02181 8.49011 5.01336 8.525 4.96683C8.56288 4.91633 8.63882 4.84188 8.77735 4.74953L8.22265 3.91748C7.85912 4.15983 7.5 4.51251 7.5 5.00017C7.5 5.48782 7.85912 5.8405 8.22265 6.08286L8.77735 5.25081Z" fill="currentColor"/></svg>
