<svg viewBox="0 0 16 16" fill="none" xmlns="http://www.w3.org/2000/svg" width="1em" height="1em"><path d="M3 13L3.27208 13.8162C3.40819 14.2246 3.79033 14.5 4.22076 14.5H11.632C12.0107 14.5 12.357 14.286 12.5264 13.9472L13 13" stroke="currentColor" stroke-linecap="round"/><path d="M1.5 12.5L14.5 12.5" stroke="currentColor" stroke-linecap="round"/><path d="M13 12C13 8.92005 10.4953 7.5 8 7.5C5.50473 7.5 3 8.92005 3 12" stroke="currentColor"/><path d="M8.5 6.66667C8.5 6.82629 8.42812 7.06288 8.29455 7.25797C8.1527 7.46514 8.03423 7.50001 8 7.50001C7.96577 7.50001 7.8473 7.46514 7.70545 7.25797C7.57188 7.06288 7.5 6.82629 7.5 6.66667C7.5 6.63126 7.5036 6.60839 7.50674 6.5952C7.5083 6.58865 7.50978 6.58432 7.51077 6.58178C7.51156 6.57976 7.51213 6.57862 7.51238 6.57815C7.51245 6.57809 7.51252 6.57802 7.51261 6.57793C7.51365 6.57696 7.51851 6.57263 7.5303 6.56628C7.55616 6.55232 7.60559 6.53384 7.6906 6.52009C7.7745 6.50652 7.87718 6.50001 8 6.50001C8.12282 6.50001 8.2255 6.50652 8.3094 6.52009C8.39441 6.53384 8.44384 6.55232 8.4697 6.56628C8.48149 6.57263 8.48635 6.57696 8.48739 6.57793C8.48748 6.57802 8.48755 6.57809 8.48762 6.57815C8.48787 6.57862 8.48844 6.57976 8.48923 6.58178C8.49022 6.58432 8.4917 6.58865 8.49326 6.5952C8.4964 6.60839 8.5 6.63126 8.5 6.66667Z" stroke="currentColor"/><path d="M8 4.5C7.33333 4 7.33333 3.5 8 3C8.66667 2.5 8.66667 2 8 1.5" stroke="currentColor" stroke-linecap="round"/><path d="M11.5 5.5C10.8333 5 10.8333 4.5 11.5 4C12.1667 3.5 12.1667 3 11.5 2.5" stroke="currentColor" stroke-linecap="round"/><path d="M4.5 5.5C3.83333 5 3.83333 4.5 4.5 4C5.16667 3.5 5.16667 3 4.5 2.5" stroke="currentColor" stroke-linecap="round"/></svg>
