<svg viewBox="0 0 32 32" fill="none" xmlns="http://www.w3.org/2000/svg" width="1em" height="1em"><path d="M4 25.5L4.72361 26.9472C4.893 27.286 5.23926 27.5 5.61803 27.5H26.382C26.7607 27.5 27.107 27.286 27.2764 26.9472L28 25.5" stroke="currentColor" stroke-linecap="round"/><path d="M2.5 25.5L29.5 25.5" stroke="currentColor" stroke-linecap="round"/><mask id="path-3-inside-1_492_5500" fill="currentColor"><path d="M16 13.5C8 13.5 4.5 20 4.5 25.96H27.5C27.5 20 24 13.5 16 13.5Z"/></mask><path d="M4.5 25.96H3.5V26.96H4.5V25.96ZM27.5 25.96V26.96H28.5V25.96H27.5ZM5.5 25.96C5.5 23.1591 6.32514 20.2758 8.03425 18.1154C9.71919 15.9857 12.3051 14.5 16 14.5V12.5C11.6949 12.5 8.53081 14.2643 6.46575 16.8746C4.42486 19.4542 3.5 22.8009 3.5 25.96H5.5ZM16 14.5C19.6949 14.5 22.2808 15.9857 23.9658 18.1154C25.6749 20.2758 26.5 23.1591 26.5 25.96H28.5C28.5 22.8009 27.5751 19.4542 25.5342 16.8746C23.4692 14.2643 20.3051 12.5 16 12.5V14.5ZM27.5 24.96H4.5V26.96H27.5V24.96Z" fill="currentColor" mask="url(#path-3-inside-1_492_5500)"/><mask id="path-5-inside-2_492_5500" fill="currentColor"><path d="M16 14.5C16.8852 14.5 17.636 13.3163 17.8994 11.9934C18.0072 11.4518 17.5523 11 17 11H15C14.4477 11 13.9928 11.4518 14.1006 11.9934C14.364 13.3163 15.1148 14.5 16 14.5Z"/></mask><path d="M17.8994 11.9934L16.9186 11.7982V11.7982L17.8994 11.9934ZM14.1006 11.9934L13.1198 12.1887V12.1887L14.1006 11.9934ZM16.9186 11.7982C16.8086 12.3507 16.6021 12.8372 16.3706 13.1595C16.1205 13.5078 15.9731 13.5 16 13.5V15.5C16.912 15.5 17.5827 14.9003 17.9951 14.3261C18.4263 13.7258 18.7268 12.959 18.8802 12.1887L16.9186 11.7982ZM16 13.5C16.0269 13.5 15.8795 13.5078 15.6294 13.1595C15.3979 12.8372 15.1914 12.3507 15.0814 11.7982L13.1198 12.1887C13.2732 12.959 13.5737 13.7258 14.0049 14.3261C14.4173 14.9003 15.088 15.5 16 15.5V13.5ZM15 12H17V10H15V12ZM15.0814 11.7982C15.0866 11.8247 15.0864 11.8621 15.0745 11.9012C15.0633 11.938 15.0458 11.9631 15.0324 11.9774C15.0085 12.0029 14.9942 12 15 12V10C13.959 10 12.8626 10.8965 13.1198 12.1887L15.0814 11.7982ZM18.8802 12.1887C19.1374 10.8965 18.041 10 17 10V12C17.0058 12 16.9915 12.0029 16.9676 11.9774C16.9542 11.9631 16.9367 11.938 16.9255 11.9012C16.9136 11.8621 16.9134 11.8247 16.9186 11.7982L18.8802 12.1887Z" fill="currentColor" mask="url(#path-5-inside-2_492_5500)"/><path d="M15.6464 8.85355C15.8417 9.04882 16.1583 9.04882 16.3536 8.85355C16.5488 8.65829 16.5488 8.34171 16.3536 8.14645L15.6464 8.85355ZM16.3536 2.85355C16.5488 2.65829 16.5488 2.34171 16.3536 2.14645C16.1583 1.95118 15.8417 1.95118 15.6464 2.14645L16.3536 2.85355ZM16.3536 8.14645C16.0747 7.86761 16 7.65395 16 7.5C16 7.34605 16.0747 7.13239 16.3536 6.85355L15.6464 6.14645C15.2586 6.53428 15 6.98729 15 7.5C15 8.01271 15.2586 8.46572 15.6464 8.85355L16.3536 8.14645ZM16.3536 6.85355C16.7414 6.46572 17 6.01271 17 5.5C17 4.98729 16.7414 4.53428 16.3536 4.14645L15.6464 4.85355C15.9253 5.13239 16 5.34605 16 5.5C16 5.65395 15.9253 5.86761 15.6464 6.14645L16.3536 6.85355ZM16.3536 4.14645C16.0747 3.86761 16 3.65395 16 3.5C16 3.34604 16.0747 3.13239 16.3536 2.85355L15.6464 2.14645C15.2586 2.53428 15 2.98729 15 3.5C15 4.01271 15.2586 4.46572 15.6464 4.85355L16.3536 4.14645Z" fill="currentColor"/><path d="M20.1464 11.8536C20.3417 12.0488 20.6583 12.0488 20.8536 11.8536C21.0488 11.6583 21.0488 11.3417 20.8536 11.1464L20.1464 11.8536ZM20.8536 5.85355C21.0488 5.65829 21.0488 5.34171 20.8536 5.14645C20.6583 4.95118 20.3417 4.95118 20.1464 5.14645L20.8536 5.85355ZM20.8536 11.1464C20.5747 10.8676 20.5 10.654 20.5 10.5C20.5 10.346 20.5747 10.1324 20.8536 9.85355L20.1464 9.14645C19.7586 9.53428 19.5 9.98729 19.5 10.5C19.5 11.0127 19.7586 11.4657 20.1464 11.8536L20.8536 11.1464ZM20.8536 9.85355C21.2414 9.46572 21.5 9.01271 21.5 8.5C21.5 7.98729 21.2414 7.53428 20.8536 7.14645L20.1464 7.85355C20.4253 8.13239 20.5 8.34605 20.5 8.5C20.5 8.65396 20.4253 8.86761 20.1464 9.14645L20.8536 9.85355ZM20.8536 7.14645C20.5747 6.86761 20.5 6.65396 20.5 6.5C20.5 6.34605 20.5747 6.13239 20.8536 5.85355L20.1464 5.14645C19.7586 5.53428 19.5 5.98729 19.5 6.5C19.5 7.01271 19.7586 7.46572 20.1464 7.85355L20.8536 7.14645Z" fill="currentColor"/><path d="M10.6464 11.8536C10.8417 12.0488 11.1583 12.0488 11.3536 11.8536C11.5488 11.6583 11.5488 11.3417 11.3536 11.1464L10.6464 11.8536ZM11.3536 5.85355C11.5488 5.65829 11.5488 5.34171 11.3536 5.14645C11.1583 4.95118 10.8417 4.95118 10.6464 5.14645L11.3536 5.85355ZM11.3536 11.1464C11.0747 10.8676 11 10.654 11 10.5C11 10.346 11.0747 10.1324 11.3536 9.85355L10.6464 9.14645C10.2586 9.53428 10 9.98729 10 10.5C10 11.0127 10.2586 11.4657 10.6464 11.8536L11.3536 11.1464ZM11.3536 9.85355C11.7414 9.46572 12 9.01271 12 8.5C12 7.98729 11.7414 7.53428 11.3536 7.14645L10.6464 7.85355C10.9253 8.13239 11 8.34605 11 8.5C11 8.65395 10.9253 8.86761 10.6464 9.14645L11.3536 9.85355ZM11.3536 7.14645C11.0747 6.86761 11 6.65395 11 6.5C11 6.34604 11.0747 6.13239 11.3536 5.85355L10.6464 5.14645C10.2586 5.53428 10 5.98729 10 6.5C10 7.01271 10.2586 7.46572 10.6464 7.85355L11.3536 7.14645Z" fill="currentColor"/></svg>
