<svg xmlns="http://www.w3.org/2000/svg" fill="none" viewBox="0 0 32 32" width="1em" height="1em"><path stroke="currentColor" stroke-linecap="round" d="m4 25.5.724 1.447a1 1 0 0 0 .894.553h20.764a1 1 0 0 0 .894-.553L28 25.5m-25.5 0h27"/><path stroke="currentColor" d="M26.991 25.46H5.008c.093-2.733.945-5.52 2.634-7.655C9.422 15.555 12.152 14 16 14c3.848 0 6.578 1.555 8.358 3.805 1.689 2.135 2.541 4.922 2.633 7.655Zm-9.582-13.564c-.12.607-.35 1.163-.632 1.555-.291.405-.57.549-.777.549-.208 0-.486-.144-.777-.549-.281-.392-.511-.948-.632-1.555a.283.283 0 0 1 .077-.26A.456.456 0 0 1 15 11.5h2c.141 0 .26.058.332.136a.28.28 0 0 1 .077.26Z"/><path stroke="currentColor" stroke-linecap="round" d="M16 8.5c-.667-.667-.667-1.333 0-2s.667-1.333 0-2-.667-1.333 0-2m4.5 9c-.667-.667-.667-1.333 0-2s.667-1.333 0-2-.667-1.333 0-2m-9.5 6c-.667-.667-.667-1.333 0-2s.667-1.333 0-2-.667-1.333 0-2"/></svg>
