<svg xmlns="http://www.w3.org/2000/svg" fill="none" viewBox="0 0 24 24" width="1em" height="1em"><path stroke="currentColor" stroke-linecap="round" d="m4 18.5.724 1.447a1 1 0 0 0 .894.553h12.764a1 1 0 0 0 .894-.553L20 18.5m-17.5 0h19"/><path stroke="currentColor" d="M19.5 18c0-4.312-3.757-7-7.5-7s-7.5 2.688-7.5 7M13 9c0 .298-.128.701-.352 1.028-.232.34-.476.472-.648.472-.172 0-.416-.133-.648-.472C11.128 9.701 11 9.298 11 9a.51.51 0 0 1 .052-.257.295.295 0 0 1 .125-.114c.155-.083.422-.129.823-.129.401 0 .668.046.823.13a.295.295 0 0 1 .125.113A.511.511 0 0 1 13 9Z"/><path stroke="currentColor" stroke-linecap="round" d="M12 6.5c-.667-.444-.667-.889 0-1.333.667-.445.667-.89 0-1.334-.667-.444-.667-.889 0-1.333m4 6c-.667-.444-.667-.889 0-1.333.667-.445.667-.89 0-1.334-.667-.444-.667-.889 0-1.333M8.5 8.333c-.667-.444-.667-.889 0-1.333.667-.444.667-.889 0-1.333-.667-.445-.667-.89 0-1.334"/></svg>
