<svg xmlns="http://www.w3.org/2000/svg" fill="none" viewBox="0 0 16 16" width="1em" height="1em"><path stroke="currentColor" stroke-linecap="round" d="m3 13 .272.816a1 1 0 0 0 .949.684h7.411a1 1 0 0 0 .894-.553L13 13m-11.5-.5h13"/><path stroke="currentColor" d="M13 12c0-3.08-2.505-4.5-5-4.5S3 8.92 3 12m5.5-5.333c0 .16-.072.396-.205.591-.142.207-.26.242-.295.242s-.153-.035-.295-.242a1.15 1.15 0 0 1-.205-.591.3.3 0 0 1 .012-.089l.018-.012a.5.5 0 0 1 .16-.046q.126-.02.31-.02t.31.02a.5.5 0 0 1 .16.046l.018.012.001.004.004.013a.3.3 0 0 1 .007.072Z"/><path stroke="currentColor" stroke-linecap="round" d="M8 4.5Q7 3.75 8 3t0-1.5m3.5 4q-1-.75 0-1.5t0-1.5m-7 3q-1-.75 0-1.5t0-1.5"/></svg>
