<svg viewBox="0 0 16 16" fill="none" xmlns="http://www.w3.org/2000/svg" width="1em" height="1em"><path d="M3 13L3.27208 13.8162C3.40819 14.2246 3.79033 14.5 4.22076 14.5H11.632C12.0107 14.5 12.357 14.286 12.5264 13.9472L13 13" stroke="currentColor" stroke-linecap="round"/><path d="M1.5 12.5L14.5 12.5" stroke="currentColor" stroke-linecap="round"/><path d="M3.5 12C3.5 10.6123 4.05666 9.63229 4.87394 8.98758C5.70598 8.33123 6.83969 8 8 8V7C6.66504 7 5.29874 7.3788 4.2546 8.20246C3.19571 9.03776 2.5 10.3077 2.5 12H3.5ZM8 8C9.16031 8 10.294 8.33123 11.1261 8.98758C11.9433 9.63229 12.5 10.6123 12.5 12H13.5C13.5 10.3077 12.8043 9.03776 11.7454 8.20246C10.7013 7.3788 9.33496 7 8 7V8Z" fill="currentColor"/><mask id="path-4-inside-1_492_5476" fill="currentColor"><path d="M9 6.66667C9 7.21896 8.55228 8.00001 8 8.00001C7.44772 8.00001 7 7.21896 7 6.66667C7 6.11439 7.44772 6.00001 8 6.00001C8.55228 6.00001 9 6.11439 9 6.66667Z"/></mask><path d="M8 6.66667C8 6.67632 7.99667 6.7204 7.97331 6.79004C7.95079 6.85719 7.91799 6.9229 7.88199 6.97549C7.84439 7.0304 7.81975 7.04732 7.82459 7.04401C7.83265 7.03849 7.89435 7.00001 8 7.00001V9.00001C8.75997 9.00001 9.27303 8.48395 9.53223 8.1054C9.80797 7.70267 10 7.17586 10 6.66667H8ZM8 7.00001C8.10565 7.00001 8.16735 7.03849 8.17541 7.04401C8.18025 7.04732 8.15561 7.0304 8.11801 6.97549C8.08201 6.9229 8.04921 6.85719 8.02669 6.79004C8.00333 6.7204 8 6.67632 8 6.66667H6C6 7.17586 6.19203 7.70267 6.46777 8.1054C6.72697 8.48395 7.24003 9.00001 8 9.00001V7.00001ZM8 6.66667C8 6.66471 7.99961 6.73346 7.94643 6.82635C7.89102 6.92313 7.81612 6.9802 7.7677 7.00632C7.72895 7.02723 7.72006 7.02182 7.77044 7.01367C7.81862 7.00588 7.89243 7.00001 8 7.00001V5.00001C7.69819 5.00001 7.23197 5.02285 6.81808 5.24614C6.5887 5.3699 6.36735 5.55911 6.21074 5.83267C6.05636 6.10234 6 6.39249 6 6.66667H8ZM8 7.00001C8.10757 7.00001 8.18138 7.00588 8.22956 7.01367C8.27994 7.02182 8.27105 7.02723 8.2323 7.00632C8.18388 6.9802 8.10898 6.92313 8.05357 6.82635C8.00039 6.73346 8 6.66471 8 6.66667H10C10 6.39249 9.94364 6.10234 9.78926 5.83267C9.63265 5.55911 9.4113 5.3699 9.18192 5.24614C8.76803 5.02285 8.30181 5.00001 8 5.00001V7.00001Z" fill="currentColor" mask="url(#path-4-inside-1_492_5476)"/><path d="M7.7 4.9C7.92091 5.06569 8.23431 5.02091 8.4 4.8C8.56569 4.57909 8.52091 4.26569 8.3 4.1L7.7 4.9ZM8.3 1.1C8.07909 0.934314 7.76569 0.979086 7.6 1.2C7.43431 1.42091 7.47909 1.73431 7.7 1.9L8.3 1.1ZM8.3 4.1C8.0094 3.88205 8 3.76168 8 3.75C8 3.73832 8.0094 3.61795 8.3 3.4L7.7 2.6C7.32393 2.88205 7 3.26168 7 3.75C7 4.23832 7.32393 4.61795 7.7 4.9L8.3 4.1ZM8.3 3.4C8.67607 3.11795 9 2.73832 9 2.25C9 1.76168 8.67607 1.38205 8.3 1.1L7.7 1.9C7.9906 2.11795 8 2.23832 8 2.25C8 2.26168 7.9906 2.38205 7.7 2.6L8.3 3.4Z" fill="currentColor"/><path d="M11.2 5.9C11.4209 6.06569 11.7343 6.02091 11.9 5.8C12.0657 5.57909 12.0209 5.26569 11.8 5.1L11.2 5.9ZM11.8 2.1C11.5791 1.93431 11.2657 1.97909 11.1 2.2C10.9343 2.42091 10.9791 2.73431 11.2 2.9L11.8 2.1ZM11.8 5.1C11.5094 4.88205 11.5 4.76168 11.5 4.75C11.5 4.73832 11.5094 4.61795 11.8 4.4L11.2 3.6C10.8239 3.88205 10.5 4.26168 10.5 4.75C10.5 5.23832 10.8239 5.61795 11.2 5.9L11.8 5.1ZM11.8 4.4C12.1761 4.11795 12.5 3.73832 12.5 3.25C12.5 2.76168 12.1761 2.38205 11.8 2.1L11.2 2.9C11.4906 3.11795 11.5 3.23832 11.5 3.25C11.5 3.26168 11.4906 3.38205 11.2 3.6L11.8 4.4Z" fill="currentColor"/><path d="M4.2 5.9C4.42091 6.06569 4.73431 6.02091 4.9 5.8C5.06569 5.57909 5.02091 5.26569 4.8 5.1L4.2 5.9ZM4.8 2.1C4.57909 1.93431 4.26569 1.97909 4.1 2.2C3.93431 2.42091 3.97909 2.73431 4.2 2.9L4.8 2.1ZM4.8 5.1C4.5094 4.88205 4.5 4.76168 4.5 4.75C4.5 4.73832 4.5094 4.61795 4.8 4.4L4.2 3.6C3.82393 3.88205 3.5 4.26168 3.5 4.75C3.5 5.23832 3.82393 5.61795 4.2 5.9L4.8 5.1ZM4.8 4.4C5.17607 4.11795 5.5 3.73832 5.5 3.25C5.5 2.76168 5.17607 2.38205 4.8 2.1L4.2 2.9C4.4906 3.11795 4.5 3.23832 4.5 3.25C4.5 3.26168 4.4906 3.38205 4.2 3.6L4.8 4.4Z" fill="currentColor"/></svg>
