<svg xmlns="http://www.w3.org/2000/svg" fill="none" viewBox="0 0 16 16" width="1em" height="1em"><rect width="4" height="4" x="8" y="5.333" stroke="currentColor" stroke-linecap="round" stroke-linejoin="round" rx="1" transform="rotate(45 8 5.333)"/><rect width="2" height="2" stroke="currentColor" stroke-linecap="round" stroke-linejoin="round" rx="1" transform="scale(1 -1)rotate(-45 -2.078 -10.053)"/><path stroke="currentColor" stroke-linecap="round" stroke-linejoin="round" d="M10.667 8h2.666M2.667 8h2.666M10 7l2.207-2.207a1 1 0 0 0 .293-.707V1.5M6 7 3.793 4.793a1 1 0 0 1-.293-.707V1.5M10 9l2.207 2.207a1 1 0 0 1 .293.707V14.5M6 9l-2.207 2.207a1 1 0 0 0-.293.707V14.5"/></svg>
