<svg xmlns="http://www.w3.org/2000/svg" fill="none" viewBox="0 0 24 24" width="1em" height="1em"><rect width="6" height="6" x="12" y="8" stroke="currentColor" stroke-linecap="round" stroke-linejoin="round" rx="1" transform="rotate(45 12 8)"/><rect width="3" height="3" stroke="currentColor" stroke-linecap="round" stroke-linejoin="round" rx="1" transform="scale(1 -1) rotate(-45 -2.45 -14.985)"/><path stroke="currentColor" stroke-linecap="round" stroke-linejoin="round" d="m15.5 11.5 2.707-2.707a1 1 0 0 0 .293-.707V5.5m-5 4 1.707-1.707a1 1 0 0 0 .293-.707V2.5m0 10.5 2.707 2.707a1 1 0 0 1 .293.707v2.003"/><circle cx="18.5" cy="19.5" r="1" stroke="currentColor" stroke-linecap="round" stroke-linejoin="round" transform="rotate(-180 18.5 19.5)"/><circle cx="18.5" cy="4.5" r="1" stroke="currentColor" stroke-linecap="round" stroke-linejoin="round" transform="rotate(-180 18.5 4.5)"/><path stroke="currentColor" stroke-linecap="round" stroke-linejoin="round" d="m13.5 15 1.707 1.707a1 1 0 0 1 .293.707V21.5m-7-10L5.793 8.793a1 1 0 0 1-.293-.707V5.5"/><circle cx="5.5" cy="4" r="1" stroke="currentColor" stroke-linecap="round" stroke-linejoin="round" transform="rotate(-180 5.5 4)"/><path stroke="currentColor" stroke-linecap="round" stroke-linejoin="round" d="M10.5 9.5 8.793 7.793a1 1 0 0 1-.293-.707V2.5m0 10.5-2.707 2.707a1 1 0 0 0-.293.707v2.003"/><circle cx="1" cy="1" r="1" stroke="currentColor" stroke-linecap="round" stroke-linejoin="round" transform="matrix(1 0 0 -1 4.5 20.5)"/><path stroke="currentColor" stroke-linecap="round" stroke-linejoin="round" d="m10.5 15-1.707 1.707a1 1 0 0 0-.293.707V21.5"/></svg>
