<svg xmlns="http://www.w3.org/2000/svg" fill="none" viewBox="0 0 32 32" width="1em" height="1em"><rect width="9.269" height="9.269" x="16.072" y="9.571" stroke="currentColor" stroke-linecap="round" stroke-linejoin="round" rx="2" transform="rotate(45 16.072 9.571)"/><path stroke="currentColor" stroke-linecap="round" stroke-linejoin="round" d="M12.214 13.429a3.857 3.857 0 0 0 7.714 0"/><rect width="3.416" height="3.416" stroke="currentColor" stroke-linecap="round" stroke-linejoin="round" rx="1" transform="scale(1 -1) rotate(-45 -3.187 -20.594)"/><path stroke="currentColor" stroke-linecap="round" stroke-linejoin="round" d="m21.5 14.5 3.747-4.216a1 1 0 0 0 .253-.664V6"/><circle cx="1.5" cy="1.5" r="1.5" stroke="currentColor" stroke-linecap="round" stroke-linejoin="round" transform="matrix(-1 0 0 1 27 3)"/><path stroke="currentColor" stroke-linecap="round" stroke-linejoin="round" d="m19 12 2.207-2.207a1 1 0 0 0 .293-.707V2.5m-11 12-3.747-4.216A1 1 0 0 1 6.5 9.62V6"/><circle cx="6.5" cy="4.5" r="1.5" stroke="currentColor" stroke-linecap="round" stroke-linejoin="round"/><path stroke="currentColor" stroke-linecap="round" stroke-linejoin="round" d="m13 12-2.207-2.207a1 1 0 0 1-.293-.707V2.5m11 15.5 3.747 4.216a1 1 0 0 1 .253.664v3.62"/><circle cx="25.5" cy="28" r="1.5" stroke="currentColor" stroke-linecap="round" stroke-linejoin="round" transform="rotate(-180 25.5 28)"/><path stroke="currentColor" stroke-linecap="round" stroke-linejoin="round" d="m19 20.5 2.207 2.207a1 1 0 0 1 .293.707V29.5M10.5 18l-3.747 4.216a1 1 0 0 0-.253.664v3.62"/><circle cx="1.5" cy="1.5" r="1.5" stroke="currentColor" stroke-linecap="round" stroke-linejoin="round" transform="matrix(1 0 0 -1 5 29.5)"/><path stroke="currentColor" stroke-linecap="round" stroke-linejoin="round" d="m13 20.5-2.207 2.207a1 1 0 0 0-.293.707V29.5"/></svg>
