<svg viewBox="0 0 32 32" fill="none" xmlns="http://www.w3.org/2000/svg" width="1em" height="1em"><rect x="16.0715" y="9.57141" width="9.26905" height="9.26905" rx="2" transform="rotate(45 16.0715 9.57141)" stroke="currentColor" stroke-linecap="round" stroke-linejoin="round"/><path d="M12.2142 13.4286C12.2142 15.5588 13.9411 17.2857 16.0713 17.2857C18.2016 17.2857 19.9285 15.5588 19.9285 13.4286" stroke="currentColor" stroke-linecap="round" stroke-linejoin="round"/><rect width="3.41596" height="3.41596" rx="1" transform="matrix(0.707107 0.707107 0.707107 -0.707107 13.6287 8.28577)" stroke="currentColor" stroke-linecap="round" stroke-linejoin="round"/><path d="M21.5 14.5L25.2474 10.2842C25.4101 10.1011 25.5 9.86471 25.5 9.6198L25.5 6" stroke="currentColor" stroke-linecap="round" stroke-linejoin="round"/><circle cx="1.5" cy="1.5" r="1.5" transform="matrix(-1 0 0 1 27 3)" stroke="currentColor" stroke-linecap="round" stroke-linejoin="round"/><path d="M19 12L21.2071 9.79289C21.3946 9.60536 21.5 9.351 21.5 9.08579L21.5 2.5" stroke="currentColor" stroke-linecap="round" stroke-linejoin="round"/><path d="M10.5 14.5L6.75259 10.2842C6.58988 10.1011 6.5 9.86471 6.5 9.6198L6.5 6" stroke="currentColor" stroke-linecap="round" stroke-linejoin="round"/><circle cx="6.5" cy="4.5" r="1.5" stroke="currentColor" stroke-linecap="round" stroke-linejoin="round"/><path d="M13 12L10.7929 9.79289C10.6054 9.60536 10.5 9.351 10.5 9.08579L10.5 2.5" stroke="currentColor" stroke-linecap="round" stroke-linejoin="round"/><path d="M21.5 18L25.2474 22.2158C25.4101 22.3989 25.5 22.6353 25.5 22.8802L25.5 26.5" stroke="currentColor" stroke-linecap="round" stroke-linejoin="round"/><circle cx="25.5" cy="28" r="1.5" transform="rotate(-180 25.5 28)" stroke="currentColor" stroke-linecap="round" stroke-linejoin="round"/><path d="M19 20.5L21.2071 22.7071C21.3946 22.8946 21.5 23.149 21.5 23.4142L21.5 29.5" stroke="currentColor" stroke-linecap="round" stroke-linejoin="round"/><path d="M10.5 18L6.75259 22.2158C6.58988 22.3989 6.5 22.6353 6.5 22.8802L6.5 26.5" stroke="currentColor" stroke-linecap="round" stroke-linejoin="round"/><circle cx="1.5" cy="1.5" r="1.5" transform="matrix(1 0 0 -1 5 29.5)" stroke="currentColor" stroke-linecap="round" stroke-linejoin="round"/><path d="M13 20.5L10.7929 22.7071C10.6054 22.8946 10.5 23.149 10.5 23.4142L10.5 29.5" stroke="currentColor" stroke-linecap="round" stroke-linejoin="round"/></svg>
