<svg viewBox="0 0 24 24" fill="none" xmlns="http://www.w3.org/2000/svg" stroke="currentColor"><circle cx="11.9585" cy="12.0002" r="5.5" transform="rotate(-15 11.9585 12.0002)"/><path d="M19.5778 8.36148C20.6264 8.51022 21.3 8.84091 21.4372 9.35273C21.8183 10.7752 17.9108 13.0582 12.7095 14.4519C7.50825 15.8456 2.98278 15.8222 2.60161 14.3997C2.46447 13.8879 2.88252 13.2647 3.71627 12.6116" stroke-linecap="round"/><path d="M19.5 17.5V19.5M19.5 19.5L19.5 21.5M19.5 19.5H17.5M19.5 19.5H21.5" stroke-linecap="round"/><path d="M8.5 2.5V3.5M8.5 3.5L8.5 4.5M8.5 3.5H7.5M8.5 3.5H9.5" stroke-linecap="round"/><circle cx="4.5" cy="6.5" r="2"/></svg>
