<svg viewBox="0 0 32 32" fill="none" xmlns="http://www.w3.org/2000/svg" width="1em" height="1em"><path d="M24.5 17C24.5 21.6944 20.6944 25.5 16 25.5C11.3056 25.5 7.5 21.6944 7.5 17C7.5 12.3056 11.3056 8.5 16 8.5C20.6944 8.5 24.5 12.3056 24.5 17Z" stroke="currentColor"/><path d="M26.7108 11.5723C28.2192 11.7961 29.1898 12.2832 29.3902 13.0312C29.9473 15.1103 24.3444 18.418 16.8759 20.4192C9.4074 22.4203 2.90136 22.3572 2.34428 20.2782C2.14384 19.5301 2.74084 18.623 3.93525 17.6749" stroke="currentColor" stroke-linecap="round"/><path d="M26.5 23.5674V26.5674M26.5 26.5674L26.5 29.5674M26.5 26.5674H23.5M26.5 26.5674H29.5" stroke="currentColor" stroke-linecap="round"/><path d="M11.5 3.00049V4.50049M11.5 4.50049L11.5 6.00049M11.5 4.50049H10M11.5 4.50049H13" stroke="currentColor" stroke-linecap="round"/><path d="M8.5 6.50049C8.5 8.15734 7.15685 9.50049 5.5 9.50049C3.84315 9.50049 2.5 8.15734 2.5 6.50049C2.5 4.84363 3.84315 3.50049 5.5 3.50049C7.15685 3.50049 8.5 4.84363 8.5 6.50049Z" stroke="currentColor"/></svg>
