<svg xmlns="http://www.w3.org/2000/svg" fill="none" viewBox="0 0 24 24" width="1em" height="1em"><circle cx="11.959" cy="12.001" r="5.5" stroke="currentColor" transform="rotate(-15 11.959 12)"/><path stroke="currentColor" stroke-linecap="round" d="M19.578 8.361c1.048.149 1.722.48 1.86.991.38 1.423-3.527 3.706-8.728 5.1-5.202 1.393-9.727 1.37-10.108-.053-.138-.511.28-1.135 1.114-1.788M19.5 17.5v2m0 0v2m0-2h-2m2 0h2m-13-17v1m0 0v1m0-1h-1m1 0h1"/><circle cx="4.5" cy="6.5" r="2" stroke="currentColor"/></svg>
