<svg xmlns="http://www.w3.org/2000/svg" fill="none" viewBox="0 0 32 32" width="1em" height="1em"><path stroke="currentColor" d="M24.5 17a8.5 8.5 0 1 1-17 0 8.5 8.5 0 0 1 17 0Z"/><path stroke="currentColor" stroke-linecap="round" d="M26.71 11.572c1.51.224 2.48.711 2.68 1.46.557 2.078-5.046 5.386-12.514 7.387C9.407 22.42 2.9 22.357 2.344 20.28c-.2-.749.397-1.656 1.591-2.604M26.5 23.567v3m0 0v3m0-3h-3m3 0h3M11.5 3v1.5m0 0V6m0-1.5H10m1.5 0H13"/><path stroke="currentColor" d="M8.5 6.5a3 3 0 1 1-6 0 3 3 0 0 1 6 0Z"/></svg>
