<svg viewBox="0 0 32 32" fill="none" xmlns="http://www.w3.org/2000/svg" stroke="currentColor"><path d="M24.5 17C24.5 21.6944 20.6944 25.5 16 25.5C11.3056 25.5 7.5 21.6944 7.5 17C7.5 12.3056 11.3056 8.5 16 8.5C20.6944 8.5 24.5 12.3056 24.5 17Z"/><path d="M26.7108 11.5718C28.2192 11.7957 29.1898 12.2828 29.3902 13.0308C29.9473 15.1099 24.3444 18.4175 16.8759 20.4187C9.4074 22.4199 2.90136 22.3568 2.34428 20.2777C2.14384 19.5297 2.74084 18.6226 3.93525 17.6745" stroke-linecap="round"/><path d="M26.5 23.567V26.567M26.5 26.567L26.5 29.567M26.5 26.567H23.5M26.5 26.567H29.5" stroke-linecap="round"/><path d="M11.5 3.00006V4.50006M11.5 4.50006L11.5 6.00006M11.5 4.50006H10M11.5 4.50006H13" stroke-linecap="round"/><path d="M8.5 6.5C8.5 8.15685 7.15685 9.5 5.5 9.5C3.84315 9.5 2.5 8.15685 2.5 6.5C2.5 4.84315 3.84315 3.5 5.5 3.5C7.15685 3.5 8.5 4.84315 8.5 6.5Z"/></svg>