<svg viewBox="0 0 24 24" fill="none" xmlns="http://www.w3.org/2000/svg" width="1em" height="1em"><circle cx="11.9585" cy="12.0005" r="5.5" transform="rotate(-15 11.9585 12.0005)" stroke="currentColor"/><path d="M19.5778 8.36124C20.6264 8.50997 21.3 8.84066 21.4372 9.35248C21.8183 10.775 17.9108 13.058 12.7095 14.4517C7.50825 15.8453 2.98278 15.822 2.60161 14.3995C2.46447 13.8876 2.88252 13.2644 3.71627 12.6113" stroke="currentColor" stroke-linecap="round"/><path d="M19.5 17.5V19.5M19.5 19.5L19.5 21.5M19.5 19.5H17.5M19.5 19.5H21.5" stroke="currentColor" stroke-linecap="round"/><path d="M8.5 2.5V3.5M8.5 3.5L8.5 4.5M8.5 3.5H7.5M8.5 3.5H9.5" stroke="currentColor" stroke-linecap="round"/><circle cx="4.5" cy="6.5" r="2" stroke="currentColor"/></svg>
