<svg viewBox="0 0 16 16" fill="none" xmlns="http://www.w3.org/2000/svg" stroke="currentColor"><path d="M13.5 9.41421V13C13.5 13.2761 13.2761 13.5 13 13.5H9.41421C8.96876 13.5 8.74568 12.9614 9.06066 12.6464L12.6464 9.06066C12.9614 8.74568 13.5 8.96876 13.5 9.41421Z" stroke-linejoin="round"/><path d="M13.5 5.5C13.5 6.60457 12.6046 7.5 11.5 7.5C10.3954 7.5 9.5 6.60457 9.5 5.5C9.5 4.39543 10.3954 3.5 11.5 3.5C12.6046 3.5 13.5 4.39543 13.5 5.5Z"/><rect x="2.5" y="3.5" width="4" height="4" rx="0.5"/><path d="M2.5 13.5L6.5 9.5M2.5 9.5L6.5 13.5" stroke-linecap="round"/></svg>