<svg viewBox="0 0 24 24" fill="none" xmlns="http://www.w3.org/2000/svg" width="1em" height="1em"><path d="M21.5 13.4142V20C21.5 20.2761 21.2761 20.5 21 20.5H14.4142C13.9688 20.5 13.7457 19.9614 14.0607 19.6464L20.6464 13.0607C20.9614 12.7457 21.5 12.9688 21.5 13.4142Z" stroke="currentColor"/><path d="M21.5 7.5C21.5 9.70914 19.7091 11.5 17.5 11.5C15.2909 11.5 13.5 9.70914 13.5 7.5C13.5 5.29086 15.2909 3.5 17.5 3.5C19.7091 3.5 21.5 5.29086 21.5 7.5Z" stroke="currentColor"/><rect x="3.5" y="3.5" width="8" height="8" rx="1.5" stroke="currentColor"/><path d="M4.35355 13.1467C4.15828 12.9514 3.8417 12.9514 3.64644 13.1467C3.45118 13.342 3.45119 13.6585 3.64645 13.8538L4.35355 13.1467ZM10.6465 20.8536C10.8417 21.0488 11.1583 21.0488 11.3536 20.8535C11.5488 20.6583 11.5488 20.3417 11.3535 20.1464L10.6465 20.8536ZM3.64645 20.1462C3.45119 20.3415 3.45118 20.658 3.64644 20.8533C3.8417 21.0486 4.15828 21.0486 4.35355 20.8533L3.64645 20.1462ZM11.3535 13.8536C11.5488 13.6583 11.5488 13.3417 11.3536 13.1465C11.1583 12.9512 10.8417 12.9512 10.6465 13.1464L11.3535 13.8536ZM3.64645 13.8538L10.6465 20.8536L11.3535 20.1464L4.35355 13.1467L3.64645 13.8538ZM4.35355 20.8533L11.3535 13.8536L10.6465 13.1464L3.64645 20.1462L4.35355 20.8533Z" fill="currentColor"/></svg>
