<svg viewBox="0 0 32 32" fill="none" xmlns="http://www.w3.org/2000/svg" width="1em" height="1em"><path d="M27.5 18.8284V26C27.5 26.8284 26.8284 27.5 26 27.5H18.8284C17.4921 27.5 16.8228 25.8843 17.7678 24.9393L24.9393 17.7678C25.8843 16.8228 27.5 17.4921 27.5 18.8284Z" stroke="currentColor"/><path d="M4 27.4853L13.2929 18.1924M4.70711 18.1924L14 27.4853" stroke="currentColor" stroke-linecap="round"/><path d="M27.5 9.5C27.5 12.2614 25.2614 14.5 22.5 14.5C19.7386 14.5 17.5 12.2614 17.5 9.5C17.5 6.73858 19.7386 4.5 22.5 4.5C25.2614 4.5 27.5 6.73858 27.5 9.5Z" stroke="currentColor"/><rect x="4.5" y="4.5" width="10" height="10" rx="1.5" stroke="currentColor"/></svg>
