<svg viewBox="0 0 16 16" fill="none" xmlns="http://www.w3.org/2000/svg" stroke="currentColor" width="1em" height="1em"><circle cx="8" cy="8" r="6.5" stroke-linecap="round"/><path d="M7.33337 12C7.33337 12.3682 7.63185 12.6667 8.00004 12.6667C8.36823 12.6667 8.66671 12.3682 8.66671 12" stroke-linecap="round" stroke-linejoin="round"/><path d="M6.91618 9.85236L6.48873 10.1118L6.91618 9.85236C6.71362 9.51858 6.43548 9.26618 6.18094 9.06527C5.46474 8.49997 5 7.60804 5 6.6C5 4.87455 6.35633 3.5 8 3.5C9.64367 3.5 11 4.87455 11 6.6C11 7.60804 10.5353 8.49997 9.81906 9.06527C9.56452 9.26618 9.28638 9.51858 9.08382 9.85236L9.04918 9.90945C8.82666 10.2761 8.42889 10.5 8 10.5C7.57111 10.5 7.17334 10.2761 6.95082 9.90945L6.91618 9.85236Z"/></svg>
