<svg viewBox="0 0 24 24" fill="none" xmlns="http://www.w3.org/2000/svg" width="1em" height="1em"><circle cx="12" cy="12" r="9.5" stroke="currentColor" stroke-linecap="round"/><path d="M11.3684 17.4136C11.3684 17.7624 11.6512 18.0452 12 18.0452C12.3488 18.0452 12.6316 17.7624 12.6316 17.4136" stroke="currentColor" stroke-linecap="round" stroke-linejoin="round"/><path d="M10.8008 15.2199L10.8008 15.2199L10.7895 15.2023C10.7895 15.2023 10.7895 15.2023 10.7895 15.2023C10.5691 14.858 10.2713 14.5997 9.99577 14.3938C9.21069 13.8069 8.71045 12.8886 8.71045 11.8603C8.71045 10.1077 10.1712 8.66553 11.9999 8.66553C13.8287 8.66553 15.2894 10.1077 15.2894 11.8603C15.2894 12.8886 14.7892 13.8069 14.0041 14.3938C13.7285 14.5997 13.4307 14.858 13.2103 15.2023L13.2103 15.2023L13.199 15.22C12.9373 15.6288 12.4853 15.8761 11.9999 15.8761C11.5145 15.8761 11.0625 15.6288 10.8008 15.2199Z" stroke="currentColor"/><path d="M6.63159 12.2708L6.00001 12.2708" stroke="currentColor" stroke-linecap="round"/><path d="M7.57886 8.16553L7.26306 7.84973" stroke="currentColor" stroke-linecap="round"/><path d="M18 12.2708L17.3684 12.2708" stroke="currentColor" stroke-linecap="round"/><path d="M16.7368 7.84973L16.421 8.16553" stroke="currentColor" stroke-linecap="round"/><path d="M12 6.00001L12 6.63159" stroke="currentColor" stroke-linecap="round"/></svg>
