<svg xmlns="http://www.w3.org/2000/svg" fill="none" viewBox="0 0 32 32" width="1em" height="1em"><circle cx="16" cy="16" r="13.5" stroke="currentColor" stroke-linecap="round"/><path stroke="currentColor" stroke-linecap="round" stroke-linejoin="round" d="M15.304 25.293a.696.696 0 0 0 1.392 0"/><path stroke="currentColor" stroke-linecap="round" d="M15.111 23.611h1.778"/><path stroke="currentColor" d="M21.065 15.43a5.15 5.15 0 0 1-2.154 4.203 2.9 2.9 0 0 0-.816.84l-.389.63a1.5 1.5 0 0 1-1.277.714h-.858a1.5 1.5 0 0 1-1.277-.713l-.39-.631a3 3 0 0 0-.815-.84l-.29.407.29-.407a5.15 5.15 0 0 1-2.154-4.203c0-2.842 2.273-5.135 5.065-5.135s5.065 2.293 5.065 5.135Z"/><path stroke="currentColor" stroke-linecap="round" d="M9.043 15.012H8m2.087-4.174L9.043 9.795M24 15.012h-1.044m.001-5.217-1.044 1.043M16 7.012v1.391"/></svg>
