<svg viewBox="0 0 32 32" fill="none" xmlns="http://www.w3.org/2000/svg" width="1em" height="1em"><circle cx="16" cy="16" r="13.5" stroke="currentColor" stroke-linecap="round"/><path d="M15.3043 25.2922C15.3043 25.6764 15.6158 25.9879 16 25.9879C16.3842 25.9879 16.6956 25.6764 16.6956 25.2922" stroke="currentColor" stroke-linecap="round" stroke-linejoin="round"/><path d="M15.1111 23.6111H16.8889" stroke="currentColor" stroke-linecap="round"/><path d="M21.0652 15.4295C21.0652 17.1682 20.2134 18.7034 18.9106 19.6324C18.6098 19.8469 18.3131 20.1192 18.0954 20.4723L17.7062 21.1036C17.4331 21.5466 16.9499 21.8164 16.4294 21.8164H15.5707C15.0502 21.8164 14.5669 21.5466 14.2938 21.1036L13.9046 20.4723C13.6869 20.1192 13.3903 19.8469 13.0895 19.6324L12.7992 20.0395L13.0895 19.6324C11.7867 18.7034 10.9348 17.1682 10.9348 15.4295C10.9348 12.5877 13.2084 10.2947 16 10.2947C18.7916 10.2947 21.0652 12.5877 21.0652 15.4295Z" stroke="currentColor"/><path d="M9.04346 15.0122L7.99998 15.0122" stroke="currentColor" stroke-linecap="round"/><path d="M10.0869 10.8384L9.04344 9.7949" stroke="currentColor" stroke-linecap="round"/><path d="M24 15.0122L22.9565 15.0122" stroke="currentColor" stroke-linecap="round"/><path d="M22.9565 9.7949L21.9131 10.8384" stroke="currentColor" stroke-linecap="round"/><path d="M16 7.01226L16 8.40356" stroke="currentColor" stroke-linecap="round"/></svg>
