<svg xmlns="http://www.w3.org/2000/svg" fill="none" viewBox="0 0 16 16" width="1em" height="1em"><circle cx="8" cy="8" r="6.5" stroke="currentColor" stroke-linecap="round"/><path stroke="currentColor" stroke-linecap="round" stroke-linejoin="round" d="M7.333 12a.667.667 0 1 0 1.334 0"/><path stroke="currentColor" d="m6.916 9.852-.427.26.427-.26c-.202-.333-.48-.586-.735-.787A3.13 3.13 0 0 1 5 6.6c0-1.725 1.356-3.1 3-3.1s3 1.375 3 3.1a3.13 3.13 0 0 1-1.18 2.465c-.255.201-.534.454-.736.787l-.035.057a1.227 1.227 0 0 1-2.098 0l-.035-.057Z"/></svg>
