<svg xmlns="http://www.w3.org/2000/svg" fill="none" viewBox="0 0 24 24" width="1em" height="1em"><circle cx="12" cy="12" r="9.5" stroke="currentColor" stroke-linecap="round"/><path stroke="currentColor" stroke-linecap="round" stroke-linejoin="round" d="M11.368 17.414a.632.632 0 0 0 1.264 0"/><path stroke="currentColor" d="m10.8 15.22-.01-.018c-.22-.344-.519-.602-.794-.808A3.158 3.158 0 0 1 8.71 11.86c0-1.752 1.46-3.194 3.289-3.194 1.829 0 3.29 1.442 3.29 3.194 0 1.029-.5 1.947-1.286 2.534-.275.206-.573.464-.794.808l-.01.018a1.424 1.424 0 0 1-2.4 0Z"/><path stroke="currentColor" stroke-linecap="round" d="M6.632 12.27H6m1.579-4.104-.316-.316M18 12.27h-.632m-.631-4.42-.316.316M12 6v.631"/></svg>
