<svg xmlns="http://www.w3.org/2000/svg" fill="none" viewBox="0 0 16 16" width="1em" height="1em"><path fill="currentColor" fill-rule="evenodd" d="M8.5 10.5a.5.5 0 0 0-1 0V12h-4a.5.5 0 0 0 0 1h9a.5.5 0 0 0 0-1h-4v-1.5Zm-5 3.5a.5.5 0 0 0 0 1h9a.5.5 0 0 0 0-1h-9Z" clip-rule="evenodd"/><circle cx="8" cy="6" r="4.5" stroke="currentColor"/><path fill="currentColor" fill-rule="evenodd" d="M8.966 5.741A1.001 1.001 0 0 1 8 7.001a1 1 0 1 1 .259-1.967l.802-.802a.5.5 0 0 1 .707.707l-.802.802Z" clip-rule="evenodd"/></svg>
