<svg xmlns="http://www.w3.org/2000/svg" fill="none" viewBox="0 0 32 32" width="1em" height="1em"><path fill="currentColor" fill-rule="evenodd" d="M17.5 21a.5.5 0 0 1 .5.5V24h7.5a.5.5 0 1 1 0 1h-8a.5.5 0 0 1-.5-.5v-3a.5.5 0 0 1 .5-.5ZM6 27.5a.5.5 0 0 1 .5-.5h19a.5.5 0 0 1 0 1h-19a.5.5 0 0 1-.5-.5Zm8-6a.5.5 0 0 1 1 0v3a.5.5 0 0 1-.5.5h-8a.5.5 0 0 1 0-1H14v-2.5Z" clip-rule="evenodd"/><circle cx="16" cy="12" r="9.5" stroke="currentColor"/><path fill="currentColor" fill-rule="evenodd" d="M17.723 10.984a2 2 0 1 1-.707-.707l.13-.13 3.036-3.036a.5.5 0 1 1 .707.707l-3.035 3.035-.131.13ZM17 12a1 1 0 1 1-2 0 1 1 0 0 1 2 0Z" clip-rule="evenodd"/></svg>
