<svg xmlns="http://www.w3.org/2000/svg" fill="none" viewBox="0 0 32 32" width="1em" height="1em"><path stroke="currentColor" stroke-linecap="round" d="M9.5 4.5h-5a2 2 0 0 0-2 2v14a2 2 0 0 0 2 2h5m-4-12h4m-4 3h4m-4 3h2"/><rect width="17" height="25" x="12.5" y="2.5" stroke="currentColor" rx="1.5"/><rect width="13" height="2" x="14.5" y="5.5" stroke="currentColor" rx="1"/><path stroke="currentColor" stroke-linecap="round" d="M19.5 10.5h7m-7 2h4"/><circle cx="16.5" cy="11.5" r="1" stroke="currentColor"/><path stroke="currentColor" stroke-linecap="round" d="M19.5 16.5h7m-7 2h4"/><circle cx="16.5" cy="17.5" r="1" stroke="currentColor"/><path stroke="currentColor" stroke-linecap="round" d="M19.5 22.5h7m-7 2h4"/><circle cx="16.5" cy="23.5" r="1" stroke="currentColor"/><path stroke="currentColor" stroke-linecap="round" stroke-linejoin="round" d="m7.5 26 2 2-2 2"/><path stroke="currentColor" stroke-linecap="round" stroke-linejoin="round" d="M4.5 24.5V26a2 2 0 0 0 2 2h2"/></svg>
