<svg xmlns="http://www.w3.org/2000/svg" fill="none" viewBox="0 0 24 24" width="1em" height="1em"><path stroke="currentColor" stroke-linecap="round" d="M6.5 4.5h-2a2 2 0 0 0-2 2v8a2 2 0 0 0 2 2h2"/><rect width="13" height="19" x="8.5" y="2.5" stroke="currentColor" rx="1.5"/><path stroke="currentColor" stroke-linecap="round" d="M15 9.5h4m-4 4h4m-4 4h4"/><rect width="2" height="2" x="10.5" y="8.5" stroke="currentColor" rx=".5"/><rect width="2" height="2" x="10.5" y="12.5" stroke="currentColor" rx=".5"/><rect width="2" height="2" x="10.5" y="16.5" stroke="currentColor" rx=".5"/><path stroke="currentColor" stroke-linecap="round" stroke-linejoin="round" d="M5 18.5 6.5 20 5 21.5"/><path stroke="currentColor" stroke-linecap="round" stroke-linejoin="round" d="M2.5 18v1a1 1 0 0 0 1 1H6"/><path stroke="currentColor" stroke-linecap="round" d="M11.5 5.5h3"/><circle cx="17.5" cy="5.5" r="1" stroke="currentColor"/><path fill="currentColor" d="m18.854 6.146-.354-.353-.707.707.353.354.708-.708Zm-.208 1.208a.5.5 0 0 0 .708-.708l-.708.708Zm-.5-.5.5.5.708-.708-.5-.5-.708.708Z"/></svg>
