<svg viewBox="0 0 24 24" fill="none" xmlns="http://www.w3.org/2000/svg" width="1em" height="1em"><path d="M6.5 4.5L4.5 4.5C3.39543 4.5 2.5 5.39543 2.5 6.5L2.5 14.5C2.5 15.6046 3.39543 16.5 4.5 16.5H6.5" stroke="currentColor" stroke-linecap="round"/><rect x="8.5" y="2.5" width="13" height="19" rx="1.5" stroke="currentColor"/><path d="M15 9.5H19" stroke="currentColor" stroke-linecap="round"/><path d="M15 13.5H19" stroke="currentColor" stroke-linecap="round"/><path d="M15 17.5H19" stroke="currentColor" stroke-linecap="round"/><rect x="10.5" y="8.5" width="2" height="2" rx="0.5" stroke="currentColor"/><rect x="10.5" y="12.5" width="2" height="2" rx="0.5" stroke="currentColor"/><rect x="10.5" y="16.5" width="2" height="2" rx="0.5" stroke="currentColor"/><path d="M5 18.5L6.5 20L5 21.5" stroke="currentColor" stroke-linecap="round" stroke-linejoin="round"/><path d="M2.5 18V19C2.5 19.5523 2.94772 20 3.5 20H6" stroke="currentColor" stroke-linecap="round" stroke-linejoin="round"/><path d="M11.5 5.5H14.5" stroke="currentColor" stroke-linecap="round"/><circle cx="17.5" cy="5.5" r="1" stroke="currentColor"/><path d="M18.8536 6.14645L18.5 5.79289L17.7929 6.5L18.1464 6.85355L18.8536 6.14645ZM18.6464 7.35355C18.8417 7.54882 19.1583 7.54882 19.3536 7.35355C19.5488 7.15829 19.5488 6.84171 19.3536 6.64645L18.6464 7.35355ZM18.1464 6.85355L18.6464 7.35355L19.3536 6.64645L18.8536 6.14645L18.1464 6.85355Z" fill="currentColor"/></svg>
