<svg viewBox="0 0 32 32" fill="none" xmlns="http://www.w3.org/2000/svg" width="1em" height="1em"><path d="M9.5 4.5H4.5C3.39543 4.5 2.5 5.39543 2.5 6.5L2.5 20.5C2.5 21.6046 3.39543 22.5 4.5 22.5H9.5" stroke="currentColor" stroke-linecap="round"/><line x1="5.5" y1="10.5" x2="9.5" y2="10.5" stroke="currentColor" stroke-linecap="round"/><line x1="5.5" y1="13.5" x2="9.5" y2="13.5" stroke="currentColor" stroke-linecap="round"/><line x1="5.5" y1="16.5" x2="7.5" y2="16.5" stroke="currentColor" stroke-linecap="round"/><rect x="12.5" y="2.5" width="17" height="25" rx="1.5" stroke="currentColor"/><rect x="14.5" y="5.5" width="13" height="2" rx="1" stroke="currentColor"/><line x1="19.5" y1="10.5" x2="26.5" y2="10.5" stroke="currentColor" stroke-linecap="round"/><line x1="19.5" y1="12.5" x2="23.5" y2="12.5" stroke="currentColor" stroke-linecap="round"/><circle cx="16.5" cy="11.5" r="1" stroke="currentColor"/><line x1="19.5" y1="16.5" x2="26.5" y2="16.5" stroke="currentColor" stroke-linecap="round"/><line x1="19.5" y1="18.5" x2="23.5" y2="18.5" stroke="currentColor" stroke-linecap="round"/><circle cx="16.5" cy="17.5" r="1" stroke="currentColor"/><line x1="19.5" y1="22.5" x2="26.5" y2="22.5" stroke="currentColor" stroke-linecap="round"/><line x1="19.5" y1="24.5" x2="23.5" y2="24.5" stroke="currentColor" stroke-linecap="round"/><circle cx="16.5" cy="23.5" r="1" stroke="currentColor"/><path d="M7.5 26L9.5 28L7.5 30" stroke="currentColor" stroke-linecap="round" stroke-linejoin="round"/><path d="M4.5 24.5V26C4.5 27.1046 5.39543 28 6.5 28H8.5" stroke="currentColor" stroke-linecap="round" stroke-linejoin="round"/></svg>
