<svg xmlns="http://www.w3.org/2000/svg" fill="none" viewBox="0 0 32 32" width="1em" height="1em"><path stroke="currentColor" d="M5.5 26.5v2a1 1 0 0 0 1 1h2a1 1 0 0 0 1-1v-2m13 0v2a1 1 0 0 0 1 1h2a1 1 0 0 0 1-1v-2m-21-6a2 2 0 0 1 2-2h17a2 2 0 0 1 2 2v4h-21v-4Z"/><path stroke="currentColor" d="M5.5 21.5H9a2.5 2.5 0 0 1 2.5 2.5v.5h-6v-3Zm21 0H23a2.5 2.5 0 0 0-2.5 2.5v.5h6v-3Z"/><path stroke="currentColor" stroke-linecap="round" d="M13.5 22.5h5"/><path stroke="currentColor" d="M6.5 18.5h-2a.5.5 0 0 0-.5.5v1a.5.5 0 0 0 .5.5h1m20.5-2h1.5a.5.5 0 0 1 .5.5v1a.5.5 0 0 1-.5.5h-.97"/><path stroke="currentColor" d="M15.877 10.5h6.354c.909 0 1.7.558 1.918 1.353L26 19.1m-9.877-8.6H9.77c-.909 0-1.7.558-1.918 1.353L6 19.1m1.5-6.6h17m-19 12v2h21v-2"/><path stroke="currentColor" stroke-linecap="round" stroke-linejoin="round" d="M11 5c.556-1 2.222-2.5 5-2.5s4.375 1.458 5 2.5m-8.333 2.167C13.222 6.125 14.61 5.5 16 5.5c1.389 0 2.778.625 3.333 1.667m-5 1.666C14.613 8.343 15.254 8 16 8c.745 0 1.386.343 1.667.833"/></svg>
