<svg viewBox="0 0 32 32" fill="none" xmlns="http://www.w3.org/2000/svg" width="1em" height="1em"><path d="M5.5 26.5V28.5C5.5 29.0523 5.94772 29.5 6.5 29.5H8.5C9.05228 29.5 9.5 29.0523 9.5 28.5V26.5" stroke="currentColor"/><path d="M22.5 26.5V28.5C22.5 29.0523 22.9477 29.5 23.5 29.5H25.5C26.0523 29.5 26.5 29.0523 26.5 28.5V26.5" stroke="currentColor"/><path d="M5.5 20.5C5.5 19.3954 6.39543 18.5 7.5 18.5L24.5 18.5C25.6046 18.5 26.5 19.3954 26.5 20.5L26.5 24.5L5.5 24.5L5.5 20.5Z" stroke="currentColor"/><path d="M5.5 21.5H9C10.3807 21.5 11.5 22.6193 11.5 24V24.5H5.5L5.5 21.5Z" stroke="currentColor"/><path d="M26.5 21.5H23C21.6193 21.5 20.5 22.6193 20.5 24V24.5H26.5V21.5Z" stroke="currentColor"/><line x1="13.5" y1="22.5" x2="18.5" y2="22.5" stroke="currentColor" stroke-linecap="round"/><path d="M6.5 18.5H4.5C4.22386 18.5 4 18.7239 4 19L4 20C4 20.2761 4.22386 20.5 4.5 20.5H5.5" stroke="currentColor"/><path d="M26 18.5H27.5C27.7761 18.5 28 18.7239 28 19V20C28 20.2761 27.7761 20.5 27.5 20.5H26.5306" stroke="currentColor"/><path d="M15.8765 10.5H22.2314C23.1397 10.5 23.9309 11.0583 24.149 11.8529L26 19.1M16.1235 10.5L9.7686 10.5C8.86029 10.5 8.06906 11.0583 7.85105 11.8529L6 19.1" stroke="currentColor"/><path d="M7.5 12.5L24.5 12.5M5.5 24.5L5.5 26.5L26.5 26.5V24.5" stroke="currentColor"/><path d="M11 5C11.5556 4 13.2222 2.5 16 2.5C18.7778 2.5 20.375 3.95833 21 5" stroke="currentColor" stroke-linecap="round" stroke-linejoin="round"/><path d="M12.6666 7.16667C13.2222 6.125 14.6111 5.5 16 5.5C17.3888 5.5 18.7777 6.125 19.3333 7.16667" stroke="currentColor" stroke-linecap="round" stroke-linejoin="round"/><path d="M14.3333 8.83333C14.6138 8.3428 15.2544 8 15.9999 8C16.7454 8 17.3861 8.3428 17.6666 8.83333" stroke="currentColor" stroke-linecap="round" stroke-linejoin="round"/></svg>
