<svg viewBox="0 0 24 24" fill="none" xmlns="http://www.w3.org/2000/svg" width="1em" height="1em"><path d="M6.5 19.5V20.5C6.5 21.0523 6.05228 21.5 5.5 21.5H5C4.44772 21.5 4 21.0523 4 20.5L4 18M20 18.5V20.5C20 21.0523 19.5523 21.5 19 21.5H18.5C17.9477 21.5 17.5 21.0523 17.5 20.5V19.5" stroke="currentColor" stroke-linecap="round"/><path d="M4 16C4 14.8954 4.89543 14 6 14L18 14C19.1046 14 20 14.8954 20 16V19.5L4 19.5L4 16Z" stroke="currentColor" stroke-linecap="round"/><path d="M20 17.5H17C16.4477 17.5 16 17.9477 16 18.5V19" stroke="currentColor" stroke-linecap="round"/><path d="M4 17.5H7C7.55228 17.5 8 17.9477 8 18.5V19" stroke="currentColor" stroke-linecap="round"/><line x1="9.5" y1="16.5" x2="14.5" y2="16.5" stroke="currentColor" stroke-linecap="round"/><line x1="5.5" y1="10.5" x2="18.5" y2="10.5" stroke="currentColor" stroke-linecap="round"/><path d="M4.5 12.5H3C2.72386 12.5 2.5 12.7239 2.5 13L2.5 14C2.5 14.2761 2.72386 14.5 3 14.5H3.96939" stroke="currentColor"/><path d="M19.5 12.5H21C21.2761 12.5 21.5 12.7239 21.5 13V14C21.5 14.2761 21.2761 14.5 21 14.5H20.0306" stroke="currentColor"/><path d="M11.9012 8.5H16.9851C17.7118 8.5 18.3448 8.95439 18.5192 9.60122L20 16M12.0988 8.5L7.01488 8.5C6.28824 8.5 5.65525 8.95439 5.48084 9.60122L4 16" stroke="currentColor" stroke-linecap="round"/><path d="M7.5 4.75C8 3.85 9.5 2.5 12 2.5C14.5 2.5 15.9375 3.8125 16.5 4.75" stroke="currentColor" stroke-linecap="round" stroke-linejoin="round"/><path d="M9 5.875C9.5 4.9375 10.75 4.375 12 4.375C13.25 4.375 14.5 4.9375 15 5.875" stroke="currentColor" stroke-linecap="round" stroke-linejoin="round"/><path d="M10.5 7C10.7525 6.55852 11.3291 6.25 12 6.25C12.6709 6.25 13.2475 6.55852 13.5 7" stroke="currentColor" stroke-linecap="round" stroke-linejoin="round"/></svg>
