<svg viewBox="0 0 32 32" fill="none" xmlns="http://www.w3.org/2000/svg" stroke="currentColor" width="1em" height="1em"><path d="M5.5 26.5V28.5C5.5 29.0523 5.94772 29.5 6.5 29.5H8.5C9.05228 29.5 9.5 29.0523 9.5 28.5V26.5"/><path d="M22.5 26.5V28.5C22.5 29.0523 22.9477 29.5 23.5 29.5H25.5C26.0523 29.5 26.5 29.0523 26.5 28.5V26.5"/><path d="M5.5 20.5C5.5 19.3954 6.39543 18.5 7.5 18.5H24.5C25.6046 18.5 26.5 19.3954 26.5 20.5L26.5 24.5H5.5V20.5Z"/><path d="M5.5 21.5H9C10.3807 21.5 11.5 22.6193 11.5 24V24.5H5.5V21.5Z"/><path d="M26.5 21.5H23C21.6193 21.5 20.5 22.6193 20.5 24V24.5H26.5V21.5Z"/><line x1="13.5" y1="22.5" x2="18.5" y2="22.5" stroke-linecap="round"/><path d="M6.5 18.5H4.5C4.22386 18.5 4 18.7239 4 19V20C4 20.2761 4.22386 20.5 4.5 20.5H5.5"/><path d="M26 18.5H27.5C27.7761 18.5 28 18.7239 28 19V20C28 20.2761 27.7761 20.5 27.5 20.5H26.5306"/><path d="M24.149 11.8529L24.6335 11.7292L24.6311 11.7206L24.149 11.8529ZM7.85105 11.8529L7.36879 11.7206L7.3666 11.7292L7.85105 11.8529ZM15.8765 11H16.1235V10H15.8765V11ZM16.1235 11H22.2314V10H16.1235V11ZM23.6645 11.9767L25.5156 19.2237L26.4844 18.9763L24.6334 11.7292L23.6645 11.9767ZM22.2314 11C22.9463 11 23.5164 11.437 23.6668 11.9852L24.6311 11.7206C24.3455 10.6795 23.3331 10 22.2314 10V11ZM15.8765 10H9.7686V11H15.8765V10ZM7.3666 11.7292L5.51555 18.9763L6.48445 19.2237L8.33549 11.9767L7.3666 11.7292ZM9.7686 10C8.66694 10 7.65448 10.6795 7.36886 11.7206L8.33323 11.9852C8.48364 11.437 9.05365 11 9.7686 11V10Z" fill="#282829"/><path d="M7.5 12.5L24.5 12.5M5.5 24.5V26.5H26.5V24.5"/><path d="M11 5C11.5556 4 13.2222 2.5 16 2.5C18.7778 2.5 20.375 3.95833 21 5" stroke-linecap="round" stroke-linejoin="round"/><path d="M12.6666 7.16667C13.2222 6.125 14.6111 5.5 16 5.5C17.3888 5.5 18.7777 6.125 19.3333 7.16667" stroke-linecap="round" stroke-linejoin="round"/><path d="M14.3333 8.83333C14.6138 8.3428 15.2544 8 15.9999 8C16.7454 8 17.3861 8.3428 17.6666 8.83333" stroke-linecap="round" stroke-linejoin="round"/></svg>
