<svg xmlns="http://www.w3.org/2000/svg" fill="none" viewBox="0 0 24 24" width="1em" height="1em"><path stroke="currentColor" stroke-linecap="round" d="M6.5 19.5v1a1 1 0 0 1-1 1H5a1 1 0 0 1-1-1V18m16 .5v2a1 1 0 0 1-1 1h-.5a1 1 0 0 1-1-1v-1"/><path stroke="currentColor" stroke-linecap="round" d="M4 16a2 2 0 0 1 2-2h12a2 2 0 0 1 2 2v3.5H4z"/><path stroke="currentColor" stroke-linecap="round" d="M20 17.5h-3a1 1 0 0 0-1 1v.5M4 17.5h3a1 1 0 0 1 1 1v.5m1.5-2.5h5m-9-6h13"/><path stroke="currentColor" d="M4.5 12.5H3a.5.5 0 0 0-.5.5v1a.5.5 0 0 0 .5.5h.97m15.53-2H21a.5.5 0 0 1 .5.5v1a.5.5 0 0 1-.5.5h-.97"/><path stroke="currentColor" stroke-linecap="round" d="M11.901 8.5h5.084c.727 0 1.36.454 1.534 1.101L20 16m-7.901-7.5H7.015c-.727 0-1.36.454-1.534 1.101L4 16"/><path stroke="currentColor" stroke-linecap="round" stroke-linejoin="round" d="M7.5 4.75c.5-.9 2-2.25 4.5-2.25s3.938 1.313 4.5 2.25"/><path stroke="currentColor" stroke-linecap="round" stroke-linejoin="round" d="M9 5.875c.5-.937 1.75-1.5 3-1.5s2.5.563 3 1.5M10.5 7c.252-.441.83-.75 1.5-.75s1.248.309 1.5.75"/></svg>
