<svg xmlns="http://www.w3.org/2000/svg" fill="none" viewBox="0 0 16 16" width="1em" height="1em"><path stroke="currentColor" stroke-linecap="round" stroke-linejoin="round" d="M3.5 9.5h9v3a.5.5 0 0 1-.5.5H4a.5.5 0 0 1-.5-.5z"/><path stroke="currentColor" d="m12.5 9.5-.772-2.316a1 1 0 0 0-.949-.684H5.221a1 1 0 0 0-.949.684L3.5 9.5"/><rect width="2.5" height=".5" x="3.25" y="11.25" stroke="currentColor" stroke-width=".5" rx=".25"/><rect width="2.5" height=".5" x="10.25" y="11.25" stroke="currentColor" stroke-width=".5" rx=".25"/><path stroke="currentColor" d="M13 10.5a.5.5 0 1 0 0-1 .5.5 0 0 0 0 1Zm-10 0a.5.5 0 1 0 0-1 .5.5 0 0 0 0 1Z"/><path stroke="currentColor" stroke-linejoin="round" d="M10.5 13h1v2h-1zm-6 0h1v2h-1z"/><path stroke="currentColor" stroke-linecap="round" stroke-linejoin="round" d="M4.5 3.214C4.889 2.53 6.056 1.5 8 1.5s3.111 1.029 3.5 1.714M5.667 4.643C6.056 3.929 7.027 3.5 8 3.5c.972 0 1.944.429 2.333 1.143"/></svg>
