<svg xmlns="http://www.w3.org/2000/svg" fill="none" viewBox="0 0 16 16" width="1em" height="1em"><path fill="currentColor" fill-rule="evenodd" d="M8 2a6 6 0 1 0 5.725 4.2.5.5 0 0 1 .955-.3 7 7 0 1 1-4.58-4.58.5.5 0 1 1-.3.955A6 6 0 0 0 8 2m0 2.5a3.5 3.5 0 1 0 3.34 2.45.5.5 0 1 1 .954-.3A4.5 4.5 0 1 1 9.35 3.706a.5.5 0 1 1-.3.954A3.5 3.5 0 0 0 8 4.5M9 8a1 1 0 1 1-2 0 1 1 0 0 1 2 0m1 0a2 2 0 1 1-4 0 2 2 0 0 1 4 0" clip-rule="evenodd"/><path stroke="currentColor" stroke-linecap="round" d="m14.5 1.5-13 13"/></svg>
