<svg xmlns="http://www.w3.org/2000/svg" fill="none" viewBox="0 0 24 24" width="1em" height="1em"><path fill="currentColor" fill-rule="evenodd" d="M11 4a8 8 0 1 0 7.545 5.333.5.5 0 0 1 .943-.333c.332.939.512 1.949.512 3a9 9 0 1 1-5-8.064.5.5 0 0 1-.445.895A7.965 7.965 0 0 0 11 4Zm0 12a4 4 0 1 0 0-8 4 4 0 0 0 0 8Zm0 1a5 5 0 1 0 0-10 5 5 0 0 0 0 10Zm1-5a1 1 0 1 1-2 0 1 1 0 0 1 2 0Zm1 0a2 2 0 1 1-4 0 2 2 0 0 1 4 0Z" clip-rule="evenodd"/><path fill="currentColor" fill-rule="evenodd" d="m20.178 4.9.476.225-1.53 1.528-.959-.454-.454-.96 1.528-1.529.226.476c.148.313.4.565.713.713Zm-1.144-2.398a.5.5 0 0 1 .805.139l.53 1.117a.5.5 0 0 0 .237.238l1.117.529a.5.5 0 0 1 .14.805l-2.28 2.28a.5.5 0 0 1-.568.098l-1.121-.531-.126.126-1 1a.5.5 0 1 1-.707-.707l1-1 .126-.126-.531-1.121a.5.5 0 0 1 .098-.568l2.28-2.28Z" clip-rule="evenodd"/></svg>
