<svg xmlns="http://www.w3.org/2000/svg" fill="none" viewBox="0 0 32 32" width="1em" height="1em"><path fill="currentColor" fill-rule="evenodd" d="M4 16.5C4 10.149 9.149 5 15.5 5c.994 0 1.957.126 2.875.362a.5.5 0 0 0 .25-.968A12.54 12.54 0 0 0 15.5 4C8.596 4 3 9.596 3 16.5S8.596 29 15.5 29 28 23.404 28 16.5a12.52 12.52 0 0 0-.394-3.125.5.5 0 1 0-.968.25c.236.918.362 1.882.362 2.875C27 22.851 21.851 28 15.5 28S4 22.851 4 16.5ZM15.5 24a7.5 7.5 0 1 0 0-15 7.5 7.5 0 0 0 0 15Zm0 1a8.5 8.5 0 1 0 0-17 8.5 8.5 0 0 0 0 17Zm3.5-8.5a3.5 3.5 0 1 1-7 0 3.5 3.5 0 0 1 7 0Zm1 0a4.5 4.5 0 1 1-9 0 4.5 4.5 0 0 1 9 0Zm-4 0a.5.5 0 1 1-1 0 .5.5 0 0 1 1 0Zm1 0a1.5 1.5 0 1 1-3 0 1.5 1.5 0 0 1 3 0Z" clip-rule="evenodd"/><path fill="currentColor" fill-rule="evenodd" d="M26.529 4.738a1 1 0 0 0 .806.748l1.084.18-2.155 2.156a.5.5 0 0 1-.38.146l-1.773-.089-.108-1.801a.5.5 0 0 1 .145-.384l2.1-2.1.28 1.144ZM23.84 8.867l1.995.1a1.5 1.5 0 0 0 1.136-.438l2.842-2.842a.5.5 0 0 0-.271-.847L27.5 4.5l-.491-2.006a.5.5 0 0 0-.84-.235l-2.728 2.728a1.5 1.5 0 0 0-.436 1.15l.122 2.03-.98.98a.5.5 0 1 0 .707.707l.986-.987Z" clip-rule="evenodd"/></svg>
