<svg viewBox="0 0 16 16" fill="none" xmlns="http://www.w3.org/2000/svg" width="1em" height="1em"><path fill-rule="evenodd" clip-rule="evenodd" d="M8 2C4.68629 2 2 4.68629 2 8C2 11.3137 4.68629 14 8 14C11.3137 14 14 11.3137 14 8C14 7.37202 13.9037 6.76748 13.7254 6.19982C13.6427 5.93637 13.7892 5.65572 14.0526 5.57298C14.3161 5.49023 14.5967 5.63672 14.6795 5.90018C14.8878 6.56367 15 7.26921 15 8C15 11.866 11.866 15 8 15C4.13401 15 1 11.866 1 8C1 4.13401 4.13401 1 8 1C8.73079 1 9.43633 1.11215 10.0998 1.32055C10.3633 1.40329 10.5098 1.68394 10.427 1.9474C10.3443 2.21085 10.0636 2.35734 9.80018 2.2746C9.23252 2.09631 8.62798 2 8 2ZM8 4.5C6.067 4.5 4.5 6.067 4.5 8C4.5 9.933 6.067 11.5 8 11.5C9.933 11.5 11.5 9.933 11.5 8C11.5 7.63332 11.4438 7.28072 11.3399 6.94982C11.2571 6.68637 11.4036 6.40572 11.6671 6.32298C11.9305 6.24023 12.2112 6.38672 12.2939 6.65018C12.4279 7.07691 12.5 7.53051 12.5 8C12.5 10.4853 10.4853 12.5 8 12.5C5.51472 12.5 3.5 10.4853 3.5 8C3.5 5.51472 5.51472 3.5 8 3.5C8.46949 3.5 8.92309 3.57207 9.34982 3.7061C9.61328 3.78884 9.75977 4.06949 9.67702 4.33295C9.59428 4.5964 9.31363 4.74289 9.05018 4.66015C8.71928 4.55622 8.36668 4.5 8 4.5ZM9 8C9 8.55228 8.55228 9 8 9C7.44772 9 7 8.55228 7 8C7 7.44772 7.44772 7 8 7C8.55228 7 9 7.44772 9 8ZM10 8C10 9.10457 9.10457 10 8 10C6.89543 10 6 9.10457 6 8C6 6.89543 6.89543 6 8 6C9.10457 6 10 6.89543 10 8Z" fill="currentColor"/><path d="M14.5 1.5L1.5 14.5" stroke="currentColor" stroke-linecap="round"/></svg>
