<svg viewBox="0 0 32 32" fill="none" xmlns="http://www.w3.org/2000/svg" width="1em" height="1em"><path d="M5.08959 13.4472L5.57663 13.5603L5.08959 13.4472ZM18.0014 5.38564L18.3407 5.75288C18.4388 5.66228 18.4965 5.53623 18.5011 5.40281C18.5057 5.26939 18.4567 5.13967 18.3651 5.04256L18.0014 5.38564ZM15.7147 2.23266C15.5252 2.03178 15.2088 2.02254 15.0079 2.21202C14.807 2.4015 14.7978 2.71795 14.9872 2.91883L15.7147 2.23266ZM14.8729 7.59559C14.6701 7.78299 14.6576 8.09933 14.845 8.30214C15.0324 8.50496 15.3487 8.51746 15.5515 8.33006L14.8729 7.59559ZM8.28953 7.93176L8.62884 8.299L8.28953 7.93176ZM7.43704 23.9117C7.62444 24.1145 7.94078 24.127 8.1436 23.9396C8.34641 23.7522 8.35891 23.4359 8.17151 23.2331L7.43704 23.9117ZM18.3651 5.04256L15.7147 2.23266L14.9872 2.91883L17.6377 5.72872L18.3651 5.04256ZM17.6621 5.01841L14.8729 7.59559L15.5515 8.33006L18.3407 5.75288L17.6621 5.01841ZM5.57663 13.5603C6.04908 11.5259 7.11537 9.69738 8.62884 8.299L7.95021 7.56452C6.28927 9.09916 5.12024 11.1048 4.60255 13.3341L5.57663 13.5603ZM8.62884 8.299C10.9978 6.11019 14.7074 5.11463 17.8855 5.87202L18.1173 4.89926C14.6119 4.06386 10.5616 5.15168 7.95021 7.56452L8.62884 8.299ZM8.17151 23.2331C5.78059 20.6455 4.78868 16.9533 5.57663 13.5603L4.60255 13.3341C3.73853 17.0547 4.82474 21.0846 7.43704 23.9117L8.17151 23.2331Z" fill="currentColor"/><path d="M26.9099 18.5528L26.4229 18.4397L26.9099 18.5528ZM13.9981 26.6144L13.6588 26.2471C13.5607 26.3377 13.503 26.4638 13.4984 26.5972C13.4938 26.7306 13.5428 26.8603 13.6344 26.9574L13.9981 26.6144ZM16.2848 29.7673C16.4743 29.9682 16.7907 29.9775 16.9916 29.788C17.1925 29.5985 17.2017 29.2821 17.0123 29.0812L16.2848 29.7673ZM17.1266 24.4044C17.3294 24.217 17.3419 23.9007 17.1545 23.6979C16.9671 23.495 16.6508 23.4825 16.448 23.6699L17.1266 24.4044ZM23.71 24.0682L23.3707 23.701L23.71 24.0682ZM24.5625 8.08827C24.3751 7.88545 24.0587 7.87296 23.8559 8.06036C23.6531 8.24776 23.6406 8.5641 23.828 8.76691L24.5625 8.08827ZM13.6344 26.9574L16.2848 29.7673L17.0123 29.0812L14.3618 26.2713L13.6344 26.9574ZM14.3374 26.9816L17.1266 24.4044L16.448 23.6699L13.6588 26.2471L14.3374 26.9816ZM26.4229 18.4397C25.9504 20.4741 24.8841 22.3026 23.3707 23.701L24.0493 24.4355C25.7102 22.9008 26.8793 20.8952 27.397 18.6659L26.4229 18.4397ZM23.3707 23.701C21.0017 25.8898 17.2921 26.8854 14.114 26.128L13.8822 27.1007C17.3876 27.9361 21.4379 26.8483 24.0493 24.4355L23.3707 23.701ZM23.828 8.76691C26.2189 11.3545 27.2108 15.0467 26.4229 18.4397L27.397 18.6659C28.261 14.9453 27.1748 10.9154 24.5625 8.08827L23.828 8.76691Z" fill="currentColor"/><path d="M14.5 11.5V18.5H18.5" stroke="currentColor" stroke-miterlimit="10" stroke-linecap="round" stroke-linejoin="round"/></svg>
