<svg xmlns="http://www.w3.org/2000/svg" fill="none" viewBox="0 0 32 32" width="1em" height="1em"><path fill="currentColor" d="m5.09 13.447.487.113zM18 5.386l.34.367a.5.5 0 0 0 .024-.71zm-2.286-3.153a.5.5 0 0 0-.728.686zm-.842 5.363a.5.5 0 0 0 .679.734zm-6.583.336.339.367zm-.853 15.98a.5.5 0 0 0 .735-.679zm10.928-18.87-2.65-2.81-.728.687 2.65 2.81zm-.703-.024-2.79 2.578.68.734 2.789-2.577zM5.577 13.56A10.34 10.34 0 0 1 8.629 8.3l-.679-.734a11.34 11.34 0 0 0-3.347 5.77zM8.629 8.3c2.369-2.189 6.078-3.184 9.257-2.427l.231-.973c-3.505-.835-7.555.253-10.167 2.666zm-.457 14.934c-2.391-2.588-3.383-6.28-2.595-9.673l-.974-.226c-.864 3.72.222 7.75 2.834 10.578zm18.738-4.681-.487-.113zm-12.912 8.062-.34-.367a.5.5 0 0 0-.024.71zm2.287 3.153a.5.5 0 0 0 .727-.686zm.842-5.363a.5.5 0 0 0-.679-.735zm6.583-.336-.34-.367zm.852-15.98a.5.5 0 0 0-.734.678zM13.635 26.958l2.65 2.81.728-.686-2.65-2.81zm.703.024 2.79-2.577-.679-.735-2.79 2.578zm12.086-8.542a10.34 10.34 0 0 1-3.052 5.261l.678.735a11.34 11.34 0 0 0 3.348-5.77zm-3.052 5.261c-2.37 2.19-6.079 3.185-9.257 2.427l-.232.973c3.506.836 7.556-.252 10.167-2.665zm.457-14.934c2.39 2.588 3.383 6.28 2.595 9.673l.974.226c.864-3.72-.222-7.75-2.834-10.577z"/><path stroke="currentColor" stroke-linecap="round" stroke-linejoin="round" stroke-miterlimit="10" d="M14.5 11.5v7h4"/></svg>
