<svg xmlns="http://www.w3.org/2000/svg" fill="none" viewBox="0 0 16 16" width="1em" height="1em"><path fill="currentColor" d="m2.757 9.715.475-.155zm3.375-6.656.48.138a.5.5 0 0 0-.346-.62zm-1.69-.99a.5.5 0 0 0-.269.964zm.692 2.64a.5.5 0 1 0 .96.277zm-2.433 1.88.48.139zm3.623 7.168a.5.5 0 0 0 .278-.961zm-.058-11.18L4.44 2.069l-.268.964 1.825.507zm-.615.343-.517 1.788.96.278.518-1.789zM3.232 9.56a4.8 4.8 0 0 1-.05-2.832l-.96-.278a5.8 5.8 0 0 0 .06 3.42zm-.05-2.832C3.598 5.29 4.84 3.996 6.284 3.535l-.304-.953c-1.765.564-3.251 2.113-3.76 3.868zm3.42 6.068c-1.58-.457-2.867-1.694-3.37-3.236l-.95.31c.606 1.862 2.149 3.34 4.042 3.887zm6.641-6.51-.475.155zm-3.375 6.656-.48-.139a.5.5 0 0 0 .346.62zm1.69.989a.5.5 0 1 0 .268-.963zm-.692-2.639a.5.5 0 1 0-.961-.278zm2.432-1.88-.48-.14zM9.676 2.243a.5.5 0 1 0-.278.96zm.058 11.18 1.825.507.268-.963-1.825-.508zm.614-.343.518-1.789-.961-.278-.517 1.79zm2.42-6.64a4.8 4.8 0 0 1 .05 2.831l.96.278a5.8 5.8 0 0 0-.06-3.42zm.05 2.831c-.416 1.439-1.658 2.732-3.102 3.194l.304.952c1.765-.564 3.251-2.112 3.759-3.868zm-3.42-6.067c1.58.456 2.867 1.693 3.37 3.236l.95-.31c-.607-1.862-2.15-3.34-4.042-3.887z"/><path stroke="currentColor" stroke-linecap="round" stroke-linejoin="round" stroke-miterlimit="10" d="M7.521 5.5v3h2.06"/></svg>
