<svg xmlns="http://www.w3.org/2000/svg" fill="none" viewBox="0 0 24 24" width="1em" height="1em"><path fill="currentColor" d="m4.064 10.337.488.105zm9.128-5.907.345.362a.5.5 0 0 0 .013-.711zm-1.567-2.325a.5.5 0 1 0-.717.698zm-.74 3.836a.5.5 0 1 0 .69.723zm-4.6.42.345.361zm-.527 11.52a.5.5 0 1 0 .723-.69zm7.792-13.8-1.925-1.976-.717.698 1.926 1.976zm-.703-.013-1.963 1.873.69.723 1.963-1.872zm-8.295 6.374a7.24 7.24 0 0 1 2.078-3.72L5.94 6a8.24 8.24 0 0 0-2.365 4.232zm2.078-3.72c1.633-1.558 4.222-2.298 6.454-1.804l.216-.976c-2.56-.567-5.489.27-7.36 2.057zm-.149 10.47c-1.705-1.787-2.442-4.365-1.929-6.75l-.977-.21c-.584 2.714.252 5.627 2.183 7.65zm13.44-3.529-.488-.105zm-9.128 5.907-.345-.362a.5.5 0 0 0-.013.71zm1.567 2.325a.5.5 0 0 0 .717-.698zm.74-3.837a.5.5 0 1 0-.69-.723zm4.6-.419-.345-.362zm.527-11.521a.5.5 0 1 0-.723.69zm-7.792 13.8 1.925 1.977.717-.698-1.926-1.976zm.703.013 1.963-1.873-.69-.723-1.963 1.873zm8.295-6.373a7.24 7.24 0 0 1-2.078 3.72l.69.723a8.24 8.24 0 0 0 2.365-4.233zm-2.078 3.72c-1.633 1.557-4.222 2.297-6.454 1.803l-.216.977c2.56.566 5.489-.271 7.36-2.057zm.149-10.47c1.705 1.787 2.442 4.364 1.929 6.75l.977.21c.584-2.714-.252-5.628-2.183-7.65z"/><path stroke="currentColor" stroke-linecap="round" stroke-linejoin="round" stroke-miterlimit="10" d="M11.5 8.5v5h2"/></svg>
