<svg xmlns="http://www.w3.org/2000/svg" fill="none" viewBox="0 0 24 24" width="1em" height="1em"><path fill="currentColor" d="m4.064 10.337.488.105-.488-.105Zm9.128-5.907.345.362a.5.5 0 0 0 .013-.711l-.358.349Zm-1.567-2.325a.5.5 0 0 0-.716.698l.716-.698Zm-.74 3.836a.5.5 0 1 0 .69.723l-.69-.723Zm-4.6.42.346.361-.346-.361Zm-.527 11.52a.5.5 0 1 0 .723-.69l-.723.69Zm7.792-13.8-1.925-1.976-.716.698 1.925 1.976.716-.698Zm-.703-.013-1.962 1.873.69.723 1.962-1.872-.69-.724Zm-8.295 6.374a7.243 7.243 0 0 1 2.079-3.72L5.94 6a8.243 8.243 0 0 0-2.366 4.232l.977.21Zm2.079-3.72c1.632-1.558 4.221-2.298 6.453-1.804l.216-.976c-2.56-.567-5.489.27-7.36 2.057l.69.723Zm-.15 10.47c-1.705-1.787-2.442-4.365-1.929-6.75l-.977-.21c-.584 2.714.252 5.627 2.183 7.65l.723-.69Zm13.441-3.529-.49-.105.49.105Zm-9.129 5.907-.345-.362a.5.5 0 0 0-.013.71l.358-.348Zm1.567 2.325a.5.5 0 0 0 .717-.698l-.717.698Zm.74-3.837a.5.5 0 0 0-.69-.723l.69.723Zm4.6-.419-.345-.362.345.362Zm.527-11.521a.5.5 0 1 0-.723.69l.723-.69Zm-7.792 13.8 1.925 1.977.717-.698-1.926-1.976-.716.698Zm.703.013 1.963-1.873-.69-.723-1.963 1.873.69.723Zm8.295-6.373a7.243 7.243 0 0 1-2.078 3.72l.69.723a8.244 8.244 0 0 0 2.365-4.233l-.977-.21Zm-2.078 3.72c-1.633 1.557-4.222 2.297-6.454 1.803l-.216.977c2.56.566 5.489-.271 7.36-2.057l-.69-.724Zm.149-10.47c1.705 1.787 2.442 4.364 1.929 6.75l.977.21c.584-2.714-.252-5.628-2.183-7.65l-.723.69Z"/><path stroke="currentColor" stroke-linecap="round" stroke-linejoin="round" stroke-miterlimit="10" d="M11.5 8.5v5h2"/></svg>
