<svg viewBox="0 0 24 24" fill="none" xmlns="http://www.w3.org/2000/svg" width="1em" height="1em"><path d="M4.06355 10.3371L4.55236 10.4423L4.06355 10.3371ZM13.1919 4.43035L13.5372 4.79205C13.6337 4.69987 13.6894 4.57291 13.6919 4.43943C13.6943 4.30595 13.6432 4.17704 13.5501 4.08142L13.1919 4.43035ZM11.6246 2.10525C11.4319 1.90746 11.1154 1.90334 10.9176 2.09605C10.7198 2.28875 10.7157 2.60531 10.9084 2.80309L11.6246 2.10525ZM10.8845 5.9415C10.6847 6.13216 10.6773 6.44866 10.868 6.64842C11.0586 6.84818 11.3751 6.85555 11.5749 6.6649L10.8845 5.9415ZM6.28518 6.36103L6.63039 6.72273L6.28518 6.36103ZM5.7577 17.8823C5.94836 18.0821 6.26486 18.0895 6.46462 17.8988C6.66438 17.7081 6.67175 17.3916 6.48109 17.1919L5.7577 17.8823ZM13.5501 4.08142L11.6246 2.10525L10.9084 2.80309L12.8338 4.77927L13.5501 4.08142ZM12.8467 4.06865L10.8845 5.9415L11.5749 6.6649L13.5372 4.79205L12.8467 4.06865ZM4.55236 10.4423C4.86025 9.01181 5.58639 7.71914 6.63039 6.72273L5.93997 5.99933C4.75072 7.13436 3.92472 8.60587 3.57475 10.2319L4.55236 10.4423ZM6.63039 6.72273C8.26287 5.16467 10.8523 4.42473 13.0839 4.91854L13.3 3.94216C10.7398 3.37565 7.81125 4.21335 5.93997 5.99933L6.63039 6.72273ZM6.48109 17.1919C4.77578 15.4052 4.03893 12.8277 4.55236 10.4423L3.57475 10.2319C2.99056 12.9461 3.82716 15.8597 5.7577 17.8823L6.48109 17.1919Z" fill="currentColor"/><path d="M19.9214 13.6632L19.4326 13.5579L19.9214 13.6632ZM10.7931 19.5699L10.4478 19.2082C10.3513 19.3004 10.2956 19.4273 10.2931 19.5608C10.2907 19.6943 10.3418 19.8232 10.4349 19.9188L10.7931 19.5699ZM12.3603 21.895C12.553 22.0928 12.8696 22.0969 13.0674 21.9042C13.2652 21.7115 13.2693 21.3949 13.0766 21.1972L12.3603 21.895ZM13.1005 18.0587C13.3003 17.8681 13.3077 17.5516 13.117 17.3518C12.9263 17.1521 12.6098 17.1447 12.4101 17.3353L13.1005 18.0587ZM17.6998 17.6392L17.3546 17.2775L17.6998 17.6392ZM18.2273 6.11791C18.0366 5.91815 17.7201 5.91078 17.5204 6.10144C17.3206 6.2921 17.3132 6.6086 17.5039 6.80835L18.2273 6.11791ZM10.4349 19.9188L12.3603 21.895L13.0766 21.1972L11.1512 19.221L10.4349 19.9188ZM11.1383 19.9316L13.1005 18.0587L12.4101 17.3353L10.4478 19.2082L11.1383 19.9316ZM19.4326 13.5579C19.1247 14.9884 18.3986 16.2811 17.3546 17.2775L18.045 18.0009C19.2343 16.8659 20.0603 15.3944 20.4102 13.7684L19.4326 13.5579ZM17.3546 17.2775C15.7221 18.8356 13.1327 19.5755 10.9011 19.0817L10.685 20.0581C13.2452 20.6246 16.1737 19.7869 18.045 18.0009L17.3546 17.2775ZM17.5039 6.80835C19.2092 8.59503 19.9461 11.1725 19.4326 13.5579L20.4102 13.7684C20.9944 11.0542 20.1578 8.14057 18.2273 6.11791L17.5039 6.80835Z" fill="currentColor"/><path d="M11.4998 8.50024L11.5 13.5002H13.4998" stroke="currentColor" stroke-miterlimit="10" stroke-linecap="round" stroke-linejoin="round"/></svg>
