<svg viewBox="0 0 16 16" fill="none" xmlns="http://www.w3.org/2000/svg" width="1em" height="1em"><path d="M2.75664 9.71474L3.23201 9.55973L2.75664 9.71474ZM6.13181 3.05828L6.61213 3.19718C6.64922 3.06893 6.63348 2.93118 6.56842 2.81461C6.50335 2.69803 6.39438 2.61232 6.26576 2.57656L6.13181 3.05828ZM4.4411 2.06921C4.17505 1.99523 3.8994 2.15094 3.82543 2.41699C3.75145 2.68304 3.90716 2.95868 4.17321 3.03266L4.4411 2.06921ZM5.13425 4.70805C5.05754 4.97332 5.2104 5.25056 5.47567 5.32727C5.74095 5.40398 6.01818 5.25112 6.09489 4.98585L5.13425 4.70805ZM2.7014 6.58885L3.18172 6.72775L2.7014 6.58885ZM6.32385 13.7562C6.58912 13.8329 6.86635 13.6801 6.94306 13.4148C7.01977 13.1495 6.86691 12.8723 6.60163 12.7956L6.32385 13.7562ZM6.26576 2.57656L4.4411 2.06921L4.17321 3.03266L5.99787 3.54001L6.26576 2.57656ZM5.65149 2.91938L5.13425 4.70805L6.09489 4.98585L6.61213 3.19718L5.65149 2.91938ZM3.23201 9.55973C2.93036 8.63463 2.91526 7.64914 3.18172 6.72775L2.22108 6.44994C1.89885 7.56421 1.91762 8.7545 2.28128 9.86975L3.23201 9.55973ZM3.18172 6.72775C3.59767 5.28943 4.83999 3.99622 6.28407 3.53453L5.97955 2.58203C4.21495 3.14618 2.72874 4.6945 2.22108 6.44994L3.18172 6.72775ZM6.60163 12.7956C5.02212 12.3388 3.7349 11.102 3.23201 9.55973L2.28128 9.86975C2.88843 11.7317 4.43096 13.2089 6.32385 13.7562L6.60163 12.7956Z" fill="currentColor"/><path d="M13.2431 6.28526L12.7677 6.44027L13.2431 6.28526ZM9.86794 12.9417L9.38762 12.8028C9.35054 12.9311 9.36628 13.0688 9.43134 13.1854C9.4964 13.302 9.60538 13.3877 9.734 13.4234L9.86794 12.9417ZM11.5587 13.9308C11.8247 14.0048 12.1004 13.8491 12.1743 13.583C12.2483 13.317 12.0926 13.0413 11.8265 12.9673L11.5587 13.9308ZM10.8655 11.2919C10.9422 11.0267 10.7894 10.7494 10.5241 10.6727C10.2588 10.596 9.98158 10.7489 9.90486 11.0142L10.8655 11.2919ZM13.2984 9.41115L12.818 9.27225L13.2984 9.41115ZM9.67591 2.24378C9.41064 2.16708 9.1334 2.31994 9.0567 2.58521C8.97999 2.85049 9.13285 3.12772 9.39812 3.20443L9.67591 2.24378ZM9.734 13.4234L11.5587 13.9308L11.8265 12.9673L10.0019 12.46L9.734 13.4234ZM10.3483 13.0806L10.8655 11.2919L9.90486 11.0142L9.38762 12.8028L10.3483 13.0806ZM12.7677 6.44027C13.0694 7.36537 13.0845 8.35086 12.818 9.27225L13.7787 9.55006C14.1009 8.43579 14.0821 7.2455 13.7185 6.13025L12.7677 6.44027ZM12.818 9.27225C12.4021 10.7106 11.1598 12.0038 9.71568 12.4655L10.0202 13.418C11.7848 12.8538 13.271 11.3055 13.7787 9.55006L12.818 9.27225ZM9.39812 3.20443C10.9776 3.66117 12.2649 4.89802 12.7677 6.44027L13.7185 6.13025C13.1113 4.26828 11.5688 2.79114 9.67591 2.24378L9.39812 3.20443Z" fill="currentColor"/><path d="M7.52112 5.5V8.5H9.58037" stroke="currentColor" stroke-miterlimit="10" stroke-linecap="round" stroke-linejoin="round"/></svg>
