<svg xmlns="http://www.w3.org/2000/svg" fill="none" viewBox="0 0 24 24" width="1em" height="1em"><path fill="currentColor" d="m5.934 14.109-2.855-2.757c-.874-.844-.434-2.323.76-2.552l4.304-.826a1.5 1.5 0 0 0 1.084-.854l1.407-3.105c.532-1.174 2.2-1.174 2.732 0l1.407 3.105a1.5 1.5 0 0 0 1.084.854l4.305.826c1.193.23 1.633 1.708.759 2.552l-2.855 2.757a1.5 1.5 0 0 0-.438 1.323l.744 4.517c.204 1.236-1.107 2.162-2.204 1.557l-3.443-1.9a1.5 1.5 0 0 0-1.45 0l-3.443 1.9c-1.096.605-2.408-.32-2.204-1.557l.744-4.517a1.5 1.5 0 0 0-.438-1.323Z"/></svg>
