<svg xmlns="http://www.w3.org/2000/svg" fill="none" viewBox="0 0 32 32" width="1em" height="1em"><path fill="currentColor" d="m7.181 18.88-4.164-3.77c-1.231-1.114-.647-3.157.988-3.451l6.492-1.168a2 2 0 0 0 1.447-1.098l2.255-4.667c.728-1.507 2.874-1.507 3.602 0l2.256 4.667a2 2 0 0 0 1.446 1.098l6.492 1.168c1.635.294 2.22 2.336.988 3.451l-4.164 3.77a2 2 0 0 0-.628 1.829l1.11 6.313c.286 1.63-1.419 2.883-2.889 2.122l-5.493-2.841a2 2 0 0 0-1.838 0l-5.493 2.841c-1.47.76-3.175-.492-2.889-2.122l1.11-6.313a2 2 0 0 0-.628-1.83"/></svg>
