<svg viewBox="0 0 32 32" fill="none" xmlns="http://www.w3.org/2000/svg" width="1em" height="1em"><path d="M11.6459 12.8878C11.7046 12.1051 12.3568 11.5 13.1417 11.5L18.8583 11.5C19.6432 11.5 20.2954 12.1051 20.3541 12.8878L20.8791 19.8878C20.9443 20.758 20.2559 21.5 19.3833 21.5H12.6167C11.7441 21.5 11.0557 20.758 11.1209 19.8878L11.6459 12.8878Z" stroke="currentColor"/><path d="M18.5 13C18.5 11.414 18 8.5 16 8.5C14 8.5 13.5 11.414 13.5 13" stroke="currentColor" stroke-linecap="round"/><circle cx="11" cy="4" r="1.5" stroke="currentColor" stroke-linecap="round"/><circle cx="11" cy="28" r="1.5" stroke="currentColor" stroke-linecap="round"/><circle cx="21" cy="4" r="1.5" stroke="currentColor" stroke-linecap="round"/><circle cx="21" cy="28" r="1.5" stroke="currentColor" stroke-linecap="round"/><circle cx="28" cy="16" r="1.5" stroke="currentColor" stroke-linecap="round"/><circle cx="4" cy="16" r="1.5" stroke="currentColor" stroke-linecap="round"/></svg>
