<svg xmlns="http://www.w3.org/2000/svg" fill="none" viewBox="0 0 32 32" width="1em" height="1em"><path stroke="currentColor" d="M11.646 12.888a1.5 1.5 0 0 1 1.496-1.388h5.716a1.5 1.5 0 0 1 1.496 1.388l.525 7a1.5 1.5 0 0 1-1.496 1.612h-6.766a1.5 1.5 0 0 1-1.496-1.612l.525-7Z"/><path stroke="currentColor" stroke-linecap="round" d="M18.5 13c0-1.586-.5-4.5-2.5-4.5s-2.5 2.914-2.5 4.5"/><circle cx="11" cy="4" r="1.5" stroke="currentColor" stroke-linecap="round"/><circle cx="11" cy="28" r="1.5" stroke="currentColor" stroke-linecap="round"/><circle cx="21" cy="4" r="1.5" stroke="currentColor" stroke-linecap="round"/><circle cx="21" cy="28" r="1.5" stroke="currentColor" stroke-linecap="round"/><circle cx="28" cy="16" r="1.5" stroke="currentColor" stroke-linecap="round"/><circle cx="4" cy="16" r="1.5" stroke="currentColor" stroke-linecap="round"/></svg>
