<svg viewBox="0 0 24 24" fill="none" xmlns="http://www.w3.org/2000/svg" width="1em" height="1em"><path d="M8.53735 10.8578C8.61067 10.0879 9.25726 9.5 10.0306 9.5L13.9694 9.5C14.7427 9.5 15.3893 10.0879 15.4626 10.8578L15.8436 14.8578C15.9275 15.7384 15.235 16.5 14.3504 16.5H9.64964C8.76503 16.5 8.07253 15.7384 8.1564 14.8578L8.53735 10.8578Z" stroke="currentColor"/><path d="M13.5 11.5C13.5 10.5 13.5 7.5 12 7.5C10.5 7.5 10.5 10.5 10.5 11.5" stroke="currentColor" stroke-linecap="round"/><circle cx="7.5" cy="3.5" r="1" stroke="currentColor" stroke-linecap="round"/><circle cx="7.5" cy="20.5" r="1" stroke="currentColor" stroke-linecap="round"/><circle cx="16.5" cy="3.5" r="1" stroke="currentColor" stroke-linecap="round"/><circle cx="16.5" cy="20.5" r="1" stroke="currentColor" stroke-linecap="round"/><circle cx="20.5" cy="11.5" r="1" stroke="currentColor" stroke-linecap="round"/><circle cx="3.5" cy="11.5" r="1" stroke="currentColor" stroke-linecap="round"/></svg>
