<svg xmlns="http://www.w3.org/2000/svg" fill="none" viewBox="0 0 24 24" width="1em" height="1em"><path stroke="currentColor" d="M8.537 10.858A1.5 1.5 0 0 1 10.031 9.5h3.938a1.5 1.5 0 0 1 1.494 1.358l.38 4A1.5 1.5 0 0 1 14.35 16.5h-4.7a1.5 1.5 0 0 1-1.494-1.642l.381-4Z"/><path stroke="currentColor" stroke-linecap="round" d="M13.5 11.5c0-1 0-4-1.5-4s-1.5 3-1.5 4"/><circle cx="7.5" cy="3.5" r="1" stroke="currentColor" stroke-linecap="round"/><circle cx="7.5" cy="20.5" r="1" stroke="currentColor" stroke-linecap="round"/><circle cx="16.5" cy="3.5" r="1" stroke="currentColor" stroke-linecap="round"/><circle cx="16.5" cy="20.5" r="1" stroke="currentColor" stroke-linecap="round"/><circle cx="20.5" cy="11.5" r="1" stroke="currentColor" stroke-linecap="round"/><circle cx="3.5" cy="11.5" r="1" stroke="currentColor" stroke-linecap="round"/></svg>
