<svg xmlns="http://www.w3.org/2000/svg" fill="none" viewBox="0 0 32 32" width="1em" height="1em"><path fill="currentColor" d="M25.937 6.04A14.113 14.113 0 0 0 17.273 2c-.38-.027-.596.43-.325.7l5.063 5.034c.027.027 0 .081-.054.054a9.792 9.792 0 0 0-4.82-1.804c-.27-.027-.406.297-.216.485l3.466 3.446c.026.027 0 .08-.055.054a6.719 6.719 0 0 0-3.14-1.131c-.19-.027-.299.215-.163.323l5.876 5.842a.19.19 0 0 0 .325-.162 6.632 6.632 0 0 0-1.138-3.122c-.027-.027.027-.081.055-.054l3.33 3.311c.19.188.514.027.487-.215a9.29 9.29 0 0 0-1.787-4.765c-.027-.027.027-.081.054-.054l5.064 5.034c.27.27.73.054.704-.35a13.964 13.964 0 0 0-4.062-8.588Zm-19.874 0A14.113 14.113 0 0 1 14.727 2c.38-.027.596.43.325.7L9.99 7.735c-.027.027 0 .081.054.054a9.793 9.793 0 0 1 4.82-1.804c.27-.027.406.297.216.485l-3.466 3.446c-.027.027 0 .08.055.054a6.718 6.718 0 0 1 3.14-1.131c.19-.027.298.215.163.323l-5.876 5.869a.19.19 0 0 1-.325-.162 6.632 6.632 0 0 1 1.138-3.123c.027-.026-.027-.08-.055-.053l-3.33 3.31c-.19.19-.514.028-.487-.214A9.574 9.574 0 0 1 7.85 9.997c.027-.027-.027-.081-.054-.054l-5.09 5.034c-.272.27-.732.054-.705-.35a13.962 13.962 0 0 1 4.062-8.588Zm0 19.92A14.114 14.114 0 0 0 14.727 30c.38.027.596-.43.325-.7L9.99 24.265c-.027-.027 0-.081.054-.054a9.793 9.793 0 0 0 4.82 1.804c.27.026.406-.297.216-.485l-3.466-3.446c-.027-.027 0-.08.055-.054a6.719 6.719 0 0 0 3.14 1.13c.19.028.298-.215.163-.322l-5.876-5.869a.19.19 0 0 0-.325.162 6.632 6.632 0 0 0 1.138 3.122c.027.027-.027.081-.055.054l-3.33-3.311c-.19-.188-.514-.027-.487.215a9.574 9.574 0 0 0 1.814 4.792c.027.027-.027.081-.054.054l-5.09-5.034c-.272-.27-.732-.054-.705.35a13.962 13.962 0 0 0 4.062 8.588Zm19.874 0A14.114 14.114 0 0 1 17.273 30c-.38.027-.596-.43-.325-.7l5.063-5.034c.027-.027 0-.081-.054-.054a9.792 9.792 0 0 1-4.82 1.804c-.27.026-.406-.297-.216-.485l3.466-3.446c.026-.027 0-.08-.055-.054a6.72 6.72 0 0 1-3.14 1.13c-.19.028-.299-.215-.163-.322l5.876-5.842a.19.19 0 0 1 .325.162 6.633 6.633 0 0 1-1.138 3.122c-.027.027.027.081.055.054l3.33-3.311c.19-.189.514-.027.487.215a9.469 9.469 0 0 1-1.787 4.792c-.027.027.027.081.054.054l5.064-5.034c.27-.27.73-.054.704.35a13.963 13.963 0 0 1-4.062 8.56Z"/></svg>
