<svg viewBox="0 0 32 32" fill="none" xmlns="http://www.w3.org/2000/svg" width="1em" height="1em"><path d="M25.7922 5.18353C23.2963 2.702 20.0992 1.30788 16.8181 1.00118C16.4255 0.973295 16.2011 1.44729 16.4815 1.72612L21.7258 6.94012C21.7538 6.96801 21.7258 7.02377 21.6697 6.99589C20.1553 5.90847 18.4446 5.29507 16.6778 5.12776C16.3974 5.09988 16.2572 5.43446 16.4535 5.62965L20.0432 9.19858C20.0712 9.22646 20.0432 9.28223 19.987 9.25435C19.0055 8.58517 17.8837 8.19482 16.7339 8.08331C16.5376 8.05542 16.4255 8.30636 16.5657 8.41789L22.6513 14.4684C22.7915 14.6078 23.0158 14.4962 22.9878 14.3011C22.8756 13.1579 22.483 12.0426 21.8099 11.0667C21.7819 11.0388 21.838 10.9831 21.866 11.0109L25.3154 14.4405C25.5117 14.6357 25.8483 14.4684 25.8202 14.2174C25.68 12.4887 25.0631 10.76 23.9693 9.28223C23.9413 9.25435 23.9974 9.19858 24.0254 9.22646L29.2697 14.4405C29.5502 14.7193 30.0268 14.4962 29.9989 14.078C29.6902 10.8437 28.2881 7.66506 25.7922 5.18353ZM5.20782 5.18353C7.70374 2.702 10.9008 1.30788 14.1819 1.00118C14.5745 0.973295 14.7989 1.44729 14.5185 1.72612L9.2742 6.94012C9.24615 6.96801 9.2742 7.02377 9.33028 6.99589C10.8447 5.90847 12.5554 5.29507 14.3222 5.12776C14.6026 5.09988 14.7428 5.43446 14.5465 5.62965L10.9568 9.19858C10.9288 9.22646 10.9568 9.28223 11.0129 9.25435C11.9945 8.58517 13.1163 8.19482 14.266 8.08331C14.4624 8.05542 14.5745 8.30636 14.4343 8.41789L8.34874 14.4962C8.20853 14.6357 7.98417 14.5241 8.01223 14.3289C8.12438 13.1858 8.51702 12.0705 9.19007 11.0946C9.21812 11.0667 9.16202 11.0109 9.13397 11.0388L5.68456 14.4684C5.48825 14.6635 5.15171 14.4962 5.17976 14.2453C5.34802 12.4887 5.96499 10.76 7.05871 9.28223C7.08676 9.25435 7.03066 9.19858 7.00264 9.22646L1.73033 14.4405C1.44989 14.7193 0.97314 14.4962 1.00118 14.078C1.30967 10.8437 2.71188 7.66506 5.20782 5.18353ZM5.20782 25.8165C7.70374 28.298 10.9008 29.6922 14.1819 29.9989C14.5745 30.0268 14.7989 29.5527 14.5185 29.2739L9.2742 24.0599C9.24615 24.032 9.2742 23.9762 9.33028 24.0041C10.8447 25.0915 12.5554 25.7049 14.3222 25.8722C14.6026 25.9001 14.7428 25.5655 14.5465 25.3703L10.9568 21.8014C10.9288 21.7735 10.9568 21.7178 11.0129 21.7457C11.9945 22.4148 13.1163 22.8052 14.266 22.9167C14.4624 22.9446 14.5745 22.6936 14.4343 22.5821L8.34874 16.5038C8.20853 16.3643 7.98417 16.4759 8.01223 16.6711C8.12438 17.8142 8.51702 18.9295 9.19007 19.9054C9.21812 19.9333 9.16202 19.9891 9.13397 19.9612L5.68456 16.5316C5.48825 16.3365 5.15171 16.5038 5.17976 16.7547C5.34802 18.5113 5.96499 20.24 7.05871 21.7178C7.08676 21.7457 7.03066 21.8014 7.00264 21.7735L1.73033 16.5595C1.44989 16.2807 0.97314 16.5038 1.00118 16.922C1.30967 20.1563 2.71188 23.3349 5.20782 25.8165ZM25.7922 25.8165C23.2963 28.298 20.0992 29.6922 16.8181 29.9989C16.4255 30.0268 16.2011 29.5527 16.4815 29.2739L21.7258 24.0599C21.7538 24.032 21.7258 23.9762 21.6697 24.0041C20.1553 25.0915 18.4446 25.7049 16.6778 25.8722C16.3974 25.9001 16.2572 25.5655 16.4535 25.3703L20.0432 21.8014C20.0712 21.7735 20.0432 21.7178 19.987 21.7457C19.0055 22.4148 17.8837 22.8052 16.7339 22.9167C16.5376 22.9446 16.4255 22.6936 16.5657 22.5821L22.6513 16.5316C22.7915 16.3922 23.0158 16.5038 22.9878 16.6989C22.8756 17.8421 22.483 18.9574 21.8099 19.9333C21.7819 19.9612 21.838 20.0169 21.866 19.9891L25.3154 16.5595C25.5117 16.3643 25.8483 16.5316 25.8202 16.7826C25.68 18.5113 25.0631 20.24 23.9693 21.7457C23.9413 21.7735 23.9974 21.8293 24.0254 21.8014L29.2697 16.5874C29.5502 16.3086 30.0268 16.5316 29.9989 16.9499C29.6902 20.1563 28.2881 23.3349 25.7922 25.8165Z" fill="currentColor"/></svg>
