<svg xmlns="http://www.w3.org/2000/svg" fill="none" viewBox="0 0 16 16" width="1em" height="1em"><path fill="currentColor" d="M12.969 3.02A7.06 7.06 0 0 0 8.636 1c-.19-.013-.298.216-.162.35l2.531 2.518c.014.013 0 .04-.027.027a4.9 4.9 0 0 0-2.41-.902c-.135-.014-.202.148-.108.242l1.733 1.723c.014.013 0 .04-.027.027a3.36 3.36 0 0 0-1.57-.565c-.095-.014-.15.107-.082.161l2.938 2.92a.095.095 0 0 0 .163-.08 3.3 3.3 0 0 0-.569-1.561c-.013-.014.014-.04.027-.027l1.665 1.655c.095.095.258.014.244-.107a4.65 4.65 0 0 0-.893-2.383c-.014-.013.013-.04.027-.027l2.531 2.517c.136.135.366.027.352-.175a6.98 6.98 0 0 0-2.03-4.293m-9.938 0A7.06 7.06 0 0 1 7.364 1c.19-.013.298.216.162.35L4.994 3.869c-.013.013 0 .04.028.027a4.9 4.9 0 0 1 2.41-.902c.135-.014.202.148.108.242L5.807 4.958c-.014.013 0 .04.027.027a3.36 3.36 0 0 1 1.57-.565c.095-.014.15.107.082.161L4.548 7.515a.095.095 0 0 1-.163-.08 3.3 3.3 0 0 1 .569-1.562c.013-.013-.014-.04-.027-.027L3.262 7.502c-.095.094-.258.013-.244-.108a4.8 4.8 0 0 1 .907-2.396c.013-.013-.014-.04-.027-.027L1.353 7.488c-.136.135-.366.027-.352-.175A6.98 6.98 0 0 1 3.03 3.02m0 9.96A7.06 7.06 0 0 0 7.364 15c.19.013.298-.216.162-.35l-2.532-2.518c-.013-.013 0-.04.028-.027a4.9 4.9 0 0 0 2.41.902c.135.014.202-.148.108-.242l-1.733-1.723c-.014-.013 0-.04.027-.027a3.36 3.36 0 0 0 1.57.566c.095.013.15-.108.082-.162L4.548 8.485a.095.095 0 0 0-.163.08 3.3 3.3 0 0 0 .569 1.562c.013.013-.014.04-.027.027L3.262 8.498c-.095-.094-.258-.013-.244.108.081.848.379 1.682.907 2.396.013.013-.014.04-.027.027L1.353 8.51c-.136-.134-.366-.026-.352.175a6.98 6.98 0 0 0 2.03 4.294m9.938 0A7.06 7.06 0 0 1 8.636 15c-.19.013-.298-.216-.162-.35l2.531-2.518c.014-.013 0-.04-.027-.027a4.9 4.9 0 0 1-2.41.902c-.135.014-.202-.148-.108-.242l1.733-1.723c.014-.013 0-.04-.027-.027a3.36 3.36 0 0 1-1.57.566c-.095.013-.15-.108-.082-.162l2.938-2.921a.095.095 0 0 1 .163.08 3.3 3.3 0 0 1-.569 1.562c-.013.014.014.04.027.027l1.665-1.656c.095-.094.258-.013.244.108a4.74 4.74 0 0 1-.893 2.396c-.014.014.013.04.027.027l2.531-2.517c.136-.135.366-.027.352.175a6.98 6.98 0 0 1-2.03 4.28"/></svg>
