<svg xmlns="http://www.w3.org/2000/svg" fill="none" viewBox="0 0 24 24" width="1em" height="1em"><path fill="currentColor" d="M19.453 4.53a10.584 10.584 0 0 0-6.499-3.03c-.284-.02-.446.324-.243.526L16.508 5.8c.02.02 0 .061-.04.04a7.344 7.344 0 0 0-3.615-1.352c-.203-.02-.305.222-.162.364l2.599 2.584c.02.02 0 .06-.04.04a5.04 5.04 0 0 0-2.357-.848c-.142-.02-.223.162-.121.243l4.406 4.38a.142.142 0 0 0 .244-.12 4.975 4.975 0 0 0-.853-2.342c-.02-.02.02-.06.04-.04l2.499 2.483c.142.141.386.02.365-.162a6.968 6.968 0 0 0-1.34-3.574c-.02-.02.02-.06.04-.04l3.798 3.776c.203.202.548.04.528-.263a10.473 10.473 0 0 0-3.046-6.44Zm-14.906 0a10.585 10.585 0 0 1 6.499-3.03c.284-.02.446.324.243.526L7.492 5.8c-.02.02 0 .061.04.04a7.345 7.345 0 0 1 3.615-1.352c.203-.02.305.222.162.364L8.71 7.437c-.02.02 0 .06.04.04a5.04 5.04 0 0 1 2.356-.848c.143-.02.224.162.122.243l-4.407 4.401a.142.142 0 0 1-.243-.121A4.974 4.974 0 0 1 7.43 8.81c.02-.02-.02-.06-.04-.04l-2.499 2.483c-.142.141-.386.02-.365-.162a7.18 7.18 0 0 1 1.36-3.594c.02-.02-.02-.06-.04-.04l-3.818 3.776c-.203.202-.548.04-.528-.263a10.471 10.471 0 0 1 3.046-6.44Zm0 14.94a10.585 10.585 0 0 0 6.499 3.03c.284.02.446-.324.243-.526l-3.797-3.776c-.02-.02 0-.06.04-.04a7.344 7.344 0 0 0 3.615 1.353c.203.02.305-.222.162-.363L8.71 16.563c-.02-.02 0-.06.04-.04a5.04 5.04 0 0 0 2.356.848c.143.02.224-.162.122-.243l-4.407-4.401a.142.142 0 0 0-.243.121c.081.828.365 1.635.853 2.342.02.02-.02.06-.04.04l-2.499-2.483c-.142-.141-.386-.02-.365.162a7.18 7.18 0 0 0 1.36 3.594c.02.02-.02.06-.04.04l-3.818-3.776c-.203-.202-.548-.04-.528.263a10.471 10.471 0 0 0 3.046 6.44Zm14.906 0a10.584 10.584 0 0 1-6.499 3.03c-.284.02-.446-.324-.243-.526l3.797-3.776c.02-.02 0-.06-.04-.04a7.344 7.344 0 0 1-3.615 1.353c-.203.02-.305-.222-.162-.363l2.599-2.585c.02-.02 0-.06-.04-.04a5.04 5.04 0 0 1-2.357.848c-.142.02-.223-.162-.121-.243l4.406-4.381c.102-.1.264-.02.244.121a4.975 4.975 0 0 1-.853 2.342c-.02.02.02.06.04.04l2.499-2.483c.142-.141.386-.02.365.162a7.102 7.102 0 0 1-1.34 3.594c-.02.02.02.06.04.04l3.798-3.776c.203-.202.548-.04.528.263a10.472 10.472 0 0 1-3.046 6.42Z"/></svg>
