<svg viewBox="0 0 24 24" fill="none" xmlns="http://www.w3.org/2000/svg" width="1em" height="1em"><path d="M19.098 4.88519C17.3767 3.17379 15.1719 2.21233 12.909 2.00081C12.6382 1.98158 12.4835 2.30848 12.6769 2.50077L16.2936 6.09663C16.313 6.11586 16.2936 6.15432 16.255 6.13509C15.2106 5.38515 14.0308 4.96211 12.8123 4.84673C12.6189 4.8275 12.5222 5.05824 12.6576 5.19286L15.1332 7.65418C15.1525 7.67341 15.1332 7.71187 15.0945 7.69264C14.4176 7.23114 13.6439 6.96193 12.851 6.88503C12.7156 6.8658 12.6382 7.03886 12.7349 7.11578L16.9319 11.2885C17.0286 11.3847 17.1833 11.3077 17.164 11.1731C17.0866 10.3847 16.8158 9.61556 16.3516 8.94255C16.3323 8.92331 16.371 8.88485 16.3903 8.90408L18.7692 11.2693C18.9046 11.4039 19.1367 11.2885 19.1174 11.1154C19.0207 9.92324 18.5952 8.73103 17.8409 7.71187C17.8215 7.69264 17.8602 7.65418 17.8796 7.67341L21.4963 11.2693C21.6898 11.4616 22.0184 11.3077 21.9992 11.0193C21.7863 8.78872 20.8194 6.59659 19.098 4.88519ZM4.90194 4.88519C6.62326 3.17379 8.8281 2.21233 11.091 2.00081C11.3617 1.98158 11.5165 2.30848 11.3231 2.50077L7.70633 6.09663C7.68699 6.11586 7.70633 6.15432 7.74501 6.13509C8.78941 5.38515 9.9692 4.96211 11.1877 4.84673C11.3811 4.8275 11.4778 5.05824 11.3424 5.19286L8.86677 7.65418C8.84745 7.67341 8.86678 7.71187 8.90547 7.69264C9.58239 7.23114 10.356 6.96193 11.149 6.88503C11.2844 6.8658 11.3617 7.03886 11.265 7.11578L7.06809 11.3077C6.97139 11.4039 6.81666 11.327 6.83601 11.1923C6.91336 10.404 7.18414 9.63479 7.64832 8.96178C7.66766 8.94255 7.62897 8.90408 7.60962 8.92332L5.23072 11.2885C5.09534 11.4231 4.86324 11.3077 4.88259 11.1347C4.99863 9.92324 5.42413 8.73103 6.17841 7.71187C6.19776 7.69264 6.15907 7.65418 6.13974 7.67341L2.50368 11.2693C2.31027 11.4616 1.98148 11.3077 2.00082 11.0193C2.21356 8.78872 3.1806 6.59659 4.90194 4.88519ZM4.90194 19.1148C6.62326 20.8262 8.8281 21.7877 11.091 21.9992C11.3617 22.0184 11.5165 21.6915 11.3231 21.4992L7.70633 17.9033C7.68699 17.8841 7.70633 17.8456 7.74501 17.8649C8.78941 18.6148 9.9692 19.0379 11.1877 19.1532C11.3811 19.1725 11.4778 18.9417 11.3424 18.8071L8.86677 16.3458C8.84745 16.3266 8.86678 16.2881 8.90547 16.3073C9.58239 16.7688 10.356 17.038 11.149 17.1149C11.2844 17.1342 11.3617 16.9611 11.265 16.8842L7.06809 12.6922C6.97139 12.5961 6.81666 12.673 6.83601 12.8076C6.91336 13.596 7.18414 14.3652 7.64832 15.0382C7.66766 15.0574 7.62897 15.0959 7.60962 15.0767L5.23072 12.7115C5.09534 12.5769 4.86324 12.6922 4.88259 12.8653C4.99863 14.0767 5.42413 15.2689 6.17841 16.2881C6.19776 16.3073 6.15907 16.3458 6.13974 16.3266L2.50368 12.7307C2.31027 12.5384 1.98148 12.6922 2.00082 12.9807C2.21356 15.2112 3.1806 17.4034 4.90194 19.1148ZM19.098 19.1148C17.3767 20.8262 15.1719 21.7877 12.909 21.9992C12.6382 22.0184 12.4835 21.6915 12.6769 21.4992L16.2936 17.9033C16.313 17.8841 16.2936 17.8456 16.255 17.8649C15.2106 18.6148 14.0308 19.0379 12.8123 19.1532C12.6189 19.1725 12.5222 18.9417 12.6576 18.8071L15.1332 16.3458C15.1525 16.3265 15.1332 16.2881 15.0945 16.3073C14.4176 16.7688 13.6439 17.038 12.851 17.1149C12.7156 17.1342 12.6382 16.9611 12.7349 16.8842L16.9319 12.7115C17.0286 12.6153 17.1833 12.6922 17.164 12.8268C17.0866 13.6152 16.8158 14.3844 16.3516 15.0574C16.3323 15.0766 16.371 15.1151 16.3903 15.0959L18.7692 12.7307C18.9046 12.5961 19.1367 12.7115 19.1174 12.8845C19.0207 14.0767 18.5952 15.2689 17.8409 16.3073C17.8215 16.3265 17.8602 16.365 17.8796 16.3458L21.4963 12.7499C21.6898 12.5576 22.0184 12.7115 21.9992 12.9999C21.7863 15.2112 20.8194 17.4034 19.098 19.1148Z" fill="currentColor"/></svg>
