<svg viewBox="0 0 16 16" fill="none" xmlns="http://www.w3.org/2000/svg" width="1em" height="1em"><path fill-rule="evenodd" clip-rule="evenodd" d="M4 14H12C12.5523 14 13 13.5523 13 13V6.27413C13 6.00649 12.8927 5.75002 12.7021 5.5621L9.3819 2.28797C9.19478 2.10345 8.94255 2 8.67975 2H4C3.44772 2 3 2.44772 3 3V13C3 13.5523 3.44772 14 4 14ZM12 15H4C2.89543 15 2 14.1046 2 13V3C2 1.89543 2.89543 1 4 1H8.67975C9.20534 1 9.70981 1.20689 10.084 1.57593L13.4043 4.85006C13.7854 5.22591 14 5.73885 14 6.27413V13C14 14.1046 13.1046 15 12 15Z" fill="currentColor"/><path fill-rule="evenodd" clip-rule="evenodd" d="M10 1.5V5.5C10 5.77614 10.2239 6 10.5 6H13.5V7H10.5C9.67157 7 9 6.32843 9 5.5V1.5H10Z" fill="currentColor"/><path d="M4.5 12.5L7 8.5L9 11L11.5 8" stroke="currentColor" stroke-linecap="round" stroke-linejoin="round"/><path d="M11.5 12.5H4.5V6.5" stroke="currentColor" stroke-linecap="round" stroke-linejoin="round"/></svg>
