<svg viewBox="0 0 24 24" fill="none" xmlns="http://www.w3.org/2000/svg" width="1em" height="1em"><path fill-rule="evenodd" clip-rule="evenodd" d="M13.9779 3V6.50924C13.9779 7.33767 14.6495 8.00924 15.4779 8.00924H19.3084V9.00924H15.4779C14.0972 9.00924 12.9779 7.88995 12.9779 6.50924V3H13.9779Z" fill="currentColor"/><path fill-rule="evenodd" clip-rule="evenodd" d="M6 20H18C18.5523 20 19 19.5523 19 19V9.3854C19 9.14048 18.9101 8.90409 18.7474 8.72104L14.8493 4.33564C14.6595 4.12215 14.3875 4 14.1019 4H6C5.44772 4 5 4.44772 5 5V19C5 19.5523 5.44771 20 6 20ZM15.5967 3.67127L19.4948 8.05667C19.8202 8.42277 20 8.89557 20 9.3854V19C20 20.1046 19.1046 21 18 21H6C4.89543 21 4 20.1046 4 19V5C4 3.89543 4.89543 3 6 3H14.1019C14.6731 3 15.2172 3.2443 15.5967 3.67127Z" fill="currentColor"/><path d="M7.5 17.5L10.5 12.5L13.5 15.5L16 11" stroke="currentColor" stroke-linecap="round"/><path d="M11 12.5C11 12.7761 10.7761 13 10.5 13C10.2239 13 10 12.7761 10 12.5C10 12.2239 10.2239 12 10.5 12C10.7761 12 11 12.2239 11 12.5Z" stroke="currentColor"/><path d="M14 15.5C14 15.7761 13.7761 16 13.5 16C13.2239 16 13 15.7761 13 15.5C13 15.2239 13.2239 15 13.5 15C13.7761 15 14 15.2239 14 15.5Z" stroke="currentColor"/><path d="M16.5 11C16.5 11.2761 16.2761 11.5 16 11.5C15.7239 11.5 15.5 11.2761 15.5 11C15.5 10.7239 15.7239 10.5 16 10.5C16.2761 10.5 16.5 10.7239 16.5 11Z" stroke="currentColor"/><path d="M16.5 17.5H7.5V6.5" stroke="currentColor" stroke-linecap="round" stroke-linejoin="round"/></svg>
