<svg xmlns="http://www.w3.org/2000/svg" fill="none" viewBox="0 0 16 16" width="1em" height="1em"><circle cx="5" cy="14" r=".5" stroke="currentColor" stroke-linecap="round"/><circle cx="11" cy="14" r=".5" stroke="currentColor" stroke-linecap="round"/><circle cx="14" cy="8" r=".5" stroke="currentColor" stroke-linecap="round"/><circle cx="2" cy="8" r=".5" stroke="currentColor" stroke-linecap="round"/><path stroke="currentColor" stroke-linecap="round" d="M7.307 5.636a1.5 1.5 0 0 0-.911.699l-1.06 1.837a1.5 1.5 0 0 0 .548 2.05l1.33.767a1.5 1.5 0 0 0 2.05-.55l1.06-1.836a1.5 1.5 0 0 0 .15-1.138l-.281-1.05a1.5 1.5 0 0 0-1.837-1.06l-1.05.281Z"/><circle cx="8.508" cy="7.081" r=".25" stroke="currentColor" stroke-width=".5" transform="rotate(30 8.508 7.081)"/><circle cx="11" cy="2" r=".5" stroke="currentColor" stroke-linecap="round"/><circle cx="5" cy="2" r=".5" stroke="currentColor" stroke-linecap="round"/></svg>
