<svg xmlns="http://www.w3.org/2000/svg" fill="none" viewBox="0 0 24 24" width="1em" height="1em"><circle cx="7.5" cy="3.5" r="1" stroke="currentColor" stroke-linecap="round"/><circle cx="7.5" cy="20.5" r="1" stroke="currentColor" stroke-linecap="round"/><circle cx="16.5" cy="3.5" r="1" stroke="currentColor" stroke-linecap="round"/><circle cx="16.5" cy="20.5" r="1" stroke="currentColor" stroke-linecap="round"/><circle cx="20.5" cy="11.5" r="1" stroke="currentColor" stroke-linecap="round"/><circle cx="3.5" cy="11.5" r="1" stroke="currentColor" stroke-linecap="round"/><path stroke="currentColor" d="m15.603 12.433.013-.021c.07-.123.15-.261.2-.402.064-.178.08-.352.053-.547-.034-.24-.207-.933-.369-1.557a45.891 45.891 0 0 0-.386-1.42 1.066 1.066 0 0 0-.446-.583 1.135 1.135 0 0 0-.778-.149c-.22.033-.897.215-1.512.39-.62.175-1.281.373-1.476.452a1.108 1.108 0 0 0-.447.318 2.384 2.384 0 0 0-.248.375l-.013.021-2.361 4.091a1.028 1.028 0 0 0 .371 1.405l3.635 2.099a1.028 1.028 0 0 0 1.402-.381l2.362-4.09Z"/><circle cx="13.683" cy="9.683" r=".25" stroke="currentColor" stroke-width=".5" transform="rotate(30 13.683 9.683)"/></svg>
