<svg viewBox="0 0 16 16" fill="none" xmlns="http://www.w3.org/2000/svg" width="1em" height="1em"><circle cx="5" cy="14" r="0.5" stroke="currentColor" stroke-linecap="round"/><circle cx="11" cy="14" r="0.5" stroke="currentColor" stroke-linecap="round"/><circle cx="14" cy="8" r="0.5" stroke="currentColor" stroke-linecap="round"/><circle cx="2" cy="8" r="0.5" stroke="currentColor" stroke-linecap="round"/><path d="M7.30673 5.63559C6.92246 5.73855 6.59483 5.98995 6.39592 6.33447L5.33526 8.17159C4.92105 8.88903 5.16686 9.80642 5.8843 10.2206L7.21411 10.9884C7.93155 11.4026 8.84893 11.1568 9.26315 10.4394L10.3238 8.60224C10.5227 8.25772 10.5766 7.84828 10.4737 7.46401L10.1926 6.41522C9.97822 5.61502 9.15572 5.14015 8.35552 5.35456L7.30673 5.63559Z" stroke="currentColor" stroke-linecap="round"/><circle cx="8.5076" cy="7.08096" r="0.25" transform="rotate(30 8.5076 7.08096)" stroke="currentColor" stroke-width="0.5"/><circle cx="11" cy="2" r="0.5" stroke="currentColor" stroke-linecap="round"/><circle cx="5" cy="2" r="0.5" stroke="currentColor" stroke-linecap="round"/></svg>
