<svg xmlns="http://www.w3.org/2000/svg" fill="none" viewBox="0 0 32 32" width="1em" height="1em"><circle cx="11" cy="4" r="1.5" stroke="currentColor" stroke-linecap="round"/><circle cx="11" cy="28" r="1.5" stroke="currentColor" stroke-linecap="round"/><circle cx="21" cy="4" r="1.5" stroke="currentColor" stroke-linecap="round"/><circle cx="21" cy="28" r="1.5" stroke="currentColor" stroke-linecap="round"/><circle cx="28" cy="16" r="1.5" stroke="currentColor" stroke-linecap="round"/><circle cx="4" cy="16" r="1.5" stroke="currentColor" stroke-linecap="round"/><path stroke="currentColor" d="m20.602 16.601.015-.025c.103-.179.208-.36.273-.541.077-.219.097-.43.063-.675-.046-.325-.287-1.294-.518-2.186-.234-.902-.479-1.8-.544-2.002a1.304 1.304 0 0 0-.545-.714 1.403 1.403 0 0 0-.962-.181c-.295.043-1.238.296-2.117.546-.885.25-1.81.528-2.073.634-.23.093-.403.216-.554.393a3.412 3.412 0 0 0-.347.531l-3.35 5.802a1.249 1.249 0 0 0 .451 1.707l5.155 2.976c.6.347 1.36.131 1.704-.463l3.35-5.802Z"/><circle cx="17.366" cy="13.366" r=".5" stroke="currentColor" transform="rotate(30 17.366 13.366)"/></svg>
