<svg xmlns="http://www.w3.org/2000/svg" fill="none" viewBox="0 0 16 16" width="1em" height="1em"><path fill="currentColor" d="M7.056 6.398c-.273.294-.798.686-1.75.686-1.414 0-2.506-.959-2.506-2.492S3.906 2.1 5.306 2.1c.945 0 1.491.399 1.687.595l-.322.742c-.14-.182-.686-.553-1.372-.553-.84 0-1.561.553-1.561 1.694 0 1.043.651 1.722 1.617 1.722.644 0 1.092-.28 1.379-.588zm2.557-1.323L8.493 7H7.415l1.603-2.499L7.52 2.17h1.07l1.016 1.743L10.62 2.17h1.07l-1.498 2.338L11.798 7H10.71zm-5.606 8.379h-.672v-1.533h-1.54v-.665h1.54v-1.54h.672v1.54h1.54v.665h-1.54zM6.825 9.17h2.982v.756H7.735v1.197h1.953v.749H7.735v1.372h2.128V14H6.825zm5.754 2.905L11.46 14h-1.078l1.603-2.499-1.498-2.331h1.071l1.015 1.743 1.015-1.743h1.071l-1.498 2.338L14.763 14h-1.085z"/></svg>
