<svg xmlns="http://www.w3.org/2000/svg" fill="none" viewBox="0 0 24 25" width="1em" height="1em"><path stroke="currentColor" stroke-linecap="round" stroke-linejoin="round" d="M10 4.223a9.003 9.003 0 0 0 0 17.554m4 0a9.003 9.003 0 0 0 0-17.554"/><path stroke="currentColor" stroke-linecap="round" stroke-linejoin="round" d="M9.098 6.598 10.598 4 8 2.5m8.219 20.768L13.5 22l1.268-2.719"/><path fill="currentColor" d="M11.1 11.508c-.21.216-.648.564-1.494.564-1.218 0-2.172-.804-2.172-2.136 0-1.338.966-2.136 2.172-2.136.852 0 1.314.354 1.422.468l-.3.804c-.078-.102-.522-.432-1.068-.432-.702 0-1.242.468-1.242 1.278s.564 1.272 1.242 1.272c.516 0 .888-.204 1.116-.438zm4.268.492H14.21l-.852-1.542L12.5 12h-1.158l1.374-2.148-1.284-1.992h1.152l.774 1.362.774-1.362h1.152l-1.29 1.992zm-5.58 4.278H8.492v1.29H7.79v-1.29H6.494v-.696H7.79v-1.29h.702v1.29h1.296zM13.6 18h-2.736v-4.14h2.682v.774H11.83v.846h1.62v.774h-1.62v.96h1.77zm4.42 0h-1.158l-.852-1.542L15.151 18h-1.158l1.374-2.148-1.284-1.992h1.152l.774 1.362.774-1.362h1.152l-1.29 1.992z"/></svg>
