<svg xmlns="http://www.w3.org/2000/svg" fill="none" viewBox="0 0 32 32" width="1em" height="1em"><path stroke="currentColor" stroke-linecap="round" d="M14.429 5C9.098 5.77 5 10.402 5 16s4.098 10.23 9.429 11m3.142 0C22.902 26.23 27 21.598 27 16S22.902 5.77 17.571 5"/><path stroke="currentColor" stroke-linecap="round" stroke-linejoin="round" d="M12.5 8.464 14.5 5l-3.464-2m9.699 25.926-3.625-1.69 1.69-3.626"/><path fill="currentColor" d="M15.289 14.355c-.293.315-.855.735-1.875.735-1.515 0-2.685-1.027-2.685-2.67 0-1.642 1.185-2.67 2.685-2.67 1.012 0 1.597.428 1.807.637l-.345.795c-.15-.194-.735-.592-1.47-.592-.9 0-1.673.592-1.673 1.815 0 1.118.698 1.845 1.733 1.845.69 0 1.17-.3 1.478-.63zm2.439-1.418L16.528 15h-1.155l1.717-2.677-1.605-2.498h1.148l1.087 1.868 1.088-1.868h1.147L18.35 12.33 20.068 15h-1.163zm-5.706 7.478h-.72v-1.642h-1.65v-.713h1.65v-1.65h.72v1.65h1.65v.713h-1.65zm2.72-4.59h3.194v.81h-2.22v1.282h2.093v.803h-2.093v1.47h2.28V21h-3.255zm5.864 3.113L19.406 21h-1.155l1.718-2.677-1.605-2.498h1.147l1.088 1.867 1.087-1.867h1.148l-1.605 2.505L22.946 21h-1.162z"/></svg>
