<svg xmlns="http://www.w3.org/2000/svg" fill="none" viewBox="0 0 32 32" width="1em" height="1em"><rect width="19" height="27" x="6.5" y="2.5" stroke="currentColor" rx="1.5"/><rect width="3" height="8" x="20.5" y="18.5" stroke="currentColor" rx="1.5"/><path fill="currentColor" fill-rule="evenodd" d="M9 15a1 1 0 1 0 2 0 1 1 0 0 0-2 0m1-2a2 2 0 1 0 0 4 2 2 0 0 0 0-4m5 2a1 1 0 1 0 2 0 1 1 0 0 0-2 0m1-2a2 2 0 1 0 0 4 2 2 0 0 0 0-4m6 3a1 1 0 1 1 0-2 1 1 0 0 1 0 2m-2-1a2 2 0 1 1 4 0 2 2 0 0 1-4 0M9 20a1 1 0 1 0 2 0 1 1 0 0 0-2 0m1-2a2 2 0 1 0 0 4 2 2 0 0 0 0-4m0 8a1 1 0 1 1 0-2 1 1 0 0 1 0 2m-2-1a2 2 0 1 1 4 0 2 2 0 0 1-4 0m7-5a1 1 0 1 0 2 0 1 1 0 0 0-2 0m1-2a2 2 0 1 0 0 4 2 2 0 0 0 0-4m0 8a1 1 0 1 1 0-2 1 1 0 0 1 0 2m-2-1a2 2 0 1 1 4 0 2 2 0 0 1-4 0" clip-rule="evenodd"/><rect width="15" height="7" x="8.5" y="4.5" stroke="currentColor" rx="1.5"/><path stroke="currentColor" stroke-linecap="round" stroke-linejoin="round" d="M20.5 6.5h1v3"/></svg>
