<svg xmlns="http://www.w3.org/2000/svg" fill="none" viewBox="0 0 24 24" width="1em" height="1em"><rect width="15" height="19" x="4.5" y="2.5" stroke="currentColor" rx="1.5"/><rect width="2" height="6" x="15.5" y="13.5" stroke="currentColor" rx=".5"/><rect width="2" height="2" x="15.5" y="9.5" stroke="currentColor" rx=".5"/><path stroke="currentColor" d="M11 10a.5.5 0 0 1 .5-.5h1a.5.5 0 0 1 .5.5v1a.5.5 0 0 1-.5.5h-1a.5.5 0 0 1-.5-.5zm0 4a.5.5 0 0 1 .5-.5h1a.5.5 0 0 1 .5.5v1a.5.5 0 0 1-.5.5h-1a.5.5 0 0 1-.5-.5zm0 4a.5.5 0 0 1 .5-.5h1a.5.5 0 0 1 .5.5v1a.5.5 0 0 1-.5.5h-1a.5.5 0 0 1-.5-.5zm-4.5-8a.5.5 0 0 1 .5-.5h1a.5.5 0 0 1 .5.5v1a.5.5 0 0 1-.5.5H7a.5.5 0 0 1-.5-.5zm0 4a.5.5 0 0 1 .5-.5h1a.5.5 0 0 1 .5.5v1a.5.5 0 0 1-.5.5H7a.5.5 0 0 1-.5-.5zm0 4a.5.5 0 0 1 .5-.5h1a.5.5 0 0 1 .5.5v1a.5.5 0 0 1-.5.5H7a.5.5 0 0 1-.5-.5z"/><rect width="11" height="3" x="6.5" y="4.5" stroke="currentColor" rx=".5"/></svg>
