<svg viewBox="0 0 32 32" fill="none" xmlns="http://www.w3.org/2000/svg" width="1em" height="1em"><rect x="6.5" y="2.5" width="19" height="27" rx="1.5" stroke="currentColor"/><rect x="20.5" y="18.5" width="3" height="8" rx="1.5" stroke="currentColor"/><path fill-rule="evenodd" clip-rule="evenodd" d="M9 15C9 15.5523 9.44772 16 10 16C10.5523 16 11 15.5523 11 15C11 14.4477 10.5523 14 10 14C9.44772 14 9 14.4477 9 15ZM10 13C8.89543 13 8 13.8954 8 15C8 16.1046 8.89543 17 10 17C11.1046 17 12 16.1046 12 15C12 13.8954 11.1046 13 10 13ZM15 15C15 15.5523 15.4477 16 16 16C16.5523 16 17 15.5523 17 15C17 14.4477 16.5523 14 16 14C15.4477 14 15 14.4477 15 15ZM16 13C14.8954 13 14 13.8954 14 15C14 16.1046 14.8954 17 16 17C17.1046 17 18 16.1046 18 15C18 13.8954 17.1046 13 16 13ZM22 16C21.4477 16 21 15.5523 21 15C21 14.4477 21.4477 14 22 14C22.5523 14 23 14.4477 23 15C23 15.5523 22.5523 16 22 16ZM20 15C20 13.8954 20.8954 13 22 13C23.1046 13 24 13.8954 24 15C24 16.1046 23.1046 17 22 17C20.8954 17 20 16.1046 20 15ZM9 20C9 20.5523 9.44772 21 10 21C10.5523 21 11 20.5523 11 20C11 19.4477 10.5523 19 10 19C9.44772 19 9 19.4477 9 20ZM10 18C8.89543 18 8 18.8954 8 20C8 21.1046 8.89543 22 10 22C11.1046 22 12 21.1046 12 20C12 18.8954 11.1046 18 10 18ZM10 26C9.44772 26 9 25.5523 9 25C9 24.4477 9.44772 24 10 24C10.5523 24 11 24.4477 11 25C11 25.5523 10.5523 26 10 26ZM8 25C8 23.8954 8.89543 23 10 23C11.1046 23 12 23.8954 12 25C12 26.1046 11.1046 27 10 27C8.89543 27 8 26.1046 8 25ZM15 20C15 20.5523 15.4477 21 16 21C16.5523 21 17 20.5523 17 20C17 19.4477 16.5523 19 16 19C15.4477 19 15 19.4477 15 20ZM16 18C14.8954 18 14 18.8954 14 20C14 21.1046 14.8954 22 16 22C17.1046 22 18 21.1046 18 20C18 18.8954 17.1046 18 16 18ZM16 26C15.4477 26 15 25.5523 15 25C15 24.4477 15.4477 24 16 24C16.5523 24 17 24.4477 17 25C17 25.5523 16.5523 26 16 26ZM14 25C14 23.8954 14.8954 23 16 23C17.1046 23 18 23.8954 18 25C18 26.1046 17.1046 27 16 27C14.8954 27 14 26.1046 14 25Z" fill="currentColor"/><rect x="8.5" y="4.5" width="15" height="7" rx="1.5" stroke="currentColor"/><path d="M20.5 6.5H21.5V9.5" stroke="currentColor" stroke-linecap="round" stroke-linejoin="round"/></svg>
